<?xml version="1.0" encoding="utf-8"?>
<!-- Generator: Adobe Illustrator 24.1.0, SVG Export Plug-In . SVG Version: 6.00 Build 0)  -->
<svg version="1.1" id="Capa_1" xmlns="http://www.w3.org/2000/svg" xmlns:xlink="http://www.w3.org/1999/xlink" x="0px" y="0px"
	 viewBox="0 0 885.4 888.7" style="enable-background:new 0 0 885.4 888.7;" xml:space="preserve">
<style type="text/css">
	.st0{fill:#F4F9F9;stroke:#8FB5BC;stroke-miterlimit:10;}
	.st1{fill:#032836;}
	.st2{fill:#FFFFFF;stroke:#CC6633;stroke-miterlimit:10;}
	.st3{fill:#CC6633;}
	.st4{fill:#FF2A2A;}
	.st5{fill:#FA7F43;}
	.st6{fill:none;stroke:#8FB5BC;stroke-width:3;stroke-miterlimit:10;}
	.st7{fill:#FFFFFF;stroke:#FF6600;stroke-width:0.75;stroke-miterlimit:10;}
	.st8{fill:#FFFFFF;stroke:#005372;stroke-width:0.5669;stroke-miterlimit:10;}
	.st9{fill:#FFFFFF;stroke:#005372;stroke-width:0.5669;stroke-miterlimit:9.9999;}
	.st10{fill:#FFFFFF;stroke:#005372;stroke-width:0.5669;stroke-miterlimit:10.0003;}
	.st11{fill:#373A47;}
	.st12{enable-background:new    ;}
</style>
<g>
	<path class="st0" d="M713.8,111c-14.5-9.2-27.1-20.5-39.2-31.4c-9-8.1-18.2-16.4-28-23.6c-2.2-1.6-4.5-3.1-6.8-4.5l0,0
		c-13.6-7.8-28.7-11-44.8-14.5c-6.1-1.3-12.2-2.6-18.2-4.2c-12.6-3.3-24.9-6.9-36.8-10.3C502.5,11.6,467,1.3,426.9,0.6
		c-2.2,0-4.4-0.1-6.6-0.1c-52.7,0-105.6,11.9-157.5,35.3c-39.5,17.9-67.4,46.8-96.8,77.5c-7,7.3-14.1,14.6-21.3,21.9
		c-8,8-16,15.7-24,23.2c-32.4,30.9-63,60.1-81.7,103.4c-21.7,50.4-34.8,109.1-38,170c-3.8,73,12.3,149.6,45.1,215.5
		c23.4,47,54.1,92,93.9,137.6c15.6,17.9,31,31.5,47,41.6c45.8,28.9,111.6,45.5,157.2,55.5c66.1,14.5,119.7,1.1,178-16.6
		c12.7-3.9,26-5.5,38.8-7.1c15.9-2,30.9-3.9,45-9.6c12.8-5.2,22.9-14.2,33.7-23.7c8-7.1,16.2-14.4,25.8-20.2
		c7.3-4.4,14.7-8.6,22.1-12.8c13.9-7.9,28.3-16,41.6-25.8c48.4-35.8,80.2-78.1,94.3-125.9c4.2-14.1,7.1-28.9,9.9-43.3
		c4.2-21.7,8.6-44.2,17.5-65.3c2.3-5.5,4.6-10.7,6.8-15.9c11.9-27.2,22.1-50.7,25.4-82.4c7.8-75.3-9.5-152.2-47.4-211
		C810.5,183.5,770.6,147.1,713.8,111z"/>
	<g>
		<path class="st1" d="M212.7,329.6h-2.1v8.7h-5.4v-22.7h7.4c3.1,0,5.4,0.6,7,1.7s2.3,2.9,2.3,5.2c0,1.5-0.3,2.7-1,3.7
			s-1.8,1.8-3.3,2.5l5.8,9.7h-6.1L212.7,329.6z M210.6,325.9h2.3c1.2,0,2.1-0.3,2.7-0.8c0.6-0.5,0.9-1.4,0.9-2.6
			c0-1.1-0.3-1.9-1-2.4c-0.6-0.5-1.6-0.8-3-0.8h-1.9V325.9z"/>
		<path class="st1" d="M242.9,338.3H236l-6.6-17.6c0.2,1.7,0.4,3.2,0.5,4.6c0.1,1.3,0.2,2.9,0.2,4.7v8.3h-4.8v-22.7h6.7l6.7,17.6
			c-0.5-3-0.7-5.8-0.7-8.5v-9.2h4.8v22.8L242.9,338.3L242.9,338.3z"/>
		<path class="st1" d="M259.1,338.3l-1.2-4.9h-6.6l-1.1,4.9h-5.6l6.9-22.7h6.5l6.8,22.7H259.1z M252.2,329.5h4.8l-2.4-10
			L252.2,329.5z"/>
	</g>
	<g>
		<g>
			<g>
				<path class="st2" d="M746.2,178.8C664.8,87,472,134.6,437.4,244.3c-39.2,124.3,118.9,229,236.3,180.6
					c72.4-29.8,117.6-118.4,100.5-191.7C769.5,213.5,760.4,194.9,746.2,178.8z"/>
			</g>
		</g>
		<g>
			<path class="st3" d="M553.5,242.3c10.3-8.1,20-17.9,20-43.3c0-1.8-1.8-3.2-4-3.2s-4,1.5-4,3.2c0,22.9-8.3,31.4-17.8,38.8
				c-9.5-7.4-17.8-15.9-17.8-38.8c0-1.8-1.8-3.2-4-3.2s-4,1.5-4,3.2c0,25.4,9.7,35.2,20,43.3c-10.3,8-20,17.6-20,42.4
				c0,1.8,1.8,3.2,4,3.2s4-1.5,4-3.2c0-22.4,8.3-30.6,17.8-38c9.4,7.4,17.8,15.6,17.8,38c0,1.8,1.8,3.2,4,3.2s4-1.5,4-3.2
				C573.5,259.8,563.8,250.3,553.5,242.3z"/>
			<path class="st3" d="M488.8,301.9c6.5-5.1,12.6-11.3,12.6-27.3c0-1.1-1.1-2-2.5-2s-2.5,0.9-2.5,2c0,14.5-5.2,19.8-11.2,24.5
				c-6-4.7-11.2-10-11.2-24.5c0-1.1-1.1-2-2.5-2s-2.5,0.9-2.5,2c0,16,6.1,22.2,12.6,27.3C475.1,307,469,313,469,328.7
				c0,1.1,1.1,2,2.5,2s2.5-0.9,2.5-2c0-14.1,5.2-19.3,11.2-24c6,4.6,11.2,9.8,11.2,24c0,1.1,1.1,2,2.5,2s2.5-0.9,2.5-2
				C501.4,313,495.3,307,488.8,301.9z"/>
			<path class="st3" d="M682.9,334c7.8-6.1,15.2-13.6,15.2-32.8c0-1.4-1.4-2.5-3.1-2.5s-3.1,1.1-3.1,2.5c0,17.4-6.3,23.8-13.5,29.4
				c-7.2-5.6-13.5-12-13.5-29.4c0-1.4-1.4-2.5-3.1-2.5s-3.1,1.1-3.1,2.5c0,19.3,7.3,26.7,15.2,32.8c-7.8,6.1-15.2,13.3-15.2,32.2
				c0,1.4,1.4,2.5,3.1,2.5s3.1-1.1,3.1-2.5c0-17,6.3-23.2,13.5-28.8c7.2,5.6,13.5,11.8,13.5,28.8c0,1.4,1.4,2.5,3.1,2.5
				s3.1-1.1,3.1-2.5C698.1,347.3,690.7,340.1,682.9,334z"/>
			<path class="st3" d="M618.8,170.5c4.3-3.4,8.4-7.5,8.4-18.3c0-0.8-0.8-1.4-1.7-1.4s-1.7,0.6-1.7,1.4c0,9.7-3.5,13.2-7.5,16.4
				c-4-3.1-7.5-6.7-7.5-16.4c0-0.8-0.8-1.4-1.7-1.4s-1.7,0.6-1.7,1.4c0,10.7,4.1,14.9,8.4,18.3c-4.3,3.4-8.4,7.4-8.4,17.9
				c0,0.8,0.8,1.4,1.7,1.4s1.7-0.6,1.7-1.4c0-9.5,3.5-12.9,7.5-16c4,3.1,7.5,6.6,7.5,16c0,0.8,0.8,1.4,1.7,1.4s1.7-0.6,1.7-1.4
				C627.2,177.9,623.1,173.9,618.8,170.5z"/>
			<path class="st3" d="M615.6,288.3c6.3-4.9,12.2-10.9,12.2-26.4c0-1.1-1.1-2-2.5-2s-2.5,0.9-2.5,2c0,14-5,19.2-10.8,23.7
				c-5.8-4.5-10.8-9.7-10.8-23.7c0-1.1-1.1-2-2.5-2s-2.5,0.9-2.5,2c0,15.5,5.9,21.5,12.2,26.4c-6.3,4.9-12.2,10.7-12.2,25.9
				c0,1.1,1.1,2,2.5,2s2.5-0.9,2.5-2c0-13.7,5.1-18.7,10.8-23.2c5.8,4.5,10.8,9.5,10.8,23.2c0,1.1,1.1,2,2.5,2s2.5-0.9,2.5-2
				C627.8,299.1,621.9,293.2,615.6,288.3z"/>
			<path class="st3" d="M670.4,234.2c4.3-3.4,8.4-7.5,8.4-18.3c0-0.8-0.8-1.4-1.7-1.4s-1.7,0.6-1.7,1.4c0,9.7-3.5,13.2-7.5,16.4
				c-4-3.1-7.5-6.7-7.5-16.4c0-0.8-0.8-1.4-1.7-1.4s-1.7,0.6-1.7,1.4c0,10.7,4.1,14.9,8.4,18.3c-4.3,3.4-8.4,7.4-8.4,17.9
				c0,0.8,0.8,1.4,1.7,1.4s1.7-0.6,1.7-1.4c0-9.5,3.5-12.9,7.5-16c4,3.1,7.5,6.6,7.5,16c0,0.8,0.8,1.4,1.7,1.4s1.7-0.6,1.7-1.4
				C678.8,241.6,674.7,237.6,670.4,234.2z"/>
			<path class="st3" d="M729.4,297c4.3-3.4,8.4-7.5,8.4-18.3c0-0.8-0.8-1.4-1.7-1.4s-1.7,0.6-1.7,1.4c0,9.7-3.5,13.2-7.5,16.4
				c-4-3.1-7.5-6.7-7.5-16.4c0-0.8-0.8-1.4-1.7-1.4s-1.7,0.6-1.7,1.4c0,10.7,4.1,14.9,8.4,18.3c-4.3,3.4-8.4,7.4-8.4,17.9
				c0,0.8,0.8,1.4,1.7,1.4s1.7-0.6,1.7-1.4c0-9.5,3.5-12.9,7.5-16c4,3.1,7.5,6.6,7.5,16c0,0.8,0.8,1.4,1.7,1.4s1.7-0.6,1.7-1.4
				C737.8,304.4,733.7,300.3,729.4,297z"/>
		</g>
		<g>
			<path class="st3" d="M569.7,364.8c2.2,1.6,3.2,4.6,3.2,8.8c0,4.2-1,7.2-3.1,8.9c-2.1,1.7-4.8,2.6-8.2,2.6h-6.8v-22.7h6.3
				C564.7,362.4,567.6,363.2,569.7,364.8z M560.2,366.3v14.9h1.8c1.8,0,3.1-0.6,4-1.7s1.4-3.1,1.4-5.9c0-1.9-0.2-3.5-0.7-4.5
				c-0.5-1.1-1.1-1.8-1.9-2.2s-1.8-0.6-2.9-0.6L560.2,366.3L560.2,366.3z"/>
			<path class="st3" d="M593.7,385.1h-6.9l-6.6-17.6c0.2,1.7,0.4,3.2,0.5,4.6s0.2,2.9,0.2,4.7v8.3h-4.8v-22.7h6.7l6.7,17.6
				c-0.5-3-0.7-5.8-0.7-8.5v-9.2h4.8L593.7,385.1L593.7,385.1z"/>
			<path class="st3" d="M609.9,385.1l-1.2-4.9h-6.6l-1.1,4.9h-5.6l6.9-22.7h6.5l6.8,22.7H609.9z M603,376.3h4.8l-2.4-10L603,376.3z"
				/>
		</g>
		<polygon class="st4" points="521.3,222.8 525.2,216.3 518.7,216.3 518.7,209.9 512.2,213.8 505.8,209.9 505.8,216.3 499.3,216.3 
			503.2,222.8 499.3,229.3 505.8,229.3 505.8,235.7 512.2,231.8 518.7,235.7 518.7,229.3 525.2,229.3 		"/>
		<polygon class="st4" points="713.2,351.6 716,347 711.3,347 711.3,342.4 706.7,345.2 702.1,342.4 702.1,347 697.4,347 
			700.2,351.6 697.4,356.3 702.1,356.3 702.1,360.9 706.7,358.1 711.3,360.9 711.3,356.3 716,356.3 		"/>
		<polygon class="st4" points="466.8,317.1 469.6,312.5 465,312.5 465,307.8 460.3,310.6 455.7,307.8 455.7,312.5 451.1,312.5 
			453.9,317.1 451.1,321.7 455.7,321.7 455.7,326.3 460.3,323.6 465,326.3 465,321.7 469.6,321.7 		"/>
		<polygon class="st4" points="747,291.3 748.8,288.2 745.8,288.2 745.8,285.2 742.7,287 739.7,285.2 739.7,288.2 736.7,288.2 
			738.5,291.3 736.7,294.3 739.7,294.3 739.7,297.3 742.7,295.5 745.8,297.3 745.8,294.3 748.8,294.3 		"/>
	</g>
	<g>
		<path class="st5" d="M169.3,482.9c-32-32.8-99.6-9-108.6,33.9c-10.2,48.7,49.6,84.2,90.2,62.3c25-13.5,38.5-48.7,30.1-76.2
			C178.8,495.5,174.9,488.6,169.3,482.9z"/>
		<path id="XMLID_17_" class="st6" d="M241.8,458.8c-11.1,18.9-29,24.3-48.8,14.9c0,0-14.5-7.3-28-3.2s-21,18.2-21,18.2"/>
		<polygon class="st4" points="229.2,480.6 231.6,475.7 227,476.1 226.6,471.5 222.2,474.6 217.4,472.2 217.7,476.8 213.1,477.2 
			216.3,481.6 213.9,486.4 218.5,486.1 218.9,490.7 223.3,487.5 228.1,489.9 227.7,485.3 232.3,485 		"/>
		<path id="XMLID_15_" class="st6" d="M304.9,425.6c-11.1,18.9-29,24.3-48.8,14.9c0,0-14.5-7.3-28-3.2S207,455.5,207,455.5"/>
		<polygon class="st4" points="292.3,447.3 294.7,442.5 290.1,442.9 289.7,438.3 285.3,441.4 280.5,439 280.8,443.6 276.2,444 
			279.4,448.4 277,453.2 281.6,452.8 282,457.5 286.3,454.3 291.2,456.7 290.8,452.1 295.4,451.7 		"/>
		<path id="XMLID_10_" class="st6" d="M368,392.3c-11.1,18.9-29,24.3-48.8,14.9c0,0-14.5-7.3-28-3.2c-13.5,4.1-21.1,18.2-21.1,18.2"
			/>
		<polygon class="st4" points="355.4,414.1 357.8,409.3 353.2,409.6 352.8,405 348.4,408.2 343.6,405.8 343.9,410.4 339.3,410.7 
			342.5,415.1 340.1,420 344.7,419.6 345.1,424.2 349.4,421.1 354.3,423.5 353.9,418.9 358.5,418.5 		"/>
		<g>
			<circle class="st7" cx="253.5" cy="662.5" r="7.9"/>
			<circle class="st7" cx="248.6" cy="646.9" r="7.9"/>
			<circle class="st7" cx="232.4" cy="645.5" r="7.9"/>
			<circle class="st7" cx="227.5" cy="630" r="7.9"/>
			<circle class="st7" cx="211.3" cy="628.5" r="7.9"/>
			<circle class="st4" cx="206.4" cy="613" r="7.9"/>
			<circle class="st7" cx="190.2" cy="611.6" r="7.9"/>
			<circle class="st7" cx="185.3" cy="596.1" r="7.9"/>
			<circle class="st7" cx="169.1" cy="594.6" r="7.9"/>
			<circle class="st7" cx="164.2" cy="579.1" r="7.9"/>
			<circle class="st7" cx="148" cy="577.6" r="7.9"/>
			<circle class="st7" cx="143.1" cy="562.1" r="7.9"/>
		</g>
	</g>
	<g>
		<path class="st4" d="M382.2,825.9h-5.3l-0.4-8.9c-0.1-2.1-0.2-4-0.2-5.7c0-1.3,0-2.5,0.1-3.6l-3.5,15.8h-5.1l-3.7-15.8
			c0.1,1.9,0.2,3.7,0.2,5.4c0,1.3,0,2.6-0.1,4l-0.4,8.8h-5.2l1.7-22.7h6.8l3.4,15.4l3.2-15.4h6.8L382.2,825.9z"/>
		<path class="st4" d="M400,825.9h-4.5l-0.2-2.2c-1.3,1.8-3,2.8-5.3,2.8c-1.6,0-2.8-0.5-3.6-1.4c-0.8-1-1.2-2.3-1.2-4v-12.5h5.2
			v11.8c0,0.9,0.1,1.4,0.4,1.8c0.3,0.3,0.7,0.5,1.3,0.5c1.1,0,2-0.7,2.8-2v-12.1h5.2L400,825.9L400,825.9z"/>
		<path class="st4" d="M415,825.1c-0.6,0.4-1.4,0.8-2.2,1c-0.8,0.2-1.7,0.4-2.5,0.4c-3.8,0-5.7-2.1-5.7-6.3v-8.1h-2.5v-3.6h2.5v-3.8
			l5.2-0.6v4.4h4l-0.6,3.6h-3.4v8c0,0.8,0.1,1.4,0.4,1.7s0.7,0.5,1.2,0.5c0.6,0,1.2-0.2,1.9-0.6L415,825.1z"/>
		<path class="st4" d="M430.4,822.3c0.2,0.3,0.5,0.5,0.9,0.7l-1.1,3.4c-1.1-0.1-1.9-0.3-2.6-0.7s-1.2-1-1.6-1.8
			c-1.1,1.7-2.9,2.6-5.2,2.6c-1.7,0-3.1-0.5-4.1-1.5s-1.5-2.3-1.5-3.9c0-1.9,0.7-3.4,2.1-4.4s3.4-1.5,6.1-1.5h1.8v-0.8
			c0-1-0.2-1.7-0.7-2.1c-0.4-0.4-1.2-0.6-2.3-0.6c-0.6,0-1.3,0.1-2.1,0.2c-0.8,0.2-1.6,0.4-2.5,0.7l-1.2-3.4
			c1.1-0.4,2.2-0.7,3.4-0.9c1.1-0.2,2.2-0.3,3.2-0.3c2.5,0,4.3,0.5,5.5,1.5s1.7,2.6,1.7,4.6v6.8C430.1,821.6,430.2,822,430.4,822.3z
			 M425,821.1V818h-1.3c-1.2,0-2.1,0.2-2.6,0.6c-0.6,0.4-0.9,1.1-0.9,1.9c0,0.7,0.2,1.2,0.5,1.6c0.4,0.4,0.9,0.6,1.5,0.6
			C423.5,822.8,424.4,822.2,425,821.1z"/>
		<path class="st4" d="M448,809.4c0.9,0.9,1.3,2.2,1.3,3.9V826h-5.2v-11.8c0-0.9-0.1-1.5-0.4-1.8s-0.7-0.5-1.2-0.5
			c-1,0-2.1,0.8-3,2.3v11.9h-5.2v-17.4h4.5l0.4,2.1c0.7-0.9,1.5-1.5,2.4-2c0.9-0.4,1.8-0.7,2.9-0.7C446,808,447.1,808.4,448,809.4z"
			/>
		<path class="st4" d="M464.1,825.1c-0.6,0.4-1.4,0.8-2.2,1c-0.8,0.2-1.7,0.4-2.5,0.4c-3.8,0-5.7-2.1-5.7-6.3v-8.1h-2.5v-3.6h2.5
			v-3.8l5.2-0.6v4.4h4l-0.6,3.6h-3.4v8c0,0.8,0.1,1.4,0.4,1.7s0.7,0.5,1.2,0.5c0.6,0,1.2-0.2,1.9-0.6L464.1,825.1z"/>
		<path class="st4" d="M488.3,810.4c1.1,1.6,1.6,3.9,1.6,6.8c0,1.8-0.3,3.4-0.8,4.8c-0.6,1.4-1.4,2.5-2.4,3.3s-2.3,1.2-3.7,1.2
			c-1.7,0-3.2-0.6-4.2-1.8v8l-5.2,0.6v-24.7h4.6l0.3,1.9c0.7-0.9,1.5-1.5,2.3-1.9c0.9-0.4,1.8-0.6,2.7-0.6
			C485.6,808,487.2,808.8,488.3,810.4z M484.5,817.3c0-2.1-0.2-3.5-0.7-4.3s-1.1-1.2-2.1-1.2c-0.6,0-1.1,0.2-1.7,0.5
			c-0.5,0.3-1,0.9-1.4,1.5v7.3c0.7,1,1.6,1.5,2.7,1.5C483.5,822.7,484.5,820.9,484.5,817.3z"/>
		<path class="st4" d="M504.3,808.3l-0.8,5c-0.7-0.2-1.2-0.2-1.6-0.2c-1,0-1.8,0.4-2.3,1.1c-0.5,0.7-1,1.8-1.3,3.2v8.6h-5.2v-17.4
			h4.5l0.4,3.4c0.4-1.2,1-2.1,1.8-2.8s1.7-1,2.7-1C503.2,808,503.8,808.1,504.3,808.3z"/>
		<path class="st4" d="M519.1,810.4c1.5,1.6,2.3,3.9,2.3,6.8c0,1.9-0.3,3.5-1,4.9s-1.7,2.5-2.9,3.2s-2.8,1.1-4.5,1.1
			c-2.6,0-4.7-0.8-6.2-2.4c-1.5-1.6-2.3-3.9-2.3-6.8c0-1.9,0.3-3.5,1-4.9s1.7-2.5,2.9-3.2c1.3-0.8,2.8-1.1,4.5-1.1
			C515.5,808,517.6,808.8,519.1,810.4z M510.5,813.1c-0.5,0.9-0.8,2.3-0.8,4.1c0,1.9,0.3,3.3,0.8,4.2s1.3,1.3,2.4,1.3
			c1,0,1.8-0.4,2.4-1.3c0.5-0.9,0.8-2.3,0.8-4.1c0-1.9-0.3-3.3-0.8-4.2s-1.3-1.3-2.4-1.3S511,812.2,510.5,813.1z"/>
		<path class="st4" d="M535.4,825.1c-0.6,0.4-1.4,0.8-2.2,1s-1.7,0.4-2.5,0.4c-3.8,0-5.7-2.1-5.7-6.3v-8.1h-2.5v-3.6h2.5v-3.8
			l5.2-0.6v4.4h4l-0.6,3.6h-3.4v8c0,0.8,0.1,1.4,0.4,1.7s0.7,0.5,1.2,0.5c0.6,0,1.2-0.2,1.9-0.6L535.4,825.1z"/>
		<path class="st4" d="M551.6,818.8h-10.8c0.2,1.5,0.6,2.5,1.2,3.1c0.7,0.6,1.6,0.9,2.7,0.9c0.7,0,1.4-0.1,2-0.4
			c0.7-0.3,1.4-0.6,2.1-1.2l2.1,2.9c-2,1.6-4.3,2.4-6.8,2.4c-2.8,0-5-0.8-6.5-2.5s-2.3-3.9-2.3-6.7c0-1.8,0.3-3.4,1-4.8
			c0.6-1.4,1.6-2.5,2.8-3.3s2.7-1.2,4.4-1.2c2.5,0,4.5,0.8,5.9,2.4c1.4,1.6,2.1,3.8,2.1,6.6C551.7,817.6,551.7,818.2,551.6,818.8z
			 M546.6,815.4c0-2.7-1-4-2.8-4c-0.9,0-1.6,0.3-2.1,1s-0.8,1.7-0.9,3.2h5.8V815.4z"/>
		<path class="st4" d="M559.4,800.2c0.6,0.6,0.9,1.3,0.9,2.1c0,0.9-0.3,1.6-0.9,2.1c-0.6,0.6-1.3,0.8-2.2,0.8s-1.6-0.3-2.2-0.8
			c-0.6-0.6-0.9-1.3-0.9-2.1c0-0.9,0.3-1.6,0.9-2.1c0.6-0.6,1.3-0.8,2.2-0.8C558.1,799.4,558.8,799.6,559.4,800.2z M559.8,808.5
			v17.4h-5.2v-17.4H559.8z"/>
		<path class="st4" d="M577.6,809.4c0.9,0.9,1.3,2.2,1.3,3.9V826h-5.2v-11.8c0-0.9-0.1-1.5-0.4-1.8c-0.3-0.3-0.7-0.5-1.2-0.5
			c-1,0-2.1,0.8-3,2.3v11.9h-5.2v-17.4h4.5l0.4,2.1c0.7-0.9,1.5-1.5,2.4-2c0.9-0.4,1.8-0.7,2.9-0.7
			C575.5,808,576.7,808.4,577.6,809.4z"/>
	</g>
	<g>
		<circle class="st8" cx="662.6" cy="632.9" r="29.9"/>
		<ellipse class="st9" cx="514.9" cy="532.2" rx="29.9" ry="29.9"/>
		<circle class="st8" cx="446.5" cy="720.4" r="29.9"/>
		<circle class="st4" cx="559.7" cy="547.9" r="29.9"/>
		<circle class="st8" cx="393.5" cy="739.9" r="29.9"/>
		<circle class="st8" cx="600.2" cy="581.6" r="29.9"/>
		<circle class="st8" cx="500.1" cy="659.2" r="29.9"/>
		<circle class="st8" cx="621.4" cy="671.5" r="29.9"/>
		<circle class="st8" cx="558.3" cy="596.2" r="29.9"/>
		<circle class="st8" cx="550.1" cy="638.1" r="29.9"/>
		<circle class="st8" cx="502.6" cy="714.1" r="29.9"/>
		<circle class="st8" cx="576.8" cy="689.2" r="29.9"/>
		
			<ellipse transform="matrix(0.7071 -0.7071 0.7071 0.7071 -329.6512 575.9622)" class="st10" cx="530.4" cy="685.9" rx="29.9" ry="29.9"/>
		<circle class="st8" cx="670.4" cy="677.2" r="29.9"/>
	</g>
	<g>
		<g>
			<polygon class="st11" points="427.6,372.2 410.5,382.2 414.1,388.2 390.3,382 396.5,358.2 400.1,364.3 417.1,354.3 			"/>
		</g>
	</g>
	<g>
		<g>
			<polygon class="st11" points="291.3,703.9 306.6,716.3 302.2,721.8 326.6,719.3 324.1,694.8 319.7,700.3 304.3,687.8 			"/>
		</g>
	</g>
</g>
<g class="st12">
	<path class="st4" d="M360.9,233.4h-5.6l-0.4-9.5c-0.1-2.3-0.2-4.3-0.2-6.1c0-1.4,0-2.6,0.1-3.8l-3.7,16.8h-5.4l-4-16.8
		c0.1,2,0.2,3.9,0.2,5.7c0,1.4,0,2.8-0.1,4.2l-0.4,9.4h-5.6l1.8-24.3h7.2l3.6,16.5l3.4-16.5h7.3L360.9,233.4z"/>
	<path class="st4" d="M379.9,233.4h-4.8l-0.2-2.3c-1.4,2-3.2,2.9-5.6,2.9c-1.7,0-3-0.5-3.9-1.5s-1.3-2.5-1.3-4.3v-13.3h5.5v12.6
		c0,0.9,0.1,1.5,0.4,1.9c0.3,0.4,0.7,0.5,1.3,0.5c1.2,0,2.2-0.7,3-2.2v-12.9h5.5V233.4z"/>
	<path class="st4" d="M395.9,232.5c-0.7,0.5-1.5,0.8-2.4,1.1c-0.9,0.3-1.8,0.4-2.7,0.4c-4.1,0-6.1-2.3-6.1-6.7v-8.6h-2.6v-3.8h2.6
		v-4l5.5-0.6v4.7h4.3l-0.6,3.8h-3.7v8.5c0,0.9,0.1,1.5,0.4,1.9s0.7,0.6,1.3,0.6c0.6,0,1.3-0.2,2-0.6L395.9,232.5z"/>
	<path class="st4" d="M412.4,229.5c0.2,0.3,0.5,0.6,1,0.7l-1.2,3.6c-1.1-0.1-2.1-0.3-2.8-0.8c-0.7-0.4-1.3-1.1-1.7-1.9
		c-1.2,1.9-3.1,2.8-5.6,2.8c-1.8,0-3.3-0.5-4.4-1.6c-1.1-1.1-1.6-2.5-1.6-4.2c0-2,0.7-3.6,2.2-4.7c1.5-1.1,3.7-1.6,6.5-1.6h1.9v-0.8
		c0-1.1-0.2-1.8-0.7-2.3c-0.5-0.4-1.3-0.6-2.4-0.6c-0.6,0-1.3,0.1-2.2,0.3c-0.9,0.2-1.8,0.4-2.7,0.7l-1.3-3.6c1.2-0.4,2.4-0.8,3.6-1
		c1.2-0.2,2.4-0.3,3.4-0.3c2.7,0,4.6,0.5,5.8,1.6c1.2,1.1,1.9,2.7,1.9,4.9v7.2C412.1,228.7,412.2,229.2,412.4,229.5z M406.6,228.2
		v-3.3h-1.4c-1.3,0-2.2,0.2-2.8,0.7c-0.6,0.4-0.9,1.1-0.9,2.1c0,0.7,0.2,1.3,0.6,1.7c0.4,0.4,0.9,0.6,1.6,0.6
		C405,230,405.9,229.4,406.6,228.2z"/>
	<path class="st4" d="M428.1,232.5c-0.7,0.5-1.5,0.8-2.4,1.1c-0.9,0.3-1.8,0.4-2.7,0.4c-4.1,0-6.1-2.3-6.1-6.7v-8.6h-2.6v-3.8h2.6
		v-4l5.5-0.6v4.7h4.3l-0.6,3.8h-3.7v8.5c0,0.9,0.1,1.5,0.4,1.9s0.7,0.6,1.3,0.6c0.6,0,1.3-0.2,2-0.6L428.1,232.5z"/>
	<path class="st4" d="M435.1,205.9c0.6,0.6,0.9,1.3,0.9,2.3c0,0.9-0.3,1.7-0.9,2.3c-0.6,0.6-1.4,0.9-2.4,0.9c-1,0-1.7-0.3-2.3-0.9
		c-0.6-0.6-0.9-1.3-0.9-2.3c0-0.9,0.3-1.7,0.9-2.3c0.6-0.6,1.4-0.9,2.3-0.9C433.7,205,434.4,205.3,435.1,205.9z M435.5,214.8v18.6
		H430v-18.6H435.5z"/>
	<path class="st4" d="M454.6,216.8c1.6,1.7,2.4,4.2,2.4,7.3c0,2-0.4,3.7-1.1,5.2c-0.7,1.5-1.8,2.6-3.1,3.4s-3,1.2-4.8,1.2
		c-2.8,0-5-0.9-6.7-2.6c-1.6-1.7-2.4-4.2-2.4-7.3c0-2,0.4-3.7,1.1-5.2c0.7-1.5,1.8-2.6,3.1-3.4c1.4-0.8,3-1.2,4.8-1.2
		C450.7,214.2,453,215.1,454.6,216.8z M445.4,219.7c-0.6,0.9-0.8,2.4-0.8,4.4c0,2,0.3,3.5,0.8,4.4c0.5,0.9,1.4,1.4,2.5,1.4
		c1.1,0,2-0.5,2.5-1.4c0.6-0.9,0.8-2.4,0.8-4.4c0-2-0.3-3.5-0.8-4.4c-0.5-0.9-1.4-1.4-2.5-1.4C446.8,218.3,445.9,218.7,445.4,219.7z
		"/>
	<path class="st4" d="M474.9,215.7c0.9,1,1.4,2.4,1.4,4.1v13.6h-5.5v-12.6c0-0.9-0.1-1.6-0.4-1.9c-0.3-0.4-0.7-0.5-1.3-0.5
		c-1.1,0-2.2,0.8-3.2,2.4v12.7h-5.5v-18.6h4.8l0.4,2.2c0.8-0.9,1.7-1.6,2.6-2.1c0.9-0.5,2-0.7,3.1-0.7
		C472.8,214.2,474,214.7,474.9,215.7z"/>
</g>
</svg>
