<?xml version="1.0" encoding="UTF-8"?>
<svg id="Capa_1" xmlns="http://www.w3.org/2000/svg" xmlns:xlink="http://www.w3.org/1999/xlink" version="1.1" viewBox="0 0 463.8 547.8">
  <!-- Generator: Adobe Illustrator 29.3.1, SVG Export Plug-In . SVG Version: 2.1.0 Build 151)  -->
  <defs>
    <style>
      .st0 {
        fill: none;
        stroke: #ff2a2a;
      }

      .st0, .st1 {
        stroke-miterlimit: 10;
      }

      .st1 {
        fill: #fff;
        stroke: #8fb5bc;
        stroke-width: 1.5px;
      }

      .st2 {
        isolation: isolate;
      }

      .st3 {
        fill: #ff2a2a;
      }
    </style>
  </defs>
  <g>
    <g>
      <path class="st1" d="M395.8,184.1c-10.4-16.1-26.8-31-50.3-46.1-6-3.8-11.1-8.4-16.3-13-3.6-3.3-7.5-6.8-11.6-9.8-.9-.6-2-1.2-2.9-2h0c-5.6-3.3-11.9-4.7-18.4-6-2.6-.5-5-1.1-7.5-1.8-5.3-1.4-10.2-2.9-15.2-4.2-15.5-4.5-30.1-8.7-46.7-9h-2.7c-21.8,0-43.7,5-65.1,14.6-16.3,7.4-27.9,19.4-39.9,32.1-2.9,3-5.7,6-8.7,9s-6.6,6.5-9.9,9.6c-13.4,12.8-26.1,24.9-33.7,42.8-8.9,20.8-14.3,45-15.7,70.2-1.5,30.1,5,61.8,18.7,89,9.6,19.4,22.3,38,38.7,56.8,6.5,7.4,12.8,13,19.4,17.2,19,11.9,46.1,18.7,64.9,22.9,27.3,6,49.4.5,73.5-6.8,5.3-1.5,10.8-2.3,16-2.9,6.6-.9,12.8-1.5,18.5-3.9,5.3-2.3,9.5-5.9,13.9-9.8,3.3-2.9,6.6-6,10.7-8.4,3-2,6-3.6,9-5.3,5.7-3.3,11.8-6.6,17.2-10.7,20-14.8,33.1-32.2,39-52,1.7-5.7,2.9-11.9,4.1-17.9,1.8-9,3.6-18.2,7.2-27,.9-2.3,2-4.4,2.9-6.6,5-11.1,9-20.9,10.4-34,3.2-31.1-4-62.8-19.5-87h0Z"/>
      <g>
        <path class="st1" d="M271.3,160c-44.1-53-148.4-25.6-167.1,38-21.2,71.8,64.4,132.2,128,104.3,39.2-17.3,63.7-68.4,54.4-110.7-2.6-11.4-7.4-22.3-15.3-31.6h0Z"/>
        <g>
          <path class="st1" d="M196.2,172.6h-9.8c0,40.4,12.4,40.8,25.6,53.6-13.1,12.7-25.6,12.7-25.6,52.3h9.8c0-35.7,10.7-33.7,22.9-45.5,12.2,11.8,22.9,9.6,22.9,45.5h9.8c0-39.6-12.5-39.5-25.6-52.3,13.1-12.8,25.6-13.3,25.6-53.6h-9.8c0,36.6-10.7,35-22.9,46.9-12.2-11.9-22.9-10.3-22.9-46.9Z"/>
          <polygon class="st3" points="251 235.3 244.7 231.5 244.7 237.7 238.5 237.7 242.3 244 238.5 250.2 244.7 250.2 244.7 256.5 251 252.8 257.2 256.5 257.2 250.2 263.4 250.2 259.6 244 263.4 237.7 257.2 237.7 257.2 231.5 251 235.3"/>
        </g>
      </g>
      <g>
        <circle class="st1" cx="335.1" cy="363" r="13.4"/>
        <circle class="st1" cx="269.1" cy="318" r="13.4"/>
        <circle class="st1" cx="238.5" cy="402.2" r="13.4"/>
        <circle class="st1" cx="289.1" cy="325.1" r="13.4"/>
        <circle class="st1" cx="214.7" cy="410.9" r="13.4"/>
        <circle class="st1" cx="307.3" cy="340" r="13.4"/>
        <circle class="st1" cx="262.5" cy="374.8" r="13.4"/>
        <circle class="st1" cx="316.7" cy="380.4" r="13.4"/>
        <circle class="st1" cx="288.5" cy="346.6" r="13.4"/>
        <circle class="st1" cx="284.9" cy="365.3" r="13.4"/>
        <circle class="st1" cx="263.5" cy="399.3" r="13.4"/>
        <circle class="st1" cx="296.8" cy="388.2" r="13.4"/>
        <circle class="st1" cx="276" cy="386.7" r="13.4"/>
        <circle class="st3" cx="338.5" cy="382.8" r="13.4"/>
      </g>
    </g>
    <path class="st1" d="M147.1,222.3h-5.1c0,20.8,6.3,20.9,13.1,27.6-6.8,6.5-13.1,6.5-13.1,27h5.1c0-18.4,5.6-17.3,11.8-23.4,6.3,6,11.8,5,11.8,23.4h5.1c0-20.3-6.5-20.3-13.1-27,6.8-6.6,13.1-6.8,13.1-27.6h-5.1c0,18.8-5.4,18.1-11.8,24.1-6.4-6-11.8-5.1-11.8-24.1h0Z"/>
    <path class="st1" d="M155.8,173.5h-3.2c0,13.3,4.1,13.3,8.3,17.5-4.2,4.2-8.3,4.2-8.3,17h3.2c0-11.8,3.5-11,7.5-14.9,3.9,3.9,7.5,3.2,7.5,14.9h3.2c0-13-4.1-13-8.3-17,4.4-4.2,8.3-4.4,8.3-17.5h-3.2c0,11.9-3.5,11.4-7.5,15.4-3.9-3.9-7.5-3.5-7.5-15.4Z"/>
    <path class="st1" d="M119.2,189.6h-2.7c0,11.4,3.5,11.6,7.2,15.2-3.8,3.6-7.2,3.6-7.2,14.8h2.7c0-10.1,3-9.5,6.5-12.8,3.5,3.3,6.5,2.7,6.5,12.8h2.7c0-11.1-3.5-11.1-7.2-14.8,3.8-3.6,7.2-3.8,7.2-15.2h-2.7c0,10.4-3,9.9-6.5,13.3-3.5-3.3-6.5-2.9-6.5-13.3Z"/>
    <path class="st1" d="M212.6,154.2h-2.7c0,11.4,3.5,11.6,7.2,15.2-3.8,3.6-7.2,3.6-7.2,14.8h2.7c0-10.1,3-9.5,6.5-12.8,3.5,3.3,6.5,2.7,6.5,12.8h2.7c0-11.1-3.5-11.1-7.2-14.8,3.8-3.6,7.2-3.8,7.2-15.2h-2.7c0,10.4-3,9.9-6.5,13.3-3.5-3.5-6.5-3-6.5-13.3Z"/>
    <path class="st1" d="M261.1,202.3h-1.4c0,5.7,1.8,5.7,3.6,7.5-1.8,1.8-3.6,1.8-3.6,7.4h1.4c0-5.1,1.5-4.8,3.2-6.5,1.7,1.7,3.2,1.4,3.2,6.5h1.4c0-5.6-1.8-5.6-3.6-7.4,1.8-1.8,3.6-1.8,3.6-7.5h-1.4c0,5.1-1.5,5-3.2,6.6-1.7-1.6-3.2-1.5-3.2-6.6Z"/>
  </g>
  <line class="st0" x1="251.2" y1="79" x2="251.2" y2="228.4"/>
  <line class="st0" x1="341.2" y1="403" x2="341.2" y2="474.4"/>
  <g class="st2">
    <g class="st2">
      <path class="st3" d="M123.6,38.4h-5.5l-.4-9.2c-.1-2.2-.2-4.2-.2-5.9s0-2.6.1-3.7l-3.6,16.4h-5.3l-3.9-16.4c.1,2,.2,3.8.2,5.6s0,2.7-.1,4.1l-.4,9.1h-5.4l1.8-23.6h7l3.5,16,3.3-16h7.1l1.8,23.6Z"/>
      <path class="st3" d="M142,38.4h-4.7l-.2-2.3c-1.3,1.9-3.1,2.9-5.5,2.9s-2.9-.5-3.8-1.5-1.3-2.4-1.3-4.2v-13h5.4v12.3c0,.9.1,1.5.4,1.9.3.4.7.5,1.3.5,1.1,0,2.1-.7,2.9-2.1v-12.5h5.4v18.1Z"/>
      <path class="st3" d="M157.6,37.6c-.7.5-1.4.8-2.3,1.1s-1.7.4-2.6.4c-3.9,0-5.9-2.2-5.9-6.5v-8.4h-2.6v-3.7h2.6v-3.9l5.4-.6v4.5h4.1l-.6,3.7h-3.6v8.3c0,.8.1,1.4.4,1.8s.7.5,1.3.5,1.3-.2,1.9-.6l1.8,3.4Z"/>
      <path class="st3" d="M173.6,34.7c.2.3.5.6.9.7l-1.1,3.5c-1.1,0-2-.3-2.7-.7s-1.2-1-1.6-1.9c-1.2,1.8-3,2.7-5.4,2.7s-3.2-.5-4.3-1.6c-1.1-1-1.6-2.4-1.6-4.1s.7-3.5,2.2-4.5c1.5-1,3.5-1.6,6.3-1.6h1.8v-.8c0-1.1-.2-1.8-.7-2.2-.5-.4-1.2-.6-2.4-.6s-1.3,0-2.1.3c-.8.2-1.7.4-2.6.7l-1.2-3.5c1.1-.4,2.3-.8,3.5-1s2.3-.3,3.3-.3c2.6,0,4.5.5,5.7,1.6,1.2,1.1,1.8,2.7,1.8,4.8v7c0,.7,0,1.2.3,1.5ZM168.1,33.4v-3.2h-1.3c-1.2,0-2.1.2-2.7.6-.6.4-.9,1.1-.9,2s.2,1.3.6,1.7c.4.4.9.6,1.5.6,1.2,0,2.2-.6,2.9-1.7Z"/>
      <path class="st3" d="M188.8,20.3c1,.4,1.9.9,2.8,1.7l-2.3,3.2c-1.1-.9-2.3-1.3-3.4-1.3s-2.1.4-2.7,1.3c-.6.9-.9,2.3-.9,4.3s.3,3.3.9,4c.6.8,1.5,1.2,2.7,1.2s1.2,0,1.7-.3,1.1-.5,1.8-.9l2.3,3.3c-1.8,1.4-3.8,2.1-6.1,2.1s-3.4-.4-4.8-1.2c-1.3-.8-2.4-1.9-3.1-3.3-.7-1.4-1.1-3.1-1.1-5s.4-3.6,1.1-5.1c.7-1.5,1.8-2.6,3.1-3.5,1.3-.8,2.9-1.2,4.7-1.2s2.4.2,3.4.5Z"/>
      <path class="st3" d="M198.8,11.7c.6.6.9,1.3.9,2.2s-.3,1.6-.9,2.2c-.6.6-1.4.9-2.3.9s-1.7-.3-2.3-.9c-.6-.6-.9-1.3-.9-2.2s.3-1.6.9-2.2c.6-.6,1.3-.9,2.3-.9s1.7.3,2.3.9ZM199.3,20.3v18.1h-5.4v-18.1h5.4Z"/>
      <path class="st3" d="M217.8,22.3c1.6,1.7,2.3,4.1,2.3,7.1s-.4,3.6-1.1,5c-.7,1.4-1.7,2.6-3.1,3.3-1.3.8-2.9,1.2-4.7,1.2-2.7,0-4.9-.8-6.5-2.5-1.6-1.7-2.4-4.1-2.4-7.1s.4-3.6,1.1-5c.7-1.4,1.7-2.6,3.1-3.3,1.3-.8,2.9-1.2,4.7-1.2,2.8,0,4.9.8,6.5,2.5ZM213.8,10l2.1,4-8,3.2-1.5-2.8,7.4-4.5ZM208.9,25.1c-.5.9-.8,2.3-.8,4.3s.3,3.4.8,4.3c.5.9,1.4,1.4,2.5,1.4s1.9-.5,2.4-1.4.8-2.3.8-4.3-.3-3.4-.8-4.3c-.5-.9-1.4-1.4-2.5-1.4s-1.9.5-2.4,1.4Z"/>
      <path class="st3" d="M237.6,21.2c.9,1,1.3,2.3,1.3,4v13.2h-5.4v-12.3c0-.9-.1-1.5-.4-1.9-.3-.4-.7-.5-1.3-.5-1.1,0-2.1.8-3.1,2.3v12.3h-5.4v-18.1h4.7l.4,2.1c.8-.9,1.6-1.6,2.5-2,.9-.5,1.9-.7,3-.7s2.8.5,3.7,1.4Z"/>
      <path class="st3" d="M256,11.7c.6.6.9,1.3.9,2.2s-.3,1.6-.9,2.2c-.6.6-1.4.9-2.3.9s-1.7-.3-2.3-.9c-.6-.6-.9-1.3-.9-2.2s.3-1.6.9-2.2c.6-.6,1.3-.9,2.3-.9s1.7.3,2.3.9ZM256.4,20.3v18.1h-5.4v-18.1h5.4Z"/>
      <path class="st3" d="M284,21.2c.9,1,1.3,2.3,1.3,4v13.2h-5.4v-12.3c0-1.6-.5-2.4-1.5-2.4s-1.1.2-1.5.6c-.4.4-.9,1-1.3,1.8v12.3h-5.4v-12.3c0-1.6-.5-2.4-1.5-2.4s-1,.2-1.5.6c-.4.4-.9,1-1.3,1.8v12.3h-5.4v-18.1h4.7l.4,2.1c.7-.9,1.5-1.6,2.3-2,.9-.4,1.8-.7,2.9-.7s1.9.2,2.6.7c.7.5,1.3,1.2,1.6,2.1.7-1,1.5-1.7,2.4-2.2.9-.5,1.9-.7,3-.7s2.6.5,3.4,1.4Z"/>
      <path class="st3" d="M304.6,22.3c1.1,1.7,1.7,4,1.7,7s-.3,3.5-.9,5c-.6,1.5-1.4,2.6-2.5,3.4-1.1.8-2.4,1.2-3.8,1.2s-3.3-.6-4.4-1.9v8.3l-5.4.6v-25.6h4.7l.3,2c.7-.9,1.5-1.5,2.4-2,.9-.4,1.8-.6,2.8-.6,2.3,0,4,.8,5.1,2.5ZM300.7,29.4c0-2.1-.2-3.6-.7-4.4-.5-.8-1.2-1.2-2.1-1.2s-1.2.2-1.7.5c-.5.4-1,.9-1.4,1.6v7.6c.7,1.1,1.6,1.6,2.8,1.6,2.2,0,3.2-1.9,3.2-5.6Z"/>
      <path class="st3" d="M324.9,38.4h-4.7l-.2-2.3c-1.3,1.9-3.1,2.9-5.5,2.9s-2.9-.5-3.8-1.5c-.9-1-1.3-2.4-1.3-4.2v-13h5.4v12.3c0,.9.1,1.5.4,1.9s.7.5,1.3.5c1.1,0,2.1-.7,2.9-2.1v-12.5h5.4v18.1Z"/>
      <path class="st3" d="M330.2,37.6c-.9-.9-1.3-2.2-1.3-3.8V13.2l5.4-.6v21c0,.7.3,1.1.9,1.1s.6,0,.9-.2l1.1,3.8c-1,.4-2.1.6-3.3.6s-2.8-.4-3.7-1.3Z"/>
      <path class="st3" d="M349.2,20.3c1.1.4,2.1.9,3,1.6l-2,3c-1.5-.9-3-1.4-4.5-1.4s-1.2.1-1.6.4c-.4.2-.6.6-.6,1s0,.6.3.8.5.4,1,.7c.5.2,1.3.5,2.4.8,1.9.5,3.3,1.3,4.2,2.1.9.9,1.4,2.1,1.4,3.6s-.4,2.3-1.1,3.2c-.7.9-1.7,1.6-2.9,2.1-1.2.5-2.6.7-4.1.7s-2.9-.2-4.2-.7c-1.3-.5-2.4-1.1-3.3-2l2.6-2.9c1.5,1.2,3.1,1.8,4.8,1.8s1.5-.1,1.9-.4c.5-.3.7-.7.7-1.3s0-.8-.3-1c-.2-.2-.5-.5-1.1-.7-.5-.2-1.3-.5-2.5-.8-1.8-.5-3.1-1.2-4-2.2-.9-.9-1.3-2.1-1.3-3.5s.3-2,.9-2.8,1.5-1.5,2.6-2c1.1-.5,2.4-.7,3.9-.7s2.5.2,3.6.6Z"/>
      <path class="st3" d="M369.9,22.3c1.6,1.7,2.3,4.1,2.3,7.1s-.4,3.6-1.1,5-1.7,2.6-3.1,3.3c-1.3.8-2.9,1.2-4.7,1.2-2.7,0-4.9-.8-6.5-2.5s-2.4-4.1-2.4-7.1.4-3.6,1.1-5,1.7-2.6,3.1-3.3c1.3-.8,2.9-1.2,4.7-1.2,2.8,0,4.9.8,6.5,2.5ZM361,25.1c-.5.9-.8,2.3-.8,4.3s.3,3.4.8,4.3,1.4,1.4,2.5,1.4,1.9-.5,2.4-1.4.8-2.3.8-4.3-.3-3.4-.8-4.3c-.5-.9-1.4-1.4-2.5-1.4s-1.9.5-2.4,1.4Z"/>
      <path class="st3" d="M387,20.1l-.9,5.2c-.7-.2-1.2-.2-1.6-.2-1.1,0-1.9.4-2.4,1.1-.6.7-1,1.8-1.3,3.3v8.9h-5.4v-18.1h4.7l.4,3.5c.4-1.2,1-2.2,1.9-2.9.8-.7,1.8-1.1,2.8-1.1s1.3,0,1.8.2Z"/>
      <path class="st3" d="M402.5,34.7c.2.3.5.6.9.7l-1.1,3.5c-1.1,0-2-.3-2.7-.7-.7-.4-1.2-1-1.6-1.9-1.2,1.8-3,2.7-5.4,2.7s-3.2-.5-4.3-1.6c-1.1-1-1.6-2.4-1.6-4.1s.7-3.5,2.2-4.5c1.5-1,3.5-1.6,6.3-1.6h1.8v-.8c0-1.1-.2-1.8-.7-2.2s-1.2-.6-2.4-.6-1.3,0-2.1.3c-.8.2-1.7.4-2.6.7l-1.2-3.5c1.1-.4,2.3-.8,3.5-1,1.2-.2,2.3-.3,3.3-.3,2.6,0,4.5.5,5.7,1.6,1.2,1.1,1.8,2.7,1.8,4.8v7c0,.7,0,1.2.3,1.5ZM397,33.4v-3.2h-1.3c-1.2,0-2.1.2-2.7.6s-.9,1.1-.9,2,.2,1.3.6,1.7c.4.4.9.6,1.5.6,1.2,0,2.2-.6,2.9-1.7Z"/>
      <path class="st3" d="M189.7,49.2v25.2h-4.8l-.3-2.1c-1.3,1.8-3,2.7-5.1,2.7s-3.9-.9-5.1-2.6-1.8-4.1-1.8-7.1.3-3.5.9-4.9c.6-1.5,1.5-2.6,2.6-3.4,1.1-.8,2.4-1.2,3.9-1.2s3.1.6,4.3,1.7v-8.9l5.4.6ZM184.4,69v-7.8c-.4-.5-.9-.9-1.3-1.2-.4-.2-.9-.4-1.5-.4-1,0-1.8.5-2.4,1.4-.6.9-.9,2.4-.9,4.3s.3,3.6.8,4.4c.5.8,1.2,1.3,2.2,1.3s2.3-.7,3.1-2Z"/>
      <path class="st3" d="M209.6,67h-11.2c.2,1.5.6,2.6,1.3,3.2s1.6.9,2.8.9,1.4-.1,2.1-.4c.7-.3,1.4-.7,2.2-1.2l2.2,3c-2.1,1.7-4.5,2.5-7,2.5s-5.2-.9-6.7-2.6-2.3-4-2.3-6.9.3-3.5,1-4.9c.7-1.5,1.6-2.6,2.9-3.5,1.3-.8,2.8-1.3,4.6-1.3,2.6,0,4.6.8,6.1,2.4,1.5,1.6,2.2,3.9,2.2,6.8s0,1.4-.1,1.9ZM204.4,63.5c0-2.8-1-4.1-2.9-4.1s-1.6.3-2.2,1c-.5.7-.8,1.8-.9,3.4h6v-.2Z"/>
      <path class="st3" d="M213.9,73.6c-.9-.9-1.3-2.2-1.3-3.8v-20.6l5.4-.6v21c0,.7.3,1.1.9,1.1s.6,0,.9-.2l1.1,3.8c-1,.4-2.1.6-3.3.6s-2.8-.4-3.7-1.3Z"/>
      <path class="st3" d="M242.1,56.3c1,.4,1.9.9,2.8,1.7l-2.3,3.2c-1.1-.9-2.3-1.3-3.4-1.3s-2.1.4-2.7,1.3c-.6.9-.9,2.3-.9,4.3s.3,3.3.9,4c.6.8,1.5,1.2,2.7,1.2s1.2,0,1.7-.3c.5-.2,1.1-.5,1.8-.9l2.3,3.3c-1.8,1.4-3.8,2.1-6.1,2.1s-3.4-.4-4.8-1.2c-1.3-.8-2.4-1.9-3.1-3.3-.7-1.4-1.1-3.1-1.1-5s.4-3.6,1.1-5.1c.7-1.5,1.8-2.6,3.1-3.5,1.3-.8,2.9-1.2,4.7-1.2s2.4.2,3.4.5Z"/>
      <path class="st3" d="M261.5,70.7c.2.3.5.6.9.7l-1.1,3.5c-1.1,0-2-.3-2.7-.7-.7-.4-1.2-1-1.6-1.9-1.2,1.8-3,2.7-5.4,2.7s-3.2-.5-4.3-1.6c-1.1-1-1.6-2.4-1.6-4.1s.7-3.5,2.2-4.5c1.5-1,3.5-1.6,6.3-1.6h1.8v-.8c0-1.1-.2-1.8-.7-2.2s-1.2-.6-2.4-.6-1.3,0-2.1.3c-.8.2-1.7.4-2.6.7l-1.2-3.5c1.1-.4,2.3-.8,3.5-1,1.2-.2,2.3-.3,3.3-.3,2.6,0,4.5.5,5.7,1.6,1.2,1.1,1.8,2.7,1.8,4.8v7c0,.7,0,1.2.3,1.5ZM256.4,46l2.1,4-8,3.2-1.5-2.8,7.4-4.5ZM255.9,69.4v-3.2h-1.3c-1.2,0-2.1.2-2.7.6s-.9,1.1-.9,2,.2,1.3.6,1.7c.4.4.9.6,1.5.6,1.2,0,2.2-.6,2.9-1.7Z"/>
      <path class="st3" d="M279.7,57.2c.9,1,1.3,2.3,1.3,4v13.2h-5.4v-12.3c0-.9-.1-1.5-.4-1.9-.3-.4-.7-.5-1.3-.5-1.1,0-2.1.8-3.1,2.3v12.3h-5.4v-18.1h4.7l.4,2.1c.8-.9,1.6-1.6,2.5-2,.9-.5,1.9-.7,3-.7s2.8.5,3.7,1.4Z"/>
      <path class="st3" d="M296.2,56.3c1,.4,1.9.9,2.8,1.7l-2.3,3.2c-1.1-.9-2.3-1.3-3.4-1.3s-2.1.4-2.7,1.3c-.6.9-.9,2.3-.9,4.3s.3,3.3.9,4c.6.8,1.5,1.2,2.7,1.2s1.2,0,1.7-.3c.5-.2,1.1-.5,1.8-.9l2.3,3.3c-1.8,1.4-3.8,2.1-6.1,2.1s-3.4-.4-4.8-1.2c-1.3-.8-2.4-1.9-3.1-3.3-.7-1.4-1.1-3.1-1.1-5s.4-3.6,1.1-5.1c.7-1.5,1.8-2.6,3.1-3.5,1.3-.8,2.9-1.2,4.7-1.2s2.4.2,3.4.5Z"/>
      <path class="st3" d="M316.3,67h-11.2c.2,1.5.6,2.6,1.3,3.2.7.6,1.6.9,2.8.9s1.4-.1,2.1-.4,1.4-.7,2.2-1.2l2.2,3c-2.1,1.7-4.5,2.5-7,2.5s-5.2-.9-6.7-2.6c-1.6-1.7-2.3-4-2.3-6.9s.3-3.5,1-4.9,1.6-2.6,2.9-3.5c1.3-.8,2.8-1.3,4.6-1.3,2.6,0,4.6.8,6.1,2.4,1.5,1.6,2.2,3.9,2.2,6.8s0,1.4-.1,1.9ZM311.1,63.5c0-2.8-1-4.1-2.9-4.1s-1.6.3-2.2,1-.8,1.8-.9,3.4h6v-.2Z"/>
      <path class="st3" d="M331,56.1l-.8,5.2c-.7-.2-1.2-.2-1.6-.2-1.1,0-1.9.4-2.4,1.1s-1,1.8-1.3,3.3v8.9h-5.4v-18.1h4.7l.4,3.5c.4-1.2,1-2.2,1.9-2.9.8-.7,1.8-1.1,2.8-1.1s1.3,0,1.8.2Z"/>
    </g>
  </g>
  <g class="st2">
    <g class="st2">
      <path class="st3" d="M183.8,483.4c1.7,1.3,2.6,3.2,2.6,5.7s-.8,4.7-2.5,6c-1.7,1.3-4,2-6.8,2h-2.5v7.9h-5.6v-23.6h7.6c3.1,0,5.5.6,7.2,1.9ZM179.6,492.2c.7-.6,1-1.6,1-3.1,0-2.5-1.4-3.7-4.1-3.7h-2v7.7h2.1c1.3,0,2.3-.3,3-.9Z"/>
      <path class="st3" d="M200.2,486.7l-.9,5.2c-.7-.2-1.2-.2-1.6-.2-1.1,0-1.9.4-2.4,1.1-.6.7-1,1.8-1.3,3.3v8.9h-5.4v-18.1h4.7l.4,3.5c.4-1.2,1-2.2,1.9-2.9.8-.7,1.8-1.1,2.8-1.1s1.3,0,1.8.2Z"/>
      <path class="st3" d="M215.5,488.9c1.6,1.7,2.3,4.1,2.3,7.1s-.4,3.6-1.1,5c-.7,1.4-1.7,2.6-3.1,3.3-1.3.8-2.9,1.2-4.7,1.2-2.7,0-4.9-.8-6.5-2.5-1.6-1.7-2.4-4.1-2.4-7.1s.4-3.6,1.1-5c.7-1.4,1.7-2.6,3.1-3.3,1.3-.8,2.9-1.2,4.7-1.2,2.8,0,4.9.8,6.5,2.5ZM206.6,491.7c-.5.9-.8,2.3-.8,4.3s.3,3.4.8,4.3c.5.9,1.4,1.4,2.5,1.4s1.9-.5,2.4-1.4.8-2.3.8-4.3-.3-3.4-.8-4.3c-.5-.9-1.4-1.4-2.5-1.4s-1.9.5-2.4,1.4Z"/>
      <path class="st3" d="M232.4,504.2c-.7.5-1.4.8-2.3,1.1s-1.7.4-2.6.4c-3.9,0-5.9-2.2-5.9-6.5v-8.4h-2.6v-3.7h2.6v-3.9l5.4-.6v4.5h4.1l-.6,3.7h-3.6v8.3c0,.8.1,1.4.4,1.8s.7.5,1.3.5,1.3-.2,1.9-.6l1.8,3.4Z"/>
      <path class="st3" d="M249.2,497.6h-11.2c.2,1.5.6,2.6,1.3,3.2.7.6,1.6.9,2.8.9s1.4-.1,2.1-.4c.7-.3,1.4-.7,2.2-1.2l2.2,3c-2.1,1.7-4.5,2.5-7,2.5s-5.2-.9-6.7-2.6c-1.6-1.7-2.3-4-2.3-6.9s.3-3.5,1-4.9c.7-1.5,1.6-2.6,2.9-3.5,1.3-.8,2.8-1.3,4.6-1.3,2.6,0,4.6.8,6.1,2.4,1.5,1.6,2.2,3.9,2.2,6.8s0,1.4-.1,1.9ZM244,494.1c0-2.8-1-4.1-2.9-4.1s-1.6.3-2.2,1c-.5.7-.8,1.8-.9,3.4h6v-.2Z"/>
      <path class="st3" d="M257.5,476.6l2.1,4-8,3.2-1.5-2.8,7.4-4.5ZM257.7,486.9v18.1h-5.4v-18.1h5.4Z"/>
      <path class="st3" d="M276.2,487.8c.9,1,1.3,2.3,1.3,4v13.2h-5.4v-12.3c0-.9-.1-1.5-.4-1.9-.3-.4-.7-.5-1.3-.5-1.1,0-2.1.8-3.1,2.3v12.3h-5.4v-18.1h4.7l.4,2.1c.8-.9,1.6-1.6,2.5-2,.9-.5,1.9-.7,3-.7s2.8.5,3.7,1.4Z"/>
      <path class="st3" d="M296.2,501.3c.2.3.5.6.9.7l-1.1,3.5c-1.1,0-2-.3-2.7-.7-.7-.4-1.2-1-1.6-1.9-1.2,1.8-3,2.7-5.4,2.7s-3.2-.5-4.3-1.6c-1.1-1-1.6-2.4-1.6-4.1s.7-3.5,2.2-4.5c1.5-1,3.5-1.6,6.3-1.6h1.8v-.8c0-1.1-.2-1.8-.7-2.2s-1.2-.6-2.4-.6-1.3,0-2.1.3c-.8.2-1.7.4-2.6.7l-1.2-3.5c1.1-.4,2.3-.8,3.5-1,1.2-.2,2.3-.3,3.3-.3,2.6,0,4.5.5,5.7,1.6,1.2,1.1,1.8,2.7,1.8,4.8v7c0,.7,0,1.2.3,1.5ZM290.6,500v-3.2h-1.3c-1.2,0-2.1.2-2.7.6s-.9,1.1-.9,2,.2,1.3.6,1.7c.4.4.9.6,1.5.6,1.2,0,2.2-.6,2.9-1.7Z"/>
      <path class="st3" d="M313.2,478.3c.6.6.9,1.3.9,2.2s-.3,1.6-.9,2.2c-.6.6-1.4.9-2.3.9s-1.7-.3-2.3-.9c-.6-.6-.9-1.3-.9-2.2s.3-1.6.9-2.2c.6-.6,1.3-.9,2.3-.9s1.7.3,2.3.9ZM313.6,486.9v18.1h-5.4v-18.1h5.4Z"/>
      <path class="st3" d="M341.2,487.8c.9,1,1.3,2.3,1.3,4v13.2h-5.4v-12.3c0-1.6-.5-2.4-1.5-2.4s-1.1.2-1.5.6c-.4.4-.9,1-1.3,1.8v12.3h-5.4v-12.3c0-1.6-.5-2.4-1.5-2.4s-1,.2-1.5.6c-.4.4-.9,1-1.3,1.8v12.3h-5.4v-18.1h4.7l.4,2.1c.7-.9,1.5-1.6,2.3-2,.9-.4,1.8-.7,2.9-.7s1.9.2,2.6.7c.7.5,1.3,1.2,1.6,2.1.7-1,1.5-1.7,2.4-2.2.9-.5,1.9-.7,3-.7s2.6.5,3.4,1.4Z"/>
      <path class="st3" d="M361.8,488.9c1.1,1.7,1.7,4,1.7,7s-.3,3.5-.9,5c-.6,1.5-1.4,2.6-2.5,3.4-1.1.8-2.4,1.2-3.8,1.2s-3.3-.6-4.4-1.9v8.3l-5.4.6v-25.6h4.7l.3,2c.7-.9,1.5-1.5,2.4-2,.9-.4,1.8-.6,2.8-.6,2.3,0,4,.8,5.1,2.5ZM357.9,496c0-2.1-.2-3.6-.7-4.4-.5-.8-1.2-1.2-2.1-1.2s-1.2.2-1.7.5c-.5.4-1,.9-1.4,1.6v7.6c.7,1.1,1.6,1.6,2.8,1.6,2.2,0,3.2-1.9,3.2-5.6Z"/>
      <path class="st3" d="M382.1,505h-4.7l-.2-2.3c-1.3,1.9-3.1,2.9-5.5,2.9s-2.9-.5-3.8-1.5c-.8-1-1.3-2.4-1.3-4.2v-13h5.4v12.3c0,.9.1,1.5.4,1.9.3.4.7.5,1.3.5,1.1,0,2.1-.7,2.9-2.1v-12.5h5.4v18.1Z"/>
      <path class="st3" d="M387.4,504.2c-.9-.9-1.3-2.2-1.3-3.8v-20.6l5.4-.6v21c0,.7.3,1.1.9,1.1s.6,0,.9-.2l1.1,3.8c-1,.4-2.1.6-3.3.6s-2.8-.4-3.7-1.3Z"/>
      <path class="st3" d="M406.4,486.9c1.1.4,2.1.9,3,1.6l-2,3c-1.5-.9-3-1.4-4.5-1.4s-1.2.1-1.6.4c-.4.2-.6.6-.6,1s0,.6.3.8.5.4,1,.7c.5.2,1.3.5,2.4.8,1.9.5,3.3,1.3,4.2,2.1.9.9,1.4,2.1,1.4,3.6s-.4,2.3-1.1,3.2c-.7.9-1.7,1.6-2.9,2.1-1.2.5-2.6.7-4.1.7s-2.9-.2-4.2-.7c-1.3-.5-2.4-1.1-3.3-2l2.6-2.9c1.5,1.2,3.1,1.8,4.8,1.8s1.5-.1,1.9-.4c.5-.3.7-.7.7-1.3s0-.8-.3-1c-.2-.2-.5-.5-1.1-.7-.5-.2-1.3-.5-2.5-.8-1.8-.5-3.1-1.2-4-2.2-.9-.9-1.3-2.1-1.3-3.5s.3-2,.9-2.8,1.5-1.5,2.6-2c1.1-.5,2.4-.7,3.9-.7s2.5.2,3.6.6Z"/>
      <path class="st3" d="M427.1,488.9c1.6,1.7,2.3,4.1,2.3,7.1s-.4,3.6-1.1,5-1.7,2.6-3.1,3.3c-1.3.8-2.9,1.2-4.7,1.2-2.7,0-4.9-.8-6.5-2.5s-2.4-4.1-2.4-7.1.4-3.6,1.1-5,1.7-2.6,3.1-3.3c1.3-.8,2.9-1.2,4.7-1.2,2.8,0,4.9.8,6.5,2.5ZM418.2,491.7c-.5.9-.8,2.3-.8,4.3s.3,3.4.8,4.3,1.4,1.4,2.5,1.4,1.9-.5,2.4-1.4.8-2.3.8-4.3-.3-3.4-.8-4.3c-.5-.9-1.4-1.4-2.5-1.4s-1.9.5-2.4,1.4Z"/>
      <path class="st3" d="M444.3,486.7l-.9,5.2c-.7-.2-1.2-.2-1.6-.2-1.1,0-1.9.4-2.4,1.1-.6.7-1,1.8-1.3,3.3v8.9h-5.4v-18.1h4.7l.4,3.5c.4-1.2,1-2.2,1.9-2.9.8-.7,1.8-1.1,2.8-1.1s1.3,0,1.8.2Z"/>
      <path class="st3" d="M459.8,501.3c.2.3.5.6.9.7l-1.1,3.5c-1.1,0-2-.3-2.7-.7-.7-.4-1.2-1-1.6-1.9-1.2,1.8-3,2.7-5.4,2.7s-3.2-.5-4.3-1.6c-1.1-1-1.6-2.4-1.6-4.1s.7-3.5,2.2-4.5c1.5-1,3.5-1.6,6.3-1.6h1.8v-.8c0-1.1-.2-1.8-.7-2.2-.5-.4-1.2-.6-2.4-.6s-1.3,0-2.1.3-1.7.4-2.6.7l-1.2-3.5c1.1-.4,2.3-.8,3.5-1,1.2-.2,2.3-.3,3.3-.3,2.6,0,4.5.5,5.7,1.6s1.8,2.7,1.8,4.8v7c0,.7,0,1.2.3,1.5ZM454.2,500v-3.2h-1.3c-1.2,0-2.1.2-2.7.6-.6.4-.9,1.1-.9,2s.2,1.3.6,1.7c.4.4.9.6,1.5.6,1.2,0,2.2-.6,2.9-1.7Z"/>
      <path class="st3" d="M252.7,515.8v25.2h-4.8l-.3-2.1c-1.3,1.8-3,2.7-5.1,2.7s-4-.9-5.1-2.6c-1.2-1.7-1.8-4.1-1.8-7.1s.3-3.5.9-4.9,1.5-2.6,2.6-3.4c1.1-.8,2.4-1.2,3.9-1.2s3.2.6,4.3,1.7v-8.9l5.4.6ZM247.4,535.6v-7.8c-.4-.5-.9-.9-1.3-1.2-.4-.2-.9-.4-1.5-.4-1,0-1.8.5-2.4,1.4-.6.9-.9,2.4-.9,4.3s.3,3.6.8,4.4c.5.8,1.2,1.3,2.2,1.3s2.3-.7,3.1-2Z"/>
      <path class="st3" d="M272.6,533.6h-11.2c.2,1.5.6,2.6,1.3,3.2.7.6,1.6.9,2.8.9s1.4-.1,2.1-.4,1.4-.7,2.2-1.2l2.2,3c-2.1,1.7-4.5,2.5-7,2.5s-5.2-.9-6.7-2.6c-1.6-1.7-2.3-4-2.3-6.9s.3-3.5,1-4.9,1.6-2.6,2.9-3.5c1.3-.8,2.8-1.3,4.6-1.3,2.6,0,4.6.8,6.1,2.4,1.5,1.6,2.2,3.9,2.2,6.8s0,1.4-.1,1.9ZM267.4,530.1c0-2.8-1-4.1-2.9-4.1s-1.6.3-2.2,1-.8,1.8-.9,3.4h6v-.2Z"/>
      <path class="st3" d="M276.9,540.2c-.9-.9-1.3-2.2-1.3-3.8v-20.6l5.4-.6v21c0,.7.3,1.1.9,1.1s.6,0,.9-.2l1.1,3.8c-1,.4-2.1.6-3.3.6s-2.8-.4-3.7-1.3Z"/>
      <path class="st3" d="M305.1,522.9c1,.4,1.9.9,2.8,1.7l-2.3,3.2c-1.1-.9-2.3-1.3-3.4-1.3s-2.1.4-2.7,1.3c-.6.9-.9,2.3-.9,4.3s.3,3.3.9,4c.6.8,1.5,1.2,2.7,1.2s1.2,0,1.7-.3c.5-.2,1.1-.5,1.8-.9l2.3,3.3c-1.8,1.4-3.8,2.1-6.1,2.1s-3.4-.4-4.8-1.2c-1.3-.8-2.4-1.9-3.1-3.3-.7-1.4-1.1-3.1-1.1-5s.4-3.6,1.1-5.1c.7-1.5,1.8-2.6,3.1-3.5,1.3-.8,2.9-1.2,4.7-1.2s2.4.2,3.4.5Z"/>
      <path class="st3" d="M324.5,537.3c.2.3.5.6.9.7l-1.1,3.5c-1.1,0-2-.3-2.7-.7-.7-.4-1.2-1-1.6-1.9-1.2,1.8-3,2.7-5.4,2.7s-3.2-.5-4.3-1.6c-1.1-1-1.6-2.4-1.6-4.1s.7-3.5,2.2-4.5c1.5-1,3.5-1.6,6.3-1.6h1.8v-.8c0-1.1-.2-1.8-.7-2.2s-1.2-.6-2.4-.6-1.3,0-2.1.3c-.8.2-1.7.4-2.6.7l-1.2-3.5c1.1-.4,2.3-.8,3.5-1,1.2-.2,2.3-.3,3.3-.3,2.6,0,4.5.5,5.7,1.6,1.2,1.1,1.8,2.7,1.8,4.8v7c0,.7,0,1.2.3,1.5ZM319.4,512.6l2.1,4-8,3.2-1.5-2.8,7.4-4.5ZM318.9,536v-3.2h-1.3c-1.2,0-2.1.2-2.7.6s-.9,1.1-.9,2,.2,1.3.6,1.7c.4.4.9.6,1.5.6,1.2,0,2.2-.6,2.9-1.7Z"/>
      <path class="st3" d="M342.7,523.8c.9,1,1.3,2.3,1.3,4v13.2h-5.4v-12.3c0-.9-.1-1.5-.4-1.9-.3-.4-.7-.5-1.3-.5-1.1,0-2.1.8-3.1,2.3v12.3h-5.4v-18.1h4.7l.4,2.1c.8-.9,1.6-1.6,2.5-2,.9-.5,1.9-.7,3-.7s2.8.5,3.7,1.4Z"/>
      <path class="st3" d="M359.2,522.9c1,.4,1.9.9,2.8,1.7l-2.3,3.2c-1.1-.9-2.3-1.3-3.4-1.3s-2.1.4-2.7,1.3c-.6.9-.9,2.3-.9,4.3s.3,3.3.9,4c.6.8,1.5,1.2,2.7,1.2s1.2,0,1.7-.3c.5-.2,1.1-.5,1.8-.9l2.3,3.3c-1.8,1.4-3.8,2.1-6.1,2.1s-3.4-.4-4.8-1.2c-1.3-.8-2.4-1.9-3.1-3.3-.7-1.4-1.1-3.1-1.1-5s.4-3.6,1.1-5.1c.7-1.5,1.8-2.6,3.1-3.5,1.3-.8,2.9-1.2,4.7-1.2s2.4.2,3.4.5Z"/>
      <path class="st3" d="M379.3,533.6h-11.2c.2,1.5.6,2.6,1.3,3.2.7.6,1.6.9,2.8.9s1.4-.1,2.1-.4,1.4-.7,2.2-1.2l2.2,3c-2.1,1.7-4.5,2.5-7,2.5s-5.2-.9-6.7-2.6c-1.6-1.7-2.3-4-2.3-6.9s.3-3.5,1-4.9,1.6-2.6,2.9-3.5c1.3-.8,2.8-1.3,4.6-1.3,2.6,0,4.6.8,6.1,2.4,1.5,1.6,2.2,3.9,2.2,6.8s0,1.4-.1,1.9ZM374.1,530.1c0-2.8-1-4.1-2.9-4.1s-1.6.3-2.2,1-.8,1.8-.9,3.4h6v-.2Z"/>
      <path class="st3" d="M394,522.7l-.8,5.2c-.7-.2-1.2-.2-1.6-.2-1.1,0-1.9.4-2.4,1.1s-1,1.8-1.3,3.3v8.9h-5.4v-18.1h4.7l.4,3.5c.4-1.2,1-2.2,1.9-2.9.8-.7,1.8-1.1,2.8-1.1s1.3,0,1.8.2Z"/>
    </g>
  </g>
</svg>