<?xml version="1.0" encoding="UTF-8"?>
<svg id="Capa_1" xmlns="http://www.w3.org/2000/svg" xmlns:xlink="http://www.w3.org/1999/xlink" version="1.1" viewBox="0 0 885.4 888.7">
  <!-- Generator: Adobe Illustrator 29.3.1, SVG Export Plug-In . SVG Version: 2.1.0 Build 151)  -->
  <defs>
    <style>
      .st0 {
        fill: #373a47;
      }

      .st1 {
        fill: #f4f9f9;
      }

      .st1, .st2, .st3, .st4, .st5 {
        stroke-miterlimit: 10;
      }

      .st1, .st4 {
        stroke: #8fb5bc;
      }

      .st6 {
        isolation: isolate;
      }

      .st7 {
        stroke-miterlimit: 10;
        stroke-width: .6px;
      }

      .st7, .st2, .st8 {
        stroke: #005372;
      }

      .st7, .st2, .st8, .st3, .st5 {
        fill: #fff;
      }

      .st2 {
        stroke-width: .6px;
      }

      .st8 {
        stroke-miterlimit: 10;
        stroke-width: .6px;
      }

      .st9 {
        fill: #c63;
      }

      .st10 {
        fill: #fa7f43;
      }

      .st11 {
        fill: #ff2a2a;
      }

      .st12 {
        fill: #032836;
      }

      .st3 {
        stroke: #c63;
      }

      .st4 {
        fill: none;
        stroke-width: 3px;
      }

      .st5 {
        stroke: #f60;
        stroke-width: .8px;
      }
    </style>
  </defs>
  <g>
    <path class="st1" d="M713.8,111c-14.5-9.2-27.1-20.5-39.2-31.4-9-8.1-18.2-16.4-28-23.6-2.2-1.6-4.5-3.1-6.8-4.5h0c-13.6-7.8-28.7-11-44.8-14.5-6.1-1.3-12.2-2.6-18.2-4.2-12.6-3.3-24.9-6.9-36.8-10.3C502.5,11.6,467,1.3,426.9.6c-2.2,0-4.4-.1-6.6-.1-52.7,0-105.6,11.9-157.5,35.3-39.5,17.9-67.4,46.8-96.8,77.5-7,7.3-14.1,14.6-21.3,21.9-8,8-16,15.7-24,23.2-32.4,30.9-63,60.1-81.7,103.4C17.3,312.2,4.2,370.9,1,431.8c-3.8,73,12.3,149.6,45.1,215.5,23.4,47,54.1,92,93.9,137.6,15.6,17.9,31,31.5,47,41.6,45.8,28.9,111.6,45.5,157.2,55.5,66.1,14.5,119.7,1.1,178-16.6,12.7-3.9,26-5.5,38.8-7.1,15.9-2,30.9-3.9,45-9.6,12.8-5.2,22.9-14.2,33.7-23.7,8-7.1,16.2-14.4,25.8-20.2,7.3-4.4,14.7-8.6,22.1-12.8,13.9-7.9,28.3-16,41.6-25.8,48.4-35.8,80.2-78.1,94.3-125.9,4.2-14.1,7.1-28.9,9.9-43.3,4.2-21.7,8.6-44.2,17.5-65.3,2.3-5.5,4.6-10.7,6.8-15.9,11.9-27.2,22.1-50.7,25.4-82.4,7.8-75.3-9.5-152.2-47.4-211-25.2-38.9-65.1-75.3-121.9-111.4Z"/>
    <g>
      <path class="st3" d="M746.2,178.8c-81.4-91.8-274.2-44.2-308.8,65.5-39.2,124.3,118.9,229,236.3,180.6,72.4-29.8,117.6-118.4,100.5-191.7-4.7-19.7-13.8-38.3-28-54.4Z"/>
      <g>
        <path class="st9" d="M553.5,242.3c10.3-8.1,20-17.9,20-43.3s-1.8-3.2-4-3.2-4,1.5-4,3.2c0,22.9-8.3,31.4-17.8,38.8-9.5-7.4-17.8-15.9-17.8-38.8s-1.8-3.2-4-3.2-4,1.5-4,3.2c0,25.4,9.7,35.2,20,43.3-10.3,8-20,17.6-20,42.4s1.8,3.2,4,3.2,4-1.5,4-3.2c0-22.4,8.3-30.6,17.8-38,9.4,7.4,17.8,15.6,17.8,38s1.8,3.2,4,3.2,4-1.5,4-3.2c0-24.9-9.7-34.4-20-42.4Z"/>
        <path class="st9" d="M488.8,301.9c6.5-5.1,12.6-11.3,12.6-27.3s-1.1-2-2.5-2-2.5.9-2.5,2c0,14.5-5.2,19.8-11.2,24.5-6-4.7-11.2-10-11.2-24.5s-1.1-2-2.5-2-2.5.9-2.5,2c0,16,6.1,22.2,12.6,27.3-6.5,5.1-12.6,11.1-12.6,26.8s1.1,2,2.5,2,2.5-.9,2.5-2c0-14.1,5.2-19.3,11.2-24,6,4.6,11.2,9.8,11.2,24s1.1,2,2.5,2,2.5-.9,2.5-2c0-15.7-6.1-21.7-12.6-26.8Z"/>
        <path class="st9" d="M682.9,334c7.8-6.1,15.2-13.6,15.2-32.8s-1.4-2.5-3.1-2.5-3.1,1.1-3.1,2.5c0,17.4-6.3,23.8-13.5,29.4-7.2-5.6-13.5-12-13.5-29.4s-1.4-2.5-3.1-2.5-3.1,1.1-3.1,2.5c0,19.3,7.3,26.7,15.2,32.8-7.8,6.1-15.2,13.3-15.2,32.2s1.4,2.5,3.1,2.5,3.1-1.1,3.1-2.5c0-17,6.3-23.2,13.5-28.8,7.2,5.6,13.5,11.8,13.5,28.8s1.4,2.5,3.1,2.5,3.1-1.1,3.1-2.5c0-18.9-7.4-26.1-15.2-32.2Z"/>
        <path class="st9" d="M618.8,170.5c4.3-3.4,8.4-7.5,8.4-18.3s-.8-1.4-1.7-1.4-1.7.6-1.7,1.4c0,9.7-3.5,13.2-7.5,16.4-4-3.1-7.5-6.7-7.5-16.4s-.8-1.4-1.7-1.4-1.7.6-1.7,1.4c0,10.7,4.1,14.9,8.4,18.3-4.3,3.4-8.4,7.4-8.4,17.9s.8,1.4,1.7,1.4,1.7-.6,1.7-1.4c0-9.5,3.5-12.9,7.5-16,4,3.1,7.5,6.6,7.5,16s.8,1.4,1.7,1.4,1.7-.6,1.7-1.4c0-10.5-4.1-14.5-8.4-17.9Z"/>
        <path class="st9" d="M615.6,288.3c6.3-4.9,12.2-10.9,12.2-26.4s-1.1-2-2.5-2-2.5.9-2.5,2c0,14-5,19.2-10.8,23.7-5.8-4.5-10.8-9.7-10.8-23.7s-1.1-2-2.5-2-2.5.9-2.5,2c0,15.5,5.9,21.5,12.2,26.4-6.3,4.9-12.2,10.7-12.2,25.9s1.1,2,2.5,2,2.5-.9,2.5-2c0-13.7,5.1-18.7,10.8-23.2,5.8,4.5,10.8,9.5,10.8,23.2s1.1,2,2.5,2,2.5-.9,2.5-2c0-15.1-5.9-21-12.2-25.9Z"/>
        <path class="st9" d="M670.4,234.2c4.3-3.4,8.4-7.5,8.4-18.3s-.8-1.4-1.7-1.4-1.7.6-1.7,1.4c0,9.7-3.5,13.2-7.5,16.4-4-3.1-7.5-6.7-7.5-16.4s-.8-1.4-1.7-1.4-1.7.6-1.7,1.4c0,10.7,4.1,14.9,8.4,18.3-4.3,3.4-8.4,7.4-8.4,17.9s.8,1.4,1.7,1.4,1.7-.6,1.7-1.4c0-9.5,3.5-12.9,7.5-16,4,3.1,7.5,6.6,7.5,16s.8,1.4,1.7,1.4,1.7-.6,1.7-1.4c0-10.5-4.1-14.5-8.4-17.9Z"/>
        <path class="st9" d="M729.4,297c4.3-3.4,8.4-7.5,8.4-18.3s-.8-1.4-1.7-1.4-1.7.6-1.7,1.4c0,9.7-3.5,13.2-7.5,16.4-4-3.1-7.5-6.7-7.5-16.4s-.8-1.4-1.7-1.4-1.7.6-1.7,1.4c0,10.7,4.1,14.9,8.4,18.3-4.3,3.4-8.4,7.4-8.4,17.9s.8,1.4,1.7,1.4,1.7-.6,1.7-1.4c0-9.5,3.5-12.9,7.5-16,4,3.1,7.5,6.6,7.5,16s.8,1.4,1.7,1.4,1.7-.6,1.7-1.4c0-10.5-4.1-14.6-8.4-17.9Z"/>
      </g>
      <polygon class="st11" points="521.3 222.8 525.2 216.3 518.7 216.3 518.7 209.9 512.2 213.8 505.8 209.9 505.8 216.3 499.3 216.3 503.2 222.8 499.3 229.3 505.8 229.3 505.8 235.7 512.2 231.8 518.7 235.7 518.7 229.3 525.2 229.3 521.3 222.8"/>
      <polygon class="st11" points="713.2 351.6 716 347 711.3 347 711.3 342.4 706.7 345.2 702.1 342.4 702.1 347 697.4 347 700.2 351.6 697.4 356.3 702.1 356.3 702.1 360.9 706.7 358.1 711.3 360.9 711.3 356.3 716 356.3 713.2 351.6"/>
      <polygon class="st11" points="466.8 317.1 469.6 312.5 465 312.5 465 307.8 460.3 310.6 455.7 307.8 455.7 312.5 451.1 312.5 453.9 317.1 451.1 321.7 455.7 321.7 455.7 326.3 460.3 323.6 465 326.3 465 321.7 469.6 321.7 466.8 317.1"/>
      <polygon class="st11" points="747 291.3 748.8 288.2 745.8 288.2 745.8 285.2 742.7 287 739.7 285.2 739.7 288.2 736.7 288.2 738.5 291.3 736.7 294.3 739.7 294.3 739.7 297.3 742.7 295.5 745.8 297.3 745.8 294.3 748.8 294.3 747 291.3"/>
    </g>
    <g>
      <path class="st10" d="M169.3,482.9c-32-32.8-99.6-9-108.6,33.9-10.2,48.7,49.6,84.2,90.2,62.3,25-13.5,38.5-48.7,30.1-76.2-2.2-7.4-6.1-14.3-11.7-20Z"/>
      <path class="st4" d="M241.8,458.8c-11.1,18.9-29,24.3-48.8,14.9,0,0-14.5-7.3-28-3.2s-21,18.2-21,18.2"/>
      <polygon class="st11" points="229.2 480.6 231.6 475.7 227 476.1 226.6 471.5 222.2 474.6 217.4 472.2 217.7 476.8 213.1 477.2 216.3 481.6 213.9 486.4 218.5 486.1 218.9 490.7 223.3 487.5 228.1 489.9 227.7 485.3 232.3 485 229.2 480.6"/>
      <path class="st4" d="M304.9,425.6c-11.1,18.9-29,24.3-48.8,14.9,0,0-14.5-7.3-28-3.2s-21.1,18.2-21.1,18.2"/>
      <polygon class="st11" points="292.3 447.3 294.7 442.5 290.1 442.9 289.7 438.3 285.3 441.4 280.5 439 280.8 443.6 276.2 444 279.4 448.4 277 453.2 281.6 452.8 282 457.5 286.3 454.3 291.2 456.7 290.8 452.1 295.4 451.7 292.3 447.3"/>
      <path class="st4" d="M368,392.3c-11.1,18.9-29,24.3-48.8,14.9,0,0-14.5-7.3-28-3.2-13.5,4.1-21.1,18.2-21.1,18.2"/>
      <polygon class="st11" points="355.4 414.1 357.8 409.3 353.2 409.6 352.8 405 348.4 408.2 343.6 405.8 343.9 410.4 339.3 410.7 342.5 415.1 340.1 420 344.7 419.6 345.1 424.2 349.4 421.1 354.3 423.5 353.9 418.9 358.5 418.5 355.4 414.1"/>
      <g>
        <circle class="st5" cx="253.5" cy="662.5" r="7.9"/>
        <circle class="st5" cx="248.6" cy="646.9" r="7.9"/>
        <circle class="st5" cx="232.4" cy="645.5" r="7.9"/>
        <circle class="st5" cx="227.5" cy="630" r="7.9"/>
        <circle class="st5" cx="211.3" cy="628.5" r="7.9"/>
        <circle class="st11" cx="206.4" cy="613" r="7.9"/>
        <circle class="st5" cx="190.2" cy="611.6" r="7.9"/>
        <circle class="st5" cx="185.3" cy="596.1" r="7.9"/>
        <circle class="st5" cx="169.1" cy="594.6" r="7.9"/>
        <circle class="st5" cx="164.2" cy="579.1" r="7.9"/>
        <circle class="st5" cx="148" cy="577.6" r="7.9"/>
        <circle class="st5" cx="143.1" cy="562.1" r="7.9"/>
      </g>
    </g>
    <g>
      <circle class="st2" cx="662.6" cy="632.9" r="29.9"/>
      <circle class="st8" cx="514.9" cy="532.2" r="29.9"/>
      <circle class="st2" cx="446.5" cy="720.4" r="29.9"/>
      <circle class="st11" cx="559.7" cy="547.9" r="29.9"/>
      <circle class="st2" cx="393.5" cy="739.9" r="29.9"/>
      <circle class="st2" cx="600.2" cy="581.6" r="29.9"/>
      <circle class="st2" cx="500.1" cy="659.2" r="29.9"/>
      <circle class="st2" cx="621.4" cy="671.5" r="29.9"/>
      <circle class="st2" cx="558.3" cy="596.2" r="29.9"/>
      <circle class="st2" cx="550.1" cy="638.1" r="29.9"/>
      <circle class="st2" cx="502.6" cy="714.1" r="29.9"/>
      <circle class="st2" cx="576.8" cy="689.2" r="29.9"/>
      <circle class="st7" cx="530.4" cy="685.9" r="29.9"/>
      <circle class="st2" cx="670.4" cy="677.2" r="29.9"/>
    </g>
    <polygon class="st0" points="427.6 372.2 410.5 382.2 414.1 388.2 390.3 382 396.5 358.2 400.1 364.3 417.1 354.3 427.6 372.2"/>
    <polygon class="st0" points="291.3 703.9 306.6 716.3 302.2 721.8 326.6 719.3 324.1 694.8 319.7 700.3 304.3 687.8 291.3 703.9"/>
  </g>
  <g class="st6">
    <path class="st9" d="M565.3,387.4l-1.3-5.2h-7.1l-1.2,5.2h-5.9l7.3-24.3h7l7.3,24.3h-6.1ZM557.9,378h5.1l-2.6-10.7-2.6,10.7Z"/>
    <path class="st9" d="M589.1,365.7c2.3,1.7,3.4,4.9,3.4,9.4s-1.1,7.7-3.4,9.5c-2.2,1.8-5.1,2.7-8.7,2.7h-7.3v-24.3h6.8c3.8,0,6.9.9,9.2,2.6ZM578.9,367.3v15.9h1.9c1.9,0,3.3-.6,4.3-1.8,1-1.2,1.5-3.3,1.5-6.3s-.2-3.7-.7-4.8c-.5-1.1-1.2-1.9-2-2.4s-1.9-.6-3.1-.6h-1.8Z"/>
    <path class="st9" d="M614.6,387.4h-7.3l-7-18.8c.2,1.8.4,3.5.5,4.9.1,1.4.2,3.1.2,5v8.9h-5.1v-24.3h7.1l7.2,18.8c-.5-3.2-.8-6.2-.8-9v-9.8h5.1v24.3Z"/>
  </g>
  <g class="st6">
    <path class="st12" d="M215.5,335.5l-1.3-5.2h-7.1l-1.2,5.2h-6l7.3-24.3h7l7.3,24.3h-6.1ZM208.2,326.1h5.1l-2.6-10.7-2.6,10.7Z"/>
    <path class="st12" d="M231.4,326.2h-2.2v9.3h-5.7v-24.3h7.9c3.3,0,5.8.6,7.5,1.8,1.7,1.2,2.5,3.1,2.5,5.6s-.4,2.9-1.1,3.9c-.7,1-1.9,1.9-3.5,2.6l6.2,10.3h-6.5l-5-9.3ZM229.1,322.2h2.4c1.3,0,2.2-.3,2.9-.9.6-.6,1-1.5,1-2.8s-.3-2-1-2.6c-.7-.5-1.7-.8-3.2-.8h-2.1v7Z"/>
    <path class="st12" d="M263.7,335.5h-7.3l-7-18.8c.2,1.8.4,3.5.5,4.9.1,1.4.2,3.1.2,5v8.9h-5.1v-24.3h7.1l7.2,18.8c-.5-3.2-.8-6.2-.8-9v-9.8h5.1v24.3Z"/>
  </g>
  <g class="st6">
    <path class="st11" d="M375,792.4c1.8,1.3,2.7,3.3,2.7,5.9s-.9,4.8-2.6,6.2c-1.7,1.4-4.1,2.1-7,2.1h-2.6v8.1h-5.7v-24.3h7.8c3.2,0,5.7.7,7.5,2ZM370.7,801.4c.7-.6,1.1-1.7,1.1-3.2,0-2.5-1.4-3.8-4.3-3.8h-2v7.9h2.1c1.4,0,2.4-.3,3.1-1Z"/>
    <path class="st11" d="M391.8,795.8l-.9,5.4c-.7-.2-1.3-.2-1.7-.2-1.1,0-1.9.4-2.5,1.1-.6.8-1,1.9-1.3,3.4v9.2h-5.5v-18.6h4.8l.5,3.6c.4-1.3,1.1-2.3,1.9-3,.9-.7,1.8-1.1,2.9-1.1s1.3,0,1.9.2Z"/>
    <path class="st11" d="M407.6,798c1.6,1.7,2.4,4.2,2.4,7.3s-.4,3.7-1.1,5.2-1.8,2.6-3.2,3.4c-1.4.8-3,1.2-4.8,1.2-2.8,0-5-.9-6.7-2.6-1.6-1.7-2.4-4.2-2.4-7.3s.4-3.7,1.1-5.2c.7-1.5,1.8-2.6,3.2-3.4,1.4-.8,3-1.2,4.8-1.2,2.8,0,5.1.9,6.7,2.6ZM398.4,800.9c-.6.9-.8,2.4-.8,4.4s.3,3.5.8,4.4c.5.9,1.4,1.4,2.5,1.4s2-.5,2.5-1.4c.6-.9.8-2.4.8-4.4s-.3-3.5-.8-4.4c-.5-.9-1.4-1.4-2.5-1.4s-2,.5-2.5,1.4Z"/>
    <path class="st11" d="M425,813.7c-.7.5-1.5.8-2.4,1.1s-1.8.4-2.7.4c-4.1,0-6.1-2.3-6.1-6.7v-8.6h-2.6v-3.8h2.6v-4l5.5-.6v4.7h4.3l-.6,3.8h-3.7v8.5c0,.9.1,1.5.4,1.9.3.4.7.6,1.3.6s1.3-.2,2-.6l1.9,3.5Z"/>
    <path class="st11" d="M442.3,807h-11.5c.2,1.6.6,2.7,1.3,3.3s1.7.9,2.9.9,1.5-.1,2.2-.4c.7-.3,1.5-.7,2.3-1.2l2.3,3.1c-2.2,1.7-4.6,2.6-7.2,2.6s-5.3-.9-6.9-2.7c-1.6-1.8-2.4-4.2-2.4-7.1s.3-3.6,1-5.1,1.7-2.7,3-3.6,2.9-1.3,4.7-1.3c2.7,0,4.8.8,6.3,2.5s2.3,4,2.3,7,0,1.4-.1,2ZM437,803.4c0-2.8-1.1-4.3-3-4.3s-1.7.3-2.2,1c-.5.7-.8,1.9-1,3.5h6.2v-.2Z"/>
    <path class="st11" d="M450.8,785.4l2.2,4.1-8.3,3.3-1.5-2.8,7.6-4.6ZM451.1,796v18.6h-5.5v-18.6h5.5Z"/>
    <path class="st11" d="M470.1,796.9c.9,1,1.4,2.4,1.4,4.1v13.6h-5.5v-12.6c0-.9-.1-1.6-.4-1.9-.3-.4-.7-.5-1.3-.5-1.1,0-2.2.8-3.2,2.4v12.7h-5.5v-18.6h4.8l.4,2.2c.8-.9,1.7-1.6,2.6-2.1.9-.5,2-.7,3.1-.7s2.9.5,3.8,1.5Z"/>
    <path class="st11" d="M490.7,810.8c.2.3.5.6,1,.7l-1.2,3.6c-1.1,0-2.1-.3-2.8-.8-.7-.4-1.3-1.1-1.7-1.9-1.2,1.9-3.1,2.8-5.6,2.8s-3.3-.5-4.4-1.6c-1.1-1.1-1.6-2.5-1.6-4.2s.7-3.6,2.2-4.7c1.5-1.1,3.7-1.6,6.5-1.6h1.9v-.8c0-1.1-.2-1.8-.7-2.3-.5-.4-1.3-.6-2.5-.6s-1.3,0-2.2.3-1.8.4-2.7.7l-1.3-3.6c1.2-.4,2.4-.8,3.6-1,1.2-.2,2.4-.3,3.4-.3,2.7,0,4.6.5,5.8,1.6,1.2,1.1,1.9,2.7,1.9,4.9v7.2c0,.7,0,1.2.3,1.5ZM484.9,809.5v-3.3h-1.4c-1.3,0-2.2.2-2.8.7-.6.4-.9,1.1-.9,2.1s.2,1.3.6,1.7c.4.4.9.6,1.6.6,1.3,0,2.2-.6,2.9-1.8Z"/>
    <path class="st11" d="M527.1,796.9c.9,1,1.3,2.4,1.3,4.1v13.6h-5.5v-12.6c0-1.7-.5-2.5-1.6-2.5s-1.1.2-1.5.6c-.4.4-.9,1-1.3,1.8v12.7h-5.5v-12.6c0-1.7-.5-2.5-1.6-2.5s-1.1.2-1.5.6c-.5.4-.9,1-1.3,1.8v12.7h-5.5v-18.6h4.8l.4,2.2c.7-.9,1.5-1.6,2.4-2.1.9-.5,1.9-.7,3-.7s2,.3,2.7.8c.8.5,1.3,1.2,1.7,2.2.7-1,1.6-1.7,2.5-2.2.9-.5,1.9-.7,3.1-.7s2.6.5,3.5,1.5Z"/>
    <path class="st11" d="M548.3,814.6h-4.8l-.2-2.3c-1.4,2-3.2,2.9-5.6,2.9s-3-.5-3.9-1.5-1.3-2.5-1.3-4.3v-13.3h5.5v12.6c0,.9.1,1.5.4,1.9.3.4.7.5,1.3.5,1.2,0,2.2-.7,3-2.2v-12.9h5.5v18.6Z"/>
    <path class="st11" d="M564.3,813.7c-.7.5-1.5.8-2.4,1.1s-1.8.4-2.7.4c-4.1,0-6.1-2.3-6.1-6.7v-8.6h-2.6v-3.8h2.6v-4l5.5-.6v4.7h4.3l-.6,3.8h-3.7v8.5c0,.9.1,1.5.4,1.9.3.4.7.6,1.3.6s1.3-.2,2-.6l1.9,3.5Z"/>
    <path class="st11" d="M580.8,810.8c.2.3.5.6,1,.7l-1.2,3.6c-1.1,0-2.1-.3-2.8-.8-.7-.4-1.3-1.1-1.7-1.9-1.2,1.9-3.1,2.8-5.6,2.8s-3.3-.5-4.4-1.6c-1.1-1.1-1.6-2.5-1.6-4.2s.7-3.6,2.2-4.7,3.7-1.6,6.5-1.6h1.9v-.8c0-1.1-.2-1.8-.7-2.3-.5-.4-1.3-.6-2.4-.6s-1.3,0-2.2.3c-.9.2-1.8.4-2.7.7l-1.3-3.6c1.2-.4,2.4-.8,3.6-1,1.2-.2,2.4-.3,3.4-.3,2.7,0,4.6.5,5.8,1.6,1.2,1.1,1.9,2.7,1.9,4.9v7.2c0,.7,0,1.2.3,1.5ZM575.1,809.5v-3.3h-1.4c-1.3,0-2.2.2-2.8.7s-.9,1.1-.9,2.1.2,1.3.6,1.7.9.6,1.6.6c1.3,0,2.2-.6,2.9-1.8Z"/>
    <path class="st11" d="M599.6,796.9c.9,1,1.4,2.4,1.4,4.1v13.6h-5.5v-12.6c0-.9-.1-1.6-.4-1.9-.3-.4-.7-.5-1.3-.5-1.1,0-2.2.8-3.2,2.4v12.7h-5.5v-18.6h4.8l.4,2.2c.8-.9,1.7-1.6,2.6-2.1.9-.5,2-.7,3.1-.7s2.9.5,3.8,1.5Z"/>
    <path class="st11" d="M616.8,813.7c-.7.5-1.5.8-2.4,1.1-.9.3-1.8.4-2.7.4-4.1,0-6.1-2.3-6.1-6.7v-8.6h-2.6v-3.8h2.6v-4l5.5-.6v4.7h4.3l-.6,3.8h-3.7v8.5c0,.9.1,1.5.4,1.9.3.4.7.6,1.3.6s1.3-.2,2-.6l1.9,3.5Z"/>
    <path class="st11" d="M634.1,807h-11.5c.2,1.6.6,2.7,1.3,3.3s1.7.9,2.9.9,1.5-.1,2.2-.4c.7-.3,1.5-.7,2.3-1.2l2.3,3.1c-2.2,1.7-4.6,2.6-7.2,2.6s-5.3-.9-6.9-2.7c-1.6-1.8-2.4-4.2-2.4-7.1s.3-3.6,1-5.1,1.7-2.7,3-3.6c1.3-.9,2.9-1.3,4.7-1.3,2.7,0,4.8.8,6.3,2.5,1.5,1.7,2.3,4,2.3,7s0,1.4-.1,2ZM628.8,803.4c0-2.8-1-4.3-3-4.3s-1.7.3-2.2,1-.8,1.9-1,3.5h6.2v-.2Z"/>
  </g>
  <g class="st6">
    <path class="st11" d="M372.9,233.4h-5.6l-.4-9.5c-.1-2.3-.2-4.3-.2-6.1s0-2.6.1-3.8l-3.7,16.8h-5.4l-4-16.8c.1,2,.2,3.9.2,5.7s0,2.8-.1,4.2l-.4,9.4h-5.6l1.8-24.3h7.2l3.6,16.5,3.4-16.5h7.3l1.8,24.3Z"/>
    <path class="st11" d="M391.9,233.4h-4.8l-.2-2.3c-1.4,2-3.2,2.9-5.6,2.9s-3-.5-3.9-1.5-1.3-2.5-1.3-4.3v-13.3h5.5v12.6c0,.9.1,1.5.4,1.9.3.4.7.5,1.3.5,1.2,0,2.2-.7,3-2.2v-12.9h5.5v18.6Z"/>
    <path class="st11" d="M407.9,232.5c-.7.5-1.5.8-2.4,1.1-.9.3-1.8.4-2.7.4-4.1,0-6.1-2.3-6.1-6.7v-8.6h-2.6v-3.8h2.6v-4l5.5-.6v4.7h4.3l-.6,3.8h-3.7v8.5c0,.9.1,1.5.4,1.9s.7.6,1.3.6,1.3-.2,2-.6l1.9,3.5Z"/>
    <path class="st11" d="M424.4,229.5c.2.3.5.6,1,.7l-1.2,3.6c-1.1,0-2.1-.3-2.8-.8-.7-.4-1.3-1.1-1.7-1.9-1.2,1.9-3.1,2.8-5.6,2.8s-3.3-.5-4.4-1.6c-1.1-1.1-1.6-2.5-1.6-4.2s.7-3.6,2.2-4.7c1.5-1.1,3.7-1.6,6.5-1.6h1.9v-.8c0-1.1-.2-1.8-.7-2.3-.5-.4-1.3-.6-2.4-.6s-1.3,0-2.2.3c-.9.2-1.8.4-2.7.7l-1.3-3.6c1.2-.4,2.4-.8,3.6-1,1.2-.2,2.4-.3,3.4-.3,2.7,0,4.6.5,5.8,1.6,1.2,1.1,1.9,2.7,1.9,4.9v7.2c0,.7,0,1.2.3,1.5ZM418.6,228.2v-3.3h-1.4c-1.3,0-2.2.2-2.8.7-.6.4-.9,1.1-.9,2.1s.2,1.3.6,1.7c.4.4.9.6,1.6.6,1.3,0,2.2-.6,2.9-1.8Z"/>
    <path class="st11" d="M440,214.8c1,.4,2,.9,2.9,1.7l-2.4,3.3c-1.2-.9-2.3-1.3-3.5-1.3s-2.2.5-2.8,1.4-.9,2.4-.9,4.4.3,3.3.9,4.2c.6.8,1.5,1.2,2.7,1.2s1.2,0,1.7-.3,1.1-.5,1.9-1l2.4,3.4c-1.8,1.5-3.9,2.2-6.3,2.2s-3.5-.4-4.9-1.2c-1.4-.8-2.4-1.9-3.2-3.4-.7-1.5-1.1-3.2-1.1-5.1s.4-3.7,1.1-5.2c.7-1.5,1.8-2.7,3.2-3.6,1.4-.9,3-1.3,4.8-1.3s2.4.2,3.5.6Z"/>
    <path class="st11" d="M450.3,205.9c.6.6.9,1.3.9,2.3s-.3,1.7-.9,2.3-1.4.9-2.4.9-1.7-.3-2.3-.9c-.6-.6-.9-1.3-.9-2.3s.3-1.7.9-2.3c.6-.6,1.4-.9,2.3-.9s1.7.3,2.4.9ZM450.8,214.8v18.6h-5.5v-18.6h5.5Z"/>
    <path class="st11" d="M469.8,216.8c1.6,1.7,2.4,4.2,2.4,7.3s-.4,3.7-1.1,5.2-1.8,2.6-3.2,3.4c-1.4.8-3,1.2-4.8,1.2-2.8,0-5-.9-6.7-2.6-1.6-1.7-2.4-4.2-2.4-7.3s.4-3.7,1.1-5.2c.7-1.5,1.8-2.6,3.2-3.4,1.4-.8,3-1.2,4.8-1.2,2.8,0,5.1.9,6.7,2.6ZM465.7,204.1l2.2,4.1-8.3,3.3-1.5-2.8,7.6-4.6ZM460.6,219.7c-.6.9-.8,2.4-.8,4.4s.3,3.5.8,4.4c.5.9,1.4,1.4,2.5,1.4s2-.5,2.5-1.4c.6-.9.8-2.4.8-4.4s-.3-3.5-.8-4.4c-.5-.9-1.4-1.4-2.5-1.4s-2,.5-2.5,1.4Z"/>
    <path class="st11" d="M490.2,215.7c.9,1,1.4,2.4,1.4,4.1v13.6h-5.5v-12.6c0-.9-.1-1.6-.4-1.9-.3-.4-.7-.5-1.3-.5-1.1,0-2.2.8-3.2,2.4v12.7h-5.5v-18.6h4.8l.4,2.2c.8-.9,1.7-1.6,2.6-2.1.9-.5,2-.7,3.1-.7s2.9.5,3.8,1.5Z"/>
  </g>
</svg>