<?xml version="1.0" encoding="utf-8"?>
<!-- Generator: Adobe Illustrator 24.1.0, SVG Export Plug-In . SVG Version: 6.00 Build 0)  -->
<svg version="1.1" id="Capa_1" xmlns="http://www.w3.org/2000/svg" xmlns:xlink="http://www.w3.org/1999/xlink" x="0px" y="0px"
	 viewBox="0 0 1038.4 678.7" style="enable-background:new 0 0 1038.4 678.7;" xml:space="preserve">
<style type="text/css">
	.st0{fill:#FFFFFF;}
</style>
<g>
	<g id="YX734u.tif_1_">
		<g>
			<path class="st0" d="M589.8,346.6c0.3-0.8,0.4-1.8,0.8-2.6c1.1-2.3,2.9-3.8,4.9-5s4.2-2,6.4-2.7c0.3,0,0.5-0.3,0.5-0.4
				c0.7-2.7,2.2-4.9,4.2-6.8c3.8-3.7,8.5-6,13.9-6.7c3.7-0.4,7.1,0.3,10.1,2.3c0.1,0.1,0.4,0.1,0.7,0.1c6.6-1.5,12.4,0.1,17.9,3.5
				c2.5,1.6,4.5,3.7,6,6.3c1.5,2.6,2.3,5.5,2,8.6c0,0.4,0.1,0.5,0.4,0.7c2.6,1.4,4.8,3.3,6.3,5.7c2.5,3.8,2.9,8.1,1.5,12.4
				c-0.1,0.4-0.3,0.7-0.4,1.1c0,0,0,0,0,0.1l0.1,0.1c3.4,1,5.6,3.3,7,6.3c2.2,4.6,2.3,9.6,0.4,14.3c-1.8,4.2-4.9,7.1-9.1,8.7
				c-0.7,0.3-1.4,0.5-2,0.7c-0.3,0.1-0.4,0.1-0.5,0.5c-0.3,6.6-7,13.1-14.1,14.2c-2.5,0.4-5.7-0.1-7.6-1.4c0.5-1.2,1.2-2.5,1.8-3.5
				c1,0.3,1.9,0.5,3,0.7c2.6,0.3,5-0.4,7.2-1.9c2.5-1.6,4.4-3.7,5.3-6.6c1.1-3.1-0.1-5.7-3.1-7.1c-0.5-0.3-1.2-0.5-1.9-0.8
				c0.4-1.4,0.8-2.6,1.2-4c1.6,0.5,3.1,1.1,4.5,2.2c1.2,0.8,2.2,1.9,2.9,3.3c0,0.1,0.4,0.3,0.5,0.1c4.9-1.4,8.6-5,9.3-10.4
				c0.4-3.4-0.1-6.6-2.2-9.3c-1.2-1.8-3-2.9-5.3-2.6c-1.5,0.3-2.9,1.1-4,2c-0.7,0.7-1.4,1.4-2.2,2c-1-0.8-2-1.8-3.1-2.7
				c1.9-2.2,4-4,6.7-4.9c0.4-0.1,0.7-0.4,1-0.8c1.8-3.8,2-7.5-0.4-11.1c-1.9-2.9-4.6-4.6-8.1-5.2c-1.8-0.3-3.7,0-5.2,1.4
				c-1-1.1-1.8-2-2.7-3.1c2.6-2.2,5.5-2.6,8.7-2.3c0.1-1.1-0.1-2.2-0.4-3.3c-0.8-2.9-2.7-5-5-6.8c-3.8-2.7-8.2-4.1-12.8-4
				c-2.3,0.1-4.4,0.7-6.1,2.3c-1,0.8-1.5,1.8-1.9,2.9c-0.1,0.1-0.1,0.4-0.3,0.7c-1.4-0.4-2.6-0.8-4.1-1.2c0.5-1.1,1.1-2.2,1.6-3.3
				c0.7-1,1.5-1.8,2.3-2.7c-1-0.4-2-0.7-3.1-0.7c-4-0.1-7.6,1.1-10.9,3.3c-2.2,1.5-4,3.1-5.2,5.5s-1,4.4,0.8,5.9
				c0.7,0.5,1.5,1,2.2,1.4c0.1,0.1,0.4,0.1,0.7,0.3c-0.5,1.2-1,2.6-1.5,3.8c-3-1.2-5.5-3-6.7-6.1c-0.1,0-0.3,0-0.4,0.1
				c-2.3,0.8-4.4,1.8-6.3,3.3c-1.9,1.6-2.6,3.7-1.5,5.7c0.4,0.8,1.1,1.6,1.8,2.3c2.5,2.5,5.6,3.7,9,4.4c1.9,0.4,3.8,0.5,5.7,0.7
				c0.3,0,0.4,0,0.7,0c0,1.4,0,2.7,0,4.2c-1.5-0.1-3-0.1-4.4-0.4c-2.3-0.3-4.6-0.8-6.7-1.6c-0.1-0.1-0.4-0.1-0.5,0
				c-1.8,1.2-3.5,2.5-4.6,4.4s-1,3.8,0.4,5.5c1.8,2.2,4.2,3.3,7,4c1.1,0.3,2.2,0.4,3.4-0.1c0.1,0.7,0.4,0.7,1,0.7
				c2.7,0,5.2-0.7,7.4-2.3c0,0,0.1-0.1,0.3-0.1c0.8,1.1,1.6,2.2,2.5,3.3c-1,0.5-1.9,1.2-2.9,1.6c-2.9,1.4-5.7,1.8-8.9,1.6
				c-0.1,0-0.3,0-0.4,0c-1.6,0.5-3,1.4-4.1,2.7c-1.1,1.6-1.1,3.3-0.3,5c1.2,2.5,3.1,4.2,5.5,5.5c3,1.5,6.1,2,9.3,1
				c1-0.3,1.8-0.8,2.6-1.2c0.7,1.1,1.4,2.3,2,3.5c-0.3,0.1-0.5,0.3-0.8,0.5c-0.4,0.3-0.7,0.5-1.1,0.8c-1,1.1-1.1,2.2-0.5,3.4
				c0.8,1.6,2.2,2.7,3.7,3.5c2.3,1.4,4.8,2.2,7.5,2.2c4.4,0.1,7.8-2,9.3-6.6c0.4-1.4,0.7-2.7,1-4.1c0.1-0.4-0.1-0.5-0.4-0.7
				c-2.5-1.4-5-2.7-7.4-4.4c-2.5-1.6-4.6-3.5-6.1-6.1c-1.2-2-1.8-4.4-1.9-6.8c-0.1-3.1,0.3-6.1,0.8-9.1c0-0.1,0-0.1,0.1-0.3
				c1.4,0.3,2.6,0.5,4,0.8c-0.7,4.1-1.5,8.2,0,12.4c2.6-3.4,6-6.1,9-9.1c-1-0.4-1.9-0.7-2.9-1.1c-3.3-1.4-5.7-3.8-8.1-6.4
				c-1.6-1.9-3.3-4-5-5.9c-1.2-1.4-2.5-2.5-4.2-3c-0.5-0.3-1.2-0.3-1.9-0.4c-0.1,0-0.4-0.1-0.4-0.3c0-1.2,0-2.5,0-3.8
				c3.3,0,5.9,1.4,8.2,3.4c0.5-1.2,1-2.5,1.5-3.5c1.1-2,2.9-3.5,4.6-4.9c1-0.7,1.9-1.5,2.7-2.2c1.2-1.1,2.3-2.2,3.4-3.4
				c1,0.7,2.2,1.4,3.3,2.2c-1.1,1.6-2.3,2.9-3.7,4.1c-1.8,1.5-3.7,3-5.5,4.6c-2.5,2.2-2.7,5-1.9,8.1c0,0.1,0.1,0.3,0.3,0.4
				c1.8,2.2,3.5,4.4,5.9,6c1.9,1.4,4,2.2,6.3,2.3c0.4,0,0.5-0.1,0.8-0.4c0.7-1.5,0.7-3-0.1-4.5c-1-1.8-2.5-3-4-4.2
				c-0.1-0.1-0.3-0.3-0.5-0.4c0.8-1.1,1.6-2.2,2.5-3.3c0.8,0.7,1.6,1.4,2.5,2c1.2,1.1,2.3,2.3,3.1,3.8c1.9,3.3,1.6,6.4-0.4,9.6
				c-1.5,2.5-3.5,4.2-5.6,6.3c-2,2-4,4-6,6c-0.5,0.5-1,1.2-1.4,1.8c2.5,2.3,5.5,4,8.5,5.6c-0.3-1.9-0.4-3.7-0.5-5.5
				c1.4-0.3,2.6-0.4,4.1-0.7c0.1,0.7,0.3,1.4,0.3,2.2c0.4,3,0.5,6,0.3,9.1c-0.4,4-1.5,7.6-4.2,10.8c-2.2,2.3-4.9,3.7-8.1,4.1
				c-0.1,0-0.4,0.1-0.5,0.1c-0.7,0-1.2,0-1.9,0c-0.5,0-1-0.1-1.5-0.1c-3.3-0.4-6.4-1.6-9.1-3.5c-1.9-1.4-3.5-3.1-4.4-5.5
				c-0.3-1-0.4-2-0.5-3.3c0,0-0.1,0-0.3,0c-3,0.1-6-0.5-8.7-1.9c-3.3-1.8-6-4.1-7.5-7.6c-1.5-3.4-1.2-6.6,1.2-9.6
				c0.3-0.4,0.7-0.7,1.1-1.1c-0.1-0.1-0.3-0.1-0.4-0.3c-2-1-4-2-5.5-3.7c-2.5-2.7-3.3-6-1.9-9.6c0.7-1.9,1.9-3.4,3.4-4.6
				c0.4-0.4,1-0.8,1.4-1.2c-0.3-0.1-0.5-0.4-0.7-0.5c-1.8-1.2-3.3-2.7-4.2-4.8c-0.4-1-0.7-2-1.1-3.1
				C589.8,347.8,589.8,347.1,589.8,346.6z"/>
		</g>
	</g>
	<g>
		<path class="st0" d="M364.5,338h12c3.8,0,6.7,0.3,8.6,1c1.9,0.5,3.5,1.8,4.6,3.5c1.2,1.8,1.8,4.8,1.8,8.7c0,2.7-0.4,4.6-1.2,5.7
			c-0.8,1.1-2.5,1.9-5,2.5c2.7,0.7,4.6,1.6,5.6,3.1s1.5,3.7,1.5,6.7v4.4c0,3.1-0.4,5.5-1.1,7s-1.9,2.6-3.4,3.1s-4.8,0.8-9.6,0.8
			h-13.8V338L364.5,338z M376.5,345.9v10.4c0.5,0,1,0,1.2,0c1.2,0,1.9-0.3,2.2-0.8c0.3-0.5,0.5-2.3,0.5-5c0-1.5-0.1-2.5-0.4-3
			s-0.5-1-1.1-1.1C378.5,346,377.7,345.9,376.5,345.9z M376.5,363.5v13c1.6,0,2.7-0.3,3.3-0.8c0.4-0.5,0.7-1.6,0.7-3.5V368
			c0-2-0.3-3.1-0.7-3.7C379.3,363.7,378.2,363.5,376.5,363.5z"/>
		<path class="st0" d="M423.7,359.7v9.3c0,3.4-0.1,6-0.5,7.5s-1.1,3.1-2.2,4.5s-2.6,2.5-4.4,3.1c-1.8,0.7-3.8,1-6,1
			c-2.6,0-4.6-0.3-6.4-0.8s-3.1-1.4-4.1-2.6c-1-1.1-1.6-2.5-2-4.1s-0.7-4.1-0.7-7.2v-9.8c0-3.5,0.4-6.3,1.1-8.3
			c0.8-2,2.2-3.5,4.1-4.8c1.9-1.2,4.5-1.8,7.5-1.8c2.6,0,4.8,0.4,6.7,1.2c1.9,0.8,3.3,1.8,4.2,3c1,1.2,1.6,2.6,2,3.8
			C423.6,355,423.7,356.9,423.7,359.7z M412.2,356.8c0-1.9-0.1-3.1-0.3-3.7c-0.3-0.5-0.7-0.8-1.4-0.8c-0.7,0-1.1,0.3-1.4,0.8
			s-0.3,1.8-0.3,3.7V374c0,1.8,0.1,3,0.3,3.5c0.3,0.5,0.7,0.8,1.4,0.8c0.7,0,1.1-0.3,1.4-0.7c0.3-0.5,0.3-1.6,0.3-3.3V356.8z"/>
		<path class="st0" d="M454.9,359.7v9.3c0,3.4-0.1,6-0.5,7.5s-1.1,3.1-2.2,4.5s-2.6,2.5-4.4,3.1s-3.8,1-6,1c-2.6,0-4.6-0.3-6.4-0.8
			s-3.1-1.4-4.1-2.6c-1-1.1-1.6-2.5-2-4.1s-0.7-4.1-0.7-7.2v-9.8c0-3.5,0.4-6.3,1.1-8.3c0.8-2,2.2-3.5,4.1-4.8
			c1.9-1.2,4.5-1.8,7.5-1.8c2.6,0,4.8,0.4,6.7,1.2c1.9,0.8,3.3,1.8,4.2,3c1,1.2,1.6,2.6,2,3.8C454.8,355,454.9,356.9,454.9,359.7z
			 M443.5,356.8c0-1.9-0.1-3.1-0.3-3.7c-0.3-0.5-0.7-0.8-1.4-0.8c-0.7,0-1.1,0.3-1.4,0.8s-0.3,1.8-0.3,3.7V374c0,1.8,0.1,3,0.3,3.5
			c0.3,0.5,0.7,0.8,1.4,0.8c0.7,0,1.1-0.3,1.4-0.7c0.3-0.5,0.3-1.6,0.3-3.3V356.8z"/>
		<path class="st0" d="M483.6,358.4h-10.2v-2c0-1.8-0.1-2.9-0.3-3.4c-0.1-0.4-0.7-0.7-1.5-0.7c-0.7,0-1.1,0.3-1.5,0.7
			c-0.4,0.4-0.5,1.1-0.5,1.9c0,1.2,0.1,2,0.3,2.6s0.7,1.1,1.5,1.8c0.8,0.7,2.5,1.6,4.9,2.9c3.3,1.6,5.5,3.1,6.6,4.6s1.5,3.5,1.5,6.4
			c0,3.1-0.4,5.5-1.2,7c-0.8,1.6-2.2,2.7-4,3.7c-1.9,0.8-4.1,1.2-6.8,1.2c-2.9,0-5.5-0.4-7.5-1.4s-3.5-2.2-4.2-3.7
			c-0.8-1.6-1.2-4-1.2-7.1v-1.8h10.2v2.5c0,2,0.1,3.4,0.4,4c0.3,0.5,0.8,1,1.5,1c0.8,0,1.4-0.3,1.8-0.7s0.5-1.2,0.5-2.6
			c0-1.8-0.3-3-0.7-3.4s-2.7-1.8-6.7-4.1c-3.4-1.9-5.5-3.7-6.1-5.2c-0.7-1.5-1.1-3.4-1.1-5.6c0-3,0.4-5.3,1.2-6.7
			c0.8-1.5,2.2-2.6,4.1-3.4s4.1-1.2,6.7-1.2c2.5,0,4.6,0.3,6.4,1s3.1,1.5,4.1,2.6s1.5,2,1.8,2.9c0.3,0.8,0.3,2.3,0.3,4.2v2.2h-0.3
			V358.4z"/>
		<path class="st0" d="M501.2,341.2v6h3.1v6h-3.1v20.3c0,2.5,0.1,4,0.4,4.2c0.3,0.3,1.4,0.4,3.1,0.4v6.1h-4.6
			c-2.6,0-4.5-0.1-5.6-0.3c-1.1-0.3-2-0.7-3-1.5c-0.8-0.8-1.4-1.6-1.6-2.7c-0.3-1.1-0.3-3.4-0.3-7.2v-19.4h-2.5v-6h2.5v-6
			L501.2,341.2L501.2,341.2z"/>
		<path class="st0" d="M508.6,338h9c5.7,0,9.7,0.3,11.7,0.8s3.5,1.4,4.6,2.6s1.8,2.6,2,4.1s0.4,4.5,0.4,8.9v16.2
			c0,4.2-0.1,7-0.5,8.3c-0.4,1.4-1.1,2.5-2,3.3c-1,0.8-2.2,1.4-3.5,1.6c-1.4,0.3-3.5,0.4-6.4,0.4h-15.1V338H508.6z M520.6,345.9
			v30.6c1.8,0,2.7-0.4,3.1-1.1c0.4-0.7,0.5-2.6,0.5-5.7v-18c0-2,0-3.4-0.1-4.1c-0.1-0.5-0.4-1.1-1-1.4
			C522.6,345.9,521.9,345.9,520.6,345.9z"/>
		<path class="st0" d="M579.3,338v46.5h-10.5v-31.4l-4.2,31.4h-7.4l-4.4-30.7v30.7h-10.5V338h15.6c0.4,2.7,1,6.1,1.4,9.8l1.6,11.9
			l2.7-21.7L579.3,338L579.3,338z"/>
	</g>
</g>
<g>
	<g>
		<path class="st0" d="M467.1,236.3c0,0.8-0.3,1.2-0.7,1.2c-1.2,0-2.7-0.1-4.6-0.3c-2.2-0.1-4-0.3-5.5-0.3s-3.3,0.1-5.3,0.3
			c-1.9,0.1-3.4,0.3-4.6,0.3c-0.5,0-0.7-0.4-0.7-1.2s0.3-1.1,0.7-1.2c2.6-0.3,4.2-1,4.9-1.9c0.7-1,1.1-2.9,1.1-5.7v-16.6
			c0-2.5-0.3-4-1-4.8c-0.5-0.8-1.9-1.2-4-1.5c-0.5,0-0.7-0.4-0.7-1.2c0-0.7,0.3-1.1,0.7-1.1c3.1-0.8,5.7-1.6,7.6-2.6
			c2-1,3.3-1.6,3.7-2.3c0.3-0.4,0.7-0.5,1-0.5c0.8,0,1.2,0.3,1.2,0.7c-0.5,6.7-0.7,12-0.7,15.7v14.2c0,3,0.4,4.9,1.1,5.7
			s2.5,1.5,5,1.9C466.9,235.2,467.1,235.6,467.1,236.3z M460.9,181.7c0,1.2-0.4,2.3-1.4,3.3s-2,1.4-3.3,1.4c-1.2,0-2.3-0.4-3.3-1.4
			s-1.4-2-1.4-3.3c0-1.4,0.4-2.5,1.4-3.4c1-1,2-1.4,3.3-1.4c1.2,0,2.3,0.4,3.3,1.4C460.4,179.2,460.9,180.3,460.9,181.7z"/>
		<path class="st0" d="M503.4,236.5c0,0.5-0.1,1-0.5,1c-0.8,0-1.9,0-3.1-0.1c-1.4-0.1-2.6-0.1-3.7-0.1s-2.3,0-3.7,0.1
			c-1.2,0.1-2.3,0.1-3.1,0.1c-0.4,0-0.5-0.3-0.5-1c0-0.5,0.1-0.8,0.5-0.8c1.5-0.1,2.5-0.5,2.9-1.2s0.7-2,0.7-4.2v-10.9
			c0-2.5-0.4-4.2-1.4-5.3s-2.5-1.6-4.4-1.6c-1.2,0-2.3,0.3-3.3,0.7c-1,0.5-2,1.4-3.1,2.6v14.7c0,2.2,0.3,3.5,0.7,4.2
			c0.4,0.7,1.5,1.1,2.9,1.2c0.4,0,0.5,0.3,0.5,0.8s-0.1,1-0.5,1c-0.8,0-1.9,0-3.3-0.1s-2.6-0.1-3.7-0.1s-2.2,0-3.7,0.1
			c-1.2,0.1-2.3,0.1-3.3,0.1c-0.4,0-0.5-0.3-0.5-1c0-0.5,0.1-0.8,0.5-0.8c1.9-0.3,3-0.7,3.5-1.4s0.8-2,0.8-4.1v-12
			c0-1.8-0.3-2.9-0.7-3.4c-0.4-0.5-1.4-1-3-1.1c-0.4,0-0.5-0.3-0.5-0.8s0.1-0.8,0.5-0.8c2.2-0.5,4-1.1,5.3-1.9
			c1.4-0.7,2.3-1.2,2.7-1.6c0.3-0.3,0.4-0.4,0.7-0.4c0.5,0,1,0.1,1,0.5l-0.3,4.1c3.1-2.9,6-4.4,8.6-4.4c2.9,0,5.2,0.8,6.8,2.6
			c1.6,1.6,2.5,4,2.5,6.8v12.4c0,2.2,0.3,3.5,0.8,4.2s1.8,1.1,3.5,1.4C503.3,235.6,503.4,236,503.4,236.5z"/>
		<path class="st0" d="M526.1,211.4c0,1.2-0.3,1.8-0.8,1.8l-9.7-0.3v15.7c0,4.1,1.5,6.1,4.4,6.1c1.8,0,3.4-0.4,4.9-1.2
			c0.1,0,0.3,0.1,0.4,0.4c0.1,0.3,0.3,0.4,0.3,0.7c0,0.5-0.8,1.2-2.5,2.2c-1.6,1-3.4,1.4-5.5,1.4c-2.5,0-4.4-0.8-5.9-2.3
			c-1.5-1.5-2.2-3.5-2.2-6v-0.3l0.1-15.8c0-0.5-0.3-1-0.8-1h-2.5c-0.4,0-0.7-0.3-0.7-0.8c0-0.4,0.1-0.7,0.5-1c3-1.8,5.6-4.4,7.8-7.5
			c0.3-0.4,0.5-0.5,1-0.5s1,0.1,1,0.5l-0.3,6.3h9.6C525.8,209.7,526.1,210.2,526.1,211.4z"/>
		<path class="st0" d="M577.5,216.2c0,6.7-2.2,12.1-6.4,16.5c-4.4,4.4-9.8,6.4-16.6,6.4s-12.4-2.2-16.8-6.4
			c-4.4-4.4-6.4-9.8-6.4-16.4c0-6.7,2.2-12.3,6.6-16.8c4.4-4.5,10-6.7,16.6-6.7c6.8,0,12.4,2.2,16.6,6.7
			C575.3,203.8,577.5,209.4,577.5,216.2z M567.4,216.1c0-6.1-1.2-11.1-3.5-14.7c-2.3-3.7-5.6-5.5-9.7-5.5c-4.1,0-7.2,1.9-9.6,5.5
			c-2.3,3.7-3.5,8.6-3.5,14.6s1.1,10.9,3.5,14.5c2.3,3.5,5.6,5.3,9.7,5.3c4.1,0,7.4-1.8,9.7-5.3
			C566.3,227.1,567.4,222.2,567.4,216.1z"/>
		<path class="st0" d="M630.9,198.3c0,1.9-0.4,2.9-1.4,2.9l-6.7-0.3c0.8,2,1.1,4.1,1.1,6.1c0,5-1.8,9.3-5.5,12.7s-8.2,5-13.5,5h-2
			c-2.7,0-4.9,0.4-6.6,1.1c-1.6,0.7-2.5,1.6-2.5,2.6c0,1.2,0.7,2.2,2,3c1.4,0.8,3.3,1.2,5.7,1.2l12.1,0.1c5.2,0.1,9.3,1.2,12.1,3.3
			c2.9,2,4.4,5,4.4,8.9c0,5.7-3,10.6-9.1,14.9c-6.1,4.3-13.4,6.4-21.7,6.4c-5.5,0-10.1-1.4-13.9-4.1s-5.6-6-5.6-9.8
			c0-2.6,1.2-5.2,3.5-7.6c2.3-2.5,5.2-4.2,8.5-5.5c-2.2-1-4-2.3-5.3-4.2c-1.4-1.8-2-3.7-2-5.5c0-1.2,1.2-2.6,3.8-4.1
			s5.2-2.5,7.9-2.9c-3-1.5-5.3-3.4-7-5.9s-2.5-5.2-2.5-8.2c0-4.9,1.9-9.1,5.6-12.7c3.7-3.7,8.1-5.5,13.2-5.5c2.7,0,5.3,0.4,8.1,1.4
			c2.6,1,4.8,2.2,6.6,3.8l9.4-0.3C630.5,195.5,630.9,196.4,630.9,198.3z M623.8,249c0-2.5-0.8-4.1-2.3-5.2c-1.6-1.1-4.2-1.6-7.9-1.6
			l-12.1-0.3c-2.5,0-4.5-0.4-6.4-1.1c-4.2,2.3-6.4,5.5-6.4,9.3c0,3.4,1.5,6.3,4.4,8.5c2.9,2.2,6.6,3.3,11.1,3.3
			c5.3,0,10-1.2,13.9-3.7C621.7,255.5,623.8,252.5,623.8,249z M614.2,206.9c0-4.5-0.7-7.8-2-10c-1.4-2-3.5-3.1-6.6-3.1
			c-5.7,0-8.6,4.9-8.6,14.7c0,4.5,0.7,7.6,2,9.7c1.4,2,3.5,3,6.7,3C611.4,221.4,614.2,216.6,614.2,206.9z"/>
		<path class="st0" d="M658.2,218.8c0,0.5-0.4,1-1.2,1h-17.7c-0.1,1.2-0.1,2.5-0.1,3.7c0,3.5,0.8,6.1,2.5,8.1c1.6,1.9,4,2.9,7.1,2.9
			c1.5,0,3-0.4,4.6-1.2c1.5-0.8,2.9-1.9,3.7-3.1h0.1c0.1,0,0.4,0.1,0.5,0.4c0.1,0.3,0.3,0.5,0.3,0.8c0,0.4-0.7,1.4-2,2.9
			s-2.9,2.6-4.5,3.3s-3.3,1.1-5,1.1c-3.8,0-7.1-1.5-9.8-4.4c-2.6-2.9-4-6.4-4-10.6c0-4.2,1.4-7.9,4-10.8c2.6-3,5.9-4.5,9.8-4.5
			c3.3,0,6.1,1.1,8.5,3.3C657.1,213.6,658.2,216.2,658.2,218.8z M652.3,215.9c0-1.6-0.5-3-1.6-4.1s-2.6-1.6-4.2-1.6
			c-1.6,0-3.1,0.7-4.4,2c-1.2,1.4-2,3.3-2.5,5.6l9-0.3c1.4,0,2.3-0.1,2.9-0.4C651.9,217,652.3,216.6,652.3,215.9z"/>
		<path class="st0" d="M695.6,236.5c0,0.5-0.1,1-0.5,1c-0.8,0-1.9,0-3.1-0.1c-1.4-0.1-2.6-0.1-3.7-0.1s-2.3,0-3.7,0.1
			c-1.2,0.1-2.3,0.1-3.1,0.1c-0.4,0-0.5-0.3-0.5-1c0-0.5,0.1-0.8,0.5-0.8c1.5-0.1,2.5-0.5,2.9-1.2s0.7-2,0.7-4.2v-10.9
			c0-2.5-0.4-4.2-1.4-5.3s-2.5-1.6-4.4-1.6c-1.2,0-2.3,0.3-3.3,0.7c-1,0.5-2,1.4-3.1,2.6v14.7c0,2.2,0.3,3.5,0.7,4.2
			s1.5,1.1,2.9,1.2c0.4,0,0.5,0.3,0.5,0.8s-0.1,1-0.5,1c-0.8,0-1.9,0-3.3-0.1s-2.6-0.1-3.7-0.1s-2.2,0-3.7,0.1
			c-1.2,0.1-2.3,0.1-3.3,0.1c-0.4,0-0.5-0.3-0.5-1c0-0.5,0.1-0.8,0.5-0.8c1.9-0.3,3-0.7,3.5-1.4s0.8-2,0.8-4.1v-12
			c0-1.8-0.3-2.9-0.7-3.4s-1.4-1-3-1.1c-0.4,0-0.5-0.3-0.5-0.8s0.1-0.8,0.5-0.8c2.2-0.5,4-1.1,5.3-1.9c1.4-0.7,2.3-1.2,2.7-1.6
			c0.3-0.3,0.4-0.4,0.7-0.4c0.5,0,1,0.1,1,0.5l-0.3,4.1c3.1-2.9,6-4.4,8.6-4.4c2.9,0,5.2,0.8,6.8,2.6c1.6,1.6,2.5,4,2.5,6.8v12.4
			c0,2.2,0.3,3.5,0.8,4.2s1.8,1.1,3.5,1.4C695.4,235.6,695.6,236,695.6,236.5z"/>
	</g>
	<g>
		<path class="st0" d="M419.8,207.1c-6.1,5.9-13.1,8.6-21,8.2c-7.9-0.4-15-3.8-21.2-10.4c-6.3-6.6-9.3-13.8-9.3-21.7
			s3.1-14.7,9.3-20.6c6.1-5.9,13.4-8.7,21.4-8.5c8.1,0.3,15.3,3.7,21.4,10.1c6.3,6.6,9.3,13.8,9,21.8
			C429.2,194.1,426.1,201.1,419.8,207.1z M410.8,197.2c5.6-5.3,9.1-10.8,10.4-16.2c1.2-5.5,0-10.1-3.7-14.1
			c-3.7-3.8-8.3-5.3-13.9-4.4c-5.6,1-11.1,4.1-16.8,9.4c-5.6,5.3-9,10.6-10.1,16c-1.2,5.3,0.1,10,3.8,13.9c3.8,4,8.3,5.5,13.6,4.6
			C399.6,205.8,405,202.7,410.8,197.2z"/>
		<path class="st0" d="M394.7,142.7c0,1.6-0.5,3.1-1.8,4.4c-1.2,1.2-2.7,1.9-4.4,1.9c-1.8,0-3.1-0.7-4.4-1.9
			c-1.2-1.2-1.8-2.7-1.8-4.4c0-1.8,0.5-3.3,1.8-4.5c1.2-1.2,2.7-1.8,4.5-1.8s3.1,0.5,4.4,1.8C394,139.4,394.7,140.9,394.7,142.7z"/>
		<path class="st0" d="M385.7,284.2c-2.3-1.6-4.2-3.7-5.7-6c-3.5-5.6-4.4-11.7-2.5-18.3c1.9-6.6,6-11.7,12.3-15.7l2.5-1.5
			c3.3-2,5.6-4.1,7-6.1s1.8-3.7,1.1-4.8c-0.8-1.4-2.3-2-4.5-1.9s-4.6,1.1-7.6,2.9l-14.3,8.9c-6.3,3.8-11.7,5.6-16.6,5.5
			s-8.7-2.3-11.3-6.6c-4.1-6.4-4-14.2,0.3-23.5s11.3-17.2,21.2-23.5c6.6-4.1,13-6.1,19.2-5.9c6.4,0.1,10.9,2.5,13.6,6.7
			c1.8,2.9,2.2,6.6,1.1,11.2c-1.1,4.5-3.1,8.7-6.1,12.4c3.3-0.5,6.3-0.3,9.1,0.7c2.9,1,4.9,2.5,6.3,4.5c1,1.4,0.4,3.8-1.6,7.4
			c-2,3.5-4.5,6.6-7.4,9.1c4.6-0.5,8.7-0.1,12.4,1.4c3.7,1.5,6.7,4,8.7,7.2c3.4,5.5,4.2,11.5,2.5,18.3c-1.8,6.8-5.7,12.1-11.7,16
			c-3.1,2-6.7,3.5-10.5,4.4c-3.8,1-7.2,1.1-10.4,0.5L385.7,284.2z M350.7,231.2c1.8,2.7,3.8,4.1,6.6,4c2.6,0,6.1-1.4,10.6-4.1
			l14.5-8.7c2.9-1.8,5.6-3,8.3-3.5c3.4-5.9,3.7-10.8,1-15.1c-2.5-3.8-6.1-5.9-11.1-6.1c-4.9-0.3-10.1,1.4-15.3,4.6
			c-6.3,4-10.9,8.9-13.9,14.6C348.4,222.5,348.1,227.3,350.7,231.2z M391.5,271.1c3.1,5,6.3,8.2,9.4,9.6s6.4,0.8,10-1.4
			c6.8-4.4,6.7-12-0.3-22.9c-3.1-4.9-6.3-8.1-9.3-9.3s-6.3-0.7-10,1.6C384.7,252.8,384.7,260.3,391.5,271.1z"/>
	</g>
</g>
</svg>
