<?xml version="1.0" encoding="utf-8"?>
<!-- Generator: Adobe Illustrator 24.1.0, SVG Export Plug-In . SVG Version: 6.00 Build 0)  -->
<svg version="1.1" id="Capa_1" xmlns="http://www.w3.org/2000/svg" xmlns:xlink="http://www.w3.org/1999/xlink" x="0px" y="0px"
	 viewBox="0 0 1038.4 678.7" style="enable-background:new 0 0 1038.4 678.7;" xml:space="preserve">
<style type="text/css">
	.st0{opacity:0.5;}
	.st1{fill:#F4F9F9;stroke:#8FB5BC;stroke-miterlimit:10;}
	.st2{opacity:0.25;fill:#8FB5BC;enable-background:new    ;}
	.st3{opacity:0.1;fill:#8FB5BC;enable-background:new    ;}
	.st4{fill:#DFE8E8;enable-background:new    ;}
	.st5{fill:#F4F9F9;}
	.st6{opacity:0.1;fill:#CAD8D8;enable-background:new    ;}
	.st7{fill:#7D46D3;}
	.st8{fill:#7F9337;}
	.st9{opacity:0.8;fill:#FFFFFF;stroke:#000000;stroke-miterlimit:10;enable-background:new    ;}
	.st10{fill:#FFFFFF;stroke:#FF6600;stroke-width:0.75;stroke-miterlimit:10;}
	.st11{fill:#FFFFFF;stroke:#FF6600;stroke-width:0.75;stroke-miterlimit:9.9999;}
	.st12{fill:#FF2A2A;}
	.st13{fill:#FFFFFF;stroke:#FF6600;stroke-width:0.75;stroke-miterlimit:10.0001;}
	.st14{fill:#FFFFFF;stroke:#FF6600;stroke-width:0.75;stroke-miterlimit:10.0002;}
	.st15{enable-background:new    ;}
	.st16{fill:#032836;}
	.st17{fill:#777876;}
	.st18{fill:#F69B17;}
</style>
<g>
	<g>
		<g id="Capa_1_4_">
			<g id="Capa_9_3_">
				<g>
					<g class="st0">
						<g>
							<path class="st1" d="M486.9,416.4c11.3,0.4,24.9,1.6,32.8,10.6c1.7,2.3,1.6,4.7,1.6,7.4c-0.2,5,0.4,10.1-0.3,15.1
								c-1,3.5-4.3,6-7.3,7.6c-0.4,0.3-0.7,0.7-0.7,1.2c0,10.5,0,21.2,0,31.7c0,40.9,0,81.8,0,122.8c-0.6,40.6-51.7,40.7-52.3,0
								c0-36.8,0-73.7,0-110.5c0-14.7,0-29.3,0-44c0-0.5-0.3-1-0.7-1.2c-4-2.1-8.1-5.6-7.6-10.5c0-3.7,0-7.4,0-11.1
								c0-2.5-0.4-5.1,0.9-7.4C460.7,418,475.4,416.9,486.9,416.4"/>
						</g>
						<path class="st2" d="M511.8,431.6c0.4,11.6-49.8,11.6-49.4,0C462,420,512.2,420,511.8,431.6z"/>
					</g>
					<g>
						<path class="st3" d="M464.9,529.7v0.2C464.9,529.8,464.9,529.7,464.9,529.7L464.9,529.7z"/>
						<path class="st4" d="M464.9,529.9v85.7c0,12.4,10,22.4,22.4,22.4c12.2,0,22.1-9.9,22-22.2v-85
							C507,539.1,464.4,538.8,464.9,529.9z"/>
					</g>
					<path class="st5" d="M509.4,529.9c0.4,9.2-45,9.2-44.5,0C464.3,520.7,509.8,520.7,509.4,529.9z"/>
				</g>
			</g>
			<g id="Capa_14_3_">
			</g>
			<g id="Capa_6_3_">
			</g>
			<g id="Capa_3_3_">
			</g>
		</g>
		<g id="Capa_1_3_">
			<g id="Capa_9_2_">
				<g>
					<g class="st0">
						<g>
							<path class="st1" d="M565.9,416.1c11.3,0.4,24.9,1.6,32.8,10.6c1.7,2.3,1.6,4.7,1.6,7.4c-0.2,5,0.4,10.1-0.3,15.1
								c-1,3.5-4.3,6-7.3,7.6c-0.4,0.3-0.7,0.7-0.7,1.2c0,10.5,0,21.2,0,31.7c0,40.9,0,81.8,0,122.8c-0.6,40.6-51.7,40.7-52.3,0
								c0-36.8,0-73.7,0-110.5c0-14.7,0-29.3,0-44c0-0.5-0.3-1-0.7-1.2c-4-2.1-8.1-5.6-7.6-10.5c0-3.7,0-7.4,0-11.1
								c0-2.5-0.4-5.1,0.9-7.4C539.8,417.6,554.4,416.6,565.9,416.1"/>
						</g>
						<path class="st2" d="M590.9,431.3c0.4,11.6-49.8,11.6-49.4,0C541,419.7,591.2,419.7,590.9,431.3z"/>
					</g>
					<g>
						<path class="st6" d="M543.9,529.4v0.2C543.9,529.5,543.9,529.4,543.9,529.4L543.9,529.4z"/>
						<path class="st4" d="M543.9,529.6v85.7c0,12.4,10,22.4,22.4,22.4c12.2,0,22.1-9.9,22-22.2v-85
							C586,538.8,543.4,538.5,543.9,529.6z"/>
					</g>
					<path class="st5" d="M588.4,529.6c0.4,9.2-45,9.2-44.5,0C543.4,520.4,588.9,520.4,588.4,529.6z"/>
				</g>
			</g>
			<g id="Capa_14_2_">
			</g>
			<g id="Capa_6_2_">
			</g>
			<g id="Capa_3_2_">
			</g>
		</g>
		<path class="st7" d="M474.3,469.1v27c9.2,4.1,28.9,4.2,38.7,0.4v-27C503.2,473.3,483.5,473.2,474.3,469.1z"/>
		<path class="st8" d="M592.5,469c-9.7,4-30,4-39.2-0.3v27c9.2,4.2,29.5,4.3,39.2,0.3V469z"/>
		<path class="st9" d="M426.3,435.8v70.4c0,3.6,1.5,6.9,4,8.9l8.1,6.5c5.4,4.3,5.4,5.5,0,9.9l-8.1,6.5c-2.5,2-4,5.4-4,8.9v81
			c0,6-1.2,7.9-6.5,7.9H224.5c-5.2,0-6.5-1.9-6.5-7.9V435.8c0-6,1.2-7.9,6.5-7.9h195.3C425.1,427.9,426.3,429.8,426.3,435.8z"/>
		<g>
			<circle class="st10" cx="386.7" cy="500" r="12.9"/>
			<ellipse class="st11" cx="322.9" cy="456.6" rx="12.9" ry="12.9"/>
			<circle class="st10" cx="293.4" cy="537.8" r="12.9"/>
			<circle class="st10" cx="342.3" cy="463.4" r="12.9"/>
			<circle class="st10" cx="270.5" cy="546.2" r="12.9"/>
			<circle class="st10" cx="359.7" cy="477.9" r="12.9"/>
			<circle class="st10" cx="316.5" cy="511.4" r="12.9"/>
			<circle class="st10" cx="368.9" cy="516.7" r="12.9"/>
			<circle class="st10" cx="341.7" cy="484.2" r="12.9"/>
			<circle class="st10" cx="338.1" cy="502.3" r="12.9"/>
			<circle class="st10" cx="317.6" cy="535.1" r="12.9"/>
			<circle class="st10" cx="349.6" cy="524.3" r="12.9"/>
			<ellipse class="st12" cx="329.6" cy="522.9" rx="12.9" ry="12.9"/>
			<circle class="st10" cx="390" cy="519.2" r="12.9"/>
		</g>
		<path class="st9" d="M628.5,433.7v70.4c0,3.6-1.5,6.9-4,8.9l-8.1,6.5c-5.4,4.3-5.4,5.5,0,9.9l8.1,6.5c2.5,2,4,5.4,4,8.9v81
			c0,6,1.2,7.9,6.5,7.9h195.3c5.2,0,6.5-1.9,6.5-7.9V433.7c0-6-1.2-7.9-6.5-7.9H635C629.8,425.8,628.5,427.7,628.5,433.7z"/>
		<g>
			<circle class="st10" cx="781" cy="497.9" r="12.9"/>
			
				<ellipse transform="matrix(0.3162 -0.9487 0.9487 0.3162 59.1782 991.1567)" class="st13" cx="717.2" cy="454.5" rx="12.9" ry="12.9"/>
			<circle class="st10" cx="687.7" cy="535.7" r="12.9"/>
			
				<ellipse transform="matrix(0.3162 -0.9487 0.9487 0.3162 66.0873 1014.1425)" class="st12" cx="736.6" cy="461.2" rx="12.9" ry="12.9"/>
			<circle class="st10" cx="664.8" cy="544.1" r="12.9"/>
			<circle class="st10" cx="754" cy="475.8" r="12.9"/>
			<circle class="st10" cx="710.8" cy="509.3" r="12.9"/>
			<circle class="st10" cx="763.2" cy="514.6" r="12.9"/>
			
				<ellipse transform="matrix(0.3162 -0.9487 0.9487 0.3162 45.8495 1027.8644)" class="st14" cx="736" cy="482.1" rx="12.9" ry="12.9"/>
			
				<ellipse transform="matrix(0.3162 -0.9487 0.9487 0.3162 26.2165 1036.8257)" class="st14" cx="732.4" cy="500.2" rx="12.9" ry="12.9"/>
			<circle class="st10" cx="711.9" cy="533" r="12.9"/>
			<circle class="st10" cx="743.9" cy="522.2" r="12.9"/>
			
				<ellipse transform="matrix(0.3162 -0.9487 0.9487 0.3162 0.8616 1042.8477)" class="st14" cx="723.9" cy="520.8" rx="12.9" ry="12.9"/>
			<circle class="st10" cx="784.3" cy="517" r="12.9"/>
		</g>
		<g class="st15">
			<path class="st16" d="M672.1,587.6h-4l-0.3-6.8c-0.1-1.6-0.1-3.1-0.1-4.3c0-1,0-1.9,0.1-2.8l-2.7,12h-3.9l-2.9-12
				c0.1,1.4,0.2,2.8,0.2,4.1c0,1,0,2-0.1,3l-0.3,6.7h-4l1.3-17.3h5.2l2.6,11.8l2.4-11.8h5.2L672.1,587.6z"/>
			<path class="st16" d="M685.6,587.6h-3.4L682,586c-1,1.4-2.3,2.1-4,2.1c-1.2,0-2.1-0.4-2.8-1.1s-0.9-1.8-0.9-3.1v-9.5h4v9
				c0,0.7,0.1,1.1,0.3,1.4c0.2,0.3,0.5,0.4,1,0.4c0.8,0,1.5-0.5,2.1-1.5v-9.2h4V587.6z"/>
			<path class="st16" d="M697.1,587c-0.5,0.3-1,0.6-1.7,0.8c-0.6,0.2-1.3,0.3-1.9,0.3c-2.9,0-4.3-1.6-4.3-4.8v-6.2h-1.9v-2.8h1.9
				v-2.9l3.9-0.4v3.3h3.1l-0.4,2.8h-2.6v6.1c0,0.6,0.1,1.1,0.3,1.3c0.2,0.3,0.5,0.4,0.9,0.4c0.5,0,0.9-0.1,1.4-0.4L697.1,587z"/>
			<path class="st16" d="M708.8,584.9c0.1,0.2,0.4,0.4,0.7,0.5l-0.8,2.6c-0.8-0.1-1.5-0.2-2-0.5c-0.5-0.3-0.9-0.8-1.2-1.4
				c-0.9,1.3-2.2,2-4,2c-1.3,0-2.4-0.4-3.1-1.1c-0.8-0.8-1.2-1.8-1.2-3c0-1.5,0.5-2.6,1.6-3.3s2.6-1.2,4.6-1.2h1.4v-0.6
				c0-0.8-0.2-1.3-0.5-1.6c-0.3-0.3-0.9-0.4-1.8-0.4c-0.4,0-1,0.1-1.6,0.2s-1.2,0.3-1.9,0.5l-0.9-2.6c0.8-0.3,1.7-0.6,2.6-0.7
				c0.9-0.2,1.7-0.2,2.4-0.2c1.9,0,3.3,0.4,4.2,1.2c0.9,0.8,1.3,2,1.3,3.5v5.2C708.6,584.3,708.7,584.7,708.8,584.9z M704.8,584
				v-2.4h-1c-0.9,0-1.6,0.2-2,0.5s-0.7,0.8-0.7,1.5c0,0.5,0.1,0.9,0.4,1.2c0.3,0.3,0.7,0.4,1.1,0.4
				C703.6,585.2,704.3,584.8,704.8,584z"/>
			<path class="st16" d="M720,574.3c0.7,0.3,1.4,0.7,2.1,1.2l-1.7,2.4c-0.8-0.6-1.7-1-2.5-1c-0.9,0-1.5,0.3-2,1
				c-0.5,0.7-0.7,1.7-0.7,3.2c0,1.4,0.2,2.4,0.7,3c0.5,0.6,1.1,0.9,2,0.9c0.4,0,0.9-0.1,1.2-0.2s0.8-0.4,1.3-0.7l1.7,2.4
				c-1.3,1.1-2.8,1.6-4.5,1.6c-1.4,0-2.5-0.3-3.5-0.9s-1.7-1.4-2.3-2.4c-0.5-1-0.8-2.3-0.8-3.7c0-1.4,0.3-2.6,0.8-3.7
				c0.5-1.1,1.3-1.9,2.3-2.5s2.1-0.9,3.4-0.9C718.5,573.9,719.3,574.1,720,574.3z"/>
			<path class="st16" d="M727.4,568c0.4,0.4,0.7,1,0.7,1.6c0,0.7-0.2,1.2-0.7,1.6c-0.4,0.4-1,0.6-1.7,0.6c-0.7,0-1.2-0.2-1.7-0.6
				c-0.4-0.4-0.7-1-0.7-1.6c0-0.6,0.2-1.2,0.7-1.6s1-0.6,1.7-0.6C726.4,567.4,727,567.6,727.4,568z M727.7,574.4v13.3h-4v-13.3
				H727.7z"/>
			<path class="st16" d="M741.3,575.8c1.1,1.2,1.7,3,1.7,5.2c0,1.4-0.3,2.7-0.8,3.7c-0.5,1.1-1.3,1.9-2.2,2.5
				c-1,0.6-2.1,0.9-3.5,0.9c-2,0-3.6-0.6-4.8-1.9c-1.2-1.2-1.7-3-1.7-5.2c0-1.4,0.3-2.7,0.8-3.7s1.3-1.9,2.2-2.5
				c1-0.6,2.1-0.9,3.5-0.9C738.6,573.9,740.2,574.6,741.3,575.8z M734.8,577.9c-0.4,0.7-0.6,1.7-0.6,3.1c0,1.5,0.2,2.5,0.6,3.2
				c0.4,0.7,1,1,1.8,1c0.8,0,1.4-0.3,1.8-1s0.6-1.7,0.6-3.1c0-1.5-0.2-2.5-0.6-3.2c-0.4-0.7-1-1-1.8-1
				C735.8,576.8,735.2,577.2,734.8,577.9z"/>
			<path class="st16" d="M755.9,575c0.6,0.7,1,1.7,1,3v9.7h-4v-9c0-0.7-0.1-1.1-0.3-1.4c-0.2-0.3-0.5-0.4-0.9-0.4
				c-0.8,0-1.6,0.6-2.3,1.7v9.1h-4v-13.3h3.5l0.3,1.6c0.6-0.7,1.2-1.2,1.8-1.5c0.7-0.3,1.4-0.5,2.2-0.5
				C754.3,573.9,755.2,574.3,755.9,575z"/>
			<path class="st16" d="M767.2,574.4c0.8,0.3,1.6,0.7,2.2,1.2l-1.4,2.2c-1.1-0.7-2.2-1-3.3-1c-0.5,0-0.9,0.1-1.2,0.3
				s-0.4,0.4-0.4,0.7c0,0.2,0.1,0.5,0.2,0.6c0.1,0.2,0.4,0.3,0.8,0.5c0.4,0.2,1,0.4,1.8,0.6c1.4,0.4,2.4,0.9,3.1,1.6
				c0.7,0.6,1,1.5,1,2.7c0,0.9-0.3,1.7-0.8,2.3s-1.2,1.2-2.1,1.5c-0.9,0.3-1.9,0.5-3,0.5c-1.1,0-2.2-0.2-3.1-0.5
				c-1-0.4-1.8-0.8-2.4-1.5l1.9-2.2c1.1,0.9,2.3,1.3,3.5,1.3c0.6,0,1.1-0.1,1.4-0.3c0.3-0.2,0.5-0.5,0.5-0.9c0-0.3-0.1-0.6-0.2-0.8
				c-0.1-0.2-0.4-0.4-0.8-0.5s-1-0.4-1.8-0.6c-1.3-0.4-2.3-0.9-2.9-1.6c-0.7-0.7-1-1.5-1-2.6c0-0.8,0.2-1.5,0.7-2.1
				c0.4-0.6,1.1-1.1,1.9-1.4s1.8-0.5,2.9-0.5C765.5,573.9,766.4,574.1,767.2,574.4z"/>
			<path class="st16" d="M789.7,569.1v18.5h-3.5l-0.2-1.5c-0.9,1.3-2.2,2-3.8,2c-1.6,0-2.9-0.6-3.8-1.9c-0.9-1.3-1.3-3-1.3-5.2
				c0-1.4,0.2-2.6,0.7-3.6c0.5-1.1,1.1-1.9,1.9-2.5c0.8-0.6,1.8-0.9,2.8-0.9c1.3,0,2.3,0.4,3.2,1.2v-6.5L789.7,569.1z M785.8,583.7
				v-5.7c-0.3-0.4-0.6-0.7-1-0.8c-0.3-0.2-0.7-0.3-1.1-0.3c-0.7,0-1.3,0.3-1.8,1s-0.6,1.7-0.6,3.1c0,1.6,0.2,2.6,0.6,3.2
				c0.4,0.6,0.9,0.9,1.6,0.9C784.4,585.2,785.2,584.7,785.8,583.7z"/>
			<path class="st16" d="M804.3,582.2h-8.2c0.1,1.1,0.5,1.9,1,2.3s1.2,0.7,2.1,0.7c0.5,0,1.1-0.1,1.6-0.3s1-0.5,1.6-0.9l1.6,2.2
				c-1.6,1.2-3.3,1.8-5.2,1.8c-2.1,0-3.8-0.6-4.9-1.9c-1.2-1.3-1.7-3-1.7-5.1c0-1.3,0.2-2.6,0.7-3.6c0.5-1.1,1.2-1.9,2.1-2.5
				c0.9-0.6,2-0.9,3.3-0.9c1.9,0,3.4,0.6,4.5,1.8c1.1,1.2,1.6,2.9,1.6,5C804.4,581.3,804.4,581.8,804.3,582.2z M800.5,579.6
				c0-2-0.8-3-2.2-3c-0.7,0-1.2,0.2-1.6,0.8s-0.6,1.3-0.7,2.5h4.4V579.6z"/>
			<path class="st16" d="M807.5,587.1c-0.6-0.7-1-1.6-1-2.8v-15.2l4-0.4v15.4c0,0.6,0.2,0.8,0.7,0.8c0.2,0,0.5,0,0.7-0.1l0.8,2.8
				c-0.7,0.3-1.5,0.5-2.4,0.5C809,588.1,808.1,587.7,807.5,587.1z"/>
		</g>
		<g class="st15">
			<path class="st16" d="M693.6,605.8c0.8,1.2,1.2,3,1.2,5.2c0,1.4-0.2,2.6-0.6,3.7c-0.4,1.1-1,1.9-1.8,2.5s-1.7,0.9-2.8,0.9
				c-1.3,0-2.4-0.5-3.2-1.4v6.1l-4,0.4v-18.8h3.5l0.2,1.5c0.5-0.7,1.1-1.1,1.8-1.4s1.4-0.5,2-0.5
				C691.6,603.9,692.8,604.6,693.6,605.8z M690.7,611c0-1.6-0.2-2.7-0.5-3.3c-0.3-0.6-0.9-0.9-1.6-0.9c-0.4,0-0.9,0.1-1.3,0.4
				c-0.4,0.3-0.7,0.7-1,1.2v5.6c0.5,0.8,1.2,1.2,2,1.2C689.9,615.2,690.7,613.8,690.7,611z"/>
			<path class="st16" d="M707.8,614.9c0.1,0.2,0.4,0.4,0.7,0.5l-0.8,2.6c-0.8-0.1-1.5-0.2-2-0.5s-0.9-0.8-1.2-1.4
				c-0.9,1.3-2.2,2-4,2c-1.3,0-2.4-0.4-3.2-1.1c-0.8-0.8-1.2-1.8-1.2-3c0-1.5,0.5-2.6,1.6-3.3s2.6-1.2,4.6-1.2h1.4v-0.6
				c0-0.8-0.2-1.3-0.5-1.6c-0.3-0.3-0.9-0.4-1.8-0.4c-0.4,0-1,0.1-1.6,0.2c-0.6,0.1-1.2,0.3-1.9,0.5l-0.9-2.6
				c0.8-0.3,1.7-0.6,2.6-0.7c0.9-0.2,1.7-0.2,2.4-0.2c1.9,0,3.3,0.4,4.2,1.2c0.9,0.8,1.3,2,1.3,3.5v5.2
				C707.6,614.3,707.7,614.7,707.8,614.9z M703.7,614v-2.4h-1c-0.9,0-1.6,0.2-2,0.5s-0.7,0.8-0.7,1.5c0,0.5,0.1,0.9,0.4,1.2
				c0.3,0.3,0.7,0.4,1.1,0.4C702.5,615.2,703.2,614.8,703.7,614z"/>
			<path class="st16" d="M719,604.3c0.7,0.3,1.4,0.7,2.1,1.2l-1.7,2.4c-0.8-0.6-1.7-1-2.5-1c-0.9,0-1.5,0.3-2,1
				c-0.5,0.7-0.7,1.7-0.7,3.2c0,1.4,0.2,2.4,0.7,3c0.5,0.6,1.1,0.9,2,0.9c0.4,0,0.9-0.1,1.2-0.2c0.4-0.1,0.8-0.4,1.3-0.7l1.7,2.4
				c-1.3,1.1-2.8,1.6-4.5,1.6c-1.4,0-2.5-0.3-3.5-0.9s-1.7-1.4-2.3-2.4s-0.8-2.3-0.8-3.7c0-1.4,0.3-2.6,0.8-3.7
				c0.5-1.1,1.3-1.9,2.3-2.5s2.1-0.9,3.4-0.9C717.4,603.9,718.3,604.1,719,604.3z"/>
			<path class="st16" d="M726.4,598c0.4,0.4,0.7,1,0.7,1.6c0,0.7-0.2,1.2-0.7,1.6c-0.4,0.4-1,0.6-1.7,0.6c-0.7,0-1.2-0.2-1.7-0.6
				c-0.4-0.4-0.7-1-0.7-1.6c0-0.6,0.2-1.2,0.7-1.6c0.4-0.4,1-0.6,1.7-0.6C725.4,597.4,725.9,597.6,726.4,598z M726.7,604.4v13.3h-4
				v-13.3H726.7z"/>
			<path class="st16" d="M741.3,612.2h-8.2c0.1,1.1,0.4,1.9,0.9,2.3s1.2,0.7,2.1,0.7c0.5,0,1-0.1,1.5-0.3s1-0.5,1.6-0.9l1.6,2.2
				c-1.5,1.2-3.3,1.8-5.2,1.8c-2.1,0-3.8-0.6-5-1.9c-1.1-1.3-1.7-3-1.7-5.1c0-1.3,0.2-2.6,0.7-3.6c0.5-1.1,1.2-1.9,2.1-2.5
				s2.1-0.9,3.4-0.9c1.9,0,3.4,0.6,4.5,1.8c1.1,1.2,1.6,2.9,1.6,5C741.4,611.3,741.3,611.8,741.3,612.2z M737.5,609.6
				c0-2-0.8-3-2.2-3c-0.7,0-1.2,0.2-1.6,0.8s-0.6,1.3-0.7,2.5h4.4V609.6z"/>
			<path class="st16" d="M754.1,605c0.7,0.7,1,1.7,1,3v9.7h-4v-9c0-0.7-0.1-1.1-0.3-1.4c-0.2-0.3-0.5-0.4-0.9-0.4
				c-0.8,0-1.6,0.6-2.3,1.7v9.1h-4v-13.3h3.5l0.3,1.6c0.6-0.7,1.2-1.2,1.8-1.5c0.7-0.3,1.4-0.5,2.2-0.5
				C752.5,603.9,753.4,604.3,754.1,605z"/>
			<path class="st16" d="M766.3,617c-0.5,0.3-1,0.6-1.7,0.8c-0.6,0.2-1.3,0.3-1.9,0.3c-2.9,0-4.3-1.6-4.3-4.8v-6.2h-1.9v-2.8h1.9
				v-2.9l4-0.4v3.3h3l-0.4,2.8h-2.6v6.1c0,0.6,0.1,1.1,0.3,1.3s0.5,0.4,1,0.4c0.5,0,0.9-0.1,1.4-0.4L766.3,617z"/>
			<path class="st16" d="M781.1,601c0.9,0.4,1.5,1,2,1.8c0.5,0.7,0.7,1.5,0.7,2.4c0,0.9-0.2,1.8-0.6,2.6c-0.4,0.8-1,1.8-1.9,2.8
				c-0.9,1.1-2.3,2.4-4.1,4h6.9l-0.4,3h-11v-2.8c2-2,3.5-3.5,4.5-4.6c0.9-1,1.6-1.9,2-2.6s0.6-1.4,0.6-2.1c0-0.7-0.2-1.2-0.6-1.6
				s-0.9-0.6-1.6-0.6c-0.6,0-1.1,0.1-1.6,0.4s-1,0.7-1.5,1.3l-2.3-1.9c0.7-0.9,1.5-1.6,2.5-2.1c1-0.5,2.1-0.8,3.3-0.8
				S780.2,600.6,781.1,601z"/>
		</g>
		<g class="st15">
			<path class="st16" d="M263,588.1h-4l-0.3-6.8c-0.1-1.6-0.1-3.1-0.1-4.3c0-1,0-1.9,0.1-2.8l-2.7,12h-3.9l-2.9-12
				c0.1,1.4,0.2,2.8,0.2,4.1c0,1,0,2-0.1,3l-0.3,6.7h-4l1.3-17.3h5.2l2.6,11.8l2.4-11.8h5.2L263,588.1z"/>
			<path class="st16" d="M276.6,588.1h-3.4l-0.2-1.7c-1,1.4-2.3,2.1-4,2.1c-1.2,0-2.1-0.4-2.8-1.1s-0.9-1.8-0.9-3.1v-9.5h4v9
				c0,0.7,0.1,1.1,0.3,1.4c0.2,0.3,0.5,0.4,1,0.4c0.8,0,1.6-0.5,2.1-1.5v-9.2h4V588.1z"/>
			<path class="st16" d="M288,587.4c-0.5,0.3-1,0.6-1.7,0.8c-0.6,0.2-1.3,0.3-1.9,0.3c-2.9,0-4.4-1.6-4.4-4.8v-6.2h-1.9v-2.8h1.9
				v-2.9l4-0.4v3.3h3l-0.4,2.8H284v6.1c0,0.6,0.1,1.1,0.3,1.3c0.2,0.3,0.5,0.4,1,0.4c0.5,0,0.9-0.1,1.4-0.4L288,587.4z"/>
			<path class="st16" d="M299.8,585.3c0.1,0.2,0.4,0.4,0.7,0.5l-0.8,2.6c-0.8-0.1-1.5-0.2-2-0.5s-0.9-0.8-1.2-1.4
				c-0.9,1.3-2.2,2-4,2c-1.3,0-2.4-0.4-3.1-1.1c-0.8-0.8-1.2-1.8-1.2-3c0-1.5,0.5-2.6,1.6-3.3c1.1-0.8,2.6-1.2,4.6-1.2h1.4v-0.6
				c0-0.8-0.2-1.3-0.5-1.6c-0.3-0.3-0.9-0.4-1.8-0.4c-0.4,0-1,0.1-1.6,0.2s-1.2,0.3-1.9,0.5l-0.9-2.6c0.8-0.3,1.7-0.6,2.6-0.7
				c0.9-0.2,1.7-0.2,2.4-0.2c1.9,0,3.3,0.4,4.2,1.2c0.9,0.8,1.3,2,1.3,3.5v5.2C299.6,584.7,299.6,585.1,299.8,585.3z M295.7,584.4
				V582h-1c-0.9,0-1.6,0.2-2,0.5s-0.7,0.8-0.7,1.5c0,0.5,0.1,0.9,0.4,1.2c0.3,0.3,0.7,0.4,1.1,0.4
				C294.5,585.7,295.2,585.2,295.7,584.4z"/>
			<path class="st16" d="M310.9,574.8c0.7,0.3,1.4,0.7,2.1,1.2l-1.7,2.4c-0.8-0.6-1.7-1-2.5-1c-0.9,0-1.5,0.3-2,1
				c-0.5,0.7-0.7,1.7-0.7,3.2c0,1.4,0.2,2.4,0.7,3c0.5,0.6,1.1,0.9,2,0.9c0.4,0,0.9-0.1,1.2-0.2s0.8-0.4,1.3-0.7l1.7,2.4
				c-1.3,1.1-2.8,1.6-4.5,1.6c-1.4,0-2.5-0.3-3.5-0.9s-1.7-1.4-2.3-2.4c-0.5-1-0.8-2.3-0.8-3.7c0-1.4,0.3-2.6,0.8-3.7
				c0.5-1.1,1.3-1.9,2.3-2.5s2.1-0.9,3.4-0.9C309.4,574.4,310.2,574.5,310.9,574.8z"/>
			<path class="st16" d="M318.3,568.4c0.4,0.4,0.7,1,0.7,1.6c0,0.7-0.2,1.2-0.7,1.6c-0.4,0.4-1,0.6-1.7,0.6c-0.7,0-1.2-0.2-1.7-0.6
				c-0.4-0.4-0.7-1-0.7-1.6c0-0.6,0.2-1.2,0.7-1.6c0.4-0.4,1-0.6,1.7-0.6C317.3,567.8,317.9,568,318.3,568.4z M318.6,574.8v13.3h-4
				v-13.3H318.6z"/>
			<path class="st16" d="M332.3,576.2c1.1,1.2,1.7,3,1.7,5.2c0,1.4-0.3,2.7-0.8,3.7c-0.5,1.1-1.3,1.9-2.2,2.5
				c-1,0.6-2.1,0.9-3.5,0.9c-2,0-3.6-0.6-4.8-1.9c-1.2-1.2-1.7-3-1.7-5.2c0-1.4,0.3-2.7,0.8-3.7s1.3-1.9,2.2-2.5
				c1-0.6,2.1-0.9,3.5-0.9C329.5,574.4,331.1,575,332.3,576.2z M325.7,578.3c-0.4,0.7-0.6,1.7-0.6,3.1c0,1.5,0.2,2.5,0.6,3.2
				c0.4,0.7,1,1,1.8,1c0.8,0,1.4-0.3,1.8-1s0.6-1.7,0.6-3.1c0-1.5-0.2-2.5-0.6-3.2s-1-1-1.8-1C326.7,577.3,326.1,577.6,325.7,578.3z
				"/>
			<path class="st16" d="M346.8,575.4c0.6,0.7,1,1.7,1,3v9.7h-4v-9c0-0.7-0.1-1.1-0.3-1.4c-0.2-0.3-0.5-0.4-0.9-0.4
				c-0.8,0-1.6,0.6-2.3,1.7v9.1h-4v-13.3h3.5l0.3,1.6c0.6-0.7,1.2-1.2,1.8-1.5c0.7-0.3,1.4-0.5,2.2-0.5
				C345.3,574.4,346.2,574.7,346.8,575.4z"/>
			<path class="st16" d="M358.1,574.8c0.8,0.3,1.6,0.7,2.2,1.2l-1.4,2.2c-1.1-0.7-2.2-1-3.3-1c-0.5,0-0.9,0.1-1.2,0.3
				s-0.4,0.4-0.4,0.7c0,0.2,0.1,0.5,0.2,0.6c0.1,0.2,0.4,0.3,0.8,0.5c0.4,0.2,1,0.4,1.8,0.6c1.4,0.4,2.4,0.9,3.1,1.6
				c0.7,0.6,1,1.5,1,2.7c0,0.9-0.3,1.7-0.8,2.3s-1.2,1.2-2.1,1.5c-0.9,0.3-1.9,0.5-3,0.5c-1.1,0-2.2-0.2-3.1-0.5
				c-1-0.4-1.8-0.8-2.4-1.5l1.9-2.2c1.1,0.9,2.3,1.3,3.5,1.3c0.6,0,1.1-0.1,1.4-0.3c0.3-0.2,0.5-0.5,0.5-0.9c0-0.3-0.1-0.6-0.2-0.8
				c-0.1-0.2-0.4-0.4-0.8-0.5s-1-0.4-1.8-0.6c-1.3-0.4-2.3-0.9-2.9-1.6c-0.7-0.7-1-1.5-1-2.6c0-0.8,0.2-1.5,0.7-2.1
				c0.4-0.6,1.1-1.1,1.9-1.4s1.8-0.5,2.9-0.5C356.4,574.4,357.3,574.5,358.1,574.8z"/>
			<path class="st16" d="M380.7,569.5v18.5h-3.5l-0.2-1.5c-0.9,1.3-2.2,2-3.8,2c-1.6,0-2.9-0.6-3.8-1.9c-0.9-1.3-1.3-3-1.3-5.2
				c0-1.4,0.2-2.6,0.7-3.6c0.5-1.1,1.1-1.9,1.9-2.5c0.8-0.6,1.8-0.9,2.8-0.9c1.3,0,2.3,0.4,3.2,1.2v-6.5L380.7,569.5z M376.7,584.1
				v-5.7c-0.3-0.4-0.6-0.7-1-0.8c-0.3-0.2-0.7-0.3-1.1-0.3c-0.7,0-1.3,0.3-1.8,1s-0.6,1.7-0.6,3.1c0,1.6,0.2,2.6,0.6,3.2
				c0.4,0.6,0.9,0.9,1.6,0.9C375.3,585.6,376.1,585.1,376.7,584.1z"/>
			<path class="st16" d="M395.3,582.6H387c0.1,1.1,0.5,1.9,1,2.3s1.2,0.7,2.1,0.7c0.5,0,1.1-0.1,1.6-0.3s1-0.5,1.6-0.9l1.6,2.2
				c-1.6,1.2-3.3,1.8-5.2,1.8c-2.1,0-3.8-0.6-4.9-1.9c-1.2-1.3-1.7-3-1.7-5.1c0-1.3,0.2-2.6,0.7-3.6c0.5-1.1,1.2-1.9,2.1-2.5
				c0.9-0.6,2-0.9,3.3-0.9c1.9,0,3.4,0.6,4.5,1.8c1.1,1.2,1.6,2.9,1.6,5C395.3,581.7,395.3,582.2,395.3,582.6z M391.5,580
				c0-2-0.8-3-2.2-3c-0.7,0-1.2,0.2-1.6,0.8s-0.6,1.3-0.7,2.5h4.4V580z"/>
			<path class="st16" d="M398.4,587.5c-0.6-0.7-1-1.6-1-2.8v-15.2l4-0.4v15.4c0,0.6,0.2,0.8,0.7,0.8c0.2,0,0.5,0,0.7-0.1l0.8,2.8
				c-0.7,0.3-1.5,0.5-2.4,0.5C399.9,588.5,399,588.2,398.4,587.5z"/>
		</g>
		<g class="st15">
			<path class="st16" d="M284.5,606.2c0.8,1.2,1.2,3,1.2,5.2c0,1.4-0.2,2.6-0.6,3.7c-0.4,1.1-1,1.9-1.8,2.5
				c-0.8,0.6-1.7,0.9-2.8,0.9c-1.3,0-2.4-0.5-3.2-1.4v6.1l-4,0.4v-18.8h3.5l0.2,1.5c0.5-0.7,1.1-1.1,1.8-1.4c0.7-0.3,1.4-0.5,2-0.5
				C282.5,604.4,283.7,605,284.5,606.2z M281.7,611.4c0-1.6-0.2-2.7-0.5-3.3s-0.9-0.9-1.6-0.9c-0.4,0-0.9,0.1-1.3,0.4
				c-0.4,0.3-0.7,0.7-1,1.2v5.6c0.5,0.8,1.2,1.2,2,1.2C280.9,615.6,281.7,614.2,281.7,611.4z"/>
			<path class="st16" d="M298.8,615.3c0.1,0.2,0.4,0.4,0.7,0.5l-0.8,2.6c-0.8-0.1-1.5-0.2-2-0.5s-0.9-0.8-1.2-1.4
				c-0.9,1.3-2.2,2-4,2c-1.3,0-2.4-0.4-3.1-1.1c-0.8-0.8-1.2-1.8-1.2-3c0-1.5,0.5-2.6,1.6-3.3c1.1-0.8,2.6-1.2,4.6-1.2h1.4v-0.6
				c0-0.8-0.2-1.3-0.5-1.6c-0.3-0.3-0.9-0.4-1.8-0.4c-0.4,0-1,0.1-1.6,0.2s-1.2,0.3-1.9,0.5l-0.9-2.6c0.8-0.3,1.7-0.6,2.6-0.7
				c0.9-0.2,1.7-0.2,2.4-0.2c1.9,0,3.3,0.4,4.2,1.2c0.9,0.8,1.3,2,1.3,3.5v5.2C298.5,614.7,298.6,615.1,298.8,615.3z M294.7,614.4
				V612h-1c-0.9,0-1.6,0.2-2,0.5s-0.7,0.8-0.7,1.5c0,0.5,0.1,0.9,0.4,1.2c0.3,0.3,0.7,0.4,1.1,0.4
				C293.5,615.7,294.2,615.2,294.7,614.4z"/>
			<path class="st16" d="M309.9,604.8c0.7,0.3,1.4,0.7,2.1,1.2l-1.7,2.4c-0.8-0.6-1.7-1-2.5-1c-0.9,0-1.5,0.3-2,1
				c-0.5,0.7-0.7,1.7-0.7,3.2c0,1.4,0.2,2.4,0.7,3c0.5,0.6,1.1,0.9,2,0.9c0.4,0,0.9-0.1,1.2-0.2s0.8-0.4,1.3-0.7l1.7,2.4
				c-1.3,1.1-2.8,1.6-4.5,1.6c-1.4,0-2.5-0.3-3.5-0.9s-1.7-1.4-2.3-2.4c-0.5-1-0.8-2.3-0.8-3.7c0-1.4,0.3-2.6,0.8-3.7
				c0.5-1.1,1.3-1.9,2.3-2.5s2.1-0.9,3.4-0.9C308.4,604.4,309.2,604.5,309.9,604.8z"/>
			<path class="st16" d="M317.3,598.4c0.4,0.4,0.7,1,0.7,1.6c0,0.7-0.2,1.2-0.7,1.6c-0.4,0.4-1,0.6-1.7,0.6c-0.7,0-1.2-0.2-1.7-0.6
				c-0.4-0.4-0.7-1-0.7-1.6c0-0.6,0.2-1.2,0.7-1.6c0.4-0.4,1-0.6,1.7-0.6C316.3,597.8,316.9,598,317.3,598.4z M317.6,604.8v13.3h-4
				v-13.3H317.6z"/>
			<path class="st16" d="M332.2,612.6H324c0.1,1.1,0.4,1.9,0.9,2.3s1.2,0.7,2.1,0.7c0.5,0,1-0.1,1.5-0.3s1-0.5,1.6-0.9l1.6,2.2
				c-1.5,1.2-3.3,1.8-5.2,1.8c-2.1,0-3.8-0.6-5-1.9s-1.7-3-1.7-5.1c0-1.3,0.2-2.6,0.7-3.6c0.5-1.1,1.2-1.9,2.1-2.5
				c0.9-0.6,2.1-0.9,3.4-0.9c1.9,0,3.4,0.6,4.5,1.8c1.1,1.2,1.6,2.9,1.6,5C332.3,611.7,332.3,612.2,332.2,612.6z M328.4,610
				c0-2-0.8-3-2.1-3c-0.7,0-1.2,0.2-1.6,0.8s-0.6,1.3-0.7,2.5h4.4V610z"/>
			<path class="st16" d="M345,605.4c0.6,0.7,1,1.7,1,3v9.7h-4v-9c0-0.7-0.1-1.1-0.3-1.4c-0.2-0.3-0.5-0.4-0.9-0.4
				c-0.8,0-1.6,0.6-2.3,1.7v9.1h-4v-13.3h3.5l0.3,1.6c0.6-0.7,1.2-1.2,1.8-1.5c0.7-0.3,1.4-0.5,2.2-0.5
				C343.4,604.4,344.3,604.7,345,605.4z"/>
			<path class="st16" d="M357.3,617.4c-0.5,0.3-1,0.6-1.7,0.8c-0.6,0.2-1.3,0.3-1.9,0.3c-2.9,0-4.4-1.6-4.4-4.8v-6.2h-1.9v-2.8h1.9
				v-2.9l4-0.4v3.3h3l-0.4,2.8h-2.6v6.1c0,0.6,0.1,1.1,0.3,1.3c0.2,0.3,0.5,0.4,1,0.4c0.5,0,0.9-0.1,1.4-0.4L357.3,617.4z"/>
			<path class="st16" d="M372.5,601.2v16.9h-3.9v-13l-3.6,2.2l-1.7-2.6l5.7-3.5H372.5z"/>
		</g>
	</g>
	<g>
		<g id="YX734u.tif_1_">
			<g>
				<path d="M589.8,310.6c0.3-0.8,0.4-1.8,0.8-2.6c1.1-2.3,2.9-3.8,4.9-5c2-1.2,4.2-2,6.4-2.7c0.3,0,0.5-0.3,0.5-0.4
					c0.7-2.7,2.2-4.9,4.2-6.8c3.8-3.7,8.5-6,13.9-6.7c3.7-0.4,7.1,0.3,10.1,2.3c0.1,0.1,0.4,0.1,0.7,0.1c6.6-1.5,12.4,0.1,17.9,3.5
					c2.5,1.6,4.5,3.7,6,6.3c1.5,2.6,2.3,5.5,2,8.6c0,0.4,0.1,0.5,0.4,0.7c2.6,1.4,4.8,3.3,6.3,5.7c2.5,3.8,2.9,8.1,1.5,12.4
					c-0.1,0.4-0.3,0.7-0.4,1.1c0,0,0,0,0,0.1l0.1,0.1c3.4,1,5.6,3.3,7,6.3c2.2,4.6,2.3,9.6,0.4,14.3c-1.8,4.2-4.9,7.1-9.1,8.7
					c-0.7,0.3-1.4,0.5-2,0.7c-0.3,0.1-0.4,0.1-0.5,0.5c-0.3,6.6-7,13.1-14.1,14.2c-2.5,0.4-5.7-0.1-7.6-1.4c0.5-1.2,1.2-2.5,1.8-3.5
					c1,0.3,1.9,0.5,3,0.7c2.6,0.3,5-0.4,7.2-1.9c2.5-1.6,4.4-3.7,5.3-6.6c1.1-3.1-0.1-5.7-3.1-7.1c-0.5-0.3-1.2-0.5-1.9-0.8
					c0.4-1.4,0.8-2.6,1.2-4c1.6,0.5,3.1,1.1,4.5,2.2c1.2,0.8,2.2,1.9,2.9,3.3c0,0.1,0.4,0.3,0.5,0.1c4.9-1.4,8.6-5,9.3-10.4
					c0.4-3.4-0.1-6.6-2.2-9.3c-1.2-1.8-3-2.9-5.3-2.6c-1.5,0.3-2.9,1.1-4,2c-0.7,0.7-1.4,1.4-2.2,2c-1-0.8-2-1.8-3.1-2.7
					c1.9-2.2,4-4,6.7-4.9c0.4-0.1,0.7-0.4,1-0.8c1.8-3.8,2-7.5-0.4-11.1c-1.9-2.9-4.6-4.6-8.1-5.2c-1.8-0.3-3.7,0-5.2,1.4
					c-1-1.1-1.8-2-2.7-3.1c2.6-2.2,5.5-2.6,8.7-2.3c0.1-1.1-0.1-2.2-0.4-3.3c-0.8-2.9-2.7-5-5-6.8c-3.8-2.7-8.2-4.1-12.8-4
					c-2.3,0.1-4.4,0.7-6.1,2.3c-1,0.8-1.5,1.8-1.9,2.9c-0.1,0.1-0.1,0.4-0.3,0.7c-1.4-0.4-2.6-0.8-4.1-1.2c0.5-1.1,1.1-2.2,1.6-3.3
					c0.7-1,1.5-1.8,2.3-2.7c-1-0.4-2-0.7-3.1-0.7c-4-0.1-7.6,1.1-10.9,3.3c-2.2,1.5-4,3.1-5.2,5.5s-1,4.4,0.8,5.9
					c0.7,0.5,1.5,1,2.2,1.4c0.1,0.1,0.4,0.1,0.7,0.3c-0.5,1.2-1,2.6-1.5,3.8c-3-1.2-5.5-3-6.7-6.1c-0.1,0-0.3,0-0.4,0.1
					c-2.3,0.8-4.4,1.8-6.3,3.3c-1.9,1.6-2.6,3.7-1.5,5.7c0.4,0.8,1.1,1.6,1.8,2.3c2.5,2.5,5.6,3.7,9,4.4c1.9,0.4,3.8,0.5,5.7,0.7
					c0.3,0,0.4,0,0.7,0c0,1.4,0,2.7,0,4.2c-1.5-0.1-3-0.1-4.4-0.4c-2.3-0.3-4.6-0.8-6.7-1.6c-0.1-0.1-0.4-0.1-0.5,0
					c-1.8,1.2-3.5,2.5-4.6,4.4c-1.1,1.9-1,3.8,0.4,5.5c1.8,2.2,4.2,3.3,7,4c1.1,0.3,2.2,0.4,3.4-0.1c0.1,0.7,0.4,0.7,1,0.7
					c2.7,0,5.2-0.7,7.4-2.3c0,0,0.1-0.1,0.3-0.1c0.8,1.1,1.6,2.2,2.5,3.3c-1,0.5-1.9,1.2-2.9,1.6c-2.9,1.4-5.7,1.8-8.9,1.6
					c-0.1,0-0.3,0-0.4,0c-1.6,0.5-3,1.4-4.1,2.7c-1.1,1.6-1.1,3.3-0.3,5c1.2,2.5,3.1,4.2,5.5,5.5c3,1.5,6.1,2,9.3,1
					c1-0.3,1.8-0.8,2.6-1.2c0.7,1.1,1.4,2.3,2,3.5c-0.3,0.1-0.5,0.3-0.8,0.5c-0.4,0.3-0.7,0.5-1.1,0.8c-1,1.1-1.1,2.2-0.5,3.4
					c0.8,1.6,2.2,2.7,3.7,3.5c2.3,1.4,4.8,2.2,7.5,2.2c4.4,0.1,7.8-2,9.3-6.6c0.4-1.4,0.7-2.7,1-4.1c0.1-0.4-0.1-0.5-0.4-0.7
					c-2.5-1.4-5-2.7-7.4-4.4c-2.5-1.6-4.6-3.5-6.1-6.1c-1.2-2-1.8-4.4-1.9-6.8c-0.1-3.1,0.3-6.1,0.8-9.1c0-0.1,0-0.1,0.1-0.3
					c1.4,0.3,2.6,0.5,4,0.8c-0.7,4.1-1.5,8.2,0,12.4c2.6-3.4,6-6.1,9-9.1c-1-0.4-1.9-0.7-2.9-1.1c-3.3-1.4-5.7-3.8-8.1-6.4
					c-1.6-1.9-3.3-4-5-5.9c-1.2-1.4-2.5-2.5-4.2-3c-0.5-0.3-1.2-0.3-1.9-0.4c-0.1,0-0.4-0.1-0.4-0.3c0-1.2,0-2.5,0-3.8
					c3.3,0,5.9,1.4,8.2,3.4c0.5-1.2,1-2.5,1.5-3.5c1.1-2,2.9-3.5,4.6-4.9c1-0.7,1.9-1.5,2.7-2.2c1.2-1.1,2.3-2.2,3.4-3.4
					c1,0.7,2.2,1.4,3.3,2.2c-1.1,1.6-2.3,2.9-3.7,4.1c-1.8,1.5-3.7,3-5.5,4.6c-2.5,2.2-2.7,5-1.9,8.1c0,0.1,0.1,0.3,0.3,0.4
					c1.8,2.2,3.5,4.4,5.9,6c1.9,1.4,4,2.2,6.3,2.3c0.4,0,0.5-0.1,0.8-0.4c0.7-1.5,0.7-3-0.1-4.5c-1-1.8-2.5-3-4-4.2
					c-0.1-0.1-0.3-0.3-0.5-0.4c0.8-1.1,1.6-2.2,2.5-3.3c0.8,0.7,1.6,1.4,2.5,2c1.2,1.1,2.3,2.3,3.1,3.8c1.9,3.3,1.6,6.4-0.4,9.6
					c-1.5,2.5-3.5,4.2-5.6,6.3c-2,2-4,4-6,6c-0.5,0.5-1,1.2-1.4,1.8c2.5,2.3,5.5,4,8.5,5.6c-0.3-1.9-0.4-3.7-0.5-5.5
					c1.4-0.3,2.6-0.4,4.1-0.7c0.1,0.7,0.3,1.4,0.3,2.2c0.4,3,0.5,6,0.3,9.1c-0.4,4-1.5,7.6-4.2,10.8c-2.2,2.3-4.9,3.7-8.1,4.1
					c-0.1,0-0.4,0.1-0.5,0.1c-0.7,0-1.2,0-1.9,0c-0.5,0-1-0.1-1.5-0.1c-3.3-0.4-6.4-1.6-9.1-3.5c-1.9-1.4-3.5-3.1-4.4-5.5
					c-0.3-1-0.4-2-0.5-3.3c0,0-0.1,0-0.3,0c-3,0.1-6-0.5-8.7-1.9c-3.3-1.8-6-4.1-7.5-7.6c-1.5-3.4-1.2-6.6,1.2-9.6
					c0.3-0.4,0.7-0.7,1.1-1.1c-0.1-0.1-0.3-0.1-0.4-0.3c-2-1-4-2-5.5-3.7c-2.5-2.7-3.3-6-1.9-9.6c0.7-1.9,1.9-3.4,3.4-4.6
					c0.4-0.4,1-0.8,1.4-1.2c-0.3-0.1-0.5-0.4-0.7-0.5c-1.8-1.2-3.3-2.7-4.2-4.8c-0.4-1-0.7-2-1.1-3.1
					C589.8,311.8,589.8,311.1,589.8,310.6z"/>
			</g>
		</g>
		<g>
			<path d="M364.5,302h12c3.8,0,6.7,0.3,8.6,1c1.9,0.5,3.5,1.8,4.6,3.5c1.2,1.8,1.8,4.8,1.8,8.7c0,2.7-0.4,4.6-1.2,5.7
				c-0.8,1.1-2.5,1.9-5,2.5c2.7,0.7,4.6,1.6,5.6,3.1c1,1.5,1.5,3.7,1.5,6.7v4.4c0,3.1-0.4,5.5-1.1,7c-0.7,1.5-1.9,2.6-3.4,3.1
				c-1.5,0.5-4.8,0.8-9.6,0.8h-13.8L364.5,302L364.5,302z M376.5,309.9v10.4c0.5,0,1,0,1.2,0c1.2,0,1.9-0.3,2.2-0.8
				c0.3-0.5,0.5-2.3,0.5-5c0-1.5-0.1-2.5-0.4-3c-0.3-0.5-0.5-1-1.1-1.1C378.5,310,377.7,309.9,376.5,309.9z M376.5,327.5v13
				c1.6,0,2.7-0.3,3.3-0.8c0.4-0.5,0.7-1.6,0.7-3.5v-4.2c0-2-0.3-3.1-0.7-3.7C379.3,327.7,378.2,327.5,376.5,327.5z"/>
			<path d="M423.7,323.7v9.3c0,3.4-0.1,6-0.5,7.5c-0.4,1.5-1.1,3.1-2.2,4.5c-1.1,1.4-2.6,2.5-4.4,3.1c-1.8,0.7-3.8,1-6,1
				c-2.6,0-4.6-0.3-6.4-0.8c-1.8-0.5-3.1-1.4-4.1-2.6c-1-1.1-1.6-2.5-2-4.1s-0.7-4.1-0.7-7.2v-9.8c0-3.5,0.4-6.3,1.1-8.3
				c0.8-2,2.2-3.5,4.1-4.8c1.9-1.2,4.5-1.8,7.5-1.8c2.6,0,4.8,0.4,6.7,1.2c1.9,0.8,3.3,1.8,4.2,3c1,1.2,1.6,2.6,2,3.8
				C423.6,319,423.7,320.9,423.7,323.7z M412.2,320.8c0-1.9-0.1-3.1-0.3-3.7c-0.3-0.5-0.7-0.8-1.4-0.8c-0.7,0-1.1,0.3-1.4,0.8
				s-0.3,1.8-0.3,3.7V338c0,1.8,0.1,3,0.3,3.5c0.3,0.5,0.7,0.8,1.4,0.8c0.7,0,1.1-0.3,1.4-0.7c0.3-0.5,0.3-1.6,0.3-3.3V320.8z"/>
			<path d="M454.9,323.7v9.3c0,3.4-0.1,6-0.5,7.5c-0.4,1.5-1.1,3.1-2.2,4.5c-1.1,1.4-2.6,2.5-4.4,3.1s-3.8,1-6,1
				c-2.6,0-4.6-0.3-6.4-0.8c-1.8-0.5-3.1-1.4-4.1-2.6c-1-1.1-1.6-2.5-2-4.1s-0.7-4.1-0.7-7.2v-9.8c0-3.5,0.4-6.3,1.1-8.3
				c0.8-2,2.2-3.5,4.1-4.8c1.9-1.2,4.5-1.8,7.5-1.8c2.6,0,4.8,0.4,6.7,1.2c1.9,0.8,3.3,1.8,4.2,3c1,1.2,1.6,2.6,2,3.8
				C454.8,319,454.9,320.9,454.9,323.7z M443.5,320.8c0-1.9-0.1-3.1-0.3-3.7c-0.3-0.5-0.7-0.8-1.4-0.8c-0.7,0-1.1,0.3-1.4,0.8
				c-0.3,0.5-0.3,1.8-0.3,3.7V338c0,1.8,0.1,3,0.3,3.5c0.3,0.5,0.7,0.8,1.4,0.8c0.7,0,1.1-0.3,1.4-0.7c0.3-0.5,0.3-1.6,0.3-3.3
				V320.8z"/>
			<path d="M483.6,322.4h-10.2v-2c0-1.8-0.1-2.9-0.3-3.4c-0.1-0.4-0.7-0.7-1.5-0.7c-0.7,0-1.1,0.3-1.5,0.7c-0.4,0.4-0.5,1.1-0.5,1.9
				c0,1.2,0.1,2,0.3,2.6s0.7,1.1,1.5,1.8c0.8,0.7,2.5,1.6,4.9,2.9c3.3,1.6,5.5,3.1,6.6,4.6c1.1,1.5,1.5,3.5,1.5,6.4
				c0,3.1-0.4,5.5-1.2,7c-0.8,1.6-2.2,2.7-4,3.7c-1.9,0.8-4.1,1.2-6.8,1.2c-2.9,0-5.5-0.4-7.5-1.4c-2-1-3.5-2.2-4.2-3.7
				c-0.8-1.6-1.2-4-1.2-7.1v-1.8h10.2v2.5c0,2,0.1,3.4,0.4,4c0.3,0.5,0.8,1,1.5,1c0.8,0,1.4-0.3,1.8-0.7s0.5-1.2,0.5-2.6
				c0-1.8-0.3-3-0.7-3.4s-2.7-1.8-6.7-4.1c-3.4-1.9-5.5-3.7-6.1-5.2c-0.7-1.5-1.1-3.4-1.1-5.6c0-3,0.4-5.3,1.2-6.7
				c0.8-1.5,2.2-2.6,4.1-3.4c1.9-0.8,4.1-1.2,6.7-1.2c2.5,0,4.6,0.3,6.4,1s3.1,1.5,4.1,2.6c1,1.1,1.5,2,1.8,2.9
				c0.3,0.8,0.3,2.3,0.3,4.2v2.2H483.6z"/>
			<path d="M501.2,305.2v6h3.1v6h-3.1v20.3c0,2.5,0.1,4,0.4,4.2c0.3,0.3,1.4,0.4,3.1,0.4v6.1h-4.6c-2.6,0-4.5-0.1-5.6-0.3
				c-1.1-0.3-2-0.7-3-1.5c-0.8-0.8-1.4-1.6-1.6-2.7c-0.3-1.1-0.3-3.4-0.3-7.2v-19.4h-2.5v-6h2.5v-6L501.2,305.2L501.2,305.2z"/>
			<path d="M508.6,302h9c5.7,0,9.7,0.3,11.7,0.8c2,0.5,3.5,1.4,4.6,2.6c1.1,1.2,1.8,2.6,2,4.1s0.4,4.5,0.4,8.9v16.2
				c0,4.2-0.1,7-0.5,8.3c-0.4,1.4-1.1,2.5-2,3.3c-1,0.8-2.2,1.4-3.5,1.6c-1.4,0.3-3.5,0.4-6.4,0.4h-15.1V302H508.6z M520.6,309.9
				v30.6c1.8,0,2.7-0.4,3.1-1.1c0.4-0.7,0.5-2.6,0.5-5.7v-18c0-2,0-3.4-0.1-4.1c-0.1-0.5-0.4-1.1-1-1.4
				C522.6,309.9,521.9,309.9,520.6,309.9z"/>
			<path d="M579.3,302v46.5h-10.5v-31.4l-4.2,31.4h-7.4l-4.4-30.7v30.7h-10.5V302h15.6c0.4,2.7,1,6.1,1.4,9.8l1.6,11.9l2.7-21.7
				L579.3,302L579.3,302z"/>
		</g>
	</g>
	<g>
		<g>
			<path class="st17" d="M467.1,200.3c0,0.8-0.3,1.2-0.7,1.2c-1.2,0-2.7-0.1-4.6-0.3c-2.2-0.1-4-0.3-5.5-0.3s-3.3,0.1-5.3,0.3
				c-1.9,0.1-3.4,0.3-4.6,0.3c-0.5,0-0.7-0.4-0.7-1.2c0-0.8,0.3-1.1,0.7-1.2c2.6-0.3,4.2-1,4.9-1.9c0.7-1,1.1-2.9,1.1-5.7v-16.6
				c0-2.5-0.3-4-1-4.8c-0.5-0.8-1.9-1.2-4-1.5c-0.5,0-0.7-0.4-0.7-1.2c0-0.7,0.3-1.1,0.7-1.1c3.1-0.8,5.7-1.6,7.6-2.6
				c2-1,3.3-1.6,3.7-2.3c0.3-0.4,0.7-0.5,1-0.5c0.8,0,1.2,0.3,1.2,0.7c-0.5,6.7-0.7,12-0.7,15.7v14.2c0,3,0.4,4.9,1.1,5.7
				s2.5,1.5,5,1.9C466.9,199.2,467.1,199.6,467.1,200.3z M460.9,145.7c0,1.2-0.4,2.3-1.4,3.3c-1,1-2,1.4-3.3,1.4
				c-1.2,0-2.3-0.4-3.3-1.4c-1-1-1.4-2-1.4-3.3c0-1.4,0.4-2.5,1.4-3.4c1-1,2-1.4,3.3-1.4c1.2,0,2.3,0.4,3.3,1.4
				C460.4,143.2,460.9,144.3,460.9,145.7z"/>
			<path class="st17" d="M503.4,200.5c0,0.5-0.1,1-0.5,1c-0.8,0-1.9,0-3.1-0.1c-1.4-0.1-2.6-0.1-3.7-0.1c-1.1,0-2.3,0-3.7,0.1
				c-1.2,0.1-2.3,0.1-3.1,0.1c-0.4,0-0.5-0.3-0.5-1c0-0.5,0.1-0.8,0.5-0.8c1.5-0.1,2.5-0.5,2.9-1.2c0.4-0.7,0.7-2,0.7-4.2v-10.9
				c0-2.5-0.4-4.2-1.4-5.3c-1-1.1-2.5-1.6-4.4-1.6c-1.2,0-2.3,0.3-3.3,0.7c-1,0.5-2,1.4-3.1,2.6v14.7c0,2.2,0.3,3.5,0.7,4.2
				c0.4,0.7,1.5,1.1,2.9,1.2c0.4,0,0.5,0.3,0.5,0.8c0,0.5-0.1,1-0.5,1c-0.8,0-1.9,0-3.3-0.1c-1.4-0.1-2.6-0.1-3.7-0.1
				c-1.1,0-2.2,0-3.7,0.1c-1.2,0.1-2.3,0.1-3.3,0.1c-0.4,0-0.5-0.3-0.5-1c0-0.5,0.1-0.8,0.5-0.8c1.9-0.3,3-0.7,3.5-1.4
				c0.5-0.7,0.8-2,0.8-4.1v-12c0-1.8-0.3-2.9-0.7-3.4c-0.4-0.5-1.4-1-3-1.1c-0.4,0-0.5-0.3-0.5-0.8c0-0.5,0.1-0.8,0.5-0.8
				c2.2-0.5,4-1.1,5.3-1.9c1.4-0.7,2.3-1.2,2.7-1.6c0.3-0.3,0.4-0.4,0.7-0.4c0.5,0,1,0.1,1,0.5l-0.3,4.1c3.1-2.9,6-4.4,8.6-4.4
				c2.9,0,5.2,0.8,6.8,2.6c1.6,1.6,2.5,4,2.5,6.8v12.4c0,2.2,0.3,3.5,0.8,4.2c0.5,0.7,1.8,1.1,3.5,1.4
				C503.3,199.6,503.4,200,503.4,200.5z"/>
			<path class="st17" d="M526.1,175.4c0,1.2-0.3,1.8-0.8,1.8l-9.7-0.3v15.7c0,4.1,1.5,6.1,4.4,6.1c1.8,0,3.4-0.4,4.9-1.2
				c0.1,0,0.3,0.1,0.4,0.4c0.1,0.3,0.3,0.4,0.3,0.7c0,0.5-0.8,1.2-2.5,2.2c-1.6,1-3.4,1.4-5.5,1.4c-2.5,0-4.4-0.8-5.9-2.3
				c-1.5-1.5-2.2-3.5-2.2-6v-0.3l0.1-15.8c0-0.5-0.3-1-0.8-1h-2.5c-0.4,0-0.7-0.3-0.7-0.8c0-0.4,0.1-0.7,0.5-1
				c3-1.8,5.6-4.4,7.8-7.5c0.3-0.4,0.5-0.5,1-0.5c0.5,0,1,0.1,1,0.5l-0.3,6.3h9.6C525.8,173.7,526.1,174.2,526.1,175.4z"/>
			<path class="st17" d="M577.5,180.2c0,6.7-2.2,12.1-6.4,16.5c-4.4,4.4-9.8,6.4-16.6,6.4c-6.8,0-12.4-2.2-16.8-6.4
				c-4.4-4.4-6.4-9.8-6.4-16.4c0-6.7,2.2-12.3,6.6-16.8c4.4-4.5,10-6.7,16.6-6.7c6.8,0,12.4,2.2,16.6,6.7
				C575.3,167.8,577.5,173.4,577.5,180.2z M567.4,180.1c0-6.1-1.2-11.1-3.5-14.7c-2.3-3.7-5.6-5.5-9.7-5.5c-4.1,0-7.2,1.9-9.6,5.5
				c-2.3,3.7-3.5,8.6-3.5,14.6c0,6,1.1,10.9,3.5,14.5c2.3,3.5,5.6,5.3,9.7,5.3c4.1,0,7.4-1.8,9.7-5.3
				C566.3,191.1,567.4,186.2,567.4,180.1z"/>
			<path class="st17" d="M630.9,162.3c0,1.9-0.4,2.9-1.4,2.9l-6.7-0.3c0.8,2,1.1,4.1,1.1,6.1c0,5-1.8,9.3-5.5,12.7s-8.2,5-13.5,5h-2
				c-2.7,0-4.9,0.4-6.6,1.1c-1.6,0.7-2.5,1.6-2.5,2.6c0,1.2,0.7,2.2,2,3c1.4,0.8,3.3,1.2,5.7,1.2l12.1,0.1c5.2,0.1,9.3,1.2,12.1,3.3
				c2.9,2,4.4,5,4.4,8.9c0,5.7-3,10.6-9.1,14.9c-6.1,4.2-13.4,6.4-21.7,6.4c-5.5,0-10.1-1.4-13.9-4.1c-3.8-2.7-5.6-6-5.6-9.8
				c0-2.6,1.2-5.2,3.5-7.6c2.3-2.5,5.2-4.2,8.5-5.5c-2.2-1-4-2.3-5.3-4.2c-1.4-1.8-2-3.7-2-5.5c0-1.2,1.2-2.6,3.8-4.1
				c2.6-1.5,5.2-2.5,7.9-2.9c-3-1.5-5.3-3.4-7-5.9s-2.5-5.2-2.5-8.2c0-4.9,1.9-9.1,5.6-12.7c3.7-3.7,8.1-5.5,13.2-5.5
				c2.7,0,5.3,0.4,8.1,1.4c2.6,1,4.8,2.2,6.6,3.8l9.4-0.3C630.5,159.5,630.9,160.4,630.9,162.3z M623.8,213c0-2.5-0.8-4.1-2.3-5.2
				c-1.6-1.1-4.2-1.6-7.9-1.6l-12.1-0.3c-2.5,0-4.5-0.4-6.4-1.1c-4.2,2.3-6.4,5.5-6.4,9.3c0,3.4,1.5,6.3,4.4,8.5
				c2.9,2.2,6.6,3.3,11.1,3.3c5.3,0,10-1.2,13.9-3.7C621.7,219.5,623.8,216.5,623.8,213z M614.2,170.9c0-4.5-0.7-7.8-2-10
				c-1.4-2-3.5-3.1-6.6-3.1c-5.7,0-8.6,4.9-8.6,14.7c0,4.5,0.7,7.6,2,9.7c1.4,2,3.5,3,6.7,3C611.4,185.4,614.2,180.6,614.2,170.9z"
				/>
			<path class="st17" d="M658.2,182.8c0,0.5-0.4,1-1.2,1h-17.7c-0.1,1.2-0.1,2.5-0.1,3.7c0,3.5,0.8,6.1,2.5,8.1
				c1.6,1.9,4,2.9,7.1,2.9c1.5,0,3-0.4,4.6-1.2c1.5-0.8,2.9-1.9,3.7-3.1h0.1c0.1,0,0.4,0.1,0.5,0.4c0.1,0.3,0.3,0.5,0.3,0.8
				c0,0.4-0.7,1.4-2,2.9s-2.9,2.6-4.5,3.3c-1.6,0.7-3.3,1.1-5,1.1c-3.8,0-7.1-1.5-9.8-4.4c-2.6-2.9-4-6.4-4-10.6
				c0-4.2,1.4-7.9,4-10.8c2.6-3,5.9-4.5,9.8-4.5c3.3,0,6.1,1.1,8.5,3.3C657.1,177.6,658.2,180.2,658.2,182.8z M652.3,179.9
				c0-1.6-0.5-3-1.6-4.1s-2.6-1.6-4.2-1.6c-1.6,0-3.1,0.7-4.4,2c-1.2,1.4-2,3.3-2.5,5.6l9-0.3c1.4,0,2.3-0.1,2.9-0.4
				C651.9,181,652.3,180.6,652.3,179.9z"/>
			<path class="st17" d="M695.6,200.5c0,0.5-0.1,1-0.5,1c-0.8,0-1.9,0-3.1-0.1c-1.4-0.1-2.6-0.1-3.7-0.1s-2.3,0-3.7,0.1
				c-1.2,0.1-2.3,0.1-3.1,0.1c-0.4,0-0.5-0.3-0.5-1c0-0.5,0.1-0.8,0.5-0.8c1.5-0.1,2.5-0.5,2.9-1.2c0.4-0.7,0.7-2,0.7-4.2v-10.9
				c0-2.5-0.4-4.2-1.4-5.3c-1-1.1-2.5-1.6-4.4-1.6c-1.2,0-2.3,0.3-3.3,0.7c-1,0.5-2,1.4-3.1,2.6v14.7c0,2.2,0.3,3.5,0.7,4.2
				c0.4,0.7,1.5,1.1,2.9,1.2c0.4,0,0.5,0.3,0.5,0.8c0,0.5-0.1,1-0.5,1c-0.8,0-1.9,0-3.3-0.1s-2.6-0.1-3.7-0.1s-2.2,0-3.7,0.1
				c-1.2,0.1-2.3,0.1-3.3,0.1c-0.4,0-0.5-0.3-0.5-1c0-0.5,0.1-0.8,0.5-0.8c1.9-0.3,3-0.7,3.5-1.4c0.5-0.7,0.8-2,0.8-4.1v-12
				c0-1.8-0.3-2.9-0.7-3.4c-0.4-0.5-1.4-1-3-1.1c-0.4,0-0.5-0.3-0.5-0.8c0-0.5,0.1-0.8,0.5-0.8c2.2-0.5,4-1.1,5.3-1.9
				c1.4-0.7,2.3-1.2,2.7-1.6c0.3-0.3,0.4-0.4,0.7-0.4c0.5,0,1,0.1,1,0.5l-0.3,4.1c3.1-2.9,6-4.4,8.6-4.4c2.9,0,5.2,0.8,6.8,2.6
				c1.6,1.6,2.5,4,2.5,6.8v12.4c0,2.2,0.3,3.5,0.8,4.2c0.5,0.7,1.8,1.1,3.5,1.4C695.4,199.6,695.6,200,695.6,200.5z"/>
		</g>
		<g>
			<path class="st18" d="M419.8,171.1c-6.1,5.9-13.1,8.6-21,8.2c-7.9-0.4-15-3.8-21.2-10.4c-6.3-6.6-9.3-13.8-9.3-21.7
				s3.1-14.7,9.3-20.6c6.1-5.9,13.4-8.7,21.4-8.5c8.1,0.3,15.3,3.7,21.4,10.1c6.3,6.6,9.3,13.8,9,21.8
				C429.2,158.1,426.1,165.1,419.8,171.1z M410.8,161.2c5.6-5.3,9.1-10.8,10.4-16.2c1.2-5.5,0-10.1-3.7-14.1
				c-3.7-3.8-8.3-5.3-13.9-4.4c-5.6,1-11.1,4.1-16.8,9.4c-5.6,5.3-9,10.6-10.1,16c-1.2,5.3,0.1,10,3.8,13.9c3.8,4,8.3,5.5,13.6,4.6
				C399.6,169.8,405,166.7,410.8,161.2z"/>
			<path class="st18" d="M394.7,106.7c0,1.6-0.5,3.1-1.8,4.4c-1.2,1.2-2.7,1.9-4.4,1.9c-1.8,0-3.1-0.7-4.4-1.9
				c-1.2-1.2-1.8-2.7-1.8-4.4c0-1.8,0.5-3.3,1.8-4.5c1.2-1.2,2.7-1.8,4.5-1.8c1.8,0,3.1,0.5,4.4,1.8
				C394,103.4,394.7,104.9,394.7,106.7z"/>
			<path class="st18" d="M385.7,248.2c-2.3-1.6-4.2-3.7-5.7-6c-3.5-5.6-4.4-11.7-2.5-18.3c1.9-6.6,6-11.7,12.3-15.7l2.5-1.5
				c3.3-2,5.6-4.1,7-6.1c1.4-2,1.8-3.7,1.1-4.8c-0.8-1.4-2.3-2-4.5-1.9c-2.2,0.1-4.6,1.1-7.6,2.9l-14.3,8.9
				c-6.3,3.8-11.7,5.6-16.6,5.5s-8.7-2.3-11.3-6.6c-4.1-6.4-4-14.2,0.3-23.5s11.3-17.2,21.2-23.5c6.6-4.1,13-6.1,19.2-5.9
				c6.4,0.1,10.9,2.5,13.6,6.7c1.8,2.9,2.2,6.6,1.1,11.2c-1.1,4.5-3.1,8.7-6.1,12.4c3.3-0.5,6.3-0.3,9.1,0.7c2.9,1,4.9,2.5,6.3,4.5
				c1,1.4,0.4,3.8-1.6,7.4c-2,3.5-4.5,6.6-7.4,9.1c4.6-0.5,8.7-0.1,12.4,1.4c3.7,1.5,6.7,4,8.7,7.2c3.4,5.5,4.2,11.5,2.5,18.3
				c-1.8,6.8-5.7,12.1-11.7,16c-3.1,2-6.7,3.5-10.5,4.4c-3.8,1-7.2,1.1-10.4,0.5L385.7,248.2z M350.7,195.2c1.8,2.7,3.8,4.1,6.6,4
				c2.6,0,6.1-1.4,10.6-4.1l14.5-8.7c2.9-1.8,5.6-3,8.3-3.5c3.4-5.9,3.7-10.8,1-15.1c-2.5-3.8-6.1-5.9-11.1-6.1
				c-4.9-0.3-10.1,1.4-15.3,4.6c-6.3,4-10.9,8.9-13.9,14.6C348.4,186.5,348.1,191.3,350.7,195.2z M391.5,235.1
				c3.1,5,6.3,8.2,9.4,9.6s6.4,0.8,10-1.4c6.8-4.4,6.7-12-0.3-22.9c-3.1-4.9-6.3-8.1-9.3-9.3c-3-1.2-6.3-0.7-10,1.6
				C384.7,216.8,384.7,224.3,391.5,235.1z"/>
		</g>
	</g>
</g>
</svg>
