<?xml version="1.0" encoding="UTF-8"?>
<svg id="Capa_1" xmlns="http://www.w3.org/2000/svg" xmlns:xlink="http://www.w3.org/1999/xlink" version="1.1" viewBox="0 0 488 488">
  <!-- Generator: Adobe Illustrator 29.3.1, SVG Export Plug-In . SVG Version: 2.1.0 Build 151)  -->
  <defs>
    <style>
      .st0 {
        isolation: isolate;
      }

      .st1 {
        fill: #9664d9;
      }

      .st2 {
        fill: #fff;
      }
    </style>
  </defs>
  <path class="st1" d="M479.7,218.7c-6.4-110.4-97.9-198-209.8-198S60.4,114.1,59.7,229.7H7.5v1c0,130.6,105.9,236.5,236.5,236.5s236.5-105.9,236.5-236.5-.3-8.2-.8-12Z"/>
  <circle class="st2" cx="350.7" cy="384.7" r="31.7"/>
  <path class="st1" d="M357,367v32.4h-7.4v-25.1l-7,4.3-3.3-5,10.9-6.6h6.8Z"/>
  <g class="st0">
    <g class="st0">
      <path class="st2" d="M135.9,374h-2.3l-1.2-13.1c-.5-5.1-.9-9.1-1-11.9l-6.9,21.8h-2.3l-7.1-21.8c-.1,2.6-.4,6-.8,10.3v1.6c-.1,0-1.3,13.2-1.3,13.2h-2.3l2.6-27.4h3.3l6.8,21.3,6.6-21.3h3.4l2.6,27.4Z"/>
      <path class="st2" d="M157.6,374h-2v-3.7c-1.8,2.8-4.1,4.2-7,4.2s-3.4-.6-4.4-1.7c-1-1.1-1.5-2.7-1.5-4.7v-15h2.3v14.7c0,1.6.3,2.8,1,3.6.7.8,1.7,1.1,3.1,1.1,2.4,0,4.5-1.4,6.1-4.3v-15.2h2.3v20.9Z"/>
      <path class="st2" d="M180.8,364.4h-14c.1,2.7.8,4.7,1.9,6.1s2.7,2,4.6,2,2.1-.2,2.9-.5c.8-.3,1.8-.9,2.7-1.6l1.1,1.5c-1,.9-2.1,1.5-3.2,1.9-1.1.4-2.3.6-3.6.6-2.8,0-4.9-.9-6.5-2.8-1.6-1.9-2.4-4.5-2.4-7.9s.3-4.2,1-5.8c.7-1.7,1.7-3,2.9-3.9,1.3-.9,2.7-1.4,4.4-1.4,2.7,0,4.7.9,6.1,2.7,1.4,1.8,2.1,4.3,2.1,7.4s0,1.1,0,1.7ZM178.6,362c0-2.3-.5-4.2-1.5-5.5-1-1.3-2.4-2-4.3-2s-3.1.7-4.2,2c-1.1,1.3-1.7,3.4-1.8,6.1h11.8v-.6Z"/>
      <path class="st2" d="M196.2,353.2c1.1.4,2.1,1,3.1,1.7l-1.1,1.5c-1-.7-1.9-1.2-2.7-1.5-.9-.3-1.8-.5-2.8-.5s-2.5.3-3.4,1c-.9.6-1.3,1.5-1.3,2.6s.4,1.8,1.1,2.4c.7.6,2.1,1.1,4,1.6,2.4.6,4.1,1.4,5.1,2.3,1.1.9,1.6,2.3,1.6,4s-.7,3.3-2.2,4.4c-1.4,1.1-3.2,1.6-5.4,1.6s-3-.2-4.2-.7c-1.2-.5-2.3-1.1-3.3-2l1.3-1.5c.9.7,1.9,1.3,2.9,1.7,1,.4,2.1.5,3.3.5s2.8-.4,3.7-1.1c.9-.7,1.4-1.7,1.4-2.9s-.2-1.5-.5-2.1c-.3-.5-.9-1-1.6-1.4-.8-.4-1.9-.8-3.4-1.2-2.2-.6-3.8-1.3-4.8-2.2-1-.9-1.5-2.1-1.5-3.5s.3-2,.9-2.8c.6-.8,1.4-1.5,2.5-2,1.1-.5,2.2-.7,3.5-.7s2.5.2,3.6.6Z"/>
      <path class="st2" d="M215.6,373.1c-1.3.9-2.8,1.3-4.4,1.3s-2.9-.5-3.8-1.4c-.9-.9-1.4-2.3-1.4-4.1v-14h-3.5v-1.9h3.5v-5l2.3-.3v5.3h5.4l-.3,1.9h-5.1v13.8c0,1.2.3,2.1.8,2.7.5.6,1.3.9,2.3.9s2.1-.3,3.2-.9l.9,1.6Z"/>
      <path class="st2" d="M229.9,352.8l-.4,2.2c-.6-.2-1.2-.2-1.8-.2-1.4,0-2.6.5-3.4,1.5-.9,1-1.6,2.6-2.2,4.8v12.8h-2.3v-20.9h2l.2,4.7c.6-1.7,1.3-3,2.3-3.9,1-.8,2.2-1.3,3.6-1.3s1.5,0,2.1.2Z"/>
      <path class="st2" d="M246.6,371.7c.3.5.7.8,1.3,1.1l-.5,1.6c-1-.2-1.7-.5-2.2-1.1-.5-.5-.9-1.3-1-2.4-1.4,2.3-3.6,3.5-6.5,3.5s-3.6-.6-4.7-1.7-1.7-2.6-1.7-4.5.8-3.8,2.3-5c1.5-1.2,3.7-1.8,6.4-1.8h4v-2c0-1.7-.4-2.9-1.1-3.7s-2-1.1-3.7-1.1-3.5.4-5.7,1.2l-.6-1.8c2.3-.9,4.5-1.4,6.6-1.4,4.6,0,6.8,2.2,6.8,6.6v10.1c0,1.1.1,1.9.4,2.4ZM243.9,368.8v-5.8h-3.6c-2.1,0-3.8.4-4.9,1.2s-1.7,2.1-1.7,3.7.4,2.5,1.2,3.3,1.9,1.2,3.2,1.2c2.5,0,4.4-1.2,5.8-3.7Z"/>
      <path class="st2" d="M280.7,344.5v29.4h-2l-.3-3.2c-1.4,2.4-3.5,3.6-6.3,3.6s-4.3-1-5.7-2.9c-1.4-1.9-2.1-4.6-2.1-7.9s.3-4.1,1-5.7c.7-1.7,1.6-2.9,2.8-3.9,1.2-.9,2.7-1.4,4.4-1.4s4.3.9,5.9,2.8v-11.2l2.3.3ZM275.9,371.5c.9-.6,1.8-1.6,2.5-2.9v-10.9c-1.5-2.1-3.3-3.2-5.5-3.2s-3.4.8-4.5,2.4c-1.1,1.6-1.6,3.8-1.6,6.7,0,2.9.5,5.1,1.5,6.6,1,1.5,2.4,2.3,4.2,2.3s2.5-.3,3.4-1Z"/>
      <path class="st2" d="M304,364.4h-14c.1,2.7.8,4.7,1.9,6.1s2.7,2,4.6,2,2.1-.2,2.9-.5c.8-.3,1.8-.9,2.7-1.6l1.1,1.5c-1,.9-2.1,1.5-3.2,1.9-1.1.4-2.3.6-3.6.6-2.8,0-4.9-.9-6.5-2.8-1.6-1.9-2.4-4.5-2.4-7.9s.3-4.2,1-5.8c.7-1.7,1.7-3,2.9-3.9,1.3-.9,2.7-1.4,4.4-1.4,2.7,0,4.7.9,6.1,2.7s2.1,4.3,2.1,7.4,0,1.1,0,1.7ZM301.8,362c0-2.3-.5-4.2-1.5-5.5-1-1.3-2.4-2-4.3-2s-3.1.7-4.2,2c-1.1,1.3-1.7,3.4-1.8,6.1h11.8v-.6Z"/>
      <path class="st2" d="M311.4,373.4c-.7-.7-1-1.7-1-3v-25.9l2.3-.3v26.1c0,1.4.6,2,1.7,2s1,0,1.4-.3l.6,1.7c-.7.4-1.5.6-2.4.6s-2-.3-2.7-1Z"/>
    </g>
    <g class="st0">
      <path class="st2" d="M151.8,403.4c1.3,1.9,1.9,4.5,1.9,8s-.7,6-2.1,8c-1.4,2-3.3,3-5.9,3s-2.4-.3-3.4-.8c-1-.5-1.9-1.2-2.6-2.1v10.3l-2.3.3v-29.1h2l.2,3c.8-1.1,1.7-1.9,2.8-2.6,1.1-.6,2.3-.9,3.6-.9,2.5,0,4.4.9,5.7,2.8ZM149.7,418.2c1-1.5,1.5-3.8,1.5-6.8,0-5.9-1.9-8.9-5.6-8.9s-2.3.3-3.3,1c-.9.6-1.8,1.5-2.6,2.6v11.1c1.4,2.1,3.2,3.2,5.5,3.2s3.4-.8,4.4-2.3Z"/>
      <path class="st2" d="M173.7,419.7c.3.5.7.8,1.3,1.1l-.5,1.6c-1-.2-1.7-.5-2.2-1.1-.5-.5-.9-1.3-1-2.4-1.4,2.3-3.6,3.5-6.5,3.5s-3.6-.6-4.7-1.7-1.7-2.6-1.7-4.5.8-3.8,2.3-5c1.5-1.2,3.7-1.8,6.4-1.8h4v-2c0-1.7-.4-2.9-1.1-3.7s-2-1.1-3.7-1.1-3.5.4-5.7,1.2l-.6-1.8c2.3-.9,4.5-1.4,6.6-1.4,4.6,0,6.8,2.2,6.8,6.6v10.1c0,1.1.1,1.9.4,2.4ZM171,416.8v-5.8h-3.6c-2.1,0-3.8.4-4.9,1.2s-1.7,2.1-1.7,3.7.4,2.5,1.2,3.3,1.9,1.2,3.2,1.2c2.5,0,4.4-1.2,5.8-3.7Z"/>
      <path class="st2" d="M192.1,401.1c.9.3,1.8.9,2.7,1.6l-1.2,1.5c-.7-.6-1.4-1-2.1-1.2-.7-.3-1.6-.4-2.5-.4-2,0-3.5.8-4.7,2.3s-1.8,3.8-1.8,6.7.6,5.1,1.7,6.6c1.2,1.5,2.7,2.2,4.7,2.2s1.8-.1,2.5-.4c.8-.3,1.5-.7,2.3-1.3l1.1,1.6c-1.8,1.5-3.8,2.2-6,2.2s-3.3-.4-4.7-1.3c-1.3-.9-2.4-2.1-3.1-3.7-.7-1.6-1.1-3.5-1.1-5.8s.4-4.2,1.1-5.8c.7-1.7,1.8-3,3.1-3.9,1.3-.9,2.9-1.4,4.6-1.4s2.3.2,3.2.5Z"/>
      <path class="st2" d="M202.9,392.3c.3.3.5.7.5,1.2s-.2.9-.5,1.2c-.3.3-.7.5-1.3.5s-.9-.2-1.2-.5c-.3-.3-.5-.7-.5-1.2s.2-.9.5-1.2c.3-.3.7-.5,1.2-.5s1,.2,1.3.5ZM202.8,401v20.9h-2.3v-20.9h2.3Z"/>
      <path class="st2" d="M226.1,412.4h-14c.1,2.7.8,4.7,1.9,6.1s2.7,2,4.6,2,2.1-.2,2.9-.5c.8-.3,1.8-.9,2.7-1.6l1.1,1.5c-1,.9-2.1,1.5-3.2,1.9-1.1.4-2.3.6-3.6.6-2.8,0-4.9-.9-6.5-2.8-1.6-1.9-2.4-4.5-2.4-7.9s.3-4.2,1-5.8c.7-1.7,1.7-3,2.9-3.9,1.3-.9,2.7-1.4,4.4-1.4,2.7,0,4.7.9,6.1,2.7,1.4,1.8,2.1,4.3,2.1,7.4s0,1.1,0,1.7ZM223.9,410c0-2.3-.5-4.2-1.5-5.5-1-1.3-2.4-2-4.3-2s-3.1.7-4.2,2c-1.1,1.3-1.7,3.4-1.8,6.1h11.8v-.6Z"/>
      <path class="st2" d="M246.3,402.3c1,1.1,1.5,2.7,1.5,4.7v15h-2.3v-14.6c0-1.7-.3-2.9-1-3.7-.7-.8-1.7-1.2-3-1.2s-2.5.4-3.5,1.1c-1,.7-2,1.8-2.9,3.2v15.2h-2.3v-20.9h2l.2,3.6c.9-1.3,1.9-2.2,3-2.9,1.2-.7,2.5-1.1,4-1.1s3.3.6,4.3,1.7Z"/>
      <path class="st2" d="M265.6,421.1c-1.3.9-2.8,1.3-4.4,1.3s-2.9-.5-3.8-1.4c-.9-.9-1.4-2.3-1.4-4.1v-14h-3.5v-1.9h3.5v-5l2.3-.3v5.3h5.4l-.3,1.9h-5.1v13.8c0,1.2.3,2.1.8,2.7s1.3.9,2.3.9,2.1-.3,3.2-.9l.9,1.6Z"/>
      <path class="st2" d="M284,412.4h-14c.1,2.7.8,4.7,1.9,6.1s2.7,2,4.6,2,2.1-.2,2.9-.5c.8-.3,1.8-.9,2.7-1.6l1.1,1.5c-1,.9-2.1,1.5-3.2,1.9-1.1.4-2.3.6-3.6.6-2.8,0-4.9-.9-6.5-2.8-1.6-1.9-2.4-4.5-2.4-7.9s.3-4.2,1-5.8c.7-1.7,1.7-3,2.9-3.9,1.3-.9,2.7-1.4,4.4-1.4,2.7,0,4.7.9,6.1,2.7,1.4,1.8,2.1,4.3,2.1,7.4s0,1.1,0,1.7ZM281.8,410c0-2.3-.5-4.2-1.5-5.5-1-1.3-2.4-2-4.3-2s-3.1.7-4.2,2c-1.1,1.3-1.7,3.4-1.8,6.1h11.8v-.6Z"/>
    </g>
  </g>
</svg>