<?xml version="1.0" encoding="UTF-8"?>
<svg id="Capa_1" xmlns="http://www.w3.org/2000/svg" xmlns:xlink="http://www.w3.org/1999/xlink" version="1.1" viewBox="0 0 425 425">
  <!-- Generator: Adobe Illustrator 29.3.1, SVG Export Plug-In . SVG Version: 2.1.0 Build 151)  -->
  <defs>
    <style>
      .st0 {
        isolation: isolate;
      }

      .st1 {
        fill: #9664d9;
      }
    </style>
  </defs>
  <path class="st1" d="M302,308.5c-15.4,0-27.9,12.5-27.9,27.9s12.5,27.9,27.9,27.9,27.9-12.5,27.9-27.9-12.5-27.9-27.9-27.9ZM307.5,349.3h-6.5v-22.1l-6.2,3.8-2.9-4.4,9.6-5.8h6v28.5Z"/>
  <g>
    <ellipse class="st1" cx="212.5" cy="112.1" rx="26.1" ry="25.7"/>
    <path class="st1" d="M244.3,205c6.1-6.4,9.8-14.9,9.8-24.3,0-19.5-16.1-35.4-35.9-35.5h-11.5c-19.8.1-35.9,15.9-35.9,35.5s4.2,19.1,11,25.5l1.3,62.2c0,5.5,4.6,10.1,10.1,10.1h9.7c5.5,0,10.1-4.6,10.1-10.1,0,5.5,4.6,10.1,10.1,10.1h9.7c5.5,0,10.1-4.6,10.1-10.1l1.4-63.4h0Z"/>
  </g>
  <g class="st0">
    <g class="st0">
      <path class="st1" d="M118.7,325.7h-1.9l-1-10.5c-.4-4.1-.7-7.3-.8-9.5l-5.5,17.4h-1.8l-5.7-17.4c-.1,2.1-.3,4.8-.6,8.2v1.2c0,0-1.1,10.6-1.1,10.6h-1.8l2.1-21.9h2.7l5.4,17.1,5.2-17.1h2.7l2.1,21.9Z"/>
      <path class="st1" d="M136.1,325.7h-1.6v-3c-1.4,2.2-3.2,3.3-5.6,3.3s-2.7-.4-3.5-1.3c-.8-.9-1.2-2.1-1.2-3.8v-12h1.9v11.8c0,1.3.3,2.3.8,2.9.5.6,1.4.9,2.5.9,1.9,0,3.6-1.1,4.9-3.4v-12.1h1.9v16.7Z"/>
      <path class="st1" d="M154.7,318.1h-11.2c.1,2.2.6,3.8,1.6,4.8.9,1.1,2.1,1.6,3.7,1.6s1.6-.1,2.3-.4c.7-.3,1.4-.7,2.2-1.3l.9,1.2c-.8.7-1.7,1.2-2.6,1.5-.9.3-1.8.5-2.9.5-2.2,0-4-.8-5.2-2.3-1.3-1.5-1.9-3.6-1.9-6.3s.3-3.3.8-4.7c.5-1.3,1.3-2.4,2.3-3.1,1-.7,2.2-1.1,3.5-1.1,2.1,0,3.8.7,4.9,2.2,1.1,1.4,1.7,3.4,1.7,5.9s0,.9,0,1.3ZM152.9,316.1c0-1.9-.4-3.3-1.2-4.4-.8-1.1-1.9-1.6-3.5-1.6s-2.5.5-3.4,1.6c-.9,1.1-1.3,2.7-1.4,4.9h9.4v-.5Z"/>
      <path class="st1" d="M167,309.1c.9.3,1.7.8,2.5,1.4l-.9,1.2c-.8-.5-1.5-.9-2.2-1.2-.7-.2-1.4-.4-2.2-.4s-2,.3-2.7.8-1,1.2-1,2,.3,1.4.9,1.9c.6.4,1.6.9,3.2,1.3,1.9.5,3.3,1.1,4.1,1.9.8.7,1.3,1.8,1.3,3.2s-.6,2.7-1.7,3.6c-1.2.9-2.6,1.3-4.3,1.3s-2.4-.2-3.4-.6-1.8-.9-2.6-1.6l1-1.2c.7.6,1.5,1,2.3,1.3.8.3,1.7.4,2.6.4s2.2-.3,3-.8c.8-.6,1.1-1.3,1.1-2.4s-.1-1.2-.4-1.7c-.3-.4-.7-.8-1.3-1.1s-1.5-.6-2.7-.9c-1.8-.5-3-1.1-3.8-1.8s-1.2-1.6-1.2-2.8.2-1.6.7-2.3,1.2-1.2,2-1.6c.8-.4,1.8-.6,2.8-.6s2,.2,2.8.5Z"/>
      <path class="st1" d="M182.5,325c-1.1.7-2.2,1.1-3.5,1.1s-2.3-.4-3-1.1c-.7-.8-1.1-1.9-1.1-3.3v-11.2h-2.8v-1.5h2.8v-4l1.9-.2v4.2h4.3l-.2,1.5h-4.1v11.1c0,1,.2,1.7.6,2.2.4.5,1,.7,1.9.7s1.7-.2,2.6-.7l.7,1.3Z"/>
      <path class="st1" d="M193.9,308.8l-.4,1.8c-.5-.1-1-.2-1.5-.2-1.1,0-2,.4-2.7,1.2-.7.8-1.3,2.1-1.7,3.9v10.2h-1.9v-16.7h1.6l.2,3.7c.4-1.4,1.1-2.4,1.8-3.1.8-.7,1.7-1,2.9-1s1.2,0,1.7.2Z"/>
      <path class="st1" d="M207.3,323.9c.2.4.6.7,1.1.9l-.4,1.3c-.8-.1-1.4-.4-1.8-.9s-.7-1.1-.8-2c-1.2,1.9-2.9,2.8-5.2,2.8s-2.9-.5-3.8-1.4c-.9-.9-1.4-2.1-1.4-3.6s.6-3.1,1.8-4c1.2-.9,2.9-1.4,5.1-1.4h3.2v-1.6c0-1.3-.3-2.3-.9-2.9-.6-.6-1.6-.9-3-.9s-2.8.3-4.5,1l-.5-1.4c1.9-.7,3.6-1.1,5.3-1.1,3.6,0,5.5,1.8,5.5,5.3v8.1c0,.9.1,1.5.3,1.9ZM205.1,321.6v-4.6h-2.9c-1.7,0-3,.3-3.9,1s-1.3,1.7-1.3,3,.3,2,.9,2.7c.6.6,1.5.9,2.6.9,2,0,3.6-1,4.6-2.9Z"/>
      <path class="st1" d="M234.6,302.1v23.6h-1.6l-.2-2.6c-1.2,1.9-2.8,2.9-5,2.9s-3.5-.8-4.6-2.3-1.7-3.7-1.7-6.3.3-3.3.8-4.6c.5-1.3,1.3-2.4,2.3-3.1s2.2-1.1,3.5-1.1,3.5.8,4.7,2.3v-9l1.9.2ZM230.7,323.7c.7-.5,1.4-1.3,2-2.3v-8.7c-1.2-1.7-2.7-2.5-4.4-2.5s-2.7.6-3.6,1.9c-.9,1.3-1.3,3-1.3,5.3,0,2.3.4,4.1,1.2,5.3.8,1.2,1.9,1.8,3.4,1.8s2-.3,2.7-.8Z"/>
      <path class="st1" d="M253.2,318.1h-11.2c.1,2.2.6,3.8,1.6,4.8.9,1.1,2.1,1.6,3.7,1.6s1.6-.1,2.3-.4c.7-.3,1.4-.7,2.2-1.3l.9,1.2c-.8.7-1.7,1.2-2.6,1.5s-1.8.5-2.9.5c-2.2,0-4-.8-5.2-2.3s-1.9-3.6-1.9-6.3.3-3.3.8-4.7c.5-1.3,1.3-2.4,2.3-3.1,1-.7,2.2-1.1,3.5-1.1,2.1,0,3.8.7,4.9,2.2,1.1,1.4,1.7,3.4,1.7,5.9s0,.9,0,1.3ZM251.4,316.1c0-1.9-.4-3.3-1.2-4.4-.8-1.1-1.9-1.6-3.5-1.6s-2.5.5-3.4,1.6c-.9,1.1-1.3,2.7-1.4,4.9h9.4v-.5Z"/>
      <path class="st1" d="M259.2,325.3c-.5-.5-.8-1.3-.8-2.4v-20.7l1.9-.2v20.9c0,1.1.4,1.6,1.3,1.6s.8,0,1.2-.2l.5,1.4c-.6.3-1.2.4-1.9.4s-1.6-.3-2.2-.8Z"/>
    </g>
    <g class="st0">
      <path class="st1" d="M134.1,349.3c1,1.5,1.5,3.6,1.5,6.4s-.5,4.8-1.6,6.4c-1.1,1.6-2.7,2.4-4.7,2.4s-1.9-.2-2.7-.6c-.8-.4-1.5-1-2-1.7v8.3l-1.9.3v-23.3h1.6l.2,2.4c.6-.9,1.4-1.6,2.3-2,.9-.5,1.9-.7,2.9-.7,2,0,3.5.8,4.6,2.3ZM132.4,361.1c.8-1.2,1.2-3,1.2-5.4,0-4.7-1.5-7.1-4.4-7.1s-1.9.3-2.6.8c-.7.5-1.4,1.2-2.1,2.1v8.9c1.1,1.7,2.6,2.6,4.4,2.6s2.7-.6,3.5-1.8Z"/>
      <path class="st1" d="M151.6,362.3c.2.4.6.7,1.1.9l-.4,1.3c-.8-.1-1.4-.4-1.8-.9s-.7-1.1-.8-2c-1.2,1.9-2.9,2.8-5.2,2.8s-2.9-.5-3.8-1.4c-.9-.9-1.4-2.1-1.4-3.6s.6-3.1,1.8-4c1.2-.9,2.9-1.4,5.1-1.4h3.2v-1.6c0-1.3-.3-2.3-.9-2.9-.6-.6-1.6-.9-3-.9s-2.8.3-4.5,1l-.5-1.4c1.9-.7,3.6-1.1,5.3-1.1,3.6,0,5.5,1.8,5.5,5.3v8.1c0,.9.1,1.5.3,1.9ZM149.4,360v-4.6h-2.9c-1.7,0-3,.3-3.9,1s-1.3,1.7-1.3,3,.3,2,.9,2.7c.6.6,1.5.9,2.6.9,2,0,3.6-1,4.6-2.9Z"/>
      <path class="st1" d="M166.3,347.4c.7.3,1.5.7,2.2,1.3l-.9,1.2c-.6-.4-1.1-.8-1.7-1-.6-.2-1.3-.3-2-.3-1.6,0-2.8.6-3.8,1.8-.9,1.2-1.4,3-1.4,5.4s.5,4.1,1.4,5.2c.9,1.2,2.2,1.8,3.8,1.8s1.4-.1,2-.4c.6-.2,1.2-.6,1.8-1.1l.9,1.2c-1.4,1.2-3,1.8-4.8,1.8s-2.7-.3-3.7-1c-1.1-.7-1.9-1.7-2.5-3-.6-1.3-.9-2.8-.9-4.6s.3-3.3.9-4.7c.6-1.3,1.4-2.4,2.5-3.1,1.1-.7,2.3-1.1,3.7-1.1s1.8.1,2.6.4Z"/>
      <path class="st1" d="M174.9,340.4c.3.3.4.6.4,1s-.1.7-.4,1-.6.4-1,.4-.7-.1-1-.4-.4-.6-.4-1,.1-.7.4-1,.6-.4,1-.4.8.1,1,.4ZM174.9,347.4v16.7h-1.9v-16.7h1.9Z"/>
      <path class="st1" d="M193.5,356.5h-11.2c.1,2.2.6,3.8,1.6,4.8.9,1.1,2.1,1.6,3.7,1.6s1.6-.1,2.3-.4c.7-.3,1.4-.7,2.2-1.3l.9,1.2c-.8.7-1.7,1.2-2.6,1.5-.9.3-1.8.5-2.9.5-2.2,0-4-.8-5.2-2.3-1.3-1.5-1.9-3.6-1.9-6.3s.3-3.3.8-4.7c.5-1.3,1.3-2.4,2.3-3.1,1-.7,2.2-1.1,3.5-1.1,2.1,0,3.8.7,4.9,2.2,1.1,1.4,1.7,3.4,1.7,5.9s0,.9,0,1.3ZM191.7,354.5c0-1.9-.4-3.3-1.2-4.4-.8-1.1-1.9-1.6-3.5-1.6s-2.5.5-3.4,1.6c-.9,1.1-1.3,2.7-1.4,4.9h9.4v-.5Z"/>
      <path class="st1" d="M209.7,348.4c.8.9,1.2,2.2,1.2,3.8v12h-1.9v-11.7c0-1.3-.3-2.3-.8-2.9-.5-.6-1.3-.9-2.4-.9s-2,.3-2.8.9c-.8.6-1.6,1.4-2.4,2.6v12.1h-1.9v-16.7h1.6l.2,2.8c.7-1,1.5-1.8,2.4-2.4.9-.6,2-.8,3.2-.8s2.7.4,3.5,1.3Z"/>
      <path class="st1" d="M225.1,363.4c-1.1.7-2.2,1.1-3.5,1.1s-2.3-.4-3-1.1c-.7-.8-1.1-1.9-1.1-3.3v-11.2h-2.8v-1.5h2.8v-4l1.9-.2v4.2h4.3l-.2,1.5h-4.1v11.1c0,1,.2,1.7.6,2.2.4.5,1,.7,1.9.7s1.7-.2,2.6-.7l.7,1.3Z"/>
      <path class="st1" d="M239.8,356.5h-11.2c.1,2.2.6,3.8,1.6,4.8.9,1.1,2.1,1.6,3.7,1.6s1.6-.1,2.3-.4c.7-.3,1.4-.7,2.2-1.3l.9,1.2c-.8.7-1.7,1.2-2.6,1.5-.9.3-1.8.5-2.9.5-2.2,0-4-.8-5.2-2.3-1.3-1.5-1.9-3.6-1.9-6.3s.3-3.3.8-4.7,1.3-2.4,2.3-3.1c1-.7,2.2-1.1,3.5-1.1,2.1,0,3.8.7,4.9,2.2,1.1,1.4,1.7,3.4,1.7,5.9s0,.9,0,1.3ZM238.1,354.5c0-1.9-.4-3.3-1.2-4.4-.8-1.1-1.9-1.6-3.5-1.6s-2.5.5-3.4,1.6c-.9,1.1-1.3,2.7-1.4,4.9h9.4v-.5Z"/>
    </g>
  </g>
</svg>