<?xml version="1.0" encoding="utf-8"?>
<!-- Generator: Adobe Illustrator 24.1.0, SVG Export Plug-In . SVG Version: 6.00 Build 0)  -->
<svg version="1.1" id="Capa_1" xmlns="http://www.w3.org/2000/svg" xmlns:xlink="http://www.w3.org/1999/xlink" x="0px" y="0px"
	 viewBox="0 0 425 425" style="enable-background:new 0 0 425 425;" xml:space="preserve">
<style type="text/css">
	.st0{opacity:0.4;fill:#F2F4F2;enable-background:new    ;}
	.st1{fill:#FFFFFF;}
	.st2{fill:#E0EADF;}
	.st3{fill:#CC6633;}
	.st4{fill:#FA7F43;}
</style>
<g>
	<path id="path1727-1-9-4_2_" class="st0" d="M116.6,96.5V198l117.8,78.6l119.2-64.8l0.4-108.8"/>
	<path id="path1934-1_2_" class="st0" d="M236.2,138l-1.9,138.6L353.2,213l0.7-110L236.2,138z"/>
	<path id="path1721-7_2_" class="st1" d="M116.6,96.5C137.8,93,227,73.8,227,73.8L354,102.6l-117.8,36.3L116.6,96.5z"/>
	<path class="st2" d="M354,102.7l-117.7,36.2V162c1.1-0.8,2.1-2.1,3-2.7c1.2-0.8,2.3-0.7,3.1,0.2c0.8,0.8,1.3,2.3,2.4,2
		c1.1-0.4,2.9-2.6,4.7-3c1.9-0.3,3.9,1.4,6.1,0.3c2.2-1.1,4.9-4.8,7.9-6.6c3.1-1.8,6.5-1.6,8.9-2.4c2.4-0.7,3.8-2.4,5.7-2.9
		c1.9-0.4,4.4,0.3,6.5-0.7s3.7-3.7,6-5.8c2.3-2.1,5.5-3.6,8.1-3.6c2.6,0,4.7,1.5,6.6,0.8c1.9-0.7,3.5-3.5,5.4-4.3
		c1.9-0.7,4.1,0.6,6.5-1.2c2.2-1.8,4.7-6.7,6.9-7.8c2.2-1.1,4.5,1.8,6.7,2c2.1,0.2,4.1-2.4,5.6-2.4c1.4,0,2.5,2.6,4.1,2.3
		c1.5-0.3,3.7-3.2,5.5-3.8c1.8-0.5,3.2,1.2,4.4,1.6c1.2,0.5,2.1-0.4,2.6-4c0.1-0.7,0.7-1.6,1.6-2.6v-14.7H354z"/>
	<path class="st0" d="M236.3,138.9L236.3,138.9L116.8,96.6v11c0.6,0.4,1.1,0.8,1.3,1.1c1.1,2,3,0.7,4.9,2.2c1.9,1.5,3.7,5.7,6.4,6.6
		c2.6,0.8,6.2-1.7,8.8-1.4c2.7,0.3,4.5,3.4,7.2,3.9c2.7,0.5,6.1-1.8,8.7-1.3c2.6,0.5,4.3,3.6,5.9,6.5c1.6,2.9,3.1,5.4,5.4,5.4
		c2.3,0,5.4-2.5,7.7-1.3c2.2,1.3,3.6,6.4,5,8.4c1.4,2,2.9,0.7,4.5,1.3c1.5,0.6,3.2,3,5.3,3.2c2.2,0.2,4.9-1.7,7.7-0.8
		c2.9,0.9,6,5,8.8,6.8c2.8,1.8,5.3,1.5,8.1,2.4c2.8,0.9,5.9,3,8.5,2.7c2.6-0.3,4.7-3,6.3-2c1.6,1.1,2.7,5.8,4.1,8.6
		c1.3,2.7,2.8,3.3,4.1,2.7c0.3-0.1,0.5-0.3,0.8-0.5V138.9z"/>
	
		<ellipse id="path1744-2-2-5_2_" transform="matrix(0.9826 -0.1856 0.1856 0.9826 -33.3405 36.5141)" class="st0" cx="178.4" cy="196.3" rx="22.7" ry="25.2"/>
	<path id="path1752-4_2_" class="st3" d="M272.2,53.4c-9.2,4.9-40.2,21.6-60,44.3s-28.4,51.3-35.1,67.5s-11.8,20.1-14.2,24.5
		c-2.4,4.4-2.3,9.4,0.1,13.7c2.3,4.2,6.9,7.8,11.6,8.9c4.6,1.1,9.3-0.3,12.9-3.2c3.6-2.9,6.3-7.3,6.4-12c0.2-4.7-2.2-9.7-3.1-16.2
		c-0.9-6.6-0.3-14.6,3.6-27.4c3.9-12.8,11-30.4,21.8-46.4c10.8-15.9,25.3-30.2,39-40.9C268.7,55.5,281.4,48.6,272.2,53.4z"/>
	<path class="st4" d="M171.4,98.9c0.7-1.2,1.4-2.2,2.2-3.4c7.9-11.6,18.4-22,28.4-29.8c9.9-7.7,19.3-12.9,12.5-9.3
		c-6.7,3.6-29.3,15.8-43.7,32.3c-2,2.2-3.4,3.9-5.4,6C161.3,99.2,168.2,104.4,171.4,98.9z"/>
	<path class="st4" d="M270.2,118.3c0.7-1.2,1.4-2.2,2.2-3.4c7.9-11.6,18.5-22.1,28.4-29.8s19.3-12.9,12.5-9.3
		c-6.7,3.6-29.3,15.8-43.7,32.3c-2,2.2-3.4,3.9-5.4,6C260.1,118.7,266.9,123.9,270.2,118.3z"/>
</g>
</svg>
