<?xml version="1.0" encoding="utf-8"?>
<!-- Generator: Adobe Illustrator 24.1.0, SVG Export Plug-In . SVG Version: 6.00 Build 0)  -->
<svg version="1.1" id="Capa_1" xmlns="http://www.w3.org/2000/svg" xmlns:xlink="http://www.w3.org/1999/xlink" x="0px" y="0px"
	 viewBox="0 0 701.4 413.7" style="enable-background:new 0 0 701.4 413.7;" xml:space="preserve">
<style type="text/css">
	.st0{fill:#FFCC33;}
	.st1{fill:#EFF4EF;}
	.st2{fill:#483737;}
	.st3{fill:#373A47;}
	.st4{fill:#5C5F68;}
	.st5{fill:#ECF2EB;}
	.st6{fill:none;stroke:#373A47;stroke-miterlimit:10;}
	.st7{fill:#032836;}
	.st8{fill:#F4DDCE;}
	.st9{fill:#E8C0A6;}
	.st10{fill:#F9F5F4;}
</style>
<g id="g1119-1_8_" transform="matrix(1.0608564,0,0,1.0716716,-83.467849,116.01381)">
	<ellipse id="path901-5_8_" class="st0" cx="424.4" cy="56.1" rx="52.3" ry="50.9"/>
	<g id="g949-9_8_" transform="translate(26.906414,18.994667)">
		<rect id="rect903-7-7_8_" x="389.4" y="95.5" class="st0" width="16.3" height="33.2"/>
		<rect id="rect903-7-6-7_8_" x="389.4" y="-54.4" class="st0" width="16.3" height="33.2"/>
	</g>
	<g id="g949-4-3-6_8_" transform="matrix(-0.66755944,0.74455652,0.74455652,0.66755944,314.75668,-109.52896)">
		<polygon id="rect903-7-3-0-56_8_" class="st0" points="42,250.6 58.3,250.6 58.3,283.7 42,283.7 		"/>
		<polygon id="rect903-7-6-0-9-3_8_" class="st0" points="42,100.7 58.3,100.7 58.3,133.9 42,133.9 		"/>
	</g>
	<g id="g949-4-3-0-9_8_" transform="matrix(-0.74455652,-0.66755944,-0.66755944,0.74455652,350.40021,142.78048)">
		<polygon id="rect903-7-3-0-5-4_8_" class="st0" points="-5.4,-55.6 10.9,-55.6 10.9,-22.4 -5.4,-22.4 		"/>
		<polygon id="rect903-7-6-0-9-9-8_8_" class="st0" points="-5.4,-205.4 10.9,-205.4 10.9,-172.3 -5.4,-172.3 		"/>
	</g>
	<rect id="rect903-7-6-7_1_" x="334.1" y="47.2" class="st0" width="32.9" height="16.5"/>
	<rect id="rect903-7-6-7_2_" x="483" y="47.2" class="st0" width="32.9" height="16.5"/>
</g>
<g id="g1654-0_5_" transform="translate(230.73165,105.09168)">
	<g id="g982-3-9_5_" transform="translate(153.38468,-47.595464)">
		<rect id="rect890-1_5_" x="269.3" y="128.3" class="st0" width="43.7" height="27.8"/>
		<rect id="rect890-7-7_5_" x="167.4" y="128.3" class="st1" width="100.6" height="27.8"/>
		<rect id="rect890-7-6-7_5_" x="143.8" y="128.3" class="st2" width="25.2" height="27.8"/>
		<path id="rect890-7-6-4-1_5_" class="st3" d="M144.4,128.5h15.4c3.8,0,6.8,3,6.8,6.8v13.6c0,3.8-3,6.8-6.8,6.8h-15.4
			c-3.8,0-6.8-3-6.8-6.8v-13.6C137.6,131.6,140.7,128.5,144.4,128.5z"/>
		<path id="path973-1_5_" class="st4" d="M155.2,110.4c0.4-2.9,1.3-8.8,4.5-14.2c3.3-5.3,9-10,12.4-15.4s4.4-11.8,2.3-18.2
			c-2.1-6.4-7.3-13-9.8-18c-2.5-5.1-2.1-8.9-0.4-11.2c1.7-2.3,4.7-3.1,8.6-3.1c3.9,0,8.6,0.8,7.2-1.3c-1.4-2.2-9-7.4-17.1-8.2
			s-16.7,3-20.8,8.9c-4.1,6-3.8,14.6-0.6,20.8s9.3,10.3,12.2,13.8c2.9,3.5,2.8,6.6,1.2,10.4c-1.6,3.9-4.6,8.6-6.2,13.5
			c-1.6,4.9-1.8,9.9-0.5,14.2c1.3,4.2,4,7.6,5.3,9.3C154.8,113.3,154.8,113.3,155.2,110.4L155.2,110.4z"/>
	</g>
</g>
<path class="st5" d="M19.6,118.1c-3.2,1.4-6.4,2.8-9.6,4.1c-2.1,0.9-4.2,1.8-6.7,2.9c0.7,0.3,4.4,1.8,8.8,3.5
	c-4.5,10.7-7.7,22.2-9.3,34.3C1,176.3,1.3,189.4,3.4,202c2.6-0.6,5.2-1.2,7.8-1.8c-1.9-11.7-2.1-23.9-0.5-36.3
	c1.5-11.4,4.5-22.3,8.8-32.4c4.2,1.7,7.9,3.1,8.7,3.4c-2.5-5.8-4.9-11.2-7.2-16.6C20.7,117.5,20.2,117.8,19.6,118.1z"/>
<path class="st5" d="M208.6,244.5c3.2-1.3,6.5-2.6,9.7-3.8c2.1-0.8,4.3-1.7,6.7-2.7c-0.7-0.3-4.4-1.9-8.7-3.8
	c4.8-10.6,8.4-22,10.3-34c2.2-13.3,2.3-26.5,0.6-39.1c-2.6,0.5-5.2,1.1-7.9,1.6c1.5,11.7,1.4,23.9-0.7,36.3
	c-1.9,11.4-5.2,22.1-9.8,32.1c-4.2-1.8-7.8-3.4-8.6-3.7c2.3,5.8,4.5,11.4,6.7,16.9C207.5,245,208,244.7,208.6,244.5z"/>
<polyline class="st6" points="673.5,328.3 673.5,345.3 65.4,345.3 65.4,328.3 "/>
<g>
	<path class="st7" d="M150.4,378.1l-0.6,4.4h-9.3v6.3h8.1v4.4h-8.1v6.7h9.9v4.5h-16.1v-26.3H150.4z"/>
	<path class="st7" d="M165.1,393.6l6.5,10.8h-6.8l-3.5-7.6l-3.4,7.6h-6.5l6.5-10.6l-5.9-9.6h6.7l2.8,6.5l2.7-6.5h6.4L165.1,393.6z"
		/>
	<path class="st7" d="M190.6,386.4c1.2,1.9,1.9,4.5,1.9,7.9c0,2.1-0.3,3.9-1,5.6s-1.6,2.9-2.8,3.8s-2.6,1.4-4.3,1.4
		c-2,0-3.7-0.7-4.9-2.1v9.2l-6,0.6v-28.6h5.3l0.3,2.2c0.8-1,1.7-1.7,2.7-2.2s2.1-0.7,3.1-0.7C187.5,383.6,189.4,384.5,190.6,386.4z
		 M186.3,394.3c0-2.4-0.3-4-0.8-5c-0.5-0.9-1.3-1.4-2.4-1.4c-0.7,0-1.3,0.2-1.9,0.6c-0.6,0.4-1.1,1-1.6,1.7v8.5
		c0.8,1.2,1.8,1.8,3.1,1.8C185.1,400.7,186.3,398.6,186.3,394.3z"/>
	<path class="st7" d="M212.3,386.4c1.7,1.9,2.6,4.5,2.6,7.9c0,2.2-0.4,4-1.2,5.6s-1.9,2.9-3.4,3.7c-1.5,0.9-3.2,1.3-5.3,1.3
		c-3.1,0-5.5-0.9-7.2-2.8c-1.8-1.9-2.6-4.5-2.6-7.9c0-2.2,0.4-4,1.2-5.6s1.9-2.9,3.4-3.7s3.2-1.3,5.3-1.3
		C208.1,383.6,210.5,384.5,212.3,386.4z M202.3,389.5c-0.6,1-0.9,2.6-0.9,4.8c0,2.2,0.3,3.8,0.9,4.8c0.6,1,1.5,1.5,2.8,1.5
		c1.2,0,2.1-0.5,2.7-1.5c0.6-1,0.9-2.6,0.9-4.8c0-2.2-0.3-3.8-0.9-4.8c-0.6-1-1.5-1.5-2.8-1.5C203.8,388,202.9,388.5,202.3,389.5z"
		/>
	<path class="st7" d="M229.6,384.2c1.3,0.4,2.4,1,3.3,1.8l-2.2,3.4c-1.6-1-3.3-1.6-5-1.6c-0.8,0-1.4,0.1-1.8,0.4
		c-0.4,0.3-0.6,0.6-0.6,1.1c0,0.4,0.1,0.7,0.3,0.9c0.2,0.2,0.6,0.5,1.2,0.7c0.6,0.3,1.5,0.6,2.7,0.9c2.1,0.6,3.7,1.4,4.7,2.4
		s1.5,2.3,1.5,4c0,1.4-0.4,2.6-1.2,3.6s-1.9,1.8-3.2,2.3c-1.4,0.5-2.9,0.8-4.6,0.8c-1.7,0-3.3-0.3-4.7-0.8c-1.5-0.5-2.7-1.3-3.7-2.2
		l2.9-3.3c1.7,1.3,3.5,2,5.4,2c0.9,0,1.6-0.2,2.1-0.5s0.8-0.8,0.8-1.4c0-0.5-0.1-0.9-0.3-1.1c-0.2-0.3-0.6-0.5-1.2-0.8
		c-0.6-0.2-1.5-0.5-2.8-0.9c-2-0.6-3.5-1.4-4.5-2.4s-1.5-2.3-1.5-3.9c0-1.2,0.3-2.2,1-3.1s1.6-1.7,2.9-2.2c1.3-0.5,2.7-0.8,4.4-0.8
		C227,383.6,228.4,383.8,229.6,384.2z"/>
	<path class="st7" d="M242.3,374.6c0.7,0.6,1,1.5,1,2.5s-0.3,1.8-1,2.5c-0.7,0.6-1.5,1-2.6,1c-1,0-1.9-0.3-2.5-1
		c-0.7-0.6-1-1.5-1-2.5s0.3-1.8,1-2.5c0.7-0.6,1.5-1,2.5-1C240.8,373.6,241.7,373.9,242.3,374.6z M242.8,384.2v20.2h-6v-20.2H242.8z
		"/>
	<path class="st7" d="M260,384.2c1.1,0.4,2.2,1,3.2,1.9l-2.6,3.6c-1.3-1-2.5-1.4-3.8-1.4c-1.3,0-2.4,0.5-3,1.5c-0.7,1-1,2.6-1,4.8
		c0,2.1,0.3,3.6,1,4.5s1.7,1.3,3,1.3c0.7,0,1.3-0.1,1.9-0.3c0.6-0.2,1.2-0.6,2-1l2.6,3.7c-2,1.6-4.3,2.4-6.8,2.4
		c-2.1,0-3.8-0.4-5.3-1.3s-2.6-2.1-3.5-3.7c-0.8-1.6-1.2-3.4-1.2-5.6s0.4-4,1.2-5.7c0.8-1.6,2-2.9,3.5-3.9c1.5-0.9,3.2-1.4,5.2-1.4
		C257.7,383.6,258.9,383.8,260,384.2z"/>
	<path class="st7" d="M271.3,374.6c0.7,0.6,1,1.5,1,2.5s-0.3,1.8-1,2.5c-0.7,0.6-1.5,1-2.6,1c-1,0-1.9-0.3-2.5-1
		c-0.7-0.6-1-1.5-1-2.5s0.3-1.8,1-2.5c0.7-0.6,1.5-1,2.5-1C269.7,373.6,270.6,373.9,271.3,374.6z M271.7,384.2v20.2h-6v-20.2H271.7z
		"/>
	<path class="st7" d="M292.4,386.4c1.7,1.9,2.6,4.5,2.6,7.9c0,2.2-0.4,4-1.2,5.6c-0.8,1.6-1.9,2.9-3.4,3.7c-1.5,0.9-3.2,1.3-5.3,1.3
		c-3.1,0-5.5-0.9-7.2-2.8c-1.8-1.9-2.6-4.5-2.6-7.9c0-2.2,0.4-4,1.2-5.6c0.8-1.6,1.9-2.9,3.4-3.7s3.2-1.3,5.3-1.3
		C288.3,383.6,290.7,384.5,292.4,386.4z M287.9,372.7l2.4,4.5l-9,3.6l-1.7-3.1L287.9,372.7z M282.4,389.5c-0.6,1-0.9,2.6-0.9,4.8
		c0,2.2,0.3,3.8,0.9,4.8s1.5,1.5,2.8,1.5c1.2,0,2.1-0.5,2.7-1.5s0.9-2.6,0.9-4.8c0-2.2-0.3-3.8-0.9-4.8s-1.5-1.5-2.8-1.5
		C284,388,283.1,388.5,282.4,389.5z"/>
	<path class="st7" d="M324,400.2c0.2,0.4,0.6,0.6,1,0.8l-1.3,3.9c-1.2-0.1-2.3-0.4-3-0.8c-0.8-0.4-1.4-1.1-1.8-2.1
		c-1.3,2-3.3,3-6.1,3c-2,0-3.6-0.6-4.8-1.7c-1.2-1.2-1.8-2.7-1.8-4.6c0-2.2,0.8-3.9,2.4-5.1s4-1.7,7-1.7h2.1V391
		c0-1.2-0.3-2-0.8-2.5c-0.5-0.4-1.4-0.7-2.7-0.7c-0.7,0-1.5,0.1-2.4,0.3c-0.9,0.2-1.9,0.5-2.9,0.8l-1.4-4c1.3-0.5,2.6-0.8,3.9-1.1
		c1.3-0.3,2.6-0.4,3.7-0.4c2.9,0,5,0.6,6.3,1.8c1.3,1.2,2,3,2,5.4v7.8C323.7,399.3,323.8,399.9,324,400.2z M317.8,398.8v-3.6h-1.5
		c-1.4,0-2.4,0.2-3.1,0.7s-1,1.2-1,2.2c0,0.8,0.2,1.4,0.6,1.9c0.4,0.4,1,0.7,1.7,0.7C316,400.8,317,400.1,317.8,398.8z"/>
	<path class="st7" d="M329.4,403.6c-1-1-1.5-2.4-1.5-4.3v-23.1l6-0.6v23.5c0,0.8,0.3,1.3,1,1.3c0.4,0,0.7-0.1,1-0.2l1.2,4.3
		c-1.1,0.5-2.3,0.7-3.6,0.7C331.7,405.1,330.3,404.6,329.4,403.6z"/>
	<path class="st7" d="M350.5,384.2c1.3,0.4,2.4,1,3.3,1.8l-2.2,3.4c-1.6-1-3.3-1.6-5-1.6c-0.8,0-1.4,0.1-1.8,0.4s-0.6,0.6-0.6,1.1
		c0,0.4,0.1,0.7,0.3,0.9c0.2,0.2,0.6,0.5,1.2,0.7c0.6,0.3,1.5,0.6,2.7,0.9c2.1,0.6,3.7,1.4,4.7,2.4s1.5,2.3,1.5,4
		c0,1.4-0.4,2.6-1.2,3.6c-0.8,1-1.9,1.8-3.2,2.3c-1.4,0.5-2.9,0.8-4.6,0.8s-3.3-0.3-4.7-0.8c-1.5-0.5-2.7-1.3-3.7-2.2l2.9-3.3
		c1.7,1.3,3.5,2,5.4,2c0.9,0,1.6-0.2,2.1-0.5s0.8-0.8,0.8-1.4c0-0.5-0.1-0.9-0.3-1.1c-0.2-0.3-0.6-0.5-1.2-0.8
		c-0.6-0.2-1.5-0.5-2.8-0.9c-2-0.6-3.5-1.4-4.5-2.4s-1.5-2.3-1.5-3.9c0-1.2,0.3-2.2,1-3.1s1.6-1.7,2.9-2.2s2.7-0.8,4.4-0.8
		C347.9,383.6,349.3,383.8,350.5,384.2z"/>
	<path class="st7" d="M374.1,380.6c-0.4,0.4-0.6,1.1-0.6,2.1v1.6h4.8l-0.6,4.2h-4.1v16h-6v-16h-3v-4.2h3v-1.8c0-2,0.7-3.7,2-5
		s3.2-1.9,5.7-1.9c2,0,3.8,0.4,5.5,1.3l-1.6,3.9c-1-0.5-2.1-0.8-3.2-0.8C375.1,380,374.5,380.2,374.1,380.6z"/>
	<path class="st7" d="M395.7,400.2c0.2,0.4,0.6,0.6,1,0.8l-1.3,3.9c-1.2-0.1-2.3-0.4-3-0.8c-0.8-0.4-1.4-1.1-1.8-2.1
		c-1.3,2-3.3,3-6.1,3c-2,0-3.6-0.6-4.8-1.7c-1.2-1.2-1.8-2.7-1.8-4.6c0-2.2,0.8-3.9,2.4-5.1s4-1.7,7-1.7h2.1V391
		c0-1.2-0.3-2-0.8-2.5c-0.5-0.4-1.4-0.7-2.7-0.7c-0.7,0-1.5,0.1-2.4,0.3c-0.9,0.2-1.9,0.5-2.9,0.8l-1.4-4c1.3-0.5,2.6-0.8,3.9-1.1
		c1.3-0.3,2.6-0.4,3.7-0.4c2.9,0,5,0.6,6.3,1.8c1.3,1.2,2,3,2,5.4v7.8C395.4,399.3,395.5,399.9,395.7,400.2z M389.5,398.8v-3.6H388
		c-1.4,0-2.4,0.2-3.1,0.7s-1,1.2-1,2.2c0,0.8,0.2,1.4,0.6,1.9c0.4,0.4,1,0.7,1.7,0.7C387.7,400.8,388.7,400.1,389.5,398.8z"/>
	<path class="st7" d="M412.7,384.2c1.1,0.4,2.2,1,3.2,1.9l-2.6,3.6c-1.3-1-2.5-1.4-3.8-1.4s-2.4,0.5-3,1.5c-0.7,1-1,2.6-1,4.8
		c0,2.1,0.3,3.6,1,4.5s1.7,1.3,3,1.3c0.7,0,1.3-0.1,1.9-0.3c0.6-0.2,1.2-0.6,2-1l2.6,3.7c-2,1.6-4.3,2.4-6.8,2.4
		c-2.1,0-3.8-0.4-5.3-1.3s-2.6-2.1-3.5-3.7s-1.2-3.4-1.2-5.6s0.4-4,1.2-5.7c0.8-1.6,2-2.9,3.5-3.9s3.2-1.4,5.2-1.4
		C410.3,383.6,411.6,383.8,412.7,384.2z"/>
	<path class="st7" d="M431,403.5c-0.7,0.5-1.6,0.9-2.6,1.2c-1,0.3-1.9,0.4-2.9,0.4c-4.4,0-6.6-2.5-6.6-7.3v-9.3h-2.8v-4.2h2.8v-4.4
		l6-0.7v5.1h4.6l-0.6,4.2h-4v9.3c0,0.9,0.2,1.6,0.5,2s0.8,0.6,1.4,0.6c0.7,0,1.4-0.2,2.2-0.6L431,403.5z"/>
	<path class="st7" d="M448.4,386.4c1.7,1.9,2.6,4.5,2.6,7.9c0,2.2-0.4,4-1.2,5.6s-1.9,2.9-3.4,3.7c-1.5,0.9-3.2,1.3-5.3,1.3
		c-3.1,0-5.5-0.9-7.2-2.8c-1.8-1.9-2.6-4.5-2.6-7.9c0-2.2,0.4-4,1.2-5.6c0.8-1.6,1.9-2.9,3.4-3.7s3.2-1.3,5.3-1.3
		C444.2,383.6,446.6,384.5,448.4,386.4z M438.4,389.5c-0.6,1-0.9,2.6-0.9,4.8c0,2.2,0.3,3.8,0.9,4.8s1.5,1.5,2.8,1.5
		c1.2,0,2.1-0.5,2.7-1.5s0.9-2.6,0.9-4.8c0-2.2-0.3-3.8-0.9-4.8s-1.5-1.5-2.8-1.5C439.9,388,439,388.5,438.4,389.5z"/>
	<path class="st7" d="M467.5,383.9l-1,5.8c-0.8-0.2-1.4-0.3-1.8-0.3c-1.2,0-2.1,0.4-2.7,1.2c-0.6,0.8-1.1,2.1-1.5,3.7v10h-6v-20.2
		h5.2l0.5,3.9c0.5-1.4,1.1-2.5,2.1-3.3s2-1.2,3.1-1.2C466.2,383.7,466.9,383.8,467.5,383.9z"/>
	<path class="st7" d="M480.5,384.2c1.3,0.4,2.4,1,3.3,1.8l-2.2,3.4c-1.6-1-3.3-1.6-5-1.6c-0.8,0-1.4,0.1-1.8,0.4s-0.6,0.6-0.6,1.1
		c0,0.4,0.1,0.7,0.3,0.9c0.2,0.2,0.6,0.5,1.2,0.7c0.6,0.3,1.5,0.6,2.7,0.9c2.1,0.6,3.7,1.4,4.7,2.4s1.5,2.3,1.5,4
		c0,1.4-0.4,2.6-1.2,3.6c-0.8,1-1.9,1.8-3.2,2.3c-1.4,0.5-2.9,0.8-4.6,0.8s-3.3-0.3-4.7-0.8c-1.5-0.5-2.7-1.3-3.7-2.2l2.9-3.3
		c1.7,1.3,3.5,2,5.4,2c0.9,0,1.6-0.2,2.1-0.5s0.8-0.8,0.8-1.4c0-0.5-0.1-0.9-0.3-1.1c-0.2-0.3-0.6-0.5-1.2-0.8
		c-0.6-0.2-1.5-0.5-2.8-0.9c-2-0.6-3.5-1.4-4.5-2.4s-1.5-2.3-1.5-3.9c0-1.2,0.3-2.2,1-3.1s1.6-1.7,2.9-2.2s2.7-0.8,4.4-0.8
		C477.9,383.6,479.2,383.8,480.5,384.2z"/>
	<path class="st7" d="M514.8,376.2v28.2h-5.3l-0.3-2.4c-1.4,2-3.3,3-5.7,3c-2.5,0-4.4-1-5.7-2.9c-1.3-1.9-2-4.6-2-7.9
		c0-2.1,0.3-3.9,1-5.5s1.7-2.9,2.9-3.8s2.7-1.4,4.3-1.4c1.9,0,3.5,0.6,4.8,1.9v-9.9L514.8,376.2z M508.8,398.4v-8.7
		c-0.5-0.6-1-1-1.5-1.3s-1.1-0.4-1.7-0.4c-1.1,0-2,0.5-2.7,1.6c-0.7,1-1,2.6-1,4.8c0,2.4,0.3,4,0.9,4.9s1.4,1.4,2.5,1.4
		C506.7,400.7,507.8,399.9,508.8,398.4z"/>
	<path class="st7" d="M537,396.1h-12.5c0.2,1.7,0.7,2.9,1.4,3.6c0.8,0.7,1.8,1,3.2,1c0.8,0,1.6-0.1,2.4-0.4c0.8-0.3,1.6-0.7,2.5-1.3
		l2.5,3.3c-2.4,1.9-5,2.8-7.9,2.8c-3.3,0-5.8-1-7.5-2.9s-2.6-4.5-2.6-7.8c0-2.1,0.4-3.9,1.1-5.5c0.7-1.6,1.8-2.9,3.2-3.9
		c1.4-0.9,3.1-1.4,5.1-1.4c2.9,0,5.2,0.9,6.8,2.7c1.6,1.8,2.5,4.4,2.5,7.6C537.1,394.8,537,395.5,537,396.1z M531.2,392.2
		c-0.1-3.1-1.1-4.6-3.3-4.6c-1,0-1.8,0.4-2.4,1.1c-0.6,0.8-0.9,2-1,3.8h6.7V392.2z"/>
	<path class="st7" d="M562.4,383.9l-1,5.8c-0.8-0.2-1.4-0.3-1.8-0.3c-1.2,0-2.1,0.4-2.7,1.2c-0.6,0.8-1.1,2.1-1.5,3.7v10h-6v-20.2
		h5.2l0.5,3.9c0.5-1.4,1.1-2.5,2.1-3.3s2-1.2,3.1-1.2C561.1,383.7,561.8,383.8,562.4,383.9z"/>
	<path class="st7" d="M570.2,374.6c0.7,0.6,1,1.5,1,2.5s-0.3,1.8-1,2.5c-0.7,0.6-1.5,1-2.6,1c-1,0-1.9-0.3-2.5-1
		c-0.7-0.6-1-1.5-1-2.5s0.3-1.8,1-2.5c0.7-0.6,1.5-1,2.5-1C568.7,373.6,569.6,373.9,570.2,374.6z M570.7,384.2v20.2h-6v-20.2H570.7z
		"/>
	<path class="st7" d="M586.6,384.2c1.3,0.4,2.4,1,3.3,1.8l-2.2,3.4c-1.6-1-3.3-1.6-5-1.6c-0.8,0-1.4,0.1-1.8,0.4
		c-0.4,0.3-0.6,0.6-0.6,1.1c0,0.4,0.1,0.7,0.3,0.9c0.2,0.2,0.6,0.5,1.2,0.7c0.6,0.3,1.5,0.6,2.7,0.9c2.1,0.6,3.7,1.4,4.7,2.4
		s1.5,2.3,1.5,4c0,1.4-0.4,2.6-1.2,3.6s-1.9,1.8-3.2,2.3c-1.4,0.5-2.9,0.8-4.6,0.8c-1.7,0-3.3-0.3-4.7-0.8c-1.5-0.5-2.7-1.3-3.7-2.2
		l2.9-3.3c1.7,1.3,3.5,2,5.4,2c0.9,0,1.6-0.2,2.1-0.5s0.8-0.8,0.8-1.4c0-0.5-0.1-0.9-0.3-1.1c-0.2-0.3-0.6-0.5-1.2-0.8
		c-0.6-0.2-1.5-0.5-2.8-0.9c-2-0.6-3.5-1.4-4.5-2.4s-1.5-2.3-1.5-3.9c0-1.2,0.3-2.2,1-3.1s1.6-1.7,2.9-2.2s2.7-0.8,4.4-0.8
		C584,383.6,585.3,383.8,586.6,384.2z"/>
	<path class="st7" d="M606.3,384.2c1.1,0.4,2.2,1,3.2,1.9l-2.6,3.6c-1.3-1-2.5-1.4-3.8-1.4s-2.4,0.5-3,1.5c-0.7,1-1,2.6-1,4.8
		c0,2.1,0.3,3.6,1,4.5s1.7,1.3,3,1.3c0.7,0,1.3-0.1,1.9-0.3c0.6-0.2,1.2-0.6,2-1l2.6,3.7c-2,1.6-4.3,2.4-6.8,2.4
		c-2.1,0-3.8-0.4-5.3-1.3s-2.6-2.1-3.5-3.7s-1.2-3.4-1.2-5.6s0.4-4,1.2-5.7c0.8-1.6,2-2.9,3.5-3.9s3.2-1.4,5.2-1.4
		C603.9,383.6,605.2,383.8,606.3,384.2z"/>
</g>
<g>
	<path class="st8" d="M83.7,125.1c-1.7,1.1-2.4,0.8-4.4-0.4l0,0c-0.5-0.3-1-0.6-1.5-1v23.7h5.9L83.7,125.1L83.7,125.1z"/>
	<path id="path945-6_14_" class="st0" d="M79.2,124.7c-2-1.2-5.3-3.3-5.4-7.1c-0.1-3.8,3.2-9.4,4.9-12.4c1.7-2.9,1.8-3.2,3.6-0.5
		c1.8,2.7,5.2,8.3,5.4,12.6c0.3,4.2-2.5,6.7-4.3,7.8C81.9,126.2,81.2,125.9,79.2,124.7L79.2,124.7z"/>
	<path class="st8" d="M101.7,117.5c-1.7,1.1-2.4,0.8-4.4-0.4l0,0c-0.5-0.3-1-0.6-1.5-1v31.3h5.9L101.7,117.5L101.7,117.5z"/>
	<path id="path945-0-2_16_" class="st0" d="M97.3,117.1c-2-1.2-5.3-3.3-5.4-7.1c-0.1-3.8,3.2-9.4,4.9-12.4c1.7-2.9,1.8-3.2,3.6-0.5
		c1.8,2.7,5.2,8.3,5.4,12.6c0.3,4.2-2.5,6.7-4.3,7.8C99.9,118.6,99.2,118.3,97.3,117.1L97.3,117.1z"/>
	<path class="st8" d="M119.7,125.2c-1.7,1.1-2.4,0.8-4.4-0.4l0,0c-0.5-0.3-1-0.6-1.5-1v23.7h5.9L119.7,125.2
		C119.7,125.1,119.7,125.1,119.7,125.2z"/>
	<path id="path945-0-4-9_14_" class="st0" d="M115.3,124.7c-2-1.2-5.3-3.3-5.4-7.1c-0.1-3.8,3.2-9.4,4.9-12.4
		c1.7-2.9,1.8-3.2,3.6-0.5c1.8,2.7,5.2,8.3,5.4,12.6c0.3,4.2-2.5,6.7-4.3,7.8C117.9,126.2,117.3,125.9,115.3,124.7L115.3,124.7z"/>
	<path class="st8" d="M65.6,134.2c-1.7,1.1-2.4,0.8-4.4-0.4l0,0c-0.5-0.3-1-0.6-1.5-1v15.3c1.6-0.4,3.2-0.6,5-0.6h1L65.6,134.2
		C65.6,134.1,65.6,134.1,65.6,134.2z"/>
	<path id="path945-6-1_4_" class="st0" d="M61.2,133.7c-2-1.2-5.3-3.3-5.4-7.1c-0.1-3.8,3.2-9.4,4.9-12.4c1.7-2.9,1.8-3.2,3.6-0.5
		c1.8,2.7,5.2,8.3,5.4,12.6c0.3,4.2-2.5,6.7-4.3,7.8C63.8,135.2,63.2,134.9,61.2,133.7L61.2,133.7z"/>
	<path class="st8" d="M137.7,134c-1.7,1.1-2.4,0.8-4.4-0.4l0,0c-0.5-0.3-1-0.6-1.5-1v14.8h3.4c0.9,0,1.7,0.1,2.5,0.1L137.7,134
		C137.8,134,137.8,134,137.7,134z"/>
	<path id="path945-6-1-3_4_" class="st0" d="M133.3,133.6c-2-1.2-5.3-3.3-5.4-7.1c-0.1-3.8,3.2-9.4,4.9-12.4
		c1.7-2.9,1.8-3.2,3.6-0.5s5.2,8.3,5.4,12.6c0.3,4.2-2.5,6.7-4.3,7.8C135.8,135.1,135.3,134.8,133.3,133.6L133.3,133.6z"/>
	<path class="st9" d="M176.5,242.5c0.1-0.7,0.1-1.3,0.1-1.9v-29.3c0-9-7.3-16.3-16.3-16.3H39.5c-9,0-16.3,7.3-16.3,16.3v29.3
		c0,0.7,0.1,1.3,0.1,1.9H176.5z"/>
	<path class="st9" d="M46.1,193.9c1.8-0.2,1.8-0.2,19-0.1l0,0c17.2,0.1,51.5,0.2,69.1,0.3c17.6,0.1,18.4,0.1,21.7,0.5c0,0,0,0,0.1,0
		c0-0.2,0-0.3,0-0.5v-25.8c0-11.5-9.3-20.9-20.9-20.9H64.6c-11.5,0-20.9,9.3-20.9,20.9v25.8c0,0.1,0,0.1,0,0.2
		C44.7,194.1,45.5,194,46.1,193.9z"/>
	<path id="rect924-0_16_" class="st10" d="M15.9,242.5h168c2.4,0,4.4,2,4.4,4.4v7.6c0,2.4-2,4.4-4.4,4.4h-168c-2.4,0-4.4-2-4.4-4.4
		v-7.6C11.5,244.5,13.4,242.5,15.9,242.5z"/>
	<path id="path1040-6_16_" class="st10" d="M75.5,147.3c12.4,0.1,37.1,0.2,49.8,0.3c12.7,0.1,13.3,0.1,15.1,0.7s4.9,2,7.2,3.6
		c2.3,1.7,3.9,3.6,5,5.3s1.8,3.2,2.4,4.6c0.5,1.5,0.9,3,0.9,4.6s-0.3,3.3-1.6,3c-1.2-0.3-3.2-2.6-5.9-3.5c-2.7-0.9-6.1-0.5-8.1,0.5
		c-2,1.1-2.6,2.8-4.6,2.2s-5.2-3.2-8.2-3.5c-2.9-0.3-5.5,1.8-7.7,3.3c-2.2,1.5-4.1,2.3-6.8,1.3c-2.7-1.1-6.3-3.9-9.4-4.2
		c-3.1-0.3-5.7,2-9.2,1.8c-3.5-0.1-7.9-2.7-11.8-2.2c-4,0.5-7.5,4.1-11.6,4c-4.1-0.1-8.8-3.8-11.8-4c-3-0.3-4.4,3-6.4,4.1
		c-2,1.1-4.5,0.2-6-1.3c-1.5-1.5-2.1-3.6-1.7-5.9c0.5-2.3,2.1-5,4.2-7.2c2-2.2,4.6-4,7-5.2c2.4-1.3,4.8-1.9,5.9-2.3
		C63,147.2,63,147.2,75.5,147.3L75.5,147.3z"/>
	<path id="path1040-5-2_16_" class="st10" d="M65.2,193.8c17.2,0.1,51.5,0.2,69.1,0.3s18.4,0.1,21.7,0.5c3.4,0.5,9.2,1.4,12.8,3.1
		c3.6,1.7,4.8,4.2,5.6,6.1c0.7,1.9,1,3.2,1.4,4.7c0.4,1.5,0.9,3,0.9,4.6s-0.5,3.3-2.2,3c-1.7-0.3-4.5-2.6-8.3-3.5s-8.5-0.5-11.5,1.4
		c-3,1.9-4.2,5.3-6.9,4.8c-2.7-0.5-6.9-4.9-10.8-6c-3.9-1.1-7.5,1-11,3.2c-3.6,2.2-7.2,4.6-11,3.6s-7.7-5.4-11.8-5.4
		s-8.5,4.4-13.3,4.3c-4.9-0.1-10.3-4.9-15.3-4.9c-5-0.1-9.4,4.6-14.2,4.5c-4.8-0.1-9.8-5-14.1-5.2s-7.6,4.3-11.2,5.5
		c-3.6,1.2-7.5-0.9-9.6-2.8c-2.1-1.8-2.4-3.4-1.8-6.2c0.6-2.7,2.1-6.5,4.5-9.1s5.5-3.8,9-4.7c3.4-0.9,7.2-1.3,9-1.5
		C48,193.7,48,193.7,65.2,193.8L65.2,193.8z"/>
</g>
</svg>
