<?xml version="1.0" encoding="UTF-8"?>
<svg id="Capa_1" xmlns="http://www.w3.org/2000/svg" xmlns:xlink="http://www.w3.org/1999/xlink" version="1.1" viewBox="0 0 425 425">
  <!-- Generator: Adobe Illustrator 29.3.1, SVG Export Plug-In . SVG Version: 2.1.0 Build 151)  -->
  <defs>
    <style>
      .st0 {
        fill: #91ac41;
      }
    </style>
  </defs>
  <path class="st0" d="M212.5,298.5c-15.4,0-27.9,12.5-27.9,27.9s12.5,27.9,27.9,27.9,27.9-12.5,27.9-27.9-12.5-27.9-27.9-27.9ZM221.4,339.4h-18.6v-4.8c3.4-3.4,6-6,7.6-7.7,1.6-1.8,2.6-3.2,3.3-4.3.7-1.1,1-2.4,1-3.5s-.4-2-1-2.7c-.7-.7-1.6-1-2.6-1s-1.9.3-2.7.7c-.8.4-1.6,1.2-2.5,2.3l-4-3.2c1.1-1.6,2.6-2.7,4.2-3.6,1.7-.9,3.5-1.3,5.5-1.3s4.2.3,5.6,1c1.5.7,2.6,1.8,3.3,3,.8,1.2,1.1,2.6,1.1,4.1s-.4,3-1,4.3c-.6,1.4-1.8,3-3.3,4.8s-3.9,4-6.9,6.8h11.7l-.7,5.1Z"/>
  <g>
    <ellipse class="st0" cx="212.5" cy="112.1" rx="26.1" ry="25.7"/>
    <path class="st0" d="M244.3,205c6.1-6.4,9.8-14.9,9.8-24.3,0-19.5-16.1-35.4-35.9-35.5h-11.5c-19.8.1-35.9,15.9-35.9,35.5s4.2,19.1,11,25.5l1.3,62.2c0,5.5,4.6,10.1,10.1,10.1h9.7c5.5,0,10.1-4.6,10.1-10.1,0,5.5,4.6,10.1,10.1,10.1h9.7c5.5,0,10.1-4.6,10.1-10.1l1.4-63.4Z"/>
  </g>
  <g>
    <path class="st0" d="M85.3,315.4c1.4,1.1,2.1,2.7,2.1,4.9s-.7,4.1-2.2,5.2c-1.5,1.1-3.5,1.6-6,1.6h-3.1v8.5h-1.9v-21.9h5.2c2.6,0,4.6.5,6,1.6ZM83.8,324.4c1.1-.8,1.6-2.1,1.6-4s-.5-3.1-1.6-3.9c-1-.8-2.6-1.2-4.6-1.2h-3.2v10.2h3.1c2,0,3.5-.4,4.6-1.2Z"/>
    <path class="st0" d="M101.1,333.8c.2.4.6.7,1.1.9l-.4,1.3c-.8-.1-1.4-.4-1.8-.9s-.7-1.1-.8-2c-1.2,1.9-2.9,2.8-5.2,2.8s-2.9-.5-3.8-1.4c-.9-.9-1.4-2.1-1.4-3.6s.6-3.1,1.8-4c1.2-.9,2.9-1.4,5.1-1.4h3.2v-1.6c0-1.3-.3-2.3-.9-2.9-.6-.6-1.6-.9-3-.9s-2.8.3-4.5,1l-.5-1.4c1.9-.7,3.6-1.1,5.3-1.1,3.6,0,5.5,1.8,5.5,5.3v8.1c0,.9.1,1.5.3,1.9ZM98.9,331.6v-4.6h-2.9c-1.7,0-3,.3-3.9,1s-1.3,1.7-1.3,3,.3,2,.9,2.7c.6.6,1.5.9,2.6.9,2,0,3.6-1,4.6-2.9Z"/>
    <path class="st0" d="M115.1,335c-1.1.7-2.2,1.1-3.5,1.1s-2.3-.4-3-1.1c-.7-.8-1.1-1.9-1.1-3.3v-11.2h-2.8v-1.5h2.8v-4l1.9-.2v4.2h4.3l-.2,1.5h-4.1v11.1c0,1,.2,1.7.6,2.2.4.5,1,.7,1.9.7s1.7-.2,2.6-.7l.7,1.3Z"/>
    <path class="st0" d="M120.3,311.9c.3.3.4.6.4,1s-.1.7-.4,1-.6.4-1,.4-.7-.1-1-.4c-.3-.3-.4-.6-.4-1s.1-.7.4-1c.3-.3.6-.4,1-.4s.8.1,1,.4ZM120.3,318.9v16.7h-1.9v-16.7h1.9Z"/>
    <path class="st0" d="M138.9,328h-11.2c.1,2.2.6,3.8,1.6,4.8.9,1.1,2.1,1.6,3.7,1.6s1.6-.1,2.3-.4c.7-.3,1.4-.7,2.2-1.3l.9,1.2c-.8.7-1.7,1.2-2.6,1.5-.9.3-1.8.5-2.9.5-2.2,0-4-.8-5.2-2.3-1.3-1.5-1.9-3.6-1.9-6.3s.3-3.3.8-4.7c.5-1.3,1.3-2.4,2.3-3.1,1-.7,2.2-1.1,3.5-1.1,2.1,0,3.8.7,4.9,2.2,1.1,1.4,1.7,3.4,1.7,5.9s0,.9,0,1.3ZM137.1,326.1c0-1.9-.4-3.3-1.2-4.4-.8-1.1-1.9-1.6-3.5-1.6s-2.5.5-3.4,1.6c-.9,1.1-1.3,2.7-1.4,4.9h9.4v-.5Z"/>
    <path class="st0" d="M155.1,319.9c.8.9,1.2,2.2,1.2,3.8v12h-1.9v-11.7c0-1.3-.3-2.3-.8-2.9-.5-.6-1.3-.9-2.4-.9s-2,.3-2.8.9c-.8.6-1.6,1.4-2.4,2.6v12.1h-1.9v-16.7h1.6l.2,2.8c.7-1,1.5-1.8,2.4-2.4.9-.6,2-.8,3.2-.8s2.7.4,3.5,1.3Z"/>
    <path class="st0" d="M170.5,335c-1.1.7-2.2,1.1-3.5,1.1s-2.3-.4-3-1.1c-.7-.8-1.1-1.9-1.1-3.3v-11.2h-2.8v-1.5h2.8v-4l1.9-.2v4.2h4.3l-.2,1.5h-4.1v11.1c0,1,.2,1.7.6,2.2.4.5,1,.7,1.9.7s1.7-.2,2.6-.7l.7,1.3Z"/>
    <path class="st0" d="M261.1,319c.9.3,1.7.8,2.5,1.4l-.9,1.2c-.8-.5-1.5-.9-2.2-1.2-.7-.2-1.4-.4-2.2-.4s-2,.3-2.7.8c-.7.5-1,1.2-1,2s.3,1.4.9,1.9c.6.4,1.6.9,3.2,1.3,1.9.5,3.3,1.1,4.1,1.9.8.7,1.3,1.8,1.3,3.2s-.6,2.7-1.7,3.6-2.6,1.3-4.3,1.3-2.4-.2-3.4-.6-1.8-.9-2.6-1.6l1-1.2c.7.6,1.5,1,2.3,1.3.8.3,1.7.4,2.6.4s2.2-.3,3-.8c.8-.6,1.1-1.3,1.1-2.4s-.1-1.2-.4-1.7-.7-.8-1.3-1.1c-.6-.3-1.5-.6-2.7-.9-1.8-.5-3-1.1-3.8-1.8-.8-.7-1.2-1.6-1.2-2.8s.2-1.6.7-2.3c.5-.7,1.2-1.2,2-1.6.8-.4,1.8-.6,2.8-.6s2,.2,2.8.5Z"/>
    <path class="st0" d="M279.4,333.8c.2.4.6.7,1.1.9l-.4,1.3c-.8-.1-1.4-.4-1.8-.9s-.7-1.1-.8-2c-1.2,1.9-2.9,2.8-5.2,2.8s-2.9-.5-3.8-1.4c-.9-.9-1.4-2.1-1.4-3.6s.6-3.1,1.8-4c1.2-.9,2.9-1.4,5.1-1.4h3.2v-1.6c0-1.3-.3-2.3-.9-2.9-.6-.6-1.6-.9-3-.9s-2.8.3-4.5,1l-.5-1.4c1.9-.7,3.6-1.1,5.3-1.1,3.6,0,5.5,1.8,5.5,5.3v8.1c0,.9.1,1.5.3,1.9ZM277.2,331.6v-4.6h-2.9c-1.7,0-3,.3-3.9,1s-1.3,1.7-1.3,3,.3,2,.9,2.7c.6.6,1.5.9,2.6.9,2,0,3.6-1,4.6-2.9Z"/>
    <path class="st0" d="M305.3,319.9c.8.9,1.2,2.2,1.2,3.7v12h-1.9v-11.7c0-1.3-.2-2.3-.8-2.9-.5-.6-1.2-.9-2.1-.9s-1.8.3-2.5.9c-.7.6-1.5,1.5-2.2,2.6v12.1h-1.9v-11.7c0-1.3-.3-2.3-.8-2.9-.5-.6-1.2-.9-2.1-.9s-1.8.3-2.6.9c-.7.6-1.5,1.5-2.1,2.6v12.1h-1.9v-16.7h1.6l.2,2.8c.6-1,1.4-1.8,2.3-2.4.9-.6,1.8-.8,2.9-.8s2,.3,2.7.9c.7.6,1.2,1.4,1.5,2.4.7-1,1.4-1.9,2.3-2.4s1.9-.9,2.9-.9,2.4.5,3.2,1.4Z"/>
    <path class="st0" d="M324.6,320.8c1,1.5,1.5,3.6,1.5,6.4s-.5,4.8-1.6,6.4c-1.1,1.6-2.7,2.4-4.7,2.4s-1.9-.2-2.7-.6-1.5-1-2-1.7v8.3l-1.9.3v-23.3h1.6l.2,2.4c.6-.9,1.4-1.6,2.3-2,.9-.5,1.9-.7,2.9-.7,2,0,3.5.8,4.6,2.3ZM322.9,332.6c.8-1.2,1.2-3,1.2-5.4,0-4.7-1.5-7.1-4.4-7.1s-1.9.3-2.6.8c-.7.5-1.4,1.2-2.1,2.1v8.9c1.1,1.7,2.6,2.6,4.4,2.6s2.7-.6,3.5-1.8Z"/>
    <path class="st0" d="M332.4,335.2c-.5-.5-.8-1.3-.8-2.4v-20.7l1.9-.2v20.9c0,1.1.4,1.6,1.3,1.6s.8,0,1.2-.2l.5,1.4c-.6.3-1.2.4-1.9.4s-1.6-.3-2.2-.8Z"/>
    <path class="st0" d="M352.5,328h-11.2c.1,2.2.6,3.8,1.6,4.8.9,1.1,2.1,1.6,3.7,1.6s1.6-.1,2.3-.4c.7-.3,1.4-.7,2.2-1.3l.9,1.2c-.8.7-1.7,1.2-2.6,1.5-.9.3-1.8.5-2.9.5-2.2,0-4-.8-5.2-2.3-1.3-1.5-1.9-3.6-1.9-6.3s.3-3.3.8-4.7,1.3-2.4,2.3-3.1c1-.7,2.2-1.1,3.5-1.1,2.1,0,3.8.7,4.9,2.2,1.1,1.4,1.7,3.4,1.7,5.9s0,.9,0,1.3ZM350.7,326.1c0-1.9-.4-3.3-1.2-4.4-.8-1.1-1.9-1.6-3.5-1.6s-2.5.5-3.4,1.6c-.9,1.1-1.3,2.7-1.4,4.9h9.4v-.5Z"/>
  </g>
</svg>