<?xml version="1.0" encoding="utf-8"?>
<!-- Generator: Adobe Illustrator 24.1.0, SVG Export Plug-In . SVG Version: 6.00 Build 0)  -->
<svg version="1.1" id="Capa_1" xmlns="http://www.w3.org/2000/svg" xmlns:xlink="http://www.w3.org/1999/xlink" x="0px" y="0px"
	 viewBox="0 0 425 425" style="enable-background:new 0 0 425 425;" xml:space="preserve">
<style type="text/css">
	.st0{fill:#F2EAE7;}
	.st1{fill:#FFFFFF;}
</style>
<g>
	<g>
		<ellipse class="st0" cx="257.4" cy="122.8" rx="21.8" ry="21.4"/>
		<path class="st0" d="M283.9,200.3c5.1-5.3,8.2-12.4,8.2-20.3c0-16.5-13.7-29.8-30.5-29.6c-2.3,0-6,0-8.3,0
			c-16.8-0.2-30.5,13.1-30.5,29.6c0,8.4,3.5,15.9,9.2,21.3l1.1,51.9c0,4.6,3.8,8.4,8.4,8.4h8.1c4.6,0,8.4-3.8,8.4-8.4
			c0,4.6,3.8,8.4,8.4,8.4h8.1c4.6,0,8.4-3.8,8.4-8.4L283.9,200.3z"/>
	</g>
	<g>
		<ellipse class="st1" cx="167.6" cy="189.1" rx="21.8" ry="21.4"/>
		<path class="st1" d="M194.1,266.6c5.1-5.3,8.2-12.4,8.2-20.3c0-16.3-13.4-29.5-29.9-29.6c-2.6,0-7,0-9.6,0
			c-16.5,0.1-29.9,13.3-29.9,29.6c0,8.4,3.5,15.9,9.2,21.3l1.1,51.9c0,4.6,3.8,8.4,8.4,8.4h8.1c4.6,0,8.4-3.8,8.4-8.4
			c0,4.6,3.8,8.4,8.4,8.4h8.1c4.6,0,8.4-3.8,8.4-8.4L194.1,266.6z"/>
	</g>
</g>
</svg>
