<?xml version="1.0" encoding="utf-8"?>
<!-- Generator: Adobe Illustrator 24.1.0, SVG Export Plug-In . SVG Version: 6.00 Build 0)  -->
<svg version="1.1" id="Capa_1" xmlns="http://www.w3.org/2000/svg" xmlns:xlink="http://www.w3.org/1999/xlink" x="0px" y="0px"
	 viewBox="0 0 425 425" style="enable-background:new 0 0 425 425;" xml:space="preserve">
<style type="text/css">
	.st0{fill:#79AEB2;}
	.st1{fill:#C0D9DF;}
	.st2{opacity:0.9;fill:#032836;}
	.st3{fill:#D63F2B;}
	.st4{fill:#FFFFFF;}
	.st5{fill:#E8C0A6;}
	.st6{fill:#F4DDCE;}
	.st7{fill:#F7B82D;}
</style>
<g>
	<g>
		<g>
			<path class="st0" d="M148.4,302.7c-1.9,5.2-3.5,8.9-6.1,7.9c-2.6-1-3.1-6-1.1-11.2c1.9-5.2,5.6-8.6,8.2-7.7
				C151.9,292.7,150.3,297.5,148.4,302.7z"/>
			<path class="st0" d="M178.6,302.7c1.9,5.2,3.5,8.9,6.1,7.9c2.6-1,3.1-6,1.1-11.2c-1.9-5.2-5.6-8.6-8.2-7.7
				C175.1,292.7,176.7,297.5,178.6,302.7z"/>
		</g>
		<path class="st1" d="M264.5,286.4h-5.8c-2-15.6-13.3-27-39.2-27c-1.9,0-3.7,0-5.4,0.1c-16.2-1.2-33.2-1.8-50.6-1.8
			c-17.4,0-34.4,0.6-50.6,1.8c-1.7-0.1-3.6-0.1-5.5-0.1c-25.9,0-37.3,11.4-39.2,27h-5.8v7.3H68c0.7,18.7,7.3,40.6,30,39.4
			c23-1.2,41.9-25.4,48.9-38.3c1.9-3.4,3.7-7.5,4.5-11.7c2.1-3.3,6.7-5.6,12-5.6c5.4,0,10,2.3,12,5.6c0.7,4.2,2.6,8.3,4.5,11.7
			c7.1,13,25.9,37.1,48.9,38.3c22.7,1.2,29.3-20.7,30-39.4h5.6V286.4z M163.5,272.6c-4.6,0-8.8,1.4-12,3.6c-1.1-5.1-5-9.9-14-13
			c8.5-0.3,17.2-0.5,26.1-0.5c8.8,0,17.5,0.2,26.1,0.5c-9,3.1-12.9,7.8-14,13C172.3,274,168.1,272.6,163.5,272.6z"/>
		<path class="st2" d="M96.3,328.6c-19.7,0-23.3-22.3-23.7-35.7c-0.3-8.4,1.9-15.1,6.6-19.9c5.8-5.9,15.3-8.9,28.3-8.9
			c26.7,0,35.6,5.6,38.4,10.3c2.5,4.2,1.5,10.1-2.9,18.3c-6.5,12-24.3,34.9-45.1,35.9C97.3,328.6,96.8,328.6,96.3,328.6L96.3,328.6z
			"/>
		<path class="st2" d="M230.7,328.6c-0.5,0-1,0-1.5,0c-20.8-1.1-38.6-24-45.1-35.9c-4.4-8.1-5.4-14.1-2.9-18.3
			c2.8-4.7,11.7-10.3,38.4-10.3c13,0,22.6,3,28.3,8.9c4.6,4.8,6.8,11.5,6.6,19.9C254,306.3,250.3,328.6,230.7,328.6z"/>
	</g>
	<g>
		<path id="path3433_8_" class="st3" d="M267.4,149.3l90-29.3L387,263.6l-58,19.3L267.4,149.3z"/>
		<path id="rect3437_8_" class="st4" d="M330.8,280.3l53.2-17.5c2.5-0.8,5.1,0.5,5.9,3l9,27.3c0.8,2.5-0.5,5.1-3,5.9l-53.2,17.5
			c-2.5,0.8-5.1-0.5-5.9-3l-9-27.3C327.1,283.7,328.4,281.1,330.8,280.3z"/>
		<path id="path3439_8_" class="st5" d="M333.4,303l62.1-20.4"/>
		<path id="rect3441_8_" class="st5" d="M358,290.1l10-3.3c1.3-0.4,2.7,0.3,3.1,1.6l0,0c0.4,1.3-0.3,2.7-1.6,3.1l-10,3.3
			c-1.3,0.4-2.7-0.3-3.1-1.6l0,0C356.1,291.9,356.8,290.6,358,290.1z"/>
		
			<rect id="rect3435_8_" x="263.5" y="124.1" transform="matrix(0.95 -0.3124 0.3124 0.95 -24.9523 103.5834)" class="st4" width="94.7" height="11.1"/>
		<path id="path4256_8_" class="st4" d="M317.4,171l47.2-15.3l-4.8-23.4L310,148.5L317.4,171"/>
	</g>
	<g>
		<path class="st6" d="M301.2,190.7c0,11.1-61.6,29.3-137.7,29.3S25.8,201.9,25.8,190.7c0-11.1,61.6-20.2,137.7-20.2
			S301.2,179.6,301.2,190.7z"/>
		<path class="st7" d="M231.4,110c-0.5-4.5-31.9-8-67.9-8s-67.3,3.6-67.9,8c-0.3,2.7-9,75.2-9.4,78.8c-0.7,6.2,33.9,11.3,77.3,11.3
			c43.4,0,78-5.1,77.3-11.3C240.4,185.2,231.7,112.7,231.4,110z"/>
		<path class="st5" d="M231.4,110c-0.5-4.5-31.9-8-67.9-8s-67.3,3.6-67.9,8c-0.3,2.7-9,75.2-9.4,78.8c-0.7,6.2,33.9,11.3,77.3,11.3
			c43.4,0,78-5.1,77.3-11.3C240.4,185.2,231.7,112.7,231.4,110z"/>
		<path class="st2" d="M163.5,168.5c-41.4,0-74.4-4.7-73.7-10.3c-1.9,16.1-3.4,29.3-3.5,30.6c-0.7,6.2,33.9,11.3,77.3,11.3
			c43.4,0,78-5.1,77.3-11.3c-0.1-1.3-1.7-14.4-3.5-30.6C237.9,163.9,204.9,168.5,163.5,168.5z"/>
		<path class="st6" d="M231.4,110c0.5,4.5-30.9,8.2-67.9,8.2s-68.4-3.7-67.9-8.2c0.5-4.5,31.9-8,67.9-8S230.8,105.5,231.4,110z"/>
	</g>
</g>
</svg>
