<?xml version="1.0" encoding="UTF-8"?>
<svg id="Capa_1" xmlns="http://www.w3.org/2000/svg" xmlns:xlink="http://www.w3.org/1999/xlink" version="1.1" viewBox="0 0 701.4 413.7">
  <!-- Generator: Adobe Illustrator 29.3.1, SVG Export Plug-In . SVG Version: 2.1.0 Build 151)  -->
  <defs>
    <style>
      .st0 {
        fill: #c0d9df;
      }

      .st1 {
        fill: none;
        stroke: #373a47;
        stroke-miterlimit: 10;
      }

      .st2 {
        fill: #e8c0a6;
      }

      .st3 {
        fill: #f4ddce;
      }

      .st4 {
        fill: #e0eadf;
      }

      .st5, .st6, .st7 {
        isolation: isolate;
      }

      .st8 {
        fill: #502d16;
      }

      .st6 {
        opacity: .5;
      }

      .st6, .st9 {
        fill: #fa7f43;
      }

      .st10 {
        fill: #032836;
      }

      .st7 {
        fill: #f2f4f2;
        opacity: .4;
      }
    </style>
  </defs>
  <g>
    <path id="path1727-1-9-4" class="st2" d="M1.9,67.5v123.3l143.1,95.4,145-78.8.5-132.2"/>
    <path id="path1934-1" class="st7" d="M147.3,117.8l-2.3,168.4,144.5-77.3.9-133.7-143.1,42.6Z"/>
    <path id="path1721-7" class="st3" d="M1.9,67.5c25.7-4.3,134.1-27.7,134.1-27.7l154.4,35.1-143.1,44L1.9,67.5Z"/>
    <path class="st6" d="M290.4,75l-143,44v28c1.3-1,2.5-2.5,3.6-3.3,1.4-1,2.8-.8,3.8.2s1.6,2.8,2.9,2.4c1.4-.5,3.5-3.2,5.7-3.6,2.3-.4,4.7,1.6,7.5.4,2.8-1.3,6-5.8,9.6-8s7.9-2,10.9-2.9c2.9-.9,4.6-2.9,6.9-3.5,2.3-.5,5.4.4,7.8-.8,2.5-1.2,4.4-4.5,7.3-7,2.9-2.6,6.6-4.4,9.8-4.4s5.7,1.8,8,1,4.2-4.3,6.6-5.2c2.3-.9,5,.7,7.8-1.5s5.7-8.2,8.4-9.5c2.8-1.3,5.5,2.2,8.1,2.4,2.6.2,5-2.9,6.8-3,1.8,0,3,3.1,4.9,2.9,1.9-.3,4.4-3.9,6.7-4.6,2.2-.7,4,1.4,5.4,2,1.4.5,2.5-.5,3.2-4.9.1-.9.9-2,1.9-3.2v-17.9h-.6Z"/>
    <path class="st9" d="M147.4,119h0L2.1,67.5v13.3c.7.5,1.3.9,1.6,1.4,1.4,2.4,3.6.9,5.9,2.7,2.3,1.8,4.5,6.9,7.7,8,3.2,1,7.5-2.1,10.7-1.8,3.2.4,5.5,4.2,8.7,4.7s7.5-2.2,10.6-1.6c3.2.5,5.3,4.4,7.2,7.9,2,3.5,3.8,6.6,6.6,6.6s6.6-3.1,9.3-1.6c2.7,1.6,4.4,7.8,6.1,10.1,1.7,2.4,3.5.9,5.4,1.6s3.8,3.7,6.5,3.9c2.6.3,6-2.1,9.5-1s7.3,6,10.7,8.2c3.4,2.2,6.4,1.8,9.8,2.9,3.4,1.1,7.2,3.7,10.3,3.3,3.2-.4,5.7-3.7,7.7-2.4s3.3,7.1,4.9,10.4c1.6,3.3,3.4,4,5,3.3.3-.1.7-.4,1-.6v-27.8h.1Z"/>
    <ellipse id="path1744-2-2-5" class="st7" cx="77" cy="188.6" rx="27.5" ry="30.6" transform="translate(-33.7 17.6) rotate(-10.7)"/>
    <path id="path1752-4" class="st8" d="M191.1,15c-11.1,5.9-48.9,26.3-73,53.8-24.1,27.5-34.4,62.3-42.6,82s-14.3,24.4-17.2,29.7c-3,5.4-2.8,11.4,0,16.6,2.9,5.2,8.5,9.5,14.1,10.8s11.2-.3,15.6-3.9c4.4-3.5,7.6-8.9,7.8-14.6.2-5.7-2.7-11.8-3.8-19.7-1.1-7.9-.3-17.7,4.4-33.3,4.7-15.6,13.3-36.9,26.5-56.3,13.1-19.4,30.8-36.8,47.3-49.7s31.9-21.3,20.8-15.4Z"/>
    <path class="st8" d="M68.6,70.3c.9-1.4,1.8-2.8,2.7-4.1,9.6-14.1,22.4-26.8,34.5-36.2s23.4-15.6,15.3-11.3-35.7,19.2-53.2,39.2c-2.4,2.8-4.2,4.7-6.6,7.4-5,5.4,3.3,11.7,7.3,5Z"/>
    <path class="st8" d="M188.5,93.9c.9-1.4,1.8-2.8,2.7-4.1,9.6-14.1,22.4-26.8,34.5-36.2s23.4-15.6,15.3-11.3-35.7,19.2-53.2,39.2c-2.4,2.8-4.2,4.7-6.6,7.4-4.9,5.5,3.4,11.8,7.3,5Z"/>
  </g>
  <g>
    <path id="path882" class="st4" d="M511.6,81.5c-2.1-11.8-7.5-24.6-13.6-35.1s-13-18.8-20.5-22.8-15.4-3.7-27,3.2-26.7,20.5-39.5,37.4c-12.8,16.9-23.2,37.1-29,50.2-5.9,13-7.2,18.9-7.6,23.3-.4,4.4.1,7.3-2.8,22.4-2.9,15.1-9.3,42.2-12.9,61s-4.4,28.6-4.4,34.9.8,8.7,5.9,11.3c5.1,2.6,14.9,5.6,25.7,4.4,10.8-1.2,22.8-6.5,34.6-10.9,11.8-4.4,23.6-7.9,32.6-10.1s15.4-3.3,23.3-11.6,17.2-23.7,23.3-45.5,9.1-50.1,11-69.6c1.9-19.5,3.1-30.6.9-42.5h0Z"/>
    <path id="path882-7" class="st0" d="M511.6,81.5c-2.1-11.8-7.5-24.6-13.6-35.1s-13-18.8-20.5-22.8-15.4-3.7-27,3.2-26.7,20.5-39.5,37.4c-12.8,16.9-23.2,37.1-29,50.2-5.9,13-7.2,18.9-7.6,23.3-.4,4.4.1,7.3,8,27.4s23,57.4,36.5,74.3c13.4,16.9,25.2,13.4,34.2,11.2,9.1-2.3,15.4-3.3,23.3-11.6s17.2-23.7,23.3-45.5,9.1-50.1,11-69.6,3.1-30.5.9-42.4h0Z"/>
    <path id="path882-7-9" class="st4" d="M511.6,81.5c-2.1-11.8-7.5-24.6-13.6-35.1s-13-18.8-20.5-22.8-15.4-3.7-27,3.2-26.8,20.5-37.3,32.8-16.4,23.3-20.7,31.5-7.2,13.7-9.8,22.7-5.1,21.5,14.9,36.5c20.1,14.9,62.7,32.2,85.4,26.8,22.8-5.5,25.7-33.7,27.7-53.3s3.1-30.4.9-42.3Z"/>
    <path id="path882-8" class="st0" d="M542.5,81.6c2.1-11.8,7.5-24.6,13.6-35.1s13-18.8,20.5-22.8,15.4-3.7,27,3.2,26.8,20.5,39.5,37.4c12.8,16.9,23.2,37.1,29,50.2s7.2,18.9,7.6,23.3c.4,4.4,0,7.3,2.8,22.4,2.9,15.1,9.3,42.2,12.9,61,3.6,18.8,4.4,28.6,4.4,34.9s-.8,8.7-5.9,11.3c-5.1,2.6-14.9,5.6-25.7,4.4s-22.8-6.5-34.6-10.9-23.6-7.9-32.6-10.1c-9.1-2.3-15.4-3.3-23.3-11.6-7.9-8.3-17.2-23.7-23.3-45.5s-9.1-50.1-11-69.6-3.1-30.7-.9-42.5h0Z"/>
    <path id="path882-7-5" class="st4" d="M542.5,81.6c2.1-11.8,7.5-24.6,13.6-35.1s13-18.8,20.5-22.8,15.4-3.7,27,3.2,26.8,20.5,39.5,37.4c12.8,16.9,23.2,37.1,28.7,48.9s6.2,15,7.8,25.4,4.2,28-4.5,56.8-28.8,68.9-40,63.6-13.5-56-23.5-77.4-27.7-13.4-38.5-13.7-14.6-8.7-18.6-18.9-8-22-10.6-33.4c-2.5-11.3-3.6-22.2-1.4-34h0Z"/>
    <path class="st0" d="M580.2,85.7c-5.4.7-15,3.5-22,3.3-4.2,0-12.2-2.8-17.8-9.2h.3c-.4-.9-1.1-1.6-1.9-2-.6-.8-1.2-1.7-1.7-2.7,2.2-.3,3.9-2.1,3.9-4.4s-2-4.4-4.4-4.4h-.8v-2h.8c2.4,0,4.4-2,4.4-4.4s-2-4.4-4.4-4.4h-.8v-2h.8c2.4,0,4.4-2,4.4-4.4s-2-4.4-4.4-4.4h-.8v-2h.8c2.4,0,4.4-2,4.4-4.4s-2-4.4-4.4-4.4h-.8v-2h.8c2.4,0,4.4-2,4.4-4.4s-2-4.4-4.4-4.4h-.8v-2h.8c2.4,0,4.4-2,4.4-4.4s-2-4.4-4.4-4.4h-.8v-2h.8c2.4,0,4.4-2,4.4-4.4s-1.1-3.3-2.6-4h-19.5c-1.5.7-2.6,2.2-2.6,4s2,4.4,4.4,4.4h.8v2h-.8c-2.4,0-4.4,2-4.4,4.4s2,4.4,4.4,4.4h.8v2h-.8c-2.4,0-4.4,2-4.4,4.4s2,4.4,4.4,4.4h.8v2h-.8c-2.4,0-4.4,2-4.4,4.4s2,4.4,4.4,4.4h.8v2h-.8c-2.4,0-4.4,2-4.4,4.4s2,4.4,4.4,4.4h.8v2h-.8c-2.4,0-4.4,2-4.4,4.4s2,4.4,4.4,4.4h.8v2h-.8c-2.4,0-4.4,2-4.4,4.4s2,4.4,4.4,4.4h.8v.9c-.3.4-.6.7-.9,1.1-1.7,0-3.2,1.1-3.9,2.6h1.4c-7,6.3-17.3,10-20.8,11.3-5.1,1.8-10.3,1.6-16.6,1.7-6.2,0-13.9.5-13.6,1.4s8.2,2.4,14.7,3.7c6.5,1.3,11.6,2.4,12.9,5.6,1.3,3.1-1.1,8.3-5.1,11.6-4,3.2-9.6,4.6-16.5,6.4s-15.3,4.2-15.2,5.1c.2.8,9.2,0,14,3.1s5.7,9.6,7,13.6c1.2,4,2.7,5.3,3.3,2.2.6-3.1.2-10.5,2-15.5s5.7-7.6,7.7-8.9,19.5-18.5,22.1-20,7.9-4.4,12.8-5.1c4.9-.6,9.4,1,15.6,6.1,6.2,5.1,14.1,13.6,19.8,18.5s9,6.2,10.9,5.7c1.9-.6,2.3-3-1-8.1s-10.3-12.9-11.1-17.3c-.8-4.5,4.4-5.6,9.9-7.2,5.5-1.7,11.1-3.9,13.4-5.7,2.4-1.6,1.2-2.9-4.1-2.2Z"/>
  </g>
  <polyline class="st1" points="648.5 328.3 648.5 345.3 40.4 345.3 40.4 328.3"/>
  <g class="st5">
    <path class="st10" d="M232.7,378.2c1.3.5,2.5,1.2,3.6,2.2l-3,3.5c-.8-.6-1.6-1.1-2.3-1.4-.8-.3-1.6-.5-2.4-.5-1.8,0-3.2.7-4.2,2.2s-1.5,3.8-1.5,6.9.5,5.3,1.5,6.8c1,1.5,2.5,2.2,4.3,2.2s1.8-.2,2.6-.6c.8-.4,1.6-.9,2.5-1.6l2.8,3.6c-1,1-2.2,1.8-3.6,2.4-1.4.6-3,1-4.7,1-2.4,0-4.5-.5-6.3-1.6-1.8-1.1-3.2-2.6-4.2-4.7-1-2.1-1.5-4.6-1.5-7.5s.5-5.3,1.5-7.4,2.4-3.7,4.3-4.7c1.8-1.1,3.9-1.6,6.2-1.6s3.1.2,4.4.7Z"/>
    <path class="st10" d="M255.3,400.2c.2.4.6.6,1,.8l-1.3,3.9c-1.2-.1-2.3-.4-3-.8-.8-.4-1.4-1.1-1.8-2.1-1.3,2-3.3,3-6.1,3s-3.6-.6-4.8-1.7c-1.2-1.2-1.8-2.7-1.8-4.6s.8-3.9,2.4-5.1c1.6-1.2,4-1.7,7-1.7h2.1v-.9c0-1.2-.3-2-.8-2.5-.5-.4-1.4-.7-2.7-.7s-1.5,0-2.4.3c-.9.2-1.9.5-2.9.8l-1.4-4c1.3-.5,2.6-.8,3.9-1.1,1.3-.3,2.6-.4,3.7-.4,2.9,0,5,.6,6.3,1.8,1.3,1.2,2,3,2,5.4v7.8c0,.8.1,1.3.3,1.7ZM249.1,398.8v-3.6h-1.5c-1.4,0-2.4.2-3.1.7-.7.5-1,1.2-1,2.2s.2,1.4.6,1.9c.4.4,1,.7,1.7.7,1.4,0,2.4-.6,3.2-1.9Z"/>
    <path class="st10" d="M275.7,385.2c1,1.1,1.5,2.6,1.5,4.5v14.7h-6v-13.7c0-1-.2-1.7-.5-2.1-.3-.4-.8-.6-1.4-.6-1.2,0-2.4.9-3.5,2.6v13.8h-6v-20.2h5.2l.4,2.4c.9-1,1.8-1.8,2.8-2.3,1-.5,2.1-.8,3.4-.8s3.1.5,4.1,1.6Z"/>
    <path class="st10" d="M294.2,384.2c1.1.4,2.2,1,3.2,1.9l-2.6,3.6c-1.3-1-2.5-1.4-3.8-1.4s-2.4.5-3,1.5c-.7,1-1,2.6-1,4.8s.3,3.6,1,4.5c.7.9,1.7,1.3,3,1.3s1.3-.1,1.9-.3c.6-.2,1.2-.6,2-1l2.6,3.7c-2,1.6-4.3,2.4-6.8,2.4s-3.8-.4-5.3-1.3c-1.5-.9-2.6-2.1-3.5-3.7-.8-1.6-1.2-3.4-1.2-5.6s.4-4,1.2-5.7c.8-1.6,2-2.9,3.5-3.9,1.5-.9,3.2-1.4,5.2-1.4s2.6.2,3.8.6Z"/>
    <path class="st10" d="M316.6,396.1h-12.5c.2,1.7.7,2.9,1.4,3.6.8.7,1.8,1,3.2,1s1.6-.1,2.4-.4c.8-.3,1.6-.7,2.5-1.3l2.5,3.3c-2.4,1.9-5,2.8-7.9,2.8s-5.8-1-7.5-2.9c-1.7-1.9-2.6-4.5-2.6-7.8s.4-3.9,1.1-5.5c.7-1.6,1.8-2.9,3.2-3.9,1.4-.9,3.1-1.4,5.1-1.4,2.9,0,5.2.9,6.8,2.7,1.6,1.8,2.5,4.4,2.5,7.6s0,1.6-.1,2.2ZM310.8,392.2c0-3.1-1.1-4.6-3.3-4.6s-1.8.4-2.4,1.1c-.6.8-.9,2-1,3.8h6.7v-.3Z"/>
    <path class="st10" d="M333.1,383.9l-1,5.8c-.8-.2-1.4-.3-1.8-.3-1.2,0-2.1.4-2.7,1.2-.6.8-1.1,2.1-1.5,3.7v10h-6v-20.2h5.2l.5,3.9c.5-1.4,1.1-2.5,2.1-3.3.9-.8,2-1.2,3.1-1.2s1.4,0,2,.3Z"/>
    <path class="st10" d="M357,403.5c-.7.5-1.6.9-2.6,1.2-1,.3-1.9.4-2.9.4-4.4,0-6.6-2.5-6.6-7.3v-9.3h-2.8v-4.2h2.8v-4.4l6-.7v5.1h4.6l-.6,4.2h-4v9.3c0,.9.2,1.6.5,2,.3.4.8.6,1.4.6s1.4-.2,2.2-.6l2,3.8Z"/>
    <path class="st10" d="M370,404.5c-.8,2.6-2.1,4.6-4,6-1.8,1.4-4.3,2.2-7.4,2.4l-.6-4.2c1.9-.3,3.3-.7,4.3-1.3.9-.6,1.7-1.6,2.2-2.9h-2.1l-6.2-20.2h6.4l3.6,16.3,4-16.3h6.2l-6.4,20.2Z"/>
    <path class="st10" d="M395.6,386.4c1.2,1.9,1.9,4.5,1.9,7.9s-.3,3.9-1,5.6c-.6,1.6-1.6,2.9-2.8,3.8-1.2.9-2.6,1.4-4.3,1.4s-3.7-.7-4.9-2.1v9.2l-6,.6v-28.6h5.3l.3,2.2c.8-1,1.7-1.7,2.7-2.2,1-.5,2.1-.7,3.1-.7,2.5,0,4.4.9,5.7,2.8ZM391.2,394.3c0-2.4-.3-4-.8-5-.5-.9-1.3-1.4-2.4-1.4s-1.3.2-1.9.6c-.6.4-1.1,1-1.6,1.7v8.5c.8,1.2,1.8,1.8,3.1,1.8,2.4,0,3.6-2.1,3.6-6.3Z"/>
    <path class="st10" d="M418.7,396.1h-12.5c.2,1.7.7,2.9,1.4,3.6s1.8,1,3.2,1,1.6-.1,2.4-.4c.8-.3,1.6-.7,2.5-1.3l2.5,3.3c-2.4,1.9-5,2.8-7.9,2.8s-5.8-1-7.5-2.9c-1.7-1.9-2.6-4.5-2.6-7.8s.4-3.9,1.1-5.5c.7-1.6,1.8-2.9,3.2-3.9,1.4-.9,3.1-1.4,5.1-1.4,2.9,0,5.2.9,6.8,2.7,1.6,1.8,2.5,4.4,2.5,7.6s0,1.6-.1,2.2ZM412.9,392.2c0-3.1-1.1-4.6-3.3-4.6s-1.8.4-2.4,1.1c-.6.8-.9,2-1,3.8h6.7v-.3Z"/>
    <path class="st10" d="M433.3,384.2c1.3.4,2.4,1,3.3,1.8l-2.2,3.4c-1.6-1-3.3-1.6-5-1.6s-1.4.1-1.8.4c-.4.3-.6.6-.6,1.1s0,.7.3.9c.2.2.6.5,1.2.7.6.3,1.5.6,2.7.9,2.1.6,3.7,1.4,4.7,2.4s1.5,2.3,1.5,4-.4,2.6-1.2,3.6c-.8,1-1.9,1.8-3.2,2.3-1.4.5-2.9.8-4.6.8s-3.3-.3-4.7-.8c-1.5-.5-2.7-1.3-3.7-2.2l2.9-3.3c1.7,1.3,3.5,2,5.4,2s1.6-.2,2.1-.5c.5-.3.8-.8.8-1.4s-.1-.9-.3-1.1c-.2-.3-.6-.5-1.2-.8-.6-.2-1.5-.5-2.8-.9-2-.6-3.5-1.4-4.5-2.4-1-1-1.5-2.3-1.5-3.9s.3-2.2,1-3.1c.7-.9,1.6-1.7,2.9-2.2,1.3-.5,2.7-.8,4.4-.8s2.8.2,4.1.6Z"/>
  </g>
</svg>