<?xml version="1.0" encoding="UTF-8"?>
<svg id="Capa_1" xmlns="http://www.w3.org/2000/svg" xmlns:xlink="http://www.w3.org/1999/xlink" version="1.1" viewBox="0 0 1078.9 650">
  <!-- Generator: Adobe Illustrator 29.3.1, SVG Export Plug-In . SVG Version: 2.1.0 Build 151)  -->
  <defs>
    <style>
      .st0 {
        fill: #c0d9df;
      }

      .st1 {
        fill: #939393;
      }

      .st2 {
        fill: #679091;
      }

      .st3 {
        stroke: #c93;
      }

      .st3, .st4, .st5 {
        fill: none;
        stroke-miterlimit: 10;
      }

      .st4 {
        stroke: #005372;
      }

      .st6 {
        fill: #4d4d4d;
      }

      .st7 {
        fill: #e0eadf;
      }

      .st8 {
        isolation: isolate;
      }

      .st5 {
        stroke: #fa7f43;
      }

      .st9 {
        fill: #005372;
      }

      .st10 {
        fill: #136f8c;
      }

      .st11 {
        fill: #e55d28;
      }

      .st12 {
        fill: #dcdee0;
      }

      .st13 {
        fill: #fff;
      }

      .st14 {
        fill: #83b1b5;
      }

      .st15 {
        fill: #fa7f43;
      }

      .st16 {
        opacity: .4;
      }

      .st17 {
        fill: #cc6;
      }

      .st18 {
        fill: #c93;
      }

      .st19 {
        fill: #333;
      }

      .st20 {
        fill: #abafb2;
      }

      .st21 {
        fill: #b2af34;
      }
    </style>
  </defs>
  <g>
    <path class="st7" d="M439.2,309.1c-2.7-5.2-5.6-10.7-6.1-16.2-2.2-22.1,4.7-44-1.1-67.1-3.2-12.8,2.9-52.2,1.8-78.7-.7-17.3-7.4-32.3-27.4-35.7-10.1-1.8-17.5-4.4-25.7-10.9-6.1-4.8-8.1-17.6-4.9-24.8,4.3-9.7,12.2-18,11-29.8-.3-2.5,1-5.4-2.6-6.9-.8-.3-.5-3.3-.5-5,.4-24-19.8-37.3-41.7-27.6-9.7,4.3-13.7,12.2-14.7,22.4-.4,4,2,8.4-2.6,12.2-2.9,2.3,1.4,20,4.5,23.2,5.8,5.7,9.6,23.2,6.2,30.5-1,2.1-3,4.2-4.9,5.7-8.4,6.9-15,10.4-25.6,11.8-17.9,2.3-28.6,16.5-28.5,34.6v4.8c1.9,2.8,5.1,53.1,2.2,74.4-3,21.8,2.4,54.3-.9,68.2-1.3,5.7-2.8,5-6.3,10.3-4.4,6.7-5.5,12.5-6.2,17.5-1.1,8.3-.2,13.5,1.4,12.6,1.8-.9,2.7-10.7,4.3-11.9.6,2.1-.4,0-.5,2.1-.4,6.9-1.3,13.8-1.9,20.6-.3,2.4-.2,4.9.4,7.5,6.3-6.1,3.9-15,7-22.1.5,0,1,0,1.6.1-.1,9-.3,18-.3,27,.8,0,1.7.1,2.5.2,3.5-8.3.6-17.7,4.5-26.1.4,7.3.8,14.7,1.1,22,.7.1,1.4,0,2.1.1,4.8-7.4-.5-16.4,3.4-24.3,1.1,5.9,2.1,11.6,3.1,17.4h2.1c.2-2.5.7-5,.7-7.5.2-6.9.3-13.8.2-20.7,0-3.9.2-8.1-.9-11.9-2.8-10.9.7-21.3,1.6-31.9.8-7.4,2-14.8,3.3-22.2,1.9-10.4,1.6-20.8.6-31.4-.9-9,1.2-31,1.7-30.9.4,8.3.8,16.5,1.3,24.8,1.8,25.1-1.8,49.7-4.2,74.5-1.9,20.2-.4,40.7.1,61.1.5,18.8,2.4,37.3,6.9,55.7,1,3.9.4,8.3.4,12.5,0,17.5.3,35,0,52.4-.1,11.6-1.1,23.3-1.4,34.9-.6,21.6,2.6,42.9,7.3,63.8,2.3,10.3,1.6,20-3.5,29.6-3.7,6.7-6.2,13.9-9.2,20.9-4.7,11.2,4.2,17,13.4,17.8.8,0,1.4-.4,2.1-.3,3,0,7.4,1.8,9,.4,3.3-3.3,6.3-7.8,7.3-12.2,1.6-7.4,1.9-15.1,6.3-21.8,1-1.6.9-4.3.6-6.4-3.4-22.7-2-44.9,4.4-66.9,4.2-14.6,2.4-29.8,1-44.5-1.4-15-.8-29.6,2-44.5,2.6-14.2,2.6-29,3.5-43.5,1.3-18.9,2.3-37.8,3.4-56.7,0-1,.6-1.9,2-3,.4,1.8,1,3.5,1.1,5.3,1.5,24.2,2.6,48.4,4.4,72.5.9,11.6,3.2,23.1,4,34.5.8,10.5.8,21.1.6,31.5,0,14-1,28-.3,42,.5,8.6,3.7,17,5.4,25.6,3,15,1.9,30,.4,45.1-.4,4,1.1,8.3,2.1,12.5,1.1,5,2.4,10.2,3.9,15.1,1.1,3.9,2.3,8.1,4.2,11.6,2.4,4.4,5.7,6.2,11.3,4.2,4.5-1.6,9.6-.9,13.9-4.4,3.3-2.6,5-5.4,3.9-9.2-2-6.4-3.7-13.1-7.1-18.8-9.1-14.9-8.8-30.1-4.9-46.3,6.6-26.5,6.4-53.3,4.5-80.4-.6-9.5-.4-18.9-.5-28.4-.1-10.3-.5-20.8.1-31.1.8-10.6,2.8-21.2,3.9-31.8,1.4-12.5,2.9-25,3.3-37.6.6-21.8.8-43.7.1-65.6-.4-11.7-3.9-23.4-4.2-35.2-.4-18.5.5-37,1.1-55.5-.3-.6-.3-1.3.1-1.9,0-.2,1.1,26.1.7,40.2-.2,7.6.8,15.2,1.7,22.7,1.6,13.7,3.5,27.5,5.2,41.1.2,1.6.3,3.2.1,4.9-.8,13.4-1.5,26.7-2.2,40.1-.1,2.2.3,4.4.5,6.7.8.1,1.4.1,2.2.2,1.1-5.8,2.4-11.8,3.5-17.6,3.4,8-1.2,16.7,2.7,24.5.8.1,1.6,0,2.3.1.5-7.4,1.1-14.7,1.7-22.2h1.4c.6,8.6,1.2,17.2,1.8,25.8,1.3.2,1,.2,2.3.3,3.5-8.8-.6-18.3,2.7-27.5,1.5,7.6,3.2,15.3,4.7,22.8.8-.2,1.7-.2,2.6-.3.1-2.1.4-4.3.2-6.4-.6-7.6-1.5-15.2-1.9-22.8h0c0-1.9,2,13.3,2.4,13.7,2.5,0,5.4-15.1-2.6-30.2Z"/>
    <path class="st7" d="M18,315.4c9.8-5,11.6-13.2,12.9-22.6,2.3-17,4.7-34.2,7.7-51.1,5.9-33,13.2-65.9,18.2-99.1,2.6-17.3,15.1-29,30.5-32,5.5-1.1,11.3-3.2,16.3-6.1,6.6-3.9,11.7-9.2,12.4-18,.8-9.6-5.4-15.3-10.5-21.2-6.3-7.3-6.9-15.9-5.2-23.6,1-4.4,2-8.8,2.3-13.4.9-14,10.7-23.7,25.1-24.7,16.4-1.1,27.9,6.6,30.5,20.8.8,4.5-1.1,10.5,1.1,13.7,4.7,6.7,3,13.4.9,19.2-2.4,6.6-7.3,12.1-11.3,17.9-4.5,6.6-4.4,15.1.5,21.6,6.4,8.6,15.5,12.2,25.6,14,15.3,2.6,29,14.5,29.5,30.4.1,4,.8,8.2,1.5,12.2,5.2,27.2,10.7,54.3,15.6,81.7,3.9,21.7,7.2,43.6,10.6,65.4.9,5.7,3.7,9.3,8.4,12.6,6.9,4.8,13.1,10.7,20.2,16.6-5.4,2.5-9,0-12.5-2.8-1-.8-2.8-.6-4.2-1-.4,1.4-1.1,2.9-.8,4.2,1.8,6.2,3.9,12.2,5.9,18.4.9,2.6,1.6,5.3,2.4,7.9-.5.1-1.1.4-1.6.6-5.9-4.7-5.5-13-11.2-18.2,1.9,7.8,3.7,15.6,5.5,23.4-1,.3-2,.6-3,.9-2.4-7.3-4.7-14.7-7.1-22.2-.4.1-.9.3-1.3.4,1,6.6,1.9,13.2,2.9,19.8-1,.1-1.9.4-2.8.5-1.9-7.2-3.8-14.2-5.7-21.3-.4,0-.8.1-1.1.3v16.5c-1.3-.8-1.8-1-1.9-1.3-.4-.8-.9-1.4-.9-2.1-1.1-13.4-8.7-25.7-6.3-39.7.4-1.8-.6-3.8-1.3-5.7-2.6-7.7-5.7-15.4-8.2-23.2-4.3-13.1-10.2-26.2-12-39.7-2.4-18.7-7.3-36.3-14.4-53.6-.9-2-2-4.2-3-6.2-.6.1-1.1.3-1.8.4-1.1,13.2-2.1,26.5-3.4,39.7-1.4,15,.8,29.4,7.1,43.4,7.2,15.8,10.2,32.8,9.1,49.9-1.5,22.3-4.4,44.5-7.3,66.6-2,14.9-5.3,29.6-3.2,44.9.8,6.2-.3,12.5-.4,18.8-.1,8.8-.8,17.8,0,26.5,2.6,28.9,1.8,57.6-5,85.9-4.3,17.8-3.8,34.3,6.6,50,2.8,4.2,4.2,9.3,5.7,14.1,1.4,4.4,1.1,8.8-4,10.7-4.4,1.5-9.2,2-13.2,4-5.2,2.6-8.6.6-10.8-3.3-2.1-3.8-3.4-8.1-4.7-12.4-1.5-4.8-2.6-9.7-3.8-14.6-.9-4-2.9-8.4-2.1-12.2,3.3-17.6,3.4-35,0-52.6-4.2-21.4-4.3-43.1-2.6-64.9.5-6.8.8-13.7,0-20.5-1.8-16.5-4.4-32.9-6.2-49.4-2.1-20.4-3.7-41-5.5-61.4-.3-3.2-.9-6.2-1.4-9.3-.5,0-1,.1-1.5.1-.4,1.6-1,3.4-1.1,5-1.3,15.4-2.4,30.9-3.7,46.3-1.4,16.5-2.1,33.3-4.8,49.7-2.5,15.1-4.4,30.1-3,45.5,1.8,18.7,1,37.2-2.4,55.6-3.3,18-4.5,36.1-.6,54.2.8,3.5.4,7.4-.4,11-1.4,6.4-3.2,12.9-5.4,18.9-1.9,5-4.3,10.2-7.7,14.1-1.3,1.5-6.2,0-9.5-.3-.8,0-1.5.6-2.3.5-8.8-1.3-17.8-6.4-12.6-17.3,3.7-7.7,6.8-15.8,10.7-23.4,3.9-7.9,4.5-16.1,2.8-24.6-6.6-31.6-10.3-63.3-7.7-95.7,1.4-17.1,0-34.4.3-51.7,0-5.4,1.1-11,.5-16.4-2.9-24.2-5.7-48.5-9.3-72.7-3.7-24.6-2-48.7,8.1-71.4,6.2-13.7,7.3-27.5,6.4-41.9-.3-5-.6-10.2-1.1-15.3-.9-8.1-1.9-16.1-2.8-24.2-2.1,1.3-3,2.5-3.5,3.9-7.1,17.8-12.9,35.7-15.1,55.1-1.5,13.5-7.7,26.6-12,39.7-3.3,10.1-7.8,19.8-10.1,30-2.8,12.2-3.7,25-5.5,37.4-.3,1.8-1.4,3.4-2.1,5-.5-.1-1.1-.4-1.6-.5.4-5.3.6-10.6.9-15.9-.4,0-.9-.1-1.4-.1-1.8,7.1-3.7,14.2-5.4,21.3-.9-.1-1.9-.4-2.8-.5,1-6.7,1.9-13.2,2.9-19.9-.4,0-.9-.1-1.3-.1-2.4,7.3-4.8,14.7-7.2,22.2-1-.3-1.9-.6-2.9-.9,1.9-7.9,3.7-15.8,5.5-23.7-6.2,4.8-4.8,14.1-12.5,17.9,0-2.4.8-4.4,1.4-6.6,2.1-6.6,4.4-13,6.3-19.5.4-1.5-.3-3.2-.5-4.8-1.5.5-3.3.6-4.5,1.5-3.4,2.4-6.7,4.8-11.9,2.6,5.9-4.9,10.7-11,17.1-14.6Z"/>
    <path class="st7" d="M467.3,315.4c9.8-5,11.6-13.2,12.9-22.6,2.3-17,4.7-34.2,7.7-51.1,5.9-33,13.2-65.9,18.2-99.1,2.6-17.3,15.1-29,30.5-32,5.5-1.1,11.3-3.2,16.3-6.1,6.6-3.9,11.7-9.2,12.4-18,.8-9.6-5.4-15.3-10.5-21.2-6.3-7.3-6.9-15.9-5.2-23.6,1-4.4,2-8.8,2.3-13.4.9-14,10.7-23.7,25.1-24.7,16.4-1.1,27.9,6.6,30.5,20.8.8,4.5-1.1,10.5,1.1,13.7,4.7,6.7,3,13.4.9,19.2-2.5,6.8-7.5,12.3-11.5,18.1-4.5,6.6-4.4,15.1.5,21.6,6.4,8.6,15.5,12.2,25.6,14,15.3,2.6,29,14.5,29.5,30.4,0,4,.8,8.2,1.5,12.2,5.2,27.2,10.7,54.3,15.6,81.7,3.9,21.7,7.2,43.6,10.6,65.4.9,5.7,3.7,9.3,8.4,12.6,6.9,4.8,13.1,10.7,20.2,16.6-5.4,2.5-9,0-12.5-2.8-1-.8-2.8-.6-4.2-1-.4,1.4-1.1,2.9-.8,4.2,1.8,6.2,3.9,12.2,5.9,18.4.9,2.6,1.6,5.3,2.4,7.9-.5.1-1.1.4-1.6.6-5.9-4.7-5.5-13-11.2-18.2,1.9,7.8,3.7,15.6,5.5,23.4-1,.3-2,.6-3,.9-2.4-7.3-4.7-14.7-7.1-22.2-.4.1-.9.3-1.3.4,1,6.6,1.9,13.2,2.9,19.8-1,.1-1.9.4-2.8.5-1.9-7.2-3.8-14.2-5.7-21.3-.4,0-.8.1-1.1.3v16.5c-1.3-.8-1.8-1-1.9-1.3-.4-.8-.9-1.4-.9-2.1-1.1-13.4-8.7-25.7-6.3-39.7.4-1.8-.6-3.8-1.3-5.7-2.6-7.7-5.7-15.4-8.2-23.2-4.3-13.1-10.2-26.2-12-39.7-2.4-18.7-7.3-36.3-14.4-53.6-.9-2-2-4.2-3-6.2-.6.1-1.1.3-1.8.4-1.1,13.2-2.1,26.5-3.4,39.7-1.4,15,.8,29.4,7.1,43.4,7.2,15.8,10.2,32.8,9.1,49.9-1.5,22.3-4.4,44.5-7.3,66.6-2,14.9-5.3,29.6-3.2,44.9.8,6.2-.3,12.5-.4,18.8,0,8.8-.8,17.8,0,26.5,2.6,28.9,1.8,57.6-5,85.9-4.3,17.8-3.8,34.3,6.6,50,2.8,4.2,4.2,9.3,5.7,14.1,1.4,4.4,1.1,8.8-4,10.7-4.4,1.5-9.2,2-13.2,4-5.2,2.6-8.6.6-10.8-3.3-2.1-3.8-3.4-8.1-4.7-12.4-1.5-4.8-2.6-9.7-3.8-14.6-.9-4-2.9-8.4-2.1-12.2,3.3-17.6,3.4-35,0-52.6-4.2-21.4-4.3-43.1-2.6-64.9.5-6.8.8-13.7,0-20.5-1.8-16.5-4.4-32.9-6.2-49.4-2.1-20.4-3.7-41-5.5-61.4-.3-3.2-.9-6.2-1.4-9.3-.5,0-1,.1-1.5.1-.4,1.6-1,3.4-1.1,5-1.3,15.4-2.4,30.9-3.7,46.3-1.4,16.5-2.1,33.3-4.8,49.7-2.5,15.1-4.4,30.1-3,45.5,1.8,18.7,1,37.2-2.4,55.6-3.3,18-4.5,36.1-.6,54.2.8,3.5.4,7.4-.4,11-1.4,6.4-3.2,12.9-5.4,18.9-1.9,5-4.3,10.2-7.7,14.1-1.3,1.5-6.2,0-9.5-.3-.8,0-1.5.6-2.3.5-8.8-1.3-17.8-6.4-12.6-17.3,3.7-7.7,6.8-15.8,10.7-23.4,3.9-7.9,4.5-16.1,2.8-24.6-6.6-31.6-10.3-63.3-7.7-95.7,1.4-17.1,0-34.4.3-51.7,0-5.4,1.1-11,.5-16.4-2.9-24.2-5.7-48.5-9.3-72.7-3.7-24.6-2-48.7,8.1-71.4,6.2-13.7,7.3-27.5,6.4-41.9-.3-5-.6-10.2-1.1-15.3-.9-8.1-1.9-16.1-2.8-24.2-2.1,1.3-3,2.5-3.5,3.9-7.1,17.8-12.9,35.7-15.1,55.1-1.5,13.5-7.7,26.6-12,39.7-3.3,10.1-7.8,19.8-10.1,30-2.8,12.2-3.7,25-5.5,37.4-.3,1.8-1.4,3.4-2.1,5-.5-.1-1.1-.4-1.6-.5.4-5.3.6-10.6.9-15.9-.4,0-.9-.1-1.4-.1-1.8,7.1-3.7,14.2-5.4,21.3-.9-.1-1.9-.4-2.8-.5,1-6.7,1.9-13.2,2.9-19.9-.4,0-.9-.1-1.3-.1-2.4,7.3-4.8,14.7-7.2,22.2-1-.3-1.9-.6-2.9-.9,1.9-7.9,3.7-15.8,5.5-23.7-6.2,4.8-4.8,14.1-12.5,17.9,0-2.4.8-4.4,1.4-6.6,2.1-6.6,4.4-13,6.3-19.5.4-1.5-.3-3.2-.5-4.8-1.5.5-3.3.6-4.5,1.5-3.4,2.4-6.7,4.8-11.9,2.6,6.1-5.1,10.8-11.2,17.3-14.8Z"/>
    <g>
      <path id="path882" class="st2" d="M126.4,130.1c-.6-3.2-2.1-6.9-3.8-9.7-1.7-2.9-3.7-5.3-5.6-6.4-2.1-1.1-4.3-1-7.5.9-3.2,2-7.5,5.6-11,10.4-3.6,4.7-6.5,10.3-8.1,14-1.7,3.7-2,5.3-2.1,6.5s0,2-.9,6.2c-.9,4.3-2.6,11.8-3.6,16.9-1,5.3-1.2,8-1.2,9.7s.3,2.4,1.7,3.1c1.5.7,4.1,1.6,7.2,1.2,3.1-.3,6.4-1.8,9.6-3.1,3.2-1.2,6.5-2.1,9.1-2.8,2.6-.6,4.3-1,6.5-3.2s4.8-6.6,6.5-12.7c1.7-6,2.6-14,3.1-19.4.6-5.3.7-8.3.1-11.6h0Z"/>
      <path id="path882-7" class="st14" d="M126.4,130.1c-.6-3.2-2.1-6.9-3.8-9.7-1.7-2.9-3.7-5.3-5.6-6.4-2.1-1.1-4.3-1-7.5.9-3.2,2-7.5,5.6-11,10.4-3.6,4.7-6.5,10.3-8.1,14-1.7,3.7-2,5.3-2.1,6.5s0,2,2.2,7.6c2.1,5.6,6.4,15.9,10.2,20.6,3.7,4.7,7.1,3.7,9.4,3.1,2.4-.6,4.3-1,6.5-3.2s4.8-6.6,6.5-12.7,2.6-14,3.1-19.4c.6-5.5.8-8.4.2-11.7h0Z"/>
      <path id="path882-7-9" class="st0" d="M126.4,130.1c-.6-3.2-2.1-6.9-3.8-9.7-1.7-2.9-3.7-5.3-5.6-6.4-2.1-1.1-4.3-1-7.5.9-3.2,2-7.5,5.6-10.3,9.2-2.9,3.4-4.5,6.5-5.8,8.7-1.2,2.2-2,3.8-2.7,6.4-.7,2.6-1.5,5.9,4.1,10.2,5.6,4.1,17.4,8.8,23.7,7.5,6.4-1.6,7.2-9.3,7.7-14.8.7-5.7.8-8.7.2-12Z"/>
      <path id="path882-8" class="st14" d="M135.1,130.1c.6-3.2,2.1-6.9,3.8-9.7,1.7-2.9,3.7-5.3,5.6-6.4,2.1-1.1,4.3-1,7.5.9,3.2,2,7.5,5.6,11,10.4,3.6,4.8,6.5,10.3,8.1,14,1.7,3.7,2,5.3,2.1,6.5s0,2,.9,6.2c.9,4.3,2.6,11.8,3.6,16.9,1,5.3,1.2,8,1.2,9.7s-.3,2.4-1.7,3.1c-1.5.7-4.1,1.6-7.2,1.2-3.1-.3-6.4-1.8-9.6-3.1-3.2-1.2-6.5-2.1-9.1-2.8-2.6-.6-4.3-1-6.5-3.2s-4.8-6.6-6.5-12.7c-1.7-6-2.6-14-3.1-19.4-.6-5.3-.7-8.3-.1-11.6h0Z"/>
      <path id="path882-7-5" class="st0" d="M135.1,130.1c.6-3.2,2.1-6.9,3.8-9.7,1.7-2.9,3.7-5.3,5.6-6.4,2.1-1.1,4.3-1,7.5.9,3.2,2,7.5,5.6,11,10.4,3.6,4.8,6.5,10.3,8,13.6s1.7,4.3,2.1,7.1c.4,2.8,1.1,7.7-1.2,15.8-2.4,8.1-8.1,19.2-11.2,17.7-3.1-1.5-3.8-15.6-6.5-21.5-2.8-5.9-7.7-3.7-10.8-3.8-2.9,0-4.1-2.4-5.3-5.3-1.1-2.8-2.2-6-2.9-9.3-.7-3.3-.7-6.2-.1-9.5h0Z"/>
      <path class="st13" d="M145.5,131.2c-1.6.1-4.1,1-6,1s-3.4-.9-4.9-2.6h.1c-.1-.3-.3-.4-.6-.6-.1-.3-.3-.4-.4-.7.6-.1,1.1-.6,1.1-1.2s-.6-1.2-1.2-1.2h-.2v-.6h.3c.7,0,1.2-.6,1.2-1.2s-.6-1.2-1.2-1.2h-.3v-.6h.3c.7,0,1.2-.6,1.2-1.2s-.6-1.2-1.2-1.2h-.3v-.6h.3c.7,0,1.2-.6,1.2-1.2s-.6-1.2-1.2-1.2h-.3v-.6h.3c.7,0,1.2-.6,1.2-1.2s-.6-1.2-1.2-1.2h-.3v-1h.3c.7,0,1.2-.6,1.2-1.2s-.6-1.2-1.2-1.2h-.3v-.6h.3c.7,0,1.2-.6,1.2-1.2s-.6-1.2-1.2-1.2h-.3.3c.7,0,1.2-.6,1.2-1.2s-.6-1.2-1.2-1.2h-.3v-.6h.3c.7,0,1.2-.6,1.2-1.2s-.6-1.2-1.2-1.2h-.3v-.6s0,0-.1,0h-3.8s-.1,0-.1,0v.6h-.1c-.7,0-1.2.6-1.2,1.2s.6,1.2,1.2,1.2h.3v.6h-.3c-.7,0-1.2.6-1.2,1.2s.6,1.2,1.2,1.2h.3v.6h-.3c-.7,0-1.2.6-1.2,1.2s.6,1.2,1.2,1.2h.3v.6h-.3c-.7,0-1.2.6-1.2,1.2s.6,1.2,1.2,1.2h.3v.6h-.3c-.7,0-1.2.6-1.2,1.2s.6,1.2,1.2,1.2h.3v.6h-.3c-.7,0-1.2.6-1.2,1.2s.6,1.2,1.2,1.2h.3v.6h-.3c-.7,0-1.2.6-1.2,1.2s.6,1.2,1.2,1.2h.3v.6h-.3c-.7,0-1.2.6-1.2,1.2s.6,1.2,1.2,1.2h.3v.6h-.3c-.7,0-1.2.6-1.2,1.2s.6,1.2,1.2,1.2h.3v.3l-.3.3c-.4,0-.9.3-1.1.7h.4c-2,1.7-4.8,2.8-5.8,3.1-1.5.6-2.8.4-4.7.4s-3.8.1-3.8.4c0,.3,2.2.7,4.1,1,1.8.4,3.2.7,3.6,1.6.4.9-.3,2.2-1.5,3.2-1.1.9-2.7,1.2-4.5,1.8s-4.3,1.1-4.3,1.5,2.6,0,3.9.9c1.2.9,1.6,2.7,2,3.8.3,1.1.7,1.5.9.6,0-.9,0-2.9.6-4.3.6-1.5,1.6-2.1,2.1-2.6.6-.4,5.4-5.3,6.2-5.5.7-.4,2.2-1.2,3.6-1.5,1.5-.1,2.7.3,4.4,1.7,1.7,1.5,3.9,3.8,5.5,5.3s2.6,1.7,3.1,1.6c.6-.1.6-.9-.3-2.2-.9-1.5-2.8-3.6-3.1-4.8s1.2-1.6,2.7-2c1.6-.4,3.1-1.1,3.7-1.6.4-.9,0-1.2-1.5-1Z"/>
      <path class="st18" d="M155.2,146.6c-2.9,9.9,9.1,21.5,17.8,17.7,4.7-2,2.4-10.3,1.5-16.1-2.1-10.8-16.7-10.2-19.3-1.6Z"/>
    </g>
    <g>
      <path id="path8821" data-name="path882" class="st2" d="M353.8,130.1c-.6-3.2-2.1-6.9-3.8-9.7-1.7-2.9-3.7-5.3-5.6-6.4-2.1-1.1-4.3-1-7.5.9-3.2,2-7.5,5.6-11,10.4-3.6,4.7-6.5,10.3-8.1,14-1.7,3.7-2,5.3-2.1,6.5s0,2-.9,6.2c-.9,4.1-2.6,11.8-3.6,16.9-1,5.3-1.2,8-1.2,9.7s.3,2.4,1.7,3.1c1.3.8,4.1,1.6,7.2,1.2,3.1-.3,6.4-1.8,9.6-3.1,3.2-1.2,6.5-2.1,9.1-2.8,2.6-.6,4.3-1,6.5-3.2s4.8-6.6,6.5-12.7c1.7-6,2.6-14,3.1-19.4.5-5.3.7-8.3,0-11.6h0Z"/>
      <path id="path882-71" data-name="path882-7" class="st14" d="M353.8,130.1c-.6-3.2-2.1-6.9-3.8-9.7-1.7-2.9-3.7-5.3-5.6-6.4-2.1-1.1-4.3-1-7.5.9-3.2,2-7.5,5.6-11,10.4-3.6,4.7-6.5,10.3-8.1,14-1.7,3.7-2,5.3-2.1,6.5s0,2,2.2,7.6c2.1,5.6,6.4,15.9,10.2,20.6,3.7,4.7,7.1,3.7,9.4,3.1,2.4-.6,4.3-1,6.5-3.2s4.8-6.6,6.5-12.7c1.7-6,2.6-14,3.1-19.4.5-5.5.8-8.4.2-11.7h0Z"/>
      <path id="path882-7-91" data-name="path882-7-9" class="st0" d="M353.8,130.1c-.6-3.2-2.1-6.9-3.8-9.7-1.7-2.9-3.7-5.3-5.6-6.4-2.1-1.1-4.3-1-7.5.9-3.2,2-7.5,5.6-10.3,9.2-2.9,3.4-4.5,6.5-5.8,8.7-1.2,2.2-2,3.8-2.7,6.4-.7,2.6-1.5,5.9,4.1,10.2,5.6,4.1,17.4,8.8,23.7,7.5,6.4-1.6,7.2-9.3,7.7-14.8.6-5.7.8-8.7.2-12Z"/>
      <path id="path882-81" data-name="path882-8" class="st14" d="M362.4,130.1c.6-3.2,2.1-6.9,3.8-9.7,1.7-2.9,3.7-5.3,5.6-6.4,2.1-1.1,4.3-1,7.5.9,3.2,2,7.5,5.6,11,10.4,3.6,4.8,6.5,10.3,8.1,14,1.7,3.7,2,5.3,2.1,6.5s0,2,.9,6.2c.9,4.1,2.6,11.8,3.6,16.9,1,5.3,1.2,8,1.2,9.7s-.3,2.4-1.7,3.1c-1.3.8-4.1,1.6-7.2,1.2-3.1-.3-6.4-1.8-9.6-3.1-3.2-1.2-6.5-2.1-9.1-2.8-2.6-.6-4.3-1-6.5-3.2s-4.8-6.6-6.5-12.7c-1.7-6-2.6-14-3.1-19.4-.5-5.3-.7-8.3,0-11.6h0Z"/>
      <path id="path882-7-51" data-name="path882-7-5" class="st0" d="M362.4,130.1c.6-3.2,2.1-6.9,3.8-9.7,1.7-2.9,3.7-5.3,5.6-6.4,2.1-1.1,4.3-1,7.5.9,3.2,2,7.5,5.6,11,10.4,3.6,4.8,6.5,10.3,8,13.6s1.7,4.3,2.1,7.1,1.1,7.7-1.2,15.8c-2.4,8.1-8.1,19.2-11.2,17.7s-3.8-15.6-6.5-21.5c-2.8-5.9-7.7-3.7-10.8-3.8-2.9,0-4.1-2.4-5.3-5.3-1.1-2.8-2.2-6-2.9-9.3-.7-3.3-.7-6.2-.1-9.5h0Z"/>
      <path class="st13" d="M372.9,131.2c-1.6.1-4.1,1-6,1s-3.4-.9-4.9-2.6h.1c-.1-.3-.3-.4-.6-.6-.1-.3-.3-.4-.4-.7.6-.1,1.1-.6,1.1-1.2s-.6-1.2-1.2-1.2h-.3v-.6h.3c.7,0,1.2-.6,1.2-1.2s-.6-1.2-1.2-1.2h-.3v-.6h.3c.7,0,1.2-.6,1.2-1.2s-.6-1.2-1.2-1.2h-.3v-.6h.3c.7,0,1.2-.6,1.2-1.2s-.6-1.2-1.2-1.2h-.3v-.6h.3c.7,0,1.2-.6,1.2-1.2s-.6-1.2-1.2-1.2h-.3v-1h.3c.7,0,1.2-.6,1.2-1.2s-.6-1.2-1.2-1.2h-.3v-.6h.3c.7,0,1.2-.6,1.2-1.2s-.6-1.2-1.2-1.2h-.3.3c.7,0,1.2-.6,1.2-1.2s-.6-1.2-1.2-1.2h-.3v-.6h.3c.7,0,1.2-.6,1.2-1.2s-.6-1.2-1.2-1.2h-.3v-.6s0,0-.1,0h-3.8s-.1,0-.1,0v.6h-.1c-.7,0-1.2.6-1.2,1.2s.6,1.2,1.2,1.2h.3v.6h-.3c-.7,0-1.2.6-1.2,1.2s.6,1.2,1.2,1.2h.3v.6h-.3c-.7,0-1.2.6-1.2,1.2s.6,1.2,1.2,1.2h.3v.6h-.3c-.7,0-1.2.6-1.2,1.2s.6,1.2,1.2,1.2h.3v.6h-.3c-.7,0-1.2.6-1.2,1.2s.6,1.2,1.2,1.2h.3v.6h-.3c-.7,0-1.2.6-1.2,1.2s.6,1.2,1.2,1.2h.3v.6h-.3c-.7,0-1.2.6-1.2,1.2s.6,1.2,1.2,1.2h.3v.6h-.3c-.7,0-1.2.6-1.2,1.2s.6,1.2,1.2,1.2h.3v.6h-.3c-.7,0-1.2.6-1.2,1.2s.6,1.2,1.2,1.2h.3v.3q-.1.1-.3.3c-.4,0-.9.3-1.1.7h.4c-2,1.7-4.8,2.8-5.8,3.1-1.5.6-2.8.4-4.7.4s-3.8.1-3.8.4c.1.3,2.2.7,4.1,1,1.8.4,3.2.7,3.6,1.6.4.9-.3,2.2-1.5,3.2-1.1.9-2.7,1.2-4.5,1.8s-4.3,1.1-4.3,1.5,2.6,0,3.9.9c1.2.9,1.6,2.7,2,3.8.3,1.1.7,1.5.9.6.1-.9,0-2.9.6-4.3.6-1.5,1.6-2.1,2.1-2.6.6-.4,5.4-5.3,6.2-5.5.7-.4,2.2-1.2,3.6-1.5,1.5-.1,2.7.3,4.4,1.7,1.7,1.5,3.9,3.8,5.5,5.3s2.6,1.7,3.1,1.6c.6-.1.6-.9-.3-2.2-.9-1.5-2.8-3.6-3.1-4.8-.3-1.2,1.2-1.6,2.7-2,1.6-.4,3.1-1.1,3.7-1.6.4-.9.2-1.2-1.4-1Z"/>
      <path class="st15" d="M340.3,141.9c-7.4,3.7-7.5,17.1-.6,20.2,3.8,1.7,7.4-4.3,10.2-8.1,5.2-7.1-3.3-15.4-9.6-12.1Z"/>
    </g>
    <g>
      <path id="path8822" data-name="path882" class="st2" d="M576.1,130.1c-.6-3.2-2.1-6.9-3.8-9.7-1.7-2.9-3.7-5.3-5.6-6.4-2.1-1.1-4.3-1-7.5.9-3.2,2-7.5,5.6-11,10.4-3.6,4.7-6.5,10.3-8.1,14-1.7,3.7-2,5.3-2.1,6.5s0,2-.9,6.2c-.9,4.3-2.6,11.8-3.6,16.9-1,5.3-1.2,8-1.2,9.7s.3,2.4,1.7,3.1c1.3.8,4.1,1.6,7.2,1.2,2.9-.3,6.4-1.8,9.6-3.1,3.2-1.2,6.5-2.1,9.1-2.8,2.6-.6,4.3-1,6.5-3.2,2.1-2.2,4.8-6.6,6.5-12.7,1.7-6,2.6-14,3.1-19.4.5-5.3.7-8.3,0-11.6h0Z"/>
      <path id="path882-72" data-name="path882-7" class="st14" d="M576.1,130.1c-.6-3.2-2.1-6.9-3.8-9.7-1.7-2.9-3.7-5.3-5.6-6.4-2.1-1.1-4.3-1-7.5.9-3.2,2-7.5,5.6-11,10.4-3.6,4.7-6.5,10.3-8.1,14-1.7,3.7-2,5.3-2.1,6.5s0,2,2.2,7.6c2.1,5.6,6.4,15.9,10.2,20.6,3.7,4.7,7.1,3.7,9.4,3.1,2.4-.6,4.3-1,6.5-3.2,2.1-2.2,4.8-6.6,6.5-12.7,1.7-6,2.6-14,3.1-19.4.5-5.5.8-8.4.2-11.7h0Z"/>
      <path id="path882-7-92" data-name="path882-7-9" class="st0" d="M576.1,130.1c-.6-3.2-2.1-6.9-3.8-9.7-1.7-2.9-3.7-5.3-5.6-6.4-2.1-1.1-4.3-1-7.5.9-3.2,2-7.5,5.6-10.3,9.2-2.9,3.4-4.5,6.5-5.8,8.7-1.2,2.2-2,3.8-2.7,6.4-.7,2.6-1.5,5.9,4.1,10.2,5.6,4.1,17.4,8.8,23.7,7.5,6.4-1.6,7.2-9.3,7.7-14.8.5-5.8.8-8.7.2-12Z"/>
      <path id="path882-82" data-name="path882-8" class="st14" d="M584.7,130.1c.6-3.2,2.1-6.9,3.8-9.7,1.7-2.9,3.7-5.3,5.6-6.4,2.1-1.1,4.3-1,7.5.9,3.2,2,7.5,5.6,11,10.4,3.6,4.7,6.5,10.3,8.1,14,1.7,3.7,2,5.3,2.1,6.5s0,2,.9,6.2c.9,4.3,2.6,11.8,3.6,16.9,1,5.3,1.2,8,1.2,9.7s-.3,2.4-1.7,3.1-4.1,1.6-7.2,1.2c-2.9-.3-6.4-1.8-9.6-3.1-3.2-1.2-6.5-2.1-9.1-2.8s-4.3-1-6.5-3.2c-2.1-2.2-4.8-6.6-6.5-12.7-1.7-6-2.6-14-3.1-19.4-.5-5.3-.7-8.3,0-11.6h0Z"/>
      <path id="path882-7-52" data-name="path882-7-5" class="st0" d="M584.7,130.1c.6-3.2,2.1-6.9,3.8-9.7,1.7-2.9,3.7-5.3,5.6-6.4,2.1-1.1,4.3-1,7.5.9,3.2,2,7.5,5.6,11,10.4,3.6,4.7,6.5,10.3,8,13.6,1.5,3.2,1.7,4.3,2.1,7.1.4,2.8,1.1,7.7-1.2,15.8-2.4,8.1-8.1,19.2-11.2,17.7-3.1-1.5-3.8-15.6-6.5-21.5-2.8-5.9-7.7-3.7-10.8-3.8-2.9,0-4.1-2.4-5.3-5.3-1.1-2.8-2.2-6-2.9-9.3-.7-3.3-.7-6.2,0-9.5h0Z"/>
      <path class="st13" d="M595.2,131.2c-1.6.1-4.1,1-6,1s-3.4-.9-4.9-2.6h0c0-.3-.3-.4-.6-.6,0-.3-.3-.4-.4-.7.6-.1,1.1-.6,1.1-1.2s-.6-1.2-1.2-1.2h-.3v-.6h.3c.7,0,1.2-.6,1.2-1.2s-.6-1.2-1.2-1.2h-.3v-.6h.3c.7,0,1.2-.6,1.2-1.2s-.6-1.2-1.2-1.2h-.3v-.6h.3c.7,0,1.2-.6,1.2-1.2s-.6-1.2-1.2-1.2h-.3v-.6h.3c.7,0,1.2-.6,1.2-1.2s-.6-1.2-1.2-1.2h-.3v-1h.3c.7,0,1.2-.6,1.2-1.2s-.6-1.2-1.2-1.2h-.3v-.6h.3c.7,0,1.2-.6,1.2-1.2s-.6-1.2-1.2-1.2h-.3.3c.7,0,1.2-.6,1.2-1.2s-.6-1.2-1.2-1.2h-.3v-.6h.3c.7,0,1.2-.6,1.2-1.2s-.6-1.2-1.2-1.2h-.3v-.6s0,0,0,0h-3.8s0,0,0,0v.6h0c-.7,0-1.2.6-1.2,1.2s.6,1.2,1.2,1.2h.3v.6h-.3c-.7,0-1.2.6-1.2,1.2s.6,1.2,1.2,1.2h.3v.6h-.3c-.7,0-1.2.6-1.2,1.2s.6,1.2,1.2,1.2h.3v.6h-.3c-.7,0-1.2.6-1.2,1.2s.6,1.2,1.2,1.2h.3v.6h-.3c-.7,0-1.2.6-1.2,1.2s.6,1.2,1.2,1.2h.3v.6h-.3c-.7,0-1.2.6-1.2,1.2s.6,1.2,1.2,1.2h.3v.6h-.3c-.7,0-1.2.6-1.2,1.2s.6,1.2,1.2,1.2h.3v.6h-.3c-.7,0-1.2.6-1.2,1.2s.6,1.2,1.2,1.2h.3v.6h-.3c-.7,0-1.2.6-1.2,1.2s.6,1.2,1.2,1.2h.3v.3q0,.1-.3.3c-.4,0-.9.3-1.1.7h.4c-2,1.7-4.8,2.8-5.8,3.1-1.5.6-2.8.4-4.7.4s-3.8.1-3.8.4c0,.3,2.2.7,4.1,1,1.8.4,3.2.7,3.6,1.6.4.9-.3,2.2-1.5,3.2-1.1.9-2.7,1.2-4.5,1.8-2,.6-4.3,1.1-4.3,1.5s2.6,0,3.9.9c1.2.9,1.6,2.7,2,3.8.3,1.1.7,1.5.9.6s0-2.9.6-4.3c.6-1.5,1.6-2.1,2.1-2.6s5.4-5.3,6.2-5.5c.7-.4,2.2-1.2,3.6-1.5,1.5-.1,2.7.3,4.4,1.7,1.7,1.5,3.9,3.8,5.5,5.3s2.6,1.7,3.1,1.6c.6-.1.6-.9-.3-2.2-.9-1.5-2.8-3.6-3.1-4.8s1.2-1.6,2.7-2c1.6-.4,3.1-1.1,3.7-1.6.4-.9.2-1.2-1.4-1Z"/>
      <path class="st9" d="M585.1,141.2c.3,8.2,12.3,14,18,8.8,3.1-2.7-.7-8.5-3.1-12.7-4.1-7.5-15.1-3.4-14.9,3.9Z"/>
    </g>
  </g>
  <line class="st4" x1="761.6" y1="139.2" x2="589.6" y2="139.2"/>
  <polyline class="st5" points="761.6 350.2 341.4 350.2 341.8 150.2"/>
  <polyline class="st3" points="761.6 558.2 161 558.2 161.2 148.2"/>
  <g>
    <path class="st12" d="M890.2,104.7l-15.4,15.4.2.2,15.4-15.4c0,0,0,0-.2-.2h0Z"/>
    <path class="st20" d="M890.2,104.7c0,0,.2.2.3.2.6.5,1.3.3,1.3.3l7.7-7.7-1-1-7,7-1.3,1.2h0Z"/>
    <polygon class="st12" points="899.4 97.5 904.5 102.6 935.2 71.8 930.2 66.8 925.9 71.1 930 75.2 928 77.1 928 77.1 904.5 100.5 900.5 96.5 899.4 95.4 898.4 96.5 899.4 97.5"/>
    <polygon class="st10" points="900.5 96.5 904.5 100.5 928 77.1 922.9 72 901.2 93.7 899.4 95.4 900.5 96.5"/>
    <polygon class="st6" points="932.4 64.5 951.6 45.4 956.9 50.8 958.8 48.8 952.5 42.5 951.7 43.3 950.5 44.4 931.4 63.6 932.4 64.5"/>
    <polygon class="st6" points="928 77.1 928 77.1 930 75.2 925.9 71.1 930.2 66.8 929.2 65.7 924.9 70.1 923.5 71.3 923.3 71.6 922.9 72 928 77.1"/>
    <polygon class="st20" points="930.2 66.8 935.2 71.8 938 74.5 940.1 72.4 932.4 64.5 931.4 63.6 929.5 65.4 929.2 65.7 930.2 66.8"/>
    <path class="st20" d="M889.9,104.4l-15.4,15.4.3.3,15.4-15.4c-.1-.1-.2-.2-.3-.3Z"/>
    <path class="st1" d="M889.9,104.4c0,0,.2.2.3.3l1.2-1.2,7-7-1-1-7.7,7.7c0-.1-.2.5.2,1.2Z"/>
    <polygon class="st20" points="897.3 95.4 898.4 96.5 899.4 95.4 898.4 94.4 894.3 90.4 917.7 66.9 917.7 66.9 919.7 64.9 923.8 68.9 928.1 64.7 923 59.6 892.3 90.4 897.3 95.4"/>
    <polygon class="st9" points="898.4 94.4 899.4 95.4 901.2 93.7 922.9 72 917.7 66.9 894.3 90.4 898.4 94.4"/>
    <polygon class="st19" points="949.5 43.3 930.3 62.5 931.4 63.6 950.5 44.4 951.7 43.3 952.5 42.5 946.1 36.1 944.1 38 949.5 43.3"/>
    <polygon class="st19" points="917.7 66.9 922.9 72 923.3 71.6 923.5 71.3 924.9 70.1 929.2 65.7 928.1 64.7 923.8 68.9 919.7 64.9 917.7 66.9"/>
    <polygon class="st1" points="923 59.6 928.1 64.7 929.2 65.7 929.5 65.4 931.4 63.6 930.3 62.5 922.5 54.6 920.3 56.9 923 59.6"/>
    <g class="st16">
      <rect class="st13" x="898.5" y="88.5" width=".6" height="6.2" transform="translate(198.5 662.4) rotate(-45)"/>
      <rect class="st13" x="901" y="86.1" width=".6" height="6.2" transform="translate(200.9 663.4) rotate(-45)"/>
      <rect class="st13" x="903.4" y="83.7" width=".6" height="6.2" transform="translate(203.3 664.4) rotate(-45)"/>
      <rect class="st13" x="905.9" y="81.2" width=".6" height="6.2" transform="translate(205.8 665.5) rotate(-45)"/>
      <rect class="st13" x="908.3" y="78.8" width=".6" height="6.2" transform="translate(208.2 666.5) rotate(-45)"/>
      <rect class="st13" x="910.8" y="76.3" width=".6" height="6.2" transform="translate(210.7 667.5) rotate(-45)"/>
      <rect class="st13" x="913.2" y="73.9" width=".6" height="6.2" transform="translate(213.1 668.5) rotate(-45)"/>
      <rect class="st13" x="915.7" y="71.5" width=".6" height="6.2" transform="translate(215.5 669.6) rotate(-45)"/>
      <rect class="st13" x="918" y="69" width=".6" height="6.2" transform="translate(218 670.4) rotate(-45)"/>
    </g>
  </g>
  <g>
    <path class="st12" d="M890.2,524.1l-15.4,15.4.2.2,15.4-15.4c0,0,0,0-.2-.2h0Z"/>
    <path class="st20" d="M890.2,524.1c0,0,.2.2.3.2.6.5,1.3.3,1.3.3l7.7-7.7-1-1-7,7-1.3,1.2h0Z"/>
    <polygon class="st12" points="899.4 516.9 904.5 522.1 935.2 491.3 930.2 486.2 925.9 490.5 930 494.6 928 496.5 928 496.5 904.5 520 900.5 515.9 899.4 514.9 898.4 515.9 899.4 516.9"/>
    <polygon class="st17" points="900.5 515.9 904.5 520 928 496.5 922.9 491.4 901.2 513.1 899.4 514.9 900.5 515.9"/>
    <polygon class="st6" points="932.4 484 951.6 464.9 956.9 470.2 958.8 468.2 952.5 461.9 951.7 462.7 950.5 463.8 931.4 483 932.4 484"/>
    <polygon class="st6" points="928 496.5 928 496.5 930 494.6 925.9 490.5 930.2 486.2 929.2 485.2 924.9 489.5 923.5 490.8 923.3 491 922.9 491.4 928 496.5"/>
    <polygon class="st20" points="930.2 486.2 935.2 491.3 938 494 940.1 491.8 932.4 484 931.4 483 929.5 484.9 929.2 485.2 930.2 486.2"/>
    <path class="st20" d="M889.9,523.8l-15.4,15.4.3.3,15.4-15.4c-.1,0-.2-.2-.3-.3Z"/>
    <path class="st1" d="M889.9,523.8c0,0,.2.2.3.4l1.2-1.2,7-7-1-1.1-7.7,7.7c0-.1-.2.5.2,1.2Z"/>
    <polygon class="st20" points="897.3 514.9 898.4 515.9 899.4 514.9 898.4 513.8 894.3 509.8 917.7 486.3 917.7 486.3 919.7 484.3 923.8 488.4 928.1 484.1 923 479 892.3 509.8 897.3 514.9"/>
    <polygon class="st21" points="898.4 513.8 899.4 514.9 901.2 513.1 922.9 491.4 917.7 486.3 894.3 509.8 898.4 513.8"/>
    <polygon class="st19" points="949.5 462.8 930.3 481.9 931.4 483 950.5 463.8 951.7 462.7 952.5 461.9 946.1 455.5 944.1 457.4 949.5 462.8"/>
    <polygon class="st19" points="917.7 486.3 922.9 491.4 923.3 491 923.5 490.8 924.9 489.5 929.2 485.2 928.1 484.1 923.8 488.4 919.7 484.3 917.7 486.3"/>
    <polygon class="st1" points="923 479 928.1 484.1 929.2 485.2 929.5 484.9 931.4 483 930.3 481.9 922.5 474.1 920.3 476.3 923 479"/>
    <g class="st16">
      <rect class="st13" x="898.5" y="508" width=".6" height="6.2" transform="translate(-98.2 785.3) rotate(-45)"/>
      <rect class="st13" x="901" y="505.6" width=".6" height="6.2" transform="translate(-95.7 786.3) rotate(-45)"/>
      <rect class="st13" x="903.4" y="503.1" width=".6" height="6.2" transform="translate(-93.3 787.3) rotate(-45)"/>
      <rect class="st13" x="905.9" y="500.6" width=".6" height="6.2" transform="translate(-90.8 788.3) rotate(-45)"/>
      <rect class="st13" x="908.3" y="498.2" width=".6" height="6.2" transform="translate(-88.3 789.3) rotate(-45)"/>
      <rect class="st13" x="910.8" y="495.7" width=".6" height="6.2" transform="translate(-85.8 790.3) rotate(-45)"/>
      <rect class="st13" x="913.2" y="493.3" width=".6" height="6.2" transform="translate(-83.5 791.3) rotate(-45)"/>
      <rect class="st13" x="915.7" y="490.9" width=".6" height="6.2" transform="translate(-81 792.4) rotate(-45)"/>
      <rect class="st13" x="918" y="488.5" width=".6" height="6.2" transform="translate(-78.7 793.3) rotate(-45)"/>
    </g>
  </g>
  <g>
    <path class="st12" d="M890.2,315.2l-15.4,15.4.2.2,15.4-15.4c0-.1,0-.1-.2-.2h0Z"/>
    <path class="st20" d="M890.2,315.2c0,.1.2.2.3.2.6.5,1.3.3,1.3.3l7.7-7.7-1-1-7,7-1.3,1.2h0Z"/>
    <polygon class="st12" points="899.4 308 904.5 313.1 935.2 282.3 930.2 277.3 925.9 281.6 930 285.7 928 287.6 928 287.6 904.5 311 900.5 306.9 899.4 305.9 898.4 306.9 899.4 308"/>
    <polygon class="st15" points="900.5 306.9 904.5 311 928 287.6 922.9 282.5 901.2 304.1 899.4 305.9 900.5 306.9"/>
    <polygon class="st6" points="932.4 275 951.6 255.9 956.9 261.3 958.8 259.3 952.5 252.9 951.7 253.7 950.5 254.9 931.4 274.1 932.4 275"/>
    <polygon class="st6" points="928 287.6 928 287.6 930 285.7 925.9 281.6 930.2 277.3 929.2 276.2 924.9 280.5 923.5 281.8 923.3 282.1 922.9 282.5 928 287.6"/>
    <polygon class="st20" points="930.2 277.3 935.2 282.3 938 285 940.1 282.9 932.4 275 931.4 274.1 929.5 275.9 929.2 276.2 930.2 277.3"/>
    <path class="st20" d="M889.9,314.9l-15.4,15.4.3.3,15.4-15.4c-.1,0-.2-.3-.3-.3Z"/>
    <path class="st1" d="M889.9,314.9c0,.1.2.2.3.4l1.2-1.2,7-7-1-1-7.7,7.7c0-.2-.2.3.2,1.1Z"/>
    <polygon class="st20" points="897.3 305.9 898.4 306.9 899.4 305.9 898.4 304.9 894.3 300.9 917.7 277.3 917.7 277.3 919.7 275.3 923.8 279.4 928.1 275.2 923 270.1 892.3 300.9 897.3 305.9"/>
    <polygon class="st11" points="898.4 304.9 899.4 305.9 901.2 304.1 922.9 282.5 917.7 277.3 894.3 300.9 898.4 304.9"/>
    <polygon class="st19" points="949.5 253.8 930.3 272.9 931.4 274.1 950.5 254.9 951.7 253.7 952.5 252.9 946.1 246.5 944.1 248.5 949.5 253.8"/>
    <polygon class="st19" points="917.7 277.3 922.9 282.5 923.3 282.1 923.5 281.8 924.9 280.5 929.2 276.2 928.1 275.2 923.8 279.4 919.7 275.3 917.7 277.3"/>
    <polygon class="st1" points="923 270.1 928.1 275.2 929.2 276.2 929.5 275.9 931.4 274.1 930.3 272.9 922.5 265.1 920.3 267.3 923 270.1"/>
    <g class="st16">
      <rect class="st13" x="898.5" y="299" width=".6" height="6.2" transform="translate(49.6 724) rotate(-45)"/>
      <rect class="st13" x="901" y="296.6" width=".6" height="6.2" transform="translate(52 725.1) rotate(-45)"/>
      <rect class="st13" x="903.4" y="294.1" width=".6" height="6.2" transform="translate(54.5 726) rotate(-45)"/>
      <rect class="st13" x="905.9" y="291.6" width=".6" height="6.2" transform="translate(57 727.1) rotate(-45)"/>
      <rect class="st13" x="908.3" y="289.3" width=".6" height="6.2" transform="translate(59.4 728.1) rotate(-45)"/>
      <rect class="st13" x="910.8" y="286.8" width=".6" height="6.2" transform="translate(61.9 729.2) rotate(-45)"/>
      <rect class="st13" x="913.2" y="284.4" width=".6" height="6.2" transform="translate(64.2 730.1) rotate(-45)"/>
      <rect class="st13" x="915.7" y="282" width=".6" height="6.2" transform="translate(66.7 731.2) rotate(-45)"/>
      <rect class="st13" x="918" y="279.5" width=".6" height="6.2" transform="translate(69.1 732.1) rotate(-45)"/>
    </g>
  </g>
  <g class="st8">
    <path class="st9" d="M748.3,183.4c1.1,1.7,1.7,4.1,1.7,7.2s-.6,5.4-1.9,7.2c-1.2,1.8-3,2.7-5.3,2.7s-2.1-.2-3.1-.7c-.9-.5-1.7-1.1-2.3-1.9v9.3l-2.1.3v-26.2h1.8l.2,2.7c.7-1,1.5-1.8,2.5-2.3,1-.6,2.1-.8,3.3-.8,2.3,0,4,.8,5.1,2.5ZM746.4,196.7c.9-1.4,1.4-3.4,1.4-6.1,0-5.3-1.7-8-5-8s-2.1.3-2.9.9c-.8.6-1.6,1.4-2.4,2.4v10c1.2,1.9,2.9,2.9,5,2.9s3-.7,4-2.1Z"/>
    <path class="st9" d="M769.6,191.5h-12.6c.1,2.4.7,4.3,1.7,5.5,1,1.2,2.4,1.8,4.1,1.8s1.9-.1,2.6-.5c.8-.3,1.6-.8,2.5-1.4l1,1.3c-.9.8-1.9,1.3-2.9,1.7-1,.4-2.1.6-3.3.6-2.5,0-4.5-.9-5.9-2.6-1.4-1.7-2.1-4.1-2.1-7.1s.3-3.7.9-5.2c.6-1.5,1.5-2.7,2.6-3.5,1.1-.8,2.5-1.2,4-1.2,2.4,0,4.2.8,5.5,2.4s1.9,3.8,1.9,6.7,0,1,0,1.5ZM767.7,189.3c0-2.1-.4-3.8-1.3-5-.9-1.2-2.2-1.8-3.9-1.8s-2.8.6-3.8,1.8c-1,1.2-1.5,3-1.6,5.5h10.6v-.5Z"/>
    <path class="st9" d="M784.8,181.1l-.4,2c-.5-.1-1.1-.2-1.7-.2-1.3,0-2.3.5-3.1,1.4-.8.9-1.4,2.4-2,4.3v11.5h-2.1v-18.8h1.8l.2,4.2c.5-1.6,1.2-2.7,2.1-3.5.9-.8,2-1.1,3.3-1.1s1.4,0,1.9.2Z"/>
    <path class="st9" d="M796.2,181.4c1,.3,1.9.9,2.8,1.6l-1,1.4c-.9-.6-1.7-1-2.4-1.3-.8-.3-1.6-.4-2.5-.4s-2.3.3-3,.9c-.8.6-1.2,1.3-1.2,2.3s.3,1.6,1,2.1c.7.5,1.9,1,3.6,1.4,2.1.6,3.7,1.2,4.6,2.1.9.8,1.4,2,1.4,3.6s-.6,3-1.9,4c-1.3,1-2.9,1.5-4.9,1.5s-2.7-.2-3.8-.6c-1.1-.4-2.1-1-3-1.8l1.2-1.3c.8.7,1.7,1.2,2.6,1.5.9.3,1.9.5,3,.5s2.5-.3,3.4-1c.9-.6,1.3-1.5,1.3-2.6s-.1-1.4-.4-1.9c-.3-.5-.8-.9-1.5-1.2-.7-.3-1.7-.7-3.1-1.1-2-.5-3.4-1.2-4.3-2-.9-.8-1.3-1.8-1.3-3.2s.3-1.8.8-2.5c.6-.8,1.3-1.3,2.2-1.8s2-.6,3.2-.6,2.2.2,3.2.5Z"/>
    <path class="st9" d="M817.5,183.4c1.4,1.7,2.1,4.1,2.1,7.2s-.7,5.5-2.1,7.2c-1.4,1.8-3.4,2.6-5.9,2.6s-4.4-.9-5.8-2.6-2.1-4.1-2.1-7.2.3-3.7,1-5.2c.6-1.5,1.6-2.6,2.8-3.4s2.6-1.2,4.2-1.2c2.5,0,4.4.9,5.9,2.6ZM807.4,184.7c-1,1.4-1.5,3.4-1.5,6s.5,4.6,1.5,6c1,1.4,2.4,2.1,4.2,2.1s3.2-.7,4.3-2.1c1-1.4,1.5-3.4,1.5-6s-.5-4.6-1.5-6c-1-1.4-2.4-2-4.3-2s-3.2.7-4.2,2.1Z"/>
    <path class="st9" d="M837.9,182.4c.9,1,1.4,2.4,1.4,4.2v13.5h-2.1v-13.2c0-1.5-.3-2.6-.9-3.3-.6-.7-1.5-1-2.7-1s-2.3.3-3.2,1-1.8,1.6-2.6,2.9v13.6h-2.1v-18.8h1.8l.2,3.2c.8-1.1,1.7-2,2.7-2.6,1.1-.6,2.2-1,3.6-1s3,.5,3.9,1.5Z"/>
    <path class="st9" d="M858.8,198c.3.4.7.8,1.2,1l-.5,1.5c-.9-.2-1.5-.5-2-1-.5-.5-.8-1.2-.9-2.2-1.3,2.1-3.3,3.2-5.9,3.2s-3.2-.5-4.3-1.5-1.6-2.4-1.6-4.1.7-3.4,2.1-4.5c1.4-1.1,3.3-1.6,5.7-1.6h3.6v-1.8c0-1.5-.3-2.6-1-3.3-.7-.7-1.8-1-3.3-1s-3.1.4-5.1,1.1l-.5-1.6c2.1-.8,4.1-1.3,5.9-1.3,4.1,0,6.2,2,6.2,6v9.1c0,1,.1,1.7.4,2.1ZM856.3,195.5v-5.2h-3.3c-1.9,0-3.4.4-4.4,1.1s-1.5,1.9-1.5,3.3.3,2.3,1,3c.7.7,1.7,1,2.9,1,2.3,0,4-1.1,5.2-3.3Z"/>
    <path class="st9" d="M866.3,199.6c-.6-.6-.9-1.5-.9-2.7v-23.3l2.1-.3v23.5c0,1.2.5,1.8,1.5,1.8s.9,0,1.3-.3l.6,1.5c-.7.3-1.4.5-2.2.5s-1.8-.3-2.4-.9Z"/>
    <path class="st9" d="M878,173.4c.3.3.4.6.4,1.1s-.1.8-.4,1.1-.7.4-1.2.4-.8-.1-1.1-.4-.4-.6-.4-1.1.1-.8.4-1.1.7-.4,1.1-.4.9.1,1.2.4ZM878,181.3v18.8h-2.1v-18.8h2.1Z"/>
    <path class="st9" d="M895.7,181.3v1.6l-10.5,15.4h10.4l-.2,1.8h-12.7v-1.6l10.5-15.4h-9.6v-1.8h12.1Z"/>
    <path class="st9" d="M913.8,191.5h-12.6c.1,2.4.7,4.3,1.7,5.5,1,1.2,2.4,1.8,4.1,1.8s1.9-.1,2.6-.5c.8-.3,1.6-.8,2.5-1.4l1,1.3c-.9.8-1.9,1.3-2.9,1.7s-2.1.6-3.3.6c-2.5,0-4.5-.9-5.9-2.6s-2.1-4.1-2.1-7.1.3-3.7.9-5.2c.6-1.5,1.5-2.7,2.6-3.5,1.1-.8,2.5-1.2,4-1.2,2.4,0,4.2.8,5.5,2.4s1.9,3.8,1.9,6.7,0,1,0,1.5ZM911.9,189.3c0-2.1-.4-3.8-1.3-5-.9-1.2-2.2-1.8-3.9-1.8s-2.8.6-3.8,1.8c-1,1.2-1.5,3-1.6,5.5h10.6v-.5Z"/>
    <path class="st9" d="M933.3,173.6v26.5h-1.8l-.3-2.9c-1.3,2.2-3.2,3.3-5.7,3.3s-3.9-.9-5.2-2.6c-1.3-1.7-1.9-4.1-1.9-7.1s.3-3.7.9-5.1c.6-1.5,1.4-2.7,2.6-3.5s2.4-1.3,3.9-1.3,3.9.9,5.3,2.6v-10.1l2.1.3ZM928.9,197.9c.8-.6,1.6-1.5,2.2-2.6v-9.8c-1.3-1.9-3-2.8-4.9-2.8s-3.1.7-4,2.1c-1,1.4-1.5,3.4-1.5,6,0,2.6.5,4.6,1.4,6,.9,1.4,2.2,2.1,3.8,2.1s2.2-.3,3-.9Z"/>
    <path class="st9" d="M959.5,199.3c-1.2.8-2.5,1.2-4,1.2s-2.6-.4-3.4-1.3c-.8-.9-1.2-2.1-1.2-3.7v-12.6h-3.2v-1.7h3.2v-4.5l2.1-.3v4.8h4.9l-.3,1.7h-4.6v12.5c0,1.1.2,1.9.7,2.5.5.5,1.2.8,2.1.8s1.9-.3,2.9-.8l.8,1.4Z"/>
    <path class="st9" d="M975.4,182.4c.9,1,1.4,2.4,1.4,4.2v13.5h-2.1v-13.2c0-2.9-1.2-4.4-3.6-4.4s-2.3.3-3.2,1-1.8,1.6-2.6,2.9v13.6h-2.1v-26.5l2.1-.3v11.1c1.7-2.4,3.8-3.5,6.2-3.5s3,.5,3.9,1.5Z"/>
    <path class="st9" d="M997.5,191.5h-12.6c.1,2.4.7,4.3,1.7,5.5,1,1.2,2.4,1.8,4.1,1.8s1.9-.1,2.6-.5c.8-.3,1.6-.8,2.5-1.4l1,1.3c-.9.8-1.9,1.3-2.9,1.7-1,.4-2.1.6-3.3.6-2.5,0-4.5-.9-5.9-2.6-1.4-1.7-2.1-4.1-2.1-7.1s.3-3.7.9-5.2c.6-1.5,1.5-2.7,2.6-3.5,1.1-.8,2.5-1.2,4-1.2,2.4,0,4.2.8,5.5,2.4s1.9,3.8,1.9,6.7,0,1,0,1.5ZM995.6,189.3c0-2.1-.4-3.8-1.3-5-.9-1.2-2.2-1.8-3.9-1.8s-2.8.6-3.8,1.8c-1,1.2-1.5,3-1.6,5.5h10.6v-.5Z"/>
    <path class="st9" d="M1012.7,181.1l-.4,2c-.5-.1-1.1-.2-1.7-.2-1.3,0-2.3.5-3.1,1.4-.8.9-1.4,2.4-2,4.3v11.5h-2.1v-18.8h1.8l.2,4.2c.5-1.6,1.2-2.7,2.1-3.5s2-1.1,3.3-1.1,1.4,0,1.9.2Z"/>
    <path class="st9" d="M1027.8,198c.3.4.7.8,1.2,1l-.5,1.5c-.9-.2-1.5-.5-2-1-.5-.5-.8-1.2-.9-2.2-1.3,2.1-3.3,3.2-5.9,3.2s-3.2-.5-4.3-1.5-1.6-2.4-1.6-4.1.7-3.4,2.1-4.5,3.3-1.6,5.7-1.6h3.6v-1.8c0-1.5-.3-2.6-1-3.3-.7-.7-1.8-1-3.3-1s-3.1.4-5.1,1.1l-.5-1.6c2.1-.8,4.1-1.3,5.9-1.3,4.1,0,6.2,2,6.2,6v9.1c0,1,.1,1.7.4,2.1ZM1025.3,195.5v-5.2h-3.3c-1.9,0-3.4.4-4.4,1.1-1,.7-1.5,1.9-1.5,3.3s.3,2.3,1,3,1.7,1,2.9,1c2.3,0,4-1.1,5.2-3.3Z"/>
    <path class="st9" d="M1047.9,183.4c1.1,1.7,1.7,4.1,1.7,7.2s-.6,5.4-1.9,7.2c-1.2,1.8-3,2.7-5.3,2.7s-2.1-.2-3.1-.7c-.9-.5-1.7-1.1-2.3-1.9v9.3l-2.1.3v-26.2h1.8l.2,2.7c.7-1,1.5-1.8,2.5-2.3,1-.6,2.1-.8,3.3-.8,2.3,0,4,.8,5.1,2.5ZM1046,196.7c.9-1.4,1.4-3.4,1.4-6.1,0-5.3-1.7-8-5-8s-2.1.3-2.9.9c-.8.6-1.6,1.4-2.4,2.4v10c1.2,1.9,2.9,2.9,5,2.9s3-.7,4-2.1Z"/>
    <path class="st9" d="M1061.9,200.2c-.5,1.5-1.1,2.7-1.7,3.6-.6.9-1.4,1.7-2.3,2.3s-2.2,1.1-3.7,1.3l-.2-1.6c1.2-.3,2.2-.7,2.9-1.2.7-.5,1.3-1,1.7-1.7.4-.7.8-1.6,1.3-2.9h-.7l-6.6-18.8h2.3l5.7,17.3,5.6-17.3h2.2l-6.4,18.9Z"/>
  </g>
  <g class="st8">
    <path class="st9" d="M860.4,131.2l-.6,4.5h-6.2v20.4h-5.9v-20.4h-6.4v-4.5h19.1Z"/>
    <path class="st9" d="M871.8,156.1c-.8,2.5-2,4.4-3.8,5.7-1.7,1.3-4.1,2.1-7,2.2l-.6-4c1.8-.2,3.2-.6,4.1-1.2.9-.6,1.6-1.5,2.1-2.8h-1.9l-5.8-19.1h6l3.4,15.5,3.7-15.5h5.9l-6.1,19.2Z"/>
    <path class="st9" d="M896.1,139c1.2,1.8,1.8,4.3,1.8,7.5s-.3,3.7-.9,5.3c-.6,1.5-1.5,2.8-2.6,3.6s-2.5,1.3-4,1.3-3.5-.7-4.6-2v8.7l-5.7.6v-27.1h5l.3,2.1c.7-.9,1.6-1.6,2.6-2.1,1-.4,1.9-.7,3-.7,2.4,0,4.2.9,5.4,2.7ZM891.9,146.6c0-2.3-.3-3.8-.8-4.7-.5-.9-1.3-1.3-2.3-1.3s-1.3.2-1.8.6c-.6.4-1.1.9-1.5,1.7v8.1c.8,1.1,1.7,1.7,2.9,1.7,2.3,0,3.4-2,3.4-6Z"/>
    <path class="st9" d="M917.9,148.2h-11.8c.2,1.6.6,2.7,1.4,3.4s1.7,1,3,1,1.5-.1,2.2-.4c.7-.3,1.5-.7,2.3-1.3l2.3,3.2c-2.2,1.8-4.7,2.7-7.5,2.7s-5.5-.9-7.1-2.7c-1.7-1.8-2.5-4.3-2.5-7.3s.3-3.7,1-5.2c.7-1.5,1.7-2.8,3.1-3.7,1.3-.9,3-1.3,4.8-1.3,2.8,0,4.9.9,6.5,2.6,1.6,1.7,2.3,4.1,2.3,7.2s0,1.5-.1,2.1ZM912.5,144.5c0-2.9-1.1-4.4-3.1-4.4s-1.7.4-2.3,1.1-.9,1.9-1,3.6h6.4v-.3Z"/>
    <path class="st9" d="M943,156.1l-1.3-5.4h-7.3l-1.3,5.4h-6.1l7.5-24.9h7.2l7.5,24.9h-6.3ZM935.5,146.5h5.3l-2.6-11-2.6,11Z"/>
  </g>
  <g>
    <g class="st8">
      <path class="st15" d="M748.3,395.4c1.1,1.7,1.7,4.1,1.7,7.2s-.6,5.4-1.9,7.2c-1.2,1.8-3,2.7-5.3,2.7s-2.1-.2-3.1-.7c-.9-.5-1.7-1.1-2.3-1.9v9.3l-2.1.3v-26.2h1.8l.2,2.7c.7-1,1.5-1.8,2.5-2.3,1-.6,2.1-.8,3.3-.8,2.3,0,4,.8,5.1,2.5ZM746.4,408.7c.9-1.4,1.4-3.4,1.4-6.1,0-5.3-1.7-8-5-8s-2.1.3-2.9.9c-.8.6-1.6,1.4-2.4,2.4v10c1.2,1.9,2.9,2.9,5,2.9s3-.7,4-2.1Z"/>
      <path class="st15" d="M769.6,403.5h-12.6c.1,2.4.7,4.3,1.7,5.5,1,1.2,2.4,1.8,4.1,1.8s1.9-.1,2.6-.5c.8-.3,1.6-.8,2.5-1.4l1,1.3c-.9.8-1.9,1.3-2.9,1.7-1,.4-2.1.6-3.3.6-2.5,0-4.5-.9-5.9-2.6-1.4-1.7-2.1-4.1-2.1-7.1s.3-3.7.9-5.2c.6-1.5,1.5-2.7,2.6-3.5,1.1-.8,2.5-1.2,4-1.2,2.4,0,4.2.8,5.5,2.4s1.9,3.8,1.9,6.7,0,1,0,1.5ZM767.7,401.3c0-2.1-.4-3.8-1.3-5-.9-1.2-2.2-1.8-3.9-1.8s-2.8.6-3.8,1.8c-1,1.2-1.5,3-1.6,5.5h10.6v-.5Z"/>
      <path class="st15" d="M784.8,393.1l-.4,2c-.5-.1-1.1-.2-1.7-.2-1.3,0-2.3.5-3.1,1.4-.8.9-1.4,2.4-2,4.3v11.5h-2.1v-18.8h1.8l.2,4.2c.5-1.6,1.2-2.7,2.1-3.5.9-.8,2-1.1,3.3-1.1s1.4,0,1.9.2Z"/>
      <path class="st15" d="M796.2,393.4c1,.3,1.9.9,2.8,1.6l-1,1.4c-.9-.6-1.7-1-2.4-1.3-.8-.3-1.6-.4-2.5-.4s-2.3.3-3,.9c-.8.6-1.2,1.3-1.2,2.3s.3,1.6,1,2.1c.7.5,1.9,1,3.6,1.4,2.1.6,3.7,1.2,4.6,2.1.9.8,1.4,2,1.4,3.6s-.6,3-1.9,4c-1.3,1-2.9,1.5-4.9,1.5s-2.7-.2-3.8-.6c-1.1-.4-2.1-1-3-1.8l1.2-1.3c.8.7,1.7,1.2,2.6,1.5.9.3,1.9.5,3,.5s2.5-.3,3.4-1c.9-.6,1.3-1.5,1.3-2.6s-.1-1.4-.4-1.9c-.3-.5-.8-.9-1.5-1.2-.7-.3-1.7-.7-3.1-1.1-2-.5-3.4-1.2-4.3-2-.9-.8-1.3-1.8-1.3-3.2s.3-1.8.8-2.5c.6-.8,1.3-1.3,2.2-1.8s2-.6,3.2-.6,2.2.2,3.2.5Z"/>
      <path class="st15" d="M817.5,395.4c1.4,1.7,2.1,4.1,2.1,7.2s-.7,5.5-2.1,7.2c-1.4,1.8-3.4,2.6-5.9,2.6s-4.4-.9-5.8-2.6-2.1-4.1-2.1-7.2.3-3.7,1-5.2c.6-1.5,1.6-2.6,2.8-3.4s2.6-1.2,4.2-1.2c2.5,0,4.4.9,5.9,2.6ZM807.4,396.7c-1,1.4-1.5,3.4-1.5,6s.5,4.6,1.5,6c1,1.4,2.4,2.1,4.2,2.1s3.2-.7,4.3-2.1c1-1.4,1.5-3.4,1.5-6s-.5-4.6-1.5-6c-1-1.4-2.4-2-4.3-2s-3.2.7-4.2,2.1Z"/>
      <path class="st15" d="M837.9,394.4c.9,1,1.4,2.4,1.4,4.2v13.5h-2.1v-13.2c0-1.5-.3-2.6-.9-3.3-.6-.7-1.5-1-2.7-1s-2.3.3-3.2,1-1.8,1.6-2.6,2.9v13.6h-2.1v-18.8h1.8l.2,3.2c.8-1.1,1.7-2,2.7-2.6,1.1-.6,2.2-1,3.6-1s3,.5,3.9,1.5Z"/>
      <path class="st15" d="M858.8,410c.3.4.7.8,1.2,1l-.5,1.5c-.9-.2-1.5-.5-2-1-.5-.5-.8-1.2-.9-2.2-1.3,2.1-3.3,3.2-5.9,3.2s-3.2-.5-4.3-1.5-1.6-2.4-1.6-4.1.7-3.4,2.1-4.5c1.4-1.1,3.3-1.6,5.7-1.6h3.6v-1.8c0-1.5-.3-2.6-1-3.3-.7-.7-1.8-1-3.3-1s-3.1.4-5.1,1.1l-.5-1.6c2.1-.8,4.1-1.3,5.9-1.3,4.1,0,6.2,2,6.2,6v9.1c0,1,.1,1.7.4,2.1ZM856.3,407.5v-5.2h-3.3c-1.9,0-3.4.4-4.4,1.1s-1.5,1.9-1.5,3.3.3,2.3,1,3c.7.7,1.7,1,2.9,1,2.3,0,4-1.1,5.2-3.3Z"/>
      <path class="st15" d="M866.3,411.6c-.6-.6-.9-1.5-.9-2.7v-23.3l2.1-.3v23.5c0,1.2.5,1.8,1.5,1.8s.9,0,1.3-.3l.6,1.5c-.7.3-1.4.5-2.2.5s-1.8-.3-2.4-.9Z"/>
      <path class="st15" d="M878,385.4c.3.3.4.6.4,1.1s-.1.8-.4,1.1-.7.4-1.2.4-.8-.1-1.1-.4-.4-.6-.4-1.1.1-.8.4-1.1.7-.4,1.1-.4.9.1,1.2.4ZM878,393.3v18.8h-2.1v-18.8h2.1Z"/>
      <path class="st15" d="M895.7,393.3v1.6l-10.5,15.4h10.4l-.2,1.8h-12.7v-1.6l10.5-15.4h-9.6v-1.8h12.1Z"/>
      <path class="st15" d="M913.8,403.5h-12.6c.1,2.4.7,4.3,1.7,5.5,1,1.2,2.4,1.8,4.1,1.8s1.9-.1,2.6-.5c.8-.3,1.6-.8,2.5-1.4l1,1.3c-.9.8-1.9,1.3-2.9,1.7s-2.1.6-3.3.6c-2.5,0-4.5-.9-5.9-2.6s-2.1-4.1-2.1-7.1.3-3.7.9-5.2c.6-1.5,1.5-2.7,2.6-3.5,1.1-.8,2.5-1.2,4-1.2,2.4,0,4.2.8,5.5,2.4s1.9,3.8,1.9,6.7,0,1,0,1.5ZM911.9,401.3c0-2.1-.4-3.8-1.3-5-.9-1.2-2.2-1.8-3.9-1.8s-2.8.6-3.8,1.8c-1,1.2-1.5,3-1.6,5.5h10.6v-.5Z"/>
      <path class="st15" d="M933.3,385.6v26.5h-1.8l-.3-2.9c-1.3,2.2-3.2,3.3-5.7,3.3s-3.9-.9-5.2-2.6c-1.3-1.7-1.9-4.1-1.9-7.1s.3-3.7.9-5.1c.6-1.5,1.4-2.7,2.6-3.5s2.4-1.3,3.9-1.3,3.9.9,5.3,2.6v-10.1l2.1.3ZM928.9,409.9c.8-.6,1.6-1.5,2.2-2.6v-9.8c-1.3-1.9-3-2.8-4.9-2.8s-3.1.7-4,2.1c-1,1.4-1.5,3.4-1.5,6,0,2.6.5,4.6,1.4,6,.9,1.4,2.2,2.1,3.8,2.1s2.2-.3,3-.9Z"/>
      <path class="st15" d="M959.5,411.3c-1.2.8-2.5,1.2-4,1.2s-2.6-.4-3.4-1.3c-.8-.9-1.2-2.1-1.2-3.7v-12.6h-3.2v-1.7h3.2v-4.5l2.1-.3v4.8h4.9l-.3,1.7h-4.6v12.5c0,1.1.2,1.9.7,2.5.5.5,1.2.8,2.1.8s1.9-.3,2.9-.8l.8,1.4Z"/>
      <path class="st15" d="M975.4,394.4c.9,1,1.4,2.4,1.4,4.2v13.5h-2.1v-13.2c0-2.9-1.2-4.4-3.6-4.4s-2.3.3-3.2,1-1.8,1.6-2.6,2.9v13.6h-2.1v-26.5l2.1-.3v11.1c1.7-2.4,3.8-3.5,6.2-3.5s3,.5,3.9,1.5Z"/>
      <path class="st15" d="M997.5,403.5h-12.6c.1,2.4.7,4.3,1.7,5.5,1,1.2,2.4,1.8,4.1,1.8s1.9-.1,2.6-.5c.8-.3,1.6-.8,2.5-1.4l1,1.3c-.9.8-1.9,1.3-2.9,1.7-1,.4-2.1.6-3.3.6-2.5,0-4.5-.9-5.9-2.6-1.4-1.7-2.1-4.1-2.1-7.1s.3-3.7.9-5.2c.6-1.5,1.5-2.7,2.6-3.5,1.1-.8,2.5-1.2,4-1.2,2.4,0,4.2.8,5.5,2.4s1.9,3.8,1.9,6.7,0,1,0,1.5ZM995.6,401.3c0-2.1-.4-3.8-1.3-5-.9-1.2-2.2-1.8-3.9-1.8s-2.8.6-3.8,1.8c-1,1.2-1.5,3-1.6,5.5h10.6v-.5Z"/>
      <path class="st15" d="M1012.7,393.1l-.4,2c-.5-.1-1.1-.2-1.7-.2-1.3,0-2.3.5-3.1,1.4-.8.9-1.4,2.4-2,4.3v11.5h-2.1v-18.8h1.8l.2,4.2c.5-1.6,1.2-2.7,2.1-3.5s2-1.1,3.3-1.1,1.4,0,1.9.2Z"/>
      <path class="st15" d="M1027.8,410c.3.4.7.8,1.2,1l-.5,1.5c-.9-.2-1.5-.5-2-1-.5-.5-.8-1.2-.9-2.2-1.3,2.1-3.3,3.2-5.9,3.2s-3.2-.5-4.3-1.5-1.6-2.4-1.6-4.1.7-3.4,2.1-4.5,3.3-1.6,5.7-1.6h3.6v-1.8c0-1.5-.3-2.6-1-3.3-.7-.7-1.8-1-3.3-1s-3.1.4-5.1,1.1l-.5-1.6c2.1-.8,4.1-1.3,5.9-1.3,4.1,0,6.2,2,6.2,6v9.1c0,1,.1,1.7.4,2.1ZM1025.3,407.5v-5.2h-3.3c-1.9,0-3.4.4-4.4,1.1-1,.7-1.5,1.9-1.5,3.3s.3,2.3,1,3,1.7,1,2.9,1c2.3,0,4-1.1,5.2-3.3Z"/>
      <path class="st15" d="M1047.9,395.4c1.1,1.7,1.7,4.1,1.7,7.2s-.6,5.4-1.9,7.2c-1.2,1.8-3,2.7-5.3,2.7s-2.1-.2-3.1-.7c-.9-.5-1.7-1.1-2.3-1.9v9.3l-2.1.3v-26.2h1.8l.2,2.7c.7-1,1.5-1.8,2.5-2.3,1-.6,2.1-.8,3.3-.8,2.3,0,4,.8,5.1,2.5ZM1046,408.7c.9-1.4,1.4-3.4,1.4-6.1,0-5.3-1.7-8-5-8s-2.1.3-2.9.9c-.8.6-1.6,1.4-2.4,2.4v10c1.2,1.9,2.9,2.9,5,2.9s3-.7,4-2.1Z"/>
      <path class="st15" d="M1061.9,412.2c-.5,1.5-1.1,2.7-1.7,3.6-.6.9-1.4,1.7-2.3,2.3s-2.2,1.1-3.7,1.3l-.2-1.6c1.2-.3,2.2-.7,2.9-1.2.7-.5,1.3-1,1.7-1.7.4-.7.8-1.6,1.3-2.9h-.7l-6.6-18.8h2.3l5.7,17.3,5.6-17.3h2.2l-6.4,18.9Z"/>
    </g>
    <g class="st8">
      <path class="st15" d="M859.9,343.2l-.6,4.5h-6.2v20.4h-5.9v-20.4h-6.4v-4.5h19.1Z"/>
      <path class="st15" d="M871.3,368.1c-.8,2.5-2,4.4-3.8,5.7-1.7,1.3-4.1,2.1-7,2.2l-.6-4c1.8-.2,3.2-.6,4.1-1.2.9-.6,1.6-1.5,2.1-2.8h-1.9l-5.8-19.1h6l3.4,15.5,3.7-15.5h5.9l-6.1,19.2Z"/>
      <path class="st15" d="M895.6,351c1.2,1.8,1.8,4.3,1.8,7.5s-.3,3.7-.9,5.3c-.6,1.5-1.5,2.8-2.6,3.6s-2.5,1.3-4,1.3-3.5-.7-4.6-2v8.7l-5.7.6v-27.1h5l.3,2.1c.7-.9,1.6-1.6,2.6-2.1,1-.4,1.9-.7,3-.7,2.4,0,4.2.9,5.4,2.7ZM891.4,358.6c0-2.3-.3-3.8-.8-4.7-.5-.9-1.3-1.3-2.3-1.3s-1.3.2-1.8.6c-.6.4-1.1.9-1.5,1.7v8.1c.8,1.1,1.7,1.7,2.9,1.7,2.3,0,3.4-2,3.4-6Z"/>
      <path class="st15" d="M917.4,360.2h-11.8c.2,1.6.6,2.7,1.4,3.4s1.7,1,3,1,1.5-.1,2.2-.4c.7-.3,1.5-.7,2.3-1.3l2.3,3.2c-2.2,1.8-4.7,2.7-7.5,2.7s-5.5-.9-7.1-2.7c-1.7-1.8-2.5-4.3-2.5-7.3s.3-3.7,1-5.2c.7-1.5,1.7-2.8,3.1-3.7,1.3-.9,3-1.3,4.8-1.3,2.8,0,4.9.9,6.5,2.6,1.6,1.7,2.3,4.1,2.3,7.2s0,1.5-.1,2.1ZM912,356.5c0-2.9-1.1-4.4-3.1-4.4s-1.7.4-2.3,1.1-.9,1.9-1,3.6h6.4v-.3Z"/>
      <path class="st15" d="M946.7,356.7c1,.9,1.6,2.3,1.6,4.1,0,2.7-1,4.5-2.9,5.6s-4.6,1.6-8,1.6h-8v-24.9h7.1c3.5,0,6.2.5,8,1.5,1.8,1,2.8,2.6,2.8,4.9s-.4,2.6-1.3,3.5c-.9.9-2,1.5-3.3,1.8,1.7.3,3,.9,4,1.8ZM935.3,347.3v5.8h2.2c2.5,0,3.7-1,3.7-3s-.3-1.7-1-2.1-1.7-.6-3.2-.6h-1.7ZM941,363.1c.8-.5,1.2-1.3,1.2-2.6,0-2.3-1.4-3.5-4.3-3.5h-2.6v6.8h2.2c1.6,0,2.7-.2,3.5-.7Z"/>
    </g>
  </g>
  <g>
    <g class="st8">
      <path class="st18" d="M748.3,603.4c1.1,1.7,1.7,4.1,1.7,7.2s-.6,5.4-1.9,7.2c-1.2,1.8-3,2.7-5.3,2.7s-2.1-.2-3.1-.7c-.9-.5-1.7-1.1-2.3-1.9v9.3l-2.1.3v-26.2h1.8l.2,2.7c.7-1,1.5-1.8,2.5-2.3,1-.6,2.1-.8,3.3-.8,2.3,0,4,.8,5.1,2.5ZM746.4,616.7c.9-1.4,1.4-3.4,1.4-6.1,0-5.3-1.7-8-5-8s-2.1.3-2.9.9c-.8.6-1.6,1.4-2.4,2.4v10c1.2,1.9,2.9,2.9,5,2.9s3-.7,4-2.1Z"/>
      <path class="st18" d="M769.6,611.5h-12.6c.1,2.4.7,4.3,1.7,5.5,1,1.2,2.4,1.8,4.1,1.8s1.9-.1,2.6-.5c.8-.3,1.6-.8,2.5-1.4l1,1.3c-.9.8-1.9,1.3-2.9,1.7-1,.4-2.1.6-3.3.6-2.5,0-4.5-.9-5.9-2.6-1.4-1.7-2.1-4.1-2.1-7.1s.3-3.7.9-5.2c.6-1.5,1.5-2.7,2.6-3.5,1.1-.8,2.5-1.2,4-1.2,2.4,0,4.2.8,5.5,2.4s1.9,3.8,1.9,6.7,0,1,0,1.5ZM767.7,609.3c0-2.1-.4-3.8-1.3-5-.9-1.2-2.2-1.8-3.9-1.8s-2.8.6-3.8,1.8c-1,1.2-1.5,3-1.6,5.5h10.6v-.5Z"/>
      <path class="st18" d="M784.8,601.1l-.4,2c-.5-.1-1.1-.2-1.7-.2-1.3,0-2.3.5-3.1,1.4-.8.9-1.4,2.4-2,4.3v11.5h-2.1v-18.8h1.8l.2,4.2c.5-1.6,1.2-2.7,2.1-3.5.9-.8,2-1.1,3.3-1.1s1.4,0,1.9.2Z"/>
      <path class="st18" d="M796.2,601.4c1,.3,1.9.9,2.8,1.6l-1,1.4c-.9-.6-1.7-1-2.4-1.3-.8-.3-1.6-.4-2.5-.4s-2.3.3-3,.9c-.8.6-1.2,1.3-1.2,2.3s.3,1.6,1,2.1c.7.5,1.9,1,3.6,1.4,2.1.6,3.7,1.2,4.6,2.1.9.8,1.4,2,1.4,3.6s-.6,3-1.9,4c-1.3,1-2.9,1.5-4.9,1.5s-2.7-.2-3.8-.6c-1.1-.4-2.1-1-3-1.8l1.2-1.3c.8.7,1.7,1.2,2.6,1.5.9.3,1.9.5,3,.5s2.5-.3,3.4-1c.9-.6,1.3-1.5,1.3-2.6s-.1-1.4-.4-1.9c-.3-.5-.8-.9-1.5-1.2-.7-.3-1.7-.7-3.1-1.1-2-.5-3.4-1.2-4.3-2-.9-.8-1.3-1.8-1.3-3.2s.3-1.8.8-2.5c.6-.8,1.3-1.3,2.2-1.8s2-.6,3.2-.6,2.2.2,3.2.5Z"/>
      <path class="st18" d="M817.5,603.4c1.4,1.7,2.1,4.1,2.1,7.2s-.7,5.5-2.1,7.2c-1.4,1.8-3.4,2.6-5.9,2.6s-4.4-.9-5.8-2.6-2.1-4.1-2.1-7.2.3-3.7,1-5.2c.6-1.5,1.6-2.6,2.8-3.4s2.6-1.2,4.2-1.2c2.5,0,4.4.9,5.9,2.6ZM807.4,604.7c-1,1.4-1.5,3.4-1.5,6s.5,4.6,1.5,6c1,1.4,2.4,2.1,4.2,2.1s3.2-.7,4.3-2.1c1-1.4,1.5-3.4,1.5-6s-.5-4.6-1.5-6c-1-1.4-2.4-2-4.3-2s-3.2.7-4.2,2.1Z"/>
      <path class="st18" d="M837.9,602.4c.9,1,1.4,2.4,1.4,4.2v13.5h-2.1v-13.2c0-1.5-.3-2.6-.9-3.3-.6-.7-1.5-1-2.7-1s-2.3.3-3.2,1-1.8,1.6-2.6,2.9v13.6h-2.1v-18.8h1.8l.2,3.2c.8-1.1,1.7-2,2.7-2.6,1.1-.6,2.2-1,3.6-1s3,.5,3.9,1.5Z"/>
      <path class="st18" d="M858.8,618c.3.4.7.8,1.2,1l-.5,1.5c-.9-.2-1.5-.5-2-1-.5-.5-.8-1.2-.9-2.2-1.3,2.1-3.3,3.2-5.9,3.2s-3.2-.5-4.3-1.5-1.6-2.4-1.6-4.1.7-3.4,2.1-4.5c1.4-1.1,3.3-1.6,5.7-1.6h3.6v-1.8c0-1.5-.3-2.6-1-3.3-.7-.7-1.8-1-3.3-1s-3.1.4-5.1,1.1l-.5-1.6c2.1-.8,4.1-1.3,5.9-1.3,4.1,0,6.2,2,6.2,6v9.1c0,1,.1,1.7.4,2.1ZM856.3,615.5v-5.2h-3.3c-1.9,0-3.4.4-4.4,1.1s-1.5,1.9-1.5,3.3.3,2.3,1,3c.7.7,1.7,1,2.9,1,2.3,0,4-1.1,5.2-3.3Z"/>
      <path class="st18" d="M866.3,619.6c-.6-.6-.9-1.5-.9-2.7v-23.3l2.1-.3v23.5c0,1.2.5,1.8,1.5,1.8s.9,0,1.3-.3l.6,1.5c-.7.3-1.4.5-2.2.5s-1.8-.3-2.4-.9Z"/>
      <path class="st18" d="M878,593.4c.3.3.4.6.4,1.1s-.1.8-.4,1.1-.7.4-1.2.4-.8-.1-1.1-.4-.4-.6-.4-1.1.1-.8.4-1.1.7-.4,1.1-.4.9.1,1.2.4ZM878,601.3v18.8h-2.1v-18.8h2.1Z"/>
      <path class="st18" d="M895.7,601.3v1.6l-10.5,15.4h10.4l-.2,1.8h-12.7v-1.6l10.5-15.4h-9.6v-1.8h12.1Z"/>
      <path class="st18" d="M913.8,611.5h-12.6c.1,2.4.7,4.3,1.7,5.5,1,1.2,2.4,1.8,4.1,1.8s1.9-.1,2.6-.5c.8-.3,1.6-.8,2.5-1.4l1,1.3c-.9.8-1.9,1.3-2.9,1.7s-2.1.6-3.3.6c-2.5,0-4.5-.9-5.9-2.6s-2.1-4.1-2.1-7.1.3-3.7.9-5.2c.6-1.5,1.5-2.7,2.6-3.5,1.1-.8,2.5-1.2,4-1.2,2.4,0,4.2.8,5.5,2.4s1.9,3.8,1.9,6.7,0,1,0,1.5ZM911.9,609.3c0-2.1-.4-3.8-1.3-5-.9-1.2-2.2-1.8-3.9-1.8s-2.8.6-3.8,1.8c-1,1.2-1.5,3-1.6,5.5h10.6v-.5Z"/>
      <path class="st18" d="M933.3,593.6v26.5h-1.8l-.3-2.9c-1.3,2.2-3.2,3.3-5.7,3.3s-3.9-.9-5.2-2.6c-1.3-1.7-1.9-4.1-1.9-7.1s.3-3.7.9-5.1c.6-1.5,1.4-2.7,2.6-3.5s2.4-1.3,3.9-1.3,3.9.9,5.3,2.6v-10.1l2.1.3ZM928.9,617.9c.8-.6,1.6-1.5,2.2-2.6v-9.8c-1.3-1.9-3-2.8-4.9-2.8s-3.1.7-4,2.1c-1,1.4-1.5,3.4-1.5,6,0,2.6.5,4.6,1.4,6,.9,1.4,2.2,2.1,3.8,2.1s2.2-.3,3-.9Z"/>
      <path class="st18" d="M959.5,619.3c-1.2.8-2.5,1.2-4,1.2s-2.6-.4-3.4-1.3c-.8-.9-1.2-2.1-1.2-3.7v-12.6h-3.2v-1.7h3.2v-4.5l2.1-.3v4.8h4.9l-.3,1.7h-4.6v12.5c0,1.1.2,1.9.7,2.5.5.5,1.2.8,2.1.8s1.9-.3,2.9-.8l.8,1.4Z"/>
      <path class="st18" d="M975.4,602.4c.9,1,1.4,2.4,1.4,4.2v13.5h-2.1v-13.2c0-2.9-1.2-4.4-3.6-4.4s-2.3.3-3.2,1-1.8,1.6-2.6,2.9v13.6h-2.1v-26.5l2.1-.3v11.1c1.7-2.4,3.8-3.5,6.2-3.5s3,.5,3.9,1.5Z"/>
      <path class="st18" d="M997.5,611.5h-12.6c.1,2.4.7,4.3,1.7,5.5,1,1.2,2.4,1.8,4.1,1.8s1.9-.1,2.6-.5c.8-.3,1.6-.8,2.5-1.4l1,1.3c-.9.8-1.9,1.3-2.9,1.7-1,.4-2.1.6-3.3.6-2.5,0-4.5-.9-5.9-2.6-1.4-1.7-2.1-4.1-2.1-7.1s.3-3.7.9-5.2c.6-1.5,1.5-2.7,2.6-3.5,1.1-.8,2.5-1.2,4-1.2,2.4,0,4.2.8,5.5,2.4s1.9,3.8,1.9,6.7,0,1,0,1.5ZM995.6,609.3c0-2.1-.4-3.8-1.3-5-.9-1.2-2.2-1.8-3.9-1.8s-2.8.6-3.8,1.8c-1,1.2-1.5,3-1.6,5.5h10.6v-.5Z"/>
      <path class="st18" d="M1012.7,601.1l-.4,2c-.5-.1-1.1-.2-1.7-.2-1.3,0-2.3.5-3.1,1.4-.8.9-1.4,2.4-2,4.3v11.5h-2.1v-18.8h1.8l.2,4.2c.5-1.6,1.2-2.7,2.1-3.5s2-1.1,3.3-1.1,1.4,0,1.9.2Z"/>
      <path class="st18" d="M1027.8,618c.3.4.7.8,1.2,1l-.5,1.5c-.9-.2-1.5-.5-2-1-.5-.5-.8-1.2-.9-2.2-1.3,2.1-3.3,3.2-5.9,3.2s-3.2-.5-4.3-1.5-1.6-2.4-1.6-4.1.7-3.4,2.1-4.5,3.3-1.6,5.7-1.6h3.6v-1.8c0-1.5-.3-2.6-1-3.3-.7-.7-1.8-1-3.3-1s-3.1.4-5.1,1.1l-.5-1.6c2.1-.8,4.1-1.3,5.9-1.3,4.1,0,6.2,2,6.2,6v9.1c0,1,.1,1.7.4,2.1ZM1025.3,615.5v-5.2h-3.3c-1.9,0-3.4.4-4.4,1.1-1,.7-1.5,1.9-1.5,3.3s.3,2.3,1,3,1.7,1,2.9,1c2.3,0,4-1.1,5.2-3.3Z"/>
      <path class="st18" d="M1047.9,603.4c1.1,1.7,1.7,4.1,1.7,7.2s-.6,5.4-1.9,7.2c-1.2,1.8-3,2.7-5.3,2.7s-2.1-.2-3.1-.7c-.9-.5-1.7-1.1-2.3-1.9v9.3l-2.1.3v-26.2h1.8l.2,2.7c.7-1,1.5-1.8,2.5-2.3,1-.6,2.1-.8,3.3-.8,2.3,0,4,.8,5.1,2.5ZM1046,616.7c.9-1.4,1.4-3.4,1.4-6.1,0-5.3-1.7-8-5-8s-2.1.3-2.9.9c-.8.6-1.6,1.4-2.4,2.4v10c1.2,1.9,2.9,2.9,5,2.9s3-.7,4-2.1Z"/>
      <path class="st18" d="M1061.9,620.2c-.5,1.5-1.1,2.7-1.7,3.6-.6.9-1.4,1.7-2.3,2.3s-2.2,1.1-3.7,1.3l-.2-1.6c1.2-.3,2.2-.7,2.9-1.2.7-.5,1.3-1,1.7-1.7.4-.7.8-1.6,1.3-2.9h-.7l-6.6-18.8h2.3l5.7,17.3,5.6-17.3h2.2l-6.4,18.9Z"/>
    </g>
    <g class="st8">
      <path class="st18" d="M860.7,551.2l-.6,4.5h-6.2v20.4h-5.9v-20.4h-6.4v-4.5h19.1Z"/>
      <path class="st18" d="M872.1,576.1c-.8,2.5-2,4.4-3.8,5.7-1.7,1.3-4.1,2.1-7,2.2l-.6-4c1.8-.2,3.2-.6,4-1.2.9-.6,1.6-1.5,2.1-2.8h-1.9l-5.8-19.1h6l3.4,15.5,3.7-15.5h5.9l-6.1,19.2Z"/>
      <path class="st18" d="M896.4,559c1.2,1.8,1.8,4.3,1.8,7.5s-.3,3.7-.9,5.3-1.5,2.8-2.6,3.6c-1.2.9-2.5,1.3-4,1.3s-3.5-.7-4.6-2v8.7l-5.7.6v-27.1h5l.3,2.1c.7-.9,1.6-1.6,2.6-2.1s1.9-.7,3-.7c2.4,0,4.2.9,5.4,2.7ZM892.2,566.6c0-2.3-.3-3.8-.8-4.7-.5-.9-1.3-1.3-2.3-1.3s-1.3.2-1.8.6c-.6.4-1.1.9-1.5,1.7v8.1c.8,1.1,1.7,1.7,2.9,1.7,2.3,0,3.4-2,3.4-6Z"/>
      <path class="st18" d="M918.2,568.2h-11.8c.2,1.6.6,2.7,1.4,3.4.7.6,1.7,1,3,1s1.5-.1,2.2-.4c.7-.3,1.5-.7,2.3-1.3l2.3,3.2c-2.2,1.8-4.7,2.7-7.5,2.7s-5.5-.9-7.1-2.7c-1.7-1.8-2.5-4.3-2.5-7.3s.3-3.7,1-5.2,1.7-2.8,3.1-3.7c1.3-.9,3-1.3,4.8-1.3,2.8,0,4.9.9,6.5,2.6,1.6,1.7,2.3,4.1,2.3,7.2s0,1.5-.1,2.1ZM912.8,564.5c0-2.9-1.1-4.4-3.1-4.4s-1.7.4-2.3,1.1-.9,1.9-1,3.6h6.4v-.3Z"/>
      <path class="st18" d="M944.5,551.2c1.2.5,2.4,1.1,3.4,2.1l-2.8,3.3c-.7-.6-1.5-1-2.2-1.3-.7-.3-1.5-.4-2.3-.4-1.7,0-3,.7-4,2.1s-1.5,3.6-1.5,6.6.5,5.1,1.5,6.5c1,1.4,2.3,2.1,4,2.1s1.7-.2,2.5-.5c.7-.3,1.5-.8,2.4-1.5l2.6,3.4c-.9.9-2.1,1.7-3.4,2.3s-2.8.9-4.4.9c-2.3,0-4.3-.5-6-1.5-1.7-1-3-2.5-4-4.5-.9-2-1.4-4.4-1.4-7.1s.5-5.1,1.5-7c1-2,2.3-3.5,4-4.5,1.7-1,3.7-1.5,5.8-1.5s2.9.2,4.2.7Z"/>
    </g>
  </g>
</svg>