<?xml version="1.0" encoding="UTF-8"?>
<svg id="Capa_1" xmlns="http://www.w3.org/2000/svg" xmlns:xlink="http://www.w3.org/1999/xlink" version="1.1" viewBox="0 0 1078.9 650">
  <!-- Generator: Adobe Illustrator 29.3.1, SVG Export Plug-In . SVG Version: 2.1.0 Build 151)  -->
  <defs>
    <style>
      .st0 {
        fill: #c0d9df;
      }

      .st1 {
        fill: #939393;
      }

      .st2 {
        fill: #679091;
      }

      .st3 {
        stroke: #c93;
      }

      .st3, .st4, .st5 {
        fill: none;
        stroke-miterlimit: 10;
      }

      .st4 {
        stroke: #005372;
      }

      .st6 {
        fill: #4d4d4d;
      }

      .st7 {
        fill: #e0eadf;
      }

      .st8 {
        isolation: isolate;
      }

      .st5 {
        stroke: #fa7f43;
      }

      .st9 {
        fill: #005372;
      }

      .st10 {
        fill: #136f8c;
      }

      .st11 {
        fill: #e55d28;
      }

      .st12 {
        fill: #dcdee0;
      }

      .st13 {
        fill: #fff;
      }

      .st14 {
        fill: #83b1b5;
      }

      .st15 {
        fill: #fa7f43;
      }

      .st16 {
        opacity: .4;
      }

      .st17 {
        fill: #cc6;
      }

      .st18 {
        fill: #c93;
      }

      .st19 {
        fill: #333;
      }

      .st20 {
        fill: #abafb2;
      }

      .st21 {
        fill: #b2af34;
      }
    </style>
  </defs>
  <g>
    <path class="st7" d="M439.2,309.1c-2.7-5.2-5.6-10.7-6.1-16.2-2.2-22.1,4.7-44-1.1-67.1-3.2-12.8,2.9-52.2,1.8-78.7-.7-17.3-7.4-32.3-27.4-35.7-10.1-1.8-17.5-4.4-25.7-10.9-6.1-4.8-8.1-17.6-4.9-24.8,4.3-9.7,12.2-18,11-29.8-.3-2.5,1-5.4-2.6-6.9-.8-.3-.5-3.3-.5-5,.4-24-19.8-37.3-41.7-27.6-9.7,4.3-13.7,12.2-14.7,22.4-.4,4,2,8.4-2.6,12.2-2.9,2.3,1.4,20,4.5,23.2,5.8,5.7,9.6,23.2,6.2,30.5-1,2.1-3,4.2-4.9,5.7-8.4,6.9-15,10.4-25.6,11.8-17.9,2.3-28.6,16.5-28.5,34.6v4.8c1.9,2.8,5.1,53.1,2.2,74.4-3,21.8,2.4,54.3-.9,68.2-1.3,5.7-2.8,5-6.3,10.3-4.4,6.7-5.5,12.5-6.2,17.5-1.1,8.3-.2,13.5,1.4,12.6,1.8-.9,2.7-10.7,4.3-11.9.6,2.1-.4,0-.5,2.1-.4,6.9-1.3,13.8-1.9,20.6-.3,2.4-.2,4.9.4,7.5,6.3-6.1,3.9-15,7-22.1.5,0,1,0,1.6.1-.1,9-.3,18-.3,27,.8,0,1.7.1,2.5.2,3.5-8.3.6-17.7,4.5-26.1.4,7.3.8,14.7,1.1,22,.7.1,1.4,0,2.1.1,4.8-7.4-.5-16.4,3.4-24.3,1.1,5.9,2.1,11.6,3.1,17.4h2.1c.2-2.5.7-5,.7-7.5.2-6.9.3-13.8.2-20.7,0-3.9.2-8.1-.9-11.9-2.8-10.9.7-21.3,1.6-31.9.8-7.4,2-14.8,3.3-22.2,1.9-10.4,1.6-20.8.6-31.4-.9-9,1.2-31,1.7-30.9.4,8.3.8,16.5,1.3,24.8,1.8,25.1-1.8,49.7-4.2,74.5-1.9,20.2-.4,40.7.1,61.1.5,18.8,2.4,37.3,6.9,55.7,1,3.9.4,8.3.4,12.5,0,17.5.3,35,0,52.4-.1,11.6-1.1,23.3-1.4,34.9-.6,21.6,2.6,42.9,7.3,63.8,2.3,10.3,1.6,20-3.5,29.6-3.7,6.7-6.2,13.9-9.2,20.9-4.7,11.2,4.2,17,13.4,17.8.8,0,1.4-.4,2.1-.3,3,0,7.4,1.8,9,.4,3.3-3.3,6.3-7.8,7.3-12.2,1.6-7.4,1.9-15.1,6.3-21.8,1-1.6.9-4.3.6-6.4-3.4-22.7-2-44.9,4.4-66.9,4.2-14.6,2.4-29.8,1-44.5-1.4-15-.8-29.6,2-44.5,2.6-14.2,2.6-29,3.5-43.5,1.3-18.9,2.3-37.8,3.4-56.7,0-1,.6-1.9,2-3,.4,1.8,1,3.5,1.1,5.3,1.5,24.2,2.6,48.4,4.4,72.5.9,11.6,3.2,23.1,4,34.5.8,10.5.8,21.1.6,31.5,0,14-1,28-.3,42,.5,8.6,3.7,17,5.4,25.6,3,15,1.9,30,.4,45.1-.4,4,1.1,8.3,2.1,12.5,1.1,5,2.4,10.2,3.9,15.1,1.1,3.9,2.3,8.1,4.2,11.6,2.4,4.4,5.7,6.2,11.3,4.2,4.5-1.6,9.6-.9,13.9-4.4,3.3-2.6,5-5.4,3.9-9.2-2-6.4-3.7-13.1-7.1-18.8-9.1-14.9-8.8-30.1-4.9-46.3,6.6-26.5,6.4-53.3,4.5-80.4-.6-9.5-.4-18.9-.5-28.4-.1-10.3-.5-20.8.1-31.1.8-10.6,2.8-21.2,3.9-31.8,1.4-12.5,2.9-25,3.3-37.6.6-21.8.8-43.7.1-65.6-.4-11.7-3.9-23.4-4.2-35.2-.4-18.5.5-37,1.1-55.5-.3-.6-.3-1.3.1-1.9,0-.2,1.1,26.1.7,40.2-.2,7.6.8,15.2,1.7,22.7,1.6,13.7,3.5,27.5,5.2,41.1.2,1.6.3,3.2.1,4.9-.8,13.4-1.5,26.7-2.2,40.1-.1,2.2.3,4.4.5,6.7.8.1,1.4.1,2.2.2,1.1-5.8,2.4-11.8,3.5-17.6,3.4,8-1.2,16.7,2.7,24.5.8.1,1.6,0,2.3.1.5-7.4,1.1-14.7,1.7-22.2h1.4c.6,8.6,1.2,17.2,1.8,25.8,1.3.2,1,.2,2.3.3,3.5-8.8-.6-18.3,2.7-27.5,1.5,7.6,3.2,15.3,4.7,22.8.8-.2,1.7-.2,2.6-.3.1-2.1.4-4.3.2-6.4-.6-7.6-1.5-15.2-1.9-22.8h0c0-1.9,2,13.3,2.4,13.7,2.5,0,5.4-15.1-2.6-30.2Z"/>
    <path class="st7" d="M18,315.4c9.8-5,11.6-13.2,12.9-22.6,2.3-17,4.7-34.2,7.7-51.1,5.9-33,13.2-65.9,18.2-99.1,2.6-17.3,15.1-29,30.5-32,5.5-1.1,11.3-3.2,16.3-6.1,6.6-3.9,11.7-9.2,12.4-18,.8-9.6-5.4-15.3-10.5-21.2-6.3-7.3-6.9-15.9-5.2-23.6,1-4.4,2-8.8,2.3-13.4.9-14,10.7-23.7,25.1-24.7,16.4-1.1,27.9,6.6,30.5,20.8.8,4.5-1.1,10.5,1.1,13.7,4.7,6.7,3,13.4.9,19.2-2.4,6.6-7.3,12.1-11.3,17.9-4.5,6.6-4.4,15.1.5,21.6,6.4,8.6,15.5,12.2,25.6,14,15.3,2.6,29,14.5,29.5,30.4.1,4,.8,8.2,1.5,12.2,5.2,27.2,10.7,54.3,15.6,81.7,3.9,21.7,7.2,43.6,10.6,65.4.9,5.7,3.7,9.3,8.4,12.6,6.9,4.8,13.1,10.7,20.2,16.6-5.4,2.5-9,0-12.5-2.8-1-.8-2.8-.6-4.2-1-.4,1.4-1.1,2.9-.8,4.2,1.8,6.2,3.9,12.2,5.9,18.4.9,2.6,1.6,5.3,2.4,7.9-.5.1-1.1.4-1.6.6-5.9-4.7-5.5-13-11.2-18.2,1.9,7.8,3.7,15.6,5.5,23.4-1,.3-2,.6-3,.9-2.4-7.3-4.7-14.7-7.1-22.2-.4.1-.9.3-1.3.4,1,6.6,1.9,13.2,2.9,19.8-1,.1-1.9.4-2.8.5-1.9-7.2-3.8-14.2-5.7-21.3-.4,0-.8.1-1.1.3v16.5c-1.3-.8-1.8-1-1.9-1.3-.4-.8-.9-1.4-.9-2.1-1.1-13.4-8.7-25.7-6.3-39.7.4-1.8-.6-3.8-1.3-5.7-2.6-7.7-5.7-15.4-8.2-23.2-4.3-13.1-10.2-26.2-12-39.7-2.4-18.7-7.3-36.3-14.4-53.6-.9-2-2-4.2-3-6.2-.6.1-1.1.3-1.8.4-1.1,13.2-2.1,26.5-3.4,39.7-1.4,15,.8,29.4,7.1,43.4,7.2,15.8,10.2,32.8,9.1,49.9-1.5,22.3-4.4,44.5-7.3,66.6-2,14.9-5.3,29.6-3.2,44.9.8,6.2-.3,12.5-.4,18.8-.1,8.8-.8,17.8,0,26.5,2.6,28.9,1.8,57.6-5,85.9-4.3,17.8-3.8,34.3,6.6,50,2.8,4.2,4.2,9.3,5.7,14.1,1.4,4.4,1.1,8.8-4,10.7-4.4,1.5-9.2,2-13.2,4-5.2,2.6-8.6.6-10.8-3.3-2.1-3.8-3.4-8.1-4.7-12.4-1.5-4.8-2.6-9.7-3.8-14.6-.9-4-2.9-8.4-2.1-12.2,3.3-17.6,3.4-35,0-52.6-4.2-21.4-4.3-43.1-2.6-64.9.5-6.8.8-13.7,0-20.5-1.8-16.5-4.4-32.9-6.2-49.4-2.1-20.4-3.7-41-5.5-61.4-.3-3.2-.9-6.2-1.4-9.3-.5,0-1,.1-1.5.1-.4,1.6-1,3.4-1.1,5-1.3,15.4-2.4,30.9-3.7,46.3-1.4,16.5-2.1,33.3-4.8,49.7-2.5,15.1-4.4,30.1-3,45.5,1.8,18.7,1,37.2-2.4,55.6-3.3,18-4.5,36.1-.6,54.2.8,3.5.4,7.4-.4,11-1.4,6.4-3.2,12.9-5.4,18.9-1.9,5-4.3,10.2-7.7,14.1-1.3,1.5-6.2,0-9.5-.3-.8,0-1.5.6-2.3.5-8.8-1.3-17.8-6.4-12.6-17.3,3.7-7.7,6.8-15.8,10.7-23.4,3.9-7.9,4.5-16.1,2.8-24.6-6.6-31.6-10.3-63.3-7.7-95.7,1.4-17.1,0-34.4.3-51.7,0-5.4,1.1-11,.5-16.4-2.9-24.2-5.7-48.5-9.3-72.7-3.7-24.6-2-48.7,8.1-71.4,6.2-13.7,7.3-27.5,6.4-41.9-.3-5-.6-10.2-1.1-15.3-.9-8.1-1.9-16.1-2.8-24.2-2.1,1.3-3,2.5-3.5,3.9-7.1,17.8-12.9,35.7-15.1,55.1-1.5,13.5-7.7,26.6-12,39.7-3.3,10.1-7.8,19.8-10.1,30-2.8,12.2-3.7,25-5.5,37.4-.3,1.8-1.4,3.4-2.1,5-.5-.1-1.1-.4-1.6-.5.4-5.3.6-10.6.9-15.9-.4,0-.9-.1-1.4-.1-1.8,7.1-3.7,14.2-5.4,21.3-.9-.1-1.9-.4-2.8-.5,1-6.7,1.9-13.2,2.9-19.9-.4,0-.9-.1-1.3-.1-2.4,7.3-4.8,14.7-7.2,22.2-1-.3-1.9-.6-2.9-.9,1.9-7.9,3.7-15.8,5.5-23.7-6.2,4.8-4.8,14.1-12.5,17.9,0-2.4.8-4.4,1.4-6.6,2.1-6.6,4.4-13,6.3-19.5.4-1.5-.3-3.2-.5-4.8-1.5.5-3.3.6-4.5,1.5-3.4,2.4-6.7,4.8-11.9,2.6,5.9-4.9,10.7-11,17.1-14.6Z"/>
    <path class="st7" d="M467.3,315.4c9.8-5,11.6-13.2,12.9-22.6,2.3-17,4.7-34.2,7.7-51.1,5.9-33,13.2-65.9,18.2-99.1,2.6-17.3,15.1-29,30.5-32,5.5-1.1,11.3-3.2,16.3-6.1,6.6-3.9,11.7-9.2,12.4-18,.8-9.6-5.4-15.3-10.5-21.2-6.3-7.3-6.9-15.9-5.2-23.6,1-4.4,2-8.8,2.3-13.4.9-14,10.7-23.7,25.1-24.7,16.4-1.1,27.9,6.6,30.5,20.8.8,4.5-1.1,10.5,1.1,13.7,4.7,6.7,3,13.4.9,19.2-2.5,6.8-7.5,12.3-11.5,18.1-4.5,6.6-4.4,15.1.5,21.6,6.4,8.6,15.5,12.2,25.6,14,15.3,2.6,29,14.5,29.5,30.4,0,4,.8,8.2,1.5,12.2,5.2,27.2,10.7,54.3,15.6,81.7,3.9,21.7,7.2,43.6,10.6,65.4.9,5.7,3.7,9.3,8.4,12.6,6.9,4.8,13.1,10.7,20.2,16.6-5.4,2.5-9,0-12.5-2.8-1-.8-2.8-.6-4.2-1-.4,1.4-1.1,2.9-.8,4.2,1.8,6.2,3.9,12.2,5.9,18.4.9,2.6,1.6,5.3,2.4,7.9-.5.1-1.1.4-1.6.6-5.9-4.7-5.5-13-11.2-18.2,1.9,7.8,3.7,15.6,5.5,23.4-1,.3-2,.6-3,.9-2.4-7.3-4.7-14.7-7.1-22.2-.4.1-.9.3-1.3.4,1,6.6,1.9,13.2,2.9,19.8-1,.1-1.9.4-2.8.5-1.9-7.2-3.8-14.2-5.7-21.3-.4,0-.8.1-1.1.3v16.5c-1.3-.8-1.8-1-1.9-1.3-.4-.8-.9-1.4-.9-2.1-1.1-13.4-8.7-25.7-6.3-39.7.4-1.8-.6-3.8-1.3-5.7-2.6-7.7-5.7-15.4-8.2-23.2-4.3-13.1-10.2-26.2-12-39.7-2.4-18.7-7.3-36.3-14.4-53.6-.9-2-2-4.2-3-6.2-.6.1-1.1.3-1.8.4-1.1,13.2-2.1,26.5-3.4,39.7-1.4,15,.8,29.4,7.1,43.4,7.2,15.8,10.2,32.8,9.1,49.9-1.5,22.3-4.4,44.5-7.3,66.6-2,14.9-5.3,29.6-3.2,44.9.8,6.2-.3,12.5-.4,18.8,0,8.8-.8,17.8,0,26.5,2.6,28.9,1.8,57.6-5,85.9-4.3,17.8-3.8,34.3,6.6,50,2.8,4.2,4.2,9.3,5.7,14.1,1.4,4.4,1.1,8.8-4,10.7-4.4,1.5-9.2,2-13.2,4-5.2,2.6-8.6.6-10.8-3.3-2.1-3.8-3.4-8.1-4.7-12.4-1.5-4.8-2.6-9.7-3.8-14.6-.9-4-2.9-8.4-2.1-12.2,3.3-17.6,3.4-35,0-52.6-4.2-21.4-4.3-43.1-2.6-64.9.5-6.8.8-13.7,0-20.5-1.8-16.5-4.4-32.9-6.2-49.4-2.1-20.4-3.7-41-5.5-61.4-.3-3.2-.9-6.2-1.4-9.3-.5,0-1,.1-1.5.1-.4,1.6-1,3.4-1.1,5-1.3,15.4-2.4,30.9-3.7,46.3-1.4,16.5-2.1,33.3-4.8,49.7-2.5,15.1-4.4,30.1-3,45.5,1.8,18.7,1,37.2-2.4,55.6-3.3,18-4.5,36.1-.6,54.2.8,3.5.4,7.4-.4,11-1.4,6.4-3.2,12.9-5.4,18.9-1.9,5-4.3,10.2-7.7,14.1-1.3,1.5-6.2,0-9.5-.3-.8,0-1.5.6-2.3.5-8.8-1.3-17.8-6.4-12.6-17.3,3.7-7.7,6.8-15.8,10.7-23.4,3.9-7.9,4.5-16.1,2.8-24.6-6.6-31.6-10.3-63.3-7.7-95.7,1.4-17.1,0-34.4.3-51.7,0-5.4,1.1-11,.5-16.4-2.9-24.2-5.7-48.5-9.3-72.7-3.7-24.6-2-48.7,8.1-71.4,6.2-13.7,7.3-27.5,6.4-41.9-.3-5-.6-10.2-1.1-15.3-.9-8.1-1.9-16.1-2.8-24.2-2.1,1.3-3,2.5-3.5,3.9-7.1,17.8-12.9,35.7-15.1,55.1-1.5,13.5-7.7,26.6-12,39.7-3.3,10.1-7.8,19.8-10.1,30-2.8,12.2-3.7,25-5.5,37.4-.3,1.8-1.4,3.4-2.1,5-.5-.1-1.1-.4-1.6-.5.4-5.3.6-10.6.9-15.9-.4,0-.9-.1-1.4-.1-1.8,7.1-3.7,14.2-5.4,21.3-.9-.1-1.9-.4-2.8-.5,1-6.7,1.9-13.2,2.9-19.9-.4,0-.9-.1-1.3-.1-2.4,7.3-4.8,14.7-7.2,22.2-1-.3-1.9-.6-2.9-.9,1.9-7.9,3.7-15.8,5.5-23.7-6.2,4.8-4.8,14.1-12.5,17.9,0-2.4.8-4.4,1.4-6.6,2.1-6.6,4.4-13,6.3-19.5.4-1.5-.3-3.2-.5-4.8-1.5.5-3.3.6-4.5,1.5-3.4,2.4-6.7,4.8-11.9,2.6,6.1-5.1,10.8-11.2,17.3-14.8Z"/>
    <g>
      <path id="path882" class="st2" d="M126.4,130.1c-.6-3.2-2.1-6.9-3.8-9.7-1.7-2.9-3.7-5.3-5.6-6.4-2.1-1.1-4.3-1-7.5.9-3.2,2-7.5,5.6-11,10.4-3.6,4.7-6.5,10.3-8.1,14-1.7,3.7-2,5.3-2.1,6.5s0,2-.9,6.2c-.9,4.3-2.6,11.8-3.6,16.9-1,5.3-1.2,8-1.2,9.7s.3,2.4,1.7,3.1c1.5.7,4.1,1.6,7.2,1.2,3.1-.3,6.4-1.8,9.6-3.1,3.2-1.2,6.5-2.1,9.1-2.8,2.6-.6,4.3-1,6.5-3.2s4.8-6.6,6.5-12.7c1.7-6,2.6-14,3.1-19.4.6-5.3.7-8.3.1-11.6h0Z"/>
      <path id="path882-7" class="st14" d="M126.4,130.1c-.6-3.2-2.1-6.9-3.8-9.7-1.7-2.9-3.7-5.3-5.6-6.4-2.1-1.1-4.3-1-7.5.9-3.2,2-7.5,5.6-11,10.4-3.6,4.7-6.5,10.3-8.1,14-1.7,3.7-2,5.3-2.1,6.5s0,2,2.2,7.6c2.1,5.6,6.4,15.9,10.2,20.6,3.7,4.7,7.1,3.7,9.4,3.1,2.4-.6,4.3-1,6.5-3.2s4.8-6.6,6.5-12.7,2.6-14,3.1-19.4c.6-5.5.8-8.4.2-11.7h0Z"/>
      <path id="path882-7-9" class="st0" d="M126.4,130.1c-.6-3.2-2.1-6.9-3.8-9.7-1.7-2.9-3.7-5.3-5.6-6.4-2.1-1.1-4.3-1-7.5.9-3.2,2-7.5,5.6-10.3,9.2-2.9,3.4-4.5,6.5-5.8,8.7-1.2,2.2-2,3.8-2.7,6.4-.7,2.6-1.5,5.9,4.1,10.2,5.6,4.1,17.4,8.8,23.7,7.5,6.4-1.6,7.2-9.3,7.7-14.8.7-5.7.8-8.7.2-12Z"/>
      <path id="path882-8" class="st14" d="M135.1,130.1c.6-3.2,2.1-6.9,3.8-9.7,1.7-2.9,3.7-5.3,5.6-6.4,2.1-1.1,4.3-1,7.5.9,3.2,2,7.5,5.6,11,10.4,3.6,4.8,6.5,10.3,8.1,14,1.7,3.7,2,5.3,2.1,6.5s0,2,.9,6.2c.9,4.3,2.6,11.8,3.6,16.9,1,5.3,1.2,8,1.2,9.7s-.3,2.4-1.7,3.1c-1.5.7-4.1,1.6-7.2,1.2-3.1-.3-6.4-1.8-9.6-3.1-3.2-1.2-6.5-2.1-9.1-2.8-2.6-.6-4.3-1-6.5-3.2s-4.8-6.6-6.5-12.7c-1.7-6-2.6-14-3.1-19.4-.6-5.3-.7-8.3-.1-11.6h0Z"/>
      <path id="path882-7-5" class="st0" d="M135.1,130.1c.6-3.2,2.1-6.9,3.8-9.7,1.7-2.9,3.7-5.3,5.6-6.4,2.1-1.1,4.3-1,7.5.9,3.2,2,7.5,5.6,11,10.4,3.6,4.8,6.5,10.3,8,13.6s1.7,4.3,2.1,7.1c.4,2.8,1.1,7.7-1.2,15.8-2.4,8.1-8.1,19.2-11.2,17.7-3.1-1.5-3.8-15.6-6.5-21.5-2.8-5.9-7.7-3.7-10.8-3.8-2.9,0-4.1-2.4-5.3-5.3-1.1-2.8-2.2-6-2.9-9.3-.7-3.3-.7-6.2-.1-9.5h0Z"/>
      <path class="st13" d="M145.5,131.2c-1.6.1-4.1,1-6,1s-3.4-.9-4.9-2.6h.1c-.1-.3-.3-.4-.6-.6-.1-.3-.3-.4-.4-.7.6-.1,1.1-.6,1.1-1.2s-.6-1.2-1.2-1.2h-.2v-.6h.3c.7,0,1.2-.6,1.2-1.2s-.6-1.2-1.2-1.2h-.3v-.6h.3c.7,0,1.2-.6,1.2-1.2s-.6-1.2-1.2-1.2h-.3v-.6h.3c.7,0,1.2-.6,1.2-1.2s-.6-1.2-1.2-1.2h-.3v-.6h.3c.7,0,1.2-.6,1.2-1.2s-.6-1.2-1.2-1.2h-.3v-1h.3c.7,0,1.2-.6,1.2-1.2s-.6-1.2-1.2-1.2h-.3v-.6h.3c.7,0,1.2-.6,1.2-1.2s-.6-1.2-1.2-1.2h-.3.3c.7,0,1.2-.6,1.2-1.2s-.6-1.2-1.2-1.2h-.3v-.6h.3c.7,0,1.2-.6,1.2-1.2s-.6-1.2-1.2-1.2h-.3v-.6s0,0-.1,0h-3.8s-.1,0-.1,0v.6h-.1c-.7,0-1.2.6-1.2,1.2s.6,1.2,1.2,1.2h.3v.6h-.3c-.7,0-1.2.6-1.2,1.2s.6,1.2,1.2,1.2h.3v.6h-.3c-.7,0-1.2.6-1.2,1.2s.6,1.2,1.2,1.2h.3v.6h-.3c-.7,0-1.2.6-1.2,1.2s.6,1.2,1.2,1.2h.3v.6h-.3c-.7,0-1.2.6-1.2,1.2s.6,1.2,1.2,1.2h.3v.6h-.3c-.7,0-1.2.6-1.2,1.2s.6,1.2,1.2,1.2h.3v.6h-.3c-.7,0-1.2.6-1.2,1.2s.6,1.2,1.2,1.2h.3v.6h-.3c-.7,0-1.2.6-1.2,1.2s.6,1.2,1.2,1.2h.3v.6h-.3c-.7,0-1.2.6-1.2,1.2s.6,1.2,1.2,1.2h.3v.3l-.3.3c-.4,0-.9.3-1.1.7h.4c-2,1.7-4.8,2.8-5.8,3.1-1.5.6-2.8.4-4.7.4s-3.8.1-3.8.4c0,.3,2.2.7,4.1,1,1.8.4,3.2.7,3.6,1.6.4.9-.3,2.2-1.5,3.2-1.1.9-2.7,1.2-4.5,1.8s-4.3,1.1-4.3,1.5,2.6,0,3.9.9c1.2.9,1.6,2.7,2,3.8.3,1.1.7,1.5.9.6,0-.9,0-2.9.6-4.3.6-1.5,1.6-2.1,2.1-2.6.6-.4,5.4-5.3,6.2-5.5.7-.4,2.2-1.2,3.6-1.5,1.5-.1,2.7.3,4.4,1.7,1.7,1.5,3.9,3.8,5.5,5.3s2.6,1.7,3.1,1.6c.6-.1.6-.9-.3-2.2-.9-1.5-2.8-3.6-3.1-4.8s1.2-1.6,2.7-2c1.6-.4,3.1-1.1,3.7-1.6.4-.9,0-1.2-1.5-1Z"/>
      <path class="st18" d="M155.2,146.6c-2.9,9.9,9.1,21.5,17.8,17.7,4.7-2,2.4-10.3,1.5-16.1-2.1-10.8-16.7-10.2-19.3-1.6Z"/>
    </g>
    <g>
      <path id="path8821" data-name="path882" class="st2" d="M353.8,130.1c-.6-3.2-2.1-6.9-3.8-9.7-1.7-2.9-3.7-5.3-5.6-6.4-2.1-1.1-4.3-1-7.5.9-3.2,2-7.5,5.6-11,10.4-3.6,4.7-6.5,10.3-8.1,14-1.7,3.7-2,5.3-2.1,6.5s0,2-.9,6.2c-.9,4.1-2.6,11.8-3.6,16.9-1,5.3-1.2,8-1.2,9.7s.3,2.4,1.7,3.1c1.3.8,4.1,1.6,7.2,1.2,3.1-.3,6.4-1.8,9.6-3.1,3.2-1.2,6.5-2.1,9.1-2.8,2.6-.6,4.3-1,6.5-3.2s4.8-6.6,6.5-12.7c1.7-6,2.6-14,3.1-19.4.5-5.3.7-8.3,0-11.6h0Z"/>
      <path id="path882-71" data-name="path882-7" class="st14" d="M353.8,130.1c-.6-3.2-2.1-6.9-3.8-9.7-1.7-2.9-3.7-5.3-5.6-6.4-2.1-1.1-4.3-1-7.5.9-3.2,2-7.5,5.6-11,10.4-3.6,4.7-6.5,10.3-8.1,14-1.7,3.7-2,5.3-2.1,6.5s0,2,2.2,7.6c2.1,5.6,6.4,15.9,10.2,20.6,3.7,4.7,7.1,3.7,9.4,3.1,2.4-.6,4.3-1,6.5-3.2s4.8-6.6,6.5-12.7c1.7-6,2.6-14,3.1-19.4.5-5.5.8-8.4.2-11.7h0Z"/>
      <path id="path882-7-91" data-name="path882-7-9" class="st0" d="M353.8,130.1c-.6-3.2-2.1-6.9-3.8-9.7-1.7-2.9-3.7-5.3-5.6-6.4-2.1-1.1-4.3-1-7.5.9-3.2,2-7.5,5.6-10.3,9.2-2.9,3.4-4.5,6.5-5.8,8.7-1.2,2.2-2,3.8-2.7,6.4-.7,2.6-1.5,5.9,4.1,10.2,5.6,4.1,17.4,8.8,23.7,7.5,6.4-1.6,7.2-9.3,7.7-14.8.6-5.7.8-8.7.2-12Z"/>
      <path id="path882-81" data-name="path882-8" class="st14" d="M362.4,130.1c.6-3.2,2.1-6.9,3.8-9.7,1.7-2.9,3.7-5.3,5.6-6.4,2.1-1.1,4.3-1,7.5.9,3.2,2,7.5,5.6,11,10.4,3.6,4.8,6.5,10.3,8.1,14,1.7,3.7,2,5.3,2.1,6.5s0,2,.9,6.2c.9,4.1,2.6,11.8,3.6,16.9,1,5.3,1.2,8,1.2,9.7s-.3,2.4-1.7,3.1c-1.3.8-4.1,1.6-7.2,1.2-3.1-.3-6.4-1.8-9.6-3.1-3.2-1.2-6.5-2.1-9.1-2.8-2.6-.6-4.3-1-6.5-3.2s-4.8-6.6-6.5-12.7c-1.7-6-2.6-14-3.1-19.4-.5-5.3-.7-8.3,0-11.6h0Z"/>
      <path id="path882-7-51" data-name="path882-7-5" class="st0" d="M362.4,130.1c.6-3.2,2.1-6.9,3.8-9.7,1.7-2.9,3.7-5.3,5.6-6.4,2.1-1.1,4.3-1,7.5.9,3.2,2,7.5,5.6,11,10.4,3.6,4.8,6.5,10.3,8,13.6s1.7,4.3,2.1,7.1,1.1,7.7-1.2,15.8c-2.4,8.1-8.1,19.2-11.2,17.7s-3.8-15.6-6.5-21.5c-2.8-5.9-7.7-3.7-10.8-3.8-2.9,0-4.1-2.4-5.3-5.3-1.1-2.8-2.2-6-2.9-9.3-.7-3.3-.7-6.2-.1-9.5h0Z"/>
      <path class="st13" d="M372.9,131.2c-1.6.1-4.1,1-6,1s-3.4-.9-4.9-2.6h.1c-.1-.3-.3-.4-.6-.6-.1-.3-.3-.4-.4-.7.6-.1,1.1-.6,1.1-1.2s-.6-1.2-1.2-1.2h-.3v-.6h.3c.7,0,1.2-.6,1.2-1.2s-.6-1.2-1.2-1.2h-.3v-.6h.3c.7,0,1.2-.6,1.2-1.2s-.6-1.2-1.2-1.2h-.3v-.6h.3c.7,0,1.2-.6,1.2-1.2s-.6-1.2-1.2-1.2h-.3v-.6h.3c.7,0,1.2-.6,1.2-1.2s-.6-1.2-1.2-1.2h-.3v-1h.3c.7,0,1.2-.6,1.2-1.2s-.6-1.2-1.2-1.2h-.3v-.6h.3c.7,0,1.2-.6,1.2-1.2s-.6-1.2-1.2-1.2h-.3.3c.7,0,1.2-.6,1.2-1.2s-.6-1.2-1.2-1.2h-.3v-.6h.3c.7,0,1.2-.6,1.2-1.2s-.6-1.2-1.2-1.2h-.3v-.6s0,0-.1,0h-3.8s-.1,0-.1,0v.6h-.1c-.7,0-1.2.6-1.2,1.2s.6,1.2,1.2,1.2h.3v.6h-.3c-.7,0-1.2.6-1.2,1.2s.6,1.2,1.2,1.2h.3v.6h-.3c-.7,0-1.2.6-1.2,1.2s.6,1.2,1.2,1.2h.3v.6h-.3c-.7,0-1.2.6-1.2,1.2s.6,1.2,1.2,1.2h.3v.6h-.3c-.7,0-1.2.6-1.2,1.2s.6,1.2,1.2,1.2h.3v.6h-.3c-.7,0-1.2.6-1.2,1.2s.6,1.2,1.2,1.2h.3v.6h-.3c-.7,0-1.2.6-1.2,1.2s.6,1.2,1.2,1.2h.3v.6h-.3c-.7,0-1.2.6-1.2,1.2s.6,1.2,1.2,1.2h.3v.6h-.3c-.7,0-1.2.6-1.2,1.2s.6,1.2,1.2,1.2h.3v.3q-.1.1-.3.3c-.4,0-.9.3-1.1.7h.4c-2,1.7-4.8,2.8-5.8,3.1-1.5.6-2.8.4-4.7.4s-3.8.1-3.8.4c.1.3,2.2.7,4.1,1,1.8.4,3.2.7,3.6,1.6.4.9-.3,2.2-1.5,3.2-1.1.9-2.7,1.2-4.5,1.8s-4.3,1.1-4.3,1.5,2.6,0,3.9.9c1.2.9,1.6,2.7,2,3.8.3,1.1.7,1.5.9.6.1-.9,0-2.9.6-4.3.6-1.5,1.6-2.1,2.1-2.6.6-.4,5.4-5.3,6.2-5.5.7-.4,2.2-1.2,3.6-1.5,1.5-.1,2.7.3,4.4,1.7,1.7,1.5,3.9,3.8,5.5,5.3s2.6,1.7,3.1,1.6c.6-.1.6-.9-.3-2.2-.9-1.5-2.8-3.6-3.1-4.8-.3-1.2,1.2-1.6,2.7-2,1.6-.4,3.1-1.1,3.7-1.6.4-.9.2-1.2-1.4-1Z"/>
      <path class="st15" d="M340.3,141.9c-7.4,3.7-7.5,17.1-.6,20.2,3.8,1.7,7.4-4.3,10.2-8.1,5.2-7.1-3.3-15.4-9.6-12.1Z"/>
    </g>
    <g>
      <path id="path8822" data-name="path882" class="st2" d="M576.1,130.1c-.6-3.2-2.1-6.9-3.8-9.7-1.7-2.9-3.7-5.3-5.6-6.4-2.1-1.1-4.3-1-7.5.9-3.2,2-7.5,5.6-11,10.4-3.6,4.7-6.5,10.3-8.1,14-1.7,3.7-2,5.3-2.1,6.5s0,2-.9,6.2c-.9,4.3-2.6,11.8-3.6,16.9-1,5.3-1.2,8-1.2,9.7s.3,2.4,1.7,3.1c1.3.8,4.1,1.6,7.2,1.2,2.9-.3,6.4-1.8,9.6-3.1,3.2-1.2,6.5-2.1,9.1-2.8,2.6-.6,4.3-1,6.5-3.2,2.1-2.2,4.8-6.6,6.5-12.7,1.7-6,2.6-14,3.1-19.4.5-5.3.7-8.3,0-11.6h0Z"/>
      <path id="path882-72" data-name="path882-7" class="st14" d="M576.1,130.1c-.6-3.2-2.1-6.9-3.8-9.7-1.7-2.9-3.7-5.3-5.6-6.4-2.1-1.1-4.3-1-7.5.9-3.2,2-7.5,5.6-11,10.4-3.6,4.7-6.5,10.3-8.1,14-1.7,3.7-2,5.3-2.1,6.5s0,2,2.2,7.6c2.1,5.6,6.4,15.9,10.2,20.6,3.7,4.7,7.1,3.7,9.4,3.1,2.4-.6,4.3-1,6.5-3.2,2.1-2.2,4.8-6.6,6.5-12.7,1.7-6,2.6-14,3.1-19.4.5-5.5.8-8.4.2-11.7h0Z"/>
      <path id="path882-7-92" data-name="path882-7-9" class="st0" d="M576.1,130.1c-.6-3.2-2.1-6.9-3.8-9.7-1.7-2.9-3.7-5.3-5.6-6.4-2.1-1.1-4.3-1-7.5.9-3.2,2-7.5,5.6-10.3,9.2-2.9,3.4-4.5,6.5-5.8,8.7-1.2,2.2-2,3.8-2.7,6.4-.7,2.6-1.5,5.9,4.1,10.2,5.6,4.1,17.4,8.8,23.7,7.5,6.4-1.6,7.2-9.3,7.7-14.8.5-5.8.8-8.7.2-12Z"/>
      <path id="path882-82" data-name="path882-8" class="st14" d="M584.7,130.1c.6-3.2,2.1-6.9,3.8-9.7,1.7-2.9,3.7-5.3,5.6-6.4,2.1-1.1,4.3-1,7.5.9,3.2,2,7.5,5.6,11,10.4,3.6,4.7,6.5,10.3,8.1,14,1.7,3.7,2,5.3,2.1,6.5s0,2,.9,6.2c.9,4.3,2.6,11.8,3.6,16.9,1,5.3,1.2,8,1.2,9.7s-.3,2.4-1.7,3.1-4.1,1.6-7.2,1.2c-2.9-.3-6.4-1.8-9.6-3.1-3.2-1.2-6.5-2.1-9.1-2.8s-4.3-1-6.5-3.2c-2.1-2.2-4.8-6.6-6.5-12.7-1.7-6-2.6-14-3.1-19.4-.5-5.3-.7-8.3,0-11.6h0Z"/>
      <path id="path882-7-52" data-name="path882-7-5" class="st0" d="M584.7,130.1c.6-3.2,2.1-6.9,3.8-9.7,1.7-2.9,3.7-5.3,5.6-6.4,2.1-1.1,4.3-1,7.5.9,3.2,2,7.5,5.6,11,10.4,3.6,4.7,6.5,10.3,8,13.6,1.5,3.2,1.7,4.3,2.1,7.1.4,2.8,1.1,7.7-1.2,15.8-2.4,8.1-8.1,19.2-11.2,17.7-3.1-1.5-3.8-15.6-6.5-21.5-2.8-5.9-7.7-3.7-10.8-3.8-2.9,0-4.1-2.4-5.3-5.3-1.1-2.8-2.2-6-2.9-9.3-.7-3.3-.7-6.2,0-9.5h0Z"/>
      <path class="st13" d="M595.2,131.2c-1.6.1-4.1,1-6,1s-3.4-.9-4.9-2.6h0c0-.3-.3-.4-.6-.6,0-.3-.3-.4-.4-.7.6-.1,1.1-.6,1.1-1.2s-.6-1.2-1.2-1.2h-.3v-.6h.3c.7,0,1.2-.6,1.2-1.2s-.6-1.2-1.2-1.2h-.3v-.6h.3c.7,0,1.2-.6,1.2-1.2s-.6-1.2-1.2-1.2h-.3v-.6h.3c.7,0,1.2-.6,1.2-1.2s-.6-1.2-1.2-1.2h-.3v-.6h.3c.7,0,1.2-.6,1.2-1.2s-.6-1.2-1.2-1.2h-.3v-1h.3c.7,0,1.2-.6,1.2-1.2s-.6-1.2-1.2-1.2h-.3v-.6h.3c.7,0,1.2-.6,1.2-1.2s-.6-1.2-1.2-1.2h-.3.3c.7,0,1.2-.6,1.2-1.2s-.6-1.2-1.2-1.2h-.3v-.6h.3c.7,0,1.2-.6,1.2-1.2s-.6-1.2-1.2-1.2h-.3v-.6s0,0,0,0h-3.8s0,0,0,0v.6h0c-.7,0-1.2.6-1.2,1.2s.6,1.2,1.2,1.2h.3v.6h-.3c-.7,0-1.2.6-1.2,1.2s.6,1.2,1.2,1.2h.3v.6h-.3c-.7,0-1.2.6-1.2,1.2s.6,1.2,1.2,1.2h.3v.6h-.3c-.7,0-1.2.6-1.2,1.2s.6,1.2,1.2,1.2h.3v.6h-.3c-.7,0-1.2.6-1.2,1.2s.6,1.2,1.2,1.2h.3v.6h-.3c-.7,0-1.2.6-1.2,1.2s.6,1.2,1.2,1.2h.3v.6h-.3c-.7,0-1.2.6-1.2,1.2s.6,1.2,1.2,1.2h.3v.6h-.3c-.7,0-1.2.6-1.2,1.2s.6,1.2,1.2,1.2h.3v.6h-.3c-.7,0-1.2.6-1.2,1.2s.6,1.2,1.2,1.2h.3v.3q0,.1-.3.3c-.4,0-.9.3-1.1.7h.4c-2,1.7-4.8,2.8-5.8,3.1-1.5.6-2.8.4-4.7.4s-3.8.1-3.8.4c0,.3,2.2.7,4.1,1,1.8.4,3.2.7,3.6,1.6.4.9-.3,2.2-1.5,3.2-1.1.9-2.7,1.2-4.5,1.8-2,.6-4.3,1.1-4.3,1.5s2.6,0,3.9.9c1.2.9,1.6,2.7,2,3.8.3,1.1.7,1.5.9.6s0-2.9.6-4.3c.6-1.5,1.6-2.1,2.1-2.6s5.4-5.3,6.2-5.5c.7-.4,2.2-1.2,3.6-1.5,1.5-.1,2.7.3,4.4,1.7,1.7,1.5,3.9,3.8,5.5,5.3s2.6,1.7,3.1,1.6c.6-.1.6-.9-.3-2.2-.9-1.5-2.8-3.6-3.1-4.8s1.2-1.6,2.7-2c1.6-.4,3.1-1.1,3.7-1.6.4-.9.2-1.2-1.4-1Z"/>
      <path class="st9" d="M585.1,141.2c.3,8.2,12.3,14,18,8.8,3.1-2.7-.7-8.5-3.1-12.7-4.1-7.5-15.1-3.4-14.9,3.9Z"/>
    </g>
  </g>
  <line class="st4" x1="691.6" y1="139.2" x2="589.6" y2="139.2"/>
  <polyline class="st5" points="691.6 350.2 341.4 350.2 341.8 150.2"/>
  <polyline class="st3" points="691.6 558.2 161 558.2 161.2 148.2"/>
  <g>
    <path class="st12" d="M870.2,104.7l-15.4,15.4.2.2,15.4-15.4c0,0,0,0-.2-.2h0Z"/>
    <path class="st20" d="M870.2,104.7c0,0,.2.2.3.2.6.5,1.3.3,1.3.3l7.7-7.7-1-1-7,7-1.3,1.2h0Z"/>
    <polygon class="st12" points="879.4 97.5 884.5 102.6 915.2 71.8 910.2 66.8 905.9 71.1 910 75.2 908 77.1 908 77.1 884.5 100.5 880.5 96.5 879.4 95.4 878.4 96.5 879.4 97.5"/>
    <polygon class="st10" points="880.5 96.5 884.5 100.5 908 77.1 902.9 72 881.2 93.7 879.4 95.4 880.5 96.5"/>
    <polygon class="st6" points="912.4 64.5 931.6 45.4 936.9 50.8 938.8 48.8 932.5 42.5 931.7 43.3 930.5 44.4 911.4 63.6 912.4 64.5"/>
    <polygon class="st6" points="908 77.1 908 77.1 910 75.2 905.9 71.1 910.2 66.8 909.2 65.7 904.9 70.1 903.5 71.3 903.3 71.6 902.9 72 908 77.1"/>
    <polygon class="st20" points="910.2 66.8 915.2 71.8 918 74.5 920.1 72.4 912.4 64.5 911.4 63.6 909.5 65.4 909.2 65.7 910.2 66.8"/>
    <path class="st20" d="M869.9,104.4l-15.4,15.4.3.3,15.4-15.4c-.1-.1-.2-.2-.3-.3Z"/>
    <path class="st1" d="M869.9,104.4c0,0,.2.2.3.3l1.2-1.2,7-7-1-1-7.7,7.7c0-.1-.2.5.2,1.2Z"/>
    <polygon class="st20" points="877.3 95.4 878.4 96.5 879.4 95.4 878.4 94.4 874.3 90.4 897.7 66.9 897.7 66.9 899.7 64.9 903.8 68.9 908.1 64.7 903 59.6 872.3 90.4 877.3 95.4"/>
    <polygon class="st9" points="878.4 94.4 879.4 95.4 881.2 93.7 902.9 72 897.7 66.9 874.3 90.4 878.4 94.4"/>
    <polygon class="st19" points="929.5 43.3 910.3 62.5 911.4 63.6 930.5 44.4 931.7 43.3 932.5 42.5 926.1 36.1 924.1 38 929.5 43.3"/>
    <polygon class="st19" points="897.7 66.9 902.9 72 903.3 71.6 903.5 71.3 904.9 70.1 909.2 65.7 908.1 64.7 903.8 68.9 899.7 64.9 897.7 66.9"/>
    <polygon class="st1" points="903 59.6 908.1 64.7 909.2 65.7 909.5 65.4 911.4 63.6 910.3 62.5 902.5 54.6 900.3 56.9 903 59.6"/>
    <g class="st16">
      <rect class="st13" x="878.5" y="88.5" width=".6" height="6.2" transform="translate(192.6 648.2) rotate(-45)"/>
      <rect class="st13" x="881" y="86.1" width=".6" height="6.2" transform="translate(195 649.3) rotate(-45)"/>
      <rect class="st13" x="883.4" y="83.7" width=".6" height="6.2" transform="translate(197.4 650.3) rotate(-45)"/>
      <rect class="st13" x="885.9" y="81.2" width=".6" height="6.2" transform="translate(199.9 651.3) rotate(-45)"/>
      <rect class="st13" x="888.3" y="78.8" width=".6" height="6.2" transform="translate(202.3 652.3) rotate(-45)"/>
      <rect class="st13" x="890.8" y="76.3" width=".6" height="6.2" transform="translate(204.9 653.4) rotate(-45)"/>
      <rect class="st13" x="893.2" y="73.9" width=".6" height="6.2" transform="translate(207.2 654.3) rotate(-45)"/>
      <rect class="st13" x="895.7" y="71.5" width=".6" height="6.2" transform="translate(209.7 655.4) rotate(-45)"/>
      <rect class="st13" x="898" y="69" width=".6" height="6.2" transform="translate(212.1 656.3) rotate(-45)"/>
    </g>
  </g>
  <g>
    <path class="st12" d="M870.2,524.1l-15.4,15.4.2.2,15.4-15.4c0,0,0,0-.2-.2h0Z"/>
    <path class="st20" d="M870.2,524.1c0,0,.2.2.3.2.6.5,1.3.3,1.3.3l7.7-7.7-1-1-7,7-1.3,1.2h0Z"/>
    <polygon class="st12" points="879.4 516.9 884.5 522.1 915.2 491.3 910.2 486.2 905.9 490.5 910 494.6 908 496.5 908 496.5 884.5 520 880.5 515.9 879.4 514.9 878.4 515.9 879.4 516.9"/>
    <polygon class="st17" points="880.5 515.9 884.5 520 908 496.5 902.9 491.4 881.2 513.1 879.4 514.9 880.5 515.9"/>
    <polygon class="st6" points="912.4 484 931.6 464.9 936.9 470.2 938.8 468.2 932.5 461.9 931.7 462.7 930.5 463.8 911.4 483 912.4 484"/>
    <polygon class="st6" points="908 496.5 908 496.5 910 494.6 905.9 490.5 910.2 486.2 909.2 485.2 904.9 489.5 903.5 490.8 903.3 491 902.9 491.4 908 496.5"/>
    <polygon class="st20" points="910.2 486.2 915.2 491.3 918 494 920.1 491.8 912.4 484 911.4 483 909.5 484.9 909.2 485.2 910.2 486.2"/>
    <path class="st20" d="M869.9,523.8l-15.4,15.4.3.3,15.4-15.4c-.1,0-.2-.2-.3-.3Z"/>
    <path class="st1" d="M869.9,523.8c0,0,.2.2.3.4l1.2-1.2,7-7-1-1.1-7.7,7.7c0-.1-.2.5.2,1.2Z"/>
    <polygon class="st20" points="877.3 514.9 878.4 515.9 879.4 514.9 878.4 513.8 874.3 509.8 897.7 486.3 897.7 486.3 899.7 484.3 903.8 488.4 908.1 484.1 903 479 872.3 509.8 877.3 514.9"/>
    <polygon class="st21" points="878.4 513.8 879.4 514.9 881.2 513.1 902.9 491.4 897.7 486.3 874.3 509.8 878.4 513.8"/>
    <polygon class="st19" points="929.5 462.8 910.3 481.9 911.4 483 930.5 463.8 931.7 462.7 932.5 461.9 926.1 455.5 924.1 457.4 929.5 462.8"/>
    <polygon class="st19" points="897.7 486.3 902.9 491.4 903.3 491 903.5 490.8 904.9 489.5 909.2 485.2 908.1 484.1 903.8 488.4 899.7 484.3 897.7 486.3"/>
    <polygon class="st1" points="903 479 908.1 484.1 909.2 485.2 909.5 484.9 911.4 483 910.3 481.9 902.5 474.1 900.3 476.3 903 479"/>
    <g class="st16">
      <rect class="st13" x="878.5" y="508" width=".6" height="6.2" transform="translate(-104 771.1) rotate(-45)"/>
      <rect class="st13" x="881" y="505.6" width=".6" height="6.2" transform="translate(-101.6 772.2) rotate(-45)"/>
      <rect class="st13" x="883.4" y="503.1" width=".6" height="6.2" transform="translate(-99.1 773.1) rotate(-45)"/>
      <rect class="st13" x="885.9" y="500.6" width=".6" height="6.2" transform="translate(-96.6 774.2) rotate(-45)"/>
      <rect class="st13" x="888.3" y="498.2" width=".6" height="6.2" transform="translate(-94.2 775.1) rotate(-45)"/>
      <rect class="st13" x="890.8" y="495.7" width=".6" height="6.2" transform="translate(-91.7 776.2) rotate(-45)"/>
      <rect class="st13" x="893.2" y="493.3" width=".6" height="6.2" transform="translate(-89.3 777.2) rotate(-45)"/>
      <rect class="st13" x="895.7" y="490.9" width=".6" height="6.2" transform="translate(-86.9 778.3) rotate(-45)"/>
      <rect class="st13" x="898" y="488.5" width=".6" height="6.2" transform="translate(-84.5 779.2) rotate(-45)"/>
    </g>
  </g>
  <g>
    <path class="st12" d="M870.2,315.2l-15.4,15.4.2.2,15.4-15.4c0-.1,0-.1-.2-.2h0Z"/>
    <path class="st20" d="M870.2,315.2c0,.1.2.2.3.2.6.5,1.3.3,1.3.3l7.7-7.7-1-1-7,7-1.3,1.2h0Z"/>
    <polygon class="st12" points="879.4 308 884.5 313.1 915.2 282.3 910.2 277.3 905.9 281.6 910 285.7 908 287.6 908 287.6 884.5 311 880.5 306.9 879.4 305.9 878.4 306.9 879.4 308"/>
    <polygon class="st15" points="880.5 306.9 884.5 311 908 287.6 902.9 282.5 881.2 304.1 879.4 305.9 880.5 306.9"/>
    <polygon class="st6" points="912.4 275 931.6 255.9 936.9 261.3 938.8 259.3 932.5 252.9 931.7 253.7 930.5 254.9 911.4 274.1 912.4 275"/>
    <polygon class="st6" points="908 287.6 908 287.6 910 285.7 905.9 281.6 910.2 277.3 909.2 276.2 904.9 280.5 903.5 281.8 903.3 282.1 902.9 282.5 908 287.6"/>
    <polygon class="st20" points="910.2 277.3 915.2 282.3 918 285 920.1 282.9 912.4 275 911.4 274.1 909.5 275.9 909.2 276.2 910.2 277.3"/>
    <path class="st20" d="M869.9,314.9l-15.4,15.4.3.3,15.4-15.4c-.1,0-.2-.3-.3-.3Z"/>
    <path class="st1" d="M869.9,314.9c0,.1.2.2.3.4l1.2-1.2,7-7-1-1-7.7,7.7c0-.2-.2.3.2,1.1Z"/>
    <polygon class="st20" points="877.3 305.9 878.4 306.9 879.4 305.9 878.4 304.9 874.3 300.9 897.7 277.3 897.7 277.3 899.7 275.3 903.8 279.4 908.1 275.2 903 270.1 872.3 300.9 877.3 305.9"/>
    <polygon class="st11" points="878.4 304.9 879.4 305.9 881.2 304.1 902.9 282.5 897.7 277.3 874.3 300.9 878.4 304.9"/>
    <polygon class="st19" points="929.5 253.8 910.3 272.9 911.4 274.1 930.5 254.9 931.7 253.7 932.5 252.9 926.1 246.5 924.1 248.5 929.5 253.8"/>
    <polygon class="st19" points="897.7 277.3 902.9 282.5 903.3 282.1 903.5 281.8 904.9 280.5 909.2 276.2 908.1 275.2 903.8 279.4 899.7 275.3 897.7 277.3"/>
    <polygon class="st1" points="903 270.1 908.1 275.2 909.2 276.2 909.5 275.9 911.4 274.1 910.3 272.9 902.5 265.1 900.3 267.3 903 270.1"/>
    <g class="st16">
      <rect class="st13" x="878.5" y="299" width=".6" height="6.2" transform="translate(43.8 709.9) rotate(-45)"/>
      <rect class="st13" x="881" y="296.6" width=".6" height="6.2" transform="translate(46.2 710.9) rotate(-45)"/>
      <rect class="st13" x="883.4" y="294.1" width=".6" height="6.2" transform="translate(48.7 711.9) rotate(-45)"/>
      <rect class="st13" x="885.9" y="291.6" width=".6" height="6.2" transform="translate(51.2 712.9) rotate(-45)"/>
      <rect class="st13" x="888.3" y="289.3" width=".6" height="6.2" transform="translate(53.5 714) rotate(-45)"/>
      <rect class="st13" x="890.8" y="286.8" width=".6" height="6.2" transform="translate(56 715) rotate(-45)"/>
      <rect class="st13" x="893.2" y="284.4" width=".6" height="6.2" transform="translate(58.4 716) rotate(-45)"/>
      <rect class="st13" x="895.7" y="282" width=".6" height="6.2" transform="translate(60.8 717.1) rotate(-45)"/>
      <rect class="st13" x="898" y="279.5" width=".6" height="6.2" transform="translate(63.3 718) rotate(-45)"/>
    </g>
  </g>
  <g class="st8">
    <path class="st9" d="M729.1,125.4l-.3,1.9h-7.2v22.8h-2.1v-22.8h-7.3v-1.9h16.9Z"/>
    <path class="st9" d="M744.6,141.5h-12.6c.1,2.4.7,4.3,1.7,5.5,1,1.2,2.4,1.8,4.1,1.8s1.9-.1,2.6-.5c.8-.3,1.6-.8,2.5-1.4l1,1.3c-.9.8-1.9,1.3-2.9,1.7-1,.4-2.1.6-3.3.6-2.5,0-4.5-.9-5.9-2.6-1.4-1.7-2.1-4.1-2.1-7.1s.3-3.7.9-5.2c.6-1.5,1.5-2.7,2.6-3.5,1.1-.8,2.5-1.2,4-1.2,2.4,0,4.2.8,5.5,2.4s1.9,3.8,1.9,6.7,0,1,0,1.5ZM742.6,139.3c0-2.1-.4-3.8-1.3-5-.9-1.2-2.2-1.8-3.9-1.8s-2.8.6-3.8,1.8c-1,1.2-1.5,3-1.6,5.5h10.6v-.5Z"/>
    <path class="st9" d="M759.7,131.1l-.4,2c-.5-.1-1.1-.2-1.7-.2-1.3,0-2.3.5-3.1,1.4-.8.9-1.4,2.4-2,4.3v11.5h-2.1v-18.8h1.8l.2,4.2c.5-1.6,1.2-2.7,2.1-3.5s2-1.1,3.3-1.1,1.4,0,1.9.2Z"/>
    <path class="st9" d="M774.8,148c.3.4.7.8,1.2,1l-.5,1.5c-.9-.2-1.5-.5-2-1-.5-.5-.8-1.2-.9-2.2-1.3,2.1-3.3,3.2-5.9,3.2s-3.2-.5-4.3-1.5-1.6-2.4-1.6-4.1.7-3.4,2.1-4.5,3.3-1.6,5.7-1.6h3.6v-1.8c0-1.5-.3-2.6-1-3.3-.7-.7-1.8-1-3.3-1s-3.1.4-5.1,1.1l-.5-1.6c2.1-.8,4.1-1.3,5.9-1.3,4.1,0,6.2,2,6.2,6v9.1c0,1,.1,1.7.4,2.1ZM772.3,145.5v-5.2h-3.3c-1.9,0-3.4.4-4.4,1.1-1,.7-1.5,1.9-1.5,3.3s.3,2.3,1,3,1.7,1,2.9,1c2.3,0,4-1.1,5.2-3.3Z"/>
    <path class="st9" d="M794.9,133.4c1.1,1.7,1.7,4.1,1.7,7.2s-.6,5.4-1.9,7.2c-1.2,1.8-3,2.7-5.3,2.7s-2.1-.2-3.1-.7c-.9-.5-1.7-1.1-2.3-1.9v9.3l-2.1.3v-26.2h1.8l.2,2.7c.7-1,1.5-1.8,2.5-2.3,1-.6,2.1-.8,3.3-.8,2.3,0,4,.8,5.1,2.5ZM793,146.7c.9-1.4,1.4-3.4,1.4-6.1,0-5.3-1.7-8-5-8s-2.1.3-2.9.9c-.8.6-1.6,1.4-2.4,2.4v10c1.2,1.9,2.9,2.9,5,2.9s3-.7,4-2.1Z"/>
    <path class="st9" d="M805.1,123.4c.3.3.4.6.4,1.1s-.1.8-.4,1.1-.7.4-1.2.4-.8-.1-1.1-.4-.4-.6-.4-1.1.1-.8.4-1.1.7-.4,1.1-.4.9.1,1.2.4ZM805,131.3v18.8h-2.1v-18.8h2.1Z"/>
    <path class="st9" d="M824.7,148c.3.4.7.8,1.2,1l-.5,1.5c-.9-.2-1.5-.5-2-1-.5-.5-.8-1.2-.9-2.2-1.3,2.1-3.3,3.2-5.9,3.2s-3.2-.5-4.3-1.5-1.6-2.4-1.6-4.1.7-3.4,2.1-4.5c1.4-1.1,3.3-1.6,5.7-1.6h3.6v-1.8c0-1.5-.3-2.6-1-3.3-.7-.7-1.8-1-3.3-1s-3.1.4-5.1,1.1l-.5-1.6c2.1-.8,4.1-1.3,5.9-1.3,4.1,0,6.2,2,6.2,6v9.1c0,1,.1,1.7.4,2.1ZM822.3,145.5v-5.2h-3.3c-1.9,0-3.4.4-4.4,1.1s-1.5,1.9-1.5,3.3.3,2.3,1,3c.7.7,1.7,1,2.9,1,2.3,0,4-1.1,5.2-3.3Z"/>
    <path class="st9" d="M854.9,133.4c1.1,1.7,1.7,4.1,1.7,7.2s-.6,5.4-1.9,7.2c-1.2,1.8-3,2.7-5.3,2.7s-2.1-.2-3.1-.7c-.9-.5-1.7-1.1-2.3-1.9v9.3l-2.1.3v-26.2h1.8l.2,2.7c.7-1,1.5-1.8,2.5-2.3,1-.6,2.1-.8,3.3-.8,2.3,0,4,.8,5.1,2.5ZM853,146.7c.9-1.4,1.4-3.4,1.4-6.1,0-5.3-1.7-8-5-8s-2.1.3-2.9.9-1.6,1.4-2.4,2.4v10c1.2,1.9,2.9,2.9,5,2.9s3-.7,4-2.1Z"/>
    <path class="st9" d="M876.2,141.5h-12.6c.1,2.4.7,4.3,1.7,5.5,1,1.2,2.4,1.8,4.1,1.8s1.9-.1,2.6-.5c.8-.3,1.6-.8,2.5-1.4l1,1.3c-.9.8-1.9,1.3-2.9,1.7-1,.4-2.1.6-3.3.6-2.5,0-4.5-.9-5.9-2.6-1.4-1.7-2.1-4.1-2.1-7.1s.3-3.7.9-5.2c.6-1.5,1.5-2.7,2.6-3.5,1.1-.8,2.5-1.2,4-1.2,2.4,0,4.2.8,5.5,2.4s1.9,3.8,1.9,6.7,0,1,0,1.5ZM874.2,139.3c0-2.1-.4-3.8-1.3-5-.9-1.2-2.2-1.8-3.9-1.8s-2.8.6-3.8,1.8c-1,1.2-1.5,3-1.6,5.5h10.6v-.5Z"/>
    <path class="st9" d="M891.4,131.1l-.4,2c-.5-.1-1.1-.2-1.7-.2-1.3,0-2.3.5-3.1,1.4-.8.9-1.4,2.4-2,4.3v11.5h-2.1v-18.8h1.8l.2,4.2c.5-1.6,1.2-2.7,2.1-3.5s2-1.1,3.3-1.1,1.4,0,1.9.2Z"/>
    <path class="st9" d="M902.8,131.4c1,.3,1.9.9,2.8,1.6l-1,1.4c-.9-.6-1.7-1-2.4-1.3-.8-.3-1.6-.4-2.5-.4s-2.3.3-3,.9c-.8.6-1.2,1.3-1.2,2.3s.3,1.6,1,2.1,1.9,1,3.6,1.4c2.1.6,3.7,1.2,4.6,2.1s1.4,2,1.4,3.6-.6,3-1.9,4c-1.3,1-2.9,1.5-4.9,1.5s-2.7-.2-3.8-.6c-1.1-.4-2.1-1-3-1.8l1.2-1.3c.8.7,1.7,1.2,2.6,1.5.9.3,1.9.5,3,.5s2.5-.3,3.4-1c.9-.6,1.3-1.5,1.3-2.6s-.1-1.4-.4-1.9c-.3-.5-.8-.9-1.5-1.2-.7-.3-1.7-.7-3.1-1.1-2-.5-3.4-1.2-4.3-2s-1.3-1.8-1.3-3.2.3-1.8.8-2.5c.6-.8,1.3-1.3,2.2-1.8s2-.6,3.2-.6,2.2.2,3.2.5Z"/>
    <path class="st9" d="M924,133.4c1.4,1.7,2.1,4.1,2.1,7.2s-.7,5.5-2.1,7.2c-1.4,1.8-3.4,2.6-5.9,2.6s-4.4-.9-5.8-2.6-2.1-4.1-2.1-7.2.3-3.7,1-5.2c.6-1.5,1.6-2.6,2.8-3.4s2.6-1.2,4.2-1.2c2.5,0,4.4.9,5.9,2.6ZM913.9,134.7c-1,1.4-1.5,3.4-1.5,6s.5,4.6,1.5,6c1,1.4,2.4,2.1,4.2,2.1s3.2-.7,4.3-2.1c1-1.4,1.5-3.4,1.5-6s-.5-4.6-1.5-6c-1-1.4-2.4-2-4.3-2s-3.2.7-4.2,2.1Z"/>
    <path class="st9" d="M944.5,132.4c.9,1,1.3,2.4,1.3,4.2v13.5h-2.1v-13.2c0-1.5-.3-2.6-.9-3.3-.6-.7-1.5-1-2.7-1s-2.3.3-3.2,1-1.8,1.6-2.6,2.9v13.6h-2.1v-18.8h1.8l.2,3.2c.8-1.1,1.7-2,2.7-2.6,1.1-.6,2.2-1,3.6-1s3,.5,3.9,1.5Z"/>
    <path class="st9" d="M965.4,148c.3.4.7.8,1.2,1l-.5,1.5c-.9-.2-1.5-.5-2-1-.5-.5-.8-1.2-.9-2.2-1.3,2.1-3.3,3.2-5.9,3.2s-3.2-.5-4.3-1.5-1.6-2.4-1.6-4.1.7-3.4,2.1-4.5,3.3-1.6,5.7-1.6h3.6v-1.8c0-1.5-.3-2.6-1-3.3-.7-.7-1.8-1-3.3-1s-3.1.4-5.1,1.1l-.5-1.6c2.1-.8,4.1-1.3,5.9-1.3,4.1,0,6.2,2,6.2,6v9.1c0,1,.1,1.7.4,2.1ZM962.9,145.5v-5.2h-3.3c-1.9,0-3.4.4-4.4,1.1-1,.7-1.5,1.9-1.5,3.3s.3,2.3,1,3,1.7,1,2.9,1c2.3,0,4-1.1,5.2-3.3Z"/>
    <path class="st9" d="M972.9,149.6c-.6-.6-.9-1.5-.9-2.7v-23.3l2.1-.3v23.5c0,1.2.5,1.8,1.5,1.8s.9,0,1.3-.3l.6,1.5c-.7.3-1.4.5-2.2.5s-1.8-.3-2.4-.9Z"/>
    <path class="st9" d="M984.6,123.4c.3.3.4.6.4,1.1s-.1.8-.4,1.1-.7.4-1.2.4-.8-.1-1.1-.4-.4-.6-.4-1.1.1-.8.4-1.1.7-.4,1.1-.4.9.1,1.2.4ZM984.5,131.3v18.8h-2.1v-18.8h2.1Z"/>
    <path class="st9" d="M1002.3,131.3v1.6l-10.5,15.4h10.4l-.2,1.8h-12.7v-1.6l10.5-15.4h-9.6v-1.8h12.1Z"/>
    <path class="st9" d="M1018.9,148c.3.4.7.8,1.2,1l-.5,1.5c-.9-.2-1.5-.5-2-1-.5-.5-.8-1.2-.9-2.2-1.3,2.1-3.3,3.2-5.9,3.2s-3.2-.5-4.3-1.5-1.6-2.4-1.6-4.1.7-3.4,2.1-4.5,3.3-1.6,5.7-1.6h3.6v-1.8c0-1.5-.3-2.6-1-3.3-.7-.7-1.8-1-3.3-1s-3.1.4-5.1,1.1l-.5-1.6c2.1-.8,4.1-1.3,5.9-1.3,4.1,0,6.2,2,6.2,6v9.1c0,1,.1,1.7.4,2.1ZM1016.4,145.5v-5.2h-3.3c-1.9,0-3.4.4-4.4,1.1-1,.7-1.5,1.9-1.5,3.3s.3,2.3,1,3,1.7,1,2.9,1c2.3,0,4-1.1,5.2-3.3Z"/>
    <path class="st9" d="M1039.5,123.6v26.5h-1.8l-.3-2.9c-1.3,2.2-3.2,3.3-5.7,3.3s-3.9-.9-5.2-2.6-1.9-4.1-1.9-7.1.3-3.7.9-5.1,1.4-2.7,2.6-3.5c1.1-.8,2.4-1.3,3.9-1.3s3.9.9,5.3,2.6v-10.1l2.1.3ZM1035.2,147.9c.8-.6,1.6-1.5,2.2-2.6v-9.8c-1.3-1.9-3-2.8-4.9-2.8s-3.1.7-4.1,2.1-1.5,3.4-1.5,6c0,2.6.5,4.6,1.4,6,.9,1.4,2.2,2.1,3.8,2.1s2.2-.3,3-.9Z"/>
    <path class="st9" d="M1059.2,148c.3.4.7.8,1.2,1l-.5,1.5c-.9-.2-1.5-.5-2-1-.5-.5-.8-1.2-.9-2.2-1.3,2.1-3.3,3.2-5.9,3.2s-3.2-.5-4.3-1.5-1.6-2.4-1.6-4.1.7-3.4,2.1-4.5,3.3-1.6,5.7-1.6h3.6v-1.8c0-1.5-.3-2.6-1-3.3-.7-.7-1.8-1-3.3-1s-3.1.4-5.1,1.1l-.5-1.6c2.1-.8,4.1-1.3,5.9-1.3,4.1,0,6.2,2,6.2,6v9.1c0,1,.1,1.7.4,2.1ZM1056.8,145.5v-5.2h-3.3c-1.9,0-3.4.4-4.4,1.1-1,.7-1.5,1.9-1.5,3.3s.3,2.3,1,3,1.7,1,2.9,1c2.3,0,4-1.1,5.2-3.3Z"/>
  </g>
  <g class="st8">
    <path class="st9" d="M853.2,195.2c-.7.5-1.5.9-2.4,1.1s-1.8.4-2.8.4c-4.2,0-6.3-2.3-6.3-6.9v-8.9h-2.7v-4h2.7v-4.1l5.7-.6v4.8h4.4l-.6,4h-3.8v8.8c0,.9.1,1.5.4,1.9.3.4.7.6,1.4.6s1.3-.2,2.1-.6l1.9,3.6Z"/>
    <path class="st9" d="M860.4,167.8c.6.6,1,1.4,1,2.3s-.3,1.7-1,2.3c-.6.6-1.4.9-2.4.9s-1.8-.3-2.4-.9c-.6-.6-.9-1.4-.9-2.3s.3-1.7.9-2.3c.6-.6,1.4-.9,2.4-.9s1.8.3,2.4.9ZM860.8,177v19.1h-5.7v-19.1h5.7Z"/>
    <path class="st9" d="M881.5,179c1.2,1.8,1.8,4.3,1.8,7.5s-.3,3.7-.9,5.3c-.6,1.5-1.5,2.8-2.6,3.6s-2.5,1.3-4,1.3-3.5-.7-4.6-2v8.7l-5.7.6v-27.1h5l.3,2.1c.7-.9,1.6-1.6,2.6-2.1,1-.4,1.9-.7,3-.7,2.4,0,4.2.9,5.4,2.7ZM877.3,186.6c0-2.3-.3-3.8-.8-4.7-.5-.9-1.3-1.3-2.3-1.3s-1.3.2-1.8.6c-.6.4-1.1.9-1.5,1.7v8.1c.8,1.1,1.7,1.7,2.9,1.7,2.3,0,3.4-2,3.4-6Z"/>
    <path class="st9" d="M901.9,179.1c1.7,1.8,2.5,4.3,2.5,7.5s-.4,3.8-1.1,5.3c-.8,1.5-1.8,2.7-3.2,3.5s-3.1,1.3-5,1.3c-2.9,0-5.2-.9-6.9-2.7-1.7-1.8-2.5-4.3-2.5-7.5s.4-3.8,1.1-5.3,1.8-2.7,3.2-3.5,3.1-1.3,5-1.3c2.9,0,5.2.9,6.9,2.7ZM892.5,182c-.6,1-.9,2.5-.9,4.5s.3,3.6.8,4.6c.6,1,1.4,1.4,2.6,1.4s2-.5,2.6-1.5c.6-1,.9-2.5.9-4.5s-.3-3.6-.8-4.6c-.6-1-1.4-1.4-2.6-1.4s-2,.5-2.6,1.5Z"/>
    <path class="st9" d="M929.6,196.1l-1.3-5.4h-7.3l-1.3,5.4h-6.1l7.5-24.9h7.2l7.5,24.9h-6.3ZM922,186.5h5.3l-2.6-11-2.6,11Z"/>
  </g>
  <g>
    <g class="st8">
      <path class="st15" d="M729.1,337.4l-.3,1.9h-7.2v22.8h-2.1v-22.8h-7.3v-1.9h16.9Z"/>
      <path class="st15" d="M744.6,353.5h-12.6c.1,2.4.7,4.3,1.7,5.5,1,1.2,2.4,1.8,4.1,1.8s1.9-.1,2.6-.5c.8-.3,1.6-.8,2.5-1.4l1,1.3c-.9.8-1.9,1.3-2.9,1.7-1,.4-2.1.6-3.3.6-2.5,0-4.5-.9-5.9-2.6-1.4-1.7-2.1-4.1-2.1-7.1s.3-3.7.9-5.2c.6-1.5,1.5-2.7,2.6-3.5,1.1-.8,2.5-1.2,4-1.2,2.4,0,4.2.8,5.5,2.4s1.9,3.8,1.9,6.7,0,1,0,1.5ZM742.6,351.3c0-2.1-.4-3.8-1.3-5-.9-1.2-2.2-1.8-3.9-1.8s-2.8.6-3.8,1.8c-1,1.2-1.5,3-1.6,5.5h10.6v-.5Z"/>
      <path class="st15" d="M759.7,343.1l-.4,2c-.5-.1-1.1-.2-1.7-.2-1.3,0-2.3.5-3.1,1.4-.8.9-1.4,2.4-2,4.3v11.5h-2.1v-18.8h1.8l.2,4.2c.5-1.6,1.2-2.7,2.1-3.5s2-1.1,3.3-1.1,1.4,0,1.9.2Z"/>
      <path class="st15" d="M774.8,360c.3.4.7.8,1.2,1l-.5,1.5c-.9-.2-1.5-.5-2-1-.5-.5-.8-1.2-.9-2.2-1.3,2.1-3.3,3.2-5.9,3.2s-3.2-.5-4.3-1.5-1.6-2.4-1.6-4.1.7-3.4,2.1-4.5,3.3-1.6,5.7-1.6h3.6v-1.8c0-1.5-.3-2.6-1-3.3-.7-.7-1.8-1-3.3-1s-3.1.4-5.1,1.1l-.5-1.6c2.1-.8,4.1-1.3,5.9-1.3,4.1,0,6.2,2,6.2,6v9.1c0,1,.1,1.7.4,2.1ZM772.3,357.5v-5.2h-3.3c-1.9,0-3.4.4-4.4,1.1-1,.7-1.5,1.9-1.5,3.3s.3,2.3,1,3,1.7,1,2.9,1c2.3,0,4-1.1,5.2-3.3Z"/>
      <path class="st15" d="M794.9,345.4c1.1,1.7,1.7,4.1,1.7,7.2s-.6,5.4-1.9,7.2c-1.2,1.8-3,2.7-5.3,2.7s-2.1-.2-3.1-.7c-.9-.5-1.7-1.1-2.3-1.9v9.3l-2.1.3v-26.2h1.8l.2,2.7c.7-1,1.5-1.8,2.5-2.3,1-.6,2.1-.8,3.3-.8,2.3,0,4,.8,5.1,2.5ZM793,358.7c.9-1.4,1.4-3.4,1.4-6.1,0-5.3-1.7-8-5-8s-2.1.3-2.9.9c-.8.6-1.6,1.4-2.4,2.4v10c1.2,1.9,2.9,2.9,5,2.9s3-.7,4-2.1Z"/>
      <path class="st15" d="M805.1,335.4c.3.3.4.6.4,1.1s-.1.8-.4,1.1-.7.4-1.2.4-.8-.1-1.1-.4-.4-.6-.4-1.1.1-.8.4-1.1.7-.4,1.1-.4.9.1,1.2.4ZM805,343.3v18.8h-2.1v-18.8h2.1Z"/>
      <path class="st15" d="M824.7,360c.3.4.7.8,1.2,1l-.5,1.5c-.9-.2-1.5-.5-2-1-.5-.5-.8-1.2-.9-2.2-1.3,2.1-3.3,3.2-5.9,3.2s-3.2-.5-4.3-1.5-1.6-2.4-1.6-4.1.7-3.4,2.1-4.5c1.4-1.1,3.3-1.6,5.7-1.6h3.6v-1.8c0-1.5-.3-2.6-1-3.3-.7-.7-1.8-1-3.3-1s-3.1.4-5.1,1.1l-.5-1.6c2.1-.8,4.1-1.3,5.9-1.3,4.1,0,6.2,2,6.2,6v9.1c0,1,.1,1.7.4,2.1ZM822.3,357.5v-5.2h-3.3c-1.9,0-3.4.4-4.4,1.1s-1.5,1.9-1.5,3.3.3,2.3,1,3c.7.7,1.7,1,2.9,1,2.3,0,4-1.1,5.2-3.3Z"/>
      <path class="st15" d="M854.9,345.4c1.1,1.7,1.7,4.1,1.7,7.2s-.6,5.4-1.9,7.2c-1.2,1.8-3,2.7-5.3,2.7s-2.1-.2-3.1-.7c-.9-.5-1.7-1.1-2.3-1.9v9.3l-2.1.3v-26.2h1.8l.2,2.7c.7-1,1.5-1.8,2.5-2.3,1-.6,2.1-.8,3.3-.8,2.3,0,4,.8,5.1,2.5ZM853,358.7c.9-1.4,1.4-3.4,1.4-6.1,0-5.3-1.7-8-5-8s-2.1.3-2.9.9-1.6,1.4-2.4,2.4v10c1.2,1.9,2.9,2.9,5,2.9s3-.7,4-2.1Z"/>
      <path class="st15" d="M876.2,353.5h-12.6c.1,2.4.7,4.3,1.7,5.5,1,1.2,2.4,1.8,4.1,1.8s1.9-.1,2.6-.5c.8-.3,1.6-.8,2.5-1.4l1,1.3c-.9.8-1.9,1.3-2.9,1.7-1,.4-2.1.6-3.3.6-2.5,0-4.5-.9-5.9-2.6-1.4-1.7-2.1-4.1-2.1-7.1s.3-3.7.9-5.2c.6-1.5,1.5-2.7,2.6-3.5,1.1-.8,2.5-1.2,4-1.2,2.4,0,4.2.8,5.5,2.4s1.9,3.8,1.9,6.7,0,1,0,1.5ZM874.2,351.3c0-2.1-.4-3.8-1.3-5-.9-1.2-2.2-1.8-3.9-1.8s-2.8.6-3.8,1.8c-1,1.2-1.5,3-1.6,5.5h10.6v-.5Z"/>
      <path class="st15" d="M891.4,343.1l-.4,2c-.5-.1-1.1-.2-1.7-.2-1.3,0-2.3.5-3.1,1.4-.8.9-1.4,2.4-2,4.3v11.5h-2.1v-18.8h1.8l.2,4.2c.5-1.6,1.2-2.7,2.1-3.5s2-1.1,3.3-1.1,1.4,0,1.9.2Z"/>
      <path class="st15" d="M902.8,343.4c1,.3,1.9.9,2.8,1.6l-1,1.4c-.9-.6-1.7-1-2.4-1.3-.8-.3-1.6-.4-2.5-.4s-2.3.3-3,.9c-.8.6-1.2,1.3-1.2,2.3s.3,1.6,1,2.1,1.9,1,3.6,1.4c2.1.6,3.7,1.2,4.6,2.1s1.4,2,1.4,3.6-.6,3-1.9,4c-1.3,1-2.9,1.5-4.9,1.5s-2.7-.2-3.8-.6c-1.1-.4-2.1-1-3-1.8l1.2-1.3c.8.7,1.7,1.2,2.6,1.5.9.3,1.9.5,3,.5s2.5-.3,3.4-1c.9-.6,1.3-1.5,1.3-2.6s-.1-1.4-.4-1.9c-.3-.5-.8-.9-1.5-1.2-.7-.3-1.7-.7-3.1-1.1-2-.5-3.4-1.2-4.3-2s-1.3-1.8-1.3-3.2.3-1.8.8-2.5c.6-.8,1.3-1.3,2.2-1.8s2-.6,3.2-.6,2.2.2,3.2.5Z"/>
      <path class="st15" d="M924,345.4c1.4,1.7,2.1,4.1,2.1,7.2s-.7,5.5-2.1,7.2c-1.4,1.8-3.4,2.6-5.9,2.6s-4.4-.9-5.8-2.6-2.1-4.1-2.1-7.2.3-3.7,1-5.2c.6-1.5,1.6-2.6,2.8-3.4s2.6-1.2,4.2-1.2c2.5,0,4.4.9,5.9,2.6ZM913.9,346.7c-1,1.4-1.5,3.4-1.5,6s.5,4.6,1.5,6c1,1.4,2.4,2.1,4.2,2.1s3.2-.7,4.3-2.1c1-1.4,1.5-3.4,1.5-6s-.5-4.6-1.5-6c-1-1.4-2.4-2-4.3-2s-3.2.7-4.2,2.1Z"/>
      <path class="st15" d="M944.5,344.4c.9,1,1.3,2.4,1.3,4.2v13.5h-2.1v-13.2c0-1.5-.3-2.6-.9-3.3-.6-.7-1.5-1-2.7-1s-2.3.3-3.2,1-1.8,1.6-2.6,2.9v13.6h-2.1v-18.8h1.8l.2,3.2c.8-1.1,1.7-2,2.7-2.6,1.1-.6,2.2-1,3.6-1s3,.5,3.9,1.5Z"/>
      <path class="st15" d="M965.4,360c.3.4.7.8,1.2,1l-.5,1.5c-.9-.2-1.5-.5-2-1-.5-.5-.8-1.2-.9-2.2-1.3,2.1-3.3,3.2-5.9,3.2s-3.2-.5-4.3-1.5-1.6-2.4-1.6-4.1.7-3.4,2.1-4.5,3.3-1.6,5.7-1.6h3.6v-1.8c0-1.5-.3-2.6-1-3.3-.7-.7-1.8-1-3.3-1s-3.1.4-5.1,1.1l-.5-1.6c2.1-.8,4.1-1.3,5.9-1.3,4.1,0,6.2,2,6.2,6v9.1c0,1,.1,1.7.4,2.1ZM962.9,357.5v-5.2h-3.3c-1.9,0-3.4.4-4.4,1.1-1,.7-1.5,1.9-1.5,3.3s.3,2.3,1,3,1.7,1,2.9,1c2.3,0,4-1.1,5.2-3.3Z"/>
      <path class="st15" d="M972.9,361.6c-.6-.6-.9-1.5-.9-2.7v-23.3l2.1-.3v23.5c0,1.2.5,1.8,1.5,1.8s.9,0,1.3-.3l.6,1.5c-.7.3-1.4.5-2.2.5s-1.8-.3-2.4-.9Z"/>
      <path class="st15" d="M984.6,335.4c.3.3.4.6.4,1.1s-.1.8-.4,1.1-.7.4-1.2.4-.8-.1-1.1-.4-.4-.6-.4-1.1.1-.8.4-1.1.7-.4,1.1-.4.9.1,1.2.4ZM984.5,343.3v18.8h-2.1v-18.8h2.1Z"/>
      <path class="st15" d="M1002.3,343.3v1.6l-10.5,15.4h10.4l-.2,1.8h-12.7v-1.6l10.5-15.4h-9.6v-1.8h12.1Z"/>
      <path class="st15" d="M1018.9,360c.3.4.7.8,1.2,1l-.5,1.5c-.9-.2-1.5-.5-2-1-.5-.5-.8-1.2-.9-2.2-1.3,2.1-3.3,3.2-5.9,3.2s-3.2-.5-4.3-1.5-1.6-2.4-1.6-4.1.7-3.4,2.1-4.5,3.3-1.6,5.7-1.6h3.6v-1.8c0-1.5-.3-2.6-1-3.3-.7-.7-1.8-1-3.3-1s-3.1.4-5.1,1.1l-.5-1.6c2.1-.8,4.1-1.3,5.9-1.3,4.1,0,6.2,2,6.2,6v9.1c0,1,.1,1.7.4,2.1ZM1016.4,357.5v-5.2h-3.3c-1.9,0-3.4.4-4.4,1.1-1,.7-1.5,1.9-1.5,3.3s.3,2.3,1,3,1.7,1,2.9,1c2.3,0,4-1.1,5.2-3.3Z"/>
      <path class="st15" d="M1039.5,335.6v26.5h-1.8l-.3-2.9c-1.3,2.2-3.2,3.3-5.7,3.3s-3.9-.9-5.2-2.6-1.9-4.1-1.9-7.1.3-3.7.9-5.1,1.4-2.7,2.6-3.5c1.1-.8,2.4-1.3,3.9-1.3s3.9.9,5.3,2.6v-10.1l2.1.3ZM1035.2,359.9c.8-.6,1.6-1.5,2.2-2.6v-9.8c-1.3-1.9-3-2.8-4.9-2.8s-3.1.7-4.1,2.1-1.5,3.4-1.5,6c0,2.6.5,4.6,1.4,6,.9,1.4,2.2,2.1,3.8,2.1s2.2-.3,3-.9Z"/>
      <path class="st15" d="M1059.2,360c.3.4.7.8,1.2,1l-.5,1.5c-.9-.2-1.5-.5-2-1-.5-.5-.8-1.2-.9-2.2-1.3,2.1-3.3,3.2-5.9,3.2s-3.2-.5-4.3-1.5-1.6-2.4-1.6-4.1.7-3.4,2.1-4.5,3.3-1.6,5.7-1.6h3.6v-1.8c0-1.5-.3-2.6-1-3.3-.7-.7-1.8-1-3.3-1s-3.1.4-5.1,1.1l-.5-1.6c2.1-.8,4.1-1.3,5.9-1.3,4.1,0,6.2,2,6.2,6v9.1c0,1,.1,1.7.4,2.1ZM1056.8,357.5v-5.2h-3.3c-1.9,0-3.4.4-4.4,1.1-1,.7-1.5,1.9-1.5,3.3s.3,2.3,1,3,1.7,1,2.9,1c2.3,0,4-1.1,5.2-3.3Z"/>
    </g>
    <g class="st8">
      <path class="st15" d="M852.7,407.2c-.7.5-1.5.9-2.4,1.1s-1.8.4-2.8.4c-4.2,0-6.3-2.3-6.3-6.9v-8.9h-2.7v-4h2.7v-4.1l5.7-.6v4.8h4.4l-.6,4h-3.8v8.8c0,.9.1,1.5.4,1.9.3.4.7.6,1.4.6s1.3-.2,2.1-.6l1.9,3.6Z"/>
      <path class="st15" d="M859.9,379.8c.6.6,1,1.4,1,2.3s-.3,1.7-1,2.3c-.6.6-1.4.9-2.4.9s-1.8-.3-2.4-.9c-.6-.6-.9-1.4-.9-2.3s.3-1.7.9-2.3c.6-.6,1.4-.9,2.4-.9s1.8.3,2.4.9ZM860.3,389v19.1h-5.7v-19.1h5.7Z"/>
      <path class="st15" d="M881,391c1.2,1.8,1.8,4.3,1.8,7.5s-.3,3.7-.9,5.3c-.6,1.5-1.5,2.8-2.6,3.6s-2.5,1.3-4,1.3-3.5-.7-4.6-2v8.7l-5.7.6v-27.1h5l.3,2.1c.7-.9,1.6-1.6,2.6-2.1,1-.4,1.9-.7,3-.7,2.4,0,4.2.9,5.4,2.7ZM876.8,398.6c0-2.3-.3-3.8-.8-4.7-.5-.9-1.3-1.3-2.3-1.3s-1.3.2-1.8.6c-.6.4-1.1.9-1.5,1.7v8.1c.8,1.1,1.7,1.7,2.9,1.7,2.3,0,3.4-2,3.4-6Z"/>
      <path class="st15" d="M901.4,391.1c1.7,1.8,2.5,4.3,2.5,7.5s-.4,3.8-1.1,5.3c-.8,1.5-1.8,2.7-3.2,3.5s-3.1,1.3-5,1.3c-2.9,0-5.2-.9-6.9-2.7-1.7-1.8-2.5-4.3-2.5-7.5s.4-3.8,1.1-5.3,1.8-2.7,3.2-3.5,3.1-1.3,5-1.3c2.9,0,5.2.9,6.9,2.7ZM892,394c-.6,1-.9,2.5-.9,4.5s.3,3.6.8,4.6c.6,1,1.4,1.4,2.6,1.4s2-.5,2.6-1.5c.6-1,.9-2.5.9-4.5s-.3-3.6-.8-4.6c-.6-1-1.4-1.4-2.6-1.4s-2,.5-2.6,1.5Z"/>
      <path class="st15" d="M933.3,396.7c1,.9,1.6,2.3,1.6,4.1,0,2.7-1,4.5-2.9,5.6-1.9,1.1-4.6,1.6-8,1.6h-8v-24.9h7.1c3.5,0,6.2.5,8,1.5,1.8,1,2.8,2.6,2.8,4.9s-.4,2.6-1.3,3.5c-.9.9-2,1.5-3.3,1.8,1.7.3,3,.9,4,1.8ZM921.9,387.3v5.8h2.2c2.5,0,3.7-1,3.7-3s-.3-1.7-1-2.1-1.7-.6-3.2-.6h-1.7ZM927.6,403.1c.8-.5,1.2-1.3,1.2-2.6,0-2.3-1.4-3.5-4.3-3.5h-2.6v6.8h2.2c1.6,0,2.7-.2,3.5-.7Z"/>
    </g>
  </g>
  <g>
    <g class="st8">
      <path class="st18" d="M729.1,545.4l-.3,1.9h-7.2v22.8h-2.1v-22.8h-7.3v-1.9h16.9Z"/>
      <path class="st18" d="M744.6,561.5h-12.6c.1,2.4.7,4.3,1.7,5.5,1,1.2,2.4,1.8,4.1,1.8s1.9-.1,2.6-.5c.8-.3,1.6-.8,2.5-1.4l1,1.3c-.9.8-1.9,1.3-2.9,1.7-1,.4-2.1.6-3.3.6-2.5,0-4.5-.9-5.9-2.6-1.4-1.7-2.1-4.1-2.1-7.1s.3-3.7.9-5.2c.6-1.5,1.5-2.7,2.6-3.5,1.1-.8,2.5-1.2,4-1.2,2.4,0,4.2.8,5.5,2.4s1.9,3.8,1.9,6.7,0,1,0,1.5ZM742.6,559.3c0-2.1-.4-3.8-1.3-5-.9-1.2-2.2-1.8-3.9-1.8s-2.8.6-3.8,1.8c-1,1.2-1.5,3-1.6,5.5h10.6v-.5Z"/>
      <path class="st18" d="M759.7,551.1l-.4,2c-.5-.1-1.1-.2-1.7-.2-1.3,0-2.3.5-3.1,1.4-.8.9-1.4,2.4-2,4.3v11.5h-2.1v-18.8h1.8l.2,4.2c.5-1.6,1.2-2.7,2.1-3.5s2-1.1,3.3-1.1,1.4,0,1.9.2Z"/>
      <path class="st18" d="M774.8,568c.3.4.7.8,1.2,1l-.5,1.5c-.9-.2-1.5-.5-2-1-.5-.5-.8-1.2-.9-2.2-1.3,2.1-3.3,3.2-5.9,3.2s-3.2-.5-4.3-1.5-1.6-2.4-1.6-4.1.7-3.4,2.1-4.5,3.3-1.6,5.7-1.6h3.6v-1.8c0-1.5-.3-2.6-1-3.3-.7-.7-1.8-1-3.3-1s-3.1.4-5.1,1.1l-.5-1.6c2.1-.8,4.1-1.3,5.9-1.3,4.1,0,6.2,2,6.2,6v9.1c0,1,.1,1.7.4,2.1ZM772.3,565.5v-5.2h-3.3c-1.9,0-3.4.4-4.4,1.1-1,.7-1.5,1.9-1.5,3.3s.3,2.3,1,3,1.7,1,2.9,1c2.3,0,4-1.1,5.2-3.3Z"/>
      <path class="st18" d="M794.9,553.4c1.1,1.7,1.7,4.1,1.7,7.2s-.6,5.4-1.9,7.2c-1.2,1.8-3,2.7-5.3,2.7s-2.1-.2-3.1-.7c-.9-.5-1.7-1.1-2.3-1.9v9.3l-2.1.3v-26.2h1.8l.2,2.7c.7-1,1.5-1.8,2.5-2.3,1-.6,2.1-.8,3.3-.8,2.3,0,4,.8,5.1,2.5ZM793,566.7c.9-1.4,1.4-3.4,1.4-6.1,0-5.3-1.7-8-5-8s-2.1.3-2.9.9c-.8.6-1.6,1.4-2.4,2.4v10c1.2,1.9,2.9,2.9,5,2.9s3-.7,4-2.1Z"/>
      <path class="st18" d="M805.1,543.4c.3.3.4.6.4,1.1s-.1.8-.4,1.1-.7.4-1.2.4-.8-.1-1.1-.4-.4-.6-.4-1.1.1-.8.4-1.1.7-.4,1.1-.4.9.1,1.2.4ZM805,551.3v18.8h-2.1v-18.8h2.1Z"/>
      <path class="st18" d="M824.7,568c.3.4.7.8,1.2,1l-.5,1.5c-.9-.2-1.5-.5-2-1-.5-.5-.8-1.2-.9-2.2-1.3,2.1-3.3,3.2-5.9,3.2s-3.2-.5-4.3-1.5-1.6-2.4-1.6-4.1.7-3.4,2.1-4.5c1.4-1.1,3.3-1.6,5.7-1.6h3.6v-1.8c0-1.5-.3-2.6-1-3.3-.7-.7-1.8-1-3.3-1s-3.1.4-5.1,1.1l-.5-1.6c2.1-.8,4.1-1.3,5.9-1.3,4.1,0,6.2,2,6.2,6v9.1c0,1,.1,1.7.4,2.1ZM822.3,565.5v-5.2h-3.3c-1.9,0-3.4.4-4.4,1.1s-1.5,1.9-1.5,3.3.3,2.3,1,3c.7.7,1.7,1,2.9,1,2.3,0,4-1.1,5.2-3.3Z"/>
      <path class="st18" d="M854.9,553.4c1.1,1.7,1.7,4.1,1.7,7.2s-.6,5.4-1.9,7.2c-1.2,1.8-3,2.7-5.3,2.7s-2.1-.2-3.1-.7c-.9-.5-1.7-1.1-2.3-1.9v9.3l-2.1.3v-26.2h1.8l.2,2.7c.7-1,1.5-1.8,2.5-2.3,1-.6,2.1-.8,3.3-.8,2.3,0,4,.8,5.1,2.5ZM853,566.7c.9-1.4,1.4-3.4,1.4-6.1,0-5.3-1.7-8-5-8s-2.1.3-2.9.9-1.6,1.4-2.4,2.4v10c1.2,1.9,2.9,2.9,5,2.9s3-.7,4-2.1Z"/>
      <path class="st18" d="M876.2,561.5h-12.6c.1,2.4.7,4.3,1.7,5.5,1,1.2,2.4,1.8,4.1,1.8s1.9-.1,2.6-.5c.8-.3,1.6-.8,2.5-1.4l1,1.3c-.9.8-1.9,1.3-2.9,1.7-1,.4-2.1.6-3.3.6-2.5,0-4.5-.9-5.9-2.6-1.4-1.7-2.1-4.1-2.1-7.1s.3-3.7.9-5.2c.6-1.5,1.5-2.7,2.6-3.5,1.1-.8,2.5-1.2,4-1.2,2.4,0,4.2.8,5.5,2.4s1.9,3.8,1.9,6.7,0,1,0,1.5ZM874.2,559.3c0-2.1-.4-3.8-1.3-5-.9-1.2-2.2-1.8-3.9-1.8s-2.8.6-3.8,1.8c-1,1.2-1.5,3-1.6,5.5h10.6v-.5Z"/>
      <path class="st18" d="M891.4,551.1l-.4,2c-.5-.1-1.1-.2-1.7-.2-1.3,0-2.3.5-3.1,1.4-.8.9-1.4,2.4-2,4.3v11.5h-2.1v-18.8h1.8l.2,4.2c.5-1.6,1.2-2.7,2.1-3.5s2-1.1,3.3-1.1,1.4,0,1.9.2Z"/>
      <path class="st18" d="M902.8,551.4c1,.3,1.9.9,2.8,1.6l-1,1.4c-.9-.6-1.7-1-2.4-1.3-.8-.3-1.6-.4-2.5-.4s-2.3.3-3,.9c-.8.6-1.2,1.3-1.2,2.3s.3,1.6,1,2.1,1.9,1,3.6,1.4c2.1.6,3.7,1.2,4.6,2.1s1.4,2,1.4,3.6-.6,3-1.9,4c-1.3,1-2.9,1.5-4.9,1.5s-2.7-.2-3.8-.6c-1.1-.4-2.1-1-3-1.8l1.2-1.3c.8.7,1.7,1.2,2.6,1.5.9.3,1.9.5,3,.5s2.5-.3,3.4-1c.9-.6,1.3-1.5,1.3-2.6s-.1-1.4-.4-1.9c-.3-.5-.8-.9-1.5-1.2-.7-.3-1.7-.7-3.1-1.1-2-.5-3.4-1.2-4.3-2s-1.3-1.8-1.3-3.2.3-1.8.8-2.5c.6-.8,1.3-1.3,2.2-1.8s2-.6,3.2-.6,2.2.2,3.2.5Z"/>
      <path class="st18" d="M924,553.4c1.4,1.7,2.1,4.1,2.1,7.2s-.7,5.5-2.1,7.2c-1.4,1.8-3.4,2.6-5.9,2.6s-4.4-.9-5.8-2.6-2.1-4.1-2.1-7.2.3-3.7,1-5.2c.6-1.5,1.6-2.6,2.8-3.4s2.6-1.2,4.2-1.2c2.5,0,4.4.9,5.9,2.6ZM913.9,554.7c-1,1.4-1.5,3.4-1.5,6s.5,4.6,1.5,6c1,1.4,2.4,2.1,4.2,2.1s3.2-.7,4.3-2.1c1-1.4,1.5-3.4,1.5-6s-.5-4.6-1.5-6c-1-1.4-2.4-2-4.3-2s-3.2.7-4.2,2.1Z"/>
      <path class="st18" d="M944.5,552.4c.9,1,1.3,2.4,1.3,4.2v13.5h-2.1v-13.2c0-1.5-.3-2.6-.9-3.3-.6-.7-1.5-1-2.7-1s-2.3.3-3.2,1-1.8,1.6-2.6,2.9v13.6h-2.1v-18.8h1.8l.2,3.2c.8-1.1,1.7-2,2.7-2.6,1.1-.6,2.2-1,3.6-1s3,.5,3.9,1.5Z"/>
      <path class="st18" d="M965.4,568c.3.4.7.8,1.2,1l-.5,1.5c-.9-.2-1.5-.5-2-1-.5-.5-.8-1.2-.9-2.2-1.3,2.1-3.3,3.2-5.9,3.2s-3.2-.5-4.3-1.5-1.6-2.4-1.6-4.1.7-3.4,2.1-4.5,3.3-1.6,5.7-1.6h3.6v-1.8c0-1.5-.3-2.6-1-3.3-.7-.7-1.8-1-3.3-1s-3.1.4-5.1,1.1l-.5-1.6c2.1-.8,4.1-1.3,5.9-1.3,4.1,0,6.2,2,6.2,6v9.1c0,1,.1,1.7.4,2.1ZM962.9,565.5v-5.2h-3.3c-1.9,0-3.4.4-4.4,1.1-1,.7-1.5,1.9-1.5,3.3s.3,2.3,1,3,1.7,1,2.9,1c2.3,0,4-1.1,5.2-3.3Z"/>
      <path class="st18" d="M972.9,569.6c-.6-.6-.9-1.5-.9-2.7v-23.3l2.1-.3v23.5c0,1.2.5,1.8,1.5,1.8s.9,0,1.3-.3l.6,1.5c-.7.3-1.4.5-2.2.5s-1.8-.3-2.4-.9Z"/>
      <path class="st18" d="M984.6,543.4c.3.3.4.6.4,1.1s-.1.8-.4,1.1-.7.4-1.2.4-.8-.1-1.1-.4-.4-.6-.4-1.1.1-.8.4-1.1.7-.4,1.1-.4.9.1,1.2.4ZM984.5,551.3v18.8h-2.1v-18.8h2.1Z"/>
      <path class="st18" d="M1002.3,551.3v1.6l-10.5,15.4h10.4l-.2,1.8h-12.7v-1.6l10.5-15.4h-9.6v-1.8h12.1Z"/>
      <path class="st18" d="M1018.9,568c.3.4.7.8,1.2,1l-.5,1.5c-.9-.2-1.5-.5-2-1-.5-.5-.8-1.2-.9-2.2-1.3,2.1-3.3,3.2-5.9,3.2s-3.2-.5-4.3-1.5-1.6-2.4-1.6-4.1.7-3.4,2.1-4.5,3.3-1.6,5.7-1.6h3.6v-1.8c0-1.5-.3-2.6-1-3.3-.7-.7-1.8-1-3.3-1s-3.1.4-5.1,1.1l-.5-1.6c2.1-.8,4.1-1.3,5.9-1.3,4.1,0,6.2,2,6.2,6v9.1c0,1,.1,1.7.4,2.1ZM1016.4,565.5v-5.2h-3.3c-1.9,0-3.4.4-4.4,1.1-1,.7-1.5,1.9-1.5,3.3s.3,2.3,1,3,1.7,1,2.9,1c2.3,0,4-1.1,5.2-3.3Z"/>
      <path class="st18" d="M1039.5,543.6v26.5h-1.8l-.3-2.9c-1.3,2.2-3.2,3.3-5.7,3.3s-3.9-.9-5.2-2.6-1.9-4.1-1.9-7.1.3-3.7.9-5.1,1.4-2.7,2.6-3.5c1.1-.8,2.4-1.3,3.9-1.3s3.9.9,5.3,2.6v-10.1l2.1.3ZM1035.2,567.9c.8-.6,1.6-1.5,2.2-2.6v-9.8c-1.3-1.9-3-2.8-4.9-2.8s-3.1.7-4.1,2.1-1.5,3.4-1.5,6c0,2.6.5,4.6,1.4,6,.9,1.4,2.2,2.1,3.8,2.1s2.2-.3,3-.9Z"/>
      <path class="st18" d="M1059.2,568c.3.4.7.8,1.2,1l-.5,1.5c-.9-.2-1.5-.5-2-1-.5-.5-.8-1.2-.9-2.2-1.3,2.1-3.3,3.2-5.9,3.2s-3.2-.5-4.3-1.5-1.6-2.4-1.6-4.1.7-3.4,2.1-4.5,3.3-1.6,5.7-1.6h3.6v-1.8c0-1.5-.3-2.6-1-3.3-.7-.7-1.8-1-3.3-1s-3.1.4-5.1,1.1l-.5-1.6c2.1-.8,4.1-1.3,5.9-1.3,4.1,0,6.2,2,6.2,6v9.1c0,1,.1,1.7.4,2.1ZM1056.8,565.5v-5.2h-3.3c-1.9,0-3.4.4-4.4,1.1-1,.7-1.5,1.9-1.5,3.3s.3,2.3,1,3,1.7,1,2.9,1c2.3,0,4-1.1,5.2-3.3Z"/>
    </g>
    <g class="st8">
      <path class="st18" d="M853.5,615.2c-.7.5-1.5.9-2.4,1.1s-1.8.4-2.8.4c-4.2,0-6.3-2.3-6.3-6.9v-8.9h-2.7v-4h2.7v-4.1l5.7-.6v4.8h4.4l-.6,4h-3.8v8.8c0,.9.1,1.5.4,1.9s.7.6,1.4.6,1.3-.2,2.1-.6l1.9,3.6Z"/>
      <path class="st18" d="M860.7,587.8c.6.6,1,1.4,1,2.3s-.3,1.7-1,2.3c-.6.6-1.4.9-2.4.9s-1.8-.3-2.4-.9c-.6-.6-.9-1.4-.9-2.3s.3-1.7.9-2.3c.6-.6,1.4-.9,2.4-.9s1.8.3,2.4.9ZM861.1,597v19.1h-5.7v-19.1h5.7Z"/>
      <path class="st18" d="M881.8,599c1.2,1.8,1.8,4.3,1.8,7.5s-.3,3.7-.9,5.3c-.6,1.5-1.5,2.8-2.6,3.6s-2.5,1.3-4,1.3-3.5-.7-4.6-2v8.7l-5.7.6v-27.1h5l.3,2.1c.7-.9,1.6-1.6,2.6-2.1,1-.4,1.9-.7,3-.7,2.4,0,4.2.9,5.4,2.7ZM877.6,606.6c0-2.3-.3-3.8-.8-4.7-.5-.9-1.3-1.3-2.3-1.3s-1.3.2-1.8.6c-.6.4-1.1.9-1.5,1.7v8.1c.8,1.1,1.7,1.7,2.9,1.7,2.3,0,3.4-2,3.4-6Z"/>
      <path class="st18" d="M902.2,599.1c1.7,1.8,2.5,4.3,2.5,7.5s-.4,3.8-1.1,5.3c-.8,1.5-1.8,2.7-3.2,3.5-1.4.8-3.1,1.3-5,1.3-2.9,0-5.2-.9-6.9-2.7-1.7-1.8-2.5-4.3-2.5-7.5s.4-3.8,1.1-5.3,1.8-2.7,3.2-3.5,3.1-1.3,5-1.3c2.9,0,5.2.9,6.9,2.7ZM892.8,602c-.6,1-.9,2.5-.9,4.5s.3,3.6.8,4.6c.6,1,1.4,1.4,2.6,1.4s2-.5,2.6-1.5c.6-1,.9-2.5.9-4.5s-.3-3.6-.8-4.6c-.6-1-1.4-1.4-2.6-1.4s-2,.5-2.6,1.5Z"/>
      <path class="st18" d="M931.1,591.2c1.2.5,2.4,1.1,3.4,2.1l-2.8,3.3c-.7-.6-1.5-1-2.2-1.3-.7-.3-1.5-.4-2.3-.4-1.7,0-3,.7-4,2.1-1,1.4-1.5,3.6-1.5,6.6s.5,5.1,1.5,6.5c1,1.4,2.3,2.1,4.1,2.1s1.7-.2,2.5-.5c.7-.3,1.5-.8,2.4-1.5l2.6,3.4c-.9.9-2.1,1.7-3.4,2.3-1.3.6-2.8.9-4.4.9-2.3,0-4.3-.5-6-1.5-1.7-1-3-2.5-4-4.5-.9-2-1.4-4.4-1.4-7.1s.5-5.1,1.5-7c1-2,2.3-3.5,4-4.5,1.7-1,3.7-1.5,5.8-1.5s2.9.2,4.2.7Z"/>
    </g>
  </g>
</svg>