<?xml version="1.0" encoding="UTF-8"?>
<svg id="Capa_1" xmlns="http://www.w3.org/2000/svg" xmlns:xlink="http://www.w3.org/1999/xlink" version="1.1" viewBox="0 0 790 736">
  <!-- Generator: Adobe Illustrator 29.3.1, SVG Export Plug-In . SVG Version: 2.1.0 Build 151)  -->
  <defs>
    <style>
      .st0 {
        fill: #373a47;
      }

      .st1 {
        isolation: isolate;
      }

      .st2 {
        fill: none;
        stroke: #afaaaa;
        stroke-miterlimit: 10;
      }

      .st3 {
        fill: #ff2a2a;
      }

      .st4 {
        fill: #8fb5bc;
      }
    </style>
  </defs>
  <g class="st1">
    <g class="st1">
      <path class="st0" d="M47.2,453c1.5.6,2.8,1.5,4.2,2.6l-2.4,2.6c-1.1-.9-2.2-1.5-3.1-1.8s-2.2-.6-3.5-.6-2.9.4-4.2,1.3-2.4,2.2-3.1,4.1c-.7,1.8-1.3,4.2-1.3,7,0,4.2.7,7.4,2,9.4,1.5,2,3.5,2.9,6.3,2.9s4.2-.4,5.7-1.3v-9.2h-5.3l-.6-3.3h9.9v14.7c-3.1,1.8-6.4,2.8-9.9,2.8s-7.2-1.3-9.4-4.1-3.3-6.6-3.3-11.8.6-6.1,1.8-8.5c1.1-2.4,2.8-4.2,4.8-5.3,2-1.3,4.2-1.8,6.6-1.8s3.5.2,5,.7l-.2-.4Z"/>
      <path class="st0" d="M76.1,472.9h-14.9c0,2.6.7,4.4,2,5.7s2.6,1.8,4.4,1.8,2.2,0,3.1-.6c.9-.4,1.8-.9,2.9-1.5l1.8,2.4c-2.4,2-5.2,2.9-8.1,2.9s-5.7-1.1-7.6-3.1c-1.8-2.2-2.8-5-2.8-8.8s.4-4.6,1.1-6.4c.7-1.8,1.8-3.3,3.3-4.4s3.1-1.7,5.2-1.7c3.1,0,5.5,1.1,7.2,3.1s2.4,4.8,2.4,8.5,0,1.3,0,2h-.2ZM72.2,469.8c0-2.2-.4-4.1-1.3-5.3-.9-1.3-2.2-1.8-4.1-1.8-3.3,0-5.2,2.4-5.5,7.4h10.9v-.2Z"/>
      <path class="st0" d="M98.8,461.3c1.1,1.3,1.8,2.9,1.8,5.2v16.8h-4.1v-16.2c0-1.7-.4-2.8-.9-3.5s-1.5-1.1-2.8-1.1-2.4.4-3.3,1.1-1.8,1.7-2.6,3.1v16.6h-4.1v-23.2h3.5l.4,3.5c.7-1.3,1.8-2.2,3.1-2.9s2.6-1.1,4.1-1.1c2.2,0,3.9.6,5,1.8h-.2Z"/>
    </g>
  </g>
  <g class="st1">
    <g class="st1">
      <path class="st0" d="M46.3,526.7c1.3.6,2.6,1.3,3.9,2.2l-2.2,2.8c-1.8-1.5-3.9-2.2-5.9-2.2s-4.6.9-6.1,2.9-2.4,5.2-2.4,9.4.7,7.2,2.2,9.2c1.5,2,3.5,2.9,6.1,2.9s2.4-.2,3.3-.7c.9-.4,2-1.1,3.1-1.8l2,2.6c-.9.9-2.2,1.8-3.7,2.4-1.5.7-3.1.9-5.2.9s-4.6-.6-6.6-1.8c-1.8-1.3-3.5-2.9-4.4-5.3s-1.7-5.2-1.7-8.5.6-6.3,1.7-8.5c1.1-2.4,2.6-4.2,4.6-5.3,1.8-1.3,4.1-1.8,6.4-1.8s3.3.2,4.6.7h.2Z"/>
      <path class="st0" d="M71.3,553.6c.4.4.7.7,1.5,1.1l-.9,2.8c-1.3,0-2.2-.6-2.9-1.1-.7-.6-1.3-1.3-1.7-2.4-1.5,2.4-3.9,3.5-7,3.5s-4.1-.7-5.5-2c-1.3-1.3-2-2.9-2-5.2s.9-4.4,2.8-5.7,4.2-2,7.6-2h3.5v-1.7c0-1.7-.4-2.8-1.1-3.5-.7-.7-2-1.1-3.7-1.1s-3.9.4-6.3,1.3l-1.1-2.9c2.9-1.1,5.5-1.7,8.1-1.7s4.8.7,6.1,2,2,3.3,2,5.7v10.7c0,.9,0,1.7.6,2l.2.2ZM66.7,550.8v-5.3h-3.1c-4.2,0-6.4,1.7-6.4,4.8s.4,2.4,1.1,3.1c.7.7,1.7,1.1,2.9,1.1,2.4,0,4.2-1.3,5.5-3.7h0Z"/>
      <path class="st0" d="M107.1,535c1.1,1.3,1.7,2.9,1.7,5.2v16.8h-4.1v-16.2c0-2.9-1.1-4.4-3.3-4.4s-2.2.4-2.9.9c-.7.7-1.7,1.7-2.6,3.1v16.6h-4.1v-16.2c0-2.9-1.1-4.4-3.3-4.4s-2.2.4-2.9,1.1c-.7.7-1.7,1.7-2.6,3.1v16.6h-4.1v-23.2h3.5l.4,3.3c1.7-2.6,4.1-3.9,6.6-3.9s2.8.4,3.7,1.1c1.1.7,1.7,1.8,2.2,3.1.9-1.3,1.8-2.4,2.9-3.1,1.1-.7,2.4-1.1,3.9-1.1s3.5.6,4.6,1.8l.4-.2Z"/>
      <path class="st0" d="M133.9,536.3c1.5,2.2,2.4,5.2,2.4,9s-.4,4.6-1.1,6.4-1.8,3.3-3.1,4.2-2.9,1.5-4.8,1.5-4.4-1.1-6.3-3.1l-.4,2.6h-3.5v-32.6l4.1-.6v12.7c1.7-2.2,3.9-3.5,6.6-3.5s4.8,1.1,6.3,3.1l-.2.2ZM130.4,551.9c1.1-1.5,1.5-3.7,1.5-6.8s-.6-5.3-1.5-6.8c-.9-1.5-2.2-2-4.1-2s-3.9,1.3-5.5,3.7v11.1c.6.9,1.3,1.7,2.2,2.2.9.6,1.8.9,2.8.9,1.8,0,3.1-.7,4.2-2.2h.4Z"/>
      <path class="st0" d="M147.4,523.2c.6.6.7,1.1.7,2s-.2,1.5-.7,2c-.6.6-1.3.7-2,.7s-1.5-.2-2-.7-.7-1.1-.7-2,.2-1.5.7-2,1.3-.7,2-.7,1.5.2,2,.7ZM147.4,533.7v23.2h-4.1v-23.2h4.1Z"/>
      <path class="st0" d="M172.1,536.3c1.8,2.2,2.8,5.2,2.8,8.8s-.4,4.6-1.3,6.4c-.7,1.8-2,3.3-3.5,4.2-1.5,1.1-3.5,1.5-5.5,1.5-3.3,0-5.9-1.1-7.7-3.3-1.8-2.2-2.8-5.2-2.8-8.8s.4-4.6,1.3-6.4c.7-1.8,2-3.3,3.5-4.2,1.5-1.1,3.5-1.5,5.5-1.5,3.3,0,5.9,1.1,7.6,3.3h.2ZM158.4,545.3c0,5.9,2,8.8,6.1,8.8s6.1-2.9,6.1-8.8-2-8.8-5.9-8.8-6.1,2.9-6.1,8.8h-.2Z"/>
      <path class="st0" d="M210.8,546.6h-14.9c0,2.6.7,4.4,2,5.7s2.6,1.8,4.4,1.8,2.2,0,3.1-.6c.9-.4,1.8-.9,2.9-1.5l1.8,2.4c-2.4,2-5.2,2.9-8.1,2.9s-5.7-1.1-7.6-3.1c-1.8-2.2-2.8-5-2.8-8.8s.4-4.6,1.1-6.4c.7-1.8,1.8-3.3,3.3-4.4s3.1-1.7,5.2-1.7c3.1,0,5.5,1.1,7.2,3.1s2.4,4.8,2.4,8.5,0,1.3,0,2h-.2ZM206.9,543.5c0-2.2-.4-4.1-1.3-5.3-.9-1.3-2.2-1.8-4.1-1.8-3.3,0-5.2,2.4-5.5,7.4h10.9v-.2Z"/>
      <path class="st0" d="M233.2,535c1.1,1.3,1.8,2.9,1.8,5.2v16.8h-4.1v-16.2c0-1.7-.4-2.8-.9-3.5s-1.5-1.1-2.8-1.1-2.4.4-3.3,1.1-1.8,1.7-2.6,3.1v16.6h-4.1v-23.2h3.5l.4,3.5c.7-1.3,1.8-2.2,3.1-2.9s2.6-1.1,4.1-1.1c2.2,0,3.9.6,5,1.8h-.2Z"/>
      <path class="st0" d="M256.1,556.2c-.9-.9-1.3-2.2-1.3-3.9v-28l4.1-.6v28.6c0,.7,0,1.1.4,1.5.2.4.6.4,1.1.4s1.1,0,1.5-.2l1.1,2.8c-.9.6-2,.7-3.3.7s-2.8-.4-3.5-1.3h0Z"/>
      <path class="st0" d="M283.9,553.6c.4.4.7.7,1.5,1.1l-.9,2.8c-1.3,0-2.2-.6-2.9-1.1-.7-.6-1.3-1.3-1.7-2.4-1.5,2.4-3.9,3.5-7,3.5s-4.1-.7-5.5-2c-1.3-1.3-2-2.9-2-5.2s.9-4.4,2.8-5.7,4.2-2,7.6-2h3.5v-1.7c0-1.7-.4-2.8-1.1-3.5-.7-.7-2-1.1-3.7-1.1s-3.9.4-6.3,1.3l-1.1-2.9c2.9-1.1,5.5-1.7,8.1-1.7s4.8.7,6.1,2,2,3.3,2,5.7v10.7c0,.9,0,1.7.6,2l.2.2ZM279.3,550.8v-5.3h-3.1c-4.2,0-6.4,1.7-6.4,4.8s.4,2.4,1.1,3.1c.7.7,1.7,1.1,2.9,1.1,2.4,0,4.2-1.3,5.5-3.7h0Z"/>
      <path class="st0" d="M320.7,536.3c1.5,2.2,2,5.2,2,9s-.7,6.6-2.4,8.8c-1.7,2.2-3.9,3.3-6.8,3.3s-4.6-.9-6.1-2.6v11.1l-4.1.6v-32.8h3.5l.4,3.1c.9-1.1,1.8-2,3.1-2.8,1.3-.6,2.4-.9,3.9-.9,2.9,0,5.2,1.1,6.6,3.1h-.2ZM318.3,545.3c0-5.9-1.8-8.8-5.3-8.8s-2.2.4-3.1,1.1-1.8,1.5-2.4,2.6v11.4c.6.9,1.3,1.7,2.2,2,.9.6,1.8.7,2.9.7,3.9,0,5.7-2.9,5.7-8.8v-.2Z"/>
      <path class="st0" d="M342.1,533.3l-.7,4.1c-.7,0-1.5-.2-2-.2-1.5,0-2.6.6-3.5,1.7s-1.7,2.8-2,5v13.3h-4.1v-23.2h3.5l.4,4.8c.6-1.7,1.5-3.1,2.6-3.9,1.1-.9,2.2-1.3,3.7-1.3s1.7,0,2.2.2v-.4Z"/>
      <path class="st0" d="M361.8,536.3c1.8,2.2,2.8,5.2,2.8,8.8s-.4,4.6-1.3,6.4c-.7,1.8-2,3.3-3.5,4.2-1.5,1.1-3.5,1.5-5.5,1.5-3.3,0-5.9-1.1-7.7-3.3-1.8-2.2-2.8-5.2-2.8-8.8s.4-4.6,1.3-6.4c.7-1.8,2-3.3,3.5-4.2,1.5-1.1,3.5-1.5,5.5-1.5,3.3,0,5.9,1.1,7.6,3.3h.2ZM348.2,545.3c0,5.9,2,8.8,6.1,8.8s6.1-2.9,6.1-8.8-2-8.8-5.9-8.8-6.1,2.9-6.1,8.8h-.2Z"/>
      <path class="st0" d="M383,555.8c-1.5,1.1-3.3,1.7-5.2,1.7s-3.5-.6-4.6-1.7-1.7-2.8-1.7-5v-14h-4.1v-3.1h4.1v-5.3l4.1-.6v5.7h5.5l-.4,3.1h-5.2v13.8c0,1.3.2,2,.6,2.6.4.6,1.1.7,2.2.7s2-.4,3.1-.9l1.5,2.8v.2Z"/>
      <path class="st0" d="M404.2,546.6h-14.9c0,2.6.7,4.4,2,5.7s2.6,1.8,4.4,1.8,2.2,0,3.1-.6c.9-.4,1.8-.9,2.9-1.5l1.8,2.4c-2.4,2-5.2,2.9-8.1,2.9s-5.7-1.1-7.6-3.1c-1.8-2.2-2.8-5-2.8-8.8s.4-4.6,1.1-6.4,1.8-3.3,3.3-4.4,3.1-1.7,5.2-1.7c3.1,0,5.5,1.1,7.2,3.1s2.4,4.8,2.4,8.5,0,1.3,0,2h-.2ZM400.1,543.5c0-2.2-.4-4.1-1.3-5.3-.9-1.3-2.2-1.8-4.1-1.8-3.3,0-5.2,2.4-5.5,7.4h10.9v-.2Z"/>
      <path class="st0" d="M416.2,521.6l1.8,3.3-9.4,3.9-1.3-2.2,8.8-5h0ZM414.7,533.7v23.2h-4.1v-23.2h4.1Z"/>
      <path class="st0" d="M439.2,535c1.1,1.3,1.8,2.9,1.8,5.2v16.8h-4.1v-16.2c0-1.7-.4-2.8-.9-3.5s-1.5-1.1-2.8-1.1-2.4.4-3.3,1.1-1.8,1.7-2.6,3.1v16.6h-4.1v-23.2h3.5l.4,3.5c.7-1.3,1.8-2.2,3.1-2.9s2.6-1.1,4.1-1.1c2.2,0,3.9.6,5,1.8h-.2Z"/>
      <path class="st0" d="M465.3,553.6c.4.4.7.7,1.5,1.1l-.9,2.8c-1.3,0-2.2-.6-2.9-1.1-.7-.6-1.3-1.3-1.7-2.4-1.5,2.4-3.9,3.5-7,3.5s-4.1-.7-5.5-2c-1.3-1.3-2-2.9-2-5.2s.9-4.4,2.8-5.7,4.2-2,7.6-2h3.5v-1.7c0-1.7-.4-2.8-1.1-3.5s-2-1.1-3.7-1.1-3.9.4-6.3,1.3l-1.1-2.9c2.9-1.1,5.5-1.7,8.1-1.7s4.8.7,6.1,2c1.3,1.3,2,3.3,2,5.7v10.7c0,.9,0,1.7.6,2l.2.2ZM460.7,550.8v-5.3h-3.1c-4.2,0-6.4,1.7-6.4,4.8s.4,2.4,1.1,3.1c.7.7,1.7,1.1,2.9,1.1,2.4,0,4.2-1.3,5.5-3.7h0Z"/>
    </g>
  </g>
  <g class="st1">
    <g class="st1">
      <path class="st0" d="M58.2,630.6h-4.1l-1.1-13.8c-.4-5.3-.7-9.6-.7-12.3l-6.6,22.7h-3.9l-7-22.8c0,3.7-.2,7.9-.6,12.7l-1.1,13.4h-4.1l2.6-30.4h5.7l6.4,22.1,6.1-22.1h5.7l2.6,30.4v.2Z"/>
      <path class="st0" d="M82.6,630.6h-3.5l-.4-3.7c-.9,1.5-1.8,2.6-3.1,3.1-1.1.7-2.6.9-4.2.9s-3.7-.6-4.8-1.8-1.7-2.9-1.7-5.3v-16.8h4.1v16.2c0,1.7.4,2.8.9,3.3.6.7,1.5.9,2.8.9,2.2,0,4.2-1.3,5.9-4.1v-16.6h4.1v23.8Z"/>
      <path class="st0" d="M102.6,629.5c-1.5,1.1-3.3,1.7-5.2,1.7s-3.5-.6-4.6-1.7-1.7-2.8-1.7-5v-14h-4.1v-3.1h4.1v-5.3l4.1-.6v5.7h5.5l-.4,3.1h-5.2v13.8c0,1.3.2,2,.6,2.6s1.1.7,2.2.7,2-.4,3.1-.9l1.5,2.8v.2Z"/>
      <path class="st0" d="M122.7,627.3c.4.4.7.7,1.5,1.1l-.9,2.8c-1.3,0-2.2-.6-2.9-1.1-.7-.6-1.3-1.3-1.7-2.4-1.5,2.4-3.9,3.5-7,3.5s-4.1-.7-5.5-2c-1.3-1.3-2-2.9-2-5.2s.9-4.4,2.8-5.7,4.2-2,7.6-2h3.5v-1.7c0-1.7-.4-2.8-1.1-3.5-.7-.7-2-1.1-3.7-1.1s-3.9.4-6.3,1.3l-1.1-2.9c2.9-1.1,5.5-1.7,8.1-1.7s4.8.7,6.1,2,2,3.3,2,5.7v10.7c0,.9,0,1.7.6,2l.2.2ZM118.1,624.5v-5.3h-3.1c-4.2,0-6.4,1.7-6.4,4.8s.4,2.4,1.1,3.1c.7.7,1.7,1.1,2.9,1.1,2.4,0,4.2-1.3,5.5-3.7h0Z"/>
      <path class="st0" d="M142.8,607.4c1.1.4,2.2,1.1,3.3,1.8l-2,2.6c-.7-.6-1.7-1.1-2.4-1.3-.7-.4-1.7-.4-2.6-.4-1.8,0-3.3.7-4.4,2.2-1.1,1.5-1.7,3.7-1.7,6.6s.6,5.2,1.5,6.4,2.6,2,4.4,2,1.8,0,2.6-.4,1.7-.7,2.6-1.3l1.8,2.6c-2.2,1.7-4.4,2.6-7.2,2.6s-5.7-1.1-7.4-3.1c-1.8-2.2-2.8-5-2.8-8.8s.4-4.6,1.3-6.4c.7-1.8,2-3.3,3.5-4.4,1.5-1.1,3.3-1.5,5.3-1.5s2.6.2,3.9.6l.2.2Z"/>
      <path class="st0" d="M155.9,596.9c.6.6.7,1.1.7,2s-.2,1.5-.7,2c-.6.6-1.3.7-2,.7s-1.5-.2-2-.7-.7-1.1-.7-2,.2-1.5.7-2,1.3-.7,2-.7,1.5.2,2,.7ZM155.9,607.4v23.2h-4.1v-23.2h4.1Z"/>
      <path class="st0" d="M180.6,610c1.8,2.2,2.8,5.2,2.8,8.8s-.4,4.6-1.3,6.4c-.7,1.8-2,3.3-3.5,4.2-1.5,1.1-3.5,1.5-5.5,1.5-3.3,0-5.9-1.1-7.7-3.3-1.8-2.2-2.8-5.2-2.8-8.8s.4-4.6,1.3-6.4c.7-1.8,2-3.3,3.5-4.2,1.5-1.1,3.5-1.5,5.5-1.5,3.3,0,5.9,1.1,7.6,3.3h.2ZM166.9,619c0,5.9,2,8.8,6.1,8.8s6.1-2.9,6.1-8.8-2-8.8-5.9-8.8-6.1,2.9-6.1,8.8h-.2ZM176.3,595.2l1.8,3.3-9.4,3.9-1.3-2.2,8.8-5h0Z"/>
      <path class="st0" d="M206,608.7c1.1,1.3,1.8,2.9,1.8,5.2v16.8h-4.1v-16.2c0-1.7-.4-2.8-.9-3.5s-1.5-1.1-2.8-1.1-2.4.4-3.3,1.1-1.8,1.7-2.6,3.1v16.6h-4.1v-23.2h3.5l.4,3.5c.7-1.3,1.8-2.2,3.1-2.9s2.6-1.1,4.1-1.1c2.2,0,3.9.6,5,1.8h-.2Z"/>
    </g>
  </g>
  <g class="st1">
    <g class="st1">
      <path class="st0" d="M49,673.9l-.4,3.5h-8.5v26.9h-4.2v-26.9h-8.7v-3.5h21.7Z"/>
      <path class="st0" d="M64.7,680.7l-.7,4.1c-.7,0-1.5-.2-2-.2-1.5,0-2.6.6-3.5,1.7s-1.7,2.8-2,5v13.3h-4.1v-23.2h3.5l.4,4.8c.6-1.7,1.5-3.1,2.6-3.9,1.1-.9,2.2-1.3,3.7-1.3s1.7,0,2.2.2v-.4Z"/>
      <path class="st0" d="M84,701c.4.4.7.7,1.5,1.1l-.9,2.8c-1.3,0-2.2-.6-2.9-1.1-.7-.6-1.3-1.3-1.7-2.4-1.5,2.4-3.9,3.5-7,3.5s-4.1-.7-5.5-2c-1.3-1.3-2-2.9-2-5.2s.9-4.4,2.8-5.7,4.2-2,7.6-2h3.5v-1.7c0-1.7-.4-2.8-1.1-3.5-.7-.7-2-1.1-3.7-1.1s-3.9.4-6.3,1.3l-1.1-2.9c2.9-1.1,5.5-1.7,8.1-1.7s4.8.7,6.1,2,2,3.3,2,5.7v10.7c0,.9,0,1.7.6,2l.2.2ZM79.4,698.2v-5.3h-3.1c-4.2,0-6.4,1.7-6.4,4.8s.4,2.4,1.1,3.1c.7.7,1.7,1.1,2.9,1.1,2.4,0,4.2-1.3,5.5-3.7h0Z"/>
      <path class="st0" d="M103.6,703.2c-1.5,1.1-3.3,1.7-5.2,1.7s-3.5-.6-4.6-1.7-1.7-2.8-1.7-5v-14h-4.1v-3.1h4.1v-5.3l4.1-.6v5.7h5.5l-.4,3.1h-5.2v13.8c0,1.3.2,2,.6,2.6s1.1.7,2.2.7,2-.4,3.1-.9l1.5,2.8v.2Z"/>
      <path class="st0" d="M123.6,701c.4.4.7.7,1.5,1.1l-.9,2.8c-1.3,0-2.2-.6-2.9-1.1-.7-.6-1.3-1.3-1.7-2.4-1.5,2.4-3.9,3.5-7,3.5s-4.1-.7-5.5-2c-1.3-1.3-2-2.9-2-5.2s.9-4.4,2.8-5.7,4.2-2,7.6-2h3.5v-1.7c0-1.7-.4-2.8-1.1-3.5-.7-.7-2-1.1-3.7-1.1s-3.9.4-6.3,1.3l-1.1-2.9c2.9-1.1,5.5-1.7,8.1-1.7s4.8.7,6.1,2,2,3.3,2,5.7v10.7c0,.9,0,1.7.6,2l.2.2ZM119.2,698.2v-5.3h-3.1c-4.2,0-6.4,1.7-6.4,4.8s.4,2.4,1.1,3.1c.7.7,1.7,1.1,2.9,1.1,2.4,0,4.2-1.3,5.5-3.7h0Z"/>
      <path class="st0" d="M159.6,682.4c1.1,1.3,1.7,2.9,1.7,5.2v16.8h-4.1v-16.2c0-2.9-1.1-4.4-3.3-4.4s-2.2.4-2.9.9c-.7.7-1.7,1.7-2.6,3.1v16.6h-4.1v-16.2c0-2.9-1.1-4.4-3.3-4.4s-2.2.4-2.9,1.1c-.7.7-1.7,1.7-2.6,3.1v16.6h-4.1v-23.2h3.5l.4,3.3c1.7-2.6,4.1-3.9,6.6-3.9s2.8.4,3.7,1.1c1.1.7,1.7,1.8,2.2,3.1.9-1.3,1.8-2.4,2.9-3.1,1.1-.7,2.4-1.1,3.9-1.1s3.5.6,4.6,1.8l.4-.2Z"/>
      <path class="st0" d="M173.6,670.6c.6.6.7,1.1.7,2s-.2,1.5-.7,2c-.6.6-1.3.7-2,.7s-1.5-.2-2-.7-.7-1.1-.7-2,.2-1.5.7-2,1.3-.7,2-.7,1.5.2,2,.7ZM173.6,681.1v23.2h-4.1v-23.2h4.1Z"/>
      <path class="st0" d="M199.3,694h-14.9c0,2.6.7,4.4,2,5.7s2.6,1.8,4.4,1.8,2.2,0,3.1-.6c.9-.4,1.8-.9,2.9-1.5l1.8,2.4c-2.4,2-5.2,2.9-8.1,2.9s-5.7-1.1-7.6-3.1c-1.8-2.2-2.8-5-2.8-8.8s.4-4.6,1.1-6.4c.7-1.8,1.8-3.3,3.3-4.4s3.1-1.7,5.2-1.7c3.1,0,5.5,1.1,7.2,3.1s2.4,4.8,2.4,8.5,0,1.3,0,2h-.2ZM195.5,690.8c0-2.2-.4-4.1-1.3-5.3-.9-1.3-2.2-1.8-4.1-1.8-3.3,0-5.2,2.4-5.5,7.4h10.9v-.2Z"/>
      <path class="st0" d="M222,682.4c1.1,1.3,1.8,2.9,1.8,5.2v16.8h-4.1v-16.2c0-1.7-.4-2.8-.9-3.5s-1.5-1.1-2.8-1.1-2.4.4-3.3,1.1-1.8,1.7-2.6,3.1v16.6h-4.1v-23.2h3.5l.4,3.5c.7-1.3,1.8-2.2,3.1-2.9s2.6-1.1,4.1-1.1c2.2,0,3.9.6,5,1.8h-.2Z"/>
      <path class="st0" d="M243.7,703.2c-1.5,1.1-3.3,1.7-5.2,1.7s-3.5-.6-4.6-1.7-1.7-2.8-1.7-5v-14h-4.1v-3.1h4.1v-5.3l4.1-.6v5.7h5.5l-.4,3.1h-5.2v13.8c0,1.3.2,2,.6,2.6s1.1.7,2.2.7,2-.4,3.1-.9l1.5,2.8v.2Z"/>
      <path class="st0" d="M263.6,683.7c1.8,2.2,2.8,5.2,2.8,8.8s-.4,4.6-1.3,6.4c-.7,1.8-2,3.3-3.5,4.2-1.5,1.1-3.5,1.5-5.5,1.5-3.3,0-5.9-1.1-7.7-3.3-1.8-2.2-2.8-5.2-2.8-8.8s.4-4.6,1.3-6.4c.7-1.8,2-3.3,3.5-4.2,1.5-1.1,3.5-1.5,5.5-1.5,3.3,0,5.9,1.1,7.6,3.3h.2ZM249.8,692.7c0,5.9,2,8.8,6.1,8.8s6.1-2.9,6.1-8.8-2-8.8-5.9-8.8-6.1,2.9-6.1,8.8h-.2Z"/>
    </g>
  </g>
  <g class="st1">
    <g class="st1">
      <path class="st0" d="M529.6,469.2c1.3,1.1,1.8,2.8,1.8,5,0,3.3-1.1,5.5-3.5,7s-5.7,2-9.8,2h-9.9v-30.6h8.7c4.2,0,7.6.6,9.9,1.8,2.2,1.3,3.3,3.1,3.3,6.1s-.6,3.3-1.7,4.4-2.4,1.8-4.1,2.2c2,.4,3.7,1.1,5,2.2l.2-.2ZM515.6,457.8v7.2h2.8c3.1,0,4.6-1.3,4.6-3.7s-.4-2-1.3-2.6c-.7-.6-2.2-.7-3.9-.7h-2.2v-.2ZM522.6,477.2c.9-.6,1.5-1.7,1.5-3.1,0-2.8-1.8-4.2-5.3-4.2h-3.1v8.3h2.6c1.8,0,3.3-.4,4.4-.9h0Z"/>
      <path class="st0" d="M545.7,471.4h-2.8v11.8h-7.2v-30.6h9.9c4.2,0,7.4.7,9.4,2.2s3.1,3.9,3.1,7-.6,3.7-1.5,5-2.4,2.4-4.4,3.3l7.7,13.1h-8.1l-6.3-11.8h0ZM542.9,466.5h3.1c1.7,0,2.8-.4,3.7-1.1.7-.7,1.3-1.8,1.3-3.5s-.4-2.6-1.3-3.3-2.2-1.1-4.1-1.1h-2.6v8.8l-.2.2Z"/>
      <path class="st0" d="M579,483.2l-1.7-6.6h-8.8l-1.5,6.6h-7.6l9.2-30.6h8.8l9.2,30.6h-7.7ZM569.8,471.4h6.4l-3.3-13.4-3.3,13.4h.2Z"/>
      <path class="st0" d="M589,483.2v-30.6h18.2l-.7,5.2h-10.3v8.1h8.8v5.2h-8.8v12.2h-7.2Z"/>
    </g>
  </g>
  <g class="st1">
    <g class="st1">
      <path class="st0" d="M531.3,526.3l-8.5,30.6h-9l-8.8-30.6h7.7l5.9,25.1,5.5-25.1h7.4-.2Z"/>
      <path class="st0" d="M550.1,537.9c1.3.7,2.4,1.8,3.1,3.3.7,1.5,1.1,3.3,1.1,5.3s-.4,3.9-1.3,5.5-2.2,2.9-3.9,3.9-3.5,1.5-5.7,1.5c-3.9,0-6.6-1.3-8.5-3.9s-2.8-6.1-2.8-10.5.6-6.3,1.7-8.8,2.6-4.4,4.4-5.9,4.2-2,7-2,4.8.7,6.8,2l-2.6,4.2c-1.3-.7-2.8-1.1-4.1-1.1s-2.9.7-4.1,2.2c-1.1,1.5-1.7,3.5-1.8,6.1,1.8-1.8,3.9-2.8,6.3-2.8s3.1.4,4.4,1.1l-.2-.2ZM546.4,551c.6-1.1.9-2.4.9-4.2s-.4-3.1-.9-4.1c-.6-.7-1.5-1.1-2.6-1.1s-3.1.7-4.4,2.4c0,3.1.4,5.3,1.1,6.6s1.7,2,3.1,2,2.2-.6,2.8-1.7h0Z"/>
      <path class="st0" d="M576.8,530.4c1.8,2.8,2.9,6.6,2.9,11.6s-.9,8.8-2.9,11.6c-1.8,2.8-4.8,4.1-8.3,4.1s-6.4-1.3-8.3-4.1-2.9-6.6-2.9-11.6.9-8.8,2.9-11.6c2-2.8,4.8-4.1,8.3-4.1s6.4,1.3,8.3,4.1ZM565.9,532.6c-.6.7-1.1,1.7-1.3,3.3-.4,1.5-.4,3.5-.4,6.3s0,4.8.4,6.3.7,2.6,1.3,3.3c.6.7,1.5.9,2.4.9s1.8-.4,2.4-.9,1.1-1.7,1.3-3.3c.4-1.5.4-3.7.4-6.3s0-4.8-.4-6.3-.7-2.6-1.3-3.1-1.5-.9-2.4-.9-1.8.4-2.4.9v-.2Z"/>
      <path class="st0" d="M602.6,530.4c1.8,2.8,2.9,6.6,2.9,11.6s-.9,8.8-2.9,11.6c-1.8,2.8-4.8,4.1-8.3,4.1s-6.4-1.3-8.3-4.1-2.9-6.6-2.9-11.6.9-8.8,2.9-11.6,4.8-4.1,8.3-4.1,6.4,1.3,8.3,4.1ZM591.9,532.6c-.6.7-1.1,1.7-1.3,3.3-.4,1.5-.4,3.5-.4,6.3s0,4.8.4,6.3.7,2.6,1.3,3.3c.6.7,1.5.9,2.4.9s1.8-.4,2.4-.9,1.1-1.7,1.3-3.3c.4-1.5.4-3.7.4-6.3s0-4.8-.4-6.3-.7-2.6-1.3-3.1-1.5-.9-2.4-.9-1.8.4-2.4.9v-.2Z"/>
      <path class="st0" d="M628.7,526.3l-.7,5.2h-10.9v7.4h9.4v5.2h-9.4v7.7h11.6v5.2h-18.8v-30.6h18.8Z"/>
    </g>
  </g>
  <g class="st1">
    <g class="st1">
      <path class="st0" d="M515.6,600v30.6h-7.2v-30.6h7.2Z"/>
      <path class="st0" d="M551.6,608.3c1.1,1.3,1.7,2.9,1.7,5.2v17.1h-7v-16c0-2-.7-3.1-2-3.1s-1.5.2-2,.7c-.6.6-1.1,1.3-1.7,2.2v16h-7v-16c0-2-.7-3.1-2-3.1s-1.3.2-1.8.7-1.1,1.3-1.7,2.2v16h-7v-23.4h6.1l.6,2.8c.9-1.1,1.8-2,2.9-2.6s2.4-.9,3.9-.9,2.4.4,3.5.9c.9.7,1.7,1.5,2,2.8.9-1.3,2-2.2,3.1-2.8s2.4-.9,3.9-.9,3.3.6,4.4,1.8l.2.4Z"/>
      <path class="st0" d="M578.5,609.6c1.5,2.2,2.2,5.2,2.2,9.2s-.4,4.6-1.1,6.4-1.8,3.3-3.3,4.4-3.1,1.7-5,1.7-4.2-.7-5.7-2.4v10.7l-7,.7v-33.3h6.1l.4,2.6c.9-1.1,2-2,3.1-2.6s2.4-.7,3.7-.7c2.9,0,5.2,1.1,6.6,3.3h0ZM573.3,618.8c0-2.8-.4-4.6-.9-5.7s-1.5-1.7-2.8-1.7-1.5.2-2.2.7c-.7.6-1.3,1.1-1.8,2v9.9c.9,1.5,2.2,2,3.5,2,2.8,0,4.2-2.4,4.2-7.4h0Z"/>
      <path class="st0" d="M604.8,630.6h-6.1l-.4-2.9c-1.7,2.4-4.1,3.7-7.2,3.7s-3.9-.7-5-2-1.7-3.1-1.7-5.5v-16.8h7v16c0,1.1,0,2,.6,2.4.4.4.9.7,1.7.7,1.5,0,2.8-.9,3.9-2.8v-16.4h7v23.4l.2.2Z"/>
      <path class="st0" d="M611.8,629.7c-1.1-1.1-1.7-2.8-1.7-5v-26.9l7-.7v27.3c0,.9.4,1.5,1.1,1.5s.7,0,1.1-.2l1.3,5c-1.3.6-2.8.7-4.2.7s-3.7-.6-4.8-1.7h.2Z"/>
      <path class="st0" d="M636.3,607.2c1.5.6,2.8,1.3,3.9,2.2l-2.6,3.9c-1.8-1.3-3.9-1.8-5.7-1.8s-1.7,0-2,.6c-.6.4-.7.7-.7,1.3s0,.7.4,1.1c.2.4.7.6,1.3.9.7.4,1.7.7,3.1,1.1,2.4.7,4.2,1.7,5.5,2.8s1.8,2.8,1.8,4.8-.4,2.9-1.3,4.1-2.2,2-3.7,2.8c-1.7.6-3.3.9-5.3.9s-3.9-.4-5.5-.9-3.1-1.5-4.2-2.6l3.3-3.9c2,1.5,4.1,2.2,6.3,2.2s1.8-.2,2.6-.6c.6-.4.9-.9.9-1.7s0-.9-.4-1.3c-.2-.4-.7-.6-1.3-.9-.7-.4-1.8-.6-3.3-1.1-2.4-.7-4.1-1.7-5.2-2.8-1.1-1.3-1.7-2.8-1.7-4.4s.4-2.6,1.1-3.7,1.8-1.8,3.3-2.6,3.1-.9,5-.9,3.3.2,4.8.7l-.4-.2Z"/>
      <path class="st0" d="M663.4,609.6c2,2.2,3.1,5.3,3.1,9.2s-.6,4.6-1.5,6.6c-.9,1.8-2.2,3.3-4.1,4.4-1.7,1.1-3.7,1.5-6.1,1.5-3.5,0-6.4-1.1-8.5-3.3-2-2.2-3.1-5.3-3.1-9.2s.6-4.6,1.5-6.6c.9-1.8,2.2-3.3,4.1-4.4,1.7-1.1,3.7-1.5,6.1-1.5,3.7,0,6.4,1.1,8.5,3.3ZM651.8,613.3c-.7,1.1-1.1,3.1-1.1,5.5s.4,4.4,1.1,5.5,1.8,1.8,3.1,1.8,2.4-.6,3.1-1.8c.7-1.1,1.1-3.1,1.1-5.5s-.4-4.4-1.1-5.5-1.8-1.8-3.1-1.8-2.4.6-3.1,1.8Z"/>
      <path class="st0" d="M685.7,606.8l-1.1,6.8c-.9-.2-1.7-.4-2.2-.4-1.5,0-2.4.6-3.1,1.5-.7.9-1.3,2.4-1.7,4.2v11.6h-7v-23.4h6.1l.6,4.6c.6-1.7,1.3-2.9,2.4-3.9s2.2-1.5,3.7-1.5,1.7,0,2.4.4h0Z"/>
      <path class="st0" d="M705.7,625.8c.2.4.7.7,1.3.9l-1.5,4.6c-1.5,0-2.6-.4-3.5-.9s-1.7-1.3-2.2-2.4c-1.5,2.4-3.9,3.5-7,3.5s-4.2-.7-5.5-2c-1.5-1.3-2-3.1-2-5.3s.9-4.6,2.8-5.9,4.6-2,8.1-2h2.4v-1.1c0-1.5-.4-2.4-.9-2.8-.6-.6-1.7-.7-3.1-.7s-1.7,0-2.8.4c-1.1.2-2.2.6-3.3.9l-1.7-4.6c1.5-.6,2.9-.9,4.6-1.3,1.5-.4,2.9-.4,4.2-.4,3.3,0,5.9.7,7.4,2,1.5,1.5,2.4,3.5,2.4,6.3v9c0,.9,0,1.5.4,2v-.2ZM698.6,624.2v-4.2h-1.7c-1.7,0-2.8.4-3.5.9s-1.1,1.5-1.1,2.6.2,1.7.7,2.2c.6.6,1.1.7,2,.7,1.7,0,2.8-.7,3.7-2.2h-.2Z"/>
    </g>
  </g>
  <g class="st1">
    <g class="st1">
      <path class="st0" d="M531.3,673.7l-8.5,30.6h-9l-8.8-30.6h7.7l5.9,25.1,5.5-25.1h7.4-.2Z"/>
      <path class="st0" d="M552.7,694.5h-14.6c.2,2,.7,3.3,1.7,4.2s2,1.1,3.7,1.1,1.8,0,2.8-.6,1.8-.9,2.9-1.7l2.9,3.9c-2.8,2.2-5.7,3.3-9.2,3.3s-6.6-1.1-8.8-3.3-3.1-5.2-3.1-9,.4-4.6,1.3-6.4,2-3.3,3.7-4.4,3.7-1.7,5.9-1.7c3.3,0,6.1,1.1,7.9,3.1,1.8,2.2,2.9,5.2,2.9,8.8s0,1.8,0,2.6h0ZM546,690.1c0-3.7-1.3-5.3-3.9-5.3s-2.2.4-2.8,1.3c-.7.9-1.1,2.4-1.3,4.4h7.7v-.4h.2Z"/>
      <path class="st0" d="M587.1,682c1.1,1.3,1.7,2.9,1.7,5.2v17.1h-7v-16c0-2-.7-3.1-2-3.1s-1.5.2-2,.7c-.6.6-1.1,1.3-1.7,2.2v16h-7v-16c0-2-.7-3.1-2-3.1s-1.3.2-1.8.7-1.1,1.3-1.7,2.2v16h-7v-23.4h6.1l.6,2.8c.9-1.1,1.8-2,2.9-2.6s2.4-.9,3.9-.9,2.4.4,3.5.9c.9.7,1.7,1.5,2,2.8.9-1.3,2-2.2,3.1-2.8s2.4-.9,3.9-.9,3.3.6,4.4,1.8l.2.4Z"/>
      <path class="st0" d="M613.8,704.3h-6.1l-.4-2.9c-1.7,2.4-4.1,3.7-7.2,3.7s-3.9-.7-5-2-1.7-3.1-1.7-5.5v-16.8h7v16c0,1.1,0,2,.6,2.4.4.4.9.7,1.7.7,1.5,0,2.8-.9,3.9-2.8v-16.4h7v23.4l.2.2Z"/>
      <path class="st0" d="M634.5,680.5l-1.1,6.8c-.9-.2-1.7-.4-2.2-.4-1.5,0-2.4.6-3.1,1.5-.7.9-1.3,2.4-1.7,4.2v11.6h-7v-23.4h6.1l.6,4.6c.6-1.7,1.3-2.9,2.4-3.9s2.2-1.5,3.7-1.5,1.7,0,2.4.4h0Z"/>
      <path class="st0" d="M654.5,699.5c.2.4.7.7,1.3.9l-1.5,4.6c-1.5,0-2.6-.4-3.5-.9s-1.7-1.3-2.2-2.4c-1.5,2.4-3.9,3.5-7,3.5s-4.2-.7-5.5-2c-1.5-1.3-2-3.1-2-5.3s.9-4.6,2.8-5.9,4.6-2,8.1-2h2.4v-1.1c0-1.5-.4-2.4-.9-2.8-.6-.6-1.7-.7-3.1-.7s-1.7,0-2.8.4c-1.1.2-2.2.6-3.3.9l-1.7-4.6c1.5-.6,2.9-.9,4.6-1.3,1.5-.4,2.9-.4,4.2-.4,3.3,0,5.9.7,7.4,2,1.5,1.5,2.4,3.5,2.4,6.3v9c0,.9,0,1.5.4,2v-.2ZM647.4,697.8v-4.2h-1.7c-1.7,0-2.8.4-3.5.9s-1.1,1.5-1.1,2.6.2,1.7.7,2.2c.6.6,1.1.7,2,.7,1.7,0,2.8-.7,3.7-2.2h-.2Z"/>
      <path class="st0" d="M668.4,676.7c-.4.6-.7,1.3-.7,2.4v1.8h5.5l-.7,4.8h-4.8v18.6h-7v-18.6h-3.5v-4.8h3.5v-2c0-2.4.7-4.2,2.4-5.7s3.7-2.2,6.6-2.2,4.4.6,6.4,1.5l-1.8,4.6c-1.1-.6-2.4-.9-3.7-.9s-1.7.2-2.2.7v-.2Z"/>
      <path class="st0" d="M695.4,694.5h-14.6c.2,2,.7,3.3,1.7,4.2s2,1.1,3.7,1.1,1.8,0,2.8-.6,1.8-.9,2.9-1.7l2.9,3.9c-2.8,2.2-5.7,3.3-9.2,3.3s-6.6-1.1-8.8-3.3-3.1-5.2-3.1-9,.4-4.6,1.3-6.4,2-3.3,3.7-4.4,3.7-1.7,5.9-1.7c3.3,0,6.1,1.1,7.9,3.1,1.8,2.2,2.9,5.2,2.9,8.8s0,1.8,0,2.6h0ZM688.8,690.1c0-3.7-1.3-5.3-3.9-5.3s-2.2.4-2.8,1.3c-.7.9-1.1,2.4-1.3,4.4h7.7v-.4h.2Z"/>
      <path class="st0" d="M718.1,682c1.1,1.3,1.7,2.9,1.7,5.2v17.1h-7v-16c0-1.1-.2-2-.6-2.4s-.9-.7-1.7-.7c-1.5,0-2.8,1.1-4.1,3.1v16h-7v-23.4h6.1l.6,2.8c.9-1.1,2-2,3.3-2.6,1.1-.6,2.4-.9,3.9-.9s3.7.6,4.8,1.8Z"/>
      <path class="st0" d="M731.4,669.5c.7.7,1.1,1.7,1.1,2.8s-.4,2-1.1,2.8-1.8,1.1-2.9,1.1-2.2-.4-2.9-1.1-1.1-1.7-1.1-2.8.4-2,1.1-2.8,1.8-1.1,2.9-1.1,2.2.4,2.9,1.1ZM731.9,680.9v23.4h-7v-23.4h7Z"/>
      <path class="st0" d="M757.3,683.3c1.5,2.2,2.2,5.3,2.2,9.2s-.4,4.6-1.1,6.4c-.7,1.8-1.8,3.3-3.3,4.4s-3.1,1.7-5,1.7-2.4-.2-3.5-.7-2-1.3-2.8-2.2l-.4,2.2h-6.3v-32.8l7-.7v12.5c.7-.9,1.7-1.7,2.8-2.2,1.1-.6,2.4-.9,3.7-.9,2.8,0,5,1.1,6.4,3.3l.2-.2ZM752.2,692.5c0-2.8-.4-4.8-.9-5.7-.7-1.1-1.7-1.7-2.8-1.7s-2.9.9-4.1,2.8v9.8c.4.7.9,1.3,1.7,1.7s1.3.6,2,.6c2.8,0,4.1-2.4,4.1-7.4h0Z"/>
    </g>
  </g>
  <rect class="st2" x="3.7" y="5.2" width="782.7" height="724.5"/>
  <line class="st2" x1="3.7" y1="427.2" x2="786.8" y2="427.2"/>
  <line class="st2" x1="3.7" y1="503.1" x2="786.8" y2="503.1"/>
  <line class="st2" x1="3.7" y1="578.7" x2="786.8" y2="578.7"/>
  <line class="st2" x1="3.7" y1="654.2" x2="786.8" y2="654.2"/>
  <g>
    <path class="st4" d="M431.1,220.9c14.2-9.6,28.2-21.7,39.6-39.8,19.2-30.4,28-72.2,28-131.7h-30c0,52.9-7.7,90.6-23.4,115.7-11.6,18.4-26.7,28.7-43.1,38.5-16.4-9.8-31.3-20.1-43.1-38.5-15.8-25.1-23.4-62.8-23.4-115.7h-29.8c0,59.3,8.8,101.3,28,131.7,11.4,18.1,25.6,30.2,39.6,39.8-14.6,9.6-28.6,21.6-40.2,39.8-18.8,29.5-27.4,70.2-27.4,127.7h30c0-50.8,7.4-87.5,22.8-111.6,11.6-18.2,26.9-28.6,43.5-38.5,16.6,9.8,31.9,20.1,43.5,38.5,15.5,24.1,22.8,60.8,22.8,111.6h30c0-57.7-8.8-98.2-27.4-127.7-11.4-18.2-25.4-30-40-39.8h0Z"/>
    <polygon class="st3" points="292.7 85.9 279.7 77.8 279.7 90.9 266.8 90.9 274.5 103.9 266.8 116.8 279.7 116.8 279.7 129.9 292.7 122 305.6 129.9 305.6 116.8 318.7 116.8 310.8 103.9 318.7 90.9 305.6 90.9 305.6 77.8 292.7 85.9"/>
  </g>
</svg>