<?xml version="1.0" encoding="utf-8"?>
<!-- Generator: Adobe Illustrator 24.1.0, SVG Export Plug-In . SVG Version: 6.00 Build 0)  -->
<svg version="1.1" id="Capa_1" xmlns="http://www.w3.org/2000/svg" xmlns:xlink="http://www.w3.org/1999/xlink" x="0px" y="0px"
	 viewBox="0 0 370.2 313" style="enable-background:new 0 0 370.2 313;" xml:space="preserve">
<style type="text/css">
	.st0{fill:#373A47;}
	.st1{fill:#8FB5BC;}
	.st2{fill:#FF2A2A;}
</style>
<g>
	<g>
		<g>
			<polygon class="st0" points="201.5,214.4 201.5,235.5 209,235.5 190.5,254.1 171.9,235.5 179.4,235.5 179.4,214.4 			"/>
		</g>
	</g>
	<path class="st1" d="M310,101.9v-18c-74.3,0-102.6,22.8-126.2,47c-23.3-24.1-51-47-123.7-47v18c65.7,0,89.6,19.7,111.2,42
		c-21.6,22.3-45.5,42-111.2,42v18c72.7,0,100.3-22.9,123.7-47c23.6,24.2,52,47,126.2,47v-18c-67.3,0-92-19.6-113.8-42
		C218.1,121.5,242.7,101.9,310,101.9z"/>
	<polygon class="st2" points="103.2,214 108.1,205.9 100,205.9 100,197.7 91.8,202.6 83.7,197.7 83.7,205.9 75.5,205.9 80.4,214 
		75.5,222.2 83.7,222.2 83.7,230.3 91.8,225.4 100,230.3 100,222.2 108.1,222.2 	"/>
	<polygon class="st2" points="287.3,75.2 292.2,67.1 284.1,67.1 284.1,58.9 276,63.8 267.8,58.9 267.8,67.1 259.7,67.1 264.6,75.2 
		259.7,83.3 267.8,83.3 267.8,91.5 276,86.6 284.1,91.5 284.1,83.3 292.2,83.3 	"/>
	<polygon class="st2" points="166.1,195.9 171,187.7 162.9,187.7 162.9,179.6 154.7,184.5 146.6,179.6 146.6,187.7 138.4,187.7 
		143.4,195.9 138.4,204 146.6,204 146.6,212.1 154.7,207.2 162.9,212.1 162.9,204 171,204 	"/>
</g>
</svg>
