<?xml version="1.0" encoding="UTF-8"?>
<svg id="Capa_1" xmlns="http://www.w3.org/2000/svg" xmlns:xlink="http://www.w3.org/1999/xlink" version="1.1" viewBox="0 0 967.4 738.9">
  <!-- Generator: Adobe Illustrator 29.3.1, SVG Export Plug-In . SVG Version: 2.1.0 Build 151)  -->
  <defs>
    <style>
      .st0 {
        fill: #c0d9df;
      }

      .st1 {
        fill: #679091;
      }

      .st2 {
        fill: #373a47;
      }

      .st3, .st4, .st5 {
        fill: none;
      }

      .st3, .st4, .st5, .st6, .st7, .st8 {
        stroke-miterlimit: 10;
      }

      .st3, .st6 {
        stroke: #c93;
      }

      .st4, .st7 {
        stroke: #005372;
      }

      .st9 {
        fill: #e0eadf;
      }

      .st10, .st11, .st12 {
        font-family: FiraSans-Medium, 'Fira Sans';
        font-size: 36px;
        font-weight: 500;
      }

      .st10, .st13 {
        fill: #c93;
      }

      .st11, .st14 {
        fill: #fa7f43;
      }

      .st5, .st15, .st8 {
        stroke: #fa7f43;
      }

      .st16, .st12 {
        fill: #005372;
      }

      .st6, .st7, .st17, .st15, .st8 {
        fill: #fff;
      }

      .st7 {
        stroke-width: .6px;
      }

      .st12 {
        isolation: isolate;
      }

      .st18 {
        fill: #83b1b5;
      }

      .st15 {
        stroke-miterlimit: 10;
      }

      .st19 {
        fill: #ff2a2a;
      }
    </style>
  </defs>
  <g>
    <path class="st9" d="M711,257.7c-2.1-4.1-4.4-8.4-4.8-12.7-1.7-17.3,3.7-34.5-.9-52.7-2.5-10,2.3-41,1.4-61.8-.5-13.6-5.8-25.4-21.5-28-7.9-1.4-13.7-3.5-20.2-8.6-4.8-3.8-6.4-13.8-3.8-19.5,3.4-7.6,9.6-14.1,8.6-23.4-.2-2,.8-4.2-2-5.4-.6-.2-.4-2.6-.4-3.9.3-18.8-15.5-29.3-32.7-21.7-7.6,3.4-10.8,9.6-11.5,17.6-.3,3.1,1.6,6.6-2,9.6-2.3,1.8,1.1,15.7,3.5,18.2,4.6,4.5,7.5,18.2,4.9,23.9-.8,1.6-2.4,3.3-3.8,4.5-6.6,5.4-11.8,8.2-20.1,9.3-14,1.8-22.4,13-22.4,27.2v3.8c1.5,2.2,4,41.7,1.7,58.4-2.4,17.1,1.9,42.6-.7,53.5-1,4.5-2.2,3.9-4.9,8.1-3.5,5.3-4.3,9.8-4.9,13.7-.9,6.5-.2,10.6,1.1,9.9,1.4-.7,2.1-8.4,3.4-9.3.5,1.6-.3,0-.4,1.6-.3,5.4-1,10.8-1.5,16.2-.2,1.9-.2,3.8.3,5.9,4.9-4.8,3.1-11.8,5.5-17.3.4,0,.8,0,1.3.1,0,7.1-.2,14.1-.2,21.2.6,0,1.3.1,2,.2,2.7-6.5.5-13.9,3.5-20.5.3,5.7.6,11.5.9,17.3.5.1,1.1,0,1.6.1,3.8-5.8-.4-12.9,2.7-19.1.9,4.6,1.6,9.1,2.4,13.7h1.6c.2-2,.5-3.9.5-5.9.2-5.4.2-10.8.2-16.2s.2-6.4-.7-9.3c-2.2-8.6.5-16.7,1.3-25,.6-5.8,1.6-11.6,2.6-17.4,1.5-8.2,1.3-16.3.5-24.6-.7-7.1.9-24.3,1.3-24.3.3,6.5.6,13,1,19.5,1.4,19.7-1.4,39-3.3,58.5-1.5,15.9-.3,31.9,0,48,.4,14.8,1.9,29.3,5.4,43.7.8,3.1.3,6.5.3,9.8,0,13.7.2,27.5,0,41.1,0,9.1-.9,18.3-1.1,27.4-.5,17,2,33.7,5.7,50.1,1.8,8.1,1.3,15.7-2.7,23.2-2.9,5.3-4.9,10.9-7.2,16.4-3.7,8.8,3.3,13.3,10.5,14,.6,0,1.1-.3,1.6-.2,2.4,0,5.8,1.4,7.1.3,2.6-2.6,4.9-6.1,5.7-9.6,1.3-5.8,1.5-11.9,4.9-17.1.8-1.3.7-3.4.5-5-2.7-17.8-1.6-35.2,3.5-52.5,3.3-11.5,1.9-23.4.8-34.9-1.1-11.8-.6-23.2,1.6-34.9,2-11.1,2-22.8,2.7-34.1,1-14.8,1.8-29.7,2.7-44.5,0-.8.5-1.5,1.6-2.4.3,1.4.8,2.7.9,4.2,1.2,19,2,38,3.5,56.9.7,9.1,2.5,18.1,3.1,27.1.6,8.2.6,16.6.5,24.7,0,11-.8,22-.2,33,.4,6.8,2.9,13.3,4.2,20.1,2.4,11.8,1.5,23.5.3,35.4-.3,3.1.9,6.5,1.6,9.8.9,3.9,1.9,8,3.1,11.9.9,3.1,1.8,6.4,3.3,9.1,1.9,3.5,4.5,4.9,8.9,3.3,3.5-1.3,7.5-.7,10.9-3.5,2.6-2,3.9-4.2,3.1-7.2-1.6-5-2.9-10.3-5.6-14.8-7.1-11.7-6.9-23.6-3.8-36.3,5.2-20.8,5-41.8,3.5-63.1-.5-7.5-.3-14.8-.4-22.3,0-8.1-.4-16.3,0-24.4.6-8.3,2.2-16.6,3.1-25,1.1-9.8,2.3-19.6,2.6-29.5.5-17.1.6-34.3,0-51.5-.3-9.2-3.1-18.4-3.3-27.6-.3-14.5.4-29,.9-43.6-.2-.5-.2-1,0-1.5,0-.2.9,20.5.5,31.6-.2,6,.6,11.9,1.3,17.8,1.3,10.8,2.7,21.6,4.1,32.3.2,1.3.2,2.5,0,3.8-.6,10.5-1.2,21-1.7,31.5,0,1.7.2,3.5.4,5.3.6.1,1.1.1,1.7.2.9-4.6,1.9-9.3,2.7-13.8,2.7,6.3-.9,13.1,2.1,19.2.6.1,1.3,0,1.8.1.4-5.8.9-11.5,1.3-17.4h1.1c.5,6.8.9,13.5,1.4,20.3,1,.2.8.2,1.8.2,2.7-6.9-.5-14.4,2.1-21.6,1.2,6,2.5,12,3.7,17.9.6-.2,1.3-.2,2-.2,0-1.6.3-3.4.2-5-.5-6-1.2-11.9-1.5-17.9h0c0-1.5,1.6,10.4,1.9,10.7,1.7-.7,4-12.5-2.3-24.4Z"/>
    <path class="st9" d="M340.4,262.7c7.7-3.9,9.1-10.4,10.1-17.7,1.8-13.3,3.7-26.8,6-40.1,4.6-25.9,10.4-51.7,14.3-77.8,2-13.6,11.9-22.8,23.9-25.1,4.3-.9,8.9-2.5,12.8-4.8,5.2-3.1,9.2-7.2,9.7-14.1.6-7.5-4.2-12-8.2-16.6-4.9-5.7-5.4-12.5-4.1-18.5.8-3.5,1.6-6.9,1.8-10.5.7-11,8.4-18.6,19.7-19.4,12.9-.9,21.9,5.2,23.9,16.3.6,3.5-.9,8.2.9,10.8,3.7,5.3,2.4,10.5.7,15.1-1.9,5.2-5.7,9.5-8.9,14-3.5,5.2-3.5,11.9.4,17,5,6.8,12.2,9.6,20.1,11,12,2,22.8,11.4,23.2,23.9.1,3.1.6,6.4,1.2,9.6,4.1,21.3,8.4,42.6,12.2,64.1,3.1,17,5.7,34.2,8.3,51.3.7,4.5,2.9,7.3,6.6,9.9,5.4,3.8,10.3,8.4,15.9,13-4.2,2-7.1,0-9.8-2.2-.8-.6-2.2-.5-3.3-.8-.3,1.1-.9,2.3-.6,3.3,1.4,4.9,3.1,9.6,4.6,14.4.7,2,1.3,4.2,1.9,6.2-.4.1-.9.3-1.3.5-4.6-3.7-4.3-10.2-8.8-14.3,1.5,6.1,2.9,12.2,4.3,18.4-.8.2-1.6.5-2.4.7-1.9-5.7-3.7-11.5-5.6-17.4-.3.1-.7.2-1,.3.8,5.2,1.5,10.4,2.3,15.5-.8.1-1.5.3-2.2.4-1.5-5.7-3-11.1-4.5-16.7-.3,0-.6.1-.9.2v13c-1-.6-1.4-.8-1.5-1-.3-.6-.7-1.1-.7-1.6-.9-10.5-6.8-20.2-4.9-31.2.3-1.4-.5-3-1-4.5-2-6-4.5-12.1-6.4-18.2-3.4-10.3-8-20.6-9.4-31.2-1.9-14.7-5.7-28.5-11.3-42.1-.7-1.6-1.6-3.3-2.4-4.9-.5.1-.9.2-1.4.3-.9,10.4-1.6,20.8-2.7,31.2-1.1,11.8.6,23.1,5.6,34.1,5.7,12.4,8,25.7,7.1,39.2-1.2,17.5-3.5,34.9-5.7,52.3-1.6,11.7-4.2,23.2-2.5,35.2.6,4.9-.2,9.8-.3,14.8-.1,6.9-.6,14,0,20.8,2,22.7,1.4,45.2-3.9,67.4-3.4,14-3,26.9,5.2,39.2,2.2,3.3,3.3,7.3,4.5,11.1,1.1,3.5.9,6.9-3.1,8.4-3.5,1.2-7.2,1.6-10.4,3.1-4.1,2-6.8.5-8.5-2.6-1.6-3-2.7-6.4-3.7-9.7-1.2-3.8-2-7.6-3-11.5-.7-3.1-2.3-6.6-1.6-9.6,2.6-13.8,2.7-27.5,0-41.3-3.3-16.8-3.4-33.8-2-50.9.4-5.3.6-10.8,0-16.1-1.4-13-3.5-25.8-4.9-38.8-1.6-16-2.9-32.2-4.3-48.2-.2-2.5-.7-4.9-1.1-7.3-.4,0-.8.1-1.2.1-.3,1.3-.8,2.7-.9,3.9-1,12.1-1.9,24.3-2.9,36.3-1.1,13-1.6,26.1-3.8,39-2,11.9-3.5,23.6-2.4,35.7,1.4,14.7.8,29.2-1.9,43.6-2.6,14.1-3.5,28.3-.5,42.5.6,2.7.3,5.8-.3,8.6-1.1,5-2.5,10.1-4.2,14.8-1.5,3.9-3.4,8-6,11.1-1,1.2-4.9,0-7.5-.2-.6,0-1.2.5-1.8.4-6.9-1-14-5-9.9-13.6,2.9-6,5.3-12.4,8.4-18.4,3.1-6.2,3.5-12.6,2.2-19.3-5.2-24.8-8.1-49.7-6-75.1,1.1-13.4.1-27,.2-40.6.1-4.2.9-8.6.4-12.9-2.3-19-4.5-38.1-7.3-57.1-2.9-19.3-1.6-38.2,6.4-56,4.9-10.8,5.7-21.6,5-32.9-.2-3.9-.5-8-.9-12-.7-6.4-1.5-12.6-2.2-19-1.6,1-2.4,2-2.7,3.1-5.6,14-10.1,28-11.9,43.2-1.2,10.6-6,20.9-9.4,31.2-2.6,7.9-6.1,15.5-7.9,23.5-2.2,9.6-2.9,19.6-4.3,29.4-.2,1.4-1.1,2.7-1.6,3.9-.4-.1-.9-.3-1.3-.4.3-4.2.5-8.3.7-12.5-.3,0-.7-.1-1.1-.1-1.4,5.6-2.9,11.1-4.2,16.7-.7-.1-1.5-.3-2.2-.4.8-5.3,1.5-10.4,2.3-15.6-.3,0-.7-.1-1-.1-1.9,5.7-3.8,11.5-5.7,17.4-.8-.2-1.5-.5-2.3-.7,1.5-6.2,2.9-12.4,4.3-18.6-4.9,3.8-3.8,11.1-9.8,14,0-1.9.6-3.5,1.1-5.2,1.6-5.2,3.5-10.2,4.9-15.3.3-1.2-.2-2.5-.4-3.8-1.2.4-2.6.5-3.5,1.2-2.7,1.9-5.3,3.8-9.3,2,4.7-3.5,8.5-8.3,13.5-11.1Z"/>
    <path class="st9" d="M773.1,262.7c7.7-3.9,9.1-10.4,10.1-17.7,1.8-13.3,3.7-26.8,6-40.1,4.6-25.9,10.4-51.7,14.3-77.8,2-13.6,11.9-22.8,23.9-25.1,4.3-.9,8.9-2.5,12.8-4.8,5.2-3.1,9.2-7.2,9.7-14.1.6-7.5-4.2-12-8.2-16.6-4.9-5.7-5.4-12.5-4.1-18.5.8-3.5,1.6-6.9,1.8-10.5.7-11,8.4-18.6,19.7-19.4,12.9-.9,21.9,5.2,23.9,16.3.6,3.5-.9,8.2.9,10.8,3.7,5.3,2.4,10.5.7,15.1-2,5.3-5.9,9.7-9,14.2-3.5,5.2-3.5,11.9.4,17,5,6.8,12.2,9.6,20.1,11,12,2,22.8,11.4,23.2,23.9,0,3.1.6,6.4,1.2,9.6,4.1,21.3,8.4,42.6,12.2,64.1,3.1,17,5.7,34.2,8.3,51.3.7,4.5,2.9,7.3,6.6,9.9,5.4,3.8,10.3,8.4,15.9,13-4.2,2-7.1,0-9.8-2.2-.8-.6-2.2-.5-3.3-.8-.3,1.1-.9,2.3-.6,3.3,1.4,4.9,3.1,9.6,4.6,14.4.7,2,1.3,4.2,1.9,6.2-.4.1-.9.3-1.3.5-4.6-3.7-4.3-10.2-8.8-14.3,1.5,6.1,2.9,12.2,4.3,18.4-.8.2-1.6.5-2.4.7-1.9-5.7-3.7-11.5-5.6-17.4-.3.1-.7.2-1,.3.8,5.2,1.5,10.4,2.3,15.5-.8.1-1.5.3-2.2.4-1.5-5.7-3-11.1-4.5-16.7-.3,0-.6.1-.9.2v13c-1-.6-1.4-.8-1.5-1-.3-.6-.7-1.1-.7-1.6-.9-10.5-6.8-20.2-4.9-31.2.3-1.4-.5-3-1-4.5-2-6-4.5-12.1-6.4-18.2-3.4-10.3-8-20.6-9.4-31.2-1.9-14.7-5.7-28.5-11.3-42.1-.7-1.6-1.6-3.3-2.4-4.9-.5.1-.9.2-1.4.3-.9,10.4-1.6,20.8-2.7,31.2-1.1,11.8.6,23.1,5.6,34.1,5.7,12.4,8,25.7,7.1,39.2-1.2,17.5-3.5,34.9-5.7,52.3-1.6,11.7-4.2,23.2-2.5,35.2.6,4.9-.2,9.8-.3,14.8,0,6.9-.6,14,0,20.8,2,22.7,1.4,45.2-3.9,67.4-3.4,14-3,26.9,5.2,39.2,2.2,3.3,3.3,7.3,4.5,11.1,1.1,3.5.9,6.9-3.1,8.4-3.5,1.2-7.2,1.6-10.4,3.1-4.1,2-6.8.5-8.5-2.6-1.6-3-2.7-6.4-3.7-9.7-1.2-3.8-2-7.6-3-11.5-.7-3.1-2.3-6.6-1.6-9.6,2.6-13.8,2.7-27.5,0-41.3-3.3-16.8-3.4-33.8-2-50.9.4-5.3.6-10.8,0-16.1-1.4-13-3.5-25.8-4.9-38.8-1.6-16-2.9-32.2-4.3-48.2-.2-2.5-.7-4.9-1.1-7.3-.4,0-.8.1-1.2.1-.3,1.3-.8,2.7-.9,3.9-1,12.1-1.9,24.3-2.9,36.3-1.1,13-1.6,26.1-3.8,39-2,11.9-3.5,23.6-2.4,35.7,1.4,14.7.8,29.2-1.9,43.6-2.6,14.1-3.5,28.3-.5,42.5.6,2.7.3,5.8-.3,8.6-1.1,5-2.5,10.1-4.2,14.8-1.5,3.9-3.4,8-6,11.1-1,1.2-4.9,0-7.5-.2-.6,0-1.2.5-1.8.4-6.9-1-14-5-9.9-13.6,2.9-6,5.3-12.4,8.4-18.4,3.1-6.2,3.5-12.6,2.2-19.3-5.2-24.8-8.1-49.7-6-75.1,1.1-13.4,0-27,.2-40.6,0-4.2.9-8.6.4-12.9-2.3-19-4.5-38.1-7.3-57.1-2.9-19.3-1.6-38.2,6.4-56,4.9-10.8,5.7-21.6,5-32.9-.2-3.9-.5-8-.9-12-.7-6.4-1.5-12.6-2.2-19-1.6,1-2.4,2-2.7,3.1-5.6,14-10.1,28-11.9,43.2-1.2,10.6-6,20.9-9.4,31.2-2.6,7.9-6.1,15.5-7.9,23.5-2.2,9.6-2.9,19.6-4.3,29.4-.2,1.4-1.1,2.7-1.6,3.9-.4-.1-.9-.3-1.3-.4.3-4.2.5-8.3.7-12.5-.3,0-.7-.1-1.1-.1-1.4,5.6-2.9,11.1-4.2,16.7-.7-.1-1.5-.3-2.2-.4.8-5.3,1.5-10.4,2.3-15.6-.3,0-.7-.1-1-.1-1.9,5.7-3.8,11.5-5.7,17.4-.8-.2-1.5-.5-2.3-.7,1.5-6.2,2.9-12.4,4.3-18.6-4.9,3.8-3.8,11.1-9.8,14,0-1.9.6-3.5,1.1-5.2,1.6-5.2,3.5-10.2,4.9-15.3.3-1.2-.2-2.5-.4-3.8-1.2.4-2.6.5-3.5,1.2-2.7,1.9-5.3,3.8-9.3,2,4.8-3.7,8.5-8.5,13.6-11.3Z"/>
    <g>
      <path id="path882" class="st1" d="M425.5,117.2c-.4-2.5-1.7-5.5-3-7.6-1.3-2.3-2.9-4.1-4.4-5-1.7-.9-3.3-.8-5.9.7-2.5,1.6-5.9,4.4-8.6,8.2-2.8,3.7-5.1,8.1-6.3,11-1.3,2.9-1.6,4.1-1.7,5.1s0,1.6-.7,4.8c-.7,3.3-2,9.2-2.8,13.3s-1,6.2-1,7.6.3,1.8,1.3,2.5c1.1.5,3.3,1.2,5.6,1,2.5-.3,5-1.4,7.6-2.5,2.5-1,5.1-1.7,7.1-2.2,2-.4,3.3-.8,5.1-2.5,1.8-1.8,3.8-5.2,5.1-9.9,1.3-4.7,2-11,2.5-15.2.5-4.3.6-6.7,0-9.3h0Z"/>
      <path id="path882-7" class="st18" d="M425.5,117.2c-.4-2.5-1.7-5.5-3-7.6-1.3-2.3-2.9-4.1-4.4-5-1.7-.9-3.3-.8-5.9.7-2.5,1.6-5.9,4.4-8.6,8.2-2.8,3.7-5.1,8.1-6.3,11-1.3,2.9-1.6,4.1-1.7,5.1s0,1.6,1.8,6c1.7,4.4,5,12.5,8,16.2,2.9,3.7,5.5,2.9,7.4,2.5s3.3-.8,5.1-2.5c1.8-1.8,3.8-5.2,5.1-9.9,1.3-4.7,2-11,2.5-15.2.3-4.6.5-6.9,0-9.5h0Z"/>
      <path id="path882-7-9" class="st0" d="M425.5,117.2c-.4-2.5-1.7-5.5-3-7.6-1.3-2.3-2.9-4.1-4.4-5-1.7-.9-3.3-.8-5.9.7-2.5,1.6-5.9,4.4-8.1,7.2-2.3,2.6-3.5,5.1-4.6,6.9-1,1.8-1.6,3-2.1,5s-1.1,4.7,3.3,8,13.6,6.9,18.6,5.9c5-1.2,5.6-7.3,6.1-11.6.5-4.5.6-6.9.1-9.5Z"/>
      <path id="path882-8" class="st18" d="M432.3,117.2c.4-2.5,1.7-5.5,3-7.6,1.3-2.3,2.9-4.1,4.4-5,1.7-.9,3.3-.8,5.9.7,2.5,1.6,5.9,4.4,8.6,8.2,2.8,3.8,5.1,8.1,6.3,11,1.3,2.9,1.6,4.1,1.7,5.1s0,1.6.7,4.8c.7,3.3,2,9.2,2.8,13.3s1,6.2,1,7.6-.3,1.8-1.3,2.5c-1.1.5-3.3,1.2-5.6,1-2.5-.3-5-1.4-7.6-2.5-2.5-1-5.1-1.7-7.1-2.2-2-.4-3.3-.8-5.1-2.5-1.8-1.8-3.8-5.2-5.1-9.9-1.3-4.7-2-11-2.5-15.2-.4-4.3-.5-6.7,0-9.3h0Z"/>
      <path id="path882-7-5" class="st0" d="M432.3,117.2c.4-2.5,1.7-5.5,3-7.6,1.3-2.3,2.9-4.1,4.4-5,1.7-.9,3.3-.8,5.9.7,2.5,1.6,5.9,4.4,8.6,8.2,2.8,3.8,5.1,8.1,6.2,10.6s1.3,3.3,1.7,5.5c.4,2.2.9,6.1-1,12.4-1.8,6.3-6.3,15-8.8,13.9s-3-12.2-5.1-16.9c-2.2-4.7-6.1-2.9-8.4-3-2.3,0-3.3-1.8-4.1-4.1-.9-2.2-1.8-4.7-2.3-7.3-.5-2.5-.5-4.8-.1-7.4h0Z"/>
      <path class="st17" d="M440.5,118.1c-1.2,0-3.3.8-4.7.8s-2.6-.7-3.9-2h.1c-.1-.3-.3-.4-.4-.4-.1-.3-.3-.4-.4-.5.4,0,.9-.4.9-1s-.4-1-1-1h-.2v-.4h.3c.5,0,1-.4,1-1s-.4-1-1-1h-.3v-.4h.3c.5,0,1-.4,1-1s-.4-1-1-1h-.3v-.4h.3c.5,0,1-.4,1-1s-.4-1-1-1h-.3v-.4h.3c.5,0,1-.4,1-1s-.4-1-1-1h-.3v-.8h.3c.5,0,1-.4,1-1s-.4-1-1-1h-.3v-.4h.3c.5,0,1-.4,1-1s-.4-1-1-1h-.3.3c.5,0,1-.4,1-1s-.4-1-1-1h-.3v-.2h.3c.5,0,1-.4,1-1s-.4-1-1-1h-.3v-.4s0,0-.1,0h-3s-.1,0-.1,0v.4h-.1c-.5,0-1,.4-1,1s.4,1,1,1h.3v.4h-.3c-.5,0-1,.4-1,1s.4,1,1,1h.3v.4h-.3c-.5,0-1,.4-1,1s.4,1,1,1h.3v.4h-.3c-.5,0-1,.4-1,1s.4,1,1,1h.3v.4h-.3c-.5,0-1,.4-1,1s.4,1,1,1h.3v.4h-.3c-.5,0-1,.4-1,1s.4,1,1,1h.3v.4h-.3c-.5,0-1,.4-1,1s.4,1,1,1h.3v.4h-.3c-.5,0-1,.4-1,1s.4,1,1,1h.3v.4h-.3c-.5,0-1,.4-1,1s.4,1,1,1h.3v.3q-.1,0-.3.3c-.4,0-.7.3-.9.5h.4c-1.6,1.3-3.8,2.2-4.6,2.5-1.1.4-2.2.4-3.7.4s-3,0-3,.4c.1.3,1.8.5,3.3.8,1.4.4,2.5.5,2.8,1.2.4.7-.3,1.8-1.1,2.5-.9.7-2.1,1-3.5,1.4s-3.3.9-3.3,1.1,2,0,3.1.7c1,.7,1.2,2.1,1.6,3,.3.9.5,1.1.7.4.1-.7,0-2.3.4-3.3.4-1.1,1.2-1.7,1.7-2,.4-.4,4.2-4.1,4.8-4.3.5-.4,1.8-1,2.8-1.1,1.1,0,2.1.3,3.4,1.3,1.3,1.1,3.1,3,4.3,4.1s2,1.3,2.5,1.2c.4,0,.4-.7-.3-1.8-.7-1.1-2.2-2.8-2.5-3.8s1-1.2,2.1-1.6c1.2-.4,2.5-.9,2.9-1.2.5-1,.2-1.3-1-1.1Z"/>
      <path class="st16" d="M448.1,130.2c-2.3,7.7,7.1,16.9,14,13.9,3.7-1.6,1.8-8.1,1.1-12.7-1.6-8.5-13-8-15.1-1.2Z"/>
    </g>
    <g>
      <path id="path8821" data-name="path882" class="st1" d="M644,117.2c-.4-2.5-1.7-5.5-3-7.6-1.3-2.3-2.9-4.1-4.4-5-1.7-.9-3.3-.8-5.9.7-2.5,1.6-5.9,4.4-8.6,8.2-2.8,3.7-5.1,8.1-6.3,11-1.3,2.9-1.6,4.1-1.7,5.1,0,1,0,1.6-.7,4.8s-2,9.2-2.8,13.3-1,6.2-1,7.6.3,1.8,1.3,2.5c1.1.6,3.3,1.2,5.6,1,2.5-.3,5-1.4,7.6-2.5,2.5-1,5.1-1.7,7.1-2.2,2-.4,3.3-.8,5.1-2.5,1.8-1.8,3.8-5.2,5.1-9.9s2-11,2.5-15.2c.4-4.3.6-6.7.1-9.3h0Z"/>
      <path id="path882-71" data-name="path882-7" class="st18" d="M644,117.2c-.4-2.5-1.7-5.5-3-7.6-1.3-2.3-2.9-4.1-4.4-5-1.7-.9-3.3-.8-5.9.7-2.5,1.6-5.9,4.4-8.6,8.2-2.8,3.7-5.1,8.1-6.3,11-1.3,2.9-1.6,4.1-1.7,5.1,0,1,0,1.6,1.8,6,1.7,4.4,5,12.5,8,16.2,2.9,3.7,5.5,2.9,7.4,2.5,1.8-.4,3.3-.8,5.1-2.5,1.8-1.8,3.8-5.2,5.1-9.9s2-11,2.5-15.2c.2-4.6.5-6.9,0-9.5h0Z"/>
      <path id="path882-7-91" data-name="path882-7-9" class="st0" d="M644,117.2c-.4-2.5-1.7-5.5-3-7.6-1.3-2.3-2.9-4.1-4.4-5-1.7-.9-3.3-.8-5.9.7-2.5,1.6-5.9,4.4-8.1,7.2-2.3,2.6-3.5,5.1-4.6,6.9-1,1.8-1.6,3-2.1,5s-1.1,4.7,3.3,8c4.4,3.3,13.6,6.9,18.6,5.9,5-1.2,5.6-7.3,6.1-11.6.4-4.5.6-6.9.1-9.5Z"/>
      <path id="path882-81" data-name="path882-8" class="st18" d="M650.7,117.2c.4-2.5,1.7-5.5,3-7.6,1.3-2.3,2.9-4.1,4.4-5,1.7-.9,3.3-.8,5.9.7,2.5,1.6,5.9,4.4,8.6,8.2,2.8,3.8,5.1,8.1,6.3,11,1.3,2.9,1.6,4.1,1.7,5.1s0,1.6.7,4.8c.7,3.3,2,9.2,2.8,13.3s1,6.2,1,7.6-.3,1.8-1.3,2.5c-1.1.6-3.3,1.2-5.6,1-2.5-.3-5-1.4-7.6-2.5-2.5-1-5.1-1.7-7.1-2.2-2-.4-3.3-.8-5.1-2.5s-3.8-5.2-5.1-9.9-2-11-2.5-15.2c-.4-4.3-.5-6.7-.1-9.3h0Z"/>
      <path id="path882-7-51" data-name="path882-7-5" class="st0" d="M650.7,117.2c.4-2.5,1.7-5.5,3-7.6,1.3-2.3,2.9-4.1,4.4-5,1.7-.9,3.3-.8,5.9.7,2.5,1.6,5.9,4.4,8.6,8.2,2.8,3.8,5.1,8.1,6.2,10.6,1.1,2.5,1.3,3.3,1.7,5.5s.9,6.1-1,12.4c-1.8,6.3-6.3,15-8.8,13.9s-3-12.2-5.1-16.9c-2.2-4.7-6.1-2.9-8.4-3-2.3,0-3.3-1.8-4.1-4.1-.9-2.2-1.8-4.7-2.3-7.3-.5-2.5-.5-4.8-.1-7.4h0Z"/>
      <path class="st17" d="M659,118.1c-1.2,0-3.3.8-4.7.8s-2.6-.7-3.9-2h0c0-.3-.3-.4-.4-.4,0-.3-.3-.4-.4-.5.4,0,.9-.4.9-1s-.4-1-1-1h-.3v-.4h.3c.5,0,1-.4,1-1s-.4-1-1-1h-.3v-.4h.3c.5,0,1-.4,1-1s-.4-1-1-1h-.3v-.4h.3c.5,0,1-.4,1-1s-.4-1-1-1h-.3v-.4h.3c.5,0,1-.4,1-1s-.4-1-1-1h-.3v-.8h.3c.5,0,1-.4,1-1s-.4-1-1-1h-.3v-.4h.3c.5,0,1-.4,1-1s-.4-1-1-1h-.3.3c.5,0,1-.4,1-1s-.4-1-1-1h-.3v-.2h.3c.5,0,1-.4,1-1s-.4-1-1-1h-.3v-.4s0,0,0,0h-3s0,0,0,0v.4h0c-.5,0-1,.4-1,1s.4,1,1,1h.3v.4h-.3c-.5,0-1,.4-1,1s.4,1,1,1h.3v.4h-.3c-.5,0-1,.4-1,1s.4,1,1,1h.3v.4h-.3c-.5,0-1,.4-1,1s.4,1,1,1h.3v.4h-.3c-.5,0-1,.4-1,1s.4,1,1,1h.3v.4h-.3c-.5,0-1,.4-1,1s.4,1,1,1h.3v.4h-.3c-.5,0-1,.4-1,1s.4,1,1,1h.3v.4h-.3c-.5,0-1,.4-1,1s.4,1,1,1h.3v.4h-.3c-.5,0-1,.4-1,1s.4,1,1,1h.3v.3q0,0-.3.3c-.4,0-.7.3-.9.5h.4c-1.6,1.3-3.8,2.2-4.6,2.5-1.1.4-2.2.4-3.7.4s-3,0-3,.4c0,.3,1.8.5,3.3.8,1.4.4,2.5.5,2.8,1.2.4.7-.3,1.8-1.1,2.5-.9.7-2.1,1-3.5,1.4s-3.3.9-3.3,1.1,2,0,3.1.7c1,.7,1.2,2.1,1.6,3,.3.9.5,1.1.7.4,0-.7,0-2.3.4-3.3.4-1.1,1.2-1.7,1.7-2,.4-.4,4.2-4.1,4.8-4.3.5-.4,1.8-1,2.8-1.1,1.1,0,2.1.3,3.4,1.3,1.3,1.1,3.1,3,4.3,4.1s2,1.3,2.5,1.2c.4,0,.4-.7-.3-1.8-.7-1.1-2.2-2.8-2.5-3.8s1-1.2,2.1-1.6c1.2-.4,2.5-.9,2.9-1.2.5-1,.3-1.3-.9-1.1Z"/>
      <path class="st14" d="M633.4,126.5c-5.8,2.9-5.9,13.5-.4,15.8,3,1.3,5.8-3.3,8-6.3,4-5.6-2.7-12.1-7.6-9.5Z"/>
    </g>
    <g>
      <path id="path8822" data-name="path882" class="st1" d="M858.5,117.2c-.4-2.5-1.7-5.5-3-7.6-1.3-2.3-2.9-4.1-4.4-5-1.7-.9-3.3-.8-5.9.7-2.5,1.6-5.9,4.4-8.6,8.2-2.8,3.7-5.1,8.1-6.3,11-1.3,2.9-1.6,4.1-1.7,5.1,0,1,0,1.6-.7,4.8-.7,3.3-2,9.2-2.8,13.3s-1,6.2-1,7.6.3,1.8,1.3,2.5c1.1.6,3.3,1.2,5.6,1,2.3-.3,5-1.4,7.6-2.5,2.5-1,5.1-1.7,7.1-2.2,2-.4,3.3-.8,5.1-2.5,1.7-1.8,3.8-5.2,5.1-9.9s2-11,2.5-15.2c.4-4.3.6-6.7.1-9.3h0Z"/>
      <path id="path882-72" data-name="path882-7" class="st18" d="M858.5,117.2c-.4-2.5-1.7-5.5-3-7.6-1.3-2.3-2.9-4.1-4.4-5-1.7-.9-3.3-.8-5.9.7-2.5,1.6-5.9,4.4-8.6,8.2-2.8,3.7-5.1,8.1-6.3,11-1.3,2.9-1.6,4.1-1.7,5.1,0,1,0,1.6,1.8,6,1.7,4.4,5,12.5,8,16.2,2.9,3.7,5.5,2.9,7.4,2.5s3.3-.8,5.1-2.5c1.7-1.8,3.8-5.2,5.1-9.9s2-11,2.5-15.2c.2-4.6.5-6.9,0-9.5h0Z"/>
      <path id="path882-7-92" data-name="path882-7-9" class="st0" d="M858.5,117.2c-.4-2.5-1.7-5.5-3-7.6-1.3-2.3-2.9-4.1-4.4-5-1.7-.9-3.3-.8-5.9.7-2.5,1.6-5.9,4.4-8.1,7.2-2.3,2.6-3.5,5.1-4.6,6.9-1,1.8-1.6,3-2.1,5s-1.1,4.7,3.3,8c4.4,3.3,13.6,6.9,18.6,5.9,5-1.2,5.6-7.3,6.1-11.6.3-4.6.6-6.9.1-9.5Z"/>
      <path id="path882-82" data-name="path882-8" class="st18" d="M865.2,117.2c.4-2.5,1.7-5.5,3-7.6,1.3-2.3,2.9-4.1,4.4-5,1.7-.9,3.3-.8,5.9.7,2.5,1.6,5.9,4.4,8.6,8.2,2.8,3.7,5.1,8.1,6.3,11,1.3,2.9,1.6,4.1,1.7,5.1s0,1.6.7,4.8c.7,3.3,2,9.2,2.8,13.3s1,6.2,1,7.6-.3,1.8-1.3,2.5c-1.1.6-3.3,1.2-5.6,1-2.3-.3-5-1.4-7.6-2.5-2.5-1-5.1-1.7-7.1-2.2s-3.3-.8-5.1-2.5c-1.7-1.8-3.8-5.2-5.1-9.9s-2-11-2.5-15.2c-.4-4.3-.5-6.7-.1-9.3h0Z"/>
      <path id="path882-7-52" data-name="path882-7-5" class="st0" d="M865.2,117.2c.4-2.5,1.7-5.5,3-7.6,1.3-2.3,2.9-4.1,4.4-5,1.7-.9,3.3-.8,5.9.7,2.5,1.6,5.9,4.4,8.6,8.2,2.8,3.7,5.1,8.1,6.2,10.6,1.1,2.5,1.3,3.3,1.7,5.5s.9,6.1-1,12.4c-1.8,6.3-6.3,15-8.8,13.9s-3-12.2-5.1-16.9c-2.2-4.7-6.1-2.9-8.4-3-2.3,0-3.3-1.8-4.1-4.1-.9-2.2-1.8-4.7-2.3-7.3-.5-2.5-.5-4.8-.1-7.4h0Z"/>
      <path class="st17" d="M873.5,118.1c-1.2,0-3.3.8-4.7.8s-2.6-.7-3.9-2h0c0-.3-.3-.4-.4-.4,0-.3-.3-.4-.4-.5.4,0,.9-.4.9-1s-.4-1-1-1h-.3v-.4h.3c.5,0,1-.4,1-1s-.4-1-1-1h-.3v-.4h.3c.5,0,1-.4,1-1s-.4-1-1-1h-.3v-.4h.3c.5,0,1-.4,1-1s-.4-1-1-1h-.3v-.4h.3c.5,0,1-.4,1-1s-.4-1-1-1h-.3v-.8h.3c.5,0,1-.4,1-1s-.4-1-1-1h-.3v-.4h.3c.5,0,1-.4,1-1s-.4-1-1-1h-.3.3c.5,0,1-.4,1-1s-.4-1-1-1h-.3v-.2h.3c.5,0,1-.4,1-1s-.4-1-1-1h-.3v-.4s0,0,0,0h-3s0,0,0,0v.4h0c-.5,0-1,.4-1,1s.4,1,1,1h.3v.4h-.3c-.5,0-1,.4-1,1s.4,1,1,1h.3v.4h-.3c-.5,0-1,.4-1,1s.4,1,1,1h.3v.4h-.3c-.5,0-1,.4-1,1s.4,1,1,1h.3v.4h-.3c-.5,0-1,.4-1,1s.4,1,1,1h.3v.4h-.3c-.5,0-1,.4-1,1s.4,1,1,1h.3v.4h-.3c-.5,0-1,.4-1,1s.4,1,1,1h.3v.4h-.3c-.5,0-1,.4-1,1s.4,1,1,1h.3v.4h-.3c-.5,0-1,.4-1,1s.4,1,1,1h.3v.3q0,0-.3.3c-.4,0-.7.3-.9.5h.4c-1.6,1.3-3.8,2.2-4.6,2.5-1.1.4-2.2.4-3.7.4s-3,0-3,.4c0,.3,1.8.5,3.3.8,1.4.4,2.5.5,2.8,1.2.4.7-.3,1.8-1.1,2.5-.9.7-2.1,1-3.5,1.4-1.6.4-3.3.9-3.3,1.1s2,0,3.1.7c1,.7,1.2,2.1,1.6,3,.3.9.5,1.1.7.4s0-2.3.4-3.3c.4-1.1,1.2-1.7,1.7-2,.4-.4,4.2-4.1,4.8-4.3.5-.4,1.8-1,2.8-1.1,1.1,0,2.1.3,3.4,1.3,1.3,1.1,3.1,3,4.3,4.1s2,1.3,2.5,1.2c.4,0,.4-.7-.3-1.8-.7-1.1-2.2-2.8-2.5-3.8s1-1.2,2.1-1.6c1.2-.4,2.5-.9,2.9-1.2.5-1,.3-1.3-.9-1.1Z"/>
      <path class="st13" d="M865.5,125.9c.3,6.4,9.7,11,14.2,6.9,2.5-2.1-.5-6.7-2.5-9.9-3.2-5.9-11.8-2.7-11.7,3Z"/>
    </g>
  </g>
  <polygon class="st2" points="952.9 662.1 952.9 683.2 960.4 683.2 941.9 701.8 923.3 683.2 930.8 683.2 930.8 662.1 952.9 662.1"/>
  <g>
    <g>
      <circle class="st6" cx="184.6" cy="515.7" r="10.1"/>
      <circle class="st6" cx="110.9" cy="505.6" r="10.1"/>
      <circle class="st6" cx="81.9" cy="525.8" r="10.1"/>
      <circle class="st6" cx="112.4" cy="529.9" r="10.1"/>
      <circle class="st6" cx="73.4" cy="511.9" r="10.1"/>
      <circle class="st6" cx="99.3" cy="519.5" r="10.1"/>
      <circle class="st6" cx="165.4" cy="537.6" r="10.1"/>
      <circle class="st6" cx="117.2" cy="518.9" r="10.1"/>
      <circle class="st6" cx="129.5" cy="508.1" r="10.1"/>
      <circle class="st6" cx="151.5" cy="529.2" r="10.1"/>
      <circle class="st6" cx="177.6" cy="530.4" r="10.1"/>
      <circle class="st6" cx="142" cy="517.9" r="10.1"/>
      <circle class="st19" cx="145.9" cy="501.4" r="10.1"/>
      <circle class="st6" cx="166.3" cy="519" r="10.1"/>
    </g>
    <circle class="st6" cx="95.2" cy="536.7" r="10.1"/>
  </g>
  <g>
    <circle class="st8" cx="162" cy="289.5" r="10.1"/>
    <circle class="st8" cx="118.4" cy="298.4" r="10.1"/>
    <circle class="st8" cx="110.3" cy="287.6" r="10.1"/>
    <circle class="st8" cx="187" cy="269.7" r="10.1"/>
    <circle class="st8" cx="176.9" cy="284.9" r="10.1"/>
    <path class="st8" d="M99.4,295.3c6.9-1.1,12.8,4.8,11.7,11.7-.7,4.2-4.1,7.6-8.2,8.2-6.9,1.1-12.8-4.8-11.7-11.7.7-4.1,4.1-7.5,8.2-8.2Z"/>
    <circle class="st8" cx="169.3" cy="271.1" r="10.1"/>
    <circle class="st8" cx="133.1" cy="303.4" r="10.1"/>
    <circle class="st8" cx="145.3" cy="259.8" r="10.1"/>
    <circle class="st8" cx="129.2" cy="285.5" r="10.1"/>
    <circle class="st8" cx="154.3" cy="277.1" r="10.1"/>
    <circle class="st8" cx="138.6" cy="275.9" r="10.1"/>
    <circle class="st8" cx="144.7" cy="291.6" r="10.1"/>
  </g>
  <circle class="st15" cx="113.3" cy="273" r="10.1"/>
  <circle class="st19" cx="128.4" cy="266.9" r="10.1"/>
  <g>
    <circle class="st7" cx="193.2" cy="48.1" r="10.1"/>
    <circle class="st7" cx="143.4" cy="14.1" r="10.1"/>
    <circle class="st7" cx="120.3" cy="77.6" r="10.1"/>
    <circle class="st7" cx="158.5" cy="19.4" r="10.1"/>
    <circle class="st7" cx="102.4" cy="84.2" r="10.1"/>
    <circle class="st7" cx="172.2" cy="30.7" r="10.1"/>
    <circle class="st7" cx="138.4" cy="56.9" r="10.1"/>
    <circle class="st7" cx="179.3" cy="61.1" r="10.1"/>
    <circle class="st7" cx="158" cy="35.7" r="10.1"/>
    <circle class="st7" cx="155.3" cy="49.8" r="10.1"/>
    <circle class="st7" cx="139.2" cy="75.5" r="10.1"/>
    <circle class="st7" cx="164.3" cy="67.1" r="10.1"/>
    <circle class="st7" cx="148.6" cy="65.9" r="10.1"/>
    <circle class="st19" cx="195.8" cy="63" r="10.1"/>
  </g>
  <line class="st4" x1="252.4" y1="132.2" x2="456.4" y2="132.2"/>
  <polyline class="st5" points="252.4 352.2 636.5 352.2 636.4 135.2"/>
  <polyline class="st3" points="252.4 584.2 878 584.2 873.4 129.2"/>
  <text class="st12" transform="translate(62.2 135.2)"><tspan x="0" y="0">Proteïna</tspan><tspan x="-27.6" y="43.2">impulsora A</tspan></text>
  <text class="st11" transform="translate(62.2 362.2)"><tspan x="0" y="0">Proteïna</tspan><tspan x="-28.1" y="43.2">impulsora B</tspan></text>
  <text class="st10" transform="translate(62.2 595.2)"><tspan x="0" y="0">Proteïna</tspan><tspan x="-27.3" y="43.2">impulsora C</tspan></text>
</svg>