<?xml version="1.0" encoding="utf-8"?>
<!-- Generator: Adobe Illustrator 24.1.0, SVG Export Plug-In . SVG Version: 6.00 Build 0)  -->
<svg version="1.1" id="Capa_1" xmlns="http://www.w3.org/2000/svg" xmlns:xlink="http://www.w3.org/1999/xlink" x="0px" y="0px"
	 viewBox="0 0 344.2 471" style="enable-background:new 0 0 344.2 471;" xml:space="preserve">
<style type="text/css">
	.st0{fill:none;stroke:#8FB5BC;stroke-miterlimit:10;}
	.st1{enable-background:new    ;}
	.st2{fill:#8FB5BC;}
	.st3{fill:#FFFFFF;stroke:#005372;stroke-width:0.5669;stroke-miterlimit:10;}
	.st4{fill:#FFFFFF;stroke:#005372;stroke-width:0.5669;stroke-miterlimit:10.0002;}
	.st5{fill:#FF2A2A;stroke:#005372;stroke-width:0.5669;stroke-miterlimit:10;}
	.st6{fill:#FFFFFF;stroke:#FF6600;stroke-width:0.75;stroke-miterlimit:10;}
	.st7{fill:none;stroke:#FF6600;stroke-width:0.75;stroke-miterlimit:10;}
	.st8{fill:#FF2A2A;}
	.st9{fill:#373A47;}
</style>
<g id="Capa_1_1_">
	<g>
		<rect x="74" y="391" class="st0" width="200" height="45"/>
		<g>
			<g class="st1">
				<path class="st2" d="M105.8,406.8c1.3,1,1.9,2.4,1.9,4.2c0,2-0.6,3.4-1.9,4.4c-1.2,1-2.9,1.5-5,1.5h-1.9v5.8h-4.1v-17.3h5.6
					C102.7,405.3,104.5,405.8,105.8,406.8z M102.7,413.2c0.5-0.5,0.8-1.2,0.8-2.3c0-1.8-1-2.7-3.1-2.7H99v5.7h1.5
					C101.4,413.9,102.2,413.7,102.7,413.2z"/>
				<path class="st2" d="M117.8,409.2l-0.6,3.8c-0.5-0.1-0.9-0.2-1.2-0.2c-0.8,0-1.4,0.3-1.8,0.8s-0.7,1.4-1,2.4v6.6h-4v-13.3h3.5
					l0.3,2.7c0.3-0.9,0.8-1.6,1.4-2.2c0.6-0.5,1.3-0.8,2.1-0.8C116.9,409,117.4,409.1,117.8,409.2z"/>
				<path class="st2" d="M129.1,410.8c1.1,1.2,1.7,3,1.7,5.2c0,1.4-0.3,2.7-0.8,3.7c-0.5,1.1-1.3,1.9-2.2,2.5
					c-1,0.6-2.1,0.9-3.5,0.9c-2,0-3.6-0.6-4.8-1.9c-1.2-1.2-1.7-3-1.7-5.2c0-1.4,0.3-2.7,0.8-3.7s1.3-1.9,2.2-2.5
					c1-0.6,2.1-0.9,3.5-0.9C126.3,409,127.9,409.6,129.1,410.8z M122.5,412.9c-0.4,0.7-0.6,1.7-0.6,3.1c0,1.5,0.2,2.5,0.6,3.2
					s1,1,1.8,1s1.4-0.3,1.8-1s0.6-1.7,0.6-3.1c0-1.5-0.2-2.5-0.6-3.2s-1-1-1.8-1S122.9,412.2,122.5,412.9z"/>
				<path class="st2" d="M141.5,422c-0.5,0.3-1,0.6-1.7,0.8c-0.6,0.2-1.3,0.3-1.9,0.3c-2.9,0-4.4-1.6-4.4-4.8v-6.2h-1.9v-2.8h1.9
					v-2.9l4-0.4v3.3h3l-0.4,2.8h-2.6v6.1c0,0.6,0.1,1.1,0.3,1.3c0.2,0.3,0.5,0.4,1,0.4s0.9-0.1,1.4-0.4L141.5,422z"/>
				<path class="st2" d="M153.8,417.2h-8.2c0.1,1.1,0.4,1.9,0.9,2.3s1.2,0.7,2.1,0.7c0.5,0,1-0.1,1.5-0.3s1-0.5,1.6-0.9l1.6,2.2
					c-1.5,1.2-3.3,1.8-5.2,1.8c-2.1,0-3.8-0.6-5-1.9s-1.7-3-1.7-5.1c0-1.3,0.2-2.6,0.7-3.6c0.5-1.1,1.2-1.9,2.1-2.5
					c0.9-0.6,2.1-0.9,3.4-0.9c1.9,0,3.4,0.6,4.5,1.8c1.1,1.2,1.6,2.9,1.6,5C153.9,416.3,153.9,416.8,153.8,417.2z M150,414.6
					c0-2-0.8-3-2.1-3c-0.7,0-1.2,0.2-1.6,0.8s-0.6,1.3-0.7,2.5h4.4L150,414.6L150,414.6z"/>
				<path class="st2" d="M156.6,403.3c0.4,0.4,0.6,0.9,0.6,1.4s-0.2,1-0.6,1.4c-0.4,0.4-0.9,0.6-1.4,0.6c-0.6,0-1-0.2-1.4-0.6
					s-0.6-0.9-0.6-1.4s0.2-1,0.6-1.4c0.4-0.4,0.9-0.6,1.4-0.6C155.8,402.7,156.3,402.9,156.6,403.3z M160.1,409.4v13.3h-4v-13.3
					H160.1z M162.4,403.3c0.4,0.4,0.6,0.9,0.6,1.4s-0.2,1-0.6,1.4c-0.4,0.4-0.9,0.6-1.5,0.6c-0.5,0-1-0.2-1.4-0.6s-0.6-0.9-0.6-1.4
					s0.2-1,0.6-1.4c0.4-0.4,0.9-0.6,1.4-0.6C161.6,402.7,162.1,402.9,162.4,403.3z"/>
				<path class="st2" d="M173.7,410c0.6,0.7,1,1.7,1,3v9.7h-4v-9c0-0.7-0.1-1.1-0.3-1.4s-0.5-0.4-0.9-0.4c-0.8,0-1.6,0.6-2.3,1.7
					v9.1h-4v-13.3h3.5l0.3,1.6c0.6-0.7,1.2-1.2,1.8-1.5c0.7-0.3,1.4-0.5,2.2-0.5C172.1,409,173,409.3,173.7,410z"/>
				<path class="st2" d="M188.4,419.9c0.1,0.2,0.4,0.4,0.7,0.5l-0.8,2.6c-0.8-0.1-1.5-0.2-2-0.5s-0.9-0.8-1.2-1.4
					c-0.9,1.3-2.2,2-4,2c-1.3,0-2.4-0.4-3.1-1.1c-0.8-0.8-1.2-1.8-1.2-3c0-1.5,0.5-2.6,1.6-3.3c1.1-0.8,2.6-1.2,4.6-1.2h1.4v-0.6
					c0-0.8-0.2-1.3-0.5-1.6c-0.3-0.3-0.9-0.4-1.8-0.4c-0.4,0-1,0.1-1.6,0.2s-1.2,0.3-1.9,0.5l-0.9-2.6c0.8-0.3,1.7-0.6,2.6-0.7
					c0.9-0.2,1.7-0.2,2.4-0.2c1.9,0,3.3,0.4,4.2,1.2c0.9,0.8,1.3,2,1.3,3.5v5.2C188.2,419.3,188.2,419.7,188.4,419.9z M184.3,419
					v-2.4h-1c-0.9,0-1.6,0.2-2,0.5s-0.7,0.8-0.7,1.5c0,0.5,0.1,0.9,0.4,1.2c0.3,0.3,0.7,0.4,1.1,0.4
					C183.1,420.3,183.8,419.8,184.3,419z"/>
				<path class="st2" d="M209.3,414.8c0.7,0.6,1.1,1.6,1.1,2.9c0,1.8-0.7,3.2-2,3.9c-1.3,0.8-3.2,1.1-5.6,1.1h-5.6v-17.3h4.9
					c2.4,0,4.3,0.3,5.6,1s1.9,1.8,1.9,3.4c0,1-0.3,1.8-0.9,2.5s-1.4,1-2.3,1.3C207.7,413.7,208.6,414.1,209.3,414.8z M201.4,408.2v4
					h1.5c1.7,0,2.6-0.7,2.6-2.1c0-0.7-0.2-1.2-0.7-1.5s-1.2-0.4-2.2-0.4H201.4z M205.4,419.2c0.6-0.3,0.8-0.9,0.8-1.8
					c0-1.6-1-2.4-3-2.4h-1.8v4.7h1.5C204,419.7,204.8,419.5,205.4,419.2z"/>
				<path class="st2" d="M218.4,416h-1.6v6.6h-4.1v-17.3h5.7c2.4,0,4.1,0.4,5.3,1.3s1.8,2.2,1.8,4c0,1.1-0.3,2-0.8,2.8
					c-0.5,0.7-1.4,1.4-2.5,1.9l4.4,7.4H222L218.4,416z M216.8,413.2h1.7c0.9,0,1.6-0.2,2.1-0.6s0.7-1.1,0.7-2c0-0.8-0.2-1.4-0.7-1.8
					s-1.2-0.6-2.3-0.6h-1.5V413.2z"/>
				<path class="st2" d="M237.3,422.7l-0.9-3.7h-5l-0.9,3.7h-4.2l5.2-17.3h5l5.2,17.3H237.3z M232,416h3.7l-1.8-7.6L232,416z"/>
				<path class="st2" d="M242.9,422.7v-17.3h10.3l-0.4,2.9H247v4.6h5.1v2.9H247v6.9H242.9z"/>
			</g>
		</g>
	</g>
	<g>
		<circle class="st3" cx="251.5" cy="256.4" r="23"/>
		<circle class="st3" cx="138.1" cy="179" r="23"/>
		<circle class="st3" cx="85.6" cy="323.5" r="23"/>
		<circle class="st3" cx="172.5" cy="191.1" r="23"/>
		<circle class="st3" cx="44.8" cy="338.5" r="23"/>
		<ellipse class="st4" cx="203.7" cy="216.8" rx="23" ry="23"/>
		<circle class="st3" cx="126.8" cy="276.4" r="23"/>
		<ellipse class="st4" cx="219.8" cy="286" rx="23" ry="23"/>
		<circle class="st3" cx="171.4" cy="228.2" r="23"/>
		<circle class="st3" cx="165.2" cy="260.3" r="23"/>
		<circle class="st3" cx="128.6" cy="318.7" r="23"/>
		<circle class="st3" cx="185.7" cy="299.6" r="23"/>
		<circle class="st3" cx="150" cy="296.9" r="23"/>
		<circle class="st5" cx="257.4" cy="290.3" r="23"/>
	</g>
	<g>
		<rect x="179" y="74" class="st6" width="146" height="47"/>
		<line class="st7" x1="255" y1="258" x2="255" y2="121"/>
		<g>
			<g class="st1">
				<path class="st8" d="M214.2,90.5l-2.1,2.2c-0.6-0.5-1.2-0.8-1.7-1s-1.1-0.3-1.8-0.3c-1.3,0-2.3,0.5-3.1,1.5s-1.1,2.5-1.1,4.6
					c0,2.2,0.3,3.8,0.9,4.7c0.6,0.9,1.5,1.4,2.7,1.4c0.9,0,1.7-0.2,2.4-0.6v-3.9h-2.2l-0.4-2.9h6.6v8.6c-0.9,0.6-1.9,1-3,1.4
					c-1.1,0.3-2.2,0.5-3.2,0.5c-2.6,0-4.6-0.8-5.9-2.3c-1.3-1.5-2-3.8-2-6.8c0-1.9,0.4-3.5,1.1-4.9c0.7-1.4,1.7-2.4,3-3.1
					s2.7-1.1,4.2-1.1C210.7,88.4,212.6,89.1,214.2,90.5z"/>
				<path class="st8" d="M228.5,100.7h-8.2c0.1,1.1,0.4,1.9,0.9,2.3s1.2,0.7,2.1,0.7c0.5,0,1-0.1,1.5-0.3s1-0.5,1.6-0.9l1.6,2.2
					c-1.5,1.2-3.3,1.8-5.2,1.8c-2.1,0-3.8-0.6-5-1.9c-1.1-1.3-1.7-3-1.7-5.1c0-1.3,0.2-2.6,0.7-3.6c0.5-1.1,1.2-1.9,2.1-2.5
					s2.1-0.9,3.4-0.9c1.9,0,3.4,0.6,4.5,1.8c1.1,1.2,1.6,2.9,1.6,5C228.6,99.8,228.5,100.3,228.5,100.7z M224.7,98.1
					c0-2-0.8-3-2.2-3c-0.7,0-1.2,0.2-1.6,0.8s-0.6,1.3-0.7,2.5h4.4v-0.3H224.7z"/>
				<path class="st8" d="M241.2,93.5c0.7,0.7,1,1.7,1,3v9.7h-4v-9c0-0.7-0.1-1.1-0.3-1.4s-0.5-0.4-0.9-0.4c-0.8,0-1.6,0.6-2.3,1.7
					v9.1h-4V92.9h3.5l0.3,1.6c0.6-0.7,1.2-1.2,1.8-1.5c0.7-0.3,1.4-0.5,2.2-0.5C239.7,92.5,240.6,92.8,241.2,93.5z"/>
				<path class="st8" d="M263.2,98.3c0.7,0.6,1.1,1.6,1.1,2.9c0,1.8-0.7,3.2-2,3.9c-1.3,0.8-3.2,1.1-5.6,1.1h-5.6V88.8h4.9
					c2.4,0,4.3,0.3,5.6,1c1.3,0.7,1.9,1.8,1.9,3.4c0,1-0.3,1.8-0.9,2.5s-1.4,1-2.3,1.3C261.6,97.2,262.5,97.6,263.2,98.3z
					 M255.3,91.7v4h1.5c1.7,0,2.6-0.7,2.6-2.1c0-0.7-0.2-1.2-0.7-1.5s-1.2-0.4-2.2-0.4H255.3z M259.3,102.7c0.6-0.3,0.8-0.9,0.8-1.8
					c0-1.6-1-2.4-3-2.4h-1.8v4.7h1.5C257.9,103.2,258.7,103,259.3,102.7z"/>
				<path class="st8" d="M272.3,99.5h-1.6v6.6h-4.1V88.8h5.7c2.4,0,4.1,0.4,5.3,1.3c1.2,0.9,1.8,2.2,1.8,4c0,1.1-0.3,2-0.8,2.8
					c-0.5,0.7-1.4,1.4-2.5,1.9l4.4,7.4h-4.6L272.3,99.5z M270.7,96.7h1.7c0.9,0,1.6-0.2,2.1-0.6s0.7-1.1,0.7-2
					c0-0.8-0.2-1.4-0.7-1.8s-1.2-0.6-2.3-0.6h-1.5L270.7,96.7L270.7,96.7z"/>
				<path class="st8" d="M291.2,106.2l-0.9-3.7h-5l-0.9,3.7h-4.2l5.2-17.3h5l5.2,17.3H291.2z M285.9,99.5h3.6l-1.8-7.6L285.9,99.5z"
					/>
				<path class="st8" d="M296.8,106.2V88.8h10.3l-0.4,2.9h-5.8v4.6h5v2.9h-5v6.9L296.8,106.2L296.8,106.2z"/>
			</g>
		</g>
	</g>
	<g>
		<g>
			<polygon class="st9" points="265.9,0.8 265.9,17.9 273.4,17.9 254.8,36.5 236.3,17.9 243.8,17.9 243.8,0.8 			"/>
		</g>
	</g>
</g>
</svg>
