<?xml version="1.0" encoding="utf-8"?>
<!-- Generator: Adobe Illustrator 24.1.0, SVG Export Plug-In . SVG Version: 6.00 Build 0)  -->
<svg version="1.1" id="Capa_1" xmlns="http://www.w3.org/2000/svg" xmlns:xlink="http://www.w3.org/1999/xlink" x="0px" y="0px"
	 viewBox="0 0 1379.6 786.4" style="enable-background:new 0 0 1379.6 786.4;" xml:space="preserve">
<style type="text/css">
	.st0{fill:#CC6633;}
	.st1{enable-background:new    ;}
	.st2{fill:#FFFFFF;}
	.st3{fill:#2EC27E;}
	.st4{fill:#046B99;}
	.st5{fill:#D4D8D8;}
	.st6{fill:#ECBB21;}
	.st7{fill:#FA7F43;}
	.st8{opacity:0.4;fill:#FFFFFF;enable-background:new    ;}
	.st9{fill:#ED1F15;}
	.st10{fill:#373A47;}
</style>
<g>
	<g>
		<g id="g27559-3-27_2_" transform="translate(5.4199132,55.22878)">
			<path id="rect1318-7-4-6-5-7-9_2_" class="st0" d="M682.7,132.4L682.7,132.4c5.5,0,10,7.2,10,16.1v79.8c0,8.9-4.5,16.1-10,16.1
				l0,0c-5.5,0-10-7.2-10-16.1v-79.8C672.7,139.7,677.2,132.4,682.7,132.4z"/>
			<g class="st1">
				<path class="st2" d="M683.1,174.7v-2.9h7.5v6.9c-0.7,0.7-1.8,1.3-3.2,1.9s-2.8,0.8-4.2,0.8c-1.8,0-3.4-0.4-4.7-1.1
					s-2.3-1.8-3-3.3c-0.7-1.4-1-2.9-1-4.6c0-1.8,0.4-3.4,1.1-4.8c0.8-1.4,1.9-2.5,3.3-3.2c1.1-0.6,2.5-0.9,4.1-0.9
					c2.1,0,3.8,0.4,5,1.3c1.2,0.9,2,2.1,2.3,3.7l-3.5,0.6c-0.2-0.8-0.7-1.5-1.4-2c-0.7-0.5-1.5-0.7-2.5-0.7c-1.5,0-2.7,0.5-3.6,1.5
					c-0.9,1-1.4,2.4-1.4,4.3c0,2.1,0.5,3.6,1.4,4.6c0.9,1,2.1,1.5,3.6,1.5c0.7,0,1.5-0.1,2.2-0.4c0.7-0.3,1.4-0.6,1.9-1v-2.2H683.1z
					"/>
			</g>
		</g>
		<g id="g27544-3-2_2_" transform="translate(7.1307032,62.10795)">
			<path id="rect1318-7-4-6-9-4-0_2_" class="st3" d="M434.3,242.1L434.3,242.1c5.5,0,10,7.2,10,16.1v79.8c0,8.9-4.5,16.1-10,16.1h0
				c-5.5,0-10-7.2-10-16.1v-79.8C424.4,249.4,428.8,242.1,434.3,242.1z"/>
			<g class="st1">
				<path class="st2" d="M426.7,274h3.5v9.4c0,1.5,0,2.4,0.1,2.9c0.1,0.7,0.5,1.3,1.1,1.7c0.6,0.4,1.3,0.6,2.3,0.6
					c1,0,1.7-0.2,2.2-0.6c0.5-0.4,0.8-0.9,0.9-1.5c0.1-0.6,0.2-1.6,0.2-2.9V274h3.5v9.1c0,2.1-0.1,3.5-0.3,4.4
					c-0.2,0.9-0.5,1.6-1,2.2c-0.5,0.6-1.2,1.1-2,1.4c-0.8,0.4-2,0.5-3.3,0.5c-1.6,0-2.9-0.2-3.8-0.6s-1.5-0.9-2-1.5s-0.8-1.2-1-1.9
					c-0.2-1-0.3-2.5-0.3-4.4V274z"/>
			</g>
		</g>
		<g id="g27539-2-6_2_" transform="translate(7.4848432,60.52045)">
			<path id="rect1318-7-4-6-52-3_2_" class="st4" d="M495.6,229.2L495.6,229.2c5.5,0,10,7.2,10,16.1v79.8c0,8.9-4.5,16.1-10,16.1h0
				c-5.5,0-10-7.2-10-16.1v-79.8C485.7,236.5,490.1,229.2,495.6,229.2z"/>
			<g class="st1">
				<path class="st2" d="M504.2,277.8h-3.8l-1.5-3.9H492l-1.4,3.9h-3.7l6.7-17.3h3.7L504.2,277.8z M497.8,271l-2.4-6.4l-2.3,6.4
					H497.8z"/>
			</g>
		</g>
		<g id="g27549-3-7_2_" transform="translate(9.3842232,59.46211)">
			<path id="rect1318-7-4-6-4-86-4_2_" class="st4" d="M555.4,201.8L555.4,201.8c5.5,0,10,7.2,10,16.1v79.8c0,8.9-4.5,16.1-10,16.1
				l0,0c-5.5,0-10-7.2-10-16.1v-79.8C545.4,209,549.9,201.8,555.4,201.8z"/>
			<g class="st1">
				<path class="st2" d="M564,250.4h-3.8l-1.5-3.9h-6.9l-1.4,3.9h-3.7l6.7-17.3h3.7L564,250.4z M557.6,243.6l-2.4-6.4l-2.3,6.4
					H557.6z"/>
			</g>
		</g>
		<g id="g27554-2-0_2_" transform="translate(10.963313,55.22878)">
			<path id="rect1318-7-4-6-91-2-1_2_" class="st4" d="M615.5,157.5L615.5,157.5c5.5,0,10,7.2,10,16.1v79.8c0,8.9-4.5,16.1-10,16.1
				l0,0c-5.5,0-10-7.2-10-16.1v-79.8C605.5,164.7,610,157.5,615.5,157.5z"/>
			<g class="st1">
				<path class="st2" d="M624.1,206.1h-3.8l-1.5-3.9h-6.9l-1.4,3.9h-3.7l6.7-17.3h3.7L624.1,206.1z M617.7,199.3l-2.4-6.4l-2.3,6.4
					H617.7z"/>
			</g>
		</g>
		<g id="g28165-8-57_2_" transform="translate(8.6331632,51.14471)">
			<path class="st5" d="M1268.6,231c-7.8,0.2-16.6,0.8-24.4,2.2c-14.5,2.6-25.7,8.2-40.3,17.9c-14.5,9.7-32.4,23.6-48.5,35.6
				c-16.1,12-30.3,22.3-47.7,33.3c-17.3,11-37.8,22.8-51.5,29.8c-13.8,7-20.9,9.2-27.7,11.7c-6.8,2.4-13.4,5-16.6,6.3
				c-3.3,1.3,25.4,1.2,31.3,0.3c6-0.9,17.9-2.8,31.8-7.1c13.9-4.3,29.9-10.9,44.9-18.9s29.1-17.3,43.1-27.5
				c14.1-10.2,28.1-21.2,40.9-30.8c12.8-9.6,24.4-17.8,36-25c9.9-6.1,19.9-11.4,28.7-15.2V231z"/>
			<path id="path595-6-6-0-9-0-4-8_2_" class="st5" d="M712.4,230.8c-8.9-0.1-26.7-0.4-41.2,2.2c-14.5,2.6-25.7,8.2-40.3,17.9
				c-14.5,9.7-32.4,23.6-48.5,35.6c-16.1,12-30.3,22.3-47.7,33.3s-37.8,22.8-51.5,29.8c-13.8,7-20.9,9.2-27.7,11.7
				c-6.8,2.4-13.4,5-16.6,6.3c-3.3,1.3,25.4,1.2,31.3,0.3c6-0.9,17.9-2.8,31.8-7.1c13.9-4.3,29.9-10.9,44.9-18.9
				c15-8,29.1-17.3,43.1-27.5c14.1-10.2,28.1-21.2,40.9-30.8c12.8-9.6,24.4-17.8,36-25c11.6-7.1,23.2-13.2,32.9-17s17.6-5.4,22.5-6
				c4.9-0.7,6.7-0.5,6.1-1.1c-0.7-0.6-3.9-2-5.5-2.7C721.3,230.9,721.3,230.9,712.4,230.8L712.4,230.8z"/>
			<path class="st5" d="M462.6,364.3c-6.7-2.3-15-5.4-26.6-11.3c-11.5-5.9-26.3-14.4-44.7-25.4c-18.4-10.9-40.4-24.3-65.1-39.2v0
				c-15.2-9.2-31.4-18.9-48-28.9v23.2c5.2,6.3,10.3,12.2,15.4,17.4c15.3,15.5,29.9,24.5,44.8,33.2c14.9,8.7,30,17.1,44,23.2
				c14,6.1,27,9.9,43.1,11.7c16,1.7,35.1,1.4,42.1,0.5C474.5,367.9,469.3,366.6,462.6,364.3z"/>
			<path id="path591-8-8-1-2-0_2_" class="st5" d="M696.1,230.8c10.8-0.2,32.3-0.7,50.7,0.6c18.3,1.4,33.4,4.6,48,8.6
				s28.6,8.8,46.7,17.3c18.1,8.5,40.4,20.6,62.5,33.3s44.1,26,62.5,37c18.4,10.9,33.2,19.5,44.7,25.4c11.5,5.9,19.9,9,26.6,11.3
				c6.7,2.3,11.9,3.6,4.9,4.4c-7,0.8-26.1,1.2-42.1-0.5c-16-1.7-29-5.6-43.1-11.7c-14-6.1-29.2-14.5-44-23.2
				c-14.9-8.7-29.5-17.7-46.1-27.8c-16.6-10.1-35.2-21.4-51.4-30.5c-16.2-9.1-30-15.9-44.1-21.5c-14-5.6-28.3-10-40.5-13.3
				c-12.3-3.3-22.5-5.6-28.8-6.9c-6.2-1.2-8.4-1.4-10.6-1.6c-2.2-0.2-4.4-0.4-5.4-0.5C685.3,231.1,685.3,231.1,696.1,230.8
				L696.1,230.8z"/>
		</g>
		<g id="g27569-5-10_2_" transform="translate(5.9129933,56.28711)">
			<path id="rect1318-7-4-6-8-7-3_2_" class="st0" d="M805.5,145.6L805.5,145.6c5.5,0,10,7.2,10,16.1v79.8c0,8.9-4.5,16.1-10,16.1h0
				c-5.5,0-10-7.2-10-16.1v-79.8C795.5,152.8,800,145.6,805.5,145.6z"/>
			<g class="st1">
				<path class="st2" d="M805.9,187.8v-2.9h7.5v6.9c-0.7,0.7-1.8,1.3-3.2,1.9c-1.4,0.5-2.8,0.8-4.2,0.8c-1.8,0-3.4-0.4-4.7-1.1
					c-1.3-0.8-2.3-1.8-3-3.3s-1-2.9-1-4.6c0-1.8,0.4-3.4,1.1-4.8c0.8-1.4,1.9-2.5,3.3-3.2c1.1-0.6,2.5-0.9,4.1-0.9
					c2.1,0,3.8,0.4,5,1.3c1.2,0.9,2,2.1,2.3,3.7l-3.5,0.6c-0.2-0.8-0.7-1.5-1.4-2c-0.7-0.5-1.5-0.7-2.5-0.7c-1.5,0-2.7,0.5-3.6,1.5
					c-0.9,1-1.4,2.4-1.4,4.3c0,2.1,0.5,3.6,1.4,4.6c0.9,1,2.1,1.5,3.6,1.5c0.7,0,1.5-0.1,2.2-0.4s1.4-0.6,1.9-1v-2.2H805.9z"/>
			</g>
		</g>
		<g id="g27574-9-3_2_" transform="translate(6.6925633,58.93295)">
			<path id="rect1318-7-4-6-6-8-2_2_" class="st4" d="M866.4,172.7L866.4,172.7c5.5,0,10,7.2,10,16.1v79.8c0,8.9-4.5,16.1-10,16.1h0
				c-5.5,0-10-7.2-10-16.1v-79.8C856.4,180,860.9,172.7,866.4,172.7z"/>
			<g class="st1">
				<path class="st2" d="M875,221.3h-3.8l-1.5-3.9h-6.9l-1.4,3.9h-3.7l6.7-17.3h3.7L875,221.3z M868.6,214.5l-2.4-6.4l-2.3,6.4
					H868.6z"/>
			</g>
		</g>
		<g id="g27579-3-5_2_" transform="translate(3.2980932,59.99128)">
			<path id="rect1318-7-4-6-9-0-3-3_2_" class="st6" d="M931.4,203.1L931.4,203.1c5.5,0,10,7.2,10,16.1V299c0,8.9-4.5,16.1-10,16.1
				h0c-5.5,0-10-7.2-10-16.1v-79.8C921.5,210.3,925.9,203.1,931.4,203.1z"/>
			<g class="st1">
				<path class="st2" d="M934.9,245.9l3.4,1.1c-0.5,1.9-1.4,3.3-2.6,4.2c-1.2,0.9-2.7,1.4-4.6,1.4c-2.3,0-4.2-0.8-5.7-2.3
					c-1.5-1.6-2.2-3.7-2.2-6.4c0-2.9,0.7-5.1,2.2-6.7c1.5-1.6,3.4-2.4,5.9-2.4c2.1,0,3.8,0.6,5.2,1.9c0.8,0.7,1.4,1.8,1.8,3.2
					l-3.5,0.8c-0.2-0.9-0.6-1.6-1.3-2.1c-0.6-0.5-1.4-0.8-2.4-0.8c-1.3,0-2.3,0.5-3.1,1.4c-0.8,0.9-1.2,2.4-1.2,4.5
					c0,2.2,0.4,3.7,1.2,4.7s1.8,1.4,3.1,1.4c0.9,0,1.7-0.3,2.4-0.9C934.1,248.1,934.6,247.1,934.9,245.9z"/>
			</g>
		</g>
		<g id="g27584-8-2_2_" transform="translate(3.6522333,63.16628)">
			<path id="rect1318-7-4-6-1-6-8_2_" class="st4" d="M992.7,231.9L992.7,231.9c5.5,0,10,7.2,10,16.1v79.8c0,8.9-4.5,16.1-10,16.1h0
				c-5.5,0-10-7.2-10-16.1v-79.8C982.8,239.2,987.2,231.9,992.7,231.9z"/>
			<g class="st1">
				<path class="st2" d="M1001.4,280.5h-3.8l-1.5-3.9h-6.9l-1.4,3.9H984l6.7-17.3h3.7L1001.4,280.5z M994.9,273.7l-2.4-6.4l-2.3,6.4
					H994.9z"/>
			</g>
		</g>
		<g id="g27589-4-0_2_" transform="translate(5.5516133,65.28295)">
			<path id="rect1318-7-4-6-4-8-8-8_2_" class="st3" d="M1052.5,232.4L1052.5,232.4c5.5,0,10,7.2,10,16.1v79.8
				c0,8.9-4.5,16.1-10,16.1l0,0c-5.5,0-10-7.2-10-16.1v-79.8C1042.5,239.6,1047,232.4,1052.5,232.4z"/>
			<g class="st1">
				<path class="st2" d="M1045.5,263.7h3.5v9.4c0,1.5,0,2.4,0.1,2.9c0.1,0.7,0.5,1.3,1.1,1.7c0.6,0.4,1.3,0.6,2.3,0.6
					c1,0,1.7-0.2,2.2-0.6c0.5-0.4,0.8-0.9,0.9-1.5c0.1-0.6,0.2-1.6,0.2-2.9v-9.6h3.5v9.1c0,2.1-0.1,3.5-0.3,4.4
					c-0.2,0.9-0.5,1.6-1,2.2c-0.5,0.6-1.2,1.1-2,1.4s-2,0.5-3.3,0.5c-1.6,0-2.9-0.2-3.8-0.6c-0.9-0.4-1.5-0.9-2-1.5s-0.8-1.2-1-1.9
					c-0.2-1-0.3-2.5-0.3-4.4V263.7z"/>
			</g>
		</g>
		<g id="g27594-1-3_2_" transform="translate(7.1307032,63.69545)">
			<path id="rect1318-7-4-6-91-1-6-3_2_" class="st6" d="M1112.6,211.3L1112.6,211.3c5.5,0,10,7.2,10,16.1v79.8
				c0,8.9-4.5,16.1-10,16.1l0,0c-5.5,0-10-7.2-10-16.1v-79.8C1102.6,218.5,1107.1,211.3,1112.6,211.3z"/>
			<g class="st1">
				<path class="st2" d="M1116.7,253.5l3.4,1.1c-0.5,1.9-1.4,3.3-2.6,4.2c-1.2,0.9-2.7,1.4-4.6,1.4c-2.3,0-4.2-0.8-5.7-2.3
					c-1.5-1.6-2.2-3.7-2.2-6.4c0-2.9,0.7-5.1,2.2-6.7c1.5-1.6,3.4-2.4,5.9-2.4c2.1,0,3.8,0.6,5.2,1.9c0.8,0.7,1.4,1.8,1.8,3.2
					l-3.5,0.8c-0.2-0.9-0.6-1.6-1.3-2.1c-0.6-0.5-1.4-0.8-2.4-0.8c-1.3,0-2.3,0.5-3.1,1.4c-0.8,0.9-1.2,2.4-1.2,4.5
					c0,2.2,0.4,3.7,1.2,4.7c0.8,0.9,1.8,1.4,3.1,1.4c0.9,0,1.7-0.3,2.4-0.9C1115.9,255.7,1116.4,254.8,1116.7,253.5z"/>
			</g>
		</g>
		<path id="rect1318-7-4-6-5-7-2-8-3-2_2_" class="st5" d="M1184.1,232.4L1184.1,232.4c5.5,0,10,7.2,10,16.1v79.8
			c0,8.9-4.5,16.1-10,16.1l0,0c-5.5,0-10-7.2-10-16.1v-79.8C1174.2,239.6,1178.6,232.4,1184.1,232.4z"/>
		<path id="rect1318-7-4-6-41-5-7-7-3-0_2_" class="st5" d="M1245.8,186.5L1245.8,186.5c5.5,0,10,7.2,10,16.1v79.8
			c0,8.9-4.5,16.1-10,16.1l0,0c-5.5,0-10-7.2-10-16.1v-79.8C1235.8,193.7,1240.3,186.5,1245.8,186.5z"/>
		<path id="rect1318-7-4-6-6-8-5-2-0-2_2_" class="st5" d="M318,238L318,238c5.5,0,10,7.2,10,16.1v79.8c0,8.9-4.5,16.1-10,16.1h0
			c-5.5,0-10-7.2-10-16.1v-79.8C308,245.2,312.5,238,318,238z"/>
		<path id="rect1318-7-4-6-9-0-3-8-4-1-9_2_" class="st5" d="M379.6,269.4L379.6,269.4c5.5,0,10,7.2,10,16.1v79.8
			c0,8.9-4.5,16.1-10,16.1h0c-5.5,0-10-7.2-10-16.1v-79.8C369.7,276.6,374.1,269.4,379.6,269.4z"/>
	</g>
	<g>
		<g>
			<g>
				<g id="sVTMiL.tif_9_">
					<g>
						<path class="st7" d="M405.1,681.3c1.5,1.5,3.2,0.8,4.4-0.5c3.5-3.4,6.9-6.7,10.3-10.1c2.9-2.9,6.1-5.9,8.8-8.9
							c1.9-2.2,4.2-4,6.1-6.1c2.2-2.2,4.4-4.4,6.4-6.4c4.9-5.4,9.9-10.4,14.7-16.2c3.4-4.2,6.1-8.9,8.9-13.5
							c0.3-0.7,0.7-1.2,0.8-1.9c1.2-1.7,2.5-3.4,3.7-5.1c1.2-1.9,2.5-3.5,3.5-5.6c2.5-5.6,5.1-11.1,7.6-16.5
							c2.7-6.1,5.6-12.1,8.4-18c2.5-4.9,4.9-9.6,7.7-14.3c3.7-6.1,8.1-11.8,13.6-16.3c5.2-4.4,11.3-7.7,16.8-11.5
							c3.9-2.5,7.7-5.6,11.6-8.1c2.9-1.9,6.1-3.4,8.8-5.4c6.2-4.4,12.8-8.4,18.9-13c4.5-3.4,8.9-7.2,13.3-10.9
							c5.4-4.4,11.6-6.9,18.4-7.9c7.2-1.2,14.3-2.4,21.6-3.4c4.9-0.8,9.9-1.5,14.8-2c4.2-0.3,8.4-0.2,12.6-0.2c2.2,0,4.4,0,6.6,0
							c0.8,0,1.9,0.2,2.7,0.3c2,0.5,2.4,1.2,1.3,3c-0.8,1.9-1.5,3.5-4.2,3c-0.8-0.2-1.7,0.3-2.5,0.7c-5.2,2.9-10.6,5.9-15.7,8.9
							c-3.2,2-6.1,4.5-9.1,6.9c-3.2,2.4-6.7,4.4-10.1,6.4c-2.4,1.5-4.4,3-6.7,4.5c-4.5,2.7-9.1,5.7-13.8,8.1
							c-7.7,4-14.1,9.4-19.9,16c-6.2,7.1-12.8,13.8-20,19.7c-3.9,3-7.6,6.1-11.3,9.1l-0.2,0.2c-0.3,1.2-0.8,2.4-1,3.5
							c1-0.2,2.5,0.2,3.4-0.5c2.9-2,5.6-4.2,8.3-6.2c3.5-2.9,7.1-5.9,10.4-9.1c2.2-2.2,5.4-3.4,6.1-6.9c0.3-1,2.4-1.7,3.2-2.7
							c4.2-4.4,7.9-8.8,12.3-13c1.3-1.3,3.2-2.4,4.7-3.4c2.5-1.5,5.1-2.5,6.9-5.1c0.8-1.2,3-1.2,4.4-2c5.1-3,10.3-6.1,15.2-9.3
							c5.4-3.5,10.4-7.2,15.7-10.9c0.3-0.2,0.7-0.5,0.8-0.8c1.3-1.3,2.7-2.5,4.7-3.4c2.7-1,5.7-2.9,7.7-5.1c2.7-2.7,5.7-2.5,8.9-2
							c7.2,1.2,11.5,6.1,14.7,12.3c1.7,3.4,3.2,6.7,3.7,10.4c0.7,6.4,1,12.6-2.5,18.7c-2.7,4.9-6.6,8.6-10.9,11.8
							c-2.9,2.2-6.4,3.9-9.6,5.6c-2.2,1-4.4,2.2-4.7,4.2c-1.3,0.5-2.5,0.5-3.4,1c-4.7,3.5-9.4,6.9-14,10.8
							c-4.2,3.5-7.7,7.7-10.4,12.6c-2.5,4.4-5.1,8.6-7.7,12.8c-3.4,5.4-7.1,10.4-10.4,15.8c-1.2,2-2,4.4-2.7,6.7
							c-2.2,5.7-4.4,11.5-6.4,17.2c-2.9,7.7-5.7,15.7-8.4,23.4c-2.2,6.1-4.2,12.5-6.6,18.4c-1.9,4.5-4.4,8.9-6.2,13.3
							c-1.7,3.7-3.5,7.4-6.4,10.4c-2.4,2.5-4.5,4.9-7.1,7.2c-3.2,2.9-6.4,5.9-9.8,8.4c-4.4,3.2-9.3,6.1-13.8,9.1
							c-3.2,2.2-6.4,4.4-9.6,6.6l0.3,0.8c2.2-0.3,4.4-0.5,6.4-1.2c3.5-1.3,6.9-3,10.3-4.5c2.2-1,4.4-2.2,6.2-3.5
							c2.9-2.2,5.7-4.4,8.3-6.7c1.2-1.2,2.5-1.2,3.5-0.8c6.2,2.4,12.8,3.4,19.4,4.4c3.5,0.5,7.2,0.7,11.5,0.8
							c-0.8,1.7-1.3,2.9-2.2,3.9c-2.2,2.9-4.2,5.9-6.6,8.4c-1.3,1.5-3.2,2.7-5.1,3.9c-4,2.5-8.1,4.9-12.1,7.2c-2.5,1.3-4.9,3-7.7,4
							c-4.4,1.5-8.8,3.5-13.8,3.4c-3.4-0.2-6.7,1-9.9,2c-4.4,1.2-8.9,2.7-13.3,4c-6.1,1.5-12.1,3.9-17.5,7.2c-2.2,1.3-4,3.4-6.1,5.1
							c-1.2,0.8-2.5,1.7-3.5,2.7c-0.7,0.7-1.2,1.5-1.3,2.5c-0.7,2.2-0.2,2.5,2,2c4.2-1.2,7.7-3.7,10.9-6.4c2.2-1.9,4.4-3.5,6.7-4.7
							c2.5-1.2,5.2-1.7,7.7-2.5c3-0.8,6.1-2.2,9.1-2.9c4.2-1,8.1-2.2,12.3-2.9c2.4-0.5,4.7-0.2,7.2-0.7c2.4-0.5,4.5-1.2,6.7-1.9
							c7.7-2.2,14.3-6.7,21.1-10.6c6.4-3.7,11.8-9.3,15.7-15.7c1.3-2.5,2.4-5.1,3.5-7.7c5.4,0.5,11.1,0.7,16.5-1
							c1.3-0.5,2.7-1.2,4.4-1.7c2.5-1,5.2-2,7.7-3c3.9-1.7,6.6-4.7,7.7-8.8c1-3.4,2.4-6.9,2.7-10.4c0.5-3,0.2-6.2,0.2-9.4
							c0-1,0.5-1.3,1.2-2c3.4-2.9,6.4-6.1,9.6-8.9c1.7-1.5,3.7-2.9,5.4-4.4c5.1-4.2,9.9-8.3,15-12.5c3.9-3,5.6-7.2,5.6-12
							c-0.2-7.1-0.5-14.3-0.3-21.4c0-2,1.5-3.9,2.4-5.9c1.2-3.4,2.7-6.7,3.4-10.3c0.8-5.7,1-11.3,1.3-17c0.3-6.2,0.7-12.5,0.8-18.7
							c0-1.9-0.2-3.7-0.2-5.4c2.7,0.3,5.2,0.8,7.7,0.8c4-0.3,6.6-3.2,8.6-6.1c5.7-8.4,7.9-17.7,6.4-27.8c-1.3-8.9-3.2-17.9-6.1-26.4
							c-0.8-2.2-2.2-3.5-3.7-3.9c-0.3-2.4-0.2-4.2-0.8-5.9c-1-2.7,0.8-4.5,1.7-6.6c1.2-2.9,2.7-5.7,4.2-8.4c0.3-0.8,1-1.2,1.5-1.9
							c2-2.5,4-5.2,5.9-7.9c0.8-1.3,1.5-2.9,2.5-4.2c0.7-0.7,1.9-0.8,2.7-0.8c5.1,0,9.3,2.7,14,3.9c4.7,1,9.4,2.5,14.1,3.5
							c5.9,1.2,11.8,2.2,17.7,3.2c2.4,0.3,4.7,0.5,7.1,0.7c4.4,0.3,8.8,0.8,13.1,0.8c4.9,0.2,9.8,0,14.7-0.3
							c6.2-0.3,12.5-0.8,18.7-1.7c5.9-0.8,11.6-2.2,17.4-3.4c4.4-0.8,8.4-2,12.6-3.2c3.9-1.2,7.7-2.5,11.5-4
							c3.5-1.2,7.1-2.5,10.4-4.2c6.7-3.2,13.3-6.9,19.9-10.3c2-1,4.2-2,6.1-3.2c5.6-3.7,11.1-7.2,16.3-11.1
							c4.9-3.7,9.4-7.7,14.1-11.8c3.4-3,6.4-6.4,9.4-9.6c3.5-3.7,7.1-7.4,10.3-11.3s6.2-7.7,9.1-12.1c4.5-6.9,9.1-13.8,13-20.9
							c2.9-5.2,5.6-10.6,7.9-16.2c0.8-2.2,1.3-4.5,2.2-6.9c0.5-1.5,1.2-3,1.9-4.5c1.2-3.7,2.5-7.4,3.5-11.1s2.5-7.4,3.2-11.1
							c1.2-6.4,2.4-13,3.4-19.5c0.5-3.2,1-6.6,1.3-9.8c0.3-3.4,0.2-6.7,0.2-9.9c0-6.1,0-12.3-0.3-18.4c-0.2-3.4-0.7-6.7-0.8-9.9
							c-0.2-1.7-0.3-3.5-0.7-5.2c-1.2-6.2-2-12.8-3.7-18.7c-1.2-4-1.3-8.3-3.7-12.1c-2.4-4.2-2.9-9.4-4.4-14c-1-3.2-2.7-6.2-4.2-9.4
							c-0.8-1.9-1.7-3.9-2.5-5.7c-1.5-3.2-2.9-6.4-4.5-9.4c-2-3.5-4.4-7.1-6.7-10.4c-4-5.7-7.7-11.3-12-16.8
							c-2.5-3.5-5.4-6.9-8.4-9.9c-6.2-6.2-12.5-12.6-19.4-18.2c-7.4-6.1-15.2-11.8-23.4-17c-5.7-3.7-12.1-6.1-18.2-9.4
							c-1.2-0.7-2.2-2-3.4-2.5c-5.9-2.5-11.5-5.2-17.5-7.2c-8.9-2.9-18-5.2-27-7.7c-3.5-0.8-7.2-1.7-10.8-2
							c-8.8-0.8-17.4-0.8-26.1-2c-6.6-0.8-13,0.2-19.4,0.5c-5.1,0.2-9.9,0.8-14.8,1.7c-7.7,1.2-15.3,2.5-22.9,4.2
							c-3.9,0.8-7.4,2.5-11.1,3.7c-2.5,0.8-4.9,1.3-7.4,2.4c-5.6,2.4-11.3,4.5-16.5,7.2c-3.7,1.7-7.4,3.7-10.9,5.7
							s-6.7,4.4-10.1,6.2c-3.5,2.2-7.2,4.2-10.4,6.6c-4,2.9-7.7,6.1-11.3,9.4c-3.9,3.5-7.7,7.1-11.5,10.8
							c-3.9,3.9-7.6,7.7-10.9,11.8c-3.2,3.9-6.1,7.7-9.3,11.6c-1.9,2.4-3.9,4.4-5.4,6.9c-2.2,3.2-3.9,6.7-6.1,9.9
							c-4.5,7.1-8.1,14.5-11.5,22.1c-2.4,5.2-3.9,10.9-5.7,16.3c-1.2,3.4-2.5,6.7-3.7,10.1c-0.8,2.9-1.5,6.1-2,8.9
							c-1.5,8.8-3.4,17.5-4.4,26.4c-0.8,8.9-0.8,17.9-0.8,26.8c0.2,6.1,0.8,12.5,1.5,18.5c0.8,6.1,2.2,12.3,3.7,18.2
							c1,4.4,2.5,8.4,3.9,12.8c1.9,6.1,3.5,12.3,5.7,18.2c1.2,3.5,3,6.9,4.7,10.4s3.4,7.1,5.4,10.4c3,5.2,6.2,10.3,9.6,15.3
							c3,4.5,6.1,9.1,9.4,13.5c2.7,3.7,5.9,7.1,9.1,10.4c4.9,5.1,9.9,9.9,15.2,14.7c2.7,2.5,5.7,5.1,8.8,7.4
							c4.7,3.5,9.6,6.9,14.7,10.3c0.7,0.5,1.5,0.7,2,1c0.7,0.8,1.7,2.4,1.3,3.2c-1,3.7-2.5,7.2-4,10.8c-2.5,5.6-4.9,11.1-7.4,16.5
							c-0.5,0.8-0.8,1.7-1.5,2.7c-2.9-1.9-5.7-1.7-8.6-1.5c-3,0.2-6.1,0-9.1,0c-4.2,0.2-8.3,0.5-12.5,0.8
							c-5.1,0.7-10.1,1.3-15.2,2.2c-6.6,0.8-13.1,1.7-19.9,3.2c-7.7,1.7-14.5,5.4-20.4,10.8c-4.5,4.2-9.9,7.6-15,11.3
							c-4,2.9-8.1,5.9-12.3,8.6c-4,2.5-7.9,5.1-12,7.7c-3.2,2.2-6.4,4.5-9.6,6.7c-1.7,1.2-3.5,2.2-5.2,3.2
							c-6.1,4.2-12.3,8.1-17.4,13.6c-5.2,5.7-9.4,12.1-13,18.9c-3.4,6.6-6.9,13.1-10.3,19.9c-1.3,2.7-2,5.7-3.4,8.4
							c-2,3.9-4.4,7.4-6.6,11.3c-2.4,4.2-4.5,8.3-7.1,12.3c-1.3,2.5-3,4.5-4.5,6.9c-0.8,1-1.2,2.5-2.2,3.5c-3.2,4-6.6,7.7-9.8,12
							c-3.9,4.7-8.9,8.1-13,12.8c-3.5,4-7.2,7.9-10.9,12c-2.5,2.5-5.2,5.1-7.7,7.6c-2.7,2.5-5.6,5.1-8.1,7.7
							C404.4,678.1,403.7,679.8,405.1,681.3z M969.7,227.3c-0.3,0.2-0.7,0.2-0.8,0.3c-1.2-4.5-2.5-9.3-3.5-13.8l0.8-0.2
							C967.2,218.2,968.5,222.7,969.7,227.3z M974.6,273.6c-0.8-11.3-1.9-22.4-2.5-33.7c0.2,0,0.5,0,0.7,0c0.7,5.6,1.3,11.3,2,16.7
							C975.1,262.3,975.8,268.1,974.6,273.6z M888.8,119.3c-0.2,0.3-0.3,0.5-0.5,0.8l-15.2-9.6c0.2-0.2,0.3-0.3,0.3-0.7
							C879.8,111.1,883.6,116.1,888.8,119.3z M901.8,123.7c-2.9-2.7-5.6-5.2-8.1-7.7l0.2-0.2c1.9,1,3.7,2,5.4,3.2c1,0.8,2,2,2.9,3
							C902.3,122.5,902,123.2,901.8,123.7z M953.9,205.2c0.2,0,0.3-0.2,0.7-0.2c2.5,5.1,4.4,10.4,4.9,16.3
							C957.6,215.8,955.7,210.6,953.9,205.2z M964.1,300.7c0.7-5.7,1.2-11.5,1.9-17.2c2,1.5,2.2,3.2,1.5,5.4c-1,4-2,7.9-2.9,12
							C964.5,300.9,964.3,300.7,964.1,300.7z M927.3,404c-0.8-4.2,2.9-4.7,4.4-6.9c0.2,0.2,0.3,0.3,0.7,0.3
							C930.6,399.5,928.9,401.6,927.3,404z M931.6,171.7c5.7,9.1,10.9,18.5,15,28.5c0.5,1,0.8,2.4,1.2,3.5c1.9,5.1,4,9.9,5.7,15
							c1.3,4.2,2.2,8.3,3,12.6c1,5.1,1.9,10.1,2.9,15c0.2,0.8,0.7,1.3,0.8,1.7c-0.2,0.8-0.5,1.2-0.5,1.7c0.3,3.7,0.8,7.4,1,11.1
							c0.3,5.2,0.7,10.4,0.5,15.5c-0.2,5.7-0.8,11.3-1.2,17c-0.2,2.5,0.2,5.1-0.2,7.6c-0.3,2.2-1,4.2-1.9,6.1
							c-1.5,4.4-1.5,9.3-3.2,13.6c-2.2,5.9-3.7,11.8-5.7,17.9c-1.2,3.4-2.7,6.6-4.4,9.8c-2.5,5.6-5.2,11.3-8.1,16.5
							c-3.2,5.9-6.1,11.8-11.3,16.3c-0.3,0.3-0.7,0.8-0.8,1.3c-1,1.9-2,3.7-3.4,5.4c-4.5,5.6-9.4,10.9-14.1,16.3
							c-0.3,0.3-8.4,8.1-9.9,9.3c-5.6,3.9-10.3,8.8-16.2,12.3c-3.5,2.2-5.4,4.5-10.3,7.2c-61.3,30.7-112.9,30.2-170.3,9.3
							c-4.9-2.5-9.9-4.7-14.7-7.4c-3.4-2-6.7-4.2-10.3-6.6c-3.7-2.4-7.2-4.7-10.8-7.4c-3.2-2.4-6.1-4.9-9.3-7.6
							c-1.7-1.3-3.4-2.7-4.7-4.4c-1.2-1.3-2.9-2.5-4.2-3.9c-4-4.7-8.1-9.4-12.5-14.1c-3.2-3.5-13.6-18.9-15.5-22.6
							c-3.5-6.6-6.9-13.3-9.9-20c-3.9-8.3-7.2-16.8-8.8-25.9c-0.2-0.8-0.5-2-0.8-2.9c-1.2-5.4-2.5-10.8-3.4-16.3
							c-0.8-5.1-0.8-10.3-1.2-15.5c-0.3-5.1-0.8-10.1-0.8-15c0-4.7,0.7-9.4,1-14.1c1-11.3,3.2-22.2,6.4-33
							c2.7-9.3,6.2-18.2,10.3-26.8c2.7-5.9,5.4-11.5,8.9-17c2.5-4.2,5.2-8.4,8.1-12.6c1.5-2.4,3.9-4.4,5.4-6.7
							c2.7-4.4,6.2-7.9,9.8-11.6c2.7-2.9,5.6-5.9,8.3-8.6c2.2-2.2,4.4-4.4,6.7-6.4c2.5-2.4,5.6-4.4,8.3-6.4c2.5-2,5.2-4.2,7.7-6.1
							c2-1.5,4-2.9,6.1-4.2c2.7-1.9,5.6-3.7,8.4-5.1c4-2.2,8.1-3.9,12.3-5.9c3.5-1.7,7.1-3.9,10.9-4.9c0.8-0.2,1.5-0.3,2.2-0.5
							c8.1-3.4,16.5-6.1,25.3-7.6c6.1-1,12-2.9,18-3.5c7.6-0.8,15-0.7,22.6-1c6.1-0.3,12.1,0.3,18.2,0.8c10.1,0.8,19.9,2.9,29.6,5.4
							c9.9,2.5,19.7,6.4,29,10.8c7.2,3.4,14.3,7.1,20.7,11.5c4.5,3,9.3,6.1,13.6,9.4c7.9,6.1,15.2,12.8,22.1,19.9 M578.7,677.4
							c8.1,3.7,16.5,5.2,25.4,5.9c8.8,0.7,17.5,0.5,26.8-0.8c-1,5.1-1.5,9.9-3,14.7c-1.2,3.7-2.9,7.7-7.2,9.4
							c-1.9,0.8-3.9,1.2-5.6,2.2c-6.9,3.7-14.3,4.4-21.9,3.9c-3.5-0.3-6.9-0.8-10.4-0.8c-6.6-0.3-13.1-1.2-19.5-3.2
							c-1-0.3-2-0.8-3.2-1c3.7-4.9,7.6-9.3,10.4-14.1C573.7,688.2,576,683,578.7,677.4z M595.7,636.8c0.8,0.7,1.9,1,2.7,1.3
							c0.5,0.2,1,0.2,1.5,0.3c4.7,1.7,9.6,1.9,14.7,1.7c2.9-0.2,5.9-0.8,7.7-3.9c0.5-0.8,1.7-1,2.5-1.3c1.5-0.3,2.9-0.2,4.4-0.3
							c5.4-0.7,10.8-1.2,16-2.2c3-0.5,6.2-1.2,9.1-2.5c4.4-1.9,8.6-4.4,11.6-7.9c0.2-0.2,0.7,0,1.2,0c-0.2,1.2-0.5,2.2-0.5,3
							c-0.2,5.9-0.2,11.8-0.5,17.7c-0.2,2.9-1.2,5.7-3.5,7.7c-3.5,2.9-7.1,5.7-10.4,8.6c-6.1,5.2-12,10.6-18.2,15.7
							c-2.2,1.9-4.4,3.7-7.1,4.4c-3.4,1-6.9,1.5-10.4,1.3c-7.6-0.3-14.8-0.8-22.2-2c-4.9-0.8-9.6-2.5-14.8-3.9
							c3.4-9.3,6.6-18,9.9-27c1.9,0.5,3.9,0.8,6.1,1.3c0-3.5-2.5-3.9-5.2-4.2C592.7,642,590.9,637.1,595.7,636.8z M631.1,630.7
							c-2.4,0-4.5,0.3-6.9,0.3c-3.9,0-7.6,1.2-11.3,0.3c-3.2-0.8-3.4-0.5-4.4-4c0.2-1.7,0.7-3.4,0.5-4.9c-0.5-3.7,1-6.9,3-9.4
							c1.3-1.9,3.9-3.7,6.1-4c5.4-0.8,10.6,0,15.7,2.2c0.7,0.3,1.2,1.2,1.2,2c0.3,2,0.5,4.2,0.5,6.1c-0.2,3.2,0.5,6.4-1.2,9.4
							C633.5,630.1,632.6,630.7,631.1,630.7z M601.3,626.9c4,7.6,10.3,9.4,18.2,8.8c-1.2,0.7-2,1.9-3.7,1.7
							c-7.2-0.5-14.3-1-21.6-3.5c1-4.5,2.2-9.3,3.4-14C599.8,622,598.6,625.7,601.3,626.9z M664,546.3c0.7,5.6,4.4,8.6,7.1,12.3
							c0.5,0.7,0.8,1.3,1.3,1.3c2.5,0.7,2.4,2.5,2.2,4.4c-0.2,1-0.2,2.2-0.2,3.2c-0.2,2.9-0.3,5.7-0.5,8.6c-0.3,4.2-0.8,8.3-1,12.5
							c0,6.9-0.8,13.6-2.7,20.2c-1.3,5.1-4.5,8.6-8.4,11.8c-4.9,4.2-10.6,6.6-16.7,7.7c-2.7,0.5-5.4,0.8-8.1,1.3c0.5-1,1-2.4,1-3.4
							c0.2-3.5,0.3-7.1,0-10.4c-0.7-4.9-3.5-8.3-8.4-9.4c-2.5-0.7-5.2-0.8-7.9-1c-7.7-0.3-14,4.5-15.5,12.5c-0.5,2.7-0.8,5.7-1,8.8
							c-2.9-3.4-4-7.2-3.5-11.3c0.5-5.7,3.7-10.1,7.7-14c2.5-2.5,6.1-4.4,9.4-6.1c3.7-1.5,7.7-2.5,11.5-3.5c3.2-0.8,6.6-1.9,9.8-2.5
							c3.4-0.8,6.9-1,10.4-1.9c0.8-0.2,1.2-1,1.9-1.7c-0.7-0.7-1.3-1.9-2-1.9c-1.9,0-3.9,0.3-5.7,0.7c-0.8,0.2-1.9,0.2-3,0.3
							c0.3-1,0.3-1.9,0.7-2.5c2.2-4.2,4.4-8.3,6.6-12.5c2.7-5.4,5.6-10.8,8.3-16.2c0.5-1,0.8-2.4,1.5-3
							C659.9,549.4,661.6,548.2,664,546.3z M677.4,530.2c0.8-3,1.3-6.1,1.3-9.4c0-3,0.3-6.2,0-9.4c0-0.3,0.3-0.8,0.5-1
							c0.7-0.8,1.5-1.9,2-2.9c1.9-3.4,3.5-6.7,5.7-10.6c0.5,1.2,0.7,2,1,2.5c1.3,1.9,2.7,3.5,3.4,5.9c1,5.2,2.5,10.3,3.5,15.3
							c1.3,6.7,2.5,13.6,1.5,20.6c-0.8,5.6-3.2,10.4-6.2,15c-2.5,3.7-5.7,4.4-9.6,3.4c-7.7-2-10.4-8.1-13-14.7
							c-0.2-0.5,0.3-1.3,0.8-1.9C672.1,539.4,675.8,535.6,677.4,530.2z"/>
						<path class="st7" d="M659.6,495.5c-0.7,1.7-1,3,1,4.4c1.7,0.8,3.2,2.2,4.5,3.5c0.8,0.8,0.8,2.5,1.5,3.5c3.7,6.9,3,14,0.7,20.9
							c-0.8,2.5-3.7,4.5-5.7,6.7c-0.8,0.8-1.9,1.3-2.7,1.7c-4.4,1.5-7.1,0.3-9.4-4.2c-2.4-4-4.4-8.1-6.7-12.3c-0.8-1.3-1.2-2.7-2-4
							c-2.7-5.1-2.4-7.9,2.5-11.5c3.9-2.7,7.7-5.9,12.6-6.7c0.8-0.2,1.2-1.7,2.2-2.9c-3.4-0.2-6.1,0.2-8.8,1.3
							c-2.7,1.2-5.1,3.2-7.7,4.5c-4,2-6.6,7.6-5.4,12.3c0.2,0.5,0.3,1,0.7,1.5c3.5,6.4,7.2,12.8,10.8,19.2c2.7,5.1,7.9,6.4,13.1,4
							c8.8-4.2,11.3-11.5,11.3-20.4c0-3.2-0.3-6.6-1.5-9.4C668.2,502.5,665.1,497.8,659.6,495.5z"/>
						<path class="st7" d="M602.8,543.1c1.5,2.5,3,4.9,4.7,7.4c0.3,0.5,1.2,0.5,2,0.8c0.2-0.8,0.7-1.7,0.5-2.4
							C608.7,546.2,607.4,543,602.8,543.1z"/>
						<path class="st7" d="M584.5,672.3c1.2,2.7,4.7,3.9,7.2,2.4c2-1.2,3.2-3,3.5-5.2c0.5-3,0.5-6.2,0.7-9.4c0-0.5,0.7-1,0.8-1.5
							c0.3-2.4,0.5-4.7,0.7-7.1c0-0.3-0.7-0.5-0.8-0.8c-2.7,3-2.5,6.9-3.4,10.4c-0.5,2.2-0.7,4.4-1,6.4c-0.7,3.4-2.2,4.5-5.6,4.4
							C585.6,672,585.1,672.2,584.5,672.3z"/>
						<path class="st7" d="M630.6,674.7c0.7-2.4,1.9-4.4,2-6.7c0.3-3.4,0-6.7-0.3-10.1c0-0.7-1.2-1.2-1.9-1.7
							c-0.5,0.8-1.2,1.7-1,2.5c0.8,4.4,0.8,8.9,0,13.5c0,0.2,0,0.5,0,0.7c0.2,0.7,0.3,1.2,0.5,1.9
							C630.3,674.5,630.4,674.5,630.6,674.7z"/>
					</g>
				</g>
			</g>
			<path class="st8" d="M931.6,171.7c5.7,9.1,10.9,18.5,15,28.5c0.5,1,0.8,2.4,1.2,3.5c1.9,5.1,4,9.9,5.7,15c1.3,4.2,2.2,8.3,3,12.6
				c1,5.1,1.9,10.1,2.9,15c0.2,0.8,0.7,1.3,0.8,1.7c-0.2,0.8-0.5,1.2-0.5,1.7c0.3,3.7,0.8,7.4,1,11.1c0.3,5.2,0.7,10.4,0.5,15.5
				c-0.2,5.7-0.8,11.3-1.2,17c-0.2,2.5,0.2,5.1-0.2,7.6c-0.3,2.2-1,4.2-1.9,6.1c-1.5,4.4-1.5,9.3-3.2,13.6
				c-2.2,5.9-3.7,11.8-5.7,17.9c-1.2,3.4-2.7,6.6-4.4,9.8c-2.5,5.6-5.2,11.3-8.1,16.5c-3.2,5.9-6.1,11.8-11.3,16.3
				c-0.3,0.3-0.7,0.8-0.8,1.3c-1,1.9-2,3.7-3.4,5.4c-4.5,5.6-9.4,10.9-14.1,16.3c-0.3,0.3-8.4,8.1-9.9,9.3
				c-5.6,3.9-10.3,8.8-16.2,12.3c-3.5,2.2-5.4,4.5-10.3,7.2c-61.3,30.7-112.9,30.2-170.3,9.3c-4.9-2.5-9.9-4.7-14.7-7.4
				c-3.4-2-6.7-4.2-10.3-6.6c-3.7-2.4-7.2-4.7-10.8-7.4c-3.2-2.4-6.1-4.9-9.3-7.6c-1.7-1.3-3.4-2.7-4.7-4.4
				c-1.2-1.3-2.9-2.5-4.2-3.9c-4-4.7-8.1-9.4-12.5-14.1c-3.2-3.5-13.6-18.9-15.5-22.6c-3.5-6.6-6.9-13.3-9.9-20
				c-3.9-8.3-7.2-16.8-8.8-25.9c-0.2-0.8-0.5-2-0.8-2.9c-1.2-5.4-2.5-10.8-3.4-16.3c-0.8-5.1-0.8-10.3-1.2-15.5
				c-0.3-5.1-0.8-10.1-0.8-15c0-4.7,0.7-9.4,1-14.1c1-11.3,3.2-22.2,6.4-33c2.7-9.3,6.2-18.2,10.3-26.8c2.7-5.9,5.4-11.5,8.9-17
				c2.5-4.2,5.2-8.4,8.1-12.6c1.5-2.4,3.9-4.4,5.4-6.7c2.7-4.4,6.2-7.9,9.8-11.6c2.7-2.9,5.6-5.9,8.3-8.6c2.2-2.2,4.4-4.4,6.7-6.4
				c2.5-2.4,5.6-4.4,8.3-6.4c2.5-2,5.2-4.2,7.7-6.1c2-1.5,4-2.9,6.1-4.2c2.7-1.9,5.6-3.7,8.4-5.1c4-2.2,8.1-3.9,12.3-5.9
				c3.5-1.7,7.1-3.9,10.9-4.9c0.8-0.2,1.5-0.3,2.2-0.5c8.1-3.4,16.5-6.1,25.3-7.6c6.1-1,12-2.9,18-3.5c7.6-0.8,15-0.7,22.6-1
				c6.1-0.3,12.1,0.3,18.2,0.8c10.1,0.8,19.9,2.9,29.6,5.4c9.9,2.5,19.7,6.4,29,10.8c7.2,3.4,14.3,7.1,20.7,11.5
				c4.5,3,9.3,6.1,13.6,9.4c7.9,6.1,15.2,12.8,22.1,19.9"/>
		</g>
	</g>
</g>
<g id="g27564-4-7_2_" transform="translate(5.5331932,54.69961)">
	<path id="rect1318-7-4-6-41-5-8_2_" class="st9" d="M744.2,123.2L744.2,123.2c5.5,0,10,7.2,10,16.1v79.8c0,8.9-4.5,16.1-10,16.1h0
		c-5.5,0-10-7.2-10-16.1v-79.8C734.3,130.5,738.7,123.2,744.2,123.2z"/>
	<g class="st1">
		<path class="st2" d="M752.8,171.8H749l-1.5-3.9h-6.9l-1.4,3.9h-3.7l6.7-17.3h3.7L752.8,171.8z M746.4,165l-2.4-6.4l-2.3,6.4H746.4
			z"/>
	</g>
</g>
<g>
	<g>
		<polygon class="st10" points="700.8,743.8 700.8,764.9 708.4,764.9 689.8,783.5 671.2,764.9 678.8,764.9 678.8,743.8 		"/>
	</g>
</g>
<g>
	<g>
		<polygon class="st10" points="700.8,1.8 700.8,22.9 708.4,22.9 689.8,41.5 671.2,22.9 678.8,22.9 678.8,1.8 		"/>
	</g>
</g>
</svg>
