<?xml version="1.0" encoding="UTF-8"?>
<svg id="Capa_1" xmlns="http://www.w3.org/2000/svg" xmlns:xlink="http://www.w3.org/1999/xlink" version="1.1" viewBox="0 0 344.2 471">
  <!-- Generator: Adobe Illustrator 29.3.1, SVG Export Plug-In . SVG Version: 2.1.0 Build 151)  -->
  <defs>
    <style>
      .st0 {
        fill: #373a47;
      }

      .st1 {
        stroke: #8fb5bc;
      }

      .st1, .st2 {
        fill: none;
      }

      .st1, .st2, .st3, .st4, .st5 {
        stroke-miterlimit: 10;
      }

      .st2, .st5 {
        stroke: #f60;
        stroke-width: .8px;
      }

      .st6 {
        isolation: isolate;
      }

      .st3, .st7, .st4 {
        stroke: #005372;
        stroke-width: .6px;
      }

      .st3, .st7, .st5 {
        fill: #fff;
      }

      .st7 {
        stroke-miterlimit: 10;
      }

      .st4, .st8 {
        fill: #ff2a2a;
      }

      .st9 {
        fill: #8fb5bc;
      }
    </style>
  </defs>
  <g id="Capa_11" data-name="Capa_1">
    <rect class="st1" x="74" y="391" width="200" height="45"/>
    <g>
      <circle class="st3" cx="251.5" cy="256.4" r="23"/>
      <circle class="st3" cx="138.1" cy="179" r="23"/>
      <circle class="st3" cx="85.6" cy="323.5" r="23"/>
      <circle class="st3" cx="172.5" cy="191.1" r="23"/>
      <circle class="st3" cx="44.8" cy="338.5" r="23"/>
      <circle class="st7" cx="203.7" cy="216.8" r="23"/>
      <circle class="st3" cx="126.8" cy="276.4" r="23"/>
      <circle class="st7" cx="219.8" cy="286" r="23"/>
      <circle class="st3" cx="171.4" cy="228.2" r="23"/>
      <circle class="st3" cx="165.2" cy="260.3" r="23"/>
      <circle class="st3" cx="128.6" cy="318.7" r="23"/>
      <circle class="st3" cx="185.7" cy="299.6" r="23"/>
      <circle class="st3" cx="150" cy="296.9" r="23"/>
      <circle class="st4" cx="257.4" cy="290.3" r="23"/>
    </g>
    <g>
      <rect class="st5" x="179" y="74" width="146" height="47"/>
      <line class="st2" x1="255" y1="258" x2="255" y2="121"/>
    </g>
    <polygon class="st0" points="265.9 .8 265.9 17.9 273.4 17.9 254.8 36.5 236.3 17.9 243.8 17.9 243.8 .8 265.9 .8"/>
  </g>
  <g class="st6">
    <path class="st9" d="M113.6,414.7c.8.7,1.1,1.6,1.1,3,0,1.9-.7,3.3-2.1,4.1s-3.3,1.2-5.8,1.2h-5.8v-18h5.1c2.5,0,4.5.4,5.8,1.1,1.3.7,2,1.9,2,3.5s-.3,1.9-.9,2.6c-.6.6-1.4,1.1-2.4,1.3,1.2.2,2.2.7,2.9,1.3ZM105.4,408v4.2h1.6c1.8,0,2.7-.7,2.7-2.2s-.2-1.2-.7-1.5c-.5-.3-1.3-.5-2.3-.5h-1.2ZM109.5,419.4c.6-.3.9-1,.9-1.9,0-1.7-1-2.5-3.1-2.5h-1.9v4.9h1.6c1.1,0,2-.2,2.6-.5Z"/>
    <path class="st9" d="M123.1,416.1h-1.7v6.9h-4.3v-18h5.9c2.5,0,4.3.5,5.6,1.4,1.2.9,1.9,2.3,1.9,4.1s-.3,2.1-.8,2.9-1.4,1.4-2.6,2l4.6,7.7h-4.8l-3.7-6.9ZM121.4,413.1h1.8c1,0,1.7-.2,2.1-.6.5-.4.7-1.1.7-2.1s-.3-1.5-.8-1.9-1.3-.6-2.4-.6h-1.5v5.2Z"/>
    <path class="st9" d="M142.7,423l-.9-3.9h-5.3l-.9,3.9h-4.4l5.4-18h5.2l5.4,18h-4.5ZM137.2,416h3.8l-1.9-8-1.9,8Z"/>
    <path class="st9" d="M148.5,423v-18h10.7l-.4,3h-6v4.8h5.3v3h-5.3v7.1h-4.3Z"/>
    <path class="st9" d="M178.7,406.4c1.3,1,2,2.5,2,4.4s-.6,3.6-1.9,4.6c-1.3,1-3,1.5-5.2,1.5h-1.9v6h-4.3v-18h5.8c2.4,0,4.2.5,5.5,1.5ZM175.5,413.2c.5-.5.8-1.3.8-2.4,0-1.9-1.1-2.8-3.2-2.8h-1.5v5.9h1.6c1,0,1.8-.2,2.3-.7Z"/>
    <path class="st9" d="M191.2,409l-.7,4c-.5-.1-.9-.2-1.2-.2-.8,0-1.4.3-1.9.8-.4.6-.8,1.4-1,2.5v6.8h-4.1v-13.8h3.6l.3,2.7c.3-1,.8-1.7,1.4-2.2s1.3-.8,2.1-.8,1,0,1.4.2Z"/>
    <path class="st9" d="M202.9,410.7c1.2,1.3,1.8,3.1,1.8,5.4s-.3,2.8-.8,3.9c-.5,1.1-1.3,2-2.3,2.6-1,.6-2.2.9-3.6.9-2.1,0-3.7-.6-5-1.9-1.2-1.3-1.8-3.1-1.8-5.4s.3-2.8.8-3.9,1.3-2,2.3-2.6c1-.6,2.2-.9,3.6-.9,2.1,0,3.8.6,5,1.9ZM196.1,412.8c-.4.7-.6,1.8-.6,3.3s.2,2.6.6,3.3c.4.7,1,1,1.9,1s1.5-.4,1.9-1.1.6-1.8.6-3.3-.2-2.6-.6-3.3-1-1-1.9-1-1.5.4-1.9,1.1Z"/>
    <path class="st9" d="M215.8,422.3c-.5.3-1.1.6-1.8.8-.7.2-1.3.3-2,.3-3,0-4.5-1.7-4.5-5v-6.4h-2v-2.9h2v-3l4.1-.5v3.5h3.2l-.4,2.9h-2.7v6.3c0,.6.1,1.1.3,1.4s.5.4,1,.4,1-.1,1.5-.4l1.4,2.6Z"/>
    <path class="st9" d="M228.7,417.3h-8.6c.1,1.2.5,2,1,2.4.5.5,1.2.7,2.2.7s1.1,0,1.6-.3c.5-.2,1.1-.5,1.7-.9l1.7,2.3c-1.6,1.3-3.4,1.9-5.4,1.9s-4-.7-5.1-2c-1.2-1.3-1.8-3.1-1.8-5.3s.3-2.7.8-3.8c.5-1.1,1.2-2,2.2-2.7,1-.7,2.1-1,3.5-1,2,0,3.6.6,4.7,1.9,1.1,1.2,1.7,3,1.7,5.2s0,1.1,0,1.5ZM224.7,414.6c0-2.1-.8-3.2-2.2-3.2s-1.3.3-1.7.8c-.4.5-.6,1.4-.7,2.6h4.6v-.2Z"/>
    <path class="st9" d="M234.9,402.5c.5.4.7,1,.7,1.7s-.2,1.2-.7,1.7c-.5.4-1,.7-1.8.7s-1.3-.2-1.7-.7c-.5-.4-.7-1-.7-1.7s.2-1.2.7-1.7c.5-.4,1-.7,1.7-.7s1.3.2,1.8.7ZM235.2,409.2v13.8h-4.1v-13.8h4.1Z"/>
    <path class="st9" d="M249.3,409.8c.7.7,1,1.8,1,3.1v10.1h-4.1v-9.4c0-.7-.1-1.2-.3-1.4-.2-.3-.5-.4-1-.4-.8,0-1.6.6-2.4,1.8v9.4h-4.1v-13.8h3.6l.3,1.6c.6-.7,1.2-1.2,1.9-1.6s1.5-.5,2.3-.5,2.1.4,2.8,1.1Z"/>
  </g>
  <g>
    <path class="st8" d="M209.8,98.3c.8.7,1.1,1.6,1.1,3,0,1.9-.7,3.3-2.1,4.1-1.4.8-3.3,1.2-5.8,1.2h-5.8v-18h5.1c2.5,0,4.5.4,5.8,1.1,1.3.7,2,1.9,2,3.5s-.3,1.9-.9,2.6-1.4,1.1-2.4,1.3c1.2.2,2.2.7,2.9,1.3ZM201.6,91.5v4.2h1.6c1.8,0,2.7-.7,2.7-2.2s-.2-1.2-.7-1.5-1.3-.5-2.3-.5h-1.2ZM205.7,102.9c.6-.3.9-1,.9-1.9,0-1.7-1-2.5-3.1-2.5h-1.9v4.9h1.6c1.1,0,2-.2,2.6-.5Z"/>
    <path class="st8" d="M219.3,99.6h-1.7v6.9h-4.3v-18h5.9c2.5,0,4.3.5,5.6,1.4,1.2.9,1.9,2.3,1.9,4.1s-.3,2.1-.8,2.9-1.4,1.4-2.6,2l4.6,7.7h-4.8l-3.7-6.9ZM217.6,96.6h1.8c1,0,1.7-.2,2.1-.6.5-.4.7-1.1.7-2.1s-.3-1.5-.8-1.9c-.5-.4-1.3-.6-2.4-.6h-1.5v5.2Z"/>
    <path class="st8" d="M238.9,106.5l-.9-3.9h-5.3l-.9,3.9h-4.4l5.4-18h5.2l5.4,18h-4.5ZM233.4,99.5h3.8l-1.9-8-1.9,8Z"/>
    <path class="st8" d="M244.7,106.5v-18h10.7l-.4,3h-6v4.8h5.3v3h-5.3v7.1h-4.3Z"/>
    <path class="st8" d="M277.4,90.2l-2.2,2.3c-.6-.5-1.2-.8-1.8-1.1-.5-.2-1.2-.3-1.9-.3-1.3,0-2.4.5-3.2,1.6-.8,1-1.2,2.6-1.2,4.8s.3,3.9.9,4.9c.6,1,1.6,1.4,2.8,1.4s1.7-.2,2.4-.6v-4.1h-2.3l-.4-3h6.9v8.9c-.9.6-2,1.1-3.1,1.4-1.1.3-2.3.5-3.4.5-2.7,0-4.8-.8-6.2-2.4-1.4-1.6-2.1-4-2.1-7.1s.4-3.7,1.1-5.1c.8-1.4,1.8-2.5,3.1-3.2,1.3-.7,2.8-1.1,4.4-1.1,2.3,0,4.3.7,6,2.2Z"/>
    <path class="st8" d="M292.2,100.8h-8.6c.1,1.2.5,2,1,2.4.5.5,1.2.7,2.2.7s1.1,0,1.6-.3c.5-.2,1.1-.5,1.7-.9l1.7,2.3c-1.6,1.3-3.4,1.9-5.4,1.9s-4-.7-5.1-2c-1.2-1.3-1.8-3.1-1.8-5.3s.3-2.7.8-3.8c.5-1.1,1.2-2,2.2-2.7s2.1-1,3.5-1c2,0,3.6.6,4.7,1.9s1.7,3,1.7,5.2,0,1.1,0,1.5ZM288.3,98.1c0-2.1-.8-3.2-2.2-3.2s-1.3.3-1.7.8c-.4.5-.6,1.4-.7,2.6h4.6v-.2Z"/>
    <path class="st8" d="M305.5,93.3c.7.7,1,1.8,1,3.1v10.1h-4.1v-9.4c0-.7-.1-1.2-.3-1.4-.2-.3-.5-.4-1-.4-.8,0-1.6.6-2.4,1.8v9.4h-4.1v-13.8h3.6l.3,1.6c.6-.7,1.2-1.2,1.9-1.6.7-.3,1.5-.5,2.3-.5s2.1.4,2.8,1.1Z"/>
  </g>
</svg>