<?xml version="1.0" encoding="UTF-8"?>
<svg id="Capa_1" xmlns="http://www.w3.org/2000/svg" xmlns:xlink="http://www.w3.org/1999/xlink" version="1.1" viewBox="0 0 1379.6 493.1">
  <!-- Generator: Adobe Illustrator 29.3.1, SVG Export Plug-In . SVG Version: 2.1.0 Build 151)  -->
  <defs>
    <style>
      .st0 {
        fill: #c0d9df;
      }

      .st1 {
        fill: #939393;
      }

      .st2 {
        fill: #679091;
      }

      .st3, .st4, .st5 {
        fill: #373a47;
      }

      .st6 {
        fill: #4d4d4d;
      }

      .st7 {
        fill: #e0eadf;
      }

      .st8 {
        fill: #005372;
      }

      .st9 {
        fill: #136f8c;
      }

      .st10 {
        fill: #dcdee0;
      }

      .st11 {
        fill: none;
        stroke: #afaaaa;
        stroke-miterlimit: 10;
      }

      .st12 {
        fill: #fff;
      }

      .st13 {
        fill: #83b1b5;
      }

      .st14 {
        opacity: .4;
      }

      .st15 {
        fill: #ff2a2a;
      }

      .st4 {
        font-family: FiraSans-Regular, 'Fira Sans';
      }

      .st4, .st5 {
        font-size: 24px;
        isolation: isolate;
      }

      .st16 {
        fill: #333;
      }

      .st17 {
        fill: #abafb2;
      }

      .st5 {
        font-family: FiraSans-Bold, 'Fira Sans';
        font-weight: 700;
      }

      .st18 {
        fill: #8fb5bc;
      }
    </style>
  </defs>
  <polygon class="st3" points="783.9 268 805 268 805 260.4 823.6 279 805 297.6 805 290 783.9 290 783.9 268"/>
  <polygon class="st3" points="332.8 .8 332.8 21.9 340.4 21.9 321.8 40.5 303.2 21.9 310.8 21.9 310.8 .8 332.8 .8"/>
  <g>
    <path class="st7" d="M1043,240.2c7.4-3.8,8.7-9.9,9.7-17,1.7-12.8,3.5-25.7,5.8-38.3,4.4-24.8,9.9-49.4,13.7-74.4,2-13,11.3-21.8,22.9-24,4.1-.8,8.5-2.4,12.2-4.6,5-2.9,8.8-6.9,9.3-13.5.6-7.2-4.1-11.5-7.9-15.9-4.7-5.5-5.2-11.9-3.9-17.7.8-3.3,1.5-6.6,1.7-10.1.7-10.5,8-17.8,18.8-18.5,12.3-.8,20.9,5,22.9,15.6.6,3.4-.8,7.9.8,10.3,3.5,5,2.3,10.1.7,14.4-1.9,5.1-5.6,9.2-8.6,13.6-3.4,5-3.3,11.3.4,16.2,4.8,6.5,11.6,9.2,19.2,10.5,11.5,2,21.8,10.9,22.1,22.8,0,3,.6,6.2,1.1,9.2,3.9,20.4,8,40.7,11.7,61.3,2.9,16.3,5.4,32.7,8,49.1.7,4.3,2.8,7,6.3,9.5,5.2,3.6,9.8,8,15.2,12.5-4.1,1.9-6.8,0-9.4-2.1-.8-.6-2.1-.5-3.2-.8-.3,1.1-.8,2.2-.6,3.2,1.4,4.7,2.9,9.2,4.4,13.8.7,2,1.2,4,1.8,5.9-.4.1-.8.3-1.2.5-4.4-3.5-4.1-9.8-8.4-13.7,1.4,5.9,2.8,11.7,4.1,17.6-.8.2-1.5.5-2.3.7-1.8-5.5-3.5-11-5.3-16.7-.3.1-.7.2-1,.3.8,5,1.4,9.9,2.2,14.9-.8.1-1.4.3-2.1.4-1.4-5.4-2.9-10.7-4.3-16-.3,0-.6.1-.8.2v12.4c-1-.6-1.4-.8-1.4-1-.3-.6-.7-1.1-.7-1.6-.8-10.1-6.5-19.3-4.7-29.8.3-1.4-.5-2.9-1-4.3-2-5.8-4.3-11.6-6.2-17.4-3.2-9.8-7.7-19.7-9-29.8-1.8-14-5.5-27.2-10.8-40.2-.7-1.5-1.5-3.2-2.3-4.7-.5.1-.8.2-1.4.3-.8,9.9-1.6,19.9-2.6,29.8-1.1,11.3.6,22.1,5.3,32.6,5.4,11.9,7.7,24.6,6.8,37.4-1.1,16.7-3.3,33.4-5.5,50-1.5,11.2-4,22.2-2.4,33.7.6,4.7-.2,9.4-.3,14.1,0,6.6-.6,13.4,0,19.9,2,21.7,1.4,43.2-3.8,64.4-3.2,13.4-2.9,25.7,5,37.5,2.1,3.2,3.2,7,4.3,10.6,1.1,3.3.8,6.6-3,8-3.3,1.1-6.9,1.5-9.9,3-3.9,2-6.5.5-8.1-2.5-1.6-2.9-2.6-6.1-3.5-9.3-1.1-3.6-2-7.3-2.9-11-.7-3-2.2-6.3-1.6-9.2,2.5-13.2,2.6-26.3,0-39.5-3.2-16.1-3.2-32.3-2-48.7.4-5.1.6-10.3,0-15.4-1.4-12.4-3.3-24.7-4.7-37.1-1.6-15.3-2.8-30.8-4.1-46.1-.2-2.4-.7-4.7-1.1-7-.4,0-.8.1-1.1.1-.3,1.2-.8,2.6-.8,3.8-1,11.6-1.8,23.2-2.8,34.7-1.1,12.4-1.6,25-3.6,37.3-1.9,11.3-3.3,22.6-2.3,34.1,1.4,14,.8,27.9-1.8,41.7-2.5,13.5-3.4,27.1-.5,40.7.6,2.6.3,5.6-.3,8.3-1.1,4.8-2.4,9.7-4.1,14.2-1.4,3.8-3.2,7.7-5.8,10.6-1,1.1-4.7-.1-7.1-.2-.6,0-1.1.5-1.7.4-6.6-1-13.4-4.8-9.5-13,2.8-5.8,5.1-11.9,8-17.6,2.9-5.9,3.4-12.1,2.1-18.5-5-23.7-7.7-47.5-5.8-71.8,1.1-12.8,0-25.8.2-38.8,0-4.1.8-8.3.4-12.3-2.2-18.2-4.3-36.4-7-54.5-2.8-18.5-1.5-36.5,6.1-53.6,4.7-10.3,5.5-20.6,4.8-31.4-.2-3.8-.5-7.7-.8-11.5-.7-6.1-1.4-12.1-2.1-18.2-1.6,1-2.3,1.9-2.6,2.9-5.3,13.4-9.7,26.8-11.3,41.3-1.1,10.1-5.8,20-9,29.8-2.5,7.6-5.9,14.9-7.6,22.5-2.1,9.2-2.8,18.8-4.1,28.1-.2,1.4-1.1,2.6-1.6,3.8-.4-.1-.8-.3-1.2-.4.3-4,.5-8,.7-11.9-.3,0-.7-.1-1.1-.1-1.4,5.3-2.8,10.7-4.1,16-.7-.1-1.4-.3-2.1-.4.8-5,1.4-9.9,2.2-14.9-.3,0-.7-.1-1-.1-1.8,5.5-3.6,11-5.4,16.7-.8-.2-1.4-.5-2.2-.7,1.4-5.9,2.8-11.9,4.1-17.8-4.7,3.6-3.6,10.6-9.4,13.4,0-1.8.6-3.3,1.1-5,1.6-5,3.3-9.8,4.7-14.6.3-1.1-.2-2.4-.4-3.6-1.1.4-2.5.5-3.4,1.1-2.6,1.8-5,3.6-8.9,2,5.3-3.6,8.8-8.2,13.7-10.9Z"/>
    <g>
      <path id="path882" class="st2" d="M1124.6,101.2c-.5-2.4-1.6-5.2-2.9-7.3-1.3-2.2-2.8-4-4.2-4.8-1.6-.8-3.2-.8-5.6.7s-5.6,4.2-8.3,7.8c-2.7,3.5-4.9,7.7-6.1,10.5-1.3,2.8-1.5,4-1.6,4.9s0,1.5-.7,4.7-2,8.9-2.7,12.7c-.8,4-.9,6-.9,7.3s.2,1.8,1.3,2.3c1,.6,3.1,1.2,5.4.9,2.2-.2,4.8-1.4,7.2-2.3,2.4-.9,4.9-1.6,6.8-2.1,2-.5,3.2-.8,4.9-2.4,1.6-1.7,3.6-5,4.9-9.5s2-10.5,2.3-14.6c.5-4.1.7-6.4.2-8.8h0Z"/>
      <path id="path882-7" class="st13" d="M1124.6,101.2c-.5-2.4-1.6-5.2-2.9-7.3-1.3-2.2-2.8-4-4.2-4.8-1.6-.8-3.2-.8-5.6.7s-5.6,4.2-8.3,7.8c-2.7,3.5-4.9,7.7-6.1,10.5-1.3,2.8-1.5,4-1.6,4.9s0,1.5,1.7,5.7c1.6,4.2,4.8,11.9,7.7,15.5,2.8,3.5,5.3,2.8,7.1,2.3,1.8-.5,3.2-.8,4.9-2.4,1.6-1.7,3.6-5,4.9-9.5s2-10.5,2.3-14.6c.3-4.2.6-6.4,0-8.8h0Z"/>
      <path id="path882-7-9" class="st0" d="M1124.6,101.2c-.5-2.4-1.6-5.2-2.9-7.3-1.3-2.2-2.8-4-4.2-4.8-1.6-.8-3.2-.8-5.6.7s-5.6,4.2-7.7,6.9c-2.2,2.6-3.4,4.9-4.4,6.5-.9,1.7-1.5,2.9-2,4.8-.5,2-1.1,4.4,3.1,7.7,4.2,3.1,13.1,6.6,17.8,5.6,4.8-1.2,5.4-7,5.8-11.1.3-4.4.6-6.6,0-9Z"/>
      <path id="path882-8" class="st13" d="M1131.1,101.2c.5-2.4,1.6-5.2,2.9-7.3,1.3-2.2,2.8-4,4.2-4.8,1.6-.8,3.2-.8,5.6.7s5.6,4.2,8.3,7.8c2.7,3.5,4.9,7.7,6.1,10.5,1.3,2.8,1.5,4,1.6,4.9s0,1.5.7,4.7,2,8.9,2.7,12.7c.8,4,.9,6,.9,7.3s-.2,1.8-1.3,2.3c-1.1.5-3.1,1.2-5.4.9-2.2-.2-4.8-1.4-7.2-2.3-2.4-.9-4.9-1.6-6.8-2.1-2-.5-3.2-.8-4.9-2.4-1.6-1.7-3.6-5-4.9-9.5s-2-10.5-2.3-14.6c-.5-4.1-.7-6.4-.2-8.8h0Z"/>
      <path id="path882-7-5" class="st0" d="M1131.1,101.2c.5-2.4,1.6-5.2,2.9-7.3,1.3-2.2,2.8-4,4.2-4.8,1.6-.8,3.2-.8,5.6.7s5.6,4.2,8.3,7.8c2.7,3.5,4.9,7.7,6,10.2,1.1,2.4,1.3,3.2,1.6,5.3.3,2.1.8,5.8-.9,11.9-1.8,6.1-6.1,14.4-8.4,13.3s-2.9-11.7-4.9-16.1c-2.1-4.4-5.8-2.8-8.1-2.9-2.2,0-3.1-1.8-4-4-.8-2.1-1.7-4.5-2.2-7-.6-2.5-.6-4.7,0-7.1h0Z"/>
      <path class="st12" d="M1138.9,102c-1.2,0-3.1.8-4.5.8s-2.6-.7-3.7-2h0c0-.2-.2-.3-.5-.5,0-.2-.2-.3-.3-.5.5,0,.8-.5.8-.9s-.5-.9-.9-.9h-.2v-.5h.2c.5,0,.9-.5.9-.9s-.5-.9-.9-.9h-.2v-.5h.2c.5,0,.9-.5.9-.9s-.5-.9-.9-.9h-.2v-.5h.2c.5,0,.9-.5.9-.9s-.5-.9-.9-.9h-.2v-.5h.2c.5,0,.9-.5.9-.9s-.5-.9-.9-.9h-.2v-.8h.2c.5,0,.9-.5.9-.9s-.5-.9-.9-.9h-.2v-.2h.2c.5,0,.9-.5.9-.9s-.5-.9-.9-.9h-.2.2c.5,0,.9-.5.9-.9s-.5-.9-.9-.9h-.2v-.4h.2c.5,0,.9-.5.9-.9s-.5-.9-.9-.9h-.2v-.5s0,0,0,0h-2.9s0,0,0,0v.5h0c-.5,0-.9.5-.9.9s.5.9.9.9h.2v.5h-.2c-.5,0-.9.5-.9.9s.5.9.9.9h.2v.5h-.2c-.5,0-.9.5-.9.9s.5.9.9.9h.2v.5h-.2c-.5,0-.9.5-.9.9s.5.9.9.9h.2v.5h-.2c-.5,0-.9.5-.9.9s.5.9.9.9h.2v.5h-.2c-.5,0-.9.5-.9.9s.5.9.9.9h.2v.5h-.2c-.5,0-.9.5-.9.9s.5.9.9.9h.2v.5h-.2c-.5,0-.9.5-.9.9s.5.9.9.9h.2v.5h-.2c-.5,0-.9.5-.9.9s.5.9.9.9h.2v.2l-.2.2c-.3,0-.7.2-.8.5h.3c-1.5,1.3-3.6,2.1-4.4,2.3-1.1.5-2.1.3-3.5.3s-2.9,0-2.9.3c0,.2,1.7.5,3.1.8s2.4.5,2.7,1.2c.3.7-.2,1.7-1.1,2.4-.8.7-2,.9-3.4,1.4-1.5.5-3.2.8-3.2,1.1s2,0,2.9.7,1.2,2,1.5,2.9c.2.8.5,1.1.7.5.2-.7,0-2.2.5-3.2.5-1.1,1.2-1.6,1.6-2s4.1-4,4.7-4.1c.5-.3,1.7-.9,2.7-1.1,1.1,0,2,.2,3.3,1.3,1.3,1.1,2.9,2.9,4.1,4s2,1.3,2.3,1.2c.5,0,.5-.7-.2-1.7-.7-1.1-2.1-2.7-2.3-3.6-.2-.9.9-1.2,2-1.5,1.2-.3,2.3-.8,2.8-1.2.4-1.2.2-1.5-1-1.3Z"/>
      <path class="st8" d="M1131.4,109.5c.2,6.2,9.2,10.5,13.5,6.6,2.3-2-.5-6.4-2.3-9.5-3.1-5.7-11.4-2.6-11.2,2.9Z"/>
    </g>
  </g>
  <g>
    <path class="st10" d="M1192.5,86.6l-15.4,15.4.2.2,15.4-15.4c.1,0,0,0-.2-.2h0Z"/>
    <path class="st17" d="M1192.5,86.6c0,0,.2.2.3.2.6.5,1.3.3,1.3.3l7.7-7.7-1-1-7,7-1.3,1.2h0Z"/>
    <polygon class="st10" points="1201.7 79.4 1206.8 84.5 1237.5 53.7 1232.5 48.7 1228.2 53 1232.3 57.1 1230.3 59 1230.3 59 1206.8 82.4 1202.8 78.4 1201.7 77.3 1200.7 78.4 1201.7 79.4"/>
    <polygon class="st9" points="1202.8 78.4 1206.8 82.4 1230.3 59 1225.2 53.9 1203.5 75.6 1201.7 77.3 1202.8 78.4"/>
    <polygon class="st6" points="1234.7 46.4 1253.9 27.3 1259.2 32.7 1261.1 30.7 1254.8 24.4 1254 25.2 1252.8 26.3 1233.7 45.5 1234.7 46.4"/>
    <polygon class="st6" points="1230.3 59 1230.3 59 1232.3 57.1 1228.2 53 1232.5 48.7 1231.5 47.6 1227.2 52 1225.8 53.2 1225.6 53.5 1225.2 53.9 1230.3 59"/>
    <polygon class="st17" points="1232.5 48.7 1237.5 53.7 1240.3 56.4 1242.4 54.3 1234.7 46.4 1233.7 45.5 1231.8 47.3 1231.5 47.6 1232.5 48.7"/>
    <path class="st17" d="M1192.2,86.3l-15.4,15.4.3.3,15.4-15.4c0-.1-.2-.2-.3-.3Z"/>
    <path class="st1" d="M1192.2,86.3c0,0,.2.2.3.3l1.2-1.2,7-7-1-1-7.7,7.7c0-.1-.2.5.2,1.2Z"/>
    <polygon class="st17" points="1199.6 77.3 1200.7 78.4 1201.7 77.3 1200.7 76.3 1196.6 72.3 1220 48.8 1220 48.8 1222 46.8 1226.1 50.8 1230.4 46.6 1225.3 41.5 1194.6 72.3 1199.6 77.3"/>
    <polygon class="st8" points="1200.7 76.3 1201.7 77.3 1203.5 75.6 1225.2 53.9 1220 48.8 1196.6 72.3 1200.7 76.3"/>
    <polygon class="st16" points="1251.8 25.2 1232.6 44.4 1233.7 45.5 1252.8 26.3 1254 25.2 1254.8 24.4 1248.4 18 1246.4 19.9 1251.8 25.2"/>
    <polygon class="st16" points="1220 48.8 1225.2 53.9 1225.6 53.5 1225.8 53.2 1227.2 52 1231.5 47.6 1230.4 46.6 1226.1 50.8 1222 46.8 1220 48.8"/>
    <polygon class="st1" points="1225.3 41.5 1230.4 46.6 1231.5 47.6 1231.8 47.3 1233.7 45.5 1232.6 44.4 1224.8 36.5 1222.6 38.8 1225.3 41.5"/>
    <g class="st14">
      <rect class="st12" x="1200.8" y="70.4" width=".6" height="6.2" transform="translate(299.8 870.8) rotate(-45)"/>
      <rect class="st12" x="1203.3" y="68" width=".6" height="6.2" transform="translate(302.2 871.9) rotate(-45)"/>
      <rect class="st12" x="1205.7" y="65.6" width=".6" height="6.2" transform="translate(304.6 872.9) rotate(-45)"/>
      <rect class="st12" x="1208.2" y="63.1" width=".6" height="6.2" transform="translate(307.1 873.9) rotate(-45)"/>
      <rect class="st12" x="1210.6" y="60.7" width=".6" height="6.2" transform="translate(309.5 874.9) rotate(-45)"/>
      <rect class="st12" x="1213.1" y="58.2" width=".6" height="6.2" transform="translate(312 876) rotate(-45)"/>
      <rect class="st12" x="1215.5" y="55.8" width=".6" height="6.2" transform="translate(314.4 876.9) rotate(-45)"/>
      <rect class="st12" x="1218" y="53.4" width=".6" height="6.2" transform="translate(316.9 878) rotate(-45)"/>
      <rect class="st12" x="1220.3" y="50.9" width=".6" height="6.2" transform="translate(319.3 878.9) rotate(-45)"/>
    </g>
  </g>
  <g>
    <text class="st4" transform="translate(126.4 341.9)"><tspan x="0" y="0">Gen</tspan></text>
    <text class="st4" transform="translate(126.4 381.9)"><tspan x="0" y="0">Canvi a la proteïna</tspan></text>
    <text class="st4" transform="translate(126.4 421.9)"><tspan x="0" y="0">Mutació</tspan></text>
    <text class="st4" transform="translate(126.4 461.9)"><tspan x="0" y="0">Tractament</tspan></text>
    <text class="st5" transform="translate(366.4 341.9)"><tspan x="0" y="0">BRAF</tspan></text>
    <text class="st5" transform="translate(366.4 381.9)"><tspan x="0" y="0">V600E</tspan></text>
    <text class="st5" transform="translate(366.4 421.9)"><tspan x="0" y="0">Impulsora</tspan></text>
    <text class="st5" transform="translate(366.4 461.9)"><tspan x="0" y="0">Vemurafenib</tspan></text>
    <rect class="st11" x="104" y="82.4" width="424.9" height="393.3"/>
    <line class="st11" x1="104" y1="311.5" x2="529.1" y2="311.5"/>
    <line class="st11" x1="104" y1="352.7" x2="529.1" y2="352.7"/>
    <line class="st11" x1="104" y1="393.7" x2="529.1" y2="393.7"/>
    <line class="st11" x1="104" y1="434.7" x2="529.1" y2="434.7"/>
    <g>
      <path class="st18" d="M336,199.5c7.7-5.2,15.3-11.8,21.5-21.6,10.4-16.5,15.2-39.2,15.2-71.5h-16.3c0,28.7-4.2,49.2-12.7,62.8-6.3,10-14.5,15.6-23.4,20.9-8.9-5.3-17-10.9-23.4-20.9-8.6-13.6-12.7-34.1-12.7-62.8h-16.2c0,32.2,4.8,55,15.2,71.5,6.2,9.8,13.9,16.4,21.5,21.6-7.9,5.2-15.5,11.7-21.8,21.6-10.2,16-14.9,38.1-14.9,69.3h16.3c0-27.6,4-47.5,12.4-60.6,6.3-9.9,14.6-15.5,23.6-20.9,9,5.3,17.3,10.9,23.6,20.9,8.4,13.1,12.4,33,12.4,60.6h16.3c0-31.3-4.8-53.3-14.9-69.3-6.2-9.9-13.8-16.3-21.7-21.6Z"/>
      <polygon class="st15" points="260.9 126.2 253.8 121.8 253.8 128.9 246.8 128.9 251 136 246.8 143 253.8 143 253.8 150.1 260.9 145.8 267.9 150.1 267.9 143 275 143 270.7 136 275 128.9 267.9 128.9 267.9 121.8 260.9 126.2"/>
    </g>
  </g>
</svg>