<?xml version="1.0" encoding="utf-8"?>
<!-- Generator: Adobe Illustrator 24.1.0, SVG Export Plug-In . SVG Version: 6.00 Build 0)  -->
<svg version="1.1" id="Capa_1" xmlns="http://www.w3.org/2000/svg" xmlns:xlink="http://www.w3.org/1999/xlink" x="0px" y="0px"
	 viewBox="0 0 289.4 135.7" style="enable-background:new 0 0 289.4 135.7;" xml:space="preserve">
<style type="text/css">
	.st0{fill:#777876;}
	.st1{fill:#F69B17;}
</style>
<g>
	<g>
		<path class="st0" d="M106.5,85.6c0,0.6-0.2,0.9-0.5,0.9c-0.9,0-2-0.1-3.4-0.2c-1.6-0.1-2.9-0.2-4-0.2s-2.4,0.1-3.9,0.2
			c-1.4,0.1-2.5,0.2-3.4,0.2c-0.4,0-0.5-0.3-0.5-0.9c0-0.6,0.2-0.8,0.5-0.9c1.9-0.2,3.1-0.7,3.6-1.4s0.8-2.1,0.8-4.2V66.9
			c0-1.8-0.2-2.9-0.7-3.5c-0.4-0.6-1.4-0.9-2.9-1.1c-0.4,0-0.5-0.3-0.5-0.9c0-0.5,0.2-0.8,0.5-0.8c2.3-0.6,4.2-1.2,5.6-1.9
			c1.5-0.7,2.4-1.2,2.7-1.7c0.2-0.3,0.5-0.4,0.7-0.4c0.6,0,0.9,0.2,0.9,0.5c-0.4,4.9-0.5,8.8-0.5,11.5V79c0,2.2,0.3,3.6,0.8,4.2
			s1.8,1.1,3.7,1.4C106.3,84.8,106.5,85.1,106.5,85.6z M101.9,45.6c0,0.9-0.3,1.7-1,2.4s-1.5,1-2.4,1s-1.7-0.3-2.4-1
			c-0.7-0.7-1-1.5-1-2.4c0-1,0.3-1.8,1-2.5s1.5-1,2.4-1s1.7,0.3,2.4,1S101.9,44.6,101.9,45.6z"/>
		<path class="st0" d="M133.1,85.8c0,0.4-0.1,0.7-0.4,0.7c-0.6,0-1.4,0-2.3-0.1c-1-0.1-1.9-0.1-2.7-0.1c-0.8,0-1.7,0-2.7,0.1
			c-0.9,0.1-1.7,0.1-2.3,0.1c-0.3,0-0.4-0.2-0.4-0.7c0-0.4,0.1-0.6,0.4-0.6c1.1-0.1,1.8-0.4,2.1-0.9s0.5-1.5,0.5-3.1v-8
			c0-1.8-0.3-3.1-1-3.9c-0.7-0.8-1.8-1.2-3.2-1.2c-0.9,0-1.7,0.2-2.4,0.5c-0.7,0.4-1.5,1-2.3,1.9v10.8c0,1.6,0.2,2.6,0.5,3.1
			s1.1,0.8,2.1,0.9c0.3,0,0.4,0.2,0.4,0.6c0,0.4-0.1,0.7-0.4,0.7c-0.6,0-1.4,0-2.4-0.1s-1.9-0.1-2.7-0.1c-0.8,0-1.6,0-2.7,0.1
			c-0.9,0.1-1.7,0.1-2.4,0.1c-0.3,0-0.4-0.2-0.4-0.7c0-0.4,0.1-0.6,0.4-0.6c1.4-0.2,2.2-0.5,2.6-1s0.6-1.5,0.6-3v-8.8
			c0-1.3-0.2-2.1-0.5-2.5s-1-0.7-2.2-0.8c-0.3,0-0.4-0.2-0.4-0.6c0-0.4,0.1-0.6,0.4-0.6c1.6-0.4,2.9-0.8,3.9-1.4
			c1-0.5,1.7-0.9,2-1.2c0.2-0.2,0.3-0.3,0.5-0.3c0.4,0,0.7,0.1,0.7,0.4l-0.2,3c2.3-2.1,4.4-3.2,6.3-3.2c2.1,0,3.8,0.6,5,1.9
			c1.2,1.2,1.8,2.9,1.8,5v9.1c0,1.6,0.2,2.6,0.6,3.1s1.3,0.8,2.6,1C133,85.1,133.1,85.4,133.1,85.8z"/>
		<path class="st0" d="M149.7,67.4c0,0.9-0.2,1.3-0.6,1.3l-7.1-0.2V80c0,3,1.1,4.5,3.2,4.5c1.3,0,2.5-0.3,3.6-0.9
			c0.1,0,0.2,0.1,0.3,0.3s0.2,0.3,0.2,0.5c0,0.4-0.6,0.9-1.8,1.6c-1.2,0.7-2.5,1-4,1c-1.8,0-3.2-0.6-4.3-1.7
			c-1.1-1.1-1.6-2.6-1.6-4.4v-0.2l0.1-11.6c0-0.4-0.2-0.7-0.6-0.7h-1.8c-0.3,0-0.5-0.2-0.5-0.6c0-0.3,0.1-0.5,0.4-0.7
			c2.2-1.3,4.1-3.2,5.7-5.5c0.2-0.3,0.4-0.4,0.7-0.4c0.4,0,0.7,0.1,0.7,0.4l-0.2,4.6h7C149.5,66.1,149.7,66.5,149.7,67.4z"/>
		<path class="st0" d="M187.4,70.9c0,4.9-1.6,8.9-4.7,12.1c-3.2,3.2-7.2,4.7-12.2,4.7s-9.1-1.6-12.3-4.7c-3.2-3.2-4.7-7.2-4.7-12
			c0-4.9,1.6-9,4.8-12.3s7.3-4.9,12.2-4.9c5,0,9.1,1.6,12.2,4.9C185.8,61.8,187.4,65.9,187.4,70.9z M180,70.8
			c0-4.5-0.9-8.1-2.6-10.8c-1.7-2.7-4.1-4-7.1-4s-5.3,1.4-7,4c-1.7,2.7-2.6,6.3-2.6,10.7s0.8,8,2.6,10.6c1.7,2.6,4.1,3.9,7.1,3.9
			s5.4-1.3,7.1-3.9C179.2,78.9,180,75.3,180,70.8z"/>
		<path class="st0" d="M226.5,57.8c0,1.4-0.3,2.1-1,2.1l-4.9-0.2c0.6,1.5,0.8,3,0.8,4.5c0,3.7-1.3,6.8-4,9.3s-6,3.7-9.9,3.7H206
			c-2,0-3.6,0.3-4.8,0.8s-1.8,1.2-1.8,1.9c0,0.9,0.5,1.6,1.5,2.2c1,0.6,2.4,0.9,4.2,0.9l8.9,0.1c3.8,0.1,6.8,0.9,8.9,2.4
			c2.1,1.5,3.2,3.7,3.2,6.5c0,4.2-2.2,7.8-6.7,10.9c-4.5,3.1-9.8,4.7-15.9,4.7c-4,0-7.4-1-10.2-3s-4.1-4.4-4.1-7.2
			c0-1.9,0.9-3.8,2.6-5.6c1.7-1.8,3.8-3.1,6.2-4c-1.6-0.7-2.9-1.7-3.9-3.1c-1-1.3-1.5-2.7-1.5-4c0-0.9,0.9-1.9,2.8-3
			c1.9-1.1,3.8-1.8,5.8-2.1c-2.2-1.1-3.9-2.5-5.1-4.3c-1.2-1.8-1.8-3.8-1.8-6c0-3.6,1.4-6.7,4.1-9.3c2.7-2.7,5.9-4,9.7-4
			c2,0,3.9,0.3,5.9,1c1.9,0.7,3.5,1.6,4.8,2.8l6.9-0.2C226.2,55.7,226.5,56.4,226.5,57.8z M221.3,94.9c0-1.8-0.6-3-1.7-3.8
			c-1.2-0.8-3.1-1.2-5.8-1.2l-8.9-0.2c-1.8,0-3.3-0.3-4.7-0.8c-3.1,1.7-4.7,4-4.7,6.8c0,2.5,1.1,4.6,3.2,6.2
			c2.1,1.6,4.8,2.4,8.1,2.4c3.9,0,7.3-0.9,10.2-2.7C219.8,99.7,221.3,97.5,221.3,94.9z M214.3,64.1c0-3.3-0.5-5.7-1.5-7.3
			c-1-1.5-2.6-2.3-4.8-2.3c-4.2,0-6.3,3.6-6.3,10.8c0,3.3,0.5,5.6,1.5,7.1s2.6,2.2,4.9,2.2C212.2,74.7,214.3,71.2,214.3,64.1z"/>
		<path class="st0" d="M246.5,72.8c0,0.4-0.3,0.7-0.9,0.7h-13c-0.1,0.9-0.1,1.8-0.1,2.7c0,2.6,0.6,4.5,1.8,5.9s2.9,2.1,5.2,2.1
			c1.1,0,2.2-0.3,3.4-0.9c1.1-0.6,2.1-1.4,2.7-2.3h0.1c0.1,0,0.3,0.1,0.4,0.3c0.1,0.2,0.2,0.4,0.2,0.6c0,0.3-0.5,1-1.5,2.1
			s-2.1,1.9-3.3,2.4s-2.4,0.8-3.7,0.8c-2.8,0-5.2-1.1-7.2-3.2c-1.9-2.1-2.9-4.7-2.9-7.8s1-5.8,2.9-7.9c1.9-2.2,4.3-3.3,7.2-3.3
			c2.4,0,4.5,0.8,6.2,2.4S246.5,70.9,246.5,72.8z M242.2,70.7c0-1.2-0.4-2.2-1.2-3s-1.9-1.2-3.1-1.2c-1.2,0-2.3,0.5-3.2,1.5
			s-1.5,2.4-1.8,4.1l6.6-0.2c1,0,1.7-0.1,2.1-0.3C241.9,71.5,242.2,71.2,242.2,70.7z"/>
		<path class="st0" d="M273.9,85.8c0,0.4-0.1,0.7-0.4,0.7c-0.6,0-1.4,0-2.3-0.1c-1-0.1-1.9-0.1-2.7-0.1s-1.7,0-2.7,0.1
			c-0.9,0.1-1.7,0.1-2.3,0.1c-0.3,0-0.4-0.2-0.4-0.7c0-0.4,0.1-0.6,0.4-0.6c1.1-0.1,1.8-0.4,2.1-0.9s0.5-1.5,0.5-3.1v-8
			c0-1.8-0.3-3.1-1-3.9c-0.7-0.8-1.8-1.2-3.2-1.2c-0.9,0-1.7,0.2-2.4,0.5c-0.7,0.4-1.5,1-2.3,1.9v10.8c0,1.6,0.2,2.6,0.5,3.1
			s1.1,0.8,2.1,0.9c0.3,0,0.4,0.2,0.4,0.6c0,0.4-0.1,0.7-0.4,0.7c-0.6,0-1.4,0-2.4-0.1s-1.9-0.1-2.7-0.1s-1.6,0-2.7,0.1
			c-0.9,0.1-1.7,0.1-2.4,0.1c-0.3,0-0.4-0.2-0.4-0.7c0-0.4,0.1-0.6,0.4-0.6c1.4-0.2,2.2-0.5,2.6-1c0.4-0.5,0.6-1.5,0.6-3v-8.8
			c0-1.3-0.2-2.1-0.5-2.5s-1-0.7-2.2-0.8c-0.3,0-0.4-0.2-0.4-0.6c0-0.4,0.1-0.6,0.4-0.6c1.6-0.4,2.9-0.8,3.9-1.4
			c1-0.5,1.7-0.9,2-1.2c0.2-0.2,0.3-0.3,0.5-0.3c0.4,0,0.7,0.1,0.7,0.4l-0.2,3c2.3-2.1,4.4-3.2,6.3-3.2c2.1,0,3.8,0.6,5,1.9
			c1.2,1.2,1.8,2.9,1.8,5v9.1c0,1.6,0.2,2.6,0.6,3.1c0.4,0.5,1.3,0.8,2.6,1C273.8,85.1,273.9,85.4,273.9,85.8z"/>
	</g>
	<g>
		<path class="st1" d="M71.8,64.2c-4.5,4.3-9.6,6.3-15.4,6s-11-2.8-15.5-7.6c-4.6-4.8-6.8-10.1-6.8-15.9s2.3-10.8,6.8-15.1
			c4.5-4.3,9.8-6.4,15.7-6.2c5.9,0.2,11.2,2.7,15.7,7.4c4.6,4.8,6.8,10.1,6.6,16C78.7,54.7,76.4,59.8,71.8,64.2z M65.2,57
			c4.1-3.9,6.7-7.9,7.6-11.9s0-7.4-2.7-10.3c-2.7-2.8-6.1-3.9-10.2-3.2c-4.1,0.7-8.1,3-12.3,6.9c-4.1,3.9-6.6,7.8-7.4,11.7
			c-0.9,3.9,0.1,7.3,2.8,10.2c2.8,2.9,6.1,4,10,3.4C57,63.3,61,61,65.2,57z"/>
		<path class="st1" d="M53.4,17c0,1.2-0.4,2.3-1.3,3.2c-0.9,0.9-2,1.4-3.2,1.4c-1.3,0-2.3-0.5-3.2-1.4c-0.9-0.9-1.3-2-1.3-3.2
			c0-1.3,0.4-2.4,1.3-3.3s2-1.3,3.3-1.3s2.3,0.4,3.2,1.3C52.9,14.6,53.4,15.7,53.4,17z"/>
		<path class="st1" d="M46.8,120.7c-1.7-1.2-3.1-2.7-4.2-4.4c-2.6-4.1-3.2-8.6-1.8-13.4c1.4-4.8,4.4-8.6,9-11.5l1.8-1.1
			c2.4-1.5,4.1-3,5.1-4.5s1.3-2.7,0.8-3.5c-0.6-1-1.7-1.5-3.3-1.4c-1.6,0.1-3.4,0.8-5.6,2.1l-10.5,6.5c-4.6,2.8-8.6,4.1-12.2,4
			s-6.4-1.7-8.3-4.8c-3-4.7-2.9-10.4,0.2-17.2s8.3-12.6,15.5-17.2c4.8-3,9.5-4.5,14.1-4.3c4.7,0.1,8,1.8,10,4.9
			c1.3,2.1,1.6,4.8,0.8,8.2c-0.8,3.3-2.3,6.4-4.5,9.1c2.4-0.4,4.6-0.2,6.7,0.5S64,74.5,65,76c0.7,1,0.3,2.8-1.2,5.4
			c-1.5,2.6-3.3,4.8-5.4,6.7c3.4-0.4,6.4-0.1,9.1,1s4.9,2.9,6.4,5.3c2.5,4,3.1,8.4,1.8,13.4c-1.3,5-4.2,8.9-8.6,11.7
			c-2.3,1.5-4.9,2.6-7.7,3.2c-2.8,0.7-5.3,0.8-7.6,0.4L46.8,120.7z M21.2,81.9c1.3,2,2.8,3,4.8,2.9c1.9,0,4.5-1,7.8-3l10.6-6.4
			c2.1-1.3,4.1-2.2,6.1-2.6c2.5-4.3,2.7-7.9,0.7-11.1c-1.8-2.8-4.5-4.3-8.1-4.5s-7.4,1-11.2,3.4c-4.6,2.9-8,6.5-10.2,10.7
			C19.5,75.5,19.3,79,21.2,81.9z M51.1,111.1c2.3,3.7,4.6,6,6.9,7s4.7,0.6,7.3-1c5-3.2,4.9-8.8-0.2-16.8c-2.3-3.6-4.6-5.9-6.8-6.8
			c-2.2-0.9-4.6-0.5-7.3,1.2C46.1,97.7,46.1,103.2,51.1,111.1z"/>
	</g>
</g>
</svg>
