<?xml version="1.0" encoding="UTF-8"?>
<svg id="Capa_1" xmlns="http://www.w3.org/2000/svg" xmlns:xlink="http://www.w3.org/1999/xlink" version="1.1" viewBox="0 0 721 979">
  <!-- Generator: Adobe Illustrator 29.3.1, SVG Export Plug-In . SVG Version: 2.1.0 Build 151)  -->
  <defs>
    <style>
      .st0 {
        stroke: #8fb5bc;
      }

      .st0, .st1 {
        stroke-miterlimit: 10;
      }

      .st0, .st2 {
        fill: #f4f9f9;
      }

      .st3 {
        opacity: .2;
      }

      .st3, .st4 {
        fill: #8fb5bc;
      }

      .st3, .st4, .st5, .st1, .st6 {
        isolation: isolate;
      }

      .st4, .st5 {
        opacity: .1;
      }

      .st5 {
        fill: #cad8d8;
      }

      .st1 {
        fill: #fff;
        opacity: .8;
        stroke: #000;
      }

      .st7 {
        fill: #dfe8e8;
      }

      .st8 {
        fill: #7f9337;
      }

      .st9 {
        opacity: .5;
      }

      .st10 {
        fill: #032836;
      }

      .st11 {
        fill: #7d46d3;
      }
    </style>
  </defs>
  <path class="st1" d="M210.9,406.3v30.4c0,3.6,1.5,6.9,4,8.9l8.1,6.5c5.4,4.3,5.4,5.5,0,9.9l-8.1,6.5c-2.5,2-4,5.4-4,8.9v33c0,6-1.2,7.9-6.5,7.9H9.1c-5.2,0-6.5-1.9-6.5-7.9v-104.1c0-6,1.2-7.9,6.5-7.9h195.3c5.3,0,6.5,1.9,6.5,7.9Z"/>
  <path class="st1" d="M413.1,280.2v30.4c0,3.6-1.5,6.9-4,8.9l-8.1,6.5c-5.4,4.3-5.4,5.5,0,9.9l8.1,6.5c2.5,2,4,5.4,4,8.9v33c0,6,1.2,7.9,6.5,7.9h195.3c5.2,0,6.5-1.9,6.5-7.9v-104.1c0-6-1.2-7.9-6.5-7.9h-195.3c-5.2,0-6.5,1.9-6.5,7.9Z"/>
  <g id="Capa_11" data-name="Capa_1">
    <g id="Capa_9">
      <g>
        <g class="st9">
          <path class="st0" d="M271.6,301.8c11.3.4,24.9,1.6,32.8,10.6,1.7,2.3,1.6,4.7,1.6,7.4-.2,5,.4,10.1-.3,15.1-1,3.5-4.3,6-7.3,7.6-.4.3-.7.7-.7,1.2v154.5c-.6,40.6-51.7,40.7-52.3,0v-154.5c0-.5-.3-1-.7-1.2-4-2.1-8.1-5.6-7.6-10.5v-11.1c0-2.5-.4-5.1.9-7.4,7.4-10.1,22.1-11.2,33.6-11.7"/>
          <path class="st3" d="M296.5,317c.4,11.6-49.8,11.6-49.4,0-.4-11.6,49.8-11.6,49.4,0Z"/>
        </g>
        <g>
          <path class="st4" d="M249.6,415.1v.2c-.1,0,0-.1,0-.2h0Z"/>
          <path class="st7" d="M249.6,415.3v85.7c0,12.4,10,22.4,22.4,22.4s22.1-9.9,22-22.2v-85c-2.4,8.3-44.9,8.1-44.4-.9Z"/>
        </g>
        <path class="st2" d="M294.1,415.3c.4,9.2-45,9.2-44.5,0-.6-9.2,44.9-9.2,44.5,0Z"/>
      </g>
    </g>
  </g>
  <g id="Capa_12" data-name="Capa_1">
    <g id="Capa_91" data-name="Capa_9">
      <g>
        <g class="st9">
          <path class="st0" d="M350.6,275.5c11.3.4,24.9,1.6,32.8,10.6,1.7,2.3,1.6,4.7,1.6,7.4-.2,5,.4,10.1-.3,15.1-1,3.5-4.3,6-7.3,7.6-.4.3-.7.7-.7,1.2v154.5c-.6,40.6-51.7,40.7-52.3,0v-154.5c0-.5-.3-1-.7-1.2-4-2.1-8.1-5.6-7.6-10.5v-11.1c0-2.5-.4-5.1.9-7.4,7.5-10.2,22.1-11.2,33.6-11.7"/>
          <path class="st3" d="M375.6,290.7c.4,11.6-49.8,11.6-49.4,0-.5-11.6,49.7-11.6,49.4,0Z"/>
        </g>
        <g>
          <path class="st5" d="M328.6,388.8v.2-.2h0Z"/>
          <path class="st7" d="M328.6,389v85.7c0,12.4,10,22.4,22.4,22.4s22.1-9.9,22-22.2v-85c-2.4,8.3-44.9,8.1-44.4-.9Z"/>
        </g>
        <path class="st2" d="M373.1,389c.4,9.2-45,9.2-44.5,0-.5-9.2,45-9.2,44.5,0Z"/>
      </g>
    </g>
  </g>
  <path class="st11" d="M259,354.6v27c9.2,4.1,28.9,4.2,38.7.4v-27c-9.9,3.8-29.6,3.7-38.7-.4Z"/>
  <path class="st8" d="M377.1,328.5c-9.7,4-30,4-39.2-.3v27c9.2,4.2,29.5,4.3,39.2.3v-27Z"/>
  <g class="st6">
    <path class="st10" d="M448.7,327.1h-4l-.3-6.8c0-1.6-.1-3.1-.1-4.3s0-1.9,0-2.8l-2.7,12h-3.9l-2.8-12c0,1.4.2,2.8.2,4.1s0,2,0,3l-.3,6.7h-4l1.3-17.3h5.2l2.6,11.8,2.4-11.8h5.2l1.3,17.3Z"/>
    <path class="st10" d="M462.3,327.1h-3.4l-.2-1.7c-1,1.4-2.3,2.1-4,2.1s-2.1-.4-2.8-1.1-.9-1.8-.9-3.1v-9.5h4v9c0,.7.1,1.1.3,1.4.2.3.5.4,1,.4.8,0,1.5-.5,2.1-1.5v-9.2h4v13.3Z"/>
    <path class="st10" d="M473.7,326.5c-.5.3-1,.6-1.7.8-.6.2-1.3.3-1.9.3-2.9,0-4.4-1.6-4.4-4.8v-6.2h-1.9v-2.8h1.9v-2.9l4-.4v3.3h3l-.4,2.8h-2.6v6.1c0,.6.1,1.1.3,1.3.2.3.5.4,1,.4s.9-.1,1.4-.4l1.3,2.5Z"/>
    <path class="st10" d="M485.5,324.4c.1.2.4.4.7.5l-.8,2.6c-.8,0-1.5-.2-2-.5s-.9-.8-1.2-1.4c-.9,1.3-2.2,2-4,2s-2.4-.4-3.2-1.1c-.8-.8-1.2-1.8-1.2-3s.5-2.6,1.6-3.3,2.6-1.2,4.6-1.2h1.4v-.6c0-.8-.2-1.3-.5-1.6-.3-.3-.9-.4-1.8-.4s-1,0-1.6.2c-.6.1-1.2.3-1.9.5l-.9-2.6c.8-.3,1.7-.6,2.6-.7.9-.2,1.7-.2,2.4-.2,1.9,0,3.3.4,4.2,1.2.9.8,1.3,2,1.3,3.5v5.2c0,.5,0,.9.2,1.1ZM481.4,323.4v-2.4h-1c-.9,0-1.6.2-2,.5s-.7.8-.7,1.5.1.9.4,1.2c.3.3.7.4,1.1.4.9,0,1.6-.4,2.1-1.3Z"/>
    <path class="st10" d="M496.6,313.8c.7.3,1.4.7,2.1,1.2l-1.7,2.4c-.8-.6-1.7-1-2.5-1s-1.5.3-2,1c-.5.7-.7,1.7-.7,3.2s.2,2.4.7,3c.5.6,1.1.9,2,.9s.9,0,1.2-.2c.4-.1.8-.4,1.3-.7l1.7,2.4c-1.3,1.1-2.8,1.6-4.5,1.6s-2.5-.3-3.5-.9-1.7-1.4-2.3-2.4-.8-2.3-.8-3.7.3-2.6.8-3.7c.5-1.1,1.3-1.9,2.3-2.5s2.1-.9,3.4-.9,1.7.1,2.5.4Z"/>
    <path class="st10" d="M504,307.5c.4.4.7,1,.7,1.6s-.2,1.2-.7,1.6c-.4.4-1,.6-1.7.6s-1.2-.2-1.7-.6c-.4-.4-.7-1-.7-1.6s.2-1.2.7-1.6,1-.6,1.7-.6,1.2.2,1.7.6ZM504.3,313.8v13.3h-4v-13.3h4Z"/>
    <path class="st10" d="M518,315.3c1.2,1.2,1.7,3,1.7,5.2s-.3,2.7-.8,3.7-1.3,1.9-2.2,2.5-2.1.9-3.5.9c-2,0-3.6-.6-4.8-1.9-1.2-1.2-1.7-3-1.7-5.2s.3-2.7.8-3.7c.5-1.1,1.3-1.9,2.2-2.5,1-.6,2.1-.9,3.5-.9,2,0,3.6.6,4.8,1.9ZM511.4,317.3c-.4.7-.6,1.7-.6,3.1s.2,2.5.6,3.2c.4.7,1,1,1.8,1s1.4-.3,1.8-1c.4-.7.6-1.7.6-3.1s-.2-2.5-.6-3.2-1-1-1.8-1-1.4.3-1.8,1Z"/>
    <path class="st10" d="M532.5,314.5c.7.7,1,1.7,1,3v9.7h-4v-9c0-.7-.1-1.1-.3-1.4-.2-.3-.5-.4-.9-.4-.8,0-1.6.6-2.3,1.7v9.1h-4v-13.3h3.5l.3,1.6c.6-.7,1.2-1.2,1.8-1.5.7-.3,1.4-.5,2.2-.5s2,.4,2.7,1Z"/>
    <path class="st10" d="M548,321.6h-8.2c.1,1.1.4,1.9.9,2.3s1.2.7,2.1.7,1,0,1.5-.3,1-.5,1.6-.9l1.6,2.2c-1.5,1.2-3.3,1.8-5.2,1.8s-3.8-.6-5-1.9c-1.1-1.3-1.7-3-1.7-5.1s.2-2.6.7-3.6c.5-1.1,1.2-1.9,2.1-2.5s2.1-.9,3.4-.9c1.9,0,3.4.6,4.5,1.8,1.1,1.2,1.6,2.9,1.6,5s0,1,0,1.4ZM544.2,319.1c0-2-.8-3-2.2-3s-1.2.2-1.6.8-.6,1.3-.7,2.5h4.4v-.2Z"/>
    <path class="st10" d="M557.6,313.8c.8.3,1.6.7,2.2,1.2l-1.5,2.2c-1.1-.7-2.2-1-3.3-1s-.9,0-1.2.3c-.3.2-.4.4-.4.7s0,.5.2.6c.1.2.4.3.8.5.4.2,1,.4,1.8.6,1.4.4,2.4.9,3.1,1.6.7.6,1,1.5,1,2.7s-.3,1.7-.8,2.3c-.5.7-1.2,1.2-2.1,1.5-.9.3-1.9.5-3,.5s-2.2-.2-3.1-.5c-1-.4-1.8-.8-2.4-1.5l1.9-2.2c1.1.9,2.3,1.3,3.5,1.3s1.1-.1,1.4-.3c.3-.2.5-.5.5-.9s0-.6-.2-.8c-.1-.2-.4-.4-.8-.5-.4-.2-1-.4-1.8-.6-1.3-.4-2.3-.9-3-1.6-.6-.7-1-1.5-1-2.6s.2-1.5.7-2.1c.4-.6,1.1-1.1,1.9-1.4s1.8-.5,2.9-.5,1.8.1,2.7.4Z"/>
    <path class="st10" d="M580.2,308.6v18.5h-3.5l-.2-1.5c-.9,1.3-2.2,2-3.8,2s-2.9-.6-3.8-1.9-1.3-3-1.3-5.2.2-2.6.7-3.6c.4-1.1,1.1-1.9,1.9-2.5.8-.6,1.8-.9,2.8-.9s2.3.4,3.1,1.2v-6.5l4,.4ZM576.2,323.1v-5.7c-.3-.4-.6-.7-1-.8-.3-.2-.7-.3-1.1-.3-.7,0-1.3.3-1.8,1s-.6,1.7-.6,3.1.2,2.6.6,3.2c.4.6.9.9,1.6.9s1.7-.5,2.3-1.5Z"/>
    <path class="st10" d="M594.8,321.6h-8.2c.1,1.1.4,1.9.9,2.3s1.2.7,2.1.7,1,0,1.5-.3,1-.5,1.6-.9l1.6,2.2c-1.5,1.2-3.3,1.8-5.2,1.8s-3.8-.6-5-1.9c-1.1-1.3-1.7-3-1.7-5.1s.2-2.6.7-3.6c.5-1.1,1.2-1.9,2.1-2.5s2.1-.9,3.4-.9c1.9,0,3.4.6,4.5,1.8,1.1,1.2,1.6,2.9,1.6,5s0,1,0,1.4ZM591,319.1c0-2-.8-3-2.2-3s-1.2.2-1.6.8-.6,1.3-.7,2.5h4.4v-.2Z"/>
    <path class="st10" d="M597.9,326.6c-.6-.7-1-1.6-1-2.8v-15.2l4-.4v15.4c0,.6.2.8.7.8s.5,0,.7-.1l.8,2.8c-.7.3-1.5.5-2.4.5s-2-.3-2.7-1Z"/>
  </g>
  <g class="st6">
    <path class="st10" d="M470.2,345.3c.8,1.2,1.2,3,1.2,5.2s-.2,2.6-.6,3.7c-.4,1.1-1,1.9-1.8,2.5s-1.7.9-2.8.9-2.4-.5-3.2-1.4v6.1l-4,.4v-18.8h3.5l.2,1.5c.5-.7,1.1-1.1,1.8-1.4s1.4-.5,2-.5c1.7,0,2.9.6,3.7,1.9ZM467.4,350.5c0-1.6-.2-2.7-.5-3.3-.3-.6-.9-.9-1.6-.9s-.9.1-1.3.4c-.4.3-.7.7-1,1.2v5.6c.5.8,1.2,1.2,2,1.2,1.6,0,2.4-1.4,2.4-4.2Z"/>
    <path class="st10" d="M484.5,354.4c.1.2.4.4.7.5l-.8,2.6c-.8,0-1.5-.2-2-.5s-.9-.8-1.2-1.4c-.9,1.3-2.2,2-4,2s-2.4-.4-3.2-1.1c-.8-.8-1.2-1.8-1.2-3s.5-2.6,1.6-3.3,2.6-1.2,4.6-1.2h1.4v-.6c0-.8-.2-1.3-.5-1.6-.3-.3-.9-.4-1.8-.4s-1,0-1.6.2c-.6.1-1.2.3-1.9.5l-.9-2.6c.8-.3,1.7-.6,2.6-.7.9-.2,1.7-.2,2.4-.2,1.9,0,3.3.4,4.2,1.2.9.8,1.3,2,1.3,3.5v5.2c0,.5,0,.9.2,1.1ZM480.4,353.4v-2.4h-1c-.9,0-1.6.2-2,.5s-.7.8-.7,1.5.1.9.4,1.2c.3.3.7.4,1.1.4.9,0,1.6-.4,2.1-1.3Z"/>
    <path class="st10" d="M495.6,343.8c.7.3,1.4.7,2.1,1.2l-1.7,2.4c-.8-.6-1.7-1-2.5-1s-1.5.3-2,1c-.5.7-.7,1.7-.7,3.2s.2,2.4.7,3c.5.6,1.1.9,2,.9s.9,0,1.2-.2c.4-.1.8-.4,1.3-.7l1.7,2.4c-1.3,1.1-2.8,1.6-4.5,1.6s-2.5-.3-3.5-.9-1.7-1.4-2.3-2.4-.8-2.3-.8-3.7.3-2.6.8-3.7c.5-1.1,1.3-1.9,2.3-2.5s2.1-.9,3.4-.9,1.7.1,2.5.4Z"/>
    <path class="st10" d="M503,337.5c.4.4.7,1,.7,1.6s-.2,1.2-.7,1.6c-.4.4-1,.6-1.7.6s-1.2-.2-1.7-.6c-.4-.4-.7-1-.7-1.6s.2-1.2.7-1.6c.4-.4,1-.6,1.7-.6s1.2.2,1.7.6ZM503.3,343.8v13.3h-4v-13.3h4Z"/>
    <path class="st10" d="M517.9,351.6h-8.2c.1,1.1.4,1.9.9,2.3s1.2.7,2.1.7,1,0,1.5-.3,1-.5,1.6-.9l1.6,2.2c-1.5,1.2-3.3,1.8-5.2,1.8s-3.8-.6-5-1.9c-1.1-1.3-1.7-3-1.7-5.1s.2-2.6.7-3.6c.5-1.1,1.2-1.9,2.1-2.5s2.1-.9,3.4-.9c1.9,0,3.4.6,4.5,1.8,1.1,1.2,1.6,2.9,1.6,5s0,1,0,1.4ZM514.1,349.1c0-2-.8-3-2.2-3s-1.2.2-1.6.8-.6,1.3-.7,2.5h4.4v-.2Z"/>
    <path class="st10" d="M530.7,344.5c.7.7,1,1.7,1,3v9.7h-4v-9c0-.7-.1-1.1-.3-1.4-.2-.3-.5-.4-.9-.4-.8,0-1.6.6-2.3,1.7v9.1h-4v-13.3h3.5l.3,1.6c.6-.7,1.2-1.2,1.8-1.5.7-.3,1.4-.5,2.2-.5s2,.4,2.7,1Z"/>
    <path class="st10" d="M543,356.5c-.5.3-1,.6-1.7.8-.6.2-1.3.3-1.9.3-2.9,0-4.3-1.6-4.3-4.8v-6.2h-1.9v-2.8h1.9v-2.9l4-.4v3.3h3l-.4,2.8h-2.6v6.1c0,.6,0,1.1.3,1.3s.5.4,1,.4.9-.1,1.4-.4l1.3,2.5Z"/>
    <path class="st10" d="M555.3,351.6h-8.2c.1,1.1.4,1.9.9,2.3s1.2.7,2.1.7,1,0,1.5-.3,1-.5,1.6-.9l1.6,2.2c-1.5,1.2-3.3,1.8-5.2,1.8s-3.8-.6-5-1.9c-1.1-1.3-1.7-3-1.7-5.1s.2-2.6.7-3.6c.5-1.1,1.2-1.9,2.1-2.5s2.1-.9,3.4-.9c1.9,0,3.4.6,4.5,1.8,1.1,1.2,1.6,2.9,1.6,5s0,1,0,1.4ZM551.5,349.1c0-2-.8-3-2.2-3s-1.2.2-1.6.8-.6,1.3-.7,2.5h4.4v-.2Z"/>
    <path class="st10" d="M571.1,340.5c.9.4,1.5,1,2,1.8.5.7.7,1.5.7,2.4s-.2,1.8-.5,2.6-1,1.8-2,2.8-2.3,2.4-4.1,4h6.9l-.4,3h-11v-2.8c2-2,3.5-3.5,4.5-4.6.9-1,1.6-1.9,2-2.6s.6-1.4.6-2.1-.2-1.2-.6-1.6c-.4-.4-.9-.6-1.6-.6s-1.1.1-1.6.4c-.5.3-1,.7-1.5,1.3l-2.3-1.9c.7-.9,1.5-1.6,2.5-2.1,1-.5,2.1-.8,3.3-.8s2.3.2,3.1.7Z"/>
  </g>
  <g class="st6">
    <path class="st10" d="M39.6,451.5h-4l-.3-6.8c0-1.6-.1-3.1-.1-4.3s0-1.9,0-2.8l-2.7,12h-3.9l-2.9-12c.1,1.4.2,2.8.2,4.1s0,2,0,3l-.3,6.7h-4l1.3-17.3h5.2l2.6,11.8,2.4-11.8h5.2l1.3,17.3Z"/>
    <path class="st10" d="M53.2,451.5h-3.4l-.2-1.7c-1,1.4-2.3,2.1-4,2.1s-2.1-.4-2.8-1.1-.9-1.8-.9-3.1v-9.5h4v9c0,.7.1,1.1.3,1.4.2.3.5.4,1,.4.8,0,1.6-.5,2.1-1.5v-9.2h4v13.3Z"/>
    <path class="st10" d="M64.6,450.9c-.5.3-1,.6-1.7.8-.6.2-1.3.3-1.9.3-2.9,0-4.4-1.6-4.4-4.8v-6.2h-1.9v-2.8h1.9v-2.9l4-.4v3.3h3l-.4,2.8h-2.6v6.1c0,.6.1,1.1.3,1.3.2.3.5.4,1,.4s.9-.1,1.4-.4l1.3,2.5Z"/>
    <path class="st10" d="M76.4,448.8c.1.2.4.4.7.5l-.8,2.6c-.8,0-1.5-.2-2-.5s-.9-.8-1.2-1.4c-.9,1.3-2.2,2-4,2s-2.4-.4-3.1-1.1c-.8-.8-1.2-1.8-1.2-3s.5-2.6,1.6-3.3c1.1-.8,2.6-1.2,4.6-1.2h1.4v-.6c0-.8-.2-1.3-.5-1.6-.3-.3-.9-.4-1.8-.4s-1,0-1.6.2-1.2.3-1.9.5l-.9-2.6c.8-.3,1.7-.6,2.6-.7.9-.2,1.7-.2,2.4-.2,1.9,0,3.3.4,4.2,1.2.9.8,1.3,2,1.3,3.5v5.2c0,.5,0,.9.2,1.1ZM72.3,447.9v-2.4h-1c-.9,0-1.6.2-2,.5s-.7.8-.7,1.5.1.9.4,1.2c.3.3.7.4,1.1.4.9,0,1.6-.4,2.1-1.3Z"/>
    <path class="st10" d="M87.6,438.2c.7.3,1.4.7,2.1,1.2l-1.7,2.4c-.8-.6-1.7-1-2.5-1s-1.5.3-2,1c-.5.7-.7,1.7-.7,3.2s.2,2.4.7,3c.5.6,1.1.9,2,.9s.9,0,1.2-.2.8-.4,1.3-.7l1.7,2.4c-1.3,1.1-2.8,1.6-4.5,1.6s-2.5-.3-3.5-.9-1.7-1.4-2.3-2.4c-.5-1-.8-2.3-.8-3.7s.3-2.6.8-3.7c.5-1.1,1.3-1.9,2.3-2.5s2.1-.9,3.4-.9,1.7.1,2.5.4Z"/>
    <path class="st10" d="M95,431.9c.4.4.7,1,.7,1.6s-.2,1.2-.7,1.6c-.4.4-1,.6-1.7.6s-1.2-.2-1.7-.6c-.4-.4-.7-1-.7-1.6s.2-1.2.7-1.6c.4-.4,1-.6,1.7-.6s1.2.2,1.7.6ZM95.3,438.3v13.3h-4v-13.3h4Z"/>
    <path class="st10" d="M108.9,439.7c1.1,1.2,1.7,3,1.7,5.2s-.3,2.7-.8,3.7c-.5,1.1-1.3,1.9-2.2,2.5-1,.6-2.1.9-3.5.9-2,0-3.6-.6-4.8-1.9-1.2-1.2-1.7-3-1.7-5.2s.3-2.7.8-3.7,1.3-1.9,2.2-2.5c1-.6,2.1-.9,3.5-.9,2,0,3.6.6,4.8,1.9ZM102.3,441.8c-.4.7-.6,1.7-.6,3.1s.2,2.5.6,3.2c.4.7,1,1,1.8,1s1.4-.3,1.8-1,.6-1.7.6-3.1-.2-2.5-.6-3.2-1-1-1.8-1-1.4.3-1.8,1Z"/>
    <path class="st10" d="M123.5,438.9c.6.7,1,1.7,1,3v9.7h-4v-9c0-.7-.1-1.1-.3-1.4-.2-.3-.5-.4-.9-.4-.8,0-1.6.6-2.3,1.7v9.1h-4v-13.3h3.5l.3,1.6c.6-.7,1.2-1.2,1.8-1.5.7-.3,1.4-.5,2.2-.5s2,.4,2.7,1Z"/>
    <path class="st10" d="M138.9,446.1h-8.2c.1,1.1.4,1.9.9,2.3s1.2.7,2.1.7,1,0,1.5-.3,1-.5,1.6-.9l1.6,2.2c-1.5,1.2-3.3,1.8-5.2,1.8s-3.8-.6-5-1.9-1.7-3-1.7-5.1.2-2.6.7-3.6c.5-1.1,1.2-1.9,2.1-2.5.9-.6,2.1-.9,3.4-.9,1.9,0,3.4.6,4.5,1.8,1.1,1.2,1.6,2.9,1.6,5s0,1,0,1.4ZM135.1,443.5c0-2-.8-3-2.1-3s-1.2.2-1.6.8-.6,1.3-.7,2.5h4.4v-.2Z"/>
    <path class="st10" d="M148.6,438.3c.8.3,1.6.7,2.2,1.2l-1.5,2.2c-1.1-.7-2.2-1-3.3-1s-.9,0-1.2.3-.4.4-.4.7,0,.5.2.6c.1.2.4.3.8.5.4.2,1,.4,1.8.6,1.4.4,2.4.9,3.1,1.6.7.6,1,1.5,1,2.7s-.3,1.7-.8,2.3c-.5.7-1.2,1.2-2.1,1.5-.9.3-1.9.5-3,.5s-2.2-.2-3.1-.5c-1-.4-1.8-.8-2.4-1.5l1.9-2.2c1.1.9,2.3,1.3,3.5,1.3s1.1-.1,1.4-.3c.3-.2.5-.5.5-.9s0-.6-.2-.8c-.1-.2-.4-.4-.8-.5s-1-.4-1.8-.6c-1.3-.4-2.3-.9-3-1.6s-1-1.5-1-2.6.2-1.5.7-2.1c.4-.6,1.1-1.1,1.9-1.4.8-.4,1.8-.5,2.9-.5s1.8.1,2.7.4Z"/>
    <path class="st10" d="M171.1,433v18.5h-3.5l-.2-1.5c-.9,1.3-2.2,2-3.8,2s-2.9-.6-3.8-1.9-1.3-3-1.3-5.2.2-2.6.7-3.6c.4-1.1,1.1-1.9,1.9-2.5.8-.6,1.8-.9,2.8-.9s2.3.4,3.1,1.2v-6.5l4,.4ZM167.1,447.6v-5.7c-.3-.4-.6-.7-1-.8-.3-.2-.7-.3-1.1-.3-.7,0-1.3.3-1.8,1s-.6,1.7-.6,3.1.2,2.6.6,3.2c.4.6.9.9,1.6.9s1.7-.5,2.3-1.5Z"/>
    <path class="st10" d="M185.7,446.1h-8.2c.1,1.1.4,1.9.9,2.3s1.2.7,2.1.7,1,0,1.5-.3,1-.5,1.6-.9l1.6,2.2c-1.5,1.2-3.3,1.8-5.2,1.8s-3.8-.6-5-1.9-1.7-3-1.7-5.1.2-2.6.7-3.6c.5-1.1,1.2-1.9,2.1-2.5.9-.6,2.1-.9,3.4-.9,1.9,0,3.4.6,4.5,1.8,1.1,1.2,1.6,2.9,1.6,5s0,1,0,1.4ZM181.9,443.5c0-2-.8-3-2.1-3s-1.2.2-1.6.8-.6,1.3-.7,2.5h4.4v-.2Z"/>
    <path class="st10" d="M188.8,451c-.6-.7-1-1.6-1-2.8v-15.2l4-.4v15.4c0,.6.2.8.7.8s.5,0,.7-.1l.8,2.8c-.7.3-1.5.5-2.4.5s-2-.3-2.7-1Z"/>
  </g>
  <g class="st6">
    <path class="st10" d="M61.2,469.7c.8,1.2,1.2,3,1.2,5.2s-.2,2.6-.6,3.7c-.4,1.1-1,1.9-1.8,2.5-.8.6-1.7.9-2.8.9s-2.4-.5-3.2-1.4v6.1l-4,.4v-18.8h3.5l.2,1.5c.5-.7,1.1-1.1,1.8-1.4.7-.3,1.4-.5,2-.5,1.7,0,2.9.6,3.7,1.9ZM58.3,474.9c0-1.6-.2-2.7-.5-3.3s-.9-.9-1.6-.9-.9.1-1.3.4c-.4.3-.7.7-1,1.2v5.6c.5.8,1.2,1.2,2,1.2,1.6,0,2.4-1.4,2.4-4.2Z"/>
    <path class="st10" d="M75.4,478.8c.1.2.4.4.7.5l-.8,2.6c-.8,0-1.5-.2-2-.5s-.9-.8-1.2-1.4c-.9,1.3-2.2,2-4,2s-2.4-.4-3.1-1.1c-.8-.8-1.2-1.8-1.2-3s.5-2.6,1.6-3.3c1.1-.8,2.6-1.2,4.6-1.2h1.4v-.6c0-.8-.2-1.3-.5-1.6-.3-.3-.9-.4-1.8-.4s-1,0-1.6.2-1.2.3-1.9.5l-.9-2.6c.8-.3,1.7-.6,2.6-.7.9-.2,1.7-.2,2.4-.2,1.9,0,3.3.4,4.2,1.2.9.8,1.3,2,1.3,3.5v5.2c0,.5,0,.9.2,1.1ZM71.3,477.9v-2.4h-1c-.9,0-1.6.2-2,.5s-.7.8-.7,1.5.1.9.4,1.2c.3.3.7.4,1.1.4.9,0,1.6-.4,2.1-1.3Z"/>
    <path class="st10" d="M86.6,468.2c.7.3,1.4.7,2.1,1.2l-1.7,2.4c-.8-.6-1.7-1-2.5-1s-1.5.3-2,1c-.5.7-.7,1.7-.7,3.2s.2,2.4.7,3c.5.6,1.1.9,2,.9s.9,0,1.2-.2.8-.4,1.3-.7l1.7,2.4c-1.3,1.1-2.8,1.6-4.5,1.6s-2.5-.3-3.5-.9-1.7-1.4-2.3-2.4c-.5-1-.8-2.3-.8-3.7s.3-2.6.8-3.7c.5-1.1,1.3-1.9,2.3-2.5s2.1-.9,3.4-.9,1.7.1,2.5.4Z"/>
    <path class="st10" d="M93.9,461.9c.4.4.7,1,.7,1.6s-.2,1.2-.7,1.6c-.4.4-1,.6-1.7.6s-1.2-.2-1.7-.6c-.4-.4-.7-1-.7-1.6s.2-1.2.7-1.6c.4-.4,1-.6,1.7-.6s1.2.2,1.7.6ZM94.3,468.3v13.3h-4v-13.3h4Z"/>
    <path class="st10" d="M108.9,476.1h-8.2c.1,1.1.4,1.9.9,2.3s1.2.7,2.1.7,1,0,1.5-.3,1-.5,1.6-.9l1.6,2.2c-1.5,1.2-3.3,1.8-5.2,1.8s-3.8-.6-5-1.9-1.7-3-1.7-5.1.2-2.6.7-3.6c.5-1.1,1.2-1.9,2.1-2.5.9-.6,2.1-.9,3.4-.9,1.9,0,3.4.6,4.5,1.8,1.1,1.2,1.6,2.9,1.6,5s0,1,0,1.4ZM105.1,473.5c0-2-.8-3-2.1-3s-1.2.2-1.6.8-.6,1.3-.7,2.5h4.4v-.2Z"/>
    <path class="st10" d="M121.6,468.9c.6.7,1,1.7,1,3v9.7h-4v-9c0-.7-.1-1.1-.3-1.4-.2-.3-.5-.4-.9-.4-.8,0-1.6.6-2.3,1.7v9.1h-4v-13.3h3.5l.3,1.6c.6-.7,1.2-1.2,1.8-1.5.7-.3,1.4-.5,2.2-.5s2,.4,2.7,1Z"/>
    <path class="st10" d="M133.9,480.9c-.5.3-1,.6-1.7.8-.6.2-1.3.3-1.9.3-2.9,0-4.4-1.6-4.4-4.8v-6.2h-1.9v-2.8h1.9v-2.9l4-.4v3.3h3l-.4,2.8h-2.6v6.1c0,.6.1,1.1.3,1.3.2.3.5.4,1,.4s.9-.1,1.4-.4l1.3,2.5Z"/>
    <path class="st10" d="M146.3,476.1h-8.2c.1,1.1.4,1.9.9,2.3s1.2.7,2.1.7,1,0,1.5-.3,1-.5,1.6-.9l1.6,2.2c-1.5,1.2-3.3,1.8-5.2,1.8s-3.8-.6-5-1.9-1.7-3-1.7-5.1.2-2.6.7-3.6c.5-1.1,1.2-1.9,2.1-2.5.9-.6,2.1-.9,3.4-.9,1.9,0,3.4.6,4.5,1.8,1.1,1.2,1.6,2.9,1.6,5s0,1,0,1.4ZM142.5,473.5c0-2-.8-3-2.1-3s-1.2.2-1.6.8-.6,1.3-.7,2.5h4.4v-.2Z"/>
    <path class="st10" d="M162.5,464.6v16.9h-3.9v-13l-3.6,2.2-1.7-2.6,5.7-3.5h3.5Z"/>
  </g>
</svg>