<?xml version="1.0" encoding="utf-8"?>
<!-- Generator: Adobe Illustrator 24.1.0, SVG Export Plug-In . SVG Version: 6.00 Build 0)  -->
<svg version="1.1" id="Capa_1" xmlns="http://www.w3.org/2000/svg" xmlns:xlink="http://www.w3.org/1999/xlink" x="0px" y="0px"
	 viewBox="0 0 425 365" style="enable-background:new 0 0 425 365;" xml:space="preserve">
<style type="text/css">
	.st0{fill:#E0EADF;}
	.st1{fill:#C0D9DF;}
	.st2{fill:#FFFFFF;}
</style>
<g>
	<g>
		<path id="path882_13_" class="st0" d="M194,130.2c-2.6-14.2-9-29.6-16.3-42.2c-7.3-12.6-15.7-22.6-24.6-27.3
			c-9-4.9-18.6-4.4-32.4,3.9s-32.2,24.6-47.5,44.9s-27.9,44.5-34.9,60.2s-8.6,22.7-9.1,28c-0.4,5.3,0.1,8.7-3.3,26.9
			c-3.6,18-11.1,50.6-15.4,73.2S5.2,332,5.2,339.6s1,10.4,7,13.6c6.1,3.1,17.9,6.7,30.9,5.3s27.3-7.9,41.6-13.1
			c14.2-5.3,28.3-9.4,39.2-12.1s18.6-4,28-13.9c9.4-9.9,20.6-28.4,28-54.6s10.9-60,13.3-83.6C195.3,157.5,196.6,144.4,194,130.2
			L194,130.2z"/>
		<path id="path882-7_13_" class="st1" d="M194,130.2c-2.6-14.2-9-29.6-16.3-42.2c-7.3-12.6-15.7-22.6-24.6-27.3
			c-9-4.9-18.6-4.4-32.4,3.9s-32.2,24.6-47.5,44.9s-27.9,44.5-34.9,60.2s-8.6,22.7-9.1,28c-0.4,5.3,0.1,8.7,9.6,32.9
			s27.6,68.9,43.7,89.2c16.2,20.3,30.2,16.2,41,13.4s18.6-4,28-13.9c9.4-9.9,20.6-28.4,28-54.6c7.3-26.2,10.9-60,13.3-83.6
			C195.3,157.5,196.6,144.4,194,130.2L194,130.2z"/>
		<path id="path882-7-9_13_" class="st0" d="M194,130.2c-2.6-14.2-9-29.6-16.3-42.2c-7.3-12.6-15.7-22.6-24.6-27.3
			c-9-4.9-18.6-4.4-32.4,3.9s-32.2,24.6-44.7,39.3s-19.7,28-24.9,37.9c-5.3,9.9-8.6,16.4-11.9,27.3c-3.3,10.9-6.1,25.9,17.9,43.7
			s75.2,38.7,102.5,32.2c27.3-6.6,30.9-40.4,33.2-63.9C195.3,157.5,196.6,144.4,194,130.2z"/>
		<path id="path882-8_13_" class="st1" d="M231,130.2c2.6-14.2,9-29.6,16.3-42.2s15.7-22.6,24.6-27.3c9-4.9,18.6-4.4,32.4,3.9
			c13.9,8.3,32.2,24.6,47.5,44.9c15.3,20.3,27.7,44.6,34.9,60.2c7.1,15.6,8.6,22.7,9.1,28c0.4,5.3-0.1,8.7,3.3,26.9
			c3.6,18,11.1,50.6,15.4,73.2s5.3,34.3,5.3,41.9s-1,10.4-7,13.6c-6.1,3.1-17.9,6.7-30.9,5.3s-27.3-7.9-41.6-13.1
			c-14.2-5.3-28.3-9.4-39.2-12.1s-18.6-4-28-13.9c-9.4-9.9-20.6-28.4-28-54.6c-7.3-26.2-10.9-60-13.3-83.6
			C229.7,157.7,228.4,144.5,231,130.2L231,130.2z"/>
		<path id="path882-7-5_13_" class="st0" d="M231,130.2c2.6-14.2,9-29.6,16.3-42.2s15.7-22.6,24.6-27.3c9-4.9,18.6-4.4,32.4,3.9
			c13.9,8.3,32.2,24.6,47.5,44.9c15.3,20.3,27.7,44.6,34.4,58.7c6.6,14.2,7.4,18,9.3,30.6c2,12.6,5,33.6-5.4,68.2
			s-34.6,82.8-48,76.3c-13.4-6.4-16.2-67.2-28.2-92.9c-12-25.7-33.2-16.2-46.2-16.4c-12.9-0.3-17.6-10.4-22.3-22.7
			c-4.7-12.1-9.6-26.4-12.7-40C229.7,157.7,228.4,144.5,231,130.2L231,130.2z"/>
		<path class="st2" d="M276.3,135.2c-6.4,0.9-18,4.3-26.3,4c-5.1-0.1-14.6-3.4-21.3-11h0.3c-0.4-1-1.3-1.9-2.3-2.4
			c-0.7-1-1.4-2-2-3.1c2.6-0.3,4.7-2.6,4.7-5.3c0-2.9-2.4-5.3-5.3-5.3h-1v-2.4h1c3,0,5.3-2.4,5.3-5.3S227,99,224.1,99h-1v-2.4h1
			c3,0,5.3-2.4,5.3-5.3S227,86,224.1,86h-1v-2.4h1c3,0,5.3-2.4,5.3-5.3S227,73,224.1,73h-1v-2.4h1c3,0,5.3-2.4,5.3-5.3
			S227,60,224.1,60h-1v-2.4h1c3,0,5.3-2.4,5.3-5.3c0-3-2.4-5.3-5.3-5.3h-1v-2.4h1c3,0,5.3-2.4,5.3-5.3c0-3-2.4-5.3-5.3-5.3h-1v-2.4
			h1c3,0,5.3-2.4,5.3-5.3S227,21,224.1,21h-1v-2.4h1c3,0,5.3-2.4,5.3-5.3S227,8,224.1,8h-1V5.3c0-0.1-0.1-0.3-0.3-0.3h-16.4
			c-0.1,0-0.3,0.1-0.3,0.3V8h-1c-2.9,0-5.3,2.4-5.3,5.3c0,3,2.4,5.3,5.3,5.3h1V21h-1c-2.9,0-5.3,2.4-5.3,5.3c0,3,2.4,5.3,5.3,5.3h1
			V34h-1c-2.9,0-5.3,2.4-5.3,5.3s2.4,5.3,5.3,5.3h1V47h-1c-2.9,0-5.3,2.4-5.3,5.3s2.4,5.3,5.3,5.3h1V60h-1c-2.9,0-5.3,2.4-5.3,5.3
			c0,3,2.4,5.3,5.3,5.3h1V73h-1c-2.9,0-5.3,2.4-5.3,5.3c0,3,2.4,5.3,5.3,5.3h1V86h-1c-2.9,0-5.3,2.4-5.3,5.3c0,3,2.4,5.3,5.3,5.3h1
			V99h-1c-2.9,0-5.3,2.4-5.3,5.3c0,3,2.4,5.3,5.3,5.3h1v2.4h-1c-2.9,0-5.3,2.4-5.3,5.3c0,3,2.4,5.3,5.3,5.3h1v1.1
			c-0.3,0.4-0.7,0.9-1.1,1.3c-2.1,0-3.9,1.3-4.7,3.1h1.7c-8.3,7.6-20.7,12-25,13.6c-6.1,2.1-12.4,2-19.9,2
			c-7.4,0.1-16.7,0.6-16.4,1.7s9.9,2.9,17.6,4.4c7.9,1.6,13.9,2.9,15.4,6.7c1.6,3.7-1.4,10-6.1,13.9c-4.7,3.9-11.6,5.4-19.7,7.7
			c-8.1,2.3-18.4,5.1-18.2,6.1s11,0.1,16.9,3.7c5.7,3.6,6.9,11.6,8.4,16.3c1.6,4.7,3.3,6.3,4,2.7c0.7-3.7,0.3-12.6,2.4-18.6
			s6.9-9.1,9.3-10.7c2.4-1.6,23.4-22.3,26.6-24c3.1-1.7,9.4-5.3,15.3-6.1c5.9-0.7,11.3,1.3,18.7,7.3c7.4,6.1,17,16.3,23.7,22.3
			c6.7,5.9,10.9,7.4,13.1,6.7c2.3-0.7,2.7-3.6-1.3-9.7c-4-6.1-12.3-15.4-13.3-20.9c-1-5.3,5.3-6.7,11.9-8.7c6.6-2,13.3-4.7,16-6.7
			C284,135.9,282.8,134.4,276.3,135.2z"/>
	</g>
</g>
</svg>
