<?xml version="1.0" encoding="UTF-8" standalone="no"?>
<!-- Generator: Adobe Illustrator 24.1.0, SVG Export Plug-In . SVG Version: 6.00 Build 0)  -->

<svg
   version="1.1"
   id="Capa_1"
   x="0px"
   y="0px"
   viewBox="0 0 233.7731 215.43987"
   xml:space="preserve"
   sodipodi:docname="treatment1.svg"
   inkscape:version="1.2.2 (b0a8486, 2022-12-01)"
   width="233.7731"
   height="215.43987"
   xmlns:inkscape="http://www.inkscape.org/namespaces/inkscape"
   xmlns:sodipodi="http://sodipodi.sourceforge.net/DTD/sodipodi-0.dtd"
   xmlns="http://www.w3.org/2000/svg"
   xmlns:svg="http://www.w3.org/2000/svg"><defs
   id="defs5876" /><sodipodi:namedview
   id="namedview5874"
   pagecolor="#ffffff"
   bordercolor="#000000"
   borderopacity="0.25"
   inkscape:showpageshadow="2"
   inkscape:pageopacity="0.0"
   inkscape:pagecheckerboard="0"
   inkscape:deskcolor="#d1d1d1"
   showgrid="false"
   inkscape:zoom="2.3301511"
   inkscape:cx="113.51195"
   inkscape:cy="134.96979"
   inkscape:window-width="1866"
   inkscape:window-height="1016"
   inkscape:window-x="0"
   inkscape:window-y="0"
   inkscape:window-maximized="1"
   inkscape:current-layer="Capa_1" />
<style
   type="text/css"
   id="style5502">
	.st0{fill:#E0EADF;}
	.st1{fill:#679091;}
	.st2{fill:#83B1B5;}
	.st3{fill:#C0D9DF;}
	.st4{fill:#FFFFFF;}
	.st5{fill:#CC9933;}
	.st6{fill:#FA7F43;}
	.st7{fill:#005372;}
	.st8{fill:none;stroke:#005372;stroke-miterlimit:10;}
	.st9{fill:none;stroke:#FA7F43;stroke-miterlimit:10;}
	.st10{fill:none;stroke:#CC9933;stroke-miterlimit:10;}
	.st11{fill:#DCDEE0;}
	.st12{fill:#ABAFB2;}
	.st13{fill:#136F8C;}
	.st14{fill:#4D4D4D;}
	.st15{fill:#939393;}
	.st16{fill:#333333;}
	.st17{opacity:0.4;}
	.st18{fill:#CCCC66;}
	.st19{fill:#B2AF34;}
	.st20{fill:#E55D28;}
</style>










<g
   id="g5771"
   transform="matrix(1.5,0,0,1.5,-1230.7282,-18.373717)">
	<path
   class="st11"
   d="m 870.2,104.7 -15.4,15.4 0.2,0.2 15.4,-15.4 c 0.1,-0.1 0,-0.1 -0.2,-0.2 z"
   id="path5723" />
	<path
   class="st12"
   d="m 870.2,104.7 c 0.1,0.1 0.2,0.2 0.3,0.2 0.6,0.5 1.3,0.3 1.3,0.3 l 7.7,-7.7 -1,-1 -7,7 z"
   id="path5725" />
	<polygon
   class="st11"
   points="910,75.2 908,77.1 908,77.1 884.5,100.5 880.5,96.5 879.4,95.4 878.4,96.5 879.4,97.5 884.5,102.6 915.2,71.8 910.2,66.8 905.9,71.1 "
   id="polygon5727" />
	<polygon
   class="st13"
   points="879.4,95.4 880.5,96.5 884.5,100.5 908,77.1 902.9,72 881.2,93.7 "
   id="polygon5729" />
	<polygon
   class="st14"
   points="931.7,43.3 930.5,44.4 911.4,63.6 912.4,64.5 931.6,45.4 936.9,50.8 938.8,48.8 932.5,42.5 "
   id="polygon5731" />
	<polygon
   class="st14"
   points="909.2,65.7 904.9,70.1 903.5,71.3 903.3,71.6 902.9,72 908,77.1 910,75.2 905.9,71.1 910.2,66.8 "
   id="polygon5733" />
	<polygon
   class="st12"
   points="911.4,63.6 909.5,65.4 909.2,65.7 910.2,66.8 915.2,71.8 918,74.5 920.1,72.4 912.4,64.5 "
   id="polygon5735" />
	<path
   class="st12"
   d="m 869.9,104.4 -15.4,15.4 0.3,0.3 15.4,-15.4 c -0.1,-0.1 -0.2,-0.2 -0.3,-0.3 z"
   id="path5737" />
	<path
   class="st15"
   d="m 869.9,104.4 c 0.1,0.1 0.2,0.2 0.3,0.3 l 1.2,-1.2 7,-7 -1,-1 -7.7,7.7 c 0,-0.1 -0.2,0.5 0.2,1.2 z"
   id="path5739" />
	<polygon
   class="st12"
   points="897.7,66.9 897.7,66.9 899.7,64.9 903.8,68.9 908.1,64.7 903,59.6 872.3,90.4 877.3,95.4 878.4,96.5 879.4,95.4 878.4,94.4 874.3,90.4 "
   id="polygon5741" />
	<polygon
   class="st7"
   points="874.3,90.4 878.4,94.4 879.4,95.4 881.2,93.7 902.9,72 897.7,66.9 "
   id="polygon5743" />
	<polygon
   class="st16"
   points="932.5,42.5 926.1,36.1 924.1,38 929.5,43.3 910.3,62.5 911.4,63.6 930.5,44.4 931.7,43.3 "
   id="polygon5745" />
	<polygon
   class="st16"
   points="909.2,65.7 908.1,64.7 903.8,68.9 899.7,64.9 897.7,66.9 902.9,72 903.3,71.6 903.5,71.3 904.9,70.1 "
   id="polygon5747" />
	<polygon
   class="st15"
   points="910.3,62.5 902.5,54.6 900.3,56.9 903,59.6 908.1,64.7 909.2,65.7 909.5,65.4 911.4,63.6 "
   id="polygon5749" />
	<g
   class="st17"
   id="g5769">
		
			<rect
   x="878.5"
   y="88.5"
   transform="matrix(0.7071,-0.7071,0.7071,0.7071,192.6031,648.2294)"
   class="st4"
   width="0.60000002"
   height="6.1999998"
   id="rect5751" />
		
			<rect
   x="881"
   y="86.099998"
   transform="matrix(0.7071,-0.7071,0.7071,0.7071,195.0231,649.2996)"
   class="st4"
   width="0.60000002"
   height="6.1999998"
   id="rect5753" />
		
			<rect
   x="883.40002"
   y="83.699997"
   transform="matrix(0.7071,-0.7071,0.7071,0.7071,197.4667,650.3127)"
   class="st4"
   width="0.60000002"
   height="6.1999998"
   id="rect5755" />
		
			<rect
   x="885.90002"
   y="81.199997"
   transform="matrix(0.7071,-0.7071,0.7071,0.7071,199.9752,651.3465)"
   class="st4"
   width="0.60000002"
   height="6.1999998"
   id="rect5757" />
		
			<rect
   x="888.29999"
   y="78.800003"
   transform="matrix(0.7071,-0.7071,0.7071,0.7071,202.3582,652.3264)"
   class="st4"
   width="0.60000002"
   height="6.1999998"
   id="rect5759" />
		
			<rect
   x="890.79999"
   y="76.300003"
   transform="matrix(0.7071,-0.7071,0.7071,0.7071,204.8679,653.3591)"
   class="st4"
   width="0.60000002"
   height="6.1999998"
   id="rect5761" />
		
			<rect
   x="893.20001"
   y="73.900002"
   transform="matrix(0.7071,-0.7071,0.7071,0.7071,207.2346,654.3826)"
   class="st4"
   width="0.60000002"
   height="6.1999998"
   id="rect5763" />
		
			<rect
   x="895.70001"
   y="71.5"
   transform="matrix(0.7071,-0.7071,0.7071,0.7071,209.7022,655.4249)"
   class="st4"
   width="0.60000002"
   height="6.1999998"
   id="rect5765" />
		<rect
   x="898"
   y="69"
   transform="matrix(0.7071,-0.7071,0.7071,0.7071,212.106,656.3239)"
   class="st4"
   width="0.60000002"
   height="6.1999998"
   id="rect5767" />
	</g>
</g></svg>
