<?xml version="1.0" encoding="utf-8"?>
<!-- Generator: Adobe Illustrator 24.1.0, SVG Export Plug-In . SVG Version: 6.00 Build 0)  -->
<svg version="1.1" id="Capa_1" xmlns="http://www.w3.org/2000/svg" xmlns:xlink="http://www.w3.org/1999/xlink" x="0px" y="0px"
	 viewBox="0 0 348.1 853.7" style="enable-background:new 0 0 348.1 853.7;" xml:space="preserve">
<style type="text/css">
	.st0{fill:none;stroke:#CEDBDD;stroke-width:0.75;stroke-miterlimit:10;}
	.st1{fill:#E0EADF;}
	.st2{fill:#C0D9DF;}
</style>
<path class="st0" d="M347.5,436.8c-6.9,2.9-11.2-0.4-15.8-3.5c-1.7-1.2-4.1-1.4-6.1-2.1c-0.3,2.1-1.2,4.5-0.6,6.3
	c2.6,8.8,5.5,17.4,8.4,26.1c0.9,2.8,1.8,5.6,1.8,8.8c-10.2-5-8.4-17.5-16.7-23.9c2.5,10.6,5,21.1,7.4,31.7c-1.3,0.4-2.5,0.8-3.8,1.2
	c-3.2-9.9-6.4-19.8-9.5-29.7c-0.6,0.1-1.1,0.1-1.7,0.2c1.3,8.9,2.5,17.7,3.8,26.6c-1.2,0.2-2.5,0.5-3.7,0.7
	c-2.4-9.5-4.8-18.9-7.2-28.4c-0.6,0-1.3,0.1-1.9,0.1c0.4,7.1,0.7,14.1,1.1,21.2c-0.7,0.2-1.4,0.5-2.2,0.7c-1-2.2-2.6-4.4-2.9-6.7
	c-2.5-16.7-3.7-33.6-7.4-50c-3.1-13.6-9.1-26.6-13.4-40c-5.7-17.6-14-34.9-16.1-53c-3-25.9-10.7-49.9-20.2-73.6
	c-0.7-1.9-1.9-3.6-4.7-5.2c-1.2,10.8-2.5,21.6-3.6,32.4c-0.7,6.8-1.1,13.6-1.5,20.3c-1.2,19.2,0.4,37.6,8.5,55.8
	c13.5,30.3,15.7,62.4,10.8,95.3c-4.9,32.3-8.6,64.7-12.4,97.2c-0.8,7.2,0.6,14.6,0.6,21.9c0.1,23-1.5,46.1,0.4,69
	c3.5,43.3-1.5,85.6-10.3,127.7c-2.3,11.3-1.6,22.2,3.8,32.8c5.2,10.3,9.4,21,14.3,31.3c6.9,14.6-5.1,21.5-16.8,23.1
	c-0.9,0.1-2-0.7-3-0.7c-4.4,0.1-10.9,2.3-12.6,0.3c-4.6-5.3-7.7-12.1-10.2-18.8c-3.1-8.1-5.3-16.7-7.2-25.2c-1-4.7-1.6-10-0.6-14.7
	c5.2-24.3,3.6-48.3-0.8-72.4c-4.5-24.6-5.6-49.4-3.2-74.2c1.9-20.5-0.7-40.5-4.1-60.7c-3.6-21.9-4.5-44.2-6.4-66.3
	c-1.8-20.6-3.2-41.2-4.9-61.7c-0.2-2.3-1-4.5-1.5-6.7c-0.7,0-1.3-0.1-2-0.1c-0.6,4.1-1.5,8.2-1.9,12.4c-2.5,27.3-4.5,54.7-7.3,82
	c-2.3,22-5.9,43.9-8.2,66c-1,9.1-0.6,18.3,0.1,27.4c2.2,29.1,2,58-3.6,86.7c-4.5,23.4-4.4,46.7,0,70.1c1,5.1-1.6,10.9-2.8,16.3
	c-1.5,6.6-3.1,13.1-5,19.5c-1.7,5.6-3.3,11.5-6.3,16.6c-3,5.3-7.5,8-14.5,4.4c-5.4-2.8-11.8-3.3-17.6-5.4c-7-2.6-7.2-8.4-5.4-14.3
	c2-6.5,3.9-13.3,7.6-18.8c13.9-21,14.4-43.1,8.7-66.8c-9.1-37.7-10.3-76-6.8-114.6c1.1-11.7,0.2-23.5,0-35.3
	c-0.1-8.4-1.5-16.9-0.4-25.1c2.8-20.4-1.6-40-4.2-60c-3.9-29.5-7.7-59.1-9.8-88.8c-1.6-22.9,2.6-45.6,12-66.6
	c8.5-18.7,11.3-37.8,9.5-58c-1.6-17.6-3-35.3-4.5-52.9c-0.8-0.2-1.6-0.4-2.4-0.5c-1.4,2.8-2.9,5.5-4.1,8.3
	c-9.4,23-16,46.6-19.2,71.5c-2.3,18.1-10.2,35.4-15.9,53c-3.4,10.4-7.4,20.6-11,31c-0.9,2.5-2.2,5.2-1.8,7.6
	c3.3,18.7-6.9,35.2-8.4,53c-0.1,1-0.7,1.9-1.2,2.8c-0.2,0.4-0.8,0.6-2.5,1.7c0-7.9,0-14.9,0-22c-0.5-0.1-1-0.3-1.5-0.4
	c-2.5,9.5-5,18.9-7.5,28.4c-1.2-0.2-2.4-0.5-3.6-0.7c1.3-8.8,2.6-17.6,3.9-26.4c-0.6-0.1-1.2-0.3-1.7-0.4
	c-3.1,9.9-6.3,19.8-9.4,29.7c-1.3-0.4-2.6-0.8-4-1.2c2.4-10.4,4.9-20.8,7.3-31.2c-7.5,6.8-7.1,18-14.9,24.2
	c-0.7-0.3-1.5-0.6-2.2-0.9c1-3.5,2-7.1,3.1-10.6c2.6-8.2,5.5-16.3,7.9-24.6c0.5-1.6-0.6-3.7-0.9-5.6c-1.9,0.4-4.2,0.3-5.6,1.4
	c-4.8,3.8-9.4,7.1-16.6,3.7c9.4-7.9,17.7-15.7,26.9-22.1c6.3-4.4,10.1-9.3,11.3-16.8c4.6-29.1,8.9-58.3,14.1-87.3
	c6.6-36.4,14-72.7,20.9-109.1c1-5.4,1.8-10.9,2-16.3c0.7-21.1,19-37,39.4-40.6c13.5-2.4,25.5-7.3,34.1-18.7c6.5-8.6,6.8-20,0.7-28.8
	c-5.4-7.8-12-15.2-15.2-23.9c-2.9-7.8-5.1-16.6,1.1-25.6c3-4.4,0.4-12.3,1.5-18.4C141,9.6,156.4-0.6,178.3,1
	c19.3,1.4,32.3,14.3,33.5,32.9c0.4,6.1,1.6,12,3,17.9c2.4,10.3,1.5,21.7-6.8,31.5c-6.7,7.9-14.9,15.5-13.9,28.3
	c0.9,11.9,7.7,18.8,16.4,24.1c6.5,3.9,14.2,6.6,21.8,8.1c20.6,4.1,37.2,19.7,40.6,42.7c6.6,44.3,16.3,88.2,24.2,132.3
	c4,22.6,7.2,45.4,10.3,68.1c1.7,12.4,4,23.4,17.2,30.1C333.1,421.3,339.4,429.6,347.5,436.8z"/>
<g>
	<path id="path882_4_" class="st1" d="M169.4,174c-0.8-4.5-2.8-9.3-5-13.3s-4.9-7.1-7.8-8.6c-2.8-1.5-5.9-1.4-10.3,1.3
		s-10.2,7.8-14.9,14.1c-4.8,6.4-8.8,14-10.9,19c-2.1,4.9-2.7,7.1-2.8,8.8c-0.1,1.7,0,2.8-1.1,8.5c-1.2,5.7-3.5,16-4.8,23
		c-1.4,7.1-1.7,10.8-1.7,13.2s0.3,3.3,2.2,4.3c1.9,1.1,5.7,2.1,9.7,1.7c4.1-0.4,8.6-2.5,13.1-4.2s8.9-2.9,12.3-3.9
		c3.4-0.9,5.9-1.3,8.8-4.4c2.9-3.1,6.5-8.9,8.8-17.2c2.4-8.2,3.4-19,4.2-26.2C169.7,182.6,170.2,178.4,169.4,174L169.4,174z"/>
	<path id="path882-7_4_" class="st2" d="M169.4,174c-0.8-4.5-2.8-9.3-5-13.3s-4.9-7.1-7.8-8.6c-2.8-1.5-5.9-1.4-10.3,1.3
		s-10.2,7.8-14.9,14.1c-4.8,6.4-8.8,14-10.9,19c-2.1,4.9-2.7,7.1-2.8,8.8c-0.1,1.7,0,2.8,3,10.4c2.9,7.6,8.7,21.6,13.8,28.1
		c5,6.5,9.4,5,13,4.2c3.4-0.9,5.9-1.3,8.8-4.4c2.9-3.2,6.5-8.9,8.8-17.2c2.2-8.4,3.4-19,4.2-26.2C169.7,182.6,170.2,178.4,169.4,174
		L169.4,174z"/>
	<path id="path882-7-9_4_" class="st1" d="M169.4,174c-0.8-4.5-2.8-9.3-5-13.3s-4.9-7.1-7.8-8.6c-2.8-1.5-5.9-1.4-10.3,1.3
		s-10.2,7.8-14.1,12.4c-4,4.6-6.2,8.8-7.8,12c-1.6,3.1-2.7,5.1-3.7,8.6c-0.9,3.5-1.9,8.1,5.7,13.8c7.6,5.7,23.7,12.2,32.2,10.2
		c8.6-2,9.7-12.7,10.5-20.1C169.7,182.6,170.2,178.4,169.4,174z"/>
	<path id="path882-8_4_" class="st2" d="M181,174c0.8-4.5,2.8-9.3,5-13.3c2.4-4,4.9-7.1,7.8-8.6c2.8-1.5,5.9-1.4,10.3,1.3
		s10.2,7.8,14.9,14.1c4.8,6.4,8.8,14,10.9,19c2.1,5,2.7,7.1,2.8,8.8c0.1,1.7,0,2.8,1,8.5c1.2,5.7,3.5,16,4.8,23
		c1.4,7.1,1.7,10.8,1.7,13.2s-0.3,3.3-2.2,4.3c-1.9,1.1-5.7,2.1-9.7,1.7c-4.1-0.4-8.6-2.5-13.1-4.2c-4.5-1.7-8.9-2.9-12.3-3.9
		c-3.4-0.9-5.9-1.3-8.8-4.4c-2.9-3.1-6.5-8.9-8.8-17.2c-2.2-8.4-3.4-19-4.2-26.2C180.6,182.6,180.2,178.4,181,174L181,174z"/>
	<path id="path882-7-5_4_" class="st1" d="M181,174c0.8-4.5,2.8-9.3,5-13.3c2.4-4,4.9-7.1,7.8-8.6c2.8-1.5,5.9-1.4,10.3,1.3
		s10.2,7.8,14.9,14.1c4.8,6.4,8.8,14,10.8,18.5c2,4.5,2.4,5.7,2.9,9.6c0.5,4,1.6,10.6-1.7,21.4c-3.3,10.9-10.9,26-15.1,24
		c-4.2-2-5-21.2-8.9-29.2c-3.7-8.1-10.5-5-14.6-5.1c-4.1-0.1-5.6-3.3-7-7.1c-1.5-3.9-3-8.4-4-12.6C180.6,182.6,180.2,178.4,181,174
		L181,174z"/>
	<path class="st2" d="M195.3,175.6c-2,0.2-5.7,1.4-8.4,1.3c-1.6,0-4.6-1-6.7-3.5h0.1c-0.1-0.3-0.4-0.5-0.6-0.8
		c-0.2-0.3-0.4-0.6-0.6-1c0.8-0.1,1.5-0.8,1.5-1.7c0-0.8-0.8-1.7-1.7-1.7h-0.3v-0.8h0.3c0.9,0,1.7-0.8,1.7-1.7
		c0-0.9-0.8-1.7-1.7-1.7h-0.3v-0.8h0.3c0.9,0,1.7-0.8,1.7-1.7c0-0.9-0.8-1.7-1.7-1.7h-0.3v-0.8h0.3c0.9,0,1.7-0.8,1.7-1.7
		s-0.8-1.7-1.7-1.7h-0.3v-0.8h0.3c0.9,0,1.7-0.8,1.7-1.7c0-0.9-0.8-1.7-1.7-1.7h-0.3v-0.8h0.3c0.9,0,1.7-0.8,1.7-1.7
		c0-0.9-0.8-1.7-1.7-1.7h-0.3v-0.8h0.3c0.9,0,1.7-0.8,1.7-1.7c0-0.8-0.8-1.7-1.7-1.7h-0.3v-0.2h0.3c0.9,0,1.7-0.8,1.7-1.7
		c0-0.9-0.8-1.7-1.7-1.7h-0.3v-0.8h0.3c0.9,0,1.7-0.8,1.7-1.7c0-0.8-0.8-1.7-1.7-1.7h-0.3v-0.9c0,0,0-0.1-0.1-0.1h-5.1
		c0,0-0.1,0-0.1,0.1v0.9h-0.3c-0.9,0-1.7,0.8-1.7,1.7c0,0.8,0.8,1.7,1.7,1.7h0.3v0.8h-0.3c-0.9,0-1.7,0.8-1.7,1.7
		c0,0.9,0.8,1.7,1.7,1.7h0.3v0.8h-0.3c-0.9,0-1.7,0.8-1.7,1.7c0,0.9,0.8,1.7,1.7,1.7h0.3v0.8h-0.3c-0.9,0-1.7,0.8-1.7,1.7
		c0,0.8,0.8,1.7,1.7,1.7h0.3v0.8h-0.3c-0.9,0-1.7,0.8-1.7,1.7c0,0.9,0.8,1.7,1.7,1.7h0.3v0.8h-0.3c-0.9,0-1.7,0.8-1.7,1.7
		c0,0.9,0.8,1.7,1.7,1.7h0.3v0.8h-0.3c-0.9,0-1.7,0.8-1.7,1.7c0,0.8,0.8,1.7,1.7,1.7h0.3v0.8h-0.3c-0.9,0-1.7,0.8-1.7,1.7
		c0,0.9,0.8,1.7,1.7,1.7h0.3v0.8h-0.3c-0.9,0-1.7,0.8-1.7,1.7c0,0.9,0.8,1.7,1.7,1.7h0.3v0.3c-0.1,0.1-0.2,0.3-0.3,0.4
		c-0.6,0-1.3,0.4-1.5,1h0.5c-2.6,2.4-6.5,3.9-7.9,4.3c-1.9,0.6-4,0.5-6.2,0.6c-2.4,0-5.4,0.2-5.1,0.5c0.1,0.3,3,0.9,5.6,1.4
		c2.5,0.4,4.4,0.9,4.8,2.1c0.4,1.3-0.4,3.2-1.9,4.4s-3.6,1.7-6.2,2.4c-2.6,0.6-5.8,1.6-5.8,1.9c0.1,0.3,3.5,0,5.4,1.2
		c1.9,1.2,2.1,3.6,2.6,5.1c0.4,1.5,1.1,2,1.3,0.8c0.2-1.2,0.1-4,0.8-5.9c0.6-1.9,2.1-2.8,2.9-3.4c0.8-0.4,7.3-7,8.4-7.6
		s2.9-1.7,4.8-1.9c1.8-0.2,3.6,0.3,5.9,2.2c2.4,1.9,5.4,5.1,7.5,7c2.1,1.8,3.4,2.4,4.2,2.1c0.6-0.2,0.9-1.2-0.3-3
		c-1.3-1.9-3.9-4.8-4.2-6.5s1.7-2.1,3.7-2.7c2-0.6,4.2-1.5,5-2.1C197.7,175.9,197.2,175.3,195.3,175.6z"/>
</g>
</svg>
