<?xml version="1.0" encoding="utf-8"?>
<!-- Generator: Adobe Illustrator 24.1.0, SVG Export Plug-In . SVG Version: 6.00 Build 0)  -->
<svg version="1.1" id="Capa_1" xmlns="http://www.w3.org/2000/svg" xmlns:xlink="http://www.w3.org/1999/xlink" x="0px" y="0px"
	 viewBox="0 0 621.6 410.4" style="enable-background:new 0 0 621.6 410.4;" xml:space="preserve">
<style type="text/css">
	.st0{fill:#FFFFFF;}
	.st1{fill:#F0F7F6;}
	.st2{fill:none;}
	.st3{fill:#D4ECEA;}
	.st4{enable-background:new    ;}
</style>
<g>
	<rect x="74.6" y="23.1" class="st0" width="471.5" height="294.7"/>
	<g>
		<g>
			<path class="st1" d="M556.1,336H65.5c-3.2,0-6.4,1.3-8.9,3.6L7.2,386.1c-10.2,9.6-4.3,20.9,8.9,20.9h589.5
				c13.2,0,19.1-11.2,8.9-20.9L565,339.6C562.5,337.2,559.4,336,556.1,336z"/>
			<g>
				<rect x="92.6" y="41.6" class="st2" width="435.4" height="250.2"/>
				<path class="st1" d="M547.1,4.4H74.5c-7.8,0-14.1,6.3-14.1,14.1v6.6c0-7.8,6.3-14.1,14.1-14.1h472.6c7.8,0,14.1,6.3,14.1,14.1
					v-6.6C561.2,10.7,554.8,4.4,547.1,4.4z"/>
			</g>
			<path class="st3" d="M605.6,394.9H16.1c-4.8,0-8.6-2.5-11.1-6.2C-2,398.7,3.9,407,16.1,407h589.5c12.1,0,18.1-8.3,11.1-18.3
				C614.2,392.3,610.3,394.9,605.6,394.9z"/>
			<path class="st3" d="M74.5,11c-7.8,0-14.1,6.3-14.1,14.1v290.7c0,7.8,6.3,14.1,14.1,14.1h472.6c7.8,0,14.1-6.3,14.1-14.1V25.1
				c0-7.8-6.3-14.1-14.1-14.1L74.5,11L74.5,11z M546,316.4H74.7V23.7H546V316.4z"/>
		</g>
	</g>
</g>
<g>
	<g id="YX734u.tif_3_">
		<g>
			<path d="M383.3,156.2c0.3-0.9,0.5-1.8,0.9-2.7c1.1-2.3,3-4,5.1-5.2c2.1-1.3,4.3-2.1,6.7-2.9c0.2-0.1,0.5-0.3,0.6-0.4
				c0.7-2.8,2.3-5.1,4.3-7c4-3.8,8.7-6.2,14.3-6.8c3.7-0.4,7.3,0.3,10.4,2.5c0.2,0.1,0.4,0.2,0.7,0.1c6.7-1.5,12.8,0.1,18.5,3.7
				c2.6,1.6,4.7,3.8,6.2,6.4c1.6,2.8,2.3,5.7,2.1,8.9c-0.1,0.4,0.2,0.5,0.5,0.6c2.6,1.4,4.9,3.3,6.5,5.8c2.5,4,3,8.3,1.6,12.8
				c-0.1,0.4-0.3,0.8-0.4,1.1c0,0,0,0.1,0,0.1c0.1,0,0.1,0.1,0.2,0.1c3.5,1,5.7,3.4,7.2,6.5c2.3,4.8,2.4,9.8,0.4,14.8
				c-1.8,4.3-5.1,7.2-9.4,9c-0.7,0.3-1.4,0.5-2.1,0.7c-0.3,0.1-0.5,0.2-0.5,0.6c-0.3,6.7-7.1,13.5-14.5,14.6c-2.6,0.4-6-0.2-7.9-1.3
				c0.6-1.3,1.3-2.5,1.8-3.6c1.1,0.3,2,0.6,3,0.8c2.7,0.4,5.2-0.4,7.4-1.9c2.5-1.6,4.5-3.8,5.5-6.7c1.1-3.2-0.1-5.9-3.3-7.3
				c-0.6-0.3-1.3-0.5-1.9-0.8c0.4-1.3,0.8-2.6,1.2-4c1.7,0.5,3.3,1.2,4.6,2.2c1.2,0.9,2.3,2,3,3.3c0.1,0.1,0.4,0.2,0.5,0.2
				c5.2-1.4,8.8-5.2,9.5-10.6c0.4-3.5-0.2-6.7-2.2-9.6c-1.3-1.8-3.1-3-5.5-2.6c-1.6,0.3-2.9,1.1-4.1,2.1c-0.8,0.6-1.4,1.3-2.3,2.1
				c-1-0.9-2.1-1.8-3.1-2.8c1.9-2.2,4.1-4.1,6.9-5.1c0.4-0.2,0.8-0.4,0.9-0.8c1.9-3.9,2.1-7.7-0.4-11.4c-1.9-3-4.7-4.8-8.2-5.3
				c-1.9-0.3-3.8-0.1-5.3,1.4c-0.9-1.1-1.9-2.1-2.8-3.2c2.6-2.3,5.7-2.7,9-2.4c0.1-1.1-0.1-2.3-0.4-3.3c-0.9-3-2.8-5.2-5.3-7
				c-4-2.8-8.4-4.3-13.3-4c-2.3,0.1-4.6,0.8-6.4,2.3c-0.9,0.8-1.6,1.8-2,3c-0.1,0.2-0.1,0.4-0.3,0.7c-1.4-0.4-2.7-0.8-4.2-1.3
				c0.6-1.1,1.1-2.3,1.8-3.3s1.6-1.8,2.4-2.8c-1-0.4-2.1-0.6-3.2-0.7c-4.1-0.2-7.9,1.1-11.2,3.4c-2.2,1.5-4.1,3.3-5.4,5.7
				c-1.3,2.4-1,4.5,0.9,6c0.7,0.6,1.5,0.9,2.3,1.4c0.2,0.1,0.4,0.2,0.7,0.3c-0.5,1.3-1.1,2.6-1.6,4c-3.1-1.3-5.7-3.1-6.9-6.3
				c-0.2,0.1-0.3,0.1-0.4,0.1c-2.3,0.8-4.5,1.8-6.4,3.4c-2,1.7-2.6,3.8-1.6,5.9c0.4,0.9,1.1,1.8,1.8,2.5c2.6,2.5,5.8,3.8,9.2,4.5
				c1.9,0.4,4,0.5,5.9,0.8c0.2,0,0.4,0,0.7,0.1c0,1.4,0,2.8,0,4.3c-1.6-0.1-3.1-0.2-4.6-0.4c-2.4-0.3-4.7-0.9-7-1.7
				c-0.2-0.1-0.5-0.1-0.6,0c-1.8,1.3-3.6,2.6-4.7,4.6c-1.1,1.9-1,4,0.4,5.7c1.8,2.3,4.3,3.4,7.1,4.1c1.2,0.3,2.3,0.4,3.5-0.2
				c0.1,0.7,0.5,0.7,0.9,0.7c2.8-0.1,5.3-0.8,7.6-2.4c0.1-0.1,0.1-0.1,0.3-0.1c0.8,1.1,1.6,2.2,2.6,3.5c-1,0.6-1.9,1.2-3,1.7
				c-2.9,1.3-6,1.9-9.1,1.6c-0.2,0-0.3-0.1-0.5,0c-1.6,0.6-3.1,1.4-4.1,2.8c-1.2,1.6-1.1,3.4-0.3,5.2c1.2,2.5,3.2,4.3,5.7,5.6
				c3.1,1.6,6.3,2.1,9.6,0.9c0.9-0.3,1.8-0.8,2.8-1.3c0.7,1.1,1.4,2.3,2.1,3.6c-0.3,0.2-0.6,0.3-0.8,0.5c-0.4,0.3-0.8,0.6-1.1,0.9
				c-1,1.1-1.2,2.2-0.5,3.5c0.9,1.6,2.3,2.8,3.8,3.7c2.4,1.4,4.9,2.2,7.7,2.3c4.5,0.1,8-2.1,9.6-6.8c0.4-1.4,0.6-2.8,0.9-4.3
				c0.1-0.4-0.2-0.5-0.4-0.7c-2.6-1.4-5.2-2.8-7.6-4.5c-2.5-1.6-4.8-3.6-6.3-6.3c-1.3-2.2-1.8-4.5-1.9-7c-0.2-3.2,0.3-6.3,0.9-9.5
				c0-0.1,0.1-0.1,0.1-0.3c1.4,0.3,2.7,0.6,4.1,0.8c-0.7,4.3-1.6,8.5,0,12.8c2.7-3.6,6.2-6.3,9.2-9.4c-1-0.4-2-0.7-3-1.1
				c-3.3-1.4-5.9-3.9-8.2-6.6c-1.8-2-3.5-4-5.2-6c-1.2-1.3-2.6-2.5-4.3-3.1c-0.6-0.2-1.3-0.3-1.9-0.4c-0.2-0.1-0.4-0.2-0.4-0.3
				c-0.1-1.3,0-2.6,0-4c3.4,0,6.1,1.4,8.4,3.5c0.5-1.3,0.9-2.5,1.6-3.6c1.2-2.1,3-3.6,4.8-5.2c0.9-0.8,1.9-1.5,2.8-2.3
				c1.2-1.1,2.3-2.3,3.6-3.5c1.1,0.7,2.2,1.4,3.4,2.3c-1.1,1.6-2.4,3-3.9,4.3c-1.9,1.6-3.8,3.1-5.6,4.8c-2.5,2.3-2.8,5.2-1.9,8.4
				c0.1,0.1,0.1,0.3,0.2,0.4c1.8,2.3,3.6,4.5,6,6.2c1.9,1.4,4.1,2.3,6.5,2.3c0.4,0,0.6-0.1,0.8-0.4c0.8-1.6,0.7-3.1-0.1-4.6
				c-1-1.8-2.5-3.1-4-4.3c-0.2-0.1-0.4-0.3-0.6-0.4c0.8-1.1,1.7-2.3,2.6-3.5c0.9,0.8,1.7,1.4,2.5,2.1c1.3,1.1,2.3,2.4,3.2,3.9
				c1.9,3.4,1.7,6.7-0.4,9.9c-1.6,2.5-3.7,4.4-5.8,6.4c-2.1,2.1-4.1,4.1-6.2,6.2c-0.5,0.6-0.9,1.2-1.4,1.9c2.6,2.5,5.5,4.1,8.7,5.8
				c-0.2-1.9-0.4-3.8-0.6-5.6c1.4-0.3,2.7-0.4,4.1-0.7c0.1,0.8,0.3,1.4,0.3,2.2c0.4,3.1,0.6,6.2,0.3,9.4c-0.4,4.1-1.5,7.9-4.4,11.1
				c-2.3,2.5-5.1,3.7-8.3,4.1c-0.2,0-0.4,0.1-0.6,0.1c-0.6,0-1.3,0-1.9,0c-0.5-0.1-1-0.1-1.5-0.1c-3.5-0.4-6.6-1.6-9.4-3.7
				c-2-1.4-3.7-3.2-4.5-5.6c-0.3-1-0.4-2.1-0.6-3.3c0,0-0.1,0-0.3,0c-3.1,0.2-6.2-0.5-8.9-1.9c-3.5-1.8-6.2-4.2-7.8-7.8
				c-1.5-3.5-1.2-6.8,1.2-9.8c0.3-0.4,0.7-0.8,1.1-1.1c-0.2-0.1-0.3-0.1-0.5-0.2c-2.1-0.9-4-2.1-5.6-3.8c-2.6-2.9-3.5-6.2-2-9.9
				c0.8-1.9,2-3.5,3.5-4.8c0.4-0.4,0.9-0.8,1.4-1.3c-0.3-0.2-0.5-0.4-0.8-0.5c-1.8-1.3-3.4-2.8-4.3-4.8c-0.5-1-0.8-2.1-1.1-3.3
				C383.3,157.4,383.3,156.8,383.3,156.2z"/>
		</g>
	</g>
	<g class="st4">
		<path d="M151.2,147.3h12.3c3.9,0,6.8,0.3,8.9,0.9c2,0.6,3.6,1.8,4.8,3.7c1.3,1.9,1.8,4.8,1.8,9c0,2.8-0.4,4.8-1.3,5.8
			c-0.9,1.1-2.6,1.9-5.2,2.5c2.8,0.6,4.8,1.8,5.8,3.3c1,1.5,1.5,3.8,1.5,6.9v4.5c0,3.3-0.4,5.7-1.1,7.2c-0.7,1.6-1.9,2.6-3.5,3.2
			c-1.6,0.6-4.9,0.9-9.9,0.9h-14.2V147.3z M163.6,155.5v10.7c0.5,0,0.9,0,1.3,0c1.2,0,2-0.3,2.3-0.9c0.3-0.6,0.5-2.3,0.5-5.2
			c0-1.5-0.1-2.6-0.4-3.1c-0.3-0.6-0.6-1-1.1-1.1C165.7,155.6,164.9,155.5,163.6,155.5z M163.6,173.6V187c1.8-0.1,2.8-0.3,3.3-0.8
			c0.5-0.5,0.7-1.7,0.7-3.6v-4.5c0-2.1-0.2-3.3-0.6-3.7C166.6,173.9,165.4,173.6,163.6,173.6z"/>
		<path d="M212,169.7v9.6c0,3.5-0.2,6.1-0.5,7.8c-0.4,1.6-1.1,3.2-2.3,4.6c-1.1,1.4-2.6,2.5-4.5,3.1c-1.8,0.7-3.9,1-6.2,1
			c-2.6,0-4.8-0.3-6.7-0.9c-1.8-0.6-3.2-1.4-4.2-2.6c-1-1.2-1.7-2.6-2.1-4.3c-0.4-1.7-0.6-4.1-0.6-7.5v-10.1c0-3.6,0.4-6.5,1.2-8.5
			c0.8-2.1,2.2-3.7,4.2-5c2-1.3,4.6-1.9,7.8-1.9c2.6,0,5,0.4,6.8,1.2c1.9,0.8,3.4,1.8,4.4,3.1c1,1.3,1.8,2.6,2.1,4
			C211.9,164.8,212,167,212,169.7z M200.2,166.8c0-2-0.1-3.3-0.3-3.8c-0.2-0.5-0.7-0.8-1.4-0.8s-1.2,0.3-1.4,0.8
			c-0.3,0.5-0.4,1.8-0.4,3.8v17.7c0,1.9,0.1,3.1,0.4,3.6c0.3,0.6,0.7,0.8,1.4,0.8c0.7,0,1.2-0.3,1.4-0.8c0.3-0.5,0.3-1.6,0.3-3.3
			V166.8z"/>
		<path d="M243.9,169.7v9.6c0,3.5-0.2,6.1-0.5,7.8c-0.4,1.6-1.1,3.2-2.3,4.6c-1.1,1.4-2.6,2.5-4.5,3.1c-1.8,0.7-3.9,1-6.2,1
			c-2.6,0-4.8-0.3-6.7-0.9c-1.8-0.6-3.2-1.4-4.2-2.6c-1-1.2-1.7-2.6-2.1-4.3c-0.4-1.7-0.6-4.1-0.6-7.5v-10.1c0-3.6,0.4-6.5,1.2-8.5
			c0.8-2.1,2.2-3.7,4.2-5c2-1.3,4.6-1.9,7.8-1.9c2.6,0,5,0.4,6.8,1.2s3.4,1.8,4.4,3.1c1,1.3,1.8,2.6,2.1,4
			C243.7,164.8,243.9,167,243.9,169.7z M232,166.8c0-2-0.1-3.3-0.3-3.8c-0.2-0.5-0.7-0.8-1.4-0.8c-0.7,0-1.2,0.3-1.4,0.8
			c-0.3,0.5-0.4,1.8-0.4,3.8v17.7c0,1.9,0.1,3.1,0.4,3.6c0.3,0.6,0.7,0.8,1.4,0.8s1.2-0.3,1.4-0.8c0.3-0.5,0.3-1.6,0.3-3.3V166.8z"
			/>
		<path d="M273.1,168.5h-10.5v-2.1c0-1.8-0.1-3-0.3-3.5c-0.2-0.5-0.7-0.8-1.5-0.8c-0.7,0-1.1,0.3-1.5,0.7c-0.3,0.4-0.5,1.1-0.5,2
			c0,1.2,0.1,2.1,0.3,2.6c0.2,0.6,0.7,1.2,1.5,1.8c0.8,0.7,2.5,1.6,5.1,3c3.5,1.7,5.7,3.3,6.8,4.8c1.1,1.5,1.6,3.7,1.6,6.5
			c0,3.2-0.4,5.6-1.3,7.2c-0.8,1.6-2.2,2.9-4.1,3.8c-1.9,0.9-4.3,1.3-7,1.3c-3,0-5.6-0.5-7.7-1.4s-3.6-2.2-4.4-3.8
			c-0.8-1.6-1.2-4.1-1.2-7.4v-1.9h10.5v2.5c0,2.1,0.1,3.5,0.4,4.1c0.3,0.6,0.8,0.9,1.6,0.9c0.8,0,1.4-0.2,1.8-0.6
			c0.3-0.4,0.5-1.3,0.5-2.7c0-1.9-0.2-3.1-0.6-3.5c-0.4-0.5-2.8-1.9-6.9-4.2c-3.5-1.9-5.6-3.8-6.3-5.3c-0.8-1.6-1.1-3.5-1.1-5.7
			c0-3.1,0.4-5.5,1.3-6.9c0.8-1.5,2.2-2.6,4.1-3.5c1.9-0.8,4.3-1.2,6.8-1.2c2.6,0,4.8,0.3,6.6,1c1.8,0.7,3.2,1.5,4.1,2.6
			c0.9,1.1,1.6,2.1,1.8,3s0.3,2.4,0.3,4.3V168.5z"/>
		<path d="M290.9,150.7v6.2h3.2v6.2h-3.2v21c0,2.6,0.1,4,0.4,4.3s1.4,0.4,3.3,0.4v6.3h-4.8c-2.7,0-4.6-0.1-5.8-0.3
			c-1.1-0.3-2.1-0.8-3-1.6c-0.9-0.8-1.4-1.8-1.6-2.8c-0.2-1.1-0.3-3.5-0.3-7.4v-20h-2.6v-6.2h2.6v-6.2H290.9z"/>
		<path d="M298.3,147.3h9.2c6,0,10,0.3,12.1,0.8c2.1,0.6,3.7,1.4,4.8,2.7c1.1,1.3,1.8,2.6,2.1,4.2c0.3,1.6,0.4,4.6,0.4,9.1v16.8
			c0,4.3-0.2,7.2-0.6,8.6c-0.4,1.4-1.1,2.6-2.1,3.4c-1,0.8-2.2,1.4-3.7,1.7c-1.4,0.3-3.6,0.5-6.6,0.5h-15.6L298.3,147.3L298.3,147.3
			z M310.6,155.5V187c1.8,0,2.9-0.4,3.3-1.1c0.4-0.7,0.6-2.7,0.6-5.8v-18.7c0-2.2-0.1-3.6-0.2-4.1c-0.1-0.6-0.4-1.1-0.9-1.3
			C312.9,155.7,311.9,155.5,310.6,155.5z"/>
		<path d="M370.7,147.3v47.9h-10.8v-32.4l-4.3,32.4h-7.7l-4.5-31.6v31.6h-10.8v-47.9h16c0.5,2.9,0.9,6.3,1.4,10.2l1.8,12.2l2.8-22.4
			C354.6,147.3,370.7,147.3,370.7,147.3z"/>
	</g>
</g>
</svg>
