<?xml version="1.0" encoding="utf-8"?>
<!-- Generator: Adobe Illustrator 24.1.0, SVG Export Plug-In . SVG Version: 6.00 Build 0)  -->
<svg version="1.1" id="Capa_1" xmlns="http://www.w3.org/2000/svg" xmlns:xlink="http://www.w3.org/1999/xlink" x="0px" y="0px"
	 viewBox="0 0 248.4 109.7" style="enable-background:new 0 0 248.4 109.7;" xml:space="preserve">
<g>
	<g id="YX734u.tif_2_">
		<g>
			<path d="M175.7,40.4c0.2-0.6,0.3-1.3,0.6-1.9c0.8-1.7,2.1-2.8,3.6-3.7c1.5-0.9,3.1-1.5,4.7-2c0.2,0,0.4-0.2,0.4-0.3
				c0.5-2,1.6-3.6,3.1-5c2.8-2.7,6.2-4.4,10.2-4.9c2.7-0.3,5.2,0.2,7.4,1.7c0.1,0.1,0.3,0.1,0.5,0.1c4.8-1.1,9.1,0.1,13.1,2.6
				c1.8,1.2,3.3,2.7,4.4,4.6c1.1,1.9,1.7,4,1.5,6.3c0,0.3,0.1,0.4,0.3,0.5c1.9,1,3.5,2.4,4.6,4.2c1.8,2.8,2.1,5.9,1.1,9.1
				c-0.1,0.3-0.2,0.5-0.3,0.8c0,0,0,0,0,0.1l0.1,0.1c2.5,0.7,4.1,2.4,5.1,4.6c1.6,3.4,1.7,7,0.3,10.5c-1.3,3.1-3.6,5.2-6.7,6.4
				c-0.5,0.2-1,0.4-1.5,0.5c-0.2,0.1-0.3,0.1-0.4,0.4c-0.2,4.8-5.1,9.6-10.3,10.4c-1.8,0.3-4.2-0.1-5.6-1c0.4-0.9,0.9-1.8,1.3-2.6
				c0.7,0.2,1.4,0.4,2.2,0.5c1.9,0.2,3.7-0.3,5.3-1.4c1.8-1.2,3.2-2.7,3.9-4.8c0.8-2.3-0.1-4.2-2.3-5.2c-0.4-0.2-0.9-0.4-1.4-0.6
				c0.3-1,0.6-1.9,0.9-2.9c1.2,0.4,2.3,0.8,3.3,1.6c0.9,0.6,1.6,1.4,2.1,2.4c0,0.1,0.3,0.2,0.4,0.1c3.6-1,6.3-3.7,6.8-7.6
				c0.3-2.5-0.1-4.8-1.6-6.8c-0.9-1.3-2.2-2.1-3.9-1.9c-1.1,0.2-2.1,0.8-2.9,1.5c-0.5,0.5-1,1-1.6,1.5c-0.7-0.6-1.5-1.3-2.3-2
				c1.4-1.6,2.9-2.9,4.9-3.6c0.3-0.1,0.5-0.3,0.7-0.6c1.3-2.8,1.5-5.5-0.3-8.1c-1.4-2.1-3.4-3.4-5.9-3.8c-1.3-0.2-2.7,0-3.8,1
				c-0.7-0.8-1.3-1.5-2-2.3c1.9-1.6,4-1.9,6.4-1.7c0.1-0.8-0.1-1.6-0.3-2.4c-0.6-2.1-2-3.7-3.7-5c-2.8-2-6-3-9.4-2.9
				c-1.7,0.1-3.2,0.5-4.5,1.7c-0.7,0.6-1.1,1.3-1.4,2.1c-0.1,0.1-0.1,0.3-0.2,0.5c-1-0.3-1.9-0.6-3-0.9c0.4-0.8,0.8-1.6,1.2-2.4
				c0.5-0.7,1.1-1.3,1.7-2c-0.7-0.3-1.5-0.5-2.3-0.5c-2.9-0.1-5.6,0.8-8,2.4c-1.6,1.1-2.9,2.3-3.8,4c-0.9,1.7-0.7,3.2,0.6,4.3
				c0.5,0.4,1.1,0.7,1.6,1c0.1,0.1,0.3,0.1,0.5,0.2c-0.4,0.9-0.7,1.9-1.1,2.8c-2.2-0.9-4-2.2-4.9-4.5c-0.1,0-0.2,0-0.3,0.1
				c-1.7,0.6-3.2,1.3-4.6,2.4c-1.4,1.2-1.9,2.7-1.1,4.2c0.3,0.6,0.8,1.2,1.3,1.7c1.8,1.8,4.1,2.7,6.6,3.2c1.4,0.3,2.8,0.4,4.2,0.5
				c0.2,0,0.3,0,0.5,0c0,1,0,2,0,3.1c-1.1-0.1-2.2-0.1-3.2-0.3c-1.7-0.2-3.4-0.6-4.9-1.2c-0.1-0.1-0.3-0.1-0.4,0
				c-1.3,0.9-2.6,1.8-3.4,3.2c-0.8,1.4-0.7,2.8,0.3,4c1.3,1.6,3.1,2.4,5.1,2.9c0.8,0.2,1.6,0.3,2.5-0.1c0.1,0.5,0.3,0.5,0.7,0.5
				c2,0,3.8-0.5,5.4-1.7c0,0,0.1-0.1,0.2-0.1c0.6,0.8,1.2,1.6,1.8,2.4c-0.7,0.4-1.4,0.9-2.1,1.2c-2.1,1-4.2,1.3-6.5,1.2
				c-0.1,0-0.2,0-0.3,0c-1.2,0.4-2.2,1-3,2c-0.8,1.2-0.8,2.4-0.2,3.7c0.9,1.8,2.3,3.1,4,4c2.2,1.1,4.5,1.5,6.8,0.7
				c0.7-0.2,1.3-0.6,1.9-0.9c0.5,0.8,1,1.7,1.5,2.6c-0.2,0.1-0.4,0.2-0.6,0.4c-0.3,0.2-0.5,0.4-0.8,0.6c-0.7,0.8-0.8,1.6-0.4,2.5
				c0.6,1.2,1.6,2,2.7,2.6c1.7,1,3.5,1.6,5.5,1.6c3.2,0.1,5.7-1.5,6.8-4.8c0.3-1,0.5-2,0.7-3c0.1-0.3-0.1-0.4-0.3-0.5
				c-1.8-1-3.7-2-5.4-3.2c-1.8-1.2-3.4-2.6-4.5-4.5c-0.9-1.5-1.3-3.2-1.4-5c-0.1-2.3,0.2-4.5,0.6-6.7c0-0.1,0-0.1,0.1-0.2
				c1,0.2,1.9,0.4,2.9,0.6c-0.5,3-1.1,6,0,9.1c1.9-2.5,4.4-4.5,6.6-6.7c-0.7-0.3-1.4-0.5-2.1-0.8c-2.4-1-4.2-2.8-5.9-4.7
				c-1.2-1.4-2.4-2.9-3.7-4.3c-0.9-1-1.8-1.8-3.1-2.2c-0.4-0.2-0.9-0.2-1.4-0.3c-0.1,0-0.3-0.1-0.3-0.2c0-0.9,0-1.8,0-2.8
				c2.4,0,4.3,1,6,2.5c0.4-0.9,0.7-1.8,1.1-2.6c0.8-1.5,2.1-2.6,3.4-3.6c0.7-0.5,1.4-1.1,2-1.6c0.9-0.8,1.7-1.6,2.5-2.5
				c0.7,0.5,1.6,1,2.4,1.6c-0.8,1.2-1.7,2.1-2.7,3c-1.3,1.1-2.7,2.2-4,3.4c-1.8,1.6-2,3.7-1.4,5.9c0,0.1,0.1,0.2,0.2,0.3
				c1.3,1.6,2.6,3.2,4.3,4.4c1.4,1,2.9,1.6,4.6,1.7c0.3,0,0.4-0.1,0.6-0.3c0.5-1.1,0.5-2.2-0.1-3.3c-0.7-1.3-1.8-2.2-2.9-3.1
				c-0.1-0.1-0.2-0.2-0.4-0.3c0.6-0.8,1.2-1.6,1.8-2.4c0.6,0.5,1.2,1,1.8,1.5c0.9,0.8,1.7,1.7,2.3,2.8c1.4,2.4,1.2,4.7-0.3,7
				c-1.1,1.8-2.6,3.1-4.1,4.6s-2.9,2.9-4.4,4.4c-0.4,0.4-0.7,0.9-1,1.3c1.8,1.7,4,2.9,6.2,4.1c-0.2-1.4-0.3-2.7-0.4-4
				c1-0.2,1.9-0.3,3-0.5c0.1,0.5,0.2,1,0.2,1.6c0.3,2.2,0.4,4.4,0.2,6.7c-0.3,2.9-1.1,5.6-3.1,7.9c-1.6,1.7-3.6,2.7-5.9,3
				c-0.1,0-0.3,0.1-0.4,0.1c-0.5,0-0.9,0-1.4,0c-0.4,0-0.7-0.1-1.1-0.1c-2.4-0.3-4.7-1.2-6.7-2.6c-1.4-1-2.6-2.3-3.2-4
				c-0.2-0.7-0.3-1.5-0.4-2.4c0,0-0.1,0-0.2,0c-2.2,0.1-4.4-0.4-6.4-1.4c-2.4-1.3-4.4-3-5.5-5.6c-1.1-2.5-0.9-4.8,0.9-7
				c0.2-0.3,0.5-0.5,0.8-0.8c-0.1-0.1-0.2-0.1-0.3-0.2c-1.5-0.7-2.9-1.5-4-2.7c-1.8-2-2.4-4.4-1.4-7c0.5-1.4,1.4-2.5,2.5-3.4
				c0.3-0.3,0.7-0.6,1-0.9c-0.2-0.1-0.4-0.3-0.5-0.4c-1.3-0.9-2.4-2-3.1-3.5c-0.3-0.7-0.5-1.5-0.8-2.3
				C175.7,41.3,175.7,40.8,175.7,40.4z"/>
		</g>
	</g>
	<g>
		<path d="M10.6,34.1h8.8c2.8,0,4.9,0.2,6.3,0.7c1.4,0.4,2.6,1.3,3.4,2.6c0.9,1.3,1.3,3.5,1.3,6.4c0,2-0.3,3.4-0.9,4.2
			s-1.8,1.4-3.7,1.8c2,0.5,3.4,1.2,4.1,2.3c0.7,1.1,1.1,2.7,1.1,4.9v3.2c0,2.3-0.3,4-0.8,5.1s-1.4,1.9-2.5,2.3s-3.5,0.6-7,0.6H10.6
			L10.6,34.1L10.6,34.1z M19.4,39.9v7.6c0.4,0,0.7,0,0.9,0c0.9,0,1.4-0.2,1.6-0.6s0.4-1.7,0.4-3.7c0-1.1-0.1-1.8-0.3-2.2
			c-0.2-0.4-0.4-0.7-0.8-0.8C20.9,40,20.3,39.9,19.4,39.9z M19.4,52.8v9.5c1.2,0,2-0.2,2.4-0.6c0.3-0.4,0.5-1.2,0.5-2.6V56
			c0-1.5-0.2-2.3-0.5-2.7C21.5,53,20.7,52.8,19.4,52.8z"/>
		<path d="M54,50v6.8c0,2.5-0.1,4.4-0.4,5.5s-0.8,2.3-1.6,3.3s-1.9,1.8-3.2,2.3c-1.3,0.5-2.8,0.7-4.4,0.7c-1.9,0-3.4-0.2-4.7-0.6
			c-1.3-0.4-2.3-1-3-1.9c-0.7-0.8-1.2-1.8-1.5-3s-0.5-3-0.5-5.3v-7.2c0-2.6,0.3-4.6,0.8-6.1c0.6-1.5,1.6-2.6,3-3.5s3.3-1.3,5.5-1.3
			c1.9,0,3.5,0.3,4.9,0.9s2.4,1.3,3.1,2.2c0.7,0.9,1.2,1.9,1.5,2.8C53.9,46.6,54,48,54,50z M45.6,47.9c0-1.4-0.1-2.3-0.2-2.7
			c-0.2-0.4-0.5-0.6-1-0.6s-0.8,0.2-1,0.6s-0.2,1.3-0.2,2.7v12.6c0,1.3,0.1,2.2,0.2,2.6c0.2,0.4,0.5,0.6,1,0.6s0.8-0.2,1-0.5
			c0.2-0.4,0.2-1.2,0.2-2.4V47.9z"/>
		<path d="M76.9,50v6.8c0,2.5-0.1,4.4-0.4,5.5s-0.8,2.3-1.6,3.3s-1.9,1.8-3.2,2.3c-1.3,0.5-2.8,0.7-4.4,0.7c-1.9,0-3.4-0.2-4.7-0.6
			c-1.3-0.4-2.3-1-3-1.9c-0.7-0.8-1.2-1.8-1.5-3s-0.5-3-0.5-5.3v-7.2c0-2.6,0.3-4.6,0.8-6.1c0.6-1.5,1.6-2.6,3-3.5s3.3-1.3,5.5-1.3
			c1.9,0,3.5,0.3,4.9,0.9s2.4,1.3,3.1,2.2c0.7,0.9,1.2,1.9,1.5,2.8C76.8,46.6,76.9,48,76.9,50z M68.5,47.9c0-1.4-0.1-2.3-0.2-2.7
			c-0.2-0.4-0.5-0.6-1-0.6s-0.8,0.2-1,0.6s-0.2,1.3-0.2,2.7v12.6c0,1.3,0.1,2.2,0.2,2.6c0.2,0.4,0.5,0.6,1,0.6s0.8-0.2,1-0.5
			c0.2-0.4,0.2-1.2,0.2-2.4V47.9z"/>
		<path d="M97.9,49.1h-7.5v-1.5c0-1.3-0.1-2.1-0.2-2.5c-0.1-0.3-0.5-0.5-1.1-0.5c-0.5,0-0.8,0.2-1.1,0.5s-0.4,0.8-0.4,1.4
			c0,0.9,0.1,1.5,0.2,1.9s0.5,0.8,1.1,1.3s1.8,1.2,3.6,2.1c2.4,1.2,4,2.3,4.8,3.4s1.1,2.6,1.1,4.7c0,2.3-0.3,4-0.9,5.1
			c-0.6,1.2-1.6,2-2.9,2.7c-1.4,0.6-3,0.9-5,0.9c-2.1,0-4-0.3-5.5-1S81.5,66,81,64.9c-0.6-1.2-0.9-2.9-0.9-5.2v-1.3h7.5v1.8
			c0,1.5,0.1,2.5,0.3,2.9c0.2,0.4,0.6,0.7,1.1,0.7c0.6,0,1-0.2,1.3-0.5s0.4-0.9,0.4-1.9c0-1.3-0.2-2.2-0.5-2.5s-2-1.3-4.9-3
			c-2.5-1.4-4-2.7-4.5-3.8C80.3,51,80,49.6,80,48c0-2.2,0.3-3.9,0.9-4.9c0.6-1.1,1.6-1.9,3-2.5s3-0.9,4.9-0.9c1.8,0,3.4,0.2,4.7,0.7
			s2.3,1.1,3,1.9s1.1,1.5,1.3,2.1s0.2,1.7,0.2,3.1v1.6L97.9,49.1L97.9,49.1z"/>
		<path d="M110.8,36.5v4.4h2.3v4.4h-2.3v14.9c0,1.8,0.1,2.9,0.3,3.1c0.2,0.2,1,0.3,2.3,0.3v4.5H110c-1.9,0-3.3-0.1-4.1-0.2
			c-0.8-0.2-1.5-0.5-2.2-1.1c-0.6-0.6-1-1.2-1.2-2s-0.2-2.5-0.2-5.3V45.3h-1.8v-4.4h1.8v-4.4L110.8,36.5L110.8,36.5z"/>
		<path d="M116.2,34.1h6.6c4.2,0,7.1,0.2,8.6,0.6c1.5,0.4,2.6,1,3.4,1.9c0.8,0.9,1.3,1.9,1.5,3s0.3,3.3,0.3,6.5V58
			c0,3.1-0.1,5.1-0.4,6.1c-0.3,1-0.8,1.8-1.5,2.4s-1.6,1-2.6,1.2s-2.6,0.3-4.7,0.3h-11.1L116.2,34.1L116.2,34.1z M125,39.9v22.4
			c1.3,0,2-0.3,2.3-0.8s0.4-1.9,0.4-4.2V44.1c0-1.5,0-2.5-0.1-3c-0.1-0.4-0.3-0.8-0.7-1S126,39.9,125,39.9z"/>
		<path d="M168,34.1v34.1h-7.7v-23l-3.1,23h-5.4l-3.2-22.5v22.5h-7.7V34.1h11.4c0.3,2,0.7,4.5,1,7.2l1.2,8.7l2-15.9L168,34.1
			L168,34.1z"/>
	</g>
</g>
</svg>
