<?xml version="1.0" encoding="utf-8"?>
<!-- Generator: Adobe Illustrator 24.1.0, SVG Export Plug-In . SVG Version: 6.00 Build 0)  -->
<svg version="1.1" id="Capa_1" xmlns="http://www.w3.org/2000/svg" xmlns:xlink="http://www.w3.org/1999/xlink" x="0px" y="0px"
	 viewBox="0 0 463.8 547.8" style="enable-background:new 0 0 463.8 547.8;" xml:space="preserve">
<style type="text/css">
	.st0{fill:#F4F9F9;stroke:#8FB5BC;stroke-miterlimit:10;}
	.st1{fill:#FFFFFF;stroke:#8FB5BC;stroke-miterlimit:10;}
	.st2{fill:#FFFFFF;stroke:#FF2A2A;stroke-miterlimit:10;}
	.st3{fill:#FF2A2A;}
	.st4{fill:none;stroke:#FF2A2A;stroke-miterlimit:10;}
	.st5{enable-background:new    ;}
</style>
<g>
	<g>
		<path class="st0" d="M54.6,70.5c-27.5,23.1-46.7,57-52.7,93.1C-0.6,178.7,1.5,190.9,4,205c0.5,2.6,0.9,5.4,1.4,8.2
			c1.8,10.9,1,21.9,0.3,32.5c-0.5,7-1,14.3-0.7,21.3c0.9,24,11.7,47.3,31.9,69.6c5.5,6.2,11.9,11.5,18,16.8c3.2,2.8,6.5,5.6,9.7,8.5
			c4.1,3.9,7.4,8.2,10.6,12.4c4.2,5.7,8.3,11.1,14.2,15c6.4,4.3,13.9,7,21.9,9.7c6.4,2.2,13,4.5,19.1,7.8
			c27.7,15,53.6,27.4,89.7,28.2c24.9,0.5,61.1,0.4,88.6-7.8c9.6-2.8,19.3-7.4,29.8-14c26.6-16.7,48.5-34.3,66.9-53.5
			c25.8-27.1,44.3-60.9,52.1-95.4c6.5-28.7,7.6-57.7,3.1-83.6c-3.9-22.4-15.8-39.6-28.4-57.7c-3.1-4.4-6.2-8.9-9.3-13.6
			c-2.8-4.2-5.5-8.5-8.1-12.7c-11.1-17.7-21.6-34.5-39.6-47.3c-23.7-16.8-49.5-28.5-76.7-34.5c-1.1-0.3-2.3-0.4-3.4-0.7
			c-20.8-4.2-40.5-3.5-61.3-2.7c-6.6,0.3-13.5,0.5-20.4,0.6c-3.4,0.1-6.7,0-10-0.1c-8.7-0.2-17-0.4-25,1.7l0,0
			c-1.4,0.4-2.8,0.8-4.1,1.3c-6,2.3-11.9,5.1-17.6,7.8c-7.8,3.7-15.8,7.5-24.5,10.1C98,43.2,72.6,55.6,54.6,70.5z"/>
	</g>
</g>
<g>
	<g>
		<g>
			<path class="st1" d="M369.8,215c-46.7-57.8-157.5-27.8-177.3,41.2c-22.5,78.2,68.3,144.1,135.7,113.7
				c41.6-18.8,67.5-74.5,57.7-120.6C383.2,236.9,378,225.2,369.8,215z"/>
		</g>
	</g>
	<path class="st2" d="M278.6,214.5h-7c0,24.3,8.8,33.5,18.2,41.2c-9.3,7.6-18.2,16.7-18.2,40.4h7c0-21.5,7.6-29.3,16.2-36.3
		c8.6,7.1,16.2,14.9,16.2,36.3h7c0-23.7-8.9-32.8-18.2-40.4c9.4-7.7,18.2-17,18.2-41.2h-7c0,22-7.6,30-16.2,37.2
		C286.2,244.5,278.6,236.5,278.6,214.5z"/>
	<path class="st1" d="M228.7,218.6H225c0,13,4.8,17.9,9.7,22c-4.9,4.1-9.7,8.9-9.7,21.7h3.7c0-11.5,4.1-15.6,8.7-19.4
		c4.6,3.7,8.7,7.9,8.7,19.4h3.7c0-12.7-4.8-17.5-9.7-21.6c5-4.1,9.7-9.1,9.7-22h-3.7c0,11.7-4.1,16.1-8.7,19.9
		C232.8,234.7,228.7,230.3,228.7,218.6z"/>
	<path class="st1" d="M338.3,262.2h-4.4c0,15.3,5.6,21.1,11.4,25.9c-5.9,4.8-11.4,10.5-11.4,25.4h4.4c0-13.5,4.8-18.4,10.2-22.9
		c5.4,4.4,10.2,9.3,10.2,22.9h4.4c0-14.9-5.6-20.6-11.4-25.4c5.9-4.8,11.4-10.7,11.4-25.9h-4.4c0,13.8-4.8,18.9-10.2,23.4
		C343,281.1,338.3,276,338.3,262.2z"/>
	<path class="st1" d="M303,312.7h-2.2c0,7.5,2.7,10.4,5.7,12.8c-2.9,2.4-5.7,5.2-5.7,12.6h2.2c0-6.7,2.4-9.1,5-11.3
		c2.7,2.2,5,4.6,5,11.3h2.2c0-7.4-2.8-10.2-5.7-12.6c2.9-2.4,5.7-5.3,5.7-12.8H313c0,6.8-2.4,9.3-5,11.5
		C305.4,322.1,303,319.6,303,312.7z"/>
	<path class="st1" d="M260.9,311h-3.1c0,10.9,4,15,8.2,18.5c-4.2,3.4-8.2,7.5-8.2,18.1h3.1c0-9.6,3.4-13.1,7.3-16.3
		c3.9,3.2,7.3,6.7,7.3,16.3h3.1c0-10.7-4-14.7-8.2-18.1c4.2-3.5,8.2-7.6,8.2-18.5h-3.1c0,9.9-3.4,13.5-7.3,16.7
		C264.3,324.5,260.9,320.9,260.9,311z"/>
	<polygon class="st3" points="274.9,280.8 278.2,275.3 272.7,275.3 272.7,269.9 267.2,273.2 261.8,269.9 261.8,275.3 256.4,275.3 
		259.7,280.8 256.4,286.3 261.8,286.3 261.8,291.7 267.2,288.4 272.7,291.7 272.7,286.3 278.2,286.3 	"/>
</g>
<polyline class="st4" points="222,464.5 222,280 252,280.4 "/>
<g class="st5">
	<path class="st3" d="M106.1,503.4h-5.5l-0.4-9.2c-0.1-2.2-0.2-4.2-0.2-5.9c0-1.3,0-2.6,0.1-3.7l-3.6,16.4h-5.3l-3.9-16.4
		c0.1,2,0.2,3.8,0.2,5.6c0,1.3,0,2.7-0.1,4.1l-0.4,9.1h-5.4l1.8-23.6h7l3.5,16l3.3-16h7.1L106.1,503.4z"/>
	<path class="st3" d="M124.5,503.4h-4.7l-0.2-2.3c-1.3,1.9-3.1,2.9-5.5,2.9c-1.7,0-2.9-0.5-3.8-1.5s-1.3-2.4-1.3-4.2v-13h5.4v12.3
		c0,0.9,0.1,1.5,0.4,1.9c0.3,0.4,0.7,0.5,1.3,0.5c1.1,0,2.1-0.7,2.9-2.1v-12.5h5.4V503.4z"/>
	<path class="st3" d="M140.1,502.5c-0.7,0.5-1.4,0.8-2.3,1.1s-1.7,0.4-2.6,0.4c-3.9,0-5.9-2.2-5.9-6.5v-8.4h-2.6v-3.7h2.6v-3.9
		l5.4-0.6v4.5h4.1l-0.6,3.7h-3.6v8.3c0,0.8,0.1,1.4,0.4,1.8s0.7,0.5,1.3,0.5c0.6,0,1.3-0.2,1.9-0.6L140.1,502.5z"/>
	<path class="st3" d="M156.1,499.7c0.2,0.3,0.5,0.6,0.9,0.7l-1.1,3.5c-1.1-0.1-2-0.3-2.7-0.7s-1.2-1-1.6-1.9c-1.2,1.8-3,2.7-5.4,2.7
		c-1.8,0-3.2-0.5-4.3-1.6c-1.1-1-1.6-2.4-1.6-4.1c0-2,0.7-3.5,2.2-4.5c1.5-1,3.5-1.6,6.3-1.6h1.8v-0.8c0-1.1-0.2-1.8-0.7-2.2
		c-0.5-0.4-1.2-0.6-2.4-0.6c-0.6,0-1.3,0.1-2.1,0.3c-0.8,0.2-1.7,0.4-2.6,0.7l-1.2-3.5c1.1-0.4,2.3-0.8,3.5-1s2.3-0.3,3.3-0.3
		c2.6,0,4.5,0.5,5.7,1.6c1.2,1.1,1.8,2.7,1.8,4.8v7C155.8,498.8,155.9,499.3,156.1,499.7z M150.5,498.4v-3.2h-1.3
		c-1.2,0-2.1,0.2-2.7,0.6c-0.6,0.4-0.9,1.1-0.9,2c0,0.7,0.2,1.3,0.6,1.7c0.4,0.4,0.9,0.6,1.5,0.6
		C148.9,500.1,149.9,499.6,150.5,498.4z"/>
	<path class="st3" d="M171.3,485.3c1,0.4,1.9,0.9,2.8,1.7l-2.3,3.2c-1.1-0.9-2.3-1.3-3.4-1.3c-1.2,0-2.1,0.4-2.7,1.3
		c-0.6,0.9-0.9,2.3-0.9,4.3c0,1.9,0.3,3.3,0.9,4c0.6,0.8,1.5,1.2,2.7,1.2c0.6,0,1.2-0.1,1.7-0.3s1.1-0.5,1.8-0.9l2.3,3.3
		c-1.8,1.4-3.8,2.1-6.1,2.1c-1.8,0-3.4-0.4-4.8-1.2c-1.3-0.8-2.4-1.9-3.1-3.3c-0.7-1.4-1.1-3.1-1.1-5s0.4-3.6,1.1-5.1
		c0.7-1.5,1.8-2.6,3.1-3.5c1.3-0.8,2.9-1.2,4.7-1.2C169.2,484.8,170.3,484.9,171.3,485.3z"/>
	<path class="st3" d="M181.3,476.7c0.6,0.6,0.9,1.3,0.9,2.2c0,0.9-0.3,1.6-0.9,2.2c-0.6,0.6-1.4,0.9-2.3,0.9c-0.9,0-1.7-0.3-2.3-0.9
		c-0.6-0.6-0.9-1.3-0.9-2.2c0-0.9,0.3-1.6,0.9-2.2c0.6-0.6,1.3-0.9,2.3-0.9C180,475.8,180.7,476.1,181.3,476.7z M181.8,485.3v18.1
		h-5.4v-18.1H181.8z"/>
	<path class="st3" d="M200.3,487.3c1.6,1.7,2.3,4.1,2.3,7.1c0,1.9-0.4,3.6-1.1,5c-0.7,1.4-1.7,2.6-3.1,3.3c-1.3,0.8-2.9,1.2-4.7,1.2
		c-2.7,0-4.9-0.8-6.5-2.5c-1.6-1.7-2.4-4.1-2.4-7.1c0-1.9,0.4-3.6,1.1-5c0.7-1.4,1.7-2.6,3.1-3.3c1.3-0.8,2.9-1.2,4.7-1.2
		C196.6,484.8,198.7,485.6,200.3,487.3z M196.2,475l2.1,4l-8,3.2l-1.5-2.8L196.2,475z M191.3,490.1c-0.5,0.9-0.8,2.3-0.8,4.3
		c0,2,0.3,3.4,0.8,4.3c0.5,0.9,1.4,1.4,2.5,1.4c1.1,0,1.9-0.5,2.4-1.4s0.8-2.3,0.8-4.3c0-2-0.3-3.4-0.8-4.3
		c-0.5-0.9-1.4-1.4-2.5-1.4C192.7,488.7,191.9,489.2,191.3,490.1z"/>
	<path class="st3" d="M218.8,476.7c0.6,0.6,0.9,1.3,0.9,2.2c0,0.9-0.3,1.6-0.9,2.2s-1.4,0.9-2.3,0.9s-1.7-0.3-2.3-0.9
		c-0.6-0.6-0.9-1.3-0.9-2.2c0-0.9,0.3-1.6,0.9-2.2c0.6-0.6,1.3-0.9,2.3-0.9S218.2,476.1,218.8,476.7z M219.3,485.3v18.1h-5.4v-18.1
		H219.3z"/>
	<path class="st3" d="M246.9,486.2c0.9,1,1.3,2.3,1.3,4v13.2h-5.4v-12.3c0-1.6-0.5-2.4-1.5-2.4c-0.6,0-1.1,0.2-1.5,0.6
		c-0.4,0.4-0.8,1-1.3,1.8v12.3h-5.4v-12.3c0-1.6-0.5-2.4-1.5-2.4c-0.5,0-1,0.2-1.5,0.6c-0.4,0.4-0.9,1-1.3,1.8v12.3h-5.4v-18.1h4.7
		l0.4,2.1c0.7-0.9,1.5-1.6,2.3-2c0.8-0.4,1.8-0.7,2.9-0.7c1,0,1.9,0.2,2.6,0.7c0.7,0.5,1.3,1.2,1.6,2.1c0.7-1,1.5-1.7,2.4-2.2
		c0.9-0.5,1.9-0.7,3-0.7C244.9,484.8,246,485.2,246.9,486.2z"/>
	<path class="st3" d="M267.5,487.3c1.1,1.7,1.7,4,1.7,7c0,1.9-0.3,3.5-0.9,5s-1.4,2.6-2.5,3.4s-2.4,1.2-3.8,1.2
		c-1.8,0-3.3-0.6-4.4-1.9v8.3l-5.4,0.6v-25.6h4.7l0.3,2c0.7-0.9,1.5-1.5,2.4-2c0.9-0.4,1.8-0.6,2.8-0.6
		C264.7,484.8,266.4,485.6,267.5,487.3z M263.6,494.4c0-2.1-0.2-3.6-0.7-4.4c-0.5-0.8-1.2-1.2-2.1-1.2c-0.6,0-1.2,0.2-1.7,0.5
		s-1,0.9-1.4,1.6v7.6c0.7,1.1,1.6,1.6,2.8,1.6C262.5,500,263.6,498.1,263.6,494.4z"/>
	<path class="st3" d="M287.7,503.4h-4.7l-0.2-2.3c-1.3,1.9-3.1,2.9-5.5,2.9c-1.7,0-2.9-0.5-3.8-1.5c-0.8-1-1.3-2.4-1.3-4.2v-13h5.4
		v12.3c0,0.9,0.1,1.5,0.4,1.9c0.3,0.4,0.7,0.5,1.3,0.5c1.1,0,2.1-0.7,2.9-2.1v-12.5h5.4V503.4z"/>
	<path class="st3" d="M293.1,502.6c-0.9-0.9-1.3-2.2-1.3-3.8v-20.6l5.4-0.6v21c0,0.7,0.3,1.1,0.9,1.1c0.3,0,0.6-0.1,0.9-0.2l1.1,3.8
		c-1,0.4-2.1,0.6-3.3,0.6C295.2,504,294,503.5,293.1,502.6z"/>
	<path class="st3" d="M312,485.3c1.1,0.4,2.1,0.9,3,1.6l-2,3c-1.5-0.9-3-1.4-4.5-1.4c-0.7,0-1.2,0.1-1.6,0.4c-0.4,0.2-0.6,0.6-0.6,1
		c0,0.3,0.1,0.6,0.3,0.8s0.5,0.4,1,0.7s1.3,0.5,2.4,0.8c1.9,0.5,3.3,1.3,4.2,2.1c0.9,0.9,1.4,2.1,1.4,3.6c0,1.2-0.4,2.3-1.1,3.2
		c-0.7,0.9-1.7,1.6-2.9,2.1c-1.2,0.5-2.6,0.7-4.1,0.7c-1.5,0-2.9-0.2-4.2-0.7c-1.3-0.5-2.4-1.1-3.3-2l2.6-2.9
		c1.5,1.2,3.1,1.8,4.8,1.8c0.8,0,1.5-0.1,1.9-0.4c0.5-0.3,0.7-0.7,0.7-1.3c0-0.4-0.1-0.8-0.3-1c-0.2-0.2-0.5-0.5-1.1-0.7
		c-0.5-0.2-1.3-0.5-2.5-0.8c-1.8-0.5-3.1-1.2-4-2.2c-0.9-0.9-1.3-2.1-1.3-3.5c0-1,0.3-2,0.9-2.8c0.6-0.8,1.5-1.5,2.6-2
		c1.1-0.5,2.4-0.7,3.9-0.7C309.7,484.8,310.9,485,312,485.3z"/>
	<path class="st3" d="M332.8,487.3c1.6,1.7,2.3,4.1,2.3,7.1c0,1.9-0.4,3.6-1.1,5s-1.7,2.6-3.1,3.3c-1.3,0.8-2.9,1.2-4.7,1.2
		c-2.7,0-4.9-0.8-6.5-2.5c-1.6-1.7-2.4-4.1-2.4-7.1c0-1.9,0.4-3.6,1.1-5s1.7-2.6,3.1-3.3c1.3-0.8,2.9-1.2,4.7-1.2
		C329.1,484.8,331.2,485.6,332.8,487.3z M323.8,490.1c-0.5,0.9-0.8,2.3-0.8,4.3c0,2,0.3,3.4,0.8,4.3c0.5,0.9,1.4,1.4,2.5,1.4
		c1.1,0,1.9-0.5,2.4-1.4s0.8-2.3,0.8-4.3c0-2-0.3-3.4-0.8-4.3c-0.5-0.9-1.4-1.4-2.5-1.4C325.2,488.7,324.4,489.2,323.8,490.1z"/>
	<path class="st3" d="M349.9,485.1l-0.9,5.2c-0.7-0.2-1.2-0.2-1.6-0.2c-1.1,0-1.9,0.4-2.4,1.1c-0.6,0.7-1,1.8-1.3,3.3v8.9h-5.4
		v-18.1h4.7l0.4,3.5c0.4-1.2,1-2.2,1.9-2.9s1.8-1.1,2.8-1.1C348.8,484.8,349.4,484.9,349.9,485.1z"/>
	<path class="st3" d="M365.4,499.7c0.2,0.3,0.5,0.6,0.9,0.7l-1.1,3.5c-1.1-0.1-2-0.3-2.7-0.7c-0.7-0.4-1.2-1-1.6-1.9
		c-1.2,1.8-3,2.7-5.4,2.7c-1.8,0-3.2-0.5-4.3-1.6c-1.1-1-1.6-2.4-1.6-4.1c0-2,0.7-3.5,2.2-4.5c1.5-1,3.5-1.6,6.3-1.6h1.8v-0.8
		c0-1.1-0.2-1.8-0.7-2.2s-1.2-0.6-2.4-0.6c-0.6,0-1.3,0.1-2.1,0.3c-0.8,0.2-1.7,0.4-2.6,0.7l-1.2-3.5c1.1-0.4,2.3-0.8,3.5-1
		c1.2-0.2,2.3-0.3,3.3-0.3c2.6,0,4.5,0.5,5.7,1.6c1.2,1.1,1.8,2.7,1.8,4.8v7C365.1,498.8,365.2,499.3,365.4,499.7z M359.8,498.4
		v-3.2h-1.3c-1.2,0-2.1,0.2-2.7,0.6s-0.9,1.1-0.9,2c0,0.7,0.2,1.3,0.6,1.7c0.4,0.4,0.9,0.6,1.5,0.6
		C358.2,500.1,359.2,499.6,359.8,498.4z"/>
</g>
<g class="st5">
	<path class="st3" d="M162,513.2v25.2h-4.8l-0.3-2.1c-1.3,1.8-3,2.7-5.1,2.7c-2.2,0-3.9-0.9-5.1-2.6s-1.8-4.1-1.8-7.1
		c0-1.8,0.3-3.5,0.9-4.9c0.6-1.5,1.5-2.6,2.6-3.4c1.1-0.8,2.4-1.2,3.9-1.2c1.7,0,3.1,0.6,4.3,1.7v-8.9L162,513.2z M156.6,533v-7.8
		c-0.4-0.5-0.9-0.9-1.3-1.2c-0.4-0.2-0.9-0.4-1.5-0.4c-1,0-1.8,0.5-2.4,1.4c-0.6,0.9-0.9,2.4-0.9,4.3c0,2.1,0.3,3.6,0.8,4.4
		c0.5,0.8,1.2,1.3,2.2,1.3C154.7,535,155.8,534.3,156.6,533z"/>
	<path class="st3" d="M181.8,530.9h-11.2c0.2,1.5,0.6,2.6,1.3,3.2s1.6,0.9,2.8,0.9c0.7,0,1.4-0.1,2.1-0.4c0.7-0.3,1.4-0.7,2.2-1.2
		l2.2,3c-2.1,1.7-4.5,2.5-7,2.5c-2.9,0-5.2-0.9-6.7-2.6s-2.3-4-2.3-6.9c0-1.8,0.3-3.5,1-4.9c0.7-1.5,1.6-2.6,2.9-3.5
		c1.3-0.8,2.8-1.3,4.6-1.3c2.6,0,4.6,0.8,6.1,2.4c1.5,1.6,2.2,3.9,2.2,6.8C181.9,529.8,181.9,530.4,181.8,530.9z M176.7,527.5
		c0-2.8-1-4.1-2.9-4.1c-0.9,0-1.6,0.3-2.2,1c-0.5,0.7-0.8,1.8-0.9,3.4h6V527.5z"/>
	<path class="st3" d="M186.1,537.6c-0.9-0.9-1.3-2.2-1.3-3.8v-20.6l5.4-0.6v21c0,0.7,0.3,1.1,0.9,1.1c0.3,0,0.6-0.1,0.9-0.2l1.1,3.8
		c-1,0.4-2.1,0.6-3.3,0.6C188.2,539,187,538.5,186.1,537.6z"/>
	<path class="st3" d="M214.3,520.3c1,0.4,1.9,0.9,2.8,1.7l-2.3,3.2c-1.1-0.9-2.3-1.3-3.4-1.3c-1.2,0-2.1,0.4-2.7,1.3
		c-0.6,0.9-0.9,2.3-0.9,4.3c0,1.9,0.3,3.3,0.9,4c0.6,0.8,1.5,1.2,2.7,1.2c0.6,0,1.2-0.1,1.7-0.3s1.1-0.5,1.8-0.9l2.3,3.3
		c-1.8,1.4-3.8,2.1-6.1,2.1c-1.8,0-3.4-0.4-4.8-1.2c-1.3-0.8-2.4-1.9-3.1-3.3c-0.7-1.4-1.1-3.1-1.1-5s0.4-3.6,1.1-5.1
		c0.7-1.5,1.8-2.6,3.1-3.5c1.3-0.8,2.9-1.2,4.7-1.2C212.2,519.8,213.3,519.9,214.3,520.3z"/>
	<path class="st3" d="M233.7,534.7c0.2,0.3,0.5,0.6,0.9,0.7l-1.1,3.5c-1.1-0.1-2-0.3-2.7-0.7s-1.2-1-1.6-1.9c-1.2,1.8-3,2.7-5.4,2.7
		c-1.8,0-3.2-0.5-4.3-1.6c-1.1-1-1.6-2.4-1.6-4.1c0-2,0.7-3.5,2.2-4.5c1.5-1,3.5-1.6,6.3-1.6h1.8v-0.8c0-1.1-0.2-1.8-0.7-2.2
		c-0.5-0.4-1.2-0.6-2.4-0.6c-0.6,0-1.3,0.1-2.1,0.3c-0.8,0.2-1.7,0.4-2.6,0.7l-1.2-3.5c1.1-0.4,2.3-0.8,3.5-1s2.3-0.3,3.3-0.3
		c2.6,0,4.5,0.5,5.7,1.6c1.2,1.1,1.8,2.7,1.8,4.8v7C233.4,533.8,233.5,534.3,233.7,534.7z M223.8,510l7.4,4.5l-1.5,2.8l-8-3.2
		L223.8,510z M228.1,533.4v-3.2h-1.3c-1.2,0-2.1,0.2-2.7,0.6c-0.6,0.4-0.9,1.1-0.9,2c0,0.7,0.2,1.3,0.6,1.7c0.4,0.4,0.9,0.6,1.5,0.6
		C226.5,535.1,227.4,534.6,228.1,533.4z"/>
	<path class="st3" d="M251.9,521.2c0.9,1,1.3,2.3,1.3,4v13.2h-5.4v-12.3c0-0.9-0.1-1.5-0.4-1.9c-0.3-0.4-0.7-0.5-1.3-0.5
		c-1.1,0-2.1,0.8-3.1,2.3v12.3h-5.4v-18.1h4.7l0.4,2.1c0.8-0.9,1.6-1.6,2.5-2c0.9-0.5,1.9-0.7,3-0.7
		C249.8,519.8,251,520.2,251.9,521.2z"/>
	<path class="st3" d="M268.5,520.3c1,0.4,1.9,0.9,2.8,1.7l-2.3,3.2c-1.1-0.9-2.3-1.3-3.4-1.3c-1.2,0-2.1,0.4-2.7,1.3
		c-0.6,0.9-0.9,2.3-0.9,4.3c0,1.9,0.3,3.3,0.9,4c0.6,0.8,1.5,1.2,2.7,1.2c0.6,0,1.2-0.1,1.7-0.3c0.5-0.2,1.1-0.5,1.8-0.9l2.3,3.3
		c-1.8,1.4-3.8,2.1-6.1,2.1c-1.8,0-3.4-0.4-4.8-1.2c-1.3-0.8-2.4-1.9-3.1-3.3c-0.7-1.4-1.1-3.1-1.1-5s0.4-3.6,1.1-5.1
		c0.7-1.5,1.8-2.6,3.1-3.5c1.3-0.8,2.9-1.2,4.7-1.2C266.4,519.8,267.5,519.9,268.5,520.3z"/>
	<path class="st3" d="M288.5,530.9h-11.2c0.2,1.5,0.6,2.6,1.3,3.2c0.7,0.6,1.6,0.9,2.8,0.9c0.7,0,1.4-0.1,2.1-0.4
		c0.7-0.3,1.4-0.7,2.2-1.2l2.2,3c-2.1,1.7-4.5,2.5-7,2.5c-2.9,0-5.2-0.9-6.7-2.6c-1.6-1.7-2.3-4-2.3-6.9c0-1.8,0.3-3.5,1-4.9
		c0.7-1.5,1.6-2.6,2.9-3.5c1.3-0.8,2.8-1.3,4.6-1.3c2.6,0,4.6,0.8,6.1,2.4c1.5,1.6,2.2,3.9,2.2,6.8
		C288.6,529.8,288.6,530.4,288.5,530.9z M283.4,527.5c0-2.8-1-4.1-2.9-4.1c-0.9,0-1.6,0.3-2.2,1s-0.8,1.8-0.9,3.4h6V527.5z"/>
	<path class="st3" d="M303.3,520.1l-0.9,5.2c-0.7-0.2-1.2-0.2-1.6-0.2c-1.1,0-1.9,0.4-2.4,1.1c-0.6,0.7-1,1.8-1.3,3.3v8.9h-5.4
		v-18.1h4.7l0.4,3.5c0.4-1.2,1-2.2,1.9-2.9s1.8-1.1,2.8-1.1C302.1,519.8,302.7,519.9,303.3,520.1z"/>
</g>
<g class="st5">
	<path class="st3" d="M149.7,67.1l-2.8,3c-0.8-0.6-1.6-1.1-2.3-1.4c-0.7-0.3-1.5-0.4-2.5-0.4c-1.7,0-3.1,0.7-4.2,2.1
		c-1,1.4-1.6,3.5-1.6,6.2c0,3,0.4,5.2,1.2,6.4c0.8,1.3,2,1.9,3.7,1.9c1.2,0,2.2-0.3,3.2-0.8v-5.3h-3.1l-0.5-3.9h9v11.7
		c-1.2,0.8-2.6,1.4-4,1.8c-1.5,0.4-2.9,0.6-4.4,0.6c-3.6,0-6.3-1-8.1-3.1c-1.8-2.1-2.7-5.2-2.7-9.2c0-2.6,0.5-4.8,1.5-6.7
		s2.3-3.3,4-4.2c1.7-1,3.6-1.4,5.8-1.4C144.9,64.3,147.5,65.2,149.7,67.1z"/>
	<path class="st3" d="M169.1,80.9h-11.2c0.2,1.5,0.6,2.6,1.3,3.2s1.6,0.9,2.8,0.9c0.7,0,1.4-0.1,2.1-0.4c0.7-0.3,1.4-0.7,2.2-1.2
		l2.2,3c-2.1,1.7-4.5,2.5-7,2.5c-2.9,0-5.2-0.9-6.7-2.6s-2.3-4-2.3-6.9c0-1.8,0.3-3.5,1-4.9c0.7-1.5,1.6-2.6,2.9-3.5
		c1.3-0.8,2.8-1.3,4.6-1.3c2.6,0,4.6,0.8,6.1,2.4c1.5,1.6,2.2,3.9,2.2,6.8C169.2,79.8,169.2,80.4,169.1,80.9z M163.9,77.5
		c0-2.8-1-4.1-2.9-4.1c-0.9,0-1.6,0.3-2.2,1c-0.5,0.7-0.8,1.8-0.9,3.4h6V77.5z"/>
	<path class="st3" d="M186.5,71.2c0.9,1,1.3,2.3,1.3,4v13.2h-5.4V76.1c0-0.9-0.1-1.5-0.4-1.9c-0.3-0.4-0.7-0.5-1.3-0.5
		c-1.1,0-2.1,0.8-3.1,2.3v12.3h-5.4V70.3h4.7l0.4,2.1c0.8-0.9,1.6-1.6,2.5-2c0.9-0.5,1.9-0.7,3-0.7
		C184.4,69.8,185.6,70.2,186.5,71.2z"/>
	<path class="st3" d="M204.9,61.7c0.6,0.6,0.9,1.3,0.9,2.2c0,0.9-0.3,1.6-0.9,2.2c-0.6,0.6-1.4,0.9-2.3,0.9c-0.9,0-1.7-0.3-2.3-0.9
		c-0.6-0.6-0.9-1.3-0.9-2.2c0-0.9,0.3-1.6,0.9-2.2c0.6-0.6,1.3-0.9,2.3-0.9C203.5,60.8,204.3,61.1,204.9,61.7z M205.3,70.3v18.1
		h-5.4V70.3H205.3z"/>
	<path class="st3" d="M232.9,71.2c0.9,1,1.3,2.3,1.3,4v13.2h-5.4V76.1c0-1.6-0.5-2.4-1.5-2.4c-0.6,0-1.1,0.2-1.5,0.6
		c-0.4,0.4-0.9,1-1.3,1.8v12.3h-5.4V76.1c0-1.6-0.5-2.4-1.5-2.4c-0.5,0-1,0.2-1.5,0.6s-0.9,1-1.3,1.8v12.3h-5.4V70.3h4.7l0.4,2.1
		c0.7-0.9,1.5-1.6,2.3-2c0.9-0.4,1.8-0.7,2.9-0.7c1,0,1.9,0.2,2.6,0.7c0.7,0.5,1.3,1.2,1.6,2.1c0.7-1,1.5-1.7,2.4-2.2
		c0.9-0.5,1.9-0.7,3-0.7C230.9,69.8,232,70.2,232.9,71.2z"/>
	<path class="st3" d="M253.5,72.3c1.1,1.7,1.7,4,1.7,7c0,1.9-0.3,3.5-0.9,5c-0.6,1.5-1.4,2.6-2.5,3.4c-1.1,0.8-2.4,1.2-3.8,1.2
		c-1.8,0-3.3-0.6-4.4-1.9v8.3l-5.4,0.6V70.3h4.7l0.3,2c0.7-0.9,1.5-1.5,2.4-2c0.9-0.4,1.8-0.6,2.8-0.6
		C250.7,69.8,252.4,70.6,253.5,72.3z M249.6,79.4c0-2.1-0.2-3.6-0.7-4.4c-0.5-0.8-1.2-1.2-2.1-1.2c-0.6,0-1.2,0.2-1.7,0.5
		c-0.5,0.4-1,0.9-1.4,1.6v7.6c0.7,1.1,1.6,1.6,2.8,1.6C248.5,85,249.6,83.1,249.6,79.4z"/>
	<path class="st3" d="M273.8,88.4h-4.7l-0.2-2.3c-1.3,1.9-3.1,2.9-5.5,2.9c-1.7,0-2.9-0.5-3.8-1.5c-0.8-1-1.3-2.4-1.3-4.2v-13h5.4
		v12.3c0,0.9,0.1,1.5,0.4,1.9c0.3,0.4,0.7,0.5,1.3,0.5c1.1,0,2.1-0.7,2.9-2.1V70.3h5.4V88.4z"/>
	<path class="st3" d="M279.1,87.6c-0.9-0.9-1.3-2.2-1.3-3.8V63.2l5.4-0.6v21c0,0.7,0.3,1.1,0.9,1.1c0.3,0,0.6-0.1,0.9-0.2l1.1,3.8
		c-1,0.4-2.1,0.6-3.3,0.6C281.2,89,280,88.5,279.1,87.6z"/>
	<path class="st3" d="M298.1,70.3c1.1,0.4,2.1,0.9,3,1.6l-2,3c-1.5-0.9-3-1.4-4.5-1.4c-0.7,0-1.2,0.1-1.6,0.4
		c-0.4,0.2-0.6,0.6-0.6,1c0,0.3,0.1,0.6,0.3,0.8s0.5,0.4,1,0.7s1.3,0.5,2.4,0.8c1.9,0.5,3.3,1.3,4.2,2.1c0.9,0.9,1.4,2.1,1.4,3.6
		c0,1.2-0.4,2.3-1.1,3.2c-0.7,0.9-1.7,1.6-2.9,2.1c-1.2,0.5-2.6,0.7-4.1,0.7c-1.5,0-2.9-0.2-4.2-0.7c-1.3-0.5-2.4-1.1-3.3-2l2.6-2.9
		c1.5,1.2,3.1,1.8,4.8,1.8c0.8,0,1.5-0.1,1.9-0.4c0.5-0.3,0.7-0.7,0.7-1.3c0-0.4-0.1-0.8-0.3-1c-0.2-0.2-0.5-0.5-1.1-0.7
		c-0.5-0.2-1.3-0.5-2.5-0.8c-1.8-0.5-3.1-1.2-4-2.2c-0.9-0.9-1.3-2.1-1.3-3.5c0-1,0.3-2,0.9-2.8c0.6-0.8,1.5-1.5,2.6-2
		c1.1-0.5,2.4-0.7,3.9-0.7C295.7,69.8,296.9,70,298.1,70.3z"/>
	<path class="st3" d="M318.8,72.3c1.6,1.7,2.3,4.1,2.3,7.1c0,1.9-0.4,3.6-1.1,5s-1.7,2.6-3.1,3.3c-1.3,0.8-2.9,1.2-4.7,1.2
		c-2.7,0-4.9-0.8-6.5-2.5c-1.6-1.7-2.4-4.1-2.4-7.1c0-1.9,0.4-3.6,1.1-5s1.7-2.6,3.1-3.3c1.3-0.8,2.9-1.2,4.7-1.2
		C315.1,69.8,317.2,70.6,318.8,72.3z M309.9,75.1c-0.5,0.9-0.8,2.3-0.8,4.3c0,2,0.3,3.4,0.8,4.3c0.5,0.9,1.4,1.4,2.5,1.4
		c1.1,0,1.9-0.5,2.4-1.4s0.8-2.3,0.8-4.3c0-2-0.3-3.4-0.8-4.3c-0.5-0.9-1.4-1.4-2.5-1.4C311.2,73.7,310.4,74.2,309.9,75.1z"/>
	<path class="st3" d="M335.9,70.1l-0.9,5.2c-0.7-0.2-1.2-0.2-1.6-0.2c-1.1,0-1.9,0.4-2.4,1.1c-0.6,0.7-1,1.8-1.3,3.3v8.9h-5.4V70.3
		h4.7l0.4,3.5c0.4-1.2,1-2.2,1.9-2.9s1.8-1.1,2.8-1.1C334.8,69.8,335.4,69.9,335.9,70.1z"/>
</g>
<g class="st5">
	<path class="st3" d="M169.9,98.2v25.2h-4.8l-0.3-2.1c-1.3,1.8-3,2.7-5.1,2.7c-2.2,0-3.9-0.9-5.1-2.6s-1.8-4.1-1.8-7.1
		c0-1.8,0.3-3.5,0.9-4.9c0.6-1.5,1.5-2.6,2.6-3.4c1.1-0.8,2.4-1.2,3.9-1.2c1.7,0,3.1,0.6,4.3,1.7v-8.9L169.9,98.2z M164.6,118v-7.8
		c-0.4-0.5-0.9-0.9-1.3-1.2c-0.4-0.2-0.9-0.4-1.5-0.4c-1,0-1.8,0.5-2.4,1.4c-0.6,0.9-0.9,2.4-0.9,4.3c0,2.1,0.3,3.6,0.8,4.4
		c0.5,0.8,1.2,1.3,2.2,1.3C162.7,120,163.7,119.3,164.6,118z"/>
	<path class="st3" d="M189.8,115.9h-11.2c0.2,1.5,0.6,2.6,1.3,3.2s1.6,0.9,2.8,0.9c0.7,0,1.4-0.1,2.1-0.4c0.7-0.3,1.4-0.7,2.2-1.2
		l2.2,3c-2.1,1.7-4.5,2.5-7,2.5c-2.9,0-5.2-0.9-6.7-2.6s-2.3-4-2.3-6.9c0-1.8,0.3-3.5,1-4.9c0.7-1.5,1.6-2.6,2.9-3.5
		c1.3-0.8,2.8-1.3,4.6-1.3c2.6,0,4.6,0.8,6.1,2.4c1.5,1.6,2.2,3.9,2.2,6.8C189.9,114.8,189.8,115.4,189.8,115.9z M184.6,112.5
		c0-2.8-1-4.1-2.9-4.1c-0.9,0-1.6,0.3-2.2,1c-0.5,0.7-0.8,1.8-0.9,3.4h6V112.5z"/>
	<path class="st3" d="M194,122.6c-0.9-0.9-1.3-2.2-1.3-3.8V98.2l5.4-0.6v21c0,0.7,0.3,1.1,0.9,1.1c0.3,0,0.6-0.1,0.9-0.2l1.1,3.8
		c-1,0.4-2.1,0.6-3.3,0.6C196.1,124,194.9,123.5,194,122.6z"/>
	<path class="st3" d="M222.2,105.3c1,0.4,1.9,0.9,2.8,1.7l-2.3,3.2c-1.1-0.9-2.3-1.3-3.4-1.3c-1.2,0-2.1,0.4-2.7,1.3
		c-0.6,0.9-0.9,2.3-0.9,4.3c0,1.9,0.3,3.3,0.9,4c0.6,0.8,1.5,1.2,2.7,1.2c0.6,0,1.2-0.1,1.7-0.3s1.1-0.5,1.8-0.9l2.3,3.3
		c-1.8,1.4-3.8,2.1-6.1,2.1c-1.8,0-3.4-0.4-4.8-1.2c-1.3-0.8-2.4-1.9-3.1-3.3c-0.7-1.4-1.1-3.1-1.1-5s0.4-3.6,1.1-5.1
		c0.7-1.5,1.8-2.6,3.1-3.5c1.3-0.8,2.9-1.2,4.7-1.2C220.1,104.8,221.3,104.9,222.2,105.3z"/>
	<path class="st3" d="M241.6,119.7c0.2,0.3,0.5,0.6,0.9,0.7l-1.1,3.5c-1.1-0.1-2-0.3-2.7-0.7c-0.7-0.4-1.2-1-1.6-1.9
		c-1.2,1.8-3,2.7-5.4,2.7c-1.8,0-3.2-0.5-4.3-1.6c-1.1-1-1.6-2.4-1.6-4.1c0-2,0.7-3.5,2.2-4.5c1.5-1,3.5-1.6,6.3-1.6h1.8v-0.8
		c0-1.1-0.2-1.8-0.7-2.2s-1.2-0.6-2.4-0.6c-0.6,0-1.3,0.1-2.1,0.3c-0.8,0.2-1.7,0.4-2.6,0.7l-1.2-3.5c1.1-0.4,2.3-0.8,3.5-1
		s2.3-0.3,3.3-0.3c2.6,0,4.5,0.5,5.7,1.6c1.2,1.1,1.8,2.7,1.8,4.8v7C241.4,118.8,241.5,119.3,241.6,119.7z M231.8,95l7.4,4.5
		l-1.5,2.8l-8-3.2L231.8,95z M236.1,118.4v-3.2h-1.3c-1.2,0-2.1,0.2-2.7,0.6s-0.9,1.1-0.9,2c0,0.7,0.2,1.3,0.6,1.7
		c0.4,0.4,0.9,0.6,1.5,0.6C234.5,120.1,235.4,119.6,236.1,118.4z"/>
	<path class="st3" d="M259.9,106.2c0.9,1,1.3,2.3,1.3,4v13.2h-5.4v-12.3c0-0.9-0.1-1.5-0.4-1.9c-0.3-0.4-0.7-0.5-1.3-0.5
		c-1.1,0-2.1,0.8-3.1,2.3v12.3h-5.4v-18.1h4.7l0.4,2.1c0.8-0.9,1.6-1.6,2.5-2c0.9-0.5,1.9-0.7,3-0.7
		C257.8,104.8,259,105.2,259.9,106.2z"/>
	<path class="st3" d="M276.4,105.3c1,0.4,1.9,0.9,2.8,1.7l-2.3,3.2c-1.1-0.9-2.3-1.3-3.4-1.3c-1.2,0-2.1,0.4-2.7,1.3
		c-0.6,0.9-0.9,2.3-0.9,4.3c0,1.9,0.3,3.3,0.9,4c0.6,0.8,1.5,1.2,2.7,1.2c0.6,0,1.2-0.1,1.7-0.3c0.5-0.2,1.1-0.5,1.8-0.9l2.3,3.3
		c-1.8,1.4-3.8,2.1-6.1,2.1c-1.8,0-3.4-0.4-4.8-1.2c-1.3-0.8-2.4-1.9-3.1-3.3c-0.7-1.4-1.1-3.1-1.1-5s0.4-3.6,1.1-5.1
		c0.7-1.5,1.8-2.6,3.1-3.5c1.3-0.8,2.9-1.2,4.7-1.2C274.3,104.8,275.4,104.9,276.4,105.3z"/>
	<path class="st3" d="M296.5,115.9h-11.2c0.2,1.5,0.6,2.6,1.3,3.2c0.7,0.6,1.6,0.9,2.8,0.9c0.7,0,1.4-0.1,2.1-0.4
		c0.7-0.3,1.4-0.7,2.2-1.2l2.2,3c-2.1,1.7-4.5,2.5-7,2.5c-2.9,0-5.2-0.9-6.7-2.6c-1.6-1.7-2.3-4-2.3-6.9c0-1.8,0.3-3.5,1-4.9
		c0.7-1.5,1.6-2.6,2.9-3.5c1.3-0.8,2.8-1.3,4.6-1.3c2.6,0,4.6,0.8,6.1,2.4c1.5,1.6,2.2,3.9,2.2,6.8
		C296.6,114.8,296.6,115.4,296.5,115.9z M291.3,112.5c0-2.8-1-4.1-2.9-4.1c-0.9,0-1.6,0.3-2.2,1s-0.8,1.8-0.9,3.4h6V112.5z"/>
	<path class="st3" d="M311.2,105.1l-0.9,5.2c-0.7-0.2-1.2-0.2-1.6-0.2c-1.1,0-1.9,0.4-2.4,1.1c-0.6,0.7-1,1.8-1.3,3.3v8.9h-5.4
		v-18.1h4.7l0.4,3.5c0.4-1.2,1-2.2,1.9-2.9s1.8-1.1,2.8-1.1C310.1,104.8,310.7,104.9,311.2,105.1z"/>
</g>
<line class="st4" x1="327.9" y1="107.9" x2="327.9" y2="218.3"/>
</svg>
