<?xml version="1.0" encoding="utf-8"?>
<!-- Generator: Adobe Illustrator 24.1.0, SVG Export Plug-In . SVG Version: 6.00 Build 0)  -->
<svg version="1.1" id="Capa_1" xmlns="http://www.w3.org/2000/svg" xmlns:xlink="http://www.w3.org/1999/xlink" x="0px" y="0px"
	 viewBox="0 0 463.8 547.8" style="enable-background:new 0 0 463.8 547.8;" xml:space="preserve">
<style type="text/css">
	.st0{fill:#F4F9F9;stroke:#8FB5BC;stroke-miterlimit:10;}
	.st1{fill:#FF2A2A;}
	.st2{font-family:'FiraSans-Bold';}
	.st3{font-size:34px;}
	.st4{fill:#FFFFFF;stroke:#8FB5BC;stroke-miterlimit:10;}
	.st5{fill:#FFFFFF;stroke:#FF2A2A;stroke-miterlimit:10;}
	.st6{fill:none;stroke:#FF2A2A;stroke-miterlimit:10;}
</style>
<g>
	<g>
		<path class="st0" d="M54.6,70.5c-27.5,23.1-46.7,57-52.7,93.1C-0.6,178.7,1.5,190.9,4,205c0.5,2.6,0.9,5.4,1.4,8.2
			c1.8,10.9,1,21.9,0.3,32.5c-0.5,7-1,14.3-0.7,21.3c0.9,24,11.7,47.3,31.9,69.6c5.5,6.2,11.9,11.5,18,16.8c3.2,2.8,6.5,5.6,9.7,8.5
			c4.1,3.9,7.4,8.2,10.6,12.4c4.2,5.7,8.3,11.1,14.2,15c6.4,4.3,13.9,7,21.9,9.7c6.4,2.2,13,4.5,19.1,7.8
			c27.7,15,53.6,27.4,89.7,28.2c24.9,0.5,61.1,0.4,88.6-7.8c9.6-2.8,19.3-7.4,29.8-14c26.6-16.7,48.5-34.3,66.9-53.5
			c25.8-27.1,44.3-60.9,52.1-95.4c6.5-28.7,7.6-57.7,3.1-83.6c-3.9-22.4-15.8-39.6-28.4-57.7c-3.1-4.4-6.2-8.9-9.3-13.6
			c-2.8-4.2-5.5-8.5-8.1-12.7c-11.1-17.7-21.6-34.5-39.6-47.3c-23.7-16.8-49.5-28.5-76.7-34.5c-1.1-0.3-2.3-0.4-3.4-0.7
			c-20.8-4.2-40.5-3.5-61.3-2.7c-6.6,0.3-13.5,0.5-20.4,0.6c-3.4,0.1-6.7,0-10-0.1c-8.7-0.2-17-0.4-25,1.7l0,0
			c-1.4,0.4-2.8,0.8-4.1,1.3c-6,2.3-11.9,5.1-17.6,7.8c-7.8,3.7-15.8,7.5-24.5,10.1C98,43.2,72.6,55.6,54.6,70.5z"/>
	</g>
</g>
<text transform="matrix(1 0 0 1 80.4746 503.3926)" class="st1 st2 st3">Mutació impulsora</text>
<text transform="matrix(1 0 0 1 143.6746 538.3926)" class="st1 st2 st3">del càncer</text>
<text transform="matrix(1 0 0 1 129.4307 88.3926)" class="st1 st2 st3">Gen impulsor</text>
<text transform="matrix(1 0 0 1 151.6307 123.3926)" class="st1 st2 st3">del càncer</text>
<g>
	<g>
		<g>
			<path class="st4" d="M369.8,215c-46.7-57.8-157.5-27.8-177.3,41.2c-22.5,78.2,68.3,144.1,135.7,113.7
				c41.6-18.8,67.5-74.5,57.7-120.6C383.2,236.9,378,225.2,369.8,215z"/>
		</g>
	</g>
	<path class="st5" d="M278.6,214.5h-7c0,24.3,8.8,33.5,18.2,41.2c-9.3,7.6-18.2,16.7-18.2,40.4h7c0-21.5,7.6-29.3,16.2-36.3
		c8.6,7.1,16.2,14.9,16.2,36.3h7c0-23.7-8.9-32.8-18.2-40.4c9.4-7.7,18.2-17,18.2-41.2h-7c0,22-7.6,30-16.2,37.2
		C286.2,244.5,278.6,236.5,278.6,214.5z"/>
	<path class="st4" d="M228.7,218.6H225c0,13,4.8,17.9,9.7,22c-4.9,4.1-9.7,8.9-9.7,21.7h3.7c0-11.5,4.1-15.6,8.7-19.4
		c4.6,3.7,8.7,7.9,8.7,19.4h3.7c0-12.7-4.8-17.5-9.7-21.6c5-4.1,9.7-9.1,9.7-22h-3.7c0,11.7-4.1,16.1-8.7,19.9
		C232.8,234.7,228.7,230.3,228.7,218.6z"/>
	<path class="st4" d="M338.3,262.2h-4.4c0,15.3,5.6,21.1,11.4,25.9c-5.9,4.8-11.4,10.5-11.4,25.4h4.4c0-13.5,4.8-18.4,10.2-22.9
		c5.4,4.4,10.2,9.3,10.2,22.9h4.4c0-14.9-5.6-20.6-11.4-25.4c5.9-4.8,11.4-10.7,11.4-25.9h-4.4c0,13.8-4.8,18.9-10.2,23.4
		C343,281.1,338.3,276,338.3,262.2z"/>
	<path class="st4" d="M303,312.7h-2.2c0,7.5,2.7,10.4,5.7,12.8c-2.9,2.4-5.7,5.2-5.7,12.6h2.2c0-6.7,2.4-9.1,5-11.3
		c2.7,2.2,5,4.6,5,11.3h2.2c0-7.4-2.8-10.2-5.7-12.6c2.9-2.4,5.7-5.3,5.7-12.8H313c0,6.8-2.4,9.3-5,11.5
		C305.4,322.1,303,319.6,303,312.7z"/>
	<path class="st4" d="M260.9,311h-3.1c0,10.9,4,15,8.2,18.5c-4.2,3.4-8.2,7.5-8.2,18.1h3.1c0-9.6,3.4-13.1,7.3-16.3
		c3.9,3.2,7.3,6.7,7.3,16.3h3.1c0-10.7-4-14.7-8.2-18.1c4.2-3.5,8.2-7.6,8.2-18.5h-3.1c0,9.9-3.4,13.5-7.3,16.7
		C264.3,324.5,260.9,320.9,260.9,311z"/>
	<polygon class="st1" points="274.9,280.8 278.2,275.3 272.7,275.3 272.7,269.9 267.2,273.2 261.8,269.9 261.8,275.3 256.4,275.3 
		259.7,280.8 256.4,286.3 261.8,286.3 261.8,291.7 267.2,288.4 272.7,291.7 272.7,286.3 278.2,286.3 	"/>
</g>
<polyline class="st6" points="222,464.5 222,280 252,280.4 "/>
<polyline class="st6" points="327.9,107.9 327.9,218.3 317.9,218.3 "/>
</svg>
