<?xml version="1.0" encoding="utf-8"?>
<!-- Generator: Adobe Illustrator 24.1.0, SVG Export Plug-In . SVG Version: 6.00 Build 0)  -->
<svg version="1.1" id="Capa_1" xmlns="http://www.w3.org/2000/svg" xmlns:xlink="http://www.w3.org/1999/xlink" x="0px" y="0px"
	 viewBox="0 0 467.2 465.7" style="enable-background:new 0 0 467.2 465.7;" xml:space="preserve">
<style type="text/css">
	.st0{fill:#C0D9DF;}
	.st1{fill:none;stroke:#C0D9DF;stroke-miterlimit:10;}
	.st2{opacity:0.75;fill:none;stroke:#CC6633;stroke-miterlimit:10;}
	.st3{fill:#CC6633;}
</style>
<g>
	<g>
		<path class="st0" d="M467.2,205.6c0,2.5,0,4.9,0,7.3C467.3,210.5,467.3,208,467.2,205.6z"/>
	</g>
</g>
<path class="st1" d="M374.2,58c-7.6-4.8-14.2-10.8-20.6-16.5c-4.7-4.2-9.6-8.6-14.7-12.4c-1.1-0.8-2.3-1.6-3.6-2.3l0,0
	c-7.1-4.1-15-5.8-23.5-7.6c-3.2-0.7-6.4-1.4-9.6-2.2c-6.6-1.7-13.1-3.6-19.3-5.4C263.3,5.8,244.7,0.4,223.7,0c-1.2,0-2.3,0-3.5,0
	c-27.6,0-55.4,6.2-82.6,18.5c-20.7,9.4-35.3,24.6-50.8,40.7c-3.7,3.8-7.4,7.7-11.2,11.5c-4.2,4.2-8.4,8.2-12.6,12.2
	c-17,16.2-33.1,31.5-42.9,54.3c-11.3,26.3-18.2,57.1-19.8,89c-2,38.3,6.4,78.4,23.7,113.1c12.3,24.7,28.4,48.3,49.2,72.2
	c8.2,9.4,16.3,16.5,24.7,21.8c24,15.1,58.6,23.9,82.4,29.1c34.7,7.6,62.8,0.6,93.3-8.7c6.7-2,13.6-2.9,20.4-3.7c8.3-1,16.2-2,23.6-5
	c6.7-2.7,12-7.5,17.7-12.4c4.2-3.7,8.5-7.5,13.5-10.6c3.8-2.3,7.7-4.5,11.6-6.7c7.3-4.1,14.9-8.4,21.8-13.5c25.4-18.8,42-41,49.5-66
	c2.2-7.4,3.7-15.2,5.2-22.7c2.2-11.4,4.5-23.2,9.2-34.2c1.2-2.9,2.4-5.6,3.6-8.3c6.2-14.3,11.6-26.6,13.3-43.2
	c4.1-39.5-5-79.8-24.9-110.7C424.9,96,404,76.9,374.2,58z"/>
<path class="st2" d="M85.1,110.7c-4.4,4.9-9.5,9-14.4,13c-3.6,2.9-7.4,5.9-10.7,9.2c-0.7,0.7-1.4,1.5-2.1,2.3l0,0
	c-3.8,4.7-6,10.2-8.3,16.1c-0.9,2.2-1.8,4.5-2.7,6.7c-2,4.6-4.1,9.1-6.2,13.4C34.3,185,28.2,197.8,25.5,213
	c-0.1,0.9-0.3,1.7-0.4,2.5c-3.2,20-2,40.9,3.7,62c4.4,16.1,13.7,28.5,23.5,41.6c2.3,3.1,4.7,6.3,7,9.5c2.6,3.5,5,7,7.4,10.6
	c9.7,14.2,18.9,27.7,34.3,37.4c17.7,11.3,39.2,19.9,62.2,24.8c27.5,5.9,57.6,4.5,84.7-3.9c19.3-6,38.3-14.9,58.1-27.2
	c7.8-4.8,13.9-9.9,18.7-15.3c13.8-15.6,24.2-39.7,30.7-56.3c9.6-24.3,7.8-45.4,4.6-68.6c-0.7-5.1-0.5-10.2-0.3-15.2
	c0.2-6.1,0.4-12-0.9-17.7c-1.2-5.2-4-9.6-6.9-14.3c-2.2-3.5-4.4-7-6.1-11c-1.2-3-2.4-6.1-3.5-9.2c-2.1-5.8-4.3-11.8-7.2-17.4
	c-10.6-20.6-24.8-35.2-42-43.6c-5.1-2.5-10.6-4.5-15.8-6.4c-8-2.9-16.3-6-23.7-10.7c-2-1.2-3.8-2.4-5.6-3.6
	c-9.6-6.2-17.9-11.5-29.7-14.7c-28.1-7.6-58.4-5.7-83.1,5.1C118.6,78.5,102.3,91.4,85.1,110.7z"/>
<path class="st3" d="M278,159.9c-51.8-64.1-174.2-30.8-196.2,45.7c-24.9,86.7,75.5,159.8,150,126c45.9-20.8,74.7-82.5,63.8-133.8
	C292.8,184.1,287.1,171.1,278,159.9z"/>
</svg>
