<?xml version="1.0" encoding="utf-8"?>
<!-- Generator: Adobe Illustrator 24.1.0, SVG Export Plug-In . SVG Version: 6.00 Build 0)  -->
<svg version="1.1" id="Capa_1" xmlns="http://www.w3.org/2000/svg" xmlns:xlink="http://www.w3.org/1999/xlink" x="0px" y="0px"
	 viewBox="0 0 463.8 547.8" style="enable-background:new 0 0 463.8 547.8;" xml:space="preserve">
<style type="text/css">
	.st0{fill:#FFFFFF;stroke:#8FB5BC;stroke-width:1.5065;stroke-miterlimit:10;}
	.st1{fill:#FF2A2A;}
	.st2{fill:none;stroke:#FF2A2A;stroke-miterlimit:10;}
	.st3{enable-background:new    ;}
</style>
<g>
	<g>
		<path class="st0" d="M395.8,184.1c-10.4-16.1-26.8-31-50.3-46.1c-6-3.8-11.1-8.4-16.3-13c-3.6-3.3-7.5-6.8-11.6-9.8
			c-0.9-0.6-2-1.2-2.9-2l0,0c-5.6-3.3-11.9-4.7-18.4-6c-2.6-0.5-5-1.1-7.5-1.8c-5.3-1.4-10.2-2.9-15.2-4.2
			c-15.5-4.5-30.1-8.7-46.7-9c-0.9,0-1.8,0-2.7,0c-21.8,0-43.7,5-65.1,14.6c-16.3,7.4-27.9,19.4-39.9,32.1c-2.9,3-5.7,6-8.7,9
			c-3.3,3.3-6.6,6.5-9.9,9.6c-13.4,12.8-26.1,24.9-33.7,42.8c-8.9,20.8-14.3,45-15.7,70.2c-1.5,30.1,5,61.8,18.7,89
			c9.6,19.4,22.3,38,38.7,56.8c6.5,7.4,12.8,13,19.4,17.2c19,11.9,46.1,18.7,64.9,22.9c27.3,6,49.4,0.5,73.5-6.8
			c5.3-1.5,10.8-2.3,16-2.9c6.6-0.9,12.8-1.5,18.5-3.9c5.3-2.3,9.5-5.9,13.9-9.8c3.3-2.9,6.6-6,10.7-8.4c3-2,6-3.6,9-5.3
			c5.7-3.3,11.8-6.6,17.2-10.7c20-14.8,33.1-32.2,39-52c1.7-5.7,2.9-11.9,4.1-17.9c1.8-9,3.6-18.2,7.2-27c0.9-2.3,2-4.4,2.9-6.6
			c5-11.1,9-20.9,10.4-34C418.5,240,411.3,208.3,395.8,184.1z"/>
		<g>
			<path class="st0" d="M271.3,160c-44.1-53-148.4-25.6-167.1,38C83,269.8,168.6,330.2,232.2,302.3c39.2-17.3,63.7-68.4,54.4-110.7
				C284,180.2,279.2,169.3,271.3,160z"/>
			<g>
				<path class="st0" d="M196.2,172.6h-9.8c0,40.4,12.4,40.8,25.6,53.6c-13.1,12.7-25.6,12.7-25.6,52.3h9.8
					c0-35.7,10.7-33.7,22.9-45.5c12.2,11.8,22.9,9.6,22.9,45.5h9.8c0-39.6-12.5-39.5-25.6-52.3c13.1-12.8,25.6-13.3,25.6-53.6H242
					c0,36.6-10.7,35-22.9,46.9C206.9,207.6,196.2,209.2,196.2,172.6z"/>
				<polygon class="st1" points="251,235.3 244.7,231.5 244.7,237.7 238.5,237.7 242.3,244 238.5,250.2 244.7,250.2 244.7,256.5 
					251,252.8 257.2,256.5 257.2,250.2 263.4,250.2 259.6,244 263.4,237.7 257.2,237.7 257.2,231.5 				"/>
			</g>
		</g>
		<g>
			<circle class="st0" cx="335.1" cy="363" r="13.4"/>
			<circle class="st0" cx="269.1" cy="318" r="13.4"/>
			<circle class="st0" cx="238.5" cy="402.2" r="13.4"/>
			<circle class="st0" cx="289.1" cy="325.1" r="13.4"/>
			<circle class="st0" cx="214.7" cy="410.9" r="13.4"/>
			<circle class="st0" cx="307.3" cy="340" r="13.4"/>
			<circle class="st0" cx="262.5" cy="374.8" r="13.4"/>
			<circle class="st0" cx="316.7" cy="380.4" r="13.4"/>
			<circle class="st0" cx="288.5" cy="346.6" r="13.4"/>
			<circle class="st0" cx="284.9" cy="365.3" r="13.4"/>
			<circle class="st0" cx="263.5" cy="399.3" r="13.4"/>
			<circle class="st0" cx="296.8" cy="388.2" r="13.4"/>
			<circle class="st0" cx="276" cy="386.7" r="13.4"/>
			<circle class="st1" cx="338.5" cy="382.8" r="13.4"/>
		</g>
	</g>
	<path class="st0" d="M147.1,222.3h-5.1c0,20.8,6.3,20.9,13.1,27.6c-6.8,6.5-13.1,6.5-13.1,27h5.1c0-18.4,5.6-17.3,11.8-23.4
		c6.3,6,11.8,5,11.8,23.4h5.1c0-20.3-6.5-20.3-13.1-27c6.8-6.6,13.1-6.8,13.1-27.6h-5.1c0,18.8-5.4,18.1-11.8,24.1
		C152.5,240.4,147.1,241.3,147.1,222.3z"/>
	<path class="st0" d="M155.8,173.5h-3.2c0,13.3,4.1,13.3,8.3,17.5c-4.2,4.2-8.3,4.2-8.3,17h3.2c0-11.8,3.5-11,7.5-14.9
		c3.9,3.9,7.5,3.2,7.5,14.9h3.2c0-13-4.1-13-8.3-17c4.4-4.2,8.3-4.4,8.3-17.5h-3.2c0,11.9-3.5,11.4-7.5,15.4
		C159.4,185,155.8,185.4,155.8,173.5z"/>
	<path class="st0" d="M119.2,189.6h-2.7c0,11.4,3.5,11.6,7.2,15.2c-3.8,3.6-7.2,3.6-7.2,14.8h2.7c0-10.1,3-9.5,6.5-12.8
		c3.5,3.3,6.5,2.7,6.5,12.8h2.7c0-11.1-3.5-11.1-7.2-14.8c3.8-3.6,7.2-3.8,7.2-15.2h-2.7c0,10.4-3,9.9-6.5,13.3
		C122.2,199.6,119.2,200,119.2,189.6z"/>
	<path class="st0" d="M212.6,154.2h-2.7c0,11.4,3.5,11.6,7.2,15.2c-3.8,3.6-7.2,3.6-7.2,14.8h2.7c0-10.1,3-9.5,6.5-12.8
		c3.5,3.3,6.5,2.7,6.5,12.8h2.7c0-11.1-3.5-11.1-7.2-14.8c3.8-3.6,7.2-3.8,7.2-15.2h-2.7c0,10.4-3,9.9-6.5,13.3
		C215.6,164,212.6,164.5,212.6,154.2z"/>
	<path class="st0" d="M261.1,202.3h-1.4c0,5.7,1.8,5.7,3.6,7.5c-1.8,1.8-3.6,1.8-3.6,7.4h1.4c0-5.1,1.5-4.8,3.2-6.5
		c1.7,1.7,3.2,1.4,3.2,6.5h1.4c0-5.6-1.8-5.6-3.6-7.4c1.8-1.8,3.6-1.8,3.6-7.5h-1.4c0,5.1-1.5,5-3.2,6.6
		C262.6,207.3,261.1,207.4,261.1,202.3z"/>
</g>
<line class="st2" x1="251.2" y1="79" x2="251.2" y2="228.4"/>
<line class="st2" x1="341.2" y1="403" x2="341.2" y2="474.4"/>
<g class="st3">
	<path class="st1" d="M179.8,481.2c1.7,1.3,2.6,3.2,2.6,5.7c0,2.7-0.8,4.7-2.5,6c-1.7,1.3-4,2-6.8,2h-2.5v7.9H165v-23.6h7.6
		C175.7,479.3,178.1,480,179.8,481.2z M175.6,490.1c0.7-0.6,1-1.6,1-3.1c0-2.5-1.4-3.7-4.1-3.7h-2v7.7h2.1
		C173.9,491,174.9,490.7,175.6,490.1z"/>
	<path class="st1" d="M196.2,484.5l-0.9,5.2c-0.7-0.2-1.2-0.2-1.6-0.2c-1.1,0-1.9,0.4-2.4,1.1c-0.6,0.7-1,1.8-1.3,3.3v8.9h-5.4
		v-18.1h4.7l0.4,3.5c0.4-1.2,1-2.2,1.9-2.9c0.8-0.7,1.8-1.1,2.8-1.1C195,484.3,195.6,484.4,196.2,484.5z"/>
	<path class="st1" d="M211.5,486.8c1.6,1.7,2.3,4.1,2.3,7.1c0,1.9-0.4,3.6-1.1,5c-0.7,1.4-1.7,2.6-3.1,3.3c-1.3,0.8-2.9,1.2-4.7,1.2
		c-2.7,0-4.9-0.8-6.5-2.5c-1.6-1.7-2.4-4.1-2.4-7.1c0-1.9,0.4-3.6,1.1-5c0.7-1.4,1.7-2.6,3.1-3.3c1.3-0.8,2.9-1.2,4.7-1.2
		C207.8,484.2,209.9,485.1,211.5,486.8z M202.6,489.6c-0.5,0.9-0.8,2.3-0.8,4.3c0,2,0.3,3.4,0.8,4.3c0.5,0.9,1.4,1.4,2.5,1.4
		c1.1,0,1.9-0.5,2.4-1.4s0.8-2.3,0.8-4.3c0-2-0.3-3.4-0.8-4.3c-0.5-0.9-1.4-1.4-2.5-1.4C203.9,488.2,203.1,488.6,202.6,489.6z"/>
	<path class="st1" d="M228.4,502c-0.7,0.5-1.4,0.8-2.3,1.1s-1.7,0.4-2.6,0.4c-3.9,0-5.9-2.2-5.9-6.5v-8.4H215v-3.7h2.6v-3.9l5.4-0.6
		v4.5h4.1l-0.6,3.7h-3.6v8.3c0,0.8,0.1,1.4,0.4,1.8s0.7,0.5,1.3,0.5c0.6,0,1.3-0.2,1.9-0.6L228.4,502z"/>
	<path class="st1" d="M245.2,495.4H234c0.2,1.5,0.6,2.6,1.3,3.2c0.7,0.6,1.6,0.9,2.8,0.9c0.7,0,1.4-0.1,2.1-0.4s1.4-0.7,2.2-1.2
		l2.2,3c-2.1,1.7-4.5,2.5-7,2.5c-2.9,0-5.2-0.9-6.7-2.6c-1.6-1.7-2.3-4-2.3-6.9c0-1.8,0.3-3.5,1-4.9c0.7-1.5,1.6-2.6,2.9-3.5
		c1.3-0.8,2.8-1.3,4.6-1.3c2.6,0,4.6,0.8,6.1,2.4c1.5,1.6,2.2,3.9,2.2,6.8C245.3,494.2,245.3,494.9,245.2,495.4z M240,492
		c0-2.8-1-4.1-2.9-4.1c-0.9,0-1.6,0.3-2.2,1s-0.8,1.8-0.9,3.4h6V492z"/>
	<path class="st1" d="M249,476.5c0.5,0.5,0.8,1.2,0.8,1.9c0,0.7-0.3,1.4-0.8,1.9c-0.5,0.5-1.2,0.8-2,0.8c-0.8,0-1.4-0.3-2-0.8
		c-0.5-0.5-0.8-1.2-0.8-1.9c0-0.7,0.3-1.4,0.8-1.9s1.2-0.8,2-0.8C247.8,475.7,248.5,476,249,476.5z M253.7,484.8v18.1h-5.4v-18.1
		H253.7z M256.9,476.5c0.5,0.5,0.8,1.2,0.8,1.9c0,0.7-0.3,1.4-0.8,1.9c-0.5,0.5-1.2,0.8-2,0.8c-0.7,0-1.4-0.3-1.9-0.8
		c-0.5-0.5-0.8-1.2-0.8-1.9c0-0.7,0.3-1.4,0.8-1.9c0.5-0.5,1.2-0.8,1.9-0.8C255.7,475.7,256.4,476,256.9,476.5z"/>
	<path class="st1" d="M272.2,485.7c0.9,1,1.3,2.3,1.3,4v13.2h-5.4v-12.3c0-0.9-0.1-1.5-0.4-1.9c-0.3-0.4-0.7-0.5-1.3-0.5
		c-1.1,0-2.1,0.8-3.1,2.3v12.3h-5.4v-18.1h4.7l0.4,2.1c0.8-0.9,1.6-1.6,2.5-2c0.9-0.5,1.9-0.7,3-0.7
		C270.1,484.2,271.3,484.7,272.2,485.7z"/>
	<path class="st1" d="M292.2,499.1c0.2,0.3,0.5,0.6,0.9,0.7l-1.1,3.5c-1.1-0.1-2-0.3-2.7-0.7c-0.7-0.4-1.2-1-1.6-1.9
		c-1.2,1.8-3,2.7-5.4,2.7c-1.8,0-3.2-0.5-4.3-1.6c-1.1-1-1.6-2.4-1.6-4.1c0-2,0.7-3.5,2.2-4.5c1.5-1,3.5-1.6,6.3-1.6h1.8v-0.8
		c0-1.1-0.2-1.8-0.7-2.2s-1.2-0.6-2.4-0.6c-0.6,0-1.3,0.1-2.1,0.3c-0.8,0.2-1.7,0.4-2.6,0.7l-1.2-3.5c1.1-0.4,2.3-0.8,3.5-1
		c1.2-0.2,2.3-0.3,3.3-0.3c2.6,0,4.5,0.5,5.7,1.6c1.2,1.1,1.8,2.7,1.8,4.8v7C291.9,498.3,292,498.8,292.2,499.1z M286.6,497.9v-3.2
		h-1.3c-1.2,0-2.1,0.2-2.7,0.6s-0.9,1.1-0.9,2c0,0.7,0.2,1.3,0.6,1.7c0.4,0.4,0.9,0.6,1.5,0.6C285,499.6,285.9,499,286.6,497.9z"/>
	<path class="st1" d="M309.2,476.2c0.6,0.6,0.9,1.3,0.9,2.2c0,0.9-0.3,1.6-0.9,2.2s-1.4,0.9-2.3,0.9s-1.7-0.3-2.3-0.9
		c-0.6-0.6-0.9-1.3-0.9-2.2c0-0.9,0.3-1.6,0.9-2.2c0.6-0.6,1.3-0.9,2.3-0.9S308.6,475.6,309.2,476.2z M309.6,484.8v18.1h-5.4v-18.1
		H309.6z"/>
	<path class="st1" d="M337.2,485.7c0.9,1,1.3,2.3,1.3,4v13.2h-5.4v-12.3c0-1.6-0.5-2.4-1.5-2.4c-0.6,0-1.1,0.2-1.5,0.6
		c-0.4,0.4-0.8,1-1.3,1.8v12.3h-5.4v-12.3c0-1.6-0.5-2.4-1.5-2.4c-0.5,0-1,0.2-1.5,0.6c-0.4,0.4-0.9,1-1.3,1.8v12.3h-5.4v-18.1h4.7
		l0.4,2.1c0.7-0.9,1.5-1.6,2.3-2c0.8-0.4,1.8-0.7,2.9-0.7c1,0,1.9,0.2,2.6,0.7c0.7,0.5,1.3,1.2,1.6,2.1c0.7-1,1.5-1.7,2.4-2.2
		c0.9-0.5,1.9-0.7,3-0.7C335.2,484.2,336.3,484.7,337.2,485.7z"/>
	<path class="st1" d="M357.8,486.8c1.1,1.7,1.7,4,1.7,7c0,1.9-0.3,3.5-0.9,5s-1.4,2.6-2.5,3.4s-2.4,1.2-3.8,1.2
		c-1.8,0-3.3-0.6-4.4-1.9v8.3l-5.4,0.6v-25.6h4.7l0.3,2c0.7-0.9,1.5-1.5,2.4-2c0.9-0.4,1.8-0.6,2.8-0.6
		C355,484.2,356.7,485.1,357.8,486.8z M353.9,493.9c0-2.1-0.2-3.6-0.7-4.4c-0.5-0.8-1.2-1.2-2.1-1.2c-0.6,0-1.2,0.2-1.7,0.5
		s-1,0.9-1.4,1.6v7.6c0.7,1.1,1.6,1.6,2.8,1.6C352.8,499.5,353.9,497.6,353.9,493.9z"/>
	<path class="st1" d="M378.1,502.9h-4.7l-0.2-2.3c-1.3,1.9-3.1,2.9-5.5,2.9c-1.7,0-2.9-0.5-3.8-1.5c-0.8-1-1.3-2.4-1.3-4.2v-13h5.4
		v12.3c0,0.9,0.1,1.5,0.4,1.9c0.3,0.4,0.7,0.5,1.3,0.5c1.1,0,2.1-0.7,2.9-2.1v-12.5h5.4V502.9z"/>
	<path class="st1" d="M383.4,502.1c-0.9-0.9-1.3-2.2-1.3-3.8v-20.6l5.4-0.6v21c0,0.7,0.3,1.1,0.9,1.1c0.3,0,0.6-0.1,0.9-0.2l1.1,3.8
		c-1,0.4-2.1,0.6-3.3,0.6C385.5,503.5,384.3,503,383.4,502.1z"/>
	<path class="st1" d="M402.4,484.8c1.1,0.4,2.1,0.9,3,1.6l-2,3c-1.5-0.9-3-1.4-4.5-1.4c-0.7,0-1.2,0.1-1.6,0.4
		c-0.4,0.2-0.6,0.6-0.6,1c0,0.3,0.1,0.6,0.3,0.8s0.5,0.4,1,0.7s1.3,0.5,2.4,0.8c1.9,0.5,3.3,1.3,4.2,2.1c0.9,0.9,1.4,2.1,1.4,3.6
		c0,1.2-0.4,2.3-1.1,3.2c-0.7,0.9-1.7,1.6-2.9,2.1c-1.2,0.5-2.6,0.7-4.1,0.7c-1.5,0-2.9-0.2-4.2-0.7c-1.3-0.5-2.4-1.1-3.3-2l2.6-2.9
		c1.5,1.2,3.1,1.8,4.8,1.8c0.8,0,1.5-0.1,1.9-0.4c0.5-0.3,0.7-0.7,0.7-1.3c0-0.4-0.1-0.8-0.3-1c-0.2-0.2-0.5-0.5-1.1-0.7
		c-0.5-0.2-1.3-0.5-2.5-0.8c-1.8-0.5-3.1-1.2-4-2.2c-0.9-0.9-1.3-2.1-1.3-3.5c0-1,0.3-2,0.9-2.8c0.6-0.8,1.5-1.5,2.6-2
		c1.1-0.5,2.4-0.7,3.9-0.7C400,484.2,401.2,484.4,402.4,484.8z"/>
	<path class="st1" d="M423.1,486.8c1.6,1.7,2.3,4.1,2.3,7.1c0,1.9-0.4,3.6-1.1,5s-1.7,2.6-3.1,3.3c-1.3,0.8-2.9,1.2-4.7,1.2
		c-2.7,0-4.9-0.8-6.5-2.5c-1.6-1.7-2.4-4.1-2.4-7.1c0-1.9,0.4-3.6,1.1-5s1.7-2.6,3.1-3.3c1.3-0.8,2.9-1.2,4.7-1.2
		C419.4,484.2,421.6,485.1,423.1,486.8z M414.2,489.6c-0.5,0.9-0.8,2.3-0.8,4.3c0,2,0.3,3.4,0.8,4.3c0.5,0.9,1.4,1.4,2.5,1.4
		c1.1,0,1.9-0.5,2.4-1.4s0.8-2.3,0.8-4.3c0-2-0.3-3.4-0.8-4.3c-0.5-0.9-1.4-1.4-2.5-1.4C415.5,488.2,414.7,488.6,414.2,489.6z"/>
	<path class="st1" d="M440.3,484.5l-0.9,5.2c-0.7-0.2-1.2-0.2-1.6-0.2c-1.1,0-1.9,0.4-2.4,1.1c-0.6,0.7-1,1.8-1.3,3.3v8.9h-5.4
		v-18.1h4.7l0.4,3.5c0.4-1.2,1-2.2,1.9-2.9s1.8-1.1,2.8-1.1C439.1,484.3,439.7,484.4,440.3,484.5z"/>
	<path class="st1" d="M455.7,499.1c0.2,0.3,0.5,0.6,0.9,0.7l-1.1,3.5c-1.1-0.1-2-0.3-2.7-0.7c-0.7-0.4-1.2-1-1.6-1.9
		c-1.2,1.8-3,2.7-5.4,2.7c-1.8,0-3.2-0.5-4.3-1.6c-1.1-1-1.6-2.4-1.6-4.1c0-2,0.7-3.5,2.2-4.5c1.5-1,3.5-1.6,6.3-1.6h1.8v-0.8
		c0-1.1-0.2-1.8-0.7-2.2s-1.2-0.6-2.4-0.6c-0.6,0-1.3,0.1-2.1,0.3c-0.8,0.2-1.7,0.4-2.6,0.7l-1.2-3.5c1.1-0.4,2.3-0.8,3.5-1
		c1.2-0.2,2.3-0.3,3.3-0.3c2.6,0,4.5,0.5,5.7,1.6c1.2,1.1,1.8,2.7,1.8,4.8v7C455.5,498.3,455.6,498.8,455.7,499.1z M450.2,497.9
		v-3.2h-1.3c-1.2,0-2.1,0.2-2.7,0.6s-0.9,1.1-0.9,2c0,0.7,0.2,1.3,0.6,1.7c0.4,0.4,0.9,0.6,1.5,0.6
		C448.6,499.6,449.5,499,450.2,497.9z"/>
</g>
<g class="st3">
	<path class="st1" d="M251.2,512.6v25.2h-4.8l-0.3-2.1c-1.3,1.8-3,2.7-5.1,2.7c-2.2,0-4-0.9-5.1-2.6c-1.2-1.7-1.8-4.1-1.8-7.1
		c0-1.8,0.3-3.5,0.9-4.9c0.6-1.5,1.5-2.6,2.6-3.4s2.4-1.2,3.9-1.2c1.7,0,3.2,0.6,4.3,1.7v-8.9L251.2,512.6z M245.9,532.5v-7.8
		c-0.4-0.5-0.9-0.9-1.3-1.2c-0.4-0.2-0.9-0.4-1.5-0.4c-1,0-1.8,0.5-2.4,1.4c-0.6,0.9-0.9,2.4-0.9,4.3c0,2.1,0.3,3.6,0.8,4.4
		c0.5,0.8,1.2,1.3,2.2,1.3C244,534.5,245,533.8,245.9,532.5z"/>
	<path class="st1" d="M271.1,530.4h-11.2c0.2,1.5,0.6,2.6,1.3,3.2c0.7,0.6,1.6,0.9,2.8,0.9c0.7,0,1.4-0.1,2.1-0.4
		c0.7-0.3,1.4-0.7,2.2-1.2l2.2,3c-2.1,1.7-4.5,2.5-7,2.5c-2.9,0-5.2-0.9-6.7-2.6c-1.6-1.7-2.3-4-2.3-6.9c0-1.8,0.3-3.5,1-4.9
		c0.7-1.5,1.6-2.6,2.9-3.5s2.8-1.3,4.6-1.3c2.6,0,4.6,0.8,6.1,2.4c1.5,1.6,2.2,3.9,2.2,6.8C271.2,529.2,271.2,529.9,271.1,530.4z
		 M265.9,527c0-2.8-1-4.1-2.9-4.1c-0.9,0-1.6,0.3-2.2,1s-0.8,1.8-0.9,3.4h6V527z"/>
	<path class="st1" d="M275.4,537.1c-0.9-0.9-1.3-2.2-1.3-3.8v-20.6l5.4-0.6v21c0,0.7,0.3,1.1,0.9,1.1c0.3,0,0.6-0.1,0.9-0.2l1.1,3.8
		c-1,0.4-2.1,0.6-3.3,0.6C277.5,538.5,276.2,538,275.4,537.1z"/>
	<path class="st1" d="M303.6,519.8c1,0.4,1.9,0.9,2.8,1.7l-2.3,3.2c-1.1-0.9-2.3-1.3-3.4-1.3c-1.2,0-2.1,0.4-2.7,1.3
		c-0.6,0.9-0.9,2.3-0.9,4.3c0,1.9,0.3,3.3,0.9,4c0.6,0.8,1.5,1.2,2.7,1.2c0.6,0,1.2-0.1,1.7-0.3c0.5-0.2,1.1-0.5,1.8-0.9l2.3,3.3
		c-1.8,1.4-3.8,2.1-6.1,2.1c-1.8,0-3.4-0.4-4.8-1.2c-1.3-0.8-2.4-1.9-3.1-3.3c-0.7-1.4-1.1-3.1-1.1-5s0.4-3.6,1.1-5.1
		c0.7-1.5,1.8-2.6,3.1-3.4c1.3-0.8,2.9-1.2,4.7-1.2C301.5,519.2,302.6,519.4,303.6,519.8z"/>
	<path class="st1" d="M323,534.1c0.2,0.3,0.5,0.6,0.9,0.7l-1.1,3.5c-1.1-0.1-2-0.3-2.7-0.7c-0.7-0.4-1.2-1-1.6-1.9
		c-1.2,1.8-3,2.7-5.4,2.7c-1.8,0-3.2-0.5-4.3-1.6s-1.6-2.4-1.6-4.1c0-2,0.7-3.5,2.2-4.5c1.5-1,3.5-1.6,6.3-1.6h1.8v-0.8
		c0-1.1-0.2-1.8-0.7-2.2s-1.2-0.6-2.4-0.6c-0.6,0-1.3,0.1-2.1,0.3c-0.8,0.2-1.7,0.4-2.6,0.7l-1.2-3.5c1.1-0.4,2.3-0.8,3.5-1
		c1.2-0.2,2.3-0.3,3.3-0.3c2.6,0,4.5,0.5,5.7,1.6c1.2,1.1,1.8,2.7,1.8,4.8v7C322.7,533.3,322.8,533.8,323,534.1z M313.1,509.5
		l7.4,4.5l-1.5,2.8l-8-3.2L313.1,509.5z M317.4,532.9v-3.2h-1.3c-1.2,0-2.1,0.2-2.7,0.6c-0.6,0.4-0.9,1.1-0.9,2
		c0,0.7,0.2,1.3,0.6,1.7s0.9,0.6,1.5,0.6C315.8,534.6,316.7,534,317.4,532.9z"/>
	<path class="st1" d="M341.2,520.7c0.9,1,1.3,2.3,1.3,4v13.2h-5.4v-12.3c0-0.9-0.1-1.5-0.4-1.9c-0.3-0.3-0.7-0.5-1.3-0.5
		c-1.1,0-2.1,0.8-3.1,2.3v12.3H327v-18.1h4.7l0.4,2.1c0.8-0.9,1.6-1.6,2.5-2c0.9-0.5,1.9-0.7,3-0.7
		C339.1,519.2,340.3,519.7,341.2,520.7z"/>
	<path class="st1" d="M357.8,519.8c1,0.4,1.9,0.9,2.8,1.7l-2.3,3.2c-1.1-0.9-2.3-1.3-3.4-1.3c-1.2,0-2.1,0.4-2.7,1.3
		c-0.6,0.9-0.9,2.3-0.9,4.3c0,1.9,0.3,3.3,0.9,4c0.6,0.8,1.5,1.2,2.7,1.2c0.6,0,1.2-0.1,1.7-0.3c0.5-0.2,1.1-0.5,1.8-0.9l2.3,3.3
		c-1.8,1.4-3.8,2.1-6.1,2.1c-1.8,0-3.4-0.4-4.8-1.2c-1.3-0.8-2.4-1.9-3.1-3.3c-0.7-1.4-1.1-3.1-1.1-5s0.4-3.6,1.1-5.1
		c0.7-1.5,1.8-2.6,3.1-3.4c1.3-0.8,2.9-1.2,4.7-1.2C355.6,519.2,356.8,519.4,357.8,519.8z"/>
	<path class="st1" d="M377.8,530.4h-11.2c0.2,1.5,0.6,2.6,1.3,3.2c0.7,0.6,1.6,0.9,2.8,0.9c0.7,0,1.4-0.1,2.1-0.4
		c0.7-0.3,1.4-0.7,2.2-1.2l2.2,3c-2.1,1.7-4.5,2.5-7,2.5c-2.9,0-5.2-0.9-6.7-2.6c-1.6-1.7-2.3-4-2.3-6.9c0-1.8,0.3-3.5,1-4.9
		c0.7-1.5,1.6-2.6,2.9-3.5s2.8-1.3,4.6-1.3c2.6,0,4.6,0.8,6.1,2.4c1.5,1.6,2.2,3.9,2.2,6.8C377.9,529.2,377.9,529.9,377.8,530.4z
		 M372.7,527c0-2.8-1-4.1-2.9-4.1c-0.9,0-1.6,0.3-2.2,1s-0.8,1.8-0.9,3.4h6V527z"/>
	<path class="st1" d="M392.5,519.5l-0.9,5.2c-0.7-0.2-1.2-0.2-1.6-0.2c-1.1,0-1.9,0.4-2.4,1.1c-0.6,0.7-1,1.8-1.3,3.3v8.9H381v-18.1
		h4.7l0.4,3.5c0.4-1.2,1-2.2,1.9-2.9c0.8-0.7,1.8-1.1,2.8-1.1C391.4,519.3,392,519.4,392.5,519.5z"/>
</g>
<g class="st3">
	<path class="st1" d="M132.3,36.9h-5.5l-0.4-9.2c-0.1-2.2-0.2-4.2-0.2-5.9c0-1.3,0-2.6,0.1-3.7l-3.6,16.4h-5.3L113.6,18
		c0.1,2,0.2,3.8,0.2,5.6c0,1.3,0,2.7-0.1,4.1l-0.4,9.1h-5.4l1.8-23.6h7l3.5,16l3.3-16h7.1L132.3,36.9z"/>
	<path class="st1" d="M150.8,36.9h-4.7l-0.2-2.3c-1.3,1.9-3.1,2.9-5.5,2.9c-1.7,0-2.9-0.5-3.8-1.5s-1.3-2.4-1.3-4.2v-13h5.4v12.3
		c0,0.9,0.1,1.5,0.4,1.9c0.3,0.4,0.7,0.5,1.3,0.5c1.1,0,2.1-0.7,2.9-2.1V18.8h5.4V36.9z"/>
	<path class="st1" d="M166.3,36c-0.7,0.5-1.4,0.8-2.3,1.1s-1.7,0.4-2.6,0.4c-3.9,0-5.9-2.2-5.9-6.5v-8.4h-2.6v-3.7h2.6v-3.9l5.4-0.6
		v4.5h4.1l-0.6,3.7h-3.6v8.3c0,0.8,0.1,1.4,0.4,1.8s0.7,0.5,1.3,0.5c0.6,0,1.3-0.2,1.9-0.6L166.3,36z"/>
	<path class="st1" d="M182.3,33.1c0.2,0.3,0.5,0.6,0.9,0.7l-1.1,3.5c-1.1-0.1-2-0.3-2.7-0.7s-1.2-1-1.6-1.9c-1.2,1.8-3,2.7-5.4,2.7
		c-1.8,0-3.2-0.5-4.3-1.6c-1.1-1-1.6-2.4-1.6-4.1c0-2,0.7-3.5,2.2-4.5c1.5-1,3.5-1.6,6.3-1.6h1.8v-0.8c0-1.1-0.2-1.8-0.7-2.2
		c-0.5-0.4-1.2-0.6-2.4-0.6c-0.6,0-1.3,0.1-2.1,0.3c-0.8,0.2-1.7,0.4-2.6,0.7l-1.2-3.5c1.1-0.4,2.3-0.8,3.5-1s2.3-0.3,3.3-0.3
		c2.6,0,4.5,0.5,5.7,1.6c1.2,1.1,1.8,2.7,1.8,4.8v7C182.1,32.3,182.1,32.8,182.3,33.1z M176.8,31.9v-3.2h-1.3
		c-1.2,0-2.1,0.2-2.7,0.6c-0.6,0.4-0.9,1.1-0.9,2c0,0.7,0.2,1.3,0.6,1.7c0.4,0.4,0.9,0.6,1.5,0.6C175.2,33.6,176.1,33,176.8,31.9z"
		/>
	<path class="st1" d="M197.5,18.8c1,0.4,1.9,0.9,2.8,1.7l-2.3,3.2c-1.1-0.9-2.3-1.3-3.4-1.3c-1.2,0-2.1,0.4-2.7,1.3
		c-0.6,0.9-0.9,2.3-0.9,4.3c0,1.9,0.3,3.3,0.9,4c0.6,0.8,1.5,1.2,2.7,1.2c0.6,0,1.2-0.1,1.7-0.3s1.1-0.5,1.8-0.9l2.3,3.3
		c-1.8,1.4-3.8,2.1-6.1,2.1c-1.8,0-3.4-0.4-4.8-1.2c-1.3-0.8-2.4-1.9-3.1-3.3c-0.7-1.4-1.1-3.1-1.1-5s0.4-3.6,1.1-5.1
		c0.7-1.5,1.8-2.6,3.1-3.5c1.3-0.8,2.9-1.2,4.7-1.2C195.4,18.2,196.5,18.4,197.5,18.8z"/>
	<path class="st1" d="M207.6,10.2c0.6,0.6,0.9,1.3,0.9,2.2c0,0.9-0.3,1.6-0.9,2.2s-1.4,0.9-2.3,0.9c-0.9,0-1.7-0.3-2.3-0.9
		c-0.6-0.6-0.9-1.3-0.9-2.2c0-0.9,0.3-1.6,0.9-2.2c0.6-0.6,1.3-0.9,2.3-0.9C206.2,9.3,207,9.6,207.6,10.2z M208,18.8v18.1h-5.4V18.8
		H208z"/>
	<path class="st1" d="M226.5,20.8c1.6,1.7,2.3,4.1,2.3,7.1c0,1.9-0.4,3.6-1.1,5s-1.7,2.6-3.1,3.3c-1.3,0.8-2.9,1.2-4.7,1.2
		c-2.7,0-4.9-0.8-6.5-2.5c-1.6-1.7-2.4-4.1-2.4-7.1c0-1.9,0.4-3.6,1.1-5s1.7-2.6,3.1-3.3c1.3-0.8,2.9-1.2,4.7-1.2
		C222.8,18.2,225,19.1,226.5,20.8z M222.5,8.5l2.1,4l-8,3.2l-1.5-2.8L222.5,8.5z M217.6,23.6c-0.5,0.9-0.8,2.3-0.8,4.3
		c0,2,0.3,3.4,0.8,4.3c0.5,0.9,1.4,1.4,2.5,1.4c1.1,0,1.9-0.5,2.4-1.4s0.8-2.3,0.8-4.3c0-2-0.3-3.4-0.8-4.3
		c-0.5-0.9-1.4-1.4-2.5-1.4C218.9,22.2,218.1,22.6,217.6,23.6z"/>
	<path class="st1" d="M245.1,10.2c0.6,0.6,0.9,1.3,0.9,2.2c0,0.9-0.3,1.6-0.9,2.2s-1.4,0.9-2.3,0.9s-1.7-0.3-2.3-0.9
		c-0.6-0.6-0.9-1.3-0.9-2.2c0-0.9,0.3-1.6,0.9-2.2c0.6-0.6,1.3-0.9,2.3-0.9S244.5,9.6,245.1,10.2z M245.5,18.8v18.1h-5.4V18.8H245.5
		z"/>
	<path class="st1" d="M273.1,19.7c0.9,1,1.3,2.3,1.3,4v13.2H269V24.6c0-1.6-0.5-2.4-1.5-2.4c-0.6,0-1.1,0.2-1.5,0.6
		c-0.4,0.4-0.8,1-1.3,1.8v12.3h-5.4V24.6c0-1.6-0.5-2.4-1.5-2.4c-0.5,0-1,0.2-1.5,0.6c-0.4,0.4-0.9,1-1.3,1.8v12.3h-5.4V18.8h4.7
		l0.4,2.1c0.7-0.9,1.5-1.6,2.3-2c0.8-0.4,1.8-0.7,2.9-0.7c1,0,1.9,0.2,2.6,0.7c0.7,0.5,1.3,1.2,1.6,2.1c0.7-1,1.5-1.7,2.4-2.2
		c0.9-0.5,1.9-0.7,3-0.7C271.1,18.2,272.2,18.7,273.1,19.7z"/>
	<path class="st1" d="M293.7,20.8c1.1,1.7,1.7,4,1.7,7c0,1.9-0.3,3.5-0.9,5s-1.4,2.6-2.5,3.4s-2.4,1.2-3.8,1.2
		c-1.8,0-3.3-0.6-4.4-1.9v8.3l-5.4,0.6V18.8h4.7l0.3,2c0.7-0.9,1.5-1.5,2.4-2c0.9-0.4,1.8-0.6,2.8-0.6
		C290.9,18.2,292.6,19.1,293.7,20.8z M289.8,27.9c0-2.1-0.2-3.6-0.7-4.4c-0.5-0.8-1.2-1.2-2.1-1.2c-0.6,0-1.2,0.2-1.7,0.5
		s-1,0.9-1.4,1.6v7.6c0.7,1.1,1.6,1.6,2.8,1.6C288.7,33.5,289.8,31.6,289.8,27.9z"/>
	<path class="st1" d="M314,36.9h-4.7l-0.2-2.3c-1.3,1.9-3.1,2.9-5.5,2.9c-1.7,0-2.9-0.5-3.8-1.5c-0.8-1-1.3-2.4-1.3-4.2v-13h5.4
		v12.3c0,0.9,0.1,1.5,0.4,1.9c0.3,0.4,0.7,0.5,1.3,0.5c1.1,0,2.1-0.7,2.9-2.1V18.8h5.4V36.9z"/>
	<path class="st1" d="M319.3,36.1c-0.9-0.9-1.3-2.2-1.3-3.8V11.6l5.4-0.6v21c0,0.7,0.3,1.1,0.9,1.1c0.3,0,0.6-0.1,0.9-0.2l1.1,3.8
		c-1,0.4-2.1,0.6-3.3,0.6C321.4,37.5,320.2,37,319.3,36.1z"/>
	<path class="st1" d="M338.3,18.8c1.1,0.4,2.1,0.9,3,1.6l-2,3c-1.5-0.9-3-1.4-4.5-1.4c-0.7,0-1.2,0.1-1.6,0.4
		c-0.4,0.2-0.6,0.6-0.6,1c0,0.3,0.1,0.6,0.3,0.8s0.5,0.4,1,0.7s1.3,0.5,2.4,0.8c1.9,0.5,3.3,1.3,4.2,2.1c0.9,0.9,1.4,2.1,1.4,3.6
		c0,1.2-0.4,2.3-1.1,3.2c-0.7,0.9-1.7,1.6-2.9,2.1c-1.2,0.5-2.6,0.7-4.1,0.7c-1.5,0-2.9-0.2-4.2-0.7c-1.3-0.5-2.4-1.1-3.3-2l2.6-2.9
		c1.5,1.2,3.1,1.8,4.8,1.8c0.8,0,1.5-0.1,1.9-0.4c0.5-0.3,0.7-0.7,0.7-1.3c0-0.4-0.1-0.8-0.3-1c-0.2-0.2-0.5-0.5-1.1-0.7
		c-0.5-0.2-1.3-0.5-2.5-0.8c-1.8-0.5-3.1-1.2-4-2.2c-0.9-0.9-1.3-2.1-1.3-3.5c0-1,0.3-2,0.9-2.8c0.6-0.8,1.5-1.5,2.6-2
		c1.1-0.5,2.4-0.7,3.9-0.7C335.9,18.2,337.1,18.4,338.3,18.8z"/>
	<path class="st1" d="M359,20.8c1.6,1.7,2.3,4.1,2.3,7.1c0,1.9-0.4,3.6-1.1,5s-1.7,2.6-3.1,3.3c-1.3,0.8-2.9,1.2-4.7,1.2
		c-2.7,0-4.9-0.8-6.5-2.5c-1.6-1.7-2.4-4.1-2.4-7.1c0-1.9,0.4-3.6,1.1-5s1.7-2.6,3.1-3.3c1.3-0.8,2.9-1.2,4.7-1.2
		C355.3,18.2,357.5,19.1,359,20.8z M350.1,23.6c-0.5,0.9-0.8,2.3-0.8,4.3c0,2,0.3,3.4,0.8,4.3c0.5,0.9,1.4,1.4,2.5,1.4
		c1.1,0,1.9-0.5,2.4-1.4s0.8-2.3,0.8-4.3c0-2-0.3-3.4-0.8-4.3c-0.5-0.9-1.4-1.4-2.5-1.4C351.4,22.2,350.6,22.6,350.1,23.6z"/>
	<path class="st1" d="M376.2,18.5l-0.9,5.2c-0.7-0.2-1.2-0.2-1.6-0.2c-1.1,0-1.9,0.4-2.4,1.1c-0.6,0.7-1,1.8-1.3,3.3v8.9h-5.4V18.8
		h4.7l0.4,3.5c0.4-1.2,1-2.2,1.9-2.9s1.8-1.1,2.8-1.1C375,18.3,375.6,18.4,376.2,18.5z"/>
	<path class="st1" d="M391.6,33.1c0.2,0.3,0.5,0.6,0.9,0.7l-1.1,3.5c-1.1-0.1-2-0.3-2.7-0.7c-0.7-0.4-1.2-1-1.6-1.9
		c-1.2,1.8-3,2.7-5.4,2.7c-1.8,0-3.2-0.5-4.3-1.6c-1.1-1-1.6-2.4-1.6-4.1c0-2,0.7-3.5,2.2-4.5c1.5-1,3.5-1.6,6.3-1.6h1.8v-0.8
		c0-1.1-0.2-1.8-0.7-2.2s-1.2-0.6-2.4-0.6c-0.6,0-1.3,0.1-2.1,0.3c-0.8,0.2-1.7,0.4-2.6,0.7l-1.2-3.5c1.1-0.4,2.3-0.8,3.5-1
		c1.2-0.2,2.3-0.3,3.3-0.3c2.6,0,4.5,0.5,5.7,1.6c1.2,1.1,1.8,2.7,1.8,4.8v7C391.4,32.3,391.4,32.8,391.6,33.1z M386.1,31.9v-3.2
		h-1.3c-1.2,0-2.1,0.2-2.7,0.6s-0.9,1.1-0.9,2c0,0.7,0.2,1.3,0.6,1.7c0.4,0.4,0.9,0.6,1.5,0.6C384.5,33.6,385.4,33,386.1,31.9z"/>
</g>
<g class="st3">
	<path class="st1" d="M182.2,46.6v25.2h-4.8l-0.3-2.1c-1.3,1.8-3,2.7-5.1,2.7c-2.2,0-3.9-0.9-5.1-2.6s-1.8-4.1-1.8-7.1
		c0-1.8,0.3-3.5,0.9-4.9c0.6-1.5,1.5-2.6,2.6-3.4c1.1-0.8,2.4-1.2,3.9-1.2c1.7,0,3.1,0.6,4.3,1.7v-8.9L182.2,46.6z M176.8,66.5v-7.8
		c-0.4-0.5-0.9-0.9-1.3-1.2c-0.4-0.2-0.9-0.4-1.5-0.4c-1,0-1.8,0.5-2.4,1.4c-0.6,0.9-0.9,2.4-0.9,4.3c0,2.1,0.3,3.6,0.8,4.4
		c0.5,0.8,1.2,1.3,2.2,1.3C174.9,68.5,176,67.8,176.8,66.5z"/>
	<path class="st1" d="M202.1,64.4h-11.2c0.2,1.5,0.6,2.6,1.3,3.2s1.6,0.9,2.8,0.9c0.7,0,1.4-0.1,2.1-0.4c0.7-0.3,1.4-0.7,2.2-1.2
		l2.2,3c-2.1,1.7-4.5,2.5-7,2.5c-2.9,0-5.2-0.9-6.7-2.6s-2.3-4-2.3-6.9c0-1.8,0.3-3.5,1-4.9c0.7-1.5,1.6-2.6,2.9-3.5
		c1.3-0.8,2.8-1.3,4.6-1.3c2.6,0,4.6,0.8,6.1,2.4c1.5,1.6,2.2,3.9,2.2,6.8C202.2,63.2,202.1,63.9,202.1,64.4z M196.9,61
		c0-2.8-1-4.1-2.9-4.1c-0.9,0-1.6,0.3-2.2,1c-0.5,0.7-0.8,1.8-0.9,3.4h6V61z"/>
	<path class="st1" d="M206.3,71.1c-0.9-0.9-1.3-2.2-1.3-3.8V46.6l5.4-0.6v21c0,0.7,0.3,1.1,0.9,1.1c0.3,0,0.6-0.1,0.9-0.2l1.1,3.8
		c-1,0.4-2.1,0.6-3.3,0.6C208.4,72.5,207.2,72,206.3,71.1z"/>
	<path class="st1" d="M234.5,53.8c1,0.4,1.9,0.9,2.8,1.7l-2.3,3.2c-1.1-0.9-2.3-1.3-3.4-1.3c-1.2,0-2.1,0.4-2.7,1.3
		c-0.6,0.9-0.9,2.3-0.9,4.3c0,1.9,0.3,3.3,0.9,4c0.6,0.8,1.5,1.2,2.7,1.2c0.6,0,1.2-0.1,1.7-0.3c0.5-0.2,1.1-0.5,1.8-0.9l2.3,3.3
		c-1.8,1.4-3.8,2.1-6.1,2.1c-1.8,0-3.4-0.4-4.8-1.2c-1.3-0.8-2.4-1.9-3.1-3.3c-0.7-1.4-1.1-3.1-1.1-5s0.4-3.6,1.1-5.1
		c0.7-1.5,1.8-2.6,3.1-3.5c1.3-0.8,2.9-1.2,4.7-1.2C232.4,53.2,233.5,53.4,234.5,53.8z"/>
	<path class="st1" d="M253.9,68.1c0.2,0.3,0.5,0.6,0.9,0.7l-1.1,3.5c-1.1-0.1-2-0.3-2.7-0.7c-0.7-0.4-1.2-1-1.6-1.9
		c-1.2,1.8-3,2.7-5.4,2.7c-1.8,0-3.2-0.5-4.3-1.6c-1.1-1-1.6-2.4-1.6-4.1c0-2,0.7-3.5,2.2-4.5c1.5-1,3.5-1.6,6.3-1.6h1.8v-0.8
		c0-1.1-0.2-1.8-0.7-2.2s-1.2-0.6-2.4-0.6c-0.6,0-1.3,0.1-2.1,0.3c-0.8,0.2-1.7,0.4-2.6,0.7l-1.2-3.5c1.1-0.4,2.3-0.8,3.5-1
		c1.2-0.2,2.3-0.3,3.3-0.3c2.6,0,4.5,0.5,5.7,1.6c1.2,1.1,1.8,2.7,1.8,4.8v7C253.6,67.3,253.7,67.8,253.9,68.1z M244.1,43.5l7.4,4.5
		l-1.5,2.8l-8-3.2L244.1,43.5z M248.4,66.9v-3.2H247c-1.2,0-2.1,0.2-2.7,0.6s-0.9,1.1-0.9,2c0,0.7,0.2,1.3,0.6,1.7
		c0.4,0.4,0.9,0.6,1.5,0.6C246.7,68.6,247.7,68,248.4,66.9z"/>
	<path class="st1" d="M272.2,54.7c0.9,1,1.3,2.3,1.3,4v13.2h-5.4V59.6c0-0.9-0.1-1.5-0.4-1.9c-0.3-0.4-0.7-0.5-1.3-0.5
		c-1.1,0-2.1,0.8-3.1,2.3v12.3h-5.4V53.8h4.7L263,56c0.8-0.9,1.6-1.6,2.5-2c0.9-0.5,1.9-0.7,3-0.7C270.1,53.2,271.3,53.7,272.2,54.7
		z"/>
	<path class="st1" d="M288.7,53.8c1,0.4,1.9,0.9,2.8,1.7l-2.3,3.2c-1.1-0.9-2.3-1.3-3.4-1.3c-1.2,0-2.1,0.4-2.7,1.3
		c-0.6,0.9-0.9,2.3-0.9,4.3c0,1.9,0.3,3.3,0.9,4c0.6,0.8,1.5,1.2,2.7,1.2c0.6,0,1.2-0.1,1.7-0.3s1.1-0.5,1.8-0.9l2.3,3.3
		c-1.8,1.4-3.8,2.1-6.1,2.1c-1.8,0-3.4-0.4-4.8-1.2c-1.3-0.8-2.4-1.9-3.1-3.3c-0.7-1.4-1.1-3.1-1.1-5s0.4-3.6,1.1-5.1
		c0.7-1.5,1.8-2.6,3.1-3.5c1.3-0.8,2.9-1.2,4.7-1.2C286.6,53.2,287.7,53.4,288.7,53.8z"/>
	<path class="st1" d="M308.8,64.4h-11.2c0.2,1.5,0.6,2.6,1.3,3.2c0.7,0.6,1.6,0.9,2.8,0.9c0.7,0,1.4-0.1,2.1-0.4
		c0.7-0.3,1.4-0.7,2.2-1.2l2.2,3c-2.1,1.7-4.5,2.5-7,2.5c-2.9,0-5.2-0.9-6.7-2.6c-1.6-1.7-2.3-4-2.3-6.9c0-1.8,0.3-3.5,1-4.9
		c0.7-1.5,1.6-2.6,2.9-3.5c1.3-0.8,2.8-1.3,4.6-1.3c2.6,0,4.6,0.8,6.1,2.4c1.5,1.6,2.2,3.9,2.2,6.8
		C308.9,63.2,308.8,63.9,308.8,64.4z M303.6,61c0-2.8-1-4.1-2.9-4.1c-0.9,0-1.6,0.3-2.2,1s-0.8,1.8-0.9,3.4h6V61z"/>
	<path class="st1" d="M323.5,53.5l-0.9,5.2c-0.7-0.2-1.2-0.2-1.6-0.2c-1.1,0-1.9,0.4-2.4,1.1c-0.6,0.7-1,1.8-1.3,3.3v8.9h-5.4V53.8
		h4.7l0.4,3.5c0.4-1.2,1-2.2,1.9-2.9s1.8-1.1,2.8-1.1C322.4,53.3,323,53.4,323.5,53.5z"/>
</g>
</svg>
