<?xml version="1.0" encoding="utf-8"?>
<!-- Generator: Adobe Illustrator 24.1.0, SVG Export Plug-In . SVG Version: 6.00 Build 0)  -->
<svg version="1.1" id="Capa_1" xmlns="http://www.w3.org/2000/svg" xmlns:xlink="http://www.w3.org/1999/xlink" x="0px" y="0px"
	 viewBox="0 0 885.4 888.7" style="enable-background:new 0 0 885.4 888.7;" xml:space="preserve">
<style type="text/css">
	.st0{fill:#F4F9F9;stroke:#8FB5BC;stroke-miterlimit:10;}
	.st1{fill:#FFFFFF;stroke:#CC6633;stroke-miterlimit:10;}
	.st2{fill:#FF2A2A;}
	.st3{fill:#FA7F43;}
	.st4{fill:none;stroke:#8FB5BC;stroke-width:3;stroke-miterlimit:10;}
	.st5{fill:#FFFFFF;stroke:#FF6600;stroke-width:0.75;stroke-miterlimit:10;}
	.st6{fill:#FFFFFF;stroke:#005372;stroke-width:0.5669;stroke-miterlimit:10;}
	.st7{fill:#FFFFFF;stroke:#005372;stroke-width:0.5669;stroke-miterlimit:9.9999;}
	.st8{fill:#FFFFFF;stroke:#005372;stroke-width:0.5669;stroke-miterlimit:10.0003;}
	.st9{fill:#373A47;}
	.st10{enable-background:new    ;}
	.st11{fill:#CC6633;}
	.st12{fill:#032836;}
</style>
<g>
	<path class="st0" d="M713.8,111c-14.5-9.2-27.1-20.5-39.2-31.4c-9-8.1-18.2-16.4-28-23.6c-2.2-1.6-4.5-3.1-6.8-4.5l0,0
		c-13.6-7.8-28.7-11-44.8-14.5c-6.1-1.3-12.2-2.6-18.2-4.2c-12.6-3.3-24.9-6.9-36.8-10.3C502.5,11.6,467,1.3,426.9,0.6
		c-2.2,0-4.4-0.1-6.6-0.1c-52.7,0-105.6,11.9-157.5,35.3c-39.5,17.9-67.4,46.8-96.8,77.5c-7,7.3-14.1,14.6-21.3,21.9
		c-8,8-16,15.7-24,23.2c-32.4,30.9-63,60.1-81.7,103.4c-21.7,50.4-34.8,109.1-38,170c-3.8,73,12.3,149.6,45.1,215.5
		c23.4,47,54.1,92,93.9,137.6c15.6,17.9,31,31.5,47,41.6c45.8,28.9,111.6,45.5,157.2,55.5c66.1,14.5,119.7,1.1,178-16.6
		c12.7-3.9,26-5.5,38.8-7.1c15.9-2,30.9-3.9,45-9.6c12.8-5.2,22.9-14.2,33.7-23.7c8-7.1,16.2-14.4,25.8-20.2
		c7.3-4.4,14.7-8.6,22.1-12.8c13.9-7.9,28.3-16,41.6-25.8c48.4-35.8,80.2-78.1,94.3-125.9c4.2-14.1,7.1-28.9,9.9-43.3
		c4.2-21.7,8.6-44.2,17.5-65.3c2.3-5.5,4.6-10.7,6.8-15.9c11.9-27.2,22.1-50.7,25.4-82.4c7.8-75.3-9.5-152.2-47.4-211
		C810.5,183.5,770.6,147.1,713.8,111z"/>
	<g>
		<g>
			<g>
				<path class="st1" d="M746.2,178.8C664.8,87,472,134.6,437.4,244.3c-39.2,124.3,118.9,229,236.3,180.6
					c72.4-29.8,117.6-118.4,100.5-191.7C769.5,213.5,760.4,194.9,746.2,178.8z"/>
			</g>
		</g>
		<path class="st1" d="M529.3,195.2H521c0,28.7,10.4,39.7,21.5,48.8c-11,9-21.5,19.7-21.5,47.9h8.2c0-25.4,9-34.7,19.2-43
			c10.2,8.4,19.2,17.6,19.2,43h8.2c0-28.1-10.5-38.8-21.5-47.9c11.1-9.1,21.5-20.1,21.5-48.8h-8.2c0,26-9,35.6-19.2,44
			C538.2,230.7,529.3,221.2,529.3,195.2z"/>
		<path class="st1" d="M664.1,297.9h-6.2c0,21.7,7.9,30,16.3,36.9c-8.3,6.8-16.3,14.9-16.3,36.2h6.2c0-19.2,6.8-26.2,14.5-32.5
			c7.7,6.3,14.5,13.3,14.5,32.5h6.2c0-21.3-7.9-29.3-16.3-36.2c8.4-6.9,16.3-15.2,16.3-36.9h-6.2c0,19.7-6.8,26.9-14.5,33.3
			C670.9,324.8,664.1,317.6,664.1,297.9z"/>
		<path class="st1" d="M472.8,272.2h-5.2c0,18.1,6.6,25,13.6,30.7c-7,5.7-13.6,12.4-13.6,30.1h5.2c0-16,5.7-21.8,12.1-27.1
			c6.4,5.3,12.1,11.1,12.1,27.1h5.2c0-17.7-6.6-24.4-13.6-30.1c7-5.7,13.6-12.7,13.6-30.7H497c0,16.4-5.7,22.4-12.1,27.7
			C478.5,294.5,472.8,288.5,472.8,272.2z"/>
		<path class="st1" d="M599.9,257.6h-5.2c0,18.1,6.6,25,13.6,30.7c-7,5.7-13.6,12.4-13.6,30.1h5.2c0-16,5.7-21.8,12.1-27.1
			c6.4,5.3,12.1,11.1,12.1,27.1h5.2c0-17.7-6.6-24.4-13.6-30.1c7-5.7,13.6-12.7,13.6-30.7h-5.2c0,16.4-5.7,22.4-12.1,27.7
			C605.5,280,599.9,274,599.9,257.6z"/>
		<path class="st1" d="M659.4,212h-3.7c0,12.9,4.7,17.8,9.7,21.9c-5,4-9.7,8.9-9.7,21.5h3.7c0-11.4,4.1-15.6,8.6-19.3
			c4.6,3.8,8.6,7.9,8.6,19.3h3.7c0-12.6-4.7-17.4-9.7-21.5c5-4.1,9.7-9,9.7-21.9h-3.7c0,11.7-4,16-8.6,19.8
			C663.4,228,659.4,223.7,659.4,212z"/>
		<path class="st1" d="M607.7,148.8H604c0,12.9,4.7,17.8,9.7,21.9c-5,4-9.7,8.9-9.7,21.5h3.7c0-11.4,4.1-15.6,8.6-19.3
			c4.6,3.8,8.6,7.9,8.6,19.3h3.7c0-12.6-4.7-17.4-9.7-21.5c5-4.1,9.7-9,9.7-21.9h-3.7c0,11.7-4,16-8.6,19.8
			C611.7,164.8,607.7,160.5,607.7,148.8z"/>
		<path class="st1" d="M718.7,275.8H715c0,12.9,4.7,17.8,9.7,21.9c-5,4-9.7,8.9-9.7,21.5h3.7c0-11.4,4.1-15.6,8.6-19.3
			c4.6,3.8,8.6,7.9,8.6,19.3h3.7c0-12.6-4.7-17.4-9.7-21.5c5-4.1,9.7-9,9.7-21.9h-3.7c0,11.7-4,16-8.6,19.8
			C722.7,291.8,718.7,287.5,718.7,275.8z"/>
		<polygon class="st2" points="521.3,222.8 525.2,216.3 518.7,216.3 518.7,209.9 512.2,213.8 505.8,209.9 505.8,216.3 499.3,216.3 
			503.2,222.8 499.3,229.3 505.8,229.3 505.8,235.7 512.2,231.8 518.7,235.7 518.7,229.3 525.2,229.3 		"/>
		<polygon class="st2" points="713.2,351.6 716,347 711.3,347 711.3,342.4 706.7,345.2 702.1,342.4 702.1,347 697.4,347 
			700.2,351.6 697.4,356.3 702.1,356.3 702.1,360.9 706.7,358.1 711.3,360.9 711.3,356.3 716,356.3 		"/>
		<polygon class="st2" points="466.8,317.1 469.6,312.5 465,312.5 465,307.8 460.3,310.6 455.7,307.8 455.7,312.5 451.1,312.5 
			453.9,317.1 451.1,321.7 455.7,321.7 455.7,326.3 460.3,323.6 465,326.3 465,321.7 469.6,321.7 		"/>
		<polygon class="st2" points="747,291.3 748.8,288.2 745.8,288.2 745.8,285.2 742.7,287 739.7,285.2 739.7,288.2 736.7,288.2 
			738.5,291.3 736.7,294.3 739.7,294.3 739.7,297.3 742.7,295.5 745.8,297.3 745.8,294.3 748.8,294.3 		"/>
	</g>
	<g>
		<path class="st3" d="M169.3,482.9c-32-32.8-99.6-9-108.6,33.9c-10.2,48.7,49.6,84.2,90.2,62.3c25-13.5,38.5-48.7,30.1-76.2
			C178.8,495.5,174.9,488.6,169.3,482.9z"/>
		<path id="XMLID_17_" class="st4" d="M241.8,458.8c-11.1,18.9-29,24.3-48.8,14.9c0,0-14.5-7.3-28-3.2s-21,18.2-21,18.2"/>
		<polygon class="st2" points="229.2,480.6 231.6,475.7 227,476.1 226.6,471.5 222.2,474.6 217.4,472.2 217.7,476.8 213.1,477.2 
			216.3,481.6 213.9,486.4 218.5,486.1 218.9,490.7 223.3,487.5 228.1,489.9 227.7,485.3 232.3,485 		"/>
		<path id="XMLID_15_" class="st4" d="M304.9,425.6c-11.1,18.9-29,24.3-48.8,14.9c0,0-14.5-7.3-28-3.2S207,455.5,207,455.5"/>
		<polygon class="st2" points="292.3,447.3 294.7,442.5 290.1,442.9 289.7,438.3 285.3,441.4 280.5,439 280.8,443.6 276.2,444 
			279.4,448.4 277,453.2 281.6,452.8 282,457.5 286.3,454.3 291.2,456.7 290.8,452.1 295.4,451.7 		"/>
		<path id="XMLID_10_" class="st4" d="M368,392.3c-11.1,18.9-29,24.3-48.8,14.9c0,0-14.5-7.3-28-3.2c-13.5,4.1-21.1,18.2-21.1,18.2"
			/>
		<polygon class="st2" points="355.4,414.1 357.8,409.3 353.2,409.6 352.8,405 348.4,408.2 343.6,405.8 343.9,410.4 339.3,410.7 
			342.5,415.1 340.1,420 344.7,419.6 345.1,424.2 349.4,421.1 354.3,423.5 353.9,418.9 358.5,418.5 		"/>
		<g>
			<circle class="st5" cx="253.5" cy="662.5" r="7.9"/>
			<circle class="st5" cx="248.6" cy="646.9" r="7.9"/>
			<circle class="st5" cx="232.4" cy="645.5" r="7.9"/>
			<circle class="st5" cx="227.5" cy="630" r="7.9"/>
			<circle class="st5" cx="211.3" cy="628.5" r="7.9"/>
			<circle class="st2" cx="206.4" cy="613" r="7.9"/>
			<circle class="st5" cx="190.2" cy="611.6" r="7.9"/>
			<circle class="st5" cx="185.3" cy="596.1" r="7.9"/>
			<circle class="st5" cx="169.1" cy="594.6" r="7.9"/>
			<circle class="st5" cx="164.2" cy="579.1" r="7.9"/>
			<circle class="st5" cx="148" cy="577.6" r="7.9"/>
			<circle class="st5" cx="143.1" cy="562.1" r="7.9"/>
		</g>
	</g>
	<g>
		<circle class="st6" cx="662.6" cy="632.9" r="29.9"/>
		<ellipse class="st7" cx="514.9" cy="532.2" rx="29.9" ry="29.9"/>
		<circle class="st6" cx="446.5" cy="720.4" r="29.9"/>
		<circle class="st2" cx="559.7" cy="547.9" r="29.9"/>
		<circle class="st6" cx="393.5" cy="739.9" r="29.9"/>
		<circle class="st6" cx="600.2" cy="581.6" r="29.9"/>
		<circle class="st6" cx="500.1" cy="659.2" r="29.9"/>
		<circle class="st6" cx="621.4" cy="671.5" r="29.9"/>
		<circle class="st6" cx="558.3" cy="596.2" r="29.9"/>
		<circle class="st6" cx="550.1" cy="638.1" r="29.9"/>
		<circle class="st6" cx="502.6" cy="714.1" r="29.9"/>
		<circle class="st6" cx="576.8" cy="689.2" r="29.9"/>
		<ellipse class="st8" cx="530.4" cy="685.9" rx="29.9" ry="29.9"/>
		<circle class="st6" cx="670.4" cy="677.2" r="29.9"/>
	</g>
	<g>
		<g>
			<polygon class="st9" points="427.6,372.2 410.5,382.2 414.1,388.2 390.3,382 396.5,358.2 400.1,364.3 417.1,354.3 			"/>
		</g>
	</g>
	<g>
		<g>
			<polygon class="st9" points="291.3,703.9 306.6,716.3 302.2,721.8 326.6,719.3 324.1,694.8 319.7,700.3 304.3,687.8 			"/>
		</g>
	</g>
</g>
<g class="st10">
	<path class="st11" d="M565.3,387.4l-1.3-5.2h-7l-1.2,5.2h-5.9l7.3-24.3h7l7.3,24.3H565.3z M557.9,378h5.1l-2.6-10.7L557.9,378z"/>
	<path class="st11" d="M589.1,365.7c2.3,1.7,3.4,4.9,3.4,9.4s-1.1,7.7-3.4,9.5c-2.2,1.8-5.1,2.7-8.7,2.7h-7.3V363h6.8
		C583.7,363.1,586.8,364,589.1,365.7z M578.9,367.3v15.9h1.9c1.9,0,3.3-0.6,4.3-1.8c1-1.2,1.5-3.3,1.5-6.3c0-2.1-0.2-3.7-0.7-4.8
		c-0.5-1.1-1.2-1.9-2-2.4s-1.9-0.6-3.1-0.6L578.9,367.3L578.9,367.3z"/>
	<path class="st11" d="M614.6,387.4h-7.3l-7-18.8c0.2,1.8,0.4,3.5,0.5,4.9s0.2,3.1,0.2,5v8.9h-5.1v-24.3h7.1l7.2,18.8
		c-0.5-3.2-0.8-6.2-0.8-9v-9.8h5.1L614.6,387.4L614.6,387.4z"/>
</g>
<g>
	<path class="st12" d="M215.5,335.5l-1.3-5.2h-7.1l-1.2,5.2h-6l7.3-24.3h7l7.3,24.3H215.5z M208.2,326.1h5.1l-2.6-10.7L208.2,326.1z
		"/>
	<path class="st12" d="M231.4,326.2h-2.2v9.3h-5.7v-24.3h7.9c3.3,0,5.8,0.6,7.5,1.8c1.7,1.2,2.5,3.1,2.5,5.6c0,1.6-0.4,2.9-1.1,3.9
		c-0.7,1-1.9,1.9-3.5,2.6l6.2,10.3h-6.5L231.4,326.2z M229.1,322.2h2.4c1.3,0,2.2-0.3,2.9-0.9c0.6-0.6,1-1.5,1-2.8
		c0-1.2-0.3-2-1-2.6c-0.7-0.5-1.7-0.8-3.2-0.8h-2.1L229.1,322.2L229.1,322.2z"/>
	<path class="st12" d="M263.7,335.5h-7.3l-7-18.8c0.2,1.8,0.4,3.5,0.5,4.9s0.2,3.1,0.2,5v8.9H245v-24.3h7.1l7.2,18.8
		c-0.5-3.2-0.8-6.2-0.8-9v-9.8h5.1L263.7,335.5L263.7,335.5z"/>
</g>
<g>
	<path class="st2" d="M385,792.4c1.8,1.3,2.7,3.3,2.7,5.9c0,2.7-0.9,4.8-2.6,6.2s-4.1,2.1-7,2.1h-2.6v8.1h-5.7v-24.3h7.8
		C380.7,790.4,383.2,791,385,792.4z M380.7,801.4c0.7-0.6,1.1-1.7,1.1-3.2c0-2.5-1.4-3.8-4.3-3.8h-2v7.9h2.1
		C378.9,802.4,380,802.1,380.7,801.4z"/>
	<path class="st2" d="M401.8,795.8l-0.9,5.4c-0.7-0.2-1.3-0.2-1.7-0.2c-1.1,0-1.9,0.4-2.5,1.1c-0.6,0.8-1,1.9-1.3,3.4v9.2h-5.5V796
		h4.8l0.5,3.6c0.4-1.3,1.1-2.3,1.9-3c0.9-0.7,1.8-1.1,2.9-1.1C400.7,795.5,401.3,795.6,401.8,795.8z"/>
	<path class="st2" d="M417.6,798c1.6,1.7,2.4,4.2,2.4,7.3c0,2-0.4,3.7-1.1,5.2s-1.8,2.6-3.2,3.4c-1.4,0.8-3,1.2-4.8,1.2
		c-2.8,0-5-0.9-6.7-2.6c-1.6-1.7-2.4-4.2-2.4-7.3c0-2,0.4-3.7,1.1-5.2s1.8-2.6,3.2-3.4c1.4-0.8,3-1.2,4.8-1.2
		C413.8,795.4,416,796.3,417.6,798z M408.4,800.9c-0.6,0.9-0.8,2.4-0.8,4.4s0.3,3.5,0.8,4.4s1.4,1.4,2.5,1.4s2-0.5,2.5-1.4
		s0.8-2.4,0.8-4.4s-0.3-3.5-0.8-4.4s-1.4-1.4-2.5-1.4S409,800,408.4,800.9z"/>
	<path class="st2" d="M435,813.7c-0.7,0.5-1.5,0.8-2.4,1.1s-1.8,0.4-2.7,0.4c-4.1,0-6.1-2.3-6.1-6.7v-8.6h-2.6V796h2.6v-4l5.5-0.6
		v4.7h4.3L433,800h-3.7v8.5c0,0.9,0.1,1.5,0.4,1.9s0.7,0.6,1.3,0.6c0.6,0,1.3-0.2,2-0.6L435,813.7z"/>
	<path class="st2" d="M452.3,807h-11.5c0.2,1.6,0.6,2.7,1.3,3.3c0.7,0.6,1.7,0.9,2.9,0.9c0.7,0,1.5-0.1,2.2-0.4
		c0.7-0.3,1.5-0.7,2.3-1.2l2.3,3.1c-2.2,1.7-4.6,2.6-7.2,2.6c-3,0-5.3-0.9-6.9-2.7s-2.4-4.2-2.4-7.1c0-1.9,0.3-3.6,1-5.1
		s1.7-2.7,3-3.6s2.9-1.3,4.7-1.3c2.7,0,4.8,0.8,6.3,2.5s2.3,4,2.3,7C452.4,805.7,452.4,806.4,452.3,807z M447,803.4
		c0-2.8-1.1-4.3-3-4.3c-1,0-1.7,0.4-2.2,1.1c-0.5,0.7-0.8,1.9-1,3.5h6.2V803.4z"/>
	<path class="st2" d="M456.2,787.5c0.5,0.5,0.8,1.2,0.8,2s-0.3,1.4-0.8,2c-0.5,0.5-1.2,0.8-2,0.8s-1.5-0.3-2-0.8s-0.8-1.2-0.8-2
		s0.3-1.4,0.8-2c0.5-0.5,1.2-0.8,2-0.8S455.7,786.9,456.2,787.5z M461.1,796v18.6h-5.5V796H461.1z M464.3,787.5
		c0.5,0.5,0.8,1.2,0.8,2s-0.3,1.4-0.8,2c-0.5,0.5-1.2,0.8-2,0.8s-1.4-0.3-2-0.8c-0.5-0.5-0.8-1.2-0.8-2s0.3-1.4,0.8-2
		c0.5-0.5,1.2-0.8,2-0.8C463.1,786.7,463.8,786.9,464.3,787.5z"/>
	<path class="st2" d="M480.1,796.9c0.9,1,1.4,2.4,1.4,4.1v13.6H476V802c0-0.9-0.1-1.6-0.4-1.9c-0.3-0.4-0.7-0.5-1.3-0.5
		c-1.1,0-2.2,0.8-3.2,2.4v12.7h-5.5V796h4.8l0.4,2.2c0.8-0.9,1.7-1.6,2.6-2.1s2-0.7,3.1-0.7C477.9,795.4,479.2,795.9,480.1,796.9z"
		/>
	<path class="st2" d="M500.7,810.8c0.2,0.3,0.5,0.6,1,0.7l-1.2,3.6c-1.1-0.1-2.1-0.3-2.8-0.8c-0.7-0.4-1.3-1.1-1.7-1.9
		c-1.2,1.9-3.1,2.8-5.6,2.8c-1.8,0-3.3-0.5-4.4-1.6s-1.6-2.5-1.6-4.2c0-2,0.7-3.6,2.2-4.7c1.5-1.1,3.7-1.6,6.5-1.6h1.9v-0.8
		c0-1.1-0.2-1.8-0.7-2.3c-0.5-0.4-1.3-0.6-2.5-0.6c-0.6,0-1.3,0.1-2.2,0.3c-0.9,0.2-1.8,0.4-2.7,0.7l-1.3-3.6c1.2-0.4,2.4-0.8,3.6-1
		s2.4-0.4,3.4-0.4c2.7,0,4.6,0.5,5.8,1.6s1.9,2.7,1.9,4.9v7.2C500.4,809.9,500.5,810.4,500.7,810.8z M494.9,809.5v-3.3h-1.4
		c-1.3,0-2.2,0.2-2.8,0.7c-0.6,0.4-0.9,1.1-0.9,2.1c0,0.7,0.2,1.3,0.6,1.7s0.9,0.6,1.6,0.6C493.3,811.3,494.2,810.7,494.9,809.5z"/>
	<path class="st2" d="M537.1,796.9c0.9,1,1.3,2.4,1.3,4.1v13.6h-5.5V802c0-1.7-0.5-2.5-1.6-2.5c-0.6,0-1.1,0.2-1.5,0.6
		c-0.4,0.4-0.9,1-1.3,1.8v12.7H523V802c0-1.7-0.5-2.5-1.6-2.5c-0.6,0-1.1,0.2-1.5,0.6s-0.9,1-1.3,1.8v12.7h-5.5V796h4.8l0.4,2.2
		c0.7-0.9,1.5-1.6,2.4-2.1s1.9-0.7,3-0.7c1,0,2,0.3,2.7,0.8c0.8,0.5,1.3,1.2,1.7,2.2c0.7-1,1.6-1.7,2.5-2.2s1.9-0.7,3.1-0.7
		C535.1,795.4,536.3,795.9,537.1,796.9z"/>
	<path class="st2" d="M558.3,814.6h-4.8l-0.2-2.3c-1.4,2-3.2,2.9-5.6,2.9c-1.7,0-3-0.5-3.9-1.5s-1.3-2.5-1.3-4.3V796h5.5v12.6
		c0,0.9,0.1,1.5,0.4,1.9s0.7,0.5,1.3,0.5c1.2,0,2.2-0.7,3-2.2V796h5.5L558.3,814.6L558.3,814.6z"/>
	<path class="st2" d="M574.3,813.7c-0.7,0.5-1.5,0.8-2.4,1.1s-1.8,0.4-2.7,0.4c-4.1,0-6.1-2.3-6.1-6.7v-8.6h-2.6V796h2.6v-4l5.5-0.6
		v4.7h4.3l-0.6,3.9h-3.7v8.5c0,0.9,0.1,1.5,0.4,1.9c0.3,0.4,0.7,0.6,1.3,0.6s1.3-0.2,2-0.6L574.3,813.7z"/>
	<path class="st2" d="M590.8,810.8c0.2,0.3,0.5,0.6,1,0.7l-1.2,3.6c-1.1-0.1-2.1-0.3-2.8-0.8c-0.7-0.4-1.3-1.1-1.7-1.9
		c-1.2,1.9-3.1,2.8-5.6,2.8c-1.8,0-3.3-0.5-4.4-1.6c-1.1-1.1-1.6-2.5-1.6-4.2c0-2,0.7-3.6,2.2-4.7c1.5-1.1,3.7-1.6,6.5-1.6h1.9v-0.8
		c0-1.1-0.2-1.8-0.7-2.3s-1.3-0.6-2.4-0.6c-0.6,0-1.3,0.1-2.2,0.3s-1.8,0.4-2.7,0.7l-1.3-3.6c1.2-0.4,2.4-0.8,3.6-1
		c1.2-0.2,2.4-0.4,3.4-0.4c2.7,0,4.6,0.5,5.8,1.6s1.9,2.7,1.9,4.9v7.2C590.5,809.9,590.6,810.4,590.8,810.8z M585.1,809.5v-3.3h-1.4
		c-1.3,0-2.2,0.2-2.8,0.7c-0.6,0.4-0.9,1.1-0.9,2.1c0,0.7,0.2,1.3,0.6,1.7s0.9,0.6,1.6,0.6C583.4,811.3,584.4,810.7,585.1,809.5z"/>
	<path class="st2" d="M609.6,796.9c0.9,1,1.4,2.4,1.4,4.1v13.6h-5.5V802c0-0.9-0.1-1.6-0.4-1.9c-0.3-0.4-0.7-0.5-1.3-0.5
		c-1.1,0-2.2,0.8-3.2,2.4v12.7h-5.5V796h4.8l0.4,2.2c0.8-0.9,1.7-1.6,2.6-2.1s2-0.7,3.1-0.7C607.4,795.4,608.7,795.9,609.6,796.9z"
		/>
	<path class="st2" d="M626.8,813.7c-0.7,0.5-1.5,0.8-2.4,1.1s-1.8,0.4-2.7,0.4c-4.1,0-6.1-2.3-6.1-6.7v-8.6H613V796h2.6v-4l5.5-0.6
		v4.7h4.3l-0.6,3.9h-3.7v8.5c0,0.9,0.1,1.5,0.4,1.9c0.3,0.4,0.7,0.6,1.3,0.6s1.3-0.2,2-0.6L626.8,813.7z"/>
</g>
<g class="st10">
	<path class="st2" d="M390.9,233.4h-5.6l-0.4-9.5c-0.1-2.3-0.2-4.3-0.2-6.1c0-1.4,0-2.6,0.1-3.8l-3.7,16.8h-5.4l-4-16.8
		c0.1,2,0.2,3.9,0.2,5.7c0,1.4,0,2.8-0.1,4.2l-0.4,9.4h-5.6l1.8-24.3h7.2l3.6,16.5l3.4-16.5h7.3L390.9,233.4z"/>
	<path class="st2" d="M409.9,233.4h-4.8l-0.2-2.3c-1.4,2-3.2,2.9-5.6,2.9c-1.7,0-3-0.5-3.9-1.5s-1.3-2.5-1.3-4.3v-13.3h5.5v12.6
		c0,0.9,0.1,1.5,0.4,1.9c0.3,0.4,0.7,0.5,1.3,0.5c1.2,0,2.2-0.7,3-2.2v-12.9h5.5V233.4z"/>
	<path class="st2" d="M425.9,232.5c-0.7,0.5-1.5,0.8-2.4,1.1c-0.9,0.3-1.8,0.4-2.7,0.4c-4.1,0-6.1-2.3-6.1-6.7v-8.6h-2.6v-3.8h2.6
		v-4l5.5-0.6v4.7h4.3l-0.6,3.8h-3.7v8.5c0,0.9,0.1,1.5,0.4,1.9s0.7,0.6,1.3,0.6c0.6,0,1.3-0.2,2-0.6L425.9,232.5z"/>
	<path class="st2" d="M442.4,229.5c0.2,0.3,0.5,0.6,1,0.7l-1.2,3.6c-1.1-0.1-2.1-0.3-2.8-0.8c-0.7-0.4-1.3-1.1-1.7-1.9
		c-1.2,1.9-3.1,2.8-5.6,2.8c-1.8,0-3.3-0.5-4.4-1.6c-1.1-1.1-1.6-2.5-1.6-4.2c0-2,0.7-3.6,2.2-4.7c1.5-1.1,3.7-1.6,6.5-1.6h1.9v-0.8
		c0-1.1-0.2-1.8-0.7-2.3c-0.5-0.4-1.3-0.6-2.4-0.6c-0.6,0-1.3,0.1-2.2,0.3c-0.9,0.2-1.8,0.4-2.7,0.7l-1.3-3.6c1.2-0.4,2.4-0.8,3.6-1
		c1.2-0.2,2.4-0.3,3.4-0.3c2.7,0,4.6,0.5,5.8,1.6c1.2,1.1,1.9,2.7,1.9,4.9v7.2C442.1,228.7,442.2,229.2,442.4,229.5z M436.6,228.2
		v-3.3h-1.4c-1.3,0-2.2,0.2-2.8,0.7c-0.6,0.4-0.9,1.1-0.9,2.1c0,0.7,0.2,1.3,0.6,1.7c0.4,0.4,0.9,0.6,1.6,0.6
		C435,230,435.9,229.4,436.6,228.2z"/>
	<path class="st2" d="M458,214.8c1,0.4,2,0.9,2.9,1.7l-2.4,3.3c-1.2-0.9-2.3-1.3-3.5-1.3c-1.2,0-2.2,0.5-2.8,1.4s-0.9,2.4-0.9,4.4
		c0,2,0.3,3.3,0.9,4.2c0.6,0.8,1.5,1.2,2.7,1.2c0.6,0,1.2-0.1,1.7-0.3c0.5-0.2,1.1-0.5,1.9-1l2.4,3.4c-1.8,1.5-3.9,2.2-6.3,2.2
		c-1.9,0-3.5-0.4-4.9-1.2c-1.4-0.8-2.4-1.9-3.2-3.4c-0.7-1.5-1.1-3.2-1.1-5.1s0.4-3.7,1.1-5.2c0.7-1.5,1.8-2.7,3.2-3.6
		s3-1.3,4.8-1.3C455.8,214.2,457,214.4,458,214.8z"/>
	<path class="st2" d="M468.3,205.9c0.6,0.6,0.9,1.3,0.9,2.3c0,0.9-0.3,1.7-0.9,2.3s-1.4,0.9-2.4,0.9c-1,0-1.7-0.3-2.3-0.9
		c-0.6-0.6-0.9-1.3-0.9-2.3c0-0.9,0.3-1.7,0.9-2.3c0.6-0.6,1.4-0.9,2.3-0.9C466.9,205,467.7,205.3,468.3,205.9z M468.8,214.8v18.6
		h-5.5v-18.6H468.8z"/>
	<path class="st2" d="M487.8,216.8c1.6,1.7,2.4,4.2,2.4,7.3c0,2-0.4,3.7-1.1,5.2s-1.8,2.6-3.2,3.4c-1.4,0.8-3,1.2-4.8,1.2
		c-2.8,0-5-0.9-6.7-2.6c-1.6-1.7-2.4-4.2-2.4-7.3c0-2,0.4-3.7,1.1-5.2c0.7-1.5,1.8-2.6,3.2-3.4c1.4-0.8,3-1.2,4.8-1.2
		C484,214.2,486.2,215.1,487.8,216.8z M483.7,204.1l2.2,4.1l-8.3,3.3l-1.5-2.8L483.7,204.1z M478.6,219.7c-0.6,0.9-0.8,2.4-0.8,4.4
		c0,2,0.3,3.5,0.8,4.4c0.5,0.9,1.4,1.4,2.5,1.4c1.1,0,2-0.5,2.5-1.4c0.6-0.9,0.8-2.4,0.8-4.4c0-2-0.3-3.5-0.8-4.4
		c-0.5-0.9-1.4-1.4-2.5-1.4C480,218.3,479.2,218.7,478.6,219.7z"/>
</g>
</svg>
