<?xml version="1.0" encoding="utf-8"?>
<!-- Generator: Adobe Illustrator 24.1.0, SVG Export Plug-In . SVG Version: 6.00 Build 0)  -->
<svg version="1.1" id="Capa_1" xmlns="http://www.w3.org/2000/svg" xmlns:xlink="http://www.w3.org/1999/xlink" x="0px" y="0px"
	 viewBox="0 0 929 926.3" style="enable-background:new 0 0 929 926.3;" xml:space="preserve">
<style type="text/css">
	.st0{fill:#C0D9DF;}
	.st1{fill:#FAFCFC;stroke:#8FB5BC;stroke-width:0.5;stroke-miterlimit:10;}
	.st2{fill:none;stroke:#CC6633;stroke-width:0.5;stroke-miterlimit:10;}
	.st3{fill:none;stroke:#FA7F43;stroke-width:0.5;stroke-miterlimit:10;}
</style>
<g>
	<g>
		<g>
			<path class="st0" d="M928.9,409c0.1,4.9,0.1,9.7-0.1,14.6C929,418.7,929,413.9,928.9,409z"/>
		</g>
		<path class="st1" d="M744,115.7c-15.1-9.6-28.2-21.4-40.9-32.8c-9.3-8.4-19-17.1-29.2-24.6c-2.3-1.7-4.7-3.2-7.1-4.6l0,0
			c-14.1-8.1-29.9-11.5-46.6-15.1c-6.3-1.4-12.7-2.7-19-4.4c-13.1-3.4-26-7.1-38.4-10.8C523.7,12.1,486.7,1.4,444.9,0.6
			c-2.3,0-4.6-0.1-6.9-0.1c-54.9,0-110.1,12.4-164.2,36.8c-41.2,18.6-70.2,48.8-100.9,80.8c-7.3,7.6-14.6,15.3-22.2,22.8
			c-8.4,8.3-16.7,16.3-25,24.2C91.9,197.4,60,227.8,40.5,273C18,325.4,4.3,386.6,1.1,450c-3.9,76.1,12.8,155.9,47,224.7
			c24.4,49,56.4,95.9,97.8,143.5c16.3,18.7,32.3,32.9,49,43.4c47.7,30.1,116.3,47.4,163.8,57.8c68.9,15.1,124.8,1.1,185.5-17.3
			c13.3-4,27.1-5.8,40.5-7.4c16.6-2.1,32.3-4.1,46.9-10c13.3-5.4,23.9-14.8,35.1-24.7c8.3-7.4,16.9-15,26.9-21.1
			c7.6-4.6,15.4-9,23.1-13.3c14.5-8.2,29.5-16.6,43.3-26.8c50.5-37.3,83.6-81.4,98.3-131.2c4.3-14.7,7.4-30.2,10.3-45.1
			c4.4-22.7,9-46.1,18.2-68c2.4-5.7,4.8-11.2,7.1-16.5c12.4-28.4,23.1-52.9,26.5-85.9c8.2-78.5-9.9-158.7-49.5-219.9
			C844.8,191.3,803.2,153.3,744,115.7z"/>
		<path class="st2" d="M448.9,606.4c-160.2,70.5-376.1-82.1-322.5-263.3c47.2-159.9,310.4-229.4,421.6-95.5
			c19.5,23.4,31.9,50.6,38.1,79.3C609.4,433.9,547.6,563,448.9,606.4z"/>
	</g>
	<path class="st3" d="M504,398.8c-36.6-44.1-123.3-21.2-138.8,31.4c-17.6,59.7,53.5,109.9,106.2,86.7c32.5-14.3,52.9-56.8,45.2-92
		C514.5,415.4,510.4,406.5,504,398.8z"/>
</g>
</svg>
