<?xml version="1.0" encoding="utf-8"?>
<!-- Generator: Adobe Illustrator 24.1.0, SVG Export Plug-In . SVG Version: 6.00 Build 0)  -->
<svg version="1.1" id="Capa_1" xmlns="http://www.w3.org/2000/svg" xmlns:xlink="http://www.w3.org/1999/xlink" x="0px" y="0px"
	 viewBox="0 0 975.1 1008.9" style="enable-background:new 0 0 975.1 1008.9;" xml:space="preserve">
<style type="text/css">
	.st0{fill:#F4F9F9;stroke:#8FB5BC;stroke-width:0.5;stroke-miterlimit:10;}
	.st1{fill:#CC6633;}
	.st2{fill:#FFFFFF;}
	.st3{fill:#FA7F43;}
	.st4{fill:#C0D9DF;}
	.st5{fill:#032836;}
	.st6{fill:#373A47;}
	.st7{fill:#FFFFFF;stroke:#FF6600;stroke-width:0.75;stroke-miterlimit:10;}
	.st8{fill:none;stroke:#8FB5BC;stroke-width:3;stroke-miterlimit:10;}
</style>
<g>
	<g>
		<path class="st0" d="M734.8,158.6c-14.8-9.4-27.6-21-40.1-32.1c-9.1-8.2-18.6-16.7-28.6-24.1c-2.2-1.6-4.6-3.2-7-4.5l0,0
			c-13.8-7.9-29.3-11.3-45.6-14.8c-6.2-1.3-12.4-2.7-18.6-4.3c-12.8-3.3-25.4-7-37.6-10.5C519,57.1,482.8,46.6,441.9,45.8
			c-2.3,0-4.5-0.1-6.8-0.1c-53.8,0-107.8,12.1-160.8,36.1c-40.4,18.2-68.8,47.8-98.8,79.2c-7.1,7.4-14.3,14.9-21.8,22.4
			c-8.2,8.2-16.4,16-24.5,23.7c-33.1,31.6-64.4,61.4-83.4,105.6C23.7,364,10.3,424,7.1,486.1c-3.8,74.5,12.5,152.7,46.1,220.1
			c23.9,48,55.2,94,95.8,140.5c15.9,18.3,31.6,32.2,48,42.5c46.7,29.5,114,46.4,160.5,56.6c67.5,14.8,122.2,1.1,181.7-16.9
			c13-3.9,26.5-5.6,39.6-7.3c16.2-2,31.6-4,45.9-9.8c13.1-5.3,23.4-14.5,34.4-24.2c8.2-7.2,16.6-14.7,26.4-20.6
			c7.5-4.5,15-8.8,22.6-13.1c14.2-8,28.9-16.3,42.4-26.3c49.4-36.5,81.8-79.8,96.3-128.6c4.2-14.4,7.2-29.5,10.1-44.2
			c4.3-22.2,8.8-45.1,17.9-66.6c2.4-5.6,4.7-10.9,7-16.2c12.1-27.8,22.6-51.8,25.9-84.2c8-76.9-9.7-155.4-48.4-215.4
			C833.5,232.7,792.8,195.4,734.8,158.6z"/>
		<g>
			<g>
				<path class="st1" d="M561.5,368.1c-108.9-131.2-366.7-63.1-413,93.5c-52.4,177.5,159,327,315.9,257.9
					c96.8-42.6,157.2-169,134.4-273.8C592.7,417.7,580.5,391.1,561.5,368.1z"/>
			</g>
		</g>
		<g>
			<path class="st2" d="M324.5,460c10.5-8.3,20.4-18.3,20.4-44.2c0-1.8-1.8-3.3-4.1-3.3c-2.3,0-4.1,1.5-4.1,3.3
				c0,23.4-8.4,32-18.1,39.6c-9.7-7.6-18.1-16.2-18.1-39.6c0-1.8-1.8-3.3-4.1-3.3c-2.3,0-4.1,1.5-4.1,3.3c0,26,9.9,36,20.4,44.2
				c-10.5,8.2-20.4,17.9-20.4,43.3c0,1.8,1.8,3.3,4.1,3.3c2.3,0,4.1-1.5,4.1-3.3c0-22.9,8.5-31.2,18.1-38.8
				c9.6,7.5,18.1,15.9,18.1,38.8c0,1.8,1.8,3.3,4.1,3.3c2.3,0,4.1-1.5,4.1-3.3C344.9,477.9,335,468.2,324.5,460z"/>
			<path class="st2" d="M258.4,520.8c6.6-5.2,12.9-11.5,12.9-27.9c0-1.2-1.2-2.1-2.6-2.1s-2.6,0.9-2.6,2.1c0,14.8-5.3,20.2-11.4,25
				c-6.1-4.8-11.4-10.2-11.4-25c0-1.2-1.2-2.1-2.6-2.1c-1.4,0-2.6,0.9-2.6,2.1c0,16.4,6.2,22.7,12.9,27.9
				c-6.6,5.2-12.9,11.3-12.9,27.3c0,1.2,1.2,2.1,2.6,2.1c1.4,0,2.6-0.9,2.6-2.1c0-14.4,5.4-19.7,11.4-24.5
				c6.1,4.7,11.4,10,11.4,24.5c0,1.2,1.2,2.1,2.6,2.1s2.6-0.9,2.6-2.1C271.3,532.1,265,526,258.4,520.8z"/>
			<path class="st2" d="M456.6,553.6c8-6.3,15.5-13.8,15.5-33.5c0-1.4-1.4-2.5-3.1-2.5s-3.1,1.1-3.1,2.5c0,17.8-6.4,24.3-13.7,30
				c-7.3-5.8-13.7-12.3-13.7-30c0-1.4-1.4-2.5-3.1-2.5s-3.1,1.1-3.1,2.5c0,19.7,7.5,27.3,15.5,33.5c-7.9,6.2-15.5,13.6-15.5,32.8
				c0,1.4,1.4,2.5,3.1,2.5s3.1-1.1,3.1-2.5c0-17.3,6.4-23.7,13.7-29.4c7.3,5.7,13.7,12,13.7,29.4c0,1.4,1.4,2.5,3.1,2.5
				s3.1-1.1,3.1-2.5C472.1,567.2,464.6,559.8,456.6,553.6z"/>
			<path class="st2" d="M391.2,386.6c4.4-3.5,8.6-7.7,8.6-18.7c0-0.8-0.8-1.4-1.7-1.4s-1.7,0.6-1.7,1.4c0,9.9-3.6,13.5-7.6,16.7
				c-4.1-3.2-7.6-6.8-7.6-16.7c0-0.8-0.8-1.4-1.7-1.4s-1.7,0.6-1.7,1.4c0,11,4.2,15.2,8.6,18.7c-4.4,3.5-8.6,7.6-8.6,18.3
				c0,0.8,0.8,1.4,1.7,1.4s1.7-0.6,1.7-1.4c0-9.6,3.6-13.2,7.6-16.4c4.1,3.2,7.6,6.7,7.6,16.4c0,0.8,0.8,1.4,1.7,1.4
				s1.7-0.6,1.7-1.4C399.8,394.2,395.6,390.1,391.2,386.6z"/>
			<path class="st2" d="M387.9,507c6.4-5,12.5-11.1,12.5-27c0-1.1-1.1-2-2.5-2s-2.5,0.9-2.5,2c0,14.3-5.2,19.6-11.1,24.2
				c-5.9-4.6-11.1-9.9-11.1-24.2c0-1.1-1.1-2-2.5-2s-2.5,0.9-2.5,2c0,15.8,6,21.9,12.5,27c-6.4,5-12.5,10.9-12.5,26.4
				c0,1.1,1.1,2,2.5,2s2.5-0.9,2.5-2c0-14,5.2-19.1,11.1-23.7c5.9,4.6,11.1,9.7,11.1,23.7c0,1.1,1.1,2,2.5,2s2.5-0.9,2.5-2
				C400.4,517.9,394.3,512,387.9,507z"/>
			<path class="st2" d="M262.2,413.5c4.4-3.5,8.6-7.7,8.6-18.7c0-0.8-0.8-1.4-1.7-1.4s-1.7,0.6-1.7,1.4c0,9.9-3.6,13.5-7.6,16.7
				c-4.1-3.2-7.6-6.8-7.6-16.7c0-0.8-0.8-1.4-1.7-1.4s-1.7,0.6-1.7,1.4c0,11,4.2,15.2,8.6,18.7c-4.4,3.5-8.6,7.6-8.6,18.3
				c0,0.8,0.8,1.4,1.7,1.4s1.7-0.6,1.7-1.4c0-9.6,3.6-13.2,7.6-16.4c4.1,3.2,7.6,6.7,7.6,16.4c0,0.8,0.8,1.4,1.7,1.4
				s1.7-0.6,1.7-1.4C270.8,421,266.6,416.9,262.2,413.5z"/>
			<path class="st2" d="M504.1,515.8c4.4-3.5,8.6-7.7,8.6-18.7c0-0.8-0.8-1.4-1.7-1.4s-1.7,0.6-1.7,1.4c0,9.9-3.6,13.5-7.6,16.7
				c-4.1-3.2-7.6-6.8-7.6-16.7c0-0.8-0.8-1.4-1.7-1.4s-1.7,0.6-1.7,1.4c0,11,4.2,15.2,8.6,18.7c-4.4,3.5-8.6,7.6-8.6,18.3
				c0,0.8,0.8,1.4,1.7,1.4s1.7-0.6,1.7-1.4c0-9.6,3.6-13.2,7.6-16.4c4.1,3.2,7.6,6.7,7.6,16.4c0,0.8,0.8,1.4,1.7,1.4
				s1.7-0.6,1.7-1.4C512.7,523.3,508.5,519.2,504.1,515.8z"/>
		</g>
		<path class="st3" d="M788.2,615.5c-29.9-36-100.6-17.3-113.3,25.7c-14.4,48.7,43.6,89.7,86.7,70.8c26.6-11.7,43.2-46.4,36.9-75.1
			C796.8,629.1,793.5,621.8,788.2,615.5z"/>
	</g>
	<g>
		<path class="st1" d="M96.8,329.3h-7.3l-7-18.8c0.2,1.8,0.4,3.5,0.5,4.9s0.2,3.1,0.2,5v8.9h-5.1V305h7.1l7.2,18.8
			c-0.5-3.2-0.8-6.2-0.8-9V305h5.1v24.3H96.8z"/>
		<path class="st1" d="M116.9,329.3h-4.8l-0.2-2.3c-1.4,2-3.2,2.9-5.6,2.9c-1.7,0-3-0.5-3.9-1.5s-1.3-2.5-1.3-4.3v-13.3h5.5v12.6
			c0,0.9,0.1,1.5,0.4,1.9s0.7,0.5,1.3,0.5c1.2,0,2.2-0.7,3-2.2v-12.9h5.5L116.9,329.3L116.9,329.3z"/>
		<path class="st1" d="M132.8,310.7c1,0.4,2,0.9,2.9,1.7l-2.4,3.3c-1.2-0.9-2.3-1.3-3.5-1.3s-2.2,0.5-2.8,1.4s-0.9,2.4-0.9,4.4
			s0.3,3.3,0.9,4.2c0.6,0.8,1.5,1.2,2.7,1.2c0.6,0,1.2-0.1,1.7-0.3c0.5-0.2,1.1-0.5,1.9-1l2.4,3.4c-1.8,1.5-3.9,2.2-6.3,2.2
			c-1.9,0-3.5-0.4-4.9-1.2c-1.4-0.8-2.4-1.9-3.2-3.4c-0.7-1.5-1.1-3.2-1.1-5.1c0-2,0.4-3.7,1.1-5.2s1.8-2.7,3.2-3.6
			c1.4-0.9,3-1.3,4.8-1.3C130.6,310.1,131.8,310.3,132.8,310.7z"/>
		<path class="st1" d="M139.2,328.5c-0.9-0.9-1.3-2.2-1.3-3.9v-21.2l5.5-0.6v21.6c0,0.8,0.3,1.2,0.9,1.2c0.3,0,0.6-0.1,0.9-0.2
			l1.1,3.9c-1,0.4-2.1,0.6-3.4,0.6C141.4,329.9,140.1,329.4,139.2,328.5z"/>
		<path class="st1" d="M164.3,321.6h-11.5c0.2,1.6,0.6,2.7,1.3,3.3s1.7,0.9,2.9,0.9c0.7,0,1.5-0.1,2.2-0.4s1.5-0.7,2.3-1.2l2.3,3.1
			c-2.2,1.7-4.6,2.6-7.2,2.6c-3,0-5.3-0.9-6.9-2.7c-1.6-1.8-2.4-4.2-2.4-7.1c0-1.9,0.3-3.6,1-5.1s1.7-2.7,3-3.6s2.9-1.3,4.7-1.3
			c2.7,0,4.8,0.8,6.3,2.5s2.3,4,2.3,7C164.5,320.4,164.4,321.1,164.3,321.6z M159,318.1c0-2.8-1.1-4.3-3-4.3c-1,0-1.7,0.4-2.2,1
			c-0.5,0.7-0.8,1.9-1,3.5h6.2V318.1z"/>
		<path class="st1" d="M183.2,329.3h-4.8l-0.2-2.3c-1.4,2-3.2,2.9-5.6,2.9c-1.7,0-3-0.5-3.9-1.5s-1.3-2.5-1.3-4.3v-13.3h5.5v12.6
			c0,0.9,0.1,1.5,0.4,1.9c0.3,0.4,0.7,0.5,1.3,0.5c1.2,0,2.2-0.7,3-2.2v-12.9h5.5v18.6H183.2z"/>
		<path class="st1" d="M197.9,310.7c1.2,0.4,2.2,1,3.1,1.7l-2,3.1c-1.5-1-3-1.4-4.6-1.4c-0.7,0-1.3,0.1-1.7,0.4
			c-0.4,0.2-0.6,0.6-0.6,1s0.1,0.6,0.3,0.9c0.2,0.2,0.5,0.4,1.1,0.7c0.5,0.2,1.4,0.5,2.5,0.8c1.9,0.6,3.4,1.3,4.3,2.2
			c0.9,0.9,1.4,2.1,1.4,3.7c0,1.3-0.4,2.4-1.1,3.3s-1.7,1.6-3,2.1s-2.7,0.7-4.2,0.7c-1.6,0-3-0.2-4.4-0.7c-1.3-0.5-2.5-1.2-3.4-2
			l2.7-3c1.6,1.2,3.2,1.8,4.9,1.8c0.8,0,1.5-0.2,2-0.5s0.7-0.7,0.7-1.3c0-0.4-0.1-0.8-0.3-1.1c-0.2-0.3-0.5-0.5-1.1-0.7
			c-0.5-0.2-1.4-0.5-2.6-0.8c-1.8-0.5-3.2-1.3-4.1-2.2c-0.9-1-1.4-2.1-1.4-3.6c0-1.1,0.3-2,0.9-2.9c0.6-0.9,1.5-1.5,2.7-2
			s2.5-0.8,4-0.8C195.5,310.1,196.7,310.3,197.9,310.7z"/>
	</g>
	<g>
		<path class="st3" d="M668.7,206c1.8,1.3,2.7,3.3,2.7,5.9c0,2.7-0.9,4.8-2.6,6.2c-1.7,1.4-4.1,2.1-7,2.1h-2.6v8.1h-5.7V204h7.8
			C664.4,204,666.9,204.7,668.7,206z M664.3,215.1c0.7-0.6,1.1-1.7,1.1-3.2c0-2.5-1.4-3.8-4.3-3.8h-2v7.9h2.1
			C662.6,216.1,663.6,215.8,664.3,215.1z"/>
		<path class="st3" d="M685.5,209.4l-0.9,5.4c-0.7-0.2-1.3-0.2-1.7-0.2c-1.1,0-1.9,0.4-2.5,1.1c-0.6,0.8-1,1.9-1.3,3.4v9.2h-5.5
			v-18.6h4.8l0.5,3.6c0.4-1.3,1.1-2.3,1.9-3c0.9-0.7,1.8-1.1,2.9-1.1C684.3,209.2,684.9,209.3,685.5,209.4z"/>
		<path class="st3" d="M701.3,211.7c1.6,1.7,2.4,4.2,2.4,7.3c0,2-0.4,3.7-1.1,5.2c-0.7,1.5-1.8,2.6-3.1,3.4s-3,1.2-4.8,1.2
			c-2.8,0-5-0.9-6.7-2.6c-1.6-1.7-2.4-4.2-2.4-7.3c0-2,0.4-3.7,1.1-5.2c0.7-1.5,1.8-2.6,3.1-3.4c1.4-0.8,3-1.2,4.8-1.2
			C697.5,209.1,699.7,210,701.3,211.7z M692.1,214.6c-0.6,0.9-0.8,2.4-0.8,4.4s0.3,3.5,0.8,4.4s1.4,1.4,2.5,1.4s2-0.5,2.5-1.4
			c0.6-0.9,0.8-2.4,0.8-4.4s-0.3-3.5-0.8-4.4s-1.4-1.4-2.5-1.4C693.5,213.2,692.6,213.6,692.1,214.6z"/>
		<path class="st3" d="M718.7,227.4c-0.7,0.5-1.5,0.8-2.4,1.1s-1.8,0.4-2.7,0.4c-4.1,0-6.1-2.3-6.1-6.7v-8.6h-2.6v-3.9h2.6v-4
			l5.5-0.6v4.7h4.3l-0.6,3.9H713v8.5c0,0.9,0.1,1.5,0.4,1.9c0.3,0.4,0.7,0.6,1.3,0.6s1.3-0.2,2-0.6L718.7,227.4z"/>
		<path class="st3" d="M736,220.6h-11.5c0.2,1.6,0.6,2.7,1.3,3.3s1.7,0.9,2.9,0.9c0.7,0,1.5-0.1,2.2-0.4c0.7-0.3,1.5-0.7,2.3-1.2
			l2.3,3.1c-2.2,1.7-4.6,2.6-7.2,2.6c-3,0-5.3-0.9-6.9-2.7c-1.6-1.8-2.4-4.2-2.4-7.1c0-1.9,0.3-3.6,1-5.1s1.7-2.7,3-3.6
			s2.9-1.3,4.7-1.3c2.7,0,4.8,0.8,6.3,2.5s2.3,4,2.3,7C736.1,219.4,736,220.1,736,220.6z M730.7,217.1c0-2.8-1.1-4.3-3-4.3
			c-1,0-1.7,0.4-2.2,1c-0.5,0.7-0.8,1.9-1,3.5h6.2V217.1z"/>
		<path class="st3" d="M744.3,200.8c0.6,0.6,0.9,1.3,0.9,2.3c0,0.9-0.3,1.7-0.9,2.3c-0.6,0.6-1.4,0.9-2.4,0.9s-1.7-0.3-2.3-0.9
			c-0.6-0.6-0.9-1.3-0.9-2.3c0-0.9,0.3-1.7,0.9-2.3c0.6-0.6,1.4-0.9,2.3-0.9S743.7,200.2,744.3,200.8z M744.7,209.7v18.6h-5.5v-18.6
			H744.7z"/>
		<path class="st3" d="M763.7,210.6c0.9,1,1.4,2.4,1.4,4.1v13.6h-5.5v-12.6c0-0.9-0.1-1.6-0.4-1.9c-0.3-0.4-0.7-0.5-1.3-0.5
			c-1.1,0-2.2,0.8-3.2,2.4v12.7h-5.5v-18.6h4.8l0.4,2.2c0.8-0.9,1.7-1.6,2.6-2.1c0.9-0.5,2-0.7,3.1-0.7
			C761.6,209.1,762.8,209.6,763.7,210.6z"/>
	</g>
	<g>
		<path class="st4" d="M327.1,126.7c1.2,0.4,2.3,1.1,3.3,2l-2.7,3.3c-0.7-0.6-1.4-1-2.1-1.3s-1.4-0.4-2.2-0.4
			c-1.6,0-2.9,0.7-3.9,2.1c-0.9,1.4-1.4,3.5-1.4,6.4c0,2.8,0.5,4.9,1.4,6.3c0.9,1.4,2.3,2,3.9,2c0.9,0,1.7-0.2,2.4-0.5
			c0.7-0.3,1.5-0.8,2.3-1.5l2.6,3.3c-0.9,0.9-2,1.7-3.3,2.2c-1.3,0.6-2.7,0.9-4.3,0.9c-2.2,0-4.2-0.5-5.8-1.5s-2.9-2.4-3.9-4.4
			c-0.9-1.9-1.4-4.2-1.4-6.9c0-2.6,0.5-4.9,1.4-6.8c0.9-1.9,2.3-3.4,3.9-4.4c1.7-1,3.6-1.5,5.7-1.5
			C324.5,126,325.9,126.2,327.1,126.7z"/>
		<path class="st4" d="M341.6,150.9c-0.7,2.4-2,4.3-3.7,5.5c-1.7,1.3-4,2-6.8,2.2l-0.6-3.9c1.8-0.2,3.1-0.6,3.9-1.2
			c0.9-0.6,1.5-1.5,2-2.7h-1.9l-5.7-18.6h5.9l3.3,15l3.6-15h5.7L341.6,150.9z"/>
		<path class="st4" d="M361.2,150c-0.7,0.5-1.5,0.8-2.4,1.1s-1.8,0.4-2.7,0.4c-4.1,0-6.1-2.3-6.1-6.7v-8.6h-2.6v-3.9h2.6v-4l5.5-0.6
			v4.7h4.3l-0.6,3.9h-3.7v8.5c0,0.9,0.1,1.5,0.4,1.9s0.7,0.6,1.3,0.6c0.6,0,1.3-0.2,2-0.6L361.2,150z"/>
		<path class="st4" d="M377.1,134.3c1.6,1.7,2.4,4.2,2.4,7.3c0,2-0.4,3.7-1.1,5.2s-1.8,2.6-3.1,3.4c-1.4,0.8-3,1.2-4.8,1.2
			c-2.8,0-5-0.9-6.7-2.6c-1.6-1.7-2.4-4.2-2.4-7.3c0-2,0.4-3.7,1.1-5.2s1.8-2.6,3.1-3.4c1.4-0.8,3-1.2,4.8-1.2
			C373.3,131.7,375.5,132.5,377.1,134.3z M367.9,137.1c-0.6,0.9-0.8,2.4-0.8,4.4s0.3,3.5,0.8,4.4s1.4,1.4,2.5,1.4s2-0.5,2.5-1.4
			c0.6-0.9,0.8-2.4,0.8-4.4s-0.3-3.5-0.8-4.4s-1.4-1.4-2.5-1.4C369.3,135.7,368.5,136.2,367.9,137.1z"/>
		<path class="st4" d="M398.6,134.3c1.1,1.7,1.7,4.1,1.7,7.2c0,1.9-0.3,3.6-0.9,5.1s-1.5,2.7-2.6,3.5c-1.1,0.9-2.4,1.3-3.9,1.3
			c-1.9,0-3.4-0.6-4.5-1.9v8.5l-5.5,0.6v-26.4h4.9l0.3,2.1c0.7-0.9,1.6-1.6,2.5-2s1.9-0.6,2.9-0.6
			C395.7,131.7,397.4,132.5,398.6,134.3z M394.5,141.6c0-2.2-0.2-3.7-0.7-4.6c-0.5-0.9-1.2-1.3-2.2-1.3c-0.6,0-1.2,0.2-1.8,0.6
			c-0.5,0.4-1,0.9-1.5,1.6v7.8c0.7,1.1,1.7,1.6,2.8,1.6C393.4,147.4,394.5,145.4,394.5,141.6z"/>
		<path class="st4" d="M404.9,150.1c-0.9-0.9-1.3-2.2-1.3-3.9V125l5.5-0.6V146c0,0.8,0.3,1.2,0.9,1.2c0.3,0,0.6-0.1,0.9-0.2l1.1,3.9
			c-1,0.4-2.1,0.6-3.4,0.6C407.1,151.4,405.8,151,404.9,150.1z"/>
		<path class="st4" d="M429,147c0.2,0.3,0.5,0.6,1,0.7l-1.2,3.6c-1.1-0.1-2.1-0.3-2.8-0.8c-0.7-0.4-1.3-1.1-1.7-1.9
			c-1.2,1.9-3.1,2.8-5.6,2.8c-1.8,0-3.3-0.5-4.4-1.6s-1.6-2.5-1.6-4.2c0-2,0.7-3.6,2.2-4.7c1.5-1.1,3.7-1.6,6.5-1.6h1.9v-0.8
			c0-1.1-0.2-1.8-0.7-2.3c-0.5-0.4-1.3-0.6-2.4-0.6c-0.6,0-1.3,0.1-2.2,0.3c-0.9,0.2-1.8,0.4-2.7,0.7L414,133c1.2-0.4,2.4-0.8,3.6-1
			s2.4-0.4,3.4-0.4c2.7,0,4.6,0.5,5.8,1.6c1.2,1.1,1.9,2.7,1.9,4.9v7.2C428.7,146.2,428.8,146.7,429,147z M423.3,145.7v-3.3h-1.4
			c-1.3,0-2.2,0.2-2.8,0.7c-0.6,0.4-0.9,1.1-0.9,2.1c0,0.7,0.2,1.3,0.6,1.7s0.9,0.6,1.6,0.6C421.6,147.5,422.6,146.9,423.3,145.7z"
			/>
		<path class="st4" d="M443.1,132.3c1.2,0.4,2.2,1,3.1,1.7l-2,3.1c-1.5-1-3-1.4-4.6-1.4c-0.7,0-1.3,0.1-1.7,0.4s-0.6,0.6-0.6,1
			s0.1,0.6,0.3,0.9s0.5,0.4,1.1,0.7c0.5,0.2,1.4,0.5,2.5,0.8c1.9,0.6,3.4,1.3,4.3,2.2s1.4,2.1,1.4,3.7c0,1.3-0.4,2.4-1.1,3.3
			c-0.7,0.9-1.7,1.6-3,2.1s-2.7,0.7-4.2,0.7c-1.6,0-3-0.2-4.4-0.7c-1.3-0.5-2.5-1.2-3.4-2l2.7-3c1.6,1.2,3.2,1.8,4.9,1.8
			c0.8,0,1.5-0.2,2-0.5s0.7-0.7,0.7-1.3c0-0.4-0.1-0.8-0.3-1.1c-0.2-0.3-0.5-0.5-1.1-0.7c-0.5-0.2-1.4-0.5-2.6-0.8
			c-1.8-0.5-3.2-1.3-4.1-2.2c-0.9-1-1.4-2.1-1.4-3.6c0-1.1,0.3-2,0.9-2.9s1.5-1.5,2.7-2s2.5-0.8,4-0.8
			C440.7,131.7,441.9,131.9,443.1,132.3z"/>
		<path class="st4" d="M473.8,133.2c0.9,1,1.3,2.4,1.3,4.1v13.6h-5.5v-12.6c0-1.7-0.5-2.5-1.6-2.5c-0.6,0-1.1,0.2-1.5,0.6
			c-0.4,0.4-0.9,1-1.3,1.8v12.7h-5.5v-12.6c0-1.7-0.5-2.5-1.6-2.5c-0.6,0-1.1,0.2-1.5,0.6s-0.9,1-1.3,1.8v12.7h-5.5v-18.6h4.8
			l0.4,2.2c0.7-0.9,1.5-1.6,2.4-2.1s1.9-0.7,3-0.7s2,0.3,2.7,0.8c0.8,0.5,1.3,1.2,1.7,2.2c0.7-1,1.6-1.7,2.5-2.2s1.9-0.7,3.1-0.7
			C471.7,131.7,472.9,132.2,473.8,133.2z"/>
	</g>
	<g>
		<path class="st2" d="M360.5,674.2c2.3,1.7,3.4,4.9,3.4,9.4s-1.1,7.7-3.4,9.5s-5.1,2.7-8.7,2.7h-7.3v-24.3h6.8
			C355.2,671.6,358.2,672.4,360.5,674.2z M350.3,675.8v15.9h1.9c1.9,0,3.3-0.6,4.3-1.8s1.5-3.3,1.5-6.3c0-2.1-0.2-3.7-0.7-4.8
			s-1.2-1.9-2-2.4c-0.8-0.4-1.9-0.6-3.1-0.6L350.3,675.8L350.3,675.8z"/>
		<path class="st2" d="M386.1,695.8h-7.3l-7-18.8c0.2,1.8,0.4,3.5,0.5,4.9s0.2,3.1,0.2,5v8.9h-5.1v-24.3h7.1l7.2,18.8
			c-0.5-3.2-0.8-6.2-0.8-9v-9.8h5.1L386.1,695.8L386.1,695.8z"/>
		<path class="st2" d="M403.4,695.8l-1.3-5.2H395l-1.2,5.2h-6l7.3-24.3h7l7.3,24.3H403.4z M396,686.5h5.1l-2.6-10.7L396,686.5z"/>
	</g>
	<g>
		<path class="st2" d="M278.3,631.5c0.9,0.4,1.8,0.9,2.8,1.7l-1.1,1.4c-0.8-0.7-1.6-1.1-2.3-1.4c-0.7-0.3-1.6-0.4-2.6-0.4
			c-2.3,0-4.1,0.9-5.5,2.6c-1.4,1.7-2.1,4.4-2.1,8c0,2.3,0.3,4.3,1,5.9c0.7,1.6,1.5,2.8,2.7,3.5s2.4,1.1,3.9,1.1
			c1.1,0,2.1-0.2,2.9-0.5s1.6-0.8,2.4-1.5l1.1,1.4c-1.8,1.7-3.9,2.5-6.5,2.5c-1.9,0-3.5-0.5-5-1.4c-1.5-1-2.6-2.4-3.4-4.2
			s-1.2-4.1-1.2-6.7s0.4-4.9,1.3-6.7c0.9-1.9,2-3.3,3.5-4.2s3.1-1.4,4.9-1.4C276.2,630.9,277.4,631.1,278.3,631.5z"/>
		<path class="st2" d="M297.4,638.1c0.9,1,1.3,2.4,1.3,4.1v13.1h-2v-12.8c0-2.8-1.2-4.2-3.5-4.2c-1.2,0-2.2,0.3-3.1,1
			c-0.9,0.6-1.8,1.6-2.6,2.8v13.3h-2v-25.8l2-0.2V640c1.6-2.3,3.7-3.4,6.1-3.4C295.2,636.6,296.5,637.1,297.4,638.1z"/>
		<path class="st2" d="M314.9,636.8l-0.4,1.9c-0.5-0.1-1-0.2-1.6-0.2c-1.2,0-2.2,0.4-3,1.3c-0.8,0.9-1.4,2.3-1.9,4.2v11.2h-2V637
			h1.8l0.2,4.1c0.5-1.5,1.2-2.6,2-3.4s1.9-1.1,3.2-1.1C313.8,636.6,314.4,636.7,314.9,636.8z"/>
		<path class="st2" d="M329.9,639.1c1.4,1.7,2,4,2,7s-0.7,5.3-2.1,7s-3.3,2.6-5.7,2.6c-2.4,0-4.3-0.8-5.7-2.5s-2-4-2-7
			c0-1.9,0.3-3.6,0.9-5.1s1.5-2.6,2.7-3.3c1.2-0.8,2.5-1.2,4.1-1.2C326.7,636.6,328.6,637.4,329.9,639.1z M320.1,640.3
			c-1,1.3-1.5,3.3-1.5,5.8s0.5,4.5,1.5,5.8s2.3,2,4.1,2s3.2-0.7,4.1-2c1-1.3,1.5-3.3,1.5-5.9c0-2.5-0.5-4.5-1.5-5.8s-2.4-2-4.1-2
			C322.5,638.3,321.1,639,320.1,640.3z"/>
		<path class="st2" d="M359.3,638.1c0.9,1,1.3,2.4,1.3,4.1v13.1h-2v-12.8c0-1.4-0.3-2.5-0.8-3.2s-1.3-1-2.3-1s-1.9,0.3-2.8,1
			c-0.8,0.7-1.6,1.6-2.4,2.8v13.3h-2v-12.8c0-1.4-0.3-2.5-0.8-3.2s-1.3-1-2.3-1s-2,0.3-2.8,1s-1.6,1.6-2.3,2.8v13.3h-2V637h1.8
			l0.2,3.1c0.7-1.1,1.5-2,2.5-2.6s2-0.9,3.2-0.9s2.1,0.3,2.9,1c0.8,0.6,1.3,1.5,1.6,2.7c0.7-1.1,1.6-2,2.5-2.7c1-0.6,2-1,3.2-1
			C357.3,636.6,358.4,637.1,359.3,638.1z"/>
		<path class="st2" d="M379.8,639.1c1.4,1.7,2,4,2,7s-0.7,5.3-2.1,7s-3.3,2.6-5.7,2.6c-2.4,0-4.3-0.8-5.7-2.5s-2-4-2-7
			c0-1.9,0.3-3.6,0.9-5.1s1.5-2.6,2.7-3.3c1.2-0.8,2.5-1.2,4.1-1.2C376.5,636.6,378.4,637.4,379.8,639.1z M370,640.3
			c-1,1.3-1.5,3.3-1.5,5.8s0.5,4.5,1.5,5.8s2.3,2,4.1,2s3.2-0.7,4.1-2c1-1.3,1.5-3.3,1.5-5.9c0-2.5-0.5-4.5-1.5-5.8s-2.4-2-4.1-2
			C372.3,638.3,371,639,370,640.3z"/>
		<path class="st2" d="M395.4,637.1c0.9,0.3,1.8,0.8,2.7,1.5l-0.9,1.3c-0.8-0.6-1.6-1-2.4-1.3c-0.7-0.3-1.6-0.4-2.5-0.4
			c-1.2,0-2.2,0.3-2.9,0.8c-0.7,0.6-1.1,1.3-1.1,2.2s0.3,1.6,1,2.1c0.6,0.5,1.8,1,3.5,1.4c2.1,0.5,3.6,1.2,4.5,2s1.4,2,1.4,3.5
			c0,1.6-0.6,2.9-1.9,3.9s-2.8,1.4-4.7,1.4c-1.4,0-2.6-0.2-3.7-0.6c-1-0.4-2-1-2.9-1.7l1.1-1.3c0.8,0.7,1.7,1.1,2.5,1.5
			c0.9,0.3,1.8,0.5,2.9,0.5c1.4,0,2.4-0.3,3.3-0.9c0.8-0.6,1.2-1.5,1.2-2.6c0-0.7-0.1-1.4-0.4-1.8c-0.3-0.5-0.8-0.9-1.4-1.2
			s-1.7-0.7-3-1c-1.9-0.5-3.3-1.2-4.2-1.9c-0.9-0.8-1.3-1.8-1.3-3.1c0-0.9,0.3-1.7,0.8-2.5c0.5-0.7,1.3-1.3,2.2-1.7
			c0.9-0.4,2-0.6,3.1-0.6C393.4,636.6,394.4,636.8,395.4,637.1z"/>
		<path class="st2" d="M416,639.1c1.4,1.7,2,4,2,7s-0.7,5.3-2.1,7s-3.3,2.6-5.7,2.6c-2.4,0-4.3-0.8-5.7-2.5s-2-4-2-7
			c0-1.9,0.3-3.6,0.9-5.1s1.5-2.6,2.7-3.3c1.2-0.8,2.5-1.2,4.1-1.2C412.8,636.6,414.6,637.4,416,639.1z M406.2,640.3
			c-1,1.3-1.5,3.3-1.5,5.8s0.5,4.5,1.5,5.8s2.3,2,4.1,2s3.2-0.7,4.1-2c1-1.3,1.5-3.3,1.5-5.9c0-2.5-0.5-4.5-1.5-5.8s-2.4-2-4.1-2
			C408.6,638.3,407.2,639,406.2,640.3z"/>
		<path class="st2" d="M445.3,638.1c0.9,1,1.3,2.4,1.3,4.1v13.1h-2v-12.8c0-1.4-0.3-2.5-0.8-3.2s-1.3-1-2.3-1s-1.9,0.3-2.8,1
			c-0.8,0.7-1.6,1.6-2.4,2.8v13.3h-2v-12.8c0-1.4-0.3-2.5-0.8-3.2s-1.3-1-2.3-1s-2,0.3-2.8,1s-1.6,1.6-2.3,2.8v13.3h-2V637h1.8
			l0.2,3.1c0.7-1.1,1.5-2,2.5-2.6s2-0.9,3.2-0.9s2.1,0.3,2.9,1c0.8,0.6,1.3,1.5,1.6,2.7c0.7-1.1,1.6-2,2.5-2.7c1-0.6,2-1,3.2-1
			C443.3,636.6,444.5,637.1,445.3,638.1z"/>
		<path class="st2" d="M466.8,646.9h-12.2c0.1,2.4,0.7,4.1,1.7,5.3s2.4,1.7,4,1.7c1,0,1.8-0.1,2.5-0.4c0.7-0.3,1.5-0.8,2.4-1.4
			l0.9,1.3c-0.9,0.7-1.8,1.3-2.8,1.7s-2,0.6-3.2,0.6c-2.4,0-4.3-0.8-5.7-2.5s-2.1-4-2.1-6.9c0-1.9,0.3-3.6,0.9-5.1s1.4-2.6,2.6-3.4
			c1.1-0.8,2.4-1.2,3.9-1.2c2.3,0,4.1,0.8,5.3,2.4c1.2,1.6,1.8,3.7,1.8,6.5C466.9,646,466.8,646.5,466.8,646.9z M464.9,644.8
			c0-2.1-0.4-3.7-1.3-4.8c-0.9-1.2-2.1-1.7-3.8-1.7c-1.5,0-2.7,0.6-3.7,1.8c-0.9,1.2-1.4,2.9-1.5,5.3h10.3V644.8z"/>
		<path class="st2" d="M480.2,637.1c0.9,0.3,1.8,0.8,2.7,1.5L482,640c-0.8-0.6-1.6-1-2.4-1.3c-0.7-0.3-1.6-0.4-2.5-0.4
			c-1.2,0-2.2,0.3-2.9,0.8s-1.1,1.3-1.1,2.2s0.3,1.6,1,2.1s1.8,1,3.5,1.4c2.1,0.5,3.6,1.2,4.5,2s1.4,2,1.4,3.5
			c0,1.6-0.6,2.9-1.9,3.9s-2.8,1.4-4.7,1.4c-1.4,0-2.6-0.2-3.7-0.6c-1-0.4-2-1-2.9-1.7l1.1-1.3c0.8,0.7,1.7,1.1,2.5,1.5
			c0.9,0.3,1.8,0.5,2.9,0.5c1.4,0,2.4-0.3,3.3-0.9c0.8-0.6,1.2-1.5,1.2-2.6c0-0.7-0.1-1.4-0.4-1.8s-0.8-0.9-1.4-1.2
			c-0.7-0.3-1.7-0.7-3-1c-1.9-0.5-3.3-1.2-4.2-1.9c-0.9-0.8-1.3-1.8-1.3-3.1c0-0.9,0.3-1.7,0.8-2.5c0.5-0.7,1.3-1.3,2.2-1.7
			c0.9-0.4,2-0.6,3.1-0.6S479.3,636.8,480.2,637.1z"/>
	</g>
	<g>
		<path class="st5" d="M350.2,856.6H348v9.3h-5.7v-24.3h7.9c3.3,0,5.8,0.6,7.5,1.8s2.5,3.1,2.5,5.6c0,1.6-0.4,2.9-1.1,3.9
			s-1.9,1.9-3.5,2.6l6.2,10.3h-6.5L350.2,856.6z M347.9,852.6h2.4c1.3,0,2.2-0.3,2.9-0.9c0.6-0.6,1-1.5,1-2.8c0-1.2-0.3-2-1-2.6
			c-0.7-0.5-1.7-0.8-3.2-0.8h-2.1L347.9,852.6L347.9,852.6z"/>
		<path class="st5" d="M382.5,865.8h-7.3l-7-18.8c0.2,1.8,0.4,3.5,0.5,4.9s0.2,3.1,0.2,5v8.9h-5.1v-24.3h7.1l7.2,18.8
			c-0.5-3.2-0.8-6.2-0.8-9v-9.8h5.1L382.5,865.8L382.5,865.8z"/>
		<path class="st5" d="M399.8,865.8l-1.3-5.2h-7.1l-1.2,5.2h-6l7.3-24.3h7l7.3,24.3H399.8z M392.4,856.5h5.1l-2.6-10.7L392.4,856.5z
			"/>
	</g>
	<g>
		<g>
			<polygon class="st6" points="383.4,769.4 383.4,790.5 390.9,790.5 372.4,809.1 353.8,790.5 361.3,790.5 361.3,769.4 			"/>
		</g>
	</g>
	<g>
		<circle class="st7" cx="764.1" cy="624.4" r="8.4"/>
		<circle class="st7" cx="773.8" cy="609.9" r="8.4"/>
		<circle class="st7" cx="764.1" cy="595.5" r="8.4"/>
		<circle class="st7" cx="773.8" cy="581" r="8.4"/>
		<circle class="st7" cx="764.1" cy="566.6" r="8.4"/>
		<circle class="st7" cx="773.8" cy="552.1" r="8.4"/>
		<circle class="st7" cx="764.1" cy="537.7" r="8.4"/>
		<circle class="st7" cx="773.8" cy="523.2" r="8.4"/>
		<circle class="st7" cx="764.1" cy="508.8" r="8.4"/>
		<circle class="st7" cx="773.8" cy="494.3" r="8.4"/>
		<circle class="st7" cx="764.1" cy="479.8" r="8.4"/>
		<circle class="st7" cx="773.8" cy="465.4" r="8.4"/>
	</g>
	<g>
		<g>
			<circle class="st7" cx="546" cy="264" r="13.2"/>
			<circle class="st7" cx="545.7" cy="243.3" r="13.2"/>
			<circle class="st7" cx="604.5" cy="211.2" r="13.2"/>
			<circle class="st7" cx="620.3" cy="227.7" r="13.2"/>
			<circle class="st7" cx="620.3" cy="214.2" r="13.2"/>
			<circle class="st7" cx="583.3" cy="223.8" r="13.2"/>
			<circle class="st7" cx="560.3" cy="270.7" r="13.2"/>
			<circle class="st7" cx="580.7" cy="245.8" r="13.2"/>
			<circle class="st7" cx="567.3" cy="211.5" r="13.2"/>
			<circle class="st7" cx="559.7" cy="251.7" r="13.2"/>
			<circle class="st7" cx="616.4" cy="248.1" r="13.2"/>
			<circle class="st7" cx="599.4" cy="241" r="13.2"/>
			<circle class="st7" cx="597" cy="228.5" r="13.2"/>
			<circle class="st7" cx="634.1" cy="241.2" r="13.2"/>
			<circle class="st7" cx="613.5" cy="266.6" r="13.2"/>
			<circle class="st7" cx="617.9" cy="279.4" r="13.2"/>
			<circle class="st7" cx="634.4" cy="265.3" r="13.2"/>
			<circle class="st7" cx="561.1" cy="233.4" r="13.2"/>
			<circle class="st7" cx="580.9" cy="263" r="13.2"/>
			<circle class="st7" cx="585.6" cy="202.1" r="13.2"/>
			<circle class="st7" cx="599.2" cy="262.1" r="13.2"/>
			<circle class="st7" cx="551.3" cy="221.8" r="13.2"/>
			<circle class="st7" cx="583.9" cy="281.1" r="13.2"/>
			<circle class="st7" cx="571.9" cy="289.7" r="13.2"/>
			<circle class="st7" cx="602" cy="286.4" r="13.2"/>
		</g>
	</g>
	<g>
		<circle class="st7" cx="729.7" cy="298.4" r="23.2"/>
		<circle class="st7" cx="793.4" cy="284.5" r="23.2"/>
		<circle class="st7" cx="719.2" cy="356.8" r="23.2"/>
		<circle class="st7" cx="817.3" cy="306.7" r="23.2"/>
		<circle class="st7" cx="758" cy="271" r="23.2"/>
		<circle class="st7" cx="757.8" cy="295.8" r="23.2"/>
		<circle class="st7" cx="787.9" cy="345.2" r="23.2"/>
		<circle class="st7" cx="782.2" cy="380.8" r="23.2"/>
		<circle class="st7" cx="827.1" cy="334.2" r="23.2"/>
		<circle class="st7" cx="820.8" cy="366.9" r="23.2"/>
		<circle class="st7" cx="725.8" cy="324.9" r="23.2"/>
		<circle class="st7" cx="751.6" cy="373.6" r="23.2"/>
		<circle class="st7" cx="760.7" cy="335.2" r="23.2"/>
		<circle class="st7" cx="789.3" cy="318.2" r="23.2"/>
	</g>
	<g>
		<path class="st3" d="M641.1,760.6h-2.2v9.3h-5.7v-24.3h7.9c3.3,0,5.8,0.6,7.5,1.8s2.5,3.1,2.5,5.6c0,1.6-0.4,2.9-1.1,3.9
			c-0.7,1-1.9,1.9-3.5,2.6l6.2,10.3h-6.5L641.1,760.6z M638.9,756.7h2.4c1.3,0,2.2-0.3,2.9-0.9c0.6-0.6,1-1.5,1-2.8
			c0-1.2-0.3-2-1-2.6c-0.7-0.5-1.7-0.8-3.2-0.8h-2.1L638.9,756.7L638.9,756.7z"/>
		<path class="st3" d="M659.7,742.4c0.6,0.6,0.9,1.3,0.9,2.3c0,0.9-0.3,1.7-0.9,2.3c-0.6,0.6-1.4,0.9-2.4,0.9s-1.7-0.3-2.3-0.9
			c-0.6-0.6-0.9-1.3-0.9-2.3c0-0.9,0.3-1.7,0.9-2.3c0.6-0.6,1.4-0.9,2.3-0.9S659.1,741.8,659.7,742.4z M660.2,751.3v18.6h-5.5v-18.6
			H660.2z"/>
		<path class="st3" d="M680.1,753.3c1.2,1.7,1.8,4.2,1.8,7.3c0,1.9-0.3,3.6-0.9,5.1c-0.6,1.5-1.4,2.7-2.6,3.5
			c-1.1,0.8-2.4,1.3-3.9,1.3c-1,0-1.9-0.2-2.7-0.6s-1.5-1-2.1-1.8l-0.3,1.8h-4.9v-26l5.5-0.6v9.9c0.6-0.8,1.3-1.4,2.2-1.8
			c0.9-0.4,1.8-0.7,2.9-0.7C677.3,750.7,679,751.6,680.1,753.3z M676.2,760.6c0-2.2-0.3-3.7-0.8-4.6c-0.5-0.8-1.3-1.3-2.2-1.3
			c-1.2,0-2.3,0.7-3.1,2.2v7.7c0.3,0.6,0.8,1,1.3,1.3s1,0.5,1.6,0.5C675.1,766.5,676.2,764.5,676.2,760.6z"/>
		<path class="st3" d="M700.1,753.3c1.6,1.7,2.4,4.2,2.4,7.3c0,2-0.4,3.7-1.1,5.2c-0.7,1.5-1.8,2.6-3.1,3.4c-1.4,0.8-3,1.2-4.8,1.2
			c-2.8,0-5-0.9-6.7-2.6c-1.6-1.7-2.4-4.2-2.4-7.3c0-2,0.4-3.7,1.1-5.2c0.7-1.5,1.8-2.6,3.2-3.4c1.4-0.8,3-1.2,4.8-1.2
			C696.3,750.7,698.5,751.6,700.1,753.3z M690.9,756.2c-0.6,0.9-0.8,2.4-0.8,4.4s0.3,3.5,0.8,4.4s1.4,1.4,2.5,1.4s2-0.5,2.5-1.4
			c0.6-0.9,0.8-2.4,0.8-4.4s-0.3-3.5-0.8-4.4s-1.4-1.4-2.5-1.4C692.3,754.8,691.5,755.3,690.9,756.2z"/>
		<path class="st3" d="M716.1,751.3c1.2,0.4,2.2,1,3.1,1.7l-2,3.1c-1.5-1-3-1.4-4.6-1.4c-0.7,0-1.3,0.1-1.7,0.4
			c-0.4,0.2-0.6,0.6-0.6,1s0.1,0.6,0.3,0.9c0.2,0.2,0.5,0.4,1.1,0.7c0.5,0.2,1.4,0.5,2.5,0.8c1.9,0.6,3.4,1.3,4.3,2.2
			c0.9,0.9,1.4,2.1,1.4,3.7c0,1.3-0.4,2.3-1.1,3.3s-1.7,1.6-3,2.1s-2.7,0.7-4.2,0.7c-1.6,0-3-0.2-4.4-0.7c-1.3-0.5-2.5-1.2-3.4-2
			l2.7-3c1.6,1.2,3.2,1.8,4.9,1.8c0.8,0,1.5-0.2,2-0.5s0.7-0.7,0.7-1.3c0-0.4-0.1-0.8-0.3-1.1s-0.5-0.5-1.1-0.7
			c-0.5-0.2-1.4-0.5-2.6-0.8c-1.8-0.5-3.2-1.3-4.1-2.2c-0.9-1-1.4-2.1-1.4-3.6c0-1.1,0.3-2,0.9-2.9c0.6-0.9,1.5-1.5,2.7-2
			s2.5-0.8,4-0.8C713.7,750.7,715,750.9,716.1,751.3z"/>
		<path class="st3" d="M737.5,753.3c1.6,1.7,2.4,4.2,2.4,7.3c0,2-0.4,3.7-1.1,5.2c-0.7,1.5-1.8,2.6-3.1,3.4s-3,1.2-4.8,1.2
			c-2.8,0-5-0.9-6.7-2.6c-1.6-1.7-2.4-4.2-2.4-7.3c0-2,0.4-3.7,1.1-5.2c0.7-1.5,1.8-2.6,3.2-3.4s3-1.2,4.8-1.2
			C733.6,750.7,735.9,751.6,737.5,753.3z M728.3,756.2c-0.6,0.9-0.8,2.4-0.8,4.4s0.3,3.5,0.8,4.4s1.4,1.4,2.5,1.4s2-0.5,2.5-1.4
			c0.6-0.9,0.8-2.4,0.8-4.4s-0.3-3.5-0.8-4.4s-1.4-1.4-2.5-1.4S728.8,755.3,728.3,756.2z"/>
		<path class="st3" d="M767.3,752.2c0.9,1,1.3,2.4,1.3,4.1v13.6h-5.5v-12.6c0-1.7-0.5-2.5-1.6-2.5c-0.6,0-1.1,0.2-1.5,0.6
			c-0.4,0.4-0.9,1-1.3,1.8v12.7h-5.5v-12.6c0-1.7-0.5-2.5-1.6-2.5c-0.6,0-1.1,0.2-1.5,0.6s-0.9,1-1.3,1.8v12.7h-5.5v-18.6h4.8
			l0.4,2.2c0.7-0.9,1.5-1.6,2.4-2.1s1.9-0.7,3-0.7s2,0.3,2.7,0.8c0.8,0.5,1.3,1.2,1.7,2.2c0.7-1,1.6-1.7,2.5-2.2s1.9-0.7,3.1-0.7
			C765.2,750.7,766.4,751.2,767.3,752.2z"/>
		<path class="st3" d="M788.9,762.3h-11.5c0.2,1.6,0.6,2.7,1.3,3.3s1.7,0.9,2.9,0.9c0.7,0,1.5-0.1,2.2-0.4c0.7-0.3,1.5-0.7,2.3-1.2
			l2.3,3.1c-2.2,1.7-4.6,2.6-7.2,2.6c-3,0-5.3-0.9-6.9-2.7c-1.6-1.8-2.4-4.2-2.4-7.1c0-1.9,0.3-3.6,1-5.1s1.7-2.7,3-3.6
			s2.9-1.3,4.7-1.3c2.7,0,4.8,0.8,6.3,2.5s2.3,4,2.3,7C789,761,788.9,761.7,788.9,762.3z M783.5,758.7c0-2.8-1-4.3-3-4.3
			c-1,0-1.7,0.4-2.2,1c-0.5,0.7-0.8,1.9-1,3.5h6.2V758.7z"/>
	</g>
	<g>
		<g>
			<path id="XMLID_13_" class="st8" d="M532,883.2c-10.5,20.9-29.1,28-50.9,19.4c0,0-16-6.7-30.1-1.4c-14,5.4-21.2,20.9-21.2,20.9
				l-0.1,0.1"/>
			<path id="XMLID_14_" class="st8" d="M592.7,845c-10.5,20.9-29.1,28-50.9,19.4c0,0-16-6.7-30.1-1.4c-14,5.4-21.2,20.9-21.2,20.9"
				/>
			<path id="XMLID_18_" class="st8" d="M653.3,806.9c-10.5,20.9-29.1,28-50.9,19.4c0,0-16-6.7-30.1-1.4c-14,5.4-21.2,20.9-21.2,20.9
				"/>
		</g>
		<path id="XMLID_16_" class="st8" d="M723.6,662.9c-10.5,20.9-29.1,28-50.9,19.4c0,0-16-6.7-30.1-1.4c-14,5.4-21.2,20.9-21.2,20.9"
			/>
	</g>
</g>
</svg>
