<?xml version="1.0" encoding="utf-8"?>
<!-- Generator: Adobe Illustrator 24.1.0, SVG Export Plug-In . SVG Version: 6.00 Build 0)  -->
<svg version="1.1" id="Capa_1" xmlns="http://www.w3.org/2000/svg" xmlns:xlink="http://www.w3.org/1999/xlink" x="0px" y="0px"
	 viewBox="0 0 885.4 888.7" style="enable-background:new 0 0 885.4 888.7;" xml:space="preserve">
<style type="text/css">
	.st0{fill:#F4F9F9;stroke:#8FB5BC;stroke-miterlimit:10;}
	.st1{fill:#FFFFFF;stroke:#CC6633;stroke-miterlimit:10;}
	.st2{fill:#CC6633;}
	.st3{fill:#FF2A2A;}
	.st4{fill:#FA7F43;}
	.st5{fill:none;stroke:#8FB5BC;stroke-width:3;stroke-miterlimit:10;}
	.st6{fill:#FFFFFF;stroke:#FF6600;stroke-width:0.75;stroke-miterlimit:10;}
	.st7{fill:#FFFFFF;stroke:#005372;stroke-width:0.5669;stroke-miterlimit:10;}
	.st8{fill:#FFFFFF;stroke:#005372;stroke-width:0.5669;stroke-miterlimit:9.9999;}
	.st9{fill:#373A47;}
	.st10{font-family:'FiraSans-Bold';}
	.st11{font-size:35px;}
	.st12{fill:#032836;}
</style>
<g>
	<path class="st0" d="M713.8,111c-14.5-9.2-27.1-20.5-39.2-31.4c-9-8.1-18.2-16.4-28-23.6c-2.2-1.6-4.5-3.1-6.8-4.5l0,0
		c-13.6-7.8-28.7-11-44.8-14.5c-6.1-1.3-12.2-2.6-18.2-4.2c-12.6-3.3-24.9-6.9-36.8-10.3C502.5,11.6,467,1.3,426.9,0.6
		c-2.2,0-4.4-0.1-6.6-0.1c-52.7,0-105.6,11.9-157.5,35.3c-39.5,17.9-67.4,46.8-96.8,77.5c-7,7.3-14.1,14.6-21.3,21.9
		c-8,8-16,15.7-24,23.2c-32.4,30.9-63,60.1-81.7,103.4c-21.7,50.4-34.8,109.1-38,170c-3.8,73,12.3,149.6,45.1,215.5
		c23.4,47,54.1,92,93.9,137.6c15.6,17.9,31,31.5,47,41.6c45.8,28.9,111.6,45.5,157.2,55.5c66.1,14.5,119.7,1.1,178-16.6
		c12.7-3.9,26-5.5,38.8-7.1c15.9-2,30.9-3.9,45-9.6c12.8-5.2,22.9-14.2,33.7-23.7c8-7.1,16.2-14.4,25.8-20.2
		c7.3-4.4,14.7-8.6,22.1-12.8c13.9-7.9,28.3-16,41.6-25.8c48.4-35.8,80.2-78.1,94.3-125.9c4.2-14.1,7.1-28.9,9.9-43.3
		c4.2-21.7,8.6-44.2,17.5-65.3c2.3-5.5,4.6-10.7,6.8-15.9c11.9-27.2,22.1-50.7,25.4-82.4c7.8-75.3-9.5-152.2-47.4-211
		C810.5,183.5,770.6,147.1,713.8,111z"/>
	<g>
		<g>
			<g>
				<path class="st1" d="M746.2,178.8C664.8,87,472,134.6,437.4,244.3c-39.2,124.3,118.9,229,236.3,180.6
					c72.4-29.8,117.6-118.4,100.5-191.7C769.5,213.5,760.4,194.9,746.2,178.8z"/>
			</g>
		</g>
		<g>
			<path class="st2" d="M553.5,242.3c10.3-8.1,20-17.9,20-43.3c0-1.8-1.8-3.2-4-3.2s-4,1.5-4,3.2c0,22.9-8.3,31.4-17.8,38.8
				c-9.5-7.4-17.8-15.9-17.8-38.8c0-1.8-1.8-3.2-4-3.2s-4,1.5-4,3.2c0,25.4,9.7,35.2,20,43.3c-10.3,8-20,17.6-20,42.4
				c0,1.8,1.8,3.2,4,3.2s4-1.5,4-3.2c0-22.4,8.3-30.6,17.8-38c9.4,7.4,17.8,15.6,17.8,38c0,1.8,1.8,3.2,4,3.2s4-1.5,4-3.2
				C573.5,259.8,563.8,250.3,553.5,242.3z"/>
			<path class="st2" d="M488.8,301.9c6.5-5.1,12.6-11.3,12.6-27.3c0-1.1-1.1-2-2.5-2s-2.5,0.9-2.5,2c0,14.5-5.2,19.8-11.2,24.5
				c-6-4.7-11.2-10-11.2-24.5c0-1.1-1.1-2-2.5-2s-2.5,0.9-2.5,2c0,16,6.1,22.2,12.6,27.3C475.1,307,469,313,469,328.7
				c0,1.1,1.1,2,2.5,2s2.5-0.9,2.5-2c0-14.1,5.2-19.3,11.2-24c6,4.6,11.2,9.8,11.2,24c0,1.1,1.1,2,2.5,2s2.5-0.9,2.5-2
				C501.4,313,495.3,307,488.8,301.9z"/>
			<path class="st2" d="M682.9,334c7.8-6.1,15.2-13.6,15.2-32.8c0-1.4-1.4-2.5-3.1-2.5s-3.1,1.1-3.1,2.5c0,17.4-6.3,23.8-13.5,29.4
				c-7.2-5.6-13.5-12-13.5-29.4c0-1.4-1.4-2.5-3.1-2.5s-3.1,1.1-3.1,2.5c0,19.3,7.3,26.7,15.2,32.8c-7.8,6.1-15.2,13.3-15.2,32.2
				c0,1.4,1.4,2.5,3.1,2.5s3.1-1.1,3.1-2.5c0-17,6.3-23.2,13.5-28.8c7.2,5.6,13.5,11.8,13.5,28.8c0,1.4,1.4,2.5,3.1,2.5
				s3.1-1.1,3.1-2.5C698.1,347.3,690.7,340.1,682.9,334z"/>
			<path class="st2" d="M618.8,170.5c4.3-3.4,8.4-7.5,8.4-18.3c0-0.8-0.8-1.4-1.7-1.4s-1.7,0.6-1.7,1.4c0,9.7-3.5,13.2-7.5,16.4
				c-4-3.1-7.5-6.7-7.5-16.4c0-0.8-0.8-1.4-1.7-1.4s-1.7,0.6-1.7,1.4c0,10.7,4.1,14.9,8.4,18.3c-4.3,3.4-8.4,7.4-8.4,17.9
				c0,0.8,0.8,1.4,1.7,1.4s1.7-0.6,1.7-1.4c0-9.5,3.5-12.9,7.5-16c4,3.1,7.5,6.6,7.5,16c0,0.8,0.8,1.4,1.7,1.4s1.7-0.6,1.7-1.4
				C627.2,177.9,623.1,173.9,618.8,170.5z"/>
			<path class="st2" d="M615.6,288.3c6.3-4.9,12.2-10.9,12.2-26.4c0-1.1-1.1-2-2.5-2s-2.5,0.9-2.5,2c0,14-5,19.2-10.8,23.7
				c-5.8-4.5-10.8-9.7-10.8-23.7c0-1.1-1.1-2-2.5-2s-2.5,0.9-2.5,2c0,15.5,5.9,21.5,12.2,26.4c-6.3,4.9-12.2,10.7-12.2,25.9
				c0,1.1,1.1,2,2.5,2s2.5-0.9,2.5-2c0-13.7,5.1-18.7,10.8-23.2c5.8,4.5,10.8,9.5,10.8,23.2c0,1.1,1.1,2,2.5,2s2.5-0.9,2.5-2
				C627.8,299.1,621.9,293.2,615.6,288.3z"/>
			<path class="st2" d="M670.4,234.2c4.3-3.4,8.4-7.5,8.4-18.3c0-0.8-0.8-1.4-1.7-1.4s-1.7,0.6-1.7,1.4c0,9.7-3.5,13.2-7.5,16.4
				c-4-3.1-7.5-6.7-7.5-16.4c0-0.8-0.8-1.4-1.7-1.4s-1.7,0.6-1.7,1.4c0,10.7,4.1,14.9,8.4,18.3c-4.3,3.4-8.4,7.4-8.4,17.9
				c0,0.8,0.8,1.4,1.7,1.4s1.7-0.6,1.7-1.4c0-9.5,3.5-12.9,7.5-16c4,3.1,7.5,6.6,7.5,16c0,0.8,0.8,1.4,1.7,1.4s1.7-0.6,1.7-1.4
				C678.8,241.6,674.7,237.6,670.4,234.2z"/>
			<path class="st2" d="M729.4,297c4.3-3.4,8.4-7.5,8.4-18.3c0-0.8-0.8-1.4-1.7-1.4s-1.7,0.6-1.7,1.4c0,9.7-3.5,13.2-7.5,16.4
				c-4-3.1-7.5-6.7-7.5-16.4c0-0.8-0.8-1.4-1.7-1.4s-1.7,0.6-1.7,1.4c0,10.7,4.1,14.9,8.4,18.3c-4.3,3.4-8.4,7.4-8.4,17.9
				c0,0.8,0.8,1.4,1.7,1.4s1.7-0.6,1.7-1.4c0-9.5,3.5-12.9,7.5-16c4,3.1,7.5,6.6,7.5,16c0,0.8,0.8,1.4,1.7,1.4s1.7-0.6,1.7-1.4
				C737.8,304.4,733.7,300.3,729.4,297z"/>
		</g>
		<polygon class="st3" points="521.3,222.8 525.2,216.3 518.7,216.3 518.7,209.9 512.2,213.8 505.8,209.9 505.8,216.3 499.3,216.3 
			503.2,222.8 499.3,229.3 505.8,229.3 505.8,235.7 512.2,231.8 518.7,235.7 518.7,229.3 525.2,229.3 		"/>
		<polygon class="st3" points="713.2,351.6 716,347 711.3,347 711.3,342.4 706.7,345.2 702.1,342.4 702.1,347 697.4,347 
			700.2,351.6 697.4,356.3 702.1,356.3 702.1,360.9 706.7,358.1 711.3,360.9 711.3,356.3 716,356.3 		"/>
		<polygon class="st3" points="466.8,317.1 469.6,312.5 465,312.5 465,307.8 460.3,310.6 455.7,307.8 455.7,312.5 451.1,312.5 
			453.9,317.1 451.1,321.7 455.7,321.7 455.7,326.3 460.3,323.6 465,326.3 465,321.7 469.6,321.7 		"/>
		<polygon class="st3" points="747,291.3 748.8,288.2 745.8,288.2 745.8,285.2 742.7,287 739.7,285.2 739.7,288.2 736.7,288.2 
			738.5,291.3 736.7,294.3 739.7,294.3 739.7,297.3 742.7,295.5 745.8,297.3 745.8,294.3 748.8,294.3 		"/>
	</g>
	<g>
		<path class="st4" d="M169.3,482.9c-32-32.8-99.6-9-108.6,33.9c-10.2,48.7,49.6,84.2,90.2,62.3c25-13.5,38.5-48.7,30.1-76.2
			C178.8,495.5,174.9,488.6,169.3,482.9z"/>
		<path id="XMLID_17_" class="st5" d="M241.8,458.8c-11.1,18.9-29,24.3-48.8,14.9c0,0-14.5-7.3-28-3.2s-21,18.2-21,18.2"/>
		<polygon class="st3" points="229.2,480.6 231.6,475.7 227,476.1 226.6,471.5 222.2,474.6 217.4,472.2 217.7,476.8 213.1,477.2 
			216.3,481.6 213.9,486.4 218.5,486.1 218.9,490.7 223.3,487.5 228.1,489.9 227.7,485.3 232.3,485 		"/>
		<path id="XMLID_15_" class="st5" d="M304.9,425.6c-11.1,18.9-29,24.3-48.8,14.9c0,0-14.5-7.3-28-3.2S207,455.5,207,455.5"/>
		<polygon class="st3" points="292.3,447.3 294.7,442.5 290.1,442.9 289.7,438.3 285.3,441.4 280.5,439 280.8,443.6 276.2,444 
			279.4,448.4 277,453.2 281.6,452.8 282,457.5 286.3,454.3 291.2,456.7 290.8,452.1 295.4,451.7 		"/>
		<path id="XMLID_10_" class="st5" d="M368,392.3c-11.1,18.9-29,24.3-48.8,14.9c0,0-14.5-7.3-28-3.2c-13.5,4.1-21.1,18.2-21.1,18.2"
			/>
		<polygon class="st3" points="355.4,414.1 357.8,409.3 353.2,409.6 352.8,405 348.4,408.2 343.6,405.8 343.9,410.4 339.3,410.7 
			342.5,415.1 340.1,420 344.7,419.6 345.1,424.2 349.4,421.1 354.3,423.5 353.9,418.9 358.5,418.5 		"/>
		<g>
			<circle class="st6" cx="253.5" cy="662.5" r="7.9"/>
			<circle class="st6" cx="248.6" cy="646.9" r="7.9"/>
			<circle class="st6" cx="232.4" cy="645.5" r="7.9"/>
			<circle class="st6" cx="227.5" cy="630" r="7.9"/>
			<circle class="st6" cx="211.3" cy="628.5" r="7.9"/>
			<circle class="st3" cx="206.4" cy="613" r="7.9"/>
			<circle class="st6" cx="190.2" cy="611.6" r="7.9"/>
			<circle class="st6" cx="185.3" cy="596.1" r="7.9"/>
			<circle class="st6" cx="169.1" cy="594.6" r="7.9"/>
			<circle class="st6" cx="164.2" cy="579.1" r="7.9"/>
			<circle class="st6" cx="148" cy="577.6" r="7.9"/>
			<circle class="st6" cx="143.1" cy="562.1" r="7.9"/>
		</g>
	</g>
	<g>
		<circle class="st7" cx="662.6" cy="632.9" r="29.9"/>
		
			<ellipse transform="matrix(0.7071 -0.7071 0.7071 0.7071 -225.5115 519.9671)" class="st7" cx="514.9" cy="532.2" rx="29.9" ry="29.9"/>
		<circle class="st7" cx="446.5" cy="720.4" r="29.9"/>
		<circle class="st3" cx="559.7" cy="547.9" r="29.9"/>
		<circle class="st7" cx="393.5" cy="739.9" r="29.9"/>
		<circle class="st7" cx="600.2" cy="581.6" r="29.9"/>
		<circle class="st7" cx="500.1" cy="659.2" r="29.9"/>
		<circle class="st7" cx="621.4" cy="671.5" r="29.9"/>
		<circle class="st7" cx="558.3" cy="596.2" r="29.9"/>
		<circle class="st7" cx="550.1" cy="638.1" r="29.9"/>
		<circle class="st7" cx="502.6" cy="714.1" r="29.9"/>
		<circle class="st7" cx="576.8" cy="689.2" r="29.9"/>
		
			<ellipse transform="matrix(0.3827 -0.9239 0.9239 0.3827 -306.2827 913.4481)" class="st8" cx="530.4" cy="685.9" rx="29.9" ry="29.9"/>
		<circle class="st7" cx="670.4" cy="677.2" r="29.9"/>
	</g>
	<g>
		<g>
			<polygon class="st9" points="427.6,372.2 410.5,382.2 414.1,388.2 390.3,382 396.5,358.2 400.1,364.3 417.1,354.3 			"/>
		</g>
	</g>
	<g>
		<g>
			<polygon class="st9" points="291.3,703.9 306.6,716.3 302.2,721.8 326.6,719.3 324.1,694.8 319.7,700.3 304.3,687.8 			"/>
		</g>
	</g>
</g>
<text transform="matrix(1 0 0 1 550.23 387.3873)" class="st2 st10 st11">ADN</text>
<text transform="matrix(1 0 0 1 200.4712 335.4624)" class="st12 st10 st11">ARN</text>
<text transform="matrix(1 0 0 1 367.4353 814.6187)" class="st3 st10 st11">Proteïna mutant</text>
<text transform="matrix(1 0 0 1 364.4962 233.3726)" class="st3 st10 st11">Mutació</text>
</svg>
