<?xml version="1.0" encoding="utf-8"?>
<!-- Generator: Adobe Illustrator 24.1.0, SVG Export Plug-In . SVG Version: 6.00 Build 0)  -->
<svg version="1.1" id="Capa_1" xmlns="http://www.w3.org/2000/svg" xmlns:xlink="http://www.w3.org/1999/xlink" x="0px" y="0px"
	 viewBox="0 0 869.6 163.4" style="enable-background:new 0 0 869.6 163.4;" xml:space="preserve">
<style type="text/css">
	.st0{fill:#767675;}
	.st1{fill:#DA2963;}
	.st2{fill:#F69B17;}
	.st3{fill:url(#SVGID_1_);}
</style>
<g>
	<g>
		<path class="st0" d="M348.7,73.8c-2.4,0-4.6-0.5-6.8-1.4s-4.1-2.3-5.7-4c-1.6-1.8-3-3.9-3.9-6.4s-1.5-5.4-1.5-8.6s0.5-6.1,1.4-8.7
			c1-2.6,2.3-4.8,4-6.7c1.7-1.9,3.7-3.3,6-4.3c2.3-1,4.7-1.5,7.4-1.5c1.9,0,3.7,0.2,5.3,0.7c1.6,0.5,3.1,1.2,4.5,2l1.1-1.9h2.2
			l0.2,14.2h-2.3c-0.3-1.4-0.7-2.9-1.3-4.5c-0.6-1.6-1.3-3-2.1-4.1c-0.9-1.3-1.9-2.3-3.2-3c-1.2-0.7-2.6-1.1-4.2-1.1
			c-1.8,0-3.5,0.4-5,1.2c-1.5,0.8-2.9,2-4,3.6c-1.1,1.5-1.9,3.4-2.5,5.8c-0.6,2.3-0.9,5-0.9,7.8c0,2.5,0.3,4.9,1,7
			c0.6,2.1,1.6,4,2.7,5.6c1.2,1.6,2.6,2.8,4.2,3.7c1.6,0.9,3.4,1.3,5.4,1.3c1.5,0,2.9-0.2,4.1-0.7c1.3-0.5,2.4-1.1,3.3-1.9
			c0.9-0.8,1.7-1.8,2.4-2.8c0.7-1,1.3-2.2,1.7-3.4l2.1,1c-1.6,3.9-3.7,6.8-6.3,8.5C355.4,72.9,352.3,73.8,348.7,73.8z"/>
		<path class="st0" d="M408.1,72.8h-16.4v-2c1.4-0.1,2.6-0.3,3.6-0.6c1-0.3,1.4-0.6,1.4-1c0-0.2,0-0.4-0.1-0.6
			c0-0.2-0.1-0.5-0.2-0.6l-3.3-8.9h-13.8c-0.5,1.3-0.9,2.5-1.3,3.4c-0.3,1-0.6,1.9-0.9,2.7c-0.2,0.8-0.4,1.5-0.5,2
			c-0.1,0.5-0.1,0.9-0.1,1.2c0,0.7,0.6,1.3,1.8,1.7c1.2,0.4,2.5,0.7,3.9,0.7v2h-14.9v-2c0.5,0,1.1-0.1,1.8-0.3
			c0.7-0.2,1.3-0.4,1.8-0.7c0.7-0.5,1.3-1,1.7-1.6c0.4-0.6,0.8-1.3,1.2-2.3c2-5,4.2-10.6,6.6-16.8c2.4-6.2,4.5-11.8,6.4-16.6h2.2
			l13.1,34.4c0.3,0.7,0.6,1.3,0.9,1.8c0.4,0.4,0.8,0.9,1.5,1.3c0.4,0.3,1,0.5,1.7,0.7c0.7,0.2,1.3,0.3,1.7,0.3V72.8z M392.2,56.5
			l-6-15.5l-5.9,15.5H392.2z"/>
		<path class="st0" d="M453.4,35c-0.5,0-1.3,0.2-2.4,0.4c-1.1,0.3-1.8,0.6-2.3,0.9c-0.7,0.5-1.1,1.4-1.3,2.7c-0.2,1.3-0.3,3-0.3,5.1
			v29.2h-2.4l-23.9-32.6v20.6c0,2.3,0.1,4.1,0.4,5.3s0.7,2.1,1.3,2.6c0.4,0.4,1.3,0.8,2.6,1.2c1.3,0.4,2.2,0.5,2.6,0.6v2h-16.2v-2
			c0.5,0,1.3-0.2,2.5-0.5c1.2-0.3,1.9-0.6,2.2-0.9c0.6-0.5,1.1-1.3,1.3-2.4c0.2-1.1,0.4-2.9,0.4-5.5V41.9c0-0.9-0.1-1.7-0.4-2.6
			c-0.3-0.9-0.7-1.5-1.2-2c-0.7-0.6-1.6-1.1-2.7-1.6c-1.1-0.4-2.1-0.7-2.8-0.7v-2h11.3l22.2,30.4V44.4c0-2.3-0.1-4.1-0.4-5.3
			c-0.3-1.2-0.7-2.1-1.3-2.5c-0.5-0.4-1.4-0.7-2.5-1s-2.1-0.5-2.7-0.6v-2h16V35z"/>
		<path class="st0" d="M477.3,73.8c-2.4,0-4.6-0.5-6.8-1.4s-4.1-2.3-5.7-4c-1.6-1.8-3-3.9-3.9-6.4s-1.5-5.4-1.5-8.6s0.5-6.1,1.4-8.7
			c1-2.6,2.3-4.8,4-6.7c1.7-1.9,3.7-3.3,6-4.3c2.3-1,4.7-1.5,7.4-1.5c1.9,0,3.7,0.2,5.3,0.7c1.6,0.5,3.1,1.2,4.5,2l1.1-1.9h2.2
			l0.2,14.2h-2.3c-0.3-1.4-0.7-2.9-1.3-4.5c-0.6-1.6-1.3-3-2.1-4.1c-0.9-1.3-1.9-2.3-3.2-3c-1.2-0.7-2.6-1.1-4.2-1.1
			c-1.8,0-3.5,0.4-5,1.2c-1.5,0.8-2.9,2-4,3.6c-1.1,1.5-1.9,3.4-2.5,5.8c-0.6,2.3-0.9,5-0.9,7.8c0,2.5,0.3,4.9,1,7
			c0.6,2.1,1.6,4,2.7,5.6c1.2,1.6,2.6,2.8,4.2,3.7c1.6,0.9,3.4,1.3,5.4,1.3c1.5,0,2.9-0.2,4.1-0.7c1.3-0.5,2.4-1.1,3.3-1.9
			c0.9-0.8,1.7-1.8,2.4-2.8c0.7-1,1.3-2.2,1.7-3.4l2.1,1c-1.6,3.9-3.7,6.8-6.3,8.5C484.1,72.9,481,73.8,477.3,73.8z"/>
		<path class="st0" d="M533.1,61.1l-0.8,11.7h-32.7v-2c0.6,0,1.3-0.1,2.2-0.2c0.9-0.1,1.5-0.2,1.8-0.4c0.6-0.3,1-0.6,1.2-1.1
			s0.3-1,0.3-1.7V38.8c0-0.6-0.1-1.2-0.3-1.6c-0.2-0.5-0.6-0.9-1.3-1.2c-0.5-0.2-1.2-0.5-2-0.6s-1.5-0.3-2-0.3v-2h30.5v9.6H528
			c-0.4-1.4-1.2-2.9-2.4-4.5c-1.2-1.6-2.4-2.5-3.5-2.6c-0.6-0.1-1.3-0.1-2.1-0.2s-1.7-0.1-2.7-0.1h-6.2V51h4.4
			c1.4,0,2.5-0.1,3.1-0.4c0.7-0.3,1.2-0.7,1.7-1.4c0.4-0.5,0.8-1.3,1-2.2c0.3-0.9,0.5-1.8,0.6-2.6h2.1v15.6h-2.1
			c-0.1-0.9-0.3-1.8-0.6-2.8c-0.3-1-0.7-1.7-1-2.2c-0.6-0.7-1.2-1.2-2-1.4c-0.7-0.2-1.7-0.3-2.9-0.3h-4.4v11.9
			c0,1.2,0.1,2.1,0.2,2.8s0.5,1.2,1,1.6c0.5,0.4,1.1,0.6,2,0.7c0.8,0.1,2,0.2,3.6,0.2c0.6,0,1.4,0,2.4,0c1,0,1.8,0,2.5-0.1
			c0.7-0.1,1.4-0.2,2.2-0.4c0.8-0.2,1.3-0.5,1.6-0.8c0.9-0.9,1.7-2.3,2.7-4.1c0.9-1.8,1.5-3.2,1.8-4H533.1z"/>
		<path class="st0" d="M579,72.8h-10.6c-2.4-3.7-4.5-6.9-6.4-9.7c-1.9-2.7-4-5.5-6.2-8.4h-4v12.6c0,0.7,0.1,1.2,0.3,1.7
			c0.2,0.5,0.6,0.9,1.3,1.1c0.3,0.1,0.9,0.3,1.8,0.4c0.8,0.1,1.5,0.2,2.1,0.2v2h-16.7v-2c0.4,0,1.1-0.1,1.9-0.2
			c0.8-0.1,1.4-0.2,1.8-0.4c0.6-0.2,1-0.6,1.2-1.1s0.4-1.1,0.4-1.8V38.6c0-0.7-0.1-1.2-0.3-1.7c-0.2-0.5-0.6-0.9-1.3-1.2
			c-0.5-0.2-1.1-0.3-1.8-0.5c-0.7-0.1-1.4-0.2-1.9-0.3v-2h18.2c1.7,0,3.2,0.2,4.7,0.5c1.5,0.3,2.8,0.9,4,1.7
			c1.1,0.7,2.1,1.7,2.8,2.9c0.7,1.2,1,2.7,1,4.4c0,1.5-0.2,2.9-0.7,4.1c-0.5,1.2-1.1,2.2-2.1,3.1c-0.8,0.8-1.8,1.5-3,2.1
			c-1.2,0.6-2.5,1.1-3.9,1.5c1.9,2.6,3.6,4.8,4.9,6.6s2.9,3.9,4.7,6.5c0.8,1.1,1.6,2,2.2,2.5c0.7,0.5,1.3,1,2,1.3
			c0.5,0.2,1.1,0.4,1.8,0.6s1.3,0.2,1.8,0.2V72.8z M564.3,43.1c0-2.4-0.7-4.3-2.1-5.7c-1.4-1.4-3.3-2.1-5.8-2.1h-4.7v17.1h3.6
			c2.6,0,4.7-0.8,6.4-2.5C563.5,48.2,564.3,46,564.3,43.1z"/>
		<path class="st0" d="M639.2,56.9c-0.4,0.1-1,0.1-1.8,0.3c-0.8,0.1-1.4,0.3-1.8,0.5c-0.6,0.3-1,0.7-1.2,1.2
			c-0.2,0.5-0.3,1.1-0.3,1.8v3.1c0,2.2,0,3.8,0,4.5c0,0.8,0.1,1.4,0.1,1.9c-2.5,1.1-4.9,2-7.4,2.6c-2.4,0.6-4.8,0.9-7.2,0.9
			c-2.5,0-4.9-0.5-7.3-1.4c-2.3-1-4.4-2.3-6.1-4.1c-1.8-1.8-3.2-3.9-4.2-6.5c-1-2.5-1.6-5.4-1.6-8.5c0-3,0.5-5.8,1.5-8.4
			c1-2.6,2.4-4.8,4.2-6.8c1.8-1.9,3.9-3.3,6.3-4.4c2.4-1,5-1.6,7.8-1.6c2.2,0,4.2,0.3,5.8,0.8c1.6,0.5,3.1,1.2,4.4,2l1.1-1.9h2.2
			l0.2,13.9h-2.3c-0.4-1.5-0.9-3-1.4-4.5c-0.6-1.5-1.3-2.8-2.2-4c-0.9-1.2-2-2.1-3.3-2.8c-1.3-0.7-2.9-1.1-4.7-1.1
			c-2,0-3.8,0.4-5.3,1.2c-1.6,0.8-2.9,2-4.1,3.6c-1.1,1.6-2,3.5-2.6,5.8c-0.6,2.3-0.9,4.9-0.9,7.8c0,2.5,0.3,4.9,0.9,7.2
			c0.6,2.2,1.5,4.2,2.6,5.8c1.1,1.7,2.6,3,4.3,3.9c1.7,1,3.7,1.4,5.9,1.4c1.6,0,3.1-0.3,4.5-0.8c1.3-0.5,2.3-1,2.9-1.6
			c0.1-1,0.2-2,0.2-2.9c0-1,0-1.8,0-2.5v-2.2c0-0.8-0.1-1.5-0.3-2.1c-0.2-0.6-0.7-1.1-1.3-1.3c-0.6-0.3-1.4-0.5-2.5-0.6
			c-1-0.1-1.9-0.2-2.5-0.3v-2h17.3V56.9z"/>
		<path class="st0" d="M678.9,61.1l-0.8,11.7h-32.7v-2c0.6,0,1.3-0.1,2.2-0.2c0.9-0.1,1.5-0.2,1.8-0.4c0.6-0.3,1-0.6,1.2-1.1
			s0.3-1,0.3-1.7V38.8c0-0.6-0.1-1.2-0.3-1.6c-0.2-0.5-0.6-0.9-1.3-1.2c-0.5-0.2-1.2-0.5-2-0.6s-1.5-0.3-2-0.3v-2h30.5v9.6h-2.1
			c-0.4-1.4-1.2-2.9-2.4-4.5c-1.2-1.6-2.4-2.5-3.5-2.6c-0.6-0.1-1.3-0.1-2.1-0.2s-1.7-0.1-2.7-0.1h-6.2V51h4.4
			c1.4,0,2.5-0.1,3.1-0.4c0.7-0.3,1.2-0.7,1.7-1.4c0.4-0.5,0.8-1.3,1-2.2c0.3-0.9,0.5-1.8,0.6-2.6h2.1v15.6h-2.1
			c-0.1-0.9-0.3-1.8-0.6-2.8c-0.3-1-0.7-1.7-1-2.2c-0.6-0.7-1.2-1.2-2-1.4c-0.7-0.2-1.7-0.3-2.9-0.3h-4.4v11.9
			c0,1.2,0.1,2.1,0.2,2.8s0.5,1.2,1,1.6c0.5,0.4,1.1,0.6,2,0.7c0.8,0.1,2,0.2,3.6,0.2c0.6,0,1.4,0,2.4,0c1,0,1.8,0,2.5-0.1
			c0.7-0.1,1.4-0.2,2.2-0.4c0.8-0.2,1.3-0.5,1.6-0.8c0.9-0.9,1.7-2.3,2.7-4.1c0.9-1.8,1.5-3.2,1.8-4H678.9z"/>
		<path class="st0" d="M726.8,35c-0.5,0-1.3,0.2-2.4,0.4c-1.1,0.3-1.8,0.6-2.3,0.9c-0.7,0.5-1.1,1.4-1.3,2.7c-0.2,1.3-0.3,3-0.3,5.1
			v29.2H718l-23.9-32.6v20.6c0,2.3,0.1,4.1,0.4,5.3s0.7,2.1,1.3,2.6c0.4,0.4,1.3,0.8,2.6,1.2c1.3,0.4,2.2,0.5,2.6,0.6v2H685v-2
			c0.5,0,1.3-0.2,2.5-0.5c1.2-0.3,1.9-0.6,2.2-0.9c0.6-0.5,1.1-1.3,1.3-2.4c0.2-1.1,0.4-2.9,0.4-5.5V41.9c0-0.9-0.1-1.7-0.4-2.6
			c-0.3-0.9-0.7-1.5-1.2-2c-0.7-0.6-1.6-1.1-2.7-1.6c-1.1-0.4-2.1-0.7-2.8-0.7v-2h11.3l22.2,30.4V44.4c0-2.3-0.1-4.1-0.4-5.3
			c-0.3-1.2-0.7-2.1-1.3-2.5c-0.5-0.4-1.4-0.7-2.5-1s-2.1-0.5-2.7-0.6v-2h16V35z"/>
		<path class="st0" d="M765.3,37.7c1.7,1.8,3.1,4,4.1,6.6s1.5,5.5,1.5,8.6c0,3.2-0.5,6-1.5,8.6c-1,2.6-2.4,4.8-4.2,6.6
			c-1.7,1.8-3.7,3.2-6,4.2c-2.3,1-4.7,1.5-7.3,1.5c-2.7,0-5.3-0.5-7.6-1.6c-2.3-1-4.3-2.5-6-4.3c-1.7-1.8-3-4-3.9-6.6
			c-1-2.6-1.4-5.4-1.4-8.3c0-3.2,0.5-6.1,1.5-8.7s2.4-4.7,4.1-6.6c1.7-1.8,3.8-3.2,6.1-4.2c2.3-1,4.7-1.5,7.2-1.5
			c2.6,0,5.1,0.5,7.4,1.5S763.6,35.9,765.3,37.7z M761.1,66c1-1.7,1.8-3.6,2.3-5.8s0.7-4.6,0.7-7.2c0-2.7-0.3-5.2-0.8-7.5
			c-0.5-2.3-1.3-4.2-2.3-5.8c-1-1.6-2.3-2.8-3.8-3.7c-1.5-0.9-3.3-1.3-5.3-1.3c-2.2,0-4.1,0.5-5.7,1.5c-1.6,1-2.8,2.4-3.8,4.1
			c-0.9,1.6-1.6,3.6-2.1,5.8c-0.5,2.2-0.7,4.5-0.7,7c0,2.7,0.2,5.1,0.7,7.3c0.5,2.2,1.2,4.1,2.3,5.8c1,1.6,2.3,2.9,3.8,3.9
			c1.5,0.9,3.3,1.4,5.4,1.4c2,0,3.8-0.5,5.4-1.4C758.8,68.9,760.1,67.6,761.1,66z"/>
		<path class="st0" d="M826.7,72.8h-17.4v-2c0.6,0,1.4-0.1,2.4-0.2c1-0.1,1.7-0.3,2-0.5c0.6-0.4,1-0.8,1.3-1.2
			c0.3-0.5,0.4-1,0.4-1.7v-29H815l-13.5,33.9h-1.4l-12.8-34.6H787v23.8c0,2.3,0.1,4.1,0.4,5.3s0.7,2.1,1.3,2.6
			c0.4,0.4,1.3,0.8,2.5,1.1c1.3,0.4,2.1,0.5,2.5,0.6v2h-15.9v-2c0.8-0.1,1.7-0.2,2.6-0.4c0.9-0.2,1.6-0.5,2.1-0.9
			c0.6-0.5,1.1-1.3,1.3-2.4c0.2-1.1,0.4-2.9,0.4-5.4V41.2c0-1.2-0.1-2.1-0.4-2.9c-0.3-0.7-0.7-1.4-1.2-1.8c-0.6-0.5-1.3-0.9-2.1-1.1
			c-0.8-0.2-1.7-0.4-2.5-0.4v-2h13.4l11.3,29.9l9.6-25c0.4-0.9,0.7-1.9,0.9-2.9s0.4-1.7,0.4-2h12.9v2c-0.5,0-1.2,0.1-2,0.3
			c-0.8,0.1-1.4,0.3-1.8,0.4c-0.6,0.2-1.1,0.6-1.3,1.1c-0.2,0.5-0.3,1.1-0.3,1.7v28.7c0,0.7,0.1,1.2,0.3,1.7
			c0.2,0.4,0.6,0.8,1.3,1.2c0.3,0.2,0.9,0.4,1.8,0.5c0.9,0.2,1.5,0.2,2,0.3V72.8z"/>
		<path class="st0" d="M868.6,61.1l-0.8,11.7h-32.7v-2c0.6,0,1.3-0.1,2.2-0.2c0.9-0.1,1.5-0.2,1.8-0.4c0.6-0.3,1-0.6,1.2-1.1
			s0.3-1,0.3-1.7V38.8c0-0.6-0.1-1.2-0.3-1.6c-0.2-0.5-0.6-0.9-1.3-1.2c-0.5-0.2-1.2-0.5-2-0.6s-1.5-0.3-2-0.3v-2h30.5v9.6h-2.1
			c-0.4-1.4-1.2-2.9-2.4-4.5c-1.2-1.6-2.4-2.5-3.5-2.6c-0.6-0.1-1.3-0.1-2.1-0.2s-1.7-0.1-2.7-0.1h-6.2V51h4.4
			c1.4,0,2.5-0.1,3.1-0.4c0.7-0.3,1.2-0.7,1.7-1.4c0.4-0.5,0.8-1.3,1-2.2c0.3-0.9,0.5-1.8,0.6-2.6h2.1v15.6h-2.1
			c-0.1-0.9-0.3-1.8-0.6-2.8c-0.3-1-0.7-1.7-1-2.2c-0.6-0.7-1.2-1.2-2-1.4c-0.7-0.2-1.7-0.3-2.9-0.3h-4.4v11.9
			c0,1.2,0.1,2.1,0.2,2.8s0.5,1.2,1,1.6c0.5,0.4,1.1,0.6,2,0.7c0.8,0.1,2,0.2,3.6,0.2c0.6,0,1.4,0,2.4,0c1,0,1.8,0,2.5-0.1
			c0.7-0.1,1.4-0.2,2.2-0.4c0.8-0.2,1.3-0.5,1.6-0.8c0.9-0.9,1.7-2.3,2.7-4.1c0.9-1.8,1.5-3.2,1.8-4H868.6z"/>
		<path class="st0" d="M348.6,141.1h-17.8v-2c0.5,0,1.2-0.1,2.2-0.2c0.9-0.1,1.6-0.2,2-0.3c0.6-0.2,1.1-0.6,1.3-1s0.4-1,0.4-1.8V107
			c0-0.7-0.1-1.2-0.3-1.6c-0.2-0.4-0.7-0.8-1.4-1.1c-0.6-0.2-1.3-0.4-2.1-0.6c-0.8-0.2-1.5-0.3-2.1-0.4v-2h17.8v2
			c-0.6,0-1.3,0.1-2.1,0.2c-0.8,0.1-1.5,0.3-2.1,0.5c-0.7,0.2-1.2,0.6-1.4,1.1c-0.2,0.5-0.4,1.1-0.4,1.7v28.8c0,0.6,0.1,1.2,0.4,1.6
			c0.3,0.5,0.7,0.9,1.4,1.1c0.4,0.2,1,0.3,1.9,0.5c0.9,0.2,1.6,0.3,2.2,0.3V141.1z"/>
		<path class="st0" d="M397.4,103.3c-0.5,0-1.3,0.2-2.4,0.4c-1.1,0.3-1.8,0.6-2.3,0.9c-0.7,0.5-1.1,1.4-1.3,2.7
			c-0.2,1.3-0.3,3-0.3,5.1v29.2h-2.4l-23.9-32.6v20.6c0,2.3,0.1,4.1,0.4,5.3s0.7,2.1,1.3,2.6c0.4,0.4,1.3,0.8,2.6,1.2
			c1.3,0.4,2.2,0.5,2.6,0.6v2h-16.2v-2c0.5,0,1.3-0.2,2.5-0.5c1.2-0.3,1.9-0.6,2.2-0.9c0.6-0.5,1.1-1.3,1.3-2.4
			c0.2-1.1,0.4-2.9,0.4-5.5v-19.6c0-0.9-0.1-1.7-0.4-2.6c-0.3-0.9-0.7-1.5-1.2-2c-0.7-0.6-1.6-1.1-2.7-1.6s-2.1-0.7-2.8-0.7v-2h11.3
			l22.2,30.4v-18.9c0-2.3-0.1-4.1-0.4-5.3c-0.3-1.2-0.7-2.1-1.3-2.5c-0.5-0.4-1.4-0.7-2.5-1s-2.1-0.5-2.7-0.6v-2h16V103.3z"/>
		<path class="st0" d="M436.1,112.1h-1.9c-0.2-0.7-0.5-1.5-0.9-2.4s-0.9-1.8-1.5-2.6c-0.6-0.9-1.2-1.6-1.8-2.3
			c-0.7-0.6-1.3-1-1.9-1.1c-0.6-0.1-1.3-0.1-2.2-0.2c-0.9,0-1.7-0.1-2.4-0.1h-1.6v31.9c0,0.6,0.1,1.2,0.4,1.7
			c0.3,0.5,0.7,0.9,1.4,1.2c0.3,0.1,1,0.3,2.1,0.5s1.9,0.3,2.5,0.4v2h-18.6v-2c0.5,0,1.3-0.1,2.4-0.2s1.8-0.3,2.2-0.4
			c0.6-0.2,1.1-0.6,1.3-1.1s0.4-1.1,0.4-1.8v-32.1h-1.6c-0.6,0-1.3,0-2.1,0s-1.7,0.1-2.4,0.2c-0.6,0.1-1.2,0.4-1.9,1.1
			c-0.7,0.7-1.3,1.4-1.8,2.3c-0.6,0.8-1,1.7-1.5,2.7c-0.4,0.9-0.7,1.7-0.9,2.3h-1.9v-10.8h34.4V112.1z"/>
		<path class="st0" d="M475.8,129.4l-0.8,11.7h-32.7v-2c0.6,0,1.3-0.1,2.2-0.2c0.9-0.1,1.5-0.2,1.8-0.4c0.6-0.3,1-0.6,1.2-1.1
			s0.3-1,0.3-1.7v-28.6c0-0.6-0.1-1.2-0.3-1.6s-0.6-0.9-1.3-1.2c-0.5-0.2-1.2-0.5-2-0.6c-0.8-0.2-1.5-0.3-2-0.3v-2h30.5v9.6h-2.1
			c-0.4-1.4-1.2-2.9-2.4-4.5c-1.2-1.6-2.4-2.5-3.5-2.6c-0.6-0.1-1.3-0.1-2.1-0.2c-0.8,0-1.7-0.1-2.7-0.1h-6.2v15.8h4.4
			c1.4,0,2.5-0.1,3.1-0.4c0.7-0.3,1.2-0.7,1.7-1.4c0.4-0.5,0.8-1.3,1-2.2c0.3-0.9,0.5-1.8,0.6-2.6h2.1v15.6h-2.1
			c-0.1-0.9-0.3-1.8-0.6-2.8c-0.3-1-0.7-1.7-1-2.2c-0.6-0.7-1.2-1.2-2-1.4c-0.7-0.2-1.7-0.3-2.9-0.3h-4.4v11.9
			c0,1.2,0.1,2.1,0.2,2.8s0.5,1.2,1,1.6c0.5,0.4,1.1,0.6,2,0.7s2,0.2,3.6,0.2c0.6,0,1.4,0,2.4,0c1,0,1.8,0,2.5-0.1
			c0.7-0.1,1.4-0.2,2.2-0.4c0.8-0.2,1.3-0.5,1.6-0.8c0.9-0.9,1.7-2.3,2.7-4.1c0.9-1.8,1.5-3.2,1.8-4H475.8z"/>
		<path class="st0" d="M521.7,141.1H511c-2.4-3.7-4.5-6.9-6.4-9.7c-1.9-2.7-4-5.5-6.2-8.4h-4v12.6c0,0.7,0.1,1.2,0.3,1.7
			c0.2,0.5,0.6,0.9,1.3,1.1c0.3,0.1,0.9,0.3,1.8,0.4c0.8,0.1,1.5,0.2,2.1,0.2v2h-16.7v-2c0.4,0,1.1-0.1,1.9-0.2
			c0.8-0.1,1.4-0.2,1.8-0.4c0.6-0.2,1-0.6,1.2-1.1s0.4-1.1,0.4-1.8v-28.8c0-0.7-0.1-1.2-0.3-1.7c-0.2-0.5-0.6-0.9-1.3-1.2
			c-0.5-0.2-1.1-0.3-1.8-0.5c-0.7-0.1-1.4-0.2-1.9-0.3v-2h18.2c1.7,0,3.2,0.2,4.7,0.5c1.5,0.3,2.8,0.9,4,1.7
			c1.1,0.7,2.1,1.7,2.8,2.9s1,2.7,1,4.4c0,1.5-0.2,2.9-0.7,4.1c-0.5,1.2-1.1,2.2-2.1,3.1c-0.8,0.8-1.8,1.5-3,2.1
			c-1.2,0.6-2.5,1.1-3.9,1.5c1.9,2.6,3.6,4.8,4.9,6.6c1.3,1.8,2.9,3.9,4.7,6.5c0.8,1.1,1.6,2,2.2,2.5c0.7,0.5,1.3,1,2,1.3
			c0.5,0.2,1.1,0.4,1.8,0.6s1.3,0.2,1.8,0.2V141.1z M507,111.5c0-2.4-0.7-4.3-2.1-5.7c-1.4-1.4-3.3-2.1-5.8-2.1h-4.7v17.1h3.6
			c2.6,0,4.7-0.8,6.4-2.5C506.2,116.5,507,114.3,507,111.5z"/>
		<path class="st0" d="M556.8,111.1c0,2.1-0.4,3.9-1.2,5.5c-0.8,1.6-1.9,2.9-3.3,4c-1.4,1-3,1.8-4.6,2.3c-1.7,0.5-3.5,0.7-5.4,0.7
			h-4.4v12.1c0,0.7,0.1,1.2,0.3,1.7s0.7,0.9,1.3,1.1c0.3,0.1,0.9,0.3,1.8,0.4s1.6,0.2,2.3,0.2v2h-16.9v-2c0.4,0,1.1-0.1,1.9-0.2
			c0.8-0.1,1.4-0.2,1.8-0.4c0.6-0.2,1-0.6,1.2-1.1s0.4-1.1,0.4-1.8V107c0-0.7-0.1-1.2-0.3-1.8c-0.2-0.5-0.6-0.9-1.3-1.2
			c-0.7-0.2-1.4-0.4-2.1-0.5c-0.7-0.1-1.3-0.2-1.8-0.2v-2h18c3.7,0,6.6,0.9,8.9,2.7C555.6,105.8,556.8,108.2,556.8,111.1z
			 M548.3,117.9c0.6-0.9,1-1.8,1.3-2.8c0.2-1,0.3-1.8,0.3-2.6c0-1.1-0.1-2.2-0.4-3.3c-0.2-1.1-0.7-2.1-1.3-2.9
			c-0.6-0.9-1.5-1.6-2.6-2c-1.1-0.5-2.4-0.7-3.9-0.7h-3.9v17.6h2.8c2,0,3.6-0.3,4.9-0.9S547.7,118.9,548.3,117.9z"/>
		<path class="st0" d="M603.1,141.1h-10.6c-2.4-3.7-4.5-6.9-6.4-9.7c-1.9-2.7-4-5.5-6.2-8.4h-4v12.6c0,0.7,0.1,1.2,0.3,1.7
			c0.2,0.5,0.6,0.9,1.3,1.1c0.3,0.1,0.9,0.3,1.8,0.4c0.8,0.1,1.5,0.2,2.1,0.2v2h-16.7v-2c0.4,0,1.1-0.1,1.9-0.2
			c0.8-0.1,1.4-0.2,1.8-0.4c0.6-0.2,1-0.6,1.2-1.1s0.4-1.1,0.4-1.8v-28.8c0-0.7-0.1-1.2-0.3-1.7c-0.2-0.5-0.6-0.9-1.3-1.2
			c-0.5-0.2-1.1-0.3-1.8-0.5c-0.7-0.1-1.4-0.2-1.9-0.3v-2h18.2c1.7,0,3.2,0.2,4.7,0.5c1.5,0.3,2.8,0.9,4,1.7
			c1.1,0.7,2.1,1.7,2.8,2.9s1,2.7,1,4.4c0,1.5-0.2,2.9-0.7,4.1c-0.5,1.2-1.1,2.2-2.1,3.1c-0.8,0.8-1.8,1.5-3,2.1
			c-1.2,0.6-2.5,1.1-3.9,1.5c1.9,2.6,3.6,4.8,4.9,6.6c1.3,1.8,2.9,3.9,4.7,6.5c0.8,1.1,1.6,2,2.2,2.5c0.7,0.5,1.3,1,2,1.3
			c0.5,0.2,1.1,0.4,1.8,0.6s1.3,0.2,1.8,0.2V141.1z M588.5,111.5c0-2.4-0.7-4.3-2.1-5.7c-1.4-1.4-3.3-2.1-5.8-2.1h-4.7v17.1h3.6
			c2.6,0,4.7-0.8,6.4-2.5C587.7,116.5,588.5,114.3,588.5,111.5z"/>
		<path class="st0" d="M641.2,129.4l-0.8,11.7h-32.7v-2c0.6,0,1.3-0.1,2.2-0.2c0.9-0.1,1.5-0.2,1.8-0.4c0.6-0.3,1-0.6,1.2-1.1
			s0.3-1,0.3-1.7v-28.6c0-0.6-0.1-1.2-0.3-1.6s-0.6-0.9-1.3-1.2c-0.5-0.2-1.2-0.5-2-0.6c-0.8-0.2-1.5-0.3-2-0.3v-2h30.5v9.6h-2.1
			c-0.4-1.4-1.2-2.9-2.4-4.5c-1.2-1.6-2.4-2.5-3.5-2.6c-0.6-0.1-1.3-0.1-2.1-0.2c-0.8,0-1.7-0.1-2.7-0.1h-6.2v15.8h4.4
			c1.4,0,2.5-0.1,3.1-0.4c0.7-0.3,1.2-0.7,1.7-1.4c0.4-0.5,0.8-1.3,1-2.2c0.3-0.9,0.5-1.8,0.6-2.6h2.1v15.6h-2.1
			c-0.1-0.9-0.3-1.8-0.6-2.8c-0.3-1-0.7-1.7-1-2.2c-0.6-0.7-1.2-1.2-2-1.4c-0.7-0.2-1.7-0.3-2.9-0.3h-4.4v11.9
			c0,1.2,0.1,2.1,0.2,2.8s0.5,1.2,1,1.6c0.5,0.4,1.1,0.6,2,0.7s2,0.2,3.6,0.2c0.6,0,1.4,0,2.4,0c1,0,1.8,0,2.5-0.1
			c0.7-0.1,1.4-0.2,2.2-0.4c0.8-0.2,1.3-0.5,1.6-0.8c0.9-0.9,1.7-2.3,2.7-4.1c0.9-1.8,1.5-3.2,1.8-4H641.2z"/>
		<path class="st0" d="M680.8,112.1h-1.9c-0.2-0.7-0.5-1.5-0.9-2.4s-0.9-1.8-1.5-2.6c-0.6-0.9-1.2-1.6-1.8-2.3
			c-0.7-0.6-1.3-1-1.9-1.1c-0.6-0.1-1.3-0.1-2.2-0.2c-0.9,0-1.7-0.1-2.4-0.1h-1.6v31.9c0,0.6,0.1,1.2,0.4,1.7
			c0.3,0.5,0.7,0.9,1.4,1.2c0.3,0.1,1,0.3,2.1,0.5s1.9,0.3,2.5,0.4v2h-18.6v-2c0.5,0,1.3-0.1,2.4-0.2s1.8-0.3,2.2-0.4
			c0.6-0.2,1.1-0.6,1.3-1.1s0.4-1.1,0.4-1.8v-32.1H659c-0.6,0-1.3,0-2.1,0s-1.7,0.1-2.4,0.2c-0.6,0.1-1.2,0.4-1.9,1.1
			c-0.7,0.7-1.3,1.4-1.8,2.3c-0.6,0.8-1,1.7-1.5,2.7c-0.4,0.9-0.7,1.7-0.9,2.3h-1.9v-10.8h34.4V112.1z"/>
		<path class="st0" d="M720.5,129.4l-0.8,11.7H687v-2c0.6,0,1.3-0.1,2.2-0.2c0.9-0.1,1.5-0.2,1.8-0.4c0.6-0.3,1-0.6,1.2-1.1
			s0.3-1,0.3-1.7v-28.6c0-0.6-0.1-1.2-0.3-1.6s-0.6-0.9-1.3-1.2c-0.5-0.2-1.2-0.5-2-0.6c-0.8-0.2-1.5-0.3-2-0.3v-2h30.5v9.6h-2.1
			c-0.4-1.4-1.2-2.9-2.4-4.5c-1.2-1.6-2.4-2.5-3.5-2.6c-0.6-0.1-1.3-0.1-2.1-0.2c-0.8,0-1.7-0.1-2.7-0.1h-6.2v15.8h4.4
			c1.4,0,2.5-0.1,3.1-0.4c0.7-0.3,1.2-0.7,1.7-1.4c0.4-0.5,0.8-1.3,1-2.2c0.3-0.9,0.5-1.8,0.6-2.6h2.1v15.6h-2.1
			c-0.1-0.9-0.3-1.8-0.6-2.8c-0.3-1-0.7-1.7-1-2.2c-0.6-0.7-1.2-1.2-2-1.4c-0.7-0.2-1.7-0.3-2.9-0.3h-4.4v11.9
			c0,1.2,0.1,2.1,0.2,2.8s0.5,1.2,1,1.6c0.5,0.4,1.1,0.6,2,0.7s2,0.2,3.6,0.2c0.6,0,1.4,0,2.4,0c1,0,1.8,0,2.5-0.1
			c0.7-0.1,1.4-0.2,2.2-0.4c0.8-0.2,1.3-0.5,1.6-0.8c0.9-0.9,1.7-2.3,2.7-4.1c0.9-1.8,1.5-3.2,1.8-4H720.5z"/>
		<path class="st0" d="M766.3,141.1h-10.6c-2.4-3.7-4.5-6.9-6.4-9.7c-1.9-2.7-4-5.5-6.2-8.4h-4v12.6c0,0.7,0.1,1.2,0.3,1.7
			c0.2,0.5,0.6,0.9,1.3,1.1c0.3,0.1,0.9,0.3,1.8,0.4c0.8,0.1,1.5,0.2,2.1,0.2v2h-16.7v-2c0.4,0,1.1-0.1,1.9-0.2
			c0.8-0.1,1.4-0.2,1.8-0.4c0.6-0.2,1-0.6,1.2-1.1s0.4-1.1,0.4-1.8v-28.8c0-0.7-0.1-1.2-0.3-1.7c-0.2-0.5-0.6-0.9-1.3-1.2
			c-0.5-0.2-1.1-0.3-1.8-0.5c-0.7-0.1-1.4-0.2-1.9-0.3v-2h18.2c1.7,0,3.2,0.2,4.7,0.5c1.5,0.3,2.8,0.9,4,1.7
			c1.1,0.7,2.1,1.7,2.8,2.9s1,2.7,1,4.4c0,1.5-0.2,2.9-0.7,4.1c-0.5,1.2-1.1,2.2-2.1,3.1c-0.8,0.8-1.8,1.5-3,2.1
			c-1.2,0.6-2.5,1.1-3.9,1.5c1.9,2.6,3.6,4.8,4.9,6.6c1.3,1.8,2.9,3.9,4.7,6.5c0.8,1.1,1.6,2,2.2,2.5c0.7,0.5,1.3,1,2,1.3
			c0.5,0.2,1.1,0.4,1.8,0.6s1.3,0.2,1.8,0.2V141.1z M751.7,111.5c0-2.4-0.7-4.3-2.1-5.7c-1.4-1.4-3.3-2.1-5.8-2.1h-4.7v17.1h3.6
			c2.6,0,4.7-0.8,6.4-2.5C750.9,116.5,751.7,114.3,751.7,111.5z"/>
	</g>
	<circle class="st1" cx="242.4" cy="57.7" r="9.1"/>
	<circle class="st1" cx="267.2" cy="58.1" r="7.9"/>
	<circle class="st1" cx="286.5" cy="71" r="6.7"/>
	<circle class="st1" cx="251.5" cy="94.7" r="4"/>
	<circle class="st1" cx="239.6" cy="87.1" r="3.2"/>
	<circle class="st1" cx="7.4" cy="61.4" r="4"/>
	<circle class="st1" cx="40" cy="29.1" r="11.7"/>
	<circle class="st1" cx="62.8" cy="43.5" r="9.1"/>
	<circle class="st1" cx="39" cy="98.3" r="10.1"/>
	<circle class="st1" cx="18.6" cy="81.7" r="7.4"/>
	<circle class="st1" cx="60.4" cy="93.3" r="5.9"/>
	<circle class="st2" cx="152.7" cy="43.5" r="9.1"/>
	<circle class="st2" cx="102.4" cy="92.4" r="8.2"/>
	<circle class="st2" cx="173.2" cy="99.6" r="10.5"/>
	<circle class="st2" cx="129.1" cy="47.6" r="9.5"/>
	<circle class="st2" cx="192.8" cy="75.1" r="13.3"/>
	<circle class="st2" cx="88.3" cy="74.7" r="4"/>
	<circle class="st2" cx="110.5" cy="110.3" r="3.6"/>
	<circle class="st2" cx="213.9" cy="82" r="3.6"/>
	<circle class="st2" cx="124.5" cy="121.5" r="6.7"/>
	<circle class="st2" cx="175.2" cy="51.5" r="6.7"/>
	<circle class="st2" cx="149.3" cy="115.8" r="10.1"/>
	<circle class="st2" cx="107.2" cy="66.1" r="10.5"/>
	<linearGradient id="SVGID_1_" gradientUnits="userSpaceOnUse" x1="70.9077" y1="81.5044" x2="229.5483" y2="81.5044">
		<stop  offset="0" style="stop-color:#FFFFFF;stop-opacity:0"/>
		<stop  offset="1" style="stop-color:#F69B17"/>
	</linearGradient>
	<path class="st3" d="M150.2,160.8c-43.7,0-79.3-35.6-79.3-79.3s35.6-79.3,79.3-79.3s79.3,35.6,79.3,79.3S194,160.8,150.2,160.8z
		 M150.2,7.2c-41,0-74.3,33.3-74.3,74.3s33.3,74.3,74.3,74.3s74.3-33.3,74.3-74.3S191.2,7.2,150.2,7.2z"/>
</g>
</svg>
