<?xml version="1.0" encoding="utf-8"?>
<!-- Generator: Adobe Illustrator 24.1.0, SVG Export Plug-In . SVG Version: 6.00 Build 0)  -->
<svg version="1.1" id="Capa_1" xmlns="http://www.w3.org/2000/svg" xmlns:xlink="http://www.w3.org/1999/xlink" x="0px" y="0px"
	 viewBox="0 0 1038.4 678.7" style="enable-background:new 0 0 1038.4 678.7;" xml:space="preserve">
<style type="text/css">
	.st0{fill:#F0F7F6;}
	.st1{fill:none;}
	.st2{fill:#D4ECEA;}
	.st3{opacity:0.25;fill:#FFFFFF;}
</style>
<g>
	<g>
		<g>
			<path class="st0" d="M929.1,557.3H108.9c-5.4,0-10.7,2.1-14.9,6.1l-82.6,77.7c-17.1,16-7.2,34.9,14.9,34.9h985.4
				c22.1,0,31.9-18.8,14.9-34.9l-82.7-77.7C939.7,559.4,934.5,557.3,929.1,557.3z"/>
			<g>
				<rect x="154.3" y="65.2" class="st1" width="727.8" height="418.3"/>
				<path class="st0" d="M914,3H124c-13,0-23.5,10.5-23.5,23.5v11.1c0-13,10.5-23.5,23.5-23.5h790c13,0,23.5,10.5,23.5,23.5V26.5
					C937.5,13.6,926.9,3,914,3z"/>
			</g>
			<path class="st2" d="M1011.7,655.7H26.3c-8,0-14.4-4.2-18.5-10.3C-3.9,662.2,6,676,26.3,676h985.4c20.3,0,30.2-13.8,18.5-30.6
				C1026.1,651.5,1019.7,655.7,1011.7,655.7z"/>
			<path class="st2" d="M124,14.1c-13,0-23.5,10.5-23.5,23.5v486c0,13,10.5,23.5,23.5,23.5h790c13,0,23.5-10.5,23.5-23.5v-486
				c0-13-10.5-23.5-23.5-23.5L124,14.1L124,14.1z M912.1,524.6H124.3V35.2h787.8V524.6z"/>
		</g>
	</g>
</g>
<rect x="124.2" y="34.2" class="st3" width="788.1" height="492.7"/>
</svg>
