<?xml version="1.0" encoding="utf-8"?>
<!-- Generator: Adobe Illustrator 24.1.0, SVG Export Plug-In . SVG Version: 6.00 Build 0)  -->
<svg version="1.1" id="Capa_1" xmlns="http://www.w3.org/2000/svg" xmlns:xlink="http://www.w3.org/1999/xlink" x="0px" y="0px"
	 viewBox="0 0 1038.4 678.7" style="enable-background:new 0 0 1038.4 678.7;" xml:space="preserve">
<style type="text/css">
	.st0{fill:#FFFFFF;}
	.st1{fill:none;stroke:url(#SVGID_1_);stroke-width:9.1784;stroke-miterlimit:10;}
</style>
<g>
	<g>
		<path class="st0" d="M445.6,284.2c-2,0-3.9-0.4-5.5-1.1c-1.7-0.7-3.3-1.8-4.8-3.3c-1.3-1.5-2.4-3.1-3.3-5.3c-0.7-2-1.3-4.4-1.3-7
			c0-2.6,0.4-5,1.1-7.2c0.7-2.2,1.8-4,3.3-5.5s2.9-2.8,5-3.5c1.8-0.9,3.9-1.3,6.1-1.3c1.7,0,3.1,0.2,4.4,0.6
			c1.3,0.4,2.6,0.9,3.7,1.7l0.9-1.7h1.8l0.2,11.7h-1.8c-0.2-1.1-0.6-2.4-1.1-3.7c-0.6-1.3-1.1-2.4-1.7-3.3c-0.7-1.1-1.7-1.8-2.6-2.4
			c-0.9-0.6-2.2-0.9-3.5-0.9c-1.5,0-2.8,0.4-4,0.9c-1.3,0.7-2.4,1.7-3.3,2.9c-0.9,1.3-1.7,2.8-2,4.8c-0.6,1.8-0.7,4-0.7,6.4
			c0,2,0.2,4,0.7,5.7c0.6,1.8,1.3,3.3,2.2,4.6s2.2,2.4,3.5,3.1c1.3,0.7,2.8,1.1,4.4,1.1c1.3,0,2.4-0.2,3.3-0.6
			c0.9-0.4,2-0.9,2.8-1.5c0.7-0.7,1.5-1.5,2-2.4c0.6-0.9,1.1-1.8,1.5-2.8l1.7,0.9c-1.3,3.3-3.1,5.5-5.1,7
			C451.1,283.7,448.5,284.2,445.6,284.2z"/>
		<path class="st0" d="M494.3,283.5h-13.4v-1.7c1.1,0,2.2-0.2,2.9-0.6c0.7-0.2,1.1-0.6,1.1-0.9c0-0.2,0-0.4,0-0.6
			c0-0.2,0-0.4-0.2-0.6l-2.8-7.3h-11.4c-0.4,1.1-0.7,2-1.1,2.8c-0.2,0.7-0.6,1.5-0.7,2.2c-0.2,0.7-0.4,1.3-0.4,1.7
			c0,0.4-0.2,0.7-0.2,1.1c0,0.6,0.6,1.1,1.5,1.5c0.9,0.4,2,0.6,3.3,0.6v1.7h-12.1v-1.7c0.4,0,0.9-0.2,1.5-0.2
			c0.6-0.2,1.1-0.4,1.5-0.6c0.6-0.4,1.1-0.9,1.5-1.3c0.4-0.4,0.7-1.1,0.9-1.8c1.7-4,3.5-8.6,5.3-13.8c2-5.1,3.7-9.7,5.3-13.6h1.8
			l10.8,28.3c0.2,0.6,0.6,1.1,0.7,1.5c0.4,0.4,0.7,0.7,1.3,1.1c0.4,0.2,0.7,0.4,1.3,0.6c0.6,0.2,1.1,0.2,1.5,0.2L494.3,283.5
			L494.3,283.5z M481.4,270.1l-5-12.7l-4.8,12.7H481.4z"/>
		<path class="st0" d="M531.5,252.5c-0.4,0-1.1,0.2-2,0.4s-1.5,0.6-1.8,0.7c-0.6,0.4-0.9,1.1-1.1,2.2c-0.2,1.1-0.4,2.4-0.4,4.2v23.9
			h-1.8L504.7,257v16.9c0,1.8,0.2,3.3,0.4,4.4c0.2,1.1,0.6,1.7,1.1,2.2c0.4,0.4,1.1,0.7,2.2,0.9c1.1,0.4,1.8,0.4,2.2,0.6v1.7h-13.2
			V282c0.4,0,1.1-0.2,2-0.4c0.9-0.2,1.7-0.6,1.8-0.7c0.6-0.4,0.9-1.1,1.1-2c0.2-0.9,0.4-2.4,0.4-4.6v-16.2c0-0.7-0.2-1.5-0.4-2.2
			c-0.2-0.7-0.6-1.3-0.9-1.7c-0.6-0.6-1.3-0.9-2.2-1.3c-0.9-0.4-1.7-0.6-2.2-0.6v-1.7h9.2l18.2,25v-15.6c0-1.8-0.2-3.3-0.4-4.4
			c-0.2-1.1-0.6-1.7-1.1-2c-0.4-0.4-1.1-0.6-2-0.9c-0.9-0.4-1.7-0.4-2.2-0.6v-1.7h13.2v1.8L531.5,252.5L531.5,252.5z"/>
		<path class="st0" d="M551.2,284.2c-2,0-3.9-0.4-5.5-1.1c-1.7-0.7-3.3-1.8-4.8-3.3c-1.3-1.5-2.4-3.1-3.3-5.3c-0.7-2-1.3-4.4-1.3-7
			c0-2.6,0.4-5,1.1-7.2c0.7-2.2,1.8-4,3.3-5.5c1.5-1.5,2.9-2.8,5-3.5c1.8-0.9,3.9-1.3,6.1-1.3c1.7,0,3.1,0.2,4.4,0.6
			c1.3,0.4,2.6,0.9,3.7,1.7l0.9-1.7h1.8l0.2,11.7h-1.8c-0.2-1.1-0.6-2.4-1.1-3.7c-0.6-1.3-1.1-2.4-1.7-3.3c-0.7-1.1-1.7-1.8-2.6-2.4
			s-2.2-0.9-3.5-0.9c-1.5,0-2.8,0.4-4,0.9c-1.3,0.7-2.4,1.7-3.3,2.9c-0.9,1.3-1.7,2.8-2,4.8c-0.6,1.8-0.7,4-0.7,6.4
			c0,2,0.2,4,0.7,5.7c0.6,1.8,1.3,3.3,2.2,4.6s2.2,2.4,3.5,3.1c1.3,0.7,2.8,1.1,4.4,1.1c1.3,0,2.4-0.2,3.3-0.6
			c0.9-0.4,2-0.9,2.8-1.5c0.7-0.7,1.5-1.5,2-2.4c0.6-0.9,1.1-1.8,1.5-2.8l1.7,0.9c-1.3,3.3-3.1,5.5-5.1,7
			C556.7,283.7,554.1,284.2,551.2,284.2z"/>
		<path class="st0" d="M596.9,273.9l-0.6,9.5h-26.8v-1.7c0.4,0,1.1-0.2,1.8-0.2c0.7-0.2,1.3-0.2,1.5-0.4c0.6-0.2,0.7-0.6,1.1-0.9
			c0.4-0.4,0.4-0.9,0.4-1.5v-23.5c0-0.6,0-0.9-0.2-1.3c-0.2-0.4-0.6-0.7-1.1-0.9c-0.4-0.2-0.9-0.4-1.7-0.6c-0.7-0.2-1.3-0.2-1.7-0.4
			v-1.7h25v7.9H593c-0.4-1.1-0.9-2.4-2-3.7s-2-2-2.9-2.2c-0.6,0-1.1-0.2-1.7-0.2c-0.7,0-1.5,0-2.2,0h-5.1v13h3.7
			c1.1,0,2-0.2,2.6-0.4c0.6-0.2,1.1-0.6,1.5-1.1c0.4-0.4,0.6-1.1,0.9-1.8c0.4-0.7,0.4-1.5,0.6-2h1.7V273h-1.7c0-0.7-0.2-1.5-0.6-2.4
			c-0.2-0.7-0.6-1.5-0.9-1.8c-0.6-0.6-0.9-0.9-1.7-1.1c-0.6-0.2-1.5-0.4-2.4-0.4h-3.7v9.7c0,0.9,0,1.8,0.2,2.4s0.4,0.9,0.7,1.3
			c0.4,0.4,0.9,0.6,1.7,0.6s1.7,0.2,2.9,0.2c0.6,0,1.1,0,2,0s1.5,0,2-0.2c0.6,0,1.1-0.2,1.8-0.4c0.7-0.2,1.1-0.4,1.3-0.7
			c0.7-0.7,1.5-1.8,2.2-3.3c0.7-1.5,1.3-2.6,1.5-3.3h1.5L596.9,273.9L596.9,273.9z"/>
		<path class="st0" d="M634.5,283.5h-8.6c-2-3.1-3.7-5.7-5.1-7.9c-1.5-2.2-3.3-4.6-5.1-7h-3.3v10.3c0,0.6,0,1.1,0.2,1.5
			c0.2,0.4,0.6,0.7,1.1,0.9c0.2,0.2,0.7,0.2,1.5,0.4c0.7,0.2,1.3,0.2,1.7,0.2v1.7h-13.8v-1.7c0.4,0,0.9,0,1.7-0.2
			c0.7-0.2,1.1-0.2,1.5-0.4c0.4-0.2,0.7-0.6,0.9-0.9c0.2-0.4,0.4-0.9,0.4-1.5v-23.7c0-0.6,0-1.1-0.2-1.5c-0.2-0.4-0.6-0.7-1.1-0.9
			c-0.4-0.2-0.9-0.2-1.5-0.4c-0.6-0.2-1.1-0.2-1.5-0.2v-1.7H618c1.3,0,2.6,0.2,3.9,0.4s2.2,0.7,3.3,1.3c0.9,0.6,1.7,1.5,2.2,2.4
			c0.6,0.9,0.9,2.2,0.9,3.7c0,1.3-0.2,2.4-0.6,3.3c-0.4,0.9-0.9,1.8-1.7,2.6s-1.5,1.3-2.4,1.7c-0.9,0.6-2,0.9-3.1,1.3
			c1.7,2.2,2.9,3.9,4,5.3c1.1,1.5,2.4,3.3,3.9,5.3c0.7,0.9,1.3,1.7,1.8,2c0.6,0.4,1.1,0.7,1.7,1.1c0.4,0.2,0.9,0.4,1.5,0.6
			c0.6,0.2,1.1,0.2,1.5,0.2v1.8H634.5z M622.6,259.1c0-2-0.6-3.5-1.7-4.8c-1.1-1.1-2.8-1.7-4.8-1.7h-3.9v14h2.9c2,0,3.9-0.7,5.3-2
			C621.8,263.3,622.6,261.4,622.6,259.1z"/>
		<path class="st0" d="M684.1,270.4c-0.4,0-0.9,0.2-1.5,0.2c-0.6,0.2-1.1,0.2-1.5,0.4c-0.4,0.2-0.7,0.6-0.9,0.9
			c-0.2,0.4-0.4,0.9-0.4,1.5v2.6c0,1.8,0,3.1,0,3.7c0,0.7,0,1.1,0,1.7c-2,0.9-4,1.7-6.1,2.2c-2,0.6-4,0.7-5.9,0.7
			c-2,0-4-0.4-6.1-1.1c-1.8-0.7-3.7-1.8-5-3.3c-1.5-1.5-2.6-3.3-3.5-5.3c-0.9-2-1.3-4.4-1.3-7c0-2.6,0.4-4.8,1.3-7
			c0.7-2.2,2-4,3.5-5.5c1.5-1.5,3.1-2.8,5.1-3.7c2-0.9,4.2-1.3,6.4-1.3c1.8,0,3.5,0.2,4.8,0.7c1.3,0.4,2.6,0.9,3.7,1.7l0.9-1.7h1.8
			l0.2,11.4H678c-0.4-1.3-0.7-2.6-1.1-3.7c-0.6-1.3-1.1-2.4-1.8-3.3s-1.7-1.7-2.8-2.4c-1.1-0.6-2.4-0.9-3.9-0.9
			c-1.7,0-3.1,0.4-4.4,0.9c-1.3,0.6-2.4,1.7-3.3,2.9c-0.9,1.3-1.7,2.9-2.2,4.8c-0.6,1.8-0.7,4-0.7,6.4c0,2,0.2,4,0.7,5.9
			s1.3,3.5,2.2,4.8s2.2,2.4,3.5,3.3c1.5,0.7,2.9,1.1,4.8,1.1c1.3,0,2.6-0.2,3.7-0.6c1.1-0.4,1.8-0.9,2.4-1.3
			c0.2-0.7,0.2-1.7,0.2-2.4s0-1.5,0-2v-1.8c0-0.7,0-1.3-0.2-1.7c-0.2-0.6-0.6-0.9-1.1-1.1c-0.6-0.2-1.1-0.4-2-0.6
			c-0.9-0.2-1.5-0.2-2-0.2v-1.7h14.1L684.1,270.4L684.1,270.4z"/>
		<path class="st0" d="M716.6,273.9l-0.6,9.5h-26.8v-1.7c0.4,0,1.1-0.2,1.8-0.2c0.7-0.2,1.3-0.2,1.5-0.4c0.6-0.2,0.7-0.6,1.1-0.9
			c0.2-0.4,0.4-0.9,0.4-1.5v-23.5c0-0.6,0-0.9-0.2-1.3s-0.6-0.7-1.1-0.9c-0.4-0.2-0.9-0.4-1.7-0.6c-0.7-0.2-1.3-0.2-1.7-0.4v-1.7h25
			v7.9h-1.7c-0.4-1.1-0.9-2.4-2-3.7s-2-2-2.9-2.2c-0.6,0-1.1-0.2-1.7-0.2c-0.7,0-1.5,0-2.2,0h-5.1v13h3.7c1.1,0,2-0.2,2.6-0.4
			c0.6-0.2,1.1-0.6,1.5-1.1c0.4-0.4,0.6-1.1,0.9-1.8c0.4-0.7,0.4-1.5,0.6-2h1.7V273h-1.7c0-0.7-0.2-1.5-0.6-2.4
			c-0.2-0.7-0.6-1.5-0.9-1.8c-0.6-0.6-0.9-0.9-1.7-1.1c-0.6-0.2-1.5-0.4-2.4-0.4h-3.7v9.7c0,0.9,0,1.8,0.2,2.4
			c0.2,0.6,0.4,0.9,0.7,1.3c0.4,0.4,0.9,0.6,1.7,0.6s1.7,0.2,2.9,0.2c0.6,0,1.1,0,2,0s1.5,0,2-0.2c0.6,0,1.1-0.2,1.8-0.4
			c0.7-0.2,1.1-0.4,1.3-0.7c0.7-0.7,1.5-1.8,2.2-3.3c0.7-1.5,1.3-2.6,1.5-3.3h1.5L716.6,273.9L716.6,273.9z"/>
		<path class="st0" d="M755.8,252.5c-0.4,0-1.1,0.2-2,0.4s-1.5,0.6-1.8,0.7c-0.6,0.4-0.9,1.1-1.1,2.2c-0.2,1.1-0.4,2.4-0.4,4.2v23.9
			h-2L729,257v16.9c0,1.8,0.2,3.3,0.4,4.4c0.2,1.1,0.6,1.7,1.1,2.2c0.4,0.4,1.1,0.7,2.2,0.9c1.1,0.4,1.8,0.4,2.2,0.6v1.7h-13.2V282
			c0.4,0,1.1-0.2,2-0.4c0.9-0.2,1.7-0.6,1.8-0.7c0.6-0.4,0.9-1.1,1.1-2s0.4-2.4,0.4-4.6v-16.2c0-0.7-0.2-1.5-0.4-2.2
			c-0.2-0.7-0.6-1.3-0.9-1.7c-0.6-0.6-1.3-0.9-2.2-1.3c-0.9-0.4-1.7-0.6-2.2-0.6v-1.7h9.2l18.2,25v-15.6c0-1.8-0.2-3.3-0.4-4.4
			c-0.2-1.1-0.6-1.7-1.1-2c-0.4-0.4-1.1-0.6-2-0.9s-1.7-0.4-2.2-0.6v-1.7h13.2v1.8L755.8,252.5L755.8,252.5z"/>
		<path class="st0" d="M787.4,254.7c1.5,1.5,2.6,3.3,3.3,5.5c0.7,2.2,1.3,4.4,1.3,7c0,2.6-0.4,5-1.3,7.2c-0.7,2.2-2,3.9-3.5,5.3
			c-1.5,1.5-3.1,2.6-5,3.5c-1.8,0.7-3.9,1.3-6.1,1.3c-2.2,0-4.4-0.4-6.2-1.3c-1.8-0.9-3.5-2-5-3.5c-1.3-1.5-2.4-3.3-3.3-5.5
			c-0.7-2.2-1.1-4.4-1.1-6.8c0-2.6,0.4-5,1.3-7.2s2-3.9,3.5-5.3c1.5-1.5,3.1-2.6,5-3.5s3.9-1.3,5.9-1.3c2.2,0,4.2,0.4,6.1,1.3
			C784.5,252.1,786.1,253.2,787.4,254.7z M784.1,277.8c0.9-1.5,1.5-2.9,1.8-4.8c0.4-1.8,0.6-3.7,0.6-5.9c0-2.2-0.2-4.2-0.7-6.2
			c-0.4-1.8-1.1-3.5-1.8-4.8c-0.9-1.3-1.8-2.4-3.1-3.1c-1.3-0.7-2.8-1.1-4.4-1.1c-1.8,0-3.3,0.4-4.6,1.3c-1.3,0.9-2.4,2-3.1,3.3
			c-0.7,1.3-1.3,2.9-1.7,4.8c-0.4,1.8-0.6,3.7-0.6,5.7c0,2.2,0.2,4.2,0.6,6.1c0.4,1.8,1.1,3.3,1.8,4.8c0.7,1.3,1.8,2.4,3.1,3.1
			c1.3,0.7,2.8,1.1,4.4,1.1c1.7,0,3.1-0.4,4.4-1.1C782.3,280.4,783.2,279.3,784.1,277.8z"/>
		<path class="st0" d="M837.9,283.5h-14.3v-1.7c0.6,0,1.1,0,2-0.2c0.9-0.2,1.3-0.2,1.7-0.4c0.6-0.4,0.7-0.6,1.1-0.9
			c0.2-0.4,0.4-0.9,0.4-1.5V255h-0.4l-11,27.9h-1.1l-10.5-28.5h-0.6v19.5c0,1.8,0.2,3.3,0.4,4.2c0.2,0.9,0.6,1.7,1.1,2.2
			c0.4,0.4,1.1,0.6,2,0.9c1.1,0.4,1.7,0.4,2,0.6v1.7h-13v-1.7c0.7,0,1.5-0.2,2.2-0.4c0.7-0.2,1.3-0.4,1.8-0.7c0.6-0.4,0.9-1.1,1.1-2
			s0.4-2.4,0.4-4.4v-16.7c0-0.9-0.2-1.8-0.4-2.4c-0.2-0.6-0.6-1.1-0.9-1.5c-0.6-0.4-1.1-0.7-1.7-0.9c-0.7-0.2-1.3-0.4-2-0.4v-1.7h11
			l9.2,24.6l7.9-20.6c0.4-0.7,0.6-1.5,0.7-2.4c0.2-0.7,0.4-1.3,0.4-1.7h10.5v1.7c-0.4,0-0.9,0-1.7,0.2s-1.1,0.2-1.5,0.4
			c-0.6,0.2-0.9,0.6-1.1,0.9s-0.2,0.9-0.2,1.5v23.5c0,0.6,0,0.9,0.2,1.3s0.6,0.7,1.1,0.9c0.2,0.2,0.7,0.4,1.5,0.4s1.3,0.2,1.7,0.2
			V283.5z"/>
		<path class="st0" d="M872.2,273.9l-0.6,9.5h-26.8v-1.7c0.4,0,1.1-0.2,1.8-0.2c0.7-0.2,1.3-0.2,1.5-0.4c0.6-0.2,0.7-0.6,1.1-0.9
			c0.2-0.4,0.4-0.9,0.4-1.5v-23.5c0-0.6,0-0.9-0.2-1.3s-0.6-0.7-1.1-0.9c-0.4-0.2-0.9-0.4-1.7-0.6c-0.7-0.2-1.3-0.2-1.7-0.4v-1.7h25
			v7.9h-1.7c-0.4-1.1-0.9-2.4-2-3.7s-2-2-2.9-2.2c-0.6,0-1.1-0.2-1.7-0.2c-0.7,0-1.5,0-2.2,0h-5.1v13h3.7c1.1,0,2-0.2,2.6-0.4
			c0.6-0.2,1.1-0.6,1.5-1.1c0.4-0.4,0.6-1.1,0.9-1.8c0.2-0.7,0.4-1.5,0.6-2h1.7V273h-1.7c0-0.7-0.2-1.5-0.6-2.4
			c-0.2-0.7-0.6-1.5-0.9-1.8c-0.6-0.6-0.9-0.9-1.7-1.1c-0.6-0.2-1.5-0.4-2.4-0.4h-3.7v9.7c0,0.9,0,1.8,0.2,2.4
			c0.2,0.6,0.4,0.9,0.7,1.3c0.4,0.4,0.9,0.6,1.7,0.6c0.7,0,1.7,0.2,2.9,0.2c0.6,0,1.1,0,2,0s1.5,0,2-0.2c0.6,0,1.1-0.2,1.8-0.4
			c0.6-0.2,1.1-0.4,1.3-0.7c0.7-0.7,1.5-1.8,2.2-3.3c0.7-1.5,1.3-2.6,1.5-3.3h1.5L872.2,273.9L872.2,273.9z"/>
		<path class="st0" d="M445.4,339.6h-14.5V338c0.4,0,0.9,0,1.8-0.2c0.7,0,1.3-0.2,1.7-0.4c0.6-0.2,0.9-0.6,1.1-0.7
			c0.2-0.4,0.4-0.7,0.4-1.5v-23.7c0-0.6,0-0.9-0.2-1.3c-0.2-0.4-0.6-0.7-1.1-0.9c-0.4-0.2-1.1-0.4-1.7-0.6c-0.7-0.2-1.3-0.2-1.7-0.4
			v-1.7h14.5v1.7c-0.6,0-1.1,0-1.7,0.2c-0.7,0.2-1.3,0.2-1.7,0.4c-0.6,0.2-0.9,0.6-1.1,0.9c-0.2,0.4-0.4,0.9-0.4,1.5v23.7
			c0,0.6,0.2,0.9,0.4,1.3c0.2,0.4,0.6,0.7,1.1,0.9c0.4,0.2,0.9,0.2,1.7,0.4c0.7,0.2,1.3,0.2,1.8,0.2v1.8L445.4,339.6L445.4,339.6z"
			/>
		<path class="st0" d="M485.6,308.4c-0.4,0-1.1,0.2-2,0.4c-0.9,0.2-1.5,0.6-1.8,0.7c-0.6,0.4-0.9,1.1-1.1,2.2
			c-0.2,1.1-0.4,2.4-0.4,4.2v23.9h-2L458.6,313v16.9c0,1.8,0.2,3.3,0.4,4.4c0.2,1.1,0.6,1.7,1.1,2.2c0.4,0.4,1.1,0.7,2.2,0.9
			c1.1,0.4,1.8,0.4,2.2,0.6v1.7h-13.2V338c0.4,0,1.1-0.2,2-0.4c0.9-0.2,1.7-0.6,1.8-0.7c0.6-0.4,0.9-1.1,1.1-2
			c0.2-0.9,0.4-2.4,0.4-4.6v-16.2c0-0.7-0.2-1.5-0.4-2.2c-0.2-0.7-0.6-1.3-0.9-1.7c-0.6-0.6-1.3-0.9-2.2-1.3s-1.7-0.6-2.2-0.6v-1.7
			h9.2l18.2,25v-15.6c0-1.8-0.2-3.3-0.4-4.4c-0.2-1.1-0.6-1.7-1.1-2c-0.4-0.4-1.1-0.6-2-0.9c-0.9-0.4-1.7-0.4-2.2-0.6v-1.7h13.2
			L485.6,308.4L485.6,308.4z"/>
		<path class="st0" d="M517.4,315.8h-1.7c-0.2-0.6-0.4-1.3-0.7-2c-0.4-0.7-0.7-1.5-1.3-2.2c-0.4-0.7-0.9-1.3-1.5-1.8
			c-0.6-0.6-1.1-0.9-1.7-0.9c-0.6,0-1.1-0.2-1.8-0.2s-1.5,0-2,0h-1.3v26.1c0,0.6,0.2,0.9,0.4,1.5c0.2,0.6,0.6,0.7,1.1,0.9
			c0.4,0.2,0.9,0.2,1.7,0.4c0.9,0.2,1.5,0.4,2,0.4v1.7h-15.2v-1.7c0.4,0,1.1-0.2,2-0.2s1.5-0.2,1.8-0.4c0.6-0.2,0.9-0.6,1.1-0.9
			c0.2-0.4,0.4-0.9,0.4-1.5v-26.4h-1.3c-0.6,0-1.1,0-1.8,0c-0.7,0-1.3,0-2,0.2c-0.6,0-1.1,0.4-1.7,0.9s-1.1,1.1-1.5,1.8
			c-0.4,0.7-0.9,1.5-1.3,2.2c-0.4,0.7-0.6,1.5-0.7,1.8h-1.7v-8.8H517v9.2H517.4z"/>
		<path class="st0" d="M549.9,329.9l-0.6,9.5h-26.8v-1.7c0.4,0,1.1-0.2,1.8-0.2c0.7-0.2,1.3-0.2,1.5-0.4c0.6-0.2,0.7-0.6,1.1-0.9
			s0.4-0.9,0.4-1.5v-23.5c0-0.6,0-0.9-0.2-1.3c-0.2-0.4-0.6-0.7-1.1-0.9c-0.4-0.2-0.9-0.4-1.7-0.6s-1.3-0.2-1.7-0.4v-1.7h25v7.9H546
			c-0.4-1.1-0.9-2.4-2-3.7s-2-2-2.9-2.2c-0.6,0-1.1-0.2-1.7-0.2c-0.7,0-1.5,0-2.2,0h-5.1v13h3.7c1.1,0,2-0.2,2.6-0.4
			c0.6-0.2,1.1-0.6,1.5-1.1c0.4-0.4,0.6-1.1,0.9-1.8c0.2-0.7,0.4-1.5,0.6-2h1.7V329h-2c0-0.7-0.2-1.5-0.6-2.4
			c-0.2-0.7-0.6-1.5-0.9-1.8c-0.6-0.6-0.9-0.9-1.7-1.1c-0.6-0.2-1.5-0.4-2.4-0.4h-3.7v9.7c0,0.9,0,1.8,0.2,2.4s0.4,0.9,0.7,1.3
			c0.4,0.4,0.9,0.6,1.7,0.6c0.7,0,1.7,0.2,2.9,0.2c0.6,0,1.1,0,2,0s1.5,0,2-0.2c0.6,0,1.1-0.2,1.8-0.4c0.6-0.2,1.1-0.4,1.3-0.7
			c0.7-0.7,1.5-1.8,2.2-3.3s1.3-2.6,1.5-3.3h1.8L549.9,329.9L549.9,329.9z"/>
		<path class="st0" d="M587.5,339.6h-8.6c-2-3.1-3.7-5.7-5.1-7.9s-3.3-4.6-5.1-7h-3.3v10.3c0,0.6,0,1.1,0.2,1.5
			c0.2,0.4,0.6,0.7,1.1,0.9c0.4,0.2,0.7,0.2,1.5,0.4c0.7,0.2,1.3,0.2,1.7,0.2v1.7h-13.8V338c0.4,0,0.9,0,1.7-0.2
			c0.7-0.2,1.1-0.2,1.5-0.4c0.4-0.2,0.7-0.6,0.9-0.9c0.2-0.4,0.4-0.9,0.4-1.5v-23.7c0-0.6,0-1.1-0.2-1.5c-0.2-0.4-0.6-0.7-1.1-0.9
			c-0.4-0.2-0.9-0.2-1.5-0.4c-0.6-0.2-1.1-0.2-1.5-0.2v-1.7H571c1.3,0,2.6,0.2,3.9,0.4c1.3,0.4,2.2,0.7,3.3,1.3
			c0.9,0.6,1.7,1.5,2.2,2.4c0.6,0.9,0.9,2.2,0.9,3.7c0,1.3-0.2,2.4-0.6,3.3c-0.4,0.9-0.9,1.8-1.7,2.6c-0.7,0.7-1.5,1.3-2.4,1.7
			c-0.9,0.6-2,0.9-3.1,1.3c1.7,2.2,2.9,3.9,4,5.3c1.1,1.5,2.4,3.3,3.9,5.3c0.7,0.9,1.3,1.7,1.8,2c0.6,0.4,1.1,0.7,1.7,1.1
			c0.4,0.2,0.9,0.4,1.5,0.6c0.6,0.2,1.1,0.2,1.5,0.2v1.8L587.5,339.6L587.5,339.6z M575.6,315.2c0-2-0.6-3.5-1.7-4.8
			c-1.1-1.1-2.8-1.7-4.8-1.7h-3.9v14h2.9c2,0,3.9-0.7,5.3-2C574.8,319.5,575.6,317.6,575.6,315.2z"/>
		<path class="st0" d="M616.3,314.9c0,1.7-0.4,3.3-0.9,4.6c-0.7,1.3-1.7,2.4-2.8,3.3c-1.1,0.9-2.4,1.5-3.9,1.8
			c-1.5,0.4-2.9,0.6-4.4,0.6h-3.7v9.9c0,0.6,0,1.1,0.2,1.5c0.2,0.4,0.6,0.7,1.1,0.9c0.2,0.2,0.7,0.2,1.5,0.4
			c0.7,0.2,1.3,0.2,1.8,0.2v1.7h-14V338c0.4,0,0.9,0,1.7-0.2c0.7-0.2,1.1-0.2,1.5-0.4c0.4-0.2,0.7-0.6,0.9-0.9
			c0.2-0.4,0.4-0.9,0.4-1.5v-23.7c0-0.6,0-1.1-0.2-1.5c-0.2-0.4-0.6-0.7-1.1-0.9c-0.6-0.2-1.1-0.4-1.7-0.4c-0.6,0-1.1-0.2-1.5-0.2
			v-1.7h14.9c2.9,0,5.5,0.7,7.3,2.2C615.4,310.5,616.3,312.5,616.3,314.9z M609.5,320.6c0.6-0.7,0.9-1.5,1.1-2.2
			c0.2-0.7,0.2-1.5,0.2-2.2c0-0.9-0.2-1.8-0.4-2.8c-0.2-0.9-0.6-1.7-1.1-2.4c-0.6-0.7-1.3-1.3-2-1.7c-0.9-0.4-2-0.6-3.3-0.6h-3.3
			v14.5h2.4c1.7,0,2.9-0.2,4-0.7C608.1,321.8,609,321.3,609.5,320.6z"/>
		<path class="st0" d="M654.5,339.6h-8.6c-2-3.1-3.7-5.7-5.1-7.9c-1.5-2.2-3.3-4.6-5.1-7h-3.3v10.3c0,0.6,0,1.1,0.2,1.5
			s0.6,0.7,1.1,0.9c0.2,0.2,0.7,0.2,1.5,0.4c0.7,0.2,1.3,0.2,1.7,0.2v1.7h-13.8V338c0.4,0,0.9,0,1.7-0.2c0.7-0.2,1.1-0.2,1.5-0.4
			c0.4-0.2,0.7-0.6,0.9-0.9s0.4-0.9,0.4-1.5v-23.7c0-0.6,0-1.1-0.2-1.5c-0.2-0.4-0.6-0.7-1.1-0.9c-0.4-0.2-0.9-0.2-1.5-0.4
			c-0.6-0.2-1.1-0.2-1.5-0.2v-1.7H638c1.3,0,2.6,0.2,3.9,0.4c1.3,0.4,2.2,0.7,3.3,1.3c0.9,0.6,1.7,1.5,2.2,2.4
			c0.6,0.9,0.9,2.2,0.9,3.7c0,1.3-0.2,2.4-0.6,3.3c-0.4,0.9-0.9,1.8-1.7,2.6c-0.7,0.7-1.5,1.3-2.4,1.7c-0.9,0.4-2,0.9-3.1,1.3
			c1.7,2.2,2.9,3.9,4,5.3c1.1,1.5,2.4,3.3,3.9,5.3c0.7,0.9,1.3,1.7,1.8,2s1.1,0.7,1.7,1.1c0.4,0.2,0.9,0.4,1.5,0.6
			c0.6,0.2,1.1,0.2,1.5,0.2v1.8L654.5,339.6L654.5,339.6z M642.4,315.2c0-2-0.6-3.5-1.7-4.8c-1.1-1.1-2.8-1.7-4.8-1.7h-3.9v14h2.9
			c2,0,3.9-0.7,5.3-2C641.7,319.5,642.4,317.6,642.4,315.2z"/>
		<path class="st0" d="M685.7,329.9l-0.6,9.5h-26.8v-1.7c0.4,0,1.1-0.2,1.8-0.2c0.7-0.2,1.3-0.2,1.5-0.4c0.6-0.2,0.7-0.6,1.1-0.9
			s0.4-0.9,0.4-1.5v-23.5c0-0.6,0-0.9-0.2-1.3s-0.6-0.7-1.1-0.9c-0.4-0.2-0.9-0.4-1.7-0.6s-1.3-0.2-1.7-0.4v-1.7h25v7.9h-1.7
			c-0.4-1.1-0.9-2.4-2-3.7s-2-2-2.9-2.2c-0.6,0-1.1-0.2-1.7-0.2c-0.7,0-1.5,0-2.2,0h-5.1v13h3.7c1.1,0,2-0.2,2.6-0.4
			c0.6-0.2,1.1-0.6,1.5-1.1c0.4-0.4,0.6-1.1,0.9-1.8c0.4-0.7,0.4-1.5,0.6-2h1.7V329h-2c0-0.7-0.2-1.5-0.6-2.4
			c-0.2-0.7-0.6-1.5-0.9-1.8c-0.6-0.6-0.9-0.9-1.7-1.1c-0.6-0.2-1.5-0.4-2.4-0.4h-3.7v9.7c0,0.9,0,1.8,0.2,2.4
			c0.2,0.6,0.4,0.9,0.7,1.3c0.4,0.4,0.9,0.6,1.7,0.6s1.7,0.2,2.9,0.2c0.6,0,1.1,0,2,0s1.5,0,2-0.2c0.6,0,1.1-0.2,1.8-0.4
			c0.7-0.2,1.1-0.4,1.3-0.7c0.7-0.7,1.5-1.8,2.2-3.3s1.3-2.6,1.5-3.3h1.8L685.7,329.9L685.7,329.9z"/>
		<path class="st0" d="M718.2,315.8h-1.7c-0.2-0.6-0.4-1.3-0.7-2c-0.4-0.7-0.7-1.5-1.3-2.2c-0.4-0.7-0.9-1.3-1.5-1.8
			c-0.6-0.6-1.1-0.9-1.7-0.9c-0.6,0-1.1-0.2-1.8-0.2s-1.5,0-2,0h-1.3v26.1c0,0.6,0.2,0.9,0.4,1.5c0.2,0.4,0.6,0.7,1.1,0.9
			c0.2,0.2,0.9,0.2,1.7,0.4c0.9,0.2,1.5,0.4,2,0.4v1.7h-15.2v-1.7c0.4,0,1.1-0.2,2-0.2c0.9,0,1.5-0.2,1.8-0.4
			c0.6-0.2,0.9-0.6,1.1-0.9s0.4-0.9,0.4-1.5v-26.4h-1.3c-0.6,0-1.1,0-1.8,0s-1.3,0-2,0.2c-0.6,0-1.1,0.4-1.7,0.9
			c-0.6,0.6-1.1,1.1-1.5,1.8c-0.4,0.7-0.9,1.5-1.3,2.2c-0.4,0.7-0.6,1.5-0.7,1.8h-1.7v-8.8h28.3v9.2H718.2z"/>
		<path class="st0" d="M750.7,329.9l-0.6,9.7h-26.8V338c0.4,0,1.1-0.2,1.8-0.2c0.7-0.2,1.3-0.2,1.5-0.4c0.6-0.2,0.7-0.6,1.1-0.9
			c0.2-0.4,0.4-0.9,0.4-1.5v-23.5c0-0.6,0-0.9-0.2-1.3s-0.6-0.7-1.1-0.9c-0.4-0.2-0.9-0.4-1.7-0.6c-0.7-0.2-1.3-0.2-1.7-0.4v-1.7
			h24.8v7.9h-1.8c-0.4-1.1-0.9-2.4-2-3.7s-2-2-2.9-2.2c-0.6,0-1.1-0.2-1.7-0.2c-0.7,0-1.5,0-2.2,0h-5.1v13h3.7c1.1,0,2-0.2,2.6-0.4
			c0.6-0.2,1.1-0.6,1.5-1.1c0.4-0.4,0.6-1.1,0.9-1.8c0.2-0.7,0.4-1.5,0.6-2h1.7v12.8h-1.7c0-0.7-0.2-1.5-0.6-2.4
			c-0.2-0.7-0.6-1.5-0.9-1.8c-0.6-0.6-0.9-0.9-1.7-1.1c-0.6-0.2-1.5-0.4-2.4-0.4h-3.7v9.7c0,0.9,0,1.8,0.2,2.4
			c0.2,0.6,0.4,0.9,0.7,1.3c0.4,0.4,0.9,0.6,1.7,0.6c0.7,0,1.7,0.2,2.9,0.2c0.6,0,1.1,0,2,0s1.5,0,2-0.2c0.6,0,1.1-0.2,1.8-0.4
			c0.6-0.2,1.1-0.4,1.3-0.7c0.7-0.7,1.5-1.8,2.2-3.3c0.7-1.5,1.3-2.6,1.5-3.3h1.8V329.9z"/>
		<path class="st0" d="M788.3,339.6h-8.6c-2-3.1-3.7-5.7-5.1-7.9c-1.5-2.2-3.3-4.6-5.1-7h-3.3v10.3c0,0.6,0,1.1,0.2,1.5
			c0.2,0.4,0.6,0.7,1.1,0.9c0.2,0.2,0.7,0.2,1.5,0.4c0.7,0.2,1.3,0.2,1.7,0.2v1.7h-13.8V338c0.4,0,0.9,0,1.7-0.2
			c0.7-0.2,1.1-0.2,1.5-0.4c0.4-0.2,0.7-0.6,0.9-0.9s0.4-0.9,0.4-1.5v-23.7c0-0.6,0-1.1-0.2-1.5c-0.2-0.4-0.6-0.7-1.1-0.9
			c-0.4-0.2-0.9-0.2-1.5-0.4c-0.6-0.2-1.1-0.2-1.5-0.2v-1.7h14.9c1.3,0,2.6,0.2,3.9,0.4c1.3,0.4,2.2,0.7,3.3,1.3
			c0.9,0.6,1.7,1.5,2.2,2.4c0.6,0.9,0.9,2.2,0.9,3.7c0,1.3-0.2,2.4-0.6,3.3c-0.4,0.9-0.9,1.8-1.7,2.6c-0.7,0.7-1.5,1.3-2.4,1.7
			c-0.9,0.4-2,0.9-3.1,1.3c1.7,2.2,2.9,3.9,4,5.3c1.1,1.5,2.4,3.3,3.9,5.3c0.7,0.9,1.3,1.7,1.8,2c0.6,0.4,1.1,0.7,1.7,1.1
			c0.4,0.2,0.9,0.4,1.5,0.6c0.6,0.2,1.1,0.2,1.5,0.2v1.8L788.3,339.6L788.3,339.6z M776.4,315.2c0-2-0.6-3.5-1.7-4.8
			c-1.1-1.1-2.8-1.7-4.8-1.7h-3.9v14h2.9c2,0,3.9-0.7,5.3-2C775.7,319.5,776.4,317.6,776.4,315.2z"/>
	</g>
	<circle class="st0" cx="358.4" cy="271" r="7.5"/>
	<circle class="st0" cx="378.8" cy="271.4" r="6.4"/>
	<circle class="st0" cx="394.6" cy="282" r="5.5"/>
	<circle class="st0" cx="365.8" cy="301.5" r="3.3"/>
	<circle class="st0" cx="356" cy="295.2" r="2.6"/>
	<circle class="st0" cx="165.5" cy="274.1" r="3.3"/>
	<circle class="st0" cx="192.3" cy="247.7" r="9.5"/>
	<circle class="st0" cx="211" cy="259.4" r="7.5"/>
	<circle class="st0" cx="191.6" cy="304.4" r="8.3"/>
	<circle class="st0" cx="174.7" cy="290.8" r="6.1"/>
	<circle class="st0" cx="209" cy="300.4" r="4.8"/>
	<circle class="st0" cx="284.8" cy="259.4" r="7.5"/>
	<circle class="st0" cx="243.5" cy="299.6" r="6.8"/>
	<circle class="st0" cx="301.7" cy="305.5" r="8.6"/>
	<circle class="st0" cx="265.3" cy="262.7" r="7.7"/>
	<circle class="st0" cx="317.7" cy="285.3" r="11"/>
	<circle class="st0" cx="231.9" cy="285.1" r="3.3"/>
	<circle class="st0" cx="250.1" cy="314.3" r="2.9"/>
	<circle class="st0" cx="334.9" cy="291" r="2.9"/>
	<circle class="st0" cx="261.7" cy="323.5" r="5.5"/>
	<circle class="st0" cx="303.3" cy="266" r="5.5"/>
	<circle class="st0" cx="282.1" cy="318.7" r="8.3"/>
	<circle class="st0" cx="247.5" cy="278" r="8.6"/>
	
		<linearGradient id="SVGID_1_" gradientUnits="userSpaceOnUse" x1="215.2338" y1="-189.3642" x2="350.4939" y2="-189.3642" gradientTransform="matrix(1 0 0 1 0 480)">
		<stop  offset="0" style="stop-color:#FFFFFF;stop-opacity:0"/>
		<stop  offset="1" style="stop-color:#FFFFFF"/>
	</linearGradient>
	<circle class="st1" cx="282.8" cy="290.6" r="63"/>
</g>
</svg>
