<?xml version="1.0" encoding="utf-8"?>
<!-- Generator: Adobe Illustrator 24.1.0, SVG Export Plug-In . SVG Version: 6.00 Build 0)  -->
<svg version="1.1" id="Capa_1" xmlns="http://www.w3.org/2000/svg" xmlns:xlink="http://www.w3.org/1999/xlink" x="0px" y="0px"
	 viewBox="0 0 1038.4 678.7" style="enable-background:new 0 0 1038.4 678.7;" xml:space="preserve">
<style type="text/css">
	.st0{fill:#767675;}
	.st1{fill:#DA2963;}
	.st2{fill:#F69B17;}
	.st3{fill:none;stroke:url(#SVGID_1_);stroke-width:5;stroke-miterlimit:10;}
	.st4{fill:#777876;}
</style>
<g>
	<g>
		<path class="st0" d="M479.1,395.8c-1.1,0-2.1-0.2-3-0.6s-1.8-1-2.6-1.8c-0.7-0.8-1.3-1.7-1.8-2.9c-0.4-1.1-0.7-2.4-0.7-3.8
			s0.2-2.7,0.6-3.9c0.4-1.2,1-2.2,1.8-3s1.6-1.5,2.7-1.9c1-0.5,2.1-0.7,3.3-0.7c0.9,0,1.7,0.1,2.4,0.3c0.7,0.2,1.4,0.5,2,0.9
			l0.5-0.9h1l0.1,6.4h-1c-0.1-0.6-0.3-1.3-0.6-2c-0.3-0.7-0.6-1.3-0.9-1.8c-0.4-0.6-0.9-1-1.4-1.3s-1.2-0.5-1.9-0.5
			c-0.8,0-1.5,0.2-2.2,0.5c-0.7,0.4-1.3,0.9-1.8,1.6s-0.9,1.5-1.1,2.6c-0.3,1-0.4,2.2-0.4,3.5c0,1.1,0.1,2.2,0.4,3.1
			c0.3,1,0.7,1.8,1.2,2.5s1.2,1.3,1.9,1.7c0.7,0.4,1.5,0.6,2.4,0.6c0.7,0,1.3-0.1,1.8-0.3s1.1-0.5,1.5-0.8c0.4-0.4,0.8-0.8,1.1-1.3
			c0.3-0.5,0.6-1,0.8-1.5l0.9,0.5c-0.7,1.8-1.7,3-2.8,3.8C482.1,395.5,480.7,395.8,479.1,395.8z"/>
		<path class="st0" d="M505.6,395.4h-7.3v-0.9c0.6,0,1.2-0.1,1.6-0.3c0.4-0.1,0.6-0.3,0.6-0.5c0-0.1,0-0.2,0-0.3
			c0-0.1,0-0.2-0.1-0.3l-1.5-4h-6.2c-0.2,0.6-0.4,1.1-0.6,1.5c-0.1,0.4-0.3,0.8-0.4,1.2c-0.1,0.4-0.2,0.7-0.2,0.9
			c0,0.2-0.1,0.4-0.1,0.6c0,0.3,0.3,0.6,0.8,0.8c0.5,0.2,1.1,0.3,1.8,0.3v0.9h-6.6v-0.9c0.2,0,0.5-0.1,0.8-0.1
			c0.3-0.1,0.6-0.2,0.8-0.3c0.3-0.2,0.6-0.5,0.8-0.7c0.2-0.2,0.4-0.6,0.5-1c0.9-2.2,1.9-4.7,2.9-7.5c1.1-2.8,2-5.3,2.9-7.4h1
			l5.9,15.4c0.1,0.3,0.3,0.6,0.4,0.8c0.2,0.2,0.4,0.4,0.7,0.6c0.2,0.1,0.4,0.2,0.7,0.3s0.6,0.1,0.8,0.1L505.6,395.4L505.6,395.4z
			 M498.6,388.1l-2.7-6.9l-2.6,6.9H498.6z"/>
		<path class="st0" d="M525.9,378.5c-0.2,0-0.6,0.1-1.1,0.2s-0.8,0.3-1,0.4c-0.3,0.2-0.5,0.6-0.6,1.2s-0.2,1.3-0.2,2.3v13h-1
			L511.3,381v9.2c0,1,0.1,1.8,0.2,2.4s0.3,0.9,0.6,1.2c0.2,0.2,0.6,0.4,1.2,0.5c0.6,0.2,1,0.2,1.2,0.3v0.9h-7.2v-0.9
			c0.2,0,0.6-0.1,1.1-0.2s0.9-0.3,1-0.4c0.3-0.2,0.5-0.6,0.6-1.1s0.2-1.3,0.2-2.5v-8.8c0-0.4-0.1-0.8-0.2-1.2
			c-0.1-0.4-0.3-0.7-0.5-0.9c-0.3-0.3-0.7-0.5-1.2-0.7s-0.9-0.3-1.2-0.3v-0.9h5l9.9,13.6v-8.5c0-1-0.1-1.8-0.2-2.4
			c-0.1-0.6-0.3-0.9-0.6-1.1c-0.2-0.2-0.6-0.3-1.1-0.5s-0.9-0.2-1.2-0.3v-0.9h7.2v1H525.9z"/>
		<path class="st0" d="M536.6,395.8c-1.1,0-2.1-0.2-3-0.6s-1.8-1-2.6-1.8c-0.7-0.8-1.3-1.7-1.8-2.9c-0.4-1.1-0.7-2.4-0.7-3.8
			s0.2-2.7,0.6-3.9c0.4-1.2,1-2.2,1.8-3s1.6-1.5,2.7-1.9c1-0.5,2.1-0.7,3.3-0.7c0.9,0,1.7,0.1,2.4,0.3c0.7,0.2,1.4,0.5,2,0.9
			l0.5-0.9h1l0.1,6.4h-1c-0.1-0.6-0.3-1.3-0.6-2s-0.6-1.3-0.9-1.8c-0.4-0.6-0.9-1-1.4-1.3s-1.2-0.5-1.9-0.5c-0.8,0-1.5,0.2-2.2,0.5
			c-0.7,0.4-1.3,0.9-1.8,1.6s-0.9,1.5-1.1,2.6c-0.3,1-0.4,2.2-0.4,3.5c0,1.1,0.1,2.2,0.4,3.1c0.3,1,0.7,1.8,1.2,2.5s1.2,1.3,1.9,1.7
			c0.7,0.4,1.5,0.6,2.4,0.6c0.7,0,1.3-0.1,1.8-0.3s1.1-0.5,1.5-0.8c0.4-0.4,0.8-0.8,1.1-1.3s0.6-1,0.8-1.5l0.9,0.5
			c-0.7,1.8-1.7,3-2.8,3.8C539.6,395.5,538.2,395.8,536.6,395.8z"/>
		<path class="st0" d="M561.5,390.2l-0.3,5.2h-14.6v-0.9c0.2,0,0.6-0.1,1-0.1c0.4-0.1,0.7-0.1,0.8-0.2c0.3-0.1,0.4-0.3,0.6-0.5
			s0.2-0.5,0.2-0.8v-12.8c0-0.3,0-0.5-0.1-0.7s-0.3-0.4-0.6-0.5c-0.2-0.1-0.5-0.2-0.9-0.3s-0.7-0.1-0.9-0.2v-0.9h13.6v4.3h-0.9
			c-0.2-0.6-0.5-1.3-1.1-2s-1.1-1.1-1.6-1.2c-0.3,0-0.6-0.1-0.9-0.1c-0.4,0-0.8,0-1.2,0h-2.8v7.1h2c0.6,0,1.1-0.1,1.4-0.2
			c0.3-0.1,0.6-0.3,0.8-0.6c0.2-0.2,0.3-0.6,0.5-1s0.2-0.8,0.3-1.1h0.9v7h-0.9c0-0.4-0.1-0.8-0.3-1.3c-0.1-0.4-0.3-0.8-0.5-1
			c-0.3-0.3-0.5-0.5-0.9-0.6c-0.3-0.1-0.8-0.2-1.3-0.2h-2v5.3c0,0.5,0,1,0.1,1.3s0.2,0.5,0.4,0.7s0.5,0.3,0.9,0.3s0.9,0.1,1.6,0.1
			c0.3,0,0.6,0,1.1,0s0.8,0,1.1-0.1c0.3,0,0.6-0.1,1-0.2s0.6-0.2,0.7-0.4c0.4-0.4,0.8-1,1.2-1.8s0.7-1.4,0.8-1.8h0.8V390.2z"/>
		<path class="st0" d="M582,395.4h-4.7c-1.1-1.7-2-3.1-2.8-4.3s-1.8-2.5-2.8-3.8h-1.8v5.6c0,0.3,0,0.6,0.1,0.8
			c0.1,0.2,0.3,0.4,0.6,0.5c0.1,0.1,0.4,0.1,0.8,0.2c0.4,0.1,0.7,0.1,0.9,0.1v0.9h-7.5v-0.9c0.2,0,0.5,0,0.9-0.1s0.6-0.1,0.8-0.2
			s0.4-0.3,0.5-0.5s0.2-0.5,0.2-0.8V380c0-0.3,0-0.6-0.1-0.8c-0.1-0.2-0.3-0.4-0.6-0.5c-0.2-0.1-0.5-0.1-0.8-0.2s-0.6-0.1-0.8-0.1
			v-0.9h8.1c0.7,0,1.4,0.1,2.1,0.2s1.2,0.4,1.8,0.7c0.5,0.3,0.9,0.8,1.2,1.3s0.5,1.2,0.5,2c0,0.7-0.1,1.3-0.3,1.8s-0.5,1-0.9,1.4
			s-0.8,0.7-1.3,0.9c-0.5,0.3-1.1,0.5-1.7,0.7c0.9,1.2,1.6,2.1,2.2,2.9c0.6,0.8,1.3,1.8,2.1,2.9c0.4,0.5,0.7,0.9,1,1.1
			s0.6,0.4,0.9,0.6c0.2,0.1,0.5,0.2,0.8,0.3c0.3,0.1,0.6,0.1,0.8,0.1v1H582z M575.5,382.1c0-1.1-0.3-1.9-0.9-2.6
			c-0.6-0.6-1.5-0.9-2.6-0.9h-2.1v7.6h1.6c1.1,0,2.1-0.4,2.9-1.1C575.1,384.4,575.5,383.4,575.5,382.1z"/>
		<path class="st0" d="M609,388.3c-0.2,0-0.5,0.1-0.8,0.1c-0.3,0.1-0.6,0.1-0.8,0.2s-0.4,0.3-0.5,0.5s-0.2,0.5-0.2,0.8v1.4
			c0,1,0,1.7,0,2c0,0.4,0,0.6,0,0.9c-1.1,0.5-2.2,0.9-3.3,1.2c-1.1,0.3-2.2,0.4-3.2,0.4c-1.1,0-2.2-0.2-3.3-0.6c-1-0.4-2-1-2.7-1.8
			c-0.8-0.8-1.4-1.8-1.9-2.9s-0.7-2.4-0.7-3.8s0.2-2.6,0.7-3.8c0.4-1.2,1.1-2.2,1.9-3c0.8-0.8,1.7-1.5,2.8-2s2.3-0.7,3.5-0.7
			c1,0,1.9,0.1,2.6,0.4c0.7,0.2,1.4,0.5,2,0.9l0.5-0.9h1l0.1,6.2h-1c-0.2-0.7-0.4-1.4-0.6-2c-0.3-0.7-0.6-1.3-1-1.8
			s-0.9-0.9-1.5-1.3c-0.6-0.3-1.3-0.5-2.1-0.5c-0.9,0-1.7,0.2-2.4,0.5s-1.3,0.9-1.8,1.6s-0.9,1.6-1.2,2.6s-0.4,2.2-0.4,3.5
			c0,1.1,0.1,2.2,0.4,3.2s0.7,1.9,1.2,2.6s1.2,1.3,1.9,1.8c0.8,0.4,1.6,0.6,2.6,0.6c0.7,0,1.4-0.1,2-0.3c0.6-0.2,1-0.5,1.3-0.7
			c0.1-0.4,0.1-0.9,0.1-1.3s0-0.8,0-1.1v-1c0-0.4,0-0.7-0.1-0.9c-0.1-0.3-0.3-0.5-0.6-0.6s-0.6-0.2-1.1-0.3
			c-0.5-0.1-0.8-0.1-1.1-0.1v-0.9h7.7L609,388.3L609,388.3z"/>
		<path class="st0" d="M626.7,390.2l-0.3,5.2h-14.6v-0.9c0.2,0,0.6-0.1,1-0.1c0.4-0.1,0.7-0.1,0.8-0.2c0.3-0.1,0.4-0.3,0.6-0.5
			c0.1-0.2,0.2-0.5,0.2-0.8v-12.8c0-0.3,0-0.5-0.1-0.7s-0.3-0.4-0.6-0.5c-0.2-0.1-0.5-0.2-0.9-0.3s-0.7-0.1-0.9-0.2v-0.9h13.6v4.3
			h-0.9c-0.2-0.6-0.5-1.3-1.1-2s-1.1-1.1-1.6-1.2c-0.3,0-0.6-0.1-0.9-0.1c-0.4,0-0.8,0-1.2,0H617v7.1h2c0.6,0,1.1-0.1,1.4-0.2
			c0.3-0.1,0.6-0.3,0.8-0.6c0.2-0.2,0.3-0.6,0.5-1s0.2-0.8,0.3-1.1h0.9v7H622c0-0.4-0.1-0.8-0.3-1.3c-0.1-0.4-0.3-0.8-0.5-1
			c-0.3-0.3-0.5-0.5-0.9-0.6c-0.3-0.1-0.8-0.2-1.3-0.2h-2v5.3c0,0.5,0,1,0.1,1.3s0.2,0.5,0.4,0.7s0.5,0.3,0.9,0.3s0.9,0.1,1.6,0.1
			c0.3,0,0.6,0,1.1,0s0.8,0,1.1-0.1c0.3,0,0.6-0.1,1-0.2s0.6-0.2,0.7-0.4c0.4-0.4,0.8-1,1.2-1.8s0.7-1.4,0.8-1.8h0.8V390.2z"/>
		<path class="st0" d="M648.1,378.5c-0.2,0-0.6,0.1-1.1,0.2s-0.8,0.3-1,0.4c-0.3,0.2-0.5,0.6-0.6,1.2s-0.2,1.3-0.2,2.3v13h-1.1
			L633.5,381v9.2c0,1,0.1,1.8,0.2,2.4s0.3,0.9,0.6,1.2c0.2,0.2,0.6,0.4,1.2,0.5c0.6,0.2,1,0.2,1.2,0.3v0.9h-7.2v-0.9
			c0.2,0,0.6-0.1,1.1-0.2s0.9-0.3,1-0.4c0.3-0.2,0.5-0.6,0.6-1.1s0.2-1.3,0.2-2.5v-8.8c0-0.4-0.1-0.8-0.2-1.2s-0.3-0.7-0.5-0.9
			c-0.3-0.3-0.7-0.5-1.2-0.7s-0.9-0.3-1.2-0.3v-0.9h5l9.9,13.6v-8.5c0-1-0.1-1.8-0.2-2.4c-0.1-0.6-0.3-0.9-0.6-1.1
			c-0.2-0.2-0.6-0.3-1.1-0.5s-0.9-0.2-1.2-0.3v-0.9h7.2v1H648.1z"/>
		<path class="st0" d="M665.3,379.7c0.8,0.8,1.4,1.8,1.8,3c0.4,1.2,0.7,2.4,0.7,3.8s-0.2,2.7-0.7,3.9c-0.4,1.2-1.1,2.1-1.9,2.9
			c-0.8,0.8-1.7,1.4-2.7,1.9c-1,0.4-2.1,0.7-3.3,0.7s-2.4-0.2-3.4-0.7s-1.9-1.1-2.7-1.9c-0.7-0.8-1.3-1.8-1.8-3
			c-0.4-1.2-0.6-2.4-0.6-3.7c0-1.4,0.2-2.7,0.7-3.9s1.1-2.1,1.9-2.9c0.8-0.8,1.7-1.4,2.7-1.9s2.1-0.7,3.2-0.7c1.2,0,2.3,0.2,3.3,0.7
			C663.7,378.3,664.6,378.9,665.3,379.7z M663.5,392.3c0.5-0.8,0.8-1.6,1-2.6s0.3-2,0.3-3.2s-0.1-2.3-0.4-3.4c-0.2-1-0.6-1.9-1-2.6
			c-0.5-0.7-1-1.3-1.7-1.7s-1.5-0.6-2.4-0.6c-1,0-1.8,0.2-2.5,0.7s-1.3,1.1-1.7,1.8c-0.4,0.7-0.7,1.6-0.9,2.6s-0.3,2-0.3,3.1
			c0,1.2,0.1,2.3,0.3,3.3s0.6,1.8,1,2.6c0.4,0.7,1,1.3,1.7,1.7s1.5,0.6,2.4,0.6s1.7-0.2,2.4-0.6C662.5,393.7,663,393.1,663.5,392.3z
			"/>
		<path class="st0" d="M692.8,395.4H685v-0.9c0.3,0,0.6,0,1.1-0.1s0.7-0.1,0.9-0.2c0.3-0.2,0.4-0.3,0.6-0.5c0.1-0.2,0.2-0.5,0.2-0.8
			v-13h-0.2l-6,15.2H681l-5.7-15.5H675v10.6c0,1,0.1,1.8,0.2,2.3c0.1,0.5,0.3,0.9,0.6,1.2c0.2,0.2,0.6,0.3,1.1,0.5
			c0.6,0.2,0.9,0.2,1.1,0.3v0.9h-7.1v-0.9c0.4,0,0.8-0.1,1.2-0.2s0.7-0.2,1-0.4c0.3-0.2,0.5-0.6,0.6-1.1s0.2-1.3,0.2-2.4v-9.1
			c0-0.5-0.1-1-0.2-1.3c-0.1-0.3-0.3-0.6-0.5-0.8c-0.3-0.2-0.6-0.4-0.9-0.5c-0.4-0.1-0.7-0.2-1.1-0.2v-0.9h6l5,13.4l4.3-11.2
			c0.2-0.4,0.3-0.8,0.4-1.3c0.1-0.4,0.2-0.7,0.2-0.9h5.7v0.9c-0.2,0-0.5,0-0.9,0.1s-0.6,0.1-0.8,0.2c-0.3,0.1-0.5,0.3-0.6,0.5
			s-0.1,0.5-0.1,0.8v12.8c0,0.3,0,0.5,0.1,0.7s0.3,0.4,0.6,0.5c0.1,0.1,0.4,0.2,0.8,0.2s0.7,0.1,0.9,0.1V395.4z"/>
		<path class="st0" d="M711.5,390.2l-0.3,5.2h-14.6v-0.9c0.2,0,0.6-0.1,1-0.1c0.4-0.1,0.7-0.1,0.8-0.2c0.3-0.1,0.4-0.3,0.6-0.5
			c0.1-0.2,0.2-0.5,0.2-0.8v-12.8c0-0.3,0-0.5-0.1-0.7s-0.3-0.4-0.6-0.5c-0.2-0.1-0.5-0.2-0.9-0.3s-0.7-0.1-0.9-0.2v-0.9h13.6v4.3
			h-0.9c-0.2-0.6-0.5-1.3-1.1-2s-1.1-1.1-1.6-1.2c-0.3,0-0.6-0.1-0.9-0.1c-0.4,0-0.8,0-1.2,0h-2.8v7.1h2c0.6,0,1.1-0.1,1.4-0.2
			c0.3-0.1,0.6-0.3,0.8-0.6c0.2-0.2,0.3-0.6,0.5-1c0.1-0.4,0.2-0.8,0.3-1.1h0.9v7h-0.9c0-0.4-0.1-0.8-0.3-1.3
			c-0.1-0.4-0.3-0.8-0.5-1c-0.3-0.3-0.5-0.5-0.9-0.6c-0.3-0.1-0.8-0.2-1.3-0.2h-2v5.3c0,0.5,0,1,0.1,1.3s0.2,0.5,0.4,0.7
			s0.5,0.3,0.9,0.3s0.9,0.1,1.6,0.1c0.3,0,0.6,0,1.1,0s0.8,0,1.1-0.1c0.3,0,0.6-0.1,1-0.2c0.3-0.1,0.6-0.2,0.7-0.4
			c0.4-0.4,0.8-1,1.2-1.8s0.7-1.4,0.8-1.8h0.8V390.2z"/>
		<path class="st0" d="M479,426h-7.9v-0.9c0.2,0,0.5,0,1-0.1c0.4,0,0.7-0.1,0.9-0.2c0.3-0.1,0.5-0.3,0.6-0.4
			c0.1-0.2,0.2-0.4,0.2-0.8v-12.9c0-0.3,0-0.5-0.1-0.7s-0.3-0.4-0.6-0.5c-0.2-0.1-0.6-0.2-0.9-0.3c-0.4-0.1-0.7-0.1-0.9-0.2v-0.9
			h7.9v0.9c-0.3,0-0.6,0-0.9,0.1c-0.4,0.1-0.7,0.1-0.9,0.2c-0.3,0.1-0.5,0.3-0.6,0.5s-0.2,0.5-0.2,0.8v12.9c0,0.3,0.1,0.5,0.2,0.7
			s0.3,0.4,0.6,0.5c0.2,0.1,0.5,0.1,0.9,0.2s0.7,0.1,1,0.1v1H479z"/>
		<path class="st0" d="M500.9,409c-0.2,0-0.6,0.1-1.1,0.2s-0.8,0.3-1,0.4c-0.3,0.2-0.5,0.6-0.6,1.2s-0.2,1.3-0.2,2.3v13h-1.1
			l-10.7-14.6v9.2c0,1,0.1,1.8,0.2,2.4s0.3,0.9,0.6,1.2c0.2,0.2,0.6,0.4,1.2,0.5c0.6,0.2,1,0.2,1.2,0.3v0.9h-7.2v-0.9
			c0.2,0,0.6-0.1,1.1-0.2s0.9-0.3,1-0.4c0.3-0.2,0.5-0.6,0.6-1.1s0.2-1.3,0.2-2.5v-8.8c0-0.4-0.1-0.8-0.2-1.2s-0.3-0.7-0.5-0.9
			c-0.3-0.3-0.7-0.5-1.2-0.7s-0.9-0.3-1.2-0.3v-0.9h5l9.9,13.6v-8.5c0-1-0.1-1.8-0.2-2.4s-0.3-0.9-0.6-1.1c-0.2-0.2-0.6-0.3-1.1-0.5
			s-0.9-0.2-1.2-0.3V408h7.2L500.9,409L500.9,409z"/>
		<path class="st0" d="M518.2,413h-0.9c-0.1-0.3-0.2-0.7-0.4-1.1s-0.4-0.8-0.7-1.2c-0.2-0.4-0.5-0.7-0.8-1s-0.6-0.5-0.9-0.5
			c-0.3,0-0.6-0.1-1-0.1s-0.8,0-1.1,0h-0.7v14.2c0,0.3,0.1,0.5,0.2,0.8s0.3,0.4,0.6,0.5c0.2,0.1,0.5,0.1,0.9,0.2
			c0.5,0.1,0.8,0.2,1.1,0.2v0.9h-8.3V425c0.2,0,0.6-0.1,1.1-0.1s0.8-0.1,1-0.2c0.3-0.1,0.5-0.3,0.6-0.5s0.2-0.5,0.2-0.8V409h-0.7
			c-0.3,0-0.6,0-1,0s-0.7,0-1.1,0.1c-0.3,0-0.6,0.2-0.9,0.5s-0.6,0.6-0.8,1c-0.2,0.4-0.5,0.8-0.7,1.2c-0.2,0.4-0.3,0.8-0.4,1h-0.9
			V408H518v5H518.2z"/>
		<path class="st0" d="M535.9,420.7l-0.3,5.2H521V425c0.2,0,0.6-0.1,1-0.1c0.4-0.1,0.7-0.1,0.8-0.2c0.3-0.1,0.4-0.3,0.6-0.5
			s0.2-0.5,0.2-0.8v-12.8c0-0.3,0-0.5-0.1-0.7s-0.3-0.4-0.6-0.5c-0.2-0.1-0.5-0.2-0.9-0.3s-0.7-0.1-0.9-0.2V408h13.6v4.3h-0.9
			c-0.2-0.6-0.5-1.3-1.1-2s-1.1-1.1-1.6-1.2c-0.3,0-0.6-0.1-0.9-0.1c-0.4,0-0.8,0-1.2,0h-2.8v7.1h2c0.6,0,1.1-0.1,1.4-0.2
			c0.3-0.1,0.6-0.3,0.8-0.6c0.2-0.2,0.3-0.6,0.5-1c0.1-0.4,0.2-0.8,0.3-1.1h0.9v7H531c0-0.4-0.1-0.8-0.3-1.3c-0.1-0.4-0.3-0.8-0.5-1
			c-0.3-0.3-0.5-0.5-0.9-0.6c-0.3-0.1-0.8-0.2-1.3-0.2h-2v5.3c0,0.5,0,1,0.1,1.3s0.2,0.5,0.4,0.7s0.5,0.3,0.9,0.3s0.9,0.1,1.6,0.1
			c0.3,0,0.6,0,1.1,0s0.8,0,1.1-0.1c0.3,0,0.6-0.1,1-0.2c0.3-0.1,0.6-0.2,0.7-0.4c0.4-0.4,0.8-1,1.2-1.8s0.7-1.4,0.8-1.8h1V420.7z"
			/>
		<path class="st0" d="M556.4,426h-4.7c-1.1-1.7-2-3.1-2.8-4.3s-1.8-2.5-2.8-3.8h-1.8v5.6c0,0.3,0,0.6,0.1,0.8
			c0.1,0.2,0.3,0.4,0.6,0.5c0.2,0.1,0.4,0.1,0.8,0.2s0.7,0.1,0.9,0.1v0.9h-7.5v-0.9c0.2,0,0.5,0,0.9-0.1s0.6-0.1,0.8-0.2
			s0.4-0.3,0.5-0.5s0.2-0.5,0.2-0.8v-12.9c0-0.3,0-0.6-0.1-0.8c-0.1-0.2-0.3-0.4-0.6-0.5c-0.2-0.1-0.5-0.1-0.8-0.2s-0.6-0.1-0.8-0.1
			v-0.9h8.1c0.7,0,1.4,0.1,2.1,0.2c0.7,0.2,1.2,0.4,1.8,0.7c0.5,0.3,0.9,0.8,1.2,1.3s0.5,1.2,0.5,2c0,0.7-0.1,1.3-0.3,1.8
			s-0.5,1-0.9,1.4s-0.8,0.7-1.3,0.9c-0.5,0.3-1.1,0.5-1.7,0.7c0.9,1.2,1.6,2.1,2.2,2.9c0.6,0.8,1.3,1.8,2.1,2.9
			c0.4,0.5,0.7,0.9,1,1.1s0.6,0.4,0.9,0.6c0.2,0.1,0.5,0.2,0.8,0.3c0.3,0.1,0.6,0.1,0.8,0.1v1H556.4z M549.9,412.7
			c0-1.1-0.3-1.9-0.9-2.6c-0.6-0.6-1.5-0.9-2.6-0.9h-2.1v7.6h1.6c1.1,0,2.1-0.4,2.9-1.1C549.5,415,549.9,414,549.9,412.7z"/>
		<path class="st0" d="M572.1,412.5c0,0.9-0.2,1.8-0.5,2.5c-0.4,0.7-0.9,1.3-1.5,1.8s-1.3,0.8-2.1,1s-1.6,0.3-2.4,0.3h-2v5.4
			c0,0.3,0,0.6,0.1,0.8s0.3,0.4,0.6,0.5c0.1,0.1,0.4,0.1,0.8,0.2c0.4,0.1,0.7,0.1,1,0.1v0.9h-7.6v-0.9c0.2,0,0.5,0,0.9-0.1
			s0.6-0.1,0.8-0.2s0.4-0.3,0.5-0.5s0.2-0.5,0.2-0.8v-12.9c0-0.3,0-0.6-0.1-0.8c-0.1-0.2-0.3-0.4-0.6-0.5s-0.6-0.2-0.9-0.2
			s-0.6-0.1-0.8-0.1v-0.9h8.1c1.6,0,3,0.4,4,1.2S572.1,411.2,572.1,412.5z M568.4,415.6c0.3-0.4,0.5-0.8,0.6-1.2
			c0.1-0.4,0.1-0.8,0.1-1.2c0-0.5-0.1-1-0.2-1.5c-0.1-0.5-0.3-0.9-0.6-1.3s-0.7-0.7-1.1-0.9c-0.5-0.2-1.1-0.3-1.8-0.3h-1.8v7.9h1.3
			c0.9,0,1.6-0.1,2.2-0.4C567.6,416.3,568.1,416,568.4,415.6z"/>
		<path class="st0" d="M592.9,426h-4.7c-1.1-1.7-2-3.1-2.8-4.3c-0.8-1.2-1.8-2.5-2.8-3.8h-1.8v5.6c0,0.3,0,0.6,0.1,0.8
			s0.3,0.4,0.6,0.5c0.1,0.1,0.4,0.1,0.8,0.2s0.7,0.1,0.9,0.1v0.9h-7.5v-0.9c0.2,0,0.5,0,0.9-0.1s0.6-0.1,0.8-0.2s0.4-0.3,0.5-0.5
			s0.2-0.5,0.2-0.8v-12.9c0-0.3,0-0.6-0.1-0.8c-0.1-0.2-0.3-0.4-0.6-0.5c-0.2-0.1-0.5-0.1-0.8-0.2s-0.6-0.1-0.8-0.1v-0.9h8.1
			c0.7,0,1.4,0.1,2.1,0.2c0.7,0.2,1.2,0.4,1.8,0.7c0.5,0.3,0.9,0.8,1.2,1.3s0.5,1.2,0.5,2c0,0.7-0.1,1.3-0.3,1.8s-0.5,1-0.9,1.4
			s-0.8,0.7-1.3,0.9s-1.1,0.5-1.7,0.7c0.9,1.2,1.6,2.1,2.2,2.9c0.6,0.8,1.3,1.8,2.1,2.9c0.4,0.5,0.7,0.9,1,1.1s0.6,0.4,0.9,0.6
			c0.2,0.1,0.5,0.2,0.8,0.3c0.3,0.1,0.6,0.1,0.8,0.1v1H592.9z M586.3,412.7c0-1.1-0.3-1.9-0.9-2.6c-0.6-0.6-1.5-0.9-2.6-0.9h-2.1
			v7.6h1.6c1.1,0,2.1-0.4,2.9-1.1C585.9,415,586.3,414,586.3,412.7z"/>
		<path class="st0" d="M609.9,420.7l-0.3,5.2H595V425c0.2,0,0.6-0.1,1-0.1c0.4-0.1,0.7-0.1,0.8-0.2c0.3-0.1,0.4-0.3,0.6-0.5
			s0.2-0.5,0.2-0.8v-12.8c0-0.3,0-0.5-0.1-0.7s-0.3-0.4-0.6-0.5c-0.2-0.1-0.5-0.2-0.9-0.3s-0.7-0.1-0.9-0.2V408h13.6v4.3h-0.9
			c-0.2-0.6-0.5-1.3-1.1-2s-1.1-1.1-1.6-1.2c-0.3,0-0.6-0.1-0.9-0.1c-0.4,0-0.8,0-1.2,0h-2.8v7.1h2c0.6,0,1.1-0.1,1.4-0.2
			c0.3-0.1,0.6-0.3,0.8-0.6c0.2-0.2,0.3-0.6,0.5-1s0.2-0.8,0.3-1.1h0.9v7H605c0-0.4-0.1-0.8-0.3-1.3c-0.1-0.4-0.3-0.8-0.5-1
			c-0.3-0.3-0.5-0.5-0.9-0.6c-0.3-0.1-0.8-0.2-1.3-0.2h-2v5.3c0,0.5,0,1,0.1,1.3s0.2,0.5,0.4,0.7s0.5,0.3,0.9,0.3s0.9,0.1,1.6,0.1
			c0.3,0,0.6,0,1.1,0s0.8,0,1.1-0.1c0.3,0,0.6-0.1,1-0.2s0.6-0.2,0.7-0.4c0.4-0.4,0.8-1,1.2-1.8s0.7-1.4,0.8-1.8h1V420.7z"/>
		<path class="st0" d="M627.6,413h-0.9c-0.1-0.3-0.2-0.7-0.4-1.1s-0.4-0.8-0.7-1.2c-0.2-0.4-0.5-0.7-0.8-1s-0.6-0.5-0.9-0.5
			c-0.3,0-0.6-0.1-1-0.1s-0.8,0-1.1,0h-0.7v14.2c0,0.3,0.1,0.5,0.2,0.8c0.1,0.2,0.3,0.4,0.6,0.5c0.1,0.1,0.5,0.1,0.9,0.2
			c0.5,0.1,0.8,0.2,1.1,0.2v0.9h-8.3V425c0.2,0,0.6-0.1,1.1-0.1s0.8-0.1,1-0.2c0.3-0.1,0.5-0.3,0.6-0.5s0.2-0.5,0.2-0.8V409h-0.7
			c-0.3,0-0.6,0-1,0s-0.7,0-1.1,0.1c-0.3,0-0.6,0.2-0.9,0.5c-0.3,0.3-0.6,0.6-0.8,1s-0.5,0.8-0.7,1.2c-0.2,0.4-0.3,0.8-0.4,1H612
			V408h15.4v5H627.6z"/>
		<path class="st0" d="M645.3,420.7L645,426h-14.6v-0.9c0.2,0,0.6-0.1,1-0.1c0.4-0.1,0.7-0.1,0.8-0.2c0.3-0.1,0.4-0.3,0.6-0.5
			c0.1-0.2,0.2-0.5,0.2-0.8v-12.8c0-0.3,0-0.5-0.1-0.7s-0.3-0.4-0.6-0.5c-0.2-0.1-0.5-0.2-0.9-0.3s-0.7-0.1-0.9-0.2v-0.9H644v4.3h-1
			c-0.2-0.6-0.5-1.3-1.1-2s-1.1-1.1-1.6-1.2c-0.3,0-0.6-0.1-0.9-0.1c-0.4,0-0.8,0-1.2,0h-2.8v7.1h2c0.6,0,1.1-0.1,1.4-0.2
			c0.3-0.1,0.6-0.3,0.8-0.6c0.2-0.2,0.3-0.6,0.5-1c0.1-0.4,0.2-0.8,0.3-1.1h0.9v7h-0.9c0-0.4-0.1-0.8-0.3-1.3
			c-0.1-0.4-0.3-0.8-0.5-1c-0.3-0.3-0.5-0.5-0.9-0.6c-0.3-0.1-0.8-0.2-1.3-0.2h-2v5.3c0,0.5,0,1,0.1,1.3s0.2,0.5,0.4,0.7
			s0.5,0.3,0.9,0.3s0.9,0.1,1.6,0.1c0.3,0,0.6,0,1.1,0s0.8,0,1.1-0.1c0.3,0,0.6-0.1,1-0.2c0.3-0.1,0.6-0.2,0.7-0.4
			c0.4-0.4,0.8-1,1.2-1.8s0.7-1.4,0.8-1.8h1V420.7z"/>
		<path class="st0" d="M665.8,426h-4.7c-1.1-1.7-2-3.1-2.8-4.3c-0.8-1.2-1.8-2.5-2.8-3.8h-1.8v5.6c0,0.3,0,0.6,0.1,0.8
			s0.3,0.4,0.6,0.5c0.1,0.1,0.4,0.1,0.8,0.2s0.7,0.1,0.9,0.1v0.9h-7.5v-0.9c0.2,0,0.5,0,0.9-0.1s0.6-0.1,0.8-0.2s0.4-0.3,0.5-0.5
			s0.2-0.5,0.2-0.8v-12.9c0-0.3,0-0.6-0.1-0.8c-0.1-0.2-0.3-0.4-0.6-0.5c-0.2-0.1-0.5-0.1-0.8-0.2s-0.6-0.1-0.8-0.1v-0.9h8.1
			c0.7,0,1.4,0.1,2.1,0.2c0.7,0.2,1.2,0.4,1.8,0.7c0.5,0.3,0.9,0.8,1.2,1.3s0.5,1.2,0.5,2c0,0.7-0.1,1.3-0.3,1.8s-0.5,1-0.9,1.4
			s-0.8,0.7-1.3,0.9s-1.1,0.5-1.7,0.7c0.9,1.2,1.6,2.1,2.2,2.9c0.6,0.8,1.3,1.8,2.1,2.9c0.4,0.5,0.7,0.9,1,1.1s0.6,0.4,0.9,0.6
			c0.2,0.1,0.5,0.2,0.8,0.3c0.3,0.1,0.6,0.1,0.8,0.1v1H665.8z M659.3,412.7c0-1.1-0.3-1.9-0.9-2.6c-0.6-0.6-1.5-0.9-2.6-0.9h-2.1
			v7.6h1.6c1.1,0,2.1-0.4,2.9-1.1C658.9,415,659.3,414,659.3,412.7z"/>
	</g>
	<circle class="st1" cx="431.6" cy="388.6" r="4.1"/>
	<circle class="st1" cx="442.7" cy="388.8" r="3.5"/>
	<circle class="st1" cx="451.3" cy="394.6" r="3"/>
	<circle class="st1" cx="435.6" cy="405.2" r="1.8"/>
	<circle class="st1" cx="430.3" cy="401.8" r="1.4"/>
	<circle class="st1" cx="326.5" cy="390.3" r="1.8"/>
	<circle class="st1" cx="341.1" cy="375.9" r="5.2"/>
	<circle class="st1" cx="351.3" cy="382.3" r="4.1"/>
	<circle class="st1" cx="340.7" cy="406.8" r="4.5"/>
	<circle class="st1" cx="331.5" cy="399.4" r="3.3"/>
	<circle class="st1" cx="350.2" cy="404.6" r="2.6"/>
	<circle class="st2" cx="391.5" cy="382.3" r="4.1"/>
	<circle class="st2" cx="369" cy="404.2" r="3.7"/>
	<circle class="st2" cx="400.7" cy="407.4" r="4.7"/>
	<circle class="st2" cx="380.9" cy="384.1" r="4.2"/>
	<circle class="st2" cx="409.4" cy="396.4" r="6"/>
	<circle class="st2" cx="362.7" cy="396.3" r="1.8"/>
	<circle class="st2" cx="372.6" cy="412.2" r="1.6"/>
	<circle class="st2" cx="418.8" cy="399.5" r="1.6"/>
	<circle class="st2" cx="378.9" cy="417.2" r="3"/>
	<circle class="st2" cx="401.6" cy="385.9" r="3"/>
	<circle class="st2" cx="390" cy="414.6" r="4.5"/>
	<circle class="st2" cx="371.2" cy="392.4" r="4.7"/>
	
		<linearGradient id="SVGID_1_" gradientUnits="userSpaceOnUse" x1="353.6" y1="280.7" x2="427.2835" y2="280.7" gradientTransform="matrix(1 0 0 -1 0 680)">
		<stop  offset="0" style="stop-color:#FFFFFF;stop-opacity:0"/>
		<stop  offset="1" style="stop-color:#F69B17"/>
	</linearGradient>
	<circle class="st3" cx="390.4" cy="399.3" r="34.3"/>
</g>
<g>
	<g id="YX734u.tif_2_">
		<g>
			<path d="M571.7,261.4c0.2-0.6,0.3-1.3,0.6-1.9c0.8-1.7,2.1-2.8,3.6-3.7c1.5-0.9,3.1-1.5,4.7-2c0.2,0,0.4-0.2,0.4-0.3
				c0.5-2,1.6-3.6,3.1-5c2.8-2.7,6.2-4.4,10.2-4.9c2.7-0.3,5.2,0.2,7.4,1.7c0.1,0.1,0.3,0.1,0.5,0.1c4.8-1.1,9.1,0.1,13.1,2.6
				c1.8,1.2,3.3,2.7,4.4,4.6c1.1,1.9,1.7,4,1.5,6.3c0,0.3,0.1,0.4,0.3,0.5c1.9,1,3.5,2.4,4.6,4.2c1.8,2.8,2.1,5.9,1.1,9.1
				c-0.1,0.3-0.2,0.5-0.3,0.8c0,0,0,0,0,0.1l0.1,0.1c2.5,0.7,4.1,2.4,5.1,4.6c1.6,3.4,1.7,7,0.3,10.5c-1.3,3.1-3.6,5.2-6.7,6.4
				c-0.5,0.2-1,0.4-1.5,0.5c-0.2,0.1-0.3,0.1-0.4,0.4c-0.2,4.8-5.1,9.6-10.3,10.4c-1.8,0.3-4.2-0.1-5.6-1c0.4-0.9,0.9-1.8,1.3-2.6
				c0.7,0.2,1.4,0.4,2.2,0.5c1.9,0.2,3.7-0.3,5.3-1.4c1.8-1.2,3.2-2.7,3.9-4.8c0.8-2.3-0.1-4.2-2.3-5.2c-0.4-0.2-0.9-0.4-1.4-0.6
				c0.3-1,0.6-1.9,0.9-2.9c1.2,0.4,2.3,0.8,3.3,1.6c0.9,0.6,1.6,1.4,2.1,2.4c0,0.1,0.3,0.2,0.4,0.1c3.6-1,6.3-3.7,6.8-7.6
				c0.3-2.5-0.1-4.8-1.6-6.8c-0.9-1.3-2.2-2.1-3.9-1.9c-1.1,0.2-2.1,0.8-2.9,1.5c-0.5,0.5-1,1-1.6,1.5c-0.7-0.6-1.5-1.3-2.3-2
				c1.4-1.6,2.9-2.9,4.9-3.6c0.3-0.1,0.5-0.3,0.7-0.6c1.3-2.8,1.5-5.5-0.3-8.1c-1.4-2.1-3.4-3.4-5.9-3.8c-1.3-0.2-2.7,0-3.8,1
				c-0.7-0.8-1.3-1.5-2-2.3c1.9-1.6,4-1.9,6.4-1.7c0.1-0.8-0.1-1.6-0.3-2.4c-0.6-2.1-2-3.7-3.7-5c-2.8-2-6-3-9.4-2.9
				c-1.7,0.1-3.2,0.5-4.5,1.7c-0.7,0.6-1.1,1.3-1.4,2.1c-0.1,0.1-0.1,0.3-0.2,0.5c-1-0.3-1.9-0.6-3-0.9c0.4-0.8,0.8-1.6,1.2-2.4
				c0.5-0.7,1.1-1.3,1.7-2c-0.7-0.3-1.5-0.5-2.3-0.5c-2.9-0.1-5.6,0.8-8,2.4c-1.6,1.1-2.9,2.3-3.8,4c-0.9,1.7-0.7,3.2,0.6,4.3
				c0.5,0.4,1.1,0.7,1.6,1c0.1,0.1,0.3,0.1,0.5,0.2c-0.4,0.9-0.7,1.9-1.1,2.8c-2.2-0.9-4-2.2-4.9-4.5c-0.1,0-0.2,0-0.3,0.1
				c-1.7,0.6-3.2,1.3-4.6,2.4c-1.4,1.2-1.9,2.7-1.1,4.2c0.3,0.6,0.8,1.2,1.3,1.7c1.8,1.8,4.1,2.7,6.6,3.2c1.4,0.3,2.8,0.4,4.2,0.5
				c0.2,0,0.3,0,0.5,0c0,1,0,2,0,3.1c-1.1-0.1-2.2-0.1-3.2-0.3c-1.7-0.2-3.4-0.6-4.9-1.2c-0.1-0.1-0.3-0.1-0.4,0
				c-1.3,0.9-2.6,1.8-3.4,3.2c-0.8,1.4-0.7,2.8,0.3,4c1.3,1.6,3.1,2.4,5.1,2.9c0.8,0.2,1.6,0.3,2.5-0.1c0.1,0.5,0.3,0.5,0.7,0.5
				c2,0,3.8-0.5,5.4-1.7c0,0,0.1-0.1,0.2-0.1c0.6,0.8,1.2,1.6,1.8,2.4c-0.7,0.4-1.4,0.9-2.1,1.2c-2.1,1-4.2,1.3-6.5,1.2
				c-0.1,0-0.2,0-0.3,0c-1.2,0.4-2.2,1-3,2c-0.8,1.2-0.8,2.4-0.2,3.7c0.9,1.8,2.3,3.1,4,4c2.2,1.1,4.5,1.5,6.8,0.7
				c0.7-0.2,1.3-0.6,1.9-0.9c0.5,0.8,1,1.7,1.5,2.6c-0.2,0.1-0.4,0.2-0.6,0.4c-0.3,0.2-0.5,0.4-0.8,0.6c-0.7,0.8-0.8,1.6-0.4,2.5
				c0.6,1.2,1.6,2,2.7,2.6c1.7,1,3.5,1.6,5.5,1.6c3.2,0.1,5.7-1.5,6.8-4.8c0.3-1,0.5-2,0.7-3c0.1-0.3-0.1-0.4-0.3-0.5
				c-1.8-1-3.7-2-5.4-3.2c-1.8-1.2-3.4-2.6-4.5-4.5c-0.9-1.5-1.3-3.2-1.4-5c-0.1-2.3,0.2-4.5,0.6-6.7c0-0.1,0-0.1,0.1-0.2
				c1,0.2,1.9,0.4,2.9,0.6c-0.5,3-1.1,6,0,9.1c1.9-2.5,4.4-4.5,6.6-6.7c-0.7-0.3-1.4-0.5-2.1-0.8c-2.4-1-4.2-2.8-5.9-4.7
				c-1.2-1.4-2.4-2.9-3.7-4.3c-0.9-1-1.8-1.8-3.1-2.2c-0.4-0.2-0.9-0.2-1.4-0.3c-0.1,0-0.3-0.1-0.3-0.2c0-0.9,0-1.8,0-2.8
				c2.4,0,4.3,1,6,2.5c0.4-0.9,0.7-1.8,1.1-2.6c0.8-1.5,2.1-2.6,3.4-3.6c0.7-0.5,1.4-1.1,2-1.6c0.9-0.8,1.7-1.6,2.5-2.5
				c0.7,0.5,1.6,1,2.4,1.6c-0.8,1.2-1.7,2.1-2.7,3c-1.3,1.1-2.7,2.2-4,3.4c-1.8,1.6-2,3.7-1.4,5.9c0,0.1,0.1,0.2,0.2,0.3
				c1.3,1.6,2.6,3.2,4.3,4.4c1.4,1,2.9,1.6,4.6,1.7c0.3,0,0.4-0.1,0.6-0.3c0.5-1.1,0.5-2.2-0.1-3.3c-0.7-1.3-1.8-2.2-2.9-3.1
				c-0.1-0.1-0.2-0.2-0.4-0.3c0.6-0.8,1.2-1.6,1.8-2.4c0.6,0.5,1.2,1,1.8,1.5c0.9,0.8,1.7,1.7,2.3,2.8c1.4,2.4,1.2,4.7-0.3,7
				c-1.1,1.8-2.6,3.1-4.1,4.6s-2.9,2.9-4.4,4.4c-0.4,0.4-0.7,0.9-1,1.3c1.8,1.7,4,2.9,6.2,4.1c-0.2-1.4-0.3-2.7-0.4-4
				c1-0.2,1.9-0.3,3-0.5c0.1,0.5,0.2,1,0.2,1.6c0.3,2.2,0.4,4.4,0.2,6.7c-0.3,2.9-1.1,5.6-3.1,7.9c-1.6,1.7-3.6,2.7-5.9,3
				c-0.1,0-0.3,0.1-0.4,0.1c-0.5,0-0.9,0-1.4,0c-0.4,0-0.7-0.1-1.1-0.1c-2.4-0.3-4.7-1.2-6.7-2.6c-1.4-1-2.6-2.3-3.2-4
				c-0.2-0.7-0.3-1.5-0.4-2.4c0,0-0.1,0-0.2,0c-2.2,0.1-4.4-0.4-6.4-1.4c-2.4-1.3-4.4-3-5.5-5.6c-1.1-2.5-0.9-4.8,0.9-7
				c0.2-0.3,0.5-0.5,0.8-0.8c-0.1-0.1-0.2-0.1-0.3-0.2c-1.5-0.7-2.9-1.5-4-2.7c-1.8-2-2.4-4.4-1.4-7c0.5-1.4,1.4-2.5,2.5-3.4
				c0.3-0.3,0.7-0.6,1-0.9c-0.2-0.1-0.4-0.3-0.5-0.4c-1.3-0.9-2.4-2-3.1-3.5c-0.3-0.7-0.5-1.5-0.8-2.3
				C571.7,262.3,571.7,261.8,571.7,261.4z"/>
		</g>
	</g>
	<g>
		<path d="M406.6,255.1h8.8c2.8,0,4.9,0.2,6.3,0.7c1.4,0.4,2.6,1.3,3.4,2.6c0.9,1.3,1.3,3.5,1.3,6.4c0,2-0.3,3.4-0.9,4.2
			s-1.8,1.4-3.7,1.8c2,0.5,3.4,1.2,4.1,2.3c0.7,1.1,1.1,2.7,1.1,4.9v3.2c0,2.3-0.3,4-0.8,5.1s-1.4,1.9-2.5,2.3s-3.5,0.6-7,0.6h-10.1
			L406.6,255.1L406.6,255.1z M415.4,260.9v7.6c0.4,0,0.7,0,0.9,0c0.9,0,1.4-0.2,1.6-0.6s0.4-1.7,0.4-3.7c0-1.1-0.1-1.8-0.3-2.2
			c-0.2-0.4-0.4-0.7-0.8-0.8C416.9,261,416.3,260.9,415.4,260.9z M415.4,273.8v9.5c1.2,0,2-0.2,2.4-0.6c0.3-0.4,0.5-1.2,0.5-2.6V277
			c0-1.5-0.2-2.3-0.5-2.7C417.5,274,416.7,273.8,415.4,273.8z"/>
		<path d="M450,271v6.8c0,2.5-0.1,4.4-0.4,5.5s-0.8,2.3-1.6,3.3s-1.9,1.8-3.2,2.3c-1.3,0.5-2.8,0.7-4.4,0.7c-1.9,0-3.4-0.2-4.7-0.6
			c-1.3-0.4-2.3-1-3-1.9c-0.7-0.8-1.2-1.8-1.5-3s-0.5-3-0.5-5.3v-7.2c0-2.6,0.3-4.6,0.8-6.1c0.6-1.5,1.6-2.6,3-3.5s3.3-1.3,5.5-1.3
			c1.9,0,3.5,0.3,4.9,0.9s2.4,1.3,3.1,2.2c0.7,0.9,1.2,1.9,1.5,2.8C449.9,267.6,450,269,450,271z M441.6,268.9
			c0-1.4-0.1-2.3-0.2-2.7c-0.2-0.4-0.5-0.6-1-0.6s-0.8,0.2-1,0.6s-0.2,1.3-0.2,2.7v12.6c0,1.3,0.1,2.2,0.2,2.6
			c0.2,0.4,0.5,0.6,1,0.6s0.8-0.2,1-0.5c0.2-0.4,0.2-1.2,0.2-2.4V268.9z"/>
		<path d="M472.9,271v6.8c0,2.5-0.1,4.4-0.4,5.5s-0.8,2.3-1.6,3.3s-1.9,1.8-3.2,2.3c-1.3,0.5-2.8,0.7-4.4,0.7
			c-1.9,0-3.4-0.2-4.7-0.6c-1.3-0.4-2.3-1-3-1.9c-0.7-0.8-1.2-1.8-1.5-3s-0.5-3-0.5-5.3v-7.2c0-2.6,0.3-4.6,0.8-6.1
			c0.6-1.5,1.6-2.6,3-3.5s3.3-1.3,5.5-1.3c1.9,0,3.5,0.3,4.9,0.9s2.4,1.3,3.1,2.2c0.7,0.9,1.2,1.9,1.5,2.8
			C472.8,267.6,472.9,269,472.9,271z M464.5,268.9c0-1.4-0.1-2.3-0.2-2.7c-0.2-0.4-0.5-0.6-1-0.6s-0.8,0.2-1,0.6s-0.2,1.3-0.2,2.7
			v12.6c0,1.3,0.1,2.2,0.2,2.6c0.2,0.4,0.5,0.6,1,0.6s0.8-0.2,1-0.5c0.2-0.4,0.2-1.2,0.2-2.4V268.9z"/>
		<path d="M493.9,270.1h-7.5v-1.5c0-1.3-0.1-2.1-0.2-2.5c-0.1-0.3-0.5-0.5-1.1-0.5c-0.5,0-0.8,0.2-1.1,0.5s-0.4,0.8-0.4,1.4
			c0,0.9,0.1,1.5,0.2,1.9s0.5,0.8,1.1,1.3s1.8,1.2,3.6,2.1c2.4,1.2,4,2.3,4.8,3.4s1.1,2.6,1.1,4.7c0,2.3-0.3,4-0.9,5.1
			c-0.6,1.2-1.6,2-2.9,2.7c-1.4,0.6-3,0.9-5,0.9c-2.1,0-4-0.3-5.5-1s-2.6-1.6-3.1-2.7c-0.6-1.2-0.9-2.9-0.9-5.2v-1.3h7.5v1.8
			c0,1.5,0.1,2.5,0.3,2.9c0.2,0.4,0.6,0.7,1.1,0.7c0.6,0,1-0.2,1.3-0.5s0.4-0.9,0.4-1.9c0-1.3-0.2-2.2-0.5-2.5s-2-1.3-4.9-3
			c-2.5-1.4-4-2.7-4.5-3.8c-0.5-1.1-0.8-2.5-0.8-4.1c0-2.2,0.3-3.9,0.9-4.9c0.6-1.1,1.6-1.9,3-2.5s3-0.9,4.9-0.9
			c1.8,0,3.4,0.2,4.7,0.7s2.3,1.1,3,1.9s1.1,1.5,1.3,2.1s0.2,1.7,0.2,3.1v1.6H493.9z"/>
		<path d="M506.8,257.5v4.4h2.3v4.4h-2.3v14.9c0,1.8,0.1,2.9,0.3,3.1c0.2,0.2,1,0.3,2.3,0.3v4.5H506c-1.9,0-3.3-0.1-4.1-0.2
			c-0.8-0.2-1.5-0.5-2.2-1.1c-0.6-0.6-1-1.2-1.2-2s-0.2-2.5-0.2-5.3v-14.2h-1.8v-4.4h1.8v-4.4L506.8,257.5L506.8,257.5z"/>
		<path d="M512.2,255.1h6.6c4.2,0,7.1,0.2,8.6,0.6c1.5,0.4,2.6,1,3.4,1.9c0.8,0.9,1.3,1.9,1.5,3s0.3,3.3,0.3,6.5V279
			c0,3.1-0.1,5.1-0.4,6.1c-0.3,1-0.8,1.8-1.5,2.4s-1.6,1-2.6,1.2s-2.6,0.3-4.7,0.3h-11.1L512.2,255.1L512.2,255.1z M521,260.9v22.4
			c1.3,0,2-0.3,2.3-0.8s0.4-1.9,0.4-4.2v-13.2c0-1.5,0-2.5-0.1-3c-0.1-0.4-0.3-0.8-0.7-1S522,260.9,521,260.9z"/>
		<path d="M564,255.1v34.1h-7.7v-23l-3.1,23h-5.4l-3.2-22.5v22.5h-7.7v-34.1h11.4c0.3,2,0.7,4.5,1,7.2l1.2,8.7l2-15.9L564,255.1
			L564,255.1z"/>
	</g>
</g>
<g>
	<g>
		<path class="st4" d="M480.9,159.9c0,0.6-0.2,0.9-0.5,0.9c-0.9,0-2-0.1-3.4-0.2c-1.6-0.1-2.9-0.2-4-0.2s-2.4,0.1-3.9,0.2
			c-1.4,0.1-2.5,0.2-3.4,0.2c-0.4,0-0.5-0.3-0.5-0.9c0-0.6,0.2-0.8,0.5-0.9c1.9-0.2,3.1-0.7,3.6-1.4s0.8-2.1,0.8-4.2v-12.2
			c0-1.8-0.2-2.9-0.7-3.5c-0.4-0.6-1.4-0.9-2.9-1.1c-0.4,0-0.5-0.3-0.5-0.9c0-0.5,0.2-0.8,0.5-0.8c2.3-0.6,4.2-1.2,5.6-1.9
			c1.5-0.7,2.4-1.2,2.7-1.7c0.2-0.3,0.5-0.4,0.7-0.4c0.6,0,0.9,0.2,0.9,0.5c-0.4,4.9-0.5,8.8-0.5,11.5v10.4c0,2.2,0.3,3.6,0.8,4.2
			s1.8,1.1,3.7,1.4C480.7,159.1,480.9,159.4,480.9,159.9z M476.3,119.9c0,0.9-0.3,1.7-1,2.4s-1.5,1-2.4,1s-1.7-0.3-2.4-1
			c-0.7-0.7-1-1.5-1-2.4c0-1,0.3-1.8,1-2.5s1.5-1,2.4-1s1.7,0.3,2.4,1S476.3,118.9,476.3,119.9z"/>
		<path class="st4" d="M507.5,160.1c0,0.4-0.1,0.7-0.4,0.7c-0.6,0-1.4,0-2.3-0.1c-1-0.1-1.9-0.1-2.7-0.1c-0.8,0-1.7,0-2.7,0.1
			c-0.9,0.1-1.7,0.1-2.3,0.1c-0.3,0-0.4-0.2-0.4-0.7c0-0.4,0.1-0.6,0.4-0.6c1.1-0.1,1.8-0.4,2.1-0.9s0.5-1.5,0.5-3.1v-8
			c0-1.8-0.3-3.1-1-3.9c-0.7-0.8-1.8-1.2-3.2-1.2c-0.9,0-1.7,0.2-2.4,0.5c-0.7,0.4-1.5,1-2.3,1.9v10.8c0,1.6,0.2,2.6,0.5,3.1
			s1.1,0.8,2.1,0.9c0.3,0,0.4,0.2,0.4,0.6c0,0.4-0.1,0.7-0.4,0.7c-0.6,0-1.4,0-2.4-0.1s-1.9-0.1-2.7-0.1c-0.8,0-1.6,0-2.7,0.1
			c-0.9,0.1-1.7,0.1-2.4,0.1c-0.3,0-0.4-0.2-0.4-0.7c0-0.4,0.1-0.6,0.4-0.6c1.4-0.2,2.2-0.5,2.6-1s0.6-1.5,0.6-3v-8.8
			c0-1.3-0.2-2.1-0.5-2.5s-1-0.7-2.2-0.8c-0.3,0-0.4-0.2-0.4-0.6c0-0.4,0.1-0.6,0.4-0.6c1.6-0.4,2.9-0.8,3.9-1.4
			c1-0.5,1.7-0.9,2-1.2c0.2-0.2,0.3-0.3,0.5-0.3c0.4,0,0.7,0.1,0.7,0.4l-0.2,3c2.3-2.1,4.4-3.2,6.3-3.2c2.1,0,3.8,0.6,5,1.9
			c1.2,1.2,1.8,2.9,1.8,5v9.1c0,1.6,0.2,2.6,0.6,3.1s1.3,0.8,2.6,1C507.4,159.4,507.5,159.7,507.5,160.1z"/>
		<path class="st4" d="M524.1,141.7c0,0.9-0.2,1.3-0.6,1.3l-7.1-0.2v11.5c0,3,1.1,4.5,3.2,4.5c1.3,0,2.5-0.3,3.6-0.9
			c0.1,0,0.2,0.1,0.3,0.3s0.2,0.3,0.2,0.5c0,0.4-0.6,0.9-1.8,1.6c-1.2,0.7-2.5,1-4,1c-1.8,0-3.2-0.6-4.3-1.7
			c-1.1-1.1-1.6-2.6-1.6-4.4V155l0.1-11.6c0-0.4-0.2-0.7-0.6-0.7h-1.8c-0.3,0-0.5-0.2-0.5-0.6c0-0.3,0.1-0.5,0.4-0.7
			c2.2-1.3,4.1-3.2,5.7-5.5c0.2-0.3,0.4-0.4,0.7-0.4c0.4,0,0.7,0.1,0.7,0.4l-0.2,4.6h7C523.9,140.4,524.1,140.8,524.1,141.7z"/>
		<path class="st4" d="M561.8,145.2c0,4.9-1.6,8.9-4.7,12.1c-3.2,3.2-7.2,4.7-12.2,4.7s-9.1-1.6-12.3-4.7c-3.2-3.2-4.7-7.2-4.7-12
			c0-4.9,1.6-9,4.8-12.3s7.3-4.9,12.2-4.9c5,0,9.1,1.6,12.2,4.9C560.2,136.1,561.8,140.2,561.8,145.2z M554.4,145.1
			c0-4.5-0.9-8.1-2.6-10.8c-1.7-2.7-4.1-4-7.1-4s-5.3,1.4-7,4c-1.7,2.7-2.6,6.3-2.6,10.7s0.8,8,2.6,10.6c1.7,2.6,4.1,3.9,7.1,3.9
			s5.4-1.3,7.1-3.9C553.6,153.2,554.4,149.6,554.4,145.1z"/>
		<path class="st4" d="M600.9,132.1c0,1.4-0.3,2.1-1,2.1L595,134c0.6,1.5,0.8,3,0.8,4.5c0,3.7-1.3,6.8-4,9.3s-6,3.7-9.9,3.7h-1.5
			c-2,0-3.6,0.3-4.8,0.8s-1.8,1.2-1.8,1.9c0,0.9,0.5,1.6,1.5,2.2c1,0.6,2.4,0.9,4.2,0.9l8.9,0.1c3.8,0.1,6.8,0.9,8.9,2.4
			c2.1,1.5,3.2,3.7,3.2,6.5c0,4.2-2.2,7.8-6.7,10.9c-4.5,3.1-9.8,4.7-15.9,4.7c-4,0-7.4-1-10.2-3s-4.1-4.4-4.1-7.2
			c0-1.9,0.9-3.8,2.6-5.6c1.7-1.8,3.8-3.1,6.2-4c-1.6-0.7-2.9-1.7-3.9-3.1c-1-1.3-1.5-2.7-1.5-4c0-0.9,0.9-1.9,2.8-3
			c1.9-1.1,3.8-1.8,5.8-2.1c-2.2-1.1-3.9-2.5-5.1-4.3c-1.2-1.8-1.8-3.8-1.8-6c0-3.6,1.4-6.7,4.1-9.3c2.7-2.7,5.9-4,9.7-4
			c2,0,3.9,0.3,5.9,1c1.9,0.7,3.5,1.6,4.8,2.8l6.9-0.2C600.6,130,600.9,130.7,600.9,132.1z M595.7,169.2c0-1.8-0.6-3-1.7-3.8
			c-1.2-0.8-3.1-1.2-5.8-1.2l-8.9-0.2c-1.8,0-3.3-0.3-4.7-0.8c-3.1,1.7-4.7,4-4.7,6.8c0,2.5,1.1,4.6,3.2,6.2
			c2.1,1.6,4.8,2.4,8.1,2.4c3.9,0,7.3-0.9,10.2-2.7C594.2,174,595.7,171.8,595.7,169.2z M588.7,138.4c0-3.3-0.5-5.7-1.5-7.3
			c-1-1.5-2.6-2.3-4.8-2.3c-4.2,0-6.3,3.6-6.3,10.8c0,3.3,0.5,5.6,1.5,7.1s2.6,2.2,4.9,2.2C586.6,149,588.7,145.5,588.7,138.4z"/>
		<path class="st4" d="M620.9,147.1c0,0.4-0.3,0.7-0.9,0.7h-13c-0.1,0.9-0.1,1.8-0.1,2.7c0,2.6,0.6,4.5,1.8,5.9s2.9,2.1,5.2,2.1
			c1.1,0,2.2-0.3,3.4-0.9c1.1-0.6,2.1-1.4,2.7-2.3h0.1c0.1,0,0.3,0.1,0.4,0.3c0.1,0.2,0.2,0.4,0.2,0.6c0,0.3-0.5,1-1.5,2.1
			s-2.1,1.9-3.3,2.4s-2.4,0.8-3.7,0.8c-2.8,0-5.2-1.1-7.2-3.2c-1.9-2.1-2.9-4.7-2.9-7.8s1-5.8,2.9-7.9c1.9-2.2,4.3-3.3,7.2-3.3
			c2.4,0,4.5,0.8,6.2,2.4S620.9,145.2,620.9,147.1z M616.6,145c0-1.2-0.4-2.2-1.2-3s-1.9-1.2-3.1-1.2c-1.2,0-2.3,0.5-3.2,1.5
			s-1.5,2.4-1.8,4.1l6.6-0.2c1,0,1.7-0.1,2.1-0.3C616.3,145.8,616.6,145.5,616.6,145z"/>
		<path class="st4" d="M648.3,160.1c0,0.4-0.1,0.7-0.4,0.7c-0.6,0-1.4,0-2.3-0.1c-1-0.1-1.9-0.1-2.7-0.1s-1.7,0-2.7,0.1
			c-0.9,0.1-1.7,0.1-2.3,0.1c-0.3,0-0.4-0.2-0.4-0.7c0-0.4,0.1-0.6,0.4-0.6c1.1-0.1,1.8-0.4,2.1-0.9s0.5-1.5,0.5-3.1v-8
			c0-1.8-0.3-3.1-1-3.9c-0.7-0.8-1.8-1.2-3.2-1.2c-0.9,0-1.7,0.2-2.4,0.5c-0.7,0.4-1.5,1-2.3,1.9v10.8c0,1.6,0.2,2.6,0.5,3.1
			s1.1,0.8,2.1,0.9c0.3,0,0.4,0.2,0.4,0.6c0,0.4-0.1,0.7-0.4,0.7c-0.6,0-1.4,0-2.4-0.1s-1.9-0.1-2.7-0.1s-1.6,0-2.7,0.1
			c-0.9,0.1-1.7,0.1-2.4,0.1c-0.3,0-0.4-0.2-0.4-0.7c0-0.4,0.1-0.6,0.4-0.6c1.4-0.2,2.2-0.5,2.6-1c0.4-0.5,0.6-1.5,0.6-3v-8.8
			c0-1.3-0.2-2.1-0.5-2.5s-1-0.7-2.2-0.8c-0.3,0-0.4-0.2-0.4-0.6c0-0.4,0.1-0.6,0.4-0.6c1.6-0.4,2.9-0.8,3.9-1.4
			c1-0.5,1.7-0.9,2-1.2c0.2-0.2,0.3-0.3,0.5-0.3c0.4,0,0.7,0.1,0.7,0.4l-0.2,3c2.3-2.1,4.4-3.2,6.3-3.2c2.1,0,3.8,0.6,5,1.9
			c1.2,1.2,1.8,2.9,1.8,5v9.1c0,1.6,0.2,2.6,0.6,3.1c0.4,0.5,1.3,0.8,2.6,1C648.2,159.4,648.3,159.7,648.3,160.1z"/>
	</g>
	<g>
		<path class="st2" d="M446.2,138.5c-4.5,4.3-9.6,6.3-15.4,6s-11-2.8-15.5-7.6c-4.6-4.8-6.8-10.1-6.8-15.9s2.3-10.8,6.8-15.1
			c4.5-4.3,9.8-6.4,15.7-6.2c5.9,0.2,11.2,2.7,15.7,7.4c4.6,4.8,6.8,10.1,6.6,16C453.1,129,450.8,134.1,446.2,138.5z M439.6,131.3
			c4.1-3.9,6.7-7.9,7.6-11.9s0-7.4-2.7-10.3c-2.7-2.8-6.1-3.9-10.2-3.2c-4.1,0.7-8.1,3-12.3,6.9c-4.1,3.9-6.6,7.8-7.4,11.7
			c-0.9,3.9,0.1,7.3,2.8,10.2c2.8,2.9,6.1,4,10,3.4C431.4,137.6,435.4,135.3,439.6,131.3z"/>
		<path class="st2" d="M427.8,91.3c0,1.2-0.4,2.3-1.3,3.2c-0.9,0.9-2,1.4-3.2,1.4c-1.3,0-2.3-0.5-3.2-1.4c-0.9-0.9-1.3-2-1.3-3.2
			c0-1.3,0.4-2.4,1.3-3.3s2-1.3,3.3-1.3s2.3,0.4,3.2,1.3C427.3,88.9,427.8,90,427.8,91.3z"/>
		<path class="st2" d="M421.2,195c-1.7-1.2-3.1-2.7-4.2-4.4c-2.6-4.1-3.2-8.6-1.8-13.4c1.4-4.8,4.4-8.6,9-11.5l1.8-1.1
			c2.4-1.5,4.1-3,5.1-4.5s1.3-2.7,0.8-3.5c-0.6-1-1.7-1.5-3.3-1.4c-1.6,0.1-3.4,0.8-5.6,2.1l-10.5,6.5c-4.6,2.8-8.6,4.1-12.2,4
			s-6.4-1.7-8.3-4.8c-3-4.7-2.9-10.4,0.2-17.2s8.3-12.6,15.5-17.2c4.8-3,9.5-4.5,14.1-4.3c4.7,0.1,8,1.8,10,4.9
			c1.3,2.1,1.6,4.8,0.8,8.2c-0.8,3.3-2.3,6.4-4.5,9.1c2.4-0.4,4.6-0.2,6.7,0.5s3.6,1.8,4.6,3.3c0.7,1,0.3,2.8-1.2,5.4
			c-1.5,2.6-3.3,4.8-5.4,6.7c3.4-0.4,6.4-0.1,9.1,1s4.9,2.9,6.4,5.3c2.5,4,3.1,8.4,1.8,13.4c-1.3,5-4.2,8.9-8.6,11.7
			c-2.3,1.5-4.9,2.6-7.7,3.2c-2.8,0.7-5.3,0.8-7.6,0.4L421.2,195z M395.6,156.2c1.3,2,2.8,3,4.8,2.9c1.9,0,4.5-1,7.8-3l10.6-6.4
			c2.1-1.3,4.1-2.2,6.1-2.6c2.5-4.3,2.7-7.9,0.7-11.1c-1.8-2.8-4.5-4.3-8.1-4.5s-7.4,1-11.2,3.4c-4.6,2.9-8,6.5-10.2,10.7
			C393.9,149.8,393.7,153.3,395.6,156.2z M425.5,185.4c2.3,3.7,4.6,6,6.9,7s4.7,0.6,7.3-1c5-3.2,4.9-8.8-0.2-16.8
			c-2.3-3.6-4.6-5.9-6.8-6.8c-2.2-0.9-4.6-0.5-7.3,1.2C420.5,172,420.5,177.5,425.5,185.4z"/>
	</g>
</g>
</svg>
