<?xml version="1.0" encoding="utf-8"?>
<!-- Generator: Adobe Illustrator 24.1.0, SVG Export Plug-In . SVG Version: 6.00 Build 0)  -->
<svg version="1.1" id="Capa_1" xmlns="http://www.w3.org/2000/svg" xmlns:xlink="http://www.w3.org/1999/xlink" x="0px" y="0px"
	 viewBox="0 0 1038.4 678.7" style="enable-background:new 0 0 1038.4 678.7;" xml:space="preserve">
<style type="text/css">
	.st0{fill:#FFFFFF;}
	.st1{opacity:0.5;}
	.st2{fill:#F4F9F9;stroke:#8FB5BC;stroke-miterlimit:10;}
	.st3{opacity:0.25;fill:#8FB5BC;enable-background:new    ;}
	.st4{opacity:0.1;fill:#8FB5BC;enable-background:new    ;}
	.st5{fill:#DFE8E8;}
	.st6{fill:#F4F9F9;}
	.st7{opacity:0.1;fill:#CAD8D8;enable-background:new    ;}
	.st8{fill:#7D46D3;}
	.st9{fill:#7F9337;}
	.st10{fill:#FFFFFF;stroke:#7D46D3;stroke-width:0.75;stroke-miterlimit:10;}
	.st11{fill:#FFFFFF;stroke:#7D46D3;stroke-width:0.75;stroke-miterlimit:9.9999;}
	.st12{fill:#FF2A2A;}
	.st13{fill:#FFFFFF;stroke:#7F9337;stroke-width:0.75;stroke-miterlimit:10;}
	.st14{fill:#FFFFFF;stroke:#7F9337;stroke-width:0.75;stroke-miterlimit:10.0002;}
	.st15{fill:#FFFFFF;stroke:#7F9337;stroke-width:0.75;stroke-miterlimit:10.0003;}
	.st16{enable-background:new    ;}
</style>
<g>
	<g>
		<g>
			<g id="Capa_1_2_">
				<g id="Capa_14_4_">
				</g>
				<g id="Capa_6_4_">
				</g>
				<g id="Capa_3_4_">
				</g>
			</g>
			<g id="Capa_1_1_">
				<g id="Capa_14_1_">
				</g>
				<g id="Capa_6_1_">
				</g>
				<g id="Capa_3_1_">
				</g>
			</g>
			<g>
				<path class="st0" d="M521.3,274.4c0-2.7,0.1-5.1-1.6-7.4c-7.9-9-21.5-10.2-32.8-10.6c-11.5,0.5-26.2,1.6-33.6,11.7
					c-1.3,2.3-0.9,4.9-0.9,7.4c0,3.7,0,7.4,0,11.1c-0.5,4.9,3.6,8.4,7.6,10.5c0.4,0.2,0.7,0.7,0.7,1.2c0,14.7,0,29.3,0,44
					c0,36.8,0,73.7,0,110.5c0.6,40.7,51.7,40.6,52.3,0c0-41,0-81.9,0-122.8c0-10.5,0-21.2,0-31.7c0-0.5,0.3-0.9,0.7-1.2
					c3-1.6,6.3-4.1,7.3-7.6C521.7,284.5,521.1,279.4,521.3,274.4z"/>
				<path class="st0" d="M600.3,274.1c0-2.7,0.1-5.1-1.6-7.4c-7.9-9-21.5-10.2-32.8-10.6c-11.5,0.5-26.1,1.5-33.6,11.7
					c-1.3,2.3-0.9,4.9-0.9,7.4c0,3.7,0,7.4,0,11.1c-0.5,4.9,3.6,8.4,7.6,10.5c0.4,0.2,0.7,0.7,0.7,1.2c0,14.7,0,29.3,0,44
					c0,36.8,0,73.7,0,110.5c0.6,40.7,51.7,40.6,52.3,0c0-41,0-81.9,0-122.8c0-10.5,0-21.2,0-31.7c0-0.5,0.3-0.9,0.7-1.2
					c3-1.6,6.3-4.1,7.3-7.6C600.7,284.2,600.1,279.1,600.3,274.1z"/>
			</g>
		</g>
		<g id="Capa_1_4_">
			<g id="Capa_9_3_">
				<g>
					<g class="st1">
						<g>
							<path class="st2" d="M486.9,256.4c11.3,0.4,24.9,1.6,32.8,10.6c1.7,2.3,1.6,4.7,1.6,7.4c-0.2,5,0.4,10.1-0.3,15.1
								c-1,3.5-4.3,6-7.3,7.6c-0.4,0.3-0.7,0.7-0.7,1.2c0,10.5,0,21.2,0,31.7c0,40.9,0,81.8,0,122.8c-0.6,40.6-51.7,40.7-52.3,0
								c0-36.8,0-73.7,0-110.5c0-14.7,0-29.3,0-44c0-0.5-0.3-1-0.7-1.2c-4-2.1-8.1-5.6-7.6-10.5c0-3.7,0-7.4,0-11.1
								c0-2.5-0.4-5.1,0.9-7.4C460.7,258,475.4,256.9,486.9,256.4"/>
						</g>
						<path class="st3" d="M511.8,271.6c0.4,11.6-49.8,11.6-49.4,0C462,260,512.2,260,511.8,271.6z"/>
					</g>
					<g>
						<path class="st4" d="M464.9,369.7v0.2C464.9,369.8,464.9,369.7,464.9,369.7L464.9,369.7z"/>
						<path class="st5" d="M464.9,369.9v85.7c0,12.4,10,22.4,22.4,22.4c12.2,0,22.1-9.9,22-22.2v-85
							C507,379.1,464.4,378.8,464.9,369.9z"/>
					</g>
					<path class="st6" d="M509.4,369.9c0.4,9.2-45,9.2-44.5,0C464.3,360.7,509.8,360.7,509.4,369.9z"/>
				</g>
			</g>
			<g id="Capa_14_3_">
			</g>
			<g id="Capa_6_3_">
			</g>
			<g id="Capa_3_3_">
			</g>
		</g>
		<g id="Capa_1_3_">
			<g id="Capa_9_2_">
				<g>
					<g class="st1">
						<g>
							<path class="st2" d="M565.9,256.1c11.3,0.4,24.9,1.6,32.8,10.6c1.7,2.3,1.6,4.7,1.6,7.4c-0.2,5,0.4,10.1-0.3,15.1
								c-1,3.5-4.3,6-7.3,7.6c-0.4,0.3-0.7,0.7-0.7,1.2c0,10.5,0,21.2,0,31.7c0,40.9,0,81.8,0,122.8c-0.6,40.6-51.7,40.7-52.3,0
								c0-36.8,0-73.7,0-110.5c0-14.7,0-29.3,0-44c0-0.5-0.3-1-0.7-1.2c-4-2.1-8.1-5.6-7.6-10.5c0-3.7,0-7.4,0-11.1
								c0-2.5-0.4-5.1,0.9-7.4C539.8,257.6,554.4,256.6,565.9,256.1"/>
						</g>
						<path class="st3" d="M590.9,271.3c0.4,11.6-49.8,11.6-49.4,0C541,259.7,591.2,259.7,590.9,271.3z"/>
					</g>
					<g>
						<path class="st7" d="M543.9,369.4v0.2C543.9,369.5,543.9,369.4,543.9,369.4L543.9,369.4z"/>
						<path class="st5" d="M543.9,369.6v85.7c0,12.4,10,22.4,22.4,22.4c12.2,0,22.1-9.9,22-22.2v-85
							C586,378.8,543.4,378.5,543.9,369.6z"/>
					</g>
					<path class="st6" d="M588.4,369.6c0.4,9.2-45,9.2-44.5,0C543.4,360.4,588.9,360.4,588.4,369.6z"/>
				</g>
			</g>
			<g id="Capa_14_2_">
			</g>
			<g id="Capa_6_2_">
			</g>
			<g id="Capa_3_2_">
			</g>
		</g>
		<path class="st8" d="M474.3,309.1v27c9.2,4.1,28.9,4.2,38.7,0.4v-27C503.2,313.3,483.5,313.2,474.3,309.1z"/>
		<path class="st9" d="M592.5,309c-9.7,4-30,4-39.2-0.3v27c9.2,4.2,29.5,4.3,39.2,0.3V309z"/>
		<path class="st8" d="M426.3,275.8v70.4c0,3.6,1.5,6.9,4,8.9l8.1,6.5c5.4,4.3,5.4,5.5,0,9.9l-8.1,6.5c-2.5,2-4,5.4-4,8.9v81
			c0,6-1.2,7.9-6.5,7.9H224.5c-5.2,0-6.5-1.9-6.5-7.9V275.8c0-6,1.2-7.9,6.5-7.9h195.3C425.1,267.9,426.3,269.8,426.3,275.8z"/>
		<g>
			<circle class="st10" cx="386.7" cy="340" r="12.9"/>
			<ellipse class="st11" cx="322.9" cy="296.6" rx="12.9" ry="12.9"/>
			<circle class="st10" cx="293.4" cy="377.8" r="12.9"/>
			<circle class="st10" cx="342.3" cy="303.4" r="12.9"/>
			<circle class="st10" cx="270.5" cy="386.2" r="12.9"/>
			<circle class="st10" cx="359.7" cy="317.9" r="12.9"/>
			<circle class="st10" cx="316.5" cy="351.4" r="12.9"/>
			<circle class="st10" cx="368.9" cy="356.7" r="12.9"/>
			<circle class="st10" cx="341.7" cy="324.2" r="12.9"/>
			<circle class="st10" cx="338.1" cy="342.3" r="12.9"/>
			<circle class="st10" cx="317.6" cy="375.1" r="12.9"/>
			<circle class="st10" cx="349.6" cy="364.3" r="12.9"/>
			<ellipse class="st12" cx="329.6" cy="362.9" rx="12.9" ry="12.9"/>
			<circle class="st10" cx="390" cy="359.2" r="12.9"/>
		</g>
		<path class="st9" d="M628.5,273.7v70.4c0,3.6-1.5,6.9-4,8.9l-8.1,6.5c-5.4,4.3-5.4,5.5,0,9.9l8.1,6.5c2.5,2,4,5.4,4,8.9v81
			c0,6,1.2,7.9,6.5,7.9h195.3c5.2,0,6.5-1.9,6.5-7.9V273.7c0-6-1.2-7.9-6.5-7.9H635C629.8,265.8,628.5,267.7,628.5,273.7z"/>
		<g>
			<circle class="st13" cx="781" cy="337.9" r="12.9"/>
			
				<ellipse transform="matrix(0.3162 -0.9487 0.9487 0.3162 211.0286 881.7006)" class="st14" cx="717.1" cy="294.5" rx="12.9" ry="12.9"/>
			<circle class="st13" cx="687.7" cy="375.7" r="12.9"/>
			
				<ellipse transform="matrix(0.3162 -0.9487 0.9487 0.3162 217.9382 904.6862)" class="st12" cx="736.5" cy="301.2" rx="12.9" ry="12.9"/>
			<circle class="st13" cx="664.8" cy="384.1" r="12.9"/>
			<circle class="st13" cx="754" cy="315.8" r="12.9"/>
			<circle class="st13" cx="710.8" cy="349.3" r="12.9"/>
			<circle class="st13" cx="763.2" cy="354.6" r="12.9"/>
			
				<ellipse transform="matrix(0.3162 -0.9487 0.9487 0.3162 197.7008 918.4084)" class="st15" cx="735.9" cy="322.1" rx="12.9" ry="12.9"/>
			
				<ellipse transform="matrix(0.3162 -0.9487 0.9487 0.3162 178.0681 927.37)" class="st15" cx="732.3" cy="340.2" rx="12.9" ry="12.9"/>
			<circle class="st13" cx="711.9" cy="373" r="12.9"/>
			<circle class="st13" cx="743.9" cy="362.2" r="12.9"/>
			
				<ellipse transform="matrix(0.3162 -0.9487 0.9487 0.3162 152.7134 933.3928)" class="st15" cx="723.8" cy="360.8" rx="12.9" ry="12.9"/>
			<circle class="st13" cx="784.3" cy="357" r="12.9"/>
		</g>
		<g class="st16">
			<path class="st0" d="M672.1,427.6h-4l-0.3-6.8c-0.1-1.6-0.1-3.1-0.1-4.3c0-1,0-1.9,0.1-2.8l-2.7,12h-3.9l-2.9-12
				c0.1,1.4,0.2,2.8,0.2,4.1c0,1,0,2-0.1,3l-0.3,6.7h-4l1.3-17.3h5.2l2.6,11.8l2.4-11.8h5.2L672.1,427.6z"/>
			<path class="st0" d="M685.6,427.6h-3.4L682,426c-1,1.4-2.3,2.1-4,2.1c-1.2,0-2.1-0.4-2.8-1.1s-0.9-1.8-0.9-3.1v-9.5h4v9
				c0,0.7,0.1,1.1,0.3,1.4c0.2,0.3,0.5,0.4,1,0.4c0.8,0,1.5-0.5,2.1-1.5v-9.2h4L685.6,427.6L685.6,427.6z"/>
			<path class="st0" d="M697.1,427c-0.5,0.3-1,0.6-1.7,0.8c-0.6,0.2-1.3,0.3-1.9,0.3c-2.9,0-4.3-1.6-4.3-4.8v-6.2h-1.9v-2.8h1.9
				v-2.9l3.9-0.4v3.3h3.1l-0.4,2.8h-2.6v6.1c0,0.6,0.1,1.1,0.3,1.3c0.2,0.3,0.5,0.4,0.9,0.4c0.5,0,0.9-0.1,1.4-0.4L697.1,427z"/>
			<path class="st0" d="M708.8,424.9c0.1,0.2,0.4,0.4,0.7,0.5l-0.8,2.6c-0.8-0.1-1.5-0.2-2-0.5s-0.9-0.8-1.2-1.4c-0.9,1.3-2.2,2-4,2
				c-1.3,0-2.4-0.4-3.1-1.1c-0.8-0.8-1.2-1.8-1.2-3c0-1.5,0.5-2.6,1.6-3.3s2.6-1.2,4.6-1.2h1.4v-0.6c0-0.8-0.2-1.3-0.5-1.6
				s-0.9-0.4-1.8-0.4c-0.4,0-1,0.1-1.6,0.2s-1.2,0.3-1.9,0.5l-0.9-2.6c0.8-0.3,1.7-0.6,2.6-0.7c0.9-0.2,1.7-0.2,2.4-0.2
				c1.9,0,3.3,0.4,4.2,1.2s1.3,2,1.3,3.5v5.2C708.6,424.3,708.7,424.7,708.8,424.9z M704.8,424v-2.4h-1c-0.9,0-1.6,0.2-2,0.5
				s-0.7,0.8-0.7,1.5c0,0.5,0.1,0.9,0.4,1.2c0.3,0.3,0.7,0.4,1.1,0.4C703.6,425.2,704.3,424.8,704.8,424z"/>
			<path class="st0" d="M720,414.3c0.7,0.3,1.4,0.7,2.1,1.2l-1.7,2.4c-0.8-0.6-1.7-1-2.5-1c-0.9,0-1.5,0.3-2,1s-0.7,1.7-0.7,3.2
				c0,1.4,0.2,2.4,0.7,3s1.1,0.9,2,0.9c0.4,0,0.9-0.1,1.2-0.2s0.8-0.4,1.3-0.7l1.7,2.4c-1.3,1.1-2.8,1.6-4.5,1.6
				c-1.4,0-2.5-0.3-3.5-0.9s-1.7-1.4-2.3-2.4c-0.5-1-0.8-2.3-0.8-3.7s0.3-2.6,0.8-3.7c0.5-1.1,1.3-1.9,2.3-2.5s2.1-0.9,3.4-0.9
				C718.5,413.9,719.3,414.1,720,414.3z"/>
			<path class="st0" d="M727.4,408c0.4,0.4,0.7,1,0.7,1.6c0,0.7-0.2,1.2-0.7,1.6c-0.4,0.4-1,0.6-1.7,0.6s-1.2-0.2-1.7-0.6
				c-0.4-0.4-0.7-1-0.7-1.6s0.2-1.2,0.7-1.6s1-0.6,1.7-0.6S727,407.6,727.4,408z M727.7,414.4v13.3h-4v-13.3H727.7z"/>
			<path class="st0" d="M741.3,415.8c1.1,1.2,1.7,3,1.7,5.2c0,1.4-0.3,2.7-0.8,3.7c-0.5,1.1-1.3,1.9-2.2,2.5c-1,0.6-2.1,0.9-3.5,0.9
				c-2,0-3.6-0.6-4.8-1.9c-1.2-1.2-1.7-3-1.7-5.2c0-1.4,0.3-2.7,0.8-3.7s1.3-1.9,2.2-2.5c1-0.6,2.1-0.9,3.5-0.9
				C738.6,413.9,740.2,414.6,741.3,415.8z M734.8,417.9c-0.4,0.7-0.6,1.7-0.6,3.1c0,1.5,0.2,2.5,0.6,3.2c0.4,0.7,1,1,1.8,1
				s1.4-0.3,1.8-1s0.6-1.7,0.6-3.1c0-1.5-0.2-2.5-0.6-3.2c-0.4-0.7-1-1-1.8-1C735.8,416.8,735.2,417.2,734.8,417.9z"/>
			<path class="st0" d="M755.9,415c0.6,0.7,1,1.7,1,3v9.7h-4v-9c0-0.7-0.1-1.1-0.3-1.4c-0.2-0.3-0.5-0.4-0.9-0.4
				c-0.8,0-1.6,0.6-2.3,1.7v9.1h-4v-13.3h3.5l0.3,1.6c0.6-0.7,1.2-1.2,1.8-1.5c0.7-0.3,1.4-0.5,2.2-0.5
				C754.3,413.9,755.2,414.3,755.9,415z"/>
			<path class="st0" d="M767.2,414.4c0.8,0.3,1.6,0.7,2.2,1.2l-1.4,2.2c-1.1-0.7-2.2-1-3.3-1c-0.5,0-0.9,0.1-1.2,0.3
				s-0.4,0.4-0.4,0.7c0,0.2,0.1,0.5,0.2,0.6c0.1,0.2,0.4,0.3,0.8,0.5c0.4,0.2,1,0.4,1.8,0.6c1.4,0.4,2.4,0.9,3.1,1.6
				c0.7,0.6,1,1.5,1,2.7c0,0.9-0.3,1.7-0.8,2.3s-1.2,1.2-2.1,1.5c-0.9,0.3-1.9,0.5-3,0.5s-2.2-0.2-3.1-0.5c-1-0.4-1.8-0.8-2.4-1.5
				l1.9-2.2c1.1,0.9,2.3,1.3,3.5,1.3c0.6,0,1.1-0.1,1.4-0.3c0.3-0.2,0.5-0.5,0.5-0.9c0-0.3-0.1-0.6-0.2-0.8
				c-0.1-0.2-0.4-0.4-0.8-0.5s-1-0.4-1.8-0.6c-1.3-0.4-2.3-0.9-2.9-1.6c-0.7-0.7-1-1.5-1-2.6c0-0.8,0.2-1.5,0.7-2.1
				c0.4-0.6,1.1-1.1,1.9-1.4s1.8-0.5,2.9-0.5C765.5,413.9,766.4,414.1,767.2,414.4z"/>
			<path class="st0" d="M789.7,409.1v18.5h-3.5l-0.2-1.5c-0.9,1.3-2.2,2-3.8,2s-2.9-0.6-3.8-1.9c-0.9-1.3-1.3-3-1.3-5.2
				c0-1.4,0.2-2.6,0.7-3.6c0.5-1.1,1.1-1.9,1.9-2.5c0.8-0.6,1.8-0.9,2.8-0.9c1.3,0,2.3,0.4,3.2,1.2v-6.5L789.7,409.1z M785.8,423.7
				V418c-0.3-0.4-0.6-0.7-1-0.8c-0.3-0.2-0.7-0.3-1.1-0.3c-0.7,0-1.3,0.3-1.8,1s-0.6,1.7-0.6,3.1c0,1.6,0.2,2.6,0.6,3.2
				c0.4,0.6,0.9,0.9,1.6,0.9C784.4,425.2,785.2,424.7,785.8,423.7z"/>
			<path class="st0" d="M804.3,422.2h-8.2c0.1,1.1,0.5,1.9,1,2.3s1.2,0.7,2.1,0.7c0.5,0,1.1-0.1,1.6-0.3s1-0.5,1.6-0.9l1.6,2.2
				c-1.6,1.2-3.3,1.8-5.2,1.8c-2.1,0-3.8-0.6-4.9-1.9c-1.2-1.3-1.7-3-1.7-5.1c0-1.3,0.2-2.6,0.7-3.6c0.5-1.1,1.2-1.9,2.1-2.5
				c0.9-0.6,2-0.9,3.3-0.9c1.9,0,3.4,0.6,4.5,1.8s1.6,2.9,1.6,5C804.4,421.3,804.4,421.8,804.3,422.2z M800.5,419.6c0-2-0.8-3-2.2-3
				c-0.7,0-1.2,0.2-1.6,0.8s-0.6,1.3-0.7,2.5h4.4L800.5,419.6L800.5,419.6z"/>
			<path class="st0" d="M807.5,427.1c-0.6-0.7-1-1.6-1-2.8v-15.2l4-0.4v15.4c0,0.6,0.2,0.8,0.7,0.8c0.2,0,0.5,0,0.7-0.1l0.8,2.8
				c-0.7,0.3-1.5,0.5-2.4,0.5C809,428.1,808.1,427.7,807.5,427.1z"/>
		</g>
		<g class="st16">
			<path class="st0" d="M693.6,445.8c0.8,1.2,1.2,3,1.2,5.2c0,1.4-0.2,2.6-0.6,3.7c-0.4,1.1-1,1.9-1.8,2.5s-1.7,0.9-2.8,0.9
				c-1.3,0-2.4-0.5-3.2-1.4v6.1l-4,0.4v-18.8h3.5l0.2,1.5c0.5-0.7,1.1-1.1,1.8-1.4s1.4-0.5,2-0.5
				C691.6,443.9,692.8,444.6,693.6,445.8z M690.7,451c0-1.6-0.2-2.7-0.5-3.3s-0.9-0.9-1.6-0.9c-0.4,0-0.9,0.1-1.3,0.4
				c-0.4,0.3-0.7,0.7-1,1.2v5.6c0.5,0.8,1.2,1.2,2,1.2C689.9,455.2,690.7,453.8,690.7,451z"/>
			<path class="st0" d="M707.8,454.9c0.1,0.2,0.4,0.4,0.7,0.5l-0.8,2.6c-0.8-0.1-1.5-0.2-2-0.5s-0.9-0.8-1.2-1.4c-0.9,1.3-2.2,2-4,2
				c-1.3,0-2.4-0.4-3.2-1.1c-0.8-0.8-1.2-1.8-1.2-3c0-1.5,0.5-2.6,1.6-3.3s2.6-1.2,4.6-1.2h1.4v-0.6c0-0.8-0.2-1.3-0.5-1.6
				s-0.9-0.4-1.8-0.4c-0.4,0-1,0.1-1.6,0.2c-0.6,0.1-1.2,0.3-1.9,0.5L697,445c0.8-0.3,1.7-0.6,2.6-0.7c0.9-0.2,1.7-0.2,2.4-0.2
				c1.9,0,3.3,0.4,4.2,1.2s1.3,2,1.3,3.5v5.2C707.6,454.3,707.7,454.7,707.8,454.9z M703.7,454v-2.4h-1c-0.9,0-1.6,0.2-2,0.5
				s-0.7,0.8-0.7,1.5c0,0.5,0.1,0.9,0.4,1.2c0.3,0.3,0.7,0.4,1.1,0.4C702.5,455.2,703.2,454.8,703.7,454z"/>
			<path class="st0" d="M719,444.3c0.7,0.3,1.4,0.7,2.1,1.2l-1.7,2.4c-0.8-0.6-1.7-1-2.5-1c-0.9,0-1.5,0.3-2,1s-0.7,1.7-0.7,3.2
				c0,1.4,0.2,2.4,0.7,3s1.1,0.9,2,0.9c0.4,0,0.9-0.1,1.2-0.2c0.4-0.1,0.8-0.4,1.3-0.7l1.7,2.4c-1.3,1.1-2.8,1.6-4.5,1.6
				c-1.4,0-2.5-0.3-3.5-0.9s-1.7-1.4-2.3-2.4s-0.8-2.3-0.8-3.7s0.3-2.6,0.8-3.7c0.5-1.1,1.3-1.9,2.3-2.5s2.1-0.9,3.4-0.9
				C717.4,443.9,718.3,444.1,719,444.3z"/>
			<path class="st0" d="M726.4,438c0.4,0.4,0.7,1,0.7,1.6c0,0.7-0.2,1.2-0.7,1.6c-0.4,0.4-1,0.6-1.7,0.6s-1.2-0.2-1.7-0.6
				c-0.4-0.4-0.7-1-0.7-1.6s0.2-1.2,0.7-1.6c0.4-0.4,1-0.6,1.7-0.6S725.9,437.6,726.4,438z M726.7,444.4v13.3h-4v-13.3H726.7z"/>
			<path class="st0" d="M741.3,452.2h-8.2c0.1,1.1,0.4,1.9,0.9,2.3s1.2,0.7,2.1,0.7c0.5,0,1-0.1,1.5-0.3s1-0.5,1.6-0.9l1.6,2.2
				c-1.5,1.2-3.3,1.8-5.2,1.8c-2.1,0-3.8-0.6-5-1.9c-1.1-1.3-1.7-3-1.7-5.1c0-1.3,0.2-2.6,0.7-3.6c0.5-1.1,1.2-1.9,2.1-2.5
				s2.1-0.9,3.4-0.9c1.9,0,3.4,0.6,4.5,1.8s1.6,2.9,1.6,5C741.4,451.3,741.3,451.8,741.3,452.2z M737.5,449.6c0-2-0.8-3-2.2-3
				c-0.7,0-1.2,0.2-1.6,0.8s-0.6,1.3-0.7,2.5h4.4L737.5,449.6L737.5,449.6z"/>
			<path class="st0" d="M754.1,445c0.7,0.7,1,1.7,1,3v9.7h-4v-9c0-0.7-0.1-1.1-0.3-1.4c-0.2-0.3-0.5-0.4-0.9-0.4
				c-0.8,0-1.6,0.6-2.3,1.7v9.1h-4v-13.3h3.5l0.3,1.6c0.6-0.7,1.2-1.2,1.8-1.5c0.7-0.3,1.4-0.5,2.2-0.5
				C752.5,443.9,753.4,444.3,754.1,445z"/>
			<path class="st0" d="M766.3,457c-0.5,0.3-1,0.6-1.7,0.8c-0.6,0.2-1.3,0.3-1.9,0.3c-2.9,0-4.3-1.6-4.3-4.8v-6.2h-1.9v-2.8h1.9
				v-2.9l4-0.4v3.3h3l-0.4,2.8h-2.6v6.1c0,0.6,0.1,1.1,0.3,1.3s0.5,0.4,1,0.4s0.9-0.1,1.4-0.4L766.3,457z"/>
			<path class="st0" d="M781.1,441c0.9,0.4,1.5,1,2,1.8c0.5,0.7,0.7,1.5,0.7,2.4s-0.2,1.8-0.6,2.6c-0.4,0.8-1,1.8-1.9,2.8
				c-0.9,1.1-2.3,2.4-4.1,4h6.9l-0.4,3h-11v-2.8c2-2,3.5-3.5,4.5-4.6c0.9-1,1.6-1.9,2-2.6s0.6-1.4,0.6-2.1c0-0.7-0.2-1.2-0.6-1.6
				s-0.9-0.6-1.6-0.6c-0.6,0-1.1,0.1-1.6,0.4s-1,0.7-1.5,1.3l-2.3-1.9c0.7-0.9,1.5-1.6,2.5-2.1s2.1-0.8,3.3-0.8
				S780.2,440.6,781.1,441z"/>
		</g>
		<g class="st16">
			<path class="st0" d="M263,428.1h-4l-0.3-6.8c-0.1-1.6-0.1-3.1-0.1-4.3c0-1,0-1.9,0.1-2.8l-2.7,12h-3.9l-2.9-12
				c0.1,1.4,0.2,2.8,0.2,4.1c0,1,0,2-0.1,3L249,428h-4l1.3-17.3h5.2l2.6,11.8l2.4-11.8h5.2L263,428.1z"/>
			<path class="st0" d="M276.6,428.1h-3.4l-0.2-1.7c-1,1.4-2.3,2.1-4,2.1c-1.2,0-2.1-0.4-2.8-1.1s-0.9-1.8-0.9-3.1v-9.5h4v9
				c0,0.7,0.1,1.1,0.3,1.4c0.2,0.3,0.5,0.4,1,0.4c0.8,0,1.6-0.5,2.1-1.5v-9.2h4v13.2H276.6z"/>
			<path class="st0" d="M288,427.4c-0.5,0.3-1,0.6-1.7,0.8c-0.6,0.2-1.3,0.3-1.9,0.3c-2.9,0-4.4-1.6-4.4-4.8v-6.2h-1.9v-2.8h1.9
				v-2.9l4-0.4v3.3h3l-0.4,2.8H284v6.1c0,0.6,0.1,1.1,0.3,1.3c0.2,0.3,0.5,0.4,1,0.4s0.9-0.1,1.4-0.4L288,427.4z"/>
			<path class="st0" d="M299.8,425.3c0.1,0.2,0.4,0.4,0.7,0.5l-0.8,2.6c-0.8-0.1-1.5-0.2-2-0.5s-0.9-0.8-1.2-1.4c-0.9,1.3-2.2,2-4,2
				c-1.3,0-2.4-0.4-3.1-1.1c-0.8-0.8-1.2-1.8-1.2-3c0-1.5,0.5-2.6,1.6-3.3c1.1-0.8,2.6-1.2,4.6-1.2h1.4v-0.6c0-0.8-0.2-1.3-0.5-1.6
				s-0.9-0.4-1.8-0.4c-0.4,0-1,0.1-1.6,0.2s-1.2,0.3-1.9,0.5l-0.9-2.6c0.8-0.3,1.7-0.6,2.6-0.7c0.9-0.2,1.7-0.2,2.4-0.2
				c1.9,0,3.3,0.4,4.2,1.2c0.9,0.8,1.3,2,1.3,3.5v5.2C299.6,424.7,299.6,425.1,299.8,425.3z M295.7,424.4V422h-1
				c-0.9,0-1.6,0.2-2,0.5s-0.7,0.8-0.7,1.5c0,0.5,0.1,0.9,0.4,1.2s0.7,0.4,1.1,0.4C294.5,425.7,295.2,425.2,295.7,424.4z"/>
			<path class="st0" d="M310.9,414.8c0.7,0.3,1.4,0.7,2.1,1.2l-1.7,2.4c-0.8-0.6-1.7-1-2.5-1c-0.9,0-1.5,0.3-2,1s-0.7,1.7-0.7,3.2
				c0,1.4,0.2,2.4,0.7,3s1.1,0.9,2,0.9c0.4,0,0.9-0.1,1.2-0.2s0.8-0.4,1.3-0.7l1.7,2.4c-1.3,1.1-2.8,1.6-4.5,1.6
				c-1.4,0-2.5-0.3-3.5-0.9s-1.7-1.4-2.3-2.4c-0.5-1-0.8-2.3-0.8-3.7s0.3-2.6,0.8-3.7c0.5-1.1,1.3-1.9,2.3-2.5s2.1-0.9,3.4-0.9
				C309.4,414.4,310.2,414.5,310.9,414.8z"/>
			<path class="st0" d="M318.3,408.4c0.4,0.4,0.7,1,0.7,1.6c0,0.7-0.2,1.2-0.7,1.6c-0.4,0.4-1,0.6-1.7,0.6s-1.2-0.2-1.7-0.6
				c-0.4-0.4-0.7-1-0.7-1.6s0.2-1.2,0.7-1.6c0.4-0.4,1-0.6,1.7-0.6C317.3,407.8,317.9,408,318.3,408.4z M318.6,414.8v13.3h-4v-13.3
				H318.6z"/>
			<path class="st0" d="M332.3,416.2c1.1,1.2,1.7,3,1.7,5.2c0,1.4-0.3,2.7-0.8,3.7c-0.5,1.1-1.3,1.9-2.2,2.5c-1,0.6-2.1,0.9-3.5,0.9
				c-2,0-3.6-0.6-4.8-1.9c-1.2-1.2-1.7-3-1.7-5.2c0-1.4,0.3-2.7,0.8-3.7s1.3-1.9,2.2-2.5c1-0.6,2.1-0.9,3.5-0.9
				C329.5,414.4,331.1,415,332.3,416.2z M325.7,418.3c-0.4,0.7-0.6,1.7-0.6,3.1c0,1.5,0.2,2.5,0.6,3.2s1,1,1.8,1s1.4-0.3,1.8-1
				s0.6-1.7,0.6-3.1c0-1.5-0.2-2.5-0.6-3.2s-1-1-1.8-1S326.1,417.6,325.7,418.3z"/>
			<path class="st0" d="M346.8,415.4c0.6,0.7,1,1.7,1,3v9.7h-4v-9c0-0.7-0.1-1.1-0.3-1.4c-0.2-0.3-0.5-0.4-0.9-0.4
				c-0.8,0-1.6,0.6-2.3,1.7v9.1h-4v-13.3h3.5l0.3,1.6c0.6-0.7,1.2-1.2,1.8-1.5c0.7-0.3,1.4-0.5,2.2-0.5
				C345.3,414.4,346.2,414.7,346.8,415.4z"/>
			<path class="st0" d="M358.1,414.8c0.8,0.3,1.6,0.7,2.2,1.2l-1.4,2.2c-1.1-0.7-2.2-1-3.3-1c-0.5,0-0.9,0.1-1.2,0.3
				s-0.4,0.4-0.4,0.7c0,0.2,0.1,0.5,0.2,0.6c0.1,0.2,0.4,0.3,0.8,0.5s1,0.4,1.8,0.6c1.4,0.4,2.4,0.9,3.1,1.6c0.7,0.6,1,1.5,1,2.7
				c0,0.9-0.3,1.7-0.8,2.3s-1.2,1.2-2.1,1.5s-1.9,0.5-3,0.5s-2.2-0.2-3.1-0.5c-1-0.4-1.8-0.8-2.4-1.5l1.9-2.2
				c1.1,0.9,2.3,1.3,3.5,1.3c0.6,0,1.1-0.1,1.4-0.3s0.5-0.5,0.5-0.9c0-0.3-0.1-0.6-0.2-0.8s-0.4-0.4-0.8-0.5s-1-0.4-1.8-0.6
				c-1.3-0.4-2.3-0.9-2.9-1.6c-0.7-0.7-1-1.5-1-2.6c0-0.8,0.2-1.5,0.7-2.1c0.4-0.6,1.1-1.1,1.9-1.4s1.8-0.5,2.9-0.5
				C356.4,414.4,357.3,414.5,358.1,414.8z"/>
			<path class="st0" d="M380.7,409.5V428h-3.5l-0.2-1.5c-0.9,1.3-2.2,2-3.8,2c-1.6,0-2.9-0.6-3.8-1.9c-0.9-1.3-1.3-3-1.3-5.2
				c0-1.4,0.2-2.6,0.7-3.6c0.5-1.1,1.1-1.9,1.9-2.5s1.8-0.9,2.8-0.9c1.3,0,2.3,0.4,3.2,1.2v-6.5L380.7,409.5z M376.7,424.1v-5.7
				c-0.3-0.4-0.6-0.7-1-0.8c-0.3-0.2-0.7-0.3-1.1-0.3c-0.7,0-1.3,0.3-1.8,1s-0.6,1.7-0.6,3.1c0,1.6,0.2,2.6,0.6,3.2
				c0.4,0.6,0.9,0.9,1.6,0.9C375.3,425.6,376.1,425.1,376.7,424.1z"/>
			<path class="st0" d="M395.3,422.6H387c0.1,1.1,0.5,1.9,1,2.3s1.2,0.7,2.1,0.7c0.5,0,1.1-0.1,1.6-0.3s1-0.5,1.6-0.9l1.6,2.2
				c-1.6,1.2-3.3,1.8-5.2,1.8c-2.1,0-3.8-0.6-4.9-1.9c-1.2-1.3-1.7-3-1.7-5.1c0-1.3,0.2-2.6,0.7-3.6c0.5-1.1,1.2-1.9,2.1-2.5
				s2-0.9,3.3-0.9c1.9,0,3.4,0.6,4.5,1.8s1.6,2.9,1.6,5C395.3,421.7,395.3,422.2,395.3,422.6z M391.5,420c0-2-0.8-3-2.2-3
				c-0.7,0-1.2,0.2-1.6,0.8s-0.6,1.3-0.7,2.5h4.4V420H391.5z"/>
			<path class="st0" d="M398.4,427.5c-0.6-0.7-1-1.6-1-2.8v-15.2l4-0.4v15.4c0,0.6,0.2,0.8,0.7,0.8c0.2,0,0.5,0,0.7-0.1l0.8,2.8
				c-0.7,0.3-1.5,0.5-2.4,0.5C399.9,428.5,399,428.2,398.4,427.5z"/>
		</g>
		<g class="st16">
			<path class="st0" d="M284.5,446.2c0.8,1.2,1.2,3,1.2,5.2c0,1.4-0.2,2.6-0.6,3.7c-0.4,1.1-1,1.9-1.8,2.5s-1.7,0.9-2.8,0.9
				c-1.3,0-2.4-0.5-3.2-1.4v6.1l-4,0.4v-18.8h3.5l0.2,1.5c0.5-0.7,1.1-1.1,1.8-1.4c0.7-0.3,1.4-0.5,2-0.5
				C282.5,444.4,283.7,445,284.5,446.2z M281.7,451.4c0-1.6-0.2-2.7-0.5-3.3s-0.9-0.9-1.6-0.9c-0.4,0-0.9,0.1-1.3,0.4
				c-0.4,0.3-0.7,0.7-1,1.2v5.6c0.5,0.8,1.2,1.2,2,1.2C280.9,455.6,281.7,454.2,281.7,451.4z"/>
			<path class="st0" d="M298.8,455.3c0.1,0.2,0.4,0.4,0.7,0.5l-0.8,2.6c-0.8-0.1-1.5-0.2-2-0.5s-0.9-0.8-1.2-1.4c-0.9,1.3-2.2,2-4,2
				c-1.3,0-2.4-0.4-3.1-1.1c-0.8-0.8-1.2-1.8-1.2-3c0-1.5,0.5-2.6,1.6-3.3c1.1-0.8,2.6-1.2,4.6-1.2h1.4v-0.6c0-0.8-0.2-1.3-0.5-1.6
				s-0.9-0.4-1.8-0.4c-0.4,0-1,0.1-1.6,0.2s-1.2,0.3-1.9,0.5l-0.9-2.6c0.8-0.3,1.7-0.6,2.6-0.7c0.9-0.2,1.7-0.2,2.4-0.2
				c1.9,0,3.3,0.4,4.2,1.2c0.9,0.8,1.3,2,1.3,3.5v5.2C298.5,454.7,298.6,455.1,298.8,455.3z M294.7,454.4V452h-1
				c-0.9,0-1.6,0.2-2,0.5s-0.7,0.8-0.7,1.5c0,0.5,0.1,0.9,0.4,1.2s0.7,0.4,1.1,0.4C293.5,455.7,294.2,455.2,294.7,454.4z"/>
			<path class="st0" d="M309.9,444.8c0.7,0.3,1.4,0.7,2.1,1.2l-1.7,2.4c-0.8-0.6-1.7-1-2.5-1c-0.9,0-1.5,0.3-2,1s-0.7,1.7-0.7,3.2
				c0,1.4,0.2,2.4,0.7,3s1.1,0.9,2,0.9c0.4,0,0.9-0.1,1.2-0.2s0.8-0.4,1.3-0.7l1.7,2.4c-1.3,1.1-2.8,1.6-4.5,1.6
				c-1.4,0-2.5-0.3-3.5-0.9s-1.7-1.4-2.3-2.4c-0.5-1-0.8-2.3-0.8-3.7s0.3-2.6,0.8-3.7c0.5-1.1,1.3-1.9,2.3-2.5s2.1-0.9,3.4-0.9
				C308.4,444.4,309.2,444.5,309.9,444.8z"/>
			<path class="st0" d="M317.3,438.4c0.4,0.4,0.7,1,0.7,1.6c0,0.7-0.2,1.2-0.7,1.6c-0.4,0.4-1,0.6-1.7,0.6s-1.2-0.2-1.7-0.6
				c-0.4-0.4-0.7-1-0.7-1.6s0.2-1.2,0.7-1.6c0.4-0.4,1-0.6,1.7-0.6C316.3,437.8,316.9,438,317.3,438.4z M317.6,444.8v13.3h-4v-13.3
				H317.6z"/>
			<path class="st0" d="M332.2,452.6H324c0.1,1.1,0.4,1.9,0.9,2.3s1.2,0.7,2.1,0.7c0.5,0,1-0.1,1.5-0.3s1-0.5,1.6-0.9l1.6,2.2
				c-1.5,1.2-3.3,1.8-5.2,1.8c-2.1,0-3.8-0.6-5-1.9s-1.7-3-1.7-5.1c0-1.3,0.2-2.6,0.7-3.6c0.5-1.1,1.2-1.9,2.1-2.5s2.1-0.9,3.4-0.9
				c1.9,0,3.4,0.6,4.5,1.8s1.6,2.9,1.6,5C332.3,451.7,332.3,452.2,332.2,452.6z M328.4,450c0-2-0.8-3-2.1-3c-0.7,0-1.2,0.2-1.6,0.8
				s-0.6,1.3-0.7,2.5h4.4L328.4,450L328.4,450z"/>
			<path class="st0" d="M345,445.4c0.6,0.7,1,1.7,1,3v9.7h-4v-9c0-0.7-0.1-1.1-0.3-1.4c-0.2-0.3-0.5-0.4-0.9-0.4
				c-0.8,0-1.6,0.6-2.3,1.7v9.1h-4v-13.3h3.5l0.3,1.6c0.6-0.7,1.2-1.2,1.8-1.5c0.7-0.3,1.4-0.5,2.2-0.5
				C343.4,444.4,344.3,444.7,345,445.4z"/>
			<path class="st0" d="M357.3,457.4c-0.5,0.3-1,0.6-1.7,0.8c-0.6,0.2-1.3,0.3-1.9,0.3c-2.9,0-4.4-1.6-4.4-4.8v-6.2h-1.9v-2.8h1.9
				v-2.9l4-0.4v3.3h3l-0.4,2.8h-2.6v6.1c0,0.6,0.1,1.1,0.3,1.3c0.2,0.3,0.5,0.4,1,0.4s0.9-0.1,1.4-0.4L357.3,457.4z"/>
			<path class="st0" d="M372.5,441.2v16.9h-3.9v-13l-3.6,2.2l-1.7-2.6l5.7-3.5L372.5,441.2L372.5,441.2z"/>
		</g>
	</g>
	<g>
		<g>
			<g id="YX734u.tif_1_">
				<g>
					<path class="st0" d="M566.4,181.2c0.2-0.5,0.3-1.2,0.5-1.7c0.7-1.5,1.9-2.5,3.3-3.3c1.3-0.8,2.8-1.3,4.3-1.8
						c0.2,0,0.3-0.2,0.3-0.3c0.5-1.8,1.5-3.3,2.8-4.6c2.5-2.5,5.7-4,9.3-4.5c2.5-0.3,4.8,0.2,6.8,1.5c0.1,0.1,0.3,0.1,0.5,0.1
						c4.4-1,8.3,0.1,12,2.3c1.7,1.1,3,2.5,4,4.2c1,1.7,1.5,3.7,1.3,5.8c0,0.3,0.1,0.3,0.3,0.5c1.7,0.9,3.2,2.2,4.2,3.8
						c1.7,2.5,1.9,5.4,1,8.3c-0.1,0.3-0.2,0.5-0.3,0.7c0,0,0,0,0,0.1l0.1,0.1c2.3,0.7,3.7,2.2,4.7,4.2c1.5,3.1,1.5,6.4,0.3,9.6
						c-1.2,2.8-3.3,4.8-6.1,5.8c-0.5,0.2-0.9,0.3-1.3,0.5c-0.2,0.1-0.3,0.1-0.3,0.3c-0.2,4.4-4.7,8.8-9.4,9.5
						c-1.7,0.3-3.8-0.1-5.1-0.9c0.3-0.8,0.8-1.7,1.2-2.3c0.7,0.2,1.3,0.3,2,0.5c1.7,0.2,3.3-0.3,4.8-1.3c1.7-1.1,2.9-2.5,3.5-4.4
						c0.7-2.1-0.1-3.8-2.1-4.8c-0.3-0.2-0.8-0.3-1.3-0.5c0.3-0.9,0.5-1.7,0.8-2.7c1.1,0.3,2.1,0.7,3,1.5c0.8,0.5,1.5,1.3,1.9,2.2
						c0,0.1,0.3,0.2,0.3,0.1c3.3-0.9,5.8-3.3,6.2-7c0.3-2.3-0.1-4.4-1.5-6.2c-0.8-1.2-2-1.9-3.5-1.7c-1,0.2-1.9,0.7-2.7,1.3
						c-0.5,0.5-0.9,0.9-1.5,1.3c-0.7-0.5-1.3-1.2-2.1-1.8c1.3-1.5,2.7-2.7,4.5-3.3c0.3-0.1,0.5-0.3,0.7-0.5c1.2-2.5,1.3-5-0.3-7.4
						c-1.3-1.9-3.1-3.1-5.4-3.5c-1.2-0.2-2.5,0-3.5,0.9c-0.7-0.7-1.2-1.3-1.8-2.1c1.7-1.5,3.7-1.7,5.8-1.5c0.1-0.7-0.1-1.5-0.3-2.2
						c-0.5-1.9-1.8-3.3-3.3-4.6c-2.5-1.8-5.5-2.7-8.6-2.7c-1.5,0.1-2.9,0.5-4.1,1.5c-0.7,0.5-1,1.2-1.3,1.9
						c-0.1,0.1-0.1,0.3-0.2,0.5c-0.9-0.3-1.7-0.5-2.7-0.8c0.3-0.7,0.7-1.5,1.1-2.2c0.5-0.7,1-1.2,1.5-1.8c-0.7-0.3-1.3-0.5-2.1-0.5
						c-2.7-0.1-5.1,0.7-7.3,2.2c-1.5,1-2.7,2.1-3.5,3.7c-0.8,1.6-0.7,2.9,0.5,3.9c0.5,0.3,1,0.7,1.5,0.9c0.1,0.1,0.3,0.1,0.5,0.2
						c-0.3,0.8-0.7,1.7-1,2.5c-2-0.8-3.7-2-4.5-4.1c-0.1,0-0.2,0-0.3,0.1c-1.5,0.5-2.9,1.2-4.2,2.2c-1.3,1.1-1.7,2.5-1,3.8
						c0.3,0.5,0.7,1.1,1.2,1.5c1.7,1.7,3.7,2.5,6,2.9c1.3,0.3,2.5,0.3,3.8,0.5c0.2,0,0.3,0,0.5,0c0,0.9,0,1.8,0,2.8
						c-1-0.1-2-0.1-2.9-0.3c-1.5-0.2-3.1-0.5-4.5-1.1c-0.1-0.1-0.3-0.1-0.3,0c-1.2,0.8-2.3,1.7-3.1,2.9s-0.7,2.5,0.3,3.7
						c1.2,1.5,2.8,2.2,4.7,2.7c0.7,0.2,1.5,0.3,2.3-0.1c0.1,0.5,0.3,0.5,0.7,0.5c1.8,0,3.5-0.5,5-1.5c0,0,0.1-0.1,0.2-0.1
						c0.5,0.7,1.1,1.5,1.7,2.2c-0.7,0.3-1.3,0.8-1.9,1.1c-1.9,0.9-3.8,1.2-6,1.1c-0.1,0-0.2,0-0.3,0c-1.1,0.3-2,0.9-2.7,1.8
						c-0.7,1.1-0.7,2.2-0.2,3.3c0.8,1.7,2.1,2.8,3.7,3.7c2,1,4.1,1.3,6.2,0.7c0.7-0.2,1.2-0.5,1.7-0.8c0.5,0.7,0.9,1.5,1.3,2.3
						c-0.2,0.1-0.3,0.2-0.5,0.3c-0.3,0.2-0.5,0.3-0.7,0.5c-0.7,0.7-0.7,1.5-0.3,2.3c0.5,1.1,1.5,1.8,2.5,2.3c1.5,0.9,3.2,1.5,5,1.5
						c2.9,0.1,5.2-1.3,6.2-4.4c0.3-0.9,0.5-1.8,0.7-2.7c0.1-0.3-0.1-0.3-0.3-0.5c-1.7-0.9-3.3-1.8-5-2.9c-1.7-1.1-3.1-2.3-4.1-4.1
						c-0.8-1.3-1.2-2.9-1.3-4.6c-0.1-2.1,0.2-4.1,0.5-6.1c0-0.1,0-0.1,0.1-0.2c0.9,0.2,1.7,0.3,2.7,0.5c-0.5,2.7-1,5.5,0,8.3
						c1.7-2.3,4-4.1,6-6.1c-0.7-0.3-1.3-0.5-1.9-0.7c-2.2-0.9-3.8-2.5-5.4-4.3c-1.1-1.3-2.2-2.7-3.3-3.9c-0.8-0.9-1.7-1.7-2.8-2
						c-0.3-0.2-0.8-0.2-1.3-0.3c-0.1,0-0.3-0.1-0.3-0.2c0-0.8,0-1.7,0-2.5c2.2,0,3.9,0.9,5.5,2.3c0.3-0.8,0.7-1.7,1-2.3
						c0.7-1.3,1.9-2.3,3.1-3.3c0.7-0.5,1.3-1,1.8-1.5c0.8-0.7,1.5-1.5,2.3-2.3c0.7,0.5,1.5,0.9,2.2,1.5c-0.7,1.1-1.5,1.9-2.5,2.7
						c-1.2,1-2.5,2-3.7,3.1c-1.7,1.5-1.8,3.3-1.3,5.4c0,0.1,0.1,0.2,0.2,0.3c1.2,1.5,2.3,2.9,3.9,4c1.3,0.9,2.7,1.5,4.2,1.5
						c0.3,0,0.3-0.1,0.5-0.3c0.5-1,0.5-2-0.1-3c-0.7-1.2-1.7-2-2.7-2.8c-0.1-0.1-0.2-0.2-0.3-0.3c0.5-0.7,1.1-1.5,1.7-2.2
						c0.5,0.5,1.1,0.9,1.7,1.3c0.8,0.7,1.5,1.5,2.1,2.5c1.3,2.2,1.1,4.3-0.3,6.4c-1,1.7-2.3,2.8-3.7,4.2c-1.3,1.3-2.7,2.7-4,4
						c-0.3,0.3-0.7,0.8-0.9,1.2c1.7,1.5,3.7,2.7,5.7,3.7c-0.2-1.3-0.3-2.5-0.3-3.7c0.9-0.2,1.7-0.3,2.7-0.5c0.1,0.5,0.2,0.9,0.2,1.5
						c0.3,2,0.3,4,0.2,6.1c-0.3,2.7-1,5.1-2.8,7.2c-1.5,1.5-3.3,2.5-5.4,2.7c-0.1,0-0.3,0.1-0.3,0.1c-0.5,0-0.8,0-1.3,0
						c-0.3,0-0.7-0.1-1-0.1c-2.2-0.3-4.3-1.1-6.1-2.3c-1.3-0.9-2.3-2.1-2.9-3.7c-0.2-0.7-0.3-1.3-0.3-2.2c0,0-0.1,0-0.2,0
						c-2,0.1-4-0.3-5.8-1.3c-2.2-1.2-4-2.7-5-5.1c-1-2.3-0.8-4.4,0.8-6.4c0.2-0.3,0.5-0.5,0.7-0.7c-0.1-0.1-0.2-0.1-0.3-0.2
						c-1.3-0.7-2.7-1.3-3.7-2.5c-1.7-1.8-2.2-4-1.3-6.4c0.5-1.3,1.3-2.3,2.3-3.1c0.3-0.3,0.7-0.5,0.9-0.8c-0.2-0.1-0.3-0.3-0.5-0.3
						c-1.2-0.8-2.2-1.8-2.8-3.2c-0.3-0.7-0.5-1.3-0.7-2.1C566.4,182,566.4,181.5,566.4,181.2z"/>
				</g>
			</g>
			<g>
				<path class="st0" d="M415.6,175.4h8c2.5,0,4.5,0.2,5.8,0.7c1.3,0.3,2.3,1.2,3.1,2.3c0.8,1.2,1.2,3.2,1.2,5.8
					c0,1.8-0.3,3.1-0.8,3.8c-0.5,0.7-1.7,1.3-3.3,1.7c1.8,0.5,3.1,1.1,3.7,2.1c0.7,1,1,2.5,1,4.5v2.9c0,2.1-0.3,3.7-0.7,4.7
					c-0.5,1-1.3,1.7-2.3,2.1s-3.2,0.5-6.4,0.5h-9.2V175.4L415.6,175.4z M423.6,180.7v7c0.3,0,0.7,0,0.8,0c0.8,0,1.3-0.2,1.5-0.5
					s0.3-1.5,0.3-3.3c0-1-0.1-1.7-0.3-2c-0.2-0.3-0.3-0.7-0.7-0.7C424.9,180.8,424.4,180.7,423.6,180.7z M423.6,192.5v8.7
					c1.1,0,1.8-0.2,2.2-0.5c0.3-0.3,0.5-1.1,0.5-2.3v-2.8c0-1.3-0.2-2.1-0.5-2.5C425.5,192.6,424.7,192.5,423.6,192.5z"/>
				<path class="st0" d="M455.2,189.9v6.2c0,2.3-0.1,4-0.3,5c-0.3,1-0.7,2.1-1.5,3s-1.7,1.7-2.9,2.1c-1.2,0.5-2.5,0.7-4,0.7
					c-1.7,0-3.1-0.2-4.3-0.5c-1.2-0.3-2.1-0.9-2.7-1.7c-0.7-0.7-1.1-1.7-1.3-2.7c-0.3-1.1-0.5-2.7-0.5-4.8v-6.6
					c0-2.3,0.3-4.2,0.7-5.6c0.5-1.3,1.5-2.3,2.7-3.2c1.3-0.8,3-1.2,5-1.2c1.7,0,3.2,0.3,4.5,0.8c1.3,0.5,2.2,1.2,2.8,2
					c0.7,0.8,1.1,1.7,1.3,2.5C455.1,186.8,455.2,188.1,455.2,189.9z M447.5,188c0-1.3-0.1-2.1-0.2-2.5c-0.2-0.3-0.5-0.5-0.9-0.5
					s-0.7,0.2-0.9,0.5c-0.2,0.3-0.2,1.2-0.2,2.5v11.5c0,1.2,0.1,2,0.2,2.3c0.2,0.3,0.5,0.5,0.9,0.5c0.5,0,0.7-0.2,0.9-0.5
					c0.2-0.3,0.2-1.1,0.2-2.2V188z"/>
				<path class="st0" d="M476.1,189.9v6.2c0,2.3-0.1,4-0.3,5c-0.3,1-0.7,2.1-1.5,3c-0.7,0.9-1.7,1.7-2.9,2.1c-1.2,0.4-2.5,0.7-4,0.7
					c-1.7,0-3.1-0.2-4.3-0.5c-1.2-0.3-2.1-0.9-2.7-1.7c-0.7-0.7-1.1-1.7-1.3-2.7c-0.3-1.1-0.5-2.7-0.5-4.8v-6.6
					c0-2.3,0.3-4.2,0.7-5.6c0.5-1.3,1.5-2.3,2.7-3.2c1.3-0.8,3-1.2,5-1.2c1.7,0,3.2,0.3,4.5,0.8c1.3,0.5,2.2,1.2,2.8,2
					c0.7,0.8,1.1,1.7,1.3,2.5C476,186.8,476.1,188.1,476.1,189.9z M468.4,188c0-1.3-0.1-2.1-0.2-2.5c-0.2-0.3-0.5-0.5-0.9-0.5
					c-0.5,0-0.7,0.2-0.9,0.5c-0.2,0.3-0.2,1.2-0.2,2.5v11.5c0,1.2,0.1,2,0.2,2.3c0.2,0.3,0.5,0.5,0.9,0.5s0.7-0.2,0.9-0.5
					c0.2-0.3,0.2-1.1,0.2-2.2V188z"/>
				<path class="st0" d="M495.3,189.1h-6.8v-1.3c0-1.2-0.1-1.9-0.2-2.3c-0.1-0.3-0.5-0.5-1-0.5c-0.5,0-0.7,0.2-1,0.5
					c-0.3,0.3-0.3,0.7-0.3,1.3c0,0.8,0.1,1.3,0.2,1.7s0.5,0.7,1,1.2c0.5,0.5,1.7,1.1,3.3,1.9c2.2,1.1,3.7,2.1,4.4,3.1
					c0.7,1,1,2.3,1,4.3c0,2.1-0.3,3.7-0.8,4.7c-0.5,1.1-1.5,1.8-2.7,2.5c-1.3,0.5-2.7,0.8-4.6,0.8c-1.9,0-3.7-0.3-5-0.9
					c-1.3-0.7-2.3-1.5-2.8-2.5c-0.5-1.1-0.8-2.7-0.8-4.8v-1.2h6.8v1.7c0,1.3,0.1,2.3,0.3,2.7c0.2,0.3,0.5,0.7,1,0.7
					c0.5,0,0.9-0.2,1.2-0.5c0.3-0.3,0.3-0.8,0.3-1.7c0-1.2-0.2-2-0.5-2.3c-0.3-0.3-1.8-1.2-4.5-2.7c-2.3-1.3-3.7-2.5-4.1-3.5
					c-0.5-1-0.7-2.3-0.7-3.7c0-2,0.3-3.5,0.8-4.5c0.5-1,1.5-1.7,2.7-2.3c1.3-0.5,2.7-0.8,4.5-0.8c1.7,0,3.1,0.2,4.3,0.7
					c1.2,0.5,2.1,1,2.7,1.7c0.7,0.7,1,1.3,1.2,1.9c0.2,0.5,0.2,1.5,0.2,2.8v1.5h-0.2V189.1z"/>
				<path class="st0" d="M507.1,177.6v4h2.1v4h-2.1v13.6c0,1.7,0.1,2.7,0.3,2.8c0.2,0.2,0.9,0.3,2.1,0.3v4.1h-3.1
					c-1.7,0-3-0.1-3.7-0.2c-0.7-0.2-1.3-0.5-2-1c-0.5-0.5-0.9-1.1-1.1-1.8c-0.2-0.7-0.2-2.3-0.2-4.8v-13h-1.7v-4h1.7v-4L507.1,177.6
					L507.1,177.6z"/>
				<path class="st0" d="M512,175.4h6c3.8,0,6.5,0.2,7.8,0.5c1.3,0.3,2.3,0.9,3.1,1.7c0.7,0.8,1.2,1.7,1.3,2.7c0.1,1,0.3,3,0.3,6
					v10.8c0,2.8-0.1,4.7-0.3,5.6c-0.3,0.9-0.7,1.7-1.3,2.2c-0.7,0.5-1.5,0.9-2.3,1.1c-0.9,0.2-2.3,0.3-4.3,0.3h-10.1v-30.9H512z
					 M520,180.7v20.5c1.2,0,1.8-0.3,2.1-0.7c0.3-0.5,0.3-1.7,0.3-3.8v-12c0-1.3,0-2.3-0.1-2.7c-0.1-0.3-0.3-0.7-0.7-0.9
					C521.4,180.7,520.9,180.7,520,180.7z"/>
				<path class="st0" d="M559.3,175.4v31.1h-7v-21l-2.8,21h-5l-2.9-20.5v20.5h-7v-31.1H545c0.3,1.8,0.7,4.1,0.9,6.6l1.1,8l1.8-14.5
					L559.3,175.4L559.3,175.4z"/>
			</g>
		</g>
		<g>
			<g>
				<path class="st0" d="M484.2,117.3c0,0.5-0.2,0.8-0.5,0.8c-0.8,0-1.8-0.1-3.1-0.2c-1.5-0.1-2.7-0.2-3.7-0.2s-2.2,0.1-3.5,0.2
					c-1.3,0.1-2.3,0.2-3.1,0.2c-0.3,0-0.5-0.3-0.5-0.8s0.2-0.7,0.5-0.8c1.7-0.2,2.8-0.7,3.3-1.3c0.5-0.7,0.7-1.9,0.7-3.8v-11.1
					c0-1.7-0.2-2.7-0.7-3.2c-0.3-0.5-1.3-0.8-2.7-1c-0.3,0-0.5-0.3-0.5-0.8c0-0.5,0.2-0.7,0.5-0.7c2.1-0.5,3.8-1.1,5.1-1.7
					c1.3-0.7,2.2-1.1,2.5-1.5c0.2-0.3,0.5-0.3,0.7-0.3c0.5,0,0.8,0.2,0.8,0.5c-0.3,4.5-0.5,8-0.5,10.5v9.5c0,2,0.3,3.3,0.7,3.8
					s1.7,1,3.3,1.3C484.1,116.6,484.2,116.9,484.2,117.3z M480.1,80.8c0,0.8-0.3,1.5-0.9,2.2c-0.7,0.7-1.3,0.9-2.2,0.9
					c-0.8,0-1.5-0.3-2.2-0.9c-0.7-0.7-0.9-1.3-0.9-2.2c0-0.9,0.3-1.7,0.9-2.3c0.7-0.7,1.3-0.9,2.2-0.9c0.8,0,1.5,0.3,2.2,0.9
					C479.7,79.1,480.1,79.9,480.1,80.8z"/>
				<path class="st0" d="M508.5,117.5c0,0.3-0.1,0.7-0.3,0.7c-0.5,0-1.3,0-2.1-0.1c-0.9-0.1-1.7-0.1-2.5-0.1c-0.7,0-1.5,0-2.5,0.1
					c-0.8,0.1-1.5,0.1-2.1,0.1c-0.3,0-0.3-0.2-0.3-0.7c0-0.3,0.1-0.5,0.3-0.5c1-0.1,1.7-0.3,1.9-0.8c0.3-0.5,0.5-1.3,0.5-2.8V106
					c0-1.7-0.3-2.8-0.9-3.5c-0.7-0.7-1.7-1.1-2.9-1.1c-0.8,0-1.5,0.2-2.2,0.5c-0.7,0.3-1.3,0.9-2.1,1.7v9.8c0,1.5,0.2,2.3,0.5,2.8
					c0.3,0.5,1,0.7,1.9,0.8c0.3,0,0.3,0.2,0.3,0.5c0,0.3-0.1,0.7-0.3,0.7c-0.5,0-1.3,0-2.2-0.1c-0.9-0.1-1.7-0.1-2.5-0.1
					c-0.7,0-1.5,0-2.5,0.1c-0.8,0.1-1.5,0.1-2.2,0.1c-0.3,0-0.3-0.2-0.3-0.7c0-0.3,0.1-0.5,0.3-0.5c1.3-0.2,2-0.5,2.3-0.9
					c0.3-0.5,0.5-1.3,0.5-2.7v-8c0-1.2-0.2-1.9-0.5-2.3c-0.3-0.3-0.9-0.7-2-0.7c-0.3,0-0.3-0.2-0.3-0.5c0-0.3,0.1-0.5,0.3-0.5
					c1.5-0.3,2.7-0.7,3.5-1.3c0.9-0.5,1.5-0.8,1.8-1.1c0.2-0.2,0.3-0.3,0.5-0.3c0.3,0,0.7,0.1,0.7,0.3l-0.2,2.7
					c2.1-1.9,4-2.9,5.8-2.9c1.9,0,3.5,0.5,4.6,1.7c1.1,1.1,1.7,2.7,1.7,4.6v8.3c0,1.5,0.2,2.3,0.5,2.8c0.3,0.5,1.2,0.7,2.3,0.9
					C508.5,116.9,508.5,117.1,508.5,117.5z"/>
				<path class="st0" d="M523.7,100.7c0,0.8-0.2,1.2-0.5,1.2l-6.5-0.2v10.5c0,2.7,1,4.1,2.9,4.1c1.2,0,2.3-0.3,3.3-0.8
					c0.1,0,0.2,0.1,0.3,0.3c0.1,0.2,0.2,0.3,0.2,0.5c0,0.3-0.5,0.8-1.7,1.5c-1.1,0.7-2.3,0.9-3.7,0.9c-1.7,0-2.9-0.5-3.9-1.5
					c-1-1-1.5-2.3-1.5-4v-0.2l0.1-10.6c0-0.3-0.2-0.7-0.5-0.7h-1.7c-0.3,0-0.5-0.2-0.5-0.5c0-0.3,0.1-0.5,0.3-0.7
					c2-1.2,3.7-2.9,5.2-5c0.2-0.3,0.3-0.3,0.7-0.3c0.3,0,0.7,0.1,0.7,0.3l-0.2,4.2h6.4C523.5,99.5,523.7,99.9,523.7,100.7z"/>
				<path class="st0" d="M558.1,103.9c0,4.5-1.5,8.1-4.3,11c-2.9,2.9-6.6,4.3-11.1,4.3s-8.3-1.5-11.2-4.3c-2.9-2.9-4.3-6.6-4.3-11
					c0-4.5,1.5-8.2,4.4-11.2c2.9-3,6.7-4.5,11.1-4.5c4.6,0,8.3,1.5,11.1,4.5C556.6,95.6,558.1,99.3,558.1,103.9z M551.4,103.8
					c0-4.1-0.8-7.4-2.3-9.8c-1.5-2.5-3.7-3.7-6.5-3.7s-4.8,1.3-6.4,3.7c-1.5,2.5-2.3,5.8-2.3,9.8s0.7,7.3,2.3,9.7
					c1.5,2.3,3.7,3.5,6.5,3.5c2.7,0,5-1.2,6.5-3.5C550.6,111.2,551.4,107.9,551.4,103.8z"/>
				<path class="st0" d="M593.9,91.9c0,1.3-0.3,1.9-0.9,1.9l-4.5-0.2c0.5,1.3,0.7,2.7,0.7,4.1c0,3.3-1.2,6.2-3.7,8.5s-5.5,3.3-9,3.3
					h-1.3c-1.8,0-3.3,0.3-4.4,0.7c-1.1,0.5-1.7,1.1-1.7,1.7c0,0.8,0.5,1.5,1.3,2c0.9,0.5,2.2,0.8,3.8,0.8l8.1,0.1
					c3.5,0.1,6.2,0.8,8.1,2.2c1.9,1.3,2.9,3.3,2.9,6c0,3.8-2,7.1-6.1,10c-4.1,2.8-9,4.3-14.5,4.3c-3.7,0-6.8-0.9-9.3-2.7
					c-2.5-1.8-3.7-4-3.7-6.6c0-1.7,0.8-3.5,2.3-5.1c1.5-1.7,3.5-2.8,5.7-3.7c-1.5-0.7-2.7-1.5-3.5-2.8c-0.9-1.2-1.3-2.5-1.3-3.7
					c0-0.8,0.8-1.7,2.5-2.7s3.5-1.7,5.3-1.9c-2-1-3.5-2.3-4.7-3.9c-1.1-1.7-1.7-3.5-1.7-5.5c0-3.3,1.3-6.1,3.7-8.5
					c2.5-2.5,5.4-3.7,8.8-3.7c1.8,0,3.5,0.3,5.4,0.9c1.7,0.7,3.2,1.5,4.4,2.5l6.3-0.2C593.6,90,593.9,90.6,593.9,91.9z M589.1,125.8
					c0-1.7-0.5-2.7-1.5-3.5c-1.1-0.7-2.8-1.1-5.3-1.1l-8.1-0.2c-1.7,0-3-0.3-4.3-0.7c-2.8,1.5-4.3,3.7-4.3,6.2c0,2.3,1,4.2,2.9,5.7
					c1.9,1.5,4.4,2.2,7.4,2.2c3.5,0,6.7-0.8,9.3-2.5C587.7,130.2,589.1,128.2,589.1,125.8z M582.7,97.7c0-3-0.5-5.2-1.3-6.7
					c-0.9-1.3-2.3-2.1-4.4-2.1c-3.8,0-5.8,3.3-5.8,9.8c0,3,0.5,5.1,1.3,6.5c0.9,1.3,2.3,2,4.5,2C580.8,107.4,582.7,104.2,582.7,97.7
					z"/>
				<path class="st0" d="M612.1,105.6c0,0.3-0.3,0.7-0.8,0.7h-11.8c-0.1,0.8-0.1,1.7-0.1,2.5c0,2.3,0.5,4.1,1.7,5.4
					c1.1,1.3,2.7,1.9,4.8,1.9c1,0,2-0.3,3.1-0.8c1-0.5,1.9-1.3,2.5-2.1h0.1c0.1,0,0.3,0.1,0.3,0.3c0.1,0.2,0.2,0.3,0.2,0.5
					c0,0.3-0.5,0.9-1.3,1.9s-1.9,1.7-3,2.2c-1.1,0.5-2.2,0.7-3.3,0.7c-2.5,0-4.8-1-6.6-2.9c-1.7-1.9-2.7-4.3-2.7-7.1
					s0.9-5.3,2.7-7.2c1.7-2,3.9-3,6.6-3c2.2,0,4.1,0.7,5.7,2.2C611.4,102.2,612.1,103.9,612.1,105.6z M608.2,103.7
					c0-1.1-0.3-2-1.1-2.7s-1.7-1.1-2.8-1.1c-1.1,0-2.1,0.5-2.9,1.3c-0.8,0.9-1.3,2.2-1.7,3.7l6-0.2c0.9,0,1.5-0.1,1.9-0.3
					C607.9,104.4,608.2,104.2,608.2,103.7z"/>
				<path class="st0" d="M637.2,117.5c0,0.3-0.1,0.7-0.3,0.7c-0.5,0-1.3,0-2.1-0.1c-0.9-0.1-1.7-0.1-2.5-0.1c-0.7,0-1.5,0-2.5,0.1
					c-0.8,0.1-1.5,0.1-2.1,0.1c-0.3,0-0.3-0.2-0.3-0.7c0-0.3,0.1-0.5,0.3-0.5c1-0.1,1.7-0.3,1.9-0.8c0.3-0.5,0.5-1.3,0.5-2.8V106
					c0-1.7-0.3-2.8-0.9-3.5c-0.7-0.7-1.7-1.1-2.9-1.1c-0.8,0-1.5,0.2-2.2,0.5c-0.7,0.3-1.3,0.9-2.1,1.7v9.8c0,1.5,0.2,2.3,0.5,2.8
					c0.3,0.5,1,0.7,1.9,0.8c0.3,0,0.3,0.2,0.3,0.5c0,0.3-0.1,0.7-0.3,0.7c-0.5,0-1.3,0-2.2-0.1c-0.9-0.1-1.7-0.1-2.5-0.1
					c-0.7,0-1.5,0-2.5,0.1c-0.8,0.1-1.5,0.1-2.2,0.1c-0.3,0-0.3-0.2-0.3-0.7c0-0.3,0.1-0.5,0.3-0.5c1.3-0.2,2-0.5,2.3-0.9
					s0.5-1.3,0.5-2.7v-8c0-1.2-0.2-1.9-0.5-2.3c-0.3-0.3-0.9-0.7-2-0.7c-0.3,0-0.3-0.2-0.3-0.5c0-0.3,0.1-0.5,0.3-0.5
					c1.5-0.3,2.7-0.7,3.5-1.3c0.9-0.5,1.5-0.8,1.8-1.1c0.2-0.2,0.3-0.3,0.5-0.3c0.3,0,0.7,0.1,0.7,0.3l-0.2,2.7
					c2.1-1.9,4-2.9,5.8-2.9c1.9,0,3.5,0.5,4.6,1.7c1.1,1.1,1.7,2.7,1.7,4.6v8.3c0,1.5,0.2,2.3,0.5,2.8s1.2,0.7,2.3,0.9
					C637,116.9,637.2,117.1,637.2,117.5z"/>
			</g>
			<g>
				<path class="st0" d="M452.6,97.8c-4.1,3.9-8.8,5.8-14.1,5.5c-5.3-0.3-10-2.5-14.2-7c-4.2-4.4-6.2-9.2-6.2-14.5
					c0-5.3,2.1-9.8,6.2-13.8c4.1-3.9,9-5.8,14.3-5.7c5.4,0.2,10.2,2.5,14.3,6.8c4.2,4.4,6.2,9.2,6,14.6
					C458.9,89.1,456.8,93.8,452.6,97.8z M446.5,91.2c3.7-3.5,6.1-7.2,7-10.8c0.8-3.7,0-6.8-2.5-9.4c-2.5-2.5-5.6-3.5-9.3-2.9
					c-3.7,0.7-7.4,2.7-11.2,6.3c-3.7,3.5-6,7.1-6.8,10.7c-0.8,3.5,0.1,6.7,2.5,9.3c2.5,2.7,5.6,3.7,9.1,3.1
					C439.1,96.9,442.7,94.9,446.5,91.2z"/>
				<path class="st0" d="M435.8,54.7c0,1.1-0.3,2.1-1.2,2.9c-0.8,0.8-1.8,1.3-2.9,1.3c-1.2,0-2.1-0.5-2.9-1.3
					c-0.8-0.8-1.2-1.8-1.2-2.9c0-1.2,0.3-2.2,1.2-3c0.8-0.8,1.8-1.2,3-1.2s2.1,0.3,2.9,1.2C435.3,52.5,435.8,53.5,435.8,54.7z"/>
				<path class="st0" d="M429.8,149.4c-1.5-1.1-2.8-2.5-3.8-4c-2.3-3.7-2.9-7.8-1.7-12.2c1.3-4.4,4-7.8,8.2-10.5l1.7-1
					c2.2-1.3,3.7-2.7,4.7-4.1c0.9-1.3,1.2-2.5,0.7-3.2c-0.5-0.9-1.5-1.3-3-1.3c-1.5,0.1-3.1,0.7-5.1,1.9l-9.6,6
					c-4.2,2.5-7.8,3.7-11.1,3.7c-3.3-0.1-5.8-1.5-7.6-4.4c-2.7-4.3-2.7-9.5,0.2-15.7c2.9-6.2,7.6-11.5,14.2-15.7
					c4.4-2.7,8.7-4.1,12.9-3.9c4.3,0.1,7.3,1.7,9.1,4.5c1.2,1.9,1.5,4.4,0.7,7.5c-0.7,3-2.1,5.8-4.1,8.3c2.2-0.3,4.2-0.2,6.1,0.5
					c1.9,0.7,3.3,1.7,4.2,3c0.7,0.9,0.3,2.5-1.1,5c-1.3,2.3-3,4.4-5,6.1c3.1-0.3,5.8-0.1,8.3,0.9c2.5,1,4.5,2.7,5.8,4.8
					c2.3,3.7,2.8,7.7,1.7,12.2c-1.2,4.6-3.8,8.1-7.8,10.7c-2.1,1.3-4.5,2.3-7,2.9c-2.5,0.7-4.8,0.7-7,0.3L429.8,149.4z M406.3,113.9
					c1.2,1.8,2.5,2.7,4.4,2.7c1.7,0,4.1-0.9,7.1-2.7l9.7-5.8c1.9-1.2,3.7-2,5.6-2.3c2.3-3.9,2.5-7.2,0.7-10.1
					c-1.7-2.5-4.1-3.9-7.4-4.1c-3.3-0.2-6.8,0.9-10.2,3.1c-4.2,2.7-7.3,6-9.3,9.8C404.8,108.1,404.6,111.3,406.3,113.9z
					 M433.6,140.6c2.1,3.3,4.2,5.5,6.3,6.4c2.1,0.9,4.3,0.5,6.7-0.9c4.6-2.9,4.5-8-0.2-15.3c-2.1-3.3-4.2-5.4-6.2-6.2
					c-2-0.8-4.2-0.5-6.7,1.1C429.1,128.4,429.1,133.4,433.6,140.6z"/>
			</g>
		</g>
	</g>
</g>
</svg>
