<?xml version="1.0" encoding="utf-8"?>
<!-- Generator: Adobe Illustrator 24.1.0, SVG Export Plug-In . SVG Version: 6.00 Build 0)  -->
<svg version="1.1" id="Capa_1" xmlns="http://www.w3.org/2000/svg" xmlns:xlink="http://www.w3.org/1999/xlink" x="0px" y="0px"
	 viewBox="0 0 425 425" style="enable-background:new 0 0 425 425;" xml:space="preserve">
<style type="text/css">
	.st0{fill:#FFCC33;}
</style>
<g>
	
		<ellipse transform="matrix(0.2327 -0.9725 0.9725 0.2327 -45.0676 370.8528)" class="st0" cx="212.5" cy="214" rx="46.6" ry="46.6"/>
	<g>
		<path class="st0" d="M212.5,154.8c-3.2,0-5.9-2.6-5.9-5.9v-25.5c0-3.2,2.6-5.9,5.9-5.9s5.9,2.6,5.9,5.9v25.5
			C218.4,152.2,215.7,154.8,212.5,154.8z"/>
	</g>
	<g>
		<path class="st0" d="M212.5,311.8c-3.2,0-5.9-2.6-5.9-5.9v-25.5c0-3.2,2.6-5.9,5.9-5.9s5.9,2.6,5.9,5.9v25.5
			C218.4,309.1,215.7,311.8,212.5,311.8z"/>
	</g>
	<g>
		<path class="st0" d="M303.8,220.5h-25.5c-3.2,0-5.9-2.6-5.9-5.9c0-3.2,2.6-5.9,5.9-5.9h25.5c3.2,0,5.9,2.6,5.9,5.9
			C309.6,217.9,307,220.5,303.8,220.5z"/>
	</g>
	<g>
		<path class="st0" d="M121.2,220.5h25.5c3.2,0,5.9-2.6,5.9-5.9c0-3.2-2.6-5.9-5.9-5.9h-25.5c-3.2,0-5.9,2.6-5.9,5.9
			C115.4,217.9,118,220.5,121.2,220.5z"/>
	</g>
	<g>
		<path class="st0" d="M166,174c-1.5,0-3-0.6-4.2-1.7l-18.1-18.1c-2.3-2.3-2.3-6,0-8.3c2.3-2.3,6-2.3,8.3,0l18.1,18.1
			c2.3,2.3,2.3,6,0,8.3C169,173.5,167.5,174,166,174z"/>
	</g>
	<g>
		<path class="st0" d="M277,285c-1.5,0-3-0.6-4.2-1.7l-18.1-18.1c-2.3-2.3-2.3-6,0-8.3c2.3-2.3,6-2.3,8.3,0l18.1,18.1
			c2.3,2.3,2.3,6,0,8.3C280,284.5,278.5,285,277,285z"/>
	</g>
	<g>
		<path class="st0" d="M148,285c-1.5,0-3-0.6-4.2-1.7c-2.3-2.3-2.3-6,0-8.3l18.1-18.1c2.3-2.3,6-2.3,8.3,0c2.3,2.3,2.3,6,0,8.3
			l-18.1,18.1C151,284.5,149.5,285,148,285z"/>
	</g>
	<g>
		<path class="st0" d="M259,174c-1.5,0-3-0.6-4.2-1.7c-2.3-2.3-2.3-6,0-8.3l18.1-18.1c2.3-2.3,6-2.3,8.3,0c2.3,2.3,2.3,6,0,8.3
			l-18.1,18.1C262,173.5,260.5,174,259,174z"/>
	</g>
</g>
</svg>
