<?xml version="1.0" encoding="utf-8"?>
<!-- Generator: Adobe Illustrator 24.1.0, SVG Export Plug-In . SVG Version: 6.00 Build 0)  -->
<svg version="1.1" id="Capa_1" xmlns="http://www.w3.org/2000/svg" xmlns:xlink="http://www.w3.org/1999/xlink" x="0px" y="0px"
	 viewBox="0 0 701.4 413.7" style="enable-background:new 0 0 701.4 413.7;" xml:space="preserve">
<style type="text/css">
	.st0{fill:#E8C0A6;}
	.st1{opacity:0.4;fill:#F2F4F2;enable-background:new    ;}
	.st2{fill:#F4DDCE;}
	.st3{opacity:0.5;fill:#FA7F43;enable-background:new    ;}
	.st4{fill:#FA7F43;}
	.st5{fill:#502D16;}
	.st6{fill:#E0EADF;}
	.st7{fill:#C0D9DF;}
	.st8{fill:none;stroke:#373A47;stroke-miterlimit:10;}
	.st9{fill:#032836;}
</style>
<g>
	<path id="path1727-1-9-4_8_" class="st0" d="M1.9,67.5v123.3L145,286.2l145-78.8l0.5-132.2"/>
	<path id="path1934-1_8_" class="st1" d="M147.3,117.8L145,286.2l144.5-77.3l0.9-133.7L147.3,117.8z"/>
	<path id="path1721-7_8_" class="st2" d="M1.9,67.5C27.6,63.2,136,39.8,136,39.8l154.4,35.1l-143.1,44L1.9,67.5z"/>
	<path class="st3" d="M290.4,75l-143,44v28c1.3-1,2.5-2.5,3.6-3.3c1.4-1,2.8-0.8,3.8,0.2s1.6,2.8,2.9,2.4c1.4-0.5,3.5-3.2,5.7-3.6
		c2.3-0.4,4.7,1.6,7.5,0.4c2.8-1.3,6-5.8,9.6-8s7.9-2,10.9-2.9c2.9-0.9,4.6-2.9,6.9-3.5c2.3-0.5,5.4,0.4,7.8-0.8
		c2.5-1.2,4.4-4.5,7.3-7c2.9-2.6,6.6-4.4,9.8-4.4s5.7,1.8,8,1s4.2-4.3,6.6-5.2c2.3-0.9,5,0.7,7.8-1.5s5.7-8.2,8.4-9.5
		c2.8-1.3,5.5,2.2,8.1,2.4c2.6,0.2,5-2.9,6.8-3c1.8,0,3,3.1,4.9,2.9c1.9-0.3,4.4-3.9,6.7-4.6c2.2-0.7,4,1.4,5.4,2
		c1.4,0.5,2.5-0.5,3.2-4.9c0.1-0.9,0.9-2,1.9-3.2V75H290.4z"/>
	<path class="st4" d="M147.4,119L147.4,119L2.1,67.5v13.3c0.7,0.5,1.3,0.9,1.6,1.4c1.4,2.4,3.6,0.9,5.9,2.7c2.3,1.8,4.5,6.9,7.7,8
		c3.2,1,7.5-2.1,10.7-1.8c3.2,0.4,5.5,4.2,8.7,4.7s7.5-2.2,10.6-1.6c3.2,0.5,5.3,4.4,7.2,7.9c2,3.5,3.8,6.6,6.6,6.6s6.6-3.1,9.3-1.6
		c2.7,1.6,4.4,7.8,6.1,10.1c1.7,2.4,3.5,0.9,5.4,1.6s3.8,3.7,6.5,3.9c2.6,0.3,6-2.1,9.5-1s7.3,6,10.7,8.2c3.4,2.2,6.4,1.8,9.8,2.9
		c3.4,1.1,7.2,3.7,10.3,3.3c3.2-0.4,5.7-3.7,7.7-2.4s3.3,7.1,4.9,10.4c1.6,3.3,3.4,4,5,3.3c0.3-0.1,0.7-0.4,1-0.6V119H147.4z"/>
	
		<ellipse id="path1744-2-2-5_8_" transform="matrix(0.9826 -0.1856 0.1856 0.9826 -33.666 17.567)" class="st1" cx="77" cy="188.6" rx="27.5" ry="30.6"/>
	<path id="path1752-4_8_" class="st5" d="M191.1,15c-11.1,5.9-48.9,26.3-73,53.8s-34.4,62.3-42.6,82s-14.3,24.4-17.2,29.7
		c-3,5.4-2.8,11.4,0.1,16.6c2.9,5.2,8.5,9.5,14.1,10.8s11.2-0.3,15.6-3.9c4.4-3.5,7.6-8.9,7.8-14.6c0.2-5.7-2.7-11.8-3.8-19.7
		c-1.1-7.9-0.3-17.7,4.4-33.3c4.7-15.6,13.3-36.9,26.5-56.3c13.1-19.4,30.8-36.8,47.3-49.7S202.2,9.1,191.1,15z"/>
	<path class="st5" d="M68.6,70.3c0.9-1.4,1.8-2.8,2.7-4.1c9.6-14.1,22.4-26.8,34.5-36.2s23.4-15.6,15.3-11.3S85.4,37.9,67.9,57.9
		c-2.4,2.8-4.2,4.7-6.6,7.4C56.3,70.7,64.6,77,68.6,70.3z"/>
	<path class="st5" d="M188.5,93.9c0.9-1.4,1.8-2.8,2.7-4.1c9.6-14.1,22.4-26.8,34.5-36.2S249.1,38,241,42.3
		c-8.1,4.3-35.7,19.2-53.2,39.2c-2.4,2.8-4.2,4.7-6.6,7.4C176.3,94.4,184.6,100.7,188.5,93.9z"/>
</g>
<g>
	<path id="path882_12_" class="st6" d="M511.6,81.5c-2.1-11.8-7.5-24.6-13.6-35.1s-13-18.8-20.5-22.8s-15.4-3.7-27,3.2
		S423.8,47.3,411,64.2s-23.2,37.1-29,50.2c-5.9,13-7.2,18.9-7.6,23.3c-0.4,4.4,0.1,7.3-2.8,22.4c-2.9,15.1-9.3,42.2-12.9,61
		s-4.4,28.6-4.4,34.9c0,6.3,0.8,8.7,5.9,11.3c5.1,2.6,14.9,5.6,25.7,4.4c10.8-1.2,22.8-6.5,34.6-10.9c11.8-4.4,23.6-7.9,32.6-10.1
		s15.4-3.3,23.3-11.6s17.2-23.7,23.3-45.5s9.1-50.1,11-69.6C512.6,104.5,513.8,93.4,511.6,81.5L511.6,81.5z"/>
	<path id="path882-7_12_" class="st7" d="M511.6,81.5c-2.1-11.8-7.5-24.6-13.6-35.1s-13-18.8-20.5-22.8s-15.4-3.7-27,3.2
		S423.8,47.3,411,64.2s-23.2,37.1-29,50.2c-5.9,13-7.2,18.9-7.6,23.3c-0.4,4.4,0.1,7.3,8,27.4s23,57.4,36.5,74.3
		c13.4,16.9,25.2,13.4,34.2,11.2c9.1-2.3,15.4-3.3,23.3-11.6s17.2-23.7,23.3-45.5s9.1-50.1,11-69.6S513.8,93.4,511.6,81.5
		L511.6,81.5z"/>
	<path id="path882-7-9_12_" class="st6" d="M511.6,81.5c-2.1-11.8-7.5-24.6-13.6-35.1s-13-18.8-20.5-22.8s-15.4-3.7-27,3.2
		s-26.8,20.5-37.3,32.8s-16.4,23.3-20.7,31.5s-7.2,13.7-9.8,22.7s-5.1,21.5,14.9,36.5c20.1,14.9,62.7,32.2,85.4,26.8
		c22.8-5.5,25.7-33.7,27.7-53.3S513.8,93.4,511.6,81.5z"/>
	<path id="path882-8_12_" class="st7" d="M542.5,81.6c2.1-11.8,7.5-24.6,13.6-35.1s13-18.8,20.5-22.8s15.4-3.7,27,3.2
		s26.8,20.5,39.5,37.4c12.8,16.9,23.2,37.1,29,50.2s7.2,18.9,7.6,23.3c0.4,4.4-0.1,7.3,2.8,22.4c2.9,15.1,9.3,42.2,12.9,61
		c3.6,18.8,4.4,28.6,4.4,34.9c0,6.3-0.8,8.7-5.9,11.3c-5.1,2.6-14.9,5.6-25.7,4.4s-22.8-6.5-34.6-10.9S610,253,601,250.8
		c-9.1-2.3-15.4-3.3-23.3-11.6c-7.9-8.3-17.2-23.7-23.3-45.5s-9.1-50.1-11-69.6S540.3,93.4,542.5,81.6L542.5,81.6z"/>
	<path id="path882-7-5_12_" class="st6" d="M542.5,81.6c2.1-11.8,7.5-24.6,13.6-35.1s13-18.8,20.5-22.8s15.4-3.7,27,3.2
		s26.8,20.5,39.5,37.4c12.8,16.9,23.2,37.1,28.7,48.9s6.2,15,7.8,25.4s4.2,28-4.5,56.8s-28.8,68.9-40,63.6s-13.5-56-23.5-77.4
		s-27.7-13.4-38.5-13.7s-14.6-8.7-18.6-18.9s-8-22-10.6-33.4C541.4,104.3,540.3,93.4,542.5,81.6L542.5,81.6z"/>
	<path class="st7" d="M580.2,85.7c-5.4,0.7-15,3.5-22,3.3c-4.2-0.1-12.2-2.8-17.8-9.2h0.3c-0.4-0.9-1.1-1.6-1.9-2
		c-0.6-0.8-1.2-1.7-1.7-2.7c2.2-0.3,3.9-2.1,3.9-4.4c0-2.4-2-4.4-4.4-4.4h-0.8v-2h0.8c2.4,0,4.4-2,4.4-4.4s-2-4.4-4.4-4.4h-0.8v-2
		h0.8c2.4,0,4.4-2,4.4-4.4s-2-4.4-4.4-4.4h-0.8v-2h0.8c2.4,0,4.4-2,4.4-4.4s-2-4.4-4.4-4.4h-0.8v-2h0.8c2.4,0,4.4-2,4.4-4.4
		s-2-4.4-4.4-4.4h-0.8v-2h0.8c2.4,0,4.4-2,4.4-4.4s-2-4.4-4.4-4.4h-0.8v-2h0.8c2.4,0,4.4-2,4.4-4.4c0-1.8-1.1-3.3-2.6-4h-19.5
		c-1.5,0.7-2.6,2.2-2.6,4c0,2.4,2,4.4,4.4,4.4h0.8v2h-0.8c-2.4,0-4.4,2-4.4,4.4s2,4.4,4.4,4.4h0.8v2h-0.8c-2.4,0-4.4,2-4.4,4.4
		s2,4.4,4.4,4.4h0.8v2h-0.8c-2.4,0-4.4,2-4.4,4.4s2,4.4,4.4,4.4h0.8v2h-0.8c-2.4,0-4.4,2-4.4,4.4s2,4.4,4.4,4.4h0.8v2h-0.8
		c-2.4,0-4.4,2-4.4,4.4s2,4.4,4.4,4.4h0.8v2h-0.8c-2.4,0-4.4,2-4.4,4.4s2,4.4,4.4,4.4h0.8V76c-0.3,0.4-0.6,0.7-0.9,1.1
		c-1.7,0.1-3.2,1.1-3.9,2.6h1.4c-7,6.3-17.3,10-20.8,11.3c-5.1,1.8-10.3,1.6-16.6,1.7c-6.2,0.1-13.9,0.5-13.6,1.4s8.2,2.4,14.7,3.7
		c6.5,1.3,11.6,2.4,12.9,5.6c1.3,3.1-1.1,8.3-5.1,11.6c-4,3.2-9.6,4.6-16.5,6.4s-15.3,4.2-15.2,5.1c0.2,0.8,9.2,0.1,14,3.1
		c4.8,3,5.7,9.6,7,13.6c1.2,4,2.7,5.3,3.3,2.2c0.6-3.1,0.2-10.5,2-15.5s5.7-7.6,7.7-8.9s19.5-18.5,22.1-20s7.9-4.4,12.8-5.1
		c4.9-0.6,9.4,1,15.6,6.1c6.2,5.1,14.1,13.6,19.8,18.5s9,6.2,10.9,5.7c1.9-0.6,2.3-3-1-8.1s-10.3-12.9-11.1-17.3
		c-0.8-4.5,4.4-5.6,9.9-7.2c5.5-1.7,11.1-3.9,13.4-5.7C586.7,86.3,585.5,85,580.2,85.7z"/>
</g>
<polyline class="st8" points="648.5,328.3 648.5,345.3 40.4,345.3 40.4,328.3 "/>
<g>
	<path class="st9" d="M236.2,378.1l-0.6,4.8h-6.5v21.5h-6.2v-21.5H216v-4.8H236.2z"/>
	<path class="st9" d="M244.1,374.6c0.7,0.6,1,1.5,1,2.5c0,1-0.3,1.8-1,2.5c-0.7,0.6-1.5,1-2.6,1c-1,0-1.9-0.3-2.5-1
		c-0.7-0.6-1-1.5-1-2.5c0-1,0.3-1.8,1-2.5c0.7-0.6,1.5-1,2.5-1C242.6,373.6,243.4,373.9,244.1,374.6z M244.6,384.2v20.2h-6v-20.2
		H244.6z"/>
	<path class="st9" d="M266.3,386.4c1.2,1.9,1.9,4.5,1.9,7.9c0,2.1-0.3,3.9-1,5.6s-1.6,2.9-2.8,3.8c-1.2,0.9-2.6,1.4-4.3,1.4
		c-2,0-3.7-0.7-4.9-2.1v9.2l-6,0.6v-28.6h5.3l0.3,2.2c0.8-1,1.7-1.7,2.7-2.2c1-0.5,2.1-0.7,3.1-0.7
		C263.2,383.6,265.1,384.5,266.3,386.4z M262,394.3c0-2.4-0.3-4-0.8-5c-0.5-0.9-1.3-1.4-2.4-1.4c-0.7,0-1.3,0.2-1.9,0.6
		c-0.6,0.4-1.1,1-1.6,1.7v8.5c0.8,1.2,1.8,1.8,3.1,1.8C260.8,400.7,262,398.6,262,394.3z"/>
	<path class="st9" d="M289,404.4h-5.2l-0.3-2.5c-1.5,2.1-3.5,3.2-6.1,3.2c-1.8,0-3.2-0.6-4.2-1.7c-0.9-1.1-1.4-2.7-1.4-4.7v-14.5h6
		V398c0,1,0.2,1.7,0.5,2.1c0.3,0.4,0.8,0.6,1.5,0.6c1.3,0,2.4-0.8,3.3-2.4v-14h6V404.4z"/>
	<path class="st9" d="M304.9,384.2c1.3,0.4,2.4,1,3.3,1.8l-2.2,3.4c-1.6-1-3.3-1.6-5-1.6c-0.8,0-1.4,0.1-1.8,0.4
		c-0.4,0.3-0.6,0.6-0.6,1.1c0,0.4,0.1,0.7,0.3,0.9c0.2,0.2,0.6,0.5,1.2,0.7c0.6,0.3,1.5,0.6,2.7,0.9c2.1,0.6,3.7,1.4,4.7,2.4
		c1,1,1.5,2.3,1.5,4c0,1.4-0.4,2.6-1.2,3.6c-0.8,1-1.9,1.8-3.2,2.3c-1.4,0.5-2.9,0.8-4.6,0.8c-1.7,0-3.3-0.3-4.7-0.8
		c-1.5-0.5-2.7-1.3-3.7-2.2l2.9-3.3c1.7,1.3,3.5,2,5.4,2c0.9,0,1.6-0.2,2.1-0.5c0.5-0.3,0.8-0.8,0.8-1.4c0-0.5-0.1-0.9-0.3-1.1
		c-0.2-0.3-0.6-0.5-1.2-0.8c-0.6-0.2-1.5-0.5-2.8-0.9c-2-0.6-3.5-1.4-4.5-2.4c-1-1-1.5-2.3-1.5-3.9c0-1.2,0.3-2.2,1-3.1
		c0.7-0.9,1.6-1.7,2.9-2.2c1.3-0.5,2.7-0.8,4.4-0.8C302.3,383.6,303.6,383.8,304.9,384.2z"/>
	<path class="st9" d="M339.1,376.2v28.2h-5.3l-0.3-2.4c-1.4,2-3.3,3-5.7,3c-2.5,0-4.4-1-5.7-2.9c-1.3-1.9-2-4.6-2-7.9
		c0-2.1,0.3-3.9,1-5.5c0.7-1.6,1.7-2.9,2.9-3.8s2.7-1.4,4.3-1.4c1.9,0,3.5,0.6,4.8,1.9v-9.9L339.1,376.2z M333.1,398.4v-8.7
		c-0.5-0.6-1-1-1.5-1.3c-0.5-0.3-1.1-0.4-1.7-0.4c-1.1,0-2,0.5-2.7,1.6c-0.7,1-1,2.6-1,4.8c0,2.4,0.3,4,0.9,4.9
		c0.6,0.9,1.4,1.4,2.5,1.4C331,400.7,332.2,399.9,333.1,398.4z"/>
	<path class="st9" d="M361.3,396.1h-12.5c0.2,1.7,0.7,2.9,1.4,3.6s1.8,1,3.2,1c0.8,0,1.6-0.1,2.4-0.4c0.8-0.3,1.6-0.7,2.5-1.3
		l2.5,3.3c-2.4,1.9-5,2.8-7.9,2.8c-3.3,0-5.8-1-7.5-2.9c-1.7-1.9-2.6-4.5-2.6-7.8c0-2.1,0.4-3.9,1.1-5.5c0.7-1.6,1.8-2.9,3.2-3.9
		c1.4-0.9,3.1-1.4,5.1-1.4c2.9,0,5.2,0.9,6.8,2.7c1.6,1.8,2.5,4.4,2.5,7.6C361.5,394.8,361.4,395.5,361.3,396.1z M355.6,392.2
		c-0.1-3.1-1.1-4.6-3.3-4.6c-1,0-1.8,0.4-2.4,1.1c-0.6,0.8-0.9,2-1,3.8h6.7V392.2z"/>
	<path class="st9" d="M386.3,384.2c1.1,0.4,2.2,1,3.2,1.9l-2.6,3.6c-1.3-1-2.5-1.4-3.8-1.4c-1.3,0-2.4,0.5-3,1.5c-0.7,1-1,2.6-1,4.8
		c0,2.1,0.3,3.6,1,4.5c0.7,0.9,1.7,1.3,3,1.3c0.7,0,1.3-0.1,1.9-0.3c0.6-0.2,1.2-0.6,2-1l2.6,3.7c-2,1.6-4.3,2.4-6.8,2.4
		c-2.1,0-3.8-0.4-5.3-1.3s-2.6-2.1-3.5-3.7s-1.2-3.4-1.2-5.6s0.4-4,1.2-5.7c0.8-1.6,2-2.9,3.5-3.9s3.2-1.4,5.2-1.4
		C384,383.6,385.2,383.8,386.3,384.2z"/>
	<path class="st9" d="M408,400.2c0.2,0.4,0.6,0.6,1,0.8l-1.3,3.9c-1.2-0.1-2.3-0.4-3-0.8c-0.8-0.4-1.4-1.1-1.8-2.1
		c-1.3,2-3.3,3-6.1,3c-2,0-3.6-0.6-4.8-1.7c-1.2-1.2-1.8-2.7-1.8-4.6c0-2.2,0.8-3.9,2.4-5.1s4-1.7,7-1.7h2.1v-0.9
		c0-1.2-0.3-2-0.8-2.5c-0.5-0.4-1.4-0.7-2.7-0.7c-0.7,0-1.5,0.1-2.4,0.3c-0.9,0.2-1.9,0.5-2.9,0.8l-1.4-4c1.3-0.5,2.6-0.8,3.9-1.1
		c1.3-0.3,2.6-0.4,3.7-0.4c2.9,0,5,0.6,6.3,1.8c1.3,1.2,2,3,2,5.4v7.8C407.7,399.3,407.8,399.9,408,400.2z M397,372.7l8.3,5
		l-1.7,3.1l-9-3.6L397,372.7z M401.8,398.8v-3.6h-1.5c-1.4,0-2.4,0.2-3.1,0.7c-0.7,0.5-1,1.2-1,2.2c0,0.8,0.2,1.4,0.6,1.9
		c0.4,0.4,1,0.7,1.7,0.7C400,400.8,401,400.1,401.8,398.8z"/>
	<path class="st9" d="M428.4,385.2c1,1.1,1.5,2.6,1.5,4.5v14.7h-6v-13.7c0-1-0.2-1.7-0.5-2.1c-0.3-0.4-0.8-0.6-1.4-0.6
		c-1.2,0-2.4,0.9-3.5,2.6v13.8h-6v-20.2h5.2l0.4,2.4c0.9-1,1.8-1.8,2.8-2.3c1-0.5,2.1-0.8,3.4-0.8
		C426.1,383.6,427.4,384.1,428.4,385.2z"/>
	<path class="st9" d="M446.9,384.2c1.1,0.4,2.2,1,3.2,1.9l-2.6,3.6c-1.3-1-2.5-1.4-3.8-1.4c-1.3,0-2.4,0.5-3,1.5c-0.7,1-1,2.6-1,4.8
		c0,2.1,0.3,3.6,1,4.5c0.7,0.9,1.7,1.3,3,1.3c0.7,0,1.3-0.1,1.9-0.3c0.6-0.2,1.2-0.6,2-1l2.6,3.7c-2,1.6-4.3,2.4-6.8,2.4
		c-2.1,0-3.8-0.4-5.3-1.3s-2.6-2.1-3.5-3.7s-1.2-3.4-1.2-5.6s0.4-4,1.2-5.7c0.8-1.6,2-2.9,3.5-3.9s3.2-1.4,5.2-1.4
		C444.5,383.6,445.8,383.8,446.9,384.2z"/>
	<path class="st9" d="M469.3,396.1h-12.5c0.2,1.7,0.7,2.9,1.4,3.6c0.8,0.7,1.8,1,3.2,1c0.8,0,1.6-0.1,2.4-0.4
		c0.8-0.3,1.6-0.7,2.5-1.3l2.5,3.3c-2.4,1.9-5,2.8-7.9,2.8c-3.3,0-5.8-1-7.5-2.9c-1.7-1.9-2.6-4.5-2.6-7.8c0-2.1,0.4-3.9,1.1-5.5
		c0.7-1.6,1.8-2.9,3.2-3.9c1.4-0.9,3.1-1.4,5.1-1.4c2.9,0,5.2,0.9,6.8,2.7c1.6,1.8,2.5,4.4,2.5,7.6
		C469.4,394.8,469.4,395.5,469.3,396.1z M463.6,392.2c-0.1-3.1-1.1-4.6-3.3-4.6c-1,0-1.8,0.4-2.4,1.1c-0.6,0.8-0.9,2-1,3.8h6.7
		V392.2z"/>
	<path class="st9" d="M485.8,383.9l-1,5.8c-0.8-0.2-1.4-0.3-1.8-0.3c-1.2,0-2.1,0.4-2.7,1.2c-0.6,0.8-1.1,2.1-1.5,3.7v10h-6v-20.2
		h5.2l0.5,3.9c0.5-1.4,1.1-2.5,2.1-3.3s2-1.2,3.1-1.2C484.5,383.7,485.2,383.8,485.8,383.9z"/>
</g>
</svg>
