<?xml version="1.0" encoding="utf-8"?>
<!-- Generator: Adobe Illustrator 24.1.0, SVG Export Plug-In . SVG Version: 6.00 Build 0)  -->
<svg version="1.1" id="Capa_1" xmlns="http://www.w3.org/2000/svg" xmlns:xlink="http://www.w3.org/1999/xlink" x="0px" y="0px"
	 viewBox="0 0 425 425" style="enable-background:new 0 0 425 425;" xml:space="preserve">
<style type="text/css">
	.st0{fill:#FFCC33;}
	.st1{fill:#EFF4EF;}
	.st2{fill:#483737;}
	.st3{fill:#373A47;}
	.st4{fill:#C0D9DF;}
</style>
<g id="g982-3-9_10_" transform="translate(153.38468,-47.595464)">
	<g>
		
			<rect id="rect890-1_10_" x="98.7" y="199.2" transform="matrix(0.7071 -0.7071 0.7071 0.7071 -115.7014 152.2786)" class="st0" width="54.5" height="33.2"/>
		
			<rect id="rect890-7-7_10_" x="-0.4" y="262.8" transform="matrix(0.7071 -0.7071 0.7071 0.7071 -179.3415 125.918)" class="st1" width="125.5" height="33.2"/>
		
			<rect id="rect890-7-6-7_10_" x="-6.3" y="315.7" transform="matrix(0.7071 -0.7071 0.7071 0.7071 -232.2173 104.0162)" class="st2" width="31.6" height="33.2"/>
		<path id="rect890-7-6-4-1_10_" class="st3" d="M-12.8,331l13.3-13.3c3.2-3.2,8.5-3.2,11.8,0L24,329.5c3.2,3.2,3.2,8.5,0,11.8
			l-13.3,13.3c-3.2,3.2-8.5,3.2-11.8,0l-11.8-11.8C-16,339.5-16,334.3-12.8,331z"/>
	</g>
	<path id="path973-1_9_" class="st4" d="M-16.9,303.8c0.5-3.6,1.5-10.8,5.6-17.3c4-6.5,11-12.3,15.1-18.9s5.4-14.4,2.8-22.3
		c-2.6-7.8-9-15.9-12-22.1c-3-6.2-2.6-10.9-0.5-13.7c2.1-2.8,5.8-3.8,10.5-3.8c4.7,0,10.5,1,8.8-1.6c-1.8-2.7-11-9.1-20.9-10
		S-27.9,197.7-33,205c-5.1,7.3-4.6,17.8-0.7,25.5s11.3,12.6,14.9,16.9c3.6,4.3,3.4,8,1.4,12.8c-2,4.7-5.7,10.5-7.6,16.5
		c-2,6-2.2,12.2-0.6,17.3c1.5,5.2,4.8,9.3,6.5,11.3C-17.4,307.4-17.4,307.4-16.9,303.8L-16.9,303.8z"/>
</g>
</svg>
