<?xml version="1.0" encoding="utf-8"?>
<!-- Generator: Adobe Illustrator 24.1.0, SVG Export Plug-In . SVG Version: 6.00 Build 0)  -->
<svg version="1.1" id="Capa_1" xmlns="http://www.w3.org/2000/svg" xmlns:xlink="http://www.w3.org/1999/xlink" x="0px" y="0px"
	 viewBox="0 0 425 425" style="enable-background:new 0 0 425 425;" xml:space="preserve">
<style type="text/css">
	.st0{fill:#79AEB2;}
	.st1{fill:#FFCC33;}
	.st2{fill:#EFF4EF;}
	.st3{fill:#C0D9DF;}
	.st4{fill:#5C5F68;}
	.st5{fill:#483737;}
	.st6{fill:#373A47;}
</style>
<g>
	<g id="_x31_">
		<path class="st0" d="M303,352.3V128.2c0-7.2-5.8-13-13-13H135c-7.2,0-13,5.8-13,13v224.1c0,7.2,5.8,13,13,13H290
			C297.2,365.3,303,359.5,303,352.3z"/>
		<polygon class="st1" points="143,58 135.1,58 135.1,116.2 143,116.2 157.9,116.2 157.9,58 		"/>
		<polygon class="st2" points="184.5,185 184.5,126.1 169.5,126.1 161.6,126.1 161.6,185 		"/>
		<polygon class="st1" points="169.5,67.8 161.6,67.8 161.6,126.1 169.5,126.1 184.5,126.1 184.5,67.8 		"/>
		<polygon class="st2" points="211,185 211,135.9 196,135.9 188.2,135.9 188.2,185 		"/>
		<polygon class="st1" points="196,77.7 188.2,77.7 188.2,135.9 196,135.9 211,135.9 211,77.7 		"/>
		<polygon class="st2" points="237.6,185 237.6,145.7 222.6,145.7 214.7,145.7 214.7,185 		"/>
		<polygon class="st1" points="222.6,87.5 214.7,87.5 214.7,145.7 222.6,145.7 237.6,145.7 237.6,87.5 		"/>
		<polygon class="st2" points="264.1,185 264.1,155.6 249.1,155.6 241.3,155.6 241.3,185 		"/>
		<polygon class="st1" points="249.1,97.3 241.3,97.3 241.3,155.6 249.1,155.6 264.1,155.6 264.1,97.3 		"/>
		<path class="st2" d="M274.7,185c3.6,0,7-1.9,8.9-4.9c2.2-3.6,5.8-5.1,9.2-4.9v-18.3h-15H270V185H274.7z"/>
		<polygon class="st1" points="277.8,98.6 270,98.6 270,156.8 277.8,156.8 292.8,156.8 292.8,98.6 		"/>
		<path class="st2" d="M141.4,180.1c1.9,3.1,5.3,4.9,8.9,4.9h7.6v-68.7h-15h-7.9v59.2C137.5,176,139.8,177.5,141.4,180.1z"/>
		<g>
			<path class="st3" d="M274.7,185H150.3c-3.6,0-7-1.9-8.9-4.9l0,0c-5.6-8.9-19.4-5-19.4,5.6v169.9c0,5.8,4.7,10.5,10.5,10.5h160
				c5.8,0,10.5-4.7,10.5-10.5V185.6c0-10.5-13.8-14.5-19.4-5.6l0,0C281.7,183.1,278.3,185,274.7,185z"/>
		</g>
	</g>
	<g id="g982-3-9_11_" transform="translate(153.38468,-47.595464)">
		<path id="path973-1_10_" class="st4" d="M24.9,343.1c0.6-2.9,1.8-8.8,5.4-13.9c3.6-5.1,9.6-9.5,13.3-14.7
			c3.7-5.2,5.1-11.5,3.4-18.1c-1.7-6.5-6.6-13.4-8.7-18.6c-2.2-5.2-1.6-9.1,0.2-11.2c1.8-2.2,4.9-2.8,8.8-2.6
			c3.9,0.2,8.6,1.4,7.2-0.9c-1.3-2.3-8.6-8-16.6-9.2s-16.9,2-21.4,7.7c-4.5,5.7-4.7,14.4-1.8,20.8c2.8,6.4,8.7,10.8,11.4,14.5
			c2.7,3.7,2.4,6.7,0.6,10.5c-1.8,3.8-5.1,8.3-7,13.1c-1.9,4.8-2.4,9.8-1.3,14.1c1,4.3,3.5,7.8,4.8,9.6
			C24.3,346.1,24.3,346.1,24.9,343.1L24.9,343.1z"/>
		<g>
			
				<rect id="rect890-1_11_" x="82.2" y="294.8" transform="matrix(0.7071 -0.7071 0.7071 0.7071 -186.2285 156.3084)" class="st1" width="26.6" height="16.2"/>
			
				<rect id="rect890-7-7_11_" x="33.8" y="325.9" transform="matrix(0.7071 -0.7071 0.7071 0.7071 -217.3421 143.4207)" class="st2" width="61.4" height="16.2"/>
			
				<rect id="rect890-7-6-7_11_" x="30.9" y="351.8" transform="matrix(0.7071 -0.7071 0.7071 0.7071 -243.193 132.7129)" class="st5" width="15.4" height="16.2"/>
			<path id="rect890-7-6-4-1_11_" class="st6" d="M27.7,359.3l6.5-6.5c1.6-1.6,4.2-1.6,5.7,0l5.7,5.7c1.6,1.6,1.6,4.2,0,5.7
				l-6.5,6.5c-1.6,1.6-4.2,1.6-5.7,0l-5.7-5.7C26.2,363.4,26.2,360.9,27.7,359.3z"/>
		</g>
	</g>
</g>
</svg>
