<?xml version="1.0" encoding="utf-8"?>
<!-- Generator: Adobe Illustrator 24.1.0, SVG Export Plug-In . SVG Version: 6.00 Build 0)  -->
<svg version="1.1" id="Capa_1" xmlns="http://www.w3.org/2000/svg" xmlns:xlink="http://www.w3.org/1999/xlink" x="0px" y="0px"
	 viewBox="0 0 885.4 888.7" style="enable-background:new 0 0 885.4 888.7;" xml:space="preserve">
<style type="text/css">
	.st0{fill:none;stroke:#CC6633;stroke-miterlimit:10;}
	.st1{fill:#E8C0A6;}
	.st2{opacity:0.4;fill:#F2F4F2;enable-background:new    ;}
	.st3{fill:#F4DDCE;}
	.st4{opacity:0.5;fill:#FA7F43;enable-background:new    ;}
	.st5{fill:#FA7F43;}
	.st6{fill:#502D16;}
	.st7{fill:#FFCC33;}
	.st8{fill:none;stroke:#64AAB2;stroke-miterlimit:10;}
	.st9{fill:#E0EADF;}
	.st10{fill:#C0D9DF;}
	.st11{fill:#EFF4EF;}
	.st12{fill:#483737;}
	.st13{fill:#373A47;}
	.st14{fill:#5C5F68;}
	.st15{font-family:'FiraSans-Bold';}
	.st16{font-size:35px;}
	.st17{fill:#CCCC66;}
	.st18{fill:none;stroke:#CCCC66;stroke-miterlimit:10;}
	.st19{fill:#E5E8EA;}
	.st20{fill:#CC3742;}
	.st21{fill:#A02A38;}
	.st22{fill:#242535;}
	.st23{fill:#C4CBCE;}
</style>
<g>
	<path id="path827-4_60_" class="st0" d="M422,133.4c12.8,27.7,19.9,58.5,19.9,91c0,120.3-97.5,217.8-217.8,217.8
		S6.3,344.7,6.3,224.4S103.8,6.7,224.1,6.7c43.9,0,84.7,13,118.9,35.3"/>
	<g>
		<path id="path1727-1-9-4_7_" class="st1" d="M64.4,162.4v140.2l162.7,108.6L392,321.5l0.5-150.3"/>
		<path id="path1934-1_7_" class="st2" d="M229.7,219.7l-2.6,191.4l164.3-87.9l1-152L229.7,219.7z"/>
		<path id="path1721-7_7_" class="st3" d="M64.4,162.4c29.3-4.8,152.5-31.4,152.5-31.4l175.6,39.9L229.7,221L64.4,162.4z"/>
		<path class="st4" d="M392.4,170.9l-162.6,50v31.9c1.5-1.1,2.8-2.9,4.1-3.8c1.6-1.1,3.2-0.9,4.3,0.2c1.1,1.1,1.8,3.2,3.3,2.7
			s3.9-3.6,6.5-4s5.3,1.9,8.5,0.4c3.2-1.5,6.8-6.6,11-9.1s9-2.3,12.3-3.3s5.2-3.3,7.9-3.9c2.7-0.6,6.1,0.4,8.9-0.9
			c2.8-1.4,5.1-5.1,8.3-8c3.3-2.9,7.5-5,11.1-5s6.5,2.1,9.1,1.1c2.6-0.9,4.8-4.9,7.5-5.9s5.7,0.8,8.9-1.7c3.2-2.5,6.4-9.3,9.6-10.8
			s6.3,2.5,9.2,2.7c2.9,0.2,5.7-3.3,7.7-3.4c2,0,3.4,3.6,5.6,3.3c2.1-0.3,5.1-4.5,7.6-5.2c2.5-0.8,4.5,1.6,6.1,2.2
			c1.6,0.6,2.8-0.6,3.6-5.6c0.2-1,1-2.2,2.2-3.6V171L392.4,170.9z"/>
		<path class="st5" d="M229.8,220.9h-0.1l-165-58.4v15.2c0.8,0.6,1.5,1.1,1.8,1.6c1.5,2.7,4.1,1,6.7,3.1s5.1,7.9,8.8,9.1
			c3.6,1.2,8.5-2.4,12.2-2s6.3,4.8,9.9,5.4c3.7,0.6,8.5-2.5,12.1-1.9s6,5,8.2,8.9s4.3,7.5,7.5,7.5s7.5-3.5,10.5-1.8
			c3.1,1.8,5,8.8,6.9,11.5c2,2.7,4,1,6.2,1.9c2.1,0.8,4.4,4.2,7.4,4.5s6.8-2.4,10.8-1.1c4,1.3,8.4,6.8,12.2,9.3
			c3.9,2.5,7.3,2.1,11.1,3.3c3.9,1.2,8.1,4.2,11.7,3.7c3.6-0.4,6.5-4.2,8.7-2.7s3.8,8.1,5.6,11.8s3.9,4.6,5.7,3.7
			c0.4-0.2,0.7-0.4,1.1-0.7L229.8,220.9L229.8,220.9z"/>
		
			<ellipse id="path1744-2-2-5_7_" transform="matrix(0.9826 -0.1856 0.1856 0.9826 -53.1144 33.0188)" class="st2" cx="149.8" cy="300.2" rx="31.3" ry="34.8"/>
		<path id="path1752-4_7_" class="st6" d="M279.5,102.8c-12.7,6.7-55.6,29.9-83,61.2s-39.1,70.8-48.5,93.2
			c-9.3,22.4-16.2,27.7-19.6,33.8c-3.4,6.1-3.2,13,0.1,18.9s9.6,10.8,16,12.3s12.8-0.4,17.8-4.4s8.7-10.1,8.9-16.6
			s-3.1-13.4-4.3-22.4s-0.4-20.2,5-37.9c5.3-17.7,15.1-42,30.1-64c14.9-22,35-41.8,53.8-56.5S292.1,96.1,279.5,102.8z"/>
		<path class="st6" d="M140.2,165.6c1-1.6,2-3.2,3-4.7c10.9-16.1,25.5-30.5,39.2-41.2s26.6-17.8,17.3-12.9
			c-9.2,4.9-40.5,21.8-60.5,44.6c-2.8,3.2-4.7,5.3-7.5,8.4C126.3,166.1,135.7,173.3,140.2,165.6z"/>
		<path class="st6" d="M276.6,192.5c1-1.6,2-3.2,3-4.7c10.9-16.1,25.5-30.5,39.2-41.2s26.6-17.8,17.3-12.9
			c-9.2,4.9-40.5,21.8-60.5,44.6c-2.8,3.2-4.7,5.3-7.5,8.4C262.7,193,272.1,200.1,276.6,192.5z"/>
	</g>
	<g id="g1119-1_9_" transform="matrix(1.0608564,0,0,1.0716716,-83.467849,116.01381)">
		<ellipse id="path901-5_9_" class="st7" cx="443.7" cy="-30.7" rx="25" ry="24.3"/>
		<g id="g949-9_9_" transform="translate(26.906414,18.994667)">
			<rect id="rect903-7-7_9_" x="413" y="-21.8" class="st7" width="7.8" height="15.9"/>
			<rect id="rect903-7-6-7_9_" x="413" y="-93.5" class="st7" width="7.8" height="15.9"/>
		</g>
		<g id="g949-4-6_9_" transform="matrix(0,1,1,0,190.97087,-145.0698)">
			<polygon id="rect903-7-3-7_9_" class="st7" points="110.4,280.8 110.4,296.5 110.4,296.5 			"/>
			<polygon id="rect903-7-6-0-3_9_" class="st7" points="110.4,209.1 110.4,224.8 110.4,224.8 			"/>
		</g>
		<g id="g949-4-3-6_9_" transform="matrix(-0.66755944,0.74455652,0.74455652,0.66755944,314.75668,-109.52896)">
			<polygon id="rect903-7-3-0-56_9_" class="st7" points="-31.3,176.5 -23.6,176.5 -23.6,192.4 -31.3,192.4 			"/>
			<polygon id="rect903-7-6-0-9-3_9_" class="st7" points="-31.3,104.9 -23.6,104.9 -23.6,120.7 -31.3,120.7 			"/>
		</g>
		<g id="g949-4-3-0-9_9_" transform="matrix(-0.74455652,-0.66755944,-0.66755944,0.74455652,350.40021,142.78048)">
			<polygon id="rect903-7-3-0-5-4_9_" class="st7" points="42.4,-163.6 50.2,-163.6 50.2,-147.7 42.4,-147.7 			"/>
			<polygon id="rect903-7-6-0-9-9-8_9_" class="st7" points="42.4,-235.3 50.2,-235.3 50.2,-219.4 42.4,-219.4 			"/>
		</g>
	</g>
</g>
<g>
	<g>
		<path id="path827-4_61_" class="st8" d="M736.3,542.1c-23.1,8.4-48.1,12.9-74.1,12.9c-120.3,0-217.8-97.5-217.8-217.8
			S542,119.5,662.3,119.5S880,217,880,337.2c0,58.7-23.2,111.9-61,151.1"/>
		<g>
			<path id="path882_5_" class="st9" d="M648.7,276.7c-2-11.1-7-23.1-12.8-33s-12.3-17.6-19.3-21.4c-7-3.8-14.5-3.5-25.4,3
				s-25.1,19.3-37.1,35.1c-12,15.9-21.8,34.9-27.3,47.2c-5.5,12.3-6.8,17.8-7.1,21.9c-0.4,4.1,0.1,6.9-2.6,21
				c-2.8,14.1-8.8,39.6-12.1,57.3c-3.4,17.6-4.1,26.9-4.1,32.8s0.7,8.1,5.5,10.6s14,5.3,24.1,4.2c10.1-1.1,21.4-6.1,32.5-10.3
				c11.1-4.1,22.1-7.4,30.6-9.5s14.5-3.1,21.9-10.9s16.1-22.3,21.9-42.8c5.8-20.5,8.5-47,10.4-65.4S650.7,287.8,648.7,276.7
				L648.7,276.7z"/>
			<path id="path882-7_5_" class="st10" d="M648.7,276.7c-2-11.1-7-23.1-12.8-33s-12.3-17.6-19.3-21.4c-7-3.8-14.5-3.5-25.4,3
				s-25.1,19.3-37.1,35.1c-12,15.9-21.8,34.9-27.3,47.2c-5.5,12.3-6.8,17.8-7.1,21.9c-0.4,4.1,0.1,6.9,7.5,25.8s21.6,53.9,34.3,69.8
				c12.6,15.9,23.6,12.6,32.1,10.5s14.5-3.1,21.9-10.9s16.1-22.3,21.9-42.8c5.8-20.5,8.5-47,10.4-65.4
				C649.7,298.1,650.7,287.8,648.7,276.7L648.7,276.7z"/>
			<path id="path882-7-9_5_" class="st9" d="M648.7,276.7c-2-11.1-7-23.1-12.8-33s-12.3-17.6-19.3-21.4c-7-3.8-14.5-3.5-25.4,3
				s-25.1,19.3-35,30.8c-9.9,11.6-15.4,21.9-19.5,29.6s-6.8,12.9-9.3,21.4s-4.8,20.2,14,34.2s58.9,30.3,80.3,25.2
				c21.4-5.1,24.1-31.6,26-50S650.7,287.8,648.7,276.7z"/>
			<path id="path882-8_5_" class="st10" d="M677.6,276.7c2-11.1,7-23.1,12.8-33s12.3-17.6,19.3-21.4c7-3.8,14.5-3.5,25.4,3
				s25.1,19.3,37.1,35.1s21.8,34.9,27.3,47.2c5.5,12.3,6.8,17.8,7.1,21.9c0.4,4.1-0.1,6.9,2.6,21c2.8,14.1,8.8,39.6,12.1,57.3
				c3.4,17.6,4.1,26.9,4.1,32.8s-0.7,8.1-5.5,10.6s-14,5.3-24.1,4.2c-10.1-1.1-21.4-6.1-32.5-10.3c-11.1-4.1-22.1-7.4-30.6-9.5
				s-14.5-3.1-21.9-10.9s-16.1-22.3-21.9-42.8c-5.8-20.5-8.5-47-10.4-65.4C676.6,298.1,675.6,287.9,677.6,276.7L677.6,276.7z"/>
			<path id="path882-7-5_5_" class="st9" d="M677.6,276.7c2-11.1,7-23.1,12.8-33s12.3-17.6,19.3-21.4c7-3.8,14.5-3.5,25.4,3
				s25.1,19.3,37.1,35.1s21.8,34.9,26.9,45.9c5.2,11,5.8,14.1,7.3,23.9s4,26.3-4.2,53.4s-27.1,64.8-37.6,59.8
				c-10.5-5-12.7-52.6-22.1-72.7s-26-12.6-36.1-12.8c-10.1-0.2-13.7-8.2-17.5-17.7c-3.7-9.5-7.5-20.7-9.9-31.4
				C676.6,298.1,675.6,287.9,677.6,276.7L677.6,276.7z"/>
			<path class="st10" d="M713.1,280.6c-5,0.7-14.1,3.3-20.6,3.1c-4-0.1-11.4-2.7-16.7-8.6h0.3c-0.4-0.8-1-1.5-1.8-1.9
				c-0.6-0.8-1.1-1.6-1.6-2.5c2.1-0.2,3.7-2,3.7-4.1c0-2.3-1.9-4.2-4.2-4.2h-0.8v-1.9h0.8c2.3,0,4.2-1.9,4.2-4.2
				c0-2.3-1.9-4.2-4.2-4.2h-0.8v-1.9h0.8c2.3,0,4.2-1.9,4.2-4.2s-1.9-4.2-4.2-4.2h-0.8v-1.9h0.8c2.3,0,4.2-1.9,4.2-4.2
				s-1.9-4.2-4.2-4.2h-0.8v-1.9h0.8c2.3,0,4.2-1.9,4.2-4.2s-1.9-4.2-4.2-4.2h-0.8v-1.9h0.8c2.3,0,4.2-1.9,4.2-4.2s-1.9-4.2-4.2-4.2
				h-0.8V209h0.8c2.3,0,4.2-1.9,4.2-4.2c0-1.7-1-3.1-2.4-3.8h-18.3c-1.4,0.7-2.4,2.1-2.4,3.8c0,2.3,1.9,4.2,4.2,4.2h0.8v1.9h-0.8
				c-2.3,0-4.2,1.9-4.2,4.2s1.9,4.2,4.2,4.2h0.8v1.9h-0.8c-2.3,0-4.2,1.9-4.2,4.2s1.9,4.2,4.2,4.2h0.8v1.9h-0.8
				c-2.3,0-4.2,1.9-4.2,4.2s1.9,4.2,4.2,4.2h0.8v1.9h-0.8c-2.3,0-4.2,1.9-4.2,4.2s1.9,4.2,4.2,4.2h0.8v1.9h-0.8
				c-2.3,0-4.2,1.9-4.2,4.2c0,2.3,1.9,4.2,4.2,4.2h0.8v1.9h-0.8c-2.3,0-4.2,1.9-4.2,4.2c0,2.3,1.9,4.2,4.2,4.2h0.8v0.8
				c-0.3,0.4-0.6,0.7-0.9,1.1c-1.6,0-3.1,1-3.7,2.5h1.3c-6.5,5.9-16.3,9.4-19.5,10.6c-4.8,1.7-9.7,1.5-15.6,1.6
				c-5.8,0.1-13.1,0.4-12.8,1.3s7.7,2.3,13.8,3.5s10.9,2.3,12.1,5.2c1.2,3-1.1,7.8-4.8,10.9c-3.7,3-9,4.3-15.5,6s-14.4,4-14.2,4.8
				s8.7,0.1,13.2,2.9s5.4,9.1,6.6,12.8c1.1,3.7,2.6,5,3.1,2.1s0.2-9.8,1.9-14.5s5.4-7.1,7.3-8.4c1.9-1.2,18.3-17.4,20.8-18.8
				s7.4-4.2,12-4.8c4.6-0.6,8.8,1,14.7,5.7c5.8,4.8,13.3,12.8,18.6,17.4s8.5,5.8,10.3,5.3s2.1-2.8-1-7.6
				c-3.1-4.8-9.6-12.1-10.4-16.3c-0.8-4.2,4.2-5.2,9.3-6.8c5.1-1.6,10.4-3.7,12.6-5.3C719.2,281.2,718.1,279.9,713.1,280.6z"/>
		</g>
	</g>
	<g id="g1654-0_4_" transform="translate(230.73165,105.09168)">
		<g id="g982-3-9_4_" transform="translate(153.38468,-47.595464)">
			<rect id="rect890-1_4_" x="395" y="444.1" class="st7" width="44.5" height="27.2"/>
			<rect id="rect890-7-7_4_" x="292.4" y="444.1" class="st11" width="102.6" height="27.2"/>
			<rect id="rect890-7-6-7_4_" x="269.7" y="444.1" class="st12" width="25.8" height="27.2"/>
			<path id="rect890-7-6-4-1_4_" class="st13" d="M270.5,444.1h15.4c3.8,0,6.8,3,6.8,6.8v13.6c0,3.8-3,6.8-6.8,6.8h-15.4
				c-3.8,0-6.8-3-6.8-6.8v-13.6C263.7,447.1,266.8,444.1,270.5,444.1z"/>
			<path id="path973-1_4_" class="st14" d="M281.3,425.9c0.4-2.9,1.3-8.8,4.5-14.2c3.3-5.3,9-10,12.4-15.4s4.4-11.8,2.3-18.2
				c-2.1-6.4-7.3-13-9.8-18c-2.5-5.1-2.1-8.9-0.4-11.2c1.7-2.3,4.7-3.1,8.6-3.1s8.6,0.8,7.2-1.3c-1.4-2.2-9-7.4-17.1-8.2
				s-16.7,3-20.8,8.9c-4.1,6-3.8,14.6-0.6,20.8s9.3,10.3,12.2,13.8c2.9,3.5,2.8,6.6,1.2,10.4c-1.6,3.9-4.6,8.6-6.2,13.5
				s-1.8,9.9-0.5,14.2c1.3,4.2,4,7.6,5.3,9.3C280.9,428.9,280.9,428.9,281.3,425.9L281.3,425.9z"/>
		</g>
	</g>
</g>
<g>
	<g>
		<polygon class="st13" points="71.4,832.7 50.3,832.7 50.3,840.3 31.7,821.7 50.3,803.1 50.3,810.7 71.4,810.7 		"/>
	</g>
</g>
<text transform="matrix(1 0 0 1 181.2841 55.5872)" class="st5 st15 st16">Llum</text>
<text transform="matrix(1 0 0 1 122.6841 90.5872)" class="st5 st15 st16">ultraviolada</text>
<text transform="matrix(1 0 0 1 614.1735 184.618)" class="st10 st15 st16">Tabac</text>
<text transform="matrix(1 0 0 1 308.883 510.618)" class="st17 st15 st16">Edat</text>
<g>
	<path class="st18" d="M523.1,785.2c0.6-0.8,1.1-1.6,1.7-2.5c0.1-0.1,0.2-0.2,0.3-0.4c0.2-0.3,0.4-0.6,0.6-1
		c0.8-1.2,1.5-2.3,2.3-3.5c0.2-0.3,0.3-0.5,0.5-0.8c0.8-1.3,1.7-2.7,2.5-4c0.1-0.2,0.2-0.4,0.3-0.6c0.8-1.4,1.7-2.8,2.5-4.2
		c0.1-0.2,0.2-0.3,0.3-0.5c0.8-1.4,1.6-2.8,2.3-4.3c0.1-0.2,0.2-0.4,0.3-0.6c0.7-1.4,1.4-2.8,2.1-4.2c0.1-0.3,0.3-0.5,0.4-0.8
		c0.6-1.3,1.3-2.6,1.9-3.9c0.2-0.4,0.3-0.7,0.5-1.1c0.6-1.2,1.1-2.4,1.6-3.6c0.2-0.5,0.4-1,0.6-1.5c0.5-1.1,0.9-2.2,1.4-3.3
		c0.3-0.6,0.5-1.3,0.8-1.9c0.4-0.9,0.7-1.9,1.1-2.8c0.3-0.8,0.6-1.6,0.9-2.4c0.3-0.8,0.6-1.6,0.9-2.4c0.3-1,0.7-1.9,1-2.9
		c0.2-0.6,0.4-1.2,0.6-1.8c0.4-1.2,0.8-2.3,1.1-3.5c0.1-0.4,0.3-0.9,0.4-1.3c0.4-1.3,0.8-2.7,1.2-4.1c0.1-0.2,0.1-0.5,0.2-0.7
		c0.4-1.6,0.9-3.1,1.3-4.7c0-0.1,0-0.1,0-0.2c6.4-24.7,8.2-50.1,5.8-75c-2.6-27.1-10.1-52.7-21.6-76c-0.1-0.3-0.3-0.5-0.4-0.8
		c-0.6-1.1-1.1-2.2-1.7-3.3c-0.4-0.7-0.7-1.3-1.1-2c-0.4-0.7-0.7-1.3-1.1-2c-0.6-1.1-1.2-2.2-1.8-3.2c-0.1-0.3-0.3-0.5-0.4-0.8
		c-13-22.5-30.1-43-51.3-60.1c-18-14.6-38.3-26.5-60.4-34.8c-0.2-0.1-0.3-0.1-0.5-0.2c-1.4-0.5-2.8-1-4.2-1.5
		c-0.4-0.1-0.8-0.3-1.2-0.4c-1.1-0.4-2.3-0.8-3.4-1.2c-0.6-0.2-1.3-0.4-1.9-0.6c-0.9-0.3-1.8-0.6-2.7-0.8c-0.9-0.3-1.8-0.5-2.7-0.8
		c-0.7-0.2-1.3-0.4-2-0.6c-1.2-0.3-2.3-0.6-3.5-1c-0.4-0.1-0.8-0.2-1.2-0.3c-1.4-0.4-2.9-0.7-4.3-1.1c-0.2,0-0.3-0.1-0.5-0.1
		c-23-5.3-46.5-6.7-69.6-4.5c-27.1,2.6-52.7,10.1-76,21.6c-0.3,0.1-0.5,0.3-0.8,0.4c-1.1,0.6-2.2,1.1-3.3,1.7
		c-0.7,0.4-1.3,0.7-2,1.1c-0.7,0.4-1.3,0.7-2,1.1c-1.1,0.6-2.2,1.2-3.2,1.8c-0.3,0.1-0.5,0.3-0.8,0.4c-22.5,13-43,30.1-60.1,51.3
		c-16.7,20.6-29.8,44.2-38.2,70c-0.1,0.3-0.2,0.6-0.3,0.9c-0.3,1-0.7,2.1-1,3.1c-0.2,0.5-0.3,1.1-0.5,1.6c-0.3,0.9-0.5,1.8-0.8,2.8
		c-0.4,1.4-0.8,2.8-1.1,4.2c-0.1,0.5-0.3,1-0.4,1.5c-0.3,1.1-0.6,2.3-0.8,3.4c-0.1,0.5-0.2,0.9-0.3,1.4c-0.3,1.3-0.6,2.7-0.9,4
		c-0.1,0.2-0.1,0.5-0.2,0.7c-3.4,16.6-4.8,33.4-4.3,50.1l0,0.1c0.9,31.8,8.7,61.9,21.9,88.9l0.1,0.3c16.4,33.5,41.6,63.3,74.9,85.5
		c3.5,2.4,7.1,4.6,10.7,6.7l0.4,0.3c32.2,18.8,69.7,29.6,109.7,29.6c0.4,0,0.7,0,1.1,0c0.2,0,0.3,0,0.5,0
		c32.2-0.2,62.8-7.5,90.2-20.2c0.4-0.2,0.8-0.4,1.2-0.6c0.9-0.4,1.8-0.9,2.7-1.3c0.9-0.5,1.9-0.9,2.8-1.4c0.4-0.2,0.8-0.4,1.1-0.6
		c30-15.4,56.8-37.9,77.6-67.1c0.1-0.2,0.3-0.4,0.4-0.6C522,786.8,522.6,786,523.1,785.2z"/>
	<path class="st17" d="M186.9,589.8c-3.2,1.4-6.4,2.8-9.6,4.1c-2.1,0.9-4.2,1.8-6.7,2.9c0.7,0.3,4.4,1.8,8.8,3.5
		c-4.5,10.7-7.7,22.2-9.3,34.3c-1.8,13.4-1.5,26.5,0.6,39.1c2.6-0.6,5.2-1.2,7.8-1.8c-1.9-11.7-2.1-23.9-0.5-36.3
		c1.5-11.4,4.5-22.3,8.8-32.4c4.2,1.7,7.9,3.1,8.7,3.4c-2.5-5.8-4.9-11.2-7.2-16.6C188,589.2,187.5,589.6,186.9,589.8z"/>
	<path class="st17" d="M494.9,733.2c3.2-1.3,6.5-2.6,9.7-3.8c2.1-0.8,4.3-1.7,6.7-2.7c-0.7-0.3-4.4-1.9-8.7-3.8
		c4.8-10.6,8.4-22,10.3-34c2.2-13.3,2.3-26.5,0.6-39.1c-2.6,0.5-5.2,1.1-7.9,1.6c1.5,11.7,1.4,23.9-0.7,36.3
		c-1.9,11.4-5.2,22.1-9.8,32.1c-4.2-1.8-7.8-3.4-8.6-3.7c2.3,5.8,4.5,11.4,6.7,16.9C493.7,733.8,494.3,733.4,494.9,733.2z"/>
	<g>
		<path class="st19" d="M458.1,603.7v156.4c0,12.4-10,22.4-22.4,22.4H257.4c-12.4,0-22.4-10-22.4-22.4V603.7l2.5-6.1h215.1
			L458.1,603.7z"/>
		<path class="st20" d="M458.1,581.7v21.9H235v-21.9c0-12.4,10-22.4,22.4-22.4h178.4C448.1,559.4,458.1,569.4,458.1,581.7z"/>
		<path class="st21" d="M274.8,585.8h-17c-1.9,0-3.5-1.5-3.5-3.5v-7.2c0-1.9,1.5-3.5,3.5-3.5h17c1.9,0,3.5,1.5,3.5,3.5v7.2
			C278.2,584.3,276.7,585.8,274.8,585.8z"/>
		<path class="st22" d="M266.8,580.9h-0.3c-3,0-5.4-2.4-5.4-5.4v-28.4c0-3,2.4-5.4,5.4-5.4h0.3c3,0,5.4,2.4,5.4,5.4v28.4
			C272.1,578.5,269.7,580.9,266.8,580.9z"/>
		<path class="st21" d="M314.9,585.8h-17c-1.9,0-3.5-1.5-3.5-3.5v-7.2c0-1.9,1.5-3.5,3.5-3.5h17c1.9,0,3.5,1.5,3.5,3.5v7.2
			C318.4,584.3,316.8,585.8,314.9,585.8z"/>
		<path class="st22" d="M306.9,580.9h-0.3c-3,0-5.4-2.4-5.4-5.4v-28.4c0-3,2.4-5.4,5.4-5.4h0.3c3,0,5.4,2.4,5.4,5.4v28.4
			C312.3,578.5,309.9,580.9,306.9,580.9z"/>
		<path class="st21" d="M355,585.8h-17c-1.9,0-3.5-1.5-3.5-3.5v-7.2c0-1.9,1.5-3.5,3.5-3.5h17c1.9,0,3.5,1.5,3.5,3.5v7.2
			C358.5,584.3,356.9,585.8,355,585.8z"/>
		<path class="st22" d="M347,580.9h-0.3c-3,0-5.4-2.4-5.4-5.4v-28.4c0-3,2.4-5.4,5.4-5.4h0.3c3,0,5.4,2.4,5.4,5.4v28.4
			C352.4,578.5,350,580.9,347,580.9z"/>
		<path class="st21" d="M395.2,585.8h-17c-1.9,0-3.5-1.5-3.5-3.5v-7.2c0-1.9,1.5-3.5,3.5-3.5h17c1.9,0,3.5,1.5,3.5,3.5v7.2
			C398.6,584.3,397.1,585.8,395.2,585.8z"/>
		<path class="st22" d="M387.1,580.9h-0.3c-3,0-5.4-2.4-5.4-5.4v-28.4c0-3,2.4-5.4,5.4-5.4h0.3c3,0,5.4,2.4,5.4,5.4v28.4
			C392.5,578.5,390.1,580.9,387.1,580.9z"/>
		<path class="st21" d="M435.3,585.8h-17c-1.9,0-3.5-1.5-3.5-3.5v-7.2c0-1.9,1.5-3.5,3.5-3.5h17c1.9,0,3.5,1.5,3.5,3.5v7.2
			C438.7,584.3,437.2,585.8,435.3,585.8z"/>
		<path class="st22" d="M427.3,580.9H427c-3,0-5.4-2.4-5.4-5.4v-28.4c0-3,2.4-5.4,5.4-5.4h0.3c3,0,5.4,2.4,5.4,5.4v28.4
			C432.6,578.5,430.2,580.9,427.3,580.9z"/>
		<path class="st23" d="M288.7,614.6h13.6c1.9,0,3.4,1.5,3.4,3.4v13.6c0,1.9-1.5,3.4-3.4,3.4h-13.6c-1.9,0-3.4-1.5-3.4-3.4V618
			C285.2,616.1,286.8,614.6,288.7,614.6z"/>
		<path class="st23" d="M356.8,614.6h13.6c1.9,0,3.4,1.5,3.4,3.4v13.6c0,1.9-1.5,3.4-3.4,3.4h-13.6c-1.9,0-3.4-1.5-3.4-3.4V618
			C353.4,616.1,354.9,614.6,356.8,614.6z"/>
		<path class="st23" d="M441.9,618v13.6c0,1.9-1.5,3.4-3.4,3.4h-13.6c-1.9,0-3.4-1.5-3.4-3.4V618c0-1.9,1.5-3.4,3.4-3.4h13.6
			C440.4,614.6,441.9,616.1,441.9,618z"/>
		<path class="st23" d="M254.6,614.6h13.6c1.9,0,3.4,1.5,3.4,3.4v13.6c0,1.9-1.5,3.4-3.4,3.4h-13.6c-1.9,0-3.4-1.5-3.4-3.4V618
			C251.2,616.1,252.7,614.6,254.6,614.6z"/>
		<path class="st23" d="M390.8,614.6h13.6c1.9,0,3.4,1.5,3.4,3.4v13.6c0,1.9-1.5,3.4-3.4,3.4h-13.6c-1.9,0-3.4-1.5-3.4-3.4V618
			C387.4,616.1,389,614.6,390.8,614.6z"/>
		<path class="st23" d="M322.7,614.6h13.6c1.9,0,3.4,1.5,3.4,3.4v13.6c0,1.9-1.5,3.4-3.4,3.4h-13.6c-1.9,0-3.4-1.5-3.4-3.4V618
			C319.3,616.1,320.8,614.6,322.7,614.6z"/>
		<path class="st23" d="M356.8,647.7h13.6c1.9,0,3.4,1.5,3.4,3.4v13.6c0,1.9-1.5,3.4-3.4,3.4h-13.6c-1.9,0-3.4-1.5-3.4-3.4v-13.6
			C353.4,649.3,354.9,647.7,356.8,647.7z"/>
		<path class="st23" d="M390.8,647.7h13.6c1.9,0,3.4,1.5,3.4,3.4v13.6c0,1.9-1.5,3.4-3.4,3.4h-13.6c-1.9,0-3.4-1.5-3.4-3.4v-13.6
			C387.4,649.3,389,647.7,390.8,647.7z"/>
		<path class="st23" d="M441.9,651.1v13.6c0,1.9-1.5,3.4-3.4,3.4h-13.6c-1.9,0-3.4-1.5-3.4-3.4v-13.6c0-1.9,1.5-3.4,3.4-3.4h13.6
			C440.4,647.7,441.9,649.3,441.9,651.1z"/>
		<path class="st23" d="M254.6,647.7h13.6c1.9,0,3.4,1.5,3.4,3.4v13.6c0,1.9-1.5,3.4-3.4,3.4h-13.6c-1.9,0-3.4-1.5-3.4-3.4v-13.6
			C251.2,649.3,252.7,647.7,254.6,647.7z"/>
		<path class="st23" d="M288.7,647.7h13.6c1.9,0,3.4,1.5,3.4,3.4v13.6c0,1.9-1.5,3.4-3.4,3.4h-13.6c-1.9,0-3.4-1.5-3.4-3.4v-13.6
			C285.2,649.3,286.8,647.7,288.7,647.7z"/>
		<path class="st23" d="M322.7,647.7h13.6c1.9,0,3.4,1.5,3.4,3.4v13.6c0,1.9-1.5,3.4-3.4,3.4h-13.6c-1.9,0-3.4-1.5-3.4-3.4v-13.6
			C319.3,649.3,320.8,647.7,322.7,647.7z"/>
		<path class="st23" d="M390.8,680.9h13.6c1.9,0,3.4,1.5,3.4,3.4v13.6c0,1.9-1.5,3.4-3.4,3.4h-13.6c-1.9,0-3.4-1.5-3.4-3.4v-13.6
			C387.4,682.4,389,680.9,390.8,680.9z"/>
		<path class="st23" d="M356.8,680.9h13.6c1.9,0,3.4,1.5,3.4,3.4v13.6c0,1.9-1.5,3.4-3.4,3.4h-13.6c-1.9,0-3.4-1.5-3.4-3.4v-13.6
			C353.4,682.4,354.9,680.9,356.8,680.9z"/>
		<path class="st23" d="M441.9,684.3v13.6c0,1.9-1.5,3.4-3.4,3.4h-13.6c-1.9,0-3.4-1.5-3.4-3.4v-13.6c0-1.9,1.5-3.4,3.4-3.4h13.6
			C440.4,680.9,441.9,682.4,441.9,684.3z"/>
		<path class="st23" d="M322.7,680.9h13.6c1.9,0,3.4,1.5,3.4,3.4v13.6c0,1.9-1.5,3.4-3.4,3.4h-13.6c-1.9,0-3.4-1.5-3.4-3.4v-13.6
			C319.3,682.4,320.8,680.9,322.7,680.9z"/>
		<path class="st23" d="M288.7,680.9h13.6c1.9,0,3.4,1.5,3.4,3.4v13.6c0,1.9-1.5,3.4-3.4,3.4h-13.6c-1.9,0-3.4-1.5-3.4-3.4v-13.6
			C285.2,682.4,286.8,680.9,288.7,680.9z"/>
		<path class="st23" d="M254.6,680.9h13.6c1.9,0,3.4,1.5,3.4,3.4v13.6c0,1.9-1.5,3.4-3.4,3.4h-13.6c-1.9,0-3.4-1.5-3.4-3.4v-13.6
			C251.2,682.4,252.7,680.9,254.6,680.9z"/>
		<path class="st23" d="M356.8,714h13.6c1.9,0,3.4,1.5,3.4,3.4V731c0,1.9-1.5,3.4-3.4,3.4h-13.6c-1.9,0-3.4-1.5-3.4-3.4v-13.6
			C353.4,715.5,354.9,714,356.8,714z"/>
		<path class="st23" d="M441.9,717.4V731c0,1.9-1.5,3.4-3.4,3.4h-13.6c-1.9,0-3.4-1.5-3.4-3.4v-13.6c0-1.9,1.5-3.4,3.4-3.4h13.6
			C440.4,714,441.9,715.5,441.9,717.4z"/>
		<path class="st23" d="M390.8,714h13.6c1.9,0,3.4,1.5,3.4,3.4V731c0,1.9-1.5,3.4-3.4,3.4h-13.6c-1.9,0-3.4-1.5-3.4-3.4v-13.6
			C387.4,715.5,389,714,390.8,714z"/>
		<path class="st23" d="M322.7,714h13.6c1.9,0,3.4,1.5,3.4,3.4V731c0,1.9-1.5,3.4-3.4,3.4h-13.6c-1.9,0-3.4-1.5-3.4-3.4v-13.6
			C319.3,715.5,320.8,714,322.7,714z"/>
		<path class="st23" d="M288.7,714h13.6c1.9,0,3.4,1.5,3.4,3.4V731c0,1.9-1.5,3.4-3.4,3.4h-13.6c-1.9,0-3.4-1.5-3.4-3.4v-13.6
			C285.2,715.5,286.8,714,288.7,714z"/>
		<path class="st23" d="M254.6,714h13.6c1.9,0,3.4,1.5,3.4,3.4V731c0,1.9-1.5,3.4-3.4,3.4h-13.6c-1.9,0-3.4-1.5-3.4-3.4v-13.6
			C251.2,715.5,252.7,714,254.6,714z"/>
		<path class="st23" d="M254.6,747.2h13.6c1.9,0,3.4,1.5,3.4,3.4v13.6c0,1.9-1.5,3.4-3.4,3.4h-13.6c-1.9,0-3.4-1.5-3.4-3.4v-13.6
			C251.2,748.7,252.7,747.2,254.6,747.2z"/>
		<path class="st23" d="M288.7,747.2h13.6c1.9,0,3.4,1.5,3.4,3.4v13.6c0,1.9-1.5,3.4-3.4,3.4h-13.6c-1.9,0-3.4-1.5-3.4-3.4v-13.6
			C285.2,748.7,286.8,747.2,288.7,747.2z"/>
		<path class="st23" d="M339.8,750.6v13.6c0,1.9-1.5,3.4-3.4,3.4h-13.6c-1.9,0-3.4-1.5-3.4-3.4v-13.6c0-1.9,1.5-3.4,3.4-3.4h13.6
			C338.2,747.2,339.8,748.7,339.8,750.6z"/>
	</g>
</g>
</svg>
