<?xml version="1.0" encoding="utf-8"?>
<!-- Generator: Adobe Illustrator 24.1.0, SVG Export Plug-In . SVG Version: 6.00 Build 0)  -->
<svg version="1.1" id="Capa_1" xmlns="http://www.w3.org/2000/svg" xmlns:xlink="http://www.w3.org/1999/xlink" x="0px" y="0px"
	 viewBox="0 0 425 425" style="enable-background:new 0 0 425 425;" xml:space="preserve">
<style type="text/css">
	.st0{fill:#D63F2B;}
	.st1{fill:#FFFFFF;}
	.st2{fill:#E8C0A6;}
	.st3{fill:#79AEB2;}
	.st4{fill:#C0D9DF;}
	.st5{opacity:0.9;fill:#032836;}
</style>
<g>
	<g>
		<path id="path3433_6_" class="st0" d="M205.2,129.4l90-29.3l29.5,143.6l-58,19.3L205.2,129.4z"/>
		<path id="rect3437_6_" class="st1" d="M268.6,260.3l53.2-17.5c2.5-0.8,5.1,0.5,5.9,3l9,27.3c0.8,2.5-0.5,5.1-3,5.9l-53.2,17.5
			c-2.5,0.8-5.1-0.5-5.9-3l-9-27.3C264.8,263.8,266.2,261.1,268.6,260.3z"/>
		<path id="path3439_6_" class="st2" d="M271.2,283l62.1-20.4"/>
		<path id="rect3441_6_" class="st2" d="M295.8,270.2l10-3.3c1.3-0.4,2.7,0.3,3.1,1.6l0,0c0.4,1.3-0.3,2.7-1.6,3.1l-10,3.3
			c-1.3,0.4-2.7-0.3-3.1-1.6l0,0C293.9,272,294.5,270.6,295.8,270.2z"/>
		
			<rect id="rect3435_6_" x="201.3" y="104.2" transform="matrix(0.95 -0.3124 0.3124 0.95 -21.8305 83.147)" class="st1" width="94.7" height="11.1"/>
		<path id="path4256_6_" class="st1" d="M255.2,151l47.2-15.3l-4.8-23.4l-49.8,16.2L255.2,151"/>
	</g>
	<g>
		<g>
			<path class="st3" d="M174,282.3c-1.9,5.2-3.5,8.9-6.1,7.9c-2.6-1-3.1-6-1.1-11.2c1.9-5.2,5.6-8.6,8.2-7.7
				C177.5,272.3,175.9,277.1,174,282.3z"/>
			<path class="st3" d="M204.2,282.3c1.9,5.2,3.5,8.9,6.1,7.9c2.6-1,3.1-6,1.1-11.2c-1.9-5.2-5.6-8.6-8.2-7.7
				C200.7,272.3,202.3,277.1,204.2,282.3z"/>
		</g>
		<path class="st4" d="M290.1,266.1h-5.8c-2-15.6-13.3-27-39.2-27c-1.9,0-3.7,0-5.4,0.1c-16.2-1.2-33.2-1.8-50.6-1.8
			c-17.4,0-34.4,0.6-50.6,1.8c-1.7-0.1-3.6-0.1-5.5-0.1c-25.9,0-37.3,11.4-39.2,27h-5.8v7.3h5.5c0.7,18.7,7.3,40.6,30,39.4
			c23-1.2,41.9-25.4,48.9-38.3c1.9-3.4,3.7-7.5,4.5-11.7c2.1-3.3,6.7-5.6,12-5.6c5.4,0,10,2.3,12,5.6c0.7,4.2,2.6,8.3,4.5,11.7
			c7.1,13,25.9,37.1,48.9,38.3c22.7,1.2,29.3-20.7,30-39.4h5.6V266.1z M189.1,252.2c-4.6,0-8.8,1.4-12,3.6c-1.1-5.1-5-9.9-14-13
			c8.5-0.3,17.2-0.5,26.1-0.5c8.8,0,17.5,0.2,26.1,0.5c-9,3.1-12.9,7.8-14,13C197.9,253.6,193.7,252.2,189.1,252.2z"/>
		<path class="st5" d="M121.9,308.2c-19.7,0-23.3-22.3-23.7-35.7c-0.3-8.4,1.9-15.1,6.6-19.9c5.8-5.9,15.3-8.9,28.3-8.9
			c26.7,0,35.6,5.6,38.4,10.3c2.5,4.2,1.5,10.1-2.9,18.3c-6.5,12-24.3,34.9-45.1,35.9C122.9,308.2,122.4,308.2,121.9,308.2
			L121.9,308.2z"/>
		<path class="st5" d="M256.3,308.2c-0.5,0-1,0-1.5,0c-20.8-1.1-38.6-24-45.1-35.9c-4.4-8.1-5.4-14.1-2.9-18.3
			c2.8-4.7,11.7-10.3,38.4-10.3c13,0,22.6,3,28.3,8.9c4.6,4.8,6.8,11.5,6.6,19.9C279.6,285.9,275.9,308.2,256.3,308.2z"/>
	</g>
</g>
</svg>
