<?xml version="1.0" encoding="utf-8"?>
<!-- Generator: Adobe Illustrator 24.1.0, SVG Export Plug-In . SVG Version: 6.00 Build 0)  -->
<svg version="1.1" id="Capa_1" xmlns="http://www.w3.org/2000/svg" xmlns:xlink="http://www.w3.org/1999/xlink" x="0px" y="0px"
	 viewBox="0 0 425 425" style="enable-background:new 0 0 425 425;" xml:space="preserve">
<style type="text/css">
	.st0{fill:#FFCC00;}
	.st1{fill:#FFFFFF;}
	.st2{fill:#483737;}
	.st3{opacity:0.5;fill:#FFFFFF;}
	.st4{fill:#D63F2B;}
	.st5{opacity:0.9;}
</style>
<g>
	<rect id="rect890-1-5-4-7-3_3_" x="152" y="252" class="st0" width="20.4" height="14.2"/>
	<rect id="rect890-7-7-6-7-4-0_3_" x="105" y="252" class="st1" width="47" height="14.2"/>
	<path id="rect890-7-6-4-1-9-3-8-0_3_" class="st2" d="M95.3,252h6.4c1.9,0,3.4,1.6,3.4,3.6v7.1c0,2-1.5,3.6-3.4,3.6h-6.4
		c-1.9,0-3.4-1.6-3.4-3.6v-7.1C91.9,253.6,93.4,252,95.3,252z"/>
	<path id="path973-1-4-1-5-9_3_" class="st3" d="M111,224.5c3.1-5.9,8.6-15.4,20.6-19.9c12.1-4.5,30.8-3.8,46.5-6.3
		s29-8.6,33.4-16.5c4.4-7.9,0.2-17.6,3.5-24.5s13.9-10.8,23.8-9.6c9.9,1.3,19,7.9,26.5,4.2c7.5-3.7,13.6-17.7,13.8-29.6
		c0.3-11.9-5.2-21.8-18.2-27.2c-13-5.5-33.5-6.6-50.7-2.1s-31.9,15.1-36.9,26.8c-5,11.7-0.6,24.8-1.3,33s-6.4,11.5-16.3,13.9
		c-9.9,2.4-24.1,3.7-35.8,7.3c-11.7,3.5-21,9.2-24.7,23.5c-3.7,14.3-1.7,37.2,1.1,44.8s6.4,0,8.7-4.9
		C107.1,232.5,107.9,230.4,111,224.5L111,224.5z"/>
	<path id="path973-1-4-1-5-9_4_" class="st3" d="M109.5,223.8c2.3-7.5,6.3-19.8,19.3-27.8s34.7-11.5,52.3-18
		c17.6-6.6,31.6-16.7,34.9-26.8c3.3-10.1-3.8-20.5-1.6-29.2s13.6-15.8,25.3-16.5c11.7-0.8,23.7,4.7,31.6-1.3
		c7.9-6,11.6-23.6,9.2-37.4c-2.4-13.8-11.1-24-27.4-27.3c-16.3-3.4-40.3,0.1-59.2,9.3s-33.4,24.8-36.5,39.5s5,28.8,6.1,38.5
		s-4.7,14.8-15.7,19.8c-11,5-27,9.9-39.8,16.7c-12.8,6.8-22.2,15.5-23.2,33c-1,17.4,6.6,43.5,11.6,51.6s7.4-1.5,8.9-7.7
		C106.8,233.9,107.2,231.3,109.5,223.8L109.5,223.8z"/>
	<g>
		<ellipse class="st4" cx="305.5" cy="182.8" rx="21.8" ry="21.4"/>
		<path class="st4" d="M332,260.3c5.1-5.3,8.2-12.4,8.2-20.3c0-16.5-13.7-29.8-30.5-29.6c-2.3,0-6,0-8.3,0
			c-16.8-0.2-30.5,13.1-30.5,29.6c0,8.4,3.5,15.9,9.2,21.3l1.1,51.9c0,4.6,3.8,8.4,8.4,8.4h8.1c4.6,0,8.4-3.8,8.4-8.4
			c0,4.6,3.8,8.4,8.4,8.4h8.1c4.6,0,8.4-3.8,8.4-8.4L332,260.3z"/>
	</g>
	<g class="st5">
		<ellipse class="st3" cx="215.7" cy="249.1" rx="21.8" ry="21.4"/>
		<path class="st3" d="M242.2,326.6c5.1-5.3,8.2-12.4,8.2-20.3c0-16.3-13.4-29.5-29.9-29.6c-2.6,0-7,0-9.6,0
			c-16.5,0.1-29.9,13.3-29.9,29.6c0,8.4,3.5,15.9,9.2,21.3l1.1,51.9c0,4.6,3.8,8.4,8.4,8.4h8.1c4.6,0,8.4-3.8,8.4-8.4
			c0,4.6,3.8,8.4,8.4,8.4h8.1c4.6,0,8.4-3.8,8.4-8.4L242.2,326.6z"/>
	</g>
</g>
</svg>
