<?xml version="1.0" encoding="utf-8"?>
<!-- Generator: Adobe Illustrator 24.1.0, SVG Export Plug-In . SVG Version: 6.00 Build 0)  -->
<svg version="1.1" id="Capa_1" xmlns="http://www.w3.org/2000/svg" xmlns:xlink="http://www.w3.org/1999/xlink" x="0px" y="0px"
	 viewBox="0 0 425 425" style="enable-background:new 0 0 425 425;" xml:space="preserve">
<style type="text/css">
	.st0{fill:#E0EADF;}
	.st1{fill:#C0D9DF;}
	.st2{fill:#FFFFFF;}
</style>
<g>
	<g>
		<path id="path882_13_" class="st0" d="M216.3,127.1c-1.6-8.9-5.7-18.6-10.3-26.6s-9.9-14.2-15.5-17.2c-5.7-3.1-11.7-2.8-20.4,2.4
			s-20.2,15.5-29.9,28.3c-9.6,12.8-17.5,28-22,37.9c-4.4,9.9-5.4,14.3-5.8,17.6c-0.3,3.3,0.1,5.5-2.1,16.9
			c-2.2,11.3-7,31.9-9.7,46.1c-2.7,14.2-3.3,21.6-3.3,26.4c0,4.8,0.6,6.6,4.4,8.6c3.9,2,11.2,4.2,19.4,3.3c8.2-0.9,17.2-5,26.2-8.3
			c8.9-3.3,17.8-5.9,24.7-7.6s11.7-2.5,17.6-8.7s13-17.9,17.6-34.4c4.7-16.5,6.8-37.8,8.4-52.6C217.1,144.3,217.9,136,216.3,127.1
			L216.3,127.1z"/>
		<path id="path882-7_13_" class="st1" d="M216.3,127.1c-1.6-8.9-5.7-18.6-10.3-26.6s-9.9-14.2-15.5-17.2
			c-5.7-3.1-11.7-2.8-20.4,2.4s-20.2,15.5-29.9,28.3c-9.6,12.8-17.5,28-22,37.9c-4.4,9.9-5.4,14.3-5.8,17.6c-0.3,3.3,0.1,5.5,6,20.7
			c5.9,15.2,17.4,43.4,27.5,56.2c10.2,12.8,19,10.2,25.8,8.5c6.8-1.7,11.7-2.5,17.6-8.7s13-17.9,17.6-34.4
			c4.6-16.5,6.8-37.8,8.4-52.6C217.1,144.3,217.9,136,216.3,127.1L216.3,127.1z"/>
		<path id="path882-7-9_13_" class="st0" d="M216.3,127.1c-1.6-8.9-5.7-18.6-10.3-26.6s-9.9-14.2-15.5-17.2
			c-5.7-3.1-11.7-2.8-20.4,2.4s-20.2,15.5-28.2,24.8c-7.9,9.3-12.4,17.6-15.7,23.9c-3.3,6.2-5.4,10.3-7.5,17.2s-3.9,16.3,11.3,27.5
			c15.1,11.2,47.3,24.4,64.5,20.2c17.2-4.1,19.4-25.5,20.9-40.2C217.1,144.3,217.9,136,216.3,127.1z"/>
		<path id="path882-8_13_" class="st1" d="M239.6,127.1c1.6-8.9,5.7-18.6,10.3-26.6c4.6-7.9,9.9-14.2,15.5-17.2
			c5.7-3.1,11.7-2.8,20.4,2.4s20.2,15.5,29.9,28.3s17.5,28.1,22,37.9c4.5,9.8,5.4,14.3,5.8,17.6c0.3,3.3-0.1,5.5,2.1,16.9
			c2.2,11.3,7,31.9,9.7,46.1c2.7,14.2,3.3,21.6,3.3,26.4c0,4.8-0.6,6.6-4.4,8.6c-3.9,2-11.2,4.2-19.4,3.3c-8.2-0.9-17.2-5-26.2-8.3
			c-8.9-3.3-17.8-5.9-24.7-7.6c-6.8-1.7-11.7-2.5-17.6-8.7c-5.9-6.2-13-17.9-17.6-34.4c-4.6-16.5-6.8-37.8-8.4-52.6
			C238.8,144.4,238,136.1,239.6,127.1L239.6,127.1z"/>
		<path id="path882-7-5_13_" class="st0" d="M239.6,127.1c1.6-8.9,5.7-18.6,10.3-26.6c4.6-7.9,9.9-14.2,15.5-17.2
			c5.7-3.1,11.7-2.8,20.4,2.4s20.2,15.5,29.9,28.3s17.5,28.1,21.7,37c4.1,8.9,4.7,11.3,5.9,19.3c1.3,7.9,3.1,21.2-3.4,42.9
			c-6.6,21.8-21.8,52.1-30.2,48.1c-8.5-4.1-10.2-42.3-17.7-58.5c-7.6-16.2-20.9-10.2-29.1-10.3c-8.1-0.2-11.1-6.6-14-14.3
			c-3-7.7-6-16.7-8-25.2C238.8,144.4,238,136.1,239.6,127.1L239.6,127.1z"/>
		<path class="st2" d="M268.1,130.3c-4.1,0.5-11.3,2.7-16.6,2.5c-3.2-0.1-9.2-2.2-13.4-6.9h0.2c-0.3-0.6-0.8-1.2-1.4-1.5
			c-0.5-0.6-0.9-1.3-1.3-2c1.6-0.2,3-1.6,3-3.3c0-1.8-1.5-3.3-3.3-3.3h-0.6v-1.5h0.6c1.9,0,3.3-1.5,3.3-3.3s-1.5-3.3-3.3-3.3h-0.6
			V106h0.6c1.9,0,3.3-1.5,3.3-3.3c0-1.8-1.5-3.3-3.3-3.3h-0.6v-1.5h0.6c1.9,0,3.3-1.5,3.3-3.3c0-1.8-1.5-3.3-3.3-3.3h-0.6v-1.5h0.6
			c1.9,0,3.3-1.5,3.3-3.3c0-1.8-1.5-3.3-3.3-3.3h-0.6v-1.5h0.6c1.9,0,3.3-1.5,3.3-3.3c0-1.9-1.5-3.3-3.3-3.3h-0.6v-1.5h0.6
			c1.9,0,3.3-1.5,3.3-3.3c0-1.9-1.5-3.3-3.3-3.3h-0.6V65h0.6c1.9,0,3.3-1.5,3.3-3.3s-1.5-3.3-3.3-3.3h-0.6v-1.5h0.6
			c1.9,0,3.3-1.5,3.3-3.3c0-1.8-1.5-3.3-3.3-3.3h-0.6v-1.7c0-0.1-0.1-0.2-0.2-0.2h-10.3c-0.1,0-0.2,0.1-0.2,0.2v1.7h-0.6
			c-1.8,0-3.3,1.5-3.3,3.3c0,1.9,1.5,3.3,3.3,3.3h0.6v1.5h-0.6c-1.8,0-3.3,1.5-3.3,3.3c0,1.9,1.5,3.3,3.3,3.3h0.6v1.5h-0.6
			c-1.8,0-3.3,1.5-3.3,3.3c0,1.8,1.5,3.3,3.3,3.3h0.6v1.5h-0.6c-1.8,0-3.3,1.5-3.3,3.3c0,1.8,1.5,3.3,3.3,3.3h0.6v1.5h-0.6
			c-1.8,0-3.3,1.5-3.3,3.3c0,1.9,1.5,3.3,3.3,3.3h0.6v1.5h-0.6c-1.8,0-3.3,1.5-3.3,3.3c0,1.9,1.5,3.3,3.3,3.3h0.6v1.5h-0.6
			c-1.8,0-3.3,1.5-3.3,3.3c0,1.9,1.5,3.3,3.3,3.3h0.6v1.5h-0.6c-1.8,0-3.3,1.5-3.3,3.3c0,1.9,1.5,3.3,3.3,3.3h0.6v1.5h-0.6
			c-1.8,0-3.3,1.5-3.3,3.3c0,1.9,1.5,3.3,3.3,3.3h0.6v0.7c-0.2,0.3-0.4,0.5-0.7,0.8c-1.3,0-2.4,0.8-3,2h1.1
			c-5.2,4.8-13.1,7.6-15.8,8.5c-3.9,1.4-7.8,1.3-12.5,1.3c-4.7,0.1-10.5,0.4-10.4,1.1c0.2,0.7,6.2,1.8,11.1,2.8
			c4.9,1,8.7,1.8,9.7,4.2c1,2.3-0.9,6.3-3.9,8.7c-3,2.4-7.3,3.4-12.4,4.9c-5.1,1.4-11.6,3.2-11.4,3.9c0.2,0.6,6.9,0.1,10.6,2.3
			c3.6,2.2,4.3,7.3,5.3,10.3s2.1,4,2.5,1.7c0.4-2.3,0.2-7.9,1.5-11.7s4.3-5.8,5.9-6.8s14.8-14,16.7-15.1c2-1.1,5.9-3.3,9.6-3.9
			c3.7-0.4,7.1,0.8,11.8,4.6c4.7,3.9,10.7,10.3,14.9,14c4.2,3.7,6.8,4.7,8.3,4.2c1.4-0.4,1.7-2.2-0.8-6.1c-2.5-3.9-7.7-9.7-8.4-13.1
			c-0.6-3.3,3.3-4.2,7.5-5.5c4.1-1.3,8.4-3,10.1-4.2C273,130.7,272.2,129.7,268.1,130.3z"/>
	</g>
</g>
</svg>
