<?xml version="1.0" encoding="utf-8"?>
<!-- Generator: Adobe Illustrator 24.1.0, SVG Export Plug-In . SVG Version: 6.00 Build 0)  -->
<svg version="1.1" id="Capa_1" xmlns="http://www.w3.org/2000/svg" xmlns:xlink="http://www.w3.org/1999/xlink" x="0px" y="0px"
	 viewBox="0 0 425 425" style="enable-background:new 0 0 425 425;" xml:space="preserve">
<style type="text/css">
	.st0{enable-background:new    ;}
	.st1{fill:#FFFFFF;}
	.st2{fill:#9664D9;}
	.st3{fill:#91AC41;}
</style>
<g>
	<g class="st0">
		<path class="st1" d="M148.5,326.8h-2l-1.1-11.5c-0.4-4.5-0.8-8-0.9-10.5l-6.1,19.2h-2l-6.3-19.2c-0.1,2.3-0.4,5.3-0.7,9l-0.1,1.4
			l-1.1,11.6h-2l2.3-24.1h2.9l6,18.8l5.8-18.8h3L148.5,326.8z"/>
		<path class="st1" d="M165,310.6c1.4,1.7,2.1,4,2.1,7c0,3-0.7,5.3-2.1,7.1s-3.3,2.6-5.7,2.6c-2.4,0-4.3-0.8-5.7-2.6
			c-1.4-1.7-2.1-4-2.1-7c0-1.9,0.3-3.6,1-5.1c0.6-1.5,1.5-2.6,2.7-3.3c1.2-0.8,2.6-1.2,4.2-1.2C161.7,308,163.6,308.9,165,310.6z
			 M155.1,311.8c-1,1.3-1.5,3.3-1.5,5.9c0,2.6,0.5,4.5,1.5,5.8c1,1.3,2.4,2,4.1,2s3.2-0.7,4.2-2c1-1.3,1.5-3.3,1.5-5.9
			c0-2.6-0.5-4.5-1.5-5.8s-2.4-2-4.2-2C157.5,309.8,156.1,310.4,155.1,311.8z"/>
		<path class="st1" d="M178.9,308.5c0.9,0.3,1.9,0.9,2.7,1.5l-1,1.3c-0.8-0.6-1.6-1-2.4-1.3s-1.6-0.4-2.5-0.4c-1.2,0-2.2,0.3-3,0.8
			c-0.8,0.6-1.1,1.3-1.1,2.3c0,0.9,0.3,1.6,1,2.1c0.6,0.5,1.8,1,3.5,1.4c2.1,0.5,3.6,1.2,4.5,2c0.9,0.8,1.4,2,1.4,3.5
			c0,1.6-0.6,2.9-1.9,3.9c-1.3,1-2.9,1.4-4.8,1.4c-1.4,0-2.6-0.2-3.7-0.6c-1.1-0.4-2-1-2.9-1.7l1.1-1.3c0.8,0.7,1.7,1.1,2.5,1.5
			c0.9,0.3,1.8,0.5,2.9,0.5c1.4,0,2.5-0.3,3.3-0.9c0.8-0.6,1.2-1.5,1.2-2.6c0-0.8-0.1-1.4-0.4-1.8c-0.3-0.5-0.8-0.9-1.4-1.2
			c-0.7-0.3-1.7-0.7-3-1c-1.9-0.5-3.4-1.2-4.2-1.9c-0.9-0.8-1.3-1.8-1.3-3.1c0-0.9,0.3-1.7,0.8-2.5c0.5-0.7,1.3-1.3,2.2-1.7
			c0.9-0.4,2-0.6,3.1-0.6C176.9,308,177.9,308.2,178.9,308.5z"/>
		<path class="st1" d="M194.2,326.1c-1.2,0.8-2.5,1.2-3.9,1.2s-2.5-0.4-3.3-1.2s-1.2-2-1.2-3.6v-12.3h-3.1v-1.7h3.1V304l2-0.2v4.6
			h4.8l-0.2,1.7h-4.5v12.2c0,1.1,0.2,1.9,0.7,2.4c0.4,0.5,1.1,0.8,2,0.8c0.9,0,1.9-0.3,2.8-0.8L194.2,326.1z"/>
		<path class="st1" d="M205,308.2l-0.4,1.9c-0.5-0.1-1.1-0.2-1.6-0.2c-1.2,0-2.2,0.5-3,1.4c-0.8,0.9-1.4,2.3-1.9,4.2v11.3h-2v-18.4
			h1.8l0.2,4.1c0.5-1.5,1.2-2.7,2-3.4c0.9-0.7,1.9-1.1,3.2-1.1C203.9,308,204.5,308.1,205,308.2z"/>
		<path class="st1" d="M219.4,318.4h-12.3c0.1,2.4,0.7,4.2,1.7,5.3c1,1.2,2.4,1.7,4,1.7c1,0,1.8-0.1,2.6-0.4s1.5-0.8,2.4-1.4l1,1.3
			c-0.9,0.8-1.9,1.3-2.8,1.7c-1,0.4-2,0.6-3.2,0.6c-2.4,0-4.4-0.8-5.7-2.5c-1.4-1.7-2.1-4-2.1-6.9c0-1.9,0.3-3.7,0.9-5.1
			s1.5-2.6,2.6-3.4s2.4-1.2,3.9-1.2c2.3,0,4.1,0.8,5.4,2.4c1.2,1.6,1.8,3.8,1.8,6.5C219.4,317.5,219.4,318,219.4,318.4z
			 M217.4,316.3c0-2.1-0.4-3.7-1.3-4.8c-0.9-1.2-2.1-1.7-3.8-1.7c-1.5,0-2.8,0.6-3.7,1.8c-0.9,1.2-1.5,3-1.5,5.4h10.3V316.3z"/>
		<path class="st1" d="M231.1,308.5c0.9,0.3,1.9,0.9,2.7,1.5l-1,1.3c-0.8-0.6-1.6-1-2.4-1.3c-0.8-0.3-1.6-0.4-2.5-0.4
			c-1.2,0-2.2,0.3-3,0.8c-0.8,0.6-1.1,1.3-1.1,2.3c0,0.9,0.3,1.6,1,2.1c0.6,0.5,1.8,1,3.5,1.4c2.1,0.5,3.6,1.2,4.5,2
			c0.9,0.8,1.4,2,1.4,3.5c0,1.6-0.6,2.9-1.9,3.9c-1.3,1-2.9,1.4-4.8,1.4c-1.4,0-2.6-0.2-3.7-0.6c-1.1-0.4-2-1-2.9-1.7l1.1-1.3
			c0.8,0.7,1.7,1.1,2.5,1.5c0.9,0.3,1.8,0.5,2.9,0.5c1.4,0,2.5-0.3,3.3-0.9c0.8-0.6,1.2-1.5,1.2-2.6c0-0.8-0.1-1.4-0.4-1.8
			c-0.3-0.5-0.8-0.9-1.4-1.2c-0.7-0.3-1.7-0.7-3-1c-1.9-0.5-3.4-1.2-4.2-1.9s-1.3-1.8-1.3-3.1c0-0.9,0.3-1.7,0.8-2.5
			c0.5-0.7,1.3-1.3,2.2-1.7c0.9-0.4,2-0.6,3.1-0.6C229.1,308,230.2,308.2,231.1,308.5z"/>
		<path class="st1" d="M259.2,300.9v25.9h-1.8l-0.2-2.8c-1.3,2.1-3.1,3.2-5.5,3.2c-2.1,0-3.8-0.8-5.1-2.6c-1.2-1.7-1.8-4-1.8-7
			c0-1.9,0.3-3.6,0.9-5s1.4-2.6,2.5-3.4c1.1-0.8,2.4-1.2,3.9-1.2c2.1,0,3.8,0.8,5.2,2.5v-9.9L259.2,300.9z M255,324.7
			c0.8-0.6,1.5-1.4,2.2-2.6v-9.6c-1.3-1.9-2.9-2.8-4.8-2.8c-1.7,0-3,0.7-4,2.1c-1,1.4-1.4,3.3-1.4,5.9c0,2.5,0.4,4.5,1.3,5.8
			c0.9,1.3,2.1,2,3.7,2C253.2,325.5,254.2,325.2,255,324.7z"/>
		<path class="st1" d="M277.9,318.4h-12.3c0.1,2.4,0.7,4.2,1.7,5.3c1,1.2,2.4,1.7,4,1.7c1,0,1.8-0.1,2.6-0.4s1.5-0.8,2.4-1.4l1,1.3
			c-0.9,0.8-1.9,1.3-2.8,1.7c-1,0.4-2,0.6-3.2,0.6c-2.4,0-4.4-0.8-5.7-2.5c-1.4-1.7-2.1-4-2.1-6.9c0-1.9,0.3-3.7,0.9-5.1
			s1.5-2.6,2.6-3.4s2.4-1.2,3.9-1.2c2.3,0,4.1,0.8,5.4,2.4c1.2,1.6,1.8,3.8,1.8,6.5C278,317.5,278,318,277.9,318.4z M276,316.3
			c0-2.1-0.4-3.7-1.3-4.8c-0.9-1.2-2.1-1.7-3.8-1.7c-1.5,0-2.8,0.6-3.7,1.8c-0.9,1.2-1.5,3-1.5,5.4H276V316.3z"/>
		<path class="st1" d="M282.7,326.3c-0.6-0.6-0.9-1.5-0.9-2.6v-22.8l2-0.2v23c0,1.2,0.5,1.8,1.5,1.8c0.5,0,0.9-0.1,1.3-0.2l0.6,1.5
			c-0.7,0.3-1.4,0.5-2.1,0.5C284.1,327.2,283.3,326.9,282.7,326.3z"/>
		<path class="st1" d="M297.9,308.5c0.9,0.3,1.9,0.9,2.7,1.5l-1,1.3c-0.8-0.6-1.6-1-2.4-1.3c-0.8-0.3-1.6-0.4-2.5-0.4
			c-1.2,0-2.2,0.3-3,0.8c-0.8,0.6-1.1,1.3-1.1,2.3c0,0.9,0.3,1.6,1,2.1c0.6,0.5,1.8,1,3.5,1.4c2.1,0.5,3.6,1.2,4.5,2
			c0.9,0.8,1.4,2,1.4,3.5c0,1.6-0.6,2.9-1.9,3.9c-1.3,1-2.9,1.4-4.8,1.4c-1.4,0-2.6-0.2-3.7-0.6c-1.1-0.4-2-1-2.9-1.7l1.1-1.3
			c0.8,0.7,1.7,1.1,2.5,1.5c0.9,0.3,1.8,0.5,2.9,0.5c1.4,0,2.5-0.3,3.3-0.9c0.8-0.6,1.2-1.5,1.2-2.6c0-0.8-0.1-1.4-0.4-1.8
			c-0.3-0.5-0.8-0.9-1.4-1.2c-0.7-0.3-1.7-0.7-3-1c-1.9-0.5-3.4-1.2-4.2-1.9s-1.3-1.8-1.3-3.1c0-0.9,0.3-1.7,0.8-2.5
			c0.5-0.7,1.3-1.3,2.2-1.7c0.9-0.4,2-0.6,3.1-0.6C295.9,308,297,308.2,297.9,308.5z"/>
	</g>
	<g class="st0">
		<path class="st1" d="M140.1,343.2v25.9h-1.8l-0.2-2.8c-1.3,2.1-3.1,3.2-5.5,3.2c-2.1,0-3.8-0.8-5.1-2.6c-1.2-1.7-1.8-4-1.8-7
			c0-1.9,0.3-3.6,0.9-5c0.6-1.5,1.4-2.6,2.5-3.4s2.4-1.2,3.9-1.2c2.1,0,3.8,0.8,5.2,2.5v-9.9L140.1,343.2z M135.9,366.9
			c0.8-0.6,1.5-1.4,2.2-2.6v-9.6c-1.3-1.9-2.9-2.8-4.8-2.8c-1.7,0-3,0.7-4,2.1s-1.4,3.3-1.4,5.9c0,2.5,0.4,4.5,1.3,5.8
			c0.9,1.3,2.1,2,3.7,2C134.1,367.8,135.1,367.5,135.9,366.9z"/>
		<path class="st1" d="M157.9,352.8c1.4,1.7,2.1,4,2.1,7c0,3-0.7,5.3-2.1,7.1c-1.4,1.7-3.3,2.6-5.7,2.6c-2.4,0-4.3-0.8-5.7-2.6
			c-1.4-1.7-2.1-4-2.1-7c0-1.9,0.3-3.6,1-5.1c0.6-1.5,1.5-2.6,2.7-3.3c1.2-0.8,2.6-1.2,4.2-1.2C154.6,350.3,156.5,351.1,157.9,352.8
			z M148,354c-1,1.3-1.5,3.3-1.5,5.9c0,2.6,0.5,4.5,1.5,5.8c1,1.3,2.4,2,4.1,2c1.8,0,3.2-0.7,4.2-2c1-1.3,1.5-3.3,1.5-5.9
			c0-2.6-0.5-4.5-1.5-5.8c-1-1.3-2.4-2-4.2-2C150.4,352,149,352.7,148,354z"/>
		<path class="st1" d="M171.8,350.8c0.9,0.3,1.9,0.9,2.7,1.5l-1,1.3c-0.8-0.6-1.6-1-2.4-1.3s-1.6-0.4-2.5-0.4c-1.2,0-2.2,0.3-3,0.8
			c-0.8,0.6-1.1,1.3-1.1,2.3c0,0.9,0.3,1.6,1,2.1c0.6,0.5,1.8,1,3.5,1.4c2.1,0.5,3.6,1.2,4.5,2c0.9,0.8,1.4,2,1.4,3.5
			c0,1.6-0.6,2.9-1.9,3.9c-1.3,1-2.9,1.4-4.8,1.4c-1.4,0-2.6-0.2-3.7-0.6s-2-1-2.9-1.7l1.1-1.3c0.8,0.7,1.7,1.1,2.5,1.5
			c0.9,0.3,1.8,0.5,2.9,0.5c1.4,0,2.5-0.3,3.3-0.9c0.8-0.6,1.2-1.5,1.2-2.6c0-0.8-0.1-1.4-0.4-1.8c-0.3-0.5-0.8-0.9-1.4-1.2
			c-0.7-0.3-1.7-0.7-3-1c-1.9-0.5-3.4-1.2-4.2-1.9c-0.9-0.8-1.3-1.8-1.3-3.1c0-0.9,0.3-1.7,0.8-2.5c0.5-0.7,1.3-1.3,2.2-1.7
			c0.9-0.4,2-0.6,3.1-0.6C169.8,350.3,170.9,350.4,171.8,350.8z"/>
		<path class="st1" d="M199.4,352.8c1.1,1.7,1.7,4,1.7,7c0,3-0.6,5.3-1.8,7.1c-1.2,1.7-2.9,2.6-5.2,2.6c-1.1,0-2.1-0.2-3-0.7
			c-0.9-0.5-1.6-1.1-2.3-1.8v9.1l-2,0.3v-25.6h1.8l0.2,2.7c0.7-1,1.5-1.7,2.5-2.3c1-0.5,2-0.8,3.2-0.8
			C196.6,350.3,198.3,351.1,199.4,352.8z M197.6,365.7c0.9-1.3,1.3-3.3,1.3-5.9c0-5.2-1.6-7.8-4.9-7.8c-1.1,0-2.1,0.3-2.9,0.8
			c-0.8,0.6-1.6,1.3-2.3,2.3v9.8c1.2,1.9,2.8,2.8,4.9,2.8C195.4,367.7,196.7,367.1,197.6,365.7z"/>
		<path class="st1" d="M216.9,367.1c0.2,0.4,0.6,0.7,1.2,1l-0.5,1.4c-0.8-0.2-1.5-0.5-2-1c-0.5-0.5-0.8-1.2-0.9-2.1
			c-1.3,2.1-3.2,3.1-5.7,3.1c-1.8,0-3.2-0.5-4.2-1.5c-1-1-1.5-2.3-1.5-4c0-1.9,0.7-3.4,2-4.4c1.3-1,3.2-1.5,5.6-1.5h3.5v-1.8
			c0-1.5-0.3-2.6-1-3.2c-0.7-0.7-1.7-1-3.3-1c-1.4,0-3.1,0.4-5,1.1l-0.5-1.5c2.1-0.8,4-1.2,5.8-1.2c4,0,6,1.9,6,5.8v8.9
			C216.6,366,216.7,366.6,216.9,367.1z M214.5,364.6v-5.1h-3.2c-1.9,0-3.3,0.4-4.3,1.1c-1,0.7-1.5,1.8-1.5,3.3c0,1.3,0.3,2.2,1,2.9
			c0.7,0.7,1.6,1,2.9,1C211.6,367.8,213.3,366.7,214.5,364.6z"/>
		<path class="st1" d="M231.3,350.7c0.8,0.3,1.6,0.8,2.4,1.4l-1,1.3c-0.6-0.5-1.2-0.9-1.9-1.1c-0.6-0.2-1.4-0.4-2.2-0.4
			c-1.7,0-3.1,0.7-4.2,2c-1,1.3-1.5,3.3-1.5,5.9c0,2.6,0.5,4.5,1.5,5.8c1,1.3,2.4,1.9,4.1,1.9c0.8,0,1.6-0.1,2.2-0.4s1.3-0.6,2-1.2
			l1,1.4c-1.5,1.3-3.3,2-5.3,2c-1.6,0-2.9-0.4-4.1-1.1c-1.2-0.8-2.1-1.8-2.7-3.3s-1-3.1-1-5.1c0-1.9,0.3-3.7,1-5.1s1.6-2.6,2.7-3.4
			c1.2-0.8,2.5-1.2,4.1-1.2C229.6,350.3,230.5,350.4,231.3,350.7z"/>
		<path class="st1" d="M239.1,343c0.3,0.3,0.4,0.6,0.4,1.1c0,0.4-0.1,0.8-0.4,1.1c-0.3,0.3-0.7,0.4-1.1,0.4c-0.4,0-0.8-0.1-1.1-0.4
			c-0.3-0.3-0.4-0.6-0.4-1.1c0-0.4,0.1-0.8,0.4-1.1c0.3-0.3,0.6-0.4,1.1-0.4C238.4,342.6,238.8,342.7,239.1,343z M239,350.7v18.4h-2
			v-18.4H239z"/>
		<path class="st1" d="M257.7,360.7h-12.3c0.1,2.4,0.7,4.2,1.7,5.3c1,1.2,2.4,1.7,4,1.7c1,0,1.8-0.1,2.6-0.4s1.5-0.8,2.4-1.4l1,1.3
			c-0.9,0.8-1.9,1.3-2.8,1.7c-1,0.4-2,0.6-3.2,0.6c-2.4,0-4.4-0.8-5.7-2.5c-1.4-1.7-2.1-4-2.1-6.9c0-1.9,0.3-3.7,0.9-5.1
			s1.5-2.6,2.6-3.4s2.4-1.2,3.9-1.2c2.3,0,4.1,0.8,5.4,2.4c1.2,1.6,1.8,3.8,1.8,6.5C257.8,359.7,257.8,360.2,257.7,360.7z
			 M255.8,358.5c0-2.1-0.4-3.7-1.3-4.8c-0.9-1.2-2.1-1.7-3.8-1.7c-1.5,0-2.8,0.6-3.7,1.8c-0.9,1.2-1.5,3-1.5,5.4h10.3V358.5z"/>
		<path class="st1" d="M273.8,351.8c0.9,1,1.3,2.4,1.3,4.2v13.2h-2v-12.9c0-1.5-0.3-2.6-0.9-3.2c-0.6-0.7-1.5-1-2.6-1
			c-1.2,0-2.2,0.3-3.1,1c-0.9,0.6-1.8,1.6-2.6,2.8v13.3h-2v-18.4h1.8l0.2,3.1c0.8-1.1,1.6-2,2.7-2.6c1-0.6,2.2-0.9,3.5-0.9
			C271.6,350.3,272.9,350.8,273.8,351.8z"/>
		<path class="st1" d="M289,368.3c-1.2,0.8-2.5,1.2-3.9,1.2c-1.4,0-2.5-0.4-3.3-1.2s-1.2-2-1.2-3.6v-12.3h-3.1v-1.7h3.1v-4.4l2-0.2
			v4.6h4.8l-0.2,1.7h-4.5v12.2c0,1.1,0.2,1.9,0.7,2.4c0.4,0.5,1.1,0.8,2,0.8c0.9,0,1.9-0.3,2.8-0.8L289,368.3z"/>
		<path class="st1" d="M298.5,350.8c0.9,0.3,1.9,0.9,2.7,1.5l-1,1.3c-0.8-0.6-1.6-1-2.4-1.3c-0.8-0.3-1.6-0.4-2.5-0.4
			c-1.2,0-2.2,0.3-3,0.8c-0.8,0.6-1.1,1.3-1.1,2.3c0,0.9,0.3,1.6,1,2.1c0.6,0.5,1.8,1,3.5,1.4c2.1,0.5,3.6,1.2,4.5,2
			c0.9,0.8,1.4,2,1.4,3.5c0,1.6-0.6,2.9-1.9,3.9c-1.3,1-2.9,1.4-4.8,1.4c-1.4,0-2.6-0.2-3.7-0.6c-1.1-0.4-2-1-2.9-1.7l1.1-1.3
			c0.8,0.7,1.7,1.1,2.5,1.5c0.9,0.3,1.8,0.5,2.9,0.5c1.4,0,2.5-0.3,3.3-0.9c0.8-0.6,1.2-1.5,1.2-2.6c0-0.8-0.1-1.4-0.4-1.8
			c-0.3-0.5-0.8-0.9-1.4-1.2c-0.7-0.3-1.7-0.7-3-1c-1.9-0.5-3.4-1.2-4.2-1.9s-1.3-1.8-1.3-3.1c0-0.9,0.3-1.7,0.8-2.5
			c0.5-0.7,1.3-1.3,2.2-1.7c0.9-0.4,2-0.6,3.1-0.6C296.5,350.3,297.6,350.4,298.5,350.8z"/>
	</g>
</g>
<g>
	<g>
		<ellipse class="st2" cx="162.5" cy="112.1" rx="26.1" ry="25.7"/>
		<path class="st2" d="M194.3,205c6.1-6.4,9.8-14.9,9.8-24.3c0-19.5-16.1-35.4-35.9-35.5c-3.1,0-8.4,0-11.5,0
			c-19.8,0.1-35.9,15.9-35.9,35.5c0,10.1,4.2,19.1,11,25.5l1.3,62.2c0,5.5,4.6,10.1,10.1,10.1h9.7c5.5,0,10.1-4.6,10.1-10.1
			c0,5.5,4.6,10.1,10.1,10.1h9.7c5.5,0,10.1-4.6,10.1-10.1L194.3,205z"/>
	</g>
	<g>
		<ellipse class="st3" cx="262.5" cy="112.1" rx="26.1" ry="25.7"/>
		<path class="st3" d="M294.3,205c6.1-6.4,9.8-14.9,9.8-24.3c0-19.5-16.1-35.4-35.9-35.5c-3.1,0-8.4,0-11.5,0
			c-19.8,0.1-35.9,15.9-35.9,35.5c0,10.1,4.2,19.1,11,25.5l1.3,62.2c0,5.5,4.6,10.1,10.1,10.1h9.7c5.5,0,10.1-4.6,10.1-10.1
			c0,5.5,4.6,10.1,10.1,10.1h9.7c5.5,0,10.1-4.6,10.1-10.1L294.3,205z"/>
	</g>
</g>
</svg>
