<?xml version="1.0" encoding="utf-8"?>
<!-- Generator: Adobe Illustrator 24.1.0, SVG Export Plug-In . SVG Version: 6.00 Build 0)  -->
<svg version="1.1" id="Capa_1" xmlns="http://www.w3.org/2000/svg" xmlns:xlink="http://www.w3.org/1999/xlink" x="0px" y="0px"
	 viewBox="0 0 425 425" style="enable-background:new 0 0 425 425;" xml:space="preserve">
<style type="text/css">
	.st0{fill:#FFCC00;}
	.st1{fill:#FFFFFF;}
	.st2{fill:#483737;}
	.st3{opacity:0.5;fill:#FFFFFF;}
	.st4{fill:#F4DDCE;}
	.st5{opacity:0.9;}
</style>
<g>
	<rect id="rect890-1-5-4-7-3" x="148.4" y="242" class="st0" width="20.4" height="14.2"/>
	<rect id="rect890-7-7-6-7-4-0" x="101.5" y="242" class="st1" width="47" height="14.2"/>
	<path id="rect890-7-6-4-1-9-3-8-0" class="st2" d="M91.7,242h6.4c1.9,0,3.4,1.6,3.4,3.6v7.1c0,2-1.5,3.6-3.4,3.6h-6.4
		c-1.9,0-3.4-1.6-3.4-3.6v-7.1C88.3,243.6,89.8,242,91.7,242z"/>
	<path id="path973-1-4-1-5-9" class="st3" d="M107.5,214.5c3.1-5.9,8.6-15.4,20.6-19.9c12.1-4.5,30.8-3.8,46.5-6.3s29-8.6,33.4-16.5
		c4.4-7.9,0.2-17.6,3.5-24.5s13.9-10.8,23.8-9.6c9.9,1.3,19,7.9,26.5,4.2c7.5-3.7,13.6-17.7,13.8-29.6s-5.2-21.8-18.2-27.2
		s-33.5-6.6-50.7-2.1s-31.9,15.1-36.9,26.8c-5,11.7-0.6,24.8-1.3,33c-0.7,8.2-6.4,11.5-16.3,13.9c-9.9,2.4-24.1,3.7-35.8,7.3
		c-11.7,3.5-21,9.2-24.7,23.5c-3.7,14.3-1.7,37.2,1.1,44.8c2.8,7.6,6.4,0,8.7-4.9C103.5,222.5,104.3,220.4,107.5,214.5L107.5,214.5z
		"/>
	<g>
		<ellipse class="st4" cx="302" cy="172.8" rx="21.8" ry="21.4"/>
		<path class="st4" d="M328.5,250.3c5.1-5.3,8.2-12.4,8.2-20.3c0-16.5-13.7-29.8-30.5-29.6c-2.3,0-6,0-8.3,0
			c-16.8-0.2-30.5,13.1-30.5,29.6c0,8.4,3.5,15.9,9.2,21.3l1.1,51.9c0,4.6,3.8,8.4,8.4,8.4h8.1c4.6,0,8.4-3.8,8.4-8.4
			c0,4.6,3.8,8.4,8.4,8.4h8.1c4.6,0,8.4-3.8,8.4-8.4L328.5,250.3z"/>
	</g>
	<g class="st5">
		<ellipse class="st3" cx="212.1" cy="239.1" rx="21.8" ry="21.4"/>
		<path class="st3" d="M238.6,316.6c5.1-5.3,8.2-12.4,8.2-20.3c0-16.3-13.4-29.5-29.9-29.6c-2.6,0-7,0-9.6,0
			c-16.5,0.1-29.9,13.3-29.9,29.6c0,8.4,3.5,15.9,9.2,21.3l1.1,51.9c0,4.6,3.8,8.4,8.4,8.4h8.1c4.6,0,8.4-3.8,8.4-8.4
			c0,4.6,3.8,8.4,8.4,8.4h8.1c4.6,0,8.4-3.8,8.4-8.4L238.6,316.6z"/>
	</g>
</g>
</svg>
