<?xml version="1.0" encoding="utf-8"?>
<!-- Generator: Adobe Illustrator 24.1.0, SVG Export Plug-In . SVG Version: 6.00 Build 0)  -->
<svg version="1.1" id="Capa_1" xmlns="http://www.w3.org/2000/svg" xmlns:xlink="http://www.w3.org/1999/xlink" x="0px" y="0px"
	 viewBox="0 0 425 425" style="enable-background:new 0 0 425 425;" xml:space="preserve">
<style type="text/css">
	.st0{opacity:0.3;fill:#F2F4F2;enable-background:new    ;}
	.st1{opacity:0.6;fill:#F2F4F2;enable-background:new    ;}
</style>
<g>
	<g id="HbUbms.tif">
		<g>
			<path class="st0" d="M124.5,217.2c0.3-3.5,0.8-9.2,1.3-14.8c0.3-4-0.8-5.8-4.4-7.5c-5.3-2.5-10.6-5-15.9-7.5
				c-4.3-2.1-5.4-5.4-3-9.7c2.8-5.1,5.6-10.3,8.4-15.4c1.9-3.5,1.7-5.6-0.9-8.6c-3.9-4.6-7.8-9.1-11.8-13.7c-2.8-3.4-2.4-7,1-9.7
				c4.8-3.7,9.6-7.3,14.4-10.9c3-2.3,3.7-4.5,2.6-8.1c-1.7-5.6-3.4-11.2-5.1-16.8c-1.4-4.9,0.3-7.9,5.3-9c5.5-1.3,11.1-2.6,16.6-3.9
				c4.1-1,5.5-2.6,6.1-6.8c0.7-5.6,1.4-11.2,2-16.8c0.6-5.4,3.4-7.4,8.7-6.4c5.4,1,10.9,2.1,16.4,3.1c4.4,0.9,6.3,0,8.6-3.8
				c2.9-4.8,5.8-9.7,8.6-14.5c2.6-4.4,6.1-5,10.2-2.2c4.7,3.3,9.4,6.6,14.1,9.8c3.4,2.4,5.6,2.4,9.1-0.1c4.7-3.3,9.4-6.6,14.2-9.9
				c3.8-2.6,7.4-1.8,9.8,2.1c3.1,5,6.1,10.2,9.2,15.3c1.9,3.2,3.9,4.2,7.5,3.4c5.9-1,11.8-2.2,17.8-3.4c4.6-0.9,7.4,1.3,8.1,5.9
				c0.7,5.7,1.4,11.4,2.1,17c0.6,4.5,1.8,6.1,6.2,7.1c5.5,1.4,11.1,2.6,16.6,3.9c4.8,1.1,6.6,4.2,5.2,9c-1.7,5.7-3.4,11.4-5.1,17
				c-1,3.5-0.3,5.7,2.6,7.9c4.6,3.5,9.2,7,13.8,10.5c4.3,3.3,4.6,6.6,1.1,10.8c-3.7,4.3-7.4,8.6-11.1,13c-2.6,3-2.9,5.2-1,8.6
				c2.8,5.2,5.7,10.4,8.6,15.7c2.2,4.1,1.1,7.5-3,9.5c-5.1,2.5-10.3,4.9-15.5,7.3c-4.2,2-5.2,3.8-4.8,8.4c0.5,5.8,1,11.5,1.4,17.3
				c0.3,4.4-2,7.1-6.4,7.3c-6,0.2-12,0.3-18.1,0.4c-3.9,0.1-5.6,1.3-6.9,5c-2,5.6-3.9,11.2-5.9,16.8c-1.6,4.6-4.8,6-9.3,4.2
				c-5.4-2.2-10.8-4.6-16.2-6.9c-3.6-1.5-5.8-1-8.5,1.9c-4,4.3-8,8.6-12,12.9c-3.2,3.4-6.8,3.4-10,0c-4.1-4.3-8.1-8.7-12.2-13
				c-2.6-2.7-4.9-3.3-8.3-1.8c-5.3,2.2-10.5,4.5-15.8,6.7c-5,2.2-8.1,0.8-9.9-4.3c-1.9-5.5-3.8-11-5.8-16.6c-1.3-3.5-3-4.7-6.7-4.8
				c-5.6-0.2-11.3-0.2-16.9-0.4C125.9,227.5,123.9,225.3,124.5,217.2z M212.3,230.6c45.4-0.1,82.2-36.7,82.2-81.9
				c0-45.5-36.8-82.4-82.3-82.3c-45.2,0.1-82,37-81.9,82.2C130.5,193.8,167.3,230.7,212.3,230.6z"/>
			<path class="st1" d="M150.6,237.6c1.4,3.9,2.6,7.3,3.8,10.7c0.6,1.5,1,3,1.6,4.6c2.5,6.6,9.4,9.8,16,7.2c5.5-2.2,11-4.6,16.4-7
				c1.4-0.6,2.2-0.4,3.1,0.7c3.8,4.2,7.8,8.4,11.7,12.6c5.4,5.7,13.2,5.6,18.6-0.1c0.9-1,1.8-1.8,3.1-2.6c-0.5,1.4-1,2.8-1.5,4.2
				c-12.3,33.8-24.6,67.5-36.9,101.3c-0.1,0.3-0.2,0.6-0.3,0.9c-0.9,0.9-1.7,2.3-2.6,2.4c-0.9,0.1-2.3-1.1-2.8-2.1
				c-2.4-4.6-4.5-9.4-6.7-14.2c-4-8.6-8.1-17.4-12.1-26c-1.4-3.1-2.3-3.4-5.4-2c-13,6.1-26.2,12.2-39.2,18.3c-0.5,0.2-1,0.6-1.4,0.6
				c-1,0.1-2.6,0.3-3.1-0.2c-0.6-0.7-1-2.3-0.6-3.3c1.4-4.4,3-8.7,4.6-13c10.9-29.8,21.7-59.6,32.6-89.4
				C149.7,240.1,150.1,239.1,150.6,237.6z"/>
			<path class="st0" d="M235.6,252.9c5.5,2.3,10.8,4.6,16.2,6.8c7.8,3.3,14.8,0.2,17.6-7.8c1.6-4.6,3.2-9.1,5-14.2
				c0.6,1.5,1,2.6,1.4,3.6c12.2,33.5,24.4,67,36.6,100.5c0.6,1.7,1.9,3.4,0.1,5.1c-1.8,1.7-3.5,0.2-5.1-0.6c-12.9-6-25.8-12-38.6-18
				c-3.4-1.6-4.2-1.3-5.8,2.2c-6.1,13.1-12.2,26.3-18.3,39.4c-0.6,1.4-1.2,2.8-3,2.6c-1.8-0.1-2.3-1.5-2.8-3
				c-7.4-20.5-14.9-40.9-22.3-61.4c-0.3-0.8-0.4-1.8-0.1-2.6c6.2-17.3,12.6-34.5,18.9-51.8C235.2,253.7,235.4,253.5,235.6,252.9z"/>
			<path class="st0" d="M187.9,193.5c-4.5,0.1-7.4-3.3-6.7-7.3c1-6.5,2-13,3.4-19.4c0.8-3.8-0.1-6.6-3-9.3c-4.7-4.2-9-8.8-13.7-13.2
				c-2.1-2-3.1-4.2-2.2-7c1-2.7,3.1-3.8,5.8-4.2c6.7-1,13.4-1.9,20.2-2.9c2.7-0.4,4.6-1.8,5.8-4.3c2.9-6.1,5.9-12,8.9-18.1
				c1.2-2.6,3-4.3,6-4.3c3,0,4.7,1.8,6,4.3c2.9,6.1,6,12,8.9,18.1c1.3,2.6,3.2,4,6.1,4.4c6.6,0.9,13.3,1.9,19.9,2.9
				c2.7,0.4,4.9,1.4,5.8,4.2c1,2.8-0.1,5-2.2,7c-4.7,4.6-9.4,9.2-14.2,13.7c-2.5,2.3-3.3,4.8-2.6,8.1c1.3,6.4,2.2,13,3.4,19.4
				c0.6,2.9,0,5.3-2.5,7c-2.4,1.7-4.8,1.2-7.2-0.1c-5.8-3.1-11.6-6.1-17.4-9.2c-2.9-1.6-5.4-1.6-8.3,0c-5.8,3.2-11.7,6.2-17.6,9.3
				C189.7,193,188.5,193.3,187.9,193.5z"/>
		</g>
	</g>
	<path class="st1" d="M212.4,72.5c42.2,0.1,76.2,34.2,76.1,76.2c-0.2,41.9-34.2,75.8-76.2,75.7c-41.9-0.1-75.9-34.2-75.8-75.9
		C136.6,106.5,170.6,72.5,212.4,72.5z M175,186.3c-0.1,10.3,9.5,16.2,17.8,12.1c6-3,11.9-6.2,17.8-9.4c1.4-0.8,2.5-0.7,3.8,0.1
		c5.8,3.1,11.6,6.2,17.4,9.2c4.5,2.3,9,2.2,13.1-0.8c4.2-3,5.7-7.4,4.9-12.4c-1-6.5-2.2-13-3.4-19.4c-0.2-1.4,0-2.3,1-3.3
		c4.7-4.6,9.4-9.1,14.1-13.8c3.8-3.7,5.2-8,3.5-13c-1.7-5-5.4-7.7-10.6-8.4c-6.4-0.9-12.9-1.8-19.2-2.9c-1-0.2-2.2-1-2.7-2
		c-3-5.8-5.8-11.6-8.7-17.4c-0.6-1.3-1.4-2.6-2.4-3.7c-5.9-6.3-15.9-4.8-20,3.1c-3,6-5.9,12.1-9,18c-0.4,0.9-1.6,1.7-2.5,1.8
		c-6.4,1-12.8,2-19.2,2.9c-5.2,0.7-9,3.3-10.7,8.3c-1.8,5.1-0.3,9.5,3.5,13.3c3.8,3.7,7.4,7.7,11.5,11.1c3.2,2.6,3.9,5.4,3,9.4
		C176.6,175.1,175.8,181.2,175,186.3z"/>
</g>
</svg>
