<?xml version="1.0" encoding="utf-8"?>
<!-- Generator: Adobe Illustrator 24.1.0, SVG Export Plug-In . SVG Version: 6.00 Build 0)  -->
<svg version="1.1" id="Capa_1" xmlns="http://www.w3.org/2000/svg" xmlns:xlink="http://www.w3.org/1999/xlink" x="0px" y="0px"
	 viewBox="0 0 425 425" style="enable-background:new 0 0 425 425;" xml:space="preserve">
<style type="text/css">
	.st0{fill:#E0EADF;}
	.st1{fill:#C0D9DF;}
	.st2{fill:#FFFFFF;}
</style>
<g>
	<g>
		<path id="path882_13_" class="st0" d="M200,143.5c-1.8-9.9-6.3-20.7-11.4-29.5c-5.1-8.8-11-15.8-17.2-19.1
			c-6.3-3.4-13-3.1-22.7,2.7c-9.7,5.8-22.5,17.2-33.2,31.4S96,160.1,91.1,171.1c-4.9,11-6,15.9-6.4,19.6c-0.3,3.7,0.1,6.1-2.3,18.8
			c-2.5,12.6-7.8,35.4-10.8,51.2c-3,15.8-3.7,24-3.7,29.3c0,5.3,0.7,7.3,4.9,9.5c4.3,2.2,12.5,4.7,21.6,3.7c9.1-1,19.1-5.5,29.1-9.2
			c9.9-3.7,19.8-6.6,27.4-8.5c7.6-1.9,13-2.8,19.6-9.7s14.4-19.9,19.6-38.2s7.6-42,9.3-58.5C200.9,162.6,201.8,153.4,200,143.5
			L200,143.5z"/>
		<path id="path882-7_13_" class="st1" d="M200,143.5c-1.8-9.9-6.3-20.7-11.4-29.5c-5.1-8.8-11-15.8-17.2-19.1
			c-6.3-3.4-13-3.1-22.7,2.7c-9.7,5.8-22.5,17.2-33.2,31.4S96,160.1,91.1,171.1c-4.9,11-6,15.9-6.4,19.6c-0.3,3.7,0.1,6.1,6.7,23
			c6.6,16.9,19.3,48.2,30.6,62.4c11.3,14.2,21.1,11.3,28.7,9.4c7.6-1.9,13-2.8,19.6-9.7s14.4-19.9,19.6-38.2
			c5.1-18.3,7.6-42,9.3-58.5C200.9,162.6,201.8,153.4,200,143.5L200,143.5z"/>
		<path id="path882-7-9_13_" class="st0" d="M200,143.5c-1.8-9.9-6.3-20.7-11.4-29.5c-5.1-8.8-11-15.8-17.2-19.1
			c-6.3-3.4-13-3.1-22.7,2.7c-9.7,5.8-22.5,17.2-31.3,27.5s-13.8,19.6-17.4,26.5c-3.7,6.9-6,11.5-8.3,19.1s-4.3,18.1,12.5,30.6
			c16.8,12.5,52.6,27.1,71.7,22.5c19.1-4.6,21.6-28.3,23.2-44.7C200.9,162.6,201.8,153.4,200,143.5z"/>
		<path id="path882-8_13_" class="st1" d="M225.9,143.5c1.8-9.9,6.3-20.7,11.4-29.5s11-15.8,17.2-19.1c6.3-3.4,13-3.1,22.7,2.7
			c9.7,5.8,22.5,17.2,33.2,31.4c10.7,14.2,19.4,31.2,24.4,42.1s6,15.9,6.4,19.6c0.3,3.7-0.1,6.1,2.3,18.8
			c2.5,12.6,7.8,35.4,10.8,51.2c3,15.8,3.7,24,3.7,29.3c0,5.3-0.7,7.3-4.9,9.5c-4.3,2.2-12.5,4.7-21.6,3.7c-9.1-1-19.1-5.5-29.1-9.2
			c-9.9-3.7-19.8-6.6-27.4-8.5c-7.6-1.9-13-2.8-19.6-9.7c-6.6-6.9-14.4-19.9-19.6-38.2c-5.1-18.3-7.6-42-9.3-58.5
			C225,162.7,224.1,153.5,225.9,143.5L225.9,143.5z"/>
		<path id="path882-7-5_13_" class="st0" d="M225.9,143.5c1.8-9.9,6.3-20.7,11.4-29.5s11-15.8,17.2-19.1c6.3-3.4,13-3.1,22.7,2.7
			c9.7,5.8,22.5,17.2,33.2,31.4c10.7,14.2,19.4,31.2,24.1,41.1c4.6,9.9,5.2,12.6,6.5,21.4c1.4,8.8,3.5,23.5-3.8,47.7
			c-7.3,24.2-24.2,57.9-33.6,53.4s-11.3-47-19.7-65c-8.4-18-23.2-11.3-32.3-11.5c-9-0.2-12.3-7.3-15.6-15.9
			c-3.3-8.5-6.7-18.5-8.9-28C225,162.7,224.1,153.5,225.9,143.5L225.9,143.5z"/>
		<path class="st2" d="M257.6,147c-4.5,0.6-12.6,3-18.4,2.8c-3.6-0.1-10.2-2.4-14.9-7.7h0.2c-0.3-0.7-0.9-1.3-1.6-1.7
			c-0.5-0.7-1-1.4-1.4-2.2c1.8-0.2,3.3-1.8,3.3-3.7c0-2-1.7-3.7-3.7-3.7h-0.7v-1.7h0.7c2.1,0,3.7-1.7,3.7-3.7c0-2-1.7-3.7-3.7-3.7
			h-0.7V120h0.7c2.1,0,3.7-1.7,3.7-3.7c0-2-1.7-3.7-3.7-3.7h-0.7v-1.7h0.7c2.1,0,3.7-1.7,3.7-3.7c0-2-1.7-3.7-3.7-3.7h-0.7v-1.7h0.7
			c2.1,0,3.7-1.7,3.7-3.7c0-2-1.7-3.7-3.7-3.7h-0.7v-1.7h0.7c2.1,0,3.7-1.7,3.7-3.7c0-2.1-1.7-3.7-3.7-3.7h-0.7v-1.7h0.7
			c2.1,0,3.7-1.7,3.7-3.7c0-2.1-1.7-3.7-3.7-3.7h-0.7v-1.7h0.7c2.1,0,3.7-1.7,3.7-3.7c0-2-1.7-3.7-3.7-3.7h-0.7v-1.7h0.7
			c2.1,0,3.7-1.7,3.7-3.7c0-2-1.7-3.7-3.7-3.7h-0.7v-1.9c0-0.1-0.1-0.2-0.2-0.2h-11.5c-0.1,0-0.2,0.1-0.2,0.2v1.9h-0.7
			c-2,0-3.7,1.7-3.7,3.7c0,2.1,1.7,3.7,3.7,3.7h0.7v1.7h-0.7c-2,0-3.7,1.7-3.7,3.7c0,2.1,1.7,3.7,3.7,3.7h0.7v1.7h-0.7
			c-2,0-3.7,1.7-3.7,3.7c0,2,1.7,3.7,3.7,3.7h0.7v1.7h-0.7c-2,0-3.7,1.7-3.7,3.7c0,2,1.7,3.7,3.7,3.7h0.7v1.7h-0.7
			c-2,0-3.7,1.7-3.7,3.7c0,2.1,1.7,3.7,3.7,3.7h0.7v1.7h-0.7c-2,0-3.7,1.7-3.7,3.7c0,2.1,1.7,3.7,3.7,3.7h0.7v1.7h-0.7
			c-2,0-3.7,1.7-3.7,3.7c0,2.1,1.7,3.7,3.7,3.7h0.7v1.7h-0.7c-2,0-3.7,1.7-3.7,3.7c0,2.1,1.7,3.7,3.7,3.7h0.7v1.7h-0.7
			c-2,0-3.7,1.7-3.7,3.7c0,2.1,1.7,3.7,3.7,3.7h0.7v0.8c-0.2,0.3-0.5,0.6-0.8,0.9c-1.5,0-2.7,0.9-3.3,2.2h1.2
			c-5.8,5.3-14.5,8.4-17.5,9.5c-4.3,1.5-8.7,1.4-13.9,1.4c-5.2,0.1-11.7,0.4-11.5,1.2c0.2,0.8,6.9,2,12.3,3.1
			c5.5,1.1,9.7,2,10.8,4.7c1.1,2.6-1,7-4.3,9.7c-3.3,2.7-8.1,3.8-13.8,5.4s-12.9,3.6-12.7,4.3c0.2,0.7,7.7,0.1,11.8,2.6
			c4,2.5,4.8,8.1,5.9,11.4s2.3,4.4,2.8,1.9c0.5-2.6,0.2-8.8,1.7-13c1.5-4.2,4.8-6.4,6.5-7.5c1.7-1.1,16.4-15.6,18.6-16.8
			c2.2-1.2,6.6-3.7,10.7-4.3c4.1-0.5,7.9,0.9,13.1,5.1c5.2,4.3,11.9,11.4,16.6,15.6c4.7,4.1,7.6,5.2,9.2,4.7
			c1.6-0.5,1.9-2.5-0.9-6.8c-2.8-4.3-8.6-10.8-9.3-14.6c-0.7-3.7,3.7-4.7,8.3-6.1c4.6-1.4,9.3-3.3,11.2-4.7
			C263,147.5,262.1,146.4,257.6,147z"/>
	</g>
</g>
</svg>
