<?xml version="1.0" encoding="utf-8"?>
<!-- Generator: Adobe Illustrator 24.1.0, SVG Export Plug-In . SVG Version: 6.00 Build 0)  -->
<svg version="1.1" id="Capa_1" xmlns="http://www.w3.org/2000/svg" xmlns:xlink="http://www.w3.org/1999/xlink" x="0px" y="0px"
	 viewBox="0 0 425 425" style="enable-background:new 0 0 425 425;" xml:space="preserve">
<style type="text/css">
	.st0{fill:#F4DDCE;}
	.st1{fill:#FFCC33;}
	.st2{fill:#E8C0A6;}
	.st3{fill:#F9F5F4;}
</style>
<g>
	<path class="st0" d="M187.9,123.9c-2.6,1.7-3.6,1.2-6.6-0.6l0,0c-0.7-0.4-1.5-0.9-2.3-1.5v35.9h9L187.9,123.9L187.9,123.9z"/>
	<path id="path945-6_14_" class="st1" d="M181.2,123.3c-3-1.8-8-5-8.1-10.8s4.8-14.3,7.4-18.7c2.6-4.4,2.8-4.8,5.5-0.7
		c2.7,4.1,7.8,12.6,8.2,19c0.4,6.3-3.8,10.1-6.5,11.8C185.2,125.6,184.2,125.1,181.2,123.3L181.2,123.3z"/>
	<path class="st0" d="M215.2,112.4c-2.6,1.7-3.6,1.2-6.6-0.6l0,0c-0.7-0.4-1.5-0.9-2.3-1.5v47.4h9L215.2,112.4L215.2,112.4z"/>
	<path id="path945-0-2_16_" class="st1" d="M208.5,111.8c-3-1.8-8-5-8.1-10.8s4.8-14.3,7.4-18.7c2.6-4.4,2.8-4.8,5.5-0.7
		c2.7,4.1,7.8,12.6,8.2,19c0.4,6.3-3.8,10.1-6.5,11.8C212.5,114.1,211.5,113.6,208.5,111.8L208.5,111.8z"/>
	<path class="st0" d="M242.4,124c-2.6,1.7-3.6,1.2-6.6-0.6l0,0c-0.7-0.4-1.5-0.9-2.3-1.5v35.9h9L242.4,124
		C242.5,123.9,242.5,123.9,242.4,124z"/>
	<path id="path945-0-4-9_14_" class="st1" d="M235.8,123.3c-3-1.8-8-5-8.1-10.8s4.8-14.3,7.4-18.7c2.6-4.4,2.8-4.8,5.5-0.7
		c2.7,4.1,7.8,12.6,8.2,19c0.4,6.3-3.8,10.1-6.5,11.8C239.8,125.6,238.8,125.1,235.8,123.3L235.8,123.3z"/>
	<path class="st0" d="M160.6,137.6c-2.6,1.7-3.6,1.2-6.6-0.6l0,0c-0.7-0.4-1.5-0.9-2.3-1.5v23.2c2.4-0.6,4.9-0.9,7.5-0.9h1.5
		L160.6,137.6C160.6,137.5,160.6,137.5,160.6,137.6z"/>
	<path id="path945-6-1_4_" class="st1" d="M153.9,136.9c-3-1.8-8-5-8.1-10.8s4.8-14.3,7.4-18.7c2.6-4.4,2.8-4.8,5.5-0.7
		c2.7,4.1,7.8,12.6,8.2,19c0.4,6.3-3.8,10.1-6.5,11.8C157.9,139.2,156.9,138.7,153.9,136.9L153.9,136.9z"/>
	<path class="st0" d="M269.7,137.4c-2.6,1.7-3.6,1.2-6.6-0.6l0,0c-0.7-0.4-1.5-0.9-2.3-1.5v22.4h5.2c1.3,0,2.6,0.1,3.8,0.2
		L269.7,137.4C269.8,137.4,269.8,137.4,269.7,137.4z"/>
	<path id="path945-6-1-3_4_" class="st1" d="M263.1,136.8c-3-1.8-8-5-8.1-10.8s4.8-14.3,7.4-18.7c2.6-4.4,2.8-4.8,5.5-0.7
		c2.7,4.1,7.8,12.6,8.2,19c0.4,6.3-3.8,10.1-6.5,11.8S266.1,138.6,263.1,136.8L263.1,136.8z"/>
	<path class="st2" d="M328.5,301.6c0.1-1,0.2-1.9,0.2-2.9v-44.3c0-13.7-11.1-24.7-24.7-24.7H121.1c-13.7,0-24.7,11.1-24.7,24.7v44.3
		c0,1,0.1,2,0.2,2.9H328.5z"/>
	<path class="st2" d="M131.1,228.1c2.8-0.3,2.8-0.3,28.8-0.2l0,0c26,0.1,78,0.3,104.6,0.4c26.6,0.1,27.8,0.1,32.9,0.8c0,0,0,0,0.1,0
		c0-0.3,0-0.5,0-0.8v-39c0-17.4-14.1-31.6-31.6-31.6H159c-17.4,0-31.6,14.1-31.6,31.6v39c0,0.1,0,0.2,0,0.3
		C128.9,228.3,130.2,228.2,131.1,228.1z"/>
	<path id="rect924-0_16_" class="st3" d="M85.3,301.6h254.4c3.7,0,6.7,3,6.7,6.7v11.5c0,3.7-3,6.7-6.7,6.7H85.3
		c-3.7,0-6.7-3-6.7-6.7v-11.5C78.6,304.6,81.6,301.6,85.3,301.6z"/>
	<path id="path1040-6_16_" class="st3" d="M175.5,157.5c18.7,0.1,56.2,0.3,75.4,0.4c19.2,0.1,20.1,0.1,22.8,1.1s7.4,3.1,10.9,5.5
		c3.5,2.5,5.9,5.4,7.6,8s2.8,4.8,3.6,7c0.8,2.3,1.3,4.6,1.3,7s-0.5,5-2.4,4.6c-1.8-0.4-4.9-3.9-9-5.3c-4.1-1.4-9.3-0.8-12.3,0.8
		c-3.1,1.6-4,4.2-7,3.4s-7.9-4.8-12.4-5.3c-4.4-0.4-8.3,2.7-11.7,5c-3.4,2.2-6.2,3.5-10.3,1.9s-9.5-5.9-14.2-6.3
		c-4.7-0.4-8.7,3-14,2.8c-5.3-0.2-12-4.1-17.9-3.4c-6,0.8-11.3,6.2-17.5,6.1c-6.2-0.1-13.3-5.7-17.9-6c-4.6-0.4-6.7,4.5-9.7,6.2
		s-6.8,0.3-9.1-2c-2.3-2.3-3.2-5.4-2.5-8.9c0.7-3.5,3.2-7.5,6.3-10.9c3.1-3.3,6.9-6,10.6-7.8c3.7-1.9,7.2-2.9,9-3.5
		C156.7,157.4,156.7,157.4,175.5,157.5L175.5,157.5z"/>
	<path id="path1040-5-2_16_" class="st3" d="M159.9,227.9c26,0.1,78,0.3,104.6,0.4c26.6,0.1,27.8,0.1,32.9,0.8s14,2.1,19.4,4.7
		c5.4,2.6,7.3,6.3,8.5,9.2c1.1,2.9,1.5,4.9,2.1,7.1c0.6,2.2,1.3,4.5,1.3,6.9s-0.7,5-3.3,4.6c-2.5-0.4-6.8-3.9-12.5-5.3
		s-12.8-0.8-17.4,2.1c-4.5,2.9-6.4,8-10.5,7.3c-4.1-0.8-10.5-7.4-16.3-9.1c-5.9-1.7-11.3,1.5-16.7,4.9s-10.9,7-16.6,5.4
		s-11.7-8.2-17.9-8.2c-6.2,0-12.8,6.7-20.1,6.5c-7.4-0.2-15.6-7.4-23.1-7.4c-7.5-0.1-14.2,7-21.5,6.8c-7.2-0.2-14.9-7.5-21.3-7.8
		c-6.4-0.3-11.5,6.5-17,8.3s-11.4-1.4-14.6-4.2c-3.2-2.8-3.7-5.2-2.7-9.4c0.9-4.1,3.2-9.9,6.8-13.8s8.4-5.8,13.6-7.1
		s10.9-1.9,13.7-2.2C133.9,227.8,133.9,227.8,159.9,227.9L159.9,227.9z"/>
</g>
</svg>
