<?xml version="1.0" encoding="utf-8"?>
<!-- Generator: Adobe Illustrator 24.1.0, SVG Export Plug-In . SVG Version: 6.00 Build 0)  -->
<svg version="1.1" id="Capa_1" xmlns="http://www.w3.org/2000/svg" xmlns:xlink="http://www.w3.org/1999/xlink" x="0px" y="0px"
	 viewBox="0 0 425 425" style="enable-background:new 0 0 425 425;" xml:space="preserve">
<style type="text/css">
	.st0{opacity:0.4;fill:#F2F4F2;}
	.st1{fill:#FFFFFF;}
	.st2{fill:#E0EADF;}
	.st3{fill:#CC6633;}
	.st4{fill:#FA7F43;}
</style>
<g>
	<path id="path1727-1-9-4_2_" class="st0" d="M83.4,139v112.7l130.9,87.3L346.8,267l0.4-120.9"/>
	<path id="path1934-1_2_" class="st0" d="M216.3,185.1l-2.1,154l132.1-70.7l0.8-122.2L216.3,185.1z"/>
	<path id="path1721-7_2_" class="st1" d="M83.4,139c23.5-3.9,122.6-25.3,122.6-25.3l141.2,32.1l-130.9,40.3L83.4,139z"/>
	<path class="st2" d="M347.2,145.9l-130.8,40.2v25.7c1.2-0.9,2.3-2.3,3.3-3c1.3-0.9,2.6-0.8,3.4,0.2c0.9,0.9,1.4,2.6,2.7,2.2
		c1.2-0.4,3.2-2.9,5.2-3.3c2.1-0.3,4.3,1.5,6.8,0.3c2.5-1.2,5.4-5.3,8.8-7.3c3.4-2,7.2-1.8,9.9-2.7c2.7-0.8,4.2-2.7,6.3-3.2
		c2.1-0.5,4.9,0.3,7.2-0.8c2.3-1.1,4.1-4.1,6.7-6.4c2.6-2.3,6.1-4,9-4c2.9,0,5.2,1.7,7.3,0.9c2.1-0.8,3.9-3.9,6-4.8
		c2.1-0.8,4.6,0.7,7.2-1.3c2.5-2,5.2-7.5,7.7-8.7c2.5-1.2,5,2,7.4,2.2c2.3,0.2,4.5-2.7,6.2-2.7c1.6,0,2.8,2.9,4.5,2.6
		c1.7-0.3,4.1-3.6,6.1-4.2c2-0.6,3.6,1.3,4.9,1.8c1.3,0.5,2.3-0.5,2.9-4.5c0.1-0.8,0.8-1.8,1.8-2.9v-16.3L347.2,145.9z"/>
	<path class="st0" d="M216.4,186.1L216.4,186.1l-132.8-47v12.2c0.7,0.5,1.2,0.9,1.4,1.2c1.2,2.2,3.3,0.8,5.4,2.5
		c2.1,1.7,4.1,6.3,7.1,7.3c2.9,0.9,6.9-1.9,9.8-1.6c3,0.3,5,3.8,8,4.3c3,0.5,6.8-2,9.7-1.5c2.9,0.5,4.8,4,6.6,7.2c1.8,3.2,3.4,6,6,6
		c2.6,0,6-2.8,8.5-1.4c2.5,1.4,4,7.1,5.6,9.3c1.6,2.2,3.2,0.8,5,1.5c1.7,0.7,3.5,3.3,5.9,3.6c2.4,0.2,5.4-1.9,8.6-0.9
		s6.7,5.5,9.8,7.5c3.1,2,5.9,1.7,9,2.7c3.1,1,6.5,3.3,9.4,3c2.9-0.3,5.2-3.3,7-2.2c1.8,1.2,3,6.5,4.5,9.5c1.4,3,3.1,3.7,4.6,3
		c0.3-0.1,0.6-0.3,0.9-0.6V186.1z"/>
	
		<ellipse id="path1744-2-2-5_2_" transform="matrix(0.9826 -0.1856 0.1856 0.9826 -43.7282 32.5548)" class="st0" cx="152" cy="249.9" rx="25.2" ry="28"/>
	<path id="path1752-4_2_" class="st3" d="M256.3,91.1c-10.2,5.4-44.7,24-66.7,49.2s-31.5,57-39,75s-13.1,22.3-15.8,27.2
		c-2.7,4.9-2.6,10.5,0.1,15.2c2.6,4.7,7.7,8.7,12.9,9.9c5.1,1.2,10.3-0.3,14.3-3.5c4-3.2,7-8.1,7.1-13.3c0.2-5.2-2.5-10.8-3.5-18
		c-1-7.3-0.3-16.2,4-30.5c4.3-14.2,12.2-33.8,24.2-51.5c12-17.7,28.1-33.6,43.3-45.5S266.5,85.7,256.3,91.1z"/>
	<path class="st4" d="M144.3,141.6c0.8-1.3,1.6-2.5,2.5-3.8c8.8-12.9,20.5-24.5,31.5-33.1c11-8.6,21.4-14.3,13.9-10.3
		c-7.4,4-32.6,17.5-48.6,35.9c-2.2,2.5-3.8,4.3-6,6.7C133.1,142,140.7,147.8,144.3,141.6z"/>
	<path class="st4" d="M254,163.2c0.8-1.3,1.6-2.5,2.5-3.8c8.8-12.9,20.5-24.5,31.5-33.1c11-8.6,21.4-14.3,13.9-10.3
		c-7.4,4-32.6,17.5-48.6,35.9c-2.2,2.5-3.8,4.3-6,6.7C242.8,163.6,250.4,169.4,254,163.2z"/>
</g>
</svg>
