<?xml version="1.0" encoding="utf-8"?>
<!-- Generator: Adobe Illustrator 24.1.0, SVG Export Plug-In . SVG Version: 6.00 Build 0)  -->
<svg version="1.1" id="Capa_1" xmlns="http://www.w3.org/2000/svg" xmlns:xlink="http://www.w3.org/1999/xlink" x="0px" y="0px"
	 viewBox="0 0 425 425" style="enable-background:new 0 0 425 425;" xml:space="preserve">
<style type="text/css">
	.st0{enable-background:new    ;}
	.st1{fill:#9664D9;}
</style>
<g>
	<g class="st0">
		<path class="st1" d="M140,326.9h-2l-1.1-11.5c-0.4-4.5-0.8-8-0.9-10.5l-6.1,19.2h-2l-6.2-19.2c-0.1,2.3-0.4,5.3-0.7,9.1l-0.1,1.4
			l-1.1,11.6h-2l2.3-24.1h2.9l6,18.7l5.8-18.7h3L140,326.9z"/>
		<path class="st1" d="M156.4,310.7c1.4,1.7,2,4,2,7s-0.7,5.4-2.1,7c-1.4,1.8-3.3,2.6-5.7,2.6c-2.5,0-4.3-0.9-5.7-2.6s-2-4-2-7
			c0-1.9,0.4-3.6,1-5.1s1.5-2.6,2.7-3.3c1.1-0.8,2.6-1.1,4.1-1.1C153.2,308.1,155,308.9,156.4,310.7z M146.6,311.8
			c-1,1.3-1.5,3.3-1.5,5.9s0.5,4.5,1.5,5.8s2.4,2,4.1,2c1.8,0,3.2-0.7,4.1-2c1-1.3,1.5-3.3,1.5-5.9s-0.5-4.5-1.5-5.8s-2.4-2-4.1-2
			C149,309.9,147.6,310.5,146.6,311.8z"/>
		<path class="st1" d="M170.3,308.6c1,0.4,1.8,0.9,2.7,1.5l-1,1.3c-0.9-0.6-1.7-1.1-2.4-1.3c-0.8-0.3-1.6-0.4-2.5-0.4
			c-1.2,0-2.2,0.3-3,0.9c-0.8,0.5-1.1,1.3-1.1,2.3c0,0.9,0.4,1.6,1,2.1s1.8,1,3.5,1.4c2.1,0.5,3.6,1.2,4.5,2c1,0.8,1.4,2,1.4,3.5
			c0,1.7-0.6,2.9-1.9,3.9c-1.2,1-2.8,1.4-4.8,1.4c-1.4,0-2.6-0.2-3.7-0.6s-2-1-2.9-1.8l1.1-1.3c0.8,0.6,1.7,1.1,2.6,1.5
			c0.9,0.4,1.8,0.4,2.9,0.4c1.3,0,2.5-0.4,3.3-1s1.2-1.5,1.2-2.6c0-0.8-0.2-1.3-0.4-1.8c-0.3-0.4-0.8-0.9-1.4-1.2
			c-0.7-0.4-1.7-0.7-3-1.1c-1.9-0.5-3.3-1.1-4.2-1.9s-1.3-1.8-1.3-3.1c0-0.9,0.3-1.8,0.8-2.5s1.2-1.3,2.2-1.8c1-0.4,1.9-0.6,3.1-0.6
			C168.3,308.1,169.4,308.3,170.3,308.6z"/>
		<path class="st1" d="M185.7,326.2c-1.1,0.8-2.5,1.1-3.9,1.1s-2.6-0.4-3.3-1.2c-0.8-0.8-1.2-2-1.2-3.6v-12.3h-3.1v-1.7h3.1v-4.4
			l2-0.3v4.7h4.8l-0.3,1.7h-4.5v12.1c0,1.1,0.3,1.8,0.7,2.4c0.4,0.5,1.1,0.8,2,0.8c1,0,1.8-0.3,2.8-0.8L185.7,326.2z"/>
		<path class="st1" d="M196.5,308.3l-0.4,1.9c-0.5-0.2-1.1-0.2-1.6-0.2c-1.2,0-2.3,0.4-3,1.3c-0.8,0.9-1.4,2.3-1.9,4.2v11.4h-2
			v-18.5h1.8l0.2,4.1c0.5-1.5,1.1-2.6,2-3.4c0.9-0.7,1.9-1.1,3.2-1.1C195.4,308.1,196,308.2,196.5,308.3z"/>
		<path class="st1" d="M209.5,324.9c0.3,0.4,0.6,0.7,1.1,1l-0.4,1.4c-0.9-0.2-1.5-0.4-1.9-1c-0.4-0.4-0.8-1.1-0.9-2.1
			c-1.2,2-3.2,3.1-5.7,3.1c-1.8,0-3.2-0.5-4.1-1.5c-1-1-1.5-2.3-1.5-4c0-1.9,0.7-3.3,2-4.4s3.3-1.6,5.6-1.6h3.5V314
			c0-1.5-0.4-2.6-1-3.3c-0.6-0.7-1.8-1-3.3-1c-1.4,0-3.1,0.4-5,1.1l-0.5-1.6c2-0.8,4-1.2,5.8-1.2c4,0,6,1.9,6,5.8v8.9
			C209.1,323.8,209.2,324.5,209.5,324.9z M207,322.4v-5.1h-3.2c-1.8,0-3.3,0.4-4.3,1.1s-1.5,1.8-1.5,3.3c0,1.2,0.4,2.2,1.1,2.9
			c0.7,0.7,1.7,1.1,2.8,1.1C204.1,325.6,205.9,324.6,207,322.4z"/>
		<path class="st1" d="M236,301v26h-1.8l-0.3-2.8c-1.2,2.1-3.1,3.2-5.5,3.2c-2.1,0-3.8-0.9-5-2.6s-1.8-4-1.8-7c0-1.9,0.3-3.6,0.9-5
			c0.6-1.5,1.4-2.6,2.5-3.4s2.4-1.2,3.9-1.2c2.1,0,3.8,0.8,5.2,2.5v-9.9L236,301z M231.7,324.7c0.8-0.5,1.6-1.4,2.2-2.6v-9.6
			c-1.3-1.8-2.9-2.8-4.8-2.8c-1.7,0-3,0.7-4,2.1s-1.4,3.3-1.4,5.9s0.4,4.5,1.3,5.8c0.9,1.3,2.1,2,3.7,2
			C229.9,325.6,230.9,325.4,231.7,324.7z"/>
		<path class="st1" d="M254.7,318.5h-12.3c0.1,2.4,0.7,4.1,1.7,5.4c1,1.2,2.4,1.8,4,1.8c1,0,1.8-0.2,2.6-0.4
			c0.7-0.3,1.6-0.8,2.4-1.4l1,1.3c-0.9,0.8-1.8,1.3-2.8,1.7c-1,0.4-2,0.5-3.2,0.5c-2.5,0-4.3-0.8-5.7-2.5s-2.1-4-2.1-7
			c0-1.9,0.3-3.7,0.9-5.1c0.6-1.5,1.5-2.6,2.6-3.4s2.4-1.2,3.9-1.2c2.4,0,4.1,0.8,5.4,2.4s1.8,3.8,1.8,6.5
			C254.7,317.5,254.7,318.1,254.7,318.5z M252.7,316.4c0-2-0.4-3.7-1.3-4.8c-0.9-1.1-2.1-1.8-3.8-1.8c-1.5,0-2.7,0.6-3.7,1.8
			c-1,1.1-1.5,3-1.6,5.4h10.4L252.7,316.4L252.7,316.4z"/>
		<path class="st1" d="M259.5,326.4c-0.6-0.6-0.9-1.5-0.9-2.6V301l2-0.3v23c0,1.2,0.5,1.8,1.5,1.8c0.5,0,0.9-0.1,1.2-0.3l0.5,1.5
			c-0.6,0.4-1.3,0.5-2.1,0.5C260.8,327.3,260,327,259.5,326.4z"/>
		<path class="st1" d="M153.6,352.8c1.1,1.7,1.7,4,1.7,7s-0.6,5.3-1.8,7c-1.2,1.8-2.9,2.6-5.2,2.6c-1.1,0-2.1-0.3-3-0.7
			s-1.7-1.1-2.3-1.8v9.1l-2,0.3v-25.6h1.8l0.2,2.6c0.7-1,1.5-1.7,2.5-2.3c1-0.5,2-0.8,3.2-0.8C150.8,350.4,152.5,351.1,153.6,352.8z
			 M151.8,365.8c0.9-1.3,1.3-3.3,1.3-6c0-5.2-1.7-7.8-4.9-7.8c-1.1,0-2,0.3-2.9,0.9c-0.8,0.5-1.6,1.3-2.3,2.3v9.8
			c1.2,1.8,2.8,2.8,4.8,2.8C149.6,367.8,150.8,367.2,151.8,365.8z"/>
		<path class="st1" d="M171.1,367.2c0.3,0.4,0.6,0.7,1.1,1l-0.4,1.4c-0.9-0.2-1.5-0.4-1.9-1c-0.4-0.4-0.8-1.1-0.9-2.1
			c-1.2,2-3.2,3.1-5.7,3.1c-1.8,0-3.2-0.5-4.1-1.5c-1-1-1.5-2.3-1.5-4c0-1.9,0.7-3.3,2-4.4s3.3-1.6,5.6-1.6h3.5v-1.8
			c0-1.5-0.4-2.6-1-3.3c-0.6-0.7-1.8-1-3.3-1c-1.4,0-3.1,0.4-5,1.1l-0.5-1.6c2-0.8,4-1.2,5.8-1.2c4,0,6,1.9,6,5.8v8.9
			C170.8,366,170.9,366.7,171.1,367.2z M168.7,364.6v-5.1h-3.2c-1.8,0-3.3,0.4-4.3,1.1s-1.5,1.8-1.5,3.3c0,1.2,0.4,2.2,1.1,2.9
			c0.7,0.7,1.7,1.1,2.8,1.1C165.8,367.9,167.5,366.8,168.7,364.6z"/>
		<path class="st1" d="M185.6,350.8c0.8,0.3,1.6,0.8,2.4,1.4l-1.1,1.3c-0.6-0.5-1.2-0.9-1.8-1.1c-0.6-0.3-1.4-0.4-2.2-0.4
			c-1.8,0-3.1,0.7-4.1,2s-1.6,3.3-1.6,5.9s0.5,4.5,1.5,5.8c1.1,1.3,2.4,1.9,4.1,1.9c0.8,0,1.6-0.1,2.2-0.4c0.7-0.3,1.3-0.6,2-1.1
			l1,1.4c-1.6,1.3-3.3,1.9-5.3,1.9c-1.6,0-2.9-0.4-4.1-1.1c-1.1-0.8-2.1-1.8-2.7-3.3c-0.6-1.4-1-3.1-1-5.1c0-1.9,0.4-3.7,1-5.1
			c0.6-1.5,1.6-2.6,2.7-3.4c1.1-0.8,2.6-1.2,4-1.2C183.8,350.4,184.7,350.5,185.6,350.8z"/>
		<path class="st1" d="M193.3,343c0.3,0.3,0.4,0.6,0.4,1.1s-0.2,0.8-0.4,1.1c-0.3,0.3-0.6,0.4-1.1,0.4c-0.4,0-0.8-0.2-1.1-0.4
			c-0.3-0.3-0.4-0.6-0.4-1.1s0.2-0.8,0.4-1.1c0.3-0.3,0.6-0.4,1.1-0.4S193,342.8,193.3,343z M193.2,350.7v18.5h-2v-18.5H193.2z"/>
		<path class="st1" d="M211.9,360.7h-12.3c0.1,2.4,0.7,4.1,1.7,5.4c1,1.2,2.4,1.8,4,1.8c1,0,1.8-0.2,2.6-0.4
			c0.7-0.3,1.6-0.8,2.4-1.4l1,1.3c-0.9,0.8-1.8,1.3-2.8,1.7s-2,0.5-3.2,0.5c-2.5,0-4.3-0.8-5.7-2.5s-2.1-4-2.1-7
			c0-1.9,0.3-3.7,0.9-5.1c0.6-1.5,1.5-2.6,2.6-3.4s2.4-1.2,3.9-1.2c2.4,0,4.1,0.8,5.4,2.4c1.2,1.6,1.8,3.8,1.8,6.5
			C212,359.8,212,360.3,211.9,360.7z M209.9,358.6c0-2-0.4-3.7-1.3-4.8s-2.1-1.8-3.8-1.8c-1.5,0-2.7,0.6-3.7,1.8
			c-1,1.1-1.5,3-1.6,5.4h10.4L209.9,358.6L209.9,358.6z"/>
		<path class="st1" d="M228,351.8c0.9,1,1.3,2.4,1.3,4.1v13.2h-2v-12.8c0-1.5-0.3-2.6-0.9-3.3c-0.6-0.7-1.5-1.1-2.6-1.1
			s-2.2,0.4-3.1,1c-0.9,0.6-1.8,1.6-2.6,2.8v13.4H216v-18.5h1.8l0.2,3.2c0.8-1.1,1.7-1.9,2.6-2.6c1.1-0.6,2.2-1,3.5-1
			C225.8,350.4,227.1,350.9,228,351.8z"/>
		<path class="st1" d="M243.2,368.4c-1.1,0.8-2.5,1.1-3.9,1.1s-2.6-0.4-3.3-1.2c-0.8-0.8-1.2-2-1.2-3.6v-12.3h-3.1v-1.7h3.1v-4.4
			l2-0.3v4.7h4.8l-0.3,1.7h-4.5v12.1c0,1.1,0.3,1.8,0.7,2.4c0.4,0.5,1.1,0.8,2,0.8c1,0,1.8-0.3,2.8-0.8L243.2,368.4z"/>
	</g>
	<path class="st1" d="M302,308.5c-15.4,0-27.9,12.5-27.9,27.9s12.5,27.9,27.9,27.9s27.9-12.5,27.9-27.9S317.4,308.5,302,308.5z
		 M307.5,349.3H301v-22.1l-6.2,3.8l-2.9-4.4l9.6-5.8h6V349.3z"/>
</g>
<g>
	<ellipse class="st1" cx="212.5" cy="112.1" rx="26.1" ry="25.7"/>
	<path class="st1" d="M244.3,205c6.1-6.4,9.8-14.9,9.8-24.3c0-19.5-16.1-35.4-35.9-35.5c-3.1,0-8.4,0-11.5,0
		c-19.8,0.1-35.9,15.9-35.9,35.5c0,10.1,4.2,19.1,11,25.5l1.3,62.2c0,5.5,4.6,10.1,10.1,10.1h9.7c5.5,0,10.1-4.6,10.1-10.1
		c0,5.5,4.6,10.1,10.1,10.1h9.7c5.5,0,10.1-4.6,10.1-10.1L244.3,205z"/>
</g>
</svg>
