<?xml version="1.0" encoding="utf-8"?>
<!-- Generator: Adobe Illustrator 24.1.0, SVG Export Plug-In . SVG Version: 6.00 Build 0)  -->
<svg version="1.1" id="Capa_1" xmlns="http://www.w3.org/2000/svg" xmlns:xlink="http://www.w3.org/1999/xlink" x="0px" y="0px"
	 viewBox="0 0 425 425" style="enable-background:new 0 0 425 425;" xml:space="preserve">
<style type="text/css">
	.st0{fill:#FFCC33;}
	.st1{fill:#C0D9DF;}
</style>
<g>
	
		<ellipse transform="matrix(0.7071 -0.7071 0.7071 0.7071 -89.7641 179.2877)" class="st0" cx="171.5" cy="198" rx="41.4" ry="41.4"/>
	<g>
		<path class="st0" d="M171.5,145.4c-2.9,0-5.2-2.3-5.2-5.2v-22.7c0-2.9,2.3-5.2,5.2-5.2s5.2,2.3,5.2,5.2v22.7
			C176.8,143,174.4,145.4,171.5,145.4z"/>
	</g>
	<g>
		<path class="st0" d="M113.1,203.8H90.4c-2.9,0-5.2-2.3-5.2-5.2c0-2.9,2.3-5.2,5.2-5.2h22.7c2.9,0,5.2,2.3,5.2,5.2
			C118.3,201.5,116,203.8,113.1,203.8z"/>
	</g>
	<g>
		<path class="st0" d="M130.2,162.5c-1.3,0-2.7-0.5-3.7-1.5l-16.1-16.1c-2-2-2-5.3,0-7.4c2-2,5.3-2,7.4,0l16.1,16.1c2,2,2,5.3,0,7.4
			C132.9,162,131.6,162.5,130.2,162.5z"/>
	</g>
	<g>
		<path class="st0" d="M114.2,261.1c-1.3,0-2.7-0.5-3.7-1.5c-2-2-2-5.3,0-7.4l16.1-16.1c2-2,5.3-2,7.4,0c2,2,2,5.3,0,7.4l-16.1,16.1
			C116.9,260.6,115.5,261.1,114.2,261.1z"/>
	</g>
	<g>
		<path class="st0" d="M212.8,162.5c-1.3,0-2.7-0.5-3.7-1.5c-2-2-2-5.3,0-7.4l16.1-16.1c2-2,5.3-2,7.4,0c2,2,2,5.3,0,7.4L216.5,161
			C215.5,162,214.2,162.5,212.8,162.5z"/>
	</g>
	<path class="st1" d="M286.8,214.1C286.8,214.1,286.8,214.1,286.8,214.1c0-0.3,0-0.7,0-1c0-27.7-22.5-50.2-50.2-50.2
		c-27.7,0-50.2,22.5-50.2,50.2c0,0,0,0.1,0,0.1c-21.8,1-39.1,18.9-39.1,40.9c0,22.7,18.4,41,41,41h98.5c22.4,0,40.5-18.1,40.5-40.5
		C327.3,232.2,309.2,214.1,286.8,214.1z"/>
</g>
</svg>
