<?xml version="1.0" encoding="utf-8"?>
<!-- Generator: Adobe Illustrator 24.1.0, SVG Export Plug-In . SVG Version: 6.00 Build 0)  -->
<svg version="1.1" id="Capa_1" xmlns="http://www.w3.org/2000/svg" xmlns:xlink="http://www.w3.org/1999/xlink" x="0px" y="0px"
	 viewBox="0 0 425 425" style="enable-background:new 0 0 425 425;" xml:space="preserve">
<style type="text/css">
	.st0{fill:#F4DDCE;}
	.st1{fill:#FFCC33;}
	.st2{fill:#E8C0A6;}
	.st3{fill:#F9F5F4;}
</style>
<g>
	<path class="st0" d="M215.2,185.4c-2.6,1.7-3.6,1.2-6.6-0.6l0,0c-0.7-0.4-1.5-0.9-2.3-1.5v47.4h9L215.2,185.4L215.2,185.4z"/>
	<path id="path945-0-2_20_" class="st1" d="M208.5,184.8c-3-1.8-8-5-8.1-10.8s4.8-14.3,7.4-18.7c2.6-4.4,2.8-4.8,5.5-0.7
		c2.7,4.1,7.8,12.6,8.2,19c0.4,6.3-3.8,10.1-6.5,11.8C212.5,187.1,211.5,186.6,208.5,184.8L208.5,184.8z"/>
	<path class="st2" d="M297.4,302L297.4,302c0.1,0,0.1-0.5,0.1-0.8v-39c0-17.4-14.1-31.6-31.6-31.6H159c-17.4,0-31.6,14.1-31.6,31.6
		v39c0,0.1,0,0.3,0,0.3L297.4,302z"/>
	<path id="rect924-0_18_" class="st3" d="M115.3,301.6h194.4c3.7,0,6.7,3,6.7,6.7v11.5c0,3.7-3,6.7-6.7,6.7H115.3
		c-3.7,0-6.7-3-6.7-6.7v-11.5C108.6,304.6,111.6,301.6,115.3,301.6z"/>
	<path id="path1040-6_18_" class="st3" d="M175.5,230.5c18.7,0.1,56.2,0.3,75.4,0.4c19.2,0.1,20.1,0.1,22.8,1.1s7.4,3.1,10.9,5.5
		c3.5,2.5,5.9,5.4,7.6,8s2.8,4.8,3.6,7c0.8,2.3,1.3,4.6,1.3,7s-0.5,5-2.4,4.6c-1.8-0.4-4.9-3.9-9-5.3s-9.3-0.8-12.3,0.8
		c-3.1,1.6-4,4.2-7,3.4c-3-0.8-7.9-4.8-12.4-5.3c-4.4-0.4-8.3,2.7-11.7,5c-3.4,2.2-6.2,3.5-10.3,1.9s-9.5-5.9-14.2-6.3
		c-4.7-0.4-8.7,3-14,2.8c-5.3-0.2-12-4.1-17.9-3.4c-6,0.8-11.3,6.2-17.5,6.1c-6.2-0.1-13.3-5.7-17.9-6c-4.6-0.4-6.7,4.5-9.7,6.2
		s-6.8,0.3-9.1-2c-2.3-2.3-3.2-5.4-2.5-8.9c0.7-3.5,3.2-7.5,6.3-10.9c3.1-3.3,6.9-6,10.6-7.8c3.7-1.9,7.2-2.9,9-3.5
		C156.7,230.4,156.7,230.4,175.5,230.5L175.5,230.5z"/>
</g>
</svg>
