<?xml version="1.0" encoding="utf-8"?>
<!-- Generator: Adobe Illustrator 24.1.0, SVG Export Plug-In . SVG Version: 6.00 Build 0)  -->
<svg version="1.1" id="Capa_1" xmlns="http://www.w3.org/2000/svg" xmlns:xlink="http://www.w3.org/1999/xlink" x="0px" y="0px"
	 viewBox="0 0 701.4 413.7" style="enable-background:new 0 0 701.4 413.7;" xml:space="preserve">
<style type="text/css">
	.st0{fill:#FFCC33;}
	.st1{fill:#EFF4EF;}
	.st2{fill:#483737;}
	.st3{fill:#373A47;}
	.st4{fill:#5C5F68;}
	.st5{fill:#ECF2EB;}
	.st6{fill:none;stroke:#373A47;stroke-miterlimit:10;}
	.st7{fill:#032836;}
	.st8{font-family:'FiraSans-Bold';}
	.st9{font-size:38px;}
	.st10{fill:#E5E8EA;}
	.st11{fill:#CC3742;}
	.st12{fill:#A02A38;}
	.st13{fill:#242535;}
	.st14{fill:#C4CBCE;}
</style>
<g id="g1654-0_5_" transform="translate(230.73165,105.09168)">
	<g id="g982-3-9_5_" transform="translate(153.38468,-47.595464)">
		<rect id="rect890-1_5_" x="268.9" y="128.5" class="st0" width="44.5" height="27.2"/>
		<rect id="rect890-7-7_5_" x="166.4" y="128.5" class="st1" width="102.6" height="27.2"/>
		<rect id="rect890-7-6-7_5_" x="143.6" y="128.5" class="st2" width="25.8" height="27.2"/>
		<path id="rect890-7-6-4-1_5_" class="st3" d="M144.4,128.5h15.4c3.8,0,6.8,3,6.8,6.8v13.6c0,3.8-3,6.8-6.8,6.8h-15.4
			c-3.8,0-6.8-3-6.8-6.8v-13.6C137.6,131.6,140.7,128.5,144.4,128.5z"/>
		<path id="path973-1_5_" class="st4" d="M155.2,110.4c0.4-2.9,1.3-8.8,4.5-14.2c3.3-5.3,9-10,12.4-15.4s4.4-11.8,2.3-18.2
			c-2.1-6.4-7.3-13-9.8-18c-2.5-5.1-2.1-8.9-0.4-11.2c1.7-2.3,4.7-3.1,8.6-3.1c3.9,0,8.6,0.8,7.2-1.3c-1.4-2.2-9-7.4-17.1-8.2
			s-16.7,3-20.8,8.9c-4.1,6-3.8,14.6-0.6,20.8s9.3,10.3,12.2,13.8c2.9,3.5,2.8,6.6,1.2,10.4c-1.6,3.9-4.6,8.6-6.2,13.5
			c-1.6,4.9-1.8,9.9-0.5,14.2c1.3,4.2,4,7.6,5.3,9.3C154.8,113.3,154.8,113.3,155.2,110.4L155.2,110.4z"/>
	</g>
</g>
<path class="st5" d="M19.6,118.1c-3.2,1.4-6.4,2.8-9.6,4.1c-2.1,0.9-4.2,1.8-6.7,2.9c0.7,0.3,4.4,1.8,8.8,3.5
	c-4.5,10.7-7.7,22.2-9.3,34.3C1,176.3,1.3,189.4,3.4,202c2.6-0.6,5.2-1.2,7.8-1.8c-1.9-11.7-2.1-23.9-0.5-36.3
	c1.5-11.4,4.5-22.3,8.8-32.4c4.2,1.7,7.9,3.1,8.7,3.4c-2.5-5.8-4.9-11.2-7.2-16.6C20.7,117.5,20.2,117.8,19.6,118.1z"/>
<path class="st5" d="M208.6,244.5c3.2-1.3,6.5-2.6,9.7-3.8c2.1-0.8,4.3-1.7,6.7-2.7c-0.7-0.3-4.4-1.9-8.7-3.8
	c4.8-10.6,8.4-22,10.3-34c2.2-13.3,2.3-26.5,0.6-39.1c-2.6,0.5-5.2,1.1-7.9,1.6c1.5,11.7,1.4,23.9-0.7,36.3
	c-1.9,11.4-5.2,22.1-9.8,32.1c-4.2-1.8-7.8-3.4-8.6-3.7c2.3,5.8,4.5,11.4,6.7,16.9C207.5,245,208,244.7,208.6,244.5z"/>
<polyline class="st6" points="673.5,328.3 673.5,345.3 65.4,345.3 65.4,328.3 "/>
<text transform="matrix(1 0 0 1 130.5634 404.416)" class="st7 st8 st9">Exposició als factors de risc</text>
<g id="g1119-1_8_" transform="matrix(1.0608564,0,0,1.0716716,-83.467849,116.01381)">
	<ellipse id="path901-5_8_" class="st0" cx="424.4" cy="56.1" rx="52.3" ry="50.9"/>
	<g id="g949-9_8_" transform="translate(26.906414,18.994667)">
		<rect id="rect903-7-7_8_" x="389.4" y="95.5" class="st0" width="16.3" height="33.2"/>
		<rect id="rect903-7-6-7_8_" x="389.4" y="-54.4" class="st0" width="16.3" height="33.2"/>
	</g>
	<g id="g949-4-3-6_8_" transform="matrix(-0.66755944,0.74455652,0.74455652,0.66755944,314.75668,-109.52896)">
		<polygon id="rect903-7-3-0-56_8_" class="st0" points="42,250.6 58.3,250.6 58.3,283.7 42,283.7 		"/>
		<polygon id="rect903-7-6-0-9-3_8_" class="st0" points="42,100.7 58.3,100.7 58.3,133.9 42,133.9 		"/>
	</g>
	<g id="g949-4-3-0-9_8_" transform="matrix(-0.74455652,-0.66755944,-0.66755944,0.74455652,350.40021,142.78048)">
		<polygon id="rect903-7-3-0-5-4_8_" class="st0" points="-5.4,-55.6 10.9,-55.6 10.9,-22.4 -5.4,-22.4 		"/>
		<polygon id="rect903-7-6-0-9-9-8_8_" class="st0" points="-5.4,-205.4 10.9,-205.4 10.9,-172.3 -5.4,-172.3 		"/>
	</g>
	<rect id="rect903-7-6-7_1_" x="333.9" y="47.3" class="st0" width="33.2" height="16.3"/>
	<rect id="rect903-7-6-7_2_" x="482.8" y="47.3" class="st0" width="33.2" height="16.3"/>
</g>
<g>
	<path class="st10" d="M191.4,140.6v107.7c0,8.5-6.9,15.4-15.4,15.4H53.2c-8.5,0-15.4-6.9-15.4-15.4V140.6l1.7-4.2h148.1
		L191.4,140.6z"/>
	<path class="st11" d="M191.4,125.5v15.1H37.8v-15.1c0-8.5,6.9-15.4,15.4-15.4H176C184.5,110.1,191.4,117,191.4,125.5z"/>
	<path class="st12" d="M65.2,128.3H53.5c-1.3,0-2.4-1.1-2.4-2.4v-5c0-1.3,1.1-2.4,2.4-2.4h11.7c1.3,0,2.4,1.1,2.4,2.4v5
		C67.6,127.2,66.5,128.3,65.2,128.3z"/>
	<path class="st13" d="M59.7,124.9h-0.2c-2,0-3.7-1.7-3.7-3.7v-19.5c0-2,1.7-3.7,3.7-3.7h0.2c2,0,3.7,1.7,3.7,3.7v19.5
		C63.4,123.3,61.7,124.9,59.7,124.9z"/>
	<path class="st12" d="M92.8,128.3H81.2c-1.3,0-2.4-1.1-2.4-2.4v-5c0-1.3,1.1-2.4,2.4-2.4h11.7c1.3,0,2.4,1.1,2.4,2.4v5
		C95.2,127.2,94.1,128.3,92.8,128.3z"/>
	<path class="st13" d="M87.3,124.9h-0.2c-2,0-3.7-1.7-3.7-3.7v-19.5c0-2,1.7-3.7,3.7-3.7h0.2c2,0,3.7,1.7,3.7,3.7v19.5
		C91,123.3,89.4,124.9,87.3,124.9z"/>
	<path class="st12" d="M120.5,128.3h-11.7c-1.3,0-2.4-1.1-2.4-2.4v-5c0-1.3,1.1-2.4,2.4-2.4h11.7c1.3,0,2.4,1.1,2.4,2.4v5
		C122.8,127.2,121.8,128.3,120.5,128.3z"/>
	<path class="st13" d="M114.9,124.9h-0.2c-2,0-3.7-1.7-3.7-3.7v-19.5c0-2,1.7-3.7,3.7-3.7h0.2c2,0,3.7,1.7,3.7,3.7v19.5
		C118.6,123.3,117,124.9,114.9,124.9z"/>
	<path class="st12" d="M148.1,128.3h-11.7c-1.3,0-2.4-1.1-2.4-2.4v-5c0-1.3,1.1-2.4,2.4-2.4h11.7c1.3,0,2.4,1.1,2.4,2.4v5
		C150.5,127.2,149.4,128.3,148.1,128.3z"/>
	<path class="st13" d="M142.6,124.9h-0.2c-2,0-3.7-1.7-3.7-3.7v-19.5c0-2,1.7-3.7,3.7-3.7h0.2c2,0,3.7,1.7,3.7,3.7v19.5
		C146.3,123.3,144.6,124.9,142.6,124.9z"/>
	<path class="st12" d="M175.7,128.3H164c-1.3,0-2.4-1.1-2.4-2.4v-5c0-1.3,1.1-2.4,2.4-2.4h11.7c1.3,0,2.4,1.1,2.4,2.4v5
		C178.1,127.2,177,128.3,175.7,128.3z"/>
	<path class="st13" d="M170.2,124.9H170c-2,0-3.7-1.7-3.7-3.7v-19.5c0-2,1.7-3.7,3.7-3.7h0.2c2,0,3.7,1.7,3.7,3.7v19.5
		C173.9,123.3,172.2,124.9,170.2,124.9z"/>
	<path class="st14" d="M74.8,148.1h9.4c1.3,0,2.4,1.1,2.4,2.4v9.4c0,1.3-1.1,2.4-2.4,2.4h-9.4c-1.3,0-2.4-1.1-2.4-2.4v-9.4
		C72.4,149.1,73.5,148.1,74.8,148.1z"/>
	<path class="st14" d="M121.7,148.1h9.4c1.3,0,2.4,1.1,2.4,2.4v9.4c0,1.3-1.1,2.4-2.4,2.4h-9.4c-1.3,0-2.4-1.1-2.4-2.4v-9.4
		C119.3,149.1,120.4,148.1,121.7,148.1z"/>
	<path class="st14" d="M180.3,150.4v9.4c0,1.3-1.1,2.4-2.4,2.4h-9.4c-1.3,0-2.4-1.1-2.4-2.4v-9.4c0-1.3,1.1-2.4,2.4-2.4h9.4
		C179.2,148.1,180.3,149.1,180.3,150.4z"/>
	<path class="st14" d="M51.3,148.1h9.4c1.3,0,2.4,1.1,2.4,2.4v9.4c0,1.3-1.1,2.4-2.4,2.4h-9.4c-1.3,0-2.4-1.1-2.4-2.4v-9.4
		C48.9,149.1,50,148.1,51.3,148.1z"/>
	<path class="st14" d="M145.1,148.1h9.4c1.3,0,2.4,1.1,2.4,2.4v9.4c0,1.3-1.1,2.4-2.4,2.4h-9.4c-1.3,0-2.4-1.1-2.4-2.4v-9.4
		C142.7,149.1,143.8,148.1,145.1,148.1z"/>
	<path class="st14" d="M98.2,148.1h9.4c1.3,0,2.4,1.1,2.4,2.4v9.4c0,1.3-1.1,2.4-2.4,2.4h-9.4c-1.3,0-2.4-1.1-2.4-2.4v-9.4
		C95.8,149.1,96.9,148.1,98.2,148.1z"/>
	<path class="st14" d="M121.7,170.9h9.4c1.3,0,2.4,1.1,2.4,2.4v9.4c0,1.3-1.1,2.4-2.4,2.4h-9.4c-1.3,0-2.4-1.1-2.4-2.4v-9.4
		C119.3,172,120.4,170.9,121.7,170.9z"/>
	<path class="st14" d="M145.1,170.9h9.4c1.3,0,2.4,1.1,2.4,2.4v9.4c0,1.3-1.1,2.4-2.4,2.4h-9.4c-1.3,0-2.4-1.1-2.4-2.4v-9.4
		C142.7,172,143.8,170.9,145.1,170.9z"/>
	<path class="st14" d="M180.3,173.3v9.4c0,1.3-1.1,2.4-2.4,2.4h-9.4c-1.3,0-2.4-1.1-2.4-2.4v-9.4c0-1.3,1.1-2.4,2.4-2.4h9.4
		C179.2,170.9,180.3,172,180.3,173.3z"/>
	<path class="st14" d="M51.3,170.9h9.4c1.3,0,2.4,1.1,2.4,2.4v9.4c0,1.3-1.1,2.4-2.4,2.4h-9.4c-1.3,0-2.4-1.1-2.4-2.4v-9.4
		C48.9,172,50,170.9,51.3,170.9z"/>
	<path class="st14" d="M74.8,170.9h9.4c1.3,0,2.4,1.1,2.4,2.4v9.4c0,1.3-1.1,2.4-2.4,2.4h-9.4c-1.3,0-2.4-1.1-2.4-2.4v-9.4
		C72.4,172,73.5,170.9,74.8,170.9z"/>
	<path class="st14" d="M98.2,170.9h9.4c1.3,0,2.4,1.1,2.4,2.4v9.4c0,1.3-1.1,2.4-2.4,2.4h-9.4c-1.3,0-2.4-1.1-2.4-2.4v-9.4
		C95.8,172,96.9,170.9,98.2,170.9z"/>
	<path class="st14" d="M145.1,193.7h9.4c1.3,0,2.4,1.1,2.4,2.4v9.4c0,1.3-1.1,2.4-2.4,2.4h-9.4c-1.3,0-2.4-1.1-2.4-2.4v-9.4
		C142.7,194.8,143.8,193.7,145.1,193.7z"/>
	<path class="st14" d="M121.7,193.7h9.4c1.3,0,2.4,1.1,2.4,2.4v9.4c0,1.3-1.1,2.4-2.4,2.4h-9.4c-1.3,0-2.4-1.1-2.4-2.4v-9.4
		C119.3,194.8,120.4,193.7,121.7,193.7z"/>
	<path class="st14" d="M180.3,196.1v9.4c0,1.3-1.1,2.4-2.4,2.4h-9.4c-1.3,0-2.4-1.1-2.4-2.4v-9.4c0-1.3,1.1-2.4,2.4-2.4h9.4
		C179.2,193.7,180.3,194.8,180.3,196.1z"/>
	<path class="st14" d="M98.2,193.7h9.4c1.3,0,2.4,1.1,2.4,2.4v9.4c0,1.3-1.1,2.4-2.4,2.4h-9.4c-1.3,0-2.4-1.1-2.4-2.4v-9.4
		C95.8,194.8,96.9,193.7,98.2,193.7z"/>
	<path class="st14" d="M74.8,193.7h9.4c1.3,0,2.4,1.1,2.4,2.4v9.4c0,1.3-1.1,2.4-2.4,2.4h-9.4c-1.3,0-2.4-1.1-2.4-2.4v-9.4
		C72.4,194.8,73.5,193.7,74.8,193.7z"/>
	<path class="st14" d="M51.3,193.7h9.4c1.3,0,2.4,1.1,2.4,2.4v9.4c0,1.3-1.1,2.4-2.4,2.4h-9.4c-1.3,0-2.4-1.1-2.4-2.4v-9.4
		C48.9,194.8,50,193.7,51.3,193.7z"/>
	<path class="st14" d="M121.7,216.5h9.4c1.3,0,2.4,1.1,2.4,2.4v9.4c0,1.3-1.1,2.4-2.4,2.4h-9.4c-1.3,0-2.4-1.1-2.4-2.4v-9.4
		C119.3,217.6,120.4,216.5,121.7,216.5z"/>
	<path class="st14" d="M180.3,218.9v9.4c0,1.3-1.1,2.4-2.4,2.4h-9.4c-1.3,0-2.4-1.1-2.4-2.4v-9.4c0-1.3,1.1-2.4,2.4-2.4h9.4
		C179.2,216.5,180.3,217.6,180.3,218.9z"/>
	<path class="st14" d="M145.1,216.5h9.4c1.3,0,2.4,1.1,2.4,2.4v9.4c0,1.3-1.1,2.4-2.4,2.4h-9.4c-1.3,0-2.4-1.1-2.4-2.4v-9.4
		C142.7,217.6,143.8,216.5,145.1,216.5z"/>
	<path class="st14" d="M98.2,216.5h9.4c1.3,0,2.4,1.1,2.4,2.4v9.4c0,1.3-1.1,2.4-2.4,2.4h-9.4c-1.3,0-2.4-1.1-2.4-2.4v-9.4
		C95.8,217.6,96.9,216.5,98.2,216.5z"/>
	<path class="st14" d="M74.8,216.5h9.4c1.3,0,2.4,1.1,2.4,2.4v9.4c0,1.3-1.1,2.4-2.4,2.4h-9.4c-1.3,0-2.4-1.1-2.4-2.4v-9.4
		C72.4,217.6,73.5,216.5,74.8,216.5z"/>
	<path class="st14" d="M51.3,216.5h9.4c1.3,0,2.4,1.1,2.4,2.4v9.4c0,1.3-1.1,2.4-2.4,2.4h-9.4c-1.3,0-2.4-1.1-2.4-2.4v-9.4
		C48.9,217.6,50,216.5,51.3,216.5z"/>
	<path class="st14" d="M51.3,239.4h9.4c1.3,0,2.4,1.1,2.4,2.4v9.4c0,1.3-1.1,2.4-2.4,2.4h-9.4c-1.3,0-2.4-1.1-2.4-2.4v-9.4
		C48.9,240.4,50,239.4,51.3,239.4z"/>
	<path class="st14" d="M74.8,239.4h9.4c1.3,0,2.4,1.1,2.4,2.4v9.4c0,1.3-1.1,2.4-2.4,2.4h-9.4c-1.3,0-2.4-1.1-2.4-2.4v-9.4
		C72.4,240.4,73.5,239.4,74.8,239.4z"/>
	<path class="st14" d="M109.9,241.7v9.4c0,1.3-1.1,2.4-2.4,2.4h-9.4c-1.3,0-2.4-1.1-2.4-2.4v-9.4c0-1.3,1.1-2.4,2.4-2.4h9.4
		C108.9,239.4,109.9,240.4,109.9,241.7z"/>
</g>
</svg>
