<?xml version="1.0" encoding="utf-8"?>
<!-- Generator: Adobe Illustrator 24.1.0, SVG Export Plug-In . SVG Version: 6.00 Build 0)  -->
<svg version="1.1" id="Capa_1" xmlns="http://www.w3.org/2000/svg" xmlns:xlink="http://www.w3.org/1999/xlink" x="0px" y="0px"
	 viewBox="0 0 425 425" style="enable-background:new 0 0 425 425;" xml:space="preserve">
<style type="text/css">
	.st0{fill:#79AEB2;}
	.st1{fill:#C0D9DF;}
	.st2{opacity:0.9;fill:#032836;}
</style>
<g>
	<g>
		<path class="st0" d="M197.4,227.1c-1.9,5.2-3.5,8.9-6.1,7.9c-2.6-1-3.1-6-1.1-11.2c1.9-5.2,5.6-8.6,8.2-7.7
			C200.9,217.1,199.3,221.8,197.4,227.1z"/>
		<path class="st0" d="M227.6,227.1c1.9,5.2,3.5,8.9,6.1,7.9c2.6-1,3.1-6,1.1-11.2c-1.9-5.2-5.6-8.6-8.2-7.7
			C224.1,217.1,225.7,221.8,227.6,227.1z"/>
	</g>
	<path class="st1" d="M313.5,210.8h-5.8c-2-15.6-13.3-27-39.2-27c-1.9,0-3.7,0-5.4,0.1c-16.2-1.2-33.2-1.8-50.6-1.8
		c-17.4,0-34.4,0.6-50.6,1.8c-1.7-0.1-3.6-0.1-5.5-0.1c-25.9,0-37.3,11.4-39.2,27h-5.8v7.3h5.5c0.7,18.7,7.3,40.6,30,39.4
		c23-1.2,41.9-25.4,48.9-38.3c1.9-3.4,3.7-7.5,4.5-11.7c2.1-3.3,6.7-5.6,12-5.6c5.4,0,10,2.3,12,5.6c0.7,4.2,2.6,8.3,4.5,11.7
		c7.1,13,25.9,37.1,48.9,38.3c22.7,1.2,29.3-20.7,30-39.4h5.6V210.8z M212.5,197c-4.6,0-8.8,1.4-12,3.6c-1.1-5.1-5-9.9-14-13
		c8.5-0.3,17.2-0.5,26.1-0.5c8.8,0,17.5,0.2,26.1,0.5c-9,3.1-12.9,7.8-14,13C221.3,198.4,217.1,197,212.5,197z"/>
	<path class="st2" d="M145.3,253c-19.7,0-23.3-22.3-23.7-35.7c-0.3-8.4,1.9-15.1,6.6-19.9c5.8-5.9,15.3-8.9,28.3-8.9
		c26.7,0,35.6,5.6,38.4,10.3c2.5,4.2,1.5,10.1-2.9,18.3c-6.5,12-24.3,34.9-45.1,35.9C146.3,253,145.8,253,145.3,253L145.3,253z"/>
	<path class="st2" d="M279.7,253c-0.5,0-1,0-1.5,0c-20.8-1.1-38.6-24-45.1-35.9c-4.4-8.1-5.4-14.1-2.9-18.3
		c2.8-4.7,11.7-10.3,38.4-10.3c13,0,22.6,3,28.3,8.9c4.6,4.8,6.8,11.5,6.6,19.9C303,230.6,299.3,253,279.7,253z"/>
</g>
</svg>
