<?xml version="1.0" encoding="utf-8"?>
<!-- Generator: Adobe Illustrator 24.1.0, SVG Export Plug-In . SVG Version: 6.00 Build 0)  -->
<svg version="1.1" id="Capa_1" xmlns="http://www.w3.org/2000/svg" xmlns:xlink="http://www.w3.org/1999/xlink" x="0px" y="0px"
	 viewBox="0 0 425 425" style="enable-background:new 0 0 425 425;" xml:space="preserve">
<style type="text/css">
	.st0{fill:#E0EADF;}
	.st1{fill:#C0D9DF;}
</style>
<g>
	<path class="st0" d="M236.8,174.1C236.8,174.1,236.7,174.2,236.8,174.1c0-0.3,0-0.6,0-1c0-25.3-20.5-45.9-45.9-45.9
		c-25.3,0-45.9,20.5-45.9,45.9c0,0,0,0.1,0,0.1c-19.9,0.9-35.7,17.3-35.7,37.4c0,20.7,16.8,37.5,37.5,37.5h90c20.4,0,37-16.6,37-37
		C273.8,190.7,257.2,174.1,236.8,174.1z"/>
	<path class="st1" d="M278.7,214.8C278.7,214.8,278.7,214.8,278.7,214.8c0-0.3,0-0.6,0-1c0-25.3-20.5-45.9-45.9-45.9
		c-25.3,0-45.9,20.5-45.9,45.9c0,0,0,0.1,0,0.1c-19.9,0.9-35.7,17.3-35.7,37.4c0,20.7,16.8,37.5,37.5,37.5h90c20.4,0,37-16.6,37-37
		C315.7,231.3,299.1,214.8,278.7,214.8z"/>
</g>
</svg>
