<?xml version="1.0" encoding="utf-8"?>
<!-- Generator: Adobe Illustrator 24.1.0, SVG Export Plug-In . SVG Version: 6.00 Build 0)  -->
<svg version="1.1" id="Capa_1" xmlns="http://www.w3.org/2000/svg" xmlns:xlink="http://www.w3.org/1999/xlink" x="0px" y="0px"
	 viewBox="0 0 488 488" style="enable-background:new 0 0 488 488;" xml:space="preserve">
<style type="text/css">
	.st0{fill:#9664D9;}
	.st1{fill:#FFFFFF;}
	.st2{enable-background:new    ;}
</style>
<path class="st0" d="M479.7,218.7c-6.4-110.4-97.9-198-209.8-198c-115.7,0-209.5,93.4-210.2,209H7.5c0,0.3,0,0.7,0,1
	c0,130.6,105.9,236.5,236.5,236.5s236.5-105.9,236.5-236.5C480.5,226.5,480.2,222.5,479.7,218.7z"/>
<circle class="st1" cx="345.7" cy="384.7" r="31.7"/>
<g class="st2">
	<path class="st1" d="M161.6,374h-2.3l-1.2-13.1c-0.5-5.1-0.9-9.1-1-11.9l-6.9,21.8h-2.3l-7.1-21.8c-0.1,2.6-0.4,6-0.8,10.3
		l-0.1,1.6l-1.2,13.2h-2.3l2.6-27.4h3.3l6.8,21.3l6.6-21.3h3.4L161.6,374z"/>
	<path class="st1" d="M180.3,355.5c1.6,1.9,2.3,4.6,2.3,8c0,3.4-0.8,6.1-2.4,8c-1.6,2-3.8,2.9-6.5,2.9c-2.8,0-4.9-1-6.5-2.9
		s-2.3-4.6-2.3-8c0-2.2,0.4-4.1,1.1-5.8c0.7-1.7,1.7-2.9,3.1-3.8c1.3-0.9,2.9-1.3,4.7-1.3C176.6,352.6,178.7,353.5,180.3,355.5z
		 M169.1,356.8c-1.1,1.5-1.7,3.7-1.7,6.7c0,2.9,0.6,5.1,1.7,6.6c1.1,1.5,2.7,2.3,4.7,2.3c2,0,3.6-0.8,4.7-2.3
		c1.1-1.5,1.7-3.8,1.7-6.7c0-2.9-0.6-5.1-1.7-6.6c-1.1-1.5-2.7-2.3-4.7-2.3C171.8,354.6,170.2,355.3,169.1,356.8z"/>
	<path class="st1" d="M196.1,353.2c1.1,0.4,2.1,1,3.1,1.7l-1.1,1.5c-1-0.7-1.9-1.2-2.7-1.5c-0.9-0.3-1.8-0.5-2.8-0.5
		c-1.4,0-2.5,0.3-3.4,1c-0.9,0.6-1.3,1.5-1.3,2.6c0,1,0.4,1.8,1.1,2.4c0.7,0.6,2.1,1.1,4,1.6c2.4,0.6,4.1,1.4,5.1,2.3
		c1.1,0.9,1.6,2.3,1.6,4c0,1.9-0.7,3.3-2.2,4.4c-1.4,1.1-3.2,1.6-5.4,1.6c-1.6,0-3-0.2-4.2-0.7c-1.2-0.5-2.3-1.1-3.3-2l1.3-1.5
		c0.9,0.7,1.9,1.3,2.9,1.7c1,0.4,2.1,0.5,3.3,0.5c1.5,0,2.8-0.4,3.7-1.1c0.9-0.7,1.4-1.7,1.4-2.9c0-0.9-0.2-1.5-0.5-2.1
		c-0.3-0.5-0.9-1-1.6-1.4c-0.8-0.4-1.9-0.8-3.4-1.2c-2.2-0.6-3.8-1.3-4.8-2.2c-1-0.9-1.5-2.1-1.5-3.5c0-1,0.3-2,0.9-2.8
		c0.6-0.8,1.4-1.5,2.5-2c1.1-0.5,2.2-0.7,3.5-0.7C193.8,352.6,195,352.8,196.1,353.2z"/>
	<path class="st1" d="M213.5,373.1c-1.3,0.9-2.8,1.3-4.4,1.3s-2.9-0.5-3.8-1.4c-0.9-0.9-1.4-2.3-1.4-4.1v-14h-3.5V353h3.5v-5
		l2.3-0.3v5.3h5.4l-0.3,1.9h-5.1v13.8c0,1.2,0.3,2.1,0.8,2.7c0.5,0.6,1.3,0.9,2.3,0.9c1.1,0,2.1-0.3,3.2-0.9L213.5,373.1z"/>
	<path class="st1" d="M225.8,352.8l-0.4,2.2c-0.6-0.2-1.2-0.2-1.8-0.2c-1.4,0-2.6,0.5-3.4,1.5c-0.9,1-1.6,2.6-2.2,4.8V374h-2.3V353
		h2l0.2,4.7c0.6-1.7,1.3-3,2.3-3.9c1-0.8,2.2-1.3,3.6-1.3C224.6,352.6,225.3,352.7,225.8,352.8z"/>
	<path class="st1" d="M240.6,371.7c0.3,0.5,0.7,0.8,1.3,1.1l-0.5,1.6c-1-0.2-1.7-0.5-2.2-1.1c-0.5-0.5-0.9-1.3-1-2.4
		c-1.4,2.3-3.6,3.5-6.5,3.5c-2,0-3.6-0.6-4.7-1.7s-1.7-2.6-1.7-4.5c0-2.2,0.8-3.8,2.3-5c1.5-1.2,3.7-1.8,6.4-1.8h4v-2
		c0-1.7-0.4-2.9-1.1-3.7s-2-1.1-3.7-1.1c-1.6,0-3.5,0.4-5.7,1.2l-0.6-1.8c2.3-0.9,4.5-1.4,6.6-1.4c4.6,0,6.8,2.2,6.8,6.6v10.1
		C240.1,370.4,240.3,371.2,240.6,371.7z M237.8,368.8v-5.8h-3.6c-2.1,0-3.8,0.4-4.9,1.2s-1.7,2.1-1.7,3.7c0,1.4,0.4,2.5,1.2,3.3
		s1.9,1.2,3.2,1.2C234.5,372.5,236.5,371.3,237.8,368.8z"/>
	<path class="st1" d="M270.7,344.5V374h-2l-0.3-3.2c-1.4,2.4-3.5,3.6-6.3,3.6c-2.4,0-4.3-1-5.7-2.9c-1.4-1.9-2.1-4.6-2.1-7.9
		c0-2.2,0.3-4.1,1-5.7c0.7-1.7,1.6-2.9,2.8-3.9c1.2-0.9,2.7-1.4,4.4-1.4c2.4,0,4.3,0.9,5.9,2.8v-11.2L270.7,344.5z M265.8,371.5
		c0.9-0.6,1.8-1.6,2.5-2.9v-10.9c-1.5-2.1-3.3-3.2-5.5-3.2c-1.9,0-3.4,0.8-4.5,2.4c-1.1,1.6-1.6,3.8-1.6,6.7c0,2.9,0.5,5.1,1.5,6.6
		c1,1.5,2.4,2.3,4.2,2.3C263.8,372.5,264.9,372.2,265.8,371.5z"/>
	<path class="st1" d="M291.9,364.4h-14c0.1,2.7,0.8,4.7,1.9,6.1s2.7,2,4.6,2c1.1,0,2.1-0.2,2.9-0.5c0.8-0.3,1.8-0.9,2.7-1.6l1.1,1.5
		c-1,0.9-2.1,1.5-3.2,1.9c-1.1,0.4-2.3,0.6-3.6,0.6c-2.8,0-4.9-0.9-6.5-2.8c-1.6-1.9-2.4-4.5-2.4-7.9c0-2.2,0.3-4.2,1-5.8
		c0.7-1.7,1.7-3,2.9-3.9c1.3-0.9,2.7-1.4,4.4-1.4c2.7,0,4.7,0.9,6.1,2.7s2.1,4.3,2.1,7.4C292,363.3,292,363.9,291.9,364.4z
		 M289.7,362c0-2.3-0.5-4.2-1.5-5.5s-2.4-2-4.3-2c-1.7,0-3.1,0.7-4.2,2c-1.1,1.3-1.7,3.4-1.8,6.1h11.8V362z"/>
	<path class="st1" d="M297.4,373.4c-0.7-0.7-1-1.7-1-3v-25.9l2.3-0.3v26.1c0,1.4,0.6,2,1.7,2c0.6,0,1-0.1,1.4-0.3l0.6,1.7
		c-0.7,0.4-1.5,0.6-2.4,0.6C298.9,374.4,298,374.1,297.4,373.4z"/>
	<path class="st1" d="M177.1,403.4c1.3,1.9,1.9,4.5,1.9,8c0,3.4-0.7,6-2.1,8c-1.4,2-3.3,3-5.9,3c-1.3,0-2.4-0.3-3.4-0.8
		c-1-0.5-1.9-1.2-2.6-2.1v10.3l-2.3,0.3V401h2l0.2,3c0.8-1.1,1.7-1.9,2.8-2.6c1.1-0.6,2.3-0.9,3.6-0.9
		C173.9,400.6,175.8,401.5,177.1,403.4z M175,418.2c1-1.5,1.5-3.8,1.5-6.8c0-5.9-1.9-8.9-5.6-8.9c-1.3,0-2.3,0.3-3.3,1
		c-0.9,0.6-1.8,1.5-2.6,2.6v11.1c1.4,2.1,3.2,3.2,5.5,3.2C172.5,420.4,173.9,419.7,175,418.2z"/>
	<path class="st1" d="M197,419.7c0.3,0.5,0.7,0.8,1.3,1.1l-0.5,1.6c-1-0.2-1.7-0.5-2.2-1.1c-0.5-0.5-0.9-1.3-1-2.4
		c-1.4,2.3-3.6,3.5-6.5,3.5c-2,0-3.6-0.6-4.7-1.7s-1.7-2.6-1.7-4.5c0-2.2,0.8-3.8,2.3-5c1.5-1.2,3.7-1.8,6.4-1.8h4v-2
		c0-1.7-0.4-2.9-1.1-3.7s-2-1.1-3.7-1.1c-1.6,0-3.5,0.4-5.7,1.2l-0.6-1.8c2.3-0.9,4.5-1.4,6.6-1.4c4.6,0,6.8,2.2,6.8,6.6v10.1
		C196.6,418.4,196.7,419.2,197,419.7z M194.2,416.8v-5.8h-3.6c-2.1,0-3.8,0.4-4.9,1.2s-1.7,2.1-1.7,3.7c0,1.4,0.4,2.5,1.2,3.3
		s1.9,1.2,3.2,1.2C190.9,420.5,192.9,419.3,194.2,416.8z"/>
	<path class="st1" d="M213.4,401.1c0.9,0.3,1.8,0.9,2.7,1.6l-1.2,1.5c-0.7-0.6-1.4-1-2.1-1.2c-0.7-0.3-1.6-0.4-2.5-0.4
		c-2,0-3.5,0.8-4.7,2.3s-1.8,3.8-1.8,6.7c0,2.9,0.6,5.1,1.7,6.6c1.2,1.5,2.7,2.2,4.7,2.2c0.9,0,1.8-0.1,2.5-0.4
		c0.8-0.3,1.5-0.7,2.3-1.3l1.1,1.6c-1.8,1.5-3.8,2.2-6,2.2c-1.8,0-3.3-0.4-4.7-1.3c-1.3-0.9-2.4-2.1-3.1-3.7
		c-0.7-1.6-1.1-3.5-1.1-5.8c0-2.2,0.4-4.2,1.1-5.8c0.7-1.7,1.8-3,3.1-3.9c1.3-0.9,2.9-1.4,4.6-1.4
		C211.4,400.6,212.4,400.8,213.4,401.1z"/>
	<path class="st1" d="M222.2,392.3c0.3,0.3,0.5,0.7,0.5,1.2c0,0.5-0.2,0.9-0.5,1.2c-0.3,0.3-0.7,0.5-1.3,0.5c-0.5,0-0.9-0.2-1.2-0.5
		c-0.3-0.3-0.5-0.7-0.5-1.2c0-0.5,0.2-0.9,0.5-1.2c0.3-0.3,0.7-0.5,1.2-0.5C221.4,391.8,221.8,392,222.2,392.3z M222.1,401V422h-2.3
		V401H222.1z"/>
	<path class="st1" d="M243.3,412.4h-14c0.1,2.7,0.8,4.7,1.9,6.1s2.7,2,4.6,2c1.1,0,2.1-0.2,2.9-0.5c0.8-0.3,1.8-0.9,2.7-1.6l1.1,1.5
		c-1,0.9-2.1,1.5-3.2,1.9c-1.1,0.4-2.3,0.6-3.6,0.6c-2.8,0-4.9-0.9-6.5-2.8c-1.6-1.9-2.4-4.5-2.4-7.9c0-2.2,0.3-4.2,1-5.8
		c0.7-1.7,1.7-3,2.9-3.9c1.3-0.9,2.7-1.4,4.4-1.4c2.7,0,4.7,0.9,6.1,2.7c1.4,1.8,2.1,4.3,2.1,7.4
		C243.4,411.3,243.4,411.9,243.3,412.4z M241.1,410c0-2.3-0.5-4.2-1.5-5.5c-1-1.3-2.4-2-4.3-2c-1.7,0-3.1,0.7-4.2,2
		c-1.1,1.3-1.7,3.4-1.8,6.1h11.8V410z"/>
	<path class="st1" d="M261.6,402.3c1,1.1,1.5,2.7,1.5,4.7v15h-2.3v-14.6c0-1.7-0.3-2.9-1-3.7c-0.7-0.8-1.7-1.2-3-1.2
		c-1.3,0-2.5,0.4-3.5,1.1s-2,1.8-2.9,3.2V422H248V401h2l0.2,3.6c0.9-1.3,1.9-2.2,3-2.9c1.2-0.7,2.5-1.1,4-1.1
		C259.1,400.6,260.6,401.2,261.6,402.3z"/>
	<path class="st1" d="M278.9,421.1c-1.3,0.9-2.8,1.3-4.4,1.3c-1.6,0-2.9-0.5-3.8-1.4c-0.9-0.9-1.4-2.3-1.4-4.1v-14h-3.5V401h3.5v-5
		l2.3-0.3v5.3h5.4l-0.3,1.9h-5.1v13.8c0,1.2,0.3,2.1,0.8,2.7c0.5,0.6,1.3,0.9,2.3,0.9c1.1,0,2.1-0.3,3.2-0.9L278.9,421.1z"/>
</g>
<g>
	<path class="st0" d="M352,367v32.4h-7.4v-25.1l-7,4.3l-3.3-5l10.9-6.6H352z"/>
</g>
</svg>
