<?xml version="1.0" encoding="utf-8"?>
<!-- Generator: Adobe Illustrator 24.1.0, SVG Export Plug-In . SVG Version: 6.00 Build 0)  -->
<svg version="1.1" id="Capa_1" xmlns="http://www.w3.org/2000/svg" xmlns:xlink="http://www.w3.org/1999/xlink" x="0px" y="0px"
	 viewBox="0 0 425 425" style="enable-background:new 0 0 425 425;" xml:space="preserve">
<style type="text/css">
	.st0{fill:#E8C0A6;}
	.st1{fill:#F9F5F4;}
	.st2{fill:#F4DDCE;}
	.st3{fill:#FFCC33;}
</style>
<g>
	<path class="st0" d="M328.5,301.6c0.1-1,0.2-1.9,0.2-2.9v-74.3c0-13.7-11.1-24.7-24.7-24.7H121.1c-13.7,0-24.7,11.1-24.7,24.7v74.3
		c0,1,0.1,2,0.2,2.9H328.5z"/>
	<path id="rect924-0_17_" class="st1" d="M85.3,301.6h254.4c3.7,0,6.7,3,6.7,6.7v11.5c0,3.7-3,6.7-6.7,6.7H85.3
		c-3.7,0-6.7-3-6.7-6.7v-11.5C78.6,304.6,81.6,301.6,85.3,301.6z"/>
	<path id="path1040-5-2_17_" class="st1" d="M159.9,197.9c26,0.1,78,0.3,104.6,0.4c26.6,0.1,27.8,0.1,32.9,0.8s14,2.1,19.4,4.7
		c5.4,2.6,7.3,6.3,8.5,9.2c1.1,2.9,1.5,4.9,2.1,7.1c0.6,2.2,1.3,4.5,1.3,6.9s-0.7,5-3.3,4.6c-2.5-0.4-6.8-3.9-12.5-5.3
		c-5.7-1.4-12.8-0.8-17.4,2.1c-4.5,2.9-6.4,8-10.5,7.3c-4.1-0.8-10.5-7.4-16.3-9.1c-5.9-1.7-11.3,1.5-16.7,4.9s-10.9,7-16.6,5.4
		c-5.7-1.6-11.7-8.2-17.9-8.2c-6.2,0-12.8,6.7-20.1,6.5c-7.4-0.2-15.6-7.4-23.1-7.4c-7.5-0.1-14.2,7-21.5,6.8
		c-7.2-0.2-14.9-7.5-21.3-7.8c-6.4-0.3-11.5,6.5-17,8.3s-11.4-1.4-14.6-4.2s-3.7-5.2-2.7-9.4c0.9-4.1,3.2-9.9,6.8-13.8
		s8.4-5.8,13.6-7.1s10.9-1.9,13.7-2.2C133.9,197.8,133.9,197.8,159.9,197.9L159.9,197.9z"/>
	<path class="st2" d="M177.9,163.9c-2.6,1.7-3.6,1.2-6.6-0.6l0,0c-0.7-0.4-1.5-0.9-2.3-1.5v35.9h9L177.9,163.9L177.9,163.9z"/>
	<path id="path945-6_15_" class="st3" d="M171.2,163.3c-3-1.8-8-5-8.1-10.8s4.8-14.3,7.4-18.7s2.8-4.8,5.5-0.7
		c2.7,4.1,7.8,12.6,8.2,19c0.4,6.3-3.8,10.1-6.5,11.8C175.2,165.6,174.2,165.1,171.2,163.3L171.2,163.3z"/>
	<path class="st2" d="M215.2,152.4c-2.6,1.7-3.6,1.2-6.6-0.6l0,0c-0.7-0.4-1.5-0.9-2.3-1.5v47.4h9L215.2,152.4L215.2,152.4z"/>
	<path id="path945-0-2_17_" class="st3" d="M208.5,151.8c-3-1.8-8-5-8.1-10.8s4.8-14.3,7.4-18.7c2.6-4.4,2.8-4.8,5.5-0.7
		c2.7,4.1,7.8,12.6,8.2,19c0.4,6.3-3.8,10.1-6.5,11.8C212.5,154.1,211.5,153.6,208.5,151.8L208.5,151.8z"/>
	<path class="st2" d="M252.4,164c-2.6,1.7-3.6,1.2-6.6-0.6l0,0c-0.7-0.4-1.5-0.9-2.3-1.5v35.9h9L252.4,164
		C252.5,163.9,252.5,163.9,252.4,164z"/>
	<path id="path945-0-4-9_15_" class="st3" d="M245.8,163.3c-3-1.8-8-5-8.1-10.8s4.8-14.3,7.4-18.7s2.8-4.8,5.5-0.7
		c2.7,4.1,7.8,12.6,8.2,19c0.4,6.3-3.8,10.1-6.5,11.8C249.8,165.6,248.8,165.1,245.8,163.3L245.8,163.3z"/>
</g>
</svg>
