<?xml version="1.0" encoding="utf-8"?>
<!-- Generator: Adobe Illustrator 24.1.0, SVG Export Plug-In . SVG Version: 6.00 Build 0)  -->
<svg version="1.1" xmlns="http://www.w3.org/2000/svg" xmlns:xlink="http://www.w3.org/1999/xlink" x="0px" y="0px"
	 viewBox="0 0 1385.1 1381" style="enable-background:new 0 0 1385.1 1381;" xml:space="preserve">
<style type="text/css">
	.st0{fill:#D4D8D8;}
	.st1{fill:#373A47;}
	.st2{fill:none;stroke:#373A47;stroke-miterlimit:10;}
	.st3{fill:#032836;}
	.st4{fill:none;stroke:#8FB5BC;stroke-width:18;stroke-miterlimit:10;}
	.st5{fill:#E6EDED;}
	.st6{fill:#FFCC33;}
	.st7{fill:#CCCC66;}
	.st8{fill:#C0D9DF;}
	.st9{fill:#CC6633;}
	.st10{opacity:0.3;}
	.st11{fill:url(#SVGID_1_);}
	.st12{fill:url(#SVGID_2_);}
	.st13{fill:url(#SVGID_3_);}
	.st14{fill:url(#SVGID_4_);}
	.st15{fill:url(#SVGID_5_);}
	.st16{fill:url(#SVGID_6_);}
	.st17{fill:url(#SVGID_7_);}
	.st18{fill:url(#SVGID_8_);}
	.st19{fill:url(#SVGID_9_);}
	.st20{fill:url(#SVGID_10_);}
	.st21{opacity:0.3;fill:url(#SVGID_11_);enable-background:new    ;}
	.st22{opacity:0.3;fill:url(#SVGID_12_);enable-background:new    ;}
	.st23{opacity:0.3;fill:url(#SVGID_13_);enable-background:new    ;}
	.st24{opacity:0.3;fill:url(#SVGID_14_);enable-background:new    ;}
	.st25{opacity:0.3;fill:url(#SVGID_15_);enable-background:new    ;}
	.st26{fill:#EAE47F;}
	.st27{fill:url(#SVGID_16_);}
	.st28{fill:url(#SVGID_17_);}
	.st29{fill:url(#SVGID_18_);}
	.st30{fill:url(#SVGID_19_);}
	.st31{fill:url(#SVGID_20_);}
	.st32{fill:url(#SVGID_21_);}
	.st33{fill:url(#SVGID_22_);}
	.st34{fill:url(#SVGID_23_);}
	.st35{fill:url(#SVGID_24_);}
	.st36{fill:url(#SVGID_25_);}
	.st37{fill:url(#SVGID_26_);}
	.st38{fill:url(#SVGID_27_);}
	.st39{fill:url(#SVGID_28_);}
	.st40{fill:url(#SVGID_29_);}
	.st41{fill:url(#SVGID_30_);}
	.st42{fill:url(#SVGID_31_);}
	.st43{fill:#FFFFFF;}
	.st44{fill:#938A1B;}
	.st45{fill:url(#SVGID_32_);}
	.st46{fill:#FA7F43;}
	.st47{fill:url(#SVGID_33_);}
	.st48{fill:url(#SVGID_34_);}
	.st49{fill:url(#SVGID_35_);}
	.st50{fill:url(#SVGID_36_);}
	.st51{fill:url(#SVGID_37_);}
	.st52{fill:url(#SVGID_38_);}
	.st53{fill:url(#SVGID_39_);}
	.st54{fill:url(#SVGID_40_);}
	.st55{fill:url(#SVGID_41_);}
	.st56{fill:url(#SVGID_42_);}
	.st57{fill:url(#SVGID_43_);}
	.st58{fill:url(#SVGID_44_);}
	.st59{fill:url(#SVGID_45_);}
	.st60{fill:url(#SVGID_46_);}
	.st61{fill:url(#SVGID_47_);}
	.st62{fill:#7C7272;}
	.st63{fill:#8FB5BC;}
	.st64{fill:none;stroke:#FA7F43;stroke-miterlimit:10;}
	.st65{fill:none;stroke:#C5DADD;stroke-miterlimit:10;}
	.st66{fill:none;stroke:#7C7272;stroke-miterlimit:10;}
	.st67{fill:#FFFFFF;stroke:#373A47;stroke-width:0.5669;stroke-miterlimit:10;}
	.st68{fill:none;stroke:#373A47;stroke-width:10;stroke-miterlimit:10;}
	.st69{fill:none;stroke:#373A47;stroke-width:8;stroke-miterlimit:10;}
	.st70{fill:none;stroke:#D4D8D8;stroke-width:8;stroke-miterlimit:10;}
	.st71{fill:#FFFFFF;stroke:#373A47;stroke-miterlimit:10;}
</style>
<g id="Capa_1">
	<g>
		<path class="st0" d="M1376.2,756.8c0-11.6-9.4-21.1-21.1-21.1c-2.3,0-4.5,0.4-6.5,1c-0.2,0-0.4,0.1-0.6,0.1
			c-55.6,16.1-106.6,26-155.9,30.2c-57.9,4.9-115.8,2.2-176.9-8.1c-71.1-12-148-35-228.6-68.4c-80.8-38-156.5-63.7-231.6-78.8
			c-35.9-7.2-72.2-12-107.7-14.2c-33.7-2.1-67.9-1.8-101.6,0.6c-57.1,4.2-115.3,15-178,33.1c-16.1,4.7-32.1,9.7-48,14.9
			c-0.9,0.2-1.8,0.5-2.6,0.9c-8.2,3.3-14.1,11.4-14.1,20.8c0,12.4,10,22.4,22.4,22.4c1.6,0,3.2-0.2,4.7-0.5c1.9-0.4,3.7-1.1,5.4-1.9
			c73.7-26.1,146.3-47.6,224.6-53.3c52.2-3.8,104-0.4,158.5,10.6c64,12.9,133.2,36.7,205.6,70.8l0.9,0.4l1,0.4
			c45.4,18.8,90.3,34.8,133.4,47.5c41.9,12.4,83.7,22.1,124.2,29c39.1,6.6,78.3,10.8,116.6,12.3c36.1,1.5,72.5,0.7,108.2-2.3
			c53.7-4.5,103.2-13.7,150.1-25.6c1.1-0.2,2.2-0.5,3.2-0.8s1.7-0.5,2.1-0.8C1371.2,772.5,1376.2,765.3,1376.2,756.8z"/>
		<g>
			<g>
				<polygon class="st1" points="752.4,569.2 752.4,592.4 760.6,592.4 740.3,612.9 719.8,592.4 728.1,592.4 728.1,569.2 				"/>
			</g>
		</g>
		<ellipse class="st2" cx="296.8" cy="834.2" rx="65" ry="37.4"/>
		<ellipse class="st2" cx="519.6" cy="873.6" rx="65" ry="37.4"/>
		<ellipse class="st2" cx="743.9" cy="918.4" rx="65" ry="37.4"/>
		<ellipse class="st2" cx="960.4" cy="968.4" rx="65" ry="37.4"/>
		<ellipse class="st2" cx="1182.1" cy="992.2" rx="65" ry="37.4"/>
		<polygon class="st1" points="308,752.4 308,772 315,772 297.7,789.4 280.3,772 287.3,772 287.3,752.4 		"/>
		<polyline class="st2" points="378.6,702.9 378.6,741.6 216.9,741.6 216.9,722.9 		"/>
		<polygon class="st1" points="529.8,791.7 529.8,811.4 536.8,811.4 519.5,828.9 502.1,811.4 509.1,811.4 509.1,791.7 		"/>
		<polyline class="st2" points="602.1,732.4 602.1,781 434.3,781 434.3,712.4 		"/>
		<polygon class="st1" points="754.1,836.4 754.1,856.2 761.1,856.2 743.8,873.5 726.4,856.2 733.4,856.2 733.4,836.4 		"/>
		<polyline class="st2" points="821.7,807 821.7,825.7 660,825.7 660,757 		"/>
		<polygon class="st1" points="970.6,886.4 970.6,906.2 977.6,906.2 960.2,923.5 942.9,906.2 949.9,906.2 949.9,886.4 		"/>
		<polyline class="st2" points="1041.2,862 1041.2,875.7 879.5,875.7 879.5,827 		"/>
		<polygon class="st1" points="1193.3,910.4 1193.3,930.2 1200.4,930.2 1183,947.5 1165.6,930.2 1172.6,930.2 1172.6,910.4 		"/>
		<polyline class="st2" points="1258.9,866.9 1258.9,900.6 1097.2,900.6 1097.2,881.9 		"/>
		<path class="st3" d="M731.4,925.4l-1.2-4.8h-6.6l-1.1,4.8h-5.6l6.8-22.7h6.5l6.8,22.7H731.4z M724.5,916.5h4.7l-2.4-10
			L724.5,916.5z"/>
		<path class="st3" d="M748.3,907.9c1.1,0.3,2.1,0.9,2.9,1.5l-1.9,2.9c-1.4-0.9-2.9-1.3-4.3-1.3c-0.7,0-1.2,0.1-1.5,0.3
			s-0.5,0.5-0.5,1c0,0.3,0.1,0.5,0.2,0.8c0.1,0.2,0.5,0.4,1,0.7c0.5,0.2,1.3,0.4,2.3,0.8c1.8,0.5,3.2,1.2,4.1,2.1
			c0.9,0.9,1.3,2,1.3,3.5c0,1.2-0.3,2.2-1,3.1s-1.6,1.5-2.7,2c-1.2,0.4-2.5,0.7-4,0.7s-2.9-0.2-4.1-0.7c-1.2-0.4-2.3-1.1-3.2-1.9
			l2.5-2.9c1.4,1.1,3,1.6,4.6,1.6c0.8,0,1.4-0.1,1.9-0.4c0.4-0.3,0.7-0.7,0.7-1.2c0-0.4-0.1-0.8-0.2-1c-0.2-0.2-0.5-0.4-1-0.7
			c-0.5-0.2-1.3-0.4-2.4-0.8c-1.8-0.5-3-1.2-3.8-2.1s-1.3-2-1.3-3.3c0-1,0.3-1.9,0.9-2.7c0.5-0.8,1.4-1.4,2.5-1.9
			c1.1-0.4,2.3-0.7,3.7-0.7C746.1,907.4,747.2,907.6,748.3,907.9z"/>
		<path class="st3" d="M768.2,908.7c0.9,0.9,1.3,2.2,1.3,3.8v12.6h-5.2v-11.7c0-0.9-0.1-1.4-0.4-1.9c-0.2-0.3-0.7-0.5-1.2-0.5
			c-1.1,0-2.1,0.8-3,2.3v11.9h-5.2v-17.4h4.5l0.3,2.1c0.8-0.9,1.5-1.5,2.4-2c0.9-0.4,1.9-0.7,2.9-0.7
			C766.2,907.4,767.3,907.9,768.2,908.7z"/>
		<path class="st3" d="M514.8,858l-0.5,4.1h-5.6v18.6h-5.4v-18.6h-5.8V858H514.8z"/>
		<path class="st3" d="M527.2,863l-0.8,5.1c-0.7-0.1-1.2-0.2-1.5-0.2c-1,0-1.8,0.3-2.3,1.1c-0.5,0.7-1,1.8-1.2,3.2v8.6H516v-17.4
			h4.5l0.4,3.4c0.4-1.2,1-2.1,1.8-2.9c0.8-0.7,1.6-1,2.7-1C525.9,862.7,526.6,862.9,527.2,863z"/>
		<path class="st3" d="M543.8,865.2c1.1,1.6,1.6,3.8,1.6,6.8c0,1.8-0.3,3.4-0.9,4.8c-0.5,1.4-1.3,2.5-2.4,3.3
			c-1.1,0.8-2.3,1.2-3.6,1.2c-1.8,0-3.2-0.5-4.2-1.8v7.9l-5.2,0.5v-24.5h4.5l0.2,2c0.7-0.9,1.4-1.4,2.3-1.9s1.8-0.7,2.6-0.7
			C541,862.7,542.7,863.5,543.8,865.2z M540,871.9c0-2.1-0.2-3.5-0.7-4.3c-0.4-0.8-1.1-1.2-2.1-1.2c-0.5,0-1.1,0.2-1.6,0.5
			s-1,0.9-1.3,1.5v7.4c0.7,1,1.5,1.5,2.6,1.5C538.9,877.4,540,875.6,540,871.9z"/>
		<path class="st3" d="M1180,999.4h-5.3l-0.4-8.9c-0.1-2.1-0.1-4-0.1-5.6c0-1.2,0-2.4,0.1-3.6l-3.5,15.7h-5.1l-3.7-15.7
			c0.1,1.9,0.2,3.7,0.2,5.4c0,1.3,0,2.5-0.1,4l-0.4,8.8h-5.3l1.6-22.7h6.8l3.4,15.4l3.2-15.4h6.8L1180,999.4z"/>
		<path class="st3" d="M1198.2,992.2h-10.8c0.2,1.4,0.5,2.5,1.2,3.1c0.7,0.5,1.5,0.9,2.7,0.9c0.7,0,1.3-0.1,2-0.3s1.3-0.7,2.1-1.2
			l2.1,2.9c-2,1.6-4.3,2.4-6.8,2.4c-2.9,0-4.9-0.9-6.5-2.5c-1.5-1.6-2.3-3.8-2.3-6.7c0-1.8,0.3-3.3,1-4.7s1.5-2.5,2.7-3.3
			s2.6-1.2,4.4-1.2c2.5,0,4.5,0.8,5.9,2.3s2.1,3.7,2.1,6.5C1198.3,990.9,1198.2,991.6,1198.2,992.2z M1193.2,988.7c0-2.6-1-4-2.9-4
			c-0.9,0-1.5,0.3-2.1,1s-0.8,1.8-0.9,3.2h5.8L1193.2,988.7L1193.2,988.7z"/>
		<path class="st3" d="M1212,998.4c-0.7,0.4-1.3,0.8-2.2,1c-0.9,0.2-1.7,0.3-2.5,0.3c-3.8,0-5.7-2.1-5.7-6.3v-8h-2.4v-3.6h2.4v-3.7
			l5.2-0.5v4.4h4l-0.5,3.6h-3.4v8c0,0.8,0.1,1.4,0.4,1.8c0.3,0.3,0.7,0.5,1.2,0.5c0.6,0,1.2-0.2,1.9-0.5L1212,998.4z"/>
		<path class="st3" d="M942,952.7v18.4h8.8l-0.5,4.3h-13.6v-22.7H942L942,952.7z"/>
		<path class="st3" d="M967.5,968.2h-10.8c0.2,1.4,0.5,2.5,1.2,3.1c0.7,0.5,1.5,0.9,2.7,0.9c0.7,0,1.3-0.1,2-0.3s1.3-0.7,2.1-1.2
			l2.1,2.9c-2,1.6-4.3,2.4-6.8,2.4c-2.9,0-4.9-0.9-6.5-2.5c-1.5-1.6-2.3-3.8-2.3-6.7c0-1.8,0.3-3.3,1-4.7s1.5-2.5,2.7-3.3
			s2.6-1.2,4.4-1.2c2.5,0,4.5,0.8,5.9,2.3s2.1,3.7,2.1,6.5C967.6,967,967.5,967.6,967.5,968.2z M962.6,964.9c0-2.6-1-4-2.9-4
			c-0.9,0-1.5,0.3-2.1,1s-0.8,1.8-0.9,3.2h5.8L962.6,964.9L962.6,964.9z"/>
		<path class="st3" d="M985.2,975.4h-4.5l-0.2-2.2c-1.3,1.9-3,2.7-5.3,2.7c-1.5,0-2.7-0.4-3.6-1.4c-0.8-1-1.2-2.3-1.2-4.1V958h5.2
			v11.8c0,0.9,0.1,1.4,0.4,1.8c0.3,0.3,0.7,0.5,1.2,0.5c1.1,0,2-0.7,2.9-2V958h5.2L985.2,975.4L985.2,975.4z"/>
		<path class="st3" d="M286.2,818.7c1.2,0.4,2.4,1.2,3.4,2.2l-2.5,2.9c-1.5-1.3-3.2-1.9-4.9-1.9c-1,0-1.6,0.2-2.2,0.5
			c-0.5,0.3-0.8,0.9-0.8,1.6c0,0.5,0.1,0.9,0.3,1.2c0.2,0.3,0.7,0.7,1.3,0.9c0.7,0.3,1.5,0.7,2.7,1c2.3,0.8,4,1.6,5.1,2.7
			c1.1,1.1,1.6,2.6,1.6,4.6c0,1.4-0.3,2.6-1.1,3.7c-0.8,1.1-1.8,1.9-3.1,2.5c-1.3,0.5-3,0.9-4.8,0.9c-1.9,0-3.5-0.3-4.9-0.9
			c-1.4-0.5-2.6-1.3-3.6-2.3l2.7-3c0.9,0.8,1.8,1.3,2.7,1.6c0.9,0.3,2,0.5,3.1,0.5s2-0.2,2.6-0.8c0.7-0.4,1-1.2,1-2.1
			c0-0.5-0.1-1-0.3-1.4c-0.2-0.3-0.7-0.8-1.2-1c-0.5-0.3-1.4-0.7-2.5-1c-2.5-0.8-4.3-1.6-5.4-2.9s-1.5-2.5-1.5-4.2
			c0-1.3,0.3-2.4,1.1-3.4c0.7-1,1.6-1.8,2.9-2.3c1.2-0.5,2.6-0.8,4.2-0.8C283.5,818,284.9,818.2,286.2,818.7z"/>
		<path class="st3" d="M308.1,834.2h-10.8c0.2,1.4,0.5,2.5,1.2,3.1c0.7,0.5,1.5,0.9,2.7,0.9c0.7,0,1.3-0.1,2-0.3s1.3-0.7,2.1-1.2
			l2.1,2.9c-2,1.6-4.3,2.4-6.8,2.4c-2.9,0-4.9-0.9-6.5-2.5s-2.3-3.8-2.3-6.7c0-1.8,0.3-3.3,1-4.7s1.5-2.5,2.7-3.3s2.6-1.2,4.4-1.2
			c2.5,0,4.5,0.8,5.9,2.3s2.1,3.7,2.1,6.5C308.2,832.9,308.2,833.5,308.1,834.2z M303.2,830.7c0-2.6-1-4-2.9-4c-0.9,0-1.5,0.3-2.1,1
			c-0.5,0.7-0.8,1.8-0.9,3.2h5.8v-0.2H303.2z"/>
		<path class="st3" d="M322.3,823.6l-0.8,5.1c-0.7-0.1-1.2-0.2-1.5-0.2c-1,0-1.8,0.3-2.3,1.1c-0.5,0.7-1,1.8-1.2,3.2v8.6h-5.2V824
			h4.5l0.4,3.4c0.4-1.2,1-2.1,1.8-2.9c0.8-0.7,1.6-1,2.7-1C321.2,823.4,321.8,823.4,322.3,823.6z"/>
		<g>
			<path class="st4" d="M656.6,35c141.5,0,89,95.4,233.6,95.4"/>
			<path class="st4" d="M656.6,130.4c141.5,0,89-95.4,233.6-95.4"/>
		</g>
		<polyline class="st2" points="1187.1,1057.4 1187.1,1081 296.9,1081 296.9,897.4 		"/>
		<polyline class="st2" points="1187.1,230 1187.1,201.3 296.9,201.3 296.9,230 		"/>
		<path class="st0" d="M203.6,415.9c49.1-42.4,95.5-82.4,146.7-91.2c26.2-4.5,52.3-0.4,79.7,12.4c32.2,15.1,66.9,42.9,103.3,82.8
			l0.5,0.5l0.5,0.5c22.8,22,45.4,40.7,67.1,55.6c21.1,14.5,42.1,25.9,62.4,33.9c19.7,7.8,39.4,12.6,58.6,14.4
			c18.1,1.7,36.4,0.8,54.4-2.7c67.3-13.2,121.7-60.4,174.4-106c49-42.4,95.3-82.5,146.6-91.3c26.3-4.5,52.5-0.4,80.1,12.4
			c16.7,7.8,34,18.9,52,33.4l52.1,50.3c18.2,17.5,23.5,21.9,53.7,46c30.2,24.2,54.8-13.5,29.8-31.5c-26.2-19-30.5-23.5-47.7-39.8
			l-4.1-4.5c-41.1-44.8-79.6-75.2-117.7-92.9c-18.1-8.5-36.4-14-54.3-16.6c-17-2.4-34.2-2.2-51.2,0.7c-28.8,4.9-58,17.6-89.5,38.8
			c-26.9,18.1-52.9,40.6-78,62.4c-24.7,21.4-50.2,43.5-76.2,61c-28,18.9-53.6,30.4-78.3,35.3c-29.1,5.7-58.2,2.6-88.9-9.5
			c-35.7-14.1-74.4-41-114.9-80C524,346,486,315.8,448.2,298.2c-18.1-8.5-36.3-14-54.1-16.6c-16.9-2.4-34.1-2.2-51,0.7
			c-28.7,4.9-58,17.6-89.4,38.7c-26.9,18.1-52.9,40.5-78.1,62.3c-21.9,18.9-50.7,41.3-67.4,54.7c-16.6,13.4,1.1,54.4,34.4,28.1
			S183.7,433.1,203.6,415.9z"/>
		<path class="st5" d="M540.1,426.6c-3.5-3.5-6.6-6.9-9.7-10.5l-0.6-0.7c-4.3-4.3-8.4-8.4-12.6-12.5c-30.5,30.9-59.8,52.9-87.2,65.8
			c-27.4,12.8-53.4,16.9-79.7,12.4c-51.2-8.8-97.6-48.8-146.7-91.2c-20.4-17.6-39.3-32.9-62.5-51.4c-27.3-19.8-49.6,15.1-34.3,28.3
			c15.3,13.2,46.4,36.4,68.7,55.6c25.2,21.7,51.2,44.2,78.1,62.3c31.5,21.1,60.7,33.8,89.4,38.7c9.3,1.6,18.6,2.4,27.9,2.4
			c7.7,0,15.5-0.5,23.1-1.6c17.8-2.5,36.1-8.1,54.1-16.6c32.3-15.1,64.9-39.4,99.1-74C545,431.3,542.6,429,540.1,426.6z"/>
		<g>
			<path class="st5" d="M1313.6,391.2l4.1,4.5c2.6,2.5,5.2,4.9,7.8,7.2c16.9-15.3,24.8-19.9,49.5-39.3c20.8-15.6-9.9-48.9-32.2-30
				c-22.4,18.9-31.3,24-47.4,38.6C1301.4,378.2,1307.4,384.5,1313.6,391.2z"/>
			<path class="st5" d="M1281.8,420.9l-18.7-18l-33.4,32.2c-17.9,14.5-35.3,25.6-52,33.4c-27.6,12.9-53.8,16.9-80.1,12.4
				c-51.3-8.8-97.6-48.9-146.6-91.3c-52.7-45.6-107.1-92.8-174.4-106c-18-3.5-36.3-4.4-54.4-2.7c-19.2,1.8-38.9,6.7-58.6,14.4
				c-20.3,8-41.3,19.4-62.4,33.9c-17.5,12-35.5,26.5-53.8,43.1c4.3,4.3,8.7,8.6,13.1,13l0.4,0.4l1.5,1.6c2.9,3.2,5.3,6,8,8.7
				c2.3,2.3,4.7,4.6,7.2,6.9c35.7-32.4,69.9-55.1,101.7-67.7c30.7-12.1,59.8-15.2,88.9-9.5c24.8,4.9,50.4,16.4,78.3,35.3
				c26,17.5,51.5,39.6,76.2,61c25.1,21.8,51.1,44.3,78,62.4c31.5,21.2,60.7,33.9,89.5,38.8c17,2.9,34.2,3.2,51.2,0.7
				c17.9-2.5,36.2-8.1,54.3-16.6c32.4-15.1,65.1-39.4,99.5-73.9C1290.9,429.5,1286.3,425.3,1281.8,420.9z"/>
		</g>
		<circle class="st5" cx="123" cy="453.5" r="19.9"/>
		<circle class="st5" cx="1353.9" cy="453.5" r="19.9"/>
		<g>
			<path class="st6" d="M236.1,434.7c0,6.9-5.6,12.4-12.4,12.4s-12.4-5.6-12.4-12.4c0-0.3,0-28,0-28.3c0-6.9,5.6-12.4,12.4-12.4
				s12.4,5.6,12.4,12.4C236.1,406.7,236.1,434.3,236.1,434.7z"/>
			<path class="st6" d="M309.7,463.8c0,6.9-5.6,12.4-12.4,12.4c-6.9,0-12.4-5.6-12.4-12.4c0-0.3,0-57.1,0-57.4
				c0-6.9,5.6-12.4,12.4-12.4c6.9,0,12.4,5.6,12.4,12.4C309.7,406.7,309.7,463.4,309.7,463.8z"/>
			<path class="st7" d="M383.2,492.9c0,6.9-5.6,12.4-12.4,12.4c-6.9,0-12.4-5.6-12.4-12.4c0-0.3,0-86.3,0-86.6
				c0-6.9,5.6-12.4,12.4-12.4c6.9,0,12.4,5.6,12.4,12.4C383.2,406.7,383.2,492.6,383.2,492.9z"/>
			<path class="st8" d="M456.8,463.8c0,6.9-5.6,12.4-12.4,12.4c-6.9,0-12.4-5.6-12.4-12.4c0-0.3,0-57.1,0-57.4
				c0-6.9,5.6-12.4,12.4-12.4c6.9,0,12.4,5.6,12.4,12.4C456.8,406.7,456.8,463.4,456.8,463.8z"/>
			<path class="st8" d="M530.4,434.7c0,6.9-5.6,12.4-12.4,12.4c-6.9,0-12.4-5.6-12.4-12.4c0-0.3,0-28,0-28.3
				c0-6.9,5.6-12.4,12.4-12.4c6.9,0,12.4,5.6,12.4,12.4C530.4,406.7,530.4,434.3,530.4,434.7z"/>
			<path class="st7" d="M603.9,434.7c0,6.9-5.6,12.4-12.4,12.4c-6.9,0-12.4-5.6-12.4-12.4c0-0.3,0-28,0-28.3
				c0-6.9,5.6-12.4,12.4-12.4c6.9,0,12.4,5.6,12.4,12.4C603.9,406.7,603.9,434.3,603.9,434.7z"/>
			<path class="st6" d="M677.5,463.8c0,6.9-5.6,12.4-12.4,12.4c-6.9,0-12.4-5.6-12.4-12.4c0-0.3,0-57.1,0-57.4
				c0-6.9,5.6-12.4,12.4-12.4c6.9,0,12.4,5.6,12.4,12.4C677.5,406.7,677.5,463.4,677.5,463.8z"/>
			<path class="st9" d="M751.1,492.9c0,6.9-5.6,12.4-12.4,12.4s-12.4-5.6-12.4-12.4c0-0.3,0-86.3,0-86.6c0-6.9,5.6-12.4,12.4-12.4
				s12.4,5.6,12.4,12.4C751.1,406.7,751.1,492.6,751.1,492.9z"/>
			<path class="st9" d="M824.6,463.8c0,6.9-5.6,12.4-12.4,12.4s-12.4-5.6-12.4-12.4c0-0.3,0-57.1,0-57.4c0-6.9,5.6-12.4,12.4-12.4
				s12.4,5.6,12.4,12.4C824.6,406.7,824.6,463.4,824.6,463.8z"/>
			<path class="st8" d="M898.2,434.7c0,6.9-5.6,12.4-12.4,12.4s-12.4-5.6-12.4-12.4c0-0.3,0-28,0-28.3c0-6.9,5.6-12.4,12.4-12.4
				s12.4,5.6,12.4,12.4C898.2,406.7,898.2,434.3,898.2,434.7z"/>
		</g>
		<path class="st7" d="M972.5,434.7c0,6.9-5.6,12.4-12.4,12.4c-6.9,0-12.4-5.6-12.4-12.4c0-0.3,0-28,0-28.3
			c0-6.9,5.6-12.4,12.4-12.4c6.9,0,12.4,5.6,12.4,12.4C972.5,406.7,972.5,434.3,972.5,434.7z"/>
		<path class="st6" d="M1046.1,463.8c0,6.9-5.6,12.4-12.4,12.4c-6.9,0-12.4-5.6-12.4-12.4c0-0.3,0-57.1,0-57.4
			c0-6.9,5.6-12.4,12.4-12.4c6.9,0,12.4,5.6,12.4,12.4C1046.1,406.7,1046.1,463.4,1046.1,463.8z"/>
		<path class="st8" d="M1119.6,492.9c0,6.9-5.6,12.4-12.4,12.4c-6.9,0-12.4-5.6-12.4-12.4c0-0.3,0-86.3,0-86.6
			c0-6.9,5.6-12.4,12.4-12.4c6.9,0,12.4,5.6,12.4,12.4C1119.6,406.7,1119.6,492.6,1119.6,492.9z"/>
		<path class="st7" d="M1193.2,463.8c0,6.9-5.6,12.4-12.4,12.4c-6.9,0-12.4-5.6-12.4-12.4c0-0.3,0-57.1,0-57.4
			c0-6.9,5.6-12.4,12.4-12.4c6.9,0,12.4,5.6,12.4,12.4C1193.2,406.7,1193.2,463.4,1193.2,463.8z"/>
		<path class="st9" d="M1266.8,434.7c0,6.9-5.6,12.4-12.4,12.4s-12.4-5.6-12.4-12.4c0-0.3,0-28,0-28.3c0-6.9,5.6-12.4,12.4-12.4
			s12.4,5.6,12.4,12.4C1266.8,406.7,1266.8,434.3,1266.8,434.7z"/>
		<g class="st10">
			
				<linearGradient id="SVGID_1_" gradientUnits="userSpaceOnUse" x1="211.2442" y1="927.45" x2="236.0933" y2="927.45" gradientTransform="matrix(1 0 0 -1 0 1348)">
				<stop  offset="0" style="stop-color:#000000"/>
				<stop  offset="0.1045" style="stop-color:#1D1D1B"/>
				<stop  offset="0.6774" style="stop-color:#000000;stop-opacity:0"/>
			</linearGradient>
			<path class="st11" d="M236.1,434.7c0,6.9-5.6,12.4-12.4,12.4s-12.4-5.6-12.4-12.4c0-0.3,0-28,0-28.3c0-6.9,5.6-12.4,12.4-12.4
				s12.4,5.6,12.4,12.4C236.1,406.7,236.1,434.3,236.1,434.7z"/>
			
				<linearGradient id="SVGID_2_" gradientUnits="userSpaceOnUse" x1="284.8106" y1="912.9" x2="309.6597" y2="912.9" gradientTransform="matrix(1 0 0 -1 0 1348)">
				<stop  offset="0" style="stop-color:#000000"/>
				<stop  offset="0.1045" style="stop-color:#1D1D1B"/>
				<stop  offset="0.6774" style="stop-color:#000000;stop-opacity:0"/>
			</linearGradient>
			<path class="st12" d="M309.7,463.8c0,6.9-5.6,12.4-12.4,12.4c-6.9,0-12.4-5.6-12.4-12.4c0-0.3,0-57.1,0-57.4
				c0-6.9,5.6-12.4,12.4-12.4c6.9,0,12.4,5.6,12.4,12.4C309.7,406.7,309.7,463.4,309.7,463.8z"/>
			
				<linearGradient id="SVGID_3_" gradientUnits="userSpaceOnUse" x1="358.4" y1="898.4" x2="383.2491" y2="898.4" gradientTransform="matrix(1 0 0 -1 0 1348)">
				<stop  offset="0" style="stop-color:#000000"/>
				<stop  offset="0.1045" style="stop-color:#1D1D1B"/>
				<stop  offset="0.6774" style="stop-color:#000000;stop-opacity:0"/>
			</linearGradient>
			<path class="st13" d="M383.2,492.9c0,6.9-5.6,12.4-12.4,12.4c-6.9,0-12.4-5.6-12.4-12.4c0-0.3,0-86.3,0-86.6
				c0-6.9,5.6-12.4,12.4-12.4c6.9,0,12.4,5.6,12.4,12.4C383.2,406.7,383.2,492.6,383.2,492.9z"/>
			
				<linearGradient id="SVGID_4_" gradientUnits="userSpaceOnUse" x1="431.9434" y1="912.9" x2="456.7925" y2="912.9" gradientTransform="matrix(1 0 0 -1 0 1348)">
				<stop  offset="0" style="stop-color:#000000"/>
				<stop  offset="0.1045" style="stop-color:#1D1D1B"/>
				<stop  offset="0.6774" style="stop-color:#000000;stop-opacity:0"/>
			</linearGradient>
			<path class="st14" d="M456.8,463.8c0,6.9-5.6,12.4-12.4,12.4c-6.9,0-12.4-5.6-12.4-12.4c0-0.3,0-57.1,0-57.4
				c0-6.9,5.6-12.4,12.4-12.4c6.9,0,12.4,5.6,12.4,12.4C456.8,406.7,456.8,463.4,456.8,463.8z"/>
			
				<linearGradient id="SVGID_5_" gradientUnits="userSpaceOnUse" x1="505.5098" y1="927.45" x2="530.3589" y2="927.45" gradientTransform="matrix(1 0 0 -1 0 1348)">
				<stop  offset="0" style="stop-color:#000000"/>
				<stop  offset="0.1045" style="stop-color:#1D1D1B"/>
				<stop  offset="0.6774" style="stop-color:#000000;stop-opacity:0"/>
			</linearGradient>
			<path class="st15" d="M530.4,434.7c0,6.9-5.6,12.4-12.4,12.4c-6.9,0-12.4-5.6-12.4-12.4c0-0.3,0-28,0-28.3
				c0-6.9,5.6-12.4,12.4-12.4c6.9,0,12.4,5.6,12.4,12.4C530.4,406.7,530.4,434.3,530.4,434.7z"/>
			
				<linearGradient id="SVGID_6_" gradientUnits="userSpaceOnUse" x1="579.1" y1="927.45" x2="603.9491" y2="927.45" gradientTransform="matrix(1 0 0 -1 0 1348)">
				<stop  offset="0" style="stop-color:#000000"/>
				<stop  offset="0.1045" style="stop-color:#1D1D1B"/>
				<stop  offset="0.6774" style="stop-color:#000000;stop-opacity:0"/>
			</linearGradient>
			<path class="st16" d="M603.9,434.7c0,6.9-5.6,12.4-12.4,12.4c-6.9,0-12.4-5.6-12.4-12.4c0-0.3,0-28,0-28.3
				c0-6.9,5.6-12.4,12.4-12.4c6.9,0,12.4,5.6,12.4,12.4C603.9,406.7,603.9,434.3,603.9,434.7z"/>
			
				<linearGradient id="SVGID_7_" gradientUnits="userSpaceOnUse" x1="652.6426" y1="912.9" x2="677.4917" y2="912.9" gradientTransform="matrix(1 0 0 -1 0 1348)">
				<stop  offset="0" style="stop-color:#000000"/>
				<stop  offset="0.1045" style="stop-color:#1D1D1B"/>
				<stop  offset="0.6774" style="stop-color:#000000;stop-opacity:0"/>
			</linearGradient>
			<path class="st17" d="M677.5,463.8c0,6.9-5.6,12.4-12.4,12.4c-6.9,0-12.4-5.6-12.4-12.4c0-0.3,0-57.1,0-57.4
				c0-6.9,5.6-12.4,12.4-12.4c6.9,0,12.4,5.6,12.4,12.4C677.5,406.7,677.5,463.4,677.5,463.8z"/>
			
				<linearGradient id="SVGID_8_" gradientUnits="userSpaceOnUse" x1="726.209" y1="898.4" x2="751.0581" y2="898.4" gradientTransform="matrix(1 0 0 -1 0 1348)">
				<stop  offset="0" style="stop-color:#000000"/>
				<stop  offset="0.1045" style="stop-color:#1D1D1B"/>
				<stop  offset="0.6774" style="stop-color:#000000;stop-opacity:0"/>
			</linearGradient>
			<path class="st18" d="M751.1,492.9c0,6.9-5.6,12.4-12.4,12.4s-12.4-5.6-12.4-12.4c0-0.3,0-86.3,0-86.6c0-6.9,5.6-12.4,12.4-12.4
				s12.4,5.6,12.4,12.4C751.1,406.7,751.1,492.6,751.1,492.9z"/>
			
				<linearGradient id="SVGID_9_" gradientUnits="userSpaceOnUse" x1="799.7999" y1="912.9" x2="824.649" y2="912.9" gradientTransform="matrix(1 0 0 -1 0 1348)">
				<stop  offset="0" style="stop-color:#000000"/>
				<stop  offset="0.1045" style="stop-color:#1D1D1B"/>
				<stop  offset="0.6774" style="stop-color:#000000;stop-opacity:0"/>
			</linearGradient>
			<path class="st19" d="M824.6,463.8c0,6.9-5.6,12.4-12.4,12.4s-12.4-5.6-12.4-12.4c0-0.3,0-57.1,0-57.4c0-6.9,5.6-12.4,12.4-12.4
				s12.4,5.6,12.4,12.4C824.6,406.7,824.6,463.4,824.6,463.8z"/>
			
				<linearGradient id="SVGID_10_" gradientUnits="userSpaceOnUse" x1="873.3418" y1="927.45" x2="898.1909" y2="927.45" gradientTransform="matrix(1 0 0 -1 0 1348)">
				<stop  offset="0" style="stop-color:#000000"/>
				<stop  offset="0.1045" style="stop-color:#1D1D1B"/>
				<stop  offset="0.6774" style="stop-color:#000000;stop-opacity:0"/>
			</linearGradient>
			<path class="st20" d="M898.2,434.7c0,6.9-5.6,12.4-12.4,12.4s-12.4-5.6-12.4-12.4c0-0.3,0-28,0-28.3c0-6.9,5.6-12.4,12.4-12.4
				s12.4,5.6,12.4,12.4C898.2,406.7,898.2,434.3,898.2,434.7z"/>
		</g>
		
			<linearGradient id="SVGID_11_" gradientUnits="userSpaceOnUse" x1="947.6491" y1="927.45" x2="972.4982" y2="927.45" gradientTransform="matrix(1 0 0 -1 0 1348)">
			<stop  offset="0" style="stop-color:#000000"/>
			<stop  offset="0.1045" style="stop-color:#1D1D1B"/>
			<stop  offset="0.6774" style="stop-color:#000000;stop-opacity:0"/>
		</linearGradient>
		<path class="st21" d="M972.5,434.7c0,6.9-5.6,12.4-12.4,12.4c-6.9,0-12.4-5.6-12.4-12.4c0-0.3,0-28,0-28.3
			c0-6.9,5.6-12.4,12.4-12.4c6.9,0,12.4,5.6,12.4,12.4C972.5,406.7,972.5,434.3,972.5,434.7z"/>
		
			<linearGradient id="SVGID_12_" gradientUnits="userSpaceOnUse" x1="1021.2155" y1="912.9" x2="1046.0646" y2="912.9" gradientTransform="matrix(1 0 0 -1 0 1348)">
			<stop  offset="0" style="stop-color:#000000"/>
			<stop  offset="0.1045" style="stop-color:#1D1D1B"/>
			<stop  offset="0.6774" style="stop-color:#000000;stop-opacity:0"/>
		</linearGradient>
		<path class="st22" d="M1046.1,463.8c0,6.9-5.6,12.4-12.4,12.4c-6.9,0-12.4-5.6-12.4-12.4c0-0.3,0-57.1,0-57.4
			c0-6.9,5.6-12.4,12.4-12.4c6.9,0,12.4,5.6,12.4,12.4C1046.1,406.7,1046.1,463.4,1046.1,463.8z"/>
		
			<linearGradient id="SVGID_13_" gradientUnits="userSpaceOnUse" x1="1094.7999" y1="898.4" x2="1119.649" y2="898.4" gradientTransform="matrix(1 0 0 -1 0 1348)">
			<stop  offset="0" style="stop-color:#000000"/>
			<stop  offset="0.1045" style="stop-color:#1D1D1B"/>
			<stop  offset="0.6774" style="stop-color:#000000;stop-opacity:0"/>
		</linearGradient>
		<path class="st23" d="M1119.6,492.9c0,6.9-5.6,12.4-12.4,12.4c-6.9,0-12.4-5.6-12.4-12.4c0-0.3,0-86.3,0-86.6
			c0-6.9,5.6-12.4,12.4-12.4c6.9,0,12.4,5.6,12.4,12.4C1119.6,406.7,1119.6,492.6,1119.6,492.9z"/>
		
			<linearGradient id="SVGID_14_" gradientUnits="userSpaceOnUse" x1="1168.3483" y1="912.9" x2="1193.1974" y2="912.9" gradientTransform="matrix(1 0 0 -1 0 1348)">
			<stop  offset="0" style="stop-color:#000000"/>
			<stop  offset="0.1045" style="stop-color:#1D1D1B"/>
			<stop  offset="0.6774" style="stop-color:#000000;stop-opacity:0"/>
		</linearGradient>
		<path class="st24" d="M1193.2,463.8c0,6.9-5.6,12.4-12.4,12.4c-6.9,0-12.4-5.6-12.4-12.4c0-0.3,0-57.1,0-57.4
			c0-6.9,5.6-12.4,12.4-12.4c6.9,0,12.4,5.6,12.4,12.4C1193.2,406.7,1193.2,463.4,1193.2,463.8z"/>
		
			<linearGradient id="SVGID_15_" gradientUnits="userSpaceOnUse" x1="1241.9147" y1="927.45" x2="1266.7638" y2="927.45" gradientTransform="matrix(1 0 0 -1 0 1348)">
			<stop  offset="0" style="stop-color:#000000"/>
			<stop  offset="0.1045" style="stop-color:#1D1D1B"/>
			<stop  offset="0.6774" style="stop-color:#000000;stop-opacity:0"/>
		</linearGradient>
		<path class="st25" d="M1266.8,434.7c0,6.9-5.6,12.4-12.4,12.4s-12.4-5.6-12.4-12.4c0-0.3,0-28,0-28.3c0-6.9,5.6-12.4,12.4-12.4
			s12.4,5.6,12.4,12.4C1266.8,406.7,1266.8,434.3,1266.8,434.7z"/>
		<g>
			<path class="st26" d="M400.5,246v-0.6h-2.1C399.1,245.6,399.8,245.8,400.5,246z"/>
			<path class="st8" d="M236.1,373.7c0-6.9-5.6-12.4-12.4-12.4s-12.4,5.6-12.4,12.4c0,0.3,0,28,0,28.3c0,6.9,5.6,12.4,12.4,12.4
				s12.4-5.6,12.4-12.4C236.1,401.6,236.1,374,236.1,373.7z"/>
			<path class="st8" d="M309.7,344.5c0-6.9-5.6-12.4-12.4-12.4c-6.9,0-12.4,5.6-12.4,12.4c0,0.3,0,57.1,0,57.4
				c0,6.9,5.6,12.4,12.4,12.4c6.9,0,12.4-5.6,12.4-12.4C309.7,401.6,309.7,344.9,309.7,344.5z"/>
			<path class="st9" d="M383.2,315.4c0-6.9-5.6-12.4-12.4-12.4c-6.9,0-12.4,5.6-12.4,12.4c0,0.3,0,86.3,0,86.6
				c0,6.9,5.6,12.4,12.4,12.4c6.9,0,12.4-5.6,12.4-12.4C383.2,401.6,383.2,315.8,383.2,315.4z"/>
			<path class="st6" d="M456.8,344.5c0-6.9-5.6-12.4-12.4-12.4c-6.9,0-12.4,5.6-12.4,12.4c0,0.3,0,57.1,0,57.4
				c0,6.9,5.6,12.4,12.4,12.4c6.9,0,12.4-5.6,12.4-12.4C456.8,401.6,456.8,344.9,456.8,344.5z"/>
			<path class="st6" d="M530.4,373.7c0-6.9-5.6-12.4-12.4-12.4c-6.9,0-12.4,5.6-12.4,12.4c0,0.3,0,28,0,28.3
				c0,6.9,5.6,12.4,12.4,12.4c6.9,0,12.4-5.6,12.4-12.4C530.4,401.6,530.4,374,530.4,373.7z"/>
			<path class="st9" d="M603.9,373.7c0-6.9-5.6-12.4-12.4-12.4c-6.9,0-12.4,5.6-12.4,12.4c0,0.3,0,28,0,28.3
				c0,6.9,5.6,12.4,12.4,12.4c6.9,0,12.4-5.6,12.4-12.4C603.9,401.6,603.9,374,603.9,373.7z"/>
			<path class="st8" d="M677.5,344.5c0-6.9-5.6-12.4-12.4-12.4c-6.9,0-12.4,5.6-12.4,12.4c0,0.3,0,57.1,0,57.4
				c0,6.9,5.6,12.4,12.4,12.4c6.9,0,12.4-5.6,12.4-12.4C677.5,401.6,677.5,344.9,677.5,344.5z"/>
			<path class="st7" d="M751.1,315.4c0-6.9-5.6-12.4-12.4-12.4s-12.4,5.6-12.4,12.4c0,0.3,0,86.3,0,86.6c0,6.9,5.6,12.4,12.4,12.4
				s12.4-5.6,12.4-12.4C751.1,401.6,751.1,315.8,751.1,315.4z"/>
			<path class="st7" d="M824.6,344.5c0-6.9-5.6-12.4-12.4-12.4s-12.4,5.6-12.4,12.4c0,0.3,0,57.1,0,57.4c0,6.9,5.6,12.4,12.4,12.4
				s12.4-5.6,12.4-12.4C824.6,401.6,824.6,344.9,824.6,344.5z"/>
			<path class="st6" d="M898.2,373.7c0-6.9-5.6-12.4-12.4-12.4s-12.4,5.6-12.4,12.4c0,0.3,0,28,0,28.3c0,6.9,5.6,12.4,12.4,12.4
				s12.4-5.6,12.4-12.4C898.2,401.6,898.2,374,898.2,373.7z"/>
		</g>
		<path class="st9" d="M972.5,373.7c0-6.9-5.6-12.4-12.4-12.4c-6.9,0-12.4,5.6-12.4,12.4c0,0.3,0,28,0,28.3
			c0,6.9,5.6,12.4,12.4,12.4c6.9,0,12.4-5.6,12.4-12.4C972.5,401.6,972.5,374,972.5,373.7z"/>
		<path class="st8" d="M1046.1,344.5c0-6.9-5.6-12.4-12.4-12.4c-6.9,0-12.4,5.6-12.4,12.4c0,0.3,0,57.1,0,57.4
			c0,6.9,5.6,12.4,12.4,12.4c6.9,0,12.4-5.6,12.4-12.4C1046.1,401.6,1046.1,344.9,1046.1,344.5z"/>
		<path class="st6" d="M1119.6,315.4c0-6.9-5.6-12.4-12.4-12.4c-6.9,0-12.4,5.6-12.4,12.4c0,0.3,0,86.3,0,86.6
			c0,6.9,5.6,12.4,12.4,12.4c6.9,0,12.4-5.6,12.4-12.4C1119.6,401.6,1119.6,315.8,1119.6,315.4z"/>
		<path class="st9" d="M1193.2,344.5c0-6.9-5.6-12.4-12.4-12.4c-6.9,0-12.4,5.6-12.4,12.4c0,0.3,0,57.1,0,57.4
			c0,6.9,5.6,12.4,12.4,12.4c6.9,0,12.4-5.6,12.4-12.4C1193.2,401.6,1193.2,344.9,1193.2,344.5z"/>
		<path class="st7" d="M1266.8,373.7c0-6.9-5.6-12.4-12.4-12.4s-12.4,5.6-12.4,12.4c0,0.3,0,28,0,28.3c0,6.9,5.6,12.4,12.4,12.4
			s12.4-5.6,12.4-12.4C1266.8,401.6,1266.8,374,1266.8,373.7z"/>
		<g>
			
				<linearGradient id="SVGID_16_" gradientUnits="userSpaceOnUse" x1="398.3407" y1="1102.3" x2="400.477" y2="1102.3" gradientTransform="matrix(1 0 0 -1 0 1348)">
				<stop  offset="0" style="stop-color:#000000;stop-opacity:0.2"/>
				<stop  offset="0.1045" style="stop-color:#1D1D1B;stop-opacity:0.2"/>
				<stop  offset="0.6774" style="stop-color:#000000;stop-opacity:0"/>
			</linearGradient>
			<path class="st27" d="M400.5,246v-0.6h-2.1C399.1,245.6,399.8,245.8,400.5,246z"/>
			
				<linearGradient id="SVGID_17_" gradientUnits="userSpaceOnUse" x1="211.2442" y1="960.15" x2="236.0933" y2="960.15" gradientTransform="matrix(1 0 0 -1 0 1348)">
				<stop  offset="0" style="stop-color:#000000;stop-opacity:0.2"/>
				<stop  offset="0.1045" style="stop-color:#1D1D1B;stop-opacity:0.2"/>
				<stop  offset="0.6774" style="stop-color:#000000;stop-opacity:0"/>
			</linearGradient>
			<path class="st28" d="M236.1,373.7c0-6.9-5.6-12.4-12.4-12.4s-12.4,5.6-12.4,12.4c0,0.3,0,28,0,28.3c0,6.9,5.6,12.4,12.4,12.4
				s12.4-5.6,12.4-12.4C236.1,401.6,236.1,374,236.1,373.7z"/>
			
				<linearGradient id="SVGID_18_" gradientUnits="userSpaceOnUse" x1="284.8106" y1="974.8" x2="309.6597" y2="974.8" gradientTransform="matrix(1 0 0 -1 0 1348)">
				<stop  offset="0" style="stop-color:#000000;stop-opacity:0.2"/>
				<stop  offset="0.1045" style="stop-color:#1D1D1B;stop-opacity:0.2"/>
				<stop  offset="0.6774" style="stop-color:#000000;stop-opacity:0"/>
			</linearGradient>
			<path class="st29" d="M309.7,344.5c0-6.9-5.6-12.4-12.4-12.4c-6.9,0-12.4,5.6-12.4,12.4c0,0.3,0,57.1,0,57.4
				c0,6.9,5.6,12.4,12.4,12.4c6.9,0,12.4-5.6,12.4-12.4C309.7,401.6,309.7,344.9,309.7,344.5z"/>
			
				<linearGradient id="SVGID_19_" gradientUnits="userSpaceOnUse" x1="358.4" y1="989.3" x2="383.2491" y2="989.3" gradientTransform="matrix(1 0 0 -1 0 1348)">
				<stop  offset="0" style="stop-color:#000000;stop-opacity:0.2"/>
				<stop  offset="0.1045" style="stop-color:#1D1D1B;stop-opacity:0.2"/>
				<stop  offset="0.6774" style="stop-color:#000000;stop-opacity:0"/>
			</linearGradient>
			<path class="st30" d="M383.2,315.4c0-6.9-5.6-12.4-12.4-12.4c-6.9,0-12.4,5.6-12.4,12.4c0,0.3,0,86.3,0,86.6
				c0,6.9,5.6,12.4,12.4,12.4c6.9,0,12.4-5.6,12.4-12.4C383.2,401.6,383.2,315.8,383.2,315.4z"/>
			
				<linearGradient id="SVGID_20_" gradientUnits="userSpaceOnUse" x1="431.9434" y1="974.8" x2="456.7925" y2="974.8" gradientTransform="matrix(1 0 0 -1 0 1348)">
				<stop  offset="0" style="stop-color:#000000;stop-opacity:0.2"/>
				<stop  offset="0.1045" style="stop-color:#1D1D1B;stop-opacity:0.2"/>
				<stop  offset="0.6774" style="stop-color:#000000;stop-opacity:0"/>
			</linearGradient>
			<path class="st31" d="M456.8,344.5c0-6.9-5.6-12.4-12.4-12.4c-6.9,0-12.4,5.6-12.4,12.4c0,0.3,0,57.1,0,57.4
				c0,6.9,5.6,12.4,12.4,12.4c6.9,0,12.4-5.6,12.4-12.4C456.8,401.6,456.8,344.9,456.8,344.5z"/>
			
				<linearGradient id="SVGID_21_" gradientUnits="userSpaceOnUse" x1="505.5098" y1="960.15" x2="530.3589" y2="960.15" gradientTransform="matrix(1 0 0 -1 0 1348)">
				<stop  offset="0" style="stop-color:#000000;stop-opacity:0.2"/>
				<stop  offset="0.1045" style="stop-color:#1D1D1B;stop-opacity:0.2"/>
				<stop  offset="0.6774" style="stop-color:#000000;stop-opacity:0"/>
			</linearGradient>
			<path class="st32" d="M530.4,373.7c0-6.9-5.6-12.4-12.4-12.4c-6.9,0-12.4,5.6-12.4,12.4c0,0.3,0,28,0,28.3
				c0,6.9,5.6,12.4,12.4,12.4c6.9,0,12.4-5.6,12.4-12.4C530.4,401.6,530.4,374,530.4,373.7z"/>
			
				<linearGradient id="SVGID_22_" gradientUnits="userSpaceOnUse" x1="579.1" y1="960.15" x2="603.9491" y2="960.15" gradientTransform="matrix(1 0 0 -1 0 1348)">
				<stop  offset="0" style="stop-color:#000000;stop-opacity:0.2"/>
				<stop  offset="0.1045" style="stop-color:#1D1D1B;stop-opacity:0.2"/>
				<stop  offset="0.6774" style="stop-color:#000000;stop-opacity:0"/>
			</linearGradient>
			<path class="st33" d="M603.9,373.7c0-6.9-5.6-12.4-12.4-12.4c-6.9,0-12.4,5.6-12.4,12.4c0,0.3,0,28,0,28.3
				c0,6.9,5.6,12.4,12.4,12.4c6.9,0,12.4-5.6,12.4-12.4C603.9,401.6,603.9,374,603.9,373.7z"/>
			
				<linearGradient id="SVGID_23_" gradientUnits="userSpaceOnUse" x1="652.6426" y1="974.8" x2="677.4917" y2="974.8" gradientTransform="matrix(1 0 0 -1 0 1348)">
				<stop  offset="0" style="stop-color:#000000;stop-opacity:0.2"/>
				<stop  offset="0.1045" style="stop-color:#1D1D1B;stop-opacity:0.2"/>
				<stop  offset="0.6774" style="stop-color:#000000;stop-opacity:0"/>
			</linearGradient>
			<path class="st34" d="M677.5,344.5c0-6.9-5.6-12.4-12.4-12.4c-6.9,0-12.4,5.6-12.4,12.4c0,0.3,0,57.1,0,57.4
				c0,6.9,5.6,12.4,12.4,12.4c6.9,0,12.4-5.6,12.4-12.4C677.5,401.6,677.5,344.9,677.5,344.5z"/>
			
				<linearGradient id="SVGID_24_" gradientUnits="userSpaceOnUse" x1="726.209" y1="989.3" x2="751.0581" y2="989.3" gradientTransform="matrix(1 0 0 -1 0 1348)">
				<stop  offset="0" style="stop-color:#000000;stop-opacity:0.2"/>
				<stop  offset="0.1045" style="stop-color:#1D1D1B;stop-opacity:0.2"/>
				<stop  offset="0.6774" style="stop-color:#000000;stop-opacity:0"/>
			</linearGradient>
			<path class="st35" d="M751.1,315.4c0-6.9-5.6-12.4-12.4-12.4s-12.4,5.6-12.4,12.4c0,0.3,0,86.3,0,86.6c0,6.9,5.6,12.4,12.4,12.4
				s12.4-5.6,12.4-12.4C751.1,401.6,751.1,315.8,751.1,315.4z"/>
			
				<linearGradient id="SVGID_25_" gradientUnits="userSpaceOnUse" x1="799.7999" y1="974.8" x2="824.649" y2="974.8" gradientTransform="matrix(1 0 0 -1 0 1348)">
				<stop  offset="0" style="stop-color:#000000;stop-opacity:0.2"/>
				<stop  offset="0.1045" style="stop-color:#1D1D1B;stop-opacity:0.2"/>
				<stop  offset="0.6774" style="stop-color:#000000;stop-opacity:0"/>
			</linearGradient>
			<path class="st36" d="M824.6,344.5c0-6.9-5.6-12.4-12.4-12.4s-12.4,5.6-12.4,12.4c0,0.3,0,57.1,0,57.4c0,6.9,5.6,12.4,12.4,12.4
				s12.4-5.6,12.4-12.4C824.6,401.6,824.6,344.9,824.6,344.5z"/>
			
				<linearGradient id="SVGID_26_" gradientUnits="userSpaceOnUse" x1="873.3418" y1="960.15" x2="898.1909" y2="960.15" gradientTransform="matrix(1 0 0 -1 0 1348)">
				<stop  offset="0" style="stop-color:#000000;stop-opacity:0.2"/>
				<stop  offset="0.1045" style="stop-color:#1D1D1B;stop-opacity:0.2"/>
				<stop  offset="0.6774" style="stop-color:#000000;stop-opacity:0"/>
			</linearGradient>
			<path class="st37" d="M898.2,373.7c0-6.9-5.6-12.4-12.4-12.4s-12.4,5.6-12.4,12.4c0,0.3,0,28,0,28.3c0,6.9,5.6,12.4,12.4,12.4
				s12.4-5.6,12.4-12.4C898.2,401.6,898.2,374,898.2,373.7z"/>
		</g>
		
			<linearGradient id="SVGID_27_" gradientUnits="userSpaceOnUse" x1="947.6491" y1="960.15" x2="972.4982" y2="960.15" gradientTransform="matrix(1 0 0 -1 0 1348)">
			<stop  offset="0" style="stop-color:#000000;stop-opacity:0.2"/>
			<stop  offset="0.1045" style="stop-color:#1D1D1B;stop-opacity:0.2"/>
			<stop  offset="0.6774" style="stop-color:#000000;stop-opacity:0"/>
		</linearGradient>
		<path class="st38" d="M972.5,373.7c0-6.9-5.6-12.4-12.4-12.4c-6.9,0-12.4,5.6-12.4,12.4c0,0.3,0,28,0,28.3
			c0,6.9,5.6,12.4,12.4,12.4c6.9,0,12.4-5.6,12.4-12.4C972.5,401.6,972.5,374,972.5,373.7z"/>
		
			<linearGradient id="SVGID_28_" gradientUnits="userSpaceOnUse" x1="1021.2155" y1="974.8" x2="1046.0646" y2="974.8" gradientTransform="matrix(1 0 0 -1 0 1348)">
			<stop  offset="0" style="stop-color:#000000;stop-opacity:0.2"/>
			<stop  offset="0.1045" style="stop-color:#1D1D1B;stop-opacity:0.2"/>
			<stop  offset="0.6774" style="stop-color:#000000;stop-opacity:0"/>
		</linearGradient>
		<path class="st39" d="M1046.1,344.5c0-6.9-5.6-12.4-12.4-12.4c-6.9,0-12.4,5.6-12.4,12.4c0,0.3,0,57.1,0,57.4
			c0,6.9,5.6,12.4,12.4,12.4c6.9,0,12.4-5.6,12.4-12.4C1046.1,401.6,1046.1,344.9,1046.1,344.5z"/>
		
			<linearGradient id="SVGID_29_" gradientUnits="userSpaceOnUse" x1="1094.7999" y1="989.3" x2="1119.649" y2="989.3" gradientTransform="matrix(1 0 0 -1 0 1348)">
			<stop  offset="0" style="stop-color:#000000;stop-opacity:0.2"/>
			<stop  offset="0.1045" style="stop-color:#1D1D1B;stop-opacity:0.2"/>
			<stop  offset="0.6774" style="stop-color:#000000;stop-opacity:0"/>
		</linearGradient>
		<path class="st40" d="M1119.6,315.4c0-6.9-5.6-12.4-12.4-12.4c-6.9,0-12.4,5.6-12.4,12.4c0,0.3,0,86.3,0,86.6
			c0,6.9,5.6,12.4,12.4,12.4c6.9,0,12.4-5.6,12.4-12.4C1119.6,401.6,1119.6,315.8,1119.6,315.4z"/>
		
			<linearGradient id="SVGID_30_" gradientUnits="userSpaceOnUse" x1="1168.3483" y1="974.8" x2="1193.1974" y2="974.8" gradientTransform="matrix(1 0 0 -1 0 1348)">
			<stop  offset="0" style="stop-color:#000000;stop-opacity:0.2"/>
			<stop  offset="0.1045" style="stop-color:#1D1D1B;stop-opacity:0.2"/>
			<stop  offset="0.6774" style="stop-color:#000000;stop-opacity:0"/>
		</linearGradient>
		<path class="st41" d="M1193.2,344.5c0-6.9-5.6-12.4-12.4-12.4c-6.9,0-12.4,5.6-12.4,12.4c0,0.3,0,57.1,0,57.4
			c0,6.9,5.6,12.4,12.4,12.4c6.9,0,12.4-5.6,12.4-12.4C1193.2,401.6,1193.2,344.9,1193.2,344.5z"/>
		
			<linearGradient id="SVGID_31_" gradientUnits="userSpaceOnUse" x1="1241.9147" y1="960.15" x2="1266.7638" y2="960.15" gradientTransform="matrix(1 0 0 -1 0 1348)">
			<stop  offset="0" style="stop-color:#000000;stop-opacity:0.2"/>
			<stop  offset="0.1045" style="stop-color:#1D1D1B;stop-opacity:0.2"/>
			<stop  offset="0.6774" style="stop-color:#000000;stop-opacity:0"/>
		</linearGradient>
		<path class="st42" d="M1266.8,373.7c0-6.9-5.6-12.4-12.4-12.4s-12.4,5.6-12.4,12.4c0,0.3,0,28,0,28.3c0,6.9,5.6,12.4,12.4,12.4
			s12.4-5.6,12.4-12.4C1266.8,401.6,1266.8,374,1266.8,373.7z"/>
		<g>
			<path class="st43" d="M230.6,400.1c-0.6,0.3-2.2,0.7-4.1,0.7c-6.4,0-9.1-4.3-9.1-9.2c0-6.6,4.5-9.8,9.5-9.8c1.9,0,3.4,0.4,4,0.7
				l-0.8,3.8c-0.7-0.3-1.6-0.6-2.9-0.6c-2.6,0-4.8,1.7-4.8,5.6c0,3.5,1.9,5.5,4.9,5.5c1,0,2.1-0.2,2.8-0.4L230.6,400.1z"/>
			<path class="st43" d="M303.6,376.8c-0.6,0.3-2.2,0.7-4.1,0.7c-6.4,0-9.1-4.3-9.1-9.2c0-6.6,4.5-9.8,9.5-9.8c1.9,0,3.4,0.4,4,0.7
				l-0.8,3.8c-0.7-0.3-1.6-0.6-2.9-0.6c-2.6,0-4.8,1.7-4.8,5.6c0,3.5,1.9,5.5,4.9,5.5c1,0,2.1-0.2,2.8-0.4L303.6,376.8z"/>
			<path class="st43" d="M369.6,327.9h-4.2v-4.1h13.3v4.1h-4.3v14.4h-4.7L369.6,327.9L369.6,327.9z"/>
			<path class="st43" d="M450.5,376.5c-1.2,0.4-3.6,0.9-5.7,0.9c-3.3,0-5.5-0.8-7-2.3c-1.7-1.6-2.6-4.2-2.6-7
				c0.1-6.5,4.5-9.6,10-9.6c2.2,0,3.9,0.4,4.7,0.8l-0.9,3.9c-0.9-0.4-2-0.7-3.7-0.7c-2.9,0-5.2,1.6-5.2,5.6c0,3.6,2,5.4,4.6,5.4
				c0.5,0,1-0.1,1.2-0.1V370h-2.1v-3.7h6.6v10.2H450.5z"/>
			<path class="st43" d="M526.1,399.8c-1.2,0.4-3.6,0.9-5.7,0.9c-3.3,0-5.5-0.8-7-2.3c-1.7-1.6-2.6-4.2-2.6-7
				c0.1-6.5,4.5-9.6,10-9.6c2.2,0,3.9,0.4,4.7,0.8l-0.9,3.9c-0.9-0.4-2-0.7-3.7-0.7c-2.9,0-5.2,1.6-5.2,5.6c0,3.6,2,5.4,4.6,5.4
				c0.5,0,1-0.1,1.2-0.1v-3.4h-2.1v-3.7h6.6v10.2H526.1z"/>
			<path class="st43" d="M589.6,386.1h-4.2V382h13.3v4.1h-4.3v14.4h-4.7L589.6,386.1L589.6,386.1z"/>
			<path class="st43" d="M671.4,376.8c-0.6,0.3-2.2,0.7-4.1,0.7c-6.4,0-9.1-4.3-9.1-9.2c0-6.6,4.5-9.8,9.5-9.8c1.9,0,3.4,0.4,4,0.7
				l-0.8,3.8c-0.7-0.3-1.6-0.6-2.9-0.6c-2.6,0-4.8,1.7-4.8,5.6c0,3.5,1.9,5.5,4.9,5.5c1,0,2.1-0.2,2.8-0.4L671.4,376.8z"/>
			<path class="st43" d="M736.4,338.2l-0.9,4.1h-4.8l4.9-18.5h6.1l4.9,18.5h-5l-1-4.1H736.4z M740.1,334.6l-0.7-3.4
				c-0.2-1-0.5-2.7-0.8-3.8h-0.1c-0.3,1.1-0.5,2.8-0.8,3.8l-0.7,3.4H740.1z"/>
			<path class="st43" d="M811.4,373.1l-0.9,4.1h-4.8l4.9-18.5h6.1l4.9,18.5h-5l-1-4.1H811.4z M815.1,369.6l-0.7-3.4
				c-0.2-1-0.5-2.7-0.8-3.8h-0.1c-0.3,1.1-0.5,2.8-0.8,3.8l-0.7,3.4H815.1z"/>
			<path class="st43" d="M893.6,399.8c-1.2,0.4-3.6,0.9-5.7,0.9c-3.3,0-5.5-0.8-7-2.3c-1.7-1.6-2.6-4.2-2.6-7
				c0.1-6.5,4.5-9.6,10-9.6c2.2,0,3.9,0.4,4.7,0.8l-0.9,3.9c-0.9-0.4-2-0.7-3.7-0.7c-2.9,0-5.2,1.6-5.2,5.6c0,3.6,2,5.4,4.6,5.4
				c0.5,0,1-0.1,1.2-0.1v-3.4h-2v-3.7h6.6V399.8z"/>
			<path class="st43" d="M957.1,386.1h-4.2V382h13.3v4.1h-4.3v14.4h-4.7L957.1,386.1L957.1,386.1z"/>
			<path class="st43" d="M1039,376.8c-0.6,0.3-2.2,0.7-4.1,0.7c-6.4,0-9.1-4.3-9.1-9.2c0-6.6,4.5-9.8,9.5-9.8c1.9,0,3.4,0.4,4,0.7
				l-0.8,3.8c-0.7-0.3-1.6-0.6-2.9-0.6c-2.6,0-4.8,1.7-4.8,5.6c0,3.5,1.9,5.5,4.9,5.5c1,0,2.1-0.2,2.8-0.4L1039,376.8z"/>
			<path class="st43" d="M1114,341.5c-1.2,0.4-3.6,0.9-5.7,0.9c-3.3,0-5.5-0.8-7-2.3c-1.7-1.6-2.6-4.2-2.6-7c0.1-6.5,4.5-9.6,10-9.6
				c2.2,0,3.9,0.4,4.7,0.8l-0.9,3.9c-0.9-0.4-2-0.7-3.7-0.7c-2.9,0-5.2,1.6-5.2,5.6c0,3.6,2,5.4,4.6,5.4c0.5,0,1-0.1,1.2-0.1V335
				h-2.1v-3.7h6.6L1114,341.5L1114,341.5z"/>
			<path class="st43" d="M1177.9,362.8h-4.2v-4.1h13.3v4.1h-4.3v14.4h-4.7v-14.4H1177.9z"/>
			<path class="st43" d="M1252.8,396.4l-0.9,4.1h-4.8l4.9-18.5h6.1l4.9,18.5h-5l-1-4.1H1252.8z M1256.5,392.9l-0.7-3.4
				c-0.2-1-0.5-2.7-0.8-3.8h-0.1c-0.3,1.1-0.5,2.8-0.8,3.8l-0.7,3.4H1256.5z"/>
		</g>
		
			<ellipse transform="matrix(3.327796e-02 -0.9994 0.9994 3.327796e-02 -546.3998 770.9043)" class="st5" cx="125.3" cy="667.9" rx="19.9" ry="19.9"/>
		<circle class="st5" cx="1355.5" cy="756.6" r="19.7"/>
		<g>
			<path class="st44" d="M360.5,752.4v0.6h-2.1C359.1,752.8,359.8,752.6,360.5,752.4z"/>
		</g>
		<g>
			<path class="st26" d="M400.5,514v-0.6h-2.1C399.1,513.6,399.8,513.8,400.5,514z"/>
		</g>
		<g>
			
				<linearGradient id="SVGID_32_" gradientUnits="userSpaceOnUse" x1="398.3407" y1="834.3" x2="400.477" y2="834.3" gradientTransform="matrix(1 0 0 -1 0 1348)">
				<stop  offset="0" style="stop-color:#000000;stop-opacity:0.2"/>
				<stop  offset="0.1045" style="stop-color:#1D1D1B;stop-opacity:0.2"/>
				<stop  offset="0.6774" style="stop-color:#000000;stop-opacity:0"/>
			</linearGradient>
			<path class="st45" d="M400.5,514v-0.6h-2.1C399.1,513.6,399.8,513.8,400.5,514z"/>
		</g>
		<g>
			<path class="st43" d="M231.4,437.6c-1.2,0.4-3.6,0.9-5.7,0.9c-3.3,0-5.5-0.8-7-2.3c-1.7-1.6-2.6-4.2-2.6-7
				c0.1-6.5,4.5-9.6,10-9.6c2.2,0,3.9,0.4,4.7,0.8l-0.9,3.9c-0.9-0.4-2-0.7-3.7-0.7c-2.9,0-5.2,1.6-5.2,5.6c0,3.6,2,5.4,4.6,5.4
				c0.5,0,1-0.1,1.2-0.1v-3.4h-2.1v-3.7h6.6L231.4,437.6L231.4,437.6z"/>
			<path class="st43" d="M306.7,449.3c-1.2,0.4-3.6,0.9-5.7,0.9c-3.3,0-5.5-0.8-7-2.3c-1.7-1.6-2.6-4.2-2.6-7
				c0.1-6.5,4.5-9.6,10-9.6c2.2,0,3.9,0.4,4.7,0.8l-0.9,3.9c-0.9-0.4-2-0.7-3.7-0.7c-2.9,0-5.2,1.6-5.2,5.6c0,3.6,2,5.4,4.6,5.4
				c0.5,0,1-0.1,1.2-0.1v-3.4H300v-3.7h6.6v10.2H306.7z"/>
			<path class="st43" d="M369.9,475.1l-0.9,4.1h-4.8l4.9-18.5h6.1l4.9,18.5h-5l-1-4.1H369.9z M373.5,471.6l-0.7-3.4
				c-0.2-1-0.5-2.7-0.8-3.8h-0.1c-0.3,1.1-0.5,2.8-0.8,3.8l-0.7,3.4H373.5z"/>
			<path class="st43" d="M451.8,449.6c-0.6,0.3-2.2,0.7-4.1,0.7c-6.4,0-9.1-4.3-9.1-9.2c0-6.6,4.5-9.8,9.5-9.8c1.9,0,3.4,0.4,4,0.7
				l-0.8,3.8c-0.7-0.3-1.6-0.6-2.9-0.6c-2.6,0-4.8,1.7-4.8,5.6c0,3.5,1.9,5.5,4.9,5.5c1,0,2.1-0.2,2.8-0.4L451.8,449.6z"/>
			<path class="st43" d="M525.2,438c-0.6,0.3-2.2,0.7-4.1,0.7c-6.4,0-9.1-4.3-9.1-9.2c0-6.6,4.5-9.8,9.5-9.8c1.9,0,3.4,0.4,4,0.7
				l-0.8,3.8c-0.7-0.3-1.6-0.6-2.9-0.6c-2.6,0-4.8,1.7-4.8,5.6c0,3.5,1.9,5.5,4.9,5.5c1,0,2.1-0.2,2.8-0.4L525.2,438z"/>
			<path class="st43" d="M589.3,434.3l-0.9,4.1h-4.8l4.9-18.5h6.1l4.9,18.5h-5l-1-4.1H589.3z M593,430.8l-0.7-3.4
				c-0.2-1-0.5-2.7-0.8-3.8h-0.1c-0.3,1.1-0.5,2.8-0.8,3.8l-0.7,3.4H593z"/>
			<path class="st43" d="M674.1,449.3c-1.2,0.4-3.6,0.9-5.7,0.9c-3.3,0-5.5-0.8-7-2.3c-1.7-1.6-2.6-4.2-2.6-7
				c0.1-6.5,4.5-9.6,10-9.6c2.2,0,3.9,0.4,4.7,0.8l-0.9,3.9c-0.9-0.4-2-0.7-3.7-0.7c-2.9,0-5.2,1.6-5.2,5.6c0,3.6,2,5.4,4.6,5.4
				c0.5,0,1-0.1,1.2-0.1v-3.4h-2.1v-3.7h6.6v10.2H674.1z"/>
			<path class="st43" d="M737.4,464.8h-4.2v-4.1h13.3v4.1h-4.3v14.4h-4.7L737.4,464.8L737.4,464.8z"/>
			<path class="st43" d="M811.8,435.7h-4.2v-4.1h13.3v4.1h-4.3V450h-4.7L811.8,435.7L811.8,435.7z"/>
			<path class="st43" d="M893.4,438c-0.6,0.3-2.2,0.7-4.1,0.7c-6.4,0-9.1-4.3-9.1-9.2c0-6.6,4.5-9.8,9.5-9.8c1.9,0,3.4,0.4,4,0.7
				l-0.8,3.8c-0.7-0.3-1.6-0.6-2.9-0.6c-2.6,0-4.8,1.7-4.8,5.6c0,3.5,1.9,5.5,4.9,5.5c1,0,2.1-0.2,2.8-0.4L893.4,438z"/>
			<path class="st43" d="M958.1,434.3l-0.9,4.1h-4.8l4.9-18.5h6.1l4.9,18.5h-5l-1-4.1H958.1z M961.8,430.8l-0.7-3.4
				c-0.2-1-0.5-2.7-0.8-3.8h-0.1c-0.3,1.1-0.5,2.8-0.8,3.8l-0.7,3.4H961.8z"/>
			<path class="st43" d="M1041.1,449.3c-1.2,0.4-3.6,0.9-5.7,0.9c-3.3,0-5.5-0.8-7-2.3c-1.7-1.6-2.6-4.2-2.6-7
				c0.1-6.5,4.5-9.6,10-9.6c2.2,0,3.9,0.4,4.7,0.8l-0.9,3.9c-0.9-0.4-2-0.7-3.7-0.7c-2.9,0-5.2,1.6-5.2,5.6c0,3.6,2,5.4,4.6,5.4
				c0.5,0,1-0.1,1.2-0.1v-3.4h-2.1v-3.7h6.6L1041.1,449.3L1041.1,449.3z"/>
			<path class="st43" d="M1113.3,478.8c-0.6,0.3-2.2,0.7-4.1,0.7c-6.4,0-9.1-4.3-9.1-9.2c0-6.6,4.5-9.8,9.5-9.8c1.9,0,3.4,0.4,4,0.7
				l-0.8,3.8c-0.7-0.3-1.6-0.6-2.9-0.6c-2.6,0-4.8,1.7-4.8,5.6c0,3.5,1.9,5.5,4.9,5.5c1,0,2.1-0.2,2.8-0.4L1113.3,478.8z"/>
			<path class="st43" d="M1178.3,446l-0.9,4.1h-4.8l4.9-18.5h6.1l4.9,18.5h-5l-1-4.1H1178.3z M1182,442.4l-0.7-3.4
				c-0.2-1-0.5-2.7-0.8-3.8h-0.1c-0.3,1.1-0.5,2.8-0.8,3.8l-0.7,3.4H1182z"/>
			<path class="st43" d="M1252.2,424h-4.2v-4.1h13.3v4.1h-4.3v14.4h-4.7V424H1252.2z"/>
		</g>
		<path class="st8" d="M309.7,628c0-6.9-5.6-12.4-12.4-12.4c-6.9,0-12.4,5.6-12.4,12.4c0,0.3,0,57.1,0,57.4
			c0,6.9,5.6,12.4,12.4,12.4c6.9,0,12.4-5.6,12.4-12.4C309.7,685.1,309.7,628.3,309.7,628z"/>
		<path class="st6" d="M456.8,622.1c0-6.9-5.6-12.4-12.4-12.4c-6.9,0-12.4,5.6-12.4,12.4c0,0.3,0,57.1,0,57.4
			c0,6.9,5.6,12.4,12.4,12.4c6.9,0,12.4-5.6,12.4-12.4C456.8,679.2,456.8,622.5,456.8,622.1z"/>
		<path class="st8" d="M677.5,668.8c0-6.9-5.6-12.4-12.4-12.4c-6.9,0-12.4,5.6-12.4,12.4c0,0.3,0,57.1,0,57.4
			c0,6.9,5.6,12.4,12.4,12.4c6.9,0,12.4-5.6,12.4-12.4C677.5,725.8,677.5,669.1,677.5,668.8z"/>
		<path class="st7" d="M824.6,724.1c0-6.9-5.6-12.4-12.4-12.4s-12.4,5.6-12.4,12.4c0,0.3,0,57.1,0,57.4c0,6.9,5.6,12.4,12.4,12.4
			s12.4-5.6,12.4-12.4C824.6,781.2,824.6,724.5,824.6,724.1z"/>
		<path class="st8" d="M1046.1,782.4c0-6.9-5.6-12.4-12.4-12.4c-6.9,0-12.4,5.6-12.4,12.4c0,0.3,0,57.1,0,57.4
			c0,6.9,5.6,12.4,12.4,12.4c6.9,0,12.4-5.6,12.4-12.4C1046.1,839.4,1046.1,782.7,1046.1,782.4z"/>
		<path class="st46" d="M1193.2,791.1c0-6.9-5.6-12.4-12.4-12.4c-6.9,0-12.4,5.6-12.4,12.4c0,0.3,0,57.1,0,57.4
			c0,6.9,5.6,12.4,12.4,12.4c6.9,0,12.4-5.6,12.4-12.4C1193.2,848.2,1193.2,791.5,1193.2,791.1z"/>
		
			<linearGradient id="SVGID_33_" gradientUnits="userSpaceOnUse" x1="284.8106" y1="691.3" x2="309.6597" y2="691.3" gradientTransform="matrix(1 0 0 -1 0 1348)">
			<stop  offset="0" style="stop-color:#000000;stop-opacity:0.2"/>
			<stop  offset="0.1045" style="stop-color:#1D1D1B;stop-opacity:0.2"/>
			<stop  offset="0.6774" style="stop-color:#000000;stop-opacity:0"/>
		</linearGradient>
		<path class="st47" d="M309.7,628c0-6.9-5.6-12.4-12.4-12.4c-6.9,0-12.4,5.6-12.4,12.4c0,0.3,0,57.1,0,57.4
			c0,6.9,5.6,12.4,12.4,12.4c6.9,0,12.4-5.6,12.4-12.4C309.7,685.1,309.7,628.3,309.7,628z"/>
		
			<linearGradient id="SVGID_34_" gradientUnits="userSpaceOnUse" x1="431.9434" y1="697.2" x2="456.7925" y2="697.2" gradientTransform="matrix(1 0 0 -1 0 1348)">
			<stop  offset="0" style="stop-color:#000000;stop-opacity:0.2"/>
			<stop  offset="0.1045" style="stop-color:#1D1D1B;stop-opacity:0.2"/>
			<stop  offset="0.6774" style="stop-color:#000000;stop-opacity:0"/>
		</linearGradient>
		<path class="st48" d="M456.8,622.1c0-6.9-5.6-12.4-12.4-12.4c-6.9,0-12.4,5.6-12.4,12.4c0,0.3,0,57.1,0,57.4
			c0,6.9,5.6,12.4,12.4,12.4c6.9,0,12.4-5.6,12.4-12.4C456.8,679.2,456.8,622.5,456.8,622.1z"/>
		
			<linearGradient id="SVGID_35_" gradientUnits="userSpaceOnUse" x1="652.6426" y1="650.5" x2="677.4917" y2="650.5" gradientTransform="matrix(1 0 0 -1 0 1348)">
			<stop  offset="0" style="stop-color:#000000;stop-opacity:0.2"/>
			<stop  offset="0.1045" style="stop-color:#1D1D1B;stop-opacity:0.2"/>
			<stop  offset="0.6774" style="stop-color:#000000;stop-opacity:0"/>
		</linearGradient>
		<path class="st49" d="M677.5,668.8c0-6.9-5.6-12.4-12.4-12.4c-6.9,0-12.4,5.6-12.4,12.4c0,0.3,0,57.1,0,57.4
			c0,6.9,5.6,12.4,12.4,12.4c6.9,0,12.4-5.6,12.4-12.4C677.5,725.8,677.5,669.1,677.5,668.8z"/>
		
			<linearGradient id="SVGID_36_" gradientUnits="userSpaceOnUse" x1="799.7999" y1="595.2" x2="824.649" y2="595.2" gradientTransform="matrix(1 0 0 -1 0 1348)">
			<stop  offset="0" style="stop-color:#000000;stop-opacity:0.2"/>
			<stop  offset="0.1045" style="stop-color:#1D1D1B;stop-opacity:0.2"/>
			<stop  offset="0.6774" style="stop-color:#000000;stop-opacity:0"/>
		</linearGradient>
		<path class="st50" d="M824.6,724.1c0-6.9-5.6-12.4-12.4-12.4s-12.4,5.6-12.4,12.4c0,0.3,0,57.1,0,57.4c0,6.9,5.6,12.4,12.4,12.4
			s12.4-5.6,12.4-12.4C824.6,781.2,824.6,724.5,824.6,724.1z"/>
		
			<linearGradient id="SVGID_37_" gradientUnits="userSpaceOnUse" x1="1021.2155" y1="536.9" x2="1046.0646" y2="536.9" gradientTransform="matrix(1 0 0 -1 0 1348)">
			<stop  offset="0" style="stop-color:#000000;stop-opacity:0.2"/>
			<stop  offset="0.1045" style="stop-color:#1D1D1B;stop-opacity:0.2"/>
			<stop  offset="0.6774" style="stop-color:#000000;stop-opacity:0"/>
		</linearGradient>
		<path class="st51" d="M1046.1,782.4c0-6.9-5.6-12.4-12.4-12.4c-6.9,0-12.4,5.6-12.4,12.4c0,0.3,0,57.1,0,57.4
			c0,6.9,5.6,12.4,12.4,12.4c6.9,0,12.4-5.6,12.4-12.4C1046.1,839.4,1046.1,782.7,1046.1,782.4z"/>
		<path class="st43" d="M303.6,660.2c-0.6,0.3-2.2,0.7-4.1,0.7c-6.4,0-9.1-4.3-9.1-9.2c0-6.6,4.5-9.8,9.5-9.8c1.9,0,3.4,0.4,4,0.7
			l-0.8,3.8c-0.7-0.3-1.6-0.6-2.9-0.6c-2.6,0-4.8,1.7-4.8,5.6c0,3.5,1.9,5.5,4.9,5.5c1,0,2.1-0.2,2.8-0.4L303.6,660.2z"/>
		<path class="st43" d="M450.5,654.1c-1.2,0.4-3.6,0.9-5.7,0.9c-3.3,0-5.5-0.8-7-2.3c-1.7-1.6-2.6-4.2-2.6-7c0.1-6.5,4.5-9.6,10-9.6
			c2.2,0,3.9,0.4,4.7,0.8l-0.9,3.9c-0.9-0.4-2-0.7-3.7-0.7c-2.9,0-5.2,1.6-5.2,5.6c0,3.6,2,5.4,4.6,5.4c0.5,0,1-0.1,1.2-0.1v-3.4
			h-2.1v-3.7h6.6v10.2H450.5z"/>
		<path class="st43" d="M671.4,701c-0.6,0.3-2.2,0.7-4.1,0.7c-6.4,0-9.1-4.3-9.1-9.2c0-6.6,4.5-9.8,9.5-9.8c1.9,0,3.4,0.4,4,0.7
			l-0.8,3.8c-0.7-0.3-1.6-0.6-2.9-0.6c-2.6,0-4.8,1.7-4.8,5.6c0,3.5,1.9,5.5,4.9,5.5c1,0,2.1-0.2,2.8-0.4L671.4,701z"/>
		<path class="st43" d="M811.4,752.7l-0.9,4.1h-4.8l4.9-18.5h6.1l4.9,18.5h-5l-1-4.1H811.4z M815.1,749.2l-0.7-3.4
			c-0.2-1-0.5-2.7-0.8-3.8h-0.1c-0.3,1.1-0.5,2.8-0.8,3.8l-0.7,3.4H815.1z"/>
		<path class="st43" d="M1039,814.6c-0.6,0.3-2.2,0.7-4.1,0.7c-6.4,0-9.1-4.3-9.1-9.2c0-6.6,4.5-9.8,9.5-9.8c1.9,0,3.4,0.4,4,0.7
			l-0.8,3.8c-0.7-0.3-1.6-0.6-2.9-0.6c-2.6,0-4.8,1.7-4.8,5.6c0,3.5,1.9,5.5,4.9,5.5c1,0,2.1-0.2,2.8-0.4L1039,814.6z"/>
		<path class="st8" d="M236.8,642.5c0-6.9-5.6-12.4-12.4-12.4s-12.4,5.6-12.4,12.4c0,0.3,0,57.1,0,57.4c0,6.9,5.6,12.4,12.4,12.4
			s12.4-5.6,12.4-12.4C236.8,699.6,236.8,642.9,236.8,642.5z"/>
		
			<linearGradient id="SVGID_38_" gradientUnits="userSpaceOnUse" x1="212" y1="676.8" x2="236.8491" y2="676.8" gradientTransform="matrix(1 0 0 -1 0 1348)">
			<stop  offset="0" style="stop-color:#000000;stop-opacity:0.2"/>
			<stop  offset="0.1045" style="stop-color:#1D1D1B;stop-opacity:0.2"/>
			<stop  offset="0.6774" style="stop-color:#000000;stop-opacity:0"/>
		</linearGradient>
		<path class="st52" d="M236.8,642.5c0-6.9-5.6-12.4-12.4-12.4s-12.4,5.6-12.4,12.4c0,0.3,0,57.1,0,57.4c0,6.9,5.6,12.4,12.4,12.4
			s12.4-5.6,12.4-12.4C236.8,699.6,236.8,642.9,236.8,642.5z"/>
		<path class="st43" d="M230.8,674.8c-0.6,0.3-2.2,0.7-4.1,0.7c-6.4,0-9.1-4.3-9.1-9.2c0-6.6,4.5-9.8,9.5-9.8c1.9,0,3.4,0.4,4,0.7
			l-0.8,3.8c-0.7-0.3-1.6-0.6-2.9-0.6c-2.6,0-4.8,1.7-4.8,5.6c0,3.5,1.9,5.5,4.9,5.5c1,0,2.1-0.2,2.8-0.4L230.8,674.8z"/>
		<path class="st6" d="M529.6,628c0-6.9-5.6-12.4-12.4-12.4c-6.9,0-12.4,5.6-12.4,12.4c0,0.3,0,57.1,0,57.4
			c0,6.9,5.6,12.4,12.4,12.4c6.9,0,12.4-5.6,12.4-12.4C529.6,685.1,529.6,628.3,529.6,628z"/>
		
			<linearGradient id="SVGID_39_" gradientUnits="userSpaceOnUse" x1="504.7689" y1="691.3" x2="529.618" y2="691.3" gradientTransform="matrix(1 0 0 -1 0 1348)">
			<stop  offset="0" style="stop-color:#000000;stop-opacity:0.2"/>
			<stop  offset="0.1045" style="stop-color:#1D1D1B;stop-opacity:0.2"/>
			<stop  offset="0.6774" style="stop-color:#000000;stop-opacity:0"/>
		</linearGradient>
		<path class="st53" d="M529.6,628c0-6.9-5.6-12.4-12.4-12.4c-6.9,0-12.4,5.6-12.4,12.4c0,0.3,0,57.1,0,57.4
			c0,6.9,5.6,12.4,12.4,12.4c6.9,0,12.4-5.6,12.4-12.4C529.6,685.1,529.6,628.3,529.6,628z"/>
		<path class="st43" d="M523.3,659.9c-1.2,0.4-3.6,0.9-5.7,0.9c-3.3,0-5.5-0.8-7-2.3c-1.7-1.6-2.6-4.2-2.6-7c0.1-6.5,4.5-9.6,10-9.6
			c2.2,0,3.9,0.4,4.7,0.8l-0.9,3.9c-0.9-0.4-2-0.7-3.7-0.7c-2.9,0-5.2,1.6-5.2,5.6c0,3.6,2,5.4,4.6,5.4c0.5,0,1-0.1,1.2-0.1v-3.4
			h-2.1v-3.7h6.6v10.2H523.3z"/>
		<path class="st46" d="M971.8,767.8c0-6.9-5.6-12.4-12.4-12.4S947,761,947,767.8c0,0.3,0,57.1,0,57.4c0,6.9,5.6,12.4,12.4,12.4
			s12.4-5.6,12.4-12.4C971.8,824.9,971.8,768.2,971.8,767.8z"/>
		<path class="st46" d="M604.8,645.5c0-6.9-5.6-12.4-12.4-12.4c-6.9,0-12.4,5.6-12.4,12.4c0,0.3,0,57.1,0,57.4
			c0,6.9,5.6,12.4,12.4,12.4c6.9,0,12.4-5.6,12.4-12.4C604.8,702.5,604.8,645.8,604.8,645.5z"/>
		<path class="st46" d="M383.4,622.1c0-6.9-5.6-12.4-12.4-12.4c-6.9,0-12.4,5.6-12.4,12.4c0,0.3,0,57.1,0,57.4
			c0,6.9,5.6,12.4,12.4,12.4c6.9,0,12.4-5.6,12.4-12.4C383.4,679.2,383.4,622.5,383.4,622.1z"/>
		
			<linearGradient id="SVGID_40_" gradientUnits="userSpaceOnUse" x1="1168.3483" y1="528.2" x2="1193.1974" y2="528.2" gradientTransform="matrix(1 0 0 -1 0 1348)">
			<stop  offset="0" style="stop-color:#000000;stop-opacity:0.2"/>
			<stop  offset="0.1045" style="stop-color:#1D1D1B;stop-opacity:0.2"/>
			<stop  offset="0.6774" style="stop-color:#000000;stop-opacity:0"/>
		</linearGradient>
		<path class="st54" d="M1193.2,791.1c0-6.9-5.6-12.4-12.4-12.4c-6.9,0-12.4,5.6-12.4,12.4c0,0.3,0,57.1,0,57.4
			c0,6.9,5.6,12.4,12.4,12.4c6.9,0,12.4-5.6,12.4-12.4C1193.2,848.2,1193.2,791.5,1193.2,791.1z"/>
		
			<linearGradient id="SVGID_41_" gradientUnits="userSpaceOnUse" x1="946.9588" y1="551.5" x2="971.8079" y2="551.5" gradientTransform="matrix(1 0 0 -1 0 1348)">
			<stop  offset="0" style="stop-color:#000000;stop-opacity:0.2"/>
			<stop  offset="0.1045" style="stop-color:#1D1D1B;stop-opacity:0.2"/>
			<stop  offset="0.6774" style="stop-color:#000000;stop-opacity:0"/>
		</linearGradient>
		<path class="st55" d="M971.8,767.8c0-6.9-5.6-12.4-12.4-12.4S947,761,947,767.8c0,0.3,0,57.1,0,57.4c0,6.9,5.6,12.4,12.4,12.4
			s12.4-5.6,12.4-12.4C971.8,824.9,971.8,768.2,971.8,767.8z"/>
		
			<linearGradient id="SVGID_42_" gradientUnits="userSpaceOnUse" x1="579.9184" y1="673.8" x2="604.7675" y2="673.8" gradientTransform="matrix(1 0 0 -1 0 1348)">
			<stop  offset="0" style="stop-color:#000000;stop-opacity:0.2"/>
			<stop  offset="0.1045" style="stop-color:#1D1D1B;stop-opacity:0.2"/>
			<stop  offset="0.6774" style="stop-color:#000000;stop-opacity:0"/>
		</linearGradient>
		<path class="st56" d="M604.8,645.5c0-6.9-5.6-12.4-12.4-12.4c-6.9,0-12.4,5.6-12.4,12.4c0,0.3,0,57.1,0,57.4
			c0,6.9,5.6,12.4,12.4,12.4c6.9,0,12.4-5.6,12.4-12.4C604.8,702.5,604.8,645.8,604.8,645.5z"/>
		
			<linearGradient id="SVGID_43_" gradientUnits="userSpaceOnUse" x1="358.5289" y1="697.2" x2="383.378" y2="697.2" gradientTransform="matrix(1 0 0 -1 0 1348)">
			<stop  offset="0" style="stop-color:#000000;stop-opacity:0.2"/>
			<stop  offset="0.1045" style="stop-color:#1D1D1B;stop-opacity:0.2"/>
			<stop  offset="0.6774" style="stop-color:#000000;stop-opacity:0"/>
		</linearGradient>
		<path class="st57" d="M383.4,622.1c0-6.9-5.6-12.4-12.4-12.4c-6.9,0-12.4,5.6-12.4,12.4c0,0.3,0,57.1,0,57.4
			c0,6.9,5.6,12.4,12.4,12.4c6.9,0,12.4-5.6,12.4-12.4C383.4,679.2,383.4,622.5,383.4,622.1z"/>
		<path class="st7" d="M751.8,695c0-6.9-5.6-12.4-12.4-12.4S727,688.2,727,695c0,0.3,0,57.1,0,57.4c0,6.9,5.6,12.4,12.4,12.4
			s12.4-5.6,12.4-12.4C751.8,752.1,751.8,695.3,751.8,695z"/>
		
			<linearGradient id="SVGID_44_" gradientUnits="userSpaceOnUse" x1="726.9499" y1="624.3" x2="751.799" y2="624.3" gradientTransform="matrix(1 0 0 -1 0 1348)">
			<stop  offset="0" style="stop-color:#000000;stop-opacity:0.2"/>
			<stop  offset="0.1045" style="stop-color:#1D1D1B;stop-opacity:0.2"/>
			<stop  offset="0.6774" style="stop-color:#000000;stop-opacity:0"/>
		</linearGradient>
		<path class="st58" d="M751.8,695c0-6.9-5.6-12.4-12.4-12.4S727,688.2,727,695c0,0.3,0,57.1,0,57.4c0,6.9,5.6,12.4,12.4,12.4
			s12.4-5.6,12.4-12.4C751.8,752.1,751.8,695.3,751.8,695z"/>
		<path class="st43" d="M738.6,723.6l-0.9,4.1h-4.8l4.9-18.5h6.1l4.9,18.5h-5l-1-4.1H738.6z M742.3,720l-0.7-3.4
			c-0.2-1-0.5-2.7-0.8-3.8h-0.1c-0.3,1.1-0.5,2.8-0.8,3.8l-0.7,3.4H742.3z"/>
		<path class="st7" d="M1264.5,782.4c0-6.9-5.6-12.4-12.4-12.4c-6.9,0-12.4,5.6-12.4,12.4c0,0.3,0,57.1,0,57.4
			c0,6.9,5.6,12.4,12.4,12.4c6.9,0,12.4-5.6,12.4-12.4C1264.5,839.4,1264.5,782.7,1264.5,782.4z"/>
		
			<linearGradient id="SVGID_45_" gradientUnits="userSpaceOnUse" x1="1239.6414" y1="536.9" x2="1264.4904" y2="536.9" gradientTransform="matrix(1 0 0 -1 0 1348)">
			<stop  offset="0" style="stop-color:#000000;stop-opacity:0.2"/>
			<stop  offset="0.1045" style="stop-color:#1D1D1B;stop-opacity:0.2"/>
			<stop  offset="0.6774" style="stop-color:#000000;stop-opacity:0"/>
		</linearGradient>
		<path class="st59" d="M1264.5,782.4c0-6.9-5.6-12.4-12.4-12.4c-6.9,0-12.4,5.6-12.4,12.4c0,0.3,0,57.1,0,57.4
			c0,6.9,5.6,12.4,12.4,12.4c6.9,0,12.4-5.6,12.4-12.4C1264.5,839.4,1264.5,782.7,1264.5,782.4z"/>
		<path class="st43" d="M1251.3,811l-0.9,4.1h-4.8l4.9-18.5h6.1l4.9,18.5h-5l-1-4.1H1251.3z M1255,807.4l-0.7-3.4
			c-0.2-1-0.5-2.7-0.8-3.8h-0.1c-0.3,1.1-0.5,2.8-0.8,3.8l-0.7,3.4H1255z"/>
		<path class="st6" d="M899.6,747.4c0-6.9-5.6-12.4-12.4-12.4s-12.4,5.6-12.4,12.4c0,0.3,0,57.1,0,57.4c0,6.9,5.6,12.4,12.4,12.4
			s12.4-5.6,12.4-12.4C899.6,804.5,899.6,747.8,899.6,747.4z"/>
		
			<linearGradient id="SVGID_46_" gradientUnits="userSpaceOnUse" x1="874.7224" y1="571.9" x2="899.5715" y2="571.9" gradientTransform="matrix(1 0 0 -1 0 1348)">
			<stop  offset="0" style="stop-color:#000000;stop-opacity:0.2"/>
			<stop  offset="0.1045" style="stop-color:#1D1D1B;stop-opacity:0.2"/>
			<stop  offset="0.6774" style="stop-color:#000000;stop-opacity:0"/>
		</linearGradient>
		<path class="st60" d="M899.6,747.4c0-6.9-5.6-12.4-12.4-12.4s-12.4,5.6-12.4,12.4c0,0.3,0,57.1,0,57.4c0,6.9,5.6,12.4,12.4,12.4
			s12.4-5.6,12.4-12.4C899.6,804.5,899.6,747.8,899.6,747.4z"/>
		<path class="st43" d="M893.3,779.3c-1.2,0.4-3.6,0.9-5.7,0.9c-3.3,0-5.5-0.8-7-2.3c-1.7-1.6-2.6-4.2-2.6-7c0.1-6.5,4.5-9.6,10-9.6
			c2.2,0,3.9,0.4,4.7,0.8l-0.9,3.9c-0.9-0.4-2-0.7-3.7-0.7c-2.9,0-5.2,1.6-5.2,5.6c0,3.6,2,5.4,4.6,5.4c0.5,0,1-0.1,1.2-0.1v-3.4
			h-2.1v-3.7h6.6v10.2H893.3z"/>
		<path class="st6" d="M1119.8,791.1c0-6.9-5.6-12.4-12.4-12.4c-6.9,0-12.4,5.6-12.4,12.4c0,0.3,0,57.1,0,57.4
			c0,6.9,5.6,12.4,12.4,12.4c6.9,0,12.4-5.6,12.4-12.4C1119.8,848.2,1119.8,791.5,1119.8,791.1z"/>
		
			<linearGradient id="SVGID_47_" gradientUnits="userSpaceOnUse" x1="1094.9467" y1="528.2" x2="1119.7957" y2="528.2" gradientTransform="matrix(1 0 0 -1 0 1348)">
			<stop  offset="0" style="stop-color:#000000;stop-opacity:0.2"/>
			<stop  offset="0.1045" style="stop-color:#1D1D1B;stop-opacity:0.2"/>
			<stop  offset="0.6774" style="stop-color:#000000;stop-opacity:0"/>
		</linearGradient>
		<path class="st61" d="M1119.8,791.1c0-6.9-5.6-12.4-12.4-12.4c-6.9,0-12.4,5.6-12.4,12.4c0,0.3,0,57.1,0,57.4
			c0,6.9,5.6,12.4,12.4,12.4c6.9,0,12.4-5.6,12.4-12.4C1119.8,848.2,1119.8,791.5,1119.8,791.1z"/>
		<path class="st43" d="M1113.5,823c-1.2,0.4-3.6,0.9-5.7,0.9c-3.3,0-5.5-0.8-7-2.3c-1.7-1.6-2.6-4.2-2.6-7c0.1-6.5,4.5-9.6,10-9.6
			c2.2,0,3.9,0.4,4.7,0.8l-0.9,3.9c-0.9-0.4-2-0.7-3.7-0.7c-2.9,0-5.2,1.6-5.2,5.6c0,3.6,2,5.4,4.6,5.4c0.5,0,1-0.1,1.2-0.1v-3.4
			h-2.1v-3.7h6.6L1113.5,823L1113.5,823z"/>
		<g>
			<path class="st43" d="M368.5,636.5v10.9c0,2.7,0.9,4,2.5,4s2.5-1.1,2.5-4v-10.9h4.7v10.4c0,5.4-2.5,8.3-7.3,8.3s-7.1-2.8-7.1-8.4
				v-10.3H368.5z"/>
		</g>
		<g>
			<path class="st43" d="M589.9,659.8v10.9c0,2.7,0.9,4,2.5,4s2.5-1.1,2.5-4v-10.9h4.7v10.4c0,5.4-2.5,8.3-7.3,8.3s-7.1-2.8-7.1-8.4
				v-10.3H589.9z"/>
		</g>
		<g>
			<path class="st43" d="M1178,805.3v10.9c0,2.7,0.9,4,2.5,4s2.5-1.1,2.5-4v-10.9h4.7v10.4c0,5.4-2.5,8.3-7.3,8.3s-7.1-2.8-7.1-8.4
				v-10.3H1178z"/>
		</g>
		<g>
			<path class="st43" d="M956.6,782v10.9c0,2.7,0.9,4,2.5,4s2.5-1.1,2.5-4V782h4.7v10.4c0,5.4-2.5,8.3-7.3,8.3s-7.1-2.8-7.1-8.4V782
				H956.6z"/>
		</g>
	</g>
	<g>
		<path class="st62" d="M19,71.7c1,0.4,2,1,2.9,1.7l-2.3,2.8c-0.6-0.5-1.2-0.8-1.8-1.1c-0.6-0.2-1.2-0.4-1.9-0.4
			c-1.4,0-2.5,0.6-3.3,1.8c-0.8,1.2-1.2,3-1.2,5.5c0,2.4,0.4,4.2,1.2,5.4c0.8,1.2,1.9,1.8,3.4,1.8c0.8,0,1.4-0.1,2.1-0.4
			c0.6-0.3,1.3-0.7,2-1.2l2.2,2.8c-0.8,0.8-1.7,1.4-2.8,1.9c-1.1,0.5-2.3,0.8-3.7,0.8c-1.9,0-3.6-0.4-5-1.3
			c-1.4-0.8-2.5-2.1-3.3-3.7s-1.2-3.6-1.2-6c0-2.3,0.4-4.2,1.2-5.9c0.8-1.6,1.9-2.9,3.4-3.7c1.4-0.9,3.1-1.3,4.9-1.3
			C16.9,71.1,18,71.3,19,71.7z"/>
		<path class="st62" d="M34.1,76.2l-0.8,4.6c-0.6-0.1-1.1-0.2-1.4-0.2c-0.9,0-1.7,0.3-2.1,1c-0.5,0.6-0.9,1.6-1.2,2.9v7.9h-4.7V76.5
			H28l0.4,3.1c0.4-1.1,0.9-2,1.6-2.6s1.6-0.9,2.5-0.9C33.1,76,33.6,76.1,34.1,76.2z"/>
		<path class="st62" d="M47.6,78.2c1.4,1.5,2.1,3.6,2.1,6.3c0,1.7-0.3,3.2-0.9,4.5c-0.6,1.3-1.5,2.3-2.7,3s-2.6,1-4.2,1
			c-2.4,0-4.3-0.7-5.7-2.2s-2.1-3.6-2.1-6.3c0-1.7,0.3-3.2,0.9-4.5c0.6-1.3,1.5-2.3,2.7-3s2.6-1,4.2-1C44.3,76,46.2,76.7,47.6,78.2z
			 M39.7,80.7c-0.4,0.8-0.7,2-0.7,3.7s0.2,3,0.7,3.8s1.2,1.2,2.2,1.2s1.7-0.4,2.2-1.2s0.7-2.1,0.7-3.8c0-1.7-0.2-3-0.7-3.8
			s-1.2-1.2-2.2-1.2S40.2,79.9,39.7,80.7z"/>
		<path class="st62" d="M73.2,77.2c0.8,0.9,1.1,2,1.1,3.5v11.7h-4.7V81.6c0-1.4-0.4-2.1-1.4-2.1c-0.5,0-0.9,0.2-1.3,0.5
			s-0.8,0.9-1.1,1.6v10.8H61V81.6c0-1.4-0.4-2.1-1.4-2.1c-0.5,0-0.9,0.2-1.3,0.5c-0.4,0.4-0.8,0.9-1.1,1.5v10.9h-4.7V76.5h4.1
			l0.3,1.9c0.6-0.8,1.3-1.4,2.1-1.8s1.6-0.6,2.6-0.6c0.9,0,1.7,0.2,2.3,0.7s1.1,1.1,1.4,1.9c0.6-0.9,1.3-1.5,2.1-1.9
			c0.8-0.4,1.7-0.6,2.7-0.6C71.4,76,72.4,76.4,73.2,77.2z"/>
		<path class="st62" d="M90.5,78.2c1.4,1.5,2.1,3.6,2.1,6.3c0,1.7-0.3,3.2-0.9,4.5s-1.5,2.3-2.7,3s-2.6,1-4.2,1
			c-2.4,0-4.3-0.7-5.7-2.2c-1.4-1.6-2.1-3.7-2.1-6.4c0-1.7,0.3-3.2,0.9-4.5s1.5-2.3,2.7-3s2.6-1,4.2-1C87.2,76,89.1,76.7,90.5,78.2z
			 M82.6,80.7c-0.5,0.8-0.7,2.1-0.7,3.8c0,1.7,0.2,3,0.7,3.8s1.2,1.2,2.2,1.2s1.7-0.4,2.2-1.2s0.7-2.1,0.7-3.8c0-1.7-0.2-3-0.7-3.8
			s-1.2-1.2-2.2-1.2C83.8,79.4,83.1,79.9,82.6,80.7z"/>
		<path class="st62" d="M104.2,76.5c1,0.3,1.9,0.8,2.6,1.4l-1.7,2.7c-1.3-0.8-2.6-1.2-3.9-1.2c-0.6,0-1.1,0.1-1.4,0.3
			s-0.5,0.5-0.5,0.9c0,0.3,0.1,0.5,0.2,0.7s0.5,0.4,0.9,0.6c0.5,0.2,1.2,0.4,2.1,0.7c1.7,0.5,2.9,1.1,3.7,1.9
			c0.8,0.8,1.2,1.8,1.2,3.2c0,1.1-0.3,2-0.9,2.8s-1.5,1.4-2.6,1.8s-2.3,0.6-3.6,0.6c-1.3,0-2.6-0.2-3.7-0.6c-1.2-0.4-2.1-1-2.9-1.7
			L96,88c1.3,1,2.7,1.6,4.2,1.6c0.7,0,1.3-0.1,1.7-0.4c0.4-0.3,0.6-0.6,0.6-1.1c0-0.4-0.1-0.7-0.2-0.9c-0.2-0.2-0.5-0.4-0.9-0.6
			c-0.5-0.2-1.2-0.4-2.2-0.7c-1.6-0.5-2.8-1.1-3.5-1.9c-0.8-0.8-1.2-1.8-1.2-3.1c0-0.9,0.3-1.7,0.8-2.5c0.5-0.7,1.3-1.3,2.3-1.7
			c1-0.4,2.1-0.6,3.4-0.6C102.1,76,103.2,76.1,104.2,76.5z"/>
		<path class="st62" d="M122.5,78.2c1.4,1.5,2.1,3.6,2.1,6.3c0,1.7-0.3,3.2-0.9,4.5s-1.5,2.3-2.7,3s-2.6,1-4.2,1
			c-2.4,0-4.3-0.7-5.7-2.2c-1.4-1.5-2.1-3.6-2.1-6.3c0-1.7,0.3-3.2,0.9-4.5s1.5-2.3,2.7-3s2.6-1,4.2-1
			C119.2,76,121.1,76.7,122.5,78.2z M114.6,80.7c-0.5,0.8-0.7,2.1-0.7,3.8c0,1.7,0.2,3,0.7,3.8s1.2,1.2,2.2,1.2s1.7-0.4,2.2-1.2
			c0.5-0.8,0.7-2.1,0.7-3.8c0-1.7-0.2-3-0.7-3.8s-1.2-1.2-2.2-1.2C115.8,79.4,115.1,79.9,114.6,80.7z"/>
		<path class="st62" d="M148,77.2c0.8,0.9,1.1,2,1.1,3.5v11.7h-4.7V81.6c0-1.4-0.4-2.1-1.4-2.1c-0.5,0-0.9,0.2-1.3,0.5
			c-0.4,0.3-0.8,0.9-1.1,1.6v10.8h-4.7V81.6c0-1.4-0.4-2.1-1.4-2.1c-0.5,0-0.9,0.2-1.3,0.5c-0.4,0.4-0.8,0.9-1.1,1.5v10.9h-4.7V76.5
			h4.1l0.3,1.9c0.6-0.8,1.3-1.4,2.1-1.8s1.6-0.6,2.6-0.6c0.9,0,1.7,0.2,2.3,0.7s1.1,1.1,1.4,1.9c0.6-0.9,1.3-1.5,2.1-1.9
			s1.7-0.6,2.7-0.6C146.3,76,147.3,76.4,148,77.2z"/>
		<path class="st62" d="M165.7,89.1c0.2,0.3,0.4,0.5,0.8,0.6l-1,3.1c-1-0.1-1.8-0.3-2.4-0.6c-0.6-0.3-1.1-0.9-1.4-1.7
			c-1,1.6-2.6,2.4-4.8,2.4c-1.6,0-2.8-0.5-3.8-1.4c-0.9-0.9-1.4-2.1-1.4-3.6c0-1.7,0.6-3.1,1.9-4c1.3-0.9,3.1-1.4,5.5-1.4h1.6v-0.7
			c0-0.9-0.2-1.6-0.6-1.9c-0.4-0.3-1.1-0.5-2.1-0.5c-0.5,0-1.2,0.1-1.9,0.2s-1.5,0.4-2.3,0.6l-1.1-3.1c1-0.4,2-0.7,3.1-0.9
			c1-0.2,2-0.3,2.9-0.3c2.3,0,3.9,0.5,5,1.4s1.6,2.4,1.6,4.2v6.2C165.4,88.4,165.5,88.8,165.7,89.1z M160.8,88v-2.8h-1.2
			c-1.1,0-1.9,0.2-2.4,0.6s-0.8,1-0.8,1.8c0,0.6,0.2,1.1,0.5,1.5s0.8,0.5,1.4,0.5C159.3,89.5,160.2,89,160.8,88z"/>
	</g>
	<g>
		<path class="st63" d="M18,405.4l-1.1-4.5h-6.1l-1,4.5H4.7l6.3-20.8h6l6.3,20.8H18z M11.7,397.4h4.4l-2.2-9.2L11.7,397.4z"/>
		<path class="st63" d="M38.4,386.8c2,1.5,3,4.2,3,8.1s-1,6.6-2.9,8.1c-1.9,1.6-4.4,2.4-7.5,2.4h-6.2v-20.8h5.8
			C33.8,384.6,36.4,385.3,38.4,386.8z M29.7,388.2v13.7h1.6c1.6,0,2.8-0.5,3.7-1.5c0.8-1,1.3-2.8,1.3-5.4c0-1.8-0.2-3.2-0.6-4.1
			c-0.4-1-1-1.7-1.7-2c-0.7-0.4-1.6-0.6-2.7-0.6h-1.6C29.7,388.3,29.7,388.2,29.7,388.2z"/>
		<path class="st63" d="M60.3,405.4H54l-6-16.1c0.2,1.6,0.4,3,0.5,4.2s0.2,2.6,0.2,4.3v7.6h-4.4v-20.8h6.1l6.2,16.1
			c-0.4-2.7-0.7-5.3-0.7-7.7v-8.4h4.4V405.4z"/>
	</g>
	<g>
		<path class="st46" d="M20.2,1198.3c1.5,1.1,2.3,2.8,2.3,5.1c0,2.3-0.7,4.1-2.2,5.3s-3.5,1.8-6,1.8H12v6.9H7.1v-20.8h6.7
			C16.5,1196.6,18.7,1197.2,20.2,1198.3z M16.5,1206.2c0.6-0.5,0.9-1.5,0.9-2.7c0-2.2-1.2-3.3-3.7-3.3H12v6.8h1.8
			C15,1207,15.9,1206.6,16.5,1206.2z"/>
		<path class="st46" d="M34.6,1201.2l-0.8,4.6c-0.6-0.1-1.1-0.2-1.4-0.2c-0.9,0-1.7,0.3-2.1,1c-0.5,0.7-0.9,1.6-1.2,2.9v7.9h-4.7
			v-16h4.1l0.4,3.1c0.4-1.1,0.9-2,1.6-2.6s1.6-0.9,2.5-0.9C33.6,1201,34.1,1201,34.6,1201.2z"/>
		<path class="st46" d="M48.1,1203.2c1.4,1.5,2.1,3.6,2.1,6.3c0,1.7-0.3,3.2-0.9,4.5c-0.6,1.3-1.5,2.3-2.7,3s-2.6,1-4.2,1
			c-2.4,0-4.3-0.7-5.7-2.2s-2.1-3.6-2.1-6.3c0-1.7,0.3-3.2,0.9-4.5c0.6-1.3,1.5-2.3,2.7-3s2.6-1.1,4.2-1.1
			C44.8,1201,46.8,1201.7,48.1,1203.2z M40.2,1205.6c-0.5,0.8-0.7,2.1-0.7,3.8c0,1.7,0.2,3,0.7,3.8s1.2,1.2,2.2,1.2s1.7-0.4,2.2-1.2
			s0.7-2.1,0.7-3.8c0-1.7-0.2-3-0.7-3.8s-1.2-1.2-2.2-1.2S40.7,1204.8,40.2,1205.6z"/>
		<path class="st46" d="M63,1216.6c-0.6,0.4-1.3,0.7-2,0.9c-0.8,0.2-1.5,0.3-2.3,0.3c-3.5,0-5.2-1.9-5.2-5.8v-7.4h-2.2v-3.2h2.2
			v-3.5l4.7-0.5v4h3.7l-0.5,3.3h-3.2v7.3c0,0.7,0.1,1.3,0.4,1.6c0.2,0.3,0.6,0.5,1.1,0.5s1.1-0.2,1.7-0.5L63,1216.6z"/>
		<path class="st46" d="M77.9,1210.8H68c0.2,1.3,0.5,2.3,1.1,2.8s1.4,0.8,2.5,0.8c0.6,0,1.3-0.1,1.9-0.3s1.2-0.6,2-1.1l2,2.6
			c-1.9,1.5-3.9,2.2-6.2,2.2c-2.6,0-4.6-0.8-5.9-2.3c-1.4-1.5-2.1-3.6-2.1-6.1c0-1.6,0.3-3.1,0.9-4.4c0.6-1.3,1.4-2.3,2.5-3.1
			s2.5-1.1,4-1.1c2.3,0,4.1,0.7,5.4,2.2c1.3,1.4,2,3.4,2,6C78,1209.7,77.9,1210.3,77.9,1210.8z M73.3,1207.7c0-2.4-0.9-3.7-2.6-3.7
			c-0.8,0-1.5,0.3-1.9,0.9c-0.5,0.6-0.7,1.6-0.8,3h5.3V1207.7z"/>
		<path class="st46" d="M81.2,1194.2c0.5,0.5,0.7,1,0.7,1.7s-0.2,1.2-0.7,1.7s-1,0.7-1.7,0.7s-1.3-0.2-1.7-0.7
			c-0.5-0.5-0.7-1-0.7-1.7s0.2-1.2,0.7-1.7s1-0.7,1.7-0.7S80.8,1193.6,81.2,1194.2z M85.4,1201.5v15.9h-4.7v-15.9H85.4z
			 M88.2,1194.2c0.5,0.5,0.7,1,0.7,1.7s-0.2,1.2-0.7,1.7s-1,0.7-1.7,0.7s-1.2-0.2-1.7-0.7s-0.7-1-0.7-1.7s0.2-1.2,0.7-1.7
			s1-0.7,1.7-0.7C87.1,1193.5,87.7,1193.6,88.2,1194.2z"/>
		<path class="st46" d="M101.7,1202.2c0.8,0.8,1.2,2,1.2,3.5v11.6h-4.7v-10.8c0-0.8-0.1-1.4-0.4-1.7c-0.2-0.3-0.6-0.5-1.1-0.5
			c-1,0-1.9,0.7-2.8,2.1v10.9h-4.7v-15.9h4.1l0.3,1.9c0.7-0.8,1.4-1.4,2.2-1.8c0.8-0.4,1.7-0.6,2.7-0.6
			C99.8,1201,100.9,1201.3,101.7,1202.2z"/>
		<path class="st46" d="M119.3,1214.2c0.2,0.3,0.4,0.5,0.8,0.6l-1,3.1c-1-0.1-1.8-0.3-2.4-0.6s-1.1-0.9-1.4-1.7
			c-1,1.6-2.6,2.4-4.8,2.4c-1.6,0-2.8-0.5-3.8-1.4c-0.9-0.9-1.4-2.1-1.4-3.6c0-1.7,0.6-3.1,1.9-4s3.1-1.4,5.5-1.4h1.6v-0.7
			c0-0.9-0.2-1.6-0.6-1.9s-1.1-0.5-2.1-0.5c-0.5,0-1.2,0.1-1.9,0.2c-0.7,0.1-1.5,0.4-2.3,0.6l-1.1-3.1c1-0.4,2-0.7,3.1-0.9
			c1-0.2,2-0.3,2.9-0.3c2.3,0,3.9,0.5,5,1.4s1.6,2.4,1.6,4.2v6.2C119.1,1213.3,119.1,1213.8,119.3,1214.2z M114.4,1213v-2.8h-1.2
			c-1.1,0-1.9,0.2-2.4,0.6s-0.8,1-0.8,1.8c0,0.6,0.2,1.1,0.5,1.5s0.8,0.5,1.4,0.5C113,1214.5,113.8,1214,114.4,1213z"/>
	</g>
	<line class="st64" x1="152.5" y1="1213.2" x2="453.2" y2="1213.2"/>
	<line class="st65" x1="75.5" y1="753.2" x2="156.2" y2="753.2"/>
	<line class="st65" x1="75.5" y1="402.3" x2="139.2" y2="402.3"/>
	<line class="st66" x1="182.5" y1="88.2" x2="584.2" y2="88.2"/>
	<g>
		<path class="st9" d="M18,757.4l-1.1-4.5h-6.1l-1,4.5H4.7l6.3-20.8h6l6.3,20.8H18z M11.7,749.4h4.4l-2.2-9.2L11.7,749.4z"/>
		<path class="st9" d="M31.6,749.4h-1.9v8h-4.9v-20.8h6.8c2.8,0,5,0.5,6.4,1.6c1.4,1,2.1,2.6,2.1,4.8c0,1.3-0.3,2.5-1,3.3
			c-0.6,0.9-1.6,1.6-3,2.3l5.3,8.8h-5.6L31.6,749.4z M29.7,746h2.1c1.1,0,1.9-0.2,2.5-0.8c0.5-0.5,0.8-1.3,0.8-2.4
			c0-1-0.3-1.7-0.9-2.2c-0.6-0.5-1.5-0.7-2.7-0.7h-1.8C29.7,739.9,29.7,746,29.7,746z"/>
		<path class="st9" d="M59.3,757.4H53l-6-16c0.2,1.6,0.4,3,0.5,4.2s0.2,2.6,0.2,4.3v7.6h-4.4v-20.8h6.1l6.2,16.1
			c-0.4-2.7-0.7-5.3-0.7-7.7v-8.4h4.4C59.3,736.6,59.3,757.4,59.3,757.4z"/>
	</g>
	<circle class="st67" cx="2381.2" cy="-154.1" r="23"/>
	<g>
		<circle class="st67" cx="654.5" cy="1237.1" r="23"/>
		<circle class="st67" cx="541.2" cy="1159.7" r="23"/>
		<circle class="st67" cx="488.6" cy="1304.2" r="23"/>
		<circle class="st67" cx="575.5" cy="1171.8" r="23"/>
		<circle class="st67" cx="447.9" cy="1319.2" r="23"/>
		<circle class="st67" cx="606.7" cy="1197.5" r="23"/>
		<circle class="st67" cx="529.8" cy="1257.1" r="23"/>
		<circle class="st67" cx="622.9" cy="1266.6" r="23"/>
		<circle class="st67" cx="574.4" cy="1208.8" r="23"/>
		<circle class="st67" cx="568.3" cy="1240.9" r="23"/>
		<circle class="st67" cx="531.6" cy="1299.4" r="23"/>
		<circle class="st67" cx="588.7" cy="1280.3" r="23"/>
		<circle class="st67" cx="553" cy="1277.6" r="23"/>
		<circle class="st67" cx="660.4" cy="1271" r="23"/>
	</g>
	<polygon class="st1" points="733.8,1202.6 753.6,1202.6 753.6,1195.6 770.9,1212.9 753.6,1230.3 753.6,1223.3 733.8,1223.3 	"/>
</g>
<g id="Capa_3">
	<path class="st68" d="M923.6,1164.7c-7.6-106.5,54.9-68.1,58.7,45.9c1.8,54.8-19.8,56.2-24.5,71.8"/>
	<path class="st68" d="M931.5,1292.8"/>
	<path class="st69" d="M795,1294.1"/>
	<path class="st68" d="M862.6,1290.9c-84.8-86,124.2-54.9,169.2-93.3c36.2-30.8,24.2-50.6-2.1-59.9
		c-42.8-15.5-116.9-14.4-151.5,46.6"/>
	<path class="st68" d="M874,1296.5c117.7,65.5,222.8-33.7,222.8-33.7"/>
	<path class="st68" d="M1119.4,1314.6c-90.4,39.8-105.6-52.8-63.3-98.4c18.6-20.1,87.1-37.8,60.1,29.9"/>
	<path class="st68" d="M879.6,1207.3c10.5,216.8,209.8,119.1,193,75.8c-15.5-40-51.5-25.5-64.4-21.5"/>
	<path class="st68" d="M928.6,1188.4c36.1,53.6-48.2,72.9-50.3,95.8"/>
	<path class="st68" d="M1104,1254.3c-11.9-42.7,35.1-89.9-7-113.8"/>
	<path class="st68" d="M1081.6,1123.3c-129.3-48.8,21.6,92.5-47.9,132.1"/>
	<path class="st68" d="M1056.1,1216.2c0,0,37.1-105.6,86.4-18.2"/>
	<path class="st68" d="M1139.2,1305c15.8-24,23.8-53.6,8.3-98.4"/>
	<path class="st68" d="M1009,1171c-202-128.2-149.5,18.1-133.7,19.6"/>
	<path class="st68" d="M884,1192.9c58.1-40.7,94.8-34,115.8-22.9"/>
	<path class="st68" d="M922,1313.1c27.5-27.2,81.5-51.4,81.5-51.4"/>
	<path class="st68" d="M1004.2,1175.1c30.6,3,38.9,55.9-0.4,82.9"/>
</g>
<g id="Capa_4">
	<path class="st70" d="M923.6,1164.7c-7.6-106.5,54.9-68.1,58.7,45.9c1.8,54.8-19.8,56.2-24.5,71.8"/>
	<path class="st70" d="M931.5,1292.8"/>
	<path class="st70" d="M862.6,1290.9c-84.8-86,124.2-54.9,169.2-93.3c36.2-30.8,24.2-50.6-2.1-59.9
		c-42.8-15.5-116.9-14.4-151.5,46.6"/>
	<path class="st70" d="M874,1296.5c117.7,65.5,222.8-33.7,222.8-33.7"/>
	<path class="st70" d="M1119.4,1314.6c-90.4,39.8-105.6-52.8-63.3-98.4c18.6-20.1,87.1-37.8,60.1,29.9"/>
	<path class="st70" d="M879.6,1207.3c10.5,216.8,209.8,119.1,193,75.8c-15.5-40-51.5-25.5-64.4-21.5"/>
	<path class="st70" d="M928.6,1188.4c36.1,53.6-48.2,72.9-50.3,95.8"/>
	<path class="st70" d="M1104,1254.3c-11.9-42.7,35.1-89.9-7-113.8"/>
	<path class="st70" d="M1081.6,1123.3c-129.3-48.8,21.6,92.5-47.9,132.1"/>
	<path class="st70" d="M1056.1,1216.2c0,0,37.1-105.6,86.4-18.2"/>
	<path class="st70" d="M1139.2,1305c15.8-24,23.8-53.6,8.3-98.4"/>
	<path class="st70" d="M1009,1171c-202-128.2-149.5,18.1-133.7,19.6"/>
	<path class="st70" d="M884,1192.9c58.1-40.7,94.8-34,115.8-22.9"/>
	<path class="st70" d="M922,1313.1c27.5-27.2,81.5-51.4,81.5-51.4"/>
	<path class="st70" d="M1004.2,1175.1c30.6,3,38.9,55.9-0.4,82.9"/>
</g>
<g id="Capa_2">
	<circle class="st71" cx="1004.5" cy="1259.9" r="23"/>
	<circle class="st71" cx="931.8" cy="1178.4" r="23"/>
	<circle class="st71" cx="1089.4" cy="1132.3" r="23"/>
	<circle class="st71" cx="1009.3" cy="1171.2" r="23"/>
	<circle class="st71" cx="1058.3" cy="1324.5" r="23"/>
	<circle class="st71" cx="1108.3" cy="1253.7" r="23"/>
	<circle class="st71" cx="1150" cy="1207.5" r="23"/>
	<circle class="st71" cx="1129.2" cy="1311.5" r="23"/>
	<circle class="st71" cx="879.9" cy="1198.8" r="23"/>
	<circle class="st71" cx="864.2" cy="1294.3" r="23"/>
	<circle class="st71" cx="1047.6" cy="1224.9" r="23"/>
	<circle class="st71" cx="950" cy="1284.6" r="23"/>
	<circle class="st71" cx="866.4" cy="1129.3" r="23"/>
	
		<ellipse transform="matrix(0.7071 -0.7071 0.7071 0.7071 -516.2123 1014.3358)" class="st71" cx="966.3" cy="1130.3" rx="23" ry="23"/>
	<circle class="st71" cx="929.8" cy="1235.5" r="23"/>
	<circle class="st71" cx="1001.8" cy="1346.3" r="23"/>
</g>
</svg>
