<?xml version="1.0" encoding="utf-8"?>
<!-- Generator: Adobe Illustrator 24.1.0, SVG Export Plug-In . SVG Version: 6.00 Build 0)  -->
<svg version="1.1" id="Capa_1" xmlns="http://www.w3.org/2000/svg" xmlns:xlink="http://www.w3.org/1999/xlink" x="0px" y="0px"
	 viewBox="0 0 967.4 738.9" style="enable-background:new 0 0 967.4 738.9;" xml:space="preserve">
<style type="text/css">
	.st0{fill:#E0EADF;}
	.st1{fill:#679091;}
	.st2{fill:#83B1B5;}
	.st3{fill:#C0D9DF;}
	.st4{fill:#FFFFFF;}
	.st5{fill:#005372;}
	.st6{fill:#FA7F43;}
	.st7{fill:#CC9933;}
	.st8{fill:#373A47;}
	.st9{enable-background:new    ;}
	.st10{fill:#FFFFFF;stroke:#CC9933;stroke-miterlimit:10;}
	.st11{fill:#FF2A2A;}
	.st12{fill:#FFFFFF;stroke:#FA7F43;stroke-miterlimit:10;}
	.st13{fill:#FFFFFF;stroke:#FA7F43;stroke-width:1;stroke-miterlimit:9.9999;}
	.st14{fill:#FFFFFF;stroke:#005372;stroke-width:0.5669;stroke-miterlimit:10;}
	.st15{fill:none;stroke:#005372;stroke-miterlimit:10;}
	.st16{fill:none;stroke:#FA7F43;stroke-miterlimit:10;}
	.st17{fill:none;stroke:#CC9933;stroke-miterlimit:10;}
</style>
<g>
	<path class="st0" d="M711,257.7c-2.1-4.1-4.4-8.4-4.8-12.7c-1.7-17.3,3.7-34.5-0.9-52.7c-2.5-10,2.3-41,1.4-61.8
		c-0.5-13.6-5.8-25.4-21.5-28c-7.9-1.4-13.7-3.5-20.2-8.6c-4.8-3.8-6.4-13.8-3.8-19.5c3.4-7.6,9.6-14.1,8.6-23.4
		c-0.2-2,0.8-4.2-2-5.4c-0.6-0.2-0.4-2.6-0.4-3.9c0.3-18.8-15.5-29.3-32.7-21.7c-7.6,3.4-10.8,9.6-11.5,17.6c-0.3,3.1,1.6,6.6-2,9.6
		c-2.3,1.8,1.1,15.7,3.5,18.2c4.6,4.5,7.5,18.2,4.9,23.9c-0.8,1.6-2.4,3.3-3.8,4.5c-6.6,5.4-11.8,8.2-20.1,9.3
		c-14,1.8-22.4,13-22.4,27.2c0,1.3,0,2.5,0,3.8c1.5,2.2,4,41.7,1.7,58.4c-2.4,17.1,1.9,42.6-0.7,53.5c-1,4.5-2.2,3.9-4.9,8.1
		c-3.5,5.3-4.3,9.8-4.9,13.7c-0.9,6.5-0.2,10.6,1.1,9.9c1.4-0.7,2.1-8.4,3.4-9.3c0.5,1.6-0.3,0-0.4,1.6c-0.3,5.4-1,10.8-1.5,16.2
		c-0.2,1.9-0.2,3.8,0.3,5.9c4.9-4.8,3.1-11.8,5.5-17.3c0.4,0,0.8,0,1.3,0.1c-0.1,7.1-0.2,14.1-0.2,21.2c0.6,0,1.3,0.1,2,0.2
		c2.7-6.5,0.5-13.9,3.5-20.5c0.3,5.7,0.6,11.5,0.9,17.3c0.5,0.1,1.1,0,1.6,0.1c3.8-5.8-0.4-12.9,2.7-19.1c0.9,4.6,1.6,9.1,2.4,13.7
		c0.5,0,1.1,0,1.6,0c0.2-2,0.5-3.9,0.5-5.9c0.2-5.4,0.2-10.8,0.2-16.2c0-3.1,0.2-6.4-0.7-9.3c-2.2-8.6,0.5-16.7,1.3-25
		c0.6-5.8,1.6-11.6,2.6-17.4c1.5-8.2,1.3-16.3,0.5-24.6c-0.7-7.1,0.9-24.3,1.3-24.3c0.3,6.5,0.6,13,1,19.5c1.4,19.7-1.4,39-3.3,58.5
		c-1.5,15.9-0.3,31.9,0.1,48c0.4,14.8,1.9,29.3,5.4,43.7c0.8,3.1,0.3,6.5,0.3,9.8c0,13.7,0.2,27.5,0,41.1
		c-0.1,9.1-0.9,18.3-1.1,27.4c-0.5,17,2,33.7,5.7,50.1c1.8,8.1,1.3,15.7-2.7,23.2c-2.9,5.3-4.9,10.9-7.2,16.4
		c-3.7,8.8,3.3,13.3,10.5,14c0.6,0.1,1.1-0.3,1.6-0.2c2.4,0.1,5.8,1.4,7.1,0.3c2.6-2.6,4.9-6.1,5.7-9.6c1.3-5.8,1.5-11.9,4.9-17.1
		c0.8-1.3,0.7-3.4,0.5-5c-2.7-17.8-1.6-35.2,3.5-52.5c3.3-11.5,1.9-23.4,0.8-34.9c-1.1-11.8-0.6-23.2,1.6-34.9
		c2-11.1,2-22.8,2.7-34.1c1-14.8,1.8-29.7,2.7-44.5c0-0.8,0.5-1.5,1.6-2.4c0.3,1.4,0.8,2.7,0.9,4.2c1.2,19,2,38,3.5,56.9
		c0.7,9.1,2.5,18.1,3.1,27.1c0.6,8.2,0.6,16.6,0.5,24.7c0,11-0.8,22-0.2,33c0.4,6.8,2.9,13.3,4.2,20.1c2.4,11.8,1.5,23.5,0.3,35.4
		c-0.3,3.1,0.9,6.5,1.6,9.8c0.9,3.9,1.9,8,3.1,11.9c0.9,3.1,1.8,6.4,3.3,9.1c1.9,3.5,4.5,4.9,8.9,3.3c3.5-1.3,7.5-0.7,10.9-3.5
		c2.6-2,3.9-4.2,3.1-7.2c-1.6-5-2.9-10.3-5.6-14.8c-7.1-11.7-6.9-23.6-3.8-36.3c5.2-20.8,5-41.8,3.5-63.1
		c-0.5-7.5-0.3-14.8-0.4-22.3c-0.1-8.1-0.4-16.3,0.1-24.4c0.6-8.3,2.2-16.6,3.1-25c1.1-9.8,2.3-19.6,2.6-29.5
		c0.5-17.1,0.6-34.3,0.1-51.5c-0.3-9.2-3.1-18.4-3.3-27.6c-0.3-14.5,0.4-29,0.9-43.6c-0.2-0.5-0.2-1,0.1-1.5
		c0-0.2,0.9,20.5,0.5,31.6c-0.2,6,0.6,11.9,1.3,17.8c1.3,10.8,2.7,21.6,4.1,32.3c0.2,1.3,0.2,2.5,0.1,3.8c-0.6,10.5-1.2,21-1.7,31.5
		c-0.1,1.7,0.2,3.5,0.4,5.3c0.6,0.1,1.1,0.1,1.7,0.2c0.9-4.6,1.9-9.3,2.7-13.8c2.7,6.3-0.9,13.1,2.1,19.2c0.6,0.1,1.3,0,1.8,0.1
		c0.4-5.8,0.9-11.5,1.3-17.4c0.4,0,0.7,0,1.1,0c0.5,6.8,0.9,13.5,1.4,20.3c1,0.2,0.8,0.2,1.8,0.2c2.7-6.9-0.5-14.4,2.1-21.6
		c1.2,6,2.5,12,3.7,17.9c0.6-0.2,1.3-0.2,2-0.2c0.1-1.6,0.3-3.4,0.2-5c-0.5-6-1.2-11.9-1.5-17.9c0,0,0,0,0-0.1
		c0-1.4,1.6,10.5,1.9,10.8C715,281.4,717.3,269.6,711,257.7z"/>
	<path class="st0" d="M340.4,262.7c7.7-3.9,9.1-10.4,10.1-17.7c1.8-13.3,3.7-26.8,6-40.1c4.6-25.9,10.4-51.7,14.3-77.8
		c2-13.6,11.9-22.8,23.9-25.1c4.3-0.9,8.9-2.5,12.8-4.8c5.2-3.1,9.2-7.2,9.7-14.1c0.6-7.5-4.2-12-8.2-16.6
		c-4.9-5.7-5.4-12.5-4.1-18.5c0.8-3.5,1.6-6.9,1.8-10.5c0.7-11,8.4-18.6,19.7-19.4c12.9-0.9,21.9,5.2,23.9,16.3
		c0.6,3.5-0.9,8.2,0.9,10.8c3.7,5.3,2.4,10.5,0.7,15.1c-1.9,5.2-5.7,9.5-8.9,14c-3.5,5.2-3.5,11.9,0.4,17c5,6.8,12.2,9.6,20.1,11
		c12,2,22.8,11.4,23.2,23.9c0.1,3.1,0.6,6.4,1.2,9.6c4.1,21.3,8.4,42.6,12.2,64.1c3.1,17,5.7,34.2,8.3,51.3c0.7,4.5,2.9,7.3,6.6,9.9
		c5.4,3.8,10.3,8.4,15.9,13c-4.2,2-7.1,0-9.8-2.2c-0.8-0.6-2.2-0.5-3.3-0.8c-0.3,1.1-0.9,2.3-0.6,3.3c1.4,4.9,3.1,9.6,4.6,14.4
		c0.7,2,1.3,4.2,1.9,6.2c-0.4,0.1-0.9,0.3-1.3,0.5c-4.6-3.7-4.3-10.2-8.8-14.3c1.5,6.1,2.9,12.2,4.3,18.4c-0.8,0.2-1.6,0.5-2.4,0.7
		c-1.9-5.7-3.7-11.5-5.6-17.4c-0.3,0.1-0.7,0.2-1,0.3c0.8,5.2,1.5,10.4,2.3,15.5c-0.8,0.1-1.5,0.3-2.2,0.4c-1.5-5.7-3-11.1-4.5-16.7
		c-0.3,0-0.6,0.1-0.9,0.2c0,4.2,0,8.3,0,13c-1-0.6-1.4-0.8-1.5-1c-0.3-0.6-0.7-1.1-0.7-1.6c-0.9-10.5-6.8-20.2-4.9-31.2
		c0.3-1.4-0.5-3-1-4.5c-2-6-4.5-12.1-6.4-18.2c-3.4-10.3-8-20.6-9.4-31.2c-1.9-14.7-5.7-28.5-11.3-42.1c-0.7-1.6-1.6-3.3-2.4-4.9
		c-0.5,0.1-0.9,0.2-1.4,0.3c-0.9,10.4-1.6,20.8-2.7,31.2c-1.1,11.8,0.6,23.1,5.6,34.1c5.7,12.4,8,25.7,7.1,39.2
		c-1.2,17.5-3.5,34.9-5.7,52.3c-1.6,11.7-4.2,23.2-2.5,35.2c0.6,4.9-0.2,9.8-0.3,14.8c-0.1,6.9-0.6,14,0,20.8
		c2,22.7,1.4,45.2-3.9,67.4c-3.4,14-3,26.9,5.2,39.2c2.2,3.3,3.3,7.3,4.5,11.1c1.1,3.5,0.9,6.9-3.1,8.4c-3.5,1.2-7.2,1.6-10.4,3.1
		c-4.1,2-6.8,0.5-8.5-2.6c-1.6-3-2.7-6.4-3.7-9.7c-1.2-3.8-2-7.6-3-11.5c-0.7-3.1-2.3-6.6-1.6-9.6c2.6-13.8,2.7-27.5,0-41.3
		c-3.3-16.8-3.4-33.8-2-50.9c0.4-5.3,0.6-10.8,0-16.1c-1.4-13-3.5-25.8-4.9-38.8c-1.6-16-2.9-32.2-4.3-48.2
		c-0.2-2.5-0.7-4.9-1.1-7.3c-0.4,0-0.8,0.1-1.2,0.1c-0.3,1.3-0.8,2.7-0.9,3.9c-1,12.1-1.9,24.3-2.9,36.3c-1.1,13-1.6,26.1-3.8,39
		c-2,11.9-3.5,23.6-2.4,35.7c1.4,14.7,0.8,29.2-1.9,43.6c-2.6,14.1-3.5,28.3-0.5,42.5c0.6,2.7,0.3,5.8-0.3,8.6
		c-1.1,5-2.5,10.1-4.2,14.8c-1.5,3.9-3.4,8-6,11.1c-1,1.2-4.9-0.1-7.5-0.2c-0.6,0-1.2,0.5-1.8,0.4c-6.9-1-14-5-9.9-13.6
		c2.9-6,5.3-12.4,8.4-18.4c3.1-6.2,3.5-12.6,2.2-19.3c-5.2-24.8-8.1-49.7-6-75.1c1.1-13.4,0.1-27,0.2-40.6c0.1-4.2,0.9-8.6,0.4-12.9
		c-2.3-19-4.5-38.1-7.3-57.1c-2.9-19.3-1.6-38.2,6.4-56c4.9-10.8,5.7-21.6,5-32.9c-0.2-3.9-0.5-8-0.9-12c-0.7-6.4-1.5-12.6-2.2-19
		c-1.6,1-2.4,2-2.7,3.1c-5.6,14-10.1,28-11.9,43.2c-1.2,10.6-6,20.9-9.4,31.2c-2.6,7.9-6.1,15.5-7.9,23.5
		c-2.2,9.6-2.9,19.6-4.3,29.4c-0.2,1.4-1.1,2.7-1.6,3.9c-0.4-0.1-0.9-0.3-1.3-0.4c0.3-4.2,0.5-8.3,0.7-12.5c-0.3,0-0.7-0.1-1.1-0.1
		c-1.4,5.6-2.9,11.1-4.2,16.7c-0.7-0.1-1.5-0.3-2.2-0.4c0.8-5.3,1.5-10.4,2.3-15.6c-0.3,0-0.7-0.1-1-0.1c-1.9,5.7-3.8,11.5-5.7,17.4
		c-0.8-0.2-1.5-0.5-2.3-0.7c1.5-6.2,2.9-12.4,4.3-18.6c-4.9,3.8-3.8,11.1-9.8,14c0-1.9,0.6-3.5,1.1-5.2c1.6-5.2,3.5-10.2,4.9-15.3
		c0.3-1.2-0.2-2.5-0.4-3.8c-1.2,0.4-2.6,0.5-3.5,1.2c-2.7,1.9-5.3,3.8-9.3,2C331.6,270.3,335.4,265.5,340.4,262.7z"/>
	<path class="st0" d="M773.1,262.7c7.7-3.9,9.1-10.4,10.1-17.7c1.8-13.3,3.7-26.8,6-40.1c4.6-25.9,10.4-51.7,14.3-77.8
		c2-13.6,11.9-22.8,23.9-25.1c4.3-0.9,8.9-2.5,12.8-4.8c5.2-3.1,9.2-7.2,9.7-14.1c0.6-7.5-4.2-12-8.2-16.6
		c-4.9-5.7-5.4-12.5-4.1-18.5c0.8-3.5,1.6-6.9,1.8-10.5c0.7-11,8.4-18.6,19.7-19.4c12.9-0.9,21.9,5.2,23.9,16.3
		c0.6,3.5-0.9,8.2,0.9,10.8c3.7,5.3,2.4,10.5,0.7,15.1c-2,5.3-5.9,9.7-9,14.2c-3.5,5.2-3.5,11.9,0.4,17c5,6.8,12.2,9.6,20.1,11
		c12,2,22.8,11.4,23.2,23.9c0.1,3.1,0.6,6.4,1.2,9.6c4.1,21.3,8.4,42.6,12.2,64.1c3.1,17,5.7,34.2,8.3,51.3c0.7,4.5,2.9,7.3,6.6,9.9
		c5.4,3.8,10.3,8.4,15.9,13c-4.2,2-7.1,0-9.8-2.2c-0.8-0.6-2.2-0.5-3.3-0.8c-0.3,1.1-0.9,2.3-0.6,3.3c1.4,4.9,3.1,9.6,4.6,14.4
		c0.7,2,1.3,4.2,1.9,6.2c-0.4,0.1-0.9,0.3-1.3,0.5c-4.6-3.7-4.3-10.2-8.8-14.3c1.5,6.1,2.9,12.2,4.3,18.4c-0.8,0.2-1.6,0.5-2.4,0.7
		c-1.9-5.7-3.7-11.5-5.6-17.4c-0.3,0.1-0.7,0.2-1,0.3c0.8,5.2,1.5,10.4,2.3,15.5c-0.8,0.1-1.5,0.3-2.2,0.4c-1.5-5.7-3-11.1-4.5-16.7
		c-0.3,0-0.6,0.1-0.9,0.2c0,4.2,0,8.3,0,13c-1-0.6-1.4-0.8-1.5-1c-0.3-0.6-0.7-1.1-0.7-1.6c-0.9-10.5-6.8-20.2-4.9-31.2
		c0.3-1.4-0.5-3-1-4.5c-2-6-4.5-12.1-6.4-18.2c-3.4-10.3-8-20.6-9.4-31.2c-1.9-14.7-5.7-28.5-11.3-42.1c-0.7-1.6-1.6-3.3-2.4-4.9
		c-0.5,0.1-0.9,0.2-1.4,0.3c-0.9,10.4-1.6,20.8-2.7,31.2c-1.1,11.8,0.6,23.1,5.6,34.1c5.7,12.4,8,25.7,7.1,39.2
		c-1.2,17.5-3.5,34.9-5.7,52.3c-1.6,11.7-4.2,23.2-2.5,35.2c0.6,4.9-0.2,9.8-0.3,14.8c-0.1,6.9-0.6,14,0,20.8
		c2,22.7,1.4,45.2-3.9,67.4c-3.4,14-3,26.9,5.2,39.2c2.2,3.3,3.3,7.3,4.5,11.1c1.1,3.5,0.9,6.9-3.1,8.4c-3.5,1.2-7.2,1.6-10.4,3.1
		c-4.1,2-6.8,0.5-8.5-2.6c-1.6-3-2.7-6.4-3.7-9.7c-1.2-3.8-2-7.6-3-11.5c-0.7-3.1-2.3-6.6-1.6-9.6c2.6-13.8,2.7-27.5,0-41.3
		c-3.3-16.8-3.4-33.8-2-50.9c0.4-5.3,0.6-10.8,0-16.1c-1.4-13-3.5-25.8-4.9-38.8c-1.6-16-2.9-32.2-4.3-48.2
		c-0.2-2.5-0.7-4.9-1.1-7.3c-0.4,0-0.8,0.1-1.2,0.1c-0.3,1.3-0.8,2.7-0.9,3.9c-1,12.1-1.9,24.3-2.9,36.3c-1.1,13-1.6,26.1-3.8,39
		c-2,11.9-3.5,23.6-2.4,35.7c1.4,14.7,0.8,29.2-1.9,43.6c-2.6,14.1-3.5,28.3-0.5,42.5c0.6,2.7,0.3,5.8-0.3,8.6
		c-1.1,5-2.5,10.1-4.2,14.8c-1.5,3.9-3.4,8-6,11.1c-1,1.2-4.9-0.1-7.5-0.2c-0.6,0-1.2,0.5-1.8,0.4c-6.9-1-14-5-9.9-13.6
		c2.9-6,5.3-12.4,8.4-18.4c3.1-6.2,3.5-12.6,2.2-19.3c-5.2-24.8-8.1-49.7-6-75.1c1.1-13.4,0.1-27,0.2-40.6c0.1-4.2,0.9-8.6,0.4-12.9
		c-2.3-19-4.5-38.1-7.3-57.1c-2.9-19.3-1.6-38.2,6.4-56c4.9-10.8,5.7-21.6,5-32.9c-0.2-3.9-0.5-8-0.9-12c-0.7-6.4-1.5-12.6-2.2-19
		c-1.6,1-2.4,2-2.7,3.1c-5.6,14-10.1,28-11.9,43.2c-1.2,10.6-6,20.9-9.4,31.2c-2.6,7.9-6.1,15.5-7.9,23.5
		c-2.2,9.6-2.9,19.6-4.3,29.4c-0.2,1.4-1.1,2.7-1.6,3.9c-0.4-0.1-0.9-0.3-1.3-0.4c0.3-4.2,0.5-8.3,0.7-12.5c-0.3,0-0.7-0.1-1.1-0.1
		c-1.4,5.6-2.9,11.1-4.2,16.7c-0.7-0.1-1.5-0.3-2.2-0.4c0.8-5.3,1.5-10.4,2.3-15.6c-0.3,0-0.7-0.1-1-0.1c-1.9,5.7-3.8,11.5-5.7,17.4
		c-0.8-0.2-1.5-0.5-2.3-0.7c1.5-6.2,2.9-12.4,4.3-18.6c-4.9,3.8-3.8,11.1-9.8,14c0-1.9,0.6-3.5,1.1-5.2c1.6-5.2,3.5-10.2,4.9-15.3
		c0.3-1.2-0.2-2.5-0.4-3.8c-1.2,0.4-2.6,0.5-3.5,1.2c-2.7,1.9-5.3,3.8-9.3,2C764.3,270.3,768,265.5,773.1,262.7z"/>
	<g>
		<path id="path882_3_" class="st1" d="M425.5,117.2c-0.4-2.5-1.7-5.5-3-7.6c-1.3-2.3-2.9-4.1-4.4-5c-1.7-0.9-3.3-0.8-5.9,0.7
			c-2.5,1.6-5.9,4.4-8.6,8.2c-2.8,3.7-5.1,8.1-6.3,11c-1.3,2.9-1.6,4.1-1.7,5.1c-0.1,1,0,1.6-0.7,4.8c-0.7,3.3-2,9.2-2.8,13.3
			c-0.8,4.1-1,6.2-1,7.6c0,1.4,0.3,1.8,1.3,2.5c1.1,0.5,3.3,1.2,5.6,1c2.5-0.3,5-1.4,7.6-2.5c2.5-1,5.1-1.7,7.1-2.2
			c2-0.4,3.3-0.8,5.1-2.5c1.8-1.8,3.8-5.2,5.1-9.9c1.3-4.7,2-11,2.5-15.2C425.9,122.2,426,119.8,425.5,117.2L425.5,117.2z"/>
		<path id="path882-7_3_" class="st2" d="M425.5,117.2c-0.4-2.5-1.7-5.5-3-7.6c-1.3-2.3-2.9-4.1-4.4-5c-1.7-0.9-3.3-0.8-5.9,0.7
			c-2.5,1.6-5.9,4.4-8.6,8.2c-2.8,3.7-5.1,8.1-6.3,11c-1.3,2.9-1.6,4.1-1.7,5.1c-0.1,1,0,1.6,1.8,6c1.7,4.4,5,12.5,8,16.2
			c2.9,3.7,5.5,2.9,7.4,2.5s3.3-0.8,5.1-2.5c1.8-1.8,3.8-5.2,5.1-9.9c1.3-4.7,2-11,2.5-15.2C425.8,122.1,426,119.8,425.5,117.2
			L425.5,117.2z"/>
		<path id="path882-7-9_3_" class="st3" d="M425.5,117.2c-0.4-2.5-1.7-5.5-3-7.6c-1.3-2.3-2.9-4.1-4.4-5c-1.7-0.9-3.3-0.8-5.9,0.7
			c-2.5,1.6-5.9,4.4-8.1,7.2c-2.3,2.6-3.5,5.1-4.6,6.9c-1,1.8-1.6,3-2.1,5s-1.1,4.7,3.3,8c4.4,3.3,13.6,6.9,18.6,5.9
			c5-1.2,5.6-7.3,6.1-11.6C425.9,122.2,426,119.8,425.5,117.2z"/>
		<path id="path882-8_3_" class="st2" d="M432.3,117.2c0.4-2.5,1.7-5.5,3-7.6c1.3-2.3,2.9-4.1,4.4-5c1.7-0.9,3.3-0.8,5.9,0.7
			c2.5,1.6,5.9,4.4,8.6,8.2c2.8,3.8,5.1,8.1,6.3,11c1.3,2.9,1.6,4.1,1.7,5.1c0.1,1,0,1.6,0.7,4.8c0.7,3.3,2,9.2,2.8,13.3
			c0.8,4.1,1,6.2,1,7.6c0,1.4-0.3,1.8-1.3,2.5c-1.1,0.5-3.3,1.2-5.6,1c-2.5-0.3-5-1.4-7.6-2.5c-2.5-1-5.1-1.7-7.1-2.2
			c-2-0.4-3.3-0.8-5.1-2.5c-1.8-1.8-3.8-5.2-5.1-9.9c-1.3-4.7-2-11-2.5-15.2C432,122.2,431.9,119.8,432.3,117.2L432.3,117.2z"/>
		<path id="path882-7-5_3_" class="st3" d="M432.3,117.2c0.4-2.5,1.7-5.5,3-7.6c1.3-2.3,2.9-4.1,4.4-5c1.7-0.9,3.3-0.8,5.9,0.7
			c2.5,1.6,5.9,4.4,8.6,8.2c2.8,3.8,5.1,8.1,6.2,10.6c1.1,2.5,1.3,3.3,1.7,5.5c0.4,2.2,0.9,6.1-1,12.4c-1.8,6.3-6.3,15-8.8,13.9
			c-2.5-1.1-3-12.2-5.1-16.9c-2.2-4.7-6.1-2.9-8.4-3c-2.3,0-3.3-1.8-4.1-4.1c-0.9-2.2-1.8-4.7-2.3-7.3
			C431.9,122.1,431.9,119.8,432.3,117.2L432.3,117.2z"/>
		<path class="st4" d="M440.5,118.1c-1.2,0.1-3.3,0.8-4.7,0.8c-0.9,0-2.6-0.7-3.9-2h0.1c-0.1-0.3-0.3-0.4-0.4-0.4
			c-0.1-0.3-0.3-0.4-0.4-0.5c0.4-0.1,0.9-0.4,0.9-1s-0.4-1-1-1h-0.2v-0.4h0.3c0.5,0,1-0.4,1-1s-0.4-1-1-1h-0.3v-0.4h0.3
			c0.5,0,1-0.4,1-1s-0.4-1-1-1h-0.3v-0.4h0.3c0.5,0,1-0.4,1-1c0-0.5-0.4-1-1-1h-0.3v-0.4h0.3c0.5,0,1-0.4,1-1s-0.4-1-1-1h-0.3v-0.8
			h0.3c0.5,0,1-0.4,1-1c0-0.5-0.4-1-1-1h-0.3v-0.4h0.3c0.5,0,1-0.4,1-1c0-0.5-0.4-1-1-1h-0.3l0,0h0.3c0.5,0,1-0.4,1-1
			c0-0.5-0.4-1-1-1h-0.3V97h0.3c0.5,0,1-0.4,1-1s-0.4-1-1-1h-0.3v-0.4c0,0,0-0.1-0.1-0.1h-3c0,0-0.1,0-0.1,0.1v0.4h-0.1
			c-0.5,0-1,0.4-1,1s0.4,1,1,1h0.3v0.4h-0.3c-0.5,0-1,0.4-1,1c0,0.5,0.4,1,1,1h0.3v0.4h-0.3c-0.5,0-1,0.4-1,1s0.4,1,1,1h0.3v0.4
			h-0.3c-0.5,0-1,0.4-1,1s0.4,1,1,1h0.3v0.4h-0.3c-0.5,0-1,0.4-1,1c0,0.5,0.4,1,1,1h0.3v0.4h-0.3c-0.5,0-1,0.4-1,1s0.4,1,1,1h0.3
			v0.4h-0.3c-0.5,0-1,0.4-1,1s0.4,1,1,1h0.3v0.4h-0.3c-0.5,0-1,0.4-1,1s0.4,1,1,1h0.3v0.4h-0.3c-0.5,0-1,0.4-1,1c0,0.5,0.4,1,1,1
			h0.3v0.3c-0.1,0.1-0.1,0.1-0.3,0.3c-0.4,0-0.7,0.3-0.9,0.5h0.4c-1.6,1.3-3.8,2.2-4.6,2.5c-1.1,0.4-2.2,0.4-3.7,0.4
			c-1.5,0-3,0.1-3,0.4c0.1,0.3,1.8,0.5,3.3,0.8c1.4,0.4,2.5,0.5,2.8,1.2c0.4,0.7-0.3,1.8-1.1,2.5c-0.9,0.7-2.1,1-3.5,1.4
			c-1.4,0.4-3.3,0.9-3.3,1.1s2,0,3.1,0.7c1,0.7,1.2,2.1,1.6,3c0.3,0.9,0.5,1.1,0.7,0.4c0.1-0.7,0-2.3,0.4-3.3c0.4-1.1,1.2-1.7,1.7-2
			c0.4-0.4,4.2-4.1,4.8-4.3c0.5-0.4,1.8-1,2.8-1.1c1.1-0.1,2.1,0.3,3.4,1.3c1.3,1.1,3.1,3,4.3,4.1s2,1.3,2.5,1.2
			c0.4-0.1,0.4-0.7-0.3-1.8c-0.7-1.1-2.2-2.8-2.5-3.8c-0.3-1,1-1.2,2.1-1.6c1.2-0.4,2.5-0.9,2.9-1.2
			C442,118.2,441.7,117.9,440.5,118.1z"/>
		<path class="st5" d="M448.1,130.2c-2.3,7.7,7.1,16.9,14,13.9c3.7-1.6,1.8-8.1,1.1-12.7C461.6,122.9,450.2,123.4,448.1,130.2z"/>
	</g>
	<g>
		<path id="path882_2_" class="st1" d="M644,117.2c-0.4-2.5-1.7-5.5-3-7.6c-1.3-2.3-2.9-4.1-4.4-5c-1.7-0.9-3.3-0.8-5.9,0.7
			c-2.5,1.6-5.9,4.4-8.6,8.2c-2.8,3.7-5.1,8.1-6.3,11c-1.3,2.9-1.6,4.1-1.7,5.1c-0.1,1,0,1.6-0.7,4.8s-2,9.2-2.8,13.3
			c-0.8,4.1-1,6.2-1,7.6c0,1.4,0.3,1.8,1.3,2.5c1.1,0.6,3.3,1.2,5.6,1c2.5-0.3,5-1.4,7.6-2.5c2.5-1,5.1-1.7,7.1-2.2
			c2-0.4,3.3-0.8,5.1-2.5c1.8-1.8,3.8-5.2,5.1-9.9c1.3-4.7,2-11,2.5-15.2C644.3,122.2,644.5,119.8,644,117.2L644,117.2z"/>
		<path id="path882-7_2_" class="st2" d="M644,117.2c-0.4-2.5-1.7-5.5-3-7.6c-1.3-2.3-2.9-4.1-4.4-5c-1.7-0.9-3.3-0.8-5.9,0.7
			c-2.5,1.6-5.9,4.4-8.6,8.2c-2.8,3.7-5.1,8.1-6.3,11c-1.3,2.9-1.6,4.1-1.7,5.1c-0.1,1,0,1.6,1.8,6c1.7,4.4,5,12.5,8,16.2
			c2.9,3.7,5.5,2.9,7.4,2.5c1.8-0.4,3.3-0.8,5.1-2.5c1.8-1.8,3.8-5.2,5.1-9.9c1.3-4.7,2-11,2.5-15.2
			C644.2,122.1,644.5,119.8,644,117.2L644,117.2z"/>
		<path id="path882-7-9_2_" class="st3" d="M644,117.2c-0.4-2.5-1.7-5.5-3-7.6c-1.3-2.3-2.9-4.1-4.4-5c-1.7-0.9-3.3-0.8-5.9,0.7
			c-2.5,1.6-5.9,4.4-8.1,7.2c-2.3,2.6-3.5,5.1-4.6,6.9c-1,1.8-1.6,3-2.1,5s-1.1,4.7,3.3,8c4.4,3.3,13.6,6.9,18.6,5.9
			c5-1.2,5.6-7.3,6.1-11.6C644.3,122.2,644.5,119.8,644,117.2z"/>
		<path id="path882-8_2_" class="st2" d="M650.7,117.2c0.4-2.5,1.7-5.5,3-7.6c1.3-2.3,2.9-4.1,4.4-5c1.7-0.9,3.3-0.8,5.9,0.7
			c2.5,1.6,5.9,4.4,8.6,8.2c2.8,3.8,5.1,8.1,6.3,11c1.3,2.9,1.6,4.1,1.7,5.1s0,1.6,0.7,4.8c0.7,3.3,2,9.2,2.8,13.3
			c0.8,4.1,1,6.2,1,7.6c0,1.4-0.3,1.8-1.3,2.5c-1.1,0.6-3.3,1.2-5.6,1c-2.5-0.3-5-1.4-7.6-2.5c-2.5-1-5.1-1.7-7.1-2.2
			c-2-0.4-3.3-0.8-5.1-2.5s-3.8-5.2-5.1-9.9c-1.3-4.7-2-11-2.5-15.2C650.4,122.2,650.3,119.8,650.7,117.2L650.7,117.2z"/>
		<path id="path882-7-5_2_" class="st3" d="M650.7,117.2c0.4-2.5,1.7-5.5,3-7.6c1.3-2.3,2.9-4.1,4.4-5c1.7-0.9,3.3-0.8,5.9,0.7
			c2.5,1.6,5.9,4.4,8.6,8.2c2.8,3.8,5.1,8.1,6.2,10.6c1.1,2.5,1.3,3.3,1.7,5.5c0.4,2.2,0.9,6.1-1,12.4c-1.8,6.3-6.3,15-8.8,13.9
			c-2.5-1.1-3-12.2-5.1-16.9c-2.2-4.7-6.1-2.9-8.4-3c-2.3,0-3.3-1.8-4.1-4.1c-0.9-2.2-1.8-4.7-2.3-7.3
			C650.3,122.1,650.3,119.8,650.7,117.2L650.7,117.2z"/>
		<path class="st4" d="M659,118.1c-1.2,0.1-3.3,0.8-4.7,0.8c-0.9,0-2.6-0.7-3.9-2h0.1c-0.1-0.3-0.3-0.4-0.4-0.4
			c-0.1-0.3-0.3-0.4-0.4-0.5c0.4-0.1,0.9-0.4,0.9-1s-0.4-1-1-1h-0.3v-0.4h0.3c0.5,0,1-0.4,1-1s-0.4-1-1-1h-0.3v-0.4h0.3
			c0.5,0,1-0.4,1-1c0-0.5-0.4-1-1-1h-0.3v-0.4h0.3c0.5,0,1-0.4,1-1s-0.4-1-1-1h-0.3v-0.4h0.3c0.5,0,1-0.4,1-1s-0.4-1-1-1h-0.3v-0.8
			h0.3c0.5,0,1-0.4,1-1c0-0.5-0.4-1-1-1h-0.3v-0.4h0.3c0.5,0,1-0.4,1-1s-0.4-1-1-1h-0.3l0,0h0.3c0.5,0,1-0.4,1-1c0-0.5-0.4-1-1-1
			h-0.3V97h0.3c0.5,0,1-0.4,1-1s-0.4-1-1-1h-0.3v-0.4c0,0,0-0.1-0.1-0.1h-3c0,0-0.1,0-0.1,0.1v0.4h-0.1c-0.5,0-1,0.4-1,1s0.4,1,1,1
			h0.3v0.4h-0.3c-0.5,0-1,0.4-1,1c0,0.5,0.4,1,1,1h0.3v0.4h-0.3c-0.5,0-1,0.4-1,1s0.4,1,1,1h0.3v0.4h-0.3c-0.5,0-1,0.4-1,1
			s0.4,1,1,1h0.3v0.4h-0.3c-0.5,0-1,0.4-1,1s0.4,1,1,1h0.3v0.4h-0.3c-0.5,0-1,0.4-1,1c0,0.5,0.4,1,1,1h0.3v0.4h-0.3
			c-0.5,0-1,0.4-1,1s0.4,1,1,1h0.3v0.4h-0.3c-0.5,0-1,0.4-1,1s0.4,1,1,1h0.3v0.4h-0.3c-0.5,0-1,0.4-1,1c0,0.5,0.4,1,1,1h0.3v0.3
			c-0.1,0.1-0.1,0.1-0.3,0.3c-0.4,0-0.7,0.3-0.9,0.5h0.4c-1.6,1.3-3.8,2.2-4.6,2.5c-1.1,0.4-2.2,0.4-3.7,0.4c-1.5,0-3,0.1-3,0.4
			c0.1,0.3,1.8,0.5,3.3,0.8c1.4,0.4,2.5,0.5,2.8,1.2c0.4,0.7-0.3,1.8-1.1,2.5c-0.9,0.7-2.1,1-3.5,1.4c-1.4,0.4-3.3,0.9-3.3,1.1
			s2,0,3.1,0.7c1,0.7,1.2,2.1,1.6,3c0.3,0.9,0.5,1.1,0.7,0.4c0.1-0.7,0-2.3,0.4-3.3c0.4-1.1,1.2-1.7,1.7-2c0.4-0.4,4.2-4.1,4.8-4.3
			c0.5-0.4,1.8-1,2.8-1.1c1.1-0.1,2.1,0.3,3.4,1.3c1.3,1.1,3.1,3,4.3,4.1c1.2,1.1,2,1.3,2.5,1.2c0.4-0.1,0.4-0.7-0.3-1.8
			c-0.7-1.1-2.2-2.8-2.5-3.8s1-1.2,2.1-1.6c1.2-0.4,2.5-0.9,2.9-1.2C660.4,118.2,660.2,117.9,659,118.1z"/>
		<path class="st6" d="M633.4,126.5c-5.8,2.9-5.9,13.5-0.4,15.8c3,1.3,5.8-3.3,8-6.3C645,130.4,638.3,123.9,633.4,126.5z"/>
	</g>
	<g>
		<path id="path882_1_" class="st1" d="M858.5,117.2c-0.4-2.5-1.7-5.5-3-7.6c-1.3-2.3-2.9-4.1-4.4-5c-1.7-0.9-3.3-0.8-5.9,0.7
			c-2.5,1.6-5.9,4.4-8.6,8.2c-2.8,3.7-5.1,8.1-6.3,11c-1.3,2.9-1.6,4.1-1.7,5.1c-0.1,1,0,1.6-0.7,4.8c-0.7,3.3-2,9.2-2.8,13.3
			c-0.8,4.1-1,6.2-1,7.6c0,1.3,0.3,1.8,1.3,2.5c1.1,0.6,3.3,1.2,5.6,1c2.3-0.3,5-1.4,7.6-2.5c2.5-1,5.1-1.7,7.1-2.2
			c2-0.4,3.3-0.8,5.1-2.5c1.7-1.8,3.8-5.2,5.1-9.9c1.3-4.7,2-11,2.5-15.2C858.8,122.2,859,119.8,858.5,117.2L858.5,117.2z"/>
		<path id="path882-7_1_" class="st2" d="M858.5,117.2c-0.4-2.5-1.7-5.5-3-7.6c-1.3-2.3-2.9-4.1-4.4-5c-1.7-0.9-3.3-0.8-5.9,0.7
			c-2.5,1.6-5.9,4.4-8.6,8.2c-2.8,3.7-5.1,8.1-6.3,11c-1.3,2.9-1.6,4.1-1.7,5.1c-0.1,1,0,1.6,1.8,6c1.7,4.4,5,12.5,8,16.2
			c2.9,3.7,5.5,2.9,7.4,2.5s3.3-0.8,5.1-2.5c1.7-1.8,3.8-5.2,5.1-9.9c1.3-4.7,2-11,2.5-15.2C858.7,122.1,859,119.8,858.5,117.2
			L858.5,117.2z"/>
		<path id="path882-7-9_1_" class="st3" d="M858.5,117.2c-0.4-2.5-1.7-5.5-3-7.6c-1.3-2.3-2.9-4.1-4.4-5c-1.7-0.9-3.3-0.8-5.9,0.7
			c-2.5,1.6-5.9,4.4-8.1,7.2c-2.3,2.6-3.5,5.1-4.6,6.9c-1,1.8-1.6,3-2.1,5c-0.5,2-1.1,4.7,3.3,8c4.4,3.3,13.6,6.9,18.6,5.9
			c5-1.2,5.6-7.3,6.1-11.6C858.7,122.1,859,119.8,858.5,117.2z"/>
		<path id="path882-8_1_" class="st2" d="M865.2,117.2c0.4-2.5,1.7-5.5,3-7.6c1.3-2.3,2.9-4.1,4.4-5c1.7-0.9,3.3-0.8,5.9,0.7
			c2.5,1.6,5.9,4.4,8.6,8.2c2.8,3.7,5.1,8.1,6.3,11c1.3,2.9,1.6,4.1,1.7,5.1s0,1.6,0.7,4.8c0.7,3.3,2,9.2,2.8,13.3
			c0.8,4.1,1,6.2,1,7.6c0,1.3-0.3,1.8-1.3,2.5c-1.1,0.6-3.3,1.2-5.6,1c-2.3-0.3-5-1.4-7.6-2.5c-2.5-1-5.1-1.7-7.1-2.2
			s-3.3-0.8-5.1-2.5c-1.7-1.8-3.8-5.2-5.1-9.9c-1.3-4.7-2-11-2.5-15.2C864.9,122.2,864.8,119.8,865.2,117.2L865.2,117.2z"/>
		<path id="path882-7-5_1_" class="st3" d="M865.2,117.2c0.4-2.5,1.7-5.5,3-7.6c1.3-2.3,2.9-4.1,4.4-5c1.7-0.9,3.3-0.8,5.9,0.7
			c2.5,1.6,5.9,4.4,8.6,8.2c2.8,3.7,5.1,8.1,6.2,10.6c1.1,2.5,1.3,3.3,1.7,5.5c0.4,2.2,0.9,6.1-1,12.4c-1.8,6.3-6.3,15-8.8,13.9
			c-2.5-1.1-3-12.2-5.1-16.9c-2.2-4.7-6.1-2.9-8.4-3c-2.3,0-3.3-1.8-4.1-4.1c-0.9-2.2-1.8-4.7-2.3-7.3
			C864.8,122.1,864.8,119.8,865.2,117.2L865.2,117.2z"/>
		<path class="st4" d="M873.5,118.1c-1.2,0.1-3.3,0.8-4.7,0.8c-0.9,0-2.6-0.7-3.9-2h0.1c-0.1-0.3-0.3-0.4-0.4-0.4
			c-0.1-0.3-0.3-0.4-0.4-0.5c0.4-0.1,0.9-0.4,0.9-1s-0.4-1-1-1h-0.3v-0.4h0.3c0.5,0,1-0.4,1-1s-0.4-1-1-1h-0.3v-0.4h0.3
			c0.5,0,1-0.4,1-1c0-0.5-0.4-1-1-1h-0.3v-0.4h0.3c0.5,0,1-0.4,1-1s-0.4-1-1-1h-0.3v-0.4h0.3c0.5,0,1-0.4,1-1s-0.4-1-1-1h-0.3v-0.8
			h0.3c0.5,0,1-0.4,1-1c0-0.5-0.4-1-1-1h-0.3v-0.4h0.3c0.5,0,1-0.4,1-1s-0.4-1-1-1h-0.3l0,0h0.3c0.5,0,1-0.4,1-1c0-0.5-0.4-1-1-1
			h-0.3V97h0.3c0.5,0,1-0.4,1-1s-0.4-1-1-1h-0.3v-0.4c0,0,0-0.1-0.1-0.1h-3c0,0-0.1,0-0.1,0.1v0.4h-0.1c-0.5,0-1,0.4-1,1s0.4,1,1,1
			h0.3v0.4h-0.3c-0.5,0-1,0.4-1,1c0,0.5,0.4,1,1,1h0.3v0.4h-0.3c-0.5,0-1,0.4-1,1s0.4,1,1,1h0.3v0.4h-0.3c-0.5,0-1,0.4-1,1
			s0.4,1,1,1h0.3v0.4h-0.3c-0.5,0-1,0.4-1,1s0.4,1,1,1h0.3v0.4h-0.3c-0.5,0-1,0.4-1,1c0,0.5,0.4,1,1,1h0.3v0.4h-0.3
			c-0.5,0-1,0.4-1,1s0.4,1,1,1h0.3v0.4h-0.3c-0.5,0-1,0.4-1,1s0.4,1,1,1h0.3v0.4h-0.3c-0.5,0-1,0.4-1,1c0,0.5,0.4,1,1,1h0.3v0.3
			c-0.1,0.1-0.1,0.1-0.3,0.3c-0.4,0-0.7,0.3-0.9,0.5h0.4c-1.6,1.3-3.8,2.2-4.6,2.5c-1.1,0.4-2.2,0.4-3.7,0.4c-1.4,0-3,0.1-3,0.4
			c0.1,0.3,1.8,0.5,3.3,0.8c1.4,0.4,2.5,0.5,2.8,1.2c0.4,0.7-0.3,1.8-1.1,2.5c-0.9,0.7-2.1,1-3.5,1.4c-1.6,0.4-3.3,0.9-3.3,1.1
			s2,0,3.1,0.7c1,0.7,1.2,2.1,1.6,3c0.3,0.9,0.5,1.1,0.7,0.4s0-2.3,0.4-3.3c0.4-1.1,1.2-1.7,1.7-2c0.4-0.4,4.2-4.1,4.8-4.3
			c0.5-0.4,1.8-1,2.8-1.1c1.1-0.1,2.1,0.3,3.4,1.3c1.3,1.1,3.1,3,4.3,4.1c1.2,1.1,2,1.3,2.5,1.2c0.4-0.1,0.4-0.7-0.3-1.8
			c-0.7-1.1-2.2-2.8-2.5-3.8s1-1.2,2.1-1.6c1.2-0.4,2.5-0.9,2.9-1.2C874.9,118.2,874.7,117.9,873.5,118.1z"/>
		<path class="st7" d="M865.5,125.9c0.3,6.4,9.7,11,14.2,6.9c2.5-2.1-0.5-6.7-2.5-9.9C874,117,865.4,120.2,865.5,125.9z"/>
	</g>
</g>
<g>
	<g>
		<polygon class="st8" points="952.9,662.1 952.9,683.2 960.4,683.2 941.9,701.8 923.3,683.2 930.8,683.2 930.8,662.1 		"/>
	</g>
</g>
<g>
	<g class="st9">
		<path class="st7" d="M82.6,572.2c1.7,1.3,2.5,3.2,2.5,5.7c0,2.7-0.9,4.7-2.6,6c-1.8,1.3-4.1,2-7,2h-3.1v9.1H69v-24.8h6.5
			C78.5,570.3,80.9,570.9,82.6,572.2z M79.9,582.1c1-0.8,1.6-2.1,1.6-4.1c0-1.8-0.5-3.1-1.6-3.9s-2.5-1.2-4.5-1.2h-3.1v10.3h3
			C77.3,583.3,78.8,582.9,79.9,582.1z"/>
		<path class="st7" d="M99.1,575.9l-0.6,3.2c-0.6-0.1-1.1-0.2-1.7-0.2c-1.2,0-2.1,0.4-2.8,1.3c-0.7,0.9-1.3,2.2-1.7,4V595H89v-19
			h2.8l0.3,3.9c0.5-1.4,1.2-2.5,2.1-3.2s1.9-1.1,3-1.1C97.9,575.7,98.5,575.8,99.1,575.9z"/>
		<path class="st7" d="M115.1,578.3c1.5,1.8,2.2,4.2,2.2,7.2c0,2-0.3,3.7-1,5.2s-1.6,2.7-2.9,3.5s-2.8,1.2-4.5,1.2
			c-2.7,0-4.7-0.9-6.2-2.7s-2.2-4.2-2.2-7.2c0-2,0.3-3.7,1-5.2s1.6-2.7,2.9-3.5s2.8-1.2,4.6-1.2
			C111.6,575.7,113.6,576.6,115.1,578.3z M104,585.6c0,4.8,1.6,7.2,4.9,7.2s4.9-2.4,4.9-7.3c0-4.8-1.6-7.2-4.9-7.2
			S104,580.8,104,585.6z"/>
		<path class="st7" d="M132.4,594.2c-1.2,0.9-2.7,1.3-4.2,1.3c-1.6,0-2.9-0.5-3.8-1.4s-1.3-2.3-1.3-4v-11.4h-3.3v-2.6h3.3v-4.3
			l3.3-0.4v4.7h4.5l-0.4,2.6h-4.1V590c0,1,0.2,1.7,0.5,2.1c0.3,0.4,0.9,0.7,1.7,0.7c0.7,0,1.6-0.3,2.5-0.8L132.4,594.2z"/>
		<path class="st7" d="M149.5,586.7h-12.1c0.1,2.1,0.7,3.6,1.6,4.6c0.9,1,2.1,1.5,3.5,1.5c0.9,0,1.8-0.1,2.5-0.4
			c0.8-0.3,1.6-0.7,2.4-1.3l1.4,2c-2,1.6-4.2,2.4-6.6,2.4c-2.6,0-4.7-0.9-6.2-2.6c-1.5-1.7-2.2-4.1-2.2-7.1c0-2,0.3-3.7,1-5.2
			c0.6-1.5,1.5-2.7,2.7-3.6c1.2-0.9,2.6-1.3,4.2-1.3c2.5,0,4.5,0.8,5.8,2.5s2,3.9,2,6.9C149.6,585.6,149.5,586.2,149.5,586.7z
			 M146.3,584.1c0-1.9-0.4-3.3-1.1-4.3c-0.7-1-1.9-1.5-3.3-1.5c-2.7,0-4.2,2-4.4,6h8.9L146.3,584.1L146.3,584.1z"/>
		<path class="st7" d="M154.2,568c0.4,0.4,0.6,0.9,0.6,1.5s-0.2,1.1-0.6,1.5c-0.4,0.4-0.9,0.6-1.5,0.6s-1.1-0.2-1.5-0.6
			c-0.4-0.4-0.6-0.9-0.6-1.5s0.2-1.1,0.6-1.5c0.4-0.4,0.9-0.6,1.5-0.6S153.8,567.6,154.2,568z M158.2,576.1v19h-3.3v-19H158.2z
			 M161.8,568c0.4,0.4,0.6,0.9,0.6,1.5s-0.2,1.1-0.6,1.5c-0.4,0.4-0.9,0.6-1.5,0.6s-1.1-0.2-1.5-0.6c-0.4-0.4-0.6-0.9-0.6-1.5
			s0.2-1.1,0.6-1.5c0.4-0.4,0.9-0.6,1.5-0.6C160.9,567.4,161.4,567.6,161.8,568z"/>
		<path class="st7" d="M178,577.2c1,1,1.5,2.4,1.5,4.2V595h-3.3v-13.1c0-1.3-0.3-2.3-0.8-2.8c-0.5-0.6-1.2-0.8-2.2-0.8
			s-1.9,0.3-2.7,0.9c-0.8,0.6-1.5,1.4-2.2,2.5v13.5H165v-19h2.8l0.3,2.8c0.7-1,1.5-1.8,2.5-2.4c1-0.6,2.1-0.9,3.3-0.9
			C175.7,575.7,177,576.2,178,577.2z"/>
		<path class="st7" d="M199.3,592.4c0.3,0.4,0.7,0.7,1.2,0.8l-0.8,2.3c-1-0.1-1.8-0.4-2.4-0.8c-0.6-0.4-1-1.1-1.3-2
			c-1.3,1.9-3.2,2.8-5.7,2.8c-1.9,0-3.3-0.5-4.4-1.6c-1.1-1.1-1.6-2.4-1.6-4.1c0-2,0.7-3.6,2.2-4.6c1.5-1.1,3.5-1.6,6.2-1.6h2.9
			v-1.4c0-1.3-0.3-2.3-1-2.9s-1.6-0.9-3-0.9s-3.1,0.3-5.1,1l-0.8-2.4c2.4-0.9,4.5-1.3,6.6-1.3c2.2,0,3.9,0.5,5,1.6s1.7,2.6,1.7,4.7
			v8.7C198.9,591.4,199,592,199.3,592.4z M195.6,590.1v-4.4h-2.5c-3.5,0-5.3,1.3-5.3,3.9c0,1.1,0.3,2,0.8,2.6
			c0.6,0.6,1.4,0.9,2.4,0.9C193,593,194.5,592.1,195.6,590.1z"/>
		<path class="st7" d="M43.7,610.9c0.4,0.4,0.6,1,0.6,1.6s-0.2,1.2-0.6,1.6s-1,0.6-1.7,0.6s-1.2-0.2-1.7-0.6c-0.4-0.4-0.6-1-0.6-1.6
			s0.2-1.2,0.6-1.6c0.4-0.4,1-0.6,1.7-0.6C42.7,610.2,43.3,610.4,43.7,610.9z M43.7,619.3v19h-3.3v-19H43.7z"/>
		<path class="st7" d="M73.3,620.4c0.9,1,1.4,2.5,1.4,4.2v13.6h-3.3v-13.1c0-2.4-0.9-3.7-2.7-3.7c-0.9,0-1.7,0.3-2.4,0.8
			c-0.6,0.5-1.3,1.4-2.1,2.5v13.5H61v-13.1c0-2.4-0.9-3.7-2.7-3.7c-1,0-1.8,0.3-2.4,0.8c-0.6,0.6-1.3,1.4-2.1,2.5v13.5h-3.3v-19h2.8
			l0.3,2.8c1.4-2.1,3.2-3.2,5.5-3.2c1.2,0,2.2,0.3,3,0.9c0.8,0.6,1.4,1.4,1.8,2.5c0.7-1.1,1.6-1.9,2.5-2.5c0.9-0.6,2-0.9,3.2-0.9
			C71.2,618.9,72.4,619.4,73.3,620.4z"/>
		<path class="st7" d="M95.4,621.5c1.1,1.7,1.7,4.2,1.7,7.3c0,3-0.6,5.4-1.9,7.2s-3.1,2.7-5.5,2.7c-2.1,0-3.8-0.7-5-2.2v9l-3.3,0.4
			v-26.6h2.8l0.3,2.6c0.7-1,1.5-1.7,2.5-2.2s2-0.8,3.1-0.8C92.5,618.9,94.3,619.7,95.4,621.5z M93.6,628.8c0-4.8-1.4-7.3-4.3-7.3
			c-0.9,0-1.8,0.3-2.6,0.8c-0.8,0.6-1.4,1.3-2,2.1v9.3c0.5,0.7,1.1,1.3,1.8,1.7c0.7,0.4,1.5,0.6,2.4,0.6
			C92,636,93.6,633.6,93.6,628.8z"/>
		<path class="st7" d="M116.9,638.3h-2.8l-0.3-3c-0.7,1.2-1.5,2-2.5,2.6s-2.1,0.8-3.4,0.8c-1.7,0-3-0.5-3.9-1.5s-1.4-2.4-1.4-4.3
			v-13.6h3.3v13.2c0,1.3,0.2,2.2,0.7,2.8c0.5,0.5,1.2,0.8,2.2,0.8c1.8,0,3.4-1.1,4.8-3.3v-13.5h3.3
			C116.9,619.3,116.9,638.3,116.9,638.3z"/>
		<path class="st7" d="M124.6,637.6c-0.7-0.7-1.1-1.8-1.1-3.1v-22.9l3.3-0.4v23.2c0,0.5,0.1,0.9,0.3,1.2c0.2,0.2,0.5,0.4,0.9,0.4
			c0.5,0,0.9-0.1,1.2-0.2l0.9,2.3c-0.8,0.4-1.7,0.6-2.6,0.6C126.3,638.7,125.3,638.4,124.6,637.6z"/>
		<path class="st7" d="M142.9,619.4c1,0.4,2,0.9,3,1.6l-1.4,2.1c-0.9-0.6-1.7-1-2.5-1.2c-0.8-0.3-1.6-0.4-2.5-0.4
			c-1.1,0-1.9,0.2-2.6,0.7c-0.6,0.4-0.9,1.1-0.9,1.8c0,0.8,0.3,1.4,0.9,1.8c0.6,0.4,1.6,0.9,3.2,1.3c2.1,0.5,3.7,1.2,4.7,2.2
			c1,0.9,1.6,2.2,1.6,3.7c0,1.9-0.7,3.3-2.2,4.3s-3.2,1.5-5.3,1.5c-2.9,0-5.3-0.8-7.2-2.5l1.8-2c1.6,1.2,3.4,1.8,5.3,1.8
			c1.2,0,2.2-0.3,3-0.8c0.7-0.5,1.1-1.2,1.1-2.1c0-0.6-0.1-1.2-0.4-1.6c-0.3-0.4-0.7-0.7-1.4-1s-1.6-0.6-2.8-1
			c-2-0.5-3.5-1.2-4.4-2.1s-1.4-2-1.4-3.4c0-1,0.3-1.9,0.9-2.7c0.6-0.8,1.4-1.4,2.4-1.9c1-0.4,2.2-0.7,3.5-0.7
			S141.9,619.1,142.9,619.4z"/>
		<path class="st7" d="M164.4,621.5c1.5,1.8,2.2,4.2,2.2,7.2c0,2-0.3,3.7-1,5.2s-1.6,2.7-2.9,3.5c-1.3,0.8-2.8,1.2-4.5,1.2
			c-2.7,0-4.7-0.9-6.2-2.7s-2.2-4.2-2.2-7.2c0-2,0.3-3.7,1-5.2s1.6-2.7,2.9-3.5c1.3-0.8,2.8-1.2,4.6-1.2
			C160.9,618.9,163,619.8,164.4,621.5z M153.3,628.8c0,4.8,1.6,7.2,4.9,7.2c3.3,0,4.9-2.4,4.9-7.3c0-4.8-1.6-7.2-4.9-7.2
			C154.9,621.5,153.3,624,153.3,628.8z"/>
		<path class="st7" d="M182.2,619.1l-0.6,3.2c-0.6-0.1-1.1-0.2-1.7-0.2c-1.2,0-2.1,0.4-2.8,1.3c-0.7,0.9-1.3,2.2-1.7,4v10.8h-3.3
			v-19h2.8l0.3,3.9c0.5-1.4,1.2-2.5,2.1-3.2c0.9-0.7,1.9-1.1,3-1.1C181,618.9,181.7,619,182.2,619.1z"/>
		<path class="st7" d="M197.9,635.6c0.3,0.4,0.7,0.7,1.2,0.8l-0.8,2.3c-1-0.1-1.8-0.4-2.4-0.8c-0.6-0.4-1-1.1-1.3-2
			c-1.3,1.9-3.2,2.8-5.7,2.8c-1.9,0-3.3-0.5-4.4-1.6c-1.1-1.1-1.6-2.4-1.6-4.1c0-2,0.7-3.6,2.2-4.6c1.5-1.1,3.5-1.6,6.2-1.6h2.9
			v-1.4c0-1.3-0.3-2.3-1-2.9s-1.6-0.9-3-0.9s-3.1,0.3-5.1,1l-0.8-2.4c2.4-0.9,4.5-1.3,6.6-1.3c2.2,0,3.9,0.5,5,1.6s1.7,2.6,1.7,4.7
			v8.7C197.5,634.6,197.7,635.2,197.9,635.6z M194.2,633.3v-4.4h-2.5c-3.5,0-5.3,1.3-5.3,3.9c0,1.1,0.3,2,0.8,2.6
			c0.6,0.6,1.4,0.9,2.4,0.9C191.7,636.2,193.1,635.3,194.2,633.3z"/>
		<path class="st7" d="M226.5,613.6c1,0.4,2.1,1,3.1,1.9l-1.9,2.2c-1.5-1.2-3.1-1.8-4.8-1.8c-2.1,0-3.7,0.8-5,2.4
			c-1.3,1.6-1.9,4.1-1.9,7.6c0,3.4,0.6,5.9,1.9,7.5s2.9,2.4,5,2.4c1.1,0,2-0.2,2.8-0.5c0.8-0.4,1.6-0.9,2.5-1.5l1.7,2.2
			c-0.8,0.8-1.8,1.5-3,2s-2.6,0.8-4.1,0.8c-2,0-3.8-0.5-5.4-1.5s-2.8-2.5-3.7-4.4s-1.3-4.3-1.3-7s0.5-5,1.4-7
			c0.9-1.9,2.1-3.4,3.7-4.4c1.6-1,3.3-1.5,5.2-1.5C224.2,613.1,225.5,613.2,226.5,613.6z"/>
	</g>
	<g>
		<g>
			<circle class="st10" cx="184.6" cy="515.7" r="10.1"/>
			<circle class="st10" cx="110.9" cy="505.6" r="10.1"/>
			<circle class="st10" cx="81.9" cy="525.8" r="10.1"/>
			<circle class="st10" cx="112.4" cy="529.9" r="10.1"/>
			<circle class="st10" cx="73.4" cy="511.9" r="10.1"/>
			<circle class="st10" cx="99.3" cy="519.5" r="10.1"/>
			<circle class="st10" cx="165.4" cy="537.6" r="10.1"/>
			<circle class="st10" cx="117.2" cy="518.9" r="10.1"/>
			<circle class="st10" cx="129.5" cy="508.1" r="10.1"/>
			<circle class="st10" cx="151.5" cy="529.2" r="10.1"/>
			<circle class="st10" cx="177.6" cy="530.4" r="10.1"/>
			<circle class="st10" cx="142" cy="517.9" r="10.1"/>
			<circle class="st11" cx="145.9" cy="501.4" r="10.1"/>
			<circle class="st10" cx="166.3" cy="519" r="10.1"/>
		</g>
	</g>
	<circle class="st10" cx="95.2" cy="536.7" r="10.1"/>
</g>
<g>
	<g class="st9">
		<path class="st6" d="M82.6,339.2c1.7,1.3,2.5,3.2,2.5,5.7c0,2.7-0.9,4.7-2.6,6c-1.8,1.3-4.1,2-7,2h-3.1v9.1H69v-24.8h6.5
			C78.5,337.3,80.9,337.9,82.6,339.2z M79.9,349.1c1-0.8,1.6-2.1,1.6-4.1c0-1.8-0.5-3.1-1.6-3.9s-2.5-1.2-4.5-1.2h-3.1v10.3h3
			C77.3,350.3,78.8,349.9,79.9,349.1z"/>
		<path class="st6" d="M99.1,342.9l-0.6,3.2c-0.6-0.1-1.1-0.2-1.7-0.2c-1.2,0-2.1,0.4-2.8,1.3c-0.7,0.9-1.3,2.2-1.7,4V362H89v-19
			h2.8l0.3,3.9c0.5-1.4,1.2-2.5,2.1-3.2s1.9-1.1,3-1.1C97.9,342.7,98.5,342.8,99.1,342.9z"/>
		<path class="st6" d="M115.1,345.3c1.5,1.8,2.2,4.2,2.2,7.2c0,2-0.3,3.7-1,5.2s-1.6,2.7-2.9,3.5s-2.8,1.2-4.5,1.2
			c-2.7,0-4.7-0.9-6.2-2.7c-1.5-1.8-2.2-4.2-2.2-7.2c0-2,0.3-3.7,1-5.2s1.6-2.7,2.9-3.5s2.8-1.2,4.6-1.2
			C111.6,342.7,113.6,343.6,115.1,345.3z M104,352.6c0,4.8,1.6,7.2,4.9,7.2s4.9-2.4,4.9-7.3c0-4.8-1.6-7.2-4.9-7.2
			C105.6,345.3,104,347.8,104,352.6z"/>
		<path class="st6" d="M132.4,361.2c-1.2,0.9-2.7,1.3-4.2,1.3c-1.6,0-2.9-0.5-3.8-1.4s-1.3-2.3-1.3-4v-11.4h-3.3v-2.6h3.3v-4.3
			l3.3-0.4v4.7h4.5l-0.4,2.6h-4.1V357c0,1,0.2,1.7,0.5,2.1s0.9,0.7,1.7,0.7c0.7,0,1.6-0.3,2.5-0.8L132.4,361.2z"/>
		<path class="st6" d="M149.5,353.7h-12.1c0.1,2.1,0.7,3.6,1.6,4.6c0.9,1,2.1,1.5,3.5,1.5c0.9,0,1.8-0.1,2.5-0.4
			c0.8-0.3,1.6-0.7,2.4-1.3l1.4,2c-2,1.6-4.2,2.4-6.6,2.4c-2.6,0-4.7-0.9-6.2-2.6s-2.2-4.1-2.2-7.1c0-2,0.3-3.7,1-5.2
			c0.6-1.5,1.5-2.7,2.7-3.6s2.6-1.3,4.2-1.3c2.5,0,4.5,0.8,5.8,2.5s2,3.9,2,6.9C149.6,352.6,149.5,353.2,149.5,353.7z M146.3,351.1
			c0-1.9-0.4-3.3-1.1-4.3c-0.7-1-1.9-1.5-3.3-1.5c-2.7,0-4.2,2-4.4,6h8.9L146.3,351.1L146.3,351.1z"/>
		<path class="st6" d="M154.2,335c0.4,0.4,0.6,0.9,0.6,1.5s-0.2,1.1-0.6,1.5c-0.4,0.4-0.9,0.6-1.5,0.6s-1.1-0.2-1.5-0.6
			s-0.6-0.9-0.6-1.5s0.2-1.1,0.6-1.5c0.4-0.4,0.9-0.6,1.5-0.6S153.8,334.6,154.2,335z M158.2,343.1v19h-3.3v-19H158.2z M161.8,335
			c0.4,0.4,0.6,0.9,0.6,1.5s-0.2,1.1-0.6,1.5c-0.4,0.4-0.9,0.6-1.5,0.6s-1.1-0.2-1.5-0.6s-0.6-0.9-0.6-1.5s0.2-1.1,0.6-1.5
			c0.4-0.4,0.9-0.6,1.5-0.6C160.9,334.4,161.4,334.6,161.8,335z"/>
		<path class="st6" d="M178,344.2c1,1,1.5,2.4,1.5,4.2V362h-3.3v-13.1c0-1.3-0.3-2.3-0.8-2.8c-0.5-0.6-1.2-0.8-2.2-0.8
			s-1.9,0.3-2.7,0.9s-1.5,1.4-2.2,2.5v13.5H165v-19h2.8l0.3,2.8c0.7-1,1.5-1.8,2.5-2.4s2.1-0.9,3.3-0.9
			C175.7,342.7,177,343.2,178,344.2z"/>
		<path class="st6" d="M199.3,359.4c0.3,0.4,0.7,0.7,1.2,0.8l-0.8,2.3c-1-0.1-1.8-0.4-2.4-0.8c-0.6-0.4-1-1.1-1.3-2
			c-1.3,1.9-3.2,2.8-5.7,2.8c-1.9,0-3.3-0.5-4.4-1.6c-1.1-1.1-1.6-2.4-1.6-4.1c0-2,0.7-3.6,2.2-4.6c1.5-1.1,3.5-1.6,6.2-1.6h2.9
			v-1.4c0-1.3-0.3-2.3-1-2.9s-1.6-0.9-3-0.9s-3.1,0.3-5.1,1l-0.8-2.4c2.4-0.9,4.5-1.3,6.6-1.3c2.2,0,3.9,0.5,5,1.6s1.7,2.6,1.7,4.7
			v8.7C198.9,358.4,199,359,199.3,359.4z M195.6,357.1v-4.4h-2.5c-3.5,0-5.3,1.3-5.3,3.9c0,1.1,0.3,2,0.8,2.6
			c0.6,0.6,1.4,0.9,2.4,0.9C193,360,194.5,359.1,195.6,357.1z"/>
		<path class="st6" d="M42.8,377.9c0.4,0.4,0.6,1,0.6,1.6s-0.2,1.2-0.6,1.6s-1,0.6-1.7,0.6s-1.2-0.2-1.7-0.6c-0.4-0.4-0.6-1-0.6-1.6
			s0.2-1.2,0.6-1.6c0.4-0.4,1-0.6,1.7-0.6C41.8,377.2,42.4,377.4,42.8,377.9z M42.8,386.3v19h-3.3v-19H42.8z"/>
		<path class="st6" d="M72.5,387.4c0.9,1,1.4,2.5,1.4,4.2v13.6h-3.3v-13.1c0-2.4-0.9-3.7-2.7-3.7c-0.9,0-1.7,0.3-2.4,0.8
			c-0.6,0.5-1.3,1.4-2.1,2.5v13.5h-3.3v-13.1c0-2.4-0.9-3.7-2.7-3.7c-1,0-1.8,0.3-2.4,0.8c-0.6,0.6-1.3,1.4-2.1,2.5v13.5h-3.3v-19
			h2.8l0.3,2.8c1.4-2.1,3.2-3.2,5.5-3.2c1.2,0,2.2,0.3,3,0.9s1.4,1.4,1.8,2.5c0.7-1.1,1.6-1.9,2.5-2.5s2-0.9,3.2-0.9
			C70.3,385.9,71.5,386.4,72.5,387.4z"/>
		<path class="st6" d="M94.6,388.5c1.1,1.7,1.7,4.2,1.7,7.3c0,3-0.6,5.4-1.9,7.2s-3.1,2.7-5.5,2.7c-2.1,0-3.8-0.7-5-2.2v9l-3.3,0.4
			v-26.6h2.8l0.3,2.6c0.7-1,1.5-1.7,2.5-2.2s2-0.8,3.1-0.8C91.7,385.9,93.4,386.7,94.6,388.5z M92.7,395.8c0-4.8-1.4-7.3-4.3-7.3
			c-0.9,0-1.8,0.3-2.6,0.8c-0.8,0.6-1.4,1.3-2,2.1v9.3c0.5,0.7,1.1,1.3,1.8,1.7c0.7,0.4,1.5,0.6,2.4,0.6
			C91.1,403,92.7,400.6,92.7,395.8z"/>
		<path class="st6" d="M116,405.3h-2.8l-0.3-3c-0.7,1.2-1.5,2-2.5,2.6s-2.1,0.8-3.4,0.8c-1.7,0-3-0.5-3.9-1.5s-1.4-2.4-1.4-4.3
			v-13.6h3.3v13.2c0,1.3,0.2,2.2,0.7,2.8c0.5,0.5,1.2,0.8,2.2,0.8c1.8,0,3.4-1.1,4.8-3.3v-13.5h3.3C116,386.3,116,405.3,116,405.3z"
			/>
		<path class="st6" d="M123.8,404.6c-0.7-0.7-1.1-1.8-1.1-3.1v-22.9l3.3-0.4v23.2c0,0.5,0.1,0.9,0.3,1.2c0.2,0.2,0.5,0.4,0.9,0.4
			c0.5,0,0.9-0.1,1.2-0.2l0.9,2.3c-0.8,0.4-1.7,0.6-2.6,0.6C125.4,405.7,124.5,405.4,123.8,404.6z"/>
		<path class="st6" d="M142.1,386.4c1,0.4,2,0.9,3,1.6l-1.4,2.1c-0.9-0.6-1.7-1-2.5-1.2c-0.8-0.3-1.6-0.4-2.5-0.4
			c-1.1,0-1.9,0.2-2.6,0.7c-0.6,0.4-0.9,1.1-0.9,1.8c0,0.8,0.3,1.4,0.9,1.8c0.6,0.4,1.6,0.9,3.2,1.3c2.1,0.5,3.7,1.2,4.7,2.2
			c1,0.9,1.6,2.2,1.6,3.7c0,1.9-0.7,3.3-2.2,4.3s-3.2,1.5-5.3,1.5c-2.9,0-5.3-0.8-7.2-2.5l1.8-2c1.6,1.2,3.4,1.8,5.3,1.8
			c1.2,0,2.2-0.3,3-0.8c0.7-0.5,1.1-1.2,1.1-2.1c0-0.6-0.1-1.2-0.4-1.6c-0.3-0.4-0.7-0.7-1.4-1s-1.6-0.6-2.8-1
			c-2-0.5-3.5-1.2-4.4-2.1s-1.4-2-1.4-3.4c0-1,0.3-1.9,0.9-2.7c0.6-0.8,1.4-1.4,2.4-1.9c1-0.4,2.2-0.7,3.5-0.7
			S141,386.1,142.1,386.4z"/>
		<path class="st6" d="M163.6,388.5c1.5,1.8,2.2,4.2,2.2,7.2c0,2-0.3,3.7-1,5.2s-1.6,2.7-2.9,3.5c-1.3,0.8-2.8,1.2-4.5,1.2
			c-2.7,0-4.7-0.9-6.2-2.7c-1.5-1.8-2.2-4.2-2.2-7.2c0-2,0.3-3.7,1-5.2s1.6-2.7,2.9-3.5c1.3-0.8,2.8-1.2,4.6-1.2
			C160,385.9,162.1,386.8,163.6,388.5z M152.4,395.8c0,4.8,1.6,7.2,4.9,7.2c3.3,0,4.9-2.4,4.9-7.3c0-4.8-1.6-7.2-4.9-7.2
			C154.1,388.5,152.4,391,152.4,395.8z"/>
		<path class="st6" d="M181.4,386.1l-0.6,3.2c-0.6-0.1-1.1-0.2-1.7-0.2c-1.2,0-2.1,0.4-2.8,1.3s-1.3,2.2-1.7,4v10.8h-3.3v-19h2.8
			l0.3,3.9c0.5-1.4,1.2-2.5,2.1-3.2c0.9-0.7,1.9-1.1,3-1.1C180.2,385.9,180.8,386,181.4,386.1z"/>
		<path class="st6" d="M197.1,402.6c0.3,0.4,0.7,0.7,1.2,0.8l-0.8,2.3c-1-0.1-1.8-0.4-2.4-0.8c-0.6-0.4-1-1.1-1.3-2
			c-1.3,1.9-3.2,2.8-5.7,2.8c-1.9,0-3.3-0.5-4.4-1.6c-1.1-1.1-1.6-2.4-1.6-4.1c0-2,0.7-3.6,2.2-4.6c1.5-1.1,3.5-1.6,6.2-1.6h2.9
			v-1.4c0-1.3-0.3-2.3-1-2.9s-1.6-0.9-3-0.9s-3.1,0.3-5.1,1l-0.8-2.4c2.4-0.9,4.5-1.3,6.6-1.3c2.2,0,3.9,0.5,5,1.6s1.7,2.6,1.7,4.7
			v8.7C196.7,401.6,196.8,402.2,197.1,402.6z M193.4,400.3v-4.4h-2.5c-3.5,0-5.3,1.3-5.3,3.9c0,1.1,0.3,2,0.8,2.6
			c0.6,0.6,1.4,0.9,2.4,0.9C190.8,403.2,192.3,402.3,193.4,400.3z"/>
		<path class="st6" d="M228.3,394c1.1,0.9,1.6,2.3,1.6,4.2c0,4.7-3.3,7.1-9.8,7.1h-6.8v-24.8h5.9c3.1,0,5.5,0.5,7.2,1.5
			s2.5,2.6,2.5,4.7c0,1.4-0.5,2.6-1.4,3.6s-2,1.6-3.3,1.8C225.8,392.5,227.2,393.1,228.3,394z M216.6,383.2v7.8h3.7
			c1.4,0,2.6-0.3,3.5-1s1.4-1.7,1.4-3c0-1.4-0.5-2.4-1.5-3s-2.4-0.8-4.4-0.8H216.6z M224.7,401.7c1.1-0.6,1.6-1.7,1.6-3.4
			c0-1.6-0.5-2.8-1.5-3.5s-2.4-1.1-4-1.1h-4.1v8.9h3.4C222.1,402.6,223.6,402.3,224.7,401.7z"/>
	</g>
</g>
<g>
	<circle class="st12" cx="162" cy="289.5" r="10.1"/>
	<circle class="st12" cx="118.4" cy="298.4" r="10.1"/>
	<circle class="st12" cx="110.3" cy="287.6" r="10.1"/>
	<circle class="st12" cx="187" cy="269.7" r="10.1"/>
	<circle class="st12" cx="176.9" cy="284.9" r="10.1"/>
	<path class="st12" d="M99.4,295.3c6.9-1.1,12.8,4.8,11.7,11.7c-0.7,4.2-4.1,7.6-8.2,8.2c-6.9,1.1-12.8-4.8-11.7-11.7
		C91.9,299.4,95.3,296,99.4,295.3z"/>
	<circle class="st12" cx="169.3" cy="271.1" r="10.1"/>
	<circle class="st12" cx="133.1" cy="303.4" r="10.1"/>
	<circle class="st12" cx="145.3" cy="259.8" r="10.1"/>
	<circle class="st12" cx="129.2" cy="285.5" r="10.1"/>
	<circle class="st12" cx="154.3" cy="277.1" r="10.1"/>
	<circle class="st12" cx="138.6" cy="275.9" r="10.1"/>
	<circle class="st12" cx="144.7" cy="291.6" r="10.1"/>
</g>
<ellipse class="st13" cx="113.3" cy="273" rx="10.1" ry="10.1"/>
<circle class="st11" cx="128.4" cy="266.9" r="10.1"/>
<g>
	<g>
		<circle class="st14" cx="193.2" cy="48.1" r="10.1"/>
		<circle class="st14" cx="143.4" cy="14.1" r="10.1"/>
		<circle class="st14" cx="120.3" cy="77.6" r="10.1"/>
		<circle class="st14" cx="158.5" cy="19.4" r="10.1"/>
		<circle class="st14" cx="102.4" cy="84.2" r="10.1"/>
		<circle class="st14" cx="172.2" cy="30.7" r="10.1"/>
		<circle class="st14" cx="138.4" cy="56.9" r="10.1"/>
		<circle class="st14" cx="179.3" cy="61.1" r="10.1"/>
		<circle class="st14" cx="158" cy="35.7" r="10.1"/>
		<circle class="st14" cx="155.3" cy="49.8" r="10.1"/>
		<circle class="st14" cx="139.2" cy="75.5" r="10.1"/>
		<circle class="st14" cx="164.3" cy="67.1" r="10.1"/>
		<circle class="st14" cx="148.6" cy="65.9" r="10.1"/>
		<circle class="st11" cx="195.8" cy="63" r="10.1"/>
	</g>
	<g class="st9">
		<path class="st5" d="M82.6,112.2c1.7,1.3,2.5,3.2,2.5,5.7c0,2.7-0.9,4.7-2.6,6c-1.8,1.3-4.1,2-7,2h-3.1v9.1H69v-24.8h6.5
			C78.5,110.3,80.9,110.9,82.6,112.2z M79.9,122.1c1-0.8,1.6-2.1,1.6-4.1c0-1.8-0.5-3.1-1.6-3.9s-2.5-1.2-4.5-1.2h-3.1v10.3h3
			C77.3,123.3,78.8,122.9,79.9,122.1z"/>
		<path class="st5" d="M99.1,115.9l-0.6,3.2c-0.6-0.1-1.1-0.2-1.7-0.2c-1.2,0-2.1,0.4-2.8,1.3c-0.7,0.9-1.3,2.2-1.7,4V135H89v-19
			h2.8l0.3,3.9c0.5-1.4,1.2-2.5,2.1-3.2s1.9-1.1,3-1.1C97.9,115.7,98.5,115.8,99.1,115.9z"/>
		<path class="st5" d="M115.1,118.3c1.5,1.8,2.2,4.2,2.2,7.2c0,2-0.3,3.7-1,5.2s-1.6,2.7-2.9,3.5s-2.8,1.2-4.5,1.2
			c-2.7,0-4.7-0.9-6.2-2.7s-2.2-4.2-2.2-7.2c0-2,0.3-3.7,1-5.2s1.6-2.7,2.9-3.5s2.8-1.2,4.6-1.2
			C111.6,115.7,113.6,116.6,115.1,118.3z M104,125.6c0,4.8,1.6,7.2,4.9,7.2s4.9-2.4,4.9-7.3c0-4.8-1.6-7.2-4.9-7.2
			S104,120.8,104,125.6z"/>
		<path class="st5" d="M132.4,134.2c-1.2,0.9-2.7,1.3-4.2,1.3c-1.6,0-2.9-0.5-3.8-1.4s-1.3-2.3-1.3-4v-11.4h-3.3v-2.6h3.3v-4.3
			l3.3-0.4v4.7h4.5l-0.4,2.6h-4.1V130c0,1,0.2,1.7,0.5,2.1c0.3,0.4,0.9,0.7,1.7,0.7c0.7,0,1.6-0.3,2.5-0.8L132.4,134.2z"/>
		<path class="st5" d="M149.5,126.7h-12.1c0.1,2.1,0.7,3.6,1.6,4.6c0.9,1,2.1,1.5,3.5,1.5c0.9,0,1.8-0.1,2.5-0.4
			c0.8-0.3,1.6-0.7,2.4-1.3l1.4,2c-2,1.6-4.2,2.4-6.6,2.4c-2.6,0-4.7-0.9-6.2-2.6c-1.5-1.7-2.2-4.1-2.2-7.1c0-2,0.3-3.7,1-5.2
			c0.6-1.5,1.5-2.7,2.7-3.6s2.6-1.3,4.2-1.3c2.5,0,4.5,0.8,5.8,2.5s2,3.9,2,6.9C149.6,125.6,149.5,126.2,149.5,126.7z M146.3,124.1
			c0-1.9-0.4-3.3-1.1-4.3c-0.7-1-1.9-1.5-3.3-1.5c-2.7,0-4.2,2-4.4,6h8.9L146.3,124.1L146.3,124.1z"/>
		<path class="st5" d="M154.2,108c0.4,0.4,0.6,0.9,0.6,1.5s-0.2,1.1-0.6,1.5c-0.4,0.4-0.9,0.6-1.5,0.6s-1.1-0.2-1.5-0.6
			s-0.6-0.9-0.6-1.5s0.2-1.1,0.6-1.5c0.4-0.4,0.9-0.6,1.5-0.6S153.8,107.6,154.2,108z M158.2,116.1v19h-3.3v-19
			C154.9,116.1,158.2,116.1,158.2,116.1z M161.8,108c0.4,0.4,0.6,0.9,0.6,1.5s-0.2,1.1-0.6,1.5c-0.4,0.4-0.9,0.6-1.5,0.6
			s-1.1-0.2-1.5-0.6s-0.6-0.9-0.6-1.5s0.2-1.1,0.6-1.5c0.4-0.4,0.9-0.6,1.5-0.6C160.9,107.4,161.4,107.6,161.8,108z"/>
		<path class="st5" d="M178,117.2c1,1,1.5,2.4,1.5,4.2V135h-3.3v-13.1c0-1.3-0.3-2.3-0.8-2.8c-0.5-0.6-1.2-0.8-2.2-0.8
			s-1.9,0.3-2.7,0.9s-1.5,1.4-2.2,2.5v13.5H165v-19h2.8l0.3,2.8c0.7-1,1.5-1.8,2.5-2.4s2.1-0.9,3.3-0.9
			C175.7,115.7,177,116.2,178,117.2z"/>
		<path class="st5" d="M199.3,132.4c0.3,0.4,0.7,0.7,1.2,0.8l-0.8,2.3c-1-0.1-1.8-0.4-2.4-0.8c-0.6-0.4-1-1.1-1.3-2
			c-1.3,1.9-3.2,2.8-5.7,2.8c-1.9,0-3.3-0.5-4.4-1.6c-1.1-1.1-1.6-2.4-1.6-4.1c0-2,0.7-3.6,2.2-4.6c1.5-1.1,3.5-1.6,6.2-1.6h2.9
			v-1.4c0-1.3-0.3-2.3-1-2.9s-1.6-0.9-3-0.9s-3.1,0.3-5.1,1l-0.8-2.4c2.4-0.9,4.5-1.3,6.6-1.3c2.2,0,3.9,0.5,5,1.6s1.7,2.6,1.7,4.7
			v8.7C198.9,131.4,199,132,199.3,132.4z M195.6,130.1v-4.4h-2.5c-3.5,0-5.3,1.3-5.3,3.9c0,1.1,0.3,2,0.8,2.6
			c0.6,0.6,1.4,0.9,2.4,0.9C193,133,194.5,132.1,195.6,130.1z"/>
		<path class="st5" d="M43.5,150.9c0.4,0.4,0.6,1,0.6,1.6s-0.2,1.2-0.6,1.6s-1,0.6-1.7,0.6s-1.2-0.2-1.7-0.6c-0.4-0.4-0.6-1-0.6-1.6
			s0.2-1.2,0.6-1.6c0.4-0.4,1-0.6,1.7-0.6C42.5,150.2,43,150.4,43.5,150.9z M43.5,159.3v19h-3.3v-19H43.5z"/>
		<path class="st5" d="M73.1,160.4c0.9,1,1.4,2.5,1.4,4.2v13.6h-3.3v-13.1c0-2.4-0.9-3.7-2.7-3.7c-0.9,0-1.7,0.3-2.4,0.8
			c-0.6,0.5-1.3,1.4-2.1,2.5v13.5h-3.3v-13.1c0-2.4-0.9-3.7-2.7-3.7c-1,0-1.8,0.3-2.4,0.8c-0.6,0.6-1.3,1.4-2.1,2.5v13.5h-3.3v-19
			H53l0.3,2.8c1.4-2.1,3.2-3.2,5.5-3.2c1.2,0,2.2,0.3,3,0.9c0.8,0.6,1.4,1.4,1.8,2.5c0.7-1.1,1.6-1.9,2.5-2.5s2-0.9,3.2-0.9
			C70.9,158.9,72.2,159.4,73.1,160.4z"/>
		<path class="st5" d="M95.2,161.5c1.1,1.7,1.7,4.2,1.7,7.3c0,3-0.6,5.4-1.9,7.2s-3.1,2.7-5.5,2.7c-2.1,0-3.8-0.7-5-2.2v9l-3.3,0.4
			v-26.6H84l0.3,2.6c0.7-1,1.5-1.7,2.5-2.2s2-0.8,3.1-0.8C92.3,158.9,94.1,159.7,95.2,161.5z M93.3,168.8c0-4.8-1.4-7.3-4.3-7.3
			c-0.9,0-1.8,0.3-2.6,0.8c-0.8,0.6-1.4,1.3-2,2.1v9.3c0.5,0.7,1.1,1.3,1.8,1.7c0.7,0.4,1.5,0.6,2.4,0.6
			C91.8,176,93.3,173.6,93.3,168.8z"/>
		<path class="st5" d="M116.7,178.3h-2.8l-0.3-3c-0.7,1.2-1.5,2-2.5,2.6s-2.1,0.8-3.4,0.8c-1.7,0-3-0.5-3.9-1.5s-1.4-2.4-1.4-4.3
			v-13.6h3.3v13.2c0,1.3,0.2,2.2,0.7,2.8c0.5,0.5,1.2,0.8,2.2,0.8c1.8,0,3.4-1.1,4.8-3.3v-13.5h3.3
			C116.7,159.3,116.7,178.3,116.7,178.3z"/>
		<path class="st5" d="M124.4,177.6c-0.7-0.7-1.1-1.8-1.1-3.1v-22.9l3.3-0.4v23.2c0,0.5,0.1,0.9,0.3,1.2c0.2,0.2,0.5,0.4,0.9,0.4
			c0.5,0,0.9-0.1,1.2-0.2l0.9,2.3c-0.8,0.4-1.7,0.6-2.6,0.6C126.1,178.7,125.1,178.4,124.4,177.6z"/>
		<path class="st5" d="M142.7,159.4c1,0.4,2,0.9,3,1.6l-1.4,2.1c-0.9-0.6-1.7-1-2.5-1.2c-0.8-0.3-1.6-0.4-2.5-0.4
			c-1.1,0-1.9,0.2-2.6,0.7c-0.6,0.4-0.9,1.1-0.9,1.8c0,0.8,0.3,1.4,0.9,1.8c0.6,0.4,1.6,0.9,3.2,1.3c2.1,0.5,3.7,1.2,4.7,2.2
			c1,0.9,1.6,2.2,1.6,3.7c0,1.9-0.7,3.3-2.2,4.3s-3.2,1.5-5.3,1.5c-2.9,0-5.3-0.8-7.2-2.5l1.8-2c1.6,1.2,3.4,1.8,5.3,1.8
			c1.2,0,2.2-0.3,3-0.8c0.7-0.5,1.1-1.2,1.1-2.1c0-0.6-0.1-1.2-0.4-1.6c-0.3-0.4-0.7-0.7-1.4-1s-1.6-0.6-2.8-1
			c-2-0.5-3.5-1.2-4.4-2.1s-1.4-2-1.4-3.4c0-1,0.3-1.9,0.9-2.7c0.6-0.8,1.4-1.4,2.4-1.9c1-0.4,2.2-0.7,3.5-0.7
			S141.7,159.1,142.7,159.4z"/>
		<path class="st5" d="M164.2,161.5c1.5,1.8,2.2,4.2,2.2,7.2c0,2-0.3,3.7-1,5.2s-1.6,2.7-2.9,3.5c-1.3,0.8-2.8,1.2-4.5,1.2
			c-2.7,0-4.7-0.9-6.2-2.7s-2.2-4.2-2.2-7.2c0-2,0.3-3.7,1-5.2s1.6-2.7,2.9-3.5c1.3-0.8,2.8-1.2,4.6-1.2
			C160.7,158.9,162.7,159.8,164.2,161.5z M153.1,168.8c0,4.8,1.6,7.2,4.9,7.2c3.3,0,4.9-2.4,4.9-7.3c0-4.8-1.6-7.2-4.9-7.2
			C154.7,161.5,153.1,164,153.1,168.8z"/>
		<path class="st5" d="M182,159.1l-0.6,3.2c-0.6-0.1-1.1-0.2-1.7-0.2c-1.2,0-2.1,0.4-2.8,1.3c-0.7,0.9-1.3,2.2-1.7,4v10.8h-3.3v-19
			h2.8l0.3,3.9c0.5-1.4,1.2-2.5,2.1-3.2c0.9-0.7,1.9-1.1,3-1.1C180.8,158.9,181.4,159,182,159.1z"/>
		<path class="st5" d="M197.7,175.6c0.3,0.4,0.7,0.7,1.2,0.8l-0.8,2.3c-1-0.1-1.8-0.4-2.4-0.8c-0.6-0.4-1-1.1-1.3-2
			c-1.3,1.9-3.2,2.8-5.7,2.8c-1.9,0-3.3-0.5-4.4-1.6c-1.1-1.1-1.6-2.4-1.6-4.1c0-2,0.7-3.6,2.2-4.6c1.5-1.1,3.5-1.6,6.2-1.6h2.9
			v-1.4c0-1.3-0.3-2.3-1-2.9s-1.6-0.9-3-0.9s-3.1,0.3-5.1,1l-0.8-2.4c2.4-0.9,4.5-1.3,6.6-1.3c2.2,0,3.9,0.5,5,1.6s1.7,2.6,1.7,4.7
			v8.7C197.3,174.6,197.4,175.2,197.7,175.6z M194,173.3v-4.4h-2.5c-3.5,0-5.3,1.3-5.3,3.9c0,1.1,0.3,2,0.8,2.6
			c0.6,0.6,1.4,0.9,2.4,0.9C191.4,176.2,192.9,175.3,194,173.3z"/>
		<path class="st5" d="M227,178.3l-1.9-6.2h-9.4l-1.9,6.2h-3.5l8-24.8h4.3l7.9,24.8H227z M216.6,169.3h7.7l-3.9-13L216.6,169.3z"/>
	</g>
</g>
<line class="st15" x1="252.4" y1="132.2" x2="456.4" y2="132.2"/>
<polyline class="st16" points="252.4,352.2 636.5,352.2 636.4,135.2 "/>
<polyline class="st17" points="252.4,584.2 878,584.2 873.4,129.2 "/>
</svg>
