<?xml version="1.0" encoding="utf-8"?>
<!-- Generator: Adobe Illustrator 24.1.0, SVG Export Plug-In . SVG Version: 6.00 Build 0)  -->
<svg version="1.1" id="Capa_1" xmlns="http://www.w3.org/2000/svg" xmlns:xlink="http://www.w3.org/1999/xlink" x="0px" y="0px"
	 viewBox="0 0 1385.1 1444.7" style="enable-background:new 0 0 1385.1 1444.7;" xml:space="preserve">
<style type="text/css">
	.st0{fill:none;stroke:#C5DADD;stroke-width:3;stroke-miterlimit:10;}
	.st1{fill:#C0D9DF;}
	.st2{fill:#FFCC33;}
	.st3{fill:#FA7F43;}
	.st4{fill:#CCCC66;}
	.st5{fill:#373A47;}
	.st6{fill:none;stroke:#373A47;stroke-miterlimit:10;}
	.st7{fill:none;}
	.st8{fill:#CC6633;}
	.st9{fill:#FFFFFF;}
	.st10{fill:#C5DADD;}
	.st11{fill:#032836;}
	.st12{fill:none;stroke:#8FB5BC;stroke-width:18;stroke-miterlimit:10;}
	.st13{fill:#FFFFFF;stroke:#373A47;stroke-width:0.5669;stroke-miterlimit:10;}
	.st14{fill:none;stroke:#FA7F43;stroke-miterlimit:10;}
	.st15{fill:none;stroke:#C5DADD;stroke-miterlimit:10;}
	.st16{fill:none;stroke:#7C7272;stroke-miterlimit:10;}
	.st17{fill:#7C7272;}
	.st18{font-family:'FiraSans-Bold';}
	.st19{font-size:30px;}
	.st20{fill:#8FB5BC;}
</style>
<g>
	<path class="st0" d="M155.6,811.1c188-55.6,399.1-35.5,620.6,18.9c231.3,62,429.9,57,609.4,13.9"/>
	<g>
		<path class="st1" d="M235.4,852.3H285c0-11.6,0.1-57.1,0.1-66.2c-16.9,2-33.4,4.5-49.7,7.5C235.3,802.1,235.4,841.2,235.4,852.3z"
			/>
		<path class="st1" d="M314,843h49.5l0.1-62.9c-16.8,0.6-33.4,1.6-49.6,3V843z"/>
		<path class="st2" d="M470.8,861.6h50.4v-75.8c-17.1-1.7-33.8-3.1-50.3-4.1L470.8,861.6z"/>
		<path class="st2" d="M556.6,870.3h50.3v-73.4c-17.1-2.7-33.8-5.1-50.3-7.1V870.3z"/>
		<path class="st1" d="M714.1,898.4h49.5c0-9.7,0-60.4,0-69.9c-16.8-4-33.3-7.8-49.5-11.3C714.1,830.2,714.1,888.4,714.1,898.4z"/>
		<path class="st2" d="M948.9,919.1h50.3v-46.6c-16.7-1.6-33.5-3.5-50.3-5.8V919.1z"/>
		<path class="st1" d="M1113,877.9c-2.2,0-4.4,0-6.5,0c0,13.8,0,37.8,0,44.6h49.6c0-6.6,0-30.2,0-45.4c-10.3,0.4-20.7,0.6-31.1,0.7
			C1121,877.9,1117,877.9,1113,877.9z"/>
		<path class="st2" d="M1184.7,917h50.3v-45.5c-16.7,1.8-33.5,3.2-50.3,4.2V917z"/>
		<path class="st3" d="M635.1,889h50.3v-77.9c-17.1-3.5-33.8-6.6-50.3-9.5V889z"/>
		<path class="st3" d="M1027.5,923.8h50.3v-46.4c-16.7-0.5-33.5-1.3-50.3-2.5V923.8z"/>
		<path class="st3" d="M1263.2,907.7h50.3v-47.2c-16.8,3-33.5,5.5-50.3,7.7V907.7z"/>
		<path class="st4" d="M842.7,844.2l-21.6-4.5c7.2,1.7,14.5,3.3,21.6,4.9V844.2z"/>
		<path class="st4" d="M792.4,907.8h50.3v-60.1c-16.7-3.7-33.4-7.6-50.3-12V907.8z"/>
		<path class="st4" d="M871,917.1h50.3v-54.5c-16.7-2.6-33.4-5.6-50.3-9L871,917.1z"/>
		<path class="st4" d="M156.4,861.6h50.3v-62.2c-17.1,3.8-33.8,8.1-50.3,13L156.4,861.6z"/>
		<path class="st3" d="M392.2,779.6v72.9h50.3v-72.1c-6.7-0.3-13.4-0.4-20.1-0.6C412.2,779.5,402.2,779.5,392.2,779.6z"/>
		<path class="st4" d="M1335.8,903.1h50.3v-57.8c-16.8,4-33.6,7.7-50.3,11V903.1z"/>
	</g>
	<g>
		<g>
			<polygon class="st5" points="748.4,726.8 748.4,750 756.6,750 736.3,770.5 715.8,750 724.1,750 724.1,726.8 			"/>
		</g>
	</g>
	<g>
		<g>
			<polygon class="st5" points="1145.9,760.8 1145.9,784 1154.1,784 1133.8,804.5 1113.3,784 1121.6,784 1121.6,760.8 			"/>
		</g>
	</g>
	<ellipse class="st6" cx="336.8" cy="989.8" rx="65" ry="37.4"/>
	<ellipse class="st6" cx="579.6" cy="1027.2" rx="65" ry="37.4"/>
	<ellipse class="st6" cx="820.9" cy="1046" rx="65" ry="37.4"/>
	<ellipse class="st6" cx="1054.4" cy="1046" rx="65" ry="37.4"/>
	<ellipse class="st6" cx="1292.1" cy="1039.8" rx="65" ry="37.4"/>
	<g>
		<g>
			<path class="st7" d="M891.1,500.8L866,477.2V371.9c-1.9-2.5-3.7-4.9-5.6-7.4c-7.7-9.2-15.2-17.6-22.7-25.2v137.9l-25.2,23.6
				l-25.1-23.6V299.8c-9.5-5.2-19-9.1-28.5-11.7c-0.1,82-0.3,178.3-0.5,178.4c0,13.6-11.1,24.7-24.7,24.7S709,481.6,709,468
				c0-0.2-0.1-97.3-0.2-180c-9.5,2.6-18.9,6.6-28.3,12v193.6l-25.2-23.9l-25.1,23.8V344.1c-0.2,0.2-0.4,0.4-0.6,0.7
				c-9.5,11.1-18.7,23.5-27.7,36.7v110c-5.4-8.4-14.6-13.9-25.2-13.9c-10.6,0-19.8,5.5-25.1,13.9v-27.2c-4.2,7.5-8.4,15-12.6,22.5
				c-0.4,0.8-0.9,1.5-1.3,2.3c4.7,8.6,9.5,17.2,14.3,25.8c0-3.7,0-5.7,0-5.8c0-13.6,11.1-24.7,24.7-24.7s24.7,11.1,24.7,24.7
				c0,0.1,0.1,39.2,0.2,86.7c7.1,10.1,14.4,19.6,21.8,28.3c2.2,2.6,4.5,5.2,6.7,7.6v-130l25.2-23.6l25.1,23.6v169.8
				c9.3,4.6,18.8,7.8,28.4,9.6V484.1c5.4,8.4,14.6,13.9,25.2,13.9c10.5,0,19.8-5.5,25.1-13.9v194.1c9.5-2.7,18.9-6.8,28.3-12.1v-181
				l25.1,23.9l25.2-23.9v139.6c9.6-10.4,19-22.2,28.3-35.2V485.1l25.1,23.9l25.2-23.9v17.4c0.3-0.6,0.5-1.1,0.8-1.7l0.1-0.1
				c4.3-7.3,8.5-14.8,12.7-22.4c-4.5-8.6-9-17.1-13.6-25.5v24.5L891.1,500.8z"/>
			<path class="st7" d="M1286.4,469.8l-25.1,23.9V379.4c-9-13-18.5-24.7-28.3-35.1v147.1c-5.4-8.4-14.6-13.9-25.2-13.9
				c-10.6,0-19.8,5.5-25.1,13.9V304.6c-9.4-5.1-18.9-9-28.5-11.8c-0.1,83.1-0.3,173.6-0.3,173.8c0,13.6-11.1,24.7-24.7,24.7
				s-24.7-11.1-24.7-24.7c0-0.2-0.1-92.5-0.2-176.6c-9.7,1.8-19.2,4.9-28.5,9.5v194.2l-25.2-23.9l-25.1,23.8V336.8
				c-10,9.3-19.4,20.2-28.2,32.2v122.4c-5.4-8.4-14.6-13.9-25.2-13.9s-19.9,5.5-25.1,13.9V453c-0.5,0.9-1,1.8-1.5,2.7
				c-4,7.5-8.1,15.1-12.3,22.6c2.8,5.3,5.6,10.7,8.4,16.1c2,3.8,4,7.7,6,11.5c1.5-12.1,11.9-21.6,24.5-21.6
				c13.6,0,24.7,11.1,24.7,24.7c0,0.1,0,37.9,0.1,84c9.5,12.9,19,24.5,28.5,34.7V501.6l25.2-23.6l25.1,23.6v168
				c9.4,5.4,18.9,9.5,28.3,12.2V484.1c5.4,8.4,14.6,13.9,25.2,13.9c10.6,0,19.8-5.5,25.1-13.9v198.2c9.7-2.5,19.2-6.5,28.6-11.8
				c0.1-77.3,0.2-161.4,0.2-161.5c0-13.6,11.1-24.7,24.7-24.7s24.7,11.1,24.7,24.7c0,0.1,0.1,58.5,0.2,120.7
				c9.7-10.4,19.2-21.9,28.5-34.2v-93.8l25.2-23.6l25.1,23.6v16.5c5.2-8.9,10.2-18,15.2-27c-4.9-9.8-10-19.5-15.1-29.2v31.9
				L1286.4,469.8z"/>
			<path class="st7" d="M495.9,477.5c-10.5,0-19.8,5.5-25.1,13.9V381.5c-9.1-13.3-18.5-25.8-28.2-37.1v127.6v9.5v6.3v6l-25.2-23.9
				l-25.1,23.9v-6v-6.3v-9.5V300.7c-9.1-5.3-18.5-9.3-28.3-12v179.2c-0.1-0.3-0.3-0.5-0.4-0.7c0,0.3,0,0.7,0,1
				c0,13.6-11.1,24.7-24.7,24.7c-13.6,0-24.7-11.1-24.7-24.7c0-0.3,0-0.7,0-1c-0.1,0.3-0.3,0.5-0.4,0.7V286.3
				c-9.6,2-19.1,5.5-28.6,10.4l0,171.1c-0.1-0.3-0.3-0.5-0.4-0.7c0,0.3,0,0.7,0,1c0,13.6-11.1,24.7-24.7,24.7
				c-13.6,0-24.7-11.1-24.7-24.7c0-0.3,0-0.7,0-1c-0.1,0.3-0.3,0.5-0.4,0.7V337.1c-2.3,2.5-4.6,5.1-6.9,7.7
				c-7.3,8.4-14.4,17.5-21.3,27.1v53.5v51.9l-25.2,23.6l-25.1-23.6v-8.9v-16.5c-5.2,9.2-10.4,18.5-15.5,27.9
				c5.1,9.5,10.2,19,15.4,28.4v-11v-9.5v-2.5l25.2,23.9l25.1-23.9v2.5v9.5v94.3c9.1,13.1,18.5,25.4,28.2,36.5V485.6
				c5.4,8.4,14.6,13.9,25.2,13.9c10.6,0,19.9-5.5,25.1-13.7v184.6c9.1,5.1,18.6,9,28.4,11.5V485.6c5.4,8.4,14.6,13.9,25.2,13.9
				c10.5,0,19.8-5.5,25-13.8v197.9c6.8-1.5,13.6-3.8,20.4-6.8c2.7-1.2,5.4-2.5,8-4V501.6l25.2-23.6l25.1,23.6v129.2
				c9.8-11.1,19.4-23.6,28.7-37c0.1-46.6,0.1-84.7,0.1-84.8c0-13.6,11.1-24.7,24.7-24.7s24.7,11.1,24.7,24.7c0,0,0,1.5,0,4.1
				c4.5-8,9.1-16.1,13.6-24.1c-0.5-0.9-1-1.8-1.5-2.7c-3.9-7-7.8-14.1-11.7-21.1v26.2C515.7,483,506.5,477.5,495.9,477.5z"/>
			<path class="st2" d="M260.1,499.5c-10.6,0-19.8-5.5-25.2-13.9v142.3c15.7,17.8,32.4,32.5,50.3,42.6V485.8
				C280,494,270.7,499.5,260.1,499.5z"/>
			<path class="st1" d="M235.4,467.1c0,0.3,0,0.7,0,1c0,13.6,11.1,24.7,24.7,24.7c13.6,0,24.7-11.1,24.7-24.7c0-0.3,0-0.7,0-1
				c0.1,0.2,0.3,0.4,0.4,0.7l0-171.1c-16.8,8.8-33.5,22.2-50.2,40.4v130.8C235.1,467.6,235.3,467.4,235.4,467.1z"/>
			<path class="st2" d="M338.8,499.5c-10.6,0-19.8-5.5-25.2-13.9V682c1.9,0.5,3.8,0.9,5.7,1.3c15.4,3.4,30.1,3.6,44.5,0.4V485.7
				C358.6,494,349.3,499.5,338.8,499.5z"/>
			<path class="st1" d="M314.2,467.1c0,0.3,0,0.7,0,1c0,13.6,11.1,24.7,24.7,24.7c13.6,0,24.7-11.1,24.7-24.7c0-0.3,0-0.7,0-1
				c0.1,0.2,0.3,0.4,0.4,0.7V288.7c-2.4-0.7-4.9-1.2-7.3-1.7c-14.5-3.4-28.7-3.6-42.9-0.7v181.6
				C313.9,467.6,314.1,467.4,314.2,467.1z"/>
			<path class="st2" d="M470.8,491.4c5.3-8.4,14.6-13.9,25.1-13.9c10.6,0,19.8,5.5,25.2,13.9v-26.2c-16.2-29.1-32.7-57.9-50.3-83.7
				V491.4z"/>
			<path class="st1" d="M496,484.3c-13.6,0-24.7,11.1-24.7,24.7c0,0.1-0.1,38.2-0.1,84.8c17.2-24.7,33.6-52.5,49.5-80.7
				c0-2.6,0-4.1,0-4.1C520.7,495.4,509.6,484.3,496,484.3z"/>
			<path class="st2" d="M576.7,477.5c10.6,0,19.8,5.5,25.2,13.9v-110c-17.4,25.5-34.1,54.1-50.3,82.8v27.2
				C556.9,483,566.1,477.5,576.7,477.5z"/>
			<path class="st1" d="M576.7,484.3c-13.6,0-24.7,11.1-24.7,24.7c0,0,0,2.1,0,5.8c15.9,28.4,32.3,56.4,49.6,80.9
				c-0.1-47.4-0.2-86.5-0.2-86.7C601.4,495.4,590.3,484.3,576.7,484.3z"/>
			<path class="st2" d="M734,498c-10.6,0-19.8-5.5-25.2-13.9V681c8.1,1.5,16.4,2,24.8,1.5c8.5-0.4,17-1.8,25.5-4.2V484.1
				C753.8,492.5,744.5,498,734,498z"/>
			<path class="st1" d="M733.7,491.2c13.6,0,24.7-11.1,24.7-24.7c0.2-0.2,0.3-96.4,0.5-178.4c-6-1.6-12-2.7-18-3.4
				c-10.8-0.6-21.5,0.5-32.1,3.3c0.1,82.7,0.2,179.8,0.2,180C709,481.6,720.1,491.2,733.7,491.2z"/>
			<path class="st2" d="M972.1,477.5c10.6,0,19.8,5.5,25.2,13.9V369.1C979,394,962.8,423.7,947,453v38.4
				C952.2,483,961.5,477.5,972.1,477.5z"/>
			<path class="st1" d="M972.1,484.3c-12.5,0-23,9.4-24.5,21.6c14.8,28.5,30.3,57.5,47.8,85c0.5,0.7,1,1.4,1.5,2.1
				c-0.1-46.1-0.1-83.9-0.1-84C996.8,495.4,985.7,484.3,972.1,484.3z"/>
			<path class="st1" d="M1129.2,491.3c13.6,0,24.7-11.1,24.7-24.7c0.1-0.2,0.2-90.7,0.3-173.8c-6.5-1.9-13.1-3.2-19.6-3.9
				c-10.3-1.1-20.4-0.7-30.3,1.1c0.1,84.1,0.2,176.4,0.2,176.6C1104.5,480.2,1115.6,491.3,1129.2,491.3z"/>
			<path class="st2" d="M1129.2,498c-10.6,0-19.8-5.5-25.2-13.9v197.6c11.1,3.1,22.2,4.3,33.1,3.5c5.8-0.4,11.5-1.4,17.2-2.9V484.1
				C1149,492.5,1139.8,498,1129.2,498z"/>
			<path class="st2" d="M1207.8,477.5c10.6,0,19.8,5.5,25.2,13.9V344.3c-16-17-33-30.3-50.3-39.7v186.8
				C1188,483,1197.2,477.5,1207.8,477.5z"/>
			<path class="st1" d="M1207.8,484.3c-13.6,0-24.7,11.1-24.7,24.7c0,0.2-0.1,84.2-0.2,161.5c17.2-9.7,33.8-23.8,49.8-40.9
				c-0.1-62.2-0.2-120.5-0.2-120.7C1232.5,495.4,1221.4,484.3,1207.8,484.3z"/>
			<path class="st8" d="M655.3,469.8l25.2,23.9V300.1c-16.9,9.9-33.6,24.5-50.3,44v149.6L655.3,469.8z"/>
			<path class="st4" d="M655.3,478l-25.2,23.6v130c14.7,16.1,29.3,28.2,44.2,36.6c2,1.1,4.1,2.2,6.1,3.2V501.6L655.3,478z"/>
			<path class="st8" d="M1050.6,469.8l25.2,23.9V299.6c-12.1,6-23.9,14.3-35.1,25l-0.2,0.1c-5.2,3.6-10.2,7.7-15,12.2v156.8
				L1050.6,469.8z"/>
			<path class="st4" d="M1050.6,478l-25.2,23.6v126.1c14.9,16.1,29.6,28.8,44.1,38.1c2.1,1.3,4.1,2.6,6.2,3.8v-168L1050.6,478z"/>
			<path class="st4" d="M1286.4,478l-25.2,23.6v93.8c17.6-23.4,34.3-49.9,50.3-77.4v-16.5L1286.4,478z"/>
			<path class="st8" d="M1261.3,379.4v114.4l25.1-23.9l25.2,23.9v-31.9c-15-28.2-31.1-55.5-48.7-80.1
				C1262.4,381,1261.8,380.2,1261.3,379.4z"/>
			<path class="st4" d="M812.5,500.8l25.2-23.6V339.3c-17.1-17.4-33.7-30.5-50.3-39.6v177.5L812.5,500.8z"/>
			<path class="st8" d="M812.5,509l-25.1-23.9v181c16.3-9.2,32.4-22.3,48.3-39.3c0.7-0.7,1.3-1.4,2-2.1V485.1L812.5,509z"/>
			<path class="st8" d="M392.3,481.4v6.3v6l25.1-23.9l25.2,23.9v-6v-6.3v-9.5V344.4c-15.7-18.2-32.3-33.3-50.3-43.7v171.3V481.4z"/>
			<path class="st4" d="M417.4,478l-25.2,23.6v171.3c16-8.6,31.7-21.5,47.7-39.2c0.9-0.9,1.7-1.9,2.6-2.9V501.6L417.4,478z"/>
			<path class="st8" d="M206.7,487.6v-2.5L181.6,509l-25.2-23.9v2.5v9.5v11c16.1,29.4,32.7,58,50.3,83.4v-94.3V487.6z"/>
			<path class="st4" d="M156.5,477.2l25.1,23.6l25.2-23.6v-51.9v-53.5c-17.6,24.2-34.2,51.6-50.3,80v16.5V477.2z"/>
			<path class="st4" d="M866,477.2l25.1,23.6l25.2-23.6v-24.5c-15.4-28.4-31.4-55.6-50.3-80.8V477.2z"/>
			<path class="st8" d="M891.1,509L866,485.1v104.4c17.5-24.6,34.3-53.7,50.3-87v-17.4L891.1,509z"/>
		</g>
		<path class="st6" d="M559.1,491.1"/>
		<path class="st9" d="M184,462.6l-1-4.2h-5.7l-1,4.2h-4.8l5.9-19.6h5.6l5.9,19.6H184z M178.1,455h4.2l-2.1-8.7L178.1,455z"/>
		<path class="st9" d="M263.1,447.5c0.9,0.3,1.6,0.8,2.3,1.4l-1.9,2.6c-1-0.8-1.9-1.1-2.9-1.1s-1.8,0.3-2.3,1.1
			c-0.5,0.8-0.8,1.9-0.8,3.5c0,1.5,0.2,2.7,0.8,3.4c0.5,0.7,1.2,1,2.2,1c0.5,0,1-0.1,1.4-0.2s0.9-0.4,1.5-0.8l2,2.7
			c-1.5,1.2-3.2,1.8-5.1,1.8c-1.5,0-2.9-0.3-4-1c-1.1-0.7-2-1.5-2.5-2.7s-0.9-2.5-0.9-4.2c0-1.6,0.3-3,0.9-4.2
			c0.5-1.2,1.4-2.2,2.5-2.9c1.1-0.7,2.4-1,3.8-1C261.3,447.1,262.3,447.2,263.1,447.5z"/>
		<path class="st9" d="M341.7,447.5c0.9,0.3,1.6,0.8,2.3,1.4l-1.9,2.6c-1-0.8-1.9-1.1-2.9-1.1s-1.8,0.3-2.3,1.1
			c-0.5,0.8-0.8,1.9-0.8,3.5c0,1.5,0.2,2.7,0.8,3.4c0.5,0.7,1.2,1,2.2,1c0.5,0,1-0.1,1.4-0.2s0.9-0.4,1.5-0.8l2,2.7
			c-1.5,1.2-3.2,1.8-5.1,1.8c-1.5,0-2.9-0.3-4-1s-2-1.5-2.5-2.7s-0.9-2.5-0.9-4.2c0-1.6,0.3-3,0.9-4.2c0.5-1.2,1.4-2.2,2.5-2.9
			s2.4-1,3.8-1C340,447.1,340.9,447.2,341.7,447.5z"/>
		<path class="st9" d="M423.6,442.9l-0.4,3.5h-4.8v16.1h-4.6v-16.1h-5.1v-3.5H423.6z"/>
		<path class="st9" d="M502.3,444.9l-2.3,2.4c-0.7-0.5-1.3-0.9-2-1.1c-0.5-0.2-1.3-0.3-2.1-0.3c-1.4,0-2.6,0.5-3.5,1.8
			c-0.9,1.1-1.3,2.9-1.3,5.2c0,2.5,0.3,4.3,1,5.3c0.7,1.1,1.6,1.5,3.1,1.5c1,0,1.9-0.2,2.6-0.7v-4.4h-2.5l-0.4-3.3h7.5v9.7
			c-1,0.7-2.1,1.2-3.4,1.5c-1.2,0.3-2.4,0.5-3.6,0.5c-3,0-5.3-0.9-6.7-2.6c-1.5-1.8-2.3-4.3-2.3-7.7c0-2.2,0.4-4,1.2-5.5
			s2-2.7,3.4-3.5s3-1.2,4.8-1.2C498.4,442.4,500.6,443.2,502.3,444.9z"/>
		<path class="st9" d="M588.2,444.9l-2.3,2.4c-0.7-0.5-1.3-0.9-2-1.1c-0.5-0.2-1.3-0.3-2.1-0.3c-1.4,0-2.6,0.5-3.5,1.8
			c-0.9,1.1-1.3,2.9-1.3,5.2c0,2.5,0.3,4.3,1,5.3c0.7,1.1,1.6,1.5,3.1,1.5c1,0,1.9-0.2,2.6-0.7v-4.4h-2.4l-0.4-3.3h7.5v9.7
			c-1,0.7-2.1,1.2-3.4,1.5c-1.2,0.3-2.4,0.5-3.6,0.5c-3,0-5.3-0.9-6.7-2.6c-1.5-1.8-2.3-4.3-2.3-7.7c0-2.2,0.4-4,1.2-5.5
			s2-2.7,3.4-3.5s3-1.2,4.8-1.2C584.1,442.4,586.3,443.2,588.2,444.9z"/>
		<path class="st9" d="M663.6,442.9l-0.4,3.5h-4.8v16.1h-4.6v-16.1h-5.1v-3.5H663.6z"/>
		<path class="st9" d="M738.8,447.5c0.9,0.3,1.6,0.8,2.3,1.4l-1.9,2.6c-1-0.8-1.9-1.1-2.9-1.1s-1.8,0.3-2.3,1.1
			c-0.5,0.8-0.8,1.9-0.8,3.5c0,1.5,0.2,2.7,0.8,3.4s1.2,1,2.2,1c0.5,0,1-0.1,1.4-0.2s0.9-0.4,1.5-0.8l2,2.7
			c-1.5,1.2-3.2,1.8-5.1,1.8c-1.5,0-2.9-0.3-4-1s-2-1.5-2.5-2.7s-0.9-2.5-0.9-4.2c0-1.6,0.3-3,0.9-4.2s1.4-2.2,2.5-2.9
			c1.1-0.7,2.4-1,3.8-1C737.1,447.1,738.1,447.2,738.8,447.5z"/>
		<path class="st9" d="M817,462.6l-1-4.2h-5.7l-1,4.2h-4.8l5.9-19.6h5.6l5.9,19.6H817z M811.1,455h4.2l-2.1-8.7L811.1,455z"/>
		<path class="st9" d="M896.6,462.6l-1-4.2h-5.7l-1,4.2H884l5.9-19.6h5.6l5.9,19.6H896.6z M890.6,455h4.2l-2.1-8.7L890.6,455z"/>
		<path class="st9" d="M980.4,444.9l-2.3,2.4c-0.7-0.5-1.3-0.9-2-1.1c-0.5-0.2-1.3-0.3-2.1-0.3c-1.4,0-2.6,0.5-3.5,1.8
			c-0.9,1.1-1.3,2.9-1.3,5.2c0,2.5,0.3,4.3,1,5.3c0.7,1.1,1.6,1.5,3.1,1.5c1,0,1.9-0.2,2.6-0.7v-4.4h-2.5l-0.4-3.3h7.5v9.7
			c-1,0.7-2.1,1.2-3.4,1.5c-1.2,0.3-2.4,0.5-3.6,0.5c-3,0-5.3-0.9-6.7-2.6c-1.5-1.8-2.3-4.3-2.3-7.7c0-2.2,0.4-4,1.2-5.5
			s2-2.7,3.4-3.5s3-1.2,4.8-1.2C976.4,442.4,978.6,443.2,980.4,444.9z"/>
		<path class="st9" d="M1059.9,442.9l-0.4,3.5h-4.8v16.1h-4.6v-16.1h-5.1v-3.5H1059.9z"/>
		<path class="st9" d="M1134.2,447.5c0.9,0.3,1.7,0.8,2.3,1.4l-1.9,2.6c-1-0.8-1.9-1.1-2.9-1.1s-1.8,0.3-2.3,1.1
			c-0.6,0.8-0.8,1.9-0.8,3.5c0,1.5,0.2,2.7,0.8,3.4c0.5,0.7,1.2,1,2.2,1c0.6,0,1-0.1,1.4-0.2s0.9-0.4,1.5-0.8l2,2.7
			c-1.5,1.2-3.2,1.8-5.1,1.8c-1.5,0-2.9-0.3-4-1s-2-1.5-2.5-2.7s-0.9-2.5-0.9-4.2c0-1.6,0.3-3,0.9-4.2s1.4-2.2,2.5-2.9s2.4-1,3.8-1
			C1132.5,447.1,1133.3,447.2,1134.2,447.5z"/>
		<path class="st9" d="M1216.3,444.9l-2.3,2.4c-0.7-0.5-1.3-0.9-2-1.1c-0.6-0.2-1.3-0.3-2.1-0.3c-1.4,0-2.6,0.5-3.5,1.8
			c-0.9,1.1-1.3,2.9-1.3,5.2c0,2.5,0.3,4.3,1,5.3c0.7,1.1,1.7,1.5,3.1,1.5c1,0,1.9-0.2,2.6-0.7v-4.4h-2.5l-0.4-3.3h7.5v9.7
			c-1,0.7-2.1,1.2-3.4,1.5c-1.2,0.3-2.4,0.5-3.6,0.5c-3,0-5.3-0.9-6.7-2.6c-1.5-1.8-2.3-4.3-2.3-7.7c0-2.2,0.4-4,1.2-5.5
			s2-2.7,3.4-3.5s3-1.2,4.8-1.2C1212.2,442.4,1214.4,443.2,1216.3,444.9z"/>
		<path class="st9" d="M1292.7,442.9l-0.4,3.5h-4.8v16.1h-4.6v-16.1h-5.1v-3.5H1292.7z"/>
		<path class="st9" d="M187.9,516.8l-0.4,3.5h-4.8v16.1H178v-16.1h-5.1v-3.5H187.9z"/>
		<path class="st9" d="M266.5,518.8l-2.3,2.4c-0.7-0.5-1.3-0.9-2-1.1c-0.5-0.2-1.3-0.3-2.1-0.3c-1.4,0-2.6,0.5-3.5,1.8
			c-0.9,1.1-1.3,2.9-1.3,5.2c0,2.5,0.3,4.3,1,5.3c0.7,1.1,1.6,1.5,3.1,1.5c1,0,1.9-0.2,2.6-0.7v-4.4h-2.5L259,525h7.5v9.7
			c-1,0.7-2.1,1.2-3.4,1.5c-1.2,0.3-2.4,0.5-3.6,0.5c-3,0-5.3-0.9-6.7-2.6c-1.5-1.8-2.3-4.3-2.3-7.7c0-2.2,0.4-4,1.2-5.5
			c0.8-1.5,2-2.7,3.4-3.5c1.4-0.8,3-1.2,4.8-1.2C262.5,516.4,264.7,517.1,266.5,518.8z"/>
		<path class="st9" d="M345.1,518.8l-2.3,2.4c-0.7-0.5-1.3-0.9-2-1.1c-0.5-0.2-1.3-0.3-2.1-0.3c-1.4,0-2.6,0.5-3.5,1.8
			c-0.9,1.1-1.3,2.9-1.3,5.2c0,2.5,0.3,4.3,1,5.3c0.7,1.1,1.6,1.5,3.1,1.5c1,0,1.9-0.2,2.6-0.7v-4.4h-2.5l-0.4-3.3h7.5v9.7
			c-1,0.7-2.1,1.2-3.4,1.5c-1.2,0.3-2.4,0.5-3.6,0.5c-3,0-5.3-0.9-6.7-2.6c-1.5-1.8-2.3-4.3-2.3-7.7c0-2.2,0.4-4,1.2-5.5
			c0.8-1.5,2-2.7,3.4-3.5s3-1.2,4.8-1.2C341.2,516.4,343.3,517.1,345.1,518.8z"/>
		<path class="st9" d="M419.8,536.4l-1-4.2h-5.7l-1,4.2h-4.8l5.9-19.6h5.6l5.9,19.6H419.8z M413.9,528.8h4.2l-2.1-8.7L413.9,528.8z"
			/>
		<path class="st9" d="M498.9,521.3c0.9,0.3,1.6,0.8,2.3,1.4l-1.9,2.6c-1-0.8-1.9-1.1-2.9-1.1s-1.8,0.3-2.3,1.1s-0.8,1.9-0.8,3.5
			c0,1.5,0.2,2.7,0.8,3.4c0.6,0.7,1.2,1,2.2,1c0.5,0,1-0.1,1.4-0.2c0.4-0.1,0.9-0.4,1.5-0.8l2,2.7c-1.5,1.2-3.2,1.8-5.1,1.8
			c-1.5,0-2.9-0.3-4-1s-2-1.5-2.5-2.7s-0.9-2.5-0.9-4.2c0-1.6,0.3-3,0.9-4.2c0.5-1.2,1.4-2.2,2.5-2.9s2.4-1,3.8-1
			C497.2,520.9,498,521.1,498.9,521.3z"/>
		<path class="st9" d="M584.6,521.3c0.9,0.3,1.6,0.8,2.3,1.4l-1.9,2.6c-1-0.8-1.9-1.1-2.9-1.1s-1.8,0.3-2.3,1.1s-0.8,1.9-0.8,3.5
			c0,1.5,0.2,2.7,0.8,3.4c0.6,0.7,1.2,1,2.2,1c0.5,0,1-0.1,1.4-0.2c0.4-0.1,0.9-0.4,1.5-0.8l2,2.7c-1.5,1.2-3.2,1.8-5.1,1.8
			c-1.5,0-2.9-0.3-4-1s-2-1.5-2.5-2.7s-0.9-2.5-0.9-4.2c0-1.6,0.3-3,0.9-4.2c0.5-1.2,1.4-2.2,2.5-2.9s2.4-1,3.8-1
			C582.9,520.9,583.9,521.1,584.6,521.3z"/>
		<path class="st9" d="M659.8,536.4l-1-4.2H653l-1,4.2h-4.8l5.9-19.6h5.6l5.9,19.6H659.8z M653.9,528.8h4.2l-2.1-8.7L653.9,528.8z"
			/>
		<path class="st9" d="M742.3,518.8l-2.3,2.4c-0.7-0.5-1.3-0.9-2-1.1c-0.5-0.2-1.3-0.3-2.1-0.3c-1.4,0-2.6,0.5-3.5,1.8
			c-0.9,1.1-1.3,2.9-1.3,5.2c0,2.5,0.3,4.3,1,5.3c0.7,1.1,1.6,1.5,3.1,1.5c1,0,1.9-0.2,2.6-0.7v-4.4h-2.5l-0.4-3.3h7.5v9.7
			c-1,0.7-2.1,1.2-3.4,1.5c-1.2,0.3-2.4,0.5-3.6,0.5c-3,0-5.3-0.9-6.7-2.6c-1.5-1.8-2.3-4.3-2.3-7.7c0-2.2,0.4-4,1.2-5.5
			s2-2.7,3.4-3.5s3-1.2,4.8-1.2C738.3,516.4,740.5,517.1,742.3,518.8z"/>
		<path class="st9" d="M820.8,516.8l-0.4,3.5h-4.8v16.1H811v-16.1h-5.1v-3.5H820.8z"/>
		<path class="st9" d="M900.4,516.8l-0.4,3.5h-4.8v16.1h-4.6v-16.1h-5.1v-3.5H900.4z"/>
		<path class="st9" d="M976.9,521.3c0.9,0.3,1.6,0.8,2.3,1.4l-1.9,2.6c-1-0.8-1.9-1.1-2.9-1.1s-1.8,0.3-2.3,1.1s-0.8,1.9-0.8,3.5
			c0,1.5,0.2,2.7,0.8,3.4c0.6,0.7,1.2,1,2.2,1c0.5,0,1-0.1,1.4-0.2c0.4-0.1,0.9-0.4,1.5-0.8l2,2.7c-1.5,1.2-3.2,1.8-5.1,1.8
			c-1.5,0-2.9-0.3-4-1s-2-1.5-2.5-2.7c-0.6-1.2-0.9-2.5-0.9-4.2c0-1.6,0.3-3,0.9-4.2c0.5-1.2,1.4-2.2,2.5-2.9s2.4-1,3.8-1
			C975.2,520.9,976.2,521.1,976.9,521.3z"/>
		<path class="st9" d="M1056.1,536.4l-1-4.2h-5.7l-1,4.2h-4.8l5.9-19.6h5.6l5.9,19.6H1056.1z M1050.2,528.8h4.2l-2.1-8.7
			L1050.2,528.8z"/>
		<path class="st9" d="M1137.6,518.8l-2.3,2.4c-0.7-0.5-1.3-0.9-2-1.1c-0.5-0.2-1.3-0.3-2.1-0.3c-1.4,0-2.6,0.5-3.5,1.8
			c-0.9,1.1-1.3,2.9-1.3,5.2c0,2.5,0.3,4.3,1,5.3c0.7,1.1,1.6,1.5,3.1,1.5c1,0,1.9-0.2,2.6-0.7v-4.4h-2.5l-0.4-3.3h7.5v9.7
			c-1,0.7-2.1,1.2-3.4,1.5c-1.2,0.3-2.4,0.5-3.6,0.5c-3,0-5.3-0.9-6.7-2.6c-1.5-1.8-2.3-4.3-2.3-7.7c0-2.2,0.4-4,1.2-5.5
			c0.8-1.5,2-2.7,3.4-3.5s3-1.2,4.8-1.2C1133.7,516.4,1135.8,517.1,1137.6,518.8z"/>
		<path class="st9" d="M1212.7,521.3c0.9,0.3,1.6,0.8,2.3,1.4l-1.9,2.6c-1-0.8-1.9-1.1-2.9-1.1s-1.8,0.3-2.3,1.1s-0.8,1.9-0.8,3.5
			c0,1.5,0.2,2.7,0.8,3.4c0.6,0.7,1.2,1,2.2,1c0.5,0,1-0.1,1.4-0.2c0.4-0.1,0.9-0.4,1.5-0.8l2,2.7c-1.5,1.2-3.2,1.8-5.1,1.8
			c-1.5,0-2.9-0.3-4-1s-2-1.5-2.5-2.7s-0.9-2.5-0.9-4.2c0-1.6,0.3-3,0.9-4.2s1.4-2.2,2.5-2.9s2.4-1,3.8-1
			C1211,520.9,1212,521.1,1212.7,521.3z"/>
		<path class="st9" d="M1289,536.4l-1-4.2h-5.7l-1,4.2h-4.8l5.9-19.6h5.6l5.9,19.6H1289z M1283,528.8h4.2l-2.1-8.7L1283,528.8z"/>
		<path class="st10" d="M1347,522.2c-5.8-10.2-11.4-20.5-17.1-30.7c0.1-0.2,0.2-0.3,0.2-0.3l-0.2-0.5c0.4-0.6,0.7-1.3,1.1-1.9
			c4.4-7.9,8.9-15.9,13.4-23.9c-0.7-0.9-1.3-1.7-2-2.6c-4.7,8.3-9.4,16.7-14.1,25c0,0,0,0.1-0.1,0.2
			c-19.1-37.6-39.6-74.9-62.9-107.5c-38.1-55.7-84.4-89.1-130.5-94c-34.6-3.7-67,8.5-96.2,36.3c-39.4,27.5-68.1,80.7-95.8,132
			c-3.7,6.9-7.5,13.9-11.3,20.8c-21-40.1-41.9-78.1-68.9-112.5c-42.3-51-81-76.8-121.6-80.9c-39.5-2.4-76.7,17.6-113.7,61
			c-32.8,38.5-62.4,91.4-91,142.5c-0.1,0.2-0.2,0.4-0.4,0.7c-0.2-0.4-0.4-0.7-0.6-1.1c-25.1-45.5-51.1-92.6-79.7-129.3
			c-32.3-41.4-64.5-64.8-98.4-71.5c-45.1-10.6-88.2,8.6-131.5,58.8c-31.4,36.4-59.5,84.6-86.5,133.8l-1.7,3.1l1.7,3.1
			c50.7,94,103.8,188.4,179.4,203.4c8.2,1.8,16.2,2.7,24.1,2.7c14.5,0,28.6-3.1,42.7-9.4c19.2-8.6,37.7-22.9,56.7-43.9
			c34-37.4,64.4-91.1,93.8-143.6c26.7,48.4,54.3,97.7,85.1,133.9c34.2,40.1,69,59.7,106.3,59.7c2.1,0,4.3-0.1,6.4-0.2
			c35.3-1.5,70.3-20.5,104.1-56.5c28.9-30.8,56.5-73.5,81.9-126.8c3.9-6.7,7.9-13.7,11.7-20.7c2.5,4.8,5,9.5,7.5,14.3
			c16.7,32.1,33.9,65.4,53.9,96.8c25.2,34.5,50.5,60,75,75.7c23.2,14.9,46.5,21.6,69.4,19.9c73.6-5.4,137.2-96.4,190.8-193.5
			c0,0,0-0.1,0.1-0.2c5.4,9.8,10.8,19.5,16.3,29.3C1345.3,523.3,1346.2,522.7,1347,522.2z M439.9,633.7
			c-18.7,20.6-36.9,34.7-55.7,43.1c-21,9.4-42.2,11.5-64.9,6.4C244.6,668.5,191.6,573.7,141,479.7c27.2-49.6,55.6-98.4,87.1-134.9
			c42.5-49.3,84.6-68.2,128.6-57.9c74.3,14.7,126,108.6,176.1,199.3c0.5,0.9,1,1.8,1.5,2.7C504.7,541.9,474,596.2,439.9,633.7z
			 M917.1,500.7l-0.1,0.1c-25.3,53-52.7,95.4-81.4,126c-33.2,35.4-67.6,54.1-102.1,55.6c-20.7,1.2-40.1-3.4-59.3-14.3
			c-17.2-9.7-33.9-24.1-50.9-44.2c-31-36.3-58.8-86.3-85.7-135c0.4-0.8,0.9-1.5,1.3-2.3c28.5-51,58.1-103.8,90.7-142
			c36.4-42.7,72.8-62.3,111.2-60c39.8,4.1,77.7,29.5,119.5,79.8c27.2,34.7,48.2,73.1,69.5,113.7
			C925.7,485.9,921.4,493.4,917.1,500.7z M1137.1,685.3c-22.2,1.6-45-4.9-67.6-19.4c-24.2-15.5-49.1-40.7-74.1-74.9
			c-19.9-31.3-37.1-64.5-53.8-96.5c-2.8-5.4-5.6-10.8-8.4-16.1c4.1-7.5,8.2-15.1,12.3-22.6c27.6-51.1,56.1-104,95-131.1l0.2-0.1
			c28.6-27.2,60.3-39.1,93.9-35.6c45.1,4.8,90.7,37.7,128.3,92.8c23.6,33,44.5,71.1,63.8,109.3
			C1273.3,588.3,1209.9,679.9,1137.1,685.3z"/>
	</g>
	<path class="st9" d="M184,843.1l-1-4.2h-5.7l-1,4.2h-4.8l5.9-19.6h5.6l5.9,19.6H184z M178.1,835.5h4.2l-2.1-8.7L178.1,835.5z"/>
	<path class="st9" d="M263.1,818.6c0.9,0.3,1.6,0.8,2.3,1.4l-1.9,2.6c-1-0.8-1.9-1.1-2.9-1.1s-1.8,0.3-2.3,1.1s-0.8,1.9-0.8,3.5
		c0,1.5,0.2,2.7,0.8,3.4c0.5,0.7,1.2,1,2.2,1c0.5,0,1-0.1,1.4-0.2c0.4-0.1,0.9-0.4,1.5-0.8l2,2.7c-1.5,1.2-3.2,1.8-5.1,1.8
		c-1.5,0-2.9-0.3-4-1c-1.1-0.7-2-1.5-2.5-2.7s-0.9-2.5-0.9-4.2c0-1.5,0.3-3,0.9-4.2c0.5-1.2,1.4-2.2,2.5-2.9c1.1-0.7,2.4-1,3.8-1
		C261.3,818.2,262.3,818.3,263.1,818.6z"/>
	<path class="st9" d="M341.7,809.3c0.9,0.3,1.6,0.8,2.3,1.4l-1.9,2.6c-1-0.8-1.9-1.1-2.9-1.1s-1.8,0.3-2.3,1.1s-0.8,1.9-0.8,3.5
		c0,1.5,0.2,2.7,0.8,3.4c0.5,0.7,1.2,1,2.2,1c0.5,0,1-0.1,1.4-0.2c0.4-0.1,0.9-0.4,1.5-0.8l2,2.7c-1.5,1.2-3.2,1.8-5.1,1.8
		c-1.5,0-2.9-0.3-4-1s-2-1.5-2.5-2.7s-0.9-2.5-0.9-4.2c0-1.5,0.3-3,0.9-4.2c0.5-1.2,1.4-2.2,2.5-2.9s2.4-1,3.8-1
		C340,808.8,340.9,809,341.7,809.3z"/>
	<path class="st9" d="M423.7,827.1c0,1.3-0.3,2.5-0.9,3.6c-0.5,1.1-1.4,1.9-2.6,2.5c-1.1,0.5-2.5,0.9-4.2,0.9
		c-2.5,0-4.4-0.7-5.7-1.9s-2-3-2-5.1V814h4.6v13c0,1.2,0.2,2.2,0.8,2.9c0.4,0.7,1.2,0.9,2.3,0.9c1.1,0,1.9-0.3,2.3-0.9
		c0.4-0.7,0.8-1.5,0.8-2.9v-12.9h4.6L423.7,827.1L423.7,827.1z"/>
	<path class="st9" d="M502.3,825.3l-2.3,2.4c-0.7-0.5-1.3-0.9-2-1.1c-0.5-0.2-1.3-0.3-2.1-0.3c-1.4,0-2.6,0.5-3.5,1.8
		c-0.9,1.1-1.3,2.9-1.3,5.2c0,2.5,0.3,4.3,1,5.3c0.7,1.1,1.6,1.5,3.1,1.5c1,0,1.9-0.2,2.6-0.7V835h-2.5l-0.4-3.3h7.5v9.7
		c-1,0.7-2.1,1.2-3.4,1.5c-1.2,0.3-2.4,0.5-3.6,0.5c-3,0-5.3-0.9-6.7-2.6c-1.5-1.8-2.3-4.3-2.3-7.7c0-2.2,0.4-4,1.2-5.5
		s2-2.7,3.4-3.5s3-1.2,4.8-1.2C498.4,823,500.6,823.8,502.3,825.3z"/>
	<path class="st9" d="M588.2,834l-2.3,2.4c-0.7-0.5-1.3-0.9-2-1.1c-0.7-0.2-1.3-0.3-2.1-0.3c-1.4,0-2.6,0.5-3.5,1.8
		c-0.9,1.1-1.3,2.9-1.3,5.2c0,2.5,0.3,4.3,1,5.3c0.7,1.1,1.6,1.5,3.1,1.5c1,0,1.9-0.2,2.6-0.7v-4.4h-2.4l-0.4-3.3h7.5v9.7
		c-1,0.7-2.1,1.2-3.4,1.5c-1.2,0.3-2.4,0.5-3.6,0.5c-3,0-5.3-0.9-6.7-2.6c-1.5-1.8-2.3-4.3-2.3-7.7c0-2.2,0.4-4,1.2-5.5
		s2-2.7,3.4-3.5s3-1.2,4.8-1.2C584.1,831.6,586.3,832.5,588.2,834z"/>
	<path class="st9" d="M666.6,863.8c0,1.3-0.3,2.5-0.9,3.6c-0.5,1.1-1.4,1.9-2.6,2.5c-1.1,0.5-2.5,0.9-4.2,0.9
		c-2.5,0-4.4-0.7-5.7-1.9s-2-3-2-5.1v-13.1h4.6v12.9c0,1.2,0.2,2.2,0.8,2.9c0.5,0.7,1.2,0.9,2.3,0.9s1.9-0.3,2.3-0.9
		c0.4-0.7,0.8-1.5,0.8-2.9v-12.9h4.6L666.6,863.8L666.6,863.8z"/>
	<path class="st9" d="M741.8,864.8c0.9,0.3,1.6,0.8,2.3,1.4l-2,2.6c-1-0.8-1.9-1.1-2.9-1.1s-1.8,0.3-2.3,1.1s-0.8,1.9-0.8,3.5
		c0,1.5,0.2,2.7,0.8,3.4c0.5,0.7,1.2,1,2.2,1c0.5,0,1-0.1,1.4-0.2c0.4-0.1,0.9-0.4,1.5-0.8l2,2.7c-1.5,1.2-3.2,1.8-5.1,1.8
		c-1.5,0-2.9-0.3-4-1s-2-1.5-2.5-2.7s-0.9-2.5-0.9-4.2c0-1.5,0.3-3,0.9-4.2c0.5-1.2,1.4-2.2,2.5-2.9s2.4-1,3.8-1
		C740.1,864.3,741.1,864.5,741.8,864.8z"/>
	<path class="st9" d="M820,889.1l-1-4.2h-5.7l-1,4.2h-4.8l5.9-19.6h5.6l5.9,19.6H820z M814.1,881.6h4.2l-2.1-8.7L814.1,881.6z"/>
	<path class="st9" d="M898.6,898.5l-1-4.2h-5.7l-1,4.2H886l5.9-19.6h5.6l5.9,19.6H898.6z M892.6,891h4.2l-2.1-8.7L892.6,891z"/>
	<path class="st9" d="M1363.4,884.5l-1-4.2h-5.7l-1,4.2h-4.8l5.9-19.6h5.6l5.9,19.6H1363.4z M1357.5,876.8h4.2l-2.1-8.7
		L1357.5,876.8z"/>
	<path class="st9" d="M980.4,886.8l-2.3,2.4c-0.7-0.5-1.3-0.9-2-1.1s-1.3-0.3-2.1-0.3c-1.4,0-2.6,0.5-3.5,1.8
		c-0.9,1.1-1.3,2.9-1.3,5.2c0,2.5,0.3,4.3,1,5.3c0.7,1.1,1.6,1.5,3.1,1.5c1,0,1.9-0.2,2.6-0.7v-4.4h-2.5l-0.4-3.3h7.5v9.7
		c-1,0.7-2.1,1.2-3.4,1.5c-1.2,0.3-2.4,0.5-3.6,0.5c-3,0-5.3-0.9-6.7-2.6c-1.5-1.8-2.3-4.3-2.3-7.7c0-2.2,0.4-4,1.2-5.5
		c0.8-1.5,2-2.7,3.4-3.5s3-1.2,4.8-1.2C976.4,884.5,978.6,885.1,980.4,886.8z"/>
	<path class="st9" d="M1059,902.1c0,1.3-0.3,2.5-0.9,3.6c-0.5,1.1-1.4,1.9-2.6,2.5c-1.1,0.5-2.5,0.9-4.2,0.9c-2.5,0-4.4-0.7-5.7-1.9
		c-1.3-1.2-2-3-2-5.1V889h4.6v13c0,1.2,0.2,2.2,0.8,2.9c0.5,0.7,1.2,0.9,2.3,0.9s1.9-0.3,2.3-0.9c0.4-0.7,0.8-1.5,0.8-2.9v-12.9h4.6
		L1059,902.1L1059,902.1z"/>
	<path class="st9" d="M1134.2,894.3c0.9,0.3,1.7,0.8,2.3,1.4l-1.9,2.6c-1-0.8-1.9-1.1-2.9-1.1s-1.8,0.3-2.3,1.1
		c-0.6,0.8-0.8,1.9-0.8,3.5c0,1.5,0.2,2.7,0.8,3.4c0.5,0.7,1.2,1,2.2,1c0.6,0,1-0.1,1.4-0.2c0.4-0.1,0.9-0.4,1.5-0.8l2,2.7
		c-1.5,1.2-3.2,1.8-5.1,1.8c-1.5,0-2.9-0.3-4-1s-2-1.5-2.5-2.7s-0.9-2.5-0.9-4.2c0-1.5,0.3-3,0.9-4.2s1.4-2.2,2.5-2.9s2.4-1,3.8-1
		C1132.5,894,1133.3,894,1134.2,894.3z"/>
	<path class="st9" d="M1216.3,886.1l-2.3,2.4c-0.7-0.5-1.3-0.9-2-1.1c-0.6-0.2-1.3-0.3-2.1-0.3c-1.4,0-2.6,0.5-3.5,1.8
		c-0.9,1.1-1.3,2.9-1.3,5.2c0,2.5,0.3,4.3,1,5.3c0.7,1.1,1.7,1.5,3.1,1.5c1,0,1.9-0.2,2.6-0.7v-4.4h-2.5l-0.4-3.3h7.5v9.7
		c-1,0.7-2.1,1.2-3.4,1.5c-1.2,0.3-2.4,0.5-3.6,0.5c-3,0-5.3-0.9-6.7-2.6c-1.5-1.8-2.3-4.3-2.3-7.7c0-2.2,0.4-4,1.2-5.5
		s2-2.7,3.4-3.5s3-1.2,4.8-1.2C1212.2,883.8,1214.4,884.5,1216.3,886.1z"/>
	<path class="st9" d="M1294.7,887.8c0,1.3-0.3,2.5-0.9,3.6c-0.5,1.1-1.4,1.9-2.6,2.5c-1.2,0.7-2.5,0.9-4.2,0.9
		c-2.5,0-4.4-0.7-5.7-1.9c-1.3-1.2-2-3-2-5.1v-13.1h4.6v12.9c0,1.2,0.2,2.2,0.8,2.9c0.4,0.7,1.2,0.9,2.3,0.9c1.1,0,1.9-0.3,2.3-0.9
		c0.4-0.5,0.8-1.5,0.8-2.9v-12.9h4.6L1294.7,887.8L1294.7,887.8z"/>
	<polygon class="st5" points="348,908 348,927.6 355,927.6 337.7,945 320.3,927.6 327.3,927.6 327.3,908 	"/>
	<polyline class="st6" points="418.6,878.5 418.6,897.2 256.9,897.2 256.9,878.5 	"/>
	<polygon class="st5" points="589.8,945.3 589.8,965 596.8,965 579.5,982.5 562.1,965 569.1,965 569.1,945.3 	"/>
	<polyline class="st6" points="662.1,916 662.1,934.6 494.3,934.6 494.3,916 	"/>
	<polygon class="st5" points="831.1,964 831.1,983.8 838.1,983.8 820.8,1001.1 803.4,983.8 810.4,983.8 810.4,964 	"/>
	<polyline class="st6" points="898.7,934.6 898.7,953.3 737,953.3 737,934.6 	"/>
	<polygon class="st5" points="1064.6,964 1064.6,983.8 1071.6,983.8 1054.2,1001.1 1036.9,983.8 1043.9,983.8 1043.9,964 	"/>
	<polyline class="st6" points="1135.2,934.6 1135.2,953.3 973.5,953.3 973.5,934.6 	"/>
	<polygon class="st5" points="1303.3,958 1303.3,977.8 1310.4,977.8 1293,995.1 1275.6,977.8 1282.6,977.8 1282.6,958 	"/>
	<polyline class="st6" points="1368.9,929.5 1368.9,948.2 1207.2,948.2 1207.2,929.5 	"/>
	<path class="st11" d="M808.4,1053l-1.2-4.8h-6.6l-1.1,4.8h-5.6l6.8-22.7h6.5l6.8,22.7H808.4z M801.5,1044.1h4.7l-2.4-10
		L801.5,1044.1z"/>
	<path class="st11" d="M825.3,1035.5c1.1,0.3,2.1,0.9,2.9,1.5l-1.9,2.9c-1.4-0.9-2.9-1.3-4.3-1.3c-0.7,0-1.2,0.1-1.5,0.3
		c-0.3,0.2-0.5,0.5-0.5,1c0,0.3,0.1,0.5,0.2,0.8c0.1,0.2,0.5,0.4,1,0.7c0.5,0.2,1.3,0.4,2.3,0.8c1.8,0.5,3.2,1.2,4.1,2.1
		c0.9,0.9,1.3,2,1.3,3.5c0,1.2-0.3,2.2-1,3.1c-0.7,0.9-1.6,1.5-2.7,2c-1.2,0.4-2.5,0.7-4,0.7s-2.9-0.2-4.1-0.7
		c-1.2-0.4-2.3-1.1-3.2-1.9l2.5-2.9c1.4,1.1,3,1.6,4.6,1.6c0.8,0,1.4-0.1,1.9-0.4c0.4-0.3,0.7-0.7,0.7-1.2c0-0.4-0.1-0.8-0.2-1
		c-0.2-0.2-0.5-0.4-1-0.7c-0.5-0.2-1.3-0.4-2.4-0.8c-1.8-0.5-3-1.2-3.8-2.1c-0.8-0.9-1.3-2-1.3-3.3c0-1,0.3-1.9,0.9-2.7
		c0.5-0.8,1.4-1.4,2.5-1.9c1.1-0.4,2.3-0.7,3.7-0.7C823.1,1035,824.2,1035.2,825.3,1035.5z"/>
	<path class="st11" d="M845.2,1036.3c0.9,0.9,1.3,2.2,1.3,3.8v12.6h-5.2V1041c0-0.9-0.1-1.4-0.4-1.9c-0.2-0.3-0.7-0.5-1.2-0.5
		c-1.1,0-2.1,0.8-3,2.3v11.9h-5.2v-17.4h4.5l0.3,2.1c0.8-0.9,1.5-1.5,2.4-2c0.9-0.4,1.9-0.7,2.9-0.7
		C843.2,1035,844.3,1035.5,845.2,1036.3z"/>
	<path class="st11" d="M574.8,1011.6l-0.5,4.1h-5.6v18.6h-5.4v-18.6h-5.8v-4.1H574.8z"/>
	<path class="st11" d="M587.2,1016.6l-0.8,5.1c-0.7-0.1-1.2-0.2-1.5-0.2c-1,0-1.8,0.3-2.3,1.1c-0.5,0.7-1,1.8-1.2,3.2v8.6H576V1017
		h4.5l0.4,3.4c0.4-1.2,1-2.1,1.8-2.9c0.8-0.7,1.6-1,2.7-1C585.9,1016.3,586.6,1016.5,587.2,1016.6z"/>
	<path class="st11" d="M603.8,1018.8c1.1,1.6,1.6,3.8,1.6,6.8c0,1.8-0.3,3.4-0.9,4.8c-0.5,1.4-1.3,2.5-2.4,3.3
		c-1.1,0.8-2.3,1.2-3.6,1.2c-1.8,0-3.2-0.5-4.2-1.8v7.9l-5.2,0.5V1017h4.5l0.2,2c0.7-0.9,1.4-1.4,2.3-1.9s1.8-0.7,2.6-0.7
		C601,1016.3,602.7,1017.1,603.8,1018.8z M600,1025.5c0-2.1-0.2-3.5-0.7-4.3c-0.4-0.8-1.1-1.2-2.1-1.2c-0.5,0-1.1,0.2-1.6,0.5
		s-1,0.9-1.3,1.5v7.4c0.7,1,1.5,1.5,2.6,1.5C598.9,1031,600,1029.2,600,1025.5z"/>
	<path class="st11" d="M1290,1047h-5.3l-0.4-8.9c-0.1-2.1-0.1-4-0.1-5.6c0-1.2,0-2.4,0.1-3.6l-3.5,15.7h-5.1l-3.7-15.7
		c0.1,1.9,0.2,3.7,0.2,5.4c0,1.3,0,2.5-0.1,4l-0.4,8.8h-5.3l1.6-22.7h6.8l3.4,15.4l3.2-15.4h6.8L1290,1047z"/>
	<path class="st11" d="M1308.2,1039.8h-10.8c0.2,1.4,0.5,2.5,1.2,3.1c0.7,0.5,1.5,0.9,2.7,0.9c0.7,0,1.3-0.1,2-0.3
		c0.7-0.2,1.3-0.7,2.1-1.2l2.1,2.9c-2,1.6-4.3,2.4-6.8,2.4c-2.9,0-4.9-0.9-6.5-2.5c-1.5-1.6-2.3-3.8-2.3-6.7c0-1.8,0.3-3.3,1-4.7
		s1.5-2.5,2.7-3.3c1.2-0.8,2.6-1.2,4.4-1.2c2.5,0,4.5,0.8,5.9,2.3s2.1,3.7,2.1,6.5C1308.3,1038.5,1308.2,1039.2,1308.2,1039.8z
		 M1303.2,1036.3c0-2.6-1-4-2.9-4c-0.9,0-1.5,0.3-2.1,1c-0.6,0.7-0.8,1.8-0.9,3.2h5.8L1303.2,1036.3L1303.2,1036.3z"/>
	<path class="st11" d="M1322,1046c-0.7,0.4-1.3,0.8-2.2,1c-0.9,0.2-1.7,0.3-2.5,0.3c-3.8,0-5.7-2.1-5.7-6.3v-8h-2.4v-3.6h2.4v-3.7
		l5.2-0.5v4.4h4l-0.5,3.6h-3.4v8c0,0.8,0.1,1.4,0.4,1.8c0.3,0.3,0.7,0.5,1.2,0.5c0.6,0,1.2-0.2,1.9-0.5L1322,1046z"/>
	<path class="st11" d="M1036,1030.3v18.4h8.8l-0.5,4.3h-13.6v-22.7H1036z"/>
	<path class="st11" d="M1061.5,1045.8h-10.8c0.2,1.4,0.5,2.5,1.2,3.1c0.7,0.5,1.5,0.9,2.7,0.9c0.7,0,1.3-0.1,2-0.3
		c0.7-0.2,1.3-0.7,2.1-1.2l2.1,2.9c-2,1.6-4.3,2.4-6.8,2.4c-2.9,0-4.9-0.9-6.5-2.5c-1.5-1.6-2.3-3.8-2.3-6.7c0-1.8,0.3-3.3,1-4.7
		s1.5-2.5,2.7-3.3c1.2-0.8,2.6-1.2,4.4-1.2c2.5,0,4.5,0.8,5.9,2.3s2.1,3.7,2.1,6.5C1061.6,1044.6,1061.5,1045.2,1061.5,1045.8z
		 M1056.6,1042.5c0-2.6-1-4-2.9-4c-0.9,0-1.5,0.3-2.1,1c-0.6,0.7-0.8,1.8-0.9,3.2h5.8L1056.6,1042.5L1056.6,1042.5z"/>
	<path class="st11" d="M1079.2,1053h-4.5l-0.2-2.2c-1.3,1.9-3,2.7-5.3,2.7c-1.5,0-2.7-0.4-3.6-1.4c-0.8-1-1.2-2.3-1.2-4.1v-12.4h5.2
		v11.8c0,0.9,0.1,1.4,0.4,1.8c0.3,0.3,0.7,0.5,1.2,0.5c1.1,0,2-0.7,2.9-2v-12.1h5.2L1079.2,1053L1079.2,1053z"/>
	<path class="st11" d="M326.2,974.3c1.2,0.4,2.4,1.2,3.4,2.2l-2.5,2.9c-1.5-1.3-3.2-1.9-4.9-1.9c-1,0-1.6,0.2-2.2,0.5
		c-0.5,0.3-0.8,0.9-0.8,1.6c0,0.5,0.1,0.9,0.3,1.2c0.2,0.3,0.7,0.7,1.3,0.9c0.7,0.3,1.5,0.7,2.7,1c2.3,0.8,4,1.6,5.1,2.7
		c1.1,1.1,1.6,2.6,1.6,4.6c0,1.4-0.3,2.6-1.1,3.7c-0.8,1.1-1.8,1.9-3.1,2.5c-1.3,0.5-3,0.9-4.8,0.9c-1.9,0-3.5-0.3-4.9-0.9
		c-1.4-0.5-2.6-1.3-3.6-2.3l2.7-3c0.9,0.8,1.8,1.3,2.7,1.6c0.9,0.3,2,0.5,3.1,0.5s2-0.2,2.6-0.8c0.7-0.4,1-1.2,1-2.1
		c0-0.5-0.1-1-0.3-1.4c-0.2-0.3-0.7-0.8-1.2-1c-0.5-0.3-1.4-0.7-2.5-1c-2.5-0.8-4.3-1.6-5.4-2.9s-1.5-2.5-1.5-4.2
		c0-1.3,0.3-2.4,1.1-3.4c0.7-1,1.6-1.8,2.9-2.3c1.2-0.5,2.6-0.8,4.2-0.8C323.5,973.6,324.9,973.8,326.2,974.3z"/>
	<path class="st11" d="M348.1,989.8h-10.8c0.2,1.4,0.5,2.5,1.2,3.1c0.7,0.5,1.5,0.9,2.7,0.9c0.7,0,1.3-0.1,2-0.3s1.3-0.7,2.1-1.2
		l2.1,2.9c-2,1.6-4.3,2.4-6.8,2.4c-2.9,0-4.9-0.9-6.5-2.5s-2.3-3.8-2.3-6.7c0-1.8,0.3-3.3,1-4.7s1.5-2.5,2.7-3.3s2.6-1.2,4.4-1.2
		c2.5,0,4.5,0.8,5.9,2.3s2.1,3.7,2.1,6.5C348.2,988.5,348.2,989.1,348.1,989.8z M343.2,986.3c0-2.6-1-4-2.9-4c-0.9,0-1.5,0.3-2.1,1
		c-0.5,0.7-0.8,1.8-0.9,3.2h5.8v-0.2H343.2z"/>
	<path class="st11" d="M362.3,979.2l-0.8,5.1c-0.7-0.1-1.2-0.2-1.5-0.2c-1,0-1.8,0.3-2.3,1.1c-0.5,0.7-1,1.8-1.2,3.2v8.6h-5.2v-17.4
		h4.5l0.4,3.4c0.4-1.2,1-2.1,1.8-2.9c0.8-0.7,1.6-1,2.7-1C361.2,979,361.8,979,362.3,979.2z"/>
	<g>
		<path class="st12" d="M656.6,32.6c141.5,0,89,95.4,233.6,95.4"/>
		<path class="st12" d="M656.6,128c141.5,0,89-95.4,233.6-95.4"/>
	</g>
	<polyline class="st6" points="1297.1,1125 1297.1,1148.6 336.9,1148.6 336.9,1075 	"/>
	<polyline class="st6" points="1207.1,227.6 1207.1,198.9 256.9,198.9 256.9,227.6 	"/>
	<g>
		<circle class="st13" cx="864.5" cy="1304.7" r="23"/>
		<circle class="st13" cx="751.2" cy="1227.3" r="23"/>
		<circle class="st13" cx="698.6" cy="1371.8" r="23"/>
		<circle class="st13" cx="785.5" cy="1239.4" r="23"/>
		<circle class="st13" cx="657.9" cy="1386.8" r="23"/>
		<circle class="st13" cx="816.7" cy="1265.1" r="23"/>
		<circle class="st13" cx="739.8" cy="1324.7" r="23"/>
		<circle class="st13" cx="832.9" cy="1334.2" r="23"/>
		<circle class="st13" cx="784.4" cy="1276.4" r="23"/>
		<circle class="st13" cx="778.3" cy="1308.5" r="23"/>
		<circle class="st13" cx="741.6" cy="1367" r="23"/>
		<circle class="st13" cx="798.7" cy="1347.9" r="23"/>
		<circle class="st13" cx="763" cy="1345.2" r="23"/>
		<circle class="st13" cx="870.4" cy="1338.6" r="23"/>
	</g>
	<g>
		<g>
			<polygon class="st5" points="350.4,709.8 350.4,733 358.7,733 338.3,753.5 317.9,733 326.1,733 326.1,709.8 			"/>
		</g>
	</g>
</g>
<line class="st14" x1="152.5" y1="1290.8" x2="573.2" y2="1290.8"/>
<line class="st15" x1="75.5" y1="830.8" x2="156.2" y2="830.8"/>
<line class="st15" x1="75.5" y1="479.9" x2="139.2" y2="479.9"/>
<line class="st16" x1="182.5" y1="85.8" x2="584.2" y2="85.8"/>
<text transform="matrix(1 0 0 1 5.1172 90.0598)" class="st17 st18 st19">Cromosoma</text>
<text transform="matrix(1 0 0 1 5.1172 482.0441)" class="st20 st18 st19">ADN</text>
<text transform="matrix(1 0 0 1 5.1172 1295.0081)" class="st3 st18 st19">Proteïna</text>
<text transform="matrix(1 0 0 1 5.1172 835.0305)" class="st8 st18 st19">ARN</text>
</svg>
