<?xml version="1.0" encoding="utf-8"?>
<!-- Generator: Adobe Illustrator 24.1.0, SVG Export Plug-In . SVG Version: 6.00 Build 0)  -->
<svg version="1.1" id="Capa_1" xmlns="http://www.w3.org/2000/svg" xmlns:xlink="http://www.w3.org/1999/xlink" x="0px" y="0px"
	 viewBox="0 0 1379.6 352.4" style="enable-background:new 0 0 1379.6 352.4;" xml:space="preserve">
<style type="text/css">
	.st0{fill:#FF2A2A;}
	.st1{fill:#373A47;}
	.st2{fill:#ED1F15;}
	.st3{fill:#046B99;}
	.st4{fill:#29B9F9;}
	.st5{fill:#B3BCBC;}
	.st6{enable-background:new    ;}
	.st7{fill:#FFFFFF;}
	.st8{fill:#D4D8D8;}
	.st9{fill:#ECBB21;}
	.st10{fill:#CC6633;}
</style>
<g>
	<g>
		<g>
			<polygon class="st0" points="697.5,16.2 701.7,9.2 694.7,9.2 694.7,2.2 687.7,6.4 680.8,2.2 680.8,9.2 673.7,9.2 678,16.2 
				673.7,23.2 680.8,23.2 680.8,30.1 687.7,25.9 694.7,30.1 694.7,23.2 701.7,23.2 			"/>
		</g>
		<g>
			<g>
				<polygon class="st1" points="699.2,38.8 699.2,59.8 706.7,59.8 688.2,78.4 669.5,59.8 677,59.8 677,38.8 				"/>
			</g>
		</g>
		<g>
			<g>
				<polygon class="st1" points="699.2,310.8 699.2,331.8 706.7,331.8 688.2,350.4 669.5,331.8 677,331.8 677,310.8 				"/>
			</g>
		</g>
	</g>
	<g>
		<g id="g21546-8-3_1_" transform="translate(1.2792744,57.355496)">
			<path class="st2" d="M686.5,138.3c-4.1,0-8.2-2.5-10-7v83.6c0,7.6,4.5,13.7,10,13.7s10-6.2,10-13.7v-83.6
				C694.7,135.8,690.6,138.3,686.5,138.3z"/>
			<path id="rect1318-7-4-1-7_1_" class="st3" d="M390.8,45L390.8,45c5.5,0,10,6.3,10,14.1v168.2c0,7.8-4.5,14.1-10,14.1l0,0
				c-5.5,0-10-6.3-10-14.1V59.1C380.9,51.3,385.3,45,390.8,45z"/>
			<path id="rect1318-6-7-07-7_1_" class="st4" d="M332.4,85.1L332.4,85.1c5.5,0,10,5.9,10,13.2v100.8c0,7.3-4.5,13.2-10,13.2l0,0
				c-5.5,0-10-5.9-10-13.2V98.2C322.4,91,326.9,85.1,332.4,85.1z"/>
			<path id="path595-6-64-60-1_1_" class="st5" d="M1004.3,31.1c-8.9-0.2-26.7-0.7-41.2,3.4c-14.5,4.1-25.7,12.7-40.3,27.8
				c-14.5,15.1-32.4,36.7-48.5,55.4s-30.4,34.6-47.7,51.7s-37.8,35.5-51.5,46.4c-13.8,10.9-20.9,14.4-27.7,18.1s-13.4,7.8-16.6,9.8
				c-3.3,2,25.4,1.9,31.3,0.5c6-1.5,17.9-4.4,31.8-11c13.9-6.6,29.9-17,44.9-29.4s29.1-27,43.1-42.8c14.1-15.9,28.1-33,40.9-48
				c12.8-15,24.4-27.7,36-38.8s23.2-20.5,32.9-26.4s17.6-8.3,22.5-9.4c4.9-1.1,6.7-0.7,6.1-1.7c-0.7-0.9-3.9-3.1-5.5-4.2
				C1013.2,31.3,1013.2,31.3,1004.3,31.1L1004.3,31.1z"/>
			<path class="st5" d="M433.2,36.3c-0.7-0.9-3.9-3.1-5.5-4.2c-1.6-1.1-1.6-1.1-10.5-1.3l0,0c-8.9-0.2-26.7-0.7-41.2,3.4
				c-14.5,4.1-25.7,12.7-40.3,27.8c-14.5,15.1-32.4,36.7-48.5,55.4c-16.1,18.7-30.3,34.6-47.7,51.7c-5.6,5.6-11.6,11.2-17.5,16.7
				v38.7c9.8-5.9,19.9-13.1,29.7-21.2c15-12.4,29.1-27,43.1-42.8c14.1-15.9,28.1-33,40.9-48c12.8-15,24.4-27.7,36-38.8
				s23.2-20.5,32.9-26.4s17.6-8.3,22.5-9.4C432,37,433.9,37.3,433.2,36.3z"/>
			<path class="st5" d="M1192.3,35.3c-13.3,4.4-23.9,12.8-37.6,27c-14.5,15.1-32.4,36.7-48.5,55.4s-30.4,34.6-47.7,51.7
				c-17.3,17.1-37.8,35.5-51.5,46.4c-13.8,10.9-20.9,14.4-27.7,18.1s-13.4,7.8-16.6,9.8c-3.3,2,25.4,1.9,31.3,0.5
				c6-1.5,17.9-4.4,31.8-11s29.9-17,44.9-29.4s29.1-27,43.1-42.8c14.1-15.9,28.1-33,40.9-48c12.8-15,24.4-27.7,36-38.8
				c0.5-0.5,1.1-1,1.6-1.5V35.3z"/>
			<path id="path595-6-6-0-2-0_1_" class="st5" d="M663.1,30.8c-8.9-0.2-26.7-0.7-41.2,3.4c-14.5,4.1-25.7,12.7-40.3,27.8
				c-14.5,15.1-32.4,36.7-48.5,55.4c-16.1,18.7-30.3,34.6-47.7,51.7c-17.3,17.1-37.8,35.5-51.5,46.4c-13.8,10.9-20.9,14.4-27.7,18.1
				c-6.8,3.7-13.4,7.8-16.6,9.8c-3.3,2,25.4,1.9,31.3,0.5c6-1.5,17.9-4.4,31.8-11c13.9-6.6,29.9-17,44.9-29.4s29.1-27,43.1-42.8
				c14.1-15.9,28.1-33,40.9-48s24.4-27.7,36-38.8c11.6-11.1,23.2-20.5,32.9-26.4s17.6-8.3,22.5-9.4c4.9-1.1,6.7-0.7,6.1-1.7
				c-0.7-0.9-3.9-3.1-5.5-4.2C672,31,672,31,663.1,30.8L663.1,30.8z"/>
			<g class="st6">
				<path class="st7" d="M330.3,177.5v-14.4h-5.1v-2.9h13.7v2.9h-5.1v14.4H330.3z"/>
			</g>
			<path class="st8" d="M413.3,238.5c-6.7-3.5-15-8.5-26.6-17.6c-11.5-9.1-26.3-22.4-44.7-39.5c-18.4-17-40.4-37.7-62.5-57.5
				c-20.1-18-40.4-35.3-57.5-48.2v51.5c7.1,6.6,14.2,13.3,20.9,19.7c16.6,15.8,31.2,29.8,46.1,43.3s30,26.6,44,36.1
				s27,15.5,43.1,18.2c16,2.7,35.1,2.2,42.1,0.9C425.2,244.1,420,242,413.3,238.5z"/>
			<path id="rect1318-69-3-7-1_1_" class="st4" d="M1032.1,38.9L1032.1,38.9c5.5,0,10,5.9,10,13.2v156.8c0,7.3-4.5,13.2-10,13.2l0,0
				c-5.5,0-10-5.9-10-13.2V52.1C1022.2,44.8,1026.6,38.9,1032.1,38.9z"/>
			<path id="rect1318-5-3-8-13-3_1_" class="st9" d="M1090.6,50.5L1090.6,50.5c5.5,0,10,6,10,13.4v99.8c0,7.4-4.5,13.4-10,13.4l0,0
				c-5.5,0-10-6-10-13.4V63.9C1080.6,56.5,1085,50.5,1090.6,50.5z"/>
			<path id="rect1318-6-7-56-12-4_1_" class="st9" d="M915.3,83.8L915.3,83.8c5.5,0,10,5.9,10,13.2v100.8c0,7.3-4.5,13.2-10,13.2
				l0,0c-5.5,0-10-5.9-10-13.2V97C905.3,89.7,909.8,83.8,915.3,83.8z"/>
			<path id="rect1318-6-7-5-1-06-8_1_" class="st10" d="M915.3,83.8L915.3,83.8c5.5,0,10,6,10,13.4v45.4c0,7.4-4.5,13.4-10,13.4l0,0
				c-5.5,0-10-6-10-13.4V97.2C905.3,89.8,909.8,83.8,915.3,83.8z"/>
			<path id="rect1318-6-7-5-4-1-8-5_1_" class="st10" d="M1090.6,49.9L1090.6,49.9c5.5,0,10,6,10,13.4v45.4c0,7.4-4.5,13.4-10,13.4
				l0,0c-5.5,0-10-6-10-13.4V63.3C1080.6,55.9,1085,49.9,1090.6,49.9z"/>
			<path id="rect1318-7-4-5-7-8_1_" class="st3" d="M973.7,43.7L973.7,43.7c5.5,0,10,6.3,10,14.1V226c0,7.8-4.5,14.1-10,14.1l0,0
				c-5.5,0-10-6.3-10-14.1V57.8C963.7,50.1,968.2,43.7,973.7,43.7z"/>
			<path id="rect1318-6-7-5-7-98-4-2_1_" class="st4" d="M973.7,43.7L973.7,43.7c5.5,0,10,6.5,10,14.5v78.9c0,8-4.5,14.5-10,14.5
				l0,0c-5.5,0-10-6.5-10-14.5V58.2C963.7,50.2,968.2,43.7,973.7,43.7z"/>
			<path id="rect1318-6-7-5-7-4-4-9-2_1_" class="st3" d="M1032.1,37.3L1032.1,37.3c5.5,0,10,6.5,10,14.5v78.9c0,8-4.5,14.5-10,14.5
				l0,0c-5.5,0-10-6.5-10-14.5V51.8C1022.2,43.8,1026.6,37.3,1032.1,37.3z"/>
			<g class="st6">
				<path class="st7" d="M982.3,175.2h-3.8l-1.5-3.9h-6.9l-1.4,3.9H965l6.7-17.3h3.7L982.3,175.2z M975.9,168.4l-2.4-6.4l-2.3,6.4
					H975.9z"/>
			</g>
			<g class="st6">
				<path class="st7" d="M1040.7,132.2h-3.8l-1.5-3.9h-6.9l-1.4,3.9h-3.7l6.7-17.3h3.7L1040.7,132.2z M1034.3,125.4l-2.4-6.4
					l-2.3,6.4H1034.3z"/>
			</g>
			<g class="st6">
				<path class="st7" d="M919.4,171.1l3.4,1.1c-0.5,1.9-1.4,3.3-2.6,4.2c-1.2,0.9-2.7,1.4-4.6,1.4c-2.3,0-4.2-0.8-5.7-2.3
					c-1.5-1.6-2.2-3.7-2.2-6.4c0-2.9,0.7-5.1,2.2-6.7s3.4-2.4,5.9-2.4c2.1,0,3.8,0.6,5.2,1.9c0.8,0.7,1.4,1.8,1.8,3.2l-3.5,0.8
					c-0.2-0.9-0.6-1.6-1.3-2.1c-0.6-0.5-1.4-0.8-2.4-0.8c-1.3,0-2.3,0.5-3.1,1.4s-1.2,2.4-1.2,4.5c0,2.2,0.4,3.7,1.2,4.7
					c0.8,0.9,1.8,1.4,3.1,1.4c0.9,0,1.7-0.3,2.4-0.9C918.6,173.3,919.1,172.4,919.4,171.1z"/>
			</g>
			<g class="st6">
				<path class="st7" d="M1094.6,139.9l3.4,1.1c-0.5,1.9-1.4,3.3-2.6,4.2s-2.7,1.4-4.6,1.4c-2.3,0-4.2-0.8-5.7-2.3
					c-1.5-1.6-2.2-3.7-2.2-6.4c0-2.9,0.7-5.1,2.2-6.7c1.5-1.6,3.4-2.4,5.9-2.4c2.1,0,3.8,0.6,5.2,1.9c0.8,0.7,1.4,1.8,1.8,3.2
					l-3.5,0.8c-0.2-0.9-0.6-1.6-1.3-2.1c-0.6-0.5-1.4-0.8-2.4-0.8c-1.3,0-2.3,0.5-3.1,1.4c-0.8,0.9-1.2,2.4-1.2,4.5
					c0,2.2,0.4,3.7,1.2,4.7c0.8,0.9,1.8,1.4,3.1,1.4c0.9,0,1.7-0.3,2.4-0.9C1093.9,142,1094.4,141.1,1094.6,139.9z"/>
			</g>
			<g class="st6">
				<path class="st7" d="M1091.2,107.7v-2.9h7.5v6.9c-0.7,0.7-1.8,1.3-3.2,1.9c-1.4,0.5-2.8,0.8-4.2,0.8c-1.8,0-3.4-0.4-4.7-1.1
					c-1.3-0.7-2.3-1.8-3-3.3c-0.7-1.5-1-2.9-1-4.6c0-1.8,0.4-3.4,1.1-4.8c0.8-1.4,1.9-2.5,3.3-3.2c1.1-0.6,2.5-0.9,4.1-0.9
					c2.1,0,3.8,0.4,5,1.3c1.2,0.9,2,2.1,2.3,3.7l-3.5,0.6c-0.2-0.8-0.7-1.5-1.4-2c-0.7-0.5-1.5-0.7-2.5-0.7c-1.5,0-2.7,0.5-3.6,1.5
					c-0.9,1-1.4,2.4-1.4,4.3c0,2.1,0.5,3.6,1.4,4.6s2.1,1.5,3.6,1.5c0.7,0,1.5-0.1,2.2-0.4c0.7-0.3,1.4-0.6,1.9-1v-2.2L1091.2,107.7
					L1091.2,107.7z"/>
			</g>
			<g class="st6">
				<path class="st7" d="M915.9,139v-2.9h7.5v6.9c-0.7,0.7-1.8,1.3-3.2,1.9s-2.8,0.8-4.2,0.8c-1.8,0-3.4-0.4-4.7-1.1s-2.3-1.8-3-3.3
					c-0.7-1.4-1-2.9-1-4.6c0-1.8,0.4-3.4,1.1-4.8c0.8-1.4,1.9-2.5,3.3-3.2c1.1-0.6,2.5-0.9,4.1-0.9c2.1,0,3.8,0.4,5,1.3
					s2,2.1,2.3,3.7l-3.5,0.6c-0.2-0.8-0.7-1.5-1.4-2s-1.5-0.7-2.5-0.7c-1.5,0-2.7,0.5-3.6,1.5c-0.9,1-1.4,2.4-1.4,4.3
					c0,2.1,0.5,3.6,1.4,4.6c0.9,1,2.1,1.5,3.6,1.5c0.7,0,1.5-0.1,2.2-0.4s1.4-0.6,1.9-1V139L915.9,139L915.9,139z"/>
			</g>
			<g class="st6">
				<path class="st7" d="M1030.4,169.9v-14.4h-5.1v-2.9h13.7v2.9h-5.1v14.4H1030.4z"/>
			</g>
			<g class="st6">
				<path class="st7" d="M972,137.4V123h-5.1v-2.9h13.7v2.9h-5.1v14.4H972z"/>
			</g>
			<path id="rect1318-69-9-63-4_1_" class="st10" d="M744.9,47.5L744.9,47.5c5.5,0,10,6.1,10,13.6v162.7c0,7.5-4.5,13.6-10,13.6l0,0
				c-5.5,0-10-6.1-10-13.6V61.1C735,53.6,739.4,47.5,744.9,47.5z"/>
			<path id="rect1318-5-3-0-9-3_1_" class="st3" d="M803.4,91.1L803.4,91.1c5.5,0,10,6.3,10,14v104.4c0,7.7-4.5,14-10,14l0,0
				c-5.5,0-10-6.3-10-14V105.2C793.4,97.4,797.9,91.1,803.4,91.1z"/>
			<path id="rect1318-6-7-8-9-3_1_" class="st10" d="M628.1,52.6L628.1,52.6c5.5,0,10,5.9,10,13.2v100.8c0,7.3-4.5,13.2-10,13.2l0,0
				c-5.5,0-10-5.9-10-13.2V65.8C618.1,58.5,622.6,52.6,628.1,52.6z"/>
			<path id="rect1318-6-7-5-8-5-4_1_" class="st9" d="M628.1,52.6L628.1,52.6c5.5,0,10,6,10,13.4v45.4c0,7.4-4.5,13.4-10,13.4l0,0
				c-5.5,0-10-6-10-13.4V66C618.1,58.6,622.6,52.6,628.1,52.6z"/>
			<path id="rect1318-6-7-5-4-5-2-2_1_" class="st4" d="M803.4,91.1L803.4,91.1c5.5,0,10,6,10,13.4v45.4c0,7.4-4.5,13.4-10,13.4l0,0
				c-5.5,0-10-6-10-13.4v-45.4C793.4,97.1,797.9,91.1,803.4,91.1z"/>
			<path id="rect1318-6-7-5-7-9-3-5_1_" class="st2" d="M686.5,38.4L686.5,38.4c5.5,0,9.2,0.7,10,4.5v78.9c0,8-4.5,14.5-10,14.5l0,0
				c-5.5,0-10-6.5-10-14.5V42.9C676.6,38.5,681,38.4,686.5,38.4z"/>
			<path id="rect1318-6-7-5-7-4-6-0-3_1_" class="st9" d="M744.9,47.5L744.9,47.5c5.5,0,10,6.5,10,14.5v78.9c0,8-4.5,14.5-10,14.5
				l0,0c-5.5,0-10-6.5-10-14.5V62C735,54,739.4,47.5,744.9,47.5z"/>
			<g class="st6">
				<path class="st7" d="M812,185.2h-3.8l-1.5-3.9h-6.9l-1.4,3.9h-3.7l6.7-17.3h3.7L812,185.2z M805.6,178.4l-2.4-6.4l-2.3,6.4
					H805.6z"/>
			</g>
			<path id="path591-8-1-1_1_" class="st8" d="M646.8,30.8c10.8-0.4,32.3-1.2,50.7,1c18.3,2.1,33.4,7.1,48,13.4s28.6,13.7,46.7,26.9
				c18.1,13.2,40.4,32,62.5,51.8s44.1,40.5,62.5,57.5s33.2,30.3,44.7,39.5c11.5,9.1,19.9,14.1,26.6,17.6c6.7,3.5,11.9,5.6,4.9,6.9
				s-26.1,1.9-42.1-0.9c-16-2.7-29-8.7-43.1-18.2c-14-9.5-29.2-22.6-44-36.1c-14.9-13.5-29.5-27.5-46.1-43.3s-35.2-33.4-51.4-47.4
				c-16.2-14.1-30-24.7-44.1-33.4c-14-8.7-28.3-15.5-40.5-20.7s-22.5-8.8-28.8-10.7c-6.2-1.9-8.4-2.3-10.6-2.6s-4.4-0.6-5.4-0.8
				C636,31.2,636,31.2,646.8,30.8L646.8,30.8z"/>
			<g class="st6">
				<path class="st7" d="M684.8,122.2v-14.4h-5.1v-2.9h13.7v2.9h-5.1v14.4L684.8,122.2L684.8,122.2z"/>
			</g>
			<g class="st6">
				<path class="st7" d="M749,133.5l3.4,1.1c-0.5,1.9-1.4,3.3-2.6,4.2c-1.2,0.9-2.7,1.4-4.6,1.4c-2.3,0-4.2-0.8-5.7-2.3
					c-1.5-1.6-2.2-3.7-2.2-6.4c0-2.9,0.7-5.1,2.2-6.7c1.5-1.6,3.4-2.4,5.9-2.4c2.1,0,3.8,0.6,5.2,1.9c0.8,0.7,1.4,1.8,1.8,3.2
					l-3.5,0.8c-0.2-0.9-0.6-1.6-1.3-2.1c-0.6-0.5-1.4-0.8-2.4-0.8c-1.3,0-2.3,0.5-3.1,1.4s-1.2,2.4-1.2,4.5c0,2.2,0.4,3.7,1.2,4.7
					c0.8,0.9,1.8,1.4,3.1,1.4c0.9,0,1.7-0.3,2.4-0.9C748.3,135.7,748.7,134.8,749,133.5z"/>
			</g>
			<g class="st6">
				<path class="st7" d="M632.2,105.4l3.4,1.1c-0.5,1.9-1.4,3.3-2.6,4.2s-2.7,1.4-4.6,1.4c-2.3,0-4.2-0.8-5.7-2.3
					c-1.5-1.6-2.2-3.7-2.2-6.4c0-2.9,0.7-5.1,2.2-6.7c1.5-1.6,3.4-2.4,5.9-2.4c2.1,0,3.8,0.6,5.2,1.9c0.8,0.7,1.4,1.8,1.8,3.2
					l-3.5,0.8c-0.2-0.9-0.6-1.6-1.3-2.1c-0.6-0.5-1.4-0.8-2.4-0.8c-1.3,0-2.3,0.5-3.1,1.4c-0.8,0.9-1.2,2.4-1.2,4.5
					c0,2.2,0.4,3.7,1.2,4.7c0.8,0.9,1.8,1.4,3.1,1.4c0.9,0,1.7-0.3,2.4-0.9C631.4,107.6,631.9,106.7,632.2,105.4z"/>
			</g>
			<g class="st6">
				<path class="st7" d="M745.6,171.3v-2.9h7.5v6.9c-0.7,0.7-1.8,1.3-3.2,1.9s-2.8,0.8-4.2,0.8c-1.8,0-3.4-0.4-4.7-1.1
					c-1.3-0.8-2.3-1.8-3-3.3s-1-2.9-1-4.6c0-1.8,0.4-3.4,1.1-4.8c0.8-1.4,1.9-2.5,3.3-3.2c1.1-0.6,2.5-0.9,4.1-0.9
					c2.1,0,3.8,0.4,5,1.3s2,2.1,2.3,3.7l-3.5,0.6c-0.2-0.8-0.7-1.5-1.4-2s-1.5-0.7-2.5-0.7c-1.5,0-2.7,0.5-3.6,1.5
					c-0.9,1-1.4,2.4-1.4,4.3c0,2.1,0.5,3.6,1.4,4.6s2.1,1.5,3.6,1.5c0.7,0,1.5-0.1,2.2-0.4s1.4-0.6,1.9-1v-2.2L745.6,171.3
					L745.6,171.3z"/>
			</g>
			<g class="st6">
				<path class="st7" d="M801.6,155.6v-14.4h-5.1v-2.9h13.7v2.9h-5.1v14.4H801.6z"/>
			</g>
			<g class="st6">
				<path class="st7" d="M695.1,168.4h-3.8l-1.5-3.9h-6.9l-1.4,3.9h-3.7l6.7-17.3h3.7L695.1,168.4z M688.7,161.6l-2.4-6.4l-2.3,6.4
					H688.7z"/>
			</g>
			<path id="rect1318-6-7-5-18-1_1_" class="st3" d="M332.4,85.1L332.4,85.1c5.5,0,10,6,10,13.4v45.4c0,7.4-4.5,13.4-10,13.4l0,0
				c-5.5,0-10-6-10-13.4V98.5C322.4,91.1,326.9,85.1,332.4,85.1z"/>
			<g class="st6">
				<path class="st7" d="M341,141.5h-3.8l-1.5-3.9h-6.9l-1.4,3.9h-3.7l6.7-17.3h3.7L341,141.5z M334.6,134.7l-2.4-6.4l-2.3,6.4
					H334.6z"/>
			</g>
			<path id="rect1318-6-7-5-7-1-7_1_" class="st4" d="M390.8,45L390.8,45c5.5,0,10,6.5,10,14.5v78.9c0,8-4.5,14.5-10,14.5l0,0
				c-5.5,0-10-6.5-10-14.5V59.5C380.9,51.5,385.3,45,390.8,45z"/>
			<g class="st6">
				<path class="st7" d="M399.5,178h-3.8l-1.5-3.9h-6.9l-1.4,3.9h-3.7l6.7-17.3h3.7L399.5,178z M393,171.1l-2.4-6.4l-2.3,6.4H393z"
					/>
			</g>
			<g class="st6">
				<path class="st7" d="M389.1,133.9v-14.4H384v-2.9h13.7v2.9h-5.1v14.4H389.1z"/>
			</g>
			<path id="rect1318-69-4-0_1_" class="st3" d="M449.3,38.5L449.3,38.5c5.5,0,10,6.1,10,13.6v162.7c0,7.5-4.5,13.6-10,13.6l0,0
				c-5.5,0-10-6.1-10-13.6V52.2C439.3,44.6,443.8,38.5,449.3,38.5z"/>
			<path id="rect1318-6-7-5-7-4-5-4_1_" class="st4" d="M449.3,38.5L449.3,38.5c5.5,0,10,6.5,10,14.5v78.9c0,8-4.5,14.5-10,14.5l0,0
				c-5.5,0-10-6.5-10-14.5V53C439.3,45,443.8,38.5,449.3,38.5z"/>
			<g class="st6">
				<path class="st7" d="M457.9,170.2h-3.8l-1.5-3.9h-6.9l-1.4,3.9h-3.7l6.7-17.3h3.7L457.9,170.2z M451.5,163.4l-2.4-6.4l-2.3,6.4
					H451.5z"/>
			</g>
			<g class="st6">
				<path class="st7" d="M447.5,129.9v-14.4h-5.1v-2.9h13.7v2.9H451v14.4H447.5z"/>
			</g>
			<path id="rect1318-5-3-9-4_1_" class="st3" d="M507.7,51.2L507.7,51.2c5.5,0,10,6.3,10,14v104.4c0,7.7-4.5,14-10,14l0,0
				c-5.5,0-10-6.3-10-14V65.2C497.7,57.4,502.2,51.2,507.7,51.2z"/>
			<path id="rect1318-6-7-5-4-9-3_1_" class="st4" d="M507.7,51.2L507.7,51.2c5.5,0,10,6,10,13.4v45.3c0,7.4-4.5,13.4-10,13.4l0,0
				c-5.5,0-10-6-10-13.4V64.5C497.7,57.2,502.2,51.2,507.7,51.2z"/>
			<g class="st6">
				<path class="st7" d="M516.3,148.6h-3.8l-1.5-3.9h-6.9l-1.4,3.9H499l6.7-17.3h3.7L516.3,148.6z M509.9,141.7l-2.4-6.4l-2.3,6.4
					H509.9z"/>
			</g>
			<g class="st6">
				<path class="st7" d="M506,110.3V95.9h-5.1V93h13.7v2.9h-5.2v14.4H506z"/>
			</g>
			<path id="path591-2-4-6-7_1_" class="st8" d="M413.1,30.8c10.8-0.4,32.3-1.2,50.7,1c18.3,2.1,33.4,7.1,48,13.4
				c14.6,6.3,28.6,13.7,46.7,26.9c18.1,13.2,40.4,32,62.5,51.8c22.1,19.8,44.1,40.5,62.5,57.5c18.4,17,33.2,30.3,44.7,39.5
				c11.5,9.1,19.9,14.1,26.6,17.6c6.7,3.5,11.9,5.6,4.9,6.9s-26.1,1.9-42.1-0.9c-16-2.7-29-8.7-43.1-18.2c-14-9.5-29.2-22.6-44-36.1
				c-14.9-13.5-29.5-27.5-46.1-43.3c-16.6-15.8-35.2-33.4-51.4-47.4c-16.2-14.1-30-24.7-44.1-33.4c-14-8.7-28.3-15.5-40.5-20.7
				s-22.5-8.8-28.8-10.7c-6.2-1.9-8.4-2.3-10.6-2.6s-4.4-0.6-5.4-0.8C402.3,31.2,402.3,31.2,413.1,30.8L413.1,30.8z"/>
			<path class="st8" d="M1192.3,120.9c-21-18.7-41.9-36.3-59.1-48.8c-18.1-13.2-32.2-20.7-46.7-26.9c-14.6-6.3-29.7-11.3-48-13.4
				c-18.3-2.1-39.9-1.4-50.7-1l0,0c-10.8,0.4-10.8,0.4-9.7,0.5c1.1,0.2,3.3,0.5,5.4,0.8c2.2,0.3,4.4,0.6,10.6,2.6
				c6.2,1.9,16.5,5.5,28.8,10.7s26.5,12,40.5,20.7s27.9,19.3,44.1,33.4c16.2,14.1,34.8,31.7,51.4,47.4
				c11.8,11.2,22.7,21.6,33.3,31.5v-57.5H1192.3z"/>
		</g>
	</g>
</g>
</svg>
