<?xml version="1.0" encoding="utf-8"?>
<!-- Generator: Adobe Illustrator 24.1.0, SVG Export Plug-In . SVG Version: 6.00 Build 0)  -->
<svg version="1.1" xmlns="http://www.w3.org/2000/svg" xmlns:xlink="http://www.w3.org/1999/xlink" x="0px" y="0px"
	 viewBox="0 0 683.2 471" style="enable-background:new 0 0 683.2 471;" xml:space="preserve">
<style type="text/css">
	.st0{fill:none;stroke:#8FB5BC;stroke-miterlimit:10;}
	.st1{enable-background:new    ;}
	.st2{fill:#8FB5BC;}
	.st3{fill:#FFFFFF;stroke:#005372;stroke-width:0.5669;stroke-miterlimit:10;}
	.st4{fill:#FF2A2A;stroke:#005372;stroke-width:0.5669;stroke-miterlimit:10;}
	.st5{fill:#FFFFFF;stroke:#FF6600;stroke-width:0.75;stroke-miterlimit:10;}
	.st6{fill:none;stroke:#FF6600;stroke-width:0.75;stroke-miterlimit:10;}
	.st7{fill:#FF2A2A;}
	.st8{fill:#373A47;}
	.st9{fill:none;stroke:#005372;stroke-width:10;stroke-miterlimit:10;}
	.st10{fill:none;stroke:#D4D8D8;stroke-width:9;stroke-miterlimit:10;}
</style>
<g id="Capa_1">
	<g>
		<rect x="54" y="391" class="st0" width="200" height="45"/>
		<g>
			<g class="st1">
				<path class="st2" d="M85.8,406.8c1.3,1,1.9,2.4,1.9,4.2c0,2-0.6,3.4-1.9,4.4c-1.2,1-2.9,1.5-5,1.5h-1.9v5.8h-4.1v-17.3h5.6
					C82.7,405.3,84.5,405.8,85.8,406.8z M82.7,413.2c0.5-0.5,0.8-1.2,0.8-2.3c0-1.8-1-2.7-3.1-2.7h-1.4v5.7h1.5
					C81.4,413.9,82.2,413.7,82.7,413.2z"/>
				<path class="st2" d="M97.8,409.2l-0.6,3.8c-0.5-0.1-0.9-0.2-1.2-0.2c-0.8,0-1.4,0.3-1.8,0.8c-0.4,0.5-0.7,1.4-1,2.4v6.6h-4
					v-13.3h3.5L93,412c0.3-0.9,0.8-1.6,1.4-2.2c0.6-0.5,1.3-0.8,2.1-0.8C96.9,409,97.4,409.1,97.8,409.2z"/>
				<path class="st2" d="M109.1,410.8c1.1,1.2,1.7,3,1.7,5.2c0,1.4-0.3,2.7-0.8,3.7c-0.5,1.1-1.3,1.9-2.2,2.5
					c-1,0.6-2.1,0.9-3.5,0.9c-2,0-3.6-0.6-4.8-1.9c-1.2-1.2-1.7-3-1.7-5.2c0-1.4,0.3-2.7,0.8-3.7s1.3-1.9,2.2-2.5
					c1-0.6,2.1-0.9,3.5-0.9C106.3,409,107.9,409.6,109.1,410.8z M102.5,412.9c-0.4,0.7-0.6,1.7-0.6,3.1c0,1.5,0.2,2.5,0.6,3.2
					c0.4,0.7,1,1,1.8,1c0.8,0,1.4-0.3,1.8-1s0.6-1.7,0.6-3.1c0-1.5-0.2-2.5-0.6-3.2s-1-1-1.8-1C103.5,411.9,102.9,412.2,102.5,412.9
					z"/>
				<path class="st2" d="M121.5,422c-0.5,0.3-1,0.6-1.7,0.8c-0.6,0.2-1.3,0.3-1.9,0.3c-2.9,0-4.4-1.6-4.4-4.8v-6.2h-1.9v-2.8h1.9
					v-2.9l4-0.4v3.3h3l-0.4,2.8h-2.6v6.1c0,0.6,0.1,1.1,0.3,1.3c0.2,0.3,0.5,0.4,1,0.4c0.5,0,0.9-0.1,1.4-0.4L121.5,422z"/>
				<path class="st2" d="M133.8,417.2h-8.2c0.1,1.1,0.4,1.9,0.9,2.3s1.2,0.7,2.1,0.7c0.5,0,1-0.1,1.5-0.3s1-0.5,1.6-0.9l1.6,2.2
					c-1.5,1.2-3.3,1.8-5.2,1.8c-2.1,0-3.8-0.6-5-1.9s-1.7-3-1.7-5.1c0-1.3,0.2-2.6,0.7-3.6c0.5-1.1,1.2-1.9,2.1-2.5
					c0.9-0.6,2.1-0.9,3.4-0.9c1.9,0,3.4,0.6,4.5,1.8c1.1,1.2,1.6,2.9,1.6,5C133.9,416.3,133.9,416.8,133.8,417.2z M130,414.6
					c0-2-0.8-3-2.1-3c-0.7,0-1.2,0.2-1.6,0.8s-0.6,1.3-0.7,2.5h4.4V414.6z"/>
				<path class="st2" d="M136.6,403.3c0.4,0.4,0.6,0.9,0.6,1.4s-0.2,1-0.6,1.4c-0.4,0.4-0.9,0.6-1.4,0.6c-0.6,0-1-0.2-1.4-0.6
					c-0.4-0.4-0.6-0.9-0.6-1.4s0.2-1,0.6-1.4c0.4-0.4,0.9-0.6,1.4-0.6C135.8,402.7,136.3,402.9,136.6,403.3z M140.1,409.4v13.3h-4
					v-13.3H140.1z M142.4,403.3c0.4,0.4,0.6,0.9,0.6,1.4s-0.2,1-0.6,1.4c-0.4,0.4-0.9,0.6-1.5,0.6c-0.5,0-1-0.2-1.4-0.6
					c-0.4-0.4-0.6-0.9-0.6-1.4s0.2-1,0.6-1.4c0.4-0.4,0.9-0.6,1.4-0.6C141.6,402.7,142.1,402.9,142.4,403.3z"/>
				<path class="st2" d="M153.7,410c0.6,0.7,1,1.7,1,3v9.7h-4v-9c0-0.7-0.1-1.1-0.3-1.4c-0.2-0.3-0.5-0.4-0.9-0.4
					c-0.8,0-1.6,0.6-2.3,1.7v9.1h-4v-13.3h3.5l0.3,1.6c0.6-0.7,1.2-1.2,1.8-1.5c0.7-0.3,1.4-0.5,2.2-0.5
					C152.1,409,153,409.3,153.7,410z"/>
				<path class="st2" d="M168.4,419.9c0.1,0.2,0.4,0.4,0.7,0.5l-0.8,2.6c-0.8-0.1-1.5-0.2-2-0.5s-0.9-0.8-1.2-1.4
					c-0.9,1.3-2.2,2-4,2c-1.3,0-2.4-0.4-3.1-1.1c-0.8-0.8-1.2-1.8-1.2-3c0-1.5,0.5-2.6,1.6-3.3c1.1-0.8,2.6-1.2,4.6-1.2h1.4v-0.6
					c0-0.8-0.2-1.3-0.5-1.6c-0.3-0.3-0.9-0.4-1.8-0.4c-0.4,0-1,0.1-1.6,0.2s-1.2,0.3-1.9,0.5l-0.9-2.6c0.8-0.3,1.7-0.6,2.6-0.7
					c0.9-0.2,1.7-0.2,2.4-0.2c1.9,0,3.3,0.4,4.2,1.2c0.9,0.8,1.3,2,1.3,3.5v5.2C168.2,419.3,168.2,419.7,168.4,419.9z M164.3,419
					v-2.4h-1c-0.9,0-1.6,0.2-2,0.5s-0.7,0.8-0.7,1.5c0,0.5,0.1,0.9,0.4,1.2c0.3,0.3,0.7,0.4,1.1,0.4
					C163.1,420.3,163.8,419.8,164.3,419z"/>
				<path class="st2" d="M189.3,414.8c0.7,0.6,1.1,1.6,1.1,2.9c0,1.8-0.7,3.2-2,3.9c-1.3,0.8-3.2,1.1-5.6,1.1h-5.6v-17.3h4.9
					c2.4,0,4.3,0.3,5.6,1c1.3,0.7,1.9,1.8,1.9,3.4c0,1-0.3,1.8-0.9,2.5s-1.4,1-2.3,1.3C187.7,413.7,188.6,414.1,189.3,414.8z
					 M181.4,408.2v4h1.5c1.7,0,2.6-0.7,2.6-2.1c0-0.7-0.2-1.2-0.7-1.5c-0.5-0.3-1.2-0.4-2.2-0.4H181.4z M185.4,419.2
					c0.6-0.3,0.8-0.9,0.8-1.8c0-1.6-1-2.4-3-2.4h-1.8v4.7h1.5C184,419.7,184.8,419.5,185.4,419.2z"/>
				<path class="st2" d="M198.4,416h-1.6v6.6h-4.1v-17.3h5.7c2.4,0,4.1,0.4,5.3,1.3c1.2,0.9,1.8,2.2,1.8,4c0,1.1-0.3,2-0.8,2.8
					c-0.5,0.7-1.4,1.4-2.5,1.9l4.4,7.4H202L198.4,416z M196.8,413.2h1.7c0.9,0,1.6-0.2,2.1-0.6c0.5-0.4,0.7-1.1,0.7-2
					c0-0.8-0.2-1.4-0.7-1.8c-0.5-0.4-1.2-0.6-2.3-0.6h-1.5V413.2z"/>
				<path class="st2" d="M217.3,422.7l-0.9-3.7h-5l-0.9,3.7h-4.2l5.2-17.3h5l5.2,17.3H217.3z M212,416h3.7l-1.8-7.6L212,416z"/>
				<path class="st2" d="M222.9,422.7v-17.3h10.3l-0.4,2.9H227v4.6h5.1v2.9H227v6.9H222.9z"/>
			</g>
		</g>
	</g>
	<g>
		<circle class="st3" cx="231.5" cy="256.4" r="23"/>
		<circle class="st3" cx="118.1" cy="179" r="23"/>
		<circle class="st3" cx="65.6" cy="323.5" r="23"/>
		<circle class="st3" cx="152.5" cy="191.1" r="23"/>
		<circle class="st3" cx="24.8" cy="338.5" r="23"/>
		<ellipse transform="matrix(0.1602 -0.9871 0.9871 0.1602 -59.726 363.4005)" class="st3" cx="183.7" cy="216.8" rx="23" ry="23"/>
		<circle class="st3" cx="106.8" cy="276.4" r="23"/>
		<ellipse transform="matrix(0.1602 -0.9871 0.9871 0.1602 -114.5114 437.408)" class="st3" cx="199.8" cy="286" rx="23" ry="23"/>
		<circle class="st3" cx="151.4" cy="228.2" r="23"/>
		<circle class="st3" cx="145.2" cy="260.3" r="23"/>
		<circle class="st3" cx="108.6" cy="318.7" r="23"/>
		<circle class="st3" cx="165.7" cy="299.6" r="23"/>
		<circle class="st3" cx="130" cy="296.9" r="23"/>
		<circle class="st4" cx="237.4" cy="290.3" r="23"/>
	</g>
	<g>
		<rect x="159" y="74" class="st5" width="146" height="47"/>
		<line class="st6" x1="235" y1="258" x2="235" y2="121"/>
		<g>
			<g class="st1">
				<path class="st7" d="M194.2,90.5l-2.1,2.2c-0.6-0.5-1.2-0.8-1.7-1c-0.5-0.2-1.1-0.3-1.8-0.3c-1.3,0-2.3,0.5-3.1,1.5
					c-0.8,1-1.1,2.5-1.1,4.6c0,2.2,0.3,3.8,0.9,4.7c0.6,0.9,1.5,1.4,2.7,1.4c0.9,0,1.7-0.2,2.4-0.6v-3.9h-2.2l-0.4-2.9h6.6v8.6
					c-0.9,0.6-1.9,1-3,1.4c-1.1,0.3-2.2,0.5-3.2,0.5c-2.6,0-4.6-0.8-5.9-2.3c-1.3-1.5-2-3.8-2-6.8c0-1.9,0.4-3.5,1.1-4.9
					c0.7-1.4,1.7-2.4,3-3.1c1.3-0.7,2.7-1.1,4.2-1.1C190.7,88.4,192.6,89.1,194.2,90.5z"/>
				<path class="st7" d="M208.5,100.7h-8.2c0.1,1.1,0.4,1.9,0.9,2.3s1.2,0.7,2.1,0.7c0.5,0,1-0.1,1.5-0.3s1-0.5,1.6-0.9l1.6,2.2
					c-1.5,1.2-3.3,1.8-5.2,1.8c-2.1,0-3.8-0.6-5-1.9c-1.1-1.3-1.7-3-1.7-5.1c0-1.3,0.2-2.6,0.7-3.6c0.5-1.1,1.2-1.9,2.1-2.5
					s2.1-0.9,3.4-0.9c1.9,0,3.4,0.6,4.5,1.8c1.1,1.2,1.6,2.9,1.6,5C208.6,99.8,208.5,100.3,208.5,100.7z M204.7,98.1
					c0-2-0.8-3-2.2-3c-0.7,0-1.2,0.2-1.6,0.8s-0.6,1.3-0.7,2.5h4.4V98.1z"/>
				<path class="st7" d="M221.2,93.5c0.7,0.7,1,1.7,1,3v9.7h-4v-9c0-0.7-0.1-1.1-0.3-1.4c-0.2-0.3-0.5-0.4-0.9-0.4
					c-0.8,0-1.6,0.6-2.3,1.7v9.1h-4V92.9h3.5l0.3,1.6c0.6-0.7,1.2-1.2,1.8-1.5c0.7-0.3,1.4-0.5,2.2-0.5
					C219.7,92.5,220.6,92.8,221.2,93.5z"/>
				<path class="st7" d="M243.2,98.3c0.7,0.6,1.1,1.6,1.1,2.9c0,1.8-0.7,3.2-2,3.9c-1.3,0.8-3.2,1.1-5.6,1.1h-5.6V88.8h4.9
					c2.4,0,4.3,0.3,5.6,1c1.3,0.7,1.9,1.8,1.9,3.4c0,1-0.3,1.8-0.9,2.5s-1.4,1-2.3,1.3C241.6,97.2,242.5,97.6,243.2,98.3z
					 M235.3,91.7v4h1.5c1.7,0,2.6-0.7,2.6-2.1c0-0.7-0.2-1.2-0.7-1.5c-0.5-0.3-1.2-0.4-2.2-0.4H235.3z M239.3,102.7
					c0.6-0.3,0.8-0.9,0.8-1.8c0-1.6-1-2.4-3-2.4h-1.8v4.7h1.5C237.9,103.2,238.7,103,239.3,102.7z"/>
				<path class="st7" d="M252.3,99.5h-1.6v6.6h-4.1V88.8h5.7c2.4,0,4.1,0.4,5.3,1.3c1.2,0.9,1.8,2.2,1.8,4c0,1.1-0.3,2-0.8,2.8
					c-0.5,0.7-1.4,1.4-2.5,1.9l4.4,7.4h-4.6L252.3,99.5z M250.7,96.7h1.7c0.9,0,1.6-0.2,2.1-0.6c0.5-0.4,0.7-1.1,0.7-2
					c0-0.8-0.2-1.4-0.7-1.8c-0.5-0.4-1.2-0.6-2.3-0.6h-1.5V96.7z"/>
				<path class="st7" d="M271.2,106.2l-0.9-3.7h-5l-0.9,3.7h-4.2l5.2-17.3h5l5.2,17.3H271.2z M265.9,99.5h3.6l-1.8-7.6L265.9,99.5z"
					/>
				<path class="st7" d="M276.8,106.2V88.8h10.3l-0.4,2.9h-5.8v4.6h5v2.9h-5v6.9H276.8z"/>
			</g>
		</g>
	</g>
	<g>
		<g>
			<polygon class="st8" points="245.9,0.8 245.9,17.9 253.4,17.9 234.8,36.5 216.3,17.9 223.8,17.9 223.8,0.8 			"/>
		</g>
	</g>
	<polygon class="st8" points="302.4,242.6 322.2,242.6 322.2,235.6 339.5,252.9 322.2,270.3 322.2,263.3 302.4,263.3 	"/>
	<path class="st9" d="M432.1,204.7c-7.6-106.5,54.9-68.1,58.7,45.9c1.8,54.8-19.8,56.2-24.5,71.8"/>
	<path class="st9" d="M440,332.7"/>
	<path class="st9" d="M371.2,330.9c-84.8-86,124.2-54.9,169.2-93.3c36.2-30.8,24.2-50.6-2.1-59.9c-42.8-15.5-116.9-14.4-151.5,46.6"
		/>
	<path class="st9" d="M382.5,336.4c117.7,65.5,222.8-33.7,222.8-33.7"/>
	<path class="st9" d="M628,354.5c-90.4,39.8-105.6-52.8-63.3-98.4c18.6-20.1,87.1-37.8,60.1,29.9"/>
	<path class="st9" d="M388.2,247.2c10.5,216.8,209.8,119.1,193,75.8c-15.5-40-51.5-25.5-64.4-21.5"/>
	<path class="st9" d="M437.1,228.4c36.1,53.6-48.2,72.9-50.3,95.8"/>
	<path class="st9" d="M612.6,294.2c-11.9-42.7,35.1-89.9-7-113.8"/>
	<path class="st9" d="M590.2,163.3c-129.3-48.8,21.6,92.5-47.9,132.1"/>
	<path class="st9" d="M564.6,256.2c0,0,37.1-105.6,86.4-18.2"/>
	<path class="st9" d="M647.8,344.9c15.8-24,23.8-53.6,8.3-98.4"/>
	<path class="st9" d="M517.5,211c-202-128.2-149.5,18.1-133.7,19.6"/>
	<path class="st9" d="M392.5,232.8c58.1-40.7,94.8-34,115.8-22.9"/>
	<path class="st9" d="M430.6,353.1c27.5-27.2,81.5-51.4,81.5-51.4"/>
	<path class="st9" d="M512.7,215.1c30.6,3,38.9,55.9-0.4,82.9"/>
	<path class="st9" d="M440,332.7"/>
	<polygon class="st7" points="285,247.2 280.8,244.7 280.8,248.8 276.8,248.8 279.2,253 276.8,257.1 280.8,257.1 280.8,261.3 
		285,258.8 289.1,261.3 289.1,257.1 293.2,257.1 290.8,253 293.2,248.8 289.1,248.8 289.1,244.7 	"/>
</g>
<g id="Capa_2">
	<path class="st10" d="M432.1,204.7c-7.6-106.5,54.9-68.1,58.7,45.9c1.8,54.8-19.8,56.2-24.5,71.8"/>
	<path class="st10" d="M371.2,330.9c-84.8-86,124.2-54.9,169.2-93.3c36.2-30.8,24.2-50.6-2.1-59.9c-42.8-15.5-116.9-14.4-151.5,46.6
		"/>
	<path class="st10" d="M382.5,336.4c117.7,65.5,222.8-33.7,222.8-33.7"/>
	<path class="st10" d="M628,354.5c-90.4,39.8-105.6-52.8-63.3-98.4c18.6-20.1,87.1-37.8,60.1,29.9"/>
	<path class="st10" d="M388.2,247.2c10.5,216.8,209.8,119.1,193,75.8c-15.5-40-51.5-25.5-64.4-21.5"/>
	<path class="st10" d="M612.6,294.2c-11.9-42.7,35.1-89.9-7-113.8"/>
	<path class="st10" d="M590.2,163.3c-129.3-48.8,21.6,92.5-47.9,132.1"/>
	<path class="st10" d="M564.6,256.2c0,0,37.1-105.6,86.4-18.2"/>
	<path class="st10" d="M647.8,344.9c15.8-24,23.8-53.6,8.3-98.4"/>
	<path class="st10" d="M517.5,211c-202-128.2-149.5,18.1-133.7,19.6"/>
	<path class="st10" d="M392.5,232.8c58.1-40.7,94.8-34,115.8-22.9"/>
	<path class="st10" d="M430.6,353.1c27.5-27.2,81.5-51.4,81.5-51.4"/>
	<path class="st10" d="M512.7,215.1c30.6,3,38.9,55.9-0.4,82.9"/>
	<path class="st10" d="M437.1,228.4c36.1,53.6-48.2,72.9-50.3,95.8"/>
</g>
<g id="Capa_3">
	<circle class="st3" cx="513" cy="299.9" r="23"/>
	<circle class="st3" cx="440.3" cy="218.4" r="23"/>
	<circle class="st3" cx="597.9" cy="172.2" r="23"/>
	<circle class="st3" cx="517.8" cy="211.2" r="23"/>
	<circle class="st3" cx="566.8" cy="364.4" r="23"/>
	<circle class="st3" cx="616.8" cy="293.7" r="23"/>
	<circle class="st3" cx="658.5" cy="247.5" r="23"/>
	<circle class="st4" cx="637.8" cy="351.4" r="23"/>
	<circle class="st3" cx="388.4" cy="238.7" r="23"/>
	<circle class="st3" cx="372.7" cy="334.3" r="23"/>
	<circle class="st3" cx="556.1" cy="264.8" r="23"/>
	<circle class="st3" cx="458.6" cy="324.5" r="23"/>
	<circle class="st3" cx="375" cy="169.3" r="23"/>
	<circle class="st3" cx="438.3" cy="275.4" r="23"/>
	<circle class="st3" cx="510.3" cy="386.3" r="23"/>
	<ellipse transform="matrix(0.7071 -0.7071 0.7071 0.7071 18.6913 385.6277)" class="st3" cx="474.8" cy="170.3" rx="23" ry="23"/>
</g>
</svg>
