<?xml version="1.0" encoding="utf-8"?>
<!-- Generator: Adobe Illustrator 24.1.0, SVG Export Plug-In . SVG Version: 6.00 Build 0)  -->
<svg version="1.1" id="Capa_1" xmlns="http://www.w3.org/2000/svg" xmlns:xlink="http://www.w3.org/1999/xlink" x="0px" y="0px"
	 viewBox="0 0 1003.9 937.7" style="enable-background:new 0 0 1003.9 937.7;" xml:space="preserve">
<style type="text/css">
	.st0{fill:#8FB5BC;}
	.st1{fill:#FF2A2A;}
	.st2{fill:#373A47;}
	.st3{fill:none;stroke:#B3BCBC;stroke-miterlimit:10;}
	.st4{fill:none;stroke:#FF2A2A;stroke-miterlimit:10;}
	.st5{enable-background:new    ;}
	.st6{fill:#B3BCBC;}
	.st7{fill:#ED1F15;}
	.st8{fill:#CC6633;}
	.st9{fill:#FFFFFF;}
	.st10{fill:#2EC27E;}
	.st11{fill:#046B99;}
	.st12{fill:#D4D8D8;}
	.st13{fill:#ECBB21;}
	.st14{fill:#29B9F9;}
</style>
<g>
	<g>
		<g>
			<path class="st0" d="M613.7,19.6V4.2c-63.8,0-88.1,19.6-108.4,40.4c-20-20.7-43.8-40.4-106.2-40.4v15.5
				c56.4,0,76.9,16.9,95.5,36.1c-18.5,19.1-39.1,36.1-95.5,36.1v15.5c62.4,0,86.1-19.7,106.2-40.4c20.3,20.8,44.6,40.4,108.4,40.4
				V91.7c-57.8,0-79-16.8-97.7-36.1C534.7,36.4,555.9,19.6,613.7,19.6z"/>
			<polygon class="st1" points="493.1,100.3 497.3,93.3 490.3,93.3 490.3,86.3 483.3,90.5 476.4,86.3 476.4,93.3 469.3,93.3 
				473.6,100.3 469.3,107.3 476.4,107.3 476.4,114.2 483.3,110 490.3,114.2 490.3,107.3 497.3,107.3 			"/>
		</g>
		<g>
			<g>
				<polygon class="st2" points="494.8,136.9 494.8,157.9 502.3,157.9 483.8,176.5 465.1,157.9 472.6,157.9 472.6,136.9 				"/>
			</g>
		</g>
		<g>
			<g>
				<polygon class="st2" points="494.8,444.9 494.8,465.9 502.3,465.9 483.8,484.5 465.1,465.9 472.6,465.9 472.6,444.9 				"/>
			</g>
		</g>
		<g>
			<ellipse class="st3" cx="297" cy="883.6" rx="65" ry="37.4"/>
			<polygon class="st2" points="307.2,801.7 307.2,821.4 314.2,821.4 296.9,838.9 279.5,821.4 286.5,821.4 286.5,801.7 			"/>
			<ellipse class="st4" cx="484" cy="883.6" rx="65" ry="37.4"/>
			<polygon class="st2" points="494.2,801.7 494.2,821.4 501.2,821.4 483.9,838.9 466.5,821.4 473.5,821.4 473.5,801.7 			"/>
			<ellipse class="st3" cx="671" cy="883.6" rx="65" ry="37.4"/>
			<polygon class="st2" points="681.2,801.7 681.2,821.4 688.2,821.4 670.9,838.9 653.5,821.4 660.5,821.4 660.5,801.7 			"/>
			<path id="path33180" class="st3" d="M224.7,757.8v29.9h142v-28.8"/>
			<path id="path33180-9" class="st4" d="M411.2,757.8v29.9h142v-28.8"/>
			<path id="path33180-9-8" class="st3" d="M599.1,757.8v29.9h142v-28.8"/>
			<g class="st5">
				<path class="st6" d="M272.8,890.4v-22.9h4.7v19h11.6v3.9H272.8z"/>
				<path class="st6" d="M289.1,873.7h4.7l4,11.9l3.9-11.9h4.6l-5.9,16.1l-1.1,2.9c-0.4,1-0.8,1.7-1.1,2.2c-0.4,0.5-0.8,0.9-1.2,1.3
					c-0.5,0.3-1,0.6-1.7,0.7c-0.7,0.2-1.4,0.3-2.3,0.3c-0.8,0-1.7-0.1-2.5-0.3l-0.4-3.5c0.7,0.1,1.3,0.2,1.9,0.2
					c1,0,1.8-0.3,2.3-0.9c0.5-0.6,0.9-1.4,1.1-2.3L289.1,873.7z"/>
				<path class="st6" d="M307.5,885.7l4.4-0.7c0.2,0.9,0.6,1.5,1.1,2c0.6,0.4,1.4,0.7,2.4,0.7c1.1,0,2-0.2,2.6-0.6
					c0.4-0.3,0.6-0.7,0.6-1.2c0-0.3-0.1-0.6-0.3-0.8c-0.2-0.2-0.7-0.4-1.5-0.6c-3.6-0.8-5.8-1.5-6.8-2.2c-1.3-0.9-2-2.2-2-3.8
					c0-1.4,0.6-2.7,1.7-3.7s2.9-1.5,5.3-1.5c2.3,0,4,0.4,5.1,1.1s1.9,1.8,2.3,3.3l-4.2,0.8c-0.2-0.7-0.5-1.1-1-1.5
					c-0.5-0.3-1.2-0.5-2.1-0.5c-1.2,0-2,0.2-2.5,0.5c-0.3,0.2-0.5,0.5-0.5,0.9c0,0.3,0.1,0.6,0.4,0.8c0.4,0.3,1.8,0.7,4.1,1.2
					c2.4,0.5,4,1.2,4.9,2s1.4,1.9,1.4,3.3c0,1.5-0.6,2.8-1.9,4c-1.3,1.1-3.2,1.7-5.7,1.7c-2.3,0-4.1-0.5-5.4-1.4
					C308.8,888.5,307.9,887.2,307.5,885.7z"/>
			</g>
			<g class="st5">
				<path class="st6" d="M653.6,894v-19.2h-6.8v-3.9h18.3v3.9h-6.8V894H653.6z"/>
				<path class="st6" d="M672.5,870.9v8.5c1.4-1.7,3.1-2.5,5.1-2.5c1,0,1.9,0.2,2.8,0.6c0.8,0.4,1.4,0.9,1.9,1.4
					c0.4,0.6,0.7,1.2,0.8,2c0.2,0.7,0.2,1.8,0.2,3.3v9.8h-4.4v-8.8c0-1.8-0.1-2.9-0.3-3.3c-0.2-0.5-0.5-0.8-0.9-1.1s-1-0.4-1.6-0.4
					c-0.7,0-1.4,0.2-2,0.5s-1,0.9-1.3,1.6c-0.3,0.7-0.4,1.8-0.4,3.2v8.4H668V871h4.5V870.9z"/>
				<path class="st6" d="M692,894h-4.4v-16.7h4.1v2.4c0.7-1.1,1.3-1.9,1.9-2.2c0.6-0.4,1.2-0.5,1.9-0.5c1,0,2,0.3,2.9,0.8l-1.4,3.9
					c-0.7-0.5-1.4-0.7-2.1-0.7c-0.6,0-1.1,0.2-1.6,0.5c-0.4,0.3-0.8,1-1,1.9s-0.4,2.8-0.4,5.6L692,894L692,894z"/>
			</g>
			<g class="st5">
				<path class="st7" d="M469.9,884v-4.2h10.7v9.8c-1,1-2.6,1.9-4.5,2.7c-2,0.8-4,1.2-6,1.2c-2.6,0-4.8-0.5-6.8-1.6
					c-1.9-1.1-3.4-2.6-4.3-4.6c-1-2-1.4-4.2-1.4-6.6c0-2.6,0.5-4.9,1.6-6.9s2.7-3.5,4.7-4.6c1.6-0.8,3.6-1.2,5.9-1.2
					c3.1,0,5.5,0.6,7.2,1.9c1.7,1.3,2.8,3.1,3.3,5.3l-4.9,0.9c-0.3-1.2-1-2.2-2-2.9s-2.2-1.1-3.6-1.1c-2.2,0-3.9,0.7-5.2,2.1
					c-1.3,1.4-1.9,3.4-1.9,6.1c0,2.9,0.6,5.1,2,6.6c1.3,1.5,3,2.2,5.1,2.2c1,0,2.1-0.2,3.1-0.6c1-0.4,1.9-0.9,2.7-1.5v-3H469.9z"/>
				<path class="st7" d="M485.2,893.1v-24.7h4.7v24.7H485.2z"/>
				<path class="st7" d="M506.6,893.1v-2.7c-0.6,1-1.5,1.7-2.6,2.3s-2.2,0.8-3.4,0.8c-1.2,0-2.3-0.3-3.2-0.8c-1-0.5-1.6-1.3-2.1-2.2
					s-0.6-2.3-0.6-4v-11.3h4.7v8.2c0,2.5,0.1,4.1,0.3,4.6c0.2,0.6,0.5,1,0.9,1.3c0.5,0.3,1,0.5,1.8,0.5s1.5-0.2,2.2-0.7
					c0.6-0.4,1.1-1,1.3-1.6s0.4-2.3,0.4-4.8v-7.5h4.7v17.9H506.6z"/>
			</g>
		</g>
	</g>
	<g>
		<path id="path32450-9-8-3-3-5_2_" d="M464.8,510.3"/>
		<g id="g27559-3-27_2_" transform="translate(5.4199132,55.22878)">
			<path id="rect1318-7-4-6-5-7-9_2_" class="st8" d="M414.6,460.6L414.6,460.6c5.5,0,10,7.2,10,16.1v79.8c0,8.9-4.5,16.1-10,16.1
				l0,0c-5.5,0-10-7.2-10-16.1v-79.8C404.6,467.9,409.1,460.6,414.6,460.6z"/>
			<g class="st5">
				<path class="st9" d="M415,502.9V500h7.5v6.9c-0.7,0.7-1.8,1.3-3.2,1.9c-1.4,0.5-2.8,0.8-4.2,0.8c-1.8,0-3.4-0.4-4.7-1.1
					c-1.3-0.8-2.3-1.8-3-3.3c-0.7-1.4-1-2.9-1-4.6c0-1.8,0.4-3.4,1.1-4.8c0.8-1.4,1.9-2.5,3.3-3.2c1.1-0.6,2.5-0.9,4.1-0.9
					c2.1,0,3.8,0.4,5,1.3s2,2.1,2.3,3.7l-3.5,0.6c-0.2-0.8-0.7-1.5-1.4-2c-0.7-0.5-1.5-0.7-2.5-0.7c-1.5,0-2.7,0.5-3.6,1.5
					s-1.4,2.4-1.4,4.3c0,2.1,0.5,3.6,1.4,4.6s2.1,1.5,3.6,1.5c0.7,0,1.5-0.1,2.2-0.4s1.4-0.6,1.9-1v-2.2L415,502.9L415,502.9z"/>
			</g>
		</g>
		<g id="g27544-3-2_2_" transform="translate(7.1307032,62.10795)">
			<path id="rect1318-7-4-6-9-4-0_2_" class="st10" d="M166.2,570.3L166.2,570.3c5.5,0,10,7.2,10,16.1v79.8c0,8.9-4.5,16.1-10,16.1
				l0,0c-5.5,0-10-7.2-10-16.1v-79.8C156.3,577.6,160.7,570.3,166.2,570.3z"/>
			<g class="st5">
				<path class="st9" d="M158.6,602.2h3.5v9.4c0,1.5,0,2.4,0.1,2.9c0.1,0.7,0.5,1.3,1.1,1.7s1.3,0.6,2.3,0.6s1.7-0.2,2.2-0.6
					c0.5-0.4,0.8-0.9,0.9-1.5c0.1-0.6,0.2-1.6,0.2-2.9v-9.6h3.5v9.1c0,2.1-0.1,3.5-0.3,4.4s-0.5,1.6-1,2.2c-0.5,0.6-1.2,1.1-2,1.4
					c-0.8,0.4-2,0.5-3.3,0.5c-1.6,0-2.9-0.2-3.8-0.6c-0.9-0.4-1.5-0.9-2-1.5s-0.8-1.2-1-1.9c-0.2-1-0.3-2.5-0.3-4.4L158.6,602.2
					L158.6,602.2z"/>
			</g>
		</g>
		<g id="g27539-2-6_2_" transform="translate(7.4848432,60.52045)">
			<path id="rect1318-7-4-6-52-3_2_" class="st11" d="M227.5,557.4L227.5,557.4c5.5,0,10,7.2,10,16.1v79.8c0,8.9-4.5,16.1-10,16.1
				l0,0c-5.5,0-10-7.2-10-16.1v-79.8C217.6,564.7,222,557.4,227.5,557.4z"/>
			<g class="st5">
				<path class="st9" d="M236.2,606h-3.8l-1.5-3.9H224l-1.4,3.9h-3.7l6.7-17.3h3.7L236.2,606z M229.7,599.2l-2.4-6.4l-2.3,6.4H229.7
					z"/>
			</g>
		</g>
		<g id="g27549-3-7_2_" transform="translate(9.3842232,59.46211)">
			<path id="rect1318-7-4-6-4-86-4_2_" class="st11" d="M287.3,530L287.3,530c5.5,0,10,7.2,10,16.1V626c0,8.9-4.5,16.1-10,16.1l0,0
				c-5.5,0-10-7.2-10-16.1v-79.8C277.3,537.2,281.8,530,287.3,530z"/>
			<g class="st5">
				<path class="st9" d="M295.9,578.6h-3.8l-1.5-3.9h-6.9l-1.4,3.9h-3.7l6.7-17.3h3.7L295.9,578.6z M289.5,571.8l-2.4-6.4l-2.3,6.4
					H289.5z"/>
			</g>
		</g>
		<g id="g27554-2-0_2_" transform="translate(10.963313,55.22878)">
			<path id="rect1318-7-4-6-91-2-1_2_" class="st11" d="M347.4,485.7L347.4,485.7c5.5,0,10,7.2,10,16.1v79.8c0,8.9-4.5,16.1-10,16.1
				l0,0c-5.5,0-10-7.2-10-16.1v-79.8C337.4,492.9,341.9,485.7,347.4,485.7z"/>
			<g class="st5">
				<path class="st9" d="M356,534.3h-3.8l-1.5-3.9h-6.9l-1.4,3.9h-3.7l6.7-17.3h3.7L356,534.3z M349.6,527.5l-2.4-6.4l-2.3,6.4
					H349.6z"/>
			</g>
		</g>
		<g id="g28165-8-57_2_" transform="translate(8.6331632,51.14471)">
			<path class="st12" d="M1000.5,559.2c-7.8,0.2-16.6,0.8-24.4,2.2c-14.5,2.6-25.7,8.2-40.3,17.9c-14.5,9.7-32.4,23.6-48.5,35.6
				s-30.4,22.3-47.7,33.3S801.8,671,788.1,678c-13.8,7-20.9,9.2-27.7,11.7s-13.4,5-16.6,6.3c-3.3,1.3,25.4,1.2,31.3,0.3
				c6-0.9,17.9-2.8,31.8-7.1c13.9-4.3,29.9-10.9,44.9-18.9s29.1-17.3,43.1-27.5s28.1-21.2,40.9-30.8c12.8-9.6,24.4-17.8,36-25
				c9.9-6.1,19.9-11.4,28.7-15.2V559.2z"/>
			<path id="path595-6-6-0-9-0-4-8_2_" class="st12" d="M444.3,559c-8.9-0.1-26.7-0.4-41.2,2.2c-14.5,2.6-25.7,8.2-40.3,17.9
				c-14.5,9.7-32.4,23.6-48.5,35.6S283.9,637,266.6,648s-37.8,22.8-51.5,29.8c-13.8,7-20.9,9.2-27.7,11.7c-6.8,2.4-13.4,5-16.6,6.3
				c-3.3,1.3,25.4,1.2,31.3,0.3c6-0.9,17.9-2.8,31.8-7.1c13.9-4.3,29.9-10.9,44.9-18.9s29.1-17.3,43.1-27.5
				c14.1-10.2,28.1-21.2,40.9-30.8s24.4-17.8,36-25c11.6-7.1,23.2-13.2,32.9-17c9.7-3.8,17.6-5.4,22.5-6c4.9-0.7,6.7-0.5,6.1-1.1
				c-0.7-0.6-3.9-2-5.5-2.7C453.2,559.1,453.2,559.1,444.3,559L444.3,559z"/>
			<path class="st12" d="M194.5,692.5c-6.7-2.3-15-5.4-26.6-11.3c-11.5-5.9-26.3-14.4-44.7-25.4c-18.4-10.9-40.4-24.3-65.1-39.2l0,0
				c-15.2-9.2-31.4-18.9-48-28.9v23.2c5.2,6.3,10.3,12.2,15.4,17.4c15.3,15.5,29.9,24.5,44.8,33.2s30,17.1,44,23.2
				c14,6.1,27,9.9,43.1,11.7c16,1.7,35.1,1.4,42.1,0.5C206.4,696.1,201.2,694.8,194.5,692.5z"/>
			<path id="path591-8-8-1-2-0_2_" class="st12" d="M428,559c10.8-0.2,32.3-0.7,50.7,0.6c18.3,1.4,33.4,4.6,48,8.6
				s28.6,8.8,46.7,17.3c18.1,8.5,40.4,20.6,62.5,33.3s44.1,26,62.5,37c18.4,10.9,33.2,19.5,44.7,25.4s19.9,9,26.6,11.3
				c6.7,2.3,11.9,3.6,4.9,4.4c-7,0.8-26.1,1.2-42.1-0.5s-29-5.6-43.1-11.7c-14-6.1-29.2-14.5-44-23.2c-14.9-8.7-29.5-17.7-46.1-27.8
				s-35.2-21.4-51.4-30.5s-30-15.9-44.1-21.5c-14-5.6-28.3-10-40.5-13.3c-12.3-3.3-22.5-5.6-28.8-6.9s-8.4-1.4-10.6-1.6
				c-2.2-0.2-4.4-0.4-5.4-0.5C417.2,559.3,417.2,559.3,428,559L428,559z"/>
		</g>
		<g id="g27564-4-7_2_" transform="translate(5.5331932,54.69961)">
			<path id="rect1318-7-4-6-41-5-8_2_" class="st7" d="M476.1,451.4L476.1,451.4c5.5,0,10,7.2,10,16.1v79.8c0,8.9-4.5,16.1-10,16.1
				l0,0c-5.5,0-10-7.2-10-16.1v-79.8C466.2,458.7,470.6,451.4,476.1,451.4z"/>
			<g class="st5">
				<path class="st9" d="M484.8,500H481l-1.5-3.9h-6.9l-1.4,3.9h-3.7l6.7-17.3h3.7L484.8,500z M478.3,493.2l-2.4-6.4l-2.3,6.4H478.3
					z"/>
			</g>
		</g>
		<g id="g27569-5-10_2_" transform="translate(5.9129933,56.28711)">
			<path id="rect1318-7-4-6-8-7-3_2_" class="st8" d="M537.4,473.8L537.4,473.8c5.5,0,10,7.2,10,16.1v79.8c0,8.9-4.5,16.1-10,16.1
				l0,0c-5.5,0-10-7.2-10-16.1V490C527.5,481.1,531.9,473.8,537.4,473.8z"/>
			<g class="st5">
				<path class="st9" d="M537.8,516.1v-2.9h7.5v6.9c-0.7,0.7-1.8,1.3-3.2,1.9c-1.4,0.5-2.8,0.8-4.2,0.8c-1.8,0-3.4-0.4-4.7-1.1
					s-2.3-1.8-3-3.3s-1-2.9-1-4.6c0-1.8,0.4-3.4,1.1-4.8c0.8-1.4,1.9-2.5,3.3-3.2c1.1-0.6,2.5-0.9,4.1-0.9c2.1,0,3.8,0.4,5,1.3
					s2,2.1,2.3,3.7l-3.5,0.6c-0.2-0.8-0.7-1.5-1.4-2s-1.5-0.7-2.5-0.7c-1.5,0-2.7,0.5-3.6,1.5c-0.9,1-1.4,2.4-1.4,4.3
					c0,2.1,0.5,3.6,1.4,4.6s2.1,1.5,3.6,1.5c0.7,0,1.5-0.1,2.2-0.4c0.7-0.3,1.4-0.6,1.9-1v-2.2H537.8z"/>
			</g>
		</g>
		<g id="g27574-9-3_2_" transform="translate(6.6925633,58.93295)">
			<path id="rect1318-7-4-6-6-8-2_2_" class="st11" d="M598.3,500.9L598.3,500.9c5.5,0,10,7.2,10,16.1v79.8c0,8.9-4.5,16.1-10,16.1
				l0,0c-5.5,0-10-7.2-10-16.1V517C588.3,508.2,592.8,500.9,598.3,500.9z"/>
			<g class="st5">
				<path class="st9" d="M606.9,549.5h-3.8l-1.5-3.9h-6.9l-1.4,3.9h-3.7l6.7-17.3h3.7L606.9,549.5z M600.5,542.7l-2.4-6.4l-2.3,6.4
					H600.5z"/>
			</g>
		</g>
		<g id="g27579-3-5_2_" transform="translate(3.2980932,59.99128)">
			<path id="rect1318-7-4-6-9-0-3-3_2_" class="st13" d="M663.4,531.3L663.4,531.3c5.5,0,10,7.2,10,16.1v79.8
				c0,8.9-4.5,16.1-10,16.1l0,0c-5.5,0-10-7.2-10-16.1v-79.8C653.4,538.5,657.9,531.3,663.4,531.3z"/>
			<g class="st5">
				<path class="st9" d="M666.8,574.1l3.4,1.1c-0.5,1.9-1.4,3.3-2.6,4.2c-1.2,0.9-2.7,1.4-4.6,1.4c-2.3,0-4.2-0.8-5.7-2.3
					c-1.5-1.6-2.2-3.7-2.2-6.4c0-2.9,0.7-5.1,2.2-6.7c1.5-1.6,3.4-2.4,5.9-2.4c2.1,0,3.8,0.6,5.2,1.9c0.8,0.7,1.4,1.8,1.8,3.2
					l-3.5,0.8c-0.2-0.9-0.6-1.6-1.3-2.1c-0.6-0.5-1.4-0.8-2.4-0.8c-1.3,0-2.3,0.5-3.1,1.4s-1.2,2.4-1.2,4.5c0,2.2,0.4,3.7,1.2,4.7
					s1.8,1.4,3.1,1.4c0.9,0,1.7-0.3,2.4-0.9C666,576.3,666.5,575.3,666.8,574.1z"/>
			</g>
		</g>
		<g id="g27584-8-2_2_" transform="translate(3.6522333,63.16628)">
			<path id="rect1318-7-4-6-1-6-8_2_" class="st11" d="M724.7,560.2L724.7,560.2c5.5,0,10,7.2,10,16.1v79.8c0,8.9-4.5,16.1-10,16.1
				l0,0c-5.5,0-10-7.2-10-16.1v-79.8C714.7,567.4,719.2,560.2,724.7,560.2z"/>
			<g class="st5">
				<path class="st9" d="M733.3,608.7h-3.8l-1.5-3.9h-6.9l-1.4,3.9H716l6.7-17.3h3.7L733.3,608.7z M726.9,601.9l-2.4-6.4l-2.3,6.4
					H726.9z"/>
			</g>
		</g>
		<g id="g27589-4-0_2_" transform="translate(5.5516133,65.28295)">
			<path id="rect1318-7-4-6-4-8-8-8_2_" class="st10" d="M784.4,560.6L784.4,560.6c5.5,0,10,7.2,10,16.1v79.8
				c0,8.9-4.5,16.1-10,16.1l0,0c-5.5,0-10-7.2-10-16.1v-79.8C774.5,567.8,778.9,560.6,784.4,560.6z"/>
			<g class="st5">
				<path class="st9" d="M777.4,591.9h3.5v9.4c0,1.5,0,2.4,0.1,2.9c0.1,0.7,0.5,1.3,1.1,1.7s1.3,0.6,2.3,0.6s1.7-0.2,2.2-0.6
					c0.5-0.4,0.8-0.9,0.9-1.5c0.1-0.6,0.2-1.6,0.2-2.9v-9.6h3.5v9.1c0,2.1-0.1,3.5-0.3,4.4s-0.5,1.6-1,2.2c-0.5,0.6-1.2,1.1-2,1.4
					c-0.8,0.4-2,0.5-3.3,0.5c-1.6,0-2.9-0.2-3.8-0.6s-1.5-0.9-2-1.5s-0.8-1.2-1-1.9c-0.2-1-0.3-2.5-0.3-4.4v-9.2H777.4z"/>
			</g>
		</g>
		<g id="g27594-1-3_2_" transform="translate(7.1307032,63.69545)">
			<path id="rect1318-7-4-6-91-1-6-3_2_" class="st13" d="M844.5,539.5L844.5,539.5c5.5,0,10,7.2,10,16.1v79.8
				c0,8.9-4.5,16.1-10,16.1l0,0c-5.5,0-10-7.2-10-16.1v-79.8C834.5,546.7,839,539.5,844.5,539.5z"/>
			<g class="st5">
				<path class="st9" d="M848.6,581.7l3.4,1.1c-0.5,1.9-1.4,3.3-2.6,4.2c-1.2,0.9-2.7,1.4-4.6,1.4c-2.3,0-4.2-0.8-5.7-2.3
					c-1.5-1.6-2.2-3.7-2.2-6.4c0-2.9,0.7-5.1,2.2-6.7c1.5-1.6,3.4-2.4,5.9-2.4c2.1,0,3.8,0.6,5.2,1.9c0.8,0.7,1.4,1.8,1.8,3.2
					l-3.5,0.8c-0.2-0.9-0.6-1.6-1.3-2.1c-0.6-0.5-1.4-0.8-2.4-0.8c-1.3,0-2.3,0.5-3.1,1.4s-1.2,2.4-1.2,4.5c0,2.2,0.4,3.7,1.2,4.7
					s1.8,1.4,3.1,1.4c0.9,0,1.7-0.3,2.4-0.9C847.8,583.9,848.3,583,848.6,581.7z"/>
			</g>
		</g>
		<path id="rect1318-7-4-6-5-7-2-8-3-2_2_" class="st12" d="M916,560.6L916,560.6c5.5,0,10,7.2,10,16.1v79.8c0,8.9-4.5,16.1-10,16.1
			l0,0c-5.5,0-10-7.2-10-16.1v-79.8C906.1,567.8,910.5,560.6,916,560.6z"/>
		<path id="rect1318-7-4-6-41-5-7-7-3-0_2_" class="st12" d="M977.7,514.7L977.7,514.7c5.5,0,10,7.2,10,16.1v79.8
			c0,8.9-4.5,16.1-10,16.1l0,0c-5.5,0-10-7.2-10-16.1v-79.8C967.7,521.9,972.2,514.7,977.7,514.7z"/>
		<path id="rect1318-7-4-6-6-8-5-2-0-2_2_" class="st12" d="M49.9,566.2L49.9,566.2c5.5,0,10,7.2,10,16.1v79.8
			c0,8.9-4.5,16.1-10,16.1l0,0c-5.5,0-10-7.2-10-16.1v-79.8C39.9,573.4,44.4,566.2,49.9,566.2z"/>
		<path id="rect1318-7-4-6-9-0-3-8-4-1-9_2_" class="st12" d="M111.5,597.6L111.5,597.6c5.5,0,10,7.2,10,16.1v79.8
			c0,8.9-4.5,16.1-10,16.1l0,0c-5.5,0-10-7.2-10-16.1v-79.8C101.6,604.8,106,597.6,111.5,597.6z"/>
		<g id="g21546-8-3_2_" transform="translate(1.2792744,57.355496)">
			<path class="st7" d="M482.1,252.4c-4.1,0-8.2-2.5-10-7V329c0,7.6,4.5,13.7,10,13.7s10-6.2,10-13.7v-83.6
				C490.3,249.9,486.2,252.4,482.1,252.4z"/>
			<path id="rect1318-7-4-1-7_2_" class="st11" d="M186.4,159.1L186.4,159.1c5.5,0,10,6.3,10,14.1v168.2c0,7.8-4.5,14.1-10,14.1l0,0
				c-5.5,0-10-6.3-10-14.1V173.2C176.5,165.4,180.9,159.1,186.4,159.1z"/>
			<path id="rect1318-6-7-07-7_2_" class="st14" d="M128,199.2L128,199.2c5.5,0,10,5.9,10,13.2v100.8c0,7.3-4.5,13.2-10,13.2l0,0
				c-5.5,0-10-5.9-10-13.2V212.3C118,205.1,122.5,199.2,128,199.2z"/>
			<path id="path595-6-64-60-1_2_" class="st6" d="M799.9,145.2c-8.9-0.2-26.7-0.7-41.2,3.4c-14.5,4.1-25.7,12.7-40.3,27.8
				c-14.5,15.1-32.4,36.7-48.5,55.4s-30.4,34.6-47.7,51.7s-37.8,35.5-51.5,46.4c-13.8,10.9-20.9,14.4-27.7,18.1s-13.4,7.8-16.6,9.8
				c-3.3,2,25.4,1.9,31.3,0.5c6-1.5,17.9-4.4,31.8-11c13.9-6.6,29.9-17,44.9-29.4s29.1-27,43.1-42.8c14.1-15.9,28.1-33,40.9-48
				c12.8-15,24.4-27.7,36-38.8s23.2-20.5,32.9-26.4s17.6-8.3,22.5-9.4c4.9-1.1,6.7-0.7,6.1-1.7c-0.7-0.9-3.9-3.1-5.5-4.2
				C808.8,145.4,808.8,145.4,799.9,145.2L799.9,145.2z"/>
			<path class="st6" d="M228.8,150.4c-0.7-0.9-3.9-3.1-5.5-4.2c-1.6-1.1-1.6-1.1-10.5-1.3l0,0c-8.9-0.2-26.7-0.7-41.2,3.4
				c-14.5,4.1-25.7,12.7-40.3,27.8c-14.5,15.1-32.4,36.7-48.5,55.4s-30.3,34.6-47.7,51.7c-5.6,5.6-11.6,11.2-17.5,16.7v38.7
				c9.8-5.9,19.9-13.1,29.7-21.2c15-12.4,29.1-27,43.1-42.8c14.1-15.9,28.1-33,40.9-48s24.4-27.7,36-38.8s23.2-20.5,32.9-26.4
				c9.7-5.9,17.6-8.3,22.5-9.4C227.6,151.1,229.5,151.4,228.8,150.4z"/>
			<path class="st6" d="M987.9,149.4c-13.3,4.4-23.9,12.8-37.6,27c-14.5,15.1-32.4,36.7-48.5,55.4s-30.4,34.6-47.7,51.7
				s-37.8,35.5-51.5,46.4c-13.8,10.9-20.9,14.4-27.7,18.1s-13.4,7.8-16.6,9.8c-3.3,2,25.4,1.9,31.3,0.5c6-1.5,17.9-4.4,31.8-11
				c13.9-6.6,29.9-17,44.9-29.4s29.1-27,43.1-42.8c14.1-15.9,28.1-33,40.9-48c12.8-15,24.4-27.7,36-38.8c0.5-0.5,1.1-1,1.6-1.5
				V149.4z"/>
			<path id="path595-6-6-0-2-0_2_" class="st6" d="M458.7,144.9c-8.9-0.2-26.7-0.7-41.2,3.4c-14.5,4.1-25.7,12.7-40.3,27.8
				c-14.5,15.1-32.4,36.7-48.5,55.4s-30.3,34.6-47.7,51.7c-17.3,17.1-37.8,35.5-51.5,46.4c-13.8,10.9-20.9,14.4-27.7,18.1
				s-13.4,7.8-16.6,9.8c-3.3,2,25.4,1.9,31.3,0.5c6-1.5,17.9-4.4,31.8-11s29.9-17,44.9-29.4s29.1-27,43.1-42.8
				c14.1-15.9,28.1-33,40.9-48s24.4-27.7,36-38.8s23.2-20.5,32.9-26.4c9.7-5.9,17.6-8.3,22.5-9.4c4.9-1.1,6.7-0.7,6.1-1.7
				c-0.7-0.9-3.9-3.1-5.5-4.2C467.6,145.1,467.6,145.1,458.7,144.9L458.7,144.9z"/>
			<g class="st5">
				<path class="st9" d="M125.9,291.6v-14.4h-5.1v-2.9h13.7v2.9h-5.1v14.4H125.9z"/>
			</g>
			<path class="st12" d="M208.9,352.6c-6.7-3.5-15-8.5-26.6-17.6c-11.5-9.1-26.3-22.4-44.7-39.5c-18.4-17-40.4-37.7-62.5-57.5
				c-20.1-18-40.4-35.3-57.5-48.2v51.5c7.1,6.6,14.2,13.3,20.9,19.7c16.6,15.8,31.2,29.8,46.1,43.3s30,26.6,44,36.1
				s27,15.5,43.1,18.2c16,2.7,35.1,2.2,42.1,0.9C220.8,358.2,215.6,356.1,208.9,352.6z"/>
			<path id="rect1318-69-3-7-1_2_" class="st14" d="M827.7,153L827.7,153c5.5,0,10,5.9,10,13.2V323c0,7.3-4.5,13.2-10,13.2l0,0
				c-5.5,0-10-5.9-10-13.2V166.2C817.8,158.9,822.2,153,827.7,153z"/>
			<path id="rect1318-5-3-8-13-3_2_" class="st13" d="M886.2,164.6L886.2,164.6c5.5,0,10,6,10,13.4v99.8c0,7.4-4.5,13.4-10,13.4l0,0
				c-5.5,0-10-6-10-13.4V178C876.2,170.6,880.6,164.6,886.2,164.6z"/>
			<path id="rect1318-6-7-56-12-4_2_" class="st13" d="M710.9,197.9L710.9,197.9c5.5,0,10,5.9,10,13.2v100.8c0,7.3-4.5,13.2-10,13.2
				l0,0c-5.5,0-10-5.9-10-13.2V211.1C700.9,203.8,705.4,197.9,710.9,197.9z"/>
			<path id="rect1318-6-7-5-1-06-8_2_" class="st8" d="M710.9,197.9L710.9,197.9c5.5,0,10,6,10,13.4v45.4c0,7.4-4.5,13.4-10,13.4
				l0,0c-5.5,0-10-6-10-13.4v-45.4C700.9,203.9,705.4,197.9,710.9,197.9z"/>
			<path id="rect1318-6-7-5-4-1-8-5_2_" class="st8" d="M886.2,164L886.2,164c5.5,0,10,6,10,13.4v45.4c0,7.4-4.5,13.4-10,13.4l0,0
				c-5.5,0-10-6-10-13.4v-45.4C876.2,170,880.6,164,886.2,164z"/>
			<path id="rect1318-7-4-5-7-8_2_" class="st11" d="M769.3,157.8L769.3,157.8c5.5,0,10,6.3,10,14.1v168.2c0,7.8-4.5,14.1-10,14.1
				l0,0c-5.5,0-10-6.3-10-14.1V171.9C759.3,164.2,763.8,157.8,769.3,157.8z"/>
			<path id="rect1318-6-7-5-7-98-4-2_2_" class="st14" d="M769.3,157.8L769.3,157.8c5.5,0,10,6.5,10,14.5v78.9c0,8-4.5,14.5-10,14.5
				l0,0c-5.5,0-10-6.5-10-14.5v-78.9C759.3,164.3,763.8,157.8,769.3,157.8z"/>
			<path id="rect1318-6-7-5-7-4-4-9-2_2_" class="st11" d="M827.7,151.4L827.7,151.4c5.5,0,10,6.5,10,14.5v78.9
				c0,8-4.5,14.5-10,14.5l0,0c-5.5,0-10-6.5-10-14.5v-78.9C817.8,157.9,822.2,151.4,827.7,151.4z"/>
			<g class="st5">
				<path class="st9" d="M777.9,289.3h-3.8l-1.5-3.9h-6.9l-1.4,3.9h-3.7l6.7-17.3h3.7L777.9,289.3z M771.5,282.5l-2.4-6.4l-2.3,6.4
					H771.5z"/>
			</g>
			<g class="st5">
				<path class="st9" d="M836.3,246.3h-3.8l-1.5-3.9h-6.9l-1.4,3.9H819l6.7-17.3h3.7L836.3,246.3z M829.9,239.5l-2.4-6.4l-2.3,6.4
					H829.9z"/>
			</g>
			<g class="st5">
				<path class="st9" d="M715,285.2l3.4,1.1c-0.5,1.9-1.4,3.3-2.6,4.2c-1.2,0.9-2.7,1.4-4.6,1.4c-2.3,0-4.2-0.8-5.7-2.3
					c-1.5-1.6-2.2-3.7-2.2-6.4c0-2.9,0.7-5.1,2.2-6.7s3.4-2.4,5.9-2.4c2.1,0,3.8,0.6,5.2,1.9c0.8,0.7,1.4,1.8,1.8,3.2l-3.5,0.8
					c-0.2-0.9-0.6-1.6-1.3-2.1c-0.6-0.5-1.4-0.8-2.4-0.8c-1.3,0-2.3,0.5-3.1,1.4s-1.2,2.4-1.2,4.5c0,2.2,0.4,3.7,1.2,4.7
					c0.8,0.9,1.8,1.4,3.1,1.4c0.9,0,1.7-0.3,2.4-0.9C714.2,287.4,714.7,286.5,715,285.2z"/>
			</g>
			<g class="st5">
				<path class="st9" d="M890.2,254l3.4,1.1c-0.5,1.9-1.4,3.3-2.6,4.2s-2.7,1.4-4.6,1.4c-2.3,0-4.2-0.8-5.7-2.3
					c-1.5-1.6-2.2-3.7-2.2-6.4c0-2.9,0.7-5.1,2.2-6.7c1.5-1.6,3.4-2.4,5.9-2.4c2.1,0,3.8,0.6,5.2,1.9c0.8,0.7,1.4,1.8,1.8,3.2
					l-3.5,0.8c-0.2-0.9-0.6-1.6-1.3-2.1c-0.6-0.5-1.4-0.8-2.4-0.8c-1.3,0-2.3,0.5-3.1,1.4s-1.2,2.4-1.2,4.5c0,2.2,0.4,3.7,1.2,4.7
					c0.8,0.9,1.8,1.4,3.1,1.4c0.9,0,1.7-0.3,2.4-0.9C889.5,256.1,890,255.2,890.2,254z"/>
			</g>
			<g class="st5">
				<path class="st9" d="M886.8,221.8v-2.9h7.5v6.9c-0.7,0.7-1.8,1.3-3.2,1.9c-1.4,0.5-2.8,0.8-4.2,0.8c-1.8,0-3.4-0.4-4.7-1.1
					s-2.3-1.8-3-3.3s-1-2.9-1-4.6c0-1.8,0.4-3.4,1.1-4.8c0.8-1.4,1.9-2.5,3.3-3.2c1.1-0.6,2.5-0.9,4.1-0.9c2.1,0,3.8,0.4,5,1.3
					c1.2,0.9,2,2.1,2.3,3.7l-3.5,0.6c-0.2-0.8-0.7-1.5-1.4-2s-1.5-0.7-2.5-0.7c-1.5,0-2.7,0.5-3.6,1.5s-1.4,2.4-1.4,4.3
					c0,2.1,0.5,3.6,1.4,4.6s2.1,1.5,3.6,1.5c0.7,0,1.5-0.1,2.2-0.4c0.7-0.3,1.4-0.6,1.9-1v-2.2L886.8,221.8L886.8,221.8z"/>
			</g>
			<g class="st5">
				<path class="st9" d="M711.5,253.1v-2.9h7.5v6.9c-0.7,0.7-1.8,1.3-3.2,1.9s-2.8,0.8-4.2,0.8c-1.8,0-3.4-0.4-4.7-1.1
					s-2.3-1.8-3-3.3c-0.7-1.4-1-2.9-1-4.6c0-1.8,0.4-3.4,1.1-4.8c0.8-1.4,1.9-2.5,3.3-3.2c1.1-0.6,2.5-0.9,4.1-0.9
					c2.1,0,3.8,0.4,5,1.3s2,2.1,2.3,3.7l-3.5,0.6c-0.2-0.8-0.7-1.5-1.4-2s-1.5-0.7-2.5-0.7c-1.5,0-2.7,0.5-3.6,1.5
					c-0.9,1-1.4,2.4-1.4,4.3c0,2.1,0.5,3.6,1.4,4.6c0.9,1,2.1,1.5,3.6,1.5c0.7,0,1.5-0.1,2.2-0.4s1.4-0.6,1.9-1v-2.2L711.5,253.1
					L711.5,253.1z"/>
			</g>
			<g class="st5">
				<path class="st9" d="M826,284v-14.4h-5.1v-2.9h13.7v2.9h-5.1V284H826z"/>
			</g>
			<g class="st5">
				<path class="st9" d="M767.6,251.5v-14.4h-5.1v-2.9h13.7v2.9h-5.1v14.4H767.6z"/>
			</g>
			<path id="rect1318-69-9-63-4_2_" class="st8" d="M540.5,161.6L540.5,161.6c5.5,0,10,6.1,10,13.6v162.7c0,7.5-4.5,13.6-10,13.6
				l0,0c-5.5,0-10-6.1-10-13.6V175.2C530.6,167.7,535,161.6,540.5,161.6z"/>
			<path id="rect1318-5-3-0-9-3_2_" class="st11" d="M599,205.2L599,205.2c5.5,0,10,6.3,10,14v104.4c0,7.7-4.5,14-10,14l0,0
				c-5.5,0-10-6.3-10-14V219.3C589,211.5,593.5,205.2,599,205.2z"/>
			<path id="rect1318-6-7-8-9-3_2_" class="st8" d="M423.7,166.7L423.7,166.7c5.5,0,10,5.9,10,13.2v100.8c0,7.3-4.5,13.2-10,13.2
				l0,0c-5.5,0-10-5.9-10-13.2V179.9C413.7,172.6,418.2,166.7,423.7,166.7z"/>
			<path id="rect1318-6-7-5-8-5-4_2_" class="st13" d="M423.7,166.7L423.7,166.7c5.5,0,10,6,10,13.4v45.4c0,7.4-4.5,13.4-10,13.4
				l0,0c-5.5,0-10-6-10-13.4v-45.4C413.7,172.7,418.2,166.7,423.7,166.7z"/>
			<path id="rect1318-6-7-5-4-5-2-2_2_" class="st14" d="M599,205.2L599,205.2c5.5,0,10,6,10,13.4V264c0,7.4-4.5,13.4-10,13.4l0,0
				c-5.5,0-10-6-10-13.4v-45.4C589,211.2,593.5,205.2,599,205.2z"/>
			<path id="rect1318-6-7-5-7-9-3-5_1_" class="st7" d="M482.1,152.5L482.1,152.5c5.5,0,9.2,0.7,10,4.5v78.9c0,8-4.5,14.5-10,14.5
				l0,0c-5.5,0-10-6.5-10-14.5V157C472.2,152.6,476.6,152.5,482.1,152.5z"/>
			<path id="rect1318-6-7-5-7-4-6-0-3_2_" class="st13" d="M540.5,161.6L540.5,161.6c5.5,0,10,6.5,10,14.5V255c0,8-4.5,14.5-10,14.5
				l0,0c-5.5,0-10-6.5-10-14.5v-78.9C530.6,168.1,535,161.6,540.5,161.6z"/>
			<g class="st5">
				<path class="st9" d="M607.6,299.3h-3.8l-1.5-3.9h-6.9l-1.4,3.9h-3.7L597,282h3.7L607.6,299.3z M601.2,292.5l-2.4-6.4l-2.3,6.4
					H601.2z"/>
			</g>
			<path id="path591-8-1-1_2_" class="st12" d="M442.4,144.9c10.8-0.4,32.3-1.2,50.7,1c18.3,2.1,33.4,7.1,48,13.4
				s28.6,13.7,46.7,26.9c18.1,13.2,40.4,32,62.5,51.8s44.1,40.5,62.5,57.5s33.2,30.3,44.7,39.5c11.5,9.1,19.9,14.1,26.6,17.6
				c6.7,3.5,11.9,5.6,4.9,6.9s-26.1,1.9-42.1-0.9c-16-2.7-29-8.7-43.1-18.2c-14-9.5-29.2-22.6-44-36.1
				c-14.9-13.5-29.5-27.5-46.1-43.3s-35.2-33.4-51.4-47.4c-16.2-14.1-30-24.7-44.1-33.4c-14-8.7-28.3-15.5-40.5-20.7
				s-22.5-8.8-28.8-10.7c-6.2-1.9-8.4-2.3-10.6-2.6s-4.4-0.6-5.4-0.8C431.6,145.3,431.6,145.3,442.4,144.9L442.4,144.9z"/>
			<g class="st5">
				<path class="st9" d="M480.4,236.3v-14.4h-5.1V219H489v2.9h-5.1v14.4L480.4,236.3L480.4,236.3z"/>
			</g>
			<g class="st5">
				<path class="st9" d="M544.6,247.6l3.4,1.1c-0.5,1.9-1.4,3.3-2.6,4.2c-1.2,0.9-2.7,1.4-4.6,1.4c-2.3,0-4.2-0.8-5.7-2.3
					c-1.5-1.6-2.2-3.7-2.2-6.4c0-2.9,0.7-5.1,2.2-6.7c1.5-1.6,3.4-2.4,5.9-2.4c2.1,0,3.8,0.6,5.2,1.9c0.8,0.7,1.4,1.8,1.8,3.2
					l-3.5,0.8c-0.2-0.9-0.6-1.6-1.3-2.1c-0.6-0.5-1.4-0.8-2.4-0.8c-1.3,0-2.3,0.5-3.1,1.4s-1.2,2.4-1.2,4.5c0,2.2,0.4,3.7,1.2,4.7
					c0.8,0.9,1.8,1.4,3.1,1.4c0.9,0,1.7-0.3,2.4-0.9C543.9,249.8,544.3,248.9,544.6,247.6z"/>
			</g>
			<g class="st5">
				<path class="st9" d="M427.8,219.5l3.4,1.1c-0.5,1.9-1.4,3.3-2.6,4.2s-2.7,1.4-4.6,1.4c-2.3,0-4.2-0.8-5.7-2.3
					c-1.5-1.6-2.2-3.7-2.2-6.4c0-2.9,0.7-5.1,2.2-6.7c1.5-1.6,3.4-2.4,5.9-2.4c2.1,0,3.8,0.6,5.2,1.9c0.8,0.7,1.4,1.8,1.8,3.2
					l-3.5,0.8c-0.2-0.9-0.6-1.6-1.3-2.1c-0.6-0.5-1.4-0.8-2.4-0.8c-1.3,0-2.3,0.5-3.1,1.4c-0.8,0.9-1.2,2.4-1.2,4.5
					c0,2.2,0.4,3.7,1.2,4.7c0.8,0.9,1.8,1.4,3.1,1.4c0.9,0,1.7-0.3,2.4-0.9C427,221.7,427.5,220.8,427.8,219.5z"/>
			</g>
			<g class="st5">
				<path class="st9" d="M541.2,285.4v-2.9h7.5v6.9c-0.7,0.7-1.8,1.3-3.2,1.9s-2.8,0.8-4.2,0.8c-1.8,0-3.4-0.4-4.7-1.1
					c-1.3-0.8-2.3-1.8-3-3.3s-1-2.9-1-4.6c0-1.8,0.4-3.4,1.1-4.8c0.8-1.4,1.9-2.5,3.3-3.2c1.1-0.6,2.5-0.9,4.1-0.9
					c2.1,0,3.8,0.4,5,1.3s2,2.1,2.3,3.7l-3.5,0.6c-0.2-0.8-0.7-1.5-1.4-2s-1.5-0.7-2.5-0.7c-1.5,0-2.7,0.5-3.6,1.5
					c-0.9,1-1.4,2.4-1.4,4.3c0,2.1,0.5,3.6,1.4,4.6s2.1,1.5,3.6,1.5c0.7,0,1.5-0.1,2.2-0.4s1.4-0.6,1.9-1v-2.2L541.2,285.4
					L541.2,285.4z"/>
			</g>
			<g class="st5">
				<path class="st9" d="M597.2,269.7v-14.4h-5.1v-2.9h13.7v2.9h-5.1v14.4H597.2z"/>
			</g>
			<g class="st5">
				<path class="st9" d="M490.7,282.5h-3.8l-1.5-3.9h-6.9l-1.4,3.9h-3.7l6.7-17.3h3.7L490.7,282.5z M484.3,275.7l-2.4-6.4l-2.3,6.4
					H484.3z"/>
			</g>
			<path id="rect1318-6-7-5-18-1_2_" class="st11" d="M128,199.2L128,199.2c5.5,0,10,6,10,13.4V258c0,7.4-4.5,13.4-10,13.4l0,0
				c-5.5,0-10-6-10-13.4v-45.4C118,205.2,122.5,199.2,128,199.2z"/>
			<g class="st5">
				<path class="st9" d="M136.6,255.6h-3.8l-1.5-3.9h-6.9l-1.4,3.9h-3.7l6.7-17.3h3.7L136.6,255.6z M130.2,248.8l-2.4-6.4l-2.3,6.4
					H130.2z"/>
			</g>
			<path id="rect1318-6-7-5-7-1-7_2_" class="st14" d="M186.4,159.1L186.4,159.1c5.5,0,10,6.5,10,14.5v78.9c0,8-4.5,14.5-10,14.5
				l0,0c-5.5,0-10-6.5-10-14.5v-78.9C176.5,165.6,180.9,159.1,186.4,159.1z"/>
			<g class="st5">
				<path class="st9" d="M195.1,292.1h-3.8l-1.5-3.9h-6.9l-1.4,3.9h-3.7l6.7-17.3h3.7L195.1,292.1z M188.6,285.2l-2.4-6.4l-2.3,6.4
					H188.6z"/>
			</g>
			<g class="st5">
				<path class="st9" d="M184.7,248v-14.4h-5.1v-2.9h13.7v2.9h-5.1V248H184.7z"/>
			</g>
			<path id="rect1318-69-4-0_2_" class="st11" d="M244.9,152.6L244.9,152.6c5.5,0,10,6.1,10,13.6v162.7c0,7.5-4.5,13.6-10,13.6l0,0
				c-5.5,0-10-6.1-10-13.6V166.3C234.9,158.7,239.4,152.6,244.9,152.6z"/>
			<path id="rect1318-6-7-5-7-4-5-4_2_" class="st14" d="M244.9,152.6L244.9,152.6c5.5,0,10,6.5,10,14.5V246c0,8-4.5,14.5-10,14.5
				l0,0c-5.5,0-10-6.5-10-14.5v-78.9C234.9,159.1,239.4,152.6,244.9,152.6z"/>
			<g class="st5">
				<path class="st9" d="M253.5,284.3h-3.8l-1.5-3.9h-6.9l-1.4,3.9h-3.7l6.7-17.3h3.7L253.5,284.3z M247.1,277.5l-2.4-6.4l-2.3,6.4
					H247.1z"/>
			</g>
			<g class="st5">
				<path class="st9" d="M243.1,244v-14.4H238v-2.9h13.7v2.9h-5.1V244H243.1z"/>
			</g>
			<path id="rect1318-5-3-9-4_2_" class="st11" d="M303.3,165.3L303.3,165.3c5.5,0,10,6.3,10,14v104.4c0,7.7-4.5,14-10,14l0,0
				c-5.5,0-10-6.3-10-14V179.3C293.3,171.5,297.8,165.3,303.3,165.3z"/>
			<path id="rect1318-6-7-5-4-9-3_2_" class="st14" d="M303.3,165.3L303.3,165.3c5.5,0,10,6,10,13.4V224c0,7.4-4.5,13.4-10,13.4l0,0
				c-5.5,0-10-6-10-13.4v-45.4C293.3,171.3,297.8,165.3,303.3,165.3z"/>
			<g class="st5">
				<path class="st9" d="M311.9,262.7h-3.8l-1.5-3.9h-6.9l-1.4,3.9h-3.7l6.7-17.3h3.7L311.9,262.7z M305.5,255.8l-2.4-6.4l-2.3,6.4
					H305.5z"/>
			</g>
			<g class="st5">
				<path class="st9" d="M301.6,224.4V210h-5.1v-2.9h13.7v2.9H305v14.4H301.6z"/>
			</g>
			<path id="path591-2-4-6-7_2_" class="st12" d="M208.7,144.9c10.8-0.4,32.3-1.2,50.7,1c18.3,2.1,33.4,7.1,48,13.4
				c14.6,6.3,28.6,13.7,46.7,26.9s40.4,32,62.5,51.8s44.1,40.5,62.5,57.5s33.2,30.3,44.7,39.5c11.5,9.1,19.9,14.1,26.6,17.6
				c6.7,3.5,11.9,5.6,4.9,6.9s-26.1,1.9-42.1-0.9c-16-2.7-29-8.7-43.1-18.2c-14-9.5-29.2-22.6-44-36.1
				c-14.9-13.5-29.5-27.5-46.1-43.3s-35.2-33.4-51.4-47.4c-16.2-14.1-30-24.7-44.1-33.4c-14-8.7-28.3-15.5-40.5-20.7
				s-22.5-8.8-28.8-10.7c-6.2-1.9-8.4-2.3-10.6-2.6c-2.2-0.3-4.4-0.6-5.4-0.8C197.9,145.3,197.9,145.3,208.7,144.9L208.7,144.9z"/>
			<path class="st12" d="M987.9,235c-21-18.7-41.9-36.3-59.1-48.8c-18.1-13.2-32.2-20.7-46.7-26.9c-14.6-6.3-29.7-11.3-48-13.4
				c-18.3-2.1-39.9-1.4-50.7-1l0,0c-10.8,0.4-10.8,0.4-9.7,0.5c1.1,0.2,3.3,0.5,5.4,0.8c2.2,0.3,4.4,0.6,10.6,2.6
				c6.2,1.9,16.5,5.5,28.8,10.7s26.5,12,40.5,20.7s27.9,19.3,44.1,33.4c16.2,14.1,34.8,31.7,51.4,47.4
				c11.8,11.2,22.7,21.6,33.3,31.5V235H987.9z"/>
		</g>
	</g>
</g>
<polygon class="st1" points="493.1,410.3 497.3,403.3 490.3,403.3 490.3,396.3 483.3,400.5 476.4,396.3 476.4,403.3 469.3,403.3 
	473.6,410.3 469.3,417.3 476.4,417.3 476.4,424.2 483.3,420 490.3,424.2 490.3,417.3 497.3,417.3 "/>
<polygon class="st1" points="493.1,650.3 497.3,643.3 490.3,643.3 490.3,636.3 483.3,640.5 476.4,636.3 476.4,643.3 469.3,643.3 
	473.6,650.3 469.3,657.3 476.4,657.3 476.4,664.2 483.3,660 490.3,664.2 490.3,657.3 497.3,657.3 "/>
</svg>
