<?xml version="1.0" encoding="utf-8"?>
<!-- Generator: Adobe Illustrator 24.1.0, SVG Export Plug-In . SVG Version: 6.00 Build 0)  -->
<svg version="1.1" id="Capa_1" xmlns="http://www.w3.org/2000/svg" xmlns:xlink="http://www.w3.org/1999/xlink" x="0px" y="0px"
	 viewBox="0 0 1266.4 1178.4" style="enable-background:new 0 0 1266.4 1178.4;" xml:space="preserve">
<style type="text/css">
	.st0{fill:#373A47;}
	.st1{fill:#8FB5BC;}
	.st2{fill:#FF2A2A;}
	.st3{fill:#FFFFFF;stroke:#373A47;stroke-width:0.5669;stroke-miterlimit:10;}
	.st4{fill:#D4D8D8;}
	.st5{fill:none;stroke:#373A47;stroke-miterlimit:10;}
	.st6{fill:#032836;}
	.st7{fill:#E6EDED;}
	.st8{fill:#FFCC33;}
	.st9{fill:#CCCC66;}
	.st10{fill:#C0D9DF;}
	.st11{fill:#CC6633;}
	.st12{opacity:0.3;}
	.st13{fill:url(#SVGID_1_);}
	.st14{fill:url(#SVGID_2_);}
	.st15{fill:url(#SVGID_3_);}
	.st16{fill:url(#SVGID_4_);}
	.st17{fill:url(#SVGID_5_);}
	.st18{fill:url(#SVGID_6_);}
	.st19{fill:url(#SVGID_7_);}
	.st20{fill:url(#SVGID_8_);}
	.st21{fill:url(#SVGID_9_);}
	.st22{fill:url(#SVGID_10_);}
	.st23{opacity:0.3;fill:url(#SVGID_11_);}
	.st24{opacity:0.3;fill:url(#SVGID_12_);}
	.st25{opacity:0.3;fill:url(#SVGID_13_);}
	.st26{opacity:0.3;fill:url(#SVGID_14_);}
	.st27{opacity:0.3;fill:url(#SVGID_15_);}
	.st28{fill:#EAE47F;}
	.st29{fill:url(#SVGID_16_);}
	.st30{fill:url(#SVGID_17_);}
	.st31{fill:url(#SVGID_18_);}
	.st32{fill:url(#SVGID_19_);}
	.st33{fill:url(#SVGID_20_);}
	.st34{fill:url(#SVGID_21_);}
	.st35{fill:url(#SVGID_22_);}
	.st36{fill:url(#SVGID_23_);}
	.st37{fill:url(#SVGID_24_);}
	.st38{fill:url(#SVGID_25_);}
	.st39{fill:url(#SVGID_26_);}
	.st40{fill:url(#SVGID_27_);}
	.st41{fill:url(#SVGID_28_);}
	.st42{fill:url(#SVGID_29_);}
	.st43{fill:url(#SVGID_30_);}
	.st44{fill:url(#SVGID_31_);}
	.st45{fill:#FFFFFF;}
	.st46{fill:#938A1B;}
	.st47{fill:url(#SVGID_32_);}
	.st48{fill:#FA7F43;}
	.st49{fill:url(#SVGID_33_);}
	.st50{fill:url(#SVGID_34_);}
	.st51{fill:url(#SVGID_35_);}
	.st52{fill:url(#SVGID_36_);}
	.st53{fill:url(#SVGID_37_);}
	.st54{fill:url(#SVGID_38_);}
	.st55{fill:url(#SVGID_39_);}
	.st56{fill:url(#SVGID_40_);}
	.st57{fill:url(#SVGID_41_);}
	.st58{fill:url(#SVGID_42_);}
	.st59{fill:url(#SVGID_43_);}
	.st60{fill:url(#SVGID_44_);}
	.st61{fill:url(#SVGID_45_);}
	.st62{fill:url(#SVGID_46_);}
	.st63{fill:url(#SVGID_47_);}
</style>
<g>
	<g>
		<g>
			<polygon class="st0" points="642.7,159.4 642.7,180.5 650.2,180.5 631.7,199 613.1,180.5 620.6,180.5 620.6,159.4 			"/>
		</g>
	</g>
	<path class="st1" d="M751.3,46.9v-18c-74.3,0-102.6,22.8-126.2,47c-23.3-24.1-51-47-123.7-47v18c65.7,0,89.6,19.7,111.2,42
		c-21.6,22.3-45.5,42-111.2,42v18c72.7,0,100.3-22.9,123.7-47c23.6,24.2,52,47,126.2,47v-18c-67.3,0-92-19.6-113.8-42
		C659.3,66.5,683.9,46.9,751.3,46.9z"/>
	<polygon class="st2" points="544.4,158.9 549.3,150.8 541.2,150.8 541.2,142.6 533,147.5 524.9,142.6 524.9,150.8 516.7,150.8 
		521.6,158.9 516.7,167.1 524.9,167.1 524.9,175.2 533,170.3 541.2,175.2 541.2,167.1 549.3,167.1 	"/>
	<polygon class="st2" points="728.6,20.1 733.5,12 725.3,12 725.3,3.8 717.2,8.7 709,3.8 709,12 700.9,12 705.8,20.1 700.9,28.3 
		709,28.3 709,36.4 717.2,31.5 725.3,36.4 725.3,28.3 733.5,28.3 	"/>
	<polygon class="st2" points="607.3,140.8 612.2,132.6 604.1,132.6 604.1,124.5 595.9,129.4 587.8,124.5 587.8,132.6 579.7,132.6 
		584.6,140.8 579.7,148.9 587.8,148.9 587.8,157.1 595.9,152.2 604.1,157.1 604.1,148.9 612.2,148.9 	"/>
	<g>
		<circle class="st3" cx="732.1" cy="1044.8" r="23"/>
		<circle class="st3" cx="618.8" cy="967.4" r="23"/>
		<circle class="st3" cx="566.2" cy="1111.9" r="23"/>
		<circle class="st3" cx="653.1" cy="979.5" r="23"/>
		<circle class="st3" cx="525.5" cy="1126.9" r="23"/>
		<circle class="st3" cx="684.3" cy="1005.2" r="23"/>
		<circle class="st3" cx="607.4" cy="1064.8" r="23"/>
		<circle class="st3" cx="700.5" cy="1074.3" r="23"/>
		<circle class="st3" cx="652" cy="1016.5" r="23"/>
		<circle class="st3" cx="645.9" cy="1048.6" r="23"/>
		<circle class="st3" cx="609.2" cy="1107.1" r="23"/>
		<circle class="st3" cx="666.3" cy="1088" r="23"/>
		<circle class="st3" cx="630.6" cy="1085.3" r="23"/>
		<circle class="st2" cx="738" cy="1078.7" r="23"/>
	</g>
</g>
<g>
	<path class="st4" d="M1259.1,707.2c0-11.5-9.3-20.8-20.8-20.8c-2.3,0-4.4,0.4-6.4,1c-0.2,0-0.4,0.1-0.6,0.1
		c-54.9,15.9-105.2,25.7-153.8,29.8c-57.1,4.8-114.2,2.2-174.6-8c-70.1-11.9-146-34.6-225.6-67.5c-79.7-37.5-154.5-62.9-228.5-77.8
		c-35.5-7.1-71.2-11.8-106.2-14c-33.3-2-67-1.8-100.2,0.6c-56.4,4.1-113.8,14.8-175.6,32.7c-15.9,4.6-31.7,9.5-47.3,14.7
		c-0.9,0.2-1.8,0.5-2.6,0.9c-8.1,3.3-13.9,11.2-13.9,20.5c0,12.2,9.9,22.1,22.1,22.1c1.6,0,3.1-0.2,4.6-0.5c1.9-0.4,3.7-1,5.3-1.9
		c72.8-25.7,144.4-47,221.6-52.6c51.5-3.8,102.6-0.4,156.4,10.4c63.2,12.7,131.5,36.2,202.9,69.8l0.9,0.4l1,0.4
		c44.8,18.5,89.1,34.3,131.7,46.9c41.4,12.2,82.6,21.8,122.5,28.6c38.6,6.5,77.3,10.6,115.1,12.2c35.6,1.5,71.6,0.7,106.8-2.3
		c53-4.5,101.9-13.5,148.1-25.3c1.1-0.2,2.1-0.5,3.2-0.8c1-0.3,1.7-0.5,2-0.8C1254.2,722.7,1259.1,715.6,1259.1,707.2z"/>
	<g>
		<g>
			<polygon class="st0" points="643.6,522.1 643.6,545 651.7,545 631.7,565.2 611.4,545 619.6,545 619.6,522.1 			"/>
		</g>
	</g>
	<ellipse class="st5" cx="194" cy="783.6" rx="64.1" ry="36.9"/>
	<ellipse class="st5" cx="413.9" cy="822.4" rx="64.1" ry="36.9"/>
	<ellipse class="st5" cx="635.2" cy="866.6" rx="64.1" ry="36.9"/>
	<ellipse class="st5" cx="848.9" cy="916" rx="64.1" ry="36.9"/>
	<ellipse class="st5" cx="1067.6" cy="939.5" rx="64.1" ry="36.9"/>
	<polygon class="st0" points="205.1,702.8 205.1,722.2 212,722.2 194.9,739.3 177.7,722.2 184.7,722.2 184.7,702.8 	"/>
	<polyline class="st5" points="274.7,654 274.7,692.2 115.2,692.2 115.2,673.7 	"/>
	<polygon class="st0" points="424,741.6 424,761.1 430.9,761.1 413.8,778.3 396.6,761.1 403.5,761.1 403.5,741.6 	"/>
	<polyline class="st5" points="495.3,683.1 495.3,731.1 329.7,731.1 329.7,663.4 	"/>
	<polygon class="st0" points="645.3,785.7 645.3,805.3 652.2,805.3 635.1,822.3 618,805.3 624.9,805.3 624.9,785.7 	"/>
	<polyline class="st5" points="712,756.7 712,775.2 552.4,775.2 552.4,707.4 	"/>
	<polygon class="st0" points="858.9,835.1 858.9,854.6 865.8,854.6 848.7,871.7 831.6,854.6 838.5,854.6 838.5,835.1 	"/>
	<polyline class="st5" points="928.6,811 928.6,824.5 769,824.5 769,776.5 	"/>
	<polygon class="st0" points="1078.7,858.8 1078.7,878.3 1085.7,878.3 1068.5,895.4 1051.4,878.3 1058.3,878.3 1058.3,858.8 	"/>
	<polyline class="st5" points="1143.4,815.8 1143.4,849.1 983.9,849.1 983.9,830.6 	"/>
	<path class="st6" d="M622.9,873.6l-1.2-4.7h-6.5l-1.1,4.7h-5.5l6.7-22.4h6.4l6.7,22.4H622.9z M616.1,864.8h4.6l-2.4-9.9
		L616.1,864.8z"/>
	<path class="st6" d="M639.6,856.3c1.1,0.3,2.1,0.9,2.9,1.5l-1.9,2.9c-1.4-0.9-2.9-1.3-4.2-1.3c-0.7,0-1.2,0.1-1.5,0.3
		c-0.3,0.2-0.5,0.5-0.5,1c0,0.3,0.1,0.5,0.2,0.8c0.1,0.2,0.5,0.4,1,0.7c0.5,0.2,1.3,0.4,2.3,0.8c1.8,0.5,3.2,1.2,4,2.1
		c0.9,0.9,1.3,2,1.3,3.5c0,1.2-0.3,2.2-1,3.1c-0.7,0.9-1.6,1.5-2.7,2c-1.2,0.4-2.5,0.7-3.9,0.7c-1.5,0-2.9-0.2-4-0.7
		c-1.2-0.4-2.3-1.1-3.2-1.9l2.5-2.9c1.4,1.1,3,1.6,4.5,1.6c0.8,0,1.4-0.1,1.9-0.4c0.4-0.3,0.7-0.7,0.7-1.2c0-0.4-0.1-0.8-0.2-1
		c-0.2-0.2-0.5-0.4-1-0.7c-0.5-0.2-1.3-0.4-2.4-0.8c-1.8-0.5-3-1.2-3.7-2.1c-0.8-0.9-1.3-2-1.3-3.3c0-1,0.3-1.9,0.9-2.7
		c0.5-0.8,1.4-1.4,2.5-1.9c1.1-0.4,2.3-0.7,3.7-0.7C637.4,855.8,638.5,856,639.6,856.3z"/>
	<path class="st6" d="M659.2,857.1c0.9,0.9,1.3,2.2,1.3,3.7v12.4h-5.1v-11.5c0-0.9-0.1-1.4-0.4-1.9c-0.2-0.3-0.7-0.5-1.2-0.5
		c-1.1,0-2.1,0.8-3,2.3v11.7h-5.1v-17.2h4.4l0.3,2.1c0.8-0.9,1.5-1.5,2.4-2c0.9-0.4,1.9-0.7,2.9-0.7
		C657.2,855.8,658.3,856.3,659.2,857.1z"/>
	<path class="st6" d="M409.1,807l-0.5,4h-5.5v18.4h-5.3v-18.4h-5.7v-4H409.1z"/>
	<path class="st6" d="M421.4,812l-0.8,5c-0.7-0.1-1.2-0.2-1.5-0.2c-1,0-1.8,0.3-2.3,1.1c-0.5,0.7-1,1.8-1.2,3.2v8.5h-5.3v-17.2h4.4
		l0.4,3.4c0.4-1.2,1-2.1,1.8-2.9c0.8-0.7,1.6-1,2.7-1C420.1,811.7,420.8,811.9,421.4,812z"/>
	<path class="st6" d="M437.8,814.1c1.1,1.6,1.6,3.7,1.6,6.7c0,1.8-0.3,3.4-0.9,4.7c-0.5,1.4-1.3,2.5-2.4,3.3
		c-1.1,0.8-2.3,1.2-3.6,1.2c-1.8,0-3.2-0.5-4.1-1.8v7.8l-5.1,0.5v-24.2h4.4l0.2,2c0.7-0.9,1.4-1.4,2.3-1.9c0.9-0.5,1.8-0.7,2.6-0.7
		C435,811.7,436.7,812.5,437.8,814.1z M434,820.8c0-2.1-0.2-3.5-0.7-4.2c-0.4-0.8-1.1-1.2-2.1-1.2c-0.5,0-1.1,0.2-1.6,0.5
		c-0.5,0.3-1,0.9-1.3,1.5v7.3c0.7,1,1.5,1.5,2.6,1.5C432.9,826.2,434,824.4,434,820.8z"/>
	<path class="st6" d="M1065.6,946.6h-5.2l-0.4-8.8c-0.1-2.1-0.1-3.9-0.1-5.5c0-1.2,0-2.4,0.1-3.6l-3.5,15.5h-5l-3.7-15.5
		c0.1,1.9,0.2,3.7,0.2,5.3c0,1.3,0,2.5-0.1,3.9l-0.4,8.7h-5.2l1.6-22.4h6.7l3.4,15.2l3.2-15.2h6.7L1065.6,946.6z"/>
	<path class="st6" d="M1083.5,939.5h-10.7c0.2,1.4,0.5,2.5,1.2,3.1c0.7,0.5,1.5,0.9,2.7,0.9c0.7,0,1.3-0.1,2-0.3
		c0.7-0.2,1.3-0.7,2.1-1.2l2.1,2.9c-2,1.6-4.2,2.4-6.7,2.4c-2.9,0-4.8-0.9-6.4-2.5c-1.5-1.6-2.3-3.7-2.3-6.6c0-1.8,0.3-3.3,1-4.6
		s1.5-2.5,2.7-3.3s2.6-1.2,4.3-1.2c2.5,0,4.4,0.8,5.8,2.3c1.4,1.5,2.1,3.7,2.1,6.4C1083.6,938.2,1083.5,938.9,1083.5,939.5z
		 M1078.6,936c0-2.6-1-3.9-2.9-3.9c-0.9,0-1.5,0.3-2.1,1c-0.6,0.7-0.8,1.8-0.9,3.2h5.7L1078.6,936L1078.6,936z"/>
	<path class="st6" d="M1097.1,945.6c-0.7,0.4-1.3,0.8-2.2,1c-0.9,0.2-1.7,0.3-2.5,0.3c-3.7,0-5.6-2.1-5.6-6.2v-7.9h-2.4v-3.6h2.4
		v-3.7l5.1-0.5v4.3h3.9l-0.5,3.6h-3.4v7.9c0,0.8,0.1,1.4,0.4,1.8c0.3,0.3,0.7,0.5,1.2,0.5c0.6,0,1.2-0.2,1.9-0.5L1097.1,945.6z"/>
	<path class="st6" d="M830.7,900.5v18.2h8.7l-0.5,4.2h-13.4v-22.4L830.7,900.5L830.7,900.5z"/>
	<path class="st6" d="M855.9,915.8h-10.7c0.2,1.4,0.5,2.5,1.2,3.1c0.7,0.5,1.5,0.9,2.7,0.9c0.7,0,1.3-0.1,2-0.3
		c0.7-0.2,1.3-0.7,2.1-1.2l2.1,2.9c-2,1.6-4.2,2.4-6.7,2.4c-2.9,0-4.8-0.9-6.4-2.5c-1.5-1.6-2.3-3.7-2.3-6.6c0-1.8,0.3-3.3,1-4.6
		c0.7-1.4,1.5-2.5,2.7-3.3c1.2-0.8,2.6-1.2,4.3-1.2c2.5,0,4.4,0.8,5.8,2.3c1.4,1.5,2.1,3.7,2.1,6.4
		C856,914.6,855.9,915.2,855.9,915.8z M851,912.5c0-2.6-1-3.9-2.9-3.9c-0.9,0-1.5,0.3-2.1,1c-0.6,0.7-0.8,1.8-0.9,3.2h5.7L851,912.5
		L851,912.5z"/>
	<path class="st6" d="M873.3,922.9h-4.4l-0.2-2.2c-1.3,1.9-3,2.7-5.2,2.7c-1.5,0-2.7-0.4-3.6-1.4c-0.8-1-1.2-2.3-1.2-4v-12.2h5.1
		v11.6c0,0.9,0.1,1.4,0.4,1.8c0.3,0.3,0.7,0.5,1.2,0.5c1.1,0,2-0.7,2.9-2v-11.9h5.1L873.3,922.9L873.3,922.9z"/>
	<path class="st6" d="M183.6,768.3c1.2,0.4,2.4,1.2,3.4,2.2l-2.5,2.9c-1.5-1.3-3.2-1.9-4.8-1.9c-1,0-1.6,0.2-2.2,0.5
		c-0.5,0.3-0.8,0.9-0.8,1.6c0,0.5,0.1,0.9,0.3,1.2c0.2,0.3,0.7,0.7,1.3,0.9c0.7,0.3,1.5,0.7,2.7,1c2.3,0.8,3.9,1.6,5,2.7
		c1.1,1.1,1.6,2.6,1.6,4.5c0,1.4-0.3,2.6-1.1,3.7c-0.8,1.1-1.8,1.9-3.1,2.5c-1.3,0.5-3,0.9-4.7,0.9c-1.9,0-3.5-0.3-4.8-0.9
		c-1.4-0.5-2.6-1.3-3.6-2.3l2.7-3c0.9,0.8,1.8,1.3,2.7,1.6c0.9,0.3,2,0.5,3.1,0.5c1.1,0,2-0.2,2.6-0.8c0.7-0.4,1-1.2,1-2.1
		c0-0.5-0.1-1-0.3-1.4c-0.2-0.3-0.7-0.8-1.2-1c-0.5-0.3-1.4-0.7-2.5-1c-2.5-0.8-4.2-1.6-5.3-2.9c-1.1-1.3-1.5-2.5-1.5-4.1
		c0-1.3,0.3-2.4,1.1-3.4c0.7-1,1.6-1.8,2.9-2.3c1.2-0.5,2.6-0.8,4.1-0.8C180.9,767.6,182.3,767.8,183.6,768.3z"/>
	<path class="st6" d="M205.2,783.6h-10.7c0.2,1.4,0.5,2.5,1.2,3.1c0.7,0.5,1.5,0.9,2.7,0.9c0.7,0,1.3-0.1,2-0.3s1.3-0.7,2.1-1.2
		l2.1,2.9c-2,1.6-4.2,2.4-6.7,2.4c-2.9,0-4.8-0.9-6.4-2.5c-1.6-1.6-2.3-3.7-2.3-6.6c0-1.8,0.3-3.3,1-4.6s1.5-2.5,2.7-3.3
		s2.6-1.2,4.3-1.2c2.5,0,4.4,0.8,5.8,2.3c1.4,1.5,2.1,3.7,2.1,6.4C205.3,782.3,205.3,782.9,205.2,783.6z M200.3,780.1
		c0-2.6-1-3.9-2.9-3.9c-0.9,0-1.5,0.3-2.1,1c-0.5,0.7-0.8,1.8-0.9,3.2h5.7L200.3,780.1L200.3,780.1z"/>
	<path class="st6" d="M219.2,773.1l-0.8,5c-0.7-0.1-1.2-0.2-1.5-0.2c-1,0-1.8,0.3-2.3,1.1c-0.5,0.7-1,1.8-1.2,3.2v8.5h-5.1v-17.2
		h4.4l0.4,3.4c0.4-1.2,1-2.1,1.8-2.9c0.8-0.7,1.6-1,2.7-1C218.1,772.9,218.7,772.9,219.2,773.1z"/>
	<path class="st4" d="M102.1,370.8c48.5-41.8,94.2-81.3,144.8-90c25.9-4.4,51.6-0.4,78.6,12.2c31.8,14.9,66.1,42.3,102,81.7l0.5,0.5
		l0.5,0.5c22.5,21.7,44.8,40.1,66.2,54.9c20.8,14.3,41.5,25.5,61.6,33.5c19.4,7.6,38.8,12.4,57.8,14.2c17.9,1.7,36,0.8,53.7-2.7
		c66.4-13,120.1-59.6,172.1-104.6c48.3-41.9,94-81.4,144.6-90.1c25.9-4.4,51.8-0.4,79,12.3c16.4,7.7,33.6,18.7,51.3,33l51.4,49.6
		c17.9,17.3,23.2,21.6,53,45.4c29.8,23.9,54-13.3,29.5-31.1c-25.9-18.7-30.1-23.2-47.1-39.2l-4.1-4.4
		c-40.6-44.2-78.6-74.2-116.1-91.7c-17.9-8.4-35.9-13.9-53.6-16.4c-16.8-2.4-33.8-2.1-50.5,0.7c-28.4,4.9-57.3,17.4-88.3,38.3
		c-26.5,17.9-52.2,40.1-77,61.6c-24.3,21.1-49.5,42.9-75.1,60.2c-27.6,18.6-52.9,30-77.3,34.8c-28.7,5.6-57.4,2.6-87.8-9.4
		c-35.3-13.9-73.4-40.5-113.4-78.9c-40.1-43.8-77.6-73.6-114.8-91c-17.8-8.3-35.8-13.8-53.4-16.3c-16.7-2.4-33.7-2.1-50.4,0.7
		c-28.3,4.8-57.2,17.3-88.2,38.2c-26.6,17.8-52.2,40-77.1,61.4c-21.6,18.6-50.1,40.8-66.5,54s1.1,53.7,33.9,27.8
		S82.4,387.8,102.1,370.8z"/>
	<path class="st7" d="M434.2,381.4c-3.5-3.5-6.5-6.8-9.6-10.4l-0.6-0.7c-4.2-4.2-8.3-8.3-12.4-12.4c-30.1,30.4-59,52.2-86,64.9
		c-27,12.7-52.7,16.6-78.6,12.2c-50.5-8.7-96.3-48.1-144.8-90c-20.1-17.3-38.8-32.4-61.7-50.7c-26.9-19.6-48.9,14.9-33.8,27.9
		c15.1,13,45.7,35.9,67.8,54.9c24.8,21.4,50.5,43.6,77.1,61.4c31.1,20.9,59.9,33.4,88.2,38.2c9.1,1.6,18.3,2.3,27.5,2.3
		c7.6,0,15.3-0.5,22.8-1.6c17.6-2.5,35.6-8,53.4-16.3c31.9-14.9,64-38.9,97.8-73.1C438.9,386,436.5,383.8,434.2,381.4z"/>
	<g>
		<path class="st7" d="M1197.4,346.4l4.1,4.4c2.6,2.4,5.1,4.8,7.7,7.1c16.6-15.1,24.5-19.6,48.8-38.8c20.5-15.4-9.7-48.3-31.8-29.6
			c-22.1,18.7-30.9,23.7-46.7,38.1C1185.3,333.6,1191.3,339.8,1197.4,346.4z"/>
		<path class="st7" d="M1166,375.8l-18.5-17.8l-33,31.8c-17.7,14.3-34.8,25.3-51.3,33c-27.2,12.7-53,16.7-79,12.3
			c-50.6-8.7-96.3-48.2-144.6-90.1c-52-45-105.7-91.6-172.1-104.6c-17.7-3.5-35.8-4.4-53.7-2.7c-19,1.8-38.4,6.6-57.8,14.2
			c-20.1,7.9-40.8,19.2-61.6,33.5c-17.2,11.9-35,26.1-53.1,42.6c4.3,4.2,8.6,8.5,12.9,12.9l0.4,0.4l1.4,1.6c2.8,3.2,5.3,5.9,7.9,8.5
			c2.3,2.3,4.6,4.5,7.1,6.8c35.3-32,69-54.4,100.4-66.8c30.3-12,59-15,87.8-9.4c24.4,4.8,49.7,16.2,77.3,34.8
			c25.6,17.3,50.8,39.1,75.1,60.2c24.8,21.5,50.4,43.7,77,61.6c31,20.9,59.9,33.4,88.3,38.3c16.7,2.9,33.7,3.1,50.5,0.7
			c17.7-2.5,35.7-8,53.6-16.4c32-14.9,64.2-38.9,98.1-72.9C1175,384.2,1170.5,380.1,1166,375.8z"/>
	</g>
	<circle class="st7" cx="22.5" cy="407.9" r="19.6"/>
	<circle class="st7" cx="1237.2" cy="407.9" r="19.6"/>
	<g>
		<path class="st8" d="M134.1,389.3c0,6.8-5.5,12.3-12.3,12.3s-12.3-5.5-12.3-12.3c0-0.3,0-27.6,0-27.9c0-6.8,5.5-12.3,12.3-12.3
			s12.3,5.5,12.3,12.3C134.1,361.8,134.1,389,134.1,389.3z"/>
		<path class="st8" d="M206.7,418.1c0,6.8-5.5,12.3-12.3,12.3c-6.8,0-12.3-5.5-12.3-12.3c0-0.3,0-56.4,0-56.7
			c0-6.8,5.5-12.3,12.3-12.3c6.8,0,12.3,5.5,12.3,12.3C206.7,361.8,206.7,417.7,206.7,418.1z"/>
		<path class="st9" d="M279.3,446.8c0,6.8-5.5,12.3-12.3,12.3s-12.3-5.5-12.3-12.3c0-0.3,0-85.1,0-85.4c0-6.8,5.5-12.3,12.3-12.3
			s12.3,5.5,12.3,12.3C279.3,361.8,279.3,446.5,279.3,446.8z"/>
		<path class="st10" d="M351.9,418.1c0,6.8-5.5,12.3-12.3,12.3c-6.8,0-12.3-5.5-12.3-12.3c0-0.3,0-56.4,0-56.7
			c0-6.8,5.5-12.3,12.3-12.3c6.8,0,12.3,5.5,12.3,12.3C351.9,361.8,351.9,417.7,351.9,418.1z"/>
		<path class="st10" d="M424.5,389.3c0,6.8-5.5,12.3-12.3,12.3s-12.3-5.5-12.3-12.3c0-0.3,0-27.6,0-27.9c0-6.8,5.5-12.3,12.3-12.3
			s12.3,5.5,12.3,12.3C424.5,361.8,424.5,389,424.5,389.3z"/>
		<path class="st9" d="M497.1,389.3c0,6.8-5.5,12.3-12.3,12.3c-6.8,0-12.3-5.5-12.3-12.3c0-0.3,0-27.6,0-27.9
			c0-6.8,5.5-12.3,12.3-12.3c6.8,0,12.3,5.5,12.3,12.3C497.1,361.8,497.1,389,497.1,389.3z"/>
		<path class="st8" d="M569.7,418.1c0,6.8-5.5,12.3-12.3,12.3c-6.8,0-12.3-5.5-12.3-12.3c0-0.3,0-56.4,0-56.7
			c0-6.8,5.5-12.3,12.3-12.3c6.8,0,12.3,5.5,12.3,12.3C569.7,361.8,569.7,417.7,569.7,418.1z"/>
		<path class="st11" d="M642.3,446.8c0,6.8-5.5,12.3-12.3,12.3s-12.3-5.5-12.3-12.3c0-0.3,0-85.1,0-85.4c0-6.8,5.5-12.3,12.3-12.3
			s12.3,5.5,12.3,12.3C642.3,361.8,642.3,446.5,642.3,446.8z"/>
		<path class="st11" d="M714.9,418.1c0,6.8-5.5,12.3-12.3,12.3s-12.3-5.5-12.3-12.3c0-0.3,0-56.4,0-56.7c0-6.8,5.5-12.3,12.3-12.3
			s12.3,5.5,12.3,12.3C714.9,361.8,714.9,417.7,714.9,418.1z"/>
		<path class="st10" d="M787.5,389.3c0,6.8-5.5,12.3-12.3,12.3s-12.3-5.5-12.3-12.3c0-0.3,0-27.6,0-27.9c0-6.8,5.5-12.3,12.3-12.3
			s12.3,5.5,12.3,12.3C787.5,361.8,787.5,389,787.5,389.3z"/>
	</g>
	<path class="st9" d="M860.8,389.3c0,6.8-5.5,12.3-12.3,12.3s-12.3-5.5-12.3-12.3c0-0.3,0-27.6,0-27.9c0-6.8,5.5-12.3,12.3-12.3
		s12.3,5.5,12.3,12.3C860.8,361.8,860.8,389,860.8,389.3z"/>
	<path class="st8" d="M933.4,418.1c0,6.8-5.5,12.3-12.3,12.3s-12.3-5.5-12.3-12.3c0-0.3,0-56.4,0-56.7c0-6.8,5.5-12.3,12.3-12.3
		s12.3,5.5,12.3,12.3C933.4,361.8,933.4,417.7,933.4,418.1z"/>
	<path class="st10" d="M1006,446.8c0,6.8-5.5,12.3-12.3,12.3s-12.3-5.5-12.3-12.3c0-0.3,0-85.1,0-85.4c0-6.8,5.5-12.3,12.3-12.3
		s12.3,5.5,12.3,12.3C1006,361.8,1006,446.5,1006,446.8z"/>
	<path class="st9" d="M1078.6,418.1c0,6.8-5.5,12.3-12.3,12.3s-12.3-5.5-12.3-12.3c0-0.3,0-56.4,0-56.7c0-6.8,5.5-12.3,12.3-12.3
		s12.3,5.5,12.3,12.3C1078.6,361.8,1078.6,417.7,1078.6,418.1z"/>
	<path class="st11" d="M1151.2,389.3c0,6.8-5.5,12.3-12.3,12.3s-12.3-5.5-12.3-12.3c0-0.3,0-27.6,0-27.9c0-6.8,5.5-12.3,12.3-12.3
		s12.3,5.5,12.3,12.3C1151.2,361.8,1151.2,389,1151.2,389.3z"/>
	<g class="st12">
		<linearGradient id="SVGID_1_" gradientUnits="userSpaceOnUse" x1="109.604" y1="375.3792" x2="134.1248" y2="375.3792">
			<stop  offset="0" style="stop-color:#000000"/>
			<stop  offset="0.1045" style="stop-color:#1D1D1B"/>
			<stop  offset="0.6774" style="stop-color:#000000;stop-opacity:0"/>
		</linearGradient>
		<path class="st13" d="M134.1,389.3c0,6.8-5.5,12.3-12.3,12.3s-12.3-5.5-12.3-12.3c0-0.3,0-27.6,0-27.9c0-6.8,5.5-12.3,12.3-12.3
			s12.3,5.5,12.3,12.3C134.1,361.8,134.1,389,134.1,389.3z"/>
		<linearGradient id="SVGID_2_" gradientUnits="userSpaceOnUse" x1="182.1985" y1="389.7519" x2="206.7194" y2="389.7519">
			<stop  offset="0" style="stop-color:#000000"/>
			<stop  offset="0.1045" style="stop-color:#1D1D1B"/>
			<stop  offset="0.6774" style="stop-color:#000000;stop-opacity:0"/>
		</linearGradient>
		<path class="st14" d="M206.7,418.1c0,6.8-5.5,12.3-12.3,12.3c-6.8,0-12.3-5.5-12.3-12.3c0-0.3,0-56.4,0-56.7
			c0-6.8,5.5-12.3,12.3-12.3c6.8,0,12.3,5.5,12.3,12.3C206.7,361.8,206.7,417.7,206.7,418.1z"/>
		<linearGradient id="SVGID_3_" gradientUnits="userSpaceOnUse" x1="254.7931" y1="404.1245" x2="279.3139" y2="404.1245">
			<stop  offset="0" style="stop-color:#000000"/>
			<stop  offset="0.1045" style="stop-color:#1D1D1B"/>
			<stop  offset="0.6774" style="stop-color:#000000;stop-opacity:0"/>
		</linearGradient>
		<path class="st15" d="M279.3,446.8c0,6.8-5.5,12.3-12.3,12.3s-12.3-5.5-12.3-12.3c0-0.3,0-85.1,0-85.4c0-6.8,5.5-12.3,12.3-12.3
			s12.3,5.5,12.3,12.3C279.3,361.8,279.3,446.5,279.3,446.8z"/>
		<linearGradient id="SVGID_4_" gradientUnits="userSpaceOnUse" x1="327.3876" y1="389.7519" x2="351.9085" y2="389.7519">
			<stop  offset="0" style="stop-color:#000000"/>
			<stop  offset="0.1045" style="stop-color:#1D1D1B"/>
			<stop  offset="0.6774" style="stop-color:#000000;stop-opacity:0"/>
		</linearGradient>
		<path class="st16" d="M351.9,418.1c0,6.8-5.5,12.3-12.3,12.3c-6.8,0-12.3-5.5-12.3-12.3c0-0.3,0-56.4,0-56.7
			c0-6.8,5.5-12.3,12.3-12.3c6.8,0,12.3,5.5,12.3,12.3C351.9,361.8,351.9,417.7,351.9,418.1z"/>
		<linearGradient id="SVGID_5_" gradientUnits="userSpaceOnUse" x1="399.9822" y1="375.3792" x2="424.503" y2="375.3792">
			<stop  offset="0" style="stop-color:#000000"/>
			<stop  offset="0.1045" style="stop-color:#1D1D1B"/>
			<stop  offset="0.6774" style="stop-color:#000000;stop-opacity:0"/>
		</linearGradient>
		<path class="st17" d="M424.5,389.3c0,6.8-5.5,12.3-12.3,12.3s-12.3-5.5-12.3-12.3c0-0.3,0-27.6,0-27.9c0-6.8,5.5-12.3,12.3-12.3
			s12.3,5.5,12.3,12.3C424.5,361.8,424.5,389,424.5,389.3z"/>
		<linearGradient id="SVGID_6_" gradientUnits="userSpaceOnUse" x1="472.5768" y1="375.3792" x2="497.0976" y2="375.3792">
			<stop  offset="0" style="stop-color:#000000"/>
			<stop  offset="0.1045" style="stop-color:#1D1D1B"/>
			<stop  offset="0.6774" style="stop-color:#000000;stop-opacity:0"/>
		</linearGradient>
		<path class="st18" d="M497.1,389.3c0,6.8-5.5,12.3-12.3,12.3c-6.8,0-12.3-5.5-12.3-12.3c0-0.3,0-27.6,0-27.9
			c0-6.8,5.5-12.3,12.3-12.3c6.8,0,12.3,5.5,12.3,12.3C497.1,361.8,497.1,389,497.1,389.3z"/>
		<linearGradient id="SVGID_7_" gradientUnits="userSpaceOnUse" x1="545.1713" y1="389.7519" x2="569.6921" y2="389.7519">
			<stop  offset="0" style="stop-color:#000000"/>
			<stop  offset="0.1045" style="stop-color:#1D1D1B"/>
			<stop  offset="0.6774" style="stop-color:#000000;stop-opacity:0"/>
		</linearGradient>
		<path class="st19" d="M569.7,418.1c0,6.8-5.5,12.3-12.3,12.3c-6.8,0-12.3-5.5-12.3-12.3c0-0.3,0-56.4,0-56.7
			c0-6.8,5.5-12.3,12.3-12.3c6.8,0,12.3,5.5,12.3,12.3C569.7,361.8,569.7,417.7,569.7,418.1z"/>
		<linearGradient id="SVGID_8_" gradientUnits="userSpaceOnUse" x1="617.7659" y1="404.1245" x2="642.2867" y2="404.1245">
			<stop  offset="0" style="stop-color:#000000"/>
			<stop  offset="0.1045" style="stop-color:#1D1D1B"/>
			<stop  offset="0.6774" style="stop-color:#000000;stop-opacity:0"/>
		</linearGradient>
		<path class="st20" d="M642.3,446.8c0,6.8-5.5,12.3-12.3,12.3s-12.3-5.5-12.3-12.3c0-0.3,0-85.1,0-85.4c0-6.8,5.5-12.3,12.3-12.3
			s12.3,5.5,12.3,12.3C642.3,361.8,642.3,446.5,642.3,446.8z"/>
		<linearGradient id="SVGID_9_" gradientUnits="userSpaceOnUse" x1="690.3604" y1="389.7519" x2="714.8813" y2="389.7519">
			<stop  offset="0" style="stop-color:#000000"/>
			<stop  offset="0.1045" style="stop-color:#1D1D1B"/>
			<stop  offset="0.6774" style="stop-color:#000000;stop-opacity:0"/>
		</linearGradient>
		<path class="st21" d="M714.9,418.1c0,6.8-5.5,12.3-12.3,12.3s-12.3-5.5-12.3-12.3c0-0.3,0-56.4,0-56.7c0-6.8,5.5-12.3,12.3-12.3
			s12.3,5.5,12.3,12.3C714.9,361.8,714.9,417.7,714.9,418.1z"/>
		<linearGradient id="SVGID_10_" gradientUnits="userSpaceOnUse" x1="762.955" y1="375.3792" x2="787.4758" y2="375.3792">
			<stop  offset="0" style="stop-color:#000000"/>
			<stop  offset="0.1045" style="stop-color:#1D1D1B"/>
			<stop  offset="0.6774" style="stop-color:#000000;stop-opacity:0"/>
		</linearGradient>
		<path class="st22" d="M787.5,389.3c0,6.8-5.5,12.3-12.3,12.3s-12.3-5.5-12.3-12.3c0-0.3,0-27.6,0-27.9c0-6.8,5.5-12.3,12.3-12.3
			s12.3,5.5,12.3,12.3C787.5,361.8,787.5,389,787.5,389.3z"/>
	</g>
	<linearGradient id="SVGID_11_" gradientUnits="userSpaceOnUse" x1="836.2807" y1="375.3792" x2="860.8015" y2="375.3792">
		<stop  offset="0" style="stop-color:#000000"/>
		<stop  offset="0.1045" style="stop-color:#1D1D1B"/>
		<stop  offset="0.6774" style="stop-color:#000000;stop-opacity:0"/>
	</linearGradient>
	<path class="st23" d="M860.8,389.3c0,6.8-5.5,12.3-12.3,12.3s-12.3-5.5-12.3-12.3c0-0.3,0-27.6,0-27.9c0-6.8,5.5-12.3,12.3-12.3
		s12.3,5.5,12.3,12.3C860.8,361.8,860.8,389,860.8,389.3z"/>
	<linearGradient id="SVGID_12_" gradientUnits="userSpaceOnUse" x1="908.8752" y1="389.7519" x2="933.3961" y2="389.7519">
		<stop  offset="0" style="stop-color:#000000"/>
		<stop  offset="0.1045" style="stop-color:#1D1D1B"/>
		<stop  offset="0.6774" style="stop-color:#000000;stop-opacity:0"/>
	</linearGradient>
	<path class="st24" d="M933.4,418.1c0,6.8-5.5,12.3-12.3,12.3s-12.3-5.5-12.3-12.3c0-0.3,0-56.4,0-56.7c0-6.8,5.5-12.3,12.3-12.3
		s12.3,5.5,12.3,12.3C933.4,361.8,933.4,417.7,933.4,418.1z"/>
	<linearGradient id="SVGID_13_" gradientUnits="userSpaceOnUse" x1="981.4698" y1="404.1245" x2="1005.9906" y2="404.1245">
		<stop  offset="0" style="stop-color:#000000"/>
		<stop  offset="0.1045" style="stop-color:#1D1D1B"/>
		<stop  offset="0.6774" style="stop-color:#000000;stop-opacity:0"/>
	</linearGradient>
	<path class="st25" d="M1006,446.8c0,6.8-5.5,12.3-12.3,12.3s-12.3-5.5-12.3-12.3c0-0.3,0-85.1,0-85.4c0-6.8,5.5-12.3,12.3-12.3
		s12.3,5.5,12.3,12.3C1006,361.8,1006,446.5,1006,446.8z"/>
	<linearGradient id="SVGID_14_" gradientUnits="userSpaceOnUse" x1="1054.0643" y1="389.7519" x2="1078.5852" y2="389.7519">
		<stop  offset="0" style="stop-color:#000000"/>
		<stop  offset="0.1045" style="stop-color:#1D1D1B"/>
		<stop  offset="0.6774" style="stop-color:#000000;stop-opacity:0"/>
	</linearGradient>
	<path class="st26" d="M1078.6,418.1c0,6.8-5.5,12.3-12.3,12.3s-12.3-5.5-12.3-12.3c0-0.3,0-56.4,0-56.7c0-6.8,5.5-12.3,12.3-12.3
		s12.3,5.5,12.3,12.3C1078.6,361.8,1078.6,417.7,1078.6,418.1z"/>
	<linearGradient id="SVGID_15_" gradientUnits="userSpaceOnUse" x1="1126.6589" y1="375.3792" x2="1151.1797" y2="375.3792">
		<stop  offset="0" style="stop-color:#000000"/>
		<stop  offset="0.1045" style="stop-color:#1D1D1B"/>
		<stop  offset="0.6774" style="stop-color:#000000;stop-opacity:0"/>
	</linearGradient>
	<path class="st27" d="M1151.2,389.3c0,6.8-5.5,12.3-12.3,12.3s-12.3-5.5-12.3-12.3c0-0.3,0-27.6,0-27.9c0-6.8,5.5-12.3,12.3-12.3
		s12.3,5.5,12.3,12.3C1151.2,361.8,1151.2,389,1151.2,389.3z"/>
	<g>
		<path class="st28" d="M296.3,203.1v-0.6h-2.1C294.9,202.7,295.6,202.9,296.3,203.1z"/>
		<path class="st10" d="M134.1,329.2c0-6.8-5.5-12.3-12.3-12.3s-12.3,5.5-12.3,12.3c0,0.3,0,27.6,0,27.9c0,6.8,5.5,12.3,12.3,12.3
			s12.3-5.5,12.3-12.3C134.1,356.7,134.1,329.5,134.1,329.2z"/>
		<path class="st10" d="M206.7,300.4c0-6.8-5.5-12.3-12.3-12.3c-6.8,0-12.3,5.5-12.3,12.3c0,0.3,0,56.4,0,56.7
			c0,6.8,5.5,12.3,12.3,12.3c6.8,0,12.3-5.5,12.3-12.3C206.7,356.7,206.7,300.8,206.7,300.4z"/>
		<path class="st11" d="M279.3,271.7c0-6.8-5.5-12.3-12.3-12.3s-12.3,5.5-12.3,12.3c0,0.3,0,85.1,0,85.4c0,6.8,5.5,12.3,12.3,12.3
			s12.3-5.5,12.3-12.3C279.3,356.7,279.3,272,279.3,271.7z"/>
		<path class="st8" d="M351.9,300.4c0-6.8-5.5-12.3-12.3-12.3c-6.8,0-12.3,5.5-12.3,12.3c0,0.3,0,56.4,0,56.7
			c0,6.8,5.5,12.3,12.3,12.3c6.8,0,12.3-5.5,12.3-12.3C351.9,356.7,351.9,300.8,351.9,300.4z"/>
		<path class="st8" d="M424.5,329.2c0-6.8-5.5-12.3-12.3-12.3s-12.3,5.5-12.3,12.3c0,0.3,0,27.6,0,27.9c0,6.8,5.5,12.3,12.3,12.3
			s12.3-5.5,12.3-12.3C424.5,356.7,424.5,329.5,424.5,329.2z"/>
		<path class="st11" d="M497.1,329.2c0-6.8-5.5-12.3-12.3-12.3c-6.8,0-12.3,5.5-12.3,12.3c0,0.3,0,27.6,0,27.9
			c0,6.8,5.5,12.3,12.3,12.3c6.8,0,12.3-5.5,12.3-12.3C497.1,356.7,497.1,329.5,497.1,329.2z"/>
		<path class="st10" d="M569.7,300.4c0-6.8-5.5-12.3-12.3-12.3c-6.8,0-12.3,5.5-12.3,12.3c0,0.3,0,56.4,0,56.7
			c0,6.8,5.5,12.3,12.3,12.3c6.8,0,12.3-5.5,12.3-12.3C569.7,356.7,569.7,300.8,569.7,300.4z"/>
		<path class="st9" d="M642.3,271.7c0-6.8-5.5-12.3-12.3-12.3s-12.3,5.5-12.3,12.3c0,0.3,0,85.1,0,85.4c0,6.8,5.5,12.3,12.3,12.3
			s12.3-5.5,12.3-12.3C642.3,356.7,642.3,272,642.3,271.7z"/>
		<path class="st9" d="M714.9,300.4c0-6.8-5.5-12.3-12.3-12.3s-12.3,5.5-12.3,12.3c0,0.3,0,56.4,0,56.7c0,6.8,5.5,12.3,12.3,12.3
			s12.3-5.5,12.3-12.3C714.9,356.7,714.9,300.8,714.9,300.4z"/>
		<path class="st8" d="M787.5,329.2c0-6.8-5.5-12.3-12.3-12.3s-12.3,5.5-12.3,12.3c0,0.3,0,27.6,0,27.9c0,6.8,5.5,12.3,12.3,12.3
			s12.3-5.5,12.3-12.3C787.5,356.7,787.5,329.5,787.5,329.2z"/>
	</g>
	<path class="st11" d="M860.8,329.2c0-6.8-5.5-12.3-12.3-12.3s-12.3,5.5-12.3,12.3c0,0.3,0,27.6,0,27.9c0,6.8,5.5,12.3,12.3,12.3
		s12.3-5.5,12.3-12.3C860.8,356.7,860.8,329.5,860.8,329.2z"/>
	<path class="st10" d="M933.4,300.4c0-6.8-5.5-12.3-12.3-12.3s-12.3,5.5-12.3,12.3c0,0.3,0,56.4,0,56.7c0,6.8,5.5,12.3,12.3,12.3
		s12.3-5.5,12.3-12.3C933.4,356.7,933.4,300.8,933.4,300.4z"/>
	<path class="st8" d="M1006,271.7c0-6.8-5.5-12.3-12.3-12.3s-12.3,5.5-12.3,12.3c0,0.3,0,85.1,0,85.4c0,6.8,5.5,12.3,12.3,12.3
		s12.3-5.5,12.3-12.3C1006,356.7,1006,272,1006,271.7z"/>
	<path class="st11" d="M1078.6,300.4c0-6.8-5.5-12.3-12.3-12.3s-12.3,5.5-12.3,12.3c0,0.3,0,56.4,0,56.7c0,6.8,5.5,12.3,12.3,12.3
		s12.3-5.5,12.3-12.3C1078.6,356.7,1078.6,300.8,1078.6,300.4z"/>
	<path class="st9" d="M1151.2,329.2c0-6.8-5.5-12.3-12.3-12.3s-12.3,5.5-12.3,12.3c0,0.3,0,27.6,0,27.9c0,6.8,5.5,12.3,12.3,12.3
		s12.3-5.5,12.3-12.3C1151.2,356.7,1151.2,329.5,1151.2,329.2z"/>
	<g>
		<linearGradient id="SVGID_16_" gradientUnits="userSpaceOnUse" x1="294.2288" y1="202.8488" x2="296.3369" y2="202.8488">
			<stop  offset="0" style="stop-color:#000000;stop-opacity:0.2"/>
			<stop  offset="0.1045" style="stop-color:#1D1D1B;stop-opacity:0.2"/>
			<stop  offset="0.6774" style="stop-color:#000000;stop-opacity:0"/>
		</linearGradient>
		<path class="st29" d="M296.3,203.1v-0.6h-2.1C294.9,202.7,295.6,202.9,296.3,203.1z"/>
		<linearGradient id="SVGID_17_" gradientUnits="userSpaceOnUse" x1="109.604" y1="343.1186" x2="134.1248" y2="343.1186">
			<stop  offset="0" style="stop-color:#000000;stop-opacity:0.2"/>
			<stop  offset="0.1045" style="stop-color:#1D1D1B;stop-opacity:0.2"/>
			<stop  offset="0.6774" style="stop-color:#000000;stop-opacity:0"/>
		</linearGradient>
		<path class="st30" d="M134.1,329.2c0-6.8-5.5-12.3-12.3-12.3s-12.3,5.5-12.3,12.3c0,0.3,0,27.6,0,27.9c0,6.8,5.5,12.3,12.3,12.3
			s12.3-5.5,12.3-12.3C134.1,356.7,134.1,329.5,134.1,329.2z"/>
		<linearGradient id="SVGID_18_" gradientUnits="userSpaceOnUse" x1="182.1985" y1="328.7459" x2="206.7194" y2="328.7459">
			<stop  offset="0" style="stop-color:#000000;stop-opacity:0.2"/>
			<stop  offset="0.1045" style="stop-color:#1D1D1B;stop-opacity:0.2"/>
			<stop  offset="0.6774" style="stop-color:#000000;stop-opacity:0"/>
		</linearGradient>
		<path class="st31" d="M206.7,300.4c0-6.8-5.5-12.3-12.3-12.3c-6.8,0-12.3,5.5-12.3,12.3c0,0.3,0,56.4,0,56.7
			c0,6.8,5.5,12.3,12.3,12.3c6.8,0,12.3-5.5,12.3-12.3C206.7,356.7,206.7,300.8,206.7,300.4z"/>
		<linearGradient id="SVGID_19_" gradientUnits="userSpaceOnUse" x1="254.7931" y1="314.3732" x2="279.3139" y2="314.3732">
			<stop  offset="0" style="stop-color:#000000;stop-opacity:0.2"/>
			<stop  offset="0.1045" style="stop-color:#1D1D1B;stop-opacity:0.2"/>
			<stop  offset="0.6774" style="stop-color:#000000;stop-opacity:0"/>
		</linearGradient>
		<path class="st32" d="M279.3,271.7c0-6.8-5.5-12.3-12.3-12.3s-12.3,5.5-12.3,12.3c0,0.3,0,85.1,0,85.4c0,6.8,5.5,12.3,12.3,12.3
			s12.3-5.5,12.3-12.3C279.3,356.7,279.3,272,279.3,271.7z"/>
		<linearGradient id="SVGID_20_" gradientUnits="userSpaceOnUse" x1="327.3876" y1="328.7459" x2="351.9085" y2="328.7459">
			<stop  offset="0" style="stop-color:#000000;stop-opacity:0.2"/>
			<stop  offset="0.1045" style="stop-color:#1D1D1B;stop-opacity:0.2"/>
			<stop  offset="0.6774" style="stop-color:#000000;stop-opacity:0"/>
		</linearGradient>
		<path class="st33" d="M351.9,300.4c0-6.8-5.5-12.3-12.3-12.3c-6.8,0-12.3,5.5-12.3,12.3c0,0.3,0,56.4,0,56.7
			c0,6.8,5.5,12.3,12.3,12.3c6.8,0,12.3-5.5,12.3-12.3C351.9,356.7,351.9,300.8,351.9,300.4z"/>
		<linearGradient id="SVGID_21_" gradientUnits="userSpaceOnUse" x1="399.9822" y1="343.1186" x2="424.503" y2="343.1186">
			<stop  offset="0" style="stop-color:#000000;stop-opacity:0.2"/>
			<stop  offset="0.1045" style="stop-color:#1D1D1B;stop-opacity:0.2"/>
			<stop  offset="0.6774" style="stop-color:#000000;stop-opacity:0"/>
		</linearGradient>
		<path class="st34" d="M424.5,329.2c0-6.8-5.5-12.3-12.3-12.3s-12.3,5.5-12.3,12.3c0,0.3,0,27.6,0,27.9c0,6.8,5.5,12.3,12.3,12.3
			s12.3-5.5,12.3-12.3C424.5,356.7,424.5,329.5,424.5,329.2z"/>
		<linearGradient id="SVGID_22_" gradientUnits="userSpaceOnUse" x1="472.5768" y1="343.1186" x2="497.0976" y2="343.1186">
			<stop  offset="0" style="stop-color:#000000;stop-opacity:0.2"/>
			<stop  offset="0.1045" style="stop-color:#1D1D1B;stop-opacity:0.2"/>
			<stop  offset="0.6774" style="stop-color:#000000;stop-opacity:0"/>
		</linearGradient>
		<path class="st35" d="M497.1,329.2c0-6.8-5.5-12.3-12.3-12.3c-6.8,0-12.3,5.5-12.3,12.3c0,0.3,0,27.6,0,27.9
			c0,6.8,5.5,12.3,12.3,12.3c6.8,0,12.3-5.5,12.3-12.3C497.1,356.7,497.1,329.5,497.1,329.2z"/>
		<linearGradient id="SVGID_23_" gradientUnits="userSpaceOnUse" x1="545.1713" y1="328.7459" x2="569.6921" y2="328.7459">
			<stop  offset="0" style="stop-color:#000000;stop-opacity:0.2"/>
			<stop  offset="0.1045" style="stop-color:#1D1D1B;stop-opacity:0.2"/>
			<stop  offset="0.6774" style="stop-color:#000000;stop-opacity:0"/>
		</linearGradient>
		<path class="st36" d="M569.7,300.4c0-6.8-5.5-12.3-12.3-12.3c-6.8,0-12.3,5.5-12.3,12.3c0,0.3,0,56.4,0,56.7
			c0,6.8,5.5,12.3,12.3,12.3c6.8,0,12.3-5.5,12.3-12.3C569.7,356.7,569.7,300.8,569.7,300.4z"/>
		<linearGradient id="SVGID_24_" gradientUnits="userSpaceOnUse" x1="617.7659" y1="314.3732" x2="642.2867" y2="314.3732">
			<stop  offset="0" style="stop-color:#000000;stop-opacity:0.2"/>
			<stop  offset="0.1045" style="stop-color:#1D1D1B;stop-opacity:0.2"/>
			<stop  offset="0.6774" style="stop-color:#000000;stop-opacity:0"/>
		</linearGradient>
		<path class="st37" d="M642.3,271.7c0-6.8-5.5-12.3-12.3-12.3s-12.3,5.5-12.3,12.3c0,0.3,0,85.1,0,85.4c0,6.8,5.5,12.3,12.3,12.3
			s12.3-5.5,12.3-12.3C642.3,356.7,642.3,272,642.3,271.7z"/>
		<linearGradient id="SVGID_25_" gradientUnits="userSpaceOnUse" x1="690.3604" y1="328.7459" x2="714.8813" y2="328.7459">
			<stop  offset="0" style="stop-color:#000000;stop-opacity:0.2"/>
			<stop  offset="0.1045" style="stop-color:#1D1D1B;stop-opacity:0.2"/>
			<stop  offset="0.6774" style="stop-color:#000000;stop-opacity:0"/>
		</linearGradient>
		<path class="st38" d="M714.9,300.4c0-6.8-5.5-12.3-12.3-12.3s-12.3,5.5-12.3,12.3c0,0.3,0,56.4,0,56.7c0,6.8,5.5,12.3,12.3,12.3
			s12.3-5.5,12.3-12.3C714.9,356.7,714.9,300.8,714.9,300.4z"/>
		<linearGradient id="SVGID_26_" gradientUnits="userSpaceOnUse" x1="762.955" y1="343.1186" x2="787.4758" y2="343.1186">
			<stop  offset="0" style="stop-color:#000000;stop-opacity:0.2"/>
			<stop  offset="0.1045" style="stop-color:#1D1D1B;stop-opacity:0.2"/>
			<stop  offset="0.6774" style="stop-color:#000000;stop-opacity:0"/>
		</linearGradient>
		<path class="st39" d="M787.5,329.2c0-6.8-5.5-12.3-12.3-12.3s-12.3,5.5-12.3,12.3c0,0.3,0,27.6,0,27.9c0,6.8,5.5,12.3,12.3,12.3
			s12.3-5.5,12.3-12.3C787.5,356.7,787.5,329.5,787.5,329.2z"/>
	</g>
	<linearGradient id="SVGID_27_" gradientUnits="userSpaceOnUse" x1="836.2807" y1="343.1186" x2="860.8015" y2="343.1186">
		<stop  offset="0" style="stop-color:#000000;stop-opacity:0.2"/>
		<stop  offset="0.1045" style="stop-color:#1D1D1B;stop-opacity:0.2"/>
		<stop  offset="0.6774" style="stop-color:#000000;stop-opacity:0"/>
	</linearGradient>
	<path class="st40" d="M860.8,329.2c0-6.8-5.5-12.3-12.3-12.3s-12.3,5.5-12.3,12.3c0,0.3,0,27.6,0,27.9c0,6.8,5.5,12.3,12.3,12.3
		s12.3-5.5,12.3-12.3C860.8,356.7,860.8,329.5,860.8,329.2z"/>
	<linearGradient id="SVGID_28_" gradientUnits="userSpaceOnUse" x1="908.8752" y1="328.7459" x2="933.3961" y2="328.7459">
		<stop  offset="0" style="stop-color:#000000;stop-opacity:0.2"/>
		<stop  offset="0.1045" style="stop-color:#1D1D1B;stop-opacity:0.2"/>
		<stop  offset="0.6774" style="stop-color:#000000;stop-opacity:0"/>
	</linearGradient>
	<path class="st41" d="M933.4,300.4c0-6.8-5.5-12.3-12.3-12.3s-12.3,5.5-12.3,12.3c0,0.3,0,56.4,0,56.7c0,6.8,5.5,12.3,12.3,12.3
		s12.3-5.5,12.3-12.3C933.4,356.7,933.4,300.8,933.4,300.4z"/>
	<linearGradient id="SVGID_29_" gradientUnits="userSpaceOnUse" x1="981.4698" y1="314.3732" x2="1005.9906" y2="314.3732">
		<stop  offset="0" style="stop-color:#000000;stop-opacity:0.2"/>
		<stop  offset="0.1045" style="stop-color:#1D1D1B;stop-opacity:0.2"/>
		<stop  offset="0.6774" style="stop-color:#000000;stop-opacity:0"/>
	</linearGradient>
	<path class="st42" d="M1006,271.7c0-6.8-5.5-12.3-12.3-12.3s-12.3,5.5-12.3,12.3c0,0.3,0,85.1,0,85.4c0,6.8,5.5,12.3,12.3,12.3
		s12.3-5.5,12.3-12.3C1006,356.7,1006,272,1006,271.7z"/>
	<linearGradient id="SVGID_30_" gradientUnits="userSpaceOnUse" x1="1054.0643" y1="328.7459" x2="1078.5852" y2="328.7459">
		<stop  offset="0" style="stop-color:#000000;stop-opacity:0.2"/>
		<stop  offset="0.1045" style="stop-color:#1D1D1B;stop-opacity:0.2"/>
		<stop  offset="0.6774" style="stop-color:#000000;stop-opacity:0"/>
	</linearGradient>
	<path class="st43" d="M1078.6,300.4c0-6.8-5.5-12.3-12.3-12.3s-12.3,5.5-12.3,12.3c0,0.3,0,56.4,0,56.7c0,6.8,5.5,12.3,12.3,12.3
		s12.3-5.5,12.3-12.3C1078.6,356.7,1078.6,300.8,1078.6,300.4z"/>
	<linearGradient id="SVGID_31_" gradientUnits="userSpaceOnUse" x1="1126.6589" y1="343.1186" x2="1151.1797" y2="343.1186">
		<stop  offset="0" style="stop-color:#000000;stop-opacity:0.2"/>
		<stop  offset="0.1045" style="stop-color:#1D1D1B;stop-opacity:0.2"/>
		<stop  offset="0.6774" style="stop-color:#000000;stop-opacity:0"/>
	</linearGradient>
	<path class="st44" d="M1151.2,329.2c0-6.8-5.5-12.3-12.3-12.3s-12.3,5.5-12.3,12.3c0,0.3,0,27.6,0,27.9c0,6.8,5.5,12.3,12.3,12.3
		s12.3-5.5,12.3-12.3C1151.2,356.7,1151.2,329.5,1151.2,329.2z"/>
	<g>
		<path class="st45" d="M128.7,355.2c-0.6,0.3-2.1,0.6-4,0.6c-6.3,0-9-4.2-9-9.1c0-6.5,4.5-9.6,9.4-9.6c1.9,0,3.3,0.4,3.9,0.7
			l-0.8,3.7c-0.7-0.3-1.6-0.6-2.8-0.6c-2.6,0-4.8,1.7-4.8,5.5c0,3.5,1.8,5.4,4.8,5.4c1,0,2.1-0.2,2.8-0.4L128.7,355.2z"/>
		<path class="st45" d="M200.8,332.2c-0.6,0.3-2.1,0.6-4,0.6c-6.3,0-9-4.2-9-9.1c0-6.5,4.5-9.6,9.4-9.6c1.9,0,3.3,0.4,3.9,0.7
			l-0.8,3.7c-0.7-0.3-1.6-0.6-2.8-0.6c-2.6,0-4.8,1.7-4.8,5.5c0,3.5,1.8,5.4,4.8,5.4c1,0,2.1-0.2,2.8-0.4L200.8,332.2z"/>
		<path class="st45" d="M265.8,284h-4.2v-4h13.1v4h-4.3v14.2h-4.7V284z"/>
		<path class="st45" d="M345.7,331.9c-1.2,0.4-3.5,0.9-5.6,0.9c-3.2,0-5.4-0.8-6.9-2.2c-1.7-1.6-2.6-4.1-2.5-6.9
			c0.1-6.4,4.5-9.5,9.9-9.5c2.2,0,3.8,0.4,4.6,0.8l-0.9,3.8c-0.9-0.4-1.9-0.7-3.6-0.7c-2.9,0-5.1,1.6-5.1,5.5c0,3.5,2,5.4,4.5,5.4
			c0.5,0,1-0.1,1.2-0.1v-3.3h-2.1v-3.7h6.5V331.9z"/>
		<path class="st45" d="M420.3,354.9c-1.2,0.4-3.5,0.9-5.6,0.9c-3.2,0-5.4-0.8-6.9-2.2c-1.7-1.6-2.6-4.1-2.5-6.9
			c0.1-6.4,4.5-9.5,9.9-9.5c2.2,0,3.8,0.4,4.6,0.8l-0.9,3.8c-0.9-0.4-1.9-0.7-3.6-0.7c-2.9,0-5.1,1.6-5.1,5.5c0,3.5,2,5.4,4.5,5.4
			c0.5,0,1-0.1,1.2-0.1v-3.3h-2.1v-3.7h6.5V354.9z"/>
		<path class="st45" d="M483,341.5h-4.2v-4h13.1v4h-4.3v14.2H483V341.5z"/>
		<path class="st45" d="M563.7,332.2c-0.6,0.3-2.1,0.6-4,0.6c-6.3,0-9-4.2-9-9.1c0-6.5,4.5-9.6,9.4-9.6c1.9,0,3.3,0.4,3.9,0.7
			l-0.8,3.7c-0.7-0.3-1.6-0.6-2.8-0.6c-2.6,0-4.8,1.7-4.8,5.5c0,3.5,1.8,5.4,4.8,5.4c1,0,2.1-0.2,2.8-0.4L563.7,332.2z"/>
		<path class="st45" d="M627.9,294.1l-0.9,4h-4.8l4.9-18.2h6.1l4.8,18.2H633l-1-4H627.9z M631.5,290.6l-0.7-3.3
			c-0.2-1-0.5-2.7-0.8-3.8h-0.1c-0.3,1.1-0.5,2.8-0.8,3.8l-0.7,3.3H631.5z"/>
		<path class="st45" d="M701.9,328.6l-0.9,4h-4.8l4.9-18.2h6.1l4.8,18.2h-4.9l-1-4H701.9z M705.5,325.1l-0.7-3.3
			c-0.2-1-0.5-2.7-0.8-3.8h-0.1c-0.3,1.1-0.5,2.8-0.8,3.8l-0.7,3.3H705.5z"/>
		<path class="st45" d="M782.9,354.9c-1.2,0.4-3.5,0.9-5.6,0.9c-3.2,0-5.4-0.8-6.9-2.2c-1.7-1.6-2.6-4.1-2.5-6.9
			c0.1-6.4,4.5-9.5,9.9-9.5c2.2,0,3.8,0.4,4.6,0.8l-0.9,3.8c-0.9-0.4-1.9-0.7-3.6-0.7c-2.9,0-5.1,1.6-5.1,5.5c0,3.5,2,5.4,4.5,5.4
			c0.5,0,1-0.1,1.2-0.1v-3.3h-2.1v-3.7h6.5V354.9z"/>
		<path class="st45" d="M845.6,341.5h-4.2v-4h13.1v4h-4.3v14.2h-4.7V341.5z"/>
		<path class="st45" d="M926.4,332.2c-0.6,0.3-2.1,0.6-4,0.6c-6.3,0-9-4.2-9-9.1c0-6.5,4.5-9.6,9.4-9.6c1.9,0,3.3,0.4,3.9,0.7
			l-0.8,3.7c-0.7-0.3-1.6-0.6-2.8-0.6c-2.6,0-4.8,1.7-4.8,5.5c0,3.5,1.8,5.4,4.8,5.4c1,0,2.1-0.2,2.8-0.4L926.4,332.2z"/>
		<path class="st45" d="M1000.5,297.4c-1.2,0.4-3.5,0.9-5.6,0.9c-3.2,0-5.4-0.8-6.9-2.2c-1.7-1.6-2.6-4.1-2.5-6.9
			c0.1-6.4,4.5-9.5,9.9-9.5c2.2,0,3.8,0.4,4.6,0.8l-0.9,3.8c-0.9-0.4-1.9-0.7-3.6-0.7c-2.9,0-5.1,1.6-5.1,5.5c0,3.5,2,5.4,4.5,5.4
			c0.5,0,1-0.1,1.2-0.1v-3.3h-2.1v-3.7h6.5V297.4z"/>
		<path class="st45" d="M1063.4,318.5h-4.2v-4h13.1v4h-4.3v14.2h-4.7V318.5z"/>
		<path class="st45" d="M1137.4,351.6l-0.9,4h-4.8l4.9-18.2h6.1l4.8,18.2h-4.9l-1-4H1137.4z M1141,348.1l-0.7-3.3
			c-0.2-1-0.5-2.7-0.8-3.8h-0.1c-0.3,1.1-0.5,2.8-0.8,3.8l-0.7,3.3H1141z"/>
	</g>
	<circle class="st7" cx="24.8" cy="619.5" r="19.6"/>
	<circle class="st7" cx="1238.7" cy="707" r="19.4"/>
	<g>
		<path class="st46" d="M256.9,702.8v0.6h-2.1C255.5,703.2,256.2,703,256.9,702.8z"/>
	</g>
	<g>
		<path class="st28" d="M296.3,467.6V467h-2.1C294.9,467.2,295.6,467.4,296.3,467.6z"/>
	</g>
	<g>
		<linearGradient id="SVGID_32_" gradientUnits="userSpaceOnUse" x1="294.2288" y1="467.3063" x2="296.3369" y2="467.3063">
			<stop  offset="0" style="stop-color:#000000;stop-opacity:0.2"/>
			<stop  offset="0.1045" style="stop-color:#1D1D1B;stop-opacity:0.2"/>
			<stop  offset="0.6774" style="stop-color:#000000;stop-opacity:0"/>
		</linearGradient>
		<path class="st47" d="M296.3,467.6V467h-2.1C294.9,467.2,295.6,467.4,296.3,467.6z"/>
	</g>
	<g>
		<path class="st45" d="M129.5,392.3c-1.2,0.4-3.5,0.9-5.6,0.9c-3.2,0-5.4-0.8-6.9-2.2c-1.7-1.6-2.6-4.1-2.5-6.9
			c0.1-6.4,4.5-9.5,9.9-9.5c2.2,0,3.8,0.4,4.6,0.8l-0.9,3.8c-0.9-0.4-1.9-0.7-3.6-0.7c-2.9,0-5.1,1.6-5.1,5.5c0,3.5,2,5.4,4.5,5.4
			c0.5,0,1-0.1,1.2-0.1V386h-2.1v-3.7h6.5V392.3z"/>
		<path class="st45" d="M203.8,403.8c-1.2,0.4-3.5,0.9-5.6,0.9c-3.2,0-5.4-0.8-6.9-2.2c-1.7-1.6-2.6-4.1-2.5-6.9
			c0.1-6.4,4.5-9.5,9.9-9.5c2.2,0,3.8,0.4,4.6,0.8l-0.9,3.8c-0.9-0.4-1.9-0.7-3.6-0.7c-2.9,0-5.1,1.6-5.1,5.5c0,3.5,2,5.4,4.5,5.4
			c0.5,0,1-0.1,1.2-0.1v-3.3h-2.1v-3.7h6.5V403.8z"/>
		<path class="st45" d="M266.1,429.2l-0.9,4h-4.8l4.9-18.2h6.1l4.8,18.2h-4.9l-1-4H266.1z M269.7,425.7l-0.7-3.3
			c-0.2-1-0.5-2.7-0.8-3.8h-0.1c-0.3,1.1-0.5,2.8-0.8,3.8l-0.7,3.3H269.7z"/>
		<path class="st45" d="M347,404.1c-0.6,0.3-2.1,0.6-4,0.6c-6.3,0-9-4.2-9-9.1c0-6.5,4.5-9.6,9.4-9.6c1.9,0,3.3,0.4,3.9,0.7
			l-0.8,3.7c-0.7-0.3-1.6-0.6-2.8-0.6c-2.6,0-4.8,1.7-4.8,5.5c0,3.5,1.8,5.4,4.8,5.4c1,0,2.1-0.2,2.8-0.4L347,404.1z"/>
		<path class="st45" d="M419.4,392.6c-0.6,0.3-2.1,0.6-4,0.6c-6.3,0-9-4.2-9-9.1c0-6.5,4.5-9.6,9.4-9.6c1.9,0,3.3,0.4,3.9,0.7
			l-0.8,3.7c-0.7-0.3-1.6-0.6-2.8-0.6c-2.6,0-4.8,1.7-4.8,5.5c0,3.5,1.8,5.4,4.8,5.4c1,0,2.1-0.2,2.8-0.4L419.4,392.6z"/>
		<path class="st45" d="M482.7,389l-0.9,4H477l4.9-18.2h6.1l4.8,18.2h-4.9l-1-4H482.7z M486.3,385.5l-0.7-3.3
			c-0.2-1-0.5-2.7-0.8-3.8h-0.1c-0.3,1.1-0.5,2.8-0.8,3.8l-0.7,3.3H486.3z"/>
		<path class="st45" d="M566.4,403.8c-1.2,0.4-3.5,0.9-5.6,0.9c-3.2,0-5.4-0.8-6.9-2.2c-1.7-1.6-2.6-4.1-2.5-6.9
			c0.1-6.4,4.5-9.5,9.9-9.5c2.2,0,3.8,0.4,4.6,0.8l-0.9,3.8c-0.9-0.4-1.9-0.7-3.6-0.7c-2.9,0-5.1,1.6-5.1,5.5c0,3.5,2,5.4,4.5,5.4
			c0.5,0,1-0.1,1.2-0.1v-3.3h-2.1v-3.7h6.5V403.8z"/>
		<path class="st45" d="M628.8,419.1h-4.2v-4h13.1v4h-4.3v14.2h-4.7V419.1z"/>
		<path class="st45" d="M702.2,390.3H698v-4h13.1v4h-4.3v14.2h-4.7V390.3z"/>
		<path class="st45" d="M782.7,392.6c-0.6,0.3-2.1,0.6-4,0.6c-6.3,0-9-4.2-9-9.1c0-6.5,4.5-9.6,9.4-9.6c1.9,0,3.3,0.4,3.9,0.7
			l-0.8,3.7c-0.7-0.3-1.6-0.6-2.8-0.6c-2.6,0-4.8,1.7-4.8,5.5c0,3.5,1.8,5.4,4.8,5.4c1,0,2.1-0.2,2.8-0.4L782.7,392.6z"/>
		<path class="st45" d="M846.6,389l-0.9,4h-4.8l4.9-18.2h6.1l4.8,18.2h-4.9l-1-4H846.6z M850.2,385.5l-0.7-3.3
			c-0.2-1-0.5-2.7-0.8-3.8h-0.1c-0.3,1.1-0.5,2.8-0.8,3.8l-0.7,3.3H850.2z"/>
		<path class="st45" d="M928.5,403.8c-1.2,0.4-3.5,0.9-5.6,0.9c-3.2,0-5.4-0.8-6.9-2.2c-1.7-1.6-2.6-4.1-2.5-6.9
			c0.1-6.4,4.5-9.5,9.9-9.5c2.2,0,3.8,0.4,4.6,0.8l-0.9,3.8c-0.9-0.4-1.9-0.7-3.6-0.7c-2.9,0-5.1,1.6-5.1,5.5c0,3.5,2,5.4,4.5,5.4
			c0.5,0,1-0.1,1.2-0.1v-3.3H922v-3.7h6.5V403.8z"/>
		<path class="st45" d="M999.7,432.8c-0.6,0.3-2.1,0.6-4,0.6c-6.3,0-9-4.2-9-9.1c0-6.5,4.5-9.6,9.4-9.6c1.9,0,3.3,0.4,3.9,0.7
			l-0.8,3.7c-0.7-0.3-1.6-0.6-2.8-0.6c-2.6,0-4.8,1.7-4.8,5.5c0,3.5,1.8,5.4,4.8,5.4c1,0,2.1-0.2,2.8-0.4L999.7,432.8z"/>
		<path class="st45" d="M1063.9,400.5l-0.9,4h-4.8l4.9-18.2h6.1l4.8,18.2h-4.9l-1-4H1063.9z M1067.5,397l-0.7-3.3
			c-0.2-1-0.5-2.7-0.8-3.8h-0.1c-0.3,1.1-0.5,2.8-0.8,3.8l-0.7,3.3H1067.5z"/>
		<path class="st45" d="M1136.8,378.8h-4.2v-4h13.1v4h-4.3V393h-4.7V378.8z"/>
	</g>
	<path class="st10" d="M206.7,580.1c0-6.8-5.5-12.3-12.3-12.3c-6.8,0-12.3,5.5-12.3,12.3c0,0.3,0,56.4,0,56.7
		c0,6.8,5.5,12.3,12.3,12.3c6.8,0,12.3-5.5,12.3-12.3C206.7,636.4,206.7,580.4,206.7,580.1z"/>
	<path class="st8" d="M351.9,574.3c0-6.8-5.5-12.3-12.3-12.3c-6.8,0-12.3,5.5-12.3,12.3c0,0.3,0,56.4,0,56.7
		c0,6.8,5.5,12.3,12.3,12.3c6.8,0,12.3-5.5,12.3-12.3C351.9,630.7,351.9,574.7,351.9,574.3z"/>
	<path class="st10" d="M569.7,620.3c0-6.8-5.5-12.3-12.3-12.3c-6.8,0-12.3,5.5-12.3,12.3c0,0.3,0,56.4,0,56.7
		c0,6.8,5.5,12.3,12.3,12.3c6.8,0,12.3-5.5,12.3-12.3C569.7,676.7,569.7,620.7,569.7,620.3z"/>
	<path class="st9" d="M714.9,675c0-6.8-5.5-12.3-12.3-12.3s-12.3,5.5-12.3,12.3c0,0.3,0,56.4,0,56.7c0,6.8,5.5,12.3,12.3,12.3
		s12.3-5.5,12.3-12.3C714.9,731.3,714.9,675.3,714.9,675z"/>
	<path class="st10" d="M933.4,732.4c0-6.8-5.5-12.3-12.3-12.3s-12.3,5.5-12.3,12.3c0,0.3,0,56.4,0,56.7c0,6.8,5.5,12.3,12.3,12.3
		s12.3-5.5,12.3-12.3C933.4,788.8,933.4,732.8,933.4,732.4z"/>
	<path class="st48" d="M1078.6,741.1c0-6.8-5.5-12.3-12.3-12.3s-12.3,5.5-12.3,12.3c0,0.3,0,56.4,0,56.7c0,6.8,5.5,12.3,12.3,12.3
		s12.3-5.5,12.3-12.3C1078.6,797.4,1078.6,741.4,1078.6,741.1z"/>
	<linearGradient id="SVGID_33_" gradientUnits="userSpaceOnUse" x1="182.1985" y1="608.4343" x2="206.7194" y2="608.4343">
		<stop  offset="0" style="stop-color:#000000;stop-opacity:0.2"/>
		<stop  offset="0.1045" style="stop-color:#1D1D1B;stop-opacity:0.2"/>
		<stop  offset="0.6774" style="stop-color:#000000;stop-opacity:0"/>
	</linearGradient>
	<path class="st49" d="M206.7,580.1c0-6.8-5.5-12.3-12.3-12.3c-6.8,0-12.3,5.5-12.3,12.3c0,0.3,0,56.4,0,56.7
		c0,6.8,5.5,12.3,12.3,12.3c6.8,0,12.3-5.5,12.3-12.3C206.7,636.4,206.7,580.4,206.7,580.1z"/>
	<linearGradient id="SVGID_34_" gradientUnits="userSpaceOnUse" x1="327.3876" y1="602.6852" x2="351.9085" y2="602.6852">
		<stop  offset="0" style="stop-color:#000000;stop-opacity:0.2"/>
		<stop  offset="0.1045" style="stop-color:#1D1D1B;stop-opacity:0.2"/>
		<stop  offset="0.6774" style="stop-color:#000000;stop-opacity:0"/>
	</linearGradient>
	<path class="st50" d="M351.9,574.3c0-6.8-5.5-12.3-12.3-12.3c-6.8,0-12.3,5.5-12.3,12.3c0,0.3,0,56.4,0,56.7
		c0,6.8,5.5,12.3,12.3,12.3c6.8,0,12.3-5.5,12.3-12.3C351.9,630.7,351.9,574.7,351.9,574.3z"/>
	<linearGradient id="SVGID_35_" gradientUnits="userSpaceOnUse" x1="545.1713" y1="648.6778" x2="569.6921" y2="648.6778">
		<stop  offset="0" style="stop-color:#000000;stop-opacity:0.2"/>
		<stop  offset="0.1045" style="stop-color:#1D1D1B;stop-opacity:0.2"/>
		<stop  offset="0.6774" style="stop-color:#000000;stop-opacity:0"/>
	</linearGradient>
	<path class="st51" d="M569.7,620.3c0-6.8-5.5-12.3-12.3-12.3c-6.8,0-12.3,5.5-12.3,12.3c0,0.3,0,56.4,0,56.7
		c0,6.8,5.5,12.3,12.3,12.3c6.8,0,12.3-5.5,12.3-12.3C569.7,676.7,569.7,620.7,569.7,620.3z"/>
	<linearGradient id="SVGID_36_" gradientUnits="userSpaceOnUse" x1="690.3604" y1="703.294" x2="714.8813" y2="703.294">
		<stop  offset="0" style="stop-color:#000000;stop-opacity:0.2"/>
		<stop  offset="0.1045" style="stop-color:#1D1D1B;stop-opacity:0.2"/>
		<stop  offset="0.6774" style="stop-color:#000000;stop-opacity:0"/>
	</linearGradient>
	<path class="st52" d="M714.9,675c0-6.8-5.5-12.3-12.3-12.3s-12.3,5.5-12.3,12.3c0,0.3,0,56.4,0,56.7c0,6.8,5.5,12.3,12.3,12.3
		s12.3-5.5,12.3-12.3C714.9,731.3,714.9,675.3,714.9,675z"/>
	<linearGradient id="SVGID_37_" gradientUnits="userSpaceOnUse" x1="908.8752" y1="760.7848" x2="933.3961" y2="760.7848">
		<stop  offset="0" style="stop-color:#000000;stop-opacity:0.2"/>
		<stop  offset="0.1045" style="stop-color:#1D1D1B;stop-opacity:0.2"/>
		<stop  offset="0.6774" style="stop-color:#000000;stop-opacity:0"/>
	</linearGradient>
	<path class="st53" d="M933.4,732.4c0-6.8-5.5-12.3-12.3-12.3s-12.3,5.5-12.3,12.3c0,0.3,0,56.4,0,56.7c0,6.8,5.5,12.3,12.3,12.3
		s12.3-5.5,12.3-12.3C933.4,788.8,933.4,732.8,933.4,732.4z"/>
	<path class="st45" d="M200.8,611.9c-0.6,0.3-2.1,0.6-4,0.6c-6.3,0-9-4.2-9-9.1c0-6.5,4.5-9.6,9.4-9.6c1.9,0,3.3,0.4,3.9,0.7
		l-0.8,3.7c-0.7-0.3-1.6-0.6-2.8-0.6c-2.6,0-4.8,1.7-4.8,5.5c0,3.5,1.8,5.4,4.8,5.4c1,0,2.1-0.2,2.8-0.4L200.8,611.9z"/>
	<path class="st45" d="M345.7,605.9c-1.2,0.4-3.5,0.9-5.6,0.9c-3.2,0-5.4-0.8-6.9-2.2c-1.7-1.6-2.6-4.1-2.5-6.9
		c0.1-6.4,4.5-9.5,9.9-9.5c2.2,0,3.8,0.4,4.6,0.8l-0.9,3.8c-0.9-0.4-1.9-0.7-3.6-0.7c-2.9,0-5.1,1.6-5.1,5.5c0,3.5,2,5.4,4.5,5.4
		c0.5,0,1-0.1,1.2-0.1v-3.3h-2.1v-3.7h6.5V605.9z"/>
	<path class="st45" d="M563.7,652.2c-0.6,0.3-2.1,0.6-4,0.6c-6.3,0-9-4.2-9-9.1c0-6.5,4.5-9.6,9.4-9.6c1.9,0,3.3,0.4,3.9,0.7
		l-0.8,3.7c-0.7-0.3-1.6-0.6-2.8-0.6c-2.6,0-4.8,1.7-4.8,5.5c0,3.5,1.8,5.4,4.8,5.4c1,0,2.1-0.2,2.8-0.4L563.7,652.2z"/>
	<path class="st45" d="M701.9,703.2l-0.9,4h-4.8l4.9-18.2h6.1l4.8,18.2h-4.9l-1-4H701.9z M705.5,699.7l-0.7-3.3
		c-0.2-1-0.5-2.7-0.8-3.8h-0.1c-0.3,1.1-0.5,2.8-0.8,3.8l-0.7,3.3H705.5z"/>
	<path class="st45" d="M926.4,764.3c-0.6,0.3-2.1,0.6-4,0.6c-6.3,0-9-4.2-9-9.1c0-6.5,4.5-9.6,9.4-9.6c1.9,0,3.3,0.4,3.9,0.7
		l-0.8,3.7c-0.7-0.3-1.6-0.6-2.8-0.6c-2.6,0-4.8,1.7-4.8,5.5c0,3.5,1.8,5.4,4.8,5.4c1,0,2.1-0.2,2.8-0.4L926.4,764.3z"/>
	<path class="st10" d="M134.9,594.5c0-6.8-5.5-12.3-12.3-12.3s-12.3,5.5-12.3,12.3c0,0.3,0,56.4,0,56.7c0,6.8,5.5,12.3,12.3,12.3
		s12.3-5.5,12.3-12.3C134.9,650.8,134.9,594.8,134.9,594.5z"/>
	<linearGradient id="SVGID_38_" gradientUnits="userSpaceOnUse" x1="110.3351" y1="622.807" x2="134.8559" y2="622.807">
		<stop  offset="0" style="stop-color:#000000;stop-opacity:0.2"/>
		<stop  offset="0.1045" style="stop-color:#1D1D1B;stop-opacity:0.2"/>
		<stop  offset="0.6774" style="stop-color:#000000;stop-opacity:0"/>
	</linearGradient>
	<path class="st54" d="M134.9,594.5c0-6.8-5.5-12.3-12.3-12.3s-12.3,5.5-12.3,12.3c0,0.3,0,56.4,0,56.7c0,6.8,5.5,12.3,12.3,12.3
		s12.3-5.5,12.3-12.3C134.9,650.8,134.9,594.8,134.9,594.5z"/>
	<path class="st45" d="M128.9,626.3c-0.6,0.3-2.1,0.6-4,0.6c-6.3,0-9-4.2-9-9.1c0-6.5,4.5-9.6,9.4-9.6c1.9,0,3.3,0.4,3.9,0.7
		l-0.8,3.7c-0.7-0.3-1.6-0.6-2.8-0.6c-2.6,0-4.8,1.7-4.8,5.5c0,3.5,1.8,5.4,4.8,5.4c1,0,2.1-0.2,2.8-0.4L128.9,626.3z"/>
	<path class="st8" d="M423.8,580.1c0-6.8-5.5-12.3-12.3-12.3c-6.8,0-12.3,5.5-12.3,12.3c0,0.3,0,56.4,0,56.7
		c0,6.8,5.5,12.3,12.3,12.3c6.8,0,12.3-5.5,12.3-12.3C423.8,636.4,423.8,580.4,423.8,580.1z"/>
	<linearGradient id="SVGID_39_" gradientUnits="userSpaceOnUse" x1="399.2511" y1="608.4343" x2="423.7719" y2="608.4343">
		<stop  offset="0" style="stop-color:#000000;stop-opacity:0.2"/>
		<stop  offset="0.1045" style="stop-color:#1D1D1B;stop-opacity:0.2"/>
		<stop  offset="0.6774" style="stop-color:#000000;stop-opacity:0"/>
	</linearGradient>
	<path class="st55" d="M423.8,580.1c0-6.8-5.5-12.3-12.3-12.3c-6.8,0-12.3,5.5-12.3,12.3c0,0.3,0,56.4,0,56.7
		c0,6.8,5.5,12.3,12.3,12.3c6.8,0,12.3-5.5,12.3-12.3C423.8,636.4,423.8,580.4,423.8,580.1z"/>
	<path class="st45" d="M417.6,611.6c-1.2,0.4-3.5,0.9-5.6,0.9c-3.2,0-5.4-0.8-6.9-2.2c-1.7-1.6-2.6-4.1-2.5-6.9
		c0.1-6.4,4.5-9.5,9.9-9.5c2.2,0,3.8,0.4,4.6,0.8l-0.9,3.8c-0.9-0.4-1.9-0.7-3.6-0.7c-2.9,0-5.1,1.6-5.1,5.5c0,3.5,2,5.4,4.5,5.4
		c0.5,0,1-0.1,1.2-0.1v-3.3H411v-3.7h6.5V611.6z"/>
	<path class="st48" d="M860.1,718.1c0-6.8-5.5-12.3-12.3-12.3s-12.3,5.5-12.3,12.3c0,0.3,0,56.4,0,56.7c0,6.8,5.5,12.3,12.3,12.3
		s12.3-5.5,12.3-12.3C860.1,774.4,860.1,718.4,860.1,718.1z"/>
	<path class="st48" d="M497.9,597.3c0-6.8-5.5-12.3-12.3-12.3c-6.8,0-12.3,5.5-12.3,12.3c0,0.3,0,56.4,0,56.7
		c0,6.8,5.5,12.3,12.3,12.3c6.8,0,12.3-5.5,12.3-12.3C497.9,653.7,497.9,597.7,497.9,597.3z"/>
	<path class="st48" d="M279.5,574.3c0-6.8-5.5-12.3-12.3-12.3s-12.3,5.5-12.3,12.3c0,0.3,0,56.4,0,56.7c0,6.8,5.5,12.3,12.3,12.3
		s12.3-5.5,12.3-12.3C279.5,630.7,279.5,574.7,279.5,574.3z"/>
	<linearGradient id="SVGID_40_" gradientUnits="userSpaceOnUse" x1="1054.0643" y1="769.4084" x2="1078.5852" y2="769.4084">
		<stop  offset="0" style="stop-color:#000000;stop-opacity:0.2"/>
		<stop  offset="0.1045" style="stop-color:#1D1D1B;stop-opacity:0.2"/>
		<stop  offset="0.6774" style="stop-color:#000000;stop-opacity:0"/>
	</linearGradient>
	<path class="st56" d="M1078.6,741.1c0-6.8-5.5-12.3-12.3-12.3s-12.3,5.5-12.3,12.3c0,0.3,0,56.4,0,56.7c0,6.8,5.5,12.3,12.3,12.3
		s12.3-5.5,12.3-12.3C1078.6,797.4,1078.6,741.4,1078.6,741.1z"/>
	<linearGradient id="SVGID_41_" gradientUnits="userSpaceOnUse" x1="835.5995" y1="746.4121" x2="860.1204" y2="746.4121">
		<stop  offset="0" style="stop-color:#000000;stop-opacity:0.2"/>
		<stop  offset="0.1045" style="stop-color:#1D1D1B;stop-opacity:0.2"/>
		<stop  offset="0.6774" style="stop-color:#000000;stop-opacity:0"/>
	</linearGradient>
	<path class="st57" d="M860.1,718.1c0-6.8-5.5-12.3-12.3-12.3s-12.3,5.5-12.3,12.3c0,0.3,0,56.4,0,56.7c0,6.8,5.5,12.3,12.3,12.3
		s12.3-5.5,12.3-12.3C860.1,774.4,860.1,718.4,860.1,718.1z"/>
	<linearGradient id="SVGID_42_" gradientUnits="userSpaceOnUse" x1="473.4078" y1="625.6815" x2="497.9286" y2="625.6815">
		<stop  offset="0" style="stop-color:#000000;stop-opacity:0.2"/>
		<stop  offset="0.1045" style="stop-color:#1D1D1B;stop-opacity:0.2"/>
		<stop  offset="0.6774" style="stop-color:#000000;stop-opacity:0"/>
	</linearGradient>
	<path class="st58" d="M497.9,597.3c0-6.8-5.5-12.3-12.3-12.3c-6.8,0-12.3,5.5-12.3,12.3c0,0.3,0,56.4,0,56.7
		c0,6.8,5.5,12.3,12.3,12.3c6.8,0,12.3-5.5,12.3-12.3C497.9,653.7,497.9,597.7,497.9,597.3z"/>
	<linearGradient id="SVGID_43_" gradientUnits="userSpaceOnUse" x1="254.943" y1="602.6852" x2="279.4638" y2="602.6852">
		<stop  offset="0" style="stop-color:#000000;stop-opacity:0.2"/>
		<stop  offset="0.1045" style="stop-color:#1D1D1B;stop-opacity:0.2"/>
		<stop  offset="0.6774" style="stop-color:#000000;stop-opacity:0"/>
	</linearGradient>
	<path class="st59" d="M279.5,574.3c0-6.8-5.5-12.3-12.3-12.3s-12.3,5.5-12.3,12.3c0,0.3,0,56.4,0,56.7c0,6.8,5.5,12.3,12.3,12.3
		s12.3-5.5,12.3-12.3C279.5,630.7,279.5,574.7,279.5,574.3z"/>
	<path class="st9" d="M643,646.2c0-6.8-5.5-12.3-12.3-12.3c-6.8,0-12.3,5.5-12.3,12.3c0,0.3,0,56.4,0,56.7c0,6.8,5.5,12.3,12.3,12.3
		c6.8,0,12.3-5.5,12.3-12.3C643,702.5,643,646.6,643,646.2z"/>
	<linearGradient id="SVGID_44_" gradientUnits="userSpaceOnUse" x1="618.497" y1="674.5486" x2="643.0178" y2="674.5486">
		<stop  offset="0" style="stop-color:#000000;stop-opacity:0.2"/>
		<stop  offset="0.1045" style="stop-color:#1D1D1B;stop-opacity:0.2"/>
		<stop  offset="0.6774" style="stop-color:#000000;stop-opacity:0"/>
	</linearGradient>
	<path class="st60" d="M643,646.2c0-6.8-5.5-12.3-12.3-12.3c-6.8,0-12.3,5.5-12.3,12.3c0,0.3,0,56.4,0,56.7
		c0,6.8,5.5,12.3,12.3,12.3c6.8,0,12.3-5.5,12.3-12.3C643,702.5,643,646.6,643,646.2z"/>
	<path class="st45" d="M630,674.4l-0.9,4h-4.8l4.9-18.2h6.1l4.8,18.2h-4.9l-1-4H630z M633.6,670.9l-0.7-3.3c-0.2-1-0.5-2.7-0.8-3.8
		h-0.1c-0.3,1.1-0.5,2.8-0.8,3.8l-0.7,3.3H633.6z"/>
	<path class="st9" d="M1148.9,732.4c0-6.8-5.5-12.3-12.3-12.3s-12.3,5.5-12.3,12.3c0,0.3,0,56.4,0,56.7c0,6.8,5.5,12.3,12.3,12.3
		s12.3-5.5,12.3-12.3C1148.9,788.8,1148.9,732.8,1148.9,732.4z"/>
	<linearGradient id="SVGID_45_" gradientUnits="userSpaceOnUse" x1="1124.4155" y1="760.7848" x2="1148.9364" y2="760.7848">
		<stop  offset="0" style="stop-color:#000000;stop-opacity:0.2"/>
		<stop  offset="0.1045" style="stop-color:#1D1D1B;stop-opacity:0.2"/>
		<stop  offset="0.6774" style="stop-color:#000000;stop-opacity:0"/>
	</linearGradient>
	<path class="st61" d="M1148.9,732.4c0-6.8-5.5-12.3-12.3-12.3s-12.3,5.5-12.3,12.3c0,0.3,0,56.4,0,56.7c0,6.8,5.5,12.3,12.3,12.3
		s12.3-5.5,12.3-12.3C1148.9,788.8,1148.9,732.8,1148.9,732.4z"/>
	<path class="st45" d="M1135.9,760.7l-0.9,4h-4.8l4.9-18.2h6.1l4.8,18.2h-4.9l-1-4H1135.9z M1139.5,757.2l-0.7-3.3
		c-0.2-1-0.5-2.7-0.8-3.8h-0.1c-0.3,1.1-0.5,2.8-0.8,3.8l-0.7,3.3H1139.5z"/>
	<path class="st8" d="M788.8,698c0-6.8-5.5-12.3-12.3-12.3c-6.8,0-12.3,5.5-12.3,12.3c0,0.3,0,56.4,0,56.7c0,6.8,5.5,12.3,12.3,12.3
		c6.8,0,12.3-5.5,12.3-12.3C788.8,754.3,788.8,698.3,788.8,698z"/>
	<linearGradient id="SVGID_46_" gradientUnits="userSpaceOnUse" x1="764.3173" y1="726.2903" x2="788.8381" y2="726.2903">
		<stop  offset="0" style="stop-color:#000000;stop-opacity:0.2"/>
		<stop  offset="0.1045" style="stop-color:#1D1D1B;stop-opacity:0.2"/>
		<stop  offset="0.6774" style="stop-color:#000000;stop-opacity:0"/>
	</linearGradient>
	<path class="st62" d="M788.8,698c0-6.8-5.5-12.3-12.3-12.3c-6.8,0-12.3,5.5-12.3,12.3c0,0.3,0,56.4,0,56.7
		c0,6.8,5.5,12.3,12.3,12.3c6.8,0,12.3-5.5,12.3-12.3C788.8,754.3,788.8,698.3,788.8,698z"/>
	<path class="st45" d="M782.6,729.5c-1.2,0.4-3.5,0.9-5.6,0.9c-3.2,0-5.4-0.8-6.9-2.2c-1.7-1.6-2.6-4.1-2.5-6.9
		c0.1-6.4,4.5-9.5,9.9-9.5c2.2,0,3.8,0.4,4.6,0.8l-0.9,3.8c-0.9-0.4-1.9-0.7-3.6-0.7c-2.9,0-5.1,1.6-5.1,5.5c0,3.5,2,5.4,4.5,5.4
		c0.5,0,1-0.1,1.2-0.1v-3.3h-2.1v-3.7h6.5V729.5z"/>
	<path class="st8" d="M1006.2,741.1c0-6.8-5.5-12.3-12.3-12.3s-12.3,5.5-12.3,12.3c0,0.3,0,56.4,0,56.7c0,6.8,5.5,12.3,12.3,12.3
		s12.3-5.5,12.3-12.3C1006.2,797.4,1006.2,741.4,1006.2,741.1z"/>
	<linearGradient id="SVGID_47_" gradientUnits="userSpaceOnUse" x1="981.6323" y1="769.4084" x2="1006.1531" y2="769.4084">
		<stop  offset="0" style="stop-color:#000000;stop-opacity:0.2"/>
		<stop  offset="0.1045" style="stop-color:#1D1D1B;stop-opacity:0.2"/>
		<stop  offset="0.6774" style="stop-color:#000000;stop-opacity:0"/>
	</linearGradient>
	<path class="st63" d="M1006.2,741.1c0-6.8-5.5-12.3-12.3-12.3s-12.3,5.5-12.3,12.3c0,0.3,0,56.4,0,56.7c0,6.8,5.5,12.3,12.3,12.3
		s12.3-5.5,12.3-12.3C1006.2,797.4,1006.2,741.4,1006.2,741.1z"/>
	<path class="st45" d="M999.9,772.6c-1.2,0.4-3.5,0.9-5.6,0.9c-3.2,0-5.4-0.8-6.9-2.2c-1.7-1.6-2.6-4.1-2.5-6.9
		c0.1-6.4,4.5-9.5,9.9-9.5c2.2,0,3.8,0.4,4.6,0.8l-0.9,3.8c-0.9-0.4-1.9-0.7-3.6-0.7c-2.9,0-5.1,1.6-5.1,5.5c0,3.5,2,5.4,4.5,5.4
		c0.5,0,1-0.1,1.2-0.1v-3.3h-2.1v-3.7h6.5V772.6z"/>
	<g>
		<path class="st45" d="M264.8,588.5v10.7c0,2.6,0.9,3.9,2.5,3.9c1.6,0,2.4-1.1,2.4-3.9v-10.7h4.7v10.3c0,5.3-2.5,8.2-7.2,8.2
			c-4.8,0-7-2.8-7-8.3v-10.2H264.8z"/>
	</g>
	<g>
		<path class="st45" d="M483.3,611.5v10.7c0,2.6,0.9,3.9,2.5,3.9s2.4-1.1,2.4-3.9v-10.7h4.7v10.3c0,5.3-2.5,8.2-7.2,8.2
			c-4.8,0-7-2.8-7-8.3v-10.2H483.3z"/>
	</g>
	<g>
		<path class="st45" d="M1063.6,755v10.7c0,2.6,0.9,3.9,2.5,3.9c1.6,0,2.4-1.1,2.4-3.9V755h4.7v10.3c0,5.3-2.5,8.2-7.2,8.2
			c-4.8,0-7-2.8-7-8.3V755H1063.6z"/>
	</g>
	<g>
		<path class="st45" d="M845.1,732v10.7c0,2.6,0.9,3.9,2.5,3.9s2.4-1.1,2.4-3.9V732h4.7v10.3c0,5.3-2.5,8.2-7.2,8.2
			c-4.8,0-7-2.8-7-8.3V732H845.1z"/>
	</g>
</g>
</svg>
