<?xml version="1.0" encoding="utf-8"?>
<!-- Generator: Adobe Illustrator 24.1.0, SVG Export Plug-In . SVG Version: 6.00 Build 0)  -->
<svg version="1.1" id="Capa_1" xmlns="http://www.w3.org/2000/svg" xmlns:xlink="http://www.w3.org/1999/xlink" x="0px" y="0px"
	 viewBox="0 0 1078.9 650" style="enable-background:new 0 0 1078.9 650;" xml:space="preserve">
<style type="text/css">
	.st0{fill:#E0EADF;}
	.st1{fill:#679091;}
	.st2{fill:#83B1B5;}
	.st3{fill:#C0D9DF;}
	.st4{fill:#FFFFFF;}
	.st5{fill:#CC9933;}
	.st6{fill:#FA7F43;}
	.st7{fill:#005372;}
	.st8{fill:none;stroke:#005372;stroke-miterlimit:10;}
	.st9{fill:none;stroke:#FA7F43;stroke-miterlimit:10;}
	.st10{fill:none;stroke:#CC9933;stroke-miterlimit:10;}
	.st11{fill:#DCDEE0;}
	.st12{fill:#ABAFB2;}
	.st13{fill:#136F8C;}
	.st14{fill:#4D4D4D;}
	.st15{fill:#939393;}
	.st16{fill:#333333;}
	.st17{opacity:0.4;}
	.st18{fill:#CCCC66;}
	.st19{fill:#B2AF34;}
	.st20{fill:#E55D28;}
</style>
<g>
	<path class="st0" d="M439.2,309.1c-2.7-5.2-5.6-10.7-6.1-16.2c-2.2-22.1,4.7-44-1.1-67.1c-3.2-12.8,2.9-52.2,1.8-78.7
		c-0.7-17.3-7.4-32.3-27.4-35.7c-10.1-1.8-17.5-4.4-25.7-10.9c-6.1-4.8-8.1-17.6-4.9-24.8c4.3-9.7,12.2-18,11-29.8
		c-0.3-2.5,1-5.4-2.6-6.9c-0.8-0.3-0.5-3.3-0.5-5c0.4-24-19.8-37.3-41.7-27.6c-9.7,4.3-13.7,12.2-14.7,22.4c-0.4,4,2,8.4-2.6,12.2
		c-2.9,2.3,1.4,20,4.5,23.2c5.8,5.7,9.6,23.2,6.2,30.5c-1,2.1-3,4.2-4.9,5.7c-8.4,6.9-15,10.4-25.6,11.8
		c-17.9,2.3-28.6,16.5-28.5,34.6c0,1.6,0,3.2,0,4.8c1.9,2.8,5.1,53.1,2.2,74.4c-3,21.8,2.4,54.3-0.9,68.2c-1.3,5.7-2.8,5-6.3,10.3
		c-4.4,6.7-5.5,12.5-6.2,17.5c-1.1,8.3-0.2,13.5,1.4,12.6c1.8-0.9,2.7-10.7,4.3-11.9c0.6,2.1-0.4,0-0.5,2.1
		c-0.4,6.9-1.3,13.8-1.9,20.6c-0.3,2.4-0.2,4.9,0.4,7.5c6.3-6.1,3.9-15,7-22.1c0.5,0,1,0,1.6,0.1c-0.1,9-0.3,18-0.3,27
		c0.8,0,1.7,0.1,2.5,0.2c3.5-8.3,0.6-17.7,4.5-26.1c0.4,7.3,0.8,14.7,1.1,22c0.7,0.1,1.4,0,2.1,0.1c4.8-7.4-0.5-16.4,3.4-24.3
		c1.1,5.9,2.1,11.6,3.1,17.4c0.6,0,1.4,0,2.1,0c0.2-2.5,0.7-5,0.7-7.5c0.2-6.9,0.3-13.8,0.2-20.7c0-3.9,0.2-8.1-0.9-11.9
		c-2.8-10.9,0.7-21.3,1.6-31.9c0.8-7.4,2-14.8,3.3-22.2c1.9-10.4,1.6-20.8,0.6-31.4c-0.9-9,1.2-31,1.7-30.9
		c0.4,8.3,0.8,16.5,1.3,24.8c1.8,25.1-1.8,49.7-4.2,74.5c-1.9,20.2-0.4,40.7,0.1,61.1c0.5,18.8,2.4,37.3,6.9,55.7
		c1,3.9,0.4,8.3,0.4,12.5c0,17.5,0.3,35,0,52.4c-0.1,11.6-1.1,23.3-1.4,34.9c-0.6,21.6,2.6,42.9,7.3,63.8c2.3,10.3,1.6,20-3.5,29.6
		c-3.7,6.7-6.2,13.9-9.2,20.9c-4.7,11.2,4.2,17,13.4,17.8c0.8,0.1,1.4-0.4,2.1-0.3c3,0.1,7.4,1.8,9,0.4c3.3-3.3,6.3-7.8,7.3-12.2
		c1.6-7.4,1.9-15.1,6.3-21.8c1-1.6,0.9-4.3,0.6-6.4c-3.4-22.7-2-44.9,4.4-66.9c4.2-14.6,2.4-29.8,1-44.5c-1.4-15-0.8-29.6,2-44.5
		c2.6-14.2,2.6-29,3.5-43.5c1.3-18.9,2.3-37.8,3.4-56.7c0-1,0.6-1.9,2-3c0.4,1.8,1,3.5,1.1,5.3c1.5,24.2,2.6,48.4,4.4,72.5
		c0.9,11.6,3.2,23.1,4,34.5c0.8,10.5,0.8,21.1,0.6,31.5c0,14-1,28-0.3,42c0.5,8.6,3.7,17,5.4,25.6c3,15,1.9,30,0.4,45.1
		c-0.4,4,1.1,8.3,2.1,12.5c1.1,5,2.4,10.2,3.9,15.1c1.1,3.9,2.3,8.1,4.2,11.6c2.4,4.4,5.7,6.2,11.3,4.2c4.5-1.6,9.6-0.9,13.9-4.4
		c3.3-2.6,5-5.4,3.9-9.2c-2-6.4-3.7-13.1-7.1-18.8c-9.1-14.9-8.8-30.1-4.9-46.3c6.6-26.5,6.4-53.3,4.5-80.4
		c-0.6-9.5-0.4-18.9-0.5-28.4c-0.1-10.3-0.5-20.8,0.1-31.1c0.8-10.6,2.8-21.2,3.9-31.8c1.4-12.5,2.9-25,3.3-37.6
		c0.6-21.8,0.8-43.7,0.1-65.6c-0.4-11.7-3.9-23.4-4.2-35.2c-0.4-18.5,0.5-37,1.1-55.5c-0.3-0.6-0.3-1.3,0.1-1.9
		c0-0.2,1.1,26.1,0.7,40.2c-0.2,7.6,0.8,15.2,1.7,22.7c1.6,13.7,3.5,27.5,5.2,41.1c0.2,1.6,0.3,3.2,0.1,4.9
		c-0.8,13.4-1.5,26.7-2.2,40.1c-0.1,2.2,0.3,4.4,0.5,6.7c0.8,0.1,1.4,0.1,2.2,0.2c1.1-5.8,2.4-11.8,3.5-17.6
		c3.4,8-1.2,16.7,2.7,24.5c0.8,0.1,1.6,0,2.3,0.1c0.5-7.4,1.1-14.7,1.7-22.2c0.5,0,0.9,0,1.4,0c0.6,8.6,1.2,17.2,1.8,25.8
		c1.3,0.2,1,0.2,2.3,0.3c3.5-8.8-0.6-18.3,2.7-27.5c1.5,7.6,3.2,15.3,4.7,22.8c0.8-0.2,1.7-0.2,2.6-0.3c0.1-2.1,0.4-4.3,0.2-6.4
		c-0.6-7.6-1.5-15.2-1.9-22.8c0,0,0,0,0-0.1c0-1.8,2,13.4,2.4,13.8C444.3,339.2,447.2,324.2,439.2,309.1z"/>
	<path class="st0" d="M18,315.4c9.8-5,11.6-13.2,12.9-22.6c2.3-17,4.7-34.2,7.7-51.1c5.9-33,13.2-65.9,18.2-99.1
		c2.6-17.3,15.1-29,30.5-32c5.5-1.1,11.3-3.2,16.3-6.1c6.6-3.9,11.7-9.2,12.4-18c0.8-9.6-5.4-15.3-10.5-21.2
		c-6.3-7.3-6.9-15.9-5.2-23.6c1-4.4,2-8.8,2.3-13.4c0.9-14,10.7-23.7,25.1-24.7c16.4-1.1,27.9,6.6,30.5,20.8
		c0.8,4.5-1.1,10.5,1.1,13.7c4.7,6.7,3,13.4,0.9,19.2c-2.4,6.6-7.3,12.1-11.3,17.9c-4.5,6.6-4.4,15.1,0.5,21.6
		c6.4,8.6,15.5,12.2,25.6,14c15.3,2.6,29,14.5,29.5,30.4c0.1,4,0.8,8.2,1.5,12.2c5.2,27.2,10.7,54.3,15.6,81.7
		c3.9,21.7,7.2,43.6,10.6,65.4c0.9,5.7,3.7,9.3,8.4,12.6c6.9,4.8,13.1,10.7,20.2,16.6c-5.4,2.5-9,0-12.5-2.8c-1-0.8-2.8-0.6-4.2-1
		c-0.4,1.4-1.1,2.9-0.8,4.2c1.8,6.2,3.9,12.2,5.9,18.4c0.9,2.6,1.6,5.3,2.4,7.9c-0.5,0.1-1.1,0.4-1.6,0.6c-5.9-4.7-5.5-13-11.2-18.2
		c1.9,7.8,3.7,15.6,5.5,23.4c-1,0.3-2,0.6-3,0.9c-2.4-7.3-4.7-14.7-7.1-22.2c-0.4,0.1-0.9,0.3-1.3,0.4c1,6.6,1.9,13.2,2.9,19.8
		c-1,0.1-1.9,0.4-2.8,0.5c-1.9-7.2-3.8-14.2-5.7-21.3c-0.4,0-0.8,0.1-1.1,0.3c0,5.3,0,10.6,0,16.5c-1.3-0.8-1.8-1-1.9-1.3
		c-0.4-0.8-0.9-1.4-0.9-2.1c-1.1-13.4-8.7-25.7-6.3-39.7c0.4-1.8-0.6-3.8-1.3-5.7c-2.6-7.7-5.7-15.4-8.2-23.2
		c-4.3-13.1-10.2-26.2-12-39.7c-2.4-18.7-7.3-36.3-14.4-53.6c-0.9-2-2-4.2-3-6.2c-0.6,0.1-1.1,0.3-1.8,0.4
		c-1.1,13.2-2.1,26.5-3.4,39.7c-1.4,15,0.8,29.4,7.1,43.4c7.2,15.8,10.2,32.8,9.1,49.9c-1.5,22.3-4.4,44.5-7.3,66.6
		c-2,14.9-5.3,29.6-3.2,44.9c0.8,6.2-0.3,12.5-0.4,18.8c-0.1,8.8-0.8,17.8,0,26.5c2.6,28.9,1.8,57.6-5,85.9
		c-4.3,17.8-3.8,34.3,6.6,50c2.8,4.2,4.2,9.3,5.7,14.1c1.4,4.4,1.1,8.8-4,10.7c-4.4,1.5-9.2,2-13.2,4c-5.2,2.6-8.6,0.6-10.8-3.3
		c-2.1-3.8-3.4-8.1-4.7-12.4c-1.5-4.8-2.6-9.7-3.8-14.6c-0.9-4-2.9-8.4-2.1-12.2c3.3-17.6,3.4-35,0-52.6
		c-4.2-21.4-4.3-43.1-2.6-64.9c0.5-6.8,0.8-13.7,0-20.5c-1.8-16.5-4.4-32.9-6.2-49.4c-2.1-20.4-3.7-41-5.5-61.4
		c-0.3-3.2-0.9-6.2-1.4-9.3c-0.5,0-1,0.1-1.5,0.1c-0.4,1.6-1,3.4-1.1,5c-1.3,15.4-2.4,30.9-3.7,46.3c-1.4,16.5-2.1,33.3-4.8,49.7
		c-2.5,15.1-4.4,30.1-3,45.5c1.8,18.7,1,37.2-2.4,55.6c-3.3,18-4.5,36.1-0.6,54.2c0.8,3.5,0.4,7.4-0.4,11
		c-1.4,6.4-3.2,12.9-5.4,18.9c-1.9,5-4.3,10.2-7.7,14.1c-1.3,1.5-6.2-0.1-9.5-0.3c-0.8,0-1.5,0.6-2.3,0.5
		c-8.8-1.3-17.8-6.4-12.6-17.3c3.7-7.7,6.8-15.8,10.7-23.4c3.9-7.9,4.5-16.1,2.8-24.6c-6.6-31.6-10.3-63.3-7.7-95.7
		c1.4-17.1,0.1-34.4,0.3-51.7c0.1-5.4,1.1-11,0.5-16.4c-2.9-24.2-5.7-48.5-9.3-72.7c-3.7-24.6-2-48.7,8.1-71.4
		c6.2-13.7,7.3-27.5,6.4-41.9c-0.3-5-0.6-10.2-1.1-15.3c-0.9-8.1-1.9-16.1-2.8-24.2c-2.1,1.3-3,2.5-3.5,3.9
		c-7.1,17.8-12.9,35.7-15.1,55.1c-1.5,13.5-7.7,26.6-12,39.7c-3.3,10.1-7.8,19.8-10.1,30c-2.8,12.2-3.7,25-5.5,37.4
		c-0.3,1.8-1.4,3.4-2.1,5c-0.5-0.1-1.1-0.4-1.6-0.5c0.4-5.3,0.6-10.6,0.9-15.9c-0.4,0-0.9-0.1-1.4-0.1c-1.8,7.1-3.7,14.2-5.4,21.3
		c-0.9-0.1-1.9-0.4-2.8-0.5c1-6.7,1.9-13.2,2.9-19.9c-0.4,0-0.9-0.1-1.3-0.1c-2.4,7.3-4.8,14.7-7.2,22.2c-1-0.3-1.9-0.6-2.9-0.9
		c1.9-7.9,3.7-15.8,5.5-23.7c-6.2,4.8-4.8,14.1-12.5,17.9c0-2.4,0.8-4.4,1.4-6.6c2.1-6.6,4.4-13,6.3-19.5c0.4-1.5-0.3-3.2-0.5-4.8
		c-1.5,0.5-3.3,0.6-4.5,1.5c-3.4,2.4-6.7,4.8-11.9,2.6C6.8,325.1,11.6,319,18,315.4z"/>
	<path class="st0" d="M467.3,315.4c9.8-5,11.6-13.2,12.9-22.6c2.3-17,4.7-34.2,7.7-51.1c5.9-33,13.2-65.9,18.2-99.1
		c2.6-17.3,15.1-29,30.5-32c5.5-1.1,11.3-3.2,16.3-6.1c6.6-3.9,11.7-9.2,12.4-18c0.8-9.6-5.4-15.3-10.5-21.2
		c-6.3-7.3-6.9-15.9-5.2-23.6c1-4.4,2-8.8,2.3-13.4c0.9-14,10.7-23.7,25.1-24.7c16.4-1.1,27.9,6.6,30.5,20.8
		c0.8,4.5-1.1,10.5,1.1,13.7c4.7,6.7,3,13.4,0.9,19.2C607,64.1,602,69.6,598,75.4c-4.5,6.6-4.4,15.1,0.5,21.6
		c6.4,8.6,15.5,12.2,25.6,14c15.3,2.6,29,14.5,29.5,30.4c0.1,4,0.8,8.2,1.5,12.2c5.2,27.2,10.7,54.3,15.6,81.7
		c3.9,21.7,7.2,43.6,10.6,65.4c0.9,5.7,3.7,9.3,8.4,12.6c6.9,4.8,13.1,10.7,20.2,16.6c-5.4,2.5-9,0-12.5-2.8c-1-0.8-2.8-0.6-4.2-1
		c-0.4,1.4-1.1,2.9-0.8,4.2c1.8,6.2,3.9,12.2,5.9,18.4c0.9,2.6,1.6,5.3,2.4,7.9c-0.5,0.1-1.1,0.4-1.6,0.6c-5.9-4.7-5.5-13-11.2-18.2
		c1.9,7.8,3.7,15.6,5.5,23.4c-1,0.3-2,0.6-3,0.9c-2.4-7.3-4.7-14.7-7.1-22.2c-0.4,0.1-0.9,0.3-1.3,0.4c1,6.6,1.9,13.2,2.9,19.8
		c-1,0.1-1.9,0.4-2.8,0.5c-1.9-7.2-3.8-14.2-5.7-21.3c-0.4,0-0.8,0.1-1.1,0.3c0,5.3,0,10.6,0,16.5c-1.3-0.8-1.8-1-1.9-1.3
		c-0.4-0.8-0.9-1.4-0.9-2.1c-1.1-13.4-8.7-25.7-6.3-39.7c0.4-1.8-0.6-3.8-1.3-5.7c-2.6-7.7-5.7-15.4-8.2-23.2
		c-4.3-13.1-10.2-26.2-12-39.7c-2.4-18.7-7.3-36.3-14.4-53.6c-0.9-2-2-4.2-3-6.2c-0.6,0.1-1.1,0.3-1.8,0.4
		c-1.1,13.2-2.1,26.5-3.4,39.7c-1.4,15,0.8,29.4,7.1,43.4c7.2,15.8,10.2,32.8,9.1,49.9c-1.5,22.3-4.4,44.5-7.3,66.6
		c-2,14.9-5.3,29.6-3.2,44.9c0.8,6.2-0.3,12.5-0.4,18.8c-0.1,8.8-0.8,17.8,0,26.5c2.6,28.9,1.8,57.6-5,85.9
		c-4.3,17.8-3.8,34.3,6.6,50c2.8,4.2,4.2,9.3,5.7,14.1c1.4,4.4,1.1,8.8-4,10.7c-4.4,1.5-9.2,2-13.2,4c-5.2,2.6-8.6,0.6-10.8-3.3
		c-2.1-3.8-3.4-8.1-4.7-12.4c-1.5-4.8-2.6-9.7-3.8-14.6c-0.9-4-2.9-8.4-2.1-12.2c3.3-17.6,3.4-35,0-52.6
		c-4.2-21.4-4.3-43.1-2.6-64.9c0.5-6.8,0.8-13.7,0-20.5c-1.8-16.5-4.4-32.9-6.2-49.4c-2.1-20.4-3.7-41-5.5-61.4
		c-0.3-3.2-0.9-6.2-1.4-9.3c-0.5,0-1,0.1-1.5,0.1c-0.4,1.6-1,3.4-1.1,5c-1.3,15.4-2.4,30.9-3.7,46.3c-1.4,16.5-2.1,33.3-4.8,49.7
		c-2.5,15.1-4.4,30.1-3,45.5c1.8,18.7,1,37.2-2.4,55.6c-3.3,18-4.5,36.1-0.6,54.2c0.8,3.5,0.4,7.4-0.4,11
		c-1.4,6.4-3.2,12.9-5.4,18.9c-1.9,5-4.3,10.2-7.7,14.1c-1.3,1.5-6.2-0.1-9.5-0.3c-0.8,0-1.5,0.6-2.3,0.5
		c-8.8-1.3-17.8-6.4-12.6-17.3c3.7-7.7,6.8-15.8,10.7-23.4c3.9-7.9,4.5-16.1,2.8-24.6c-6.6-31.6-10.3-63.3-7.7-95.7
		c1.4-17.1,0.1-34.4,0.3-51.7c0.1-5.4,1.1-11,0.5-16.4c-2.9-24.2-5.7-48.5-9.3-72.7c-3.7-24.6-2-48.7,8.1-71.4
		c6.2-13.7,7.3-27.5,6.4-41.9c-0.3-5-0.6-10.2-1.1-15.3c-0.9-8.1-1.9-16.1-2.8-24.2c-2.1,1.3-3,2.5-3.5,3.9
		c-7.1,17.8-12.9,35.7-15.1,55.1c-1.5,13.5-7.7,26.6-12,39.7c-3.3,10.1-7.8,19.8-10.1,30c-2.8,12.2-3.7,25-5.5,37.4
		c-0.3,1.8-1.4,3.4-2.1,5c-0.5-0.1-1.1-0.4-1.6-0.5c0.4-5.3,0.6-10.6,0.9-15.9c-0.4,0-0.9-0.1-1.4-0.1c-1.8,7.1-3.7,14.2-5.4,21.3
		c-0.9-0.1-1.9-0.4-2.8-0.5c1-6.7,1.9-13.2,2.9-19.9c-0.4,0-0.9-0.1-1.3-0.1c-2.4,7.3-4.8,14.7-7.2,22.2c-1-0.3-1.9-0.6-2.9-0.9
		c1.9-7.9,3.7-15.8,5.5-23.7c-6.2,4.8-4.8,14.1-12.5,17.9c0-2.4,0.8-4.4,1.4-6.6c2.1-6.6,4.4-13,6.3-19.5c0.4-1.5-0.3-3.2-0.5-4.8
		c-1.5,0.5-3.3,0.6-4.5,1.5c-3.4,2.4-6.7,4.8-11.9,2.6C456.1,325.1,460.8,319,467.3,315.4z"/>
	<g>
		<path id="path882_9_" class="st1" d="M126.4,130.1c-0.6-3.2-2.1-6.9-3.8-9.7c-1.7-2.9-3.7-5.3-5.6-6.4c-2.1-1.1-4.3-1-7.5,0.9
			c-3.2,2-7.5,5.6-11,10.4c-3.6,4.7-6.5,10.3-8.1,14c-1.7,3.7-2,5.3-2.1,6.5s0,2-0.9,6.2c-0.9,4.3-2.6,11.8-3.6,16.9
			c-1,5.3-1.2,8-1.2,9.7s0.3,2.4,1.7,3.1c1.5,0.7,4.1,1.6,7.2,1.2c3.1-0.3,6.4-1.8,9.6-3.1c3.2-1.2,6.5-2.1,9.1-2.8
			c2.6-0.6,4.3-1,6.5-3.2c2.2-2.2,4.8-6.6,6.5-12.7c1.7-6,2.6-14,3.1-19.4C126.9,136.4,127,133.4,126.4,130.1L126.4,130.1z"/>
		<path id="path882-7_9_" class="st2" d="M126.4,130.1c-0.6-3.2-2.1-6.9-3.8-9.7c-1.7-2.9-3.7-5.3-5.6-6.4c-2.1-1.1-4.3-1-7.5,0.9
			c-3.2,2-7.5,5.6-11,10.4c-3.6,4.7-6.5,10.3-8.1,14c-1.7,3.7-2,5.3-2.1,6.5s0,2,2.2,7.6c2.1,5.6,6.4,15.9,10.2,20.6
			c3.7,4.7,7.1,3.7,9.4,3.1c2.4-0.6,4.3-1,6.5-3.2c2.2-2.2,4.8-6.6,6.5-12.7s2.6-14,3.1-19.4C126.8,136.3,127,133.4,126.4,130.1
			L126.4,130.1z"/>
		<path id="path882-7-9_9_" class="st3" d="M126.4,130.1c-0.6-3.2-2.1-6.9-3.8-9.7c-1.7-2.9-3.7-5.3-5.6-6.4c-2.1-1.1-4.3-1-7.5,0.9
			c-3.2,2-7.5,5.6-10.3,9.2c-2.9,3.4-4.5,6.5-5.8,8.7c-1.2,2.2-2,3.8-2.7,6.4c-0.7,2.6-1.5,5.9,4.1,10.2c5.6,4.1,17.4,8.8,23.7,7.5
			c6.4-1.6,7.2-9.3,7.7-14.8C126.9,136.4,127,133.4,126.4,130.1z"/>
		<path id="path882-8_9_" class="st2" d="M135.1,130.1c0.6-3.2,2.1-6.9,3.8-9.7c1.7-2.9,3.7-5.3,5.6-6.4c2.1-1.1,4.3-1,7.5,0.9
			c3.2,2,7.5,5.6,11,10.4c3.6,4.8,6.5,10.3,8.1,14c1.7,3.7,2,5.3,2.1,6.5c0.1,1.2,0,2,0.9,6.2c0.9,4.3,2.6,11.8,3.6,16.9
			c1,5.3,1.2,8,1.2,9.7s-0.3,2.4-1.7,3.1c-1.5,0.7-4.1,1.6-7.2,1.2c-3.1-0.3-6.4-1.8-9.6-3.1c-3.2-1.2-6.5-2.1-9.1-2.8
			c-2.6-0.6-4.3-1-6.5-3.2c-2.2-2.2-4.8-6.6-6.5-12.7c-1.7-6-2.6-14-3.1-19.4C134.6,136.4,134.5,133.4,135.1,130.1L135.1,130.1z"/>
		<path id="path882-7-5_9_" class="st3" d="M135.1,130.1c0.6-3.2,2.1-6.9,3.8-9.7c1.7-2.9,3.7-5.3,5.6-6.4c2.1-1.1,4.3-1,7.5,0.9
			c3.2,2,7.5,5.6,11,10.4c3.6,4.8,6.5,10.3,8,13.6s1.7,4.3,2.1,7.1c0.4,2.8,1.1,7.7-1.2,15.8c-2.4,8.1-8.1,19.2-11.2,17.7
			c-3.1-1.5-3.8-15.6-6.5-21.5c-2.8-5.9-7.7-3.7-10.8-3.8c-2.9,0-4.1-2.4-5.3-5.3c-1.1-2.8-2.2-6-2.9-9.3
			C134.5,136.3,134.5,133.4,135.1,130.1L135.1,130.1z"/>
		<path class="st4" d="M145.5,131.2c-1.6,0.1-4.1,1-6,1c-1.1,0-3.4-0.9-4.9-2.6h0.1c-0.1-0.3-0.3-0.4-0.6-0.6
			c-0.1-0.3-0.3-0.4-0.4-0.7c0.6-0.1,1.1-0.6,1.1-1.2c0-0.7-0.6-1.2-1.2-1.2h-0.2v-0.6h0.3c0.7,0,1.2-0.6,1.2-1.2s-0.6-1.2-1.2-1.2
			h-0.3v-0.6h0.3c0.7,0,1.2-0.6,1.2-1.2s-0.6-1.2-1.2-1.2h-0.3v-0.6h0.3c0.7,0,1.2-0.6,1.2-1.2c0-0.7-0.6-1.2-1.2-1.2h-0.3v-0.6h0.3
			c0.7,0,1.2-0.6,1.2-1.2s-0.6-1.2-1.2-1.2h-0.3v-1h0.3c0.7,0,1.2-0.6,1.2-1.2c0-0.7-0.6-1.2-1.2-1.2h-0.3v-0.6h0.3
			c0.7,0,1.2-0.6,1.2-1.2s-0.6-1.2-1.2-1.2h-0.3l0,0h0.3c0.7,0,1.2-0.6,1.2-1.2s-0.6-1.2-1.2-1.2h-0.3v-0.6h0.3
			c0.7,0,1.2-0.6,1.2-1.2s-0.6-1.2-1.2-1.2h-0.3v-0.6c0,0,0-0.1-0.1-0.1h-3.8c0,0-0.1,0-0.1,0.1v0.6h-0.1c-0.7,0-1.2,0.6-1.2,1.2
			s0.6,1.2,1.2,1.2h0.3v0.6h-0.3c-0.7,0-1.2,0.6-1.2,1.2s0.6,1.2,1.2,1.2h0.3v0.6h-0.3c-0.7,0-1.2,0.6-1.2,1.2
			c0,0.7,0.6,1.2,1.2,1.2h0.3v0.6h-0.3c-0.7,0-1.2,0.6-1.2,1.2s0.6,1.2,1.2,1.2h0.3v0.6h-0.3c-0.7,0-1.2,0.6-1.2,1.2
			s0.6,1.2,1.2,1.2h0.3v0.6h-0.3c-0.7,0-1.2,0.6-1.2,1.2c0,0.7,0.6,1.2,1.2,1.2h0.3v0.6h-0.3c-0.7,0-1.2,0.6-1.2,1.2
			s0.6,1.2,1.2,1.2h0.3v0.6h-0.3c-0.7,0-1.2,0.6-1.2,1.2s0.6,1.2,1.2,1.2h0.3v0.6h-0.3c-0.7,0-1.2,0.6-1.2,1.2s0.6,1.2,1.2,1.2h0.3
			v0.3c-0.1,0.1-0.1,0.1-0.3,0.3c-0.4,0-0.9,0.3-1.1,0.7h0.4c-2,1.7-4.8,2.8-5.8,3.1c-1.5,0.6-2.8,0.4-4.7,0.4s-3.8,0.1-3.8,0.4
			c0.1,0.3,2.2,0.7,4.1,1c1.8,0.4,3.2,0.7,3.6,1.6c0.4,0.9-0.3,2.2-1.5,3.2c-1.1,0.9-2.7,1.2-4.5,1.8c-1.8,0.6-4.3,1.1-4.3,1.5
			s2.6,0,3.9,0.9c1.2,0.9,1.6,2.7,2,3.8c0.3,1.1,0.7,1.5,0.9,0.6c0.1-0.9,0-2.9,0.6-4.3c0.6-1.5,1.6-2.1,2.1-2.6
			c0.6-0.4,5.4-5.3,6.2-5.5c0.7-0.4,2.2-1.2,3.6-1.5c1.5-0.1,2.7,0.3,4.4,1.7c1.7,1.5,3.9,3.8,5.5,5.3s2.6,1.7,3.1,1.6
			c0.6-0.1,0.6-0.9-0.3-2.2c-0.9-1.5-2.8-3.6-3.1-4.8c-0.3-1.2,1.2-1.6,2.7-2c1.6-0.4,3.1-1.1,3.7-1.6
			C147.4,131.3,147,131,145.5,131.2z"/>
		<path class="st5" d="M155.2,146.6c-2.9,9.9,9.1,21.5,17.8,17.7c4.7-2,2.4-10.3,1.5-16.1C172.4,137.4,157.8,138,155.2,146.6z"/>
	</g>
	<g>
		<path id="path882_8_" class="st1" d="M353.8,130.1c-0.6-3.2-2.1-6.9-3.8-9.7c-1.7-2.9-3.7-5.3-5.6-6.4c-2.1-1.1-4.3-1-7.5,0.9
			c-3.2,2-7.5,5.6-11,10.4c-3.6,4.7-6.5,10.3-8.1,14c-1.7,3.7-2,5.3-2.1,6.5c-0.1,1.2,0,2-0.9,6.2c-0.9,4.1-2.6,11.8-3.6,16.9
			c-1,5.3-1.2,8-1.2,9.7c0,1.8,0.3,2.4,1.7,3.1c1.3,0.8,4.1,1.6,7.2,1.2c3.1-0.3,6.4-1.8,9.6-3.1c3.2-1.2,6.5-2.1,9.1-2.8
			c2.6-0.6,4.3-1,6.5-3.2s4.8-6.6,6.5-12.7c1.7-6,2.6-14,3.1-19.4C354.2,136.4,354.4,133.4,353.8,130.1L353.8,130.1z"/>
		<path id="path882-7_8_" class="st2" d="M353.8,130.1c-0.6-3.2-2.1-6.9-3.8-9.7c-1.7-2.9-3.7-5.3-5.6-6.4c-2.1-1.1-4.3-1-7.5,0.9
			c-3.2,2-7.5,5.6-11,10.4c-3.6,4.7-6.5,10.3-8.1,14c-1.7,3.7-2,5.3-2.1,6.5c-0.1,1.2,0,2,2.2,7.6c2.1,5.6,6.4,15.9,10.2,20.6
			c3.7,4.7,7.1,3.7,9.4,3.1c2.4-0.6,4.3-1,6.5-3.2c2.2-2.2,4.8-6.6,6.5-12.7c1.7-6,2.6-14,3.1-19.4
			C354.1,136.3,354.4,133.4,353.8,130.1L353.8,130.1z"/>
		<path id="path882-7-9_8_" class="st3" d="M353.8,130.1c-0.6-3.2-2.1-6.9-3.8-9.7c-1.7-2.9-3.7-5.3-5.6-6.4c-2.1-1.1-4.3-1-7.5,0.9
			c-3.2,2-7.5,5.6-10.3,9.2c-2.9,3.4-4.5,6.5-5.8,8.7c-1.2,2.2-2,3.8-2.7,6.4c-0.7,2.6-1.5,5.9,4.1,10.2c5.6,4.1,17.4,8.8,23.7,7.5
			c6.4-1.6,7.2-9.3,7.7-14.8C354.2,136.4,354.4,133.4,353.8,130.1z"/>
		<path id="path882-8_8_" class="st2" d="M362.4,130.1c0.6-3.2,2.1-6.9,3.8-9.7c1.7-2.9,3.7-5.3,5.6-6.4c2.1-1.1,4.3-1,7.5,0.9
			c3.2,2,7.5,5.6,11,10.4c3.6,4.8,6.5,10.3,8.1,14c1.7,3.7,2,5.3,2.1,6.5c0.1,1.2,0,2,0.9,6.2c0.9,4.1,2.6,11.8,3.6,16.9
			c1,5.3,1.2,8,1.2,9.7c0,1.8-0.3,2.4-1.7,3.1c-1.3,0.8-4.1,1.6-7.2,1.2c-3.1-0.3-6.4-1.8-9.6-3.1c-3.2-1.2-6.5-2.1-9.1-2.8
			c-2.6-0.6-4.3-1-6.5-3.2s-4.8-6.6-6.5-12.7c-1.7-6-2.6-14-3.1-19.4C362,136.4,361.8,133.4,362.4,130.1L362.4,130.1z"/>
		<path id="path882-7-5_8_" class="st3" d="M362.4,130.1c0.6-3.2,2.1-6.9,3.8-9.7c1.7-2.9,3.7-5.3,5.6-6.4c2.1-1.1,4.3-1,7.5,0.9
			c3.2,2,7.5,5.6,11,10.4c3.6,4.8,6.5,10.3,8,13.6s1.7,4.3,2.1,7.1c0.4,2.8,1.1,7.7-1.2,15.8c-2.4,8.1-8.1,19.2-11.2,17.7
			c-3.1-1.5-3.8-15.6-6.5-21.5c-2.8-5.9-7.7-3.7-10.8-3.8c-2.9,0-4.1-2.4-5.3-5.3c-1.1-2.8-2.2-6-2.9-9.3
			C361.8,136.3,361.8,133.4,362.4,130.1L362.4,130.1z"/>
		<path class="st4" d="M372.9,131.2c-1.6,0.1-4.1,1-6,1c-1.1,0-3.4-0.9-4.9-2.6h0.1c-0.1-0.3-0.3-0.4-0.6-0.6
			c-0.1-0.3-0.3-0.4-0.4-0.7c0.6-0.1,1.1-0.6,1.1-1.2s-0.6-1.2-1.2-1.2h-0.3v-0.6h0.3c0.7,0,1.2-0.6,1.2-1.2c0-0.7-0.6-1.2-1.2-1.2
			h-0.3v-0.6h0.3c0.7,0,1.2-0.6,1.2-1.2s-0.6-1.2-1.2-1.2h-0.3v-0.6h0.3c0.7,0,1.2-0.6,1.2-1.2s-0.6-1.2-1.2-1.2h-0.3v-0.6h0.3
			c0.7,0,1.2-0.6,1.2-1.2c0-0.7-0.6-1.2-1.2-1.2h-0.3v-1h0.3c0.7,0,1.2-0.6,1.2-1.2s-0.6-1.2-1.2-1.2h-0.3v-0.6h0.3
			c0.7,0,1.2-0.6,1.2-1.2c0-0.7-0.6-1.2-1.2-1.2h-0.3l0,0h0.3c0.7,0,1.2-0.6,1.2-1.2c0-0.7-0.6-1.2-1.2-1.2h-0.3v-0.6h0.3
			c0.7,0,1.2-0.6,1.2-1.2c0-0.7-0.6-1.2-1.2-1.2h-0.3v-0.6c0,0,0-0.1-0.1-0.1h-3.8c0,0-0.1,0-0.1,0.1v0.6h-0.1
			c-0.7,0-1.2,0.6-1.2,1.2c0,0.7,0.6,1.2,1.2,1.2h0.3v0.6h-0.3c-0.7,0-1.2,0.6-1.2,1.2c0,0.7,0.6,1.2,1.2,1.2h0.3v0.6h-0.3
			c-0.7,0-1.2,0.6-1.2,1.2s0.6,1.2,1.2,1.2h0.3v0.6h-0.3c-0.7,0-1.2,0.6-1.2,1.2s0.6,1.2,1.2,1.2h0.3v0.6h-0.3
			c-0.7,0-1.2,0.6-1.2,1.2c0,0.7,0.6,1.2,1.2,1.2h0.3v0.6h-0.3c-0.7,0-1.2,0.6-1.2,1.2s0.6,1.2,1.2,1.2h0.3v0.6h-0.3
			c-0.7,0-1.2,0.6-1.2,1.2s0.6,1.2,1.2,1.2h0.3v0.6h-0.3c-0.7,0-1.2,0.6-1.2,1.2s0.6,1.2,1.2,1.2h0.3v0.6h-0.3
			c-0.7,0-1.2,0.6-1.2,1.2c0,0.7,0.6,1.2,1.2,1.2h0.3v0.3c-0.1,0.1-0.1,0.1-0.3,0.3c-0.4,0-0.9,0.3-1.1,0.7h0.4
			c-2,1.7-4.8,2.8-5.8,3.1c-1.5,0.6-2.8,0.4-4.7,0.4s-3.8,0.1-3.8,0.4c0.1,0.3,2.2,0.7,4.1,1c1.8,0.4,3.2,0.7,3.6,1.6
			c0.4,0.9-0.3,2.2-1.5,3.2c-1.1,0.9-2.7,1.2-4.5,1.8c-1.8,0.6-4.3,1.1-4.3,1.5c0,0.3,2.6,0,3.9,0.9c1.2,0.9,1.6,2.7,2,3.8
			c0.3,1.1,0.7,1.5,0.9,0.6c0.1-0.9,0-2.9,0.6-4.3c0.6-1.5,1.6-2.1,2.1-2.6c0.6-0.4,5.4-5.3,6.2-5.5c0.7-0.4,2.2-1.2,3.6-1.5
			c1.5-0.1,2.7,0.3,4.4,1.7c1.7,1.5,3.9,3.8,5.5,5.3c1.6,1.5,2.6,1.7,3.1,1.6c0.6-0.1,0.6-0.9-0.3-2.2c-0.9-1.5-2.8-3.6-3.1-4.8
			c-0.3-1.2,1.2-1.6,2.7-2c1.6-0.4,3.1-1.1,3.7-1.6C374.7,131.3,374.5,131,372.9,131.2z"/>
		<path class="st6" d="M340.3,141.9c-7.4,3.7-7.5,17.1-0.6,20.2c3.8,1.7,7.4-4.3,10.2-8.1C355.1,146.9,346.6,138.6,340.3,141.9z"/>
	</g>
	<g>
		<path id="path882_7_" class="st1" d="M576.1,130.1c-0.6-3.2-2.1-6.9-3.8-9.7c-1.7-2.9-3.7-5.3-5.6-6.4c-2.1-1.1-4.3-1-7.5,0.9
			c-3.2,2-7.5,5.6-11,10.4c-3.6,4.7-6.5,10.3-8.1,14c-1.7,3.7-2,5.3-2.1,6.5c-0.1,1.2,0,2-0.9,6.2c-0.9,4.3-2.6,11.8-3.6,16.9
			c-1,5.3-1.2,8-1.2,9.7c0,1.7,0.3,2.4,1.7,3.1c1.3,0.8,4.1,1.6,7.2,1.2c2.9-0.3,6.4-1.8,9.6-3.1c3.2-1.2,6.5-2.1,9.1-2.8
			c2.6-0.6,4.3-1,6.5-3.2c2.1-2.2,4.8-6.6,6.5-12.7c1.7-6,2.6-14,3.1-19.4C576.5,136.4,576.7,133.4,576.1,130.1L576.1,130.1z"/>
		<path id="path882-7_7_" class="st2" d="M576.1,130.1c-0.6-3.2-2.1-6.9-3.8-9.7c-1.7-2.9-3.7-5.3-5.6-6.4c-2.1-1.1-4.3-1-7.5,0.9
			c-3.2,2-7.5,5.6-11,10.4c-3.6,4.7-6.5,10.3-8.1,14c-1.7,3.7-2,5.3-2.1,6.5c-0.1,1.2,0,2,2.2,7.6c2.1,5.6,6.4,15.9,10.2,20.6
			c3.7,4.7,7.1,3.7,9.4,3.1c2.4-0.6,4.3-1,6.5-3.2c2.1-2.2,4.8-6.6,6.5-12.7c1.7-6,2.6-14,3.1-19.4
			C576.4,136.3,576.7,133.4,576.1,130.1L576.1,130.1z"/>
		<path id="path882-7-9_7_" class="st3" d="M576.1,130.1c-0.6-3.2-2.1-6.9-3.8-9.7c-1.7-2.9-3.7-5.3-5.6-6.4c-2.1-1.1-4.3-1-7.5,0.9
			c-3.2,2-7.5,5.6-10.3,9.2c-2.9,3.4-4.5,6.5-5.8,8.7c-1.2,2.2-2,3.8-2.7,6.4c-0.7,2.6-1.5,5.9,4.1,10.2c5.6,4.1,17.4,8.8,23.7,7.5
			c6.4-1.6,7.2-9.3,7.7-14.8C576.4,136.3,576.7,133.4,576.1,130.1z"/>
		<path id="path882-8_7_" class="st2" d="M584.7,130.1c0.6-3.2,2.1-6.9,3.8-9.7c1.7-2.9,3.7-5.3,5.6-6.4c2.1-1.1,4.3-1,7.5,0.9
			c3.2,2,7.5,5.6,11,10.4c3.6,4.7,6.5,10.3,8.1,14c1.7,3.7,2,5.3,2.1,6.5c0.1,1.2,0,2,0.9,6.2c0.9,4.3,2.6,11.8,3.6,16.9
			c1,5.3,1.2,8,1.2,9.7c0,1.7-0.3,2.4-1.7,3.1s-4.1,1.6-7.2,1.2c-2.9-0.3-6.4-1.8-9.6-3.1c-3.2-1.2-6.5-2.1-9.1-2.8
			c-2.6-0.7-4.3-1-6.5-3.2c-2.1-2.2-4.8-6.6-6.5-12.7c-1.7-6-2.6-14-3.1-19.4C584.3,136.4,584.1,133.4,584.7,130.1L584.7,130.1z"/>
		<path id="path882-7-5_7_" class="st3" d="M584.7,130.1c0.6-3.2,2.1-6.9,3.8-9.7c1.7-2.9,3.7-5.3,5.6-6.4c2.1-1.1,4.3-1,7.5,0.9
			c3.2,2,7.5,5.6,11,10.4c3.6,4.7,6.5,10.3,8,13.6c1.5,3.2,1.7,4.3,2.1,7.1c0.4,2.8,1.1,7.7-1.2,15.8c-2.4,8.1-8.1,19.2-11.2,17.7
			c-3.1-1.5-3.8-15.6-6.5-21.5c-2.8-5.9-7.7-3.7-10.8-3.8c-2.9,0-4.1-2.4-5.3-5.3c-1.1-2.8-2.2-6-2.9-9.3
			C584.1,136.3,584.1,133.4,584.7,130.1L584.7,130.1z"/>
		<path class="st4" d="M595.2,131.2c-1.6,0.1-4.1,1-6,1c-1.1,0-3.4-0.9-4.9-2.6h0.1c-0.1-0.3-0.3-0.4-0.6-0.6
			c-0.1-0.3-0.3-0.4-0.4-0.7c0.6-0.1,1.1-0.6,1.1-1.2s-0.6-1.2-1.2-1.2h-0.3v-0.6h0.3c0.7,0,1.2-0.6,1.2-1.2c0-0.7-0.6-1.2-1.2-1.2
			h-0.3v-0.6h0.3c0.7,0,1.2-0.6,1.2-1.2s-0.6-1.2-1.2-1.2h-0.3v-0.6h0.3c0.7,0,1.2-0.6,1.2-1.2s-0.6-1.2-1.2-1.2h-0.3v-0.6h0.3
			c0.7,0,1.2-0.6,1.2-1.2c0-0.7-0.6-1.2-1.2-1.2h-0.3v-1h0.3c0.7,0,1.2-0.6,1.2-1.2s-0.6-1.2-1.2-1.2h-0.3v-0.6h0.3
			c0.7,0,1.2-0.6,1.2-1.2c0-0.7-0.6-1.2-1.2-1.2h-0.3l0,0h0.3c0.7,0,1.2-0.6,1.2-1.2c0-0.7-0.6-1.2-1.2-1.2h-0.3v-0.6h0.3
			c0.7,0,1.2-0.6,1.2-1.2c0-0.7-0.6-1.2-1.2-1.2h-0.3v-0.6c0,0,0-0.1-0.1-0.1h-3.8c0,0-0.1,0-0.1,0.1v0.6h-0.1
			c-0.7,0-1.2,0.6-1.2,1.2c0,0.7,0.6,1.2,1.2,1.2h0.3v0.6h-0.3c-0.7,0-1.2,0.6-1.2,1.2c0,0.7,0.6,1.2,1.2,1.2h0.3v0.6h-0.3
			c-0.7,0-1.2,0.6-1.2,1.2s0.6,1.2,1.2,1.2h0.3v0.6h-0.3c-0.7,0-1.2,0.6-1.2,1.2s0.6,1.2,1.2,1.2h0.3v0.6h-0.3
			c-0.7,0-1.2,0.6-1.2,1.2c0,0.7,0.6,1.2,1.2,1.2h0.3v0.6h-0.3c-0.7,0-1.2,0.6-1.2,1.2s0.6,1.2,1.2,1.2h0.3v0.6h-0.3
			c-0.7,0-1.2,0.6-1.2,1.2s0.6,1.2,1.2,1.2h0.3v0.6h-0.3c-0.7,0-1.2,0.6-1.2,1.2s0.6,1.2,1.2,1.2h0.3v0.6h-0.3
			c-0.7,0-1.2,0.6-1.2,1.2c0,0.7,0.6,1.2,1.2,1.2h0.3v0.3c-0.1,0.1-0.1,0.1-0.3,0.3c-0.4,0-0.9,0.3-1.1,0.7h0.4
			c-2,1.7-4.8,2.8-5.8,3.1c-1.5,0.6-2.8,0.4-4.7,0.4c-1.8,0-3.8,0.1-3.8,0.4c0.1,0.3,2.2,0.7,4.1,1c1.8,0.4,3.2,0.7,3.6,1.6
			c0.4,0.9-0.3,2.2-1.5,3.2c-1.1,0.9-2.7,1.2-4.5,1.8c-2,0.6-4.3,1.1-4.3,1.5c0,0.3,2.6,0,3.9,0.9c1.2,0.9,1.6,2.7,2,3.8
			c0.3,1.1,0.7,1.5,0.9,0.6s0-2.9,0.6-4.3c0.6-1.5,1.6-2.1,2.1-2.6s5.4-5.3,6.2-5.5c0.7-0.4,2.2-1.2,3.6-1.5
			c1.5-0.1,2.7,0.3,4.4,1.7c1.7,1.5,3.9,3.8,5.5,5.3c1.6,1.5,2.6,1.7,3.1,1.6c0.6-0.1,0.6-0.9-0.3-2.2c-0.9-1.5-2.8-3.6-3.1-4.8
			c-0.3-1.2,1.2-1.6,2.7-2c1.6-0.4,3.1-1.1,3.7-1.6C597,131.3,596.8,131,595.2,131.2z"/>
		<path class="st7" d="M585.1,141.2c0.3,8.2,12.3,14,18,8.8c3.1-2.7-0.7-8.5-3.1-12.7C595.9,129.8,584.9,133.9,585.1,141.2z"/>
	</g>
</g>
<line class="st8" x1="691.6" y1="139.2" x2="569.6" y2="139.2"/>
<polyline class="st9" points="691.6,350.2 341.4,350.2 341.8,150.2 "/>
<polyline class="st10" points="691.6,558.2 161,558.2 161.2,148.2 "/>
<g>
	<g>
		<path class="st5" d="M729.1,545.4l-0.3,1.9h-7.2v22.8h-2.1v-22.8h-7.3v-1.9H729.1z"/>
		<path class="st5" d="M744.6,561.5H732c0.1,2.4,0.7,4.3,1.7,5.5s2.4,1.8,4.1,1.8c1,0,1.9-0.1,2.6-0.5c0.8-0.3,1.6-0.8,2.5-1.4
			l1,1.3c-0.9,0.8-1.9,1.3-2.9,1.7s-2.1,0.6-3.3,0.6c-2.5,0-4.5-0.9-5.9-2.6s-2.1-4.1-2.1-7.1c0-2,0.3-3.7,0.9-5.2
			c0.6-1.5,1.5-2.7,2.6-3.5s2.5-1.2,4-1.2c2.4,0,4.2,0.8,5.5,2.4s1.9,3.8,1.9,6.7C744.6,560.5,744.6,561,744.6,561.5z M742.6,559.3
			c0-2.1-0.4-3.8-1.3-5c-0.9-1.2-2.2-1.8-3.9-1.8c-1.6,0-2.8,0.6-3.8,1.8s-1.5,3-1.6,5.5h10.6V559.3z"/>
		<path class="st5" d="M759.8,551.1l-0.4,2c-0.5-0.1-1.1-0.2-1.7-0.2c-1.3,0-2.3,0.5-3.1,1.4s-1.4,2.4-2,4.3v11.5h-2.1v-18.8h1.8
			l0.2,4.2c0.5-1.6,1.2-2.7,2.1-3.5s2-1.1,3.3-1.1C758.6,550.9,759.3,550.9,759.8,551.1z"/>
		<path class="st5" d="M774.8,568c0.3,0.4,0.7,0.8,1.2,1l-0.5,1.5c-0.9-0.2-1.5-0.5-2-1s-0.8-1.2-0.9-2.2c-1.3,2.1-3.3,3.2-5.9,3.2
			c-1.8,0-3.2-0.5-4.3-1.5s-1.6-2.4-1.6-4.1c0-1.9,0.7-3.4,2.1-4.5s3.3-1.6,5.7-1.6h3.6V557c0-1.5-0.3-2.6-1-3.3s-1.8-1-3.3-1
			c-1.4,0-3.1,0.4-5.1,1.1l-0.5-1.6c2.1-0.8,4.1-1.3,5.9-1.3c4.1,0,6.2,2,6.2,6v9.1C774.4,566.9,774.6,567.6,774.8,568z
			 M772.4,565.5v-5.2h-3.3c-1.9,0-3.4,0.4-4.4,1.1c-1,0.7-1.5,1.9-1.5,3.3c0,1.3,0.3,2.3,1,3s1.7,1,2.9,1
			C769.4,568.8,771.1,567.7,772.4,565.5z M765.4,541.9l6.8,3.7l-0.6,1.2l-7.1-3.1L765.4,541.9z"/>
		<path class="st5" d="M794.9,553.4c1.1,1.7,1.7,4.1,1.7,7.2c0,3-0.6,5.4-1.9,7.2c-1.2,1.8-3,2.7-5.3,2.7c-1.1,0-2.1-0.2-3.1-0.7
			c-0.9-0.5-1.7-1.1-2.3-1.9v9.3l-2.1,0.3v-26.2h1.8l0.2,2.7c0.7-1,1.5-1.8,2.5-2.3c1-0.6,2.1-0.8,3.3-0.8
			C792.1,550.9,793.8,551.7,794.9,553.4z M793.1,566.7c0.9-1.4,1.4-3.4,1.4-6.1c0-5.3-1.7-8-5-8c-1.1,0-2.1,0.3-2.9,0.9
			c-0.8,0.6-1.6,1.4-2.4,2.4v10c1.2,1.9,2.9,2.9,5,2.9C790.8,568.7,792.1,568,793.1,566.7z"/>
		<path class="st5" d="M805.1,543.4c0.3,0.3,0.4,0.6,0.4,1.1c0,0.4-0.1,0.8-0.4,1.1s-0.7,0.4-1.2,0.4s-0.8-0.1-1.1-0.4
			s-0.4-0.6-0.4-1.1c0-0.4,0.1-0.8,0.4-1.1s0.7-0.4,1.1-0.4C804.4,543,804.8,543.1,805.1,543.4z M805,551.3v18.8h-2v-18.8H805z"/>
		<path class="st5" d="M824.8,568c0.3,0.4,0.7,0.8,1.2,1l-0.5,1.5c-0.9-0.2-1.5-0.5-2-1s-0.8-1.2-0.9-2.2c-1.3,2.1-3.3,3.2-5.9,3.2
			c-1.8,0-3.2-0.5-4.3-1.5s-1.6-2.4-1.6-4.1c0-1.9,0.7-3.4,2.1-4.5c1.4-1.1,3.3-1.6,5.7-1.6h3.6V557c0-1.5-0.3-2.6-1-3.3
			s-1.8-1-3.3-1c-1.4,0-3.1,0.4-5.1,1.1l-0.5-1.6c2.1-0.8,4.1-1.3,5.9-1.3c4.1,0,6.2,2,6.2,6v9.1C824.4,566.9,824.5,567.6,824.8,568
			z M822.3,565.5v-5.2H819c-1.9,0-3.4,0.4-4.4,1.1s-1.5,1.9-1.5,3.3c0,1.3,0.3,2.3,1,3s1.7,1,2.9,1
			C819.3,568.8,821.1,567.7,822.3,565.5z"/>
		<path class="st5" d="M854.9,553.4c1.1,1.7,1.7,4.1,1.7,7.2c0,3-0.6,5.4-1.9,7.2c-1.2,1.8-3,2.7-5.3,2.7c-1.1,0-2.1-0.2-3.1-0.7
			c-0.9-0.5-1.7-1.1-2.3-1.9v9.3l-2.1,0.3v-26.2h1.8l0.2,2.7c0.7-1,1.5-1.8,2.5-2.3c1-0.6,2.1-0.8,3.3-0.8
			C852.1,550.9,853.8,551.7,854.9,553.4z M853,566.7c0.9-1.4,1.4-3.4,1.4-6.1c0-5.3-1.7-8-5-8c-1.1,0-2.1,0.3-2.9,0.9
			s-1.6,1.4-2.4,2.4v10c1.2,1.9,2.9,2.9,5,2.9C850.8,568.7,852.1,568,853,566.7z"/>
		<path class="st5" d="M876.2,561.5h-12.6c0.1,2.4,0.7,4.3,1.7,5.5s2.4,1.8,4.1,1.8c1,0,1.9-0.1,2.6-0.5c0.8-0.3,1.6-0.8,2.5-1.4
			l1,1.3c-0.9,0.8-1.9,1.3-2.9,1.7s-2.1,0.6-3.3,0.6c-2.5,0-4.5-0.9-5.9-2.6c-1.4-1.7-2.1-4.1-2.1-7.1c0-2,0.3-3.7,0.9-5.2
			c0.6-1.5,1.5-2.7,2.6-3.5s2.5-1.2,4-1.2c2.4,0,4.2,0.8,5.5,2.4s1.9,3.8,1.9,6.7C876.3,560.5,876.3,561,876.2,561.5z M874.2,559.3
			c0-2.1-0.4-3.8-1.3-5c-0.9-1.2-2.2-1.8-3.9-1.8c-1.6,0-2.8,0.6-3.8,1.8s-1.5,3-1.6,5.5h10.6V559.3z"/>
		<path class="st5" d="M891.4,551.1l-0.4,2c-0.5-0.1-1.1-0.2-1.7-0.2c-1.3,0-2.3,0.5-3.1,1.4s-1.4,2.4-2,4.3v11.5h-2.1v-18.8h1.8
			l0.2,4.2c0.5-1.6,1.2-2.7,2.1-3.5s2-1.1,3.3-1.1C890.3,550.9,890.9,550.9,891.4,551.1z"/>
		<path class="st5" d="M902.8,551.4c1,0.3,1.9,0.9,2.8,1.6l-1,1.4c-0.9-0.6-1.7-1-2.4-1.3c-0.8-0.3-1.6-0.4-2.5-0.4
			c-1.2,0-2.3,0.3-3,0.9c-0.8,0.6-1.2,1.3-1.2,2.3c0,0.9,0.3,1.6,1,2.1s1.9,1,3.6,1.4c2.1,0.6,3.7,1.2,4.6,2.1s1.4,2,1.4,3.6
			c0,1.7-0.6,3-1.9,4c-1.3,1-2.9,1.5-4.9,1.5c-1.4,0-2.7-0.2-3.8-0.6c-1.1-0.4-2.1-1-3-1.8l1.2-1.3c0.8,0.7,1.7,1.2,2.6,1.5
			c0.9,0.3,1.9,0.5,3,0.5c1.4,0,2.5-0.3,3.4-1c0.9-0.6,1.3-1.5,1.3-2.6c0-0.8-0.1-1.4-0.4-1.9c-0.3-0.5-0.8-0.9-1.5-1.2
			s-1.7-0.7-3.1-1.1c-2-0.5-3.4-1.2-4.3-2s-1.3-1.8-1.3-3.2c0-0.9,0.3-1.8,0.8-2.5c0.6-0.8,1.3-1.3,2.2-1.8s2-0.6,3.2-0.6
			S901.9,551,902.8,551.4z"/>
		<path class="st5" d="M924,553.4c1.4,1.7,2.1,4.1,2.1,7.2c0,3-0.7,5.5-2.1,7.2c-1.4,1.8-3.4,2.6-5.9,2.6s-4.4-0.9-5.8-2.6
			s-2.1-4.1-2.1-7.2c0-2,0.3-3.7,1-5.2c0.6-1.5,1.6-2.6,2.8-3.4s2.6-1.2,4.2-1.2C920.7,550.9,922.6,551.7,924,553.4z M913.9,554.7
			c-1,1.4-1.5,3.4-1.5,6s0.5,4.6,1.5,6s2.4,2.1,4.2,2.1s3.2-0.7,4.3-2.1c1-1.4,1.5-3.4,1.5-6s-0.5-4.6-1.5-6s-2.4-2-4.3-2
			C916.4,552.6,915,553.3,913.9,554.7z"/>
		<path class="st5" d="M944.5,552.4c0.9,1,1.3,2.4,1.3,4.2v13.5h-2.1v-13.2c0-1.5-0.3-2.6-0.9-3.3c-0.6-0.7-1.5-1-2.7-1
			s-2.3,0.3-3.2,1s-1.8,1.6-2.6,2.9v13.6h-2.1v-18.8h1.8l0.2,3.2c0.8-1.1,1.7-2,2.7-2.6c1.1-0.6,2.2-1,3.6-1
			C942.3,550.9,943.6,551.4,944.5,552.4z"/>
		<path class="st5" d="M965.4,568c0.3,0.4,0.7,0.8,1.2,1l-0.5,1.5c-0.9-0.2-1.5-0.5-2-1s-0.8-1.2-0.9-2.2c-1.3,2.1-3.3,3.2-5.9,3.2
			c-1.8,0-3.2-0.5-4.3-1.5s-1.6-2.4-1.6-4.1c0-1.9,0.7-3.4,2.1-4.5s3.3-1.6,5.7-1.6h3.6V557c0-1.5-0.3-2.6-1-3.3s-1.8-1-3.3-1
			c-1.4,0-3.1,0.4-5.1,1.1l-0.5-1.6c2.1-0.8,4.1-1.3,5.9-1.3c4.1,0,6.2,2,6.2,6v9.1C965,566.9,965.1,567.6,965.4,568z M962.9,565.5
			v-5.2h-3.3c-1.9,0-3.4,0.4-4.4,1.1c-1,0.7-1.5,1.9-1.5,3.3c0,1.3,0.3,2.3,1,3s1.7,1,2.9,1C959.9,568.8,961.7,567.7,962.9,565.5z"
			/>
		<path class="st5" d="M972.9,569.6c-0.6-0.6-0.9-1.5-0.9-2.7v-23.3l2.1-0.3v23.5c0,1.2,0.5,1.8,1.5,1.8c0.5,0,0.9-0.1,1.3-0.3
			l0.6,1.5c-0.7,0.3-1.4,0.5-2.2,0.5C974.3,570.5,973.5,570.2,972.9,569.6z"/>
		<path class="st5" d="M984.6,543.4c0.3,0.3,0.4,0.6,0.4,1.1c0,0.4-0.1,0.8-0.4,1.1s-0.7,0.4-1.2,0.4s-0.8-0.1-1.1-0.4
			s-0.4-0.6-0.4-1.1c0-0.4,0.1-0.8,0.4-1.1s0.7-0.4,1.1-0.4C983.9,543,984.3,543.1,984.6,543.4z M984.5,551.3v18.8h-2.1v-18.8H984.5
			z"/>
		<path class="st5" d="M1000.7,569.3c-1.2,0.8-2.5,1.2-4,1.2c-1.4,0-2.6-0.4-3.4-1.3c-0.8-0.9-1.2-2.1-1.2-3.7V553H989v-1.7h3.2
			v-4.5l2.1-0.3v4.8h4.9l-0.3,1.7h-4.6v12.5c0,1.1,0.2,1.9,0.7,2.5c0.5,0.5,1.2,0.8,2.1,0.8c1,0,1.9-0.3,2.9-0.8L1000.7,569.3z"/>
		<path class="st5" d="M1014.6,551.3v1.6l-10.5,15.4h10.4l-0.2,1.8h-12.7v-1.6l10.5-15.4h-9.6v-1.8H1014.6z"/>
		<path class="st5" d="M1031.2,568c0.3,0.4,0.7,0.8,1.2,1l-0.5,1.5c-0.9-0.2-1.5-0.5-2-1s-0.8-1.2-0.9-2.2c-1.3,2.1-3.3,3.2-5.9,3.2
			c-1.8,0-3.2-0.5-4.3-1.5s-1.6-2.4-1.6-4.1c0-1.9,0.7-3.4,2.1-4.5c1.4-1.1,3.3-1.6,5.7-1.6h3.6V557c0-1.5-0.3-2.6-1-3.3
			s-1.8-1-3.3-1c-1.4,0-3.1,0.4-5.1,1.1l-0.5-1.6c2.1-0.8,4.1-1.3,5.9-1.3c4.1,0,6.2,2,6.2,6v9.1
			C1030.8,566.9,1030.9,567.6,1031.2,568z M1028.7,565.5v-5.2h-3.3c-1.9,0-3.4,0.4-4.4,1.1s-1.5,1.9-1.5,3.3c0,1.3,0.3,2.3,1,3
			s1.7,1,2.9,1C1025.7,568.8,1027.5,567.7,1028.7,565.5z"/>
		<path class="st5" d="M1051.8,543.6v26.5h-1.8l-0.3-2.9c-1.3,2.2-3.2,3.3-5.7,3.3c-2.2,0-3.9-0.9-5.2-2.6c-1.3-1.7-1.9-4.1-1.9-7.1
			c0-1.9,0.3-3.7,0.9-5.1c0.6-1.5,1.4-2.7,2.6-3.5s2.4-1.3,3.9-1.3c2.1,0,3.9,0.9,5.3,2.6v-10.1L1051.8,543.6z M1047.5,567.9
			c0.8-0.6,1.6-1.5,2.2-2.6v-9.8c-1.3-1.9-3-2.8-4.9-2.8c-1.7,0-3.1,0.7-4,2.1c-1,1.4-1.5,3.4-1.5,6s0.5,4.6,1.4,6s2.2,2.1,3.8,2.1
			C1045.6,568.8,1046.7,568.5,1047.5,567.9z"/>
		<path class="st5" d="M1071.5,568c0.3,0.4,0.7,0.8,1.2,1l-0.5,1.5c-0.9-0.2-1.5-0.5-2-1s-0.8-1.2-0.9-2.2c-1.3,2.1-3.3,3.2-5.9,3.2
			c-1.8,0-3.2-0.5-4.3-1.5s-1.6-2.4-1.6-4.1c0-1.9,0.7-3.4,2.1-4.5s3.3-1.6,5.7-1.6h3.6V557c0-1.5-0.3-2.6-1-3.3s-1.8-1-3.3-1
			c-1.4,0-3.1,0.4-5.1,1.1l-0.5-1.6c2.1-0.8,4.1-1.3,5.9-1.3c4.1,0,6.2,2,6.2,6v9.1C1071.2,566.9,1071.3,567.6,1071.5,568z
			 M1069.1,565.5v-5.2h-3.3c-1.9,0-3.4,0.4-4.4,1.1s-1.5,1.9-1.5,3.3c0,1.3,0.3,2.3,1,3s1.7,1,2.9,1
			C1066.1,568.8,1067.8,567.7,1069.1,565.5z"/>
		<path class="st5" d="M851.1,615.2c-0.7,0.5-1.5,0.9-2.4,1.1c-0.9,0.3-1.8,0.4-2.8,0.4c-4.2,0-6.3-2.3-6.3-6.9v-8.9H837v-4h2.7
			v-4.1l5.7-0.6v4.8h4.4l-0.6,4h-3.8v8.8c0,0.9,0.1,1.5,0.4,1.9s0.7,0.6,1.4,0.6c0.6,0,1.3-0.2,2.1-0.6L851.1,615.2z"/>
		<path class="st5" d="M858.3,587.8c0.6,0.6,1,1.4,1,2.3c0,0.9-0.3,1.7-1,2.3c-0.6,0.6-1.4,0.9-2.4,0.9s-1.8-0.3-2.4-0.9
			c-0.6-0.6-0.9-1.4-0.9-2.3c0-0.9,0.3-1.7,0.9-2.3c0.6-0.6,1.4-0.9,2.4-0.9C856.8,586.9,857.6,587.2,858.3,587.8z M858.7,597v19.1
			H853V597H858.7z"/>
		<path class="st5" d="M879.3,599c1.2,1.8,1.8,4.3,1.8,7.5c0,2-0.3,3.7-0.9,5.3s-1.5,2.8-2.6,3.6c-1.2,0.9-2.5,1.3-4,1.3
			c-1.9,0-3.5-0.7-4.6-2v8.7l-5.7,0.6v-27h5l0.3,2.1c0.7-0.9,1.6-1.6,2.6-2.1s1.9-0.7,3-0.7C876.4,596.4,878.2,597.2,879.3,599z
			 M875.2,606.5c0-2.3-0.3-3.8-0.8-4.7s-1.3-1.3-2.3-1.3c-0.6,0-1.3,0.2-1.8,0.6c-0.6,0.4-1.1,0.9-1.5,1.7v8.1
			c0.8,1.1,1.7,1.7,2.9,1.7C874.1,612.5,875.2,610.5,875.2,606.5z"/>
		<path class="st5" d="M900.8,616.1h-4.9l-0.3-2.4c-1.4,2-3.3,3-5.8,3c-1.8,0-3.1-0.5-4-1.6s-1.3-2.5-1.3-4.4V597h5.7v13
			c0,0.9,0.1,1.6,0.4,2c0.3,0.4,0.8,0.6,1.4,0.6c1.2,0,2.2-0.7,3.1-2.2V597h5.7L900.8,616.1L900.8,616.1z"/>
		<path class="st5" d="M915.9,597c1.2,0.4,2.3,1,3.2,1.7l-2.1,3.2c-1.6-1-3.1-1.5-4.7-1.5c-0.7,0-1.3,0.1-1.7,0.4
			c-0.4,0.3-0.6,0.6-0.6,1.1c0,0.4,0.1,0.7,0.3,0.9s0.5,0.5,1.1,0.7s1.4,0.5,2.6,0.9c2,0.6,3.5,1.3,4.4,2.2c1,0.9,1.5,2.2,1.5,3.8
			c0,1.3-0.4,2.4-1.1,3.4c-0.7,0.9-1.8,1.7-3.1,2.2s-2.7,0.8-4.3,0.8s-3.1-0.3-4.5-0.8s-2.6-1.2-3.5-2.1l2.8-3.1
			c1.6,1.2,3.3,1.9,5.1,1.9c0.9,0,1.5-0.2,2-0.5s0.7-0.8,0.7-1.3s-0.1-0.8-0.3-1.1s-0.6-0.5-1.1-0.7c-0.6-0.2-1.4-0.5-2.6-0.8
			c-1.9-0.6-3.3-1.3-4.2-2.3s-1.4-2.2-1.4-3.7c0-1.1,0.3-2.1,1-3c0.6-0.9,1.5-1.6,2.7-2.1s2.6-0.8,4.1-0.8
			C913.4,596.4,914.7,596.6,915.9,597z"/>
		<path class="st5" d="M945.6,591.2c1.2,0.5,2.4,1.1,3.4,2.1l-2.8,3.3c-0.7-0.6-1.5-1-2.2-1.3s-1.5-0.4-2.3-0.4c-1.7,0-3,0.7-4,2.1
			s-1.5,3.6-1.5,6.6c0,2.9,0.5,5.1,1.5,6.5s2.3,2.1,4,2.1c0.9,0,1.7-0.2,2.5-0.5c0.7-0.3,1.5-0.8,2.4-1.5l2.6,3.4
			c-0.9,0.9-2.1,1.7-3.4,2.3s-2.8,0.9-4.4,0.9c-2.3,0-4.3-0.5-6-1.5s-3-2.5-4-4.5c-0.9-2-1.4-4.4-1.4-7.1c0-2.7,0.5-5.1,1.5-7
			c1-2,2.3-3.5,4-4.5s3.7-1.5,5.8-1.5C943,590.5,944.4,590.8,945.6,591.2z"/>
	</g>
</g>
<g>
	<g>
		<path class="st6" d="M729.1,337.4l-0.3,1.9h-7.2v22.8h-2.1v-22.8h-7.3v-1.9H729.1z"/>
		<path class="st6" d="M744.6,353.5H732c0.1,2.4,0.7,4.3,1.7,5.5s2.4,1.8,4.1,1.8c1,0,1.9-0.1,2.6-0.5c0.8-0.3,1.6-0.8,2.5-1.4
			l1,1.3c-0.9,0.8-1.9,1.3-2.9,1.7s-2.1,0.6-3.3,0.6c-2.5,0-4.5-0.9-5.9-2.6s-2.1-4.1-2.1-7.1c0-2,0.3-3.7,0.9-5.2
			c0.6-1.5,1.5-2.7,2.6-3.5s2.5-1.2,4-1.2c2.4,0,4.2,0.8,5.5,2.4s1.9,3.8,1.9,6.7C744.6,352.5,744.6,353,744.6,353.5z M742.6,351.3
			c0-2.1-0.4-3.8-1.3-5c-0.9-1.2-2.2-1.8-3.9-1.8c-1.6,0-2.8,0.6-3.8,1.8c-1,1.2-1.5,3-1.6,5.5h10.6V351.3z"/>
		<path class="st6" d="M759.8,343.1l-0.4,2c-0.5-0.1-1.1-0.2-1.7-0.2c-1.3,0-2.3,0.5-3.1,1.4s-1.4,2.4-2,4.3v11.5h-2.1v-18.8h1.8
			l0.2,4.2c0.5-1.6,1.2-2.7,2.1-3.5s2-1.1,3.3-1.1C758.6,342.9,759.3,342.9,759.8,343.1z"/>
		<path class="st6" d="M774.8,360c0.3,0.4,0.7,0.8,1.2,1l-0.5,1.5c-0.9-0.2-1.5-0.5-2-1s-0.8-1.2-0.9-2.2c-1.3,2.1-3.3,3.2-5.9,3.2
			c-1.8,0-3.2-0.5-4.3-1.5s-1.6-2.4-1.6-4.1c0-1.9,0.7-3.4,2.1-4.5s3.3-1.6,5.7-1.6h3.6V349c0-1.5-0.3-2.6-1-3.3
			c-0.7-0.7-1.8-1-3.3-1c-1.4,0-3.1,0.4-5.1,1.1l-0.5-1.6c2.1-0.8,4.1-1.3,5.9-1.3c4.1,0,6.2,2,6.2,6v9.1
			C774.4,358.9,774.6,359.6,774.8,360z M772.4,357.5v-5.2h-3.3c-1.9,0-3.4,0.4-4.4,1.1s-1.5,1.9-1.5,3.3c0,1.3,0.3,2.3,1,3
			s1.7,1,2.9,1C769.4,360.8,771.1,359.7,772.4,357.5z M765.4,333.9l6.8,3.7l-0.6,1.2l-7.1-3.1L765.4,333.9z"/>
		<path class="st6" d="M794.9,345.4c1.1,1.7,1.7,4.1,1.7,7.2c0,3-0.6,5.4-1.9,7.2c-1.2,1.8-3,2.7-5.3,2.7c-1.1,0-2.1-0.2-3.1-0.7
			c-0.9-0.5-1.7-1.1-2.3-1.9v9.3l-2.1,0.3v-26.2h1.8l0.2,2.7c0.7-1,1.5-1.8,2.5-2.3c1-0.6,2.1-0.8,3.3-0.8
			C792.1,342.9,793.8,343.7,794.9,345.4z M793.1,358.7c0.9-1.4,1.4-3.4,1.4-6.1c0-5.3-1.7-8-5-8c-1.1,0-2.1,0.3-2.9,0.9
			c-0.8,0.6-1.6,1.4-2.4,2.4v10c1.2,1.9,2.9,2.9,5,2.9C790.8,360.7,792.1,360,793.1,358.7z"/>
		<path class="st6" d="M805.1,335.4c0.3,0.3,0.4,0.6,0.4,1.1c0,0.4-0.1,0.8-0.4,1.1s-0.7,0.4-1.2,0.4s-0.8-0.1-1.1-0.4
			s-0.4-0.6-0.4-1.1c0-0.4,0.1-0.8,0.4-1.1s0.7-0.4,1.1-0.4C804.4,335,804.8,335.1,805.1,335.4z M805,343.3v18.8h-2v-18.8H805z"/>
		<path class="st6" d="M824.8,360c0.3,0.4,0.7,0.8,1.2,1l-0.5,1.5c-0.9-0.2-1.5-0.5-2-1s-0.8-1.2-0.9-2.2c-1.3,2.1-3.3,3.2-5.9,3.2
			c-1.8,0-3.2-0.5-4.3-1.5s-1.6-2.4-1.6-4.1c0-1.9,0.7-3.4,2.1-4.5c1.4-1.1,3.3-1.6,5.7-1.6h3.6V349c0-1.5-0.3-2.6-1-3.3
			c-0.7-0.7-1.8-1-3.3-1c-1.4,0-3.1,0.4-5.1,1.1l-0.5-1.6c2.1-0.8,4.1-1.3,5.9-1.3c4.1,0,6.2,2,6.2,6v9.1
			C824.4,358.9,824.5,359.6,824.8,360z M822.3,357.5v-5.2H819c-1.9,0-3.4,0.4-4.4,1.1s-1.5,1.9-1.5,3.3c0,1.3,0.3,2.3,1,3
			s1.7,1,2.9,1C819.3,360.8,821.1,359.7,822.3,357.5z"/>
		<path class="st6" d="M854.9,345.4c1.1,1.7,1.7,4.1,1.7,7.2c0,3-0.6,5.4-1.9,7.2c-1.2,1.8-3,2.7-5.3,2.7c-1.1,0-2.1-0.2-3.1-0.7
			c-0.9-0.5-1.7-1.1-2.3-1.9v9.3l-2.1,0.3v-26.2h1.8l0.2,2.7c0.7-1,1.5-1.8,2.5-2.3c1-0.6,2.1-0.8,3.3-0.8
			C852.1,342.9,853.8,343.7,854.9,345.4z M853,358.7c0.9-1.4,1.4-3.4,1.4-6.1c0-5.3-1.7-8-5-8c-1.1,0-2.1,0.3-2.9,0.9
			s-1.6,1.4-2.4,2.4v10c1.2,1.9,2.9,2.9,5,2.9C850.8,360.7,852.1,360,853,358.7z"/>
		<path class="st6" d="M876.2,353.5h-12.6c0.1,2.4,0.7,4.3,1.7,5.5s2.4,1.8,4.1,1.8c1,0,1.9-0.1,2.6-0.5c0.8-0.3,1.6-0.8,2.5-1.4
			l1,1.3c-0.9,0.8-1.9,1.3-2.9,1.7c-1,0.4-2.1,0.6-3.3,0.6c-2.5,0-4.5-0.9-5.9-2.6s-2.1-4.1-2.1-7.1c0-2,0.3-3.7,0.9-5.2
			c0.6-1.5,1.5-2.7,2.6-3.5s2.5-1.2,4-1.2c2.4,0,4.2,0.8,5.5,2.4s1.9,3.8,1.9,6.7C876.3,352.5,876.3,353,876.2,353.5z M874.2,351.3
			c0-2.1-0.4-3.8-1.3-5c-0.9-1.2-2.2-1.8-3.9-1.8c-1.6,0-2.8,0.6-3.8,1.8c-1,1.2-1.5,3-1.6,5.5h10.6V351.3z"/>
		<path class="st6" d="M891.4,343.1l-0.4,2c-0.5-0.1-1.1-0.2-1.7-0.2c-1.3,0-2.3,0.5-3.1,1.4s-1.4,2.4-2,4.3v11.5h-2.1v-18.8h1.8
			l0.2,4.2c0.5-1.6,1.2-2.7,2.1-3.5s2-1.1,3.3-1.1C890.3,342.9,890.9,342.9,891.4,343.1z"/>
		<path class="st6" d="M902.8,343.4c1,0.3,1.9,0.9,2.8,1.6l-1,1.4c-0.9-0.6-1.7-1-2.4-1.3c-0.8-0.3-1.6-0.4-2.5-0.4
			c-1.2,0-2.3,0.3-3,0.9c-0.8,0.6-1.2,1.3-1.2,2.3c0,0.9,0.3,1.6,1,2.1s1.9,1,3.6,1.4c2.1,0.6,3.7,1.2,4.6,2.1s1.4,2,1.4,3.6
			c0,1.7-0.6,3-1.9,4c-1.3,1-2.9,1.5-4.9,1.5c-1.4,0-2.7-0.2-3.8-0.6s-2.1-1-3-1.8l1.2-1.3c0.8,0.7,1.7,1.2,2.6,1.5
			c0.9,0.3,1.9,0.5,3,0.5c1.4,0,2.5-0.3,3.4-1c0.9-0.6,1.3-1.5,1.3-2.6c0-0.8-0.1-1.4-0.4-1.9c-0.3-0.5-0.8-0.9-1.5-1.2
			c-0.7-0.3-1.7-0.7-3.1-1.1c-2-0.5-3.4-1.2-4.3-2s-1.3-1.8-1.3-3.2c0-0.9,0.3-1.8,0.8-2.5c0.6-0.8,1.3-1.3,2.2-1.8s2-0.6,3.2-0.6
			S901.9,343,902.8,343.4z"/>
		<path class="st6" d="M924,345.4c1.4,1.7,2.1,4.1,2.1,7.2c0,3-0.7,5.5-2.1,7.2c-1.4,1.8-3.4,2.6-5.9,2.6s-4.4-0.9-5.8-2.6
			s-2.1-4.1-2.1-7.2c0-2,0.3-3.7,1-5.2c0.6-1.5,1.6-2.6,2.8-3.4s2.6-1.2,4.2-1.2C920.7,342.9,922.6,343.7,924,345.4z M913.9,346.7
			c-1,1.4-1.5,3.4-1.5,6s0.5,4.6,1.5,6s2.4,2.1,4.2,2.1s3.2-0.7,4.3-2.1c1-1.4,1.5-3.4,1.5-6s-0.5-4.6-1.5-6s-2.4-2-4.3-2
			C916.4,344.6,915,345.3,913.9,346.7z"/>
		<path class="st6" d="M944.5,344.4c0.9,1,1.3,2.4,1.3,4.2v13.5h-2.1v-13.2c0-1.5-0.3-2.6-0.9-3.3c-0.6-0.7-1.5-1-2.7-1
			s-2.3,0.3-3.2,1s-1.8,1.6-2.6,2.9v13.6h-2.1v-18.8h1.8l0.2,3.2c0.8-1.1,1.7-2,2.7-2.6c1.1-0.6,2.2-1,3.6-1
			C942.3,342.9,943.6,343.4,944.5,344.4z"/>
		<path class="st6" d="M965.4,360c0.3,0.4,0.7,0.8,1.2,1l-0.5,1.5c-0.9-0.2-1.5-0.5-2-1s-0.8-1.2-0.9-2.2c-1.3,2.1-3.3,3.2-5.9,3.2
			c-1.8,0-3.2-0.5-4.3-1.5s-1.6-2.4-1.6-4.1c0-1.9,0.7-3.4,2.1-4.5s3.3-1.6,5.7-1.6h3.6V349c0-1.5-0.3-2.6-1-3.3
			c-0.7-0.7-1.8-1-3.3-1c-1.4,0-3.1,0.4-5.1,1.1l-0.5-1.6c2.1-0.8,4.1-1.3,5.9-1.3c4.1,0,6.2,2,6.2,6v9.1
			C965,358.9,965.1,359.6,965.4,360z M962.9,357.5v-5.2h-3.3c-1.9,0-3.4,0.4-4.4,1.1s-1.5,1.9-1.5,3.3c0,1.3,0.3,2.3,1,3
			s1.7,1,2.9,1C959.9,360.8,961.7,359.7,962.9,357.5z"/>
		<path class="st6" d="M972.9,361.6c-0.6-0.6-0.9-1.5-0.9-2.7v-23.3l2.1-0.3v23.5c0,1.2,0.5,1.8,1.5,1.8c0.5,0,0.9-0.1,1.3-0.3
			l0.6,1.5c-0.7,0.3-1.4,0.5-2.2,0.5C974.3,362.5,973.5,362.2,972.9,361.6z"/>
		<path class="st6" d="M984.6,335.4c0.3,0.3,0.4,0.6,0.4,1.1c0,0.4-0.1,0.8-0.4,1.1s-0.7,0.4-1.2,0.4s-0.8-0.1-1.1-0.4
			s-0.4-0.6-0.4-1.1c0-0.4,0.1-0.8,0.4-1.1s0.7-0.4,1.1-0.4C983.9,335,984.3,335.1,984.6,335.4z M984.5,343.3v18.8h-2.1v-18.8H984.5
			z"/>
		<path class="st6" d="M1000.7,361.3c-1.2,0.8-2.5,1.2-4,1.2c-1.4,0-2.6-0.4-3.4-1.3c-0.8-0.9-1.2-2.1-1.2-3.7V345H989v-1.7h3.2
			v-4.5l2.1-0.3v4.8h4.9l-0.3,1.7h-4.6v12.5c0,1.1,0.2,1.9,0.7,2.5c0.5,0.5,1.2,0.8,2.1,0.8c1,0,1.9-0.3,2.9-0.8L1000.7,361.3z"/>
		<path class="st6" d="M1014.6,343.3v1.6l-10.5,15.4h10.4l-0.2,1.8h-12.7v-1.6l10.5-15.4h-9.6v-1.8H1014.6z"/>
		<path class="st6" d="M1031.2,360c0.3,0.4,0.7,0.8,1.2,1l-0.5,1.5c-0.9-0.2-1.5-0.5-2-1s-0.8-1.2-0.9-2.2c-1.3,2.1-3.3,3.2-5.9,3.2
			c-1.8,0-3.2-0.5-4.3-1.5s-1.6-2.4-1.6-4.1c0-1.9,0.7-3.4,2.1-4.5c1.4-1.1,3.3-1.6,5.7-1.6h3.6V349c0-1.5-0.3-2.6-1-3.3
			c-0.7-0.7-1.8-1-3.3-1c-1.4,0-3.1,0.4-5.1,1.1l-0.5-1.6c2.1-0.8,4.1-1.3,5.9-1.3c4.1,0,6.2,2,6.2,6v9.1
			C1030.8,358.9,1030.9,359.6,1031.2,360z M1028.7,357.5v-5.2h-3.3c-1.9,0-3.4,0.4-4.4,1.1s-1.5,1.9-1.5,3.3c0,1.3,0.3,2.3,1,3
			s1.7,1,2.9,1C1025.7,360.8,1027.5,359.7,1028.7,357.5z"/>
		<path class="st6" d="M1051.8,335.6v26.5h-1.8l-0.3-2.9c-1.3,2.2-3.2,3.3-5.7,3.3c-2.2,0-3.9-0.9-5.2-2.6c-1.3-1.7-1.9-4.1-1.9-7.1
			c0-1.9,0.3-3.7,0.9-5.1c0.6-1.5,1.4-2.7,2.6-3.5s2.4-1.3,3.9-1.3c2.1,0,3.9,0.9,5.3,2.6v-10.1L1051.8,335.6z M1047.5,359.9
			c0.8-0.6,1.6-1.5,2.2-2.6v-9.8c-1.3-1.9-3-2.8-4.9-2.8c-1.7,0-3.1,0.7-4,2.1c-1,1.4-1.5,3.4-1.5,6s0.5,4.6,1.4,6s2.2,2.1,3.8,2.1
			C1045.6,360.8,1046.7,360.5,1047.5,359.9z"/>
		<path class="st6" d="M1071.5,360c0.3,0.4,0.7,0.8,1.2,1l-0.5,1.5c-0.9-0.2-1.5-0.5-2-1s-0.8-1.2-0.9-2.2c-1.3,2.1-3.3,3.2-5.9,3.2
			c-1.8,0-3.2-0.5-4.3-1.5s-1.6-2.4-1.6-4.1c0-1.9,0.7-3.4,2.1-4.5s3.3-1.6,5.7-1.6h3.6V349c0-1.5-0.3-2.6-1-3.3
			c-0.7-0.7-1.8-1-3.3-1c-1.4,0-3.1,0.4-5.1,1.1l-0.5-1.6c2.1-0.8,4.1-1.3,5.9-1.3c4.1,0,6.2,2,6.2,6v9.1
			C1071.2,358.9,1071.3,359.6,1071.5,360z M1069.1,357.5v-5.2h-3.3c-1.9,0-3.4,0.4-4.4,1.1s-1.5,1.9-1.5,3.3c0,1.3,0.3,2.3,1,3
			s1.7,1,2.9,1C1066.1,360.8,1067.8,359.7,1069.1,357.5z"/>
		<path class="st6" d="M850.4,407.2c-0.7,0.5-1.5,0.9-2.4,1.1c-0.9,0.3-1.8,0.4-2.8,0.4c-4.2,0-6.3-2.3-6.3-6.9v-8.9h-2.7v-4h2.7
			v-4.1l5.7-0.6v4.8h4.4l-0.6,4h-3.8v8.8c0,0.9,0.1,1.5,0.4,1.9s0.7,0.6,1.4,0.6c0.6,0,1.3-0.2,2.1-0.6L850.4,407.2z"/>
		<path class="st6" d="M857.5,379.8c0.6,0.6,1,1.4,1,2.3s-0.3,1.7-1,2.3c-0.6,0.6-1.4,0.9-2.4,0.9s-1.8-0.3-2.4-0.9
			c-0.6-0.6-0.9-1.4-0.9-2.3s0.3-1.7,0.9-2.3c0.6-0.6,1.4-0.9,2.4-0.9S856.9,379.2,857.5,379.8z M858,389v19.1h-5.7V389H858z"/>
		<path class="st6" d="M878.6,391c1.2,1.8,1.8,4.3,1.8,7.5c0,2-0.3,3.7-0.9,5.3s-1.5,2.8-2.6,3.6c-1.2,0.9-2.5,1.3-4,1.3
			c-1.9,0-3.5-0.7-4.6-2v8.7l-5.7,0.6v-27h5l0.3,2.1c0.7-0.9,1.6-1.6,2.6-2.1s1.9-0.7,3-0.7C875.6,388.4,877.4,389.2,878.6,391z
			 M874.5,398.5c0-2.3-0.3-3.8-0.8-4.7c-0.5-0.9-1.3-1.3-2.3-1.3c-0.6,0-1.3,0.2-1.8,0.6c-0.6,0.4-1.1,0.9-1.5,1.7v8.1
			c0.8,1.1,1.7,1.7,2.9,1.7C873.3,404.5,874.5,402.5,874.5,398.5z"/>
		<path class="st6" d="M900,408.1h-4.9l-0.3-2.4c-1.4,2-3.3,3-5.8,3c-1.8,0-3.1-0.5-4-1.6s-1.3-2.5-1.3-4.4V389h5.7v13
			c0,0.9,0.1,1.6,0.4,2c0.3,0.4,0.8,0.6,1.4,0.6c1.2,0,2.2-0.7,3.1-2.2V389h5.7L900,408.1L900,408.1z"/>
		<path class="st6" d="M915.1,389c1.2,0.4,2.3,1,3.2,1.7l-2.1,3.2c-1.6-1-3.1-1.5-4.7-1.5c-0.7,0-1.3,0.1-1.7,0.4s-0.6,0.6-0.6,1.1
			c0,0.4,0.1,0.7,0.3,0.9c0.2,0.2,0.5,0.5,1.1,0.7s1.4,0.5,2.6,0.9c2,0.6,3.5,1.3,4.4,2.2c1,0.9,1.5,2.2,1.5,3.8
			c0,1.3-0.4,2.4-1.1,3.4c-0.7,0.9-1.8,1.7-3.1,2.2s-2.7,0.8-4.3,0.8s-3.1-0.3-4.5-0.8s-2.6-1.2-3.5-2.1l2.8-3.1
			c1.6,1.2,3.3,1.9,5.1,1.9c0.9,0,1.5-0.2,2-0.5s0.7-0.8,0.7-1.3s-0.1-0.8-0.3-1.1c-0.2-0.3-0.6-0.5-1.1-0.7
			c-0.6-0.2-1.4-0.5-2.6-0.8c-1.9-0.6-3.3-1.3-4.2-2.3s-1.4-2.2-1.4-3.7c0-1.1,0.3-2.1,1-3c0.6-0.9,1.5-1.6,2.7-2.1s2.6-0.8,4.1-0.8
			C912.6,388.4,913.9,388.6,915.1,389z"/>
		<path class="st6" d="M947.9,396.7c1,0.9,1.6,2.3,1.6,4.1c0,2.7-1,4.5-2.9,5.6s-4.6,1.6-8,1.6h-8v-24.9h7.1c3.5,0,6.2,0.5,8,1.5
			s2.8,2.6,2.8,4.9c0,1.5-0.4,2.6-1.3,3.5c-0.9,0.9-2,1.5-3.3,1.8C945.5,395.2,946.8,395.8,947.9,396.7z M936.4,387.3v5.8h2.2
			c2.5,0,3.7-1,3.7-3c0-1-0.3-1.7-1-2.1s-1.7-0.6-3.2-0.6L936.4,387.3L936.4,387.3z M942.2,403.1c0.8-0.5,1.2-1.3,1.2-2.6
			c0-2.3-1.4-3.5-4.3-3.5h-2.6v6.8h2.2C940.2,403.8,941.3,403.6,942.2,403.1z"/>
	</g>
</g>
<g>
	<path class="st7" d="M729.1,125.4l-0.3,1.9h-7.2v22.8h-2.1v-22.8h-7.3v-1.9H729.1z"/>
	<path class="st7" d="M744.6,141.5H732c0.1,2.4,0.7,4.3,1.7,5.5s2.4,1.8,4.1,1.8c1,0,1.9-0.1,2.6-0.5c0.8-0.3,1.6-0.8,2.5-1.4l1,1.3
		c-0.9,0.8-1.9,1.3-2.9,1.7s-2.1,0.6-3.3,0.6c-2.5,0-4.5-0.9-5.9-2.6s-2.1-4.1-2.1-7.1c0-2,0.3-3.7,0.9-5.2c0.6-1.5,1.5-2.7,2.6-3.5
		s2.5-1.2,4-1.2c2.4,0,4.2,0.8,5.5,2.4s1.9,3.8,1.9,6.7C744.6,140.5,744.6,141,744.6,141.5z M742.6,139.3c0-2.1-0.4-3.8-1.3-5
		c-0.9-1.2-2.2-1.8-3.9-1.8c-1.6,0-2.8,0.6-3.8,1.8s-1.5,3-1.6,5.5h10.6V139.3z"/>
	<path class="st7" d="M759.8,131.1l-0.4,2c-0.5-0.1-1.1-0.2-1.7-0.2c-1.3,0-2.3,0.5-3.1,1.4s-1.4,2.4-2,4.3v11.5h-2.1v-18.8h1.8
		l0.2,4.2c0.5-1.6,1.2-2.7,2.1-3.5s2-1.1,3.3-1.1C758.6,130.9,759.3,130.9,759.8,131.1z"/>
	<path class="st7" d="M774.8,148c0.3,0.4,0.7,0.8,1.2,1l-0.5,1.5c-0.9-0.2-1.5-0.5-2-1s-0.8-1.2-0.9-2.2c-1.3,2.1-3.3,3.2-5.9,3.2
		c-1.8,0-3.2-0.5-4.3-1.5s-1.6-2.4-1.6-4.1c0-1.9,0.7-3.4,2.1-4.5s3.3-1.6,5.7-1.6h3.6V137c0-1.5-0.3-2.6-1-3.3s-1.8-1-3.3-1
		c-1.4,0-3.1,0.4-5.1,1.1l-0.5-1.6c2.1-0.8,4.1-1.3,5.9-1.3c4.1,0,6.2,2,6.2,6v9.1C774.4,146.9,774.6,147.6,774.8,148z M772.4,145.5
		v-5.2h-3.3c-1.9,0-3.4,0.4-4.4,1.1c-1,0.7-1.5,1.9-1.5,3.3c0,1.3,0.3,2.3,1,3s1.7,1,2.9,1C769.4,148.8,771.1,147.7,772.4,145.5z
		 M765.4,121.9l6.8,3.7l-0.6,1.2l-7.1-3.1L765.4,121.9z"/>
	<path class="st7" d="M794.9,133.4c1.1,1.7,1.7,4.1,1.7,7.2c0,3-0.6,5.4-1.9,7.2c-1.2,1.8-3,2.7-5.3,2.7c-1.1,0-2.1-0.2-3.1-0.7
		c-0.9-0.5-1.7-1.1-2.3-1.9v9.3l-2.1,0.3v-26.2h1.8l0.2,2.7c0.7-1,1.5-1.8,2.5-2.3c1-0.6,2.1-0.8,3.3-0.8
		C792.1,130.9,793.8,131.7,794.9,133.4z M793.1,146.7c0.9-1.4,1.4-3.4,1.4-6.1c0-5.3-1.7-8-5-8c-1.1,0-2.1,0.3-2.9,0.9
		c-0.8,0.6-1.6,1.4-2.4,2.4v10c1.2,1.9,2.9,2.9,5,2.9C790.8,148.7,792.1,148,793.1,146.7z"/>
	<path class="st7" d="M805.1,123.4c0.3,0.3,0.4,0.6,0.4,1.1c0,0.4-0.1,0.8-0.4,1.1s-0.7,0.4-1.2,0.4s-0.8-0.1-1.1-0.4
		s-0.4-0.6-0.4-1.1c0-0.4,0.1-0.8,0.4-1.1s0.7-0.4,1.1-0.4C804.4,123,804.8,123.1,805.1,123.4z M805,131.3v18.8h-2v-18.8H805z"/>
	<path class="st7" d="M824.8,148c0.3,0.4,0.7,0.8,1.2,1l-0.5,1.5c-0.9-0.2-1.5-0.5-2-1s-0.8-1.2-0.9-2.2c-1.3,2.1-3.3,3.2-5.9,3.2
		c-1.8,0-3.2-0.5-4.3-1.5s-1.6-2.4-1.6-4.1c0-1.9,0.7-3.4,2.1-4.5c1.4-1.1,3.3-1.6,5.7-1.6h3.6V137c0-1.5-0.3-2.6-1-3.3
		s-1.8-1-3.3-1c-1.4,0-3.1,0.4-5.1,1.1l-0.5-1.6c2.1-0.8,4.1-1.3,5.9-1.3c4.1,0,6.2,2,6.2,6v9.1C824.4,146.9,824.5,147.6,824.8,148z
		 M822.3,145.5v-5.2H819c-1.9,0-3.4,0.4-4.4,1.1c-1,0.7-1.5,1.9-1.5,3.3c0,1.3,0.3,2.3,1,3s1.7,1,2.9,1
		C819.3,148.8,821.1,147.7,822.3,145.5z"/>
	<path class="st7" d="M854.9,133.4c1.1,1.7,1.7,4.1,1.7,7.2c0,3-0.6,5.4-1.9,7.2c-1.2,1.8-3,2.7-5.3,2.7c-1.1,0-2.1-0.2-3.1-0.7
		c-0.9-0.5-1.7-1.1-2.3-1.9v9.3l-2.1,0.3v-26.2h1.8l0.2,2.7c0.7-1,1.5-1.8,2.5-2.3c1-0.6,2.1-0.8,3.3-0.8
		C852.1,130.9,853.8,131.7,854.9,133.4z M853,146.7c0.9-1.4,1.4-3.4,1.4-6.1c0-5.3-1.7-8-5-8c-1.1,0-2.1,0.3-2.9,0.9
		s-1.6,1.4-2.4,2.4v10c1.2,1.9,2.9,2.9,5,2.9C850.8,148.7,852.1,148,853,146.7z"/>
	<path class="st7" d="M876.2,141.5h-12.6c0.1,2.4,0.7,4.3,1.7,5.5s2.4,1.8,4.1,1.8c1,0,1.9-0.1,2.6-0.5c0.8-0.3,1.6-0.8,2.5-1.4
		l1,1.3c-0.9,0.8-1.9,1.3-2.9,1.7s-2.1,0.6-3.3,0.6c-2.5,0-4.5-0.9-5.9-2.6c-1.4-1.7-2.1-4.1-2.1-7.1c0-2,0.3-3.7,0.9-5.2
		c0.6-1.5,1.5-2.7,2.6-3.5s2.5-1.2,4-1.2c2.4,0,4.2,0.8,5.5,2.4s1.9,3.8,1.9,6.7C876.3,140.5,876.3,141,876.2,141.5z M874.2,139.3
		c0-2.1-0.4-3.8-1.3-5c-0.9-1.2-2.2-1.8-3.9-1.8c-1.6,0-2.8,0.6-3.8,1.8s-1.5,3-1.6,5.5h10.6V139.3z"/>
	<path class="st7" d="M891.4,131.1l-0.4,2c-0.5-0.1-1.1-0.2-1.7-0.2c-1.3,0-2.3,0.5-3.1,1.4s-1.4,2.4-2,4.3v11.5h-2.1v-18.8h1.8
		l0.2,4.2c0.5-1.6,1.2-2.7,2.1-3.5s2-1.1,3.3-1.1C890.3,130.9,890.9,130.9,891.4,131.1z"/>
	<path class="st7" d="M902.8,131.4c1,0.3,1.9,0.9,2.8,1.6l-1,1.4c-0.9-0.6-1.7-1-2.4-1.3c-0.8-0.3-1.6-0.4-2.5-0.4
		c-1.2,0-2.3,0.3-3,0.9c-0.8,0.6-1.2,1.3-1.2,2.3c0,0.9,0.3,1.6,1,2.1s1.9,1,3.6,1.4c2.1,0.6,3.7,1.2,4.6,2.1s1.4,2,1.4,3.6
		c0,1.7-0.6,3-1.9,4c-1.3,1-2.9,1.5-4.9,1.5c-1.4,0-2.7-0.2-3.8-0.6c-1.1-0.4-2.1-1-3-1.8l1.2-1.3c0.8,0.7,1.7,1.2,2.6,1.5
		c0.9,0.3,1.9,0.5,3,0.5c1.4,0,2.5-0.3,3.4-1c0.9-0.6,1.3-1.5,1.3-2.6c0-0.8-0.1-1.4-0.4-1.9c-0.3-0.5-0.8-0.9-1.5-1.2
		s-1.7-0.7-3.1-1.1c-2-0.5-3.4-1.2-4.3-2c-0.9-0.8-1.3-1.8-1.3-3.2c0-0.9,0.3-1.8,0.8-2.5c0.6-0.8,1.3-1.3,2.2-1.8s2-0.6,3.2-0.6
		S901.9,131,902.8,131.4z"/>
	<path class="st7" d="M924,133.4c1.4,1.7,2.1,4.1,2.1,7.2c0,3-0.7,5.5-2.1,7.2c-1.4,1.8-3.4,2.6-5.9,2.6s-4.4-0.9-5.8-2.6
		s-2.1-4.1-2.1-7.2c0-2,0.3-3.7,1-5.2c0.6-1.5,1.6-2.6,2.8-3.4c1.2-0.8,2.6-1.2,4.2-1.2C920.7,130.9,922.6,131.7,924,133.4z
		 M913.9,134.7c-1,1.4-1.5,3.4-1.5,6s0.5,4.6,1.5,6s2.4,2.1,4.2,2.1s3.2-0.7,4.3-2.1c1-1.4,1.5-3.4,1.5-6s-0.5-4.6-1.5-6
		s-2.4-2-4.3-2C916.4,132.6,915,133.3,913.9,134.7z"/>
	<path class="st7" d="M944.5,132.4c0.9,1,1.3,2.4,1.3,4.2v13.5h-2.1v-13.2c0-1.5-0.3-2.6-0.9-3.3c-0.6-0.7-1.5-1-2.7-1
		s-2.3,0.3-3.2,1s-1.8,1.6-2.6,2.9v13.6h-2.1v-18.8h1.8l0.2,3.2c0.8-1.1,1.7-2,2.7-2.6c1.1-0.6,2.2-1,3.6-1
		C942.3,130.9,943.6,131.4,944.5,132.4z"/>
	<path class="st7" d="M965.4,148c0.3,0.4,0.7,0.8,1.2,1l-0.5,1.5c-0.9-0.2-1.5-0.5-2-1s-0.8-1.2-0.9-2.2c-1.3,2.1-3.3,3.2-5.9,3.2
		c-1.8,0-3.2-0.5-4.3-1.5s-1.6-2.4-1.6-4.1c0-1.9,0.7-3.4,2.1-4.5s3.3-1.6,5.7-1.6h3.6V137c0-1.5-0.3-2.6-1-3.3s-1.8-1-3.3-1
		c-1.4,0-3.1,0.4-5.1,1.1l-0.5-1.6c2.1-0.8,4.1-1.3,5.9-1.3c4.1,0,6.2,2,6.2,6v9.1C965,146.9,965.1,147.6,965.4,148z M962.9,145.5
		v-5.2h-3.3c-1.9,0-3.4,0.4-4.4,1.1c-1,0.7-1.5,1.9-1.5,3.3c0,1.3,0.3,2.3,1,3s1.7,1,2.9,1C959.9,148.8,961.7,147.7,962.9,145.5z"/>
	<path class="st7" d="M972.9,149.6c-0.6-0.6-0.9-1.5-0.9-2.7v-23.3l2.1-0.3v23.5c0,1.2,0.5,1.8,1.5,1.8c0.5,0,0.9-0.1,1.3-0.3
		l0.6,1.5c-0.7,0.3-1.4,0.5-2.2,0.5C974.3,150.5,973.5,150.2,972.9,149.6z"/>
	<path class="st7" d="M984.6,123.4c0.3,0.3,0.4,0.6,0.4,1.1c0,0.4-0.1,0.8-0.4,1.1s-0.7,0.4-1.2,0.4s-0.8-0.1-1.1-0.4
		s-0.4-0.6-0.4-1.1c0-0.4,0.1-0.8,0.4-1.1s0.7-0.4,1.1-0.4C983.9,123,984.3,123.1,984.6,123.4z M984.5,131.3v18.8h-2.1v-18.8H984.5z
		"/>
	<path class="st7" d="M1000.7,149.3c-1.2,0.8-2.5,1.2-4,1.2c-1.4,0-2.6-0.4-3.4-1.3c-0.8-0.9-1.2-2.1-1.2-3.7V133H989v-1.7h3.2v-4.5
		l2.1-0.3v4.8h4.9l-0.3,1.7h-4.6v12.5c0,1.1,0.2,1.9,0.7,2.5c0.5,0.5,1.2,0.8,2.1,0.8c1,0,1.9-0.3,2.9-0.8L1000.7,149.3z"/>
	<path class="st7" d="M1014.6,131.3v1.6l-10.5,15.4h10.4l-0.2,1.8h-12.7v-1.6l10.5-15.4h-9.6v-1.8H1014.6z"/>
	<path class="st7" d="M1031.2,148c0.3,0.4,0.7,0.8,1.2,1l-0.5,1.5c-0.9-0.2-1.5-0.5-2-1s-0.8-1.2-0.9-2.2c-1.3,2.1-3.3,3.2-5.9,3.2
		c-1.8,0-3.2-0.5-4.3-1.5s-1.6-2.4-1.6-4.1c0-1.9,0.7-3.4,2.1-4.5c1.4-1.1,3.3-1.6,5.7-1.6h3.6V137c0-1.5-0.3-2.6-1-3.3
		s-1.8-1-3.3-1c-1.4,0-3.1,0.4-5.1,1.1l-0.5-1.6c2.1-0.8,4.1-1.3,5.9-1.3c4.1,0,6.2,2,6.2,6v9.1
		C1030.8,146.9,1030.9,147.6,1031.2,148z M1028.7,145.5v-5.2h-3.3c-1.9,0-3.4,0.4-4.4,1.1c-1,0.7-1.5,1.9-1.5,3.3c0,1.3,0.3,2.3,1,3
		s1.7,1,2.9,1C1025.7,148.8,1027.5,147.7,1028.7,145.5z"/>
	<path class="st7" d="M1051.8,123.6v26.5h-1.8l-0.3-2.9c-1.3,2.2-3.2,3.3-5.7,3.3c-2.2,0-3.9-0.9-5.2-2.6c-1.3-1.7-1.9-4.1-1.9-7.1
		c0-1.9,0.3-3.7,0.9-5.1c0.6-1.5,1.4-2.7,2.6-3.5s2.4-1.3,3.9-1.3c2.1,0,3.9,0.9,5.3,2.6v-10.1L1051.8,123.6z M1047.5,147.9
		c0.8-0.6,1.6-1.5,2.2-2.6v-9.8c-1.3-1.9-3-2.8-4.9-2.8c-1.7,0-3.1,0.7-4,2.1c-1,1.4-1.5,3.4-1.5,6s0.5,4.6,1.4,6s2.2,2.1,3.8,2.1
		C1045.6,148.8,1046.7,148.5,1047.5,147.9z"/>
	<path class="st7" d="M1071.5,148c0.3,0.4,0.7,0.8,1.2,1l-0.5,1.5c-0.9-0.2-1.5-0.5-2-1s-0.8-1.2-0.9-2.2c-1.3,2.1-3.3,3.2-5.9,3.2
		c-1.8,0-3.2-0.5-4.3-1.5s-1.6-2.4-1.6-4.1c0-1.9,0.7-3.4,2.1-4.5s3.3-1.6,5.7-1.6h3.6V137c0-1.5-0.3-2.6-1-3.3s-1.8-1-3.3-1
		c-1.4,0-3.1,0.4-5.1,1.1l-0.5-1.6c2.1-0.8,4.1-1.3,5.9-1.3c4.1,0,6.2,2,6.2,6v9.1C1071.2,146.9,1071.3,147.6,1071.5,148z
		 M1069.1,145.5v-5.2h-3.3c-1.9,0-3.4,0.4-4.4,1.1c-1,0.7-1.5,1.9-1.5,3.3c0,1.3,0.3,2.3,1,3s1.7,1,2.9,1
		C1066.1,148.8,1067.8,147.7,1069.1,145.5z"/>
	<path class="st7" d="M850.9,195.2c-0.7,0.5-1.5,0.9-2.4,1.1s-1.8,0.4-2.8,0.4c-4.2,0-6.3-2.3-6.3-6.9v-8.9h-2.7v-4h2.7v-4.1
		l5.7-0.6v4.8h4.4l-0.6,4h-3.8v8.8c0,0.9,0.1,1.5,0.4,1.9s0.7,0.6,1.4,0.6c0.6,0,1.3-0.2,2.1-0.6L850.9,195.2z"/>
	<path class="st7" d="M858,167.8c0.6,0.6,1,1.4,1,2.3c0,0.9-0.3,1.7-1,2.3c-0.6,0.6-1.4,0.9-2.4,0.9s-1.8-0.3-2.4-0.9
		c-0.6-0.6-0.9-1.4-0.9-2.3c0-0.9,0.3-1.7,0.9-2.3c0.6-0.6,1.4-0.9,2.4-0.9S857.4,167.2,858,167.8z M858.5,177v19.1h-5.7V177H858.5z
		"/>
	<path class="st7" d="M879.1,179c1.2,1.8,1.8,4.3,1.8,7.5c0,2-0.3,3.7-0.9,5.3c-0.6,1.5-1.5,2.8-2.6,3.6s-2.5,1.3-4,1.3
		c-1.9,0-3.5-0.7-4.6-2v8.7l-5.7,0.6v-27h5l0.3,2.1c0.7-0.9,1.6-1.6,2.6-2.1c1-0.4,1.9-0.7,3-0.7C876.1,176.4,877.9,177.2,879.1,179
		z M874.9,186.5c0-2.3-0.3-3.8-0.8-4.7s-1.3-1.3-2.3-1.3c-0.6,0-1.3,0.2-1.8,0.6c-0.6,0.4-1.1,0.9-1.5,1.7v8.1
		c0.8,1.1,1.7,1.7,2.9,1.7C873.8,192.5,874.9,190.5,874.9,186.5z"/>
	<path class="st7" d="M900.5,196.1h-4.9l-0.3-2.4c-1.4,2-3.3,3-5.8,3c-1.8,0-3.1-0.5-4-1.6s-1.4-2.5-1.4-4.4V177h5.7v13
		c0,0.9,0.1,1.6,0.5,2c0.3,0.4,0.8,0.6,1.4,0.6c1.2,0,2.2-0.7,3.1-2.2V177h5.7V196.1z"/>
	<path class="st7" d="M915.6,177c1.2,0.4,2.3,1,3.2,1.7l-2.1,3.2c-1.6-1-3.1-1.5-4.7-1.5c-0.7,0-1.3,0.1-1.7,0.4
		c-0.4,0.3-0.6,0.6-0.6,1.1c0,0.4,0.1,0.7,0.3,0.9s0.5,0.5,1.1,0.7s1.4,0.5,2.6,0.9c2,0.6,3.5,1.3,4.4,2.2c1,0.9,1.5,2.2,1.5,3.8
		c0,1.3-0.4,2.4-1.1,3.4c-0.7,0.9-1.8,1.7-3.1,2.2s-2.7,0.8-4.3,0.8s-3.1-0.3-4.5-0.8s-2.5-1.2-3.5-2.1l2.8-3.1
		c1.6,1.2,3.3,1.9,5.1,1.9c0.9,0,1.5-0.2,2-0.5s0.7-0.8,0.7-1.3s-0.1-0.8-0.3-1.1s-0.6-0.5-1.1-0.7c-0.6-0.2-1.4-0.5-2.6-0.8
		c-1.9-0.6-3.3-1.3-4.2-2.3s-1.4-2.2-1.4-3.7c0-1.1,0.3-2.1,1-3c0.6-0.9,1.5-1.6,2.7-2.1s2.6-0.8,4.1-0.8
		C913.1,176.4,914.4,176.6,915.6,177z"/>
	<path class="st7" d="M944.2,196.1l-1.3-5.4h-7.3l-1.3,5.4h-6.1l7.5-24.9h7.2l7.5,24.9H944.2z M936.6,186.4h5.3l-2.6-11L936.6,186.4
		z"/>
</g>
<g>
	<path class="st11" d="M870.2,104.7l-15.4,15.4l0.2,0.2l15.4-15.4C870.5,104.8,870.4,104.8,870.2,104.7L870.2,104.7z"/>
	<path class="st12" d="M870.2,104.7c0.1,0.1,0.2,0.2,0.3,0.2c0.6,0.5,1.3,0.3,1.3,0.3l7.7-7.7l-1-1l-7,7L870.2,104.7L870.2,104.7z"
		/>
	<polygon class="st11" points="879.4,97.5 884.5,102.6 915.2,71.8 910.2,66.8 905.9,71.1 910,75.2 908,77.1 908,77.1 884.5,100.5 
		880.5,96.5 879.4,95.4 878.4,96.5 	"/>
	<polygon class="st13" points="880.5,96.5 884.5,100.5 908,77.1 902.9,72 881.2,93.7 879.4,95.4 	"/>
	<polygon class="st14" points="912.4,64.5 931.6,45.4 936.9,50.8 938.8,48.8 932.5,42.5 931.7,43.3 930.5,44.4 911.4,63.6 	"/>
	<polygon class="st14" points="908,77.1 908,77.1 910,75.2 905.9,71.1 910.2,66.8 909.2,65.7 904.9,70.1 903.5,71.3 903.3,71.6 
		902.9,72 	"/>
	<polygon class="st12" points="910.2,66.8 915.2,71.8 918,74.5 920.1,72.4 912.4,64.5 911.4,63.6 909.5,65.4 909.2,65.7 	"/>
	<path class="st12" d="M869.9,104.4l-15.4,15.4l0.3,0.3l15.4-15.4C870.1,104.6,870,104.5,869.9,104.4z"/>
	<path class="st15" d="M869.9,104.4c0.1,0.1,0.2,0.2,0.3,0.3l1.2-1.2l7-7l-1-1l-7.7,7.7C869.7,103.1,869.5,103.7,869.9,104.4z"/>
	<polygon class="st12" points="877.3,95.4 878.4,96.5 879.4,95.4 878.4,94.4 874.3,90.4 897.7,66.9 897.7,66.9 899.7,64.9 
		903.8,68.9 908.1,64.7 903,59.6 872.3,90.4 	"/>
	<polygon class="st7" points="878.4,94.4 879.4,95.4 881.2,93.7 902.9,72 897.7,66.9 874.3,90.4 	"/>
	<polygon class="st16" points="929.5,43.3 910.3,62.5 911.4,63.6 930.5,44.4 931.7,43.3 932.5,42.5 926.1,36.1 924.1,38 	"/>
	<polygon class="st16" points="897.7,66.9 902.9,72 903.3,71.6 903.5,71.3 904.9,70.1 909.2,65.7 908.1,64.7 903.8,68.9 899.7,64.9 
			"/>
	<polygon class="st15" points="903,59.6 908.1,64.7 909.2,65.7 909.5,65.4 911.4,63.6 910.3,62.5 902.5,54.6 900.3,56.9 	"/>
	<g class="st17">
		
			<rect x="878.5" y="88.5" transform="matrix(0.7071 -0.7071 0.7071 0.7071 192.6031 648.2294)" class="st4" width="0.6" height="6.2"/>
		
			<rect x="881" y="86.1" transform="matrix(0.7071 -0.7071 0.7071 0.7071 195.0231 649.2996)" class="st4" width="0.6" height="6.2"/>
		
			<rect x="883.4" y="83.7" transform="matrix(0.7071 -0.7071 0.7071 0.7071 197.4667 650.3127)" class="st4" width="0.6" height="6.2"/>
		
			<rect x="885.9" y="81.2" transform="matrix(0.7071 -0.7071 0.7071 0.7071 199.9752 651.3465)" class="st4" width="0.6" height="6.2"/>
		
			<rect x="888.3" y="78.8" transform="matrix(0.7071 -0.7071 0.7071 0.7071 202.3582 652.3264)" class="st4" width="0.6" height="6.2"/>
		
			<rect x="890.8" y="76.3" transform="matrix(0.7071 -0.7071 0.7071 0.7071 204.8679 653.3591)" class="st4" width="0.6" height="6.2"/>
		
			<rect x="893.2" y="73.9" transform="matrix(0.7071 -0.7071 0.7071 0.7071 207.2346 654.3826)" class="st4" width="0.6" height="6.2"/>
		
			<rect x="895.7" y="71.5" transform="matrix(0.7071 -0.7071 0.7071 0.7071 209.7022 655.4249)" class="st4" width="0.6" height="6.2"/>
		<rect x="898" y="69" transform="matrix(0.7071 -0.7071 0.7071 0.7071 212.106 656.3239)" class="st4" width="0.6" height="6.2"/>
	</g>
</g>
<g>
	<path class="st11" d="M870.2,524.1l-15.4,15.4l0.2,0.2l15.4-15.4C870.5,524.2,870.4,524.2,870.2,524.1L870.2,524.1z"/>
	<path class="st12" d="M870.2,524.1c0.1,0.1,0.2,0.2,0.3,0.2c0.6,0.5,1.3,0.3,1.3,0.3l7.7-7.7l-1-1l-7,7L870.2,524.1L870.2,524.1z"
		/>
	<polygon class="st11" points="879.4,516.9 884.5,522.1 915.2,491.3 910.2,486.2 905.9,490.5 910,494.6 908,496.5 908,496.5 
		884.5,520 880.5,515.9 879.4,514.9 878.4,515.9 	"/>
	<polygon class="st18" points="880.5,515.9 884.5,520 908,496.5 902.9,491.4 881.2,513.1 879.4,514.9 	"/>
	<polygon class="st14" points="912.4,484 931.6,464.9 936.9,470.2 938.8,468.2 932.5,461.9 931.7,462.7 930.5,463.8 911.4,483 	"/>
	<polygon class="st14" points="908,496.5 908,496.5 910,494.6 905.9,490.5 910.2,486.2 909.2,485.2 904.9,489.5 903.5,490.8 
		903.3,491 902.9,491.4 	"/>
	<polygon class="st12" points="910.2,486.2 915.2,491.3 918,494 920.1,491.8 912.4,484 911.4,483 909.5,484.9 909.2,485.2 	"/>
	<path class="st12" d="M869.9,523.8l-15.4,15.4l0.3,0.3l15.4-15.4C870.1,524.1,870,523.9,869.9,523.8z"/>
	<path class="st15" d="M869.9,523.8c0.1,0.1,0.2,0.2,0.3,0.4l1.2-1.2l7-7l-1-1.1l-7.7,7.7C869.7,522.5,869.5,523.1,869.9,523.8z"/>
	<polygon class="st12" points="877.3,514.9 878.4,515.9 879.4,514.9 878.4,513.8 874.3,509.8 897.7,486.3 897.7,486.3 899.7,484.3 
		903.8,488.4 908.1,484.1 903,479 872.3,509.8 	"/>
	<polygon class="st19" points="878.4,513.8 879.4,514.9 881.2,513.1 902.9,491.4 897.7,486.3 874.3,509.8 	"/>
	<polygon class="st16" points="929.5,462.8 910.3,481.9 911.4,483 930.5,463.8 931.7,462.7 932.5,461.9 926.1,455.5 924.1,457.4 	
		"/>
	<polygon class="st16" points="897.7,486.3 902.9,491.4 903.3,491 903.5,490.8 904.9,489.5 909.2,485.2 908.1,484.1 903.8,488.4 
		899.7,484.3 	"/>
	<polygon class="st15" points="903,479 908.1,484.1 909.2,485.2 909.5,484.9 911.4,483 910.3,481.9 902.5,474.1 900.3,476.3 	"/>
	<g class="st17">
		
			<rect x="878.5" y="508" transform="matrix(0.7071 -0.7071 0.7071 0.7071 -104.0001 771.1222)" class="st4" width="0.6" height="6.2"/>
		
			<rect x="881" y="505.6" transform="matrix(0.7071 -0.7071 0.7071 0.7071 -101.5802 772.1924)" class="st4" width="0.6" height="6.2"/>
		
			<rect x="883.4" y="503.1" transform="matrix(0.7071 -0.7071 0.7071 0.7071 -99.1071 773.1349)" class="st4" width="0.6" height="6.2"/>
		
			<rect x="885.9" y="500.6" transform="matrix(0.7071 -0.7071 0.7071 0.7071 -96.599 774.1683)" class="st4" width="0.6" height="6.2"/>
		
			<rect x="888.3" y="498.2" transform="matrix(0.7071 -0.7071 0.7071 0.7071 -94.2158 775.1484)" class="st4" width="0.6" height="6.2"/>
		
			<rect x="890.8" y="495.7" transform="matrix(0.7071 -0.7071 0.7071 0.7071 -91.706 776.1811)" class="st4" width="0.6" height="6.2"/>
		
			<rect x="893.2" y="493.3" transform="matrix(0.7071 -0.7071 0.7071 0.7071 -89.3393 777.2047)" class="st4" width="0.6" height="6.2"/>
		
			<rect x="895.7" y="490.9" transform="matrix(0.7071 -0.7071 0.7071 0.7071 -86.8716 778.2472)" class="st4" width="0.6" height="6.2"/>
		
			<rect x="898" y="488.5" transform="matrix(0.7071 -0.7071 0.7071 0.7071 -84.4974 779.2164)" class="st4" width="0.6" height="6.2"/>
	</g>
</g>
<g>
	<path class="st11" d="M870.2,315.2l-15.4,15.4l0.2,0.2l15.4-15.4C870.5,315.3,870.4,315.3,870.2,315.2L870.2,315.2z"/>
	<path class="st12" d="M870.2,315.2c0.1,0.1,0.2,0.2,0.3,0.2c0.6,0.5,1.3,0.3,1.3,0.3l7.7-7.7l-1-1l-7,7L870.2,315.2L870.2,315.2z"
		/>
	<polygon class="st11" points="879.4,308 884.5,313.1 915.2,282.3 910.2,277.3 905.9,281.6 910,285.7 908,287.6 908,287.6 
		884.5,311 880.5,306.9 879.4,305.9 878.4,306.9 	"/>
	<polygon class="st6" points="880.5,306.9 884.5,311 908,287.6 902.9,282.5 881.2,304.1 879.4,305.9 	"/>
	<polygon class="st14" points="912.4,275 931.6,255.9 936.9,261.3 938.8,259.3 932.5,252.9 931.7,253.7 930.5,254.9 911.4,274.1 	
		"/>
	<polygon class="st14" points="908,287.6 908,287.6 910,285.7 905.9,281.6 910.2,277.3 909.2,276.2 904.9,280.5 903.5,281.8 
		903.3,282.1 902.9,282.5 	"/>
	<polygon class="st12" points="910.2,277.3 915.2,282.3 918,285 920.1,282.9 912.4,275 911.4,274.1 909.5,275.9 909.2,276.2 	"/>
	<path class="st12" d="M869.9,314.9l-15.4,15.4l0.3,0.3l15.4-15.4C870.1,315.1,870,314.9,869.9,314.9z"/>
	<path class="st15" d="M869.9,314.9c0.1,0.1,0.2,0.2,0.3,0.4l1.2-1.2l7-7l-1-1l-7.7,7.7C869.7,313.6,869.5,314.1,869.9,314.9z"/>
	<polygon class="st12" points="877.3,305.9 878.4,306.9 879.4,305.9 878.4,304.9 874.3,300.9 897.7,277.3 897.7,277.3 899.7,275.3 
		903.8,279.4 908.1,275.2 903,270.1 872.3,300.9 	"/>
	<polygon class="st20" points="878.4,304.9 879.4,305.9 881.2,304.1 902.9,282.5 897.7,277.3 874.3,300.9 	"/>
	<polygon class="st16" points="929.5,253.8 910.3,272.9 911.4,274.1 930.5,254.9 931.7,253.7 932.5,252.9 926.1,246.5 924.1,248.5 	
		"/>
	<polygon class="st16" points="897.7,277.3 902.9,282.5 903.3,282.1 903.5,281.8 904.9,280.5 909.2,276.2 908.1,275.2 903.8,279.4 
		899.7,275.3 	"/>
	<polygon class="st15" points="903,270.1 908.1,275.2 909.2,276.2 909.5,275.9 911.4,274.1 910.3,272.9 902.5,265.1 900.3,267.3 	
		"/>
	<g class="st17">
		
			<rect x="878.5" y="299" transform="matrix(0.7071 -0.7071 0.7071 0.7071 43.767 709.8912)" class="st4" width="0.6" height="6.2"/>
		
			<rect x="881" y="296.6" transform="matrix(0.7071 -0.7071 0.7071 0.7071 46.187 710.9615)" class="st4" width="0.6" height="6.2"/>
		
			<rect x="883.4" y="294.1" transform="matrix(0.7071 -0.7071 0.7071 0.7071 48.6599 711.904)" class="st4" width="0.6" height="6.2"/>
		
			<rect x="885.9" y="291.6" transform="matrix(0.7071 -0.7071 0.7071 0.7071 51.1682 712.9376)" class="st4" width="0.6" height="6.2"/>
		
			<rect x="888.3" y="289.3" transform="matrix(0.7071 -0.7071 0.7071 0.7071 53.522 713.9882)" class="st4" width="0.6" height="6.2"/>
		
			<rect x="890.8" y="286.8" transform="matrix(0.7071 -0.7071 0.7071 0.7071 56.0319 715.0209)" class="st4" width="0.6" height="6.2"/>
		
			<rect x="893.2" y="284.4" transform="matrix(0.7071 -0.7071 0.7071 0.7071 58.3985 716.0446)" class="st4" width="0.6" height="6.2"/>
		
			<rect x="895.7" y="282" transform="matrix(0.7071 -0.7071 0.7071 0.7071 60.866 717.0869)" class="st4" width="0.6" height="6.2"/>
		
			<rect x="898" y="279.5" transform="matrix(0.7071 -0.7071 0.7071 0.7071 63.2699 717.9857)" class="st4" width="0.6" height="6.2"/>
	</g>
</g>
</svg>
