<?xml version="1.0" encoding="utf-8"?>
<!-- Generator: Adobe Illustrator 24.1.0, SVG Export Plug-In . SVG Version: 6.00 Build 0)  -->
<svg version="1.1" id="Capa_1" xmlns="http://www.w3.org/2000/svg" xmlns:xlink="http://www.w3.org/1999/xlink" x="0px" y="0px"
	 viewBox="0 0 931.6 409.4" style="enable-background:new 0 0 931.6 409.4;" xml:space="preserve">
<style type="text/css">
	.st0{fill:#E57853;}
	.st1{fill:#F9BEAA;}
	.st2{fill:#FFA17B;}
	.st3{opacity:0.25;}
</style>
<g>
	<path class="st0" d="M135.1,190.5c-2.7-5.1-11.7-49-11.7-49s-4-15.6-4.4-38.6c-0.3-18.5-3.4-25.8-11.1-29.4
		c-6.2-10.3-0.2-29.5-5.4-35.1c-5.3-5.7,8-27.5-26.8-30C66,7.6,58.9,13,56.8,15.7c-4.6,5.9-10.3,16.7-7.7,20.4
		c2.8,4-11.9,15.8-5.9,25.7c2.3,3.8-0.4,8.3-2.5,13.1c-6.5,4.5-8.5,12.9-8.7,28c-0.2,23-4.4,38.6-4.4,38.6s-9,43.9-11.7,49
		c-2.7,5.1-8.1,8.6-10.9,19.1c-0.9,3.2,5.1-4.1,5.1-4.1s-4,16.4-2.7,17.7c1.7,0.4,4.2-9.1,5.2-12.5c-0.7,2.9-1.8,13.1-0.8,13.2
		c2.1,0.2,4.6-12.3,4.6-12.3s-2.3,11.9-0.6,12.3c1.7,0.4,4-12.3,4-12.3s-1,8.5,0.3,9.3c1.4,0.8,5.1-20.3,6.5-27
		c2.5-11.8,12.9-38.3,15.2-46.8c0.5-2,1.1-4.9,1.7-8.2c0,0,0.1,0,0.1,0c1.4-8.6,2.9-19.8,3.6-24.9c0.7,2.5,2.7,11.2,2.7,11.2
		c1.5,10.1,2.7,22.9,0.5,29.1c-2,5.7-4.7,10.5-7,17.8c0,0-3.7,13.4-4.5,24.1c0,0,0.2,3,0.2,4.6c-1,27.7,7.1,71.6,5.7,77.1
		c-1.3,5.5-3,40,0.6,53c3.1,11.2,8.7,51.9,0.9,61.8c-4.9,6.2-11.6,10.3-6.8,11.8c11.8,3.7,18-0.2,23.1-3.2c-0.3,0,3.9-1.7,1.7-9.9
		c-2.3-8.8,1.1-65.3,1.3-88.6c1.9-30.7,9.3-93.8,9.8-97.7l0,0l0,0c0.5,3.9,8.1,66.9,10,97.7c0.1,23.2,6.5,66.7,3.9,84.3
		c-4.2,13.4-0.9,14.2-0.9,14.2s12.5,5.6,23.1,3.2c5.9-1.3-4.6-7.1-7.6-14.8c-3-7.7-0.9-45.6,1.8-58.8c2.7-13.1,1.9-47.5,0.6-53
		c-1.3-5.5,6.7-49.4,5.7-77.1c-0.1-2-0.2-4-0.3-5.9l-3.7-22.8c-2.4-8.5-5.2-14.2-7.3-20.2c-2.1-6-1-17.5,0.3-26.7
		c0,0,2.1-8.5,2.9-11.1c0.9,7.1,3.2,26.1,5.1,33c2.3,8.6,12.7,35,15.2,46.8c1.4,6.6,5.2,27.8,6.5,27c1.4-0.8,0.3-9.3,0.3-9.3
		s2.3,12.7,4,12.3c1.7-0.4-0.6-12.3-0.6-12.3s2.6,12.5,4.6,12.3c1-0.1-0.1-10.2-0.8-13.2c1,3.3,3.4,12.9,5.2,12.5
		c1.3-1.3-2.7-17.7-2.7-17.7s6,7.3,5.1,4.1C143.2,199.2,137.8,195.7,135.1,190.5z"/>
	<path class="st1" d="M461.6,209.6c-2.9-10.4-8.2-14-10.9-19.1c-2.7-5.1-11.7-49-11.7-49s-4-15.6-4.4-38.6
		c-0.4-23-5.1-28.7-17.6-31.5c0,0,0,0,0,0c-1.4-0.3-2.7-0.6-3.9-0.9c-0.1-0.3-0.1-0.6-0.2-0.9l-3.1,0.1c-7.4-1.8-10.8-2.8-10.8-2.8
		v-4.3c12-3.2,20.7-13.9,20.7-26.5c0-15.2-12.7-27.5-28.4-27.5c-15.7,0-28.4,12.3-28.4,27.5c0,12.2,8.2,22.6,19.6,26.2v4.6
		c0,0-3,1.3-11.1,3.2c0-0.1,0-0.1,0-0.2c-1.7,0.4-3.7,0.9-6,1.4c0,0,0,0,0,0c-13.8,2.7-17.7,10.9-17.8,31.5
		c-0.2,23-4.4,38.6-4.4,38.6s-9,43.9-11.7,49c-2.7,5.1-8.1,8.6-10.9,19.1c-0.9,3.2,5.1-4.1,5.1-4.1s-4,16.4-2.7,17.7
		c1.7,0.4,4.2-9.1,5.2-12.5c-0.7,2.9-1.8,13.1-0.8,13.2c2.1,0.2,4.6-12.3,4.6-12.3s-2.3,11.9-0.6,12.3c1.7,0.4,4-12.3,4-12.3
		s-1,8.5,0.3,9.3c1.4,0.8,5.1-20.3,6.5-27c2.5-11.8,12.9-38.3,15.2-46.8c0.5-2,1.1-4.9,1.7-8.2c0,0,0.1,0,0.1,0
		c1.4-8.6,2.9-19.8,3.6-24.9c0.7,2.5,2.7,11.2,2.7,11.2c1.5,10.1,2.7,22.9,0.5,29.1c-2,5.7-7.6,17.8-7.6,17.8
		c-2.4,5.9-3.2,13.4-4,24.1c0,0,0.2,3,0.2,4.6c-1,27.7,7.1,71.6,5.7,77.1c-1.3,5.5-3,40,0.6,53c3.1,11.2,8.7,51.9,0.9,61.8
		c-4.9,6.2-11.6,10.3-6.8,11.8c11.8,3.7,18-0.2,23.1-3.2c-0.3,0,3.9-1.7,1.7-9.9c-2.3-8.8,1.1-65.3,1.3-88.6
		c1.9-30.7,9.3-93.8,9.8-97.7l0,0l0,0c0.5,3.9,8.1,66.9,10,97.7c0.1,23.2,6.5,66.7,3.9,84.3c-4.2,13.4-0.9,14.2-0.9,14.2
		s12.5,5.6,23.1,3.2c5.9-1.3-4.6-7.1-7.6-14.8c-3-7.7-0.9-45.6,1.8-58.8c2.7-13.1,1.9-47.5,0.6-53s6.7-49.4,5.7-77.1
		c-0.1-2,0.1-6,0.1-6c-0.9-10-1.6-17.1-3.9-22.7c0,0-5.5-14.2-7.6-20.2c-2.1-6-1-17.5,0.3-26.7c0,0,2.1-8.5,2.9-11.1
		c0.9,7.1,3.2,26.1,5.1,33c2.3,8.6,12.7,35,15.2,46.8c1.4,6.6,5.2,27.8,6.5,27c1.4-0.8,0.3-9.3,0.3-9.3s2.3,12.7,4,12.3
		c1.7-0.4-0.6-12.3-0.6-12.3s2.6,12.5,4.6,12.3c1-0.1-0.1-10.2-0.8-13.2c1,3.3,3.4,12.9,5.2,12.5c1.3-1.3-2.7-17.7-2.7-17.7
		S462.4,212.8,461.6,209.6z"/>
	<path class="st2" d="M295.1,145.3c0,0-7.8-43.6-9.1-56.9c-1.3-13.3-20.9-17.8-20.9-17.8l-19.6-5l-0.3-8.5c2.2-2.3,4-5.2,4.8-8.4
		c0.4-1.3,0.6-3,0.9-4.8c4.9,0.8,4.7-8.9,2.5-11.4c0,0,0,0,0,0c0.7-2.8,1.1-5.6,1.1-8c0-11.5-8.7-19.7-20.8-19.7
		c-12.1,0-20.8,8.2-20.8,19.7c0,2.4,0.4,5.2,1.1,8.1c0,0,0,0,0,0c-2.2,2.6-2.3,12.1,2.5,11.3c0.2,1.8,0.5,3.5,0.9,4.8
		c0.9,3.2,2.6,6.2,4.8,8.4l-0.3,8.5l-19.6,5c0,0-19.6,4.4-20.9,17.8c-1.3,13.3-9.1,56.9-9.1,56.9l-11.7,51.2
		c-0.6,0.9-9.6,14.2-8,16.9c1.7,2.8,5.7-5.7,5.7-5.7s-4.3,18-2.3,19.6c1.2,1,4.6-10.7,5.6-13.9c-0.6,2.8-3.1,14-1.9,14.7
		c2,1.2,5.2-12.8,5.2-12.8s-2.9,12.4-1.3,12.8c1.7,0.4,4.7-11.7,4.7-11.7s-1.7,8-0.4,8.8c1.3,0.8,5.2-9.6,5.6-17.2
		c0.2-4.4,0.3-9.4,0.3-9.4c1.5-3.1,13.4-28.2,14.6-37.4c1.3-9.8,9.3-38.7,9.3-38.7l3.2,20.5l-2.2,33.7c0,0,0,0.1,0,0.2
		c0,0-3.9,29.9-4.3,45.7c-0.1,2.9,0.1,6.4,0.4,10.3c0,0,4.8,41.1,6.4,47.2c-4.6,32.1,13.4,102.7,8.1,108.9
		c-5.2,6.1-12.1,12.7-6.8,15.6c5.3,2.9,23.1,3.4,24.1-1.4c1-4.8-1.8-6.2-2.7-14.1c-1.5-12.2,2.8-30.8,3.7-40.5
		c0.9-9.9,1.9-28.4-2.3-62.2c1.2-20,3.2-38.9,4.9-53.4l3.6-27.3l3.6,27.3c1.7,14.5,3.6,33.4,4.9,53.4c-4.6,33.2-2.9,45.1-1.9,55.1
		c0.9,9.3,6.6,38.1,3.3,47.6c-3.3,9.4-3.7,9.3-2.7,14.1c1,4.8,18.9,4.3,24.1,1.4c5.3-2.9,1.2-2.9-6.8-15.6
		c-8-12.7,12.8-76.7,8.1-108.9c1.5-6.1,4.6-29.4,5.4-47.2l-2.9-56c0-0.1,0-0.2,0-0.2l-2.2-33.7l3.2-20.5c0,0,7.9,28.9,9.3,38.7
		c1.3,9.2,13.2,34.3,14.6,37.4c0,0,0,4.9,0.3,9.4c0.4,7.6,4.3,18,5.6,17.2s-0.9-11.4-0.9-11.4s3.4,14.7,5.1,14.3
		c1.7-0.4-1.8-15.7-1.8-15.7s3.8,16.9,5.8,15.7c1.2-0.7-1.8-14.2-2.5-17.1c1,3.2,4.9,17.3,6.2,16.3c2-1.6-2.4-20-2.4-20
		s2.8,6.6,5.4,6.8c3.1,0.3-7.1-16.7-7.7-17.6L295.1,145.3z M252.6,31.9c-0.1,0-0.2,0-0.3-0.1C252.4,31.9,252.5,31.9,252.6,31.9z
		 M252.9,32C252.9,32,252.9,32,252.9,32C252.9,32,252.9,32,252.9,32z M214.3,32.3C214.3,32.3,214.3,32.3,214.3,32.3
		C214.3,32.3,214.3,32.3,214.3,32.3z M214.6,32.1C214.6,32.1,214.6,32.1,214.6,32.1C214.6,32.1,214.6,32.1,214.6,32.1z M214.9,31.9
		C214.9,31.9,214.9,31.9,214.9,31.9C214.9,31.9,214.9,31.9,214.9,31.9z"/>
</g>
<g class="st3">
	<path class="st0" d="M600.5,190.5c-2.7-5.1-11.7-49-11.7-49s-4-15.6-4.4-38.6c-0.3-18.5-3.4-25.8-11.1-29.4
		c-6.2-10.3-0.2-29.5-5.4-35.1c-5.3-5.7,8-27.5-26.8-30c-9.7-0.7-16.7,4.6-18.8,7.4c-4.6,5.9-10.3,16.7-7.7,20.4
		c2.8,4-11.9,15.8-5.9,25.7c2.3,3.8-0.4,8.3-2.5,13.1c-6.5,4.5-8.5,12.9-8.7,28c-0.2,23-4.4,38.6-4.4,38.6s-9,43.9-11.7,49
		c-2.7,5.1-8.1,8.6-10.9,19.1c-0.9,3.2,5.1-4.1,5.1-4.1s-4,16.4-2.7,17.7c1.7,0.4,4.2-9.1,5.2-12.5c-0.7,2.9-1.8,13.1-0.8,13.2
		c2.1,0.2,4.6-12.3,4.6-12.3s-2.3,11.9-0.6,12.3c1.7,0.4,4-12.3,4-12.3s-1,8.5,0.3,9.3c1.4,0.8,5.1-20.3,6.5-27
		c2.5-11.8,12.9-38.3,15.2-46.8c0.5-2,1.1-4.9,1.7-8.2c0,0,0.1,0,0.1,0c1.4-8.6,2.9-19.8,3.6-24.9c0.7,2.5,2.7,11.2,2.7,11.2
		c1.5,10.1,2.7,22.9,0.5,29.1c-2,5.7-4.7,10.5-7,17.8c0,0-3.7,13.4-4.5,24.1c0,0,0.2,3,0.2,4.6c-1,27.7,7.1,71.6,5.7,77.1
		c-1.3,5.5-3,40,0.6,53c3.1,11.2,8.7,51.9,0.9,61.8c-4.9,6.2-11.6,10.3-6.8,11.8c11.8,3.7,18-0.2,23.1-3.2c-0.3,0,3.9-1.7,1.7-9.9
		c-2.3-8.8,1.1-65.3,1.3-88.6c1.9-30.7,9.3-93.8,9.8-97.7l0,0l0,0c0.5,3.9,8.1,66.9,10,97.7c0.1,23.2,6.5,66.7,3.9,84.3
		c-4.2,13.4-0.9,14.2-0.9,14.2s12.5,5.6,23.1,3.2c5.9-1.3-4.6-7.1-7.6-14.8s-0.9-45.6,1.8-58.8c2.7-13.1,1.9-47.5,0.6-53
		c-1.3-5.5,6.7-49.4,5.7-77.1c-0.1-2-0.2-4-0.3-5.9l-3.7-22.8c-2.4-8.5-5.2-14.2-7.3-20.2c-2.1-6-1-17.5,0.3-26.7
		c0,0,2.1-8.5,2.9-11.1c0.9,7.1,3.2,26.1,5.1,33c2.3,8.6,12.7,35,15.2,46.8c1.4,6.6,5.2,27.8,6.5,27c1.4-0.8,0.3-9.3,0.3-9.3
		s2.3,12.7,4,12.3c1.7-0.4-0.6-12.3-0.6-12.3s2.6,12.5,4.6,12.3c1-0.1-0.1-10.2-0.8-13.2c1,3.3,3.4,12.9,5.2,12.5
		c1.3-1.3-2.7-17.7-2.7-17.7s6,7.3,5.1,4.1C608.5,199.2,603.1,195.7,600.5,190.5z"/>
	<path class="st1" d="M926.9,209.6c-2.9-10.4-8.2-14-10.9-19.1c-2.7-5.1-11.7-49-11.7-49s-4-15.6-4.4-38.6
		c-0.4-23-5.1-28.7-17.6-31.5c0,0,0,0,0,0c-1.4-0.3-2.7-0.6-3.9-0.9c-0.1-0.3-0.1-0.6-0.2-0.9l-3.1,0.1c-7.4-1.8-10.8-2.8-10.8-2.8
		v-4.3c12-3.2,20.7-13.9,20.7-26.5c0-15.2-12.7-27.5-28.4-27.5c-15.7,0-28.4,12.3-28.4,27.5c0,12.2,8.2,22.6,19.6,26.2v4.6
		c0,0-3,1.3-11.1,3.2c0-0.1,0-0.1,0-0.2c-1.7,0.4-3.7,0.9-6,1.4c0,0,0,0,0,0c-13.8,2.7-17.7,10.9-17.8,31.5
		c-0.2,23-4.4,38.6-4.4,38.6s-9,43.9-11.7,49c-2.7,5.1-8.1,8.6-10.9,19.1c-0.9,3.2,5.1-4.1,5.1-4.1s-4,16.4-2.7,17.7
		c1.7,0.4,4.2-9.1,5.2-12.5c-0.7,2.9-1.8,13.1-0.8,13.2c2.1,0.2,4.6-12.3,4.6-12.3s-2.3,11.9-0.6,12.3c1.7,0.4,4-12.3,4-12.3
		s-1,8.5,0.3,9.3c1.4,0.8,5.1-20.3,6.5-27c2.5-11.8,12.9-38.3,15.2-46.8c0.5-2,1.1-4.9,1.7-8.2c0,0,0.1,0,0.1,0
		c1.4-8.6,2.9-19.8,3.6-24.9c0.7,2.5,2.7,11.2,2.7,11.2c1.5,10.1,2.7,22.9,0.5,29.1c-2,5.7-7.6,17.8-7.6,17.8
		c-2.4,5.9-3.2,13.4-4,24.1c0,0,0.2,3,0.2,4.6c-1,27.7,7.1,71.6,5.7,77.1c-1.3,5.5-3,40,0.6,53c3.1,11.2,8.7,51.9,0.9,61.8
		c-4.9,6.2-11.6,10.3-6.8,11.8c11.8,3.7,18-0.2,23.1-3.2c-0.3,0,3.9-1.7,1.7-9.9c-2.3-8.8,1.1-65.3,1.3-88.6
		c1.9-30.7,9.3-93.8,9.8-97.7l0,0l0,0c0.5,3.9,8.1,66.9,10,97.7c0.1,23.2,6.5,66.7,3.9,84.3c-4.2,13.4-0.9,14.2-0.9,14.2
		s12.5,5.6,23.1,3.2c5.9-1.3-4.6-7.1-7.6-14.8c-3-7.7-0.9-45.6,1.8-58.8c2.7-13.1,1.9-47.5,0.6-53s6.7-49.4,5.7-77.1
		c-0.1-2,0.1-6,0.1-6c-0.9-10-1.6-17.1-3.9-22.7c0,0-5.5-14.2-7.6-20.2c-2.1-6-1-17.5,0.3-26.7c0,0,2.1-8.5,2.9-11.1
		c0.9,7.1,3.2,26.1,5.1,33c2.3,8.6,12.7,35,15.2,46.8c1.4,6.6,5.2,27.8,6.5,27c1.4-0.8,0.3-9.3,0.3-9.3s2.3,12.7,4,12.3
		c1.7-0.4-0.6-12.3-0.6-12.3s2.6,12.5,4.6,12.3c1-0.1-0.1-10.2-0.8-13.2c1,3.3,3.4,12.9,5.2,12.5c1.3-1.3-2.7-17.7-2.7-17.7
		S927.8,212.8,926.9,209.6z"/>
	<path class="st2" d="M760.5,145.3c0,0-7.8-43.6-9.1-56.9C750,75,730.5,70.6,730.5,70.6l-19.6-5l-0.3-8.5c2.2-2.3,4-5.2,4.8-8.4
		c0.4-1.3,0.6-3,0.9-4.8c4.9,0.8,4.7-8.9,2.5-11.4c0,0,0,0,0,0c0.7-2.8,1.1-5.6,1.1-8c0-11.5-8.7-19.7-20.8-19.7
		c-12.1,0-20.8,8.2-20.8,19.7c0,2.4,0.4,5.2,1.1,8.1c0,0,0,0,0,0c-2.2,2.6-2.3,12.1,2.5,11.3c0.2,1.8,0.5,3.5,0.9,4.8
		c0.9,3.2,2.6,6.2,4.8,8.4l-0.3,8.5l-19.6,5c0,0-19.6,4.4-20.9,17.8c-1.3,13.3-9.1,56.9-9.1,56.9l-11.7,51.2
		c-0.6,0.9-9.6,14.2-8,16.9c1.7,2.8,5.7-5.7,5.7-5.7s-4.3,18-2.3,19.6c1.2,1,4.6-10.7,5.6-13.9c-0.6,2.8-3.1,14-1.9,14.7
		c2,1.2,5.2-12.8,5.2-12.8s-2.9,12.4-1.3,12.8c1.7,0.4,4.7-11.7,4.7-11.7s-1.7,8-0.4,8.8c1.3,0.8,5.2-9.6,5.6-17.2
		c0.2-4.4,0.3-9.4,0.3-9.4c1.5-3.1,13.4-28.2,14.6-37.4c1.3-9.8,9.3-38.7,9.3-38.7l3.2,20.5l-2.2,33.7c0,0,0,0.1,0,0.2
		c0,0-3.9,29.9-4.3,45.7c-0.1,2.9,0.1,6.4,0.4,10.3c0,0,4.8,41.1,6.4,47.2c-4.6,32.1,13.4,102.7,8.1,108.9s-12.1,12.7-6.8,15.6
		c5.3,2.9,23.1,3.4,24.1-1.4c1-4.8-1.8-6.2-2.7-14.1c-1.5-12.2,2.8-30.8,3.7-40.5c0.9-9.9,1.9-28.4-2.3-62.2
		c1.2-20,3.2-38.9,4.9-53.4l3.6-27.3l3.6,27.3c1.7,14.5,3.6,33.4,4.9,53.4c-4.6,33.2-2.9,45.1-1.9,55.1c0.9,9.3,6.6,38.1,3.3,47.6
		c-3.3,9.4-3.7,9.3-2.7,14.1c1,4.8,18.9,4.3,24.1,1.4c5.3-2.9,1.2-2.9-6.8-15.6c-8-12.7,12.8-76.7,8.1-108.9
		c1.5-6.1,4.6-29.4,5.4-47.2l-2.9-56c0-0.1,0-0.2,0-0.2l-2.2-33.7l3.2-20.5c0,0,7.9,28.9,9.3,38.7c1.3,9.2,13.2,34.3,14.6,37.4
		c0,0,0,4.9,0.3,9.4c0.4,7.6,4.3,18,5.6,17.2c1.3-0.8-0.9-11.4-0.9-11.4s3.4,14.7,5.1,14.3c1.7-0.4-1.8-15.7-1.8-15.7
		s3.8,16.9,5.8,15.7c1.2-0.7-1.8-14.2-2.5-17.1c1,3.2,4.9,17.3,6.2,16.3c2-1.6-2.4-20-2.4-20s2.8,6.6,5.4,6.8
		c3.1,0.3-7.1-16.7-7.7-17.6L760.5,145.3z M718,31.9c-0.1,0-0.2,0-0.3-0.1C717.8,31.9,717.9,31.9,718,31.9z M718.2,32
		C718.2,32,718.2,32,718.2,32C718.2,32,718.2,32,718.2,32z M679.7,32.3C679.7,32.3,679.7,32.3,679.7,32.3
		C679.7,32.3,679.7,32.3,679.7,32.3z M679.9,32.1C679.9,32.1,680,32.1,679.9,32.1C680,32.1,679.9,32.1,679.9,32.1z M680.2,31.9
		C680.2,31.9,680.3,31.9,680.2,31.9C680.3,31.9,680.2,31.9,680.2,31.9z"/>
</g>
</svg>
