<?xml version="1.0" encoding="utf-8"?>
<!-- Generator: Adobe Illustrator 24.1.0, SVG Export Plug-In . SVG Version: 6.00 Build 0)  -->
<svg version="1.1" id="Capa_1" xmlns="http://www.w3.org/2000/svg" xmlns:xlink="http://www.w3.org/1999/xlink" x="0px" y="0px"
	 viewBox="0 0 967.4 738.9" style="enable-background:new 0 0 967.4 738.9;" xml:space="preserve">
<style type="text/css">
	.st0{fill:#F7F7F7;}
	.st1{fill:#373A47;}
	.st2{fill:#E0EADF;}
	.st3{fill:#C0D9DF;}
	.st4{fill:#FFFFFF;}
	.st5{fill:#CC9933;}
	.st6{fill:#FA7F43;}
	.st7{fill:#005372;}
	.st8{fill:#FFFFFF;stroke:#CC9933;stroke-miterlimit:10;}
	.st9{fill:#FFFFFF;stroke:#FA7F43;stroke-miterlimit:10;}
	.st10{fill:#FFFFFF;stroke:#005372;stroke-width:0.5669;stroke-miterlimit:10;}
	.st11{fill:none;stroke:#005372;stroke-miterlimit:10;}
	.st12{fill:none;stroke:#FA7F43;stroke-miterlimit:10;}
	.st13{fill:none;stroke:#CCCC66;stroke-miterlimit:10;}
</style>
<path class="st0" d="M687.4,164.7c-0.3,6.6-0.6,13.1-1,19.7c-1.4,19.9,1.4,39.4,3.3,59.1c1.5,16,0.3,32.3-0.1,48.5
	c-0.4,14.9-1.9,29.6-5.5,44.2c-0.8,3.1-0.3,6.6-0.3,9.9c0,13.9-0.2,27.8,0,41.6c0.1,9.2,0.9,18.5,1.1,27.7c0.5,17.1-2.1,34-5.8,50.6
	c-1.8,8.2-1.3,15.9,2.8,23.5c2.9,5.3,4.9,11,7.3,16.6c3.7,8.9-3.3,13.5-10.6,14.1c-0.6,0.1-1.1-0.3-1.7-0.2
	c-2.4,0.1-5.9,1.4-7.1,0.3c-2.6-2.6-5-6.2-5.8-9.7c-1.3-5.9-1.5-12-5-17.3c-0.8-1.3-0.7-3.4-0.5-5.1c2.7-18,1.6-35.6-3.5-53.1
	c-3.3-11.6-1.9-23.6-0.8-35.3c1.1-11.9,0.6-23.5-1.6-35.3c-2.1-11.3-2.1-23-2.8-34.5c-1-15-1.8-30-2.7-45c0-0.8-0.5-1.5-1.6-2.4
	c-0.3,1.4-0.8,2.8-0.9,4.2c-1.2,19.2-2.1,38.4-3.5,57.5c-0.7,9.2-2.5,18.3-3.2,27.4c-0.6,8.3-0.6,16.7-0.5,25
	c0,11.1,0.8,22.2,0.2,33.3c-0.4,6.8-2.9,13.5-4.3,20.3c-2.4,11.9-1.5,23.8-0.3,35.8c0.3,3.2-0.9,6.6-1.7,9.9c-0.9,4-1.9,8.1-3.1,12
	c-0.9,3.1-1.8,6.4-3.3,9.2c-1.9,3.5-4.5,4.9-9,3.3c-3.6-1.3-7.6-0.7-11-3.5c-2.6-2.1-4-4.3-3.1-7.3c1.6-5.1,2.9-10.4,5.6-14.9
	c7.2-11.8,7-23.9,3.9-36.7c-5.2-21-5.1-42.3-3.6-63.8c0.5-7.5,0.3-15,0.4-22.5c0.1-8.2,0.4-16.5-0.1-24.7
	c-0.6-8.4-2.2-16.8-3.1-25.2c-1.1-9.9-2.3-19.8-2.6-29.8c-0.5-17.3-0.6-34.7-0.1-52c0.3-9.3,3.1-18.6,3.3-27.9
	c0.3-15.3-0.5-30.6-0.9-45.9c0-0.6-0.4-1.3-1.7-2.1c-0.8,2.2-1.9,4.2-2.4,6.5c-2.7,11.8-5,23.6-8,35.3c-1.5,5.8-3.9,11.4-6.2,17
	c-4.2,10.1-8.6,20.2-12.8,30.3c-0.5,1.2-0.9,2.4-1.1,3.7c-2.3,10.4-4.6,20.7-7,31.1c-0.4,1.7-1.2,3.3-1.8,5
	c-0.6-0.1-1.1-0.2-1.7-0.3c0.4-4.7,0.7-9.5,1.1-14.2c-4.3,5.4-2.7,13-7.3,18.1c-0.6-0.1-1.2-0.3-1.8-0.4c1.2-5.8,2.3-11.5,3.5-17.3
	c-0.4-0.1-0.7-0.2-1.1-0.3c-2.3,6.5-4.7,13-7,19.5c-0.6-0.2-1.2-0.4-1.8-0.6c-0.7-7.4,4.4-13.7,3.9-21.4c-2.8,5.5-5.7,11-8.5,16.4
	c-0.6-0.3-1.3-0.5-1.9-0.8c0.4-1.6,0.6-3.4,1.2-4.9c2.1-5.7,4.4-11.3,6.4-17c0.4-1.3-0.2-2.9-0.3-4.4c-1.4,0.4-3,0.6-4.1,1.4
	c-4.6,3.1-6.3,3.4-9.6,1.1c5.7-4.5,11.1-9.4,17.2-13.3c3.9-2.5,6-5.5,6.7-9.9c3.1-17.6,5.3-35.5,9.9-52.7
	c3.5-13.2,7.2-26.4,9.4-39.9c1.2-7.2,1.1-14.7,1.4-22c0.6-16.2,8.5-25.3,24.4-28c8-1.4,15.7-3.8,22.2-9c4.8-3.8,6.4-14,3.9-19.7
	c-3.4-7.7-9.7-14.3-8.7-23.6c0.2-2-0.8-4.3,2.1-5.5c0.6-0.2,0.4-2.6,0.4-4c-0.3-19,15.7-29.6,33.1-21.9c7.7,3.4,10.9,9.7,11.7,17.8
	c0.3,3.2-1.6,6.7,2.1,9.7c2.3,1.8-1.1,15.9-3.6,18.4c-4.6,4.5-7.6,18.4-4.9,24.2c0.8,1.7,2.4,3.3,3.9,4.5c6.7,5.5,14.6,8,23,9.2
	c14.2,2.2,23.6,11.8,23.5,26.1c-0.1,16.3,2.6,32.2,6.3,47.9c2.5,10.5,6.3,20.6,8.6,31.2c2.6,12.3,4.1,24.7,6,37.1
	c0.7,4.6,2.6,7.9,7,10.2c3.5,1.8,6.3,5,9.5,7.5c2.4,1.9,5,3.6,8.7,6.3c-2.7,0.3-4.3,0.9-5.7,0.6c-1.6-0.3-3.1-1.4-4.6-2.1
	c-1.5-0.6-3-1.1-4.5-1.7c0,1.7-0.5,3.6,0,5.2c1.7,5.2,3.8,10.3,5.7,15.4c0.7,1.8,1.2,3.7,1.2,5.8c-6.1-3.4-6.1-10.7-9.9-15.5
	c-0.4,0.1-0.8,0.2-1.2,0.4c1.9,6.9,3.9,13.7,5.8,20.6c-0.6,0.2-1.3,0.4-1.9,0.7c-4.4-5.6-4.1-13.4-8.8-19.1
	c1.2,5.7,2.4,11.4,3.7,17.1c-0.5,0.2-1.1,0.3-1.6,0.5c-5.2-4.7-3-12.7-7.6-17.9c0.4,4.7,0.8,9.3,1.2,14c-0.5,0.1-1.1,0.3-1.6,0.4
	c-0.7-1.9-1.6-3.7-2.1-5.6c-1.6-5.2-3.1-10.5-4.4-15.8c-0.8-3-1.8-6.2-1.8-9.3c-0.1-8.9-4.9-16.2-7.8-24.1
	c-2.1-5.5-4.6-10.9-7.1-16.3c-3.6-7.6-5.5-15.6-6.9-23.9c-1.8-10.7-5.4-21.2-8.3-31.7c-0.2-0.8-0.8-1.4-1.3-2.1
	C688.2,164.6,687.8,164.6,687.4,164.7z"/>
<path class="st0" d="M966.8,275.8c-4.1,1.7-6.7-0.2-9.4-2.1c-1-0.7-2.4-0.8-3.6-1.2c-0.2,1.3-0.7,2.6-0.4,3.8
	c1.5,5.2,3.3,10.3,5,15.5c0.5,1.7,1.1,3.3,1.1,5.2c-6.1-3-5-10.4-9.9-14.2c1.5,6.3,2.9,12.5,4.4,18.8c-0.8,0.2-1.5,0.5-2.3,0.7
	c-1.9-5.9-3.8-11.8-5.7-17.6c-0.3,0-0.7,0.1-1,0.1c0.8,5.3,1.5,10.5,2.3,15.8c-0.7,0.1-1.5,0.3-2.2,0.4c-1.4-5.6-2.9-11.3-4.3-16.9
	c-0.4,0-0.8,0.1-1.1,0.1c0.2,4.2,0.4,8.4,0.7,12.6c-0.4,0.1-0.9,0.3-1.3,0.4c-0.6-1.3-1.5-2.6-1.7-4c-1.5-9.9-2.2-20-4.4-29.7
	c-1.8-8.1-5.4-15.8-8-23.8c-3.4-10.4-8.3-20.8-9.5-31.5c-1.8-15.4-6.4-29.6-12-43.7c-0.4-1.1-1.1-2.1-2.8-3.1
	c-0.7,6.4-1.5,12.8-2.2,19.2c-0.4,4-0.7,8.1-0.9,12.1c-0.7,11.4,0.2,22.3,5.1,33.2c8,18,9.3,37.1,6.4,56.6
	c-2.9,19.2-5.1,38.5-7.4,57.7c-0.5,4.3,0.3,8.7,0.4,13c0.1,13.7-0.9,27.4,0.2,41c2.1,25.7-0.9,50.8-6.1,75.9
	c-1.4,6.7-0.9,13.2,2.2,19.5c3.1,6.1,5.6,12.5,8.5,18.6c4.1,8.6-3,12.7-10,13.7c-0.6,0.1-1.2-0.4-1.8-0.4c-2.6,0.1-6.5,1.4-7.5,0.2
	c-2.7-3.1-4.6-7.2-6.1-11.2c-1.8-4.8-3.2-9.9-4.3-15c-0.6-2.8-0.9-5.9-0.3-8.7c3.1-14.4,2.1-28.7-0.5-43
	c-2.7-14.6-3.3-29.3-1.9-44.1c1.1-12.2-0.4-24.1-2.4-36.1c-2.1-13-2.7-26.3-3.8-39.4c-1-12.2-1.9-24.5-2.9-36.7
	c-0.1-1.3-0.6-2.7-0.9-4c-0.4,0-0.8-0.1-1.2-0.1c-0.4,2.5-0.9,4.9-1.1,7.4c-1.5,16.2-2.7,32.5-4.4,48.7c-1.4,13.1-3.5,26.1-4.9,39.2
	c-0.6,5.4-0.4,10.9,0,16.3c1.3,17.3,1.2,34.5-2.1,51.5c-2.7,13.9-2.6,27.7,0,41.7c0.6,3-1,6.5-1.7,9.7c-0.9,3.9-1.8,7.8-3,11.6
	c-1,3.4-2,6.8-3.7,9.8c-1.8,3.1-4.5,4.7-8.6,2.6c-3.2-1.6-7-2-10.5-3.2c-4.1-1.5-4.3-5-3.2-8.5c1.2-3.8,2.3-7.9,4.5-11.2
	c8.2-12.5,8.6-25.6,5.2-39.7c-5.4-22.4-6.1-45.2-4-68.1c0.6-6.9,0.1-14,0-21c-0.1-5-0.9-10-0.3-14.9c1.7-12.1-0.9-23.8-2.5-35.6
	c-2.3-17.5-4.6-35.1-5.8-52.8c-0.9-13.6,1.5-27.1,7.2-39.6c5-11.1,6.7-22.5,5.6-34.4c-1-10.5-1.8-21-2.7-31.5
	c-0.5-0.1-0.9-0.2-1.4-0.3c-0.8,1.6-1.7,3.3-2.4,4.9c-5.6,13.7-9.5,27.7-11.4,42.5c-1.4,10.7-6.1,21.1-9.5,31.5
	c-2,6.2-4.4,12.3-6.5,18.4c-0.5,1.5-1.3,3.1-1,4.5c1.9,11.1-4.1,20.9-5,31.5c0,0.6-0.4,1.1-0.7,1.7c-0.1,0.2-0.5,0.4-1.5,1
	c0-4.7,0-8.9,0-13.1c-0.3-0.1-0.6-0.2-0.9-0.2c-1.5,5.6-3,11.2-4.5,16.9c-0.7-0.1-1.4-0.3-2.2-0.4c0.8-5.2,1.5-10.5,2.3-15.7
	c-0.3-0.1-0.7-0.2-1-0.3c-1.9,5.9-3.7,11.8-5.6,17.6c-0.8-0.2-1.6-0.5-2.4-0.7c1.5-6.2,2.9-12.4,4.4-18.6
	c-4.5,4.1-4.2,10.7-8.9,14.4c-0.4-0.2-0.9-0.4-1.3-0.5c0.6-2.1,1.2-4.2,1.9-6.3c1.6-4.9,3.3-9.7,4.7-14.6c0.3-1-0.3-2.2-0.6-3.3
	c-1.1,0.3-2.5,0.2-3.3,0.8c-2.8,2.2-5.6,4.2-9.9,2.2c5.6-4.7,10.5-9.4,16-13.2c3.8-2.6,6-5.5,6.7-10c2.7-17.3,5.3-34.7,8.4-51.9
	c3.9-21.7,8.3-43.2,12.4-64.8c0.6-3.2,1.1-6.5,1.2-9.7c0.4-12.6,11.3-22,23.4-24.1c8-1.4,15.2-4.3,20.3-11.1
	c3.9-5.1,4-11.9,0.4-17.1c-3.2-4.6-7.1-9-9-14.2c-1.7-4.6-3-9.9,0.7-15.2c1.8-2.6,0.3-7.3,0.9-10.9c2.1-11.3,11.2-17.4,24.2-16.5
	c11.4,0.8,19.2,8.5,19.9,19.6c0.2,3.6,1,7.1,1.8,10.6c1.4,6.1,0.9,12.9-4.1,18.7c-4,4.7-8.9,9.2-8.3,16.8c0.5,7,4.6,11.2,9.8,14.3
	c3.9,2.3,8.5,3.9,12.9,4.8c12.2,2.4,22.1,11.7,24.2,25.4c3.9,26.3,9.7,52.4,14.4,78.6c2.4,13.4,4.3,27,6.1,40.5
	c1,7.4,2.4,13.9,10.2,17.9C958.2,266.6,962,271.5,966.8,275.8z"/>
<path class="st0" d="M531.1,275.8c-4.1,1.7-6.7-0.2-9.4-2.1c-1-0.7-2.4-0.8-3.6-1.2c-0.2,1.3-0.7,2.6-0.4,3.8
	c1.5,5.2,3.3,10.3,5,15.5c0.5,1.7,1.1,3.3,1.1,5.2c-6.1-3-5-10.4-9.9-14.2c1.5,6.3,2.9,12.5,4.4,18.8c-0.8,0.2-1.5,0.5-2.3,0.7
	c-1.9-5.9-3.8-11.8-5.7-17.6c-0.3,0-0.7,0.1-1,0.1c0.8,5.3,1.5,10.5,2.3,15.8c-0.7,0.1-1.5,0.3-2.2,0.4c-1.4-5.6-2.9-11.3-4.3-16.9
	c-0.4,0-0.8,0.1-1.1,0.1c0.2,4.2,0.4,8.4,0.7,12.6c-0.4,0.1-0.9,0.3-1.3,0.4c-0.6-1.3-1.5-2.6-1.7-4c-1.5-9.9-2.2-20-4.4-29.7
	c-1.8-8.1-5.4-15.8-8-23.8c-3.4-10.4-8.3-20.8-9.5-31.5c-1.8-15.4-6.4-29.6-12-43.7c-0.4-1.1-1.1-2.1-2.8-3.1
	c-0.7,6.4-1.5,12.8-2.2,19.2c-0.4,4-0.7,8.1-0.9,12.1c-0.7,11.4,0.2,22.3,5.1,33.2c8,18,9.3,37.1,6.4,56.6
	c-2.9,19.2-5.1,38.5-7.4,57.7c-0.5,4.3,0.3,8.7,0.4,13c0.1,13.7-0.9,27.4,0.2,41c2.1,25.7-0.9,50.8-6.1,75.9
	c-1.4,6.7-0.9,13.2,2.2,19.5c3.1,6.1,5.6,12.5,8.5,18.6c4.1,8.6-3,12.7-10,13.7c-0.6,0.1-1.2-0.4-1.8-0.4c-2.6,0.1-6.5,1.4-7.5,0.2
	c-2.7-3.1-4.6-7.2-6.1-11.2c-1.8-4.8-3.2-9.9-4.3-15c-0.6-2.8-0.9-5.9-0.3-8.7c3.1-14.4,2.1-28.7-0.5-43
	c-2.7-14.6-3.3-29.3-1.9-44.1c1.1-12.2-0.4-24.1-2.4-36.1c-2.1-13-2.7-26.3-3.8-39.4c-1-12.2-1.9-24.5-2.9-36.7
	c-0.1-1.3-0.6-2.7-0.9-4c-0.4,0-0.8-0.1-1.2-0.1c-0.4,2.5-0.9,4.9-1.1,7.4c-1.5,16.2-2.7,32.5-4.4,48.7c-1.4,13.1-3.5,26.1-4.9,39.2
	c-0.6,5.4-0.4,10.9,0,16.3c1.3,17.3,1.2,34.5-2.1,51.5c-2.7,13.9-2.6,27.7,0,41.7c0.6,3-1,6.5-1.7,9.7c-0.9,3.9-1.8,7.8-3,11.6
	c-1,3.4-2,6.8-3.7,9.8c-1.8,3.1-4.5,4.7-8.6,2.6c-3.2-1.6-7-2-10.5-3.2c-4.1-1.5-4.3-5-3.2-8.5c1.2-3.8,2.3-7.9,4.5-11.2
	c8.2-12.5,8.6-25.6,5.2-39.7c-5.4-22.4-6.1-45.2-4-68.1c0.6-6.9,0.1-14,0-21c-0.1-5-0.9-10-0.3-14.9c1.7-12.1-0.9-23.8-2.5-35.6
	c-2.3-17.5-4.6-35.1-5.8-52.8c-0.9-13.6,1.5-27.1,7.2-39.6c5-11.1,6.7-22.5,5.6-34.4c-1-10.5-1.8-21-2.7-31.5
	c-0.5-0.1-0.9-0.2-1.4-0.3c-0.8,1.6-1.7,3.3-2.4,4.9c-5.6,13.7-9.5,27.7-11.4,42.5c-1.4,10.7-6.1,21.1-9.5,31.5
	c-2,6.2-4.4,12.3-6.5,18.4c-0.5,1.5-1.3,3.1-1,4.5c1.9,11.1-4.1,20.9-5,31.5c0,0.6-0.4,1.1-0.7,1.7c-0.1,0.2-0.5,0.4-1.5,1
	c0-4.7,0-8.9,0-13.1c-0.3-0.1-0.6-0.2-0.9-0.2c-1.5,5.6-3,11.2-4.5,16.9c-0.7-0.1-1.4-0.3-2.2-0.4c0.8-5.2,1.5-10.5,2.3-15.7
	c-0.3-0.1-0.7-0.2-1-0.3c-1.9,5.9-3.7,11.8-5.6,17.6c-0.8-0.2-1.6-0.5-2.4-0.7c1.5-6.2,2.9-12.4,4.4-18.6
	c-4.5,4.1-4.2,10.7-8.9,14.4c-0.4-0.2-0.9-0.4-1.3-0.5c0.6-2.1,1.2-4.2,1.9-6.3c1.6-4.9,3.3-9.7,4.7-14.6c0.3-1-0.3-2.2-0.6-3.3
	c-1.1,0.3-2.5,0.2-3.3,0.8c-2.8,2.2-5.6,4.2-9.9,2.2c5.6-4.7,10.5-9.4,16-13.2c3.8-2.6,6-5.5,6.7-10c2.7-17.3,5.3-34.7,8.4-51.9
	c3.9-21.7,8.3-43.2,12.4-64.8c0.6-3.2,1.1-6.5,1.2-9.7c0.4-12.6,11.3-22,23.4-24.1c8-1.4,15.2-4.3,20.3-11.1
	c3.9-5.1,4-11.9,0.4-17.1c-3.2-4.6-7.1-9-9-14.2c-1.7-4.6-3-9.9,0.7-15.2c1.8-2.6,0.3-7.3,0.9-10.9c2.1-11.3,11.2-17.4,24.2-16.5
	c11.4,0.8,19.2,8.5,19.9,19.6c0.2,3.6,1,7.1,1.8,10.6c1.4,6.1,0.9,12.9-4.1,18.7c-4,4.7-8.9,9.2-8.3,16.8c0.5,7,4.6,11.2,9.8,14.3
	c3.9,2.3,8.5,3.9,12.9,4.8c12.2,2.4,22.1,11.7,24.2,25.4c3.9,26.3,9.7,52.4,14.4,78.6c2.4,13.4,4.3,27,6.1,40.5
	c1,7.4,2.4,13.9,10.2,17.9C522.5,266.6,526.3,271.5,531.1,275.8z"/>
<g>
	<g>
		<polygon class="st1" points="672.9,662.1 672.9,683.2 680.4,683.2 661.9,701.8 643.3,683.2 650.8,683.2 650.8,662.1 		"/>
	</g>
</g>
<g>
	<g>
		<g>
			<path id="path882_7_" class="st2" d="M426.2,116.2c-0.4-2.3-1.5-4.9-2.7-6.9c-1.2-2.1-2.6-3.7-4-4.5c-1.5-0.8-3-0.7-5.3,0.6
				c-2.3,1.4-5.3,4-7.8,7.4c-2.5,3.3-4.6,7.3-5.7,9.9c-1.2,2.6-1.4,3.7-1.5,4.6s0,1.4-0.6,4.4s-1.8,8.3-2.5,12s-0.9,5.6-0.9,6.9
				c0,1.2,0.2,1.7,1.2,2.2s2.9,1.1,5.1,0.9c2.1-0.2,4.5-1.3,6.8-2.2s4.6-1.5,6.4-2c1.8-0.4,3-0.7,4.6-2.3c1.5-1.6,3.4-4.7,4.6-9
				s1.8-9.9,2.2-13.7S426.6,118.5,426.2,116.2L426.2,116.2z"/>
			<path id="path882-7_7_" class="st3" d="M426.2,116.2c-0.4-2.3-1.5-4.9-2.7-6.9c-1.2-2.1-2.6-3.7-4-4.5c-1.5-0.8-3-0.7-5.3,0.6
				c-2.3,1.4-5.3,4-7.8,7.4c-2.5,3.3-4.6,7.3-5.7,9.9c-1.2,2.6-1.4,3.7-1.5,4.6s0,1.4,1.6,5.4c1.5,4,4.5,11.3,7.2,14.6
				c2.6,3.3,5,2.6,6.7,2.2s3-0.7,4.6-2.3c1.5-1.6,3.4-4.7,4.6-9s1.8-9.9,2.2-13.7C426.4,120.6,426.6,118.5,426.2,116.2L426.2,116.2z
				"/>
			<path id="path882-7-9_7_" class="st2" d="M426.2,116.2c-0.4-2.3-1.5-4.9-2.7-6.9c-1.2-2.1-2.6-3.7-4-4.5c-1.5-0.8-3-0.7-5.3,0.6
				c-2.3,1.4-5.3,4-7.3,6.5c-2.1,2.4-3.2,4.6-4.1,6.2s-1.4,2.7-1.9,4.5s-1,4.2,2.9,7.2c4,2.9,12.3,6.3,16.8,5.3
				c4.5-1.1,5.1-6.6,5.5-10.5C426.4,120.6,426.6,118.5,426.2,116.2z"/>
			<path id="path882-8_7_" class="st3" d="M432.3,116.2c0.4-2.3,1.5-4.9,2.7-6.9c1.2-2.1,2.6-3.7,4-4.5c1.5-0.8,3-0.7,5.3,0.6
				c2.3,1.4,5.3,4,7.8,7.4c2.5,3.3,4.6,7.3,5.7,9.9c1.2,2.6,1.4,3.7,1.5,4.6s0,1.4,0.6,4.4s1.8,8.3,2.5,12s0.9,5.6,0.9,6.9
				c0,1.2-0.2,1.7-1.2,2.2s-2.9,1.1-5.1,0.9c-2.1-0.2-4.5-1.3-6.8-2.2s-4.6-1.5-6.4-2s-3-0.7-4.6-2.3c-1.5-1.6-3.4-4.7-4.6-9
				s-1.8-9.9-2.2-13.7S431.9,118.5,432.3,116.2L432.3,116.2z"/>
			<path id="path882-7-5_7_" class="st2" d="M432.3,116.2c0.4-2.3,1.5-4.9,2.7-6.9c1.2-2.1,2.6-3.7,4-4.5c1.5-0.8,3-0.7,5.3,0.6
				c2.3,1.4,5.3,4,7.8,7.4c2.5,3.3,4.6,7.3,5.6,9.6s1.2,3,1.5,5s0.8,5.5-0.9,11.2s-5.7,13.6-7.9,12.5c-2.2-1-2.7-11-4.6-15.2
				c-2-4.2-5.5-2.6-7.6-2.7c-2.1,0-2.9-1.7-3.7-3.7c-0.8-2-1.6-4.3-2.1-6.6S431.9,118.5,432.3,116.2L432.3,116.2z"/>
			<path class="st4" d="M439.7,117c-1.1,0.1-2.9,0.7-4.3,0.7c-0.8,0-2.4-0.6-3.5-1.8h0.1c-0.1-0.2-0.2-0.3-0.4-0.4
				c-0.1-0.2-0.2-0.3-0.3-0.5c0.4-0.1,0.8-0.4,0.8-0.9s-0.4-0.9-0.9-0.9H431v-0.4h0.2c0.5,0,0.9-0.4,0.9-0.9s-0.4-0.9-0.9-0.9H431
				v-0.4h0.2c0.5,0,0.9-0.4,0.9-0.9s-0.4-0.9-0.9-0.9H431v-0.4h0.2c0.5,0,0.9-0.4,0.9-0.9s-0.4-0.9-0.9-0.9H431v-0.4h0.2
				c0.5,0,0.9-0.4,0.9-0.9s-0.4-0.9-0.9-0.9H431V104h0.2c0.5,0,0.9-0.4,0.9-0.9s-0.4-0.9-0.9-0.9H431v-0.4h0.2
				c0.5,0,0.9-0.4,0.9-0.9s-0.4-0.9-0.9-0.9H431l0,0h0.2c0.5,0,0.9-0.4,0.9-0.9s-0.4-0.9-0.9-0.9H431v-0.4h0.2
				c0.5,0,0.9-0.4,0.9-0.9s-0.4-0.9-0.9-0.9H431v-0.4c0,0,0-0.1-0.1-0.1h-2.7c0,0-0.1,0-0.1,0.1V96H428c-0.5,0-0.9,0.4-0.9,0.9
				s0.4,0.9,0.9,0.9h0.2v0.4H428c-0.5,0-0.9,0.4-0.9,0.9s0.4,0.9,0.9,0.9h0.2v0.4H428c-0.5,0-0.9,0.4-0.9,0.9s0.4,0.9,0.9,0.9h0.2
				v0.4H428c-0.5,0-0.9,0.4-0.9,0.9s0.4,0.9,0.9,0.9h0.2v0.4H428c-0.5,0-0.9,0.4-0.9,0.9s0.4,0.9,0.9,0.9h0.2v0.4H428
				c-0.5,0-0.9,0.4-0.9,0.9s0.4,0.9,0.9,0.9h0.2v0.4H428c-0.5,0-0.9,0.4-0.9,0.9s0.4,0.9,0.9,0.9h0.2v0.4H428
				c-0.5,0-0.9,0.4-0.9,0.9s0.4,0.9,0.9,0.9h0.2v0.4H428c-0.5,0-0.9,0.4-0.9,0.9s0.4,0.9,0.9,0.9h0.2v0.2c-0.1,0.1-0.1,0.1-0.2,0.2
				c-0.3,0-0.6,0.2-0.8,0.5h0.3c-1.4,1.2-3.4,2-4.1,2.2c-1,0.4-2,0.3-3.3,0.3s-2.7,0.1-2.7,0.3c0.1,0.2,1.6,0.5,2.9,0.7
				c1.3,0.3,2.3,0.5,2.5,1.1c0.3,0.6-0.2,1.6-1,2.3c-0.8,0.6-1.9,0.9-3.2,1.3c-1.4,0.4-3,0.8-3,1s1.8,0,2.8,0.6
				c0.9,0.6,1.1,1.9,1.4,2.7c0.2,0.8,0.5,1,0.6,0.4s0-2.1,0.4-3c0.4-1,1.1-1.5,1.5-1.8s3.8-3.7,4.4-3.9c0.5-0.3,1.6-0.9,2.5-1
				c1-0.1,1.9,0.2,3.1,1.2s2.8,2.7,3.9,3.7s1.8,1.2,2.2,1.1c0.4-0.1,0.4-0.6-0.2-1.6s-2-2.5-2.2-3.4s0.9-1.1,1.9-1.4
				c1.1-0.3,2.2-0.8,2.6-1.1C441,117.1,440.8,116.9,439.7,117z"/>
		</g>
		<g>
			<path id="path882_8_" class="st2" d="M642.2,116.2c-0.4-2.3-1.5-4.9-2.7-6.9c-1.2-2.1-2.6-3.7-4-4.5c-1.5-0.8-3-0.7-5.3,0.6
				c-2.3,1.4-5.3,4-7.8,7.4c-2.5,3.3-4.6,7.3-5.7,9.9c-1.2,2.6-1.4,3.7-1.5,4.6s0,1.4-0.6,4.4s-1.8,8.3-2.5,12s-0.9,5.6-0.9,6.9
				s0.2,1.7,1.2,2.2s2.9,1.1,5.1,0.9s4.5-1.3,6.8-2.2s4.6-1.5,6.4-2c1.8-0.4,3-0.7,4.6-2.3s3.4-4.7,4.6-9s1.8-9.9,2.2-13.7
				S642.6,118.5,642.2,116.2L642.2,116.2z"/>
			<path id="path882-7_8_" class="st3" d="M642.2,116.2c-0.4-2.3-1.5-4.9-2.7-6.9c-1.2-2.1-2.6-3.7-4-4.5c-1.5-0.8-3-0.7-5.3,0.6
				c-2.3,1.4-5.3,4-7.8,7.4c-2.5,3.3-4.6,7.3-5.7,9.9c-1.2,2.6-1.4,3.7-1.5,4.6s0,1.4,1.6,5.4c1.5,4,4.5,11.3,7.2,14.6
				c2.6,3.3,5,2.6,6.7,2.2s3-0.7,4.6-2.3s3.4-4.7,4.6-9c1.2-4.3,1.8-9.9,2.2-13.7C642.4,120.6,642.6,118.5,642.2,116.2L642.2,116.2z
				"/>
			<path id="path882-7-9_8_" class="st2" d="M642.2,116.2c-0.4-2.3-1.5-4.9-2.7-6.9c-1.2-2.1-2.6-3.7-4-4.5c-1.5-0.8-3-0.7-5.3,0.6
				c-2.3,1.4-5.3,4-7.3,6.5c-2.1,2.4-3.2,4.6-4.1,6.2s-1.4,2.7-1.9,4.5s-1,4.2,2.9,7.2c4,2.9,12.3,6.3,16.8,5.3
				c4.5-1.1,5.1-6.6,5.5-10.5S642.6,118.5,642.2,116.2z"/>
			<path id="path882-8_8_" class="st3" d="M648.3,116.2c0.4-2.3,1.5-4.9,2.7-6.9c1.2-2.1,2.6-3.7,4-4.5c1.5-0.8,3-0.7,5.3,0.6
				c2.3,1.4,5.3,4,7.8,7.4s4.6,7.3,5.7,9.9c1.2,2.6,1.4,3.7,1.5,4.6s0,1.4,0.6,4.4s1.8,8.3,2.5,12s0.9,5.6,0.9,6.9s-0.2,1.7-1.2,2.2
				s-2.9,1.1-5.1,0.9s-4.5-1.3-6.8-2.2s-4.6-1.5-6.4-2c-1.8-0.4-3-0.7-4.6-2.3s-3.4-4.7-4.6-9s-1.8-9.9-2.2-13.7
				S647.9,118.5,648.3,116.2L648.3,116.2z"/>
			<path id="path882-7-5_8_" class="st2" d="M648.3,116.2c0.4-2.3,1.5-4.9,2.7-6.9c1.2-2.1,2.6-3.7,4-4.5c1.5-0.8,3-0.7,5.3,0.6
				c2.3,1.4,5.3,4,7.8,7.4s4.6,7.3,5.6,9.6s1.2,3,1.5,5s0.8,5.5-0.9,11.2s-5.7,13.6-7.9,12.5c-2.2-1-2.7-11-4.6-15.2
				c-2-4.2-5.5-2.6-7.6-2.7c-2.1,0-2.9-1.7-3.7-3.7s-1.6-4.3-2.1-6.6S647.9,118.5,648.3,116.2L648.3,116.2z"/>
			<path class="st4" d="M655.7,117c-1.1,0.1-2.9,0.7-4.3,0.7c-0.8,0-2.4-0.6-3.5-1.8h0.1c-0.1-0.2-0.2-0.3-0.4-0.4
				c-0.1-0.2-0.2-0.3-0.3-0.5c0.4-0.1,0.8-0.4,0.8-0.9s-0.4-0.9-0.9-0.9H647v-0.4h0.2c0.5,0,0.9-0.4,0.9-0.9s-0.4-0.9-0.9-0.9H647
				v-0.4h0.2c0.5,0,0.9-0.4,0.9-0.9s-0.4-0.9-0.9-0.9H647v-0.4h0.2c0.5,0,0.9-0.4,0.9-0.9s-0.4-0.9-0.9-0.9H647v-0.4h0.2
				c0.5,0,0.9-0.4,0.9-0.9s-0.4-0.9-0.9-0.9H647V104h0.2c0.5,0,0.9-0.4,0.9-0.9s-0.4-0.9-0.9-0.9H647v-0.4h0.2
				c0.5,0,0.9-0.4,0.9-0.9s-0.4-0.9-0.9-0.9H647l0,0h0.2c0.5,0,0.9-0.4,0.9-0.9s-0.4-0.9-0.9-0.9H647v-0.4h0.2
				c0.5,0,0.9-0.4,0.9-0.9s-0.4-0.9-0.9-0.9H647v-0.4c0,0,0-0.1-0.1-0.1h-2.7c0,0-0.1,0-0.1,0.1V96H644c-0.5,0-0.9,0.4-0.9,0.9
				s0.4,0.9,0.9,0.9h0.2v0.4H644c-0.5,0-0.9,0.4-0.9,0.9s0.4,0.9,0.9,0.9h0.2v0.4H644c-0.5,0-0.9,0.4-0.9,0.9s0.4,0.9,0.9,0.9h0.2
				v0.4H644c-0.5,0-0.9,0.4-0.9,0.9s0.4,0.9,0.9,0.9h0.2v0.4H644c-0.5,0-0.9,0.4-0.9,0.9s0.4,0.9,0.9,0.9h0.2v0.4H644
				c-0.5,0-0.9,0.4-0.9,0.9s0.4,0.9,0.9,0.9h0.2v0.4H644c-0.5,0-0.9,0.4-0.9,0.9s0.4,0.9,0.9,0.9h0.2v0.4H644
				c-0.5,0-0.9,0.4-0.9,0.9s0.4,0.9,0.9,0.9h0.2v0.4H644c-0.5,0-0.9,0.4-0.9,0.9s0.4,0.9,0.9,0.9h0.2v0.2c-0.1,0.1-0.1,0.1-0.2,0.2
				c-0.3,0-0.6,0.2-0.8,0.5h0.3c-1.4,1.2-3.4,2-4.1,2.2c-1,0.4-2,0.3-3.3,0.3s-2.7,0.1-2.7,0.3c0.1,0.2,1.6,0.5,2.9,0.7
				c1.3,0.3,2.3,0.5,2.5,1.1c0.3,0.6-0.2,1.6-1,2.3c-0.8,0.6-1.9,0.9-3.2,1.3s-3,0.8-3,1s1.8,0,2.8,0.6c0.9,0.6,1.1,1.9,1.4,2.7
				c0.2,0.8,0.5,1,0.6,0.4s0-2.1,0.4-3c0.4-1,1.1-1.5,1.5-1.8s3.8-3.7,4.4-3.9c0.5-0.3,1.6-0.9,2.5-1c1-0.1,1.9,0.2,3.1,1.2
				c1.2,1,2.8,2.7,3.9,3.7c1.1,1,1.8,1.2,2.2,1.1s0.4-0.6-0.2-1.6c-0.6-1-2-2.5-2.2-3.4s0.9-1.1,1.9-1.4c1.1-0.3,2.2-0.8,2.6-1.1
				C657,117.1,656.8,116.9,655.7,117z"/>
		</g>
		<g>
			<path id="path882_9_" class="st2" d="M862.2,116.2c-0.4-2.3-1.5-4.9-2.7-6.9c-1.2-2.1-2.6-3.7-4-4.5c-1.5-0.8-3-0.7-5.3,0.6
				c-2.3,1.4-5.3,4-7.8,7.4c-2.5,3.3-4.6,7.3-5.7,9.9c-1.2,2.6-1.4,3.7-1.5,4.6s0,1.4-0.6,4.4s-1.8,8.3-2.5,12s-0.9,5.6-0.9,6.9
				s0.2,1.7,1.2,2.2s2.9,1.1,5.1,0.9s4.5-1.3,6.8-2.2s4.6-1.5,6.4-2c1.8-0.4,3-0.7,4.6-2.3s3.4-4.7,4.6-9s1.8-9.9,2.2-13.7
				S862.6,118.5,862.2,116.2L862.2,116.2z"/>
			<path id="path882-7_9_" class="st3" d="M862.2,116.2c-0.4-2.3-1.5-4.9-2.7-6.9c-1.2-2.1-2.6-3.7-4-4.5c-1.5-0.8-3-0.7-5.3,0.6
				c-2.3,1.4-5.3,4-7.8,7.4c-2.5,3.3-4.6,7.3-5.7,9.9c-1.2,2.6-1.4,3.7-1.5,4.6s0,1.4,1.6,5.4c1.5,4,4.5,11.3,7.2,14.6
				c2.6,3.3,5,2.6,6.7,2.2s3-0.7,4.6-2.3s3.4-4.7,4.6-9c1.2-4.3,1.8-9.9,2.2-13.7C862.4,120.6,862.6,118.5,862.2,116.2L862.2,116.2z
				"/>
			<path id="path882-7-9_9_" class="st2" d="M862.2,116.2c-0.4-2.3-1.5-4.9-2.7-6.9c-1.2-2.1-2.6-3.7-4-4.5c-1.5-0.8-3-0.7-5.3,0.6
				c-2.3,1.4-5.3,4-7.3,6.5c-2.1,2.4-3.2,4.6-4.1,6.2s-1.4,2.7-1.9,4.5s-1,4.2,2.9,7.2c4,2.9,12.3,6.3,16.8,5.3
				c4.5-1.1,5.1-6.6,5.5-10.5S862.6,118.5,862.2,116.2z"/>
			<path id="path882-8_9_" class="st3" d="M868.3,116.2c0.4-2.3,1.5-4.9,2.7-6.9c1.2-2.1,2.6-3.7,4-4.5c1.5-0.8,3-0.7,5.3,0.6
				c2.3,1.4,5.3,4,7.8,7.4s4.6,7.3,5.7,9.9c1.2,2.6,1.4,3.7,1.5,4.6s0,1.4,0.6,4.4s1.8,8.3,2.5,12s0.9,5.6,0.9,6.9s-0.2,1.7-1.2,2.2
				s-2.9,1.1-5.1,0.9s-4.5-1.3-6.8-2.2s-4.6-1.5-6.4-2c-1.8-0.4-3-0.7-4.6-2.3s-3.4-4.7-4.6-9s-1.8-9.9-2.2-13.7
				S867.9,118.5,868.3,116.2L868.3,116.2z"/>
			<path id="path882-7-5_9_" class="st2" d="M868.3,116.2c0.4-2.3,1.5-4.9,2.7-6.9c1.2-2.1,2.6-3.7,4-4.5c1.5-0.8,3-0.7,5.3,0.6
				c2.3,1.4,5.3,4,7.8,7.4s4.6,7.3,5.6,9.6s1.2,3,1.5,5s0.8,5.5-0.9,11.2s-5.7,13.6-7.9,12.5c-2.2-1-2.7-11-4.6-15.2
				c-2-4.2-5.5-2.6-7.6-2.7c-2.1,0-2.9-1.7-3.7-3.7s-1.6-4.3-2.1-6.6S867.9,118.5,868.3,116.2L868.3,116.2z"/>
			<path class="st4" d="M875.7,117c-1.1,0.1-2.9,0.7-4.3,0.7c-0.8,0-2.4-0.6-3.5-1.8h0.1c-0.1-0.2-0.2-0.3-0.4-0.4
				c-0.1-0.2-0.2-0.3-0.3-0.5c0.4-0.1,0.8-0.4,0.8-0.9s-0.4-0.9-0.9-0.9H867v-0.4h0.2c0.5,0,0.9-0.4,0.9-0.9s-0.4-0.9-0.9-0.9H867
				v-0.4h0.2c0.5,0,0.9-0.4,0.9-0.9s-0.4-0.9-0.9-0.9H867v-0.4h0.2c0.5,0,0.9-0.4,0.9-0.9s-0.4-0.9-0.9-0.9H867v-0.4h0.2
				c0.5,0,0.9-0.4,0.9-0.9s-0.4-0.9-0.9-0.9H867V104h0.2c0.5,0,0.9-0.4,0.9-0.9s-0.4-0.9-0.9-0.9H867v-0.4h0.2
				c0.5,0,0.9-0.4,0.9-0.9s-0.4-0.9-0.9-0.9H867l0,0h0.2c0.5,0,0.9-0.4,0.9-0.9s-0.4-0.9-0.9-0.9H867v-0.4h0.2
				c0.5,0,0.9-0.4,0.9-0.9s-0.4-0.9-0.9-0.9H867v-0.4c0,0,0-0.1-0.1-0.1h-2.7c0,0-0.1,0-0.1,0.1V96H864c-0.5,0-0.9,0.4-0.9,0.9
				s0.4,0.9,0.9,0.9h0.2v0.4H864c-0.5,0-0.9,0.4-0.9,0.9s0.4,0.9,0.9,0.9h0.2v0.4H864c-0.5,0-0.9,0.4-0.9,0.9s0.4,0.9,0.9,0.9h0.2
				v0.4H864c-0.5,0-0.9,0.4-0.9,0.9s0.4,0.9,0.9,0.9h0.2v0.4H864c-0.5,0-0.9,0.4-0.9,0.9s0.4,0.9,0.9,0.9h0.2v0.4H864
				c-0.5,0-0.9,0.4-0.9,0.9s0.4,0.9,0.9,0.9h0.2v0.4H864c-0.5,0-0.9,0.4-0.9,0.9s0.4,0.9,0.9,0.9h0.2v0.4H864
				c-0.5,0-0.9,0.4-0.9,0.9s0.4,0.9,0.9,0.9h0.2v0.4H864c-0.5,0-0.9,0.4-0.9,0.9s0.4,0.9,0.9,0.9h0.2v0.2c-0.1,0.1-0.1,0.1-0.2,0.2
				c-0.3,0-0.6,0.2-0.8,0.5h0.3c-1.4,1.2-3.4,2-4.1,2.2c-1,0.4-2,0.3-3.3,0.3s-2.7,0.1-2.7,0.3c0.1,0.2,1.6,0.5,2.9,0.7
				c1.3,0.3,2.3,0.5,2.5,1.1c0.3,0.6-0.2,1.6-1,2.3c-0.8,0.6-1.9,0.9-3.2,1.3s-3,0.8-3,1s1.8,0,2.8,0.6c0.9,0.6,1.1,1.9,1.4,2.7
				c0.2,0.8,0.5,1,0.6,0.4s0-2.1,0.4-3c0.4-1,1.1-1.5,1.5-1.8s3.8-3.7,4.4-3.9c0.5-0.3,1.6-0.9,2.5-1c1-0.1,1.9,0.2,3.1,1.2
				c1.2,1,2.8,2.7,3.9,3.7c1.1,1,1.8,1.2,2.2,1.1s0.4-0.6-0.2-1.6c-0.6-1-2-2.5-2.2-3.4s0.9-1.1,1.9-1.4c1.1-0.3,2.2-0.8,2.6-1.1
				C877,117.1,876.8,116.9,875.7,117z"/>
		</g>
	</g>
	<path class="st5" d="M882.6,127.9c-2.1,7,6.4,15.2,12.6,12.5c3.3-1.4,1.7-7.3,1-11.4C894.7,121.4,884.4,121.8,882.6,127.9z"/>
	<path class="st6" d="M632.6,124.6c-5.2,2.6-5.3,12.1-0.4,14.3c2.7,1.2,5.2-3,7.2-5.7C643.1,128.1,637.1,122.3,632.6,124.6z"/>
	<path class="st7" d="M432.6,124.1c0.2,5.8,8.7,9.9,12.8,6.3c2.2-1.9-0.5-6-2.2-9C440.2,116,432.4,118.9,432.6,124.1z"/>
</g>
<g>
	<g>
		<g>
			<circle class="st8" cx="213.2" cy="508.1" r="10.1"/>
			<circle class="st8" cx="163.4" cy="474.1" r="10.1"/>
			<circle class="st5" cx="140.3" cy="537.6" r="10.1"/>
			<circle class="st8" cx="178.5" cy="479.4" r="10.1"/>
			<circle class="st8" cx="122.4" cy="544.2" r="10.1"/>
			<circle class="st8" cx="192.2" cy="490.7" r="10.1"/>
			<circle class="st8" cx="158.4" cy="516.9" r="10.1"/>
			<circle class="st8" cx="199.3" cy="521.1" r="10.1"/>
			<circle class="st8" cx="178" cy="495.7" r="10.1"/>
			<circle class="st8" cx="175.3" cy="509.8" r="10.1"/>
			<circle class="st8" cx="159.2" cy="535.5" r="10.1"/>
			<circle class="st8" cx="184.3" cy="527.1" r="10.1"/>
			<circle class="st8" cx="168.6" cy="525.9" r="10.1"/>
			<circle class="st8" cx="215.8" cy="523" r="10.1"/>
		</g>
	</g>
	<g>
		<path class="st5" d="M22.6,572.2c1.6,1.2,2.4,3.1,2.4,5.6c0,2.6-0.8,4.6-2.5,5.8c-1.6,1.2-3.9,1.9-6.8,1.9h-3.5v9.6H10v-24.7h5.8
			C18.8,570.4,21,571,22.6,572.2z M20.9,582.4c1.2-0.9,1.8-2.4,1.8-4.5c0-2-0.6-3.5-1.7-4.3c-1.2-0.9-2.9-1.3-5.1-1.3h-3.6v11.5h3.5
			C18,583.7,19.7,583.3,20.9,582.4z"/>
		<path class="st5" d="M38.9,576.1l-0.4,2c-0.5-0.1-1.1-0.2-1.7-0.2c-1.3,0-2.3,0.5-3.1,1.4s-1.4,2.4-2,4.3v11.5h-2.1v-18.8h1.8
			l0.2,4.2c0.5-1.6,1.2-2.7,2.1-3.5s2-1.1,3.3-1.1C37.7,575.9,38.4,575.9,38.9,576.1z"/>
		<path class="st5" d="M54.4,578.4c1.4,1.7,2.1,4.1,2.1,7.2c0,3-0.7,5.5-2.1,7.2c-1.4,1.8-3.4,2.6-5.9,2.6s-4.4-0.9-5.8-2.6
			c-1.4-1.7-2.1-4.1-2.1-7.2c0-2,0.3-3.7,1-5.2c0.6-1.5,1.6-2.6,2.8-3.4s2.6-1.2,4.2-1.2C51,575.9,53,576.7,54.4,578.4z M44.3,579.7
			c-1,1.4-1.5,3.4-1.5,6s0.5,4.6,1.5,6s2.4,2.1,4.2,2.1s3.2-0.7,4.3-2.1s1.5-3.4,1.5-6s-0.5-4.6-1.5-6s-2.4-2-4.3-2
			C46.7,577.6,45.3,578.3,44.3,579.7z"/>
		<path class="st5" d="M71.2,594.3c-1.2,0.8-2.5,1.2-4,1.2s-2.6-0.4-3.4-1.3c-0.8-0.9-1.2-2.1-1.2-3.7V578h-3.2v-1.7h3.2v-4.5
			l2.1-0.3v4.8h4.9l-0.3,1.7h-4.6v12.5c0,1.1,0.2,1.9,0.7,2.5c0.5,0.5,1.2,0.8,2.1,0.8c1,0,1.9-0.3,2.9-0.8L71.2,594.3z"/>
		<path class="st5" d="M87.7,586.5H75.1c0.1,2.4,0.7,4.3,1.7,5.5s2.4,1.8,4.1,1.8c1,0,1.9-0.1,2.6-0.5c0.8-0.3,1.6-0.8,2.5-1.4
			l1,1.3c-0.9,0.8-1.9,1.3-2.9,1.7s-2.1,0.6-3.3,0.6c-2.5,0-4.5-0.9-5.9-2.6c-1.4-1.7-2.1-4.1-2.1-7.1c0-2,0.3-3.7,0.9-5.2
			s1.5-2.7,2.6-3.5s2.5-1.2,4-1.2c2.4,0,4.2,0.8,5.5,2.4s1.9,3.8,1.9,6.7C87.8,585.5,87.8,586,87.7,586.5z M85.7,584.3
			c0-2.1-0.4-3.8-1.3-5s-2.2-1.8-3.9-1.8c-1.6,0-2.8,0.6-3.8,1.8s-1.5,3-1.6,5.5h10.6C85.7,584.8,85.7,584.3,85.7,584.3z"/>
		<path class="st5" d="M92.4,568.8c0.3,0.3,0.4,0.6,0.4,1s-0.1,0.7-0.4,1s-0.6,0.4-1,0.4s-0.8-0.1-1-0.4c-0.3-0.3-0.4-0.6-0.4-1
			s0.1-0.7,0.4-1s0.6-0.4,1-0.4C91.8,568.4,92.1,568.5,92.4,568.8z M95.8,576.3v18.8h-2.1v-18.8H95.8z M99.2,568.8
			c0.3,0.3,0.4,0.6,0.4,1s-0.1,0.7-0.4,1s-0.6,0.4-1,0.4s-0.8-0.1-1-0.4s-0.4-0.6-0.4-1s0.1-0.7,0.4-1s0.6-0.4,1-0.4
			C98.6,568.4,98.9,568.5,99.2,568.8z"/>
		<path class="st5" d="M115.7,577.4c0.9,1,1.4,2.4,1.4,4.2v13.5H115v-13.2c0-1.5-0.3-2.6-0.9-3.3s-1.5-1-2.7-1s-2.3,0.3-3.2,1
			s-1.8,1.6-2.6,2.9v13.6h-2.1v-18.8h1.8l0.2,3.2c0.8-1.1,1.7-2,2.7-2.6s2.2-1,3.6-1C113.5,575.9,114.8,576.4,115.7,577.4z"/>
		<path class="st5" d="M136.5,593c0.3,0.4,0.7,0.8,1.2,1l-0.5,1.5c-0.9-0.2-1.5-0.5-2-1s-0.8-1.2-0.9-2.2c-1.3,2.1-3.3,3.2-5.9,3.2
			c-1.8,0-3.2-0.5-4.3-1.5s-1.6-2.4-1.6-4.1c0-1.9,0.7-3.4,2.1-4.5s3.3-1.6,5.7-1.6h3.6V582c0-1.5-0.3-2.6-1-3.3s-1.8-1-3.3-1
			c-1.4,0-3.1,0.4-5.1,1.1l-0.5-1.6c2.1-0.8,4.1-1.3,5.9-1.3c4.1,0,6.2,2,6.2,6v9.1C136.2,591.9,136.3,592.6,136.5,593z
			 M134.1,590.5v-5.2h-3.3c-1.9,0-3.4,0.4-4.4,1.1c-1,0.7-1.5,1.9-1.5,3.3c0,1.3,0.3,2.3,1,3s1.7,1,2.9,1
			C131.1,593.8,132.9,592.7,134.1,590.5z"/>
		<path class="st5" d="M163.1,576.3c0.8,0.3,1.7,0.8,2.4,1.5l-1,1.4c-0.6-0.5-1.3-0.9-1.9-1.1c-0.7-0.2-1.4-0.4-2.2-0.4
			c-1.8,0-3.2,0.7-4.2,2.1c-1.1,1.4-1.6,3.4-1.6,6s0.5,4.6,1.6,5.9c1,1.3,2.5,2,4.2,2c0.8,0,1.6-0.1,2.3-0.4
			c0.7-0.3,1.4-0.7,2.1-1.2l1,1.4c-1.6,1.3-3.4,2-5.4,2c-1.6,0-3-0.4-4.2-1.2s-2.1-1.9-2.8-3.3c-0.7-1.5-1-3.2-1-5.2s0.3-3.7,1-5.2
			s1.6-2.7,2.8-3.5s2.6-1.2,4.2-1.2C161.3,575.9,162.3,576,163.1,576.3z"/>
		<path class="st5" d="M182.4,578.4c1.4,1.7,2.1,4.1,2.1,7.2c0,3-0.7,5.5-2.1,7.2c-1.4,1.8-3.4,2.6-5.9,2.6s-4.4-0.9-5.8-2.6
			c-1.4-1.7-2.1-4.1-2.1-7.2c0-2,0.3-3.7,1-5.2c0.6-1.5,1.6-2.6,2.8-3.4s2.6-1.2,4.2-1.2C179.1,575.9,181,576.7,182.4,578.4z
			 M172.3,579.7c-1,1.4-1.5,3.4-1.5,6s0.5,4.6,1.5,6s2.4,2.1,4.2,2.1s3.2-0.7,4.3-2.1s1.5-3.4,1.5-6s-0.5-4.6-1.5-6s-2.4-2-4.3-2
			C174.7,577.6,173.3,578.3,172.3,579.7z"/>
		<path class="st5" d="M202.9,577.4c0.9,1,1.4,2.4,1.4,4.2v13.5h-2.1v-13.2c0-1.5-0.3-2.6-0.9-3.3c-0.6-0.7-1.5-1-2.7-1
			s-2.3,0.3-3.2,1s-1.8,1.6-2.6,2.9v13.6h-2.1v-18.8h1.8l0.2,3.2c0.8-1.1,1.7-2,2.7-2.6s2.2-1,3.6-1
			C200.7,575.9,202,576.4,202.9,577.4z"/>
		<path class="st5" d="M225.1,568.6v26.5h-1.8l-0.3-2.9c-1.3,2.2-3.2,3.3-5.7,3.3c-2.2,0-3.9-0.9-5.2-2.6c-1.3-1.7-1.9-4.1-1.9-7.1
			c0-1.9,0.3-3.7,0.9-5.1c0.6-1.5,1.4-2.7,2.6-3.5c1.1-0.8,2.4-1.3,3.9-1.3c2.1,0,3.9,0.9,5.3,2.6v-10.1L225.1,568.6z M220.8,592.9
			c0.8-0.6,1.6-1.5,2.2-2.6v-9.8c-1.3-1.9-3-2.8-4.9-2.8c-1.7,0-3.1,0.7-4.1,2.1c-1,1.4-1.5,3.4-1.5,6s0.5,4.6,1.4,6
			s2.2,2.1,3.8,2.1C218.9,593.8,219.9,593.5,220.8,592.9z"/>
		<path class="st5" d="M245.9,595.1h-1.8l-0.1-3.3c-1.5,2.5-3.5,3.7-6.2,3.7c-1.7,0-3-0.5-3.9-1.5s-1.4-2.4-1.4-4.3v-13.5h2.1v13.2
			c0,1.5,0.3,2.5,0.9,3.2c0.6,0.7,1.5,1,2.8,1c2.2,0,4-1.3,5.5-3.9v-13.6h2.1L245.9,595.1L245.9,595.1z"/>
		<path class="st5" d="M262.9,576.3c0.8,0.3,1.7,0.8,2.4,1.5l-1,1.4c-0.6-0.5-1.3-0.9-1.9-1.1c-0.7-0.2-1.4-0.4-2.2-0.4
			c-1.8,0-3.2,0.7-4.2,2.1c-1.1,1.4-1.6,3.4-1.6,6s0.5,4.6,1.6,5.9c1,1.3,2.5,2,4.2,2c0.8,0,1.6-0.1,2.3-0.4
			c0.7-0.3,1.4-0.7,2.1-1.2l1,1.4c-1.6,1.3-3.4,2-5.4,2c-1.6,0-3-0.4-4.2-1.2s-2.1-1.9-2.8-3.3c-0.7-1.5-1-3.2-1-5.2s0.3-3.7,1-5.2
			s1.6-2.7,2.8-3.5s2.6-1.2,4.2-1.2C261.1,575.9,262,576,262.9,576.3z"/>
		<path class="st5" d="M279,594.3c-1.2,0.8-2.5,1.2-4,1.2s-2.6-0.4-3.4-1.3c-0.8-0.9-1.2-2.1-1.2-3.7V578h-3.2v-1.7h3.2v-4.5
			l2.1-0.3v4.8h4.9l-0.3,1.7h-4.6v12.5c0,1.1,0.2,1.9,0.7,2.5c0.5,0.5,1.2,0.8,2.1,0.8c1,0,1.9-0.3,2.9-0.8L279,594.3z"/>
		<path class="st5" d="M294.6,578.4c1.4,1.7,2.1,4.1,2.1,7.2c0,3-0.7,5.5-2.1,7.2c-1.4,1.8-3.4,2.6-5.9,2.6s-4.4-0.9-5.8-2.6
			c-1.4-1.7-2.1-4.1-2.1-7.2c0-2,0.3-3.7,1-5.2c0.6-1.5,1.6-2.6,2.8-3.4s2.6-1.2,4.2-1.2C291.3,575.9,293.2,576.7,294.6,578.4z
			 M284.5,579.7c-1,1.4-1.5,3.4-1.5,6s0.5,4.6,1.5,6s2.4,2.1,4.2,2.1s3.2-0.7,4.3-2.1s1.5-3.4,1.5-6s-0.5-4.6-1.5-6s-2.4-2-4.3-2
			C286.9,577.6,285.5,578.3,284.5,579.7z"/>
		<path class="st5" d="M312,576.1l-0.4,2c-0.5-0.1-1.1-0.2-1.7-0.2c-1.3,0-2.3,0.5-3.1,1.4c-0.8,0.9-1.4,2.4-2,4.3v11.5h-2.1v-18.8
			h1.8l0.2,4.2c0.5-1.6,1.2-2.7,2.1-3.5s2-1.1,3.3-1.1C310.9,575.9,311.5,575.9,312,576.1z"/>
		<path class="st5" d="M327.1,593c0.3,0.4,0.7,0.8,1.2,1l-0.5,1.5c-0.9-0.2-1.5-0.5-2-1s-0.8-1.2-0.9-2.2c-1.3,2.1-3.3,3.2-5.9,3.2
			c-1.8,0-3.2-0.5-4.3-1.5s-1.6-2.4-1.6-4.1c0-1.9,0.7-3.4,2.1-4.5s3.3-1.6,5.7-1.6h3.6V582c0-1.5-0.3-2.6-1-3.3s-1.8-1-3.3-1
			c-1.4,0-3.1,0.4-5.1,1.1l-0.5-1.6c2.1-0.8,4.1-1.3,5.9-1.3c4.1,0,6.2,2,6.2,6v9.1C326.7,591.9,326.8,592.6,327.1,593z
			 M324.6,590.5v-5.2h-3.3c-1.9,0-3.4,0.4-4.4,1.1c-1,0.7-1.5,1.9-1.5,3.3c0,1.3,0.3,2.3,1,3s1.7,1,2.9,1
			C321.7,593.8,323.4,592.7,324.6,590.5z"/>
		<path class="st5" d="M126.1,630.2c-0.7,0.5-1.5,0.9-2.4,1.1c-0.9,0.3-1.8,0.4-2.8,0.4c-4.2,0-6.3-2.3-6.3-6.9v-8.9H112v-4h2.7
			v-4.1l5.7-0.6v4.8h4.4l-0.6,4h-3.8v8.8c0,0.9,0.1,1.5,0.4,1.9s0.7,0.6,1.4,0.6c0.6,0,1.3-0.2,2.1-0.6L126.1,630.2z"/>
		<path class="st5" d="M133.3,602.8c0.6,0.6,1,1.4,1,2.3c0,0.9-0.3,1.7-1,2.3c-0.6,0.6-1.4,0.9-2.4,0.9s-1.8-0.3-2.4-0.9
			c-0.6-0.6-0.9-1.4-0.9-2.3c0-0.9,0.3-1.7,0.9-2.3c0.6-0.6,1.4-0.9,2.4-0.9C131.8,601.9,132.6,602.2,133.3,602.8z M133.7,612v19.1
			H128V612H133.7z"/>
		<path class="st5" d="M154.3,614c1.2,1.8,1.8,4.3,1.8,7.5c0,2-0.3,3.7-0.9,5.3c-0.6,1.5-1.5,2.8-2.6,3.6c-1.2,0.9-2.5,1.3-4,1.3
			c-1.9,0-3.5-0.7-4.6-2v8.7l-5.7,0.6v-27h5l0.3,2.1c0.7-0.9,1.6-1.6,2.6-2.1c1-0.4,1.9-0.7,3-0.7
			C151.4,611.4,153.2,612.2,154.3,614z M150.2,621.5c0-2.3-0.3-3.8-0.8-4.7s-1.3-1.3-2.3-1.3c-0.6,0-1.3,0.2-1.8,0.6
			c-0.6,0.4-1.1,0.9-1.5,1.7v8.1c0.8,1.1,1.7,1.7,2.9,1.7C149.1,627.5,150.2,625.5,150.2,621.5z"/>
		<path class="st5" d="M175.8,631.1h-4.9l-0.3-2.4c-1.4,2-3.3,3-5.8,3c-1.8,0-3.1-0.5-4-1.6s-1.4-2.5-1.4-4.4V612h5.7v13
			c0,0.9,0.1,1.6,0.4,2c0.3,0.4,0.8,0.6,1.4,0.6c1.2,0,2.2-0.7,3.1-2.2V612h5.7v19.1H175.8z"/>
		<path class="st5" d="M190.9,612c1.2,0.4,2.3,1,3.2,1.7l-2.1,3.2c-1.6-1-3.1-1.5-4.7-1.5c-0.7,0-1.3,0.1-1.7,0.4s-0.6,0.6-0.6,1.1
			c0,0.4,0.1,0.7,0.3,0.9s0.5,0.5,1.1,0.7s1.4,0.5,2.6,0.9c2,0.6,3.5,1.3,4.4,2.2c1,0.9,1.5,2.2,1.5,3.8c0,1.3-0.4,2.4-1.1,3.4
			c-0.7,0.9-1.8,1.7-3.1,2.2s-2.7,0.8-4.3,0.8s-3.1-0.3-4.5-0.8s-2.6-1.2-3.5-2.1l2.8-3.1c1.6,1.2,3.3,1.9,5.1,1.9
			c0.9,0,1.5-0.2,2-0.5s0.7-0.8,0.7-1.3s-0.1-0.8-0.3-1.1s-0.6-0.5-1.1-0.7c-0.6-0.2-1.4-0.5-2.6-0.8c-1.9-0.6-3.3-1.3-4.2-2.3
			s-1.4-2.2-1.4-3.7c0-1.1,0.3-2.1,1-3c0.6-0.9,1.5-1.6,2.7-2.1s2.6-0.8,4.1-0.8C188.4,611.4,189.7,611.6,190.9,612z"/>
		<path class="st5" d="M220.6,606.2c1.2,0.5,2.4,1.1,3.4,2.1l-2.8,3.3c-0.7-0.6-1.5-1-2.2-1.3s-1.5-0.4-2.3-0.4c-1.7,0-3,0.7-4,2.1
			c-1,1.4-1.5,3.6-1.5,6.6c0,2.9,0.5,5.1,1.5,6.5s2.3,2.1,4.1,2.1c0.9,0,1.7-0.2,2.5-0.5c0.7-0.3,1.5-0.8,2.4-1.5l2.6,3.4
			c-0.9,0.9-2.1,1.7-3.4,2.3c-1.3,0.6-2.8,0.9-4.4,0.9c-2.3,0-4.3-0.5-6-1.5s-3-2.5-4-4.5c-0.9-2-1.4-4.4-1.4-7.1
			c0-2.7,0.5-5.1,1.5-7s2.3-3.5,4-4.5s3.7-1.5,5.8-1.5C218,605.5,219.4,605.8,220.6,606.2z"/>
	</g>
</g>
<g>
	<g>
		<path class="st6" d="M22.6,339.2c1.6,1.2,2.4,3.1,2.4,5.6c0,2.6-0.8,4.6-2.5,5.8c-1.6,1.2-3.9,1.9-6.8,1.9h-3.5v9.6H10v-24.7h5.8
			C18.8,337.4,21,338,22.6,339.2z M20.9,349.4c1.2-0.9,1.8-2.4,1.8-4.5c0-2-0.6-3.5-1.7-4.3c-1.2-0.9-2.9-1.3-5.1-1.3h-3.6v11.5h3.5
			C18,350.7,19.7,350.3,20.9,349.4z"/>
		<path class="st6" d="M38.9,343.1l-0.4,2c-0.5-0.1-1.1-0.2-1.7-0.2c-1.3,0-2.3,0.5-3.1,1.4s-1.4,2.4-2,4.3v11.5h-2.1v-18.8h1.8
			l0.2,4.2c0.5-1.6,1.2-2.7,2.1-3.5s2-1.1,3.3-1.1C37.7,342.9,38.4,342.9,38.9,343.1z"/>
		<path class="st6" d="M54.4,345.4c1.4,1.7,2.1,4.1,2.1,7.2c0,3-0.7,5.5-2.1,7.2c-1.4,1.8-3.4,2.6-5.9,2.6s-4.4-0.9-5.8-2.6
			c-1.4-1.7-2.1-4.1-2.1-7.2c0-2,0.3-3.7,1-5.2c0.6-1.5,1.6-2.6,2.8-3.4s2.6-1.2,4.2-1.2C51,342.9,53,343.7,54.4,345.4z M44.3,346.7
			c-1,1.4-1.5,3.4-1.5,6s0.5,4.6,1.5,6s2.4,2.1,4.2,2.1s3.2-0.7,4.3-2.1s1.5-3.4,1.5-6s-0.5-4.6-1.5-6s-2.4-2-4.3-2
			C46.7,344.6,45.3,345.3,44.3,346.7z"/>
		<path class="st6" d="M71.2,361.3c-1.2,0.8-2.5,1.2-4,1.2s-2.6-0.4-3.4-1.3c-0.8-0.9-1.2-2.1-1.2-3.7V345h-3.2v-1.7h3.2v-4.5
			l2.1-0.3v4.8h4.9l-0.3,1.7h-4.6v12.5c0,1.1,0.2,1.9,0.7,2.5c0.5,0.5,1.2,0.8,2.1,0.8c1,0,1.9-0.3,2.9-0.8L71.2,361.3z"/>
		<path class="st6" d="M87.7,353.5H75.1c0.1,2.4,0.7,4.3,1.7,5.5s2.4,1.8,4.1,1.8c1,0,1.9-0.1,2.6-0.5c0.8-0.3,1.6-0.8,2.5-1.4
			l1,1.3c-0.9,0.8-1.9,1.3-2.9,1.7c-1,0.4-2.1,0.6-3.3,0.6c-2.5,0-4.5-0.9-5.9-2.6s-2.1-4.1-2.1-7.1c0-2,0.3-3.7,0.9-5.2
			s1.5-2.7,2.6-3.5s2.5-1.2,4-1.2c2.4,0,4.2,0.8,5.5,2.4s1.9,3.8,1.9,6.7C87.8,352.5,87.8,353,87.7,353.5z M85.7,351.3
			c0-2.1-0.4-3.8-1.3-5s-2.2-1.8-3.9-1.8c-1.6,0-2.8,0.6-3.8,1.8c-1,1.2-1.5,3-1.6,5.5h10.6C85.7,351.8,85.7,351.3,85.7,351.3z"/>
		<path class="st6" d="M92.4,335.8c0.3,0.3,0.4,0.6,0.4,1s-0.1,0.7-0.4,1s-0.6,0.4-1,0.4s-0.8-0.1-1-0.4c-0.3-0.3-0.4-0.6-0.4-1
			s0.1-0.7,0.4-1s0.6-0.4,1-0.4S92.1,335.5,92.4,335.8z M95.8,343.3v18.8h-2.1v-18.8H95.8z M99.2,335.8c0.3,0.3,0.4,0.6,0.4,1
			s-0.1,0.7-0.4,1s-0.6,0.4-1,0.4s-0.8-0.1-1-0.4s-0.4-0.6-0.4-1s0.1-0.7,0.4-1s0.6-0.4,1-0.4S98.9,335.5,99.2,335.8z"/>
		<path class="st6" d="M115.7,344.4c0.9,1,1.4,2.4,1.4,4.2v13.5H115v-13.2c0-1.5-0.3-2.6-0.9-3.3c-0.6-0.7-1.5-1-2.7-1
			s-2.3,0.3-3.2,1s-1.8,1.6-2.6,2.9v13.6h-2.1v-18.8h1.8l0.2,3.2c0.8-1.1,1.7-2,2.7-2.6s2.2-1,3.6-1
			C113.5,342.9,114.8,343.4,115.7,344.4z"/>
		<path class="st6" d="M136.5,360c0.3,0.4,0.7,0.8,1.2,1l-0.5,1.5c-0.9-0.2-1.5-0.5-2-1s-0.8-1.2-0.9-2.2c-1.3,2.1-3.3,3.2-5.9,3.2
			c-1.8,0-3.2-0.5-4.3-1.5s-1.6-2.4-1.6-4.1c0-1.9,0.7-3.4,2.1-4.5s3.3-1.6,5.7-1.6h3.6V349c0-1.5-0.3-2.6-1-3.3
			c-0.7-0.7-1.8-1-3.3-1c-1.4,0-3.1,0.4-5.1,1.1l-0.5-1.6c2.1-0.8,4.1-1.3,5.9-1.3c4.1,0,6.2,2,6.2,6v9.1
			C136.2,358.9,136.3,359.6,136.5,360z M134.1,357.5v-5.2h-3.3c-1.9,0-3.4,0.4-4.4,1.1s-1.5,1.9-1.5,3.3c0,1.3,0.3,2.3,1,3
			s1.7,1,2.9,1C131.1,360.8,132.9,359.7,134.1,357.5z"/>
		<path class="st6" d="M163.1,343.3c0.8,0.3,1.7,0.8,2.4,1.5l-1,1.4c-0.6-0.5-1.3-0.9-1.9-1.1c-0.7-0.2-1.4-0.4-2.2-0.4
			c-1.8,0-3.2,0.7-4.2,2.1c-1.1,1.4-1.6,3.4-1.6,6s0.5,4.6,1.6,5.9c1,1.3,2.5,2,4.2,2c0.8,0,1.6-0.1,2.3-0.4s1.4-0.7,2.1-1.2l1,1.4
			c-1.6,1.3-3.4,2-5.4,2c-1.6,0-3-0.4-4.2-1.2c-1.2-0.8-2.1-1.9-2.8-3.3c-0.7-1.5-1-3.2-1-5.2s0.3-3.7,1-5.2s1.6-2.7,2.8-3.5
			s2.6-1.2,4.2-1.2C161.3,342.9,162.3,343,163.1,343.3z"/>
		<path class="st6" d="M182.4,345.4c1.4,1.7,2.1,4.1,2.1,7.2c0,3-0.7,5.5-2.1,7.2c-1.4,1.8-3.4,2.6-5.9,2.6s-4.4-0.9-5.8-2.6
			c-1.4-1.7-2.1-4.1-2.1-7.2c0-2,0.3-3.7,1-5.2c0.6-1.5,1.6-2.6,2.8-3.4s2.6-1.2,4.2-1.2C179.1,342.9,181,343.7,182.4,345.4z
			 M172.3,346.7c-1,1.4-1.5,3.4-1.5,6s0.5,4.6,1.5,6s2.4,2.1,4.2,2.1s3.2-0.7,4.3-2.1s1.5-3.4,1.5-6s-0.5-4.6-1.5-6s-2.4-2-4.3-2
			C174.7,344.6,173.3,345.3,172.3,346.7z"/>
		<path class="st6" d="M202.9,344.4c0.9,1,1.4,2.4,1.4,4.2v13.5h-2.1v-13.2c0-1.5-0.3-2.6-0.9-3.3c-0.6-0.7-1.5-1-2.7-1
			s-2.3,0.3-3.2,1s-1.8,1.6-2.6,2.9v13.6h-2.1v-18.8h1.8l0.2,3.2c0.8-1.1,1.7-2,2.7-2.6s2.2-1,3.6-1
			C200.7,342.9,202,343.4,202.9,344.4z"/>
		<path class="st6" d="M225.1,335.6v26.5h-1.8l-0.3-2.9c-1.3,2.2-3.2,3.3-5.7,3.3c-2.2,0-3.9-0.9-5.2-2.6s-1.9-4.1-1.9-7.1
			c0-1.9,0.3-3.7,0.9-5.1c0.6-1.5,1.4-2.7,2.6-3.5c1.1-0.8,2.4-1.3,3.9-1.3c2.1,0,3.9,0.9,5.3,2.6v-10.1L225.1,335.6z M220.8,359.9
			c0.8-0.6,1.6-1.5,2.2-2.6v-9.8c-1.3-1.9-3-2.8-4.9-2.8c-1.7,0-3.1,0.7-4.1,2.1s-1.5,3.4-1.5,6s0.5,4.6,1.4,6s2.2,2.1,3.8,2.1
			C218.9,360.8,219.9,360.5,220.8,359.9z"/>
		<path class="st6" d="M245.9,362.1h-1.8l-0.1-3.3c-1.5,2.5-3.5,3.7-6.2,3.7c-1.7,0-3-0.5-3.9-1.5s-1.4-2.4-1.4-4.3v-13.5h2.1v13.2
			c0,1.5,0.3,2.5,0.9,3.2c0.6,0.7,1.5,1,2.8,1c2.2,0,4-1.3,5.5-3.9v-13.6h2.1L245.9,362.1L245.9,362.1z"/>
		<path class="st6" d="M262.9,343.3c0.8,0.3,1.7,0.8,2.4,1.5l-1,1.4c-0.6-0.5-1.3-0.9-1.9-1.1c-0.7-0.2-1.4-0.4-2.2-0.4
			c-1.8,0-3.2,0.7-4.2,2.1c-1.1,1.4-1.6,3.4-1.6,6s0.5,4.6,1.6,5.9c1,1.3,2.5,2,4.2,2c0.8,0,1.6-0.1,2.3-0.4
			c0.7-0.3,1.4-0.7,2.1-1.2l1,1.4c-1.6,1.3-3.4,2-5.4,2c-1.6,0-3-0.4-4.2-1.2c-1.2-0.8-2.1-1.9-2.8-3.3c-0.7-1.5-1-3.2-1-5.2
			s0.3-3.7,1-5.2s1.6-2.7,2.8-3.5s2.6-1.2,4.2-1.2C261.1,342.9,262,343,262.9,343.3z"/>
		<path class="st6" d="M279,361.3c-1.2,0.8-2.5,1.2-4,1.2s-2.6-0.4-3.4-1.3s-1.2-2.1-1.2-3.7V345h-3.2v-1.7h3.2v-4.5l2.1-0.3v4.8
			h4.9l-0.3,1.7h-4.6v12.5c0,1.1,0.2,1.9,0.7,2.5c0.5,0.5,1.2,0.8,2.1,0.8c1,0,1.9-0.3,2.9-0.8L279,361.3z"/>
		<path class="st6" d="M294.6,345.4c1.4,1.7,2.1,4.1,2.1,7.2c0,3-0.7,5.5-2.1,7.2c-1.4,1.8-3.4,2.6-5.9,2.6s-4.4-0.9-5.8-2.6
			s-2.1-4.1-2.1-7.2c0-2,0.3-3.7,1-5.2c0.6-1.5,1.6-2.6,2.8-3.4s2.6-1.2,4.2-1.2C291.3,342.9,293.2,343.7,294.6,345.4z M284.5,346.7
			c-1,1.4-1.5,3.4-1.5,6s0.5,4.6,1.5,6s2.4,2.1,4.2,2.1s3.2-0.7,4.3-2.1s1.5-3.4,1.5-6s-0.5-4.6-1.5-6s-2.4-2-4.3-2
			C286.9,344.6,285.5,345.3,284.5,346.7z"/>
		<path class="st6" d="M312,343.1l-0.4,2c-0.5-0.1-1.1-0.2-1.7-0.2c-1.3,0-2.3,0.5-3.1,1.4c-0.8,0.9-1.4,2.4-2,4.3v11.5h-2.1v-18.8
			h1.8l0.2,4.2c0.5-1.6,1.2-2.7,2.1-3.5s2-1.1,3.3-1.1C310.9,342.9,311.5,342.9,312,343.1z"/>
		<path class="st6" d="M327.1,360c0.3,0.4,0.7,0.8,1.2,1l-0.5,1.5c-0.9-0.2-1.5-0.5-2-1s-0.8-1.2-0.9-2.2c-1.3,2.1-3.3,3.2-5.9,3.2
			c-1.8,0-3.2-0.5-4.3-1.5s-1.6-2.4-1.6-4.1c0-1.9,0.7-3.4,2.1-4.5s3.3-1.6,5.7-1.6h3.6V349c0-1.5-0.3-2.6-1-3.3
			c-0.7-0.7-1.8-1-3.3-1c-1.4,0-3.1,0.4-5.1,1.1l-0.5-1.6c2.1-0.8,4.1-1.3,5.9-1.3c4.1,0,6.2,2,6.2,6v9.1
			C326.7,358.9,326.8,359.6,327.1,360z M324.6,357.5v-5.2h-3.3c-1.9,0-3.4,0.4-4.4,1.1s-1.5,1.9-1.5,3.3c0,1.3,0.3,2.3,1,3
			s1.7,1,2.9,1C321.7,360.8,323.4,359.7,324.6,357.5z"/>
		<path class="st6" d="M125.4,397.2c-0.7,0.5-1.5,0.9-2.4,1.1c-0.9,0.3-1.8,0.4-2.8,0.4c-4.2,0-6.3-2.3-6.3-6.9v-8.9h-2.7v-4h2.7
			v-4.1l5.7-0.6v4.8h4.4l-0.6,4h-3.8v8.8c0,0.9,0.1,1.5,0.4,1.9s0.7,0.6,1.4,0.6c0.6,0,1.3-0.2,2.1-0.6L125.4,397.2z"/>
		<path class="st6" d="M132.5,369.8c0.6,0.6,1,1.4,1,2.3s-0.3,1.7-1,2.3c-0.6,0.6-1.4,0.9-2.4,0.9s-1.8-0.3-2.4-0.9
			s-0.9-1.4-0.9-2.3s0.3-1.7,0.9-2.3c0.6-0.6,1.4-0.9,2.4-0.9S131.9,369.2,132.5,369.8z M133,379v19.1h-5.7V379H133z"/>
		<path class="st6" d="M153.6,381c1.2,1.8,1.8,4.3,1.8,7.5c0,2-0.3,3.7-0.9,5.3c-0.6,1.5-1.5,2.8-2.6,3.6c-1.2,0.9-2.5,1.3-4,1.3
			c-1.9,0-3.5-0.7-4.6-2v8.7l-5.7,0.6v-27h5l0.3,2.1c0.7-0.9,1.6-1.6,2.6-2.1c1-0.4,1.9-0.7,3-0.7
			C150.6,378.4,152.4,379.2,153.6,381z M149.5,388.5c0-2.3-0.3-3.8-0.8-4.7c-0.5-0.9-1.3-1.3-2.3-1.3c-0.6,0-1.3,0.2-1.8,0.6
			c-0.6,0.4-1.1,0.9-1.5,1.7v8.1c0.8,1.1,1.7,1.7,2.9,1.7C148.3,394.5,149.5,392.5,149.5,388.5z"/>
		<path class="st6" d="M175,398.1h-4.9l-0.3-2.4c-1.4,2-3.3,3-5.8,3c-1.8,0-3.1-0.5-4-1.6s-1.4-2.5-1.4-4.4V379h5.7v13
			c0,0.9,0.1,1.6,0.4,2c0.3,0.4,0.8,0.6,1.4,0.6c1.2,0,2.2-0.7,3.1-2.2V379h5.7v19.1H175z"/>
		<path class="st6" d="M190.1,379c1.2,0.4,2.3,1,3.2,1.7l-2.1,3.2c-1.6-1-3.1-1.5-4.7-1.5c-0.7,0-1.3,0.1-1.7,0.4s-0.6,0.6-0.6,1.1
			c0,0.4,0.1,0.7,0.3,0.9c0.2,0.2,0.5,0.5,1.1,0.7s1.4,0.5,2.6,0.9c2,0.6,3.5,1.3,4.4,2.2c1,0.9,1.5,2.2,1.5,3.8
			c0,1.3-0.4,2.4-1.1,3.4c-0.7,0.9-1.8,1.7-3.1,2.2s-2.7,0.8-4.3,0.8s-3.1-0.3-4.5-0.8s-2.6-1.2-3.5-2.1l2.8-3.1
			c1.6,1.2,3.3,1.9,5.1,1.9c0.9,0,1.5-0.2,2-0.5s0.7-0.8,0.7-1.3s-0.1-0.8-0.3-1.1c-0.2-0.3-0.6-0.5-1.1-0.7
			c-0.6-0.2-1.4-0.5-2.6-0.8c-1.9-0.6-3.3-1.3-4.2-2.3s-1.4-2.2-1.4-3.7c0-1.1,0.3-2.1,1-3c0.6-0.9,1.5-1.6,2.7-2.1s2.6-0.8,4.1-0.8
			C187.6,378.4,188.9,378.6,190.1,379z"/>
		<path class="st6" d="M222.9,386.7c1,0.9,1.6,2.3,1.6,4.1c0,2.7-1,4.5-2.9,5.6s-4.6,1.6-8,1.6h-8v-24.9h7.1c3.5,0,6.2,0.5,8,1.5
			s2.8,2.6,2.8,4.9c0,1.5-0.4,2.6-1.3,3.5c-0.9,0.9-2,1.5-3.3,1.8C220.5,385.2,221.8,385.8,222.9,386.7z M211.4,377.3v5.8h2.2
			c2.5,0,3.7-1,3.7-3c0-1-0.3-1.7-1-2.1s-1.7-0.6-3.2-0.6L211.4,377.3L211.4,377.3z M217.1,393.1c0.8-0.5,1.2-1.3,1.2-2.6
			c0-2.3-1.4-3.5-4.3-3.5h-2.6v6.8h2.2C215.2,393.8,216.3,393.6,217.1,393.1z"/>
	</g>
	<g>
		<circle class="st9" cx="213.2" cy="278.1" r="10.1"/>
		<circle class="st9" cx="163.4" cy="244.1" r="10.1"/>
		<circle class="st9" cx="140.3" cy="307.6" r="10.1"/>
		<circle class="st9" cx="178.5" cy="249.4" r="10.1"/>
		<circle class="st9" cx="122.4" cy="314.2" r="10.1"/>
		<circle class="st9" cx="192.2" cy="260.7" r="10.1"/>
		<circle class="st9" cx="199.3" cy="291.1" r="10.1"/>
		<circle class="st9" cx="178" cy="265.7" r="10.1"/>
		<circle class="st9" cx="175.3" cy="279.8" r="10.1"/>
		<circle class="st9" cx="159.2" cy="305.5" r="10.1"/>
		<circle class="st9" cx="184.3" cy="297.1" r="10.1"/>
		<circle class="st9" cx="168.6" cy="295.9" r="10.1"/>
		<circle class="st9" cx="215.8" cy="293" r="10.1"/>
		<circle class="st6" cx="158.4" cy="286.9" r="10.1"/>
	</g>
</g>
<g>
	<g>
		<circle class="st10" cx="213.2" cy="48.1" r="10.1"/>
		<circle class="st10" cx="163.4" cy="14.1" r="10.1"/>
		<circle class="st10" cx="140.3" cy="77.6" r="10.1"/>
		<circle class="st10" cx="178.5" cy="19.4" r="10.1"/>
		<circle class="st10" cx="122.4" cy="84.2" r="10.1"/>
		<circle class="st10" cx="192.2" cy="30.7" r="10.1"/>
		<circle class="st10" cx="158.4" cy="56.9" r="10.1"/>
		<circle class="st10" cx="199.3" cy="61.1" r="10.1"/>
		<circle class="st10" cx="178" cy="35.7" r="10.1"/>
		<circle class="st10" cx="175.3" cy="49.8" r="10.1"/>
		<circle class="st10" cx="159.2" cy="75.5" r="10.1"/>
		<circle class="st10" cx="184.3" cy="67.1" r="10.1"/>
		<circle class="st10" cx="168.6" cy="65.9" r="10.1"/>
		<circle class="st7" cx="215.8" cy="63" r="10.1"/>
	</g>
	<g>
		<path class="st7" d="M22.6,112.2c1.6,1.2,2.4,3.1,2.4,5.6c0,2.6-0.8,4.6-2.5,5.8c-1.6,1.2-3.9,1.9-6.8,1.9h-3.5v9.6H10v-24.7h5.8
			C18.8,110.4,21,111,22.6,112.2z M20.9,122.4c1.2-0.9,1.8-2.4,1.8-4.5c0-2-0.6-3.5-1.7-4.3c-1.2-0.9-2.9-1.3-5.1-1.3h-3.6v11.5h3.5
			C18,123.7,19.7,123.3,20.9,122.4z"/>
		<path class="st7" d="M38.9,116.1l-0.4,2c-0.5-0.1-1.1-0.2-1.7-0.2c-1.3,0-2.3,0.5-3.1,1.4s-1.4,2.4-2,4.3v11.5h-2.1v-18.8h1.8
			l0.2,4.2c0.5-1.6,1.2-2.7,2.1-3.5s2-1.1,3.3-1.1C37.7,115.9,38.4,115.9,38.9,116.1z"/>
		<path class="st7" d="M54.4,118.4c1.4,1.7,2.1,4.1,2.1,7.2c0,3-0.7,5.5-2.1,7.2c-1.4,1.8-3.4,2.6-5.9,2.6s-4.4-0.9-5.8-2.6
			c-1.4-1.7-2.1-4.1-2.1-7.2c0-2,0.3-3.7,1-5.2c0.6-1.5,1.6-2.6,2.8-3.4s2.6-1.2,4.2-1.2C51,115.9,53,116.7,54.4,118.4z M44.3,119.7
			c-1,1.4-1.5,3.4-1.5,6c0,2.6,0.5,4.6,1.5,6s2.4,2.1,4.2,2.1s3.2-0.7,4.3-2.1s1.5-3.4,1.5-6c0-2.6-0.5-4.6-1.5-6s-2.4-2-4.3-2
			C46.7,117.6,45.3,118.3,44.3,119.7z"/>
		<path class="st7" d="M71.2,134.3c-1.2,0.8-2.5,1.2-4,1.2s-2.6-0.4-3.4-1.3c-0.8-0.9-1.2-2.1-1.2-3.7V118h-3.2v-1.7h3.2v-4.5
			l2.1-0.3v4.8h4.9l-0.3,1.7h-4.6v12.5c0,1.1,0.2,1.9,0.7,2.5c0.5,0.5,1.2,0.8,2.1,0.8c1,0,1.9-0.3,2.9-0.8L71.2,134.3z"/>
		<path class="st7" d="M87.7,126.5H75.1c0.1,2.4,0.7,4.3,1.7,5.5s2.4,1.8,4.1,1.8c1,0,1.9-0.1,2.6-0.5c0.8-0.3,1.6-0.8,2.5-1.4
			l1,1.3c-0.9,0.8-1.9,1.3-2.9,1.7s-2.1,0.6-3.3,0.6c-2.5,0-4.5-0.9-5.9-2.6c-1.4-1.7-2.1-4.1-2.1-7.1c0-2,0.3-3.7,0.9-5.2
			s1.5-2.7,2.6-3.5s2.5-1.2,4-1.2c2.4,0,4.2,0.8,5.5,2.4s1.9,3.8,1.9,6.7C87.8,125.5,87.8,126,87.7,126.5z M85.7,124.3
			c0-2.1-0.4-3.8-1.3-5s-2.2-1.8-3.9-1.8c-1.6,0-2.8,0.6-3.8,1.8c-1,1.2-1.5,3-1.6,5.5h10.6C85.7,124.8,85.7,124.3,85.7,124.3z"/>
		<path class="st7" d="M92.4,108.8c0.3,0.3,0.4,0.6,0.4,1s-0.1,0.7-0.4,1s-0.6,0.4-1,0.4s-0.8-0.1-1-0.4c-0.3-0.3-0.4-0.6-0.4-1
			s0.1-0.7,0.4-1s0.6-0.4,1-0.4S92.1,108.5,92.4,108.8z M95.8,116.3v18.8h-2.1v-18.8H95.8z M99.2,108.8c0.3,0.3,0.4,0.6,0.4,1
			s-0.1,0.7-0.4,1s-0.6,0.4-1,0.4s-0.8-0.1-1-0.4s-0.4-0.6-0.4-1s0.1-0.7,0.4-1s0.6-0.4,1-0.4S98.9,108.5,99.2,108.8z"/>
		<path class="st7" d="M115.7,117.4c0.9,1,1.4,2.4,1.4,4.2v13.5H115v-13.2c0-1.5-0.3-2.6-0.9-3.3c-0.6-0.7-1.5-1-2.7-1
			s-2.3,0.3-3.2,1s-1.8,1.6-2.6,2.9v13.6h-2.1v-18.8h1.8l0.2,3.2c0.8-1.1,1.7-2,2.7-2.6s2.2-1,3.6-1
			C113.5,115.9,114.8,116.4,115.7,117.4z"/>
		<path class="st7" d="M136.5,133c0.3,0.4,0.7,0.8,1.2,1l-0.5,1.5c-0.9-0.2-1.5-0.5-2-1s-0.8-1.2-0.9-2.2c-1.3,2.1-3.3,3.2-5.9,3.2
			c-1.8,0-3.2-0.5-4.3-1.5s-1.6-2.4-1.6-4.1c0-1.9,0.7-3.4,2.1-4.5s3.3-1.6,5.7-1.6h3.6V122c0-1.5-0.3-2.6-1-3.3
			c-0.7-0.7-1.8-1-3.3-1c-1.4,0-3.1,0.4-5.1,1.1l-0.5-1.6c2.1-0.8,4.1-1.3,5.9-1.3c4.1,0,6.2,2,6.2,6v9.1
			C136.2,131.9,136.3,132.6,136.5,133z M134.1,130.5v-5.2h-3.3c-1.9,0-3.4,0.4-4.4,1.1s-1.5,1.9-1.5,3.3c0,1.3,0.3,2.3,1,3
			s1.7,1,2.9,1C131.1,133.8,132.9,132.7,134.1,130.5z"/>
		<path class="st7" d="M163.1,116.3c0.8,0.3,1.7,0.8,2.4,1.5l-1,1.4c-0.6-0.5-1.3-0.9-1.9-1.1c-0.7-0.2-1.4-0.4-2.2-0.4
			c-1.8,0-3.2,0.7-4.2,2.1c-1.1,1.4-1.6,3.4-1.6,6c0,2.6,0.5,4.6,1.6,5.9c1,1.3,2.5,2,4.2,2c0.8,0,1.6-0.1,2.3-0.4
			c0.7-0.3,1.4-0.7,2.1-1.2l1,1.4c-1.6,1.3-3.4,2-5.4,2c-1.6,0-3-0.4-4.2-1.2s-2.1-1.9-2.8-3.3c-0.7-1.5-1-3.2-1-5.2s0.3-3.7,1-5.2
			s1.6-2.7,2.8-3.5s2.6-1.2,4.2-1.2C161.3,115.9,162.3,116,163.1,116.3z"/>
		<path class="st7" d="M182.4,118.4c1.4,1.7,2.1,4.1,2.1,7.2c0,3-0.7,5.5-2.1,7.2c-1.4,1.8-3.4,2.6-5.9,2.6s-4.4-0.9-5.8-2.6
			c-1.4-1.7-2.1-4.1-2.1-7.2c0-2,0.3-3.7,1-5.2c0.6-1.5,1.6-2.6,2.8-3.4s2.6-1.2,4.2-1.2C179.1,115.9,181,116.7,182.4,118.4z
			 M172.3,119.7c-1,1.4-1.5,3.4-1.5,6c0,2.6,0.5,4.6,1.5,6s2.4,2.1,4.2,2.1s3.2-0.7,4.3-2.1s1.5-3.4,1.5-6c0-2.6-0.5-4.6-1.5-6
			s-2.4-2-4.3-2C174.7,117.6,173.3,118.3,172.3,119.7z"/>
		<path class="st7" d="M202.9,117.4c0.9,1,1.4,2.4,1.4,4.2v13.5h-2.1v-13.2c0-1.5-0.3-2.6-0.9-3.3c-0.6-0.7-1.5-1-2.7-1
			s-2.3,0.3-3.2,1s-1.8,1.6-2.6,2.9v13.6h-2.1v-18.8h1.8l0.2,3.2c0.8-1.1,1.7-2,2.7-2.6s2.2-1,3.6-1
			C200.7,115.9,202,116.4,202.9,117.4z"/>
		<path class="st7" d="M225.1,108.6v26.5h-1.8l-0.3-2.9c-1.3,2.2-3.2,3.3-5.7,3.3c-2.2,0-3.9-0.9-5.2-2.6c-1.3-1.7-1.9-4.1-1.9-7.1
			c0-1.9,0.3-3.7,0.9-5.1c0.6-1.5,1.4-2.7,2.6-3.5c1.1-0.8,2.4-1.3,3.9-1.3c2.1,0,3.9,0.9,5.3,2.6v-10.1L225.1,108.6z M220.8,132.9
			c0.8-0.6,1.6-1.5,2.2-2.6v-9.8c-1.3-1.9-3-2.8-4.9-2.8c-1.7,0-3.1,0.7-4.1,2.1s-1.5,3.4-1.5,6s0.5,4.6,1.4,6
			c0.9,1.4,2.2,2.1,3.8,2.1C218.9,133.8,219.9,133.5,220.8,132.9z"/>
		<path class="st7" d="M245.9,135.1h-1.8l-0.1-3.3c-1.5,2.5-3.5,3.7-6.2,3.7c-1.7,0-3-0.5-3.9-1.5s-1.4-2.4-1.4-4.3v-13.5h2.1v13.2
			c0,1.5,0.3,2.5,0.9,3.2c0.6,0.7,1.5,1,2.8,1c2.2,0,4-1.3,5.5-3.9v-13.6h2.1L245.9,135.1L245.9,135.1z"/>
		<path class="st7" d="M262.9,116.3c0.8,0.3,1.7,0.8,2.4,1.5l-1,1.4c-0.6-0.5-1.3-0.9-1.9-1.1c-0.7-0.2-1.4-0.4-2.2-0.4
			c-1.8,0-3.2,0.7-4.2,2.1c-1.1,1.4-1.6,3.4-1.6,6c0,2.6,0.5,4.6,1.6,5.9c1,1.3,2.5,2,4.2,2c0.8,0,1.6-0.1,2.3-0.4
			c0.7-0.3,1.4-0.7,2.1-1.2l1,1.4c-1.6,1.3-3.4,2-5.4,2c-1.6,0-3-0.4-4.2-1.2s-2.1-1.9-2.8-3.3c-0.7-1.5-1-3.2-1-5.2s0.3-3.7,1-5.2
			s1.6-2.7,2.8-3.5s2.6-1.2,4.2-1.2C261.1,115.9,262,116,262.9,116.3z"/>
		<path class="st7" d="M279,134.3c-1.2,0.8-2.5,1.2-4,1.2s-2.6-0.4-3.4-1.3c-0.8-0.9-1.2-2.1-1.2-3.7V118h-3.2v-1.7h3.2v-4.5
			l2.1-0.3v4.8h4.9l-0.3,1.7h-4.6v12.5c0,1.1,0.2,1.9,0.7,2.5c0.5,0.5,1.2,0.8,2.1,0.8c1,0,1.9-0.3,2.9-0.8L279,134.3z"/>
		<path class="st7" d="M294.6,118.4c1.4,1.7,2.1,4.1,2.1,7.2c0,3-0.7,5.5-2.1,7.2c-1.4,1.8-3.4,2.6-5.9,2.6s-4.4-0.9-5.8-2.6
			c-1.4-1.7-2.1-4.1-2.1-7.2c0-2,0.3-3.7,1-5.2c0.6-1.5,1.6-2.6,2.8-3.4s2.6-1.2,4.2-1.2C291.3,115.9,293.2,116.7,294.6,118.4z
			 M284.5,119.7c-1,1.4-1.5,3.4-1.5,6c0,2.6,0.5,4.6,1.5,6s2.4,2.1,4.2,2.1s3.2-0.7,4.3-2.1s1.5-3.4,1.5-6c0-2.6-0.5-4.6-1.5-6
			s-2.4-2-4.3-2C286.9,117.6,285.5,118.3,284.5,119.7z"/>
		<path class="st7" d="M312,116.1l-0.4,2c-0.5-0.1-1.1-0.2-1.7-0.2c-1.3,0-2.3,0.5-3.1,1.4c-0.8,0.9-1.4,2.4-2,4.3v11.5h-2.1v-18.8
			h1.8l0.2,4.2c0.5-1.6,1.2-2.7,2.1-3.5s2-1.1,3.3-1.1C310.9,115.9,311.5,115.9,312,116.1z"/>
		<path class="st7" d="M327.1,133c0.3,0.4,0.7,0.8,1.2,1l-0.5,1.5c-0.9-0.2-1.5-0.5-2-1s-0.8-1.2-0.9-2.2c-1.3,2.1-3.3,3.2-5.9,3.2
			c-1.8,0-3.2-0.5-4.3-1.5s-1.6-2.4-1.6-4.1c0-1.9,0.7-3.4,2.1-4.5s3.3-1.6,5.7-1.6h3.6V122c0-1.5-0.3-2.6-1-3.3
			c-0.7-0.7-1.8-1-3.3-1c-1.4,0-3.1,0.4-5.1,1.1l-0.5-1.6c2.1-0.8,4.1-1.3,5.9-1.3c4.1,0,6.2,2,6.2,6v9.1
			C326.7,131.9,326.8,132.6,327.1,133z M324.6,130.5v-5.2h-3.3c-1.9,0-3.4,0.4-4.4,1.1s-1.5,1.9-1.5,3.3c0,1.3,0.3,2.3,1,3
			s1.7,1,2.9,1C321.7,133.8,323.4,132.7,324.6,130.5z"/>
		<path class="st7" d="M125.9,170.2c-0.7,0.5-1.5,0.9-2.4,1.1c-0.9,0.3-1.8,0.4-2.8,0.4c-4.2,0-6.3-2.3-6.3-6.9v-8.9h-2.7v-4h2.7
			v-4.1l5.7-0.6v4.8h4.4l-0.6,4h-3.8v8.8c0,0.9,0.1,1.5,0.4,1.9s0.7,0.6,1.4,0.6c0.6,0,1.3-0.2,2.1-0.6L125.9,170.2z"/>
		<path class="st7" d="M133,142.8c0.6,0.6,1,1.4,1,2.3c0,0.9-0.3,1.7-1,2.3c-0.6,0.6-1.4,0.9-2.4,0.9s-1.8-0.3-2.4-0.9
			c-0.6-0.6-0.9-1.4-0.9-2.3c0-0.9,0.3-1.7,0.9-2.3c0.6-0.6,1.4-0.9,2.4-0.9C131.6,141.9,132.4,142.2,133,142.8z M133.5,152v19.1
			h-5.7V152H133.5z"/>
		<path class="st7" d="M154.1,154c1.2,1.8,1.8,4.3,1.8,7.5c0,2-0.3,3.7-0.9,5.3c-0.6,1.5-1.5,2.8-2.6,3.6c-1.2,0.9-2.5,1.3-4,1.3
			c-1.9,0-3.5-0.7-4.6-2v8.7l-5.7,0.6v-27h5l0.3,2.1c0.7-0.9,1.6-1.6,2.6-2.1c1-0.4,1.9-0.7,3-0.7
			C151.1,151.4,152.9,152.2,154.1,154z M149.9,161.5c0-2.3-0.3-3.8-0.8-4.7s-1.3-1.3-2.3-1.3c-0.6,0-1.3,0.2-1.8,0.6
			c-0.6,0.4-1.1,0.9-1.5,1.7v8.1c0.8,1.1,1.7,1.7,2.9,1.7C148.8,167.5,149.9,165.5,149.9,161.5z"/>
		<path class="st7" d="M175.5,171.1h-4.9l-0.3-2.4c-1.4,2-3.3,3-5.8,3c-1.8,0-3.1-0.5-4-1.6s-1.4-2.5-1.4-4.4V152h5.7v13
			c0,0.9,0.1,1.6,0.4,2c0.3,0.4,0.8,0.6,1.4,0.6c1.2,0,2.2-0.7,3.1-2.2V152h5.7v19.1H175.5z"/>
		<path class="st7" d="M190.6,152c1.2,0.4,2.3,1,3.2,1.7l-2.1,3.2c-1.6-1-3.1-1.5-4.7-1.5c-0.7,0-1.3,0.1-1.7,0.4s-0.6,0.6-0.6,1.1
			c0,0.4,0.1,0.7,0.3,0.9s0.5,0.5,1.1,0.7s1.4,0.5,2.6,0.9c2,0.6,3.5,1.3,4.4,2.2c1,0.9,1.5,2.2,1.5,3.8c0,1.3-0.4,2.4-1.1,3.4
			c-0.7,0.9-1.8,1.7-3.1,2.2s-2.7,0.8-4.3,0.8s-3.1-0.3-4.5-0.8s-2.6-1.2-3.5-2.1l2.8-3.1c1.6,1.2,3.3,1.9,5.1,1.9
			c0.9,0,1.5-0.2,2-0.5s0.7-0.8,0.7-1.3s-0.1-0.8-0.3-1.1s-0.6-0.5-1.1-0.7c-0.6-0.2-1.4-0.5-2.6-0.8c-1.9-0.6-3.3-1.3-4.2-2.3
			s-1.4-2.2-1.4-3.7c0-1.1,0.3-2.1,1-3c0.6-0.9,1.5-1.6,2.7-2.1s2.6-0.8,4.1-0.8C188.1,151.4,189.4,151.6,190.6,152z"/>
		<path class="st7" d="M219.2,171.1l-1.3-5.4h-7.3l-1.3,5.4h-6.1l7.5-24.9h7.2l7.5,24.9H219.2z M211.6,161.4h5.3l-2.6-11
			L211.6,161.4z"/>
	</g>
</g>
<line class="st11" x1="352.4" y1="124.2" x2="438.4" y2="124.2"/>
<polyline class="st12" points="352.4,352.2 636.5,352.2 636.4,135.2 "/>
<polyline class="st13" points="352.4,584.2 898,584.2 893.4,134.2 "/>
</svg>
