<?xml version="1.0" encoding="utf-8"?>
<!-- Generator: Adobe Illustrator 24.1.0, SVG Export Plug-In . SVG Version: 6.00 Build 0)  -->
<svg version="1.1" id="Capa_1" xmlns="http://www.w3.org/2000/svg" xmlns:xlink="http://www.w3.org/1999/xlink" x="0px" y="0px"
	 viewBox="0 0 720.2 471" style="enable-background:new 0 0 720.2 471;" xml:space="preserve">
<style type="text/css">
	.st0{fill:none;stroke:#8FB5BC;stroke-miterlimit:10;}
	.st1{fill:#8FB5BC;}
	.st2{font-family:'FiraSans-Bold';}
	.st3{font-size:25px;}
	.st4{fill:#FFFFFF;stroke:#005372;stroke-width:0.5669;stroke-miterlimit:10;}
	.st5{fill:#FF2A2A;stroke:#005372;stroke-width:0.5669;stroke-miterlimit:10;}
	.st6{fill:#FFFFFF;stroke:#FF6600;stroke-width:0.75;stroke-miterlimit:10;}
	.st7{fill:none;stroke:#FF6600;stroke-width:0.75;stroke-miterlimit:10;}
	.st8{fill:#FF2A2A;}
	.st9{fill:#373A47;}
	.st10{fill:none;stroke:#373A47;stroke-width:10;stroke-miterlimit:10;}
	.st11{fill:none;stroke:#D4D8D8;stroke-width:8;stroke-miterlimit:10;}
	.st12{fill:#FFFFFF;stroke:#373A47;stroke-miterlimit:10;}
</style>
<g>
	<rect x="53" y="391" class="st0" width="200" height="45"/>
	<g>
		<text transform="matrix(1 0 0 1 72.213 422.6564)" class="st1 st2 st3">Proteïna BRAF</text>
	</g>
</g>
<g>
	<circle class="st4" cx="230.5" cy="256.4" r="23"/>
	<circle class="st4" cx="117.1" cy="179" r="23"/>
	<circle class="st4" cx="64.6" cy="323.5" r="23"/>
	<circle class="st4" cx="151.5" cy="191.1" r="23"/>
	<circle class="st4" cx="23.8" cy="338.5" r="23"/>
	<ellipse transform="matrix(0.1602 -0.9871 0.9871 0.1602 -60.5659 362.4134)" class="st4" cx="182.7" cy="216.8" rx="23" ry="23"/>
	<circle class="st4" cx="105.8" cy="276.4" r="23"/>
	<ellipse transform="matrix(0.1602 -0.9871 0.9871 0.1602 -115.3512 436.4209)" class="st4" cx="198.8" cy="286" rx="23" ry="23"/>
	<circle class="st4" cx="150.4" cy="228.2" r="23"/>
	<circle class="st4" cx="144.2" cy="260.3" r="23"/>
	<circle class="st4" cx="107.6" cy="318.7" r="23"/>
	<circle class="st4" cx="164.7" cy="299.6" r="23"/>
	<circle class="st4" cx="129" cy="296.9" r="23"/>
	<circle class="st5" cx="236.4" cy="290.3" r="23"/>
</g>
<g>
	<rect x="158" y="74" class="st6" width="146" height="47"/>
	<line class="st7" x1="234" y1="258" x2="234" y2="121"/>
	<g>
		<text transform="matrix(1 0 0 1 178.3011 106.1564)" class="st8 st2 st3">Gen BRAF</text>
	</g>
</g>
<g>
	<g>
		<polygon class="st9" points="244.9,0.8 244.9,17.9 252.4,17.9 233.8,36.5 215.3,17.9 222.8,17.9 222.8,0.8 		"/>
	</g>
</g>
<polygon class="st9" points="301.4,242.6 321.2,242.6 321.2,235.6 338.5,252.9 321.2,270.3 321.2,263.3 301.4,263.3 "/>
<path class="st10" d="M431.1,204.7c-7.6-106.5,54.9-68.1,58.7,45.9c1.8,54.8-19.8,56.2-24.5,71.8"/>
<path class="st10" d="M439,332.7"/>
<path class="st10" d="M370.2,330.9c-84.8-86,124.2-54.9,169.2-93.3c36.2-30.8,24.2-50.6-2.1-59.9c-42.8-15.5-116.9-14.4-151.5,46.6"
	/>
<path class="st10" d="M381.5,336.4c117.7,65.5,222.8-33.7,222.8-33.7"/>
<path class="st10" d="M627,354.5c-90.4,39.8-105.6-52.8-63.3-98.4c18.6-20.1,87.1-37.8,60.1,29.9"/>
<path class="st10" d="M387.2,247.2c10.5,216.8,209.8,119.1,193,75.8c-15.5-40-51.5-25.5-64.4-21.5"/>
<path class="st10" d="M436.1,228.4c36.1,53.6-48.2,72.9-50.3,95.8"/>
<path class="st10" d="M611.6,294.2c-11.9-42.7,35.1-89.9-7-113.8"/>
<path class="st10" d="M589.2,163.3c-129.3-48.8,21.6,92.5-47.9,132.1"/>
<path class="st10" d="M563.6,256.2c0,0,37.1-105.6,86.4-18.2"/>
<path class="st10" d="M646.8,344.9c15.8-24,23.8-53.6,8.3-98.4"/>
<path class="st10" d="M516.5,211c-202-128.2-149.5,18.1-133.7,19.6"/>
<path class="st10" d="M391.5,232.8c58.1-40.7,94.8-34,115.8-22.9"/>
<path class="st10" d="M429.6,353.1c27.5-27.2,81.5-51.4,81.5-51.4"/>
<path class="st10" d="M511.7,215.1c30.6,3,38.9,55.9-0.4,82.9"/>
<path class="st11" d="M431.1,204.7c-7.6-106.5,54.9-68.1,58.7,45.9c1.8,54.8-19.8,56.2-24.5,71.8"/>
<path class="st11" d="M439,332.7"/>
<path class="st11" d="M370.2,330.9c-84.8-86,124.2-54.9,169.2-93.3c36.2-30.8,24.2-50.6-2.1-59.9c-42.8-15.5-116.9-14.4-151.5,46.6"
	/>
<path class="st11" d="M381.5,336.4c117.7,65.5,222.8-33.7,222.8-33.7"/>
<path class="st11" d="M627,354.5c-90.4,39.8-105.6-52.8-63.3-98.4c18.6-20.1,87.1-37.8,60.1,29.9"/>
<path class="st11" d="M387.2,247.2c10.5,216.8,209.8,119.1,193,75.8c-15.5-40-51.5-25.5-64.4-21.5"/>
<path class="st11" d="M436.1,228.4c36.1,53.6-48.2,72.9-50.3,95.8"/>
<path class="st11" d="M611.6,294.2c-11.9-42.7,35.1-89.9-7-113.8"/>
<path class="st11" d="M589.2,163.3c-129.3-48.8,21.6,92.5-47.9,132.1"/>
<path class="st11" d="M563.6,256.2c0,0,37.1-105.6,86.4-18.2"/>
<path class="st11" d="M646.8,344.9c15.8-24,23.8-53.6,8.3-98.4"/>
<path class="st11" d="M516.5,211c-202-128.2-149.5,18.1-133.7,19.6"/>
<path class="st11" d="M391.5,232.8c58.1-40.7,94.8-34,115.8-22.9"/>
<path class="st11" d="M429.6,353.1c27.5-27.2,81.5-51.4,81.5-51.4"/>
<path class="st11" d="M511.7,215.1c30.6,3,38.9,55.9-0.4,82.9"/>
<circle class="st12" cx="512" cy="299.9" r="23"/>
<circle class="st12" cx="439.3" cy="218.4" r="23"/>
<circle class="st12" cx="596.9" cy="172.2" r="23"/>
<circle class="st12" cx="516.8" cy="211.2" r="23"/>
<circle class="st12" cx="565.8" cy="364.4" r="23"/>
<circle class="st12" cx="615.8" cy="293.7" r="23"/>
<circle class="st12" cx="657.5" cy="247.5" r="23"/>
<circle class="st5" cx="636.8" cy="351.4" r="23"/>
<circle class="st12" cx="387.4" cy="238.7" r="23"/>
<circle class="st12" cx="371.7" cy="334.3" r="23"/>
<circle class="st12" cx="555.1" cy="264.8" r="23"/>
<circle class="st12" cx="457.6" cy="324.5" r="23"/>
<circle class="st12" cx="374" cy="169.3" r="23"/>
<ellipse transform="matrix(0.7071 -0.7071 0.7071 0.7071 18.3984 384.9206)" class="st12" cx="473.8" cy="170.3" rx="23" ry="23"/>
<circle class="st12" cx="437.3" cy="275.4" r="23"/>
<circle class="st12" cx="509.3" cy="386.3" r="23"/>
<polygon class="st8" points="284,247.2 279.8,244.7 279.8,248.8 275.8,248.8 278.2,253 275.8,257.1 279.8,257.1 279.8,261.3 
	284,258.8 288.1,261.3 288.1,257.1 292.2,257.1 289.8,253 292.2,248.8 288.1,248.8 288.1,244.7 "/>
</svg>
