<?xml version="1.0" encoding="utf-8"?>
<!-- Generator: Adobe Illustrator 24.1.0, SVG Export Plug-In . SVG Version: 6.00 Build 0)  -->
<svg version="1.1" id="Capa_1" xmlns="http://www.w3.org/2000/svg" xmlns:xlink="http://www.w3.org/1999/xlink" x="0px" y="0px"
	 viewBox="0 0 1268 937.7" style="enable-background:new 0 0 1268 937.7;" xml:space="preserve">
<style type="text/css">
	.st0{fill:#8FB5BC;}
	.st1{fill:#FF2A2A;}
	.st2{fill:#373A47;}
	.st3{fill:#D4D8D8;}
	.st4{fill:none;stroke:#373A47;stroke-miterlimit:10;}
	.st5{fill:#032836;}
	.st6{fill:#E6EDED;}
	.st7{fill:#FFCC33;}
	.st8{fill:#CCCC66;}
	.st9{fill:#C0D9DF;}
	.st10{fill:#CC6633;}
	.st11{opacity:0.3;}
	.st12{fill:url(#SVGID_1_);}
	.st13{fill:url(#SVGID_2_);}
	.st14{fill:url(#SVGID_3_);}
	.st15{fill:url(#SVGID_4_);}
	.st16{fill:url(#SVGID_5_);}
	.st17{fill:url(#SVGID_6_);}
	.st18{fill:url(#SVGID_7_);}
	.st19{fill:url(#SVGID_8_);}
	.st20{fill:url(#SVGID_9_);}
	.st21{fill:url(#SVGID_10_);}
	.st22{opacity:0.3;fill:url(#SVGID_11_);}
	.st23{opacity:0.3;fill:url(#SVGID_12_);}
	.st24{opacity:0.3;fill:url(#SVGID_13_);}
	.st25{opacity:0.3;fill:url(#SVGID_14_);}
	.st26{opacity:0.3;fill:url(#SVGID_15_);}
	.st27{fill:#EAE47F;}
	.st28{fill:url(#SVGID_16_);}
	.st29{fill:url(#SVGID_17_);}
	.st30{fill:url(#SVGID_18_);}
	.st31{fill:url(#SVGID_19_);}
	.st32{fill:url(#SVGID_20_);}
	.st33{fill:url(#SVGID_21_);}
	.st34{fill:url(#SVGID_22_);}
	.st35{fill:url(#SVGID_23_);}
	.st36{fill:url(#SVGID_24_);}
	.st37{fill:url(#SVGID_25_);}
	.st38{fill:url(#SVGID_26_);}
	.st39{fill:url(#SVGID_27_);}
	.st40{fill:url(#SVGID_28_);}
	.st41{fill:url(#SVGID_29_);}
	.st42{fill:url(#SVGID_30_);}
	.st43{fill:url(#SVGID_31_);}
	.st44{fill:#FFFFFF;}
	.st45{fill:#938A1B;}
	.st46{fill:url(#SVGID_32_);}
	.st47{fill:#FA7F43;}
	.st48{fill:url(#SVGID_33_);}
	.st49{fill:url(#SVGID_34_);}
	.st50{fill:url(#SVGID_35_);}
	.st51{fill:url(#SVGID_36_);}
	.st52{fill:url(#SVGID_37_);}
	.st53{fill:url(#SVGID_38_);}
	.st54{fill:url(#SVGID_39_);}
	.st55{fill:url(#SVGID_40_);}
	.st56{fill:url(#SVGID_41_);}
	.st57{fill:url(#SVGID_42_);}
	.st58{fill:url(#SVGID_43_);}
	.st59{fill:url(#SVGID_44_);}
	.st60{fill:url(#SVGID_45_);}
	.st61{fill:url(#SVGID_46_);}
	.st62{fill:url(#SVGID_47_);}
</style>
<g>
	<g>
		<path class="st0" d="M762.3,19.6V4.2c-63.8,0-88.1,19.6-108.4,40.4c-20-20.7-43.8-40.4-106.2-40.4v15.5
			c56.4,0,76.9,16.9,95.5,36.1c-18.5,19.1-39.1,36.1-95.5,36.1v15.5c62.4,0,86.1-19.7,106.2-40.4c20.3,20.8,44.6,40.4,108.4,40.4
			V91.7c-57.8,0-79-16.8-97.7-36.1C683.3,36.4,704.5,19.6,762.3,19.6z"/>
		<polygon class="st1" points="641.7,100.3 645.9,93.3 638.9,93.3 638.9,86.3 631.9,90.5 625,86.3 625,93.3 617.9,93.3 622.2,100.3 
			617.9,107.3 625,107.3 625,114.2 631.9,110 638.9,114.2 638.9,107.3 645.9,107.3 		"/>
	</g>
	<g>
		<g>
			<polygon class="st2" points="643.4,126.9 643.4,147.9 650.9,147.9 632.4,166.5 613.7,147.9 621.2,147.9 621.2,126.9 			"/>
		</g>
	</g>
	<g>
		<path class="st3" d="M1259.9,661.7c0-11.5-9.3-20.8-20.8-20.8c-2.3,0-4.4,0.4-6.4,1c-0.2,0-0.4,0.1-0.6,0.1
			c-54.9,15.9-105.2,25.7-153.8,29.8c-57.1,4.8-114.2,2.2-174.6-8c-70.1-11.9-146-34.6-225.6-67.5c-79.7-37.5-154.5-62.9-228.5-77.8
			c-35.5-7.1-71.2-11.8-106.2-14c-33.3-2-67-1.8-100.2,0.6c-56.4,4.1-113.8,14.8-175.6,32.7c-15.9,4.6-31.7,9.5-47.3,14.7
			c-0.9,0.2-1.8,0.5-2.6,0.9c-8.1,3.3-13.9,11.2-13.9,20.5c0,12.2,9.9,22.1,22.1,22.1c1.6,0,3.1-0.2,4.6-0.5c1.9-0.4,3.7-1,5.3-1.9
			c72.8-25.7,144.4-47,221.6-52.6c51.5-3.8,102.6-0.4,156.4,10.4c63.2,12.7,131.5,36.2,202.9,69.8l0.9,0.4l1,0.4
			c44.8,18.5,89.1,34.3,131.7,46.9c41.4,12.2,82.6,21.8,122.5,28.6c38.6,6.5,77.3,10.6,115.1,12.2c35.6,1.5,71.6,0.7,106.8-2.3
			c53-4.5,101.9-13.5,148.1-25.3c1.1-0.2,2.1-0.5,3.2-0.8c1-0.3,1.7-0.5,2-0.8C1255,677.2,1259.9,670.1,1259.9,661.7z"/>
		<g>
			<g>
				<polygon class="st2" points="644.4,476.5 644.4,499.4 652.5,499.4 632.5,519.7 612.2,499.4 620.4,499.4 620.4,476.5 				"/>
			</g>
		</g>
		<ellipse class="st4" cx="194.8" cy="738" rx="64.1" ry="36.9"/>
		<ellipse class="st4" cx="414.7" cy="776.9" rx="64.1" ry="36.9"/>
		<ellipse class="st4" cx="636" cy="821.1" rx="64.1" ry="36.9"/>
		<ellipse class="st4" cx="849.7" cy="870.5" rx="64.1" ry="36.9"/>
		<ellipse class="st4" cx="1068.4" cy="894" rx="64.1" ry="36.9"/>
		<polygon class="st2" points="205.9,657.3 205.9,676.7 212.8,676.7 195.7,693.8 178.5,676.7 185.5,676.7 185.5,657.3 		"/>
		<polyline class="st4" points="275.5,608.5 275.5,646.7 116,646.7 116,628.2 		"/>
		<polygon class="st2" points="424.8,696.1 424.8,715.5 431.7,715.5 414.6,732.8 397.4,715.5 404.3,715.5 404.3,696.1 		"/>
		<polyline class="st4" points="496.1,637.6 496.1,685.5 330.5,685.5 330.5,617.8 		"/>
		<polygon class="st2" points="646.1,740.2 646.1,759.7 653,759.7 635.9,776.8 618.8,759.7 625.7,759.7 625.7,740.2 		"/>
		<polyline class="st4" points="712.8,711.2 712.8,729.7 553.2,729.7 553.2,661.9 		"/>
		<polygon class="st2" points="859.7,789.5 859.7,809.1 866.6,809.1 849.5,826.2 832.4,809.1 839.3,809.1 839.3,789.5 		"/>
		<polyline class="st4" points="929.4,765.5 929.4,779 769.8,779 769.8,730.9 		"/>
		<polygon class="st2" points="1079.5,813.2 1079.5,832.8 1086.5,832.8 1069.3,849.8 1052.2,832.8 1059.1,832.8 1059.1,813.2 		"/>
		<polyline class="st4" points="1144.2,770.3 1144.2,803.6 984.7,803.6 984.7,785.1 		"/>
		<path class="st5" d="M623.7,828l-1.2-4.7H616l-1.1,4.7h-5.5l6.7-22.4h6.4l6.7,22.4H623.7z M616.9,819.3h4.6l-2.4-9.9L616.9,819.3z
			"/>
		<path class="st5" d="M640.4,810.8c1.1,0.3,2.1,0.9,2.9,1.5l-1.9,2.9c-1.4-0.9-2.9-1.3-4.2-1.3c-0.7,0-1.2,0.1-1.5,0.3
			c-0.3,0.2-0.5,0.5-0.5,1c0,0.3,0.1,0.5,0.2,0.8c0.1,0.2,0.5,0.4,1,0.7c0.5,0.2,1.3,0.4,2.3,0.8c1.8,0.5,3.2,1.2,4,2.1
			s1.3,2,1.3,3.5c0,1.2-0.3,2.2-1,3.1c-0.7,0.9-1.6,1.5-2.7,2c-1.2,0.4-2.5,0.7-3.9,0.7c-1.5,0-2.9-0.2-4-0.7
			c-1.2-0.4-2.3-1.1-3.2-1.9l2.5-2.9c1.4,1.1,3,1.6,4.5,1.6c0.8,0,1.4-0.1,1.9-0.4c0.4-0.3,0.7-0.7,0.7-1.2c0-0.4-0.1-0.8-0.2-1
			c-0.2-0.2-0.5-0.4-1-0.7c-0.5-0.2-1.3-0.4-2.4-0.8c-1.8-0.5-3-1.2-3.7-2.1s-1.3-2-1.3-3.3c0-1,0.3-1.9,0.9-2.7
			c0.5-0.8,1.4-1.4,2.5-1.9c1.1-0.4,2.3-0.7,3.7-0.7C638.2,810.3,639.3,810.5,640.4,810.8z"/>
		<path class="st5" d="M660,811.6c0.9,0.9,1.3,2.2,1.3,3.7v12.4h-5.1v-11.5c0-0.9-0.1-1.4-0.4-1.9c-0.2-0.3-0.7-0.5-1.2-0.5
			c-1.1,0-2.1,0.8-3,2.3v11.7h-5.1v-17.2h4.4l0.3,2.1c0.8-0.9,1.5-1.5,2.4-2c0.9-0.4,1.9-0.7,2.9-0.7
			C658,810.3,659.1,810.8,660,811.6z"/>
		<path class="st5" d="M409.9,761.5l-0.5,4h-5.5v18.4h-5.3v-18.4h-5.7v-4H409.9z"/>
		<path class="st5" d="M422.2,766.5l-0.8,5c-0.7-0.1-1.2-0.2-1.5-0.2c-1,0-1.8,0.3-2.3,1.1c-0.5,0.7-1,1.8-1.2,3.2v8.5h-5.3v-17.2
			h4.4l0.4,3.4c0.4-1.2,1-2.1,1.8-2.9c0.8-0.7,1.6-1,2.7-1C420.9,766.2,421.6,766.4,422.2,766.5z"/>
		<path class="st5" d="M438.6,768.6c1.1,1.6,1.6,3.7,1.6,6.7c0,1.8-0.3,3.4-0.9,4.7c-0.5,1.4-1.3,2.5-2.4,3.3
			c-1.1,0.8-2.3,1.2-3.6,1.2c-1.8,0-3.2-0.5-4.1-1.8v7.8l-5.1,0.5v-24.2h4.4l0.2,2c0.7-0.9,1.4-1.4,2.3-1.9c0.9-0.5,1.8-0.7,2.6-0.7
			C435.8,766.2,437.5,767,438.6,768.6z M434.8,775.2c0-2.1-0.2-3.5-0.7-4.2c-0.4-0.8-1.1-1.2-2.1-1.2c-0.5,0-1.1,0.2-1.6,0.5
			c-0.5,0.3-1,0.9-1.3,1.5v7.3c0.7,1,1.5,1.5,2.6,1.5C433.7,780.7,434.8,778.9,434.8,775.2z"/>
		<path class="st5" d="M1066.4,901.1h-5.2l-0.4-8.8c-0.1-2.1-0.1-3.9-0.1-5.5c0-1.2,0-2.4,0.1-3.6l-3.5,15.5h-5l-3.7-15.5
			c0.1,1.9,0.2,3.7,0.2,5.3c0,1.3,0,2.5-0.1,3.9l-0.4,8.7h-5.2l1.6-22.4h6.7l3.4,15.2l3.2-15.2h6.7L1066.4,901.1z"/>
		<path class="st5" d="M1084.3,894h-10.7c0.2,1.4,0.5,2.5,1.2,3.1c0.7,0.5,1.5,0.9,2.7,0.9c0.7,0,1.3-0.1,2-0.3
			c0.7-0.2,1.3-0.7,2.1-1.2l2.1,2.9c-2,1.6-4.2,2.4-6.7,2.4c-2.9,0-4.8-0.9-6.4-2.5c-1.5-1.6-2.3-3.7-2.3-6.6c0-1.8,0.3-3.3,1-4.6
			c0.7-1.4,1.5-2.5,2.7-3.3c1.2-0.8,2.6-1.2,4.3-1.2c2.5,0,4.4,0.8,5.8,2.3c1.4,1.5,2.1,3.7,2.1,6.4
			C1084.4,892.7,1084.3,893.4,1084.3,894z M1079.4,890.5c0-2.6-1-3.9-2.9-3.9c-0.9,0-1.5,0.3-2.1,1c-0.6,0.7-0.8,1.8-0.9,3.2h5.7
			L1079.4,890.5L1079.4,890.5z"/>
		<path class="st5" d="M1097.9,900.1c-0.7,0.4-1.3,0.8-2.2,1c-0.9,0.2-1.7,0.3-2.5,0.3c-3.7,0-5.6-2.1-5.6-6.2v-7.9h-2.4v-3.6h2.4
			V880l5.1-0.5v4.3h3.9l-0.5,3.6h-3.4v7.9c0,0.8,0.1,1.4,0.4,1.8c0.3,0.3,0.7,0.5,1.2,0.5c0.6,0,1.2-0.2,1.9-0.5L1097.9,900.1z"/>
		<path class="st5" d="M831.5,855v18.2h8.7l-0.5,4.2h-13.4V855L831.5,855L831.5,855z"/>
		<path class="st5" d="M856.7,870.3H846c0.2,1.4,0.5,2.5,1.2,3.1c0.7,0.5,1.5,0.9,2.7,0.9c0.7,0,1.3-0.1,2-0.3
			c0.7-0.2,1.3-0.7,2.1-1.2l2.1,2.9c-2,1.6-4.2,2.4-6.7,2.4c-2.9,0-4.8-0.9-6.4-2.5c-1.5-1.6-2.3-3.7-2.3-6.6c0-1.8,0.3-3.3,1-4.6
			c0.7-1.4,1.5-2.5,2.7-3.3c1.2-0.8,2.6-1.2,4.3-1.2c2.5,0,4.4,0.8,5.8,2.3c1.4,1.5,2.1,3.7,2.1,6.4
			C856.8,869.1,856.7,869.7,856.7,870.3z M851.8,867c0-2.6-1-3.9-2.9-3.9c-0.9,0-1.5,0.3-2.1,1c-0.6,0.7-0.8,1.8-0.9,3.2h5.7
			L851.8,867L851.8,867z"/>
		<path class="st5" d="M874.1,877.4h-4.4l-0.2-2.2c-1.3,1.9-3,2.7-5.2,2.7c-1.5,0-2.7-0.4-3.6-1.4c-0.8-1-1.2-2.3-1.2-4v-12.2h5.1
			v11.6c0,0.9,0.1,1.4,0.4,1.8c0.3,0.3,0.7,0.5,1.2,0.5c1.1,0,2-0.7,2.9-2v-11.9h5.1L874.1,877.4L874.1,877.4z"/>
		<path class="st5" d="M184.4,722.7c1.2,0.4,2.4,1.2,3.4,2.2l-2.5,2.9c-1.5-1.3-3.2-1.9-4.8-1.9c-1,0-1.6,0.2-2.2,0.5
			c-0.5,0.3-0.8,0.9-0.8,1.6c0,0.5,0.1,0.9,0.3,1.2c0.2,0.3,0.7,0.7,1.3,0.9c0.7,0.3,1.5,0.7,2.7,1c2.3,0.8,3.9,1.6,5,2.7
			c1.1,1.1,1.6,2.6,1.6,4.5c0,1.4-0.3,2.6-1.1,3.7c-0.8,1.1-1.8,1.9-3.1,2.5c-1.3,0.5-3,0.9-4.7,0.9c-1.9,0-3.5-0.3-4.8-0.9
			c-1.4-0.5-2.6-1.3-3.6-2.3l2.7-3c0.9,0.8,1.8,1.3,2.7,1.6c0.9,0.3,2,0.5,3.1,0.5c1.1,0,2-0.2,2.6-0.8c0.7-0.4,1-1.2,1-2.1
			c0-0.5-0.1-1-0.3-1.4c-0.2-0.3-0.7-0.8-1.2-1c-0.5-0.3-1.4-0.7-2.5-1c-2.5-0.8-4.2-1.6-5.3-2.9c-1.1-1.3-1.5-2.5-1.5-4.1
			c0-1.3,0.3-2.4,1.1-3.4c0.7-1,1.6-1.8,2.9-2.3c1.2-0.5,2.6-0.8,4.1-0.8C181.7,722.1,183.1,722.2,184.4,722.7z"/>
		<path class="st5" d="M206,738h-10.7c0.2,1.4,0.5,2.5,1.2,3.1c0.7,0.5,1.5,0.9,2.7,0.9c0.7,0,1.3-0.1,2-0.3s1.3-0.7,2.1-1.2
			l2.1,2.9c-2,1.6-4.2,2.4-6.7,2.4c-2.9,0-4.8-0.9-6.4-2.5c-1.6-1.6-2.3-3.7-2.3-6.6c0-1.8,0.3-3.3,1-4.6s1.5-2.5,2.7-3.3
			c1.2-0.8,2.6-1.2,4.3-1.2c2.5,0,4.4,0.8,5.8,2.3c1.4,1.5,2.1,3.7,2.1,6.4C206.1,736.8,206.1,737.3,206,738z M201.1,734.6
			c0-2.6-1-3.9-2.9-3.9c-0.9,0-1.5,0.3-2.1,1c-0.5,0.7-0.8,1.8-0.9,3.2h5.7L201.1,734.6L201.1,734.6z"/>
		<path class="st5" d="M220,727.6l-0.8,5c-0.7-0.1-1.2-0.2-1.5-0.2c-1,0-1.8,0.3-2.3,1.1c-0.5,0.7-1,1.8-1.2,3.2v8.5h-5.1V728h4.4
			l0.4,3.4c0.4-1.2,1-2.1,1.8-2.9c0.8-0.7,1.6-1,2.7-1C218.9,727.4,219.5,727.4,220,727.6z"/>
		<path class="st3" d="M102.9,325.3c48.5-41.8,94.2-81.3,144.8-90c25.9-4.4,51.6-0.4,78.6,12.2c31.8,14.9,66.1,42.3,102,81.7
			l0.5,0.5l0.5,0.5c22.5,21.7,44.8,40.1,66.2,54.9c20.8,14.3,41.5,25.5,61.6,33.5c19.4,7.6,38.8,12.4,57.8,14.2
			c17.9,1.7,36,0.8,53.7-2.7c66.4-13,120.1-59.6,172.1-104.6c48.3-41.9,94-81.4,144.6-90.1c25.9-4.4,51.8-0.4,79,12.3
			c16.4,7.7,33.6,18.7,51.3,33l51.4,49.6c17.9,17.3,23.2,21.6,53,45.4c29.8,23.9,54-13.3,29.5-31.1c-25.9-18.7-30.1-23.2-47.1-39.2
			l-4.1-4.4c-40.6-44.2-78.6-74.2-116.1-91.7c-17.9-8.4-35.9-13.9-53.6-16.4c-16.8-2.4-33.8-2.1-50.5,0.7
			c-28.4,4.9-57.3,17.4-88.3,38.3c-26.5,17.9-52.2,40.1-77,61.6c-24.3,21.1-49.5,42.9-75.1,60.2c-27.6,18.6-52.9,30-77.3,34.8
			c-28.7,5.6-57.4,2.6-87.8-9.4c-35.3-13.9-73.4-40.5-113.4-78.9c-40.1-43.8-77.6-73.6-114.8-91c-17.8-8.3-35.8-13.8-53.4-16.3
			c-16.7-2.4-33.7-2.1-50.4,0.7c-28.3,4.8-57.2,17.3-88.2,38.2c-26.6,17.8-52.2,40-77.1,61.4c-21.6,18.6-50.1,40.8-66.5,54
			s1.1,53.7,33.9,27.8C75.5,349.1,83.2,342.3,102.9,325.3z"/>
		<path class="st6" d="M435,335.8c-3.5-3.5-6.5-6.8-9.6-10.4l-0.6-0.7c-4.2-4.2-8.3-8.3-12.4-12.4c-30.1,30.4-59,52.2-86,64.9
			c-27,12.7-52.7,16.6-78.6,12.2c-50.5-8.7-96.3-48.1-144.8-90c-20.1-17.3-38.8-32.4-61.7-50.7c-26.9-19.6-48.9,14.9-33.8,27.9
			s45.7,35.9,67.8,54.9c24.8,21.4,50.5,43.6,77.1,61.4c31.1,20.9,59.9,33.4,88.2,38.2c9.1,1.6,18.3,2.3,27.5,2.3
			c7.6,0,15.3-0.5,22.8-1.6c17.6-2.5,35.6-8,53.4-16.3c31.9-14.9,64-38.9,97.8-73.1C439.7,340.5,437.3,338.2,435,335.8z"/>
		<g>
			<path class="st6" d="M1198.2,300.9l4.1,4.4c2.6,2.4,5.1,4.8,7.7,7.1c16.6-15.1,24.5-19.6,48.8-38.8c20.5-15.4-9.7-48.3-31.8-29.6
				s-30.9,23.7-46.7,38.1C1186.1,288.1,1192.1,294.3,1198.2,300.9z"/>
			<path class="st6" d="M1166.8,330.2l-18.5-17.8l-33,31.8c-17.7,14.3-34.8,25.3-51.3,33c-27.2,12.7-53,16.7-79,12.3
				c-50.6-8.7-96.3-48.2-144.6-90.1c-52-45-105.7-91.6-172.1-104.6c-17.7-3.5-35.8-4.4-53.7-2.7c-19,1.8-38.4,6.6-57.8,14.2
				c-20.1,7.9-40.8,19.2-61.6,33.5c-17.2,11.9-35,26.1-53.1,42.6c4.3,4.2,8.6,8.5,12.9,12.9l0.4,0.4l1.4,1.6
				c2.8,3.2,5.3,5.9,7.9,8.5c2.3,2.3,4.6,4.5,7.1,6.8c35.3-32,69-54.4,100.4-66.8c30.3-12,59-15,87.8-9.4
				c24.4,4.8,49.7,16.2,77.3,34.8c25.6,17.3,50.8,39.1,75.1,60.2c24.8,21.5,50.4,43.7,77,61.6c31,20.9,59.9,33.4,88.3,38.3
				c16.7,2.9,33.7,3.1,50.5,0.7c17.7-2.5,35.7-8,53.6-16.4c32-14.9,64.2-38.9,98.1-72.9C1175.8,338.7,1171.3,334.5,1166.8,330.2z"/>
		</g>
		<circle class="st6" cx="23.3" cy="362.4" r="19.6"/>
		<circle class="st6" cx="1238" cy="362.4" r="19.6"/>
		<g>
			<path class="st7" d="M134.9,343.8c0,6.8-5.5,12.3-12.3,12.3s-12.3-5.5-12.3-12.3c0-0.3,0-27.6,0-27.9c0-6.8,5.5-12.3,12.3-12.3
				s12.3,5.5,12.3,12.3C134.9,316.2,134.9,343.5,134.9,343.8z"/>
			<path class="st7" d="M207.5,372.6c0,6.8-5.5,12.3-12.3,12.3c-6.8,0-12.3-5.5-12.3-12.3c0-0.3,0-56.4,0-56.7
				c0-6.8,5.5-12.3,12.3-12.3c6.8,0,12.3,5.5,12.3,12.3C207.5,316.2,207.5,372.2,207.5,372.6z"/>
			<path class="st8" d="M280.1,401.3c0,6.8-5.5,12.3-12.3,12.3s-12.3-5.5-12.3-12.3c0-0.3,0-85.1,0-85.4c0-6.8,5.5-12.3,12.3-12.3
				s12.3,5.5,12.3,12.3C280.1,316.2,280.1,401,280.1,401.3z"/>
			<path class="st9" d="M352.7,372.6c0,6.8-5.5,12.3-12.3,12.3c-6.8,0-12.3-5.5-12.3-12.3c0-0.3,0-56.4,0-56.7
				c0-6.8,5.5-12.3,12.3-12.3c6.8,0,12.3,5.5,12.3,12.3C352.7,316.2,352.7,372.2,352.7,372.6z"/>
			<path class="st9" d="M425.3,343.8c0,6.8-5.5,12.3-12.3,12.3s-12.3-5.5-12.3-12.3c0-0.3,0-27.6,0-27.9c0-6.8,5.5-12.3,12.3-12.3
				s12.3,5.5,12.3,12.3C425.3,316.2,425.3,343.5,425.3,343.8z"/>
			<path class="st8" d="M497.9,343.8c0,6.8-5.5,12.3-12.3,12.3c-6.8,0-12.3-5.5-12.3-12.3c0-0.3,0-27.6,0-27.9
				c0-6.8,5.5-12.3,12.3-12.3c6.8,0,12.3,5.5,12.3,12.3C497.9,316.2,497.9,343.5,497.9,343.8z"/>
			<path class="st7" d="M570.5,372.6c0,6.8-5.5,12.3-12.3,12.3c-6.8,0-12.3-5.5-12.3-12.3c0-0.3,0-56.4,0-56.7
				c0-6.8,5.5-12.3,12.3-12.3c6.8,0,12.3,5.5,12.3,12.3C570.5,316.2,570.5,372.2,570.5,372.6z"/>
			<path class="st10" d="M643.1,401.3c0,6.8-5.5,12.3-12.3,12.3s-12.3-5.5-12.3-12.3c0-0.3,0-85.1,0-85.4c0-6.8,5.5-12.3,12.3-12.3
				s12.3,5.5,12.3,12.3C643.1,316.2,643.1,401,643.1,401.3z"/>
			<path class="st10" d="M715.7,372.6c0,6.8-5.5,12.3-12.3,12.3s-12.3-5.5-12.3-12.3c0-0.3,0-56.4,0-56.7c0-6.8,5.5-12.3,12.3-12.3
				s12.3,5.5,12.3,12.3C715.7,316.2,715.7,372.2,715.7,372.6z"/>
			<path class="st9" d="M788.3,343.8c0,6.8-5.5,12.3-12.3,12.3s-12.3-5.5-12.3-12.3c0-0.3,0-27.6,0-27.9c0-6.8,5.5-12.3,12.3-12.3
				s12.3,5.5,12.3,12.3C788.3,316.2,788.3,343.5,788.3,343.8z"/>
		</g>
		<path class="st8" d="M861.6,343.8c0,6.8-5.5,12.3-12.3,12.3s-12.3-5.5-12.3-12.3c0-0.3,0-27.6,0-27.9c0-6.8,5.5-12.3,12.3-12.3
			s12.3,5.5,12.3,12.3C861.6,316.2,861.6,343.5,861.6,343.8z"/>
		<path class="st7" d="M934.2,372.6c0,6.8-5.5,12.3-12.3,12.3s-12.3-5.5-12.3-12.3c0-0.3,0-56.4,0-56.7c0-6.8,5.5-12.3,12.3-12.3
			s12.3,5.5,12.3,12.3C934.2,316.2,934.2,372.2,934.2,372.6z"/>
		<path class="st9" d="M1006.8,401.3c0,6.8-5.5,12.3-12.3,12.3s-12.3-5.5-12.3-12.3c0-0.3,0-85.1,0-85.4c0-6.8,5.5-12.3,12.3-12.3
			s12.3,5.5,12.3,12.3C1006.8,316.2,1006.8,401,1006.8,401.3z"/>
		<path class="st8" d="M1079.4,372.6c0,6.8-5.5,12.3-12.3,12.3s-12.3-5.5-12.3-12.3c0-0.3,0-56.4,0-56.7c0-6.8,5.5-12.3,12.3-12.3
			s12.3,5.5,12.3,12.3C1079.4,316.2,1079.4,372.2,1079.4,372.6z"/>
		<path class="st10" d="M1152,343.8c0,6.8-5.5,12.3-12.3,12.3c-6.8,0-12.3-5.5-12.3-12.3c0-0.3,0-27.6,0-27.9
			c0-6.8,5.5-12.3,12.3-12.3c6.8,0,12.3,5.5,12.3,12.3C1152,316.2,1152,343.5,1152,343.8z"/>
		<g class="st11">
			<linearGradient id="SVGID_1_" gradientUnits="userSpaceOnUse" x1="110.404" y1="329.86" x2="134.9248" y2="329.86">
				<stop  offset="0" style="stop-color:#000000"/>
				<stop  offset="0.1045" style="stop-color:#1D1D1B"/>
				<stop  offset="0.6774" style="stop-color:#000000;stop-opacity:0"/>
			</linearGradient>
			<path class="st12" d="M134.9,343.8c0,6.8-5.5,12.3-12.3,12.3s-12.3-5.5-12.3-12.3c0-0.3,0-27.6,0-27.9c0-6.8,5.5-12.3,12.3-12.3
				s12.3,5.5,12.3,12.3C134.9,316.2,134.9,343.5,134.9,343.8z"/>
			<linearGradient id="SVGID_2_" gradientUnits="userSpaceOnUse" x1="182.9985" y1="344.2327" x2="207.5193" y2="344.2327">
				<stop  offset="0" style="stop-color:#000000"/>
				<stop  offset="0.1045" style="stop-color:#1D1D1B"/>
				<stop  offset="0.6774" style="stop-color:#000000;stop-opacity:0"/>
			</linearGradient>
			<path class="st13" d="M207.5,372.6c0,6.8-5.5,12.3-12.3,12.3c-6.8,0-12.3-5.5-12.3-12.3c0-0.3,0-56.4,0-56.7
				c0-6.8,5.5-12.3,12.3-12.3c6.8,0,12.3,5.5,12.3,12.3C207.5,316.2,207.5,372.2,207.5,372.6z"/>
			<linearGradient id="SVGID_3_" gradientUnits="userSpaceOnUse" x1="255.5931" y1="358.6054" x2="280.1139" y2="358.6054">
				<stop  offset="0" style="stop-color:#000000"/>
				<stop  offset="0.1045" style="stop-color:#1D1D1B"/>
				<stop  offset="0.6774" style="stop-color:#000000;stop-opacity:0"/>
			</linearGradient>
			<path class="st14" d="M280.1,401.3c0,6.8-5.5,12.3-12.3,12.3s-12.3-5.5-12.3-12.3c0-0.3,0-85.1,0-85.4c0-6.8,5.5-12.3,12.3-12.3
				s12.3,5.5,12.3,12.3C280.1,316.2,280.1,401,280.1,401.3z"/>
			<linearGradient id="SVGID_4_" gradientUnits="userSpaceOnUse" x1="328.1876" y1="344.2327" x2="352.7085" y2="344.2327">
				<stop  offset="0" style="stop-color:#000000"/>
				<stop  offset="0.1045" style="stop-color:#1D1D1B"/>
				<stop  offset="0.6774" style="stop-color:#000000;stop-opacity:0"/>
			</linearGradient>
			<path class="st15" d="M352.7,372.6c0,6.8-5.5,12.3-12.3,12.3c-6.8,0-12.3-5.5-12.3-12.3c0-0.3,0-56.4,0-56.7
				c0-6.8,5.5-12.3,12.3-12.3c6.8,0,12.3,5.5,12.3,12.3C352.7,316.2,352.7,372.2,352.7,372.6z"/>
			<linearGradient id="SVGID_5_" gradientUnits="userSpaceOnUse" x1="400.7822" y1="329.86" x2="425.303" y2="329.86">
				<stop  offset="0" style="stop-color:#000000"/>
				<stop  offset="0.1045" style="stop-color:#1D1D1B"/>
				<stop  offset="0.6774" style="stop-color:#000000;stop-opacity:0"/>
			</linearGradient>
			<path class="st16" d="M425.3,343.8c0,6.8-5.5,12.3-12.3,12.3s-12.3-5.5-12.3-12.3c0-0.3,0-27.6,0-27.9c0-6.8,5.5-12.3,12.3-12.3
				s12.3,5.5,12.3,12.3C425.3,316.2,425.3,343.5,425.3,343.8z"/>
			<linearGradient id="SVGID_6_" gradientUnits="userSpaceOnUse" x1="473.3767" y1="329.86" x2="497.8976" y2="329.86">
				<stop  offset="0" style="stop-color:#000000"/>
				<stop  offset="0.1045" style="stop-color:#1D1D1B"/>
				<stop  offset="0.6774" style="stop-color:#000000;stop-opacity:0"/>
			</linearGradient>
			<path class="st17" d="M497.9,343.8c0,6.8-5.5,12.3-12.3,12.3c-6.8,0-12.3-5.5-12.3-12.3c0-0.3,0-27.6,0-27.9
				c0-6.8,5.5-12.3,12.3-12.3c6.8,0,12.3,5.5,12.3,12.3C497.9,316.2,497.9,343.5,497.9,343.8z"/>
			<linearGradient id="SVGID_7_" gradientUnits="userSpaceOnUse" x1="545.9713" y1="344.2327" x2="570.4921" y2="344.2327">
				<stop  offset="0" style="stop-color:#000000"/>
				<stop  offset="0.1045" style="stop-color:#1D1D1B"/>
				<stop  offset="0.6774" style="stop-color:#000000;stop-opacity:0"/>
			</linearGradient>
			<path class="st18" d="M570.5,372.6c0,6.8-5.5,12.3-12.3,12.3c-6.8,0-12.3-5.5-12.3-12.3c0-0.3,0-56.4,0-56.7
				c0-6.8,5.5-12.3,12.3-12.3c6.8,0,12.3,5.5,12.3,12.3C570.5,316.2,570.5,372.2,570.5,372.6z"/>
			<linearGradient id="SVGID_8_" gradientUnits="userSpaceOnUse" x1="618.5659" y1="358.6054" x2="643.0867" y2="358.6054">
				<stop  offset="0" style="stop-color:#000000"/>
				<stop  offset="0.1045" style="stop-color:#1D1D1B"/>
				<stop  offset="0.6774" style="stop-color:#000000;stop-opacity:0"/>
			</linearGradient>
			<path class="st19" d="M643.1,401.3c0,6.8-5.5,12.3-12.3,12.3s-12.3-5.5-12.3-12.3c0-0.3,0-85.1,0-85.4c0-6.8,5.5-12.3,12.3-12.3
				s12.3,5.5,12.3,12.3C643.1,316.2,643.1,401,643.1,401.3z"/>
			<linearGradient id="SVGID_9_" gradientUnits="userSpaceOnUse" x1="691.1604" y1="344.2327" x2="715.6813" y2="344.2327">
				<stop  offset="0" style="stop-color:#000000"/>
				<stop  offset="0.1045" style="stop-color:#1D1D1B"/>
				<stop  offset="0.6774" style="stop-color:#000000;stop-opacity:0"/>
			</linearGradient>
			<path class="st20" d="M715.7,372.6c0,6.8-5.5,12.3-12.3,12.3s-12.3-5.5-12.3-12.3c0-0.3,0-56.4,0-56.7c0-6.8,5.5-12.3,12.3-12.3
				s12.3,5.5,12.3,12.3C715.7,316.2,715.7,372.2,715.7,372.6z"/>
			<linearGradient id="SVGID_10_" gradientUnits="userSpaceOnUse" x1="763.755" y1="329.86" x2="788.2758" y2="329.86">
				<stop  offset="0" style="stop-color:#000000"/>
				<stop  offset="0.1045" style="stop-color:#1D1D1B"/>
				<stop  offset="0.6774" style="stop-color:#000000;stop-opacity:0"/>
			</linearGradient>
			<path class="st21" d="M788.3,343.8c0,6.8-5.5,12.3-12.3,12.3s-12.3-5.5-12.3-12.3c0-0.3,0-27.6,0-27.9c0-6.8,5.5-12.3,12.3-12.3
				s12.3,5.5,12.3,12.3C788.3,316.2,788.3,343.5,788.3,343.8z"/>
		</g>
		<linearGradient id="SVGID_11_" gradientUnits="userSpaceOnUse" x1="837.0807" y1="329.86" x2="861.6015" y2="329.86">
			<stop  offset="0" style="stop-color:#000000"/>
			<stop  offset="0.1045" style="stop-color:#1D1D1B"/>
			<stop  offset="0.6774" style="stop-color:#000000;stop-opacity:0"/>
		</linearGradient>
		<path class="st22" d="M861.6,343.8c0,6.8-5.5,12.3-12.3,12.3s-12.3-5.5-12.3-12.3c0-0.3,0-27.6,0-27.9c0-6.8,5.5-12.3,12.3-12.3
			s12.3,5.5,12.3,12.3C861.6,316.2,861.6,343.5,861.6,343.8z"/>
		<linearGradient id="SVGID_12_" gradientUnits="userSpaceOnUse" x1="909.6752" y1="344.2327" x2="934.196" y2="344.2327">
			<stop  offset="0" style="stop-color:#000000"/>
			<stop  offset="0.1045" style="stop-color:#1D1D1B"/>
			<stop  offset="0.6774" style="stop-color:#000000;stop-opacity:0"/>
		</linearGradient>
		<path class="st23" d="M934.2,372.6c0,6.8-5.5,12.3-12.3,12.3s-12.3-5.5-12.3-12.3c0-0.3,0-56.4,0-56.7c0-6.8,5.5-12.3,12.3-12.3
			s12.3,5.5,12.3,12.3C934.2,316.2,934.2,372.2,934.2,372.6z"/>
		<linearGradient id="SVGID_13_" gradientUnits="userSpaceOnUse" x1="982.2698" y1="358.6054" x2="1006.7906" y2="358.6054">
			<stop  offset="0" style="stop-color:#000000"/>
			<stop  offset="0.1045" style="stop-color:#1D1D1B"/>
			<stop  offset="0.6774" style="stop-color:#000000;stop-opacity:0"/>
		</linearGradient>
		<path class="st24" d="M1006.8,401.3c0,6.8-5.5,12.3-12.3,12.3s-12.3-5.5-12.3-12.3c0-0.3,0-85.1,0-85.4c0-6.8,5.5-12.3,12.3-12.3
			s12.3,5.5,12.3,12.3C1006.8,316.2,1006.8,401,1006.8,401.3z"/>
		<linearGradient id="SVGID_14_" gradientUnits="userSpaceOnUse" x1="1054.8644" y1="344.2327" x2="1079.3851" y2="344.2327">
			<stop  offset="0" style="stop-color:#000000"/>
			<stop  offset="0.1045" style="stop-color:#1D1D1B"/>
			<stop  offset="0.6774" style="stop-color:#000000;stop-opacity:0"/>
		</linearGradient>
		<path class="st25" d="M1079.4,372.6c0,6.8-5.5,12.3-12.3,12.3s-12.3-5.5-12.3-12.3c0-0.3,0-56.4,0-56.7c0-6.8,5.5-12.3,12.3-12.3
			s12.3,5.5,12.3,12.3C1079.4,316.2,1079.4,372.2,1079.4,372.6z"/>
		<linearGradient id="SVGID_15_" gradientUnits="userSpaceOnUse" x1="1127.4589" y1="329.86" x2="1151.9797" y2="329.86">
			<stop  offset="0" style="stop-color:#000000"/>
			<stop  offset="0.1045" style="stop-color:#1D1D1B"/>
			<stop  offset="0.6774" style="stop-color:#000000;stop-opacity:0"/>
		</linearGradient>
		<path class="st26" d="M1152,343.8c0,6.8-5.5,12.3-12.3,12.3c-6.8,0-12.3-5.5-12.3-12.3c0-0.3,0-27.6,0-27.9
			c0-6.8,5.5-12.3,12.3-12.3c6.8,0,12.3,5.5,12.3,12.3C1152,316.2,1152,343.5,1152,343.8z"/>
		<g>
			<path class="st27" d="M297.1,157.6V157H295C295.7,157.2,296.4,157.4,297.1,157.6z"/>
			<path class="st9" d="M134.9,283.6c0-6.8-5.5-12.3-12.3-12.3s-12.3,5.5-12.3,12.3c0,0.3,0,27.6,0,27.9c0,6.8,5.5,12.3,12.3,12.3
				s12.3-5.5,12.3-12.3C134.9,311.2,134.9,284,134.9,283.6z"/>
			<path class="st9" d="M207.5,254.9c0-6.8-5.5-12.3-12.3-12.3c-6.8,0-12.3,5.5-12.3,12.3c0,0.3,0,56.4,0,56.7
				c0,6.8,5.5,12.3,12.3,12.3c6.8,0,12.3-5.5,12.3-12.3C207.5,311.2,207.5,255.2,207.5,254.9z"/>
			<path class="st10" d="M280.1,226.1c0-6.8-5.5-12.3-12.3-12.3s-12.3,5.5-12.3,12.3c0,0.3,0,85.1,0,85.4c0,6.8,5.5,12.3,12.3,12.3
				s12.3-5.5,12.3-12.3C280.1,311.2,280.1,226.5,280.1,226.1z"/>
			<path class="st7" d="M352.7,254.9c0-6.8-5.5-12.3-12.3-12.3c-6.8,0-12.3,5.5-12.3,12.3c0,0.3,0,56.4,0,56.7
				c0,6.8,5.5,12.3,12.3,12.3c6.8,0,12.3-5.5,12.3-12.3C352.7,311.2,352.7,255.2,352.7,254.9z"/>
			<path class="st7" d="M425.3,283.6c0-6.8-5.5-12.3-12.3-12.3s-12.3,5.5-12.3,12.3c0,0.3,0,27.6,0,27.9c0,6.8,5.5,12.3,12.3,12.3
				s12.3-5.5,12.3-12.3C425.3,311.2,425.3,284,425.3,283.6z"/>
			<path class="st10" d="M497.9,283.6c0-6.8-5.5-12.3-12.3-12.3c-6.8,0-12.3,5.5-12.3,12.3c0,0.3,0,27.6,0,27.9
				c0,6.8,5.5,12.3,12.3,12.3c6.8,0,12.3-5.5,12.3-12.3C497.9,311.2,497.9,284,497.9,283.6z"/>
			<path class="st9" d="M570.5,254.9c0-6.8-5.5-12.3-12.3-12.3c-6.8,0-12.3,5.5-12.3,12.3c0,0.3,0,56.4,0,56.7
				c0,6.8,5.5,12.3,12.3,12.3c6.8,0,12.3-5.5,12.3-12.3C570.5,311.2,570.5,255.2,570.5,254.9z"/>
			<path class="st8" d="M643.1,226.1c0-6.8-5.5-12.3-12.3-12.3s-12.3,5.5-12.3,12.3c0,0.3,0,85.1,0,85.4c0,6.8,5.5,12.3,12.3,12.3
				s12.3-5.5,12.3-12.3C643.1,311.2,643.1,226.5,643.1,226.1z"/>
			<path class="st8" d="M715.7,254.9c0-6.8-5.5-12.3-12.3-12.3s-12.3,5.5-12.3,12.3c0,0.3,0,56.4,0,56.7c0,6.8,5.5,12.3,12.3,12.3
				s12.3-5.5,12.3-12.3C715.7,311.2,715.7,255.2,715.7,254.9z"/>
			<path class="st7" d="M788.3,283.6c0-6.8-5.5-12.3-12.3-12.3s-12.3,5.5-12.3,12.3c0,0.3,0,27.6,0,27.9c0,6.8,5.5,12.3,12.3,12.3
				s12.3-5.5,12.3-12.3C788.3,311.2,788.3,284,788.3,283.6z"/>
		</g>
		<path class="st10" d="M861.6,283.6c0-6.8-5.5-12.3-12.3-12.3s-12.3,5.5-12.3,12.3c0,0.3,0,27.6,0,27.9c0,6.8,5.5,12.3,12.3,12.3
			s12.3-5.5,12.3-12.3C861.6,311.2,861.6,284,861.6,283.6z"/>
		<path class="st9" d="M934.2,254.9c0-6.8-5.5-12.3-12.3-12.3s-12.3,5.5-12.3,12.3c0,0.3,0,56.4,0,56.7c0,6.8,5.5,12.3,12.3,12.3
			s12.3-5.5,12.3-12.3C934.2,311.2,934.2,255.2,934.2,254.9z"/>
		<path class="st7" d="M1006.8,226.1c0-6.8-5.5-12.3-12.3-12.3s-12.3,5.5-12.3,12.3c0,0.3,0,85.1,0,85.4c0,6.8,5.5,12.3,12.3,12.3
			s12.3-5.5,12.3-12.3C1006.8,311.2,1006.8,226.5,1006.8,226.1z"/>
		<path class="st10" d="M1079.4,254.9c0-6.8-5.5-12.3-12.3-12.3s-12.3,5.5-12.3,12.3c0,0.3,0,56.4,0,56.7c0,6.8,5.5,12.3,12.3,12.3
			s12.3-5.5,12.3-12.3C1079.4,311.2,1079.4,255.2,1079.4,254.9z"/>
		<path class="st8" d="M1152,283.6c0-6.8-5.5-12.3-12.3-12.3c-6.8,0-12.3,5.5-12.3,12.3c0,0.3,0,27.6,0,27.9
			c0,6.8,5.5,12.3,12.3,12.3c6.8,0,12.3-5.5,12.3-12.3C1152,311.2,1152,284,1152,283.6z"/>
		<g>
			<linearGradient id="SVGID_16_" gradientUnits="userSpaceOnUse" x1="295.0288" y1="157.3297" x2="297.1369" y2="157.3297">
				<stop  offset="0" style="stop-color:#000000;stop-opacity:0.2"/>
				<stop  offset="0.1045" style="stop-color:#1D1D1B;stop-opacity:0.2"/>
				<stop  offset="0.6774" style="stop-color:#000000;stop-opacity:0"/>
			</linearGradient>
			<path class="st28" d="M297.1,157.6V157H295C295.7,157.2,296.4,157.4,297.1,157.6z"/>
			<linearGradient id="SVGID_17_" gradientUnits="userSpaceOnUse" x1="110.404" y1="297.5994" x2="134.9248" y2="297.5994">
				<stop  offset="0" style="stop-color:#000000;stop-opacity:0.2"/>
				<stop  offset="0.1045" style="stop-color:#1D1D1B;stop-opacity:0.2"/>
				<stop  offset="0.6774" style="stop-color:#000000;stop-opacity:0"/>
			</linearGradient>
			<path class="st29" d="M134.9,283.6c0-6.8-5.5-12.3-12.3-12.3s-12.3,5.5-12.3,12.3c0,0.3,0,27.6,0,27.9c0,6.8,5.5,12.3,12.3,12.3
				s12.3-5.5,12.3-12.3C134.9,311.2,134.9,284,134.9,283.6z"/>
			<linearGradient id="SVGID_18_" gradientUnits="userSpaceOnUse" x1="182.9985" y1="283.2267" x2="207.5193" y2="283.2267">
				<stop  offset="0" style="stop-color:#000000;stop-opacity:0.2"/>
				<stop  offset="0.1045" style="stop-color:#1D1D1B;stop-opacity:0.2"/>
				<stop  offset="0.6774" style="stop-color:#000000;stop-opacity:0"/>
			</linearGradient>
			<path class="st30" d="M207.5,254.9c0-6.8-5.5-12.3-12.3-12.3c-6.8,0-12.3,5.5-12.3,12.3c0,0.3,0,56.4,0,56.7
				c0,6.8,5.5,12.3,12.3,12.3c6.8,0,12.3-5.5,12.3-12.3C207.5,311.2,207.5,255.2,207.5,254.9z"/>
			<linearGradient id="SVGID_19_" gradientUnits="userSpaceOnUse" x1="255.5931" y1="268.854" x2="280.1139" y2="268.854">
				<stop  offset="0" style="stop-color:#000000;stop-opacity:0.2"/>
				<stop  offset="0.1045" style="stop-color:#1D1D1B;stop-opacity:0.2"/>
				<stop  offset="0.6774" style="stop-color:#000000;stop-opacity:0"/>
			</linearGradient>
			<path class="st31" d="M280.1,226.1c0-6.8-5.5-12.3-12.3-12.3s-12.3,5.5-12.3,12.3c0,0.3,0,85.1,0,85.4c0,6.8,5.5,12.3,12.3,12.3
				s12.3-5.5,12.3-12.3C280.1,311.2,280.1,226.5,280.1,226.1z"/>
			<linearGradient id="SVGID_20_" gradientUnits="userSpaceOnUse" x1="328.1876" y1="283.2267" x2="352.7085" y2="283.2267">
				<stop  offset="0" style="stop-color:#000000;stop-opacity:0.2"/>
				<stop  offset="0.1045" style="stop-color:#1D1D1B;stop-opacity:0.2"/>
				<stop  offset="0.6774" style="stop-color:#000000;stop-opacity:0"/>
			</linearGradient>
			<path class="st32" d="M352.7,254.9c0-6.8-5.5-12.3-12.3-12.3c-6.8,0-12.3,5.5-12.3,12.3c0,0.3,0,56.4,0,56.7
				c0,6.8,5.5,12.3,12.3,12.3c6.8,0,12.3-5.5,12.3-12.3C352.7,311.2,352.7,255.2,352.7,254.9z"/>
			<linearGradient id="SVGID_21_" gradientUnits="userSpaceOnUse" x1="400.7822" y1="297.5994" x2="425.303" y2="297.5994">
				<stop  offset="0" style="stop-color:#000000;stop-opacity:0.2"/>
				<stop  offset="0.1045" style="stop-color:#1D1D1B;stop-opacity:0.2"/>
				<stop  offset="0.6774" style="stop-color:#000000;stop-opacity:0"/>
			</linearGradient>
			<path class="st33" d="M425.3,283.6c0-6.8-5.5-12.3-12.3-12.3s-12.3,5.5-12.3,12.3c0,0.3,0,27.6,0,27.9c0,6.8,5.5,12.3,12.3,12.3
				s12.3-5.5,12.3-12.3C425.3,311.2,425.3,284,425.3,283.6z"/>
			<linearGradient id="SVGID_22_" gradientUnits="userSpaceOnUse" x1="473.3767" y1="297.5994" x2="497.8976" y2="297.5994">
				<stop  offset="0" style="stop-color:#000000;stop-opacity:0.2"/>
				<stop  offset="0.1045" style="stop-color:#1D1D1B;stop-opacity:0.2"/>
				<stop  offset="0.6774" style="stop-color:#000000;stop-opacity:0"/>
			</linearGradient>
			<path class="st34" d="M497.9,283.6c0-6.8-5.5-12.3-12.3-12.3c-6.8,0-12.3,5.5-12.3,12.3c0,0.3,0,27.6,0,27.9
				c0,6.8,5.5,12.3,12.3,12.3c6.8,0,12.3-5.5,12.3-12.3C497.9,311.2,497.9,284,497.9,283.6z"/>
			<linearGradient id="SVGID_23_" gradientUnits="userSpaceOnUse" x1="545.9713" y1="283.2267" x2="570.4921" y2="283.2267">
				<stop  offset="0" style="stop-color:#000000;stop-opacity:0.2"/>
				<stop  offset="0.1045" style="stop-color:#1D1D1B;stop-opacity:0.2"/>
				<stop  offset="0.6774" style="stop-color:#000000;stop-opacity:0"/>
			</linearGradient>
			<path class="st35" d="M570.5,254.9c0-6.8-5.5-12.3-12.3-12.3c-6.8,0-12.3,5.5-12.3,12.3c0,0.3,0,56.4,0,56.7
				c0,6.8,5.5,12.3,12.3,12.3c6.8,0,12.3-5.5,12.3-12.3C570.5,311.2,570.5,255.2,570.5,254.9z"/>
			<linearGradient id="SVGID_24_" gradientUnits="userSpaceOnUse" x1="618.5659" y1="268.854" x2="643.0867" y2="268.854">
				<stop  offset="0" style="stop-color:#000000;stop-opacity:0.2"/>
				<stop  offset="0.1045" style="stop-color:#1D1D1B;stop-opacity:0.2"/>
				<stop  offset="0.6774" style="stop-color:#000000;stop-opacity:0"/>
			</linearGradient>
			<path class="st36" d="M643.1,226.1c0-6.8-5.5-12.3-12.3-12.3s-12.3,5.5-12.3,12.3c0,0.3,0,85.1,0,85.4c0,6.8,5.5,12.3,12.3,12.3
				s12.3-5.5,12.3-12.3C643.1,311.2,643.1,226.5,643.1,226.1z"/>
			<linearGradient id="SVGID_25_" gradientUnits="userSpaceOnUse" x1="691.1604" y1="283.2267" x2="715.6813" y2="283.2267">
				<stop  offset="0" style="stop-color:#000000;stop-opacity:0.2"/>
				<stop  offset="0.1045" style="stop-color:#1D1D1B;stop-opacity:0.2"/>
				<stop  offset="0.6774" style="stop-color:#000000;stop-opacity:0"/>
			</linearGradient>
			<path class="st37" d="M715.7,254.9c0-6.8-5.5-12.3-12.3-12.3s-12.3,5.5-12.3,12.3c0,0.3,0,56.4,0,56.7c0,6.8,5.5,12.3,12.3,12.3
				s12.3-5.5,12.3-12.3C715.7,311.2,715.7,255.2,715.7,254.9z"/>
			<linearGradient id="SVGID_26_" gradientUnits="userSpaceOnUse" x1="763.755" y1="297.5994" x2="788.2758" y2="297.5994">
				<stop  offset="0" style="stop-color:#000000;stop-opacity:0.2"/>
				<stop  offset="0.1045" style="stop-color:#1D1D1B;stop-opacity:0.2"/>
				<stop  offset="0.6774" style="stop-color:#000000;stop-opacity:0"/>
			</linearGradient>
			<path class="st38" d="M788.3,283.6c0-6.8-5.5-12.3-12.3-12.3s-12.3,5.5-12.3,12.3c0,0.3,0,27.6,0,27.9c0,6.8,5.5,12.3,12.3,12.3
				s12.3-5.5,12.3-12.3C788.3,311.2,788.3,284,788.3,283.6z"/>
		</g>
		<linearGradient id="SVGID_27_" gradientUnits="userSpaceOnUse" x1="837.0807" y1="297.5994" x2="861.6015" y2="297.5994">
			<stop  offset="0" style="stop-color:#000000;stop-opacity:0.2"/>
			<stop  offset="0.1045" style="stop-color:#1D1D1B;stop-opacity:0.2"/>
			<stop  offset="0.6774" style="stop-color:#000000;stop-opacity:0"/>
		</linearGradient>
		<path class="st39" d="M861.6,283.6c0-6.8-5.5-12.3-12.3-12.3s-12.3,5.5-12.3,12.3c0,0.3,0,27.6,0,27.9c0,6.8,5.5,12.3,12.3,12.3
			s12.3-5.5,12.3-12.3C861.6,311.2,861.6,284,861.6,283.6z"/>
		<linearGradient id="SVGID_28_" gradientUnits="userSpaceOnUse" x1="909.6752" y1="283.2267" x2="934.196" y2="283.2267">
			<stop  offset="0" style="stop-color:#000000;stop-opacity:0.2"/>
			<stop  offset="0.1045" style="stop-color:#1D1D1B;stop-opacity:0.2"/>
			<stop  offset="0.6774" style="stop-color:#000000;stop-opacity:0"/>
		</linearGradient>
		<path class="st40" d="M934.2,254.9c0-6.8-5.5-12.3-12.3-12.3s-12.3,5.5-12.3,12.3c0,0.3,0,56.4,0,56.7c0,6.8,5.5,12.3,12.3,12.3
			s12.3-5.5,12.3-12.3C934.2,311.2,934.2,255.2,934.2,254.9z"/>
		<linearGradient id="SVGID_29_" gradientUnits="userSpaceOnUse" x1="982.2698" y1="268.854" x2="1006.7906" y2="268.854">
			<stop  offset="0" style="stop-color:#000000;stop-opacity:0.2"/>
			<stop  offset="0.1045" style="stop-color:#1D1D1B;stop-opacity:0.2"/>
			<stop  offset="0.6774" style="stop-color:#000000;stop-opacity:0"/>
		</linearGradient>
		<path class="st41" d="M1006.8,226.1c0-6.8-5.5-12.3-12.3-12.3s-12.3,5.5-12.3,12.3c0,0.3,0,85.1,0,85.4c0,6.8,5.5,12.3,12.3,12.3
			s12.3-5.5,12.3-12.3C1006.8,311.2,1006.8,226.5,1006.8,226.1z"/>
		<linearGradient id="SVGID_30_" gradientUnits="userSpaceOnUse" x1="1054.8644" y1="283.2267" x2="1079.3851" y2="283.2267">
			<stop  offset="0" style="stop-color:#000000;stop-opacity:0.2"/>
			<stop  offset="0.1045" style="stop-color:#1D1D1B;stop-opacity:0.2"/>
			<stop  offset="0.6774" style="stop-color:#000000;stop-opacity:0"/>
		</linearGradient>
		<path class="st42" d="M1079.4,254.9c0-6.8-5.5-12.3-12.3-12.3s-12.3,5.5-12.3,12.3c0,0.3,0,56.4,0,56.7c0,6.8,5.5,12.3,12.3,12.3
			s12.3-5.5,12.3-12.3C1079.4,311.2,1079.4,255.2,1079.4,254.9z"/>
		<linearGradient id="SVGID_31_" gradientUnits="userSpaceOnUse" x1="1127.4589" y1="297.5994" x2="1151.9797" y2="297.5994">
			<stop  offset="0" style="stop-color:#000000;stop-opacity:0.2"/>
			<stop  offset="0.1045" style="stop-color:#1D1D1B;stop-opacity:0.2"/>
			<stop  offset="0.6774" style="stop-color:#000000;stop-opacity:0"/>
		</linearGradient>
		<path class="st43" d="M1152,283.6c0-6.8-5.5-12.3-12.3-12.3c-6.8,0-12.3,5.5-12.3,12.3c0,0.3,0,27.6,0,27.9
			c0,6.8,5.5,12.3,12.3,12.3c6.8,0,12.3-5.5,12.3-12.3C1152,311.2,1152,284,1152,283.6z"/>
		<g>
			<path class="st44" d="M129.5,309.7c-0.6,0.3-2.1,0.6-4,0.6c-6.3,0-9-4.2-9-9.1c0-6.5,4.5-9.6,9.4-9.6c1.9,0,3.3,0.4,3.9,0.7
				l-0.8,3.7c-0.7-0.3-1.6-0.6-2.8-0.6c-2.6,0-4.8,1.7-4.8,5.5c0,3.5,1.8,5.4,4.8,5.4c1,0,2.1-0.2,2.8-0.4L129.5,309.7z"/>
			<path class="st44" d="M201.6,286.7c-0.6,0.3-2.1,0.6-4,0.6c-6.3,0-9-4.2-9-9.1c0-6.5,4.5-9.6,9.4-9.6c1.9,0,3.3,0.4,3.9,0.7
				l-0.8,3.7c-0.7-0.3-1.6-0.6-2.8-0.6c-2.6,0-4.8,1.7-4.8,5.5c0,3.5,1.8,5.4,4.8,5.4c1,0,2.1-0.2,2.8-0.4L201.6,286.7z"/>
			<path class="st44" d="M266.6,238.4h-4.2v-4h13.1v4h-4.3v14.2h-4.7V238.4z"/>
			<path class="st44" d="M346.5,286.4c-1.2,0.4-3.5,0.9-5.6,0.9c-3.2,0-5.4-0.8-6.9-2.2c-1.7-1.6-2.6-4.1-2.5-6.9
				c0.1-6.4,4.5-9.5,9.9-9.5c2.2,0,3.8,0.4,4.6,0.8l-0.9,3.8c-0.9-0.4-1.9-0.7-3.6-0.7c-2.9,0-5.1,1.6-5.1,5.5c0,3.5,2,5.4,4.5,5.4
				c0.5,0,1-0.1,1.2-0.1v-3.3H340v-3.7h6.5V286.4z"/>
			<path class="st44" d="M421.1,309.4c-1.2,0.4-3.5,0.9-5.6,0.9c-3.2,0-5.4-0.8-6.9-2.2c-1.7-1.6-2.6-4.1-2.5-6.9
				c0.1-6.4,4.5-9.5,9.9-9.5c2.2,0,3.8,0.4,4.6,0.8l-0.9,3.8c-0.9-0.4-1.9-0.7-3.6-0.7c-2.9,0-5.1,1.6-5.1,5.5c0,3.5,2,5.4,4.5,5.4
				c0.5,0,1-0.1,1.2-0.1v-3.3h-2.1v-3.7h6.5V309.4z"/>
			<path class="st44" d="M483.8,295.9h-4.2v-4h13.1v4h-4.3v14.2h-4.7V295.9z"/>
			<path class="st44" d="M564.5,286.7c-0.6,0.3-2.1,0.6-4,0.6c-6.3,0-9-4.2-9-9.1c0-6.5,4.5-9.6,9.4-9.6c1.9,0,3.3,0.4,3.9,0.7
				l-0.8,3.7c-0.7-0.3-1.6-0.6-2.8-0.6c-2.6,0-4.8,1.7-4.8,5.5c0,3.5,1.8,5.4,4.8,5.4c1,0,2.1-0.2,2.8-0.4L564.5,286.7z"/>
			<path class="st44" d="M628.7,248.6l-0.9,4H623l4.9-18.2h6.1l4.8,18.2h-4.9l-1-4H628.7z M632.3,245.1l-0.7-3.3
				c-0.2-1-0.5-2.7-0.8-3.8h-0.1c-0.3,1.1-0.5,2.8-0.8,3.8l-0.7,3.3H632.3z"/>
			<path class="st44" d="M702.7,283.1l-0.9,4H697l4.9-18.2h6.1l4.8,18.2h-4.9l-1-4H702.7z M706.3,279.6l-0.7-3.3
				c-0.2-1-0.5-2.7-0.8-3.8h-0.1c-0.3,1.1-0.5,2.8-0.8,3.8l-0.7,3.3H706.3z"/>
			<path class="st44" d="M783.7,309.4c-1.2,0.4-3.5,0.9-5.6,0.9c-3.2,0-5.4-0.8-6.9-2.2c-1.7-1.6-2.6-4.1-2.5-6.9
				c0.1-6.4,4.5-9.5,9.9-9.5c2.2,0,3.8,0.4,4.6,0.8l-0.9,3.8c-0.9-0.4-1.9-0.7-3.6-0.7c-2.9,0-5.1,1.6-5.1,5.5c0,3.5,2,5.4,4.5,5.4
				c0.5,0,1-0.1,1.2-0.1v-3.3h-2.1v-3.7h6.5V309.4z"/>
			<path class="st44" d="M846.4,295.9h-4.2v-4h13.1v4h-4.3v14.2h-4.7V295.9z"/>
			<path class="st44" d="M927.2,286.7c-0.6,0.3-2.1,0.6-4,0.6c-6.3,0-9-4.2-9-9.1c0-6.5,4.5-9.6,9.4-9.6c1.9,0,3.3,0.4,3.9,0.7
				l-0.8,3.7c-0.7-0.3-1.6-0.6-2.8-0.6c-2.6,0-4.8,1.7-4.8,5.5c0,3.5,1.8,5.4,4.8,5.4c1,0,2.1-0.2,2.8-0.4L927.2,286.7z"/>
			<path class="st44" d="M1001.3,251.9c-1.2,0.4-3.5,0.9-5.6,0.9c-3.2,0-5.4-0.8-6.9-2.2c-1.7-1.6-2.6-4.1-2.5-6.9
				c0.1-6.4,4.5-9.5,9.9-9.5c2.2,0,3.8,0.4,4.6,0.8l-0.9,3.8c-0.9-0.4-1.9-0.7-3.6-0.7c-2.9,0-5.1,1.6-5.1,5.5c0,3.5,2,5.4,4.5,5.4
				c0.5,0,1-0.1,1.2-0.1v-3.3h-2.1v-3.7h6.5V251.9z"/>
			<path class="st44" d="M1064.2,272.9h-4.2v-4h13.1v4h-4.3v14.2h-4.7V272.9z"/>
			<path class="st44" d="M1138.2,306.1l-0.9,4h-4.8l4.9-18.2h6.1l4.8,18.2h-4.9l-1-4H1138.2z M1141.8,302.6l-0.7-3.3
				c-0.2-1-0.5-2.7-0.8-3.8h-0.1c-0.3,1.1-0.5,2.8-0.8,3.8l-0.7,3.3H1141.8z"/>
		</g>
		<circle class="st6" cx="25.6" cy="574" r="19.6"/>
		<circle class="st6" cx="1239.5" cy="661.5" r="19.4"/>
		<g>
			<path class="st45" d="M257.7,657.3v0.6h-2.1C256.3,657.7,257,657.5,257.7,657.3z"/>
		</g>
		<g>
			<path class="st27" d="M297.1,422.1v-0.6H295C295.7,421.7,296.4,421.9,297.1,422.1z"/>
		</g>
		<g>
			<linearGradient id="SVGID_32_" gradientUnits="userSpaceOnUse" x1="295.0288" y1="421.7871" x2="297.1369" y2="421.7871">
				<stop  offset="0" style="stop-color:#000000;stop-opacity:0.2"/>
				<stop  offset="0.1045" style="stop-color:#1D1D1B;stop-opacity:0.2"/>
				<stop  offset="0.6774" style="stop-color:#000000;stop-opacity:0"/>
			</linearGradient>
			<path class="st46" d="M297.1,422.1v-0.6H295C295.7,421.7,296.4,421.9,297.1,422.1z"/>
		</g>
		<g>
			<path class="st44" d="M130.3,346.8c-1.2,0.4-3.5,0.9-5.6,0.9c-3.2,0-5.4-0.8-6.9-2.2c-1.7-1.6-2.6-4.1-2.5-6.9
				c0.1-6.4,4.5-9.5,9.9-9.5c2.2,0,3.8,0.4,4.6,0.8l-0.9,3.8c-0.9-0.4-1.9-0.7-3.6-0.7c-2.9,0-5.1,1.6-5.1,5.5c0,3.5,2,5.4,4.5,5.4
				c0.5,0,1-0.1,1.2-0.1v-3.3h-2.1v-3.7h6.5V346.8z"/>
			<path class="st44" d="M204.6,358.3c-1.2,0.4-3.5,0.9-5.6,0.9c-3.2,0-5.4-0.8-6.9-2.2c-1.7-1.6-2.6-4.1-2.5-6.9
				c0.1-6.4,4.5-9.5,9.9-9.5c2.2,0,3.8,0.4,4.6,0.8l-0.9,3.8c-0.9-0.4-1.9-0.7-3.6-0.7c-2.9,0-5.1,1.6-5.1,5.5c0,3.5,2,5.4,4.5,5.4
				c0.5,0,1-0.1,1.2-0.1v-3.3H198v-3.7h6.5V358.3z"/>
			<path class="st44" d="M266.9,383.7l-0.9,4h-4.8l4.9-18.2h6.1l4.8,18.2h-4.9l-1-4H266.9z M270.5,380.2l-0.7-3.3
				c-0.2-1-0.5-2.7-0.8-3.8H269c-0.3,1.1-0.5,2.8-0.8,3.8l-0.7,3.3H270.5z"/>
			<path class="st44" d="M347.8,358.6c-0.6,0.3-2.1,0.6-4,0.6c-6.3,0-9-4.2-9-9.1c0-6.5,4.5-9.6,9.4-9.6c1.9,0,3.3,0.4,3.9,0.7
				l-0.8,3.7c-0.7-0.3-1.6-0.6-2.8-0.6c-2.6,0-4.8,1.7-4.8,5.5c0,3.5,1.8,5.4,4.8,5.4c1,0,2.1-0.2,2.8-0.4L347.8,358.6z"/>
			<path class="st44" d="M420.2,347.1c-0.6,0.3-2.1,0.6-4,0.6c-6.3,0-9-4.2-9-9.1c0-6.5,4.5-9.6,9.4-9.6c1.9,0,3.3,0.4,3.9,0.7
				l-0.8,3.7c-0.7-0.3-1.6-0.6-2.8-0.6c-2.6,0-4.8,1.7-4.8,5.5c0,3.5,1.8,5.4,4.8,5.4c1,0,2.1-0.2,2.8-0.4L420.2,347.1z"/>
			<path class="st44" d="M483.5,343.5l-0.9,4h-4.8l4.9-18.2h6.1l4.8,18.2h-4.9l-1-4H483.5z M487.1,340l-0.7-3.3
				c-0.2-1-0.5-2.7-0.8-3.8h-0.1c-0.3,1.1-0.5,2.8-0.8,3.8l-0.7,3.3H487.1z"/>
			<path class="st44" d="M567.2,358.3c-1.2,0.4-3.5,0.9-5.6,0.9c-3.2,0-5.4-0.8-6.9-2.2c-1.7-1.6-2.6-4.1-2.5-6.9
				c0.1-6.4,4.5-9.5,9.9-9.5c2.2,0,3.8,0.4,4.6,0.8l-0.9,3.8c-0.9-0.4-1.9-0.7-3.6-0.7c-2.9,0-5.1,1.6-5.1,5.5c0,3.5,2,5.4,4.5,5.4
				c0.5,0,1-0.1,1.2-0.1v-3.3h-2.1v-3.7h6.5V358.3z"/>
			<path class="st44" d="M629.6,373.5h-4.2v-4h13.1v4h-4.3v14.2h-4.7V373.5z"/>
			<path class="st44" d="M703,344.8h-4.2v-4H712v4h-4.3V359H703V344.8z"/>
			<path class="st44" d="M783.5,347.1c-0.6,0.3-2.1,0.6-4,0.6c-6.3,0-9-4.2-9-9.1c0-6.5,4.5-9.6,9.4-9.6c1.9,0,3.3,0.4,3.9,0.7
				l-0.8,3.7c-0.7-0.3-1.6-0.6-2.8-0.6c-2.6,0-4.8,1.7-4.8,5.5c0,3.5,1.8,5.4,4.8,5.4c1,0,2.1-0.2,2.8-0.4L783.5,347.1z"/>
			<path class="st44" d="M847.4,343.5l-0.9,4h-4.8l4.9-18.2h6.1l4.8,18.2h-4.9l-1-4H847.4z M851,340l-0.7-3.3
				c-0.2-1-0.5-2.7-0.8-3.8h-0.1c-0.3,1.1-0.5,2.8-0.8,3.8L848,340H851z"/>
			<path class="st44" d="M929.3,358.3c-1.2,0.4-3.5,0.9-5.6,0.9c-3.2,0-5.4-0.8-6.9-2.2c-1.7-1.6-2.6-4.1-2.5-6.9
				c0.1-6.4,4.5-9.5,9.9-9.5c2.2,0,3.8,0.4,4.6,0.8l-0.9,3.8c-0.9-0.4-1.9-0.7-3.6-0.7c-2.9,0-5.1,1.6-5.1,5.5c0,3.5,2,5.4,4.5,5.4
				c0.5,0,1-0.1,1.2-0.1v-3.3h-2.1v-3.7h6.5V358.3z"/>
			<path class="st44" d="M1000.5,387.3c-0.6,0.3-2.1,0.6-4,0.6c-6.3,0-9-4.2-9-9.1c0-6.5,4.5-9.6,9.4-9.6c1.9,0,3.3,0.4,3.9,0.7
				l-0.8,3.7c-0.7-0.3-1.6-0.6-2.8-0.6c-2.6,0-4.8,1.7-4.8,5.5c0,3.5,1.8,5.4,4.8,5.4c1,0,2.1-0.2,2.8-0.4L1000.5,387.3z"/>
			<path class="st44" d="M1064.7,355l-0.9,4h-4.8l4.9-18.2h6.1l4.8,18.2h-4.9l-1-4H1064.7z M1068.3,351.5l-0.7-3.3
				c-0.2-1-0.5-2.7-0.8-3.8h-0.1c-0.3,1.1-0.5,2.8-0.8,3.8l-0.7,3.3H1068.3z"/>
			<path class="st44" d="M1137.6,333.3h-4.2v-4h13.1v4h-4.3v14.2h-4.7V333.3z"/>
		</g>
		<path class="st9" d="M207.5,534.6c0-6.8-5.5-12.3-12.3-12.3c-6.8,0-12.3,5.5-12.3,12.3c0,0.3,0,56.4,0,56.7
			c0,6.8,5.5,12.3,12.3,12.3c6.8,0,12.3-5.5,12.3-12.3C207.5,590.9,207.5,534.9,207.5,534.6z"/>
		<path class="st7" d="M352.7,528.8c0-6.8-5.5-12.3-12.3-12.3c-6.8,0-12.3,5.5-12.3,12.3c0,0.3,0,56.4,0,56.7
			c0,6.8,5.5,12.3,12.3,12.3c6.8,0,12.3-5.5,12.3-12.3C352.7,585.2,352.7,529.2,352.7,528.8z"/>
		<path class="st9" d="M570.5,574.8c0-6.8-5.5-12.3-12.3-12.3c-6.8,0-12.3,5.5-12.3,12.3c0,0.3,0,56.4,0,56.7
			c0,6.8,5.5,12.3,12.3,12.3c6.8,0,12.3-5.5,12.3-12.3C570.5,631.1,570.5,575.2,570.5,574.8z"/>
		<path class="st8" d="M715.7,629.4c0-6.8-5.5-12.3-12.3-12.3s-12.3,5.5-12.3,12.3c0,0.3,0,56.4,0,56.7c0,6.8,5.5,12.3,12.3,12.3
			s12.3-5.5,12.3-12.3C715.7,685.8,715.7,629.8,715.7,629.4z"/>
		<path class="st9" d="M934.2,686.9c0-6.8-5.5-12.3-12.3-12.3s-12.3,5.5-12.3,12.3c0,0.3,0,56.4,0,56.7c0,6.8,5.5,12.3,12.3,12.3
			s12.3-5.5,12.3-12.3C934.2,743.3,934.2,687.3,934.2,686.9z"/>
		<path class="st47" d="M1079.4,695.6c0-6.8-5.5-12.3-12.3-12.3s-12.3,5.5-12.3,12.3c0,0.3,0,56.4,0,56.7c0,6.8,5.5,12.3,12.3,12.3
			s12.3-5.5,12.3-12.3C1079.4,751.9,1079.4,695.9,1079.4,695.6z"/>
		<linearGradient id="SVGID_33_" gradientUnits="userSpaceOnUse" x1="182.9985" y1="562.9152" x2="207.5193" y2="562.9152">
			<stop  offset="0" style="stop-color:#000000;stop-opacity:0.2"/>
			<stop  offset="0.1045" style="stop-color:#1D1D1B;stop-opacity:0.2"/>
			<stop  offset="0.6774" style="stop-color:#000000;stop-opacity:0"/>
		</linearGradient>
		<path class="st48" d="M207.5,534.6c0-6.8-5.5-12.3-12.3-12.3c-6.8,0-12.3,5.5-12.3,12.3c0,0.3,0,56.4,0,56.7
			c0,6.8,5.5,12.3,12.3,12.3c6.8,0,12.3-5.5,12.3-12.3C207.5,590.9,207.5,534.9,207.5,534.6z"/>
		<linearGradient id="SVGID_34_" gradientUnits="userSpaceOnUse" x1="328.1876" y1="557.1661" x2="352.7085" y2="557.1661">
			<stop  offset="0" style="stop-color:#000000;stop-opacity:0.2"/>
			<stop  offset="0.1045" style="stop-color:#1D1D1B;stop-opacity:0.2"/>
			<stop  offset="0.6774" style="stop-color:#000000;stop-opacity:0"/>
		</linearGradient>
		<path class="st49" d="M352.7,528.8c0-6.8-5.5-12.3-12.3-12.3c-6.8,0-12.3,5.5-12.3,12.3c0,0.3,0,56.4,0,56.7
			c0,6.8,5.5,12.3,12.3,12.3c6.8,0,12.3-5.5,12.3-12.3C352.7,585.2,352.7,529.2,352.7,528.8z"/>
		<linearGradient id="SVGID_35_" gradientUnits="userSpaceOnUse" x1="545.9713" y1="603.1587" x2="570.4921" y2="603.1587">
			<stop  offset="0" style="stop-color:#000000;stop-opacity:0.2"/>
			<stop  offset="0.1045" style="stop-color:#1D1D1B;stop-opacity:0.2"/>
			<stop  offset="0.6774" style="stop-color:#000000;stop-opacity:0"/>
		</linearGradient>
		<path class="st50" d="M570.5,574.8c0-6.8-5.5-12.3-12.3-12.3c-6.8,0-12.3,5.5-12.3,12.3c0,0.3,0,56.4,0,56.7
			c0,6.8,5.5,12.3,12.3,12.3c6.8,0,12.3-5.5,12.3-12.3C570.5,631.1,570.5,575.2,570.5,574.8z"/>
		<linearGradient id="SVGID_36_" gradientUnits="userSpaceOnUse" x1="691.1604" y1="657.7749" x2="715.6813" y2="657.7749">
			<stop  offset="0" style="stop-color:#000000;stop-opacity:0.2"/>
			<stop  offset="0.1045" style="stop-color:#1D1D1B;stop-opacity:0.2"/>
			<stop  offset="0.6774" style="stop-color:#000000;stop-opacity:0"/>
		</linearGradient>
		<path class="st51" d="M715.7,629.4c0-6.8-5.5-12.3-12.3-12.3s-12.3,5.5-12.3,12.3c0,0.3,0,56.4,0,56.7c0,6.8,5.5,12.3,12.3,12.3
			s12.3-5.5,12.3-12.3C715.7,685.8,715.7,629.8,715.7,629.4z"/>
		<linearGradient id="SVGID_37_" gradientUnits="userSpaceOnUse" x1="909.6752" y1="715.2656" x2="934.196" y2="715.2656">
			<stop  offset="0" style="stop-color:#000000;stop-opacity:0.2"/>
			<stop  offset="0.1045" style="stop-color:#1D1D1B;stop-opacity:0.2"/>
			<stop  offset="0.6774" style="stop-color:#000000;stop-opacity:0"/>
		</linearGradient>
		<path class="st52" d="M934.2,686.9c0-6.8-5.5-12.3-12.3-12.3s-12.3,5.5-12.3,12.3c0,0.3,0,56.4,0,56.7c0,6.8,5.5,12.3,12.3,12.3
			s12.3-5.5,12.3-12.3C934.2,743.3,934.2,687.3,934.2,686.9z"/>
		<path class="st44" d="M201.6,566.4c-0.6,0.3-2.1,0.6-4,0.6c-6.3,0-9-4.2-9-9.1c0-6.5,4.5-9.6,9.4-9.6c1.9,0,3.3,0.4,3.9,0.7
			l-0.8,3.7c-0.7-0.3-1.6-0.6-2.8-0.6c-2.6,0-4.8,1.7-4.8,5.5c0,3.5,1.8,5.4,4.8,5.4c1,0,2.1-0.2,2.8-0.4L201.6,566.4z"/>
		<path class="st44" d="M346.5,560.3c-1.2,0.4-3.5,0.9-5.6,0.9c-3.2,0-5.4-0.8-6.9-2.2c-1.7-1.6-2.6-4.1-2.5-6.9
			c0.1-6.4,4.5-9.5,9.9-9.5c2.2,0,3.8,0.4,4.6,0.8l-0.9,3.8c-0.9-0.4-1.9-0.7-3.6-0.7c-2.9,0-5.1,1.6-5.1,5.5c0,3.5,2,5.4,4.5,5.4
			c0.5,0,1-0.1,1.2-0.1V554H340v-3.7h6.5V560.3z"/>
		<path class="st44" d="M564.5,606.7c-0.6,0.3-2.1,0.6-4,0.6c-6.3,0-9-4.2-9-9.1c0-6.5,4.5-9.6,9.4-9.6c1.9,0,3.3,0.4,3.9,0.7
			L564,593c-0.7-0.3-1.6-0.6-2.8-0.6c-2.6,0-4.8,1.7-4.8,5.5c0,3.5,1.8,5.4,4.8,5.4c1,0,2.1-0.2,2.8-0.4L564.5,606.7z"/>
		<path class="st44" d="M702.7,657.6l-0.9,4H697l4.9-18.2h6.1l4.8,18.2h-4.9l-1-4H702.7z M706.3,654.2l-0.7-3.3
			c-0.2-1-0.5-2.7-0.8-3.8h-0.1c-0.3,1.1-0.5,2.8-0.8,3.8l-0.7,3.3H706.3z"/>
		<path class="st44" d="M927.2,718.8c-0.6,0.3-2.1,0.6-4,0.6c-6.3,0-9-4.2-9-9.1c0-6.5,4.5-9.6,9.4-9.6c1.9,0,3.3,0.4,3.9,0.7
			l-0.8,3.7c-0.7-0.3-1.6-0.6-2.8-0.6c-2.6,0-4.8,1.7-4.8,5.5c0,3.5,1.8,5.4,4.8,5.4c1,0,2.1-0.2,2.8-0.4L927.2,718.8z"/>
		<path class="st9" d="M135.7,549c0-6.8-5.5-12.3-12.3-12.3s-12.3,5.5-12.3,12.3c0,0.3,0,56.4,0,56.7c0,6.8,5.5,12.3,12.3,12.3
			s12.3-5.5,12.3-12.3C135.7,605.3,135.7,549.3,135.7,549z"/>
		<linearGradient id="SVGID_38_" gradientUnits="userSpaceOnUse" x1="111.1351" y1="577.2878" x2="135.6559" y2="577.2878">
			<stop  offset="0" style="stop-color:#000000;stop-opacity:0.2"/>
			<stop  offset="0.1045" style="stop-color:#1D1D1B;stop-opacity:0.2"/>
			<stop  offset="0.6774" style="stop-color:#000000;stop-opacity:0"/>
		</linearGradient>
		<path class="st53" d="M135.7,549c0-6.8-5.5-12.3-12.3-12.3s-12.3,5.5-12.3,12.3c0,0.3,0,56.4,0,56.7c0,6.8,5.5,12.3,12.3,12.3
			s12.3-5.5,12.3-12.3C135.7,605.3,135.7,549.3,135.7,549z"/>
		<path class="st44" d="M129.7,580.8c-0.6,0.3-2.1,0.6-4,0.6c-6.3,0-9-4.2-9-9.1c0-6.5,4.5-9.6,9.4-9.6c1.9,0,3.3,0.4,3.9,0.7
			l-0.8,3.7c-0.7-0.3-1.6-0.6-2.8-0.6c-2.6,0-4.8,1.7-4.8,5.5c0,3.5,1.8,5.4,4.8,5.4c1,0,2.1-0.2,2.8-0.4L129.7,580.8z"/>
		<path class="st7" d="M424.6,534.6c0-6.8-5.5-12.3-12.3-12.3c-6.8,0-12.3,5.5-12.3,12.3c0,0.3,0,56.4,0,56.7
			c0,6.8,5.5,12.3,12.3,12.3c6.8,0,12.3-5.5,12.3-12.3C424.6,590.9,424.6,534.9,424.6,534.6z"/>
		<linearGradient id="SVGID_39_" gradientUnits="userSpaceOnUse" x1="400.0511" y1="562.9152" x2="424.5719" y2="562.9152">
			<stop  offset="0" style="stop-color:#000000;stop-opacity:0.2"/>
			<stop  offset="0.1045" style="stop-color:#1D1D1B;stop-opacity:0.2"/>
			<stop  offset="0.6774" style="stop-color:#000000;stop-opacity:0"/>
		</linearGradient>
		<path class="st54" d="M424.6,534.6c0-6.8-5.5-12.3-12.3-12.3c-6.8,0-12.3,5.5-12.3,12.3c0,0.3,0,56.4,0,56.7
			c0,6.8,5.5,12.3,12.3,12.3c6.8,0,12.3-5.5,12.3-12.3C424.6,590.9,424.6,534.9,424.6,534.6z"/>
		<path class="st44" d="M418.4,566.1c-1.2,0.4-3.5,0.9-5.6,0.9c-3.2,0-5.4-0.8-6.9-2.2c-1.7-1.6-2.6-4.1-2.5-6.9
			c0.1-6.4,4.5-9.5,9.9-9.5c2.2,0,3.8,0.4,4.6,0.8L417,553c-0.9-0.4-1.9-0.7-3.6-0.7c-2.9,0-5.1,1.6-5.1,5.5c0,3.5,2,5.4,4.5,5.4
			c0.5,0,1-0.1,1.2-0.1v-3.3h-2.1v-3.7h6.5V566.1z"/>
		<path class="st47" d="M860.9,672.6c0-6.8-5.5-12.3-12.3-12.3s-12.3,5.5-12.3,12.3c0,0.3,0,56.4,0,56.7c0,6.8,5.5,12.3,12.3,12.3
			s12.3-5.5,12.3-12.3C860.9,728.9,860.9,672.9,860.9,672.6z"/>
		<path class="st47" d="M498.7,551.8c0-6.8-5.5-12.3-12.3-12.3c-6.8,0-12.3,5.5-12.3,12.3c0,0.3,0,56.4,0,56.7
			c0,6.8,5.5,12.3,12.3,12.3c6.8,0,12.3-5.5,12.3-12.3C498.7,608.1,498.7,552.2,498.7,551.8z"/>
		<path class="st47" d="M280.3,528.8c0-6.8-5.5-12.3-12.3-12.3s-12.3,5.5-12.3,12.3c0,0.3,0,56.4,0,56.7c0,6.8,5.5,12.3,12.3,12.3
			s12.3-5.5,12.3-12.3C280.3,585.2,280.3,529.2,280.3,528.8z"/>
		<linearGradient id="SVGID_40_" gradientUnits="userSpaceOnUse" x1="1054.8644" y1="723.8892" x2="1079.3851" y2="723.8892">
			<stop  offset="0" style="stop-color:#000000;stop-opacity:0.2"/>
			<stop  offset="0.1045" style="stop-color:#1D1D1B;stop-opacity:0.2"/>
			<stop  offset="0.6774" style="stop-color:#000000;stop-opacity:0"/>
		</linearGradient>
		<path class="st55" d="M1079.4,695.6c0-6.8-5.5-12.3-12.3-12.3s-12.3,5.5-12.3,12.3c0,0.3,0,56.4,0,56.7c0,6.8,5.5,12.3,12.3,12.3
			s12.3-5.5,12.3-12.3C1079.4,751.9,1079.4,695.9,1079.4,695.6z"/>
		<linearGradient id="SVGID_41_" gradientUnits="userSpaceOnUse" x1="836.3995" y1="700.8929" x2="860.9203" y2="700.8929">
			<stop  offset="0" style="stop-color:#000000;stop-opacity:0.2"/>
			<stop  offset="0.1045" style="stop-color:#1D1D1B;stop-opacity:0.2"/>
			<stop  offset="0.6774" style="stop-color:#000000;stop-opacity:0"/>
		</linearGradient>
		<path class="st56" d="M860.9,672.6c0-6.8-5.5-12.3-12.3-12.3s-12.3,5.5-12.3,12.3c0,0.3,0,56.4,0,56.7c0,6.8,5.5,12.3,12.3,12.3
			s12.3-5.5,12.3-12.3C860.9,728.9,860.9,672.9,860.9,672.6z"/>
		<linearGradient id="SVGID_42_" gradientUnits="userSpaceOnUse" x1="474.2078" y1="580.1624" x2="498.7286" y2="580.1624">
			<stop  offset="0" style="stop-color:#000000;stop-opacity:0.2"/>
			<stop  offset="0.1045" style="stop-color:#1D1D1B;stop-opacity:0.2"/>
			<stop  offset="0.6774" style="stop-color:#000000;stop-opacity:0"/>
		</linearGradient>
		<path class="st57" d="M498.7,551.8c0-6.8-5.5-12.3-12.3-12.3c-6.8,0-12.3,5.5-12.3,12.3c0,0.3,0,56.4,0,56.7
			c0,6.8,5.5,12.3,12.3,12.3c6.8,0,12.3-5.5,12.3-12.3C498.7,608.1,498.7,552.2,498.7,551.8z"/>
		<linearGradient id="SVGID_43_" gradientUnits="userSpaceOnUse" x1="255.743" y1="557.1661" x2="280.2638" y2="557.1661">
			<stop  offset="0" style="stop-color:#000000;stop-opacity:0.2"/>
			<stop  offset="0.1045" style="stop-color:#1D1D1B;stop-opacity:0.2"/>
			<stop  offset="0.6774" style="stop-color:#000000;stop-opacity:0"/>
		</linearGradient>
		<path class="st58" d="M280.3,528.8c0-6.8-5.5-12.3-12.3-12.3s-12.3,5.5-12.3,12.3c0,0.3,0,56.4,0,56.7c0,6.8,5.5,12.3,12.3,12.3
			s12.3-5.5,12.3-12.3C280.3,585.2,280.3,529.2,280.3,528.8z"/>
		<path class="st8" d="M643.8,600.7c0-6.8-5.5-12.3-12.3-12.3c-6.8,0-12.3,5.5-12.3,12.3c0,0.3,0,56.4,0,56.7
			c0,6.8,5.5,12.3,12.3,12.3c6.8,0,12.3-5.5,12.3-12.3C643.8,657,643.8,601,643.8,600.7z"/>
		<linearGradient id="SVGID_44_" gradientUnits="userSpaceOnUse" x1="619.297" y1="629.0295" x2="643.8178" y2="629.0295">
			<stop  offset="0" style="stop-color:#000000;stop-opacity:0.2"/>
			<stop  offset="0.1045" style="stop-color:#1D1D1B;stop-opacity:0.2"/>
			<stop  offset="0.6774" style="stop-color:#000000;stop-opacity:0"/>
		</linearGradient>
		<path class="st59" d="M643.8,600.7c0-6.8-5.5-12.3-12.3-12.3c-6.8,0-12.3,5.5-12.3,12.3c0,0.3,0,56.4,0,56.7
			c0,6.8,5.5,12.3,12.3,12.3c6.8,0,12.3-5.5,12.3-12.3C643.8,657,643.8,601,643.8,600.7z"/>
		<path class="st44" d="M630.8,628.9l-0.9,4h-4.8l4.9-18.2h6.1l4.8,18.2H636l-1-4H630.8z M634.4,625.4l-0.7-3.3
			c-0.2-1-0.5-2.7-0.8-3.8h-0.1c-0.3,1.1-0.5,2.8-0.8,3.8l-0.7,3.3H634.4z"/>
		<path class="st8" d="M1149.7,686.9c0-6.8-5.5-12.3-12.3-12.3s-12.3,5.5-12.3,12.3c0,0.3,0,56.4,0,56.7c0,6.8,5.5,12.3,12.3,12.3
			s12.3-5.5,12.3-12.3C1149.7,743.3,1149.7,687.3,1149.7,686.9z"/>
		<linearGradient id="SVGID_45_" gradientUnits="userSpaceOnUse" x1="1125.2156" y1="715.2656" x2="1149.7363" y2="715.2656">
			<stop  offset="0" style="stop-color:#000000;stop-opacity:0.2"/>
			<stop  offset="0.1045" style="stop-color:#1D1D1B;stop-opacity:0.2"/>
			<stop  offset="0.6774" style="stop-color:#000000;stop-opacity:0"/>
		</linearGradient>
		<path class="st60" d="M1149.7,686.9c0-6.8-5.5-12.3-12.3-12.3s-12.3,5.5-12.3,12.3c0,0.3,0,56.4,0,56.7c0,6.8,5.5,12.3,12.3,12.3
			s12.3-5.5,12.3-12.3C1149.7,743.3,1149.7,687.3,1149.7,686.9z"/>
		<path class="st44" d="M1136.7,715.1l-0.9,4h-4.8l4.9-18.2h6.1l4.8,18.2h-4.9l-1-4H1136.7z M1140.3,711.7l-0.7-3.3
			c-0.2-1-0.5-2.7-0.8-3.8h-0.1c-0.3,1.1-0.5,2.8-0.8,3.8l-0.7,3.3H1140.3z"/>
		<path class="st7" d="M789.6,652.4c0-6.8-5.5-12.3-12.3-12.3c-6.8,0-12.3,5.5-12.3,12.3c0,0.3,0,56.4,0,56.7
			c0,6.8,5.5,12.3,12.3,12.3c6.8,0,12.3-5.5,12.3-12.3C789.6,708.8,789.6,652.8,789.6,652.4z"/>
		<linearGradient id="SVGID_46_" gradientUnits="userSpaceOnUse" x1="765.1173" y1="680.7712" x2="789.6381" y2="680.7712">
			<stop  offset="0" style="stop-color:#000000;stop-opacity:0.2"/>
			<stop  offset="0.1045" style="stop-color:#1D1D1B;stop-opacity:0.2"/>
			<stop  offset="0.6774" style="stop-color:#000000;stop-opacity:0"/>
		</linearGradient>
		<path class="st61" d="M789.6,652.4c0-6.8-5.5-12.3-12.3-12.3c-6.8,0-12.3,5.5-12.3,12.3c0,0.3,0,56.4,0,56.7
			c0,6.8,5.5,12.3,12.3,12.3c6.8,0,12.3-5.5,12.3-12.3C789.6,708.8,789.6,652.8,789.6,652.4z"/>
		<path class="st44" d="M783.4,683.9c-1.2,0.4-3.5,0.9-5.6,0.9c-3.2,0-5.4-0.8-6.9-2.2c-1.7-1.6-2.6-4.1-2.5-6.9
			c0.1-6.4,4.5-9.5,9.9-9.5c2.2,0,3.8,0.4,4.6,0.8l-0.9,3.8c-0.9-0.4-1.9-0.7-3.6-0.7c-2.9,0-5.1,1.6-5.1,5.5c0,3.5,2,5.4,4.5,5.4
			c0.5,0,1-0.1,1.2-0.1v-3.3h-2.1v-3.7h6.5V683.9z"/>
		<path class="st7" d="M1007,695.6c0-6.8-5.5-12.3-12.3-12.3s-12.3,5.5-12.3,12.3c0,0.3,0,56.4,0,56.7c0,6.8,5.5,12.3,12.3,12.3
			s12.3-5.5,12.3-12.3C1007,751.9,1007,695.9,1007,695.6z"/>
		<linearGradient id="SVGID_47_" gradientUnits="userSpaceOnUse" x1="982.4323" y1="723.8892" x2="1006.9531" y2="723.8892">
			<stop  offset="0" style="stop-color:#000000;stop-opacity:0.2"/>
			<stop  offset="0.1045" style="stop-color:#1D1D1B;stop-opacity:0.2"/>
			<stop  offset="0.6774" style="stop-color:#000000;stop-opacity:0"/>
		</linearGradient>
		<path class="st62" d="M1007,695.6c0-6.8-5.5-12.3-12.3-12.3s-12.3,5.5-12.3,12.3c0,0.3,0,56.4,0,56.7c0,6.8,5.5,12.3,12.3,12.3
			s12.3-5.5,12.3-12.3C1007,751.9,1007,695.9,1007,695.6z"/>
		<path class="st44" d="M1000.7,727.1c-1.2,0.4-3.5,0.9-5.6,0.9c-3.2,0-5.4-0.8-6.9-2.2c-1.7-1.6-2.6-4.1-2.5-6.9
			c0.1-6.4,4.5-9.5,9.9-9.5c2.2,0,3.8,0.4,4.6,0.8l-0.9,3.8c-0.9-0.4-1.9-0.7-3.6-0.7c-2.9,0-5.1,1.6-5.1,5.5c0,3.5,2,5.4,4.5,5.4
			c0.5,0,1-0.1,1.2-0.1v-3.3h-2.1v-3.7h6.5V727.1z"/>
		<g>
			<path class="st44" d="M265.6,542.9v10.7c0,2.6,0.9,3.9,2.5,3.9c1.6,0,2.4-1.1,2.4-3.9v-10.7h4.7v10.3c0,5.3-2.5,8.2-7.2,8.2
				c-4.8,0-7-2.8-7-8.3v-10.2H265.6z"/>
		</g>
		<g>
			<path class="st44" d="M484.1,565.9v10.7c0,2.6,0.9,3.9,2.5,3.9s2.4-1.1,2.4-3.9v-10.7h4.7v10.3c0,5.3-2.5,8.2-7.2,8.2
				c-4.8,0-7-2.8-7-8.3v-10.2H484.1z"/>
		</g>
		<g>
			<path class="st44" d="M1064.4,709.5v10.7c0,2.6,0.9,3.9,2.5,3.9c1.6,0,2.4-1.1,2.4-3.9v-10.7h4.7v10.3c0,5.3-2.5,8.2-7.2,8.2
				c-4.8,0-7-2.8-7-8.3v-10.2H1064.4z"/>
		</g>
		<g>
			<path class="st44" d="M845.9,686.5v10.7c0,2.6,0.9,3.9,2.5,3.9s2.4-1.1,2.4-3.9v-10.7h4.7v10.3c0,5.3-2.5,8.2-7.2,8.2
				c-4.8,0-7-2.8-7-8.3v-10.2H845.9z"/>
		</g>
	</g>
</g>
</svg>
