<?xml version="1.0" encoding="utf-8"?>
<!-- Generator: Adobe Illustrator 24.1.0, SVG Export Plug-In . SVG Version: 6.00 Build 0)  -->
<svg version="1.1" id="Capa_1" xmlns="http://www.w3.org/2000/svg" xmlns:xlink="http://www.w3.org/1999/xlink" x="0px" y="0px"
	 viewBox="0 0 1379.6 493.1" style="enable-background:new 0 0 1379.6 493.1;" xml:space="preserve">
<style type="text/css">
	.st0{fill:#373A47;}
	.st1{font-family:'FiraSans-Regular';}
	.st2{font-size:24px;}
	.st3{font-family:'FiraSans-Bold';}
	.st4{fill:none;stroke:#AFAAAA;stroke-miterlimit:10;}
	.st5{fill:#8FB5BC;}
	.st6{fill:#FF2A2A;}
	.st7{fill:#DCDEE0;}
	.st8{fill:#ABAFB2;}
	.st9{fill:#4D4D4D;}
	.st10{fill:#939393;}
	.st11{fill:#D31616;}
	.st12{fill:#333333;}
	.st13{opacity:0.4;}
	.st14{fill:#FFFFFF;}
	.st15{fill:none;stroke:#C0D9DF;stroke-miterlimit:10;}
	.st16{fill:#FFFFFF;stroke:#FF6600;stroke-width:0.75;stroke-miterlimit:10;}
	.st17{fill:#CC6633;}
</style>
<g>
	<text transform="matrix(1 0 0 1 56.381 341.8872)" class="st0 st1 st2">Gen</text>
	<text transform="matrix(1 0 0 1 56.381 381.8872)" class="st0 st1 st2">Canvi a la proteïna</text>
	<text transform="matrix(1 0 0 1 56.381 421.8872)" class="st0 st1 st2">Mutació</text>
	<text transform="matrix(1 0 0 1 56.381 461.8872)" class="st0 st1 st2">Tractament</text>
	<text transform="matrix(1 0 0 1 296.381 341.8872)" class="st0 st3 st2">BRAF</text>
	<text transform="matrix(1 0 0 1 296.381 381.8872)" class="st0 st3 st2">V600E</text>
	<text transform="matrix(1 0 0 1 296.381 421.8872)" class="st0 st3 st2">Impulsora</text>
	<text transform="matrix(1 0 0 1 296.381 461.8872)" class="st0 st3 st2">Vemurafenib</text>
	<rect x="34" y="82.4" class="st4" width="424.9" height="393.3"/>
	<line class="st4" x1="34" y1="311.5" x2="459.1" y2="311.5"/>
	<line class="st4" x1="34" y1="352.7" x2="459.1" y2="352.7"/>
	<line class="st4" x1="34" y1="393.7" x2="459.1" y2="393.7"/>
	<line class="st4" x1="34" y1="434.7" x2="459.1" y2="434.7"/>
	<g>
		<path class="st5" d="M266,199.5c7.7-5.2,15.3-11.8,21.5-21.6c10.4-16.5,15.2-39.2,15.2-71.5h-16.3c0,28.7-4.2,49.2-12.7,62.8
			c-6.3,10-14.5,15.6-23.4,20.9c-8.9-5.3-17-10.9-23.4-20.9c-8.6-13.6-12.7-34.1-12.7-62.8H198c0,32.2,4.8,55,15.2,71.5
			c6.2,9.8,13.9,16.4,21.5,21.6c-7.9,5.2-15.5,11.7-21.8,21.6c-10.2,16-14.9,38.1-14.9,69.3h16.3c0-27.6,4-47.5,12.4-60.6
			c6.3-9.9,14.6-15.5,23.6-20.9c9,5.3,17.3,10.9,23.6,20.9c8.4,13.1,12.4,33,12.4,60.6h16.3c0-31.3-4.8-53.3-14.9-69.3
			C281.5,211.2,273.9,204.8,266,199.5z"/>
		<polygon class="st6" points="190.9,126.2 183.8,121.8 183.8,128.9 176.8,128.9 181,136 176.8,143 183.8,143 183.8,150.1 
			190.9,145.8 197.9,150.1 197.9,143 205,143 200.7,136 205,128.9 197.9,128.9 197.9,121.8 		"/>
	</g>
</g>
<g>
	<g>
		<polygon class="st0" points="543.9,268 565,268 565,260.4 583.6,279 565,297.6 565,290 543.9,290 		"/>
	</g>
</g>
<g>
	<g>
		<polygon class="st0" points="262.8,0.8 262.8,21.9 270.4,21.9 251.8,40.5 233.2,21.9 240.8,21.9 240.8,0.8 		"/>
	</g>
</g>
<g>
	<g>
		<path class="st7" d="M841.4,289.4l54.5,54.5l-0.9,0.9l-54.6-54.6C840.8,290.1,841,289.8,841.4,289.4L841.4,289.4z"/>
		<path class="st8" d="M841.4,289.6c-0.3,0.3-0.7,0.5-0.9,0.8c-2.3,1.8-4.4,0.9-4.4,0.9L808.8,264l3.7-3.7l24.8,24.8L841.4,289.6
			C841.4,289.4,841.4,289.4,841.4,289.6z"/>
		<polygon class="st7" points="808.7,263.9 790.7,281.9 681.4,172.6 699.3,154.8 714.6,170.2 700.2,184.5 707.1,191.5 707.1,191.4 
			790.6,274.8 805,260.2 808.7,256.7 812.2,260.4 		"/>
		<polygon class="st6" points="805,260.2 790.6,274.8 707.1,191.4 725.3,173.3 802.3,250.3 808.7,256.7 		"/>
		<polygon class="st9" points="691.5,147.1 623.4,78.9 604.5,97.9 597.6,90.9 620.2,68.3 623.3,71.3 627.2,75.2 695.3,143.3 		"/>
		<polygon class="st9" points="707.1,191.4 707.1,191.5 700.2,184.5 714.6,170.2 699.3,154.8 703.1,151.1 718.3,166.4 722.9,171.1 
			723.8,171.8 725.3,173.3 		"/>
		<polygon class="st8" points="699.3,154.8 681.4,172.6 671.7,182.4 663.8,174.6 691.5,147.1 695.3,143.3 701.9,149.9 703.1,151.1 
					"/>
		<path class="st8" d="M842.5,288.3l54.6,54.6l-1,1l-54.5-54.5C841.8,289.1,842.2,288.7,842.5,288.3z"/>
		<path class="st10" d="M842.5,288.3c-0.3,0.4-0.5,0.8-0.9,1.2l-4.4-4.4l-24.8-24.8l3.8-3.8l27.2,27.2
			C843.4,283.8,844.2,285.8,842.5,288.3z"/>
		<polygon class="st8" points="816,256.6 812.2,260.4 808.7,256.7 812.5,252.9 826.9,238.5 743.6,155 743.6,155 736.7,148.1 
			722.1,162.7 706.7,147.3 724.9,129.3 834,238.6 		"/>
		<polygon class="st11" points="812.5,252.9 808.7,256.7 802.3,250.3 725.3,173.3 743.6,155 826.9,238.5 		"/>
		<polygon class="st12" points="630.9,71.5 698.9,139.5 695.3,143.3 627.2,75.2 623.3,71.3 620.2,68.3 643,45.5 649.9,52.6 		"/>
		<polygon class="st12" points="743.6,155 725.3,173.3 723.8,171.8 722.9,171.1 718.3,166.4 703.1,151.1 706.7,147.3 722.1,162.7 
			736.7,148.1 		"/>
		<polygon class="st10" points="724.9,129.3 706.7,147.3 703.1,151.1 701.9,149.9 695.3,143.3 698.9,139.5 726.8,111.7 734.5,119.6 
					"/>
		<g class="st13">
			
				<rect x="799.6" y="242" transform="matrix(0.7071 -0.7071 0.7071 0.7071 65.5247 644.3802)" class="st14" width="22" height="2.2"/>
			
				<rect x="790.9" y="233.2" transform="matrix(0.7071 -0.7071 0.7071 0.7071 69.1931 635.6303)" class="st14" width="22" height="2.2"/>
			
				<rect x="782.2" y="224.6" transform="matrix(0.7071 -0.7071 0.7071 0.7071 72.7175 626.9469)" class="st14" width="22" height="2.2"/>
			
				<rect x="773.6" y="215.9" transform="matrix(0.7071 -0.7071 0.7071 0.7071 76.3681 618.3529)" class="st14" width="22" height="2.2"/>
			
				<rect x="764.9" y="207.3" transform="matrix(0.7071 -0.7071 0.7071 0.7071 79.8927 609.6694)" class="st14" width="22" height="2.2"/>
			
				<rect x="756.2" y="198.5" transform="matrix(0.7071 -0.7071 0.7071 0.7071 83.561 600.9196)" class="st14" width="22" height="2.2"/>
			
				<rect x="747.5" y="190" transform="matrix(0.7071 -0.7071 0.7071 0.7071 86.9972 592.3054)" class="st14" width="22" height="2.2"/>
			
				<rect x="738.9" y="181.2" transform="matrix(0.7071 -0.7071 0.7071 0.7071 90.7366 583.6447)" class="st14" width="22" height="2.2"/>
			
				<rect x="730.2" y="172.6" transform="matrix(0.7071 -0.7071 0.7071 0.7071 94.2602 574.9574)" class="st14" width="22" height="2.2"/>
		</g>
	</g>
	<g>
		<g>
			<path class="st15" d="M1155.5,342.2c3.4,1.2,6.5,2.9,9.6,4.6c2.2,1.2,4.6,2.5,6.9,3.5c0.5,0.3,1,0.4,1.6,0.5l0,0
				c3.1,0.9,6.4,0.8,9.9,0.8c1.3,0,2.6-0.1,3.9,0c2.7,0,5.5,0.1,8.1,0.3c8.2,0.4,15.9,0.7,24.1-1.2c0.4-0.1,0.9-0.3,1.3-0.4
				c10.7-2.7,20.9-8,30.1-15.4c7-5.7,11.2-13.2,15.6-21.1c1-1.8,2.1-3.8,3.1-5.6c1.2-2.1,2.5-4,3.7-6.1c5-8.1,9.6-15.8,11.2-25.7
				c1.7-11.6,1.3-24.5-1.2-37.3c-3.1-15.4-10.3-30.5-20.5-42.6c-7.2-8.6-15.8-16.4-26.3-23.9c-4.2-2.9-8-5-11.7-6.3
				c-10.8-3.7-25-3.8-34.8-3.5c-14.2,0.4-24.4,5.9-35.3,12.6c-2.3,1.4-5,2.5-7.6,3.5c-3.1,1.2-6.1,2.3-8.6,4.3
				c-2.3,1.7-3.9,4.2-5.6,6.6c-1.3,1.8-2.6,3.8-4.2,5.5c-1.3,1.3-2.5,2.6-3.8,3.8c-2.5,2.3-5,4.8-7,7.6c-8,9.9-12.1,20.3-12.5,31
				c-0.1,3.1,0.1,6.4,0.3,9.5c0.3,4.7,0.5,9.6-0.1,14.5c-0.1,1.3-0.4,2.5-0.5,3.7c-1,6.3-1.8,11.7-0.8,18.5
				c2.3,16,9.9,31.3,20.7,41.6C1132,332.1,1142.1,337.6,1155.5,342.2z"/>
			<g>
				<circle class="st16" cx="1271.7" cy="234.2" r="5.3"/>
				<circle class="st16" cx="1281.1" cy="231.2" r="5.3"/>
				<circle class="st16" cx="1290.3" cy="228.2" r="5.3"/>
				<circle class="st16" cx="1299.7" cy="232.1" r="5.3"/>
				<circle class="st16" cx="1295.7" cy="219.6" r="5.3"/>
				<circle class="st16" cx="1309.6" cy="234.6" r="5.3"/>
				<circle class="st16" cx="1302.3" cy="211.7" r="5.3"/>
			</g>
			<g>
				<path class="st17" d="M1223.4,203c-16.6-19.9-55.7-9.5-62.7,14.2c-8,27,24.1,49.7,48,39.1c14.7-6.5,23.9-25.7,20.3-41.6
					C1228.1,210.4,1226.3,206.4,1223.4,203z"/>
			</g>
			<g>
				<circle class="st16" cx="1268.7" cy="304" r="5.3"/>
				<circle class="st16" cx="1278.4" cy="304.8" r="5.3"/>
				<circle class="st16" cx="1288.4" cy="305.7" r="5.3"/>
				<circle class="st16" cx="1295.4" cy="312.9" r="5.3"/>
				<circle class="st16" cx="1296.4" cy="299.9" r="5.3"/>
				<circle class="st16" cx="1303.6" cy="319.2" r="5.3"/>
				<circle class="st16" cx="1305.7" cy="295.2" r="5.3"/>
			</g>
			<g>
				<circle class="st16" cx="1228.4" cy="349.9" r="5.3"/>
				<path class="st16" d="M1234.4,352.3c3,0,5.3,2.4,5.3,5.3c0,3-2.4,5.3-5.3,5.3s-5.3-2.4-5.3-5.3
					C1229,354.7,1231.4,352.3,1234.4,352.3z"/>
				<circle class="st16" cx="1240.4" cy="365.5" r="5.3"/>
				<circle class="st16" cx="1240" cy="375.5" r="5.3"/>
				<circle class="st16" cx="1250.3" cy="367.5" r="5.3"/>
				<circle class="st16" cx="1240.9" cy="385.8" r="5.3"/>
				<circle class="st16" cx="1259.9" cy="371.1" r="5.3"/>
			</g>
			<g>
				<circle class="st16" cx="1155.9" cy="345.4" r="5.3"/>
				<circle class="st16" cx="1153.8" cy="354.9" r="5.3"/>
				<circle class="st16" cx="1151.6" cy="364.5" r="5.3"/>
				<circle class="st16" cx="1143.6" cy="370.7" r="5.3"/>
				<circle class="st16" cx="1156.4" cy="373.4" r="5.3"/>
				<circle class="st16" cx="1136.5" cy="378" r="5.3"/>
				<circle class="st16" cx="1159.9" cy="383.2" r="5.3"/>
			</g>
			<g>
				<circle class="st16" cx="1108.3" cy="305.9" r="5.3"/>
				<circle class="st16" cx="1099" cy="309.4" r="5.3"/>
				<circle class="st16" cx="1089.9" cy="312.9" r="5.3"/>
				<circle class="st16" cx="1080.4" cy="309.5" r="5.3"/>
				<circle class="st16" cx="1085.1" cy="321.8" r="5.3"/>
				<circle class="st16" cx="1070.2" cy="307.6" r="5.3"/>
				<circle class="st16" cx="1079" cy="330" r="5.3"/>
			</g>
			<g>
				<circle class="st16" cx="1104.4" cy="235.2" r="5.3"/>
				<circle class="st16" cx="1094.5" cy="234.9" r="5.3"/>
				<circle class="st16" cx="1084.7" cy="234.7" r="5.3"/>
				<circle class="st16" cx="1077.3" cy="227.9" r="5.3"/>
				<circle class="st16" cx="1076.9" cy="241.1" r="5.3"/>
				<circle class="st16" cx="1068.7" cy="222.3" r="5.3"/>
				<circle class="st16" cx="1068" cy="246.3" r="5.3"/>
			</g>
			<g>
				<circle class="st16" cx="1138.6" cy="182.9" r="5.3"/>
				<circle class="st16" cx="1132.2" cy="175.5" r="5.3"/>
				<circle class="st16" cx="1125.6" cy="168.2" r="5.3"/>
				<circle class="st16" cx="1125.5" cy="158" r="5.3"/>
				<circle class="st16" cx="1115.7" cy="166.8" r="5.3"/>
				<circle class="st16" cx="1123.9" cy="147.9" r="5.3"/>
				<circle class="st16" cx="1105.8" cy="163.8" r="5.3"/>
			</g>
			<g>
				<circle class="st16" cx="1225" cy="165.5" r="5.3"/>
				<circle class="st16" cx="1229.3" cy="156.7" r="5.3"/>
				<path class="st16" d="M1233.6,142.5c3,0,5.3,2.4,5.3,5.3s-2.4,5.3-5.3,5.3s-5.3-2.4-5.3-5.3S1230.6,142.5,1233.6,142.5z"/>
				<circle class="st16" cx="1242.9" cy="143.8" r="5.3"/>
				<circle class="st16" cx="1231" cy="138.1" r="5.3"/>
				<circle class="st16" cx="1251.6" cy="138.3" r="5.3"/>
				<circle class="st16" cx="1229.9" cy="127.8" r="5.3"/>
			</g>
		</g>
		<g>
			<path class="st6" d="M1323.6,244.2l18.4-17.7c1.2-1.2,1.6-3,0.8-4.4l23.5-8c2.2-0.8,3.4-3.1,2.6-5.3s-3.1-3.4-5.3-2.6l-14.5,5
				l-0.9-2.6l14.5-5c2.2-0.8,3.4-3.1,2.6-5.3s-3.1-3.4-5.3-2.6l-23.5,8c-0.4-1.6-1.7-2.9-3.4-3l-25.4-2.7c-2.2-0.3-4,1.3-4.3,3.5
				v0.5c-0.3,2.2,1.3,4,3.5,4.3l22.7,2.5c0,0.5,0,1.2,0.3,1.7c0.8,2.2,3.1,3.4,5.3,2.6l5.2-1.8l0.9,2.6l-5.2,1.8
				c-2.2,0.8-3.4,3.1-2.6,5.3c0.3,0.5,0.5,1,0.9,1.6l-16.4,15.8c-1.6,1.6-1.6,4-0.1,5.6l0.4,0.4
				C1319.5,245.6,1322,245.6,1323.6,244.2z M1343,210.3l2.6-0.9l0.9,2.6l-2.6,0.9L1343,210.3z"/>
			<path class="st6" d="M1314,334.8l23.7-9.3c1.6-0.7,2.5-2.2,2.5-3.8l24.8,1.6c2.3,0.1,4.3-1.6,4.4-3.9s-1.6-4.3-3.9-4.4l-15.3-0.9
				l0.1-2.7l15.3,0.9c2.3,0.1,4.3-1.6,4.4-3.9s-1.6-4.3-3.9-4.4l-24.8-1.6c0.3-1.6-0.5-3.3-2-4l-22.4-12.3c-2-1-4.3-0.4-5.3,1.6
				l-0.3,0.4c-1,2-0.4,4.3,1.6,5.3l19.9,11c-0.3,0.5-0.4,1-0.5,1.7c-0.1,2.3,1.6,4.3,3.9,4.4l5.6,0.4l-0.1,2.7l-5.6-0.4
				c-2.3-0.1-4.3,1.6-4.4,3.9c0,0.7,0,1.2,0.3,1.7l-21.3,8.3c-2.1,0.8-3,3.1-2.2,5.1l0.1,0.4C1309.7,334.7,1312,335.6,1314,334.8z
				 M1344.9,310.8l2.7,0.1l-0.1,2.7l-2.7-0.1L1344.9,310.8z"/>
			<path class="st6" d="M1233.3,400.3l21.6,13.6c1.4,0.9,3.3,0.8,4.6-0.3l13.6,20.7c1.3,2,3.8,2.5,5.7,1.2s2.5-3.8,1.2-5.7
				l-8.3-12.8l2.3-1.6l8.3,12.8c1.3,2,3.8,2.5,5.7,1.2c2-1.3,2.5-3.8,1.2-5.7l-13.6-20.7c1.4-0.8,2.3-2.3,2.1-4l-3.5-25.3
				c-0.3-2.2-2.3-3.7-4.4-3.4l-0.5,0.1c-2.2,0.3-3.7,2.3-3.4,4.4l3.1,22.6c-0.5,0.1-1.2,0.3-1.7,0.7c-2,1.3-2.5,3.8-1.2,5.7l3,4.7
				l-2.3,1.6l-3-4.7c-1.3-2-3.8-2.5-5.7-1.2c-0.5,0.4-0.9,0.8-1.2,1.3l-19.3-12.1c-1.8-1.2-4.3-0.7-5.5,1.3l-0.3,0.4
				C1230.9,396.6,1231.4,399.1,1233.3,400.3z M1270.9,410.7l1.6,2.3l-2.3,1.6l-1.6-2.3L1270.9,410.7z"/>
			<path class="st6" d="M1121.5,385l7.2,24.5c0.5,1.7,2,2.7,3.5,2.7l-3.7,24.5c-0.4,2.2,1.2,4.4,3.5,4.7c2.3,0.3,4.4-1.2,4.7-3.5
				l2.2-15.1l2.7,0.4l-2.2,15.1c-0.4,2.2,1.2,4.4,3.5,4.7c2.3,0.3,4.4-1.2,4.7-3.5l3.7-24.5c1.6,0.4,3.3-0.1,4.3-1.6l14.1-21.3
				c1.2-1.8,0.7-4.3-1-5.5l-0.4-0.3c-1.8-1.2-4.3-0.7-5.5,1l-12.6,19c-0.5-0.3-1-0.5-1.7-0.7c-2.2-0.4-4.4,1.2-4.7,3.5l-0.8,5.5
				l-2.7-0.4l0.8-5.5c0.4-2.2-1.2-4.4-3.5-4.7c-0.7-0.1-1.2,0-1.7,0.1l-6.4-21.9c-0.7-2.1-2.7-3.3-4.8-2.6l-0.5,0.1
				C1122.1,380.7,1120.9,382.9,1121.5,385z M1142.7,417.9l-0.4,2.7l-2.7-0.4l0.4-2.7L1142.7,417.9z"/>
			<path class="st6" d="M1059.5,297.7l-19.6,16.4c-1.3,1.2-1.7,2.9-1.2,4.4L1015,325c-2.2,0.7-3.5,2.9-2.9,5.1
				c0.7,2.2,2.9,3.5,5.1,2.9l14.7-4l0.8,2.7l-14.7,4c-2.2,0.7-3.5,2.9-2.9,5.1c0.7,2.2,2.9,3.5,5.1,2.9l23.9-6.5
				c0.3,1.6,1.6,3,3.3,3.3l25.2,4.3c2.1,0.4,4.2-1,4.6-3.3l0.1-0.5c0.4-2.1-1-4.2-3.3-4.6l-22.4-3.9c0.1-0.5,0.1-1.2-0.1-1.7
				c-0.7-2.2-2.9-3.5-5.1-2.9l-5.3,1.4l-0.8-2.7l5.3-1.4c2.2-0.7,3.5-2.9,2.9-5.1c-0.1-0.7-0.4-1.2-0.8-1.6l17.3-14.7
				c1.7-1.4,1.8-3.9,0.5-5.6l-0.3-0.4C1063.6,296.5,1061.1,296.2,1059.5,297.7z M1038,330.3l-2.7,0.8l-0.8-2.7l2.7-0.8L1038,330.3z"
				/>
			<path class="st6" d="M1060.8,210.2l-24,8.6c-1.6,0.5-2.6,2.1-2.6,3.8l-24.6-2.2c-2.3-0.3-4.3,1.4-4.6,3.8
				c-0.3,2.3,1.4,4.3,3.8,4.6l15.3,1.4l-0.3,2.7l-15.3-1.4c-2.3-0.3-4.3,1.4-4.6,3.8c-0.3,2.3,1.4,4.3,3.8,4.6l24.6,2.2
				c-0.3,1.6,0.4,3.3,1.8,4.2l22,12.8c1.8,1,4.3,0.5,5.3-1.4l0.3-0.4c1-1.8,0.5-4.3-1.4-5.3l-19.7-11.5c0.3-0.5,0.5-1,0.5-1.7
				c0.3-2.3-1.4-4.3-3.8-4.6l-5.6-0.5l0.3-2.7l5.6,0.5c2.3,0.3,4.3-1.4,4.6-3.8c0-0.7,0-1.2-0.3-1.7l21.5-7.7c2.1-0.8,3.1-3,2.3-5.1
				l-0.1-0.4C1065.1,210.6,1062.9,209.5,1060.8,210.2z M1029.3,233.4l-2.7-0.3l0.3-2.7l2.7,0.3L1029.3,233.4z"/>
			<path class="st6" d="M1129.6,134.6l-23.3-10.2c-1.6-0.7-3.4-0.3-4.4,0.9l-16.6-18.5c-1.6-1.7-4.2-1.8-5.9-0.4
				c-1.7,1.6-1.8,4.2-0.4,5.9l10.2,11.5l-2.1,1.8l-10.2-11.5c-1.6-1.7-4.2-1.8-5.9-0.4c-1.7,1.4-1.8,4.2-0.4,5.9l16.4,18.5
				c-1.3,0.9-2,2.6-1.4,4.3l7.3,24.5c0.7,2.1,2.9,3.3,5,2.6l0.5-0.1c2.1-0.7,3.3-2.9,2.6-5l-6.5-21.9c0.5-0.1,1-0.4,1.6-0.9
				c1.7-1.6,1.8-4.2,0.4-5.9l-3.7-4.2l2.1-1.8l3.7,4.2c1.6,1.7,4.2,1.8,5.9,0.4c0.5-0.4,0.8-0.9,1-1.4l20.9,9.1c2,0.9,4.3,0,5.2-2.1
				l0.1-0.4C1132.4,137.8,1131.5,135.5,1129.6,134.6z M1090.7,129.9l-1.8-2.1l2.1-1.8l1.8,2.1L1090.7,129.9z"/>
			<path class="st6" d="M1267.5,132.7l-0.8-25.6c0-1.7-1.2-3.1-2.7-3.7l9.8-22.7c0.9-2.1,0-4.6-2.2-5.5c-2.1-0.9-4.6,0-5.5,2.2
				l-6.1,14.1l-2.6-1l6.1-14.1c0.9-2.1,0-4.6-2.2-5.5s-4.6,0-5.5,2.2L1246,96c-1.4-0.8-3.3-0.7-4.6,0.5l-19,16.9
				c-1.6,1.4-1.8,3.9-0.4,5.6l0.3,0.4c1.4,1.6,3.9,1.8,5.6,0.4l17.1-15.1c0.4,0.4,0.9,0.8,1.4,1c2.1,0.9,4.6,0,5.5-2.2l2.2-5.1
				l2.6,1l-2.2,5.1c-0.9,2.1,0,4.6,2.2,5.5c0.5,0.3,1.2,0.4,1.7,0.4l0.7,22.8c0,2.2,1.8,3.9,4,3.8h0.5
				C1265.9,136.8,1267.6,134.9,1267.5,132.7z M1255.4,95.7l1-2.6l2.6,1l-1,2.6L1255.4,95.7z"/>
		</g>
	</g>
	<path class="st6" d="M930.1,411.1l-9.8-19c-0.7-1.3-2.1-2-3.4-1.7l-0.8-20.9c-0.1-2-1.7-3.4-3.7-3.4s-3.4,1.7-3.4,3.7l0.5,12.9
		l-2.3,0.1l-0.5-12.9c-0.1-2-1.7-3.4-3.7-3.4s-3.4,1.7-3.4,3.7l0.8,20.9c-1.3-0.1-2.7,0.7-3.3,2l-8.3,19.8c-0.7,1.7,0.1,3.7,1.8,4.3
		l0.4,0.1c1.7,0.7,3.7-0.1,4.3-1.8l7.4-17.6c0.4,0.1,0.9,0.3,1.4,0.3c2-0.1,3.4-1.7,3.4-3.7l-0.3-4.7l2.3-0.1l0.1,4.7
		c0.1,2,1.7,3.4,3.7,3.4c0.5,0,1-0.1,1.4-0.4l8.7,17.1c0.8,1.6,2.9,2.2,4.4,1.4l0.4-0.1C930.2,414.6,930.9,412.7,930.1,411.1z
		 M907.4,387.4l-0.1-2.3l2.3-0.1l0.1,2.3L907.4,387.4z"/>
	<path class="st6" d="M1032.7,370.5l-16.6,19.4c-1.2,1.3-1.2,3.1-0.4,4.6l-22.6,10.3c-2.1,0.9-3,3.4-2.1,5.5s3.4,3,5.5,2.1l14-6.4
		l1.2,2.5l-14,6.4c-2.1,0.9-3,3.4-2.1,5.5s3.4,3,5.5,2.1l22.6-10.3c0.5,1.6,2,2.6,3.7,2.6l25.6,0.1c2.2,0,3.9-1.7,3.9-3.9v-0.5
		c0-2.2-1.7-3.9-3.9-3.9l-22.8-0.1c0-0.5-0.1-1.2-0.4-1.7c-0.9-2.1-3.4-3-5.5-2.1l-5.1,2.3l-1.2-2.5l5.1-2.3c2.1-0.9,3-3.4,2.1-5.5
		c-0.3-0.5-0.7-1-1-1.4l14.7-17.3c1.4-1.7,1.2-4.2-0.4-5.6l-0.4-0.3C1036.6,368.7,1034.1,368.8,1032.7,370.5z M1016.9,406.3
		l-2.5,1.2l-1.2-2.5l2.5-1.2L1016.9,406.3z"/>
	<path class="st6" d="M932.9,342.1l-11,1.3c-0.8,0.1-1.3,0.7-1.4,1.3l-10.2-3.4c-0.9-0.3-2,0.1-2.2,1.2c-0.3,0.9,0.1,2,1.2,2.2
		l6.3,2.1l-0.4,1.2l-6.3-2.1c-0.9-0.3-2,0.1-2.2,1.2c-0.3,0.9,0.1,2,1.2,2.2l10.2,3.4c-0.3,0.7-0.1,1.4,0.4,2l8,7.6
		c0.7,0.7,1.7,0.7,2.3,0l0.1-0.1c0.7-0.7,0.7-1.7,0-2.3l-7.2-6.8c0.1-0.1,0.3-0.4,0.4-0.7c0.3-0.9-0.1-2-1.2-2.2l-2.2-0.8l0.4-1.2
		l2.2,0.8c0.9,0.3,2-0.1,2.2-1.2c0.1-0.3,0.1-0.5,0.1-0.8l9.8-1c0.9-0.1,1.6-0.9,1.4-1.8v-0.3C934.8,342.6,933.9,342,932.9,342.1z
		 M917.4,348.6l-1.2-0.4l0.4-1.2l1.2,0.4L917.4,348.6z"/>
</g>
</svg>
