<?xml version="1.0" encoding="utf-8"?>
<!-- Generator: Adobe Illustrator 24.1.0, SVG Export Plug-In . SVG Version: 6.00 Build 0)  -->
<svg version="1.1" id="Capa_1" xmlns="http://www.w3.org/2000/svg" xmlns:xlink="http://www.w3.org/1999/xlink" x="0px" y="0px"
	 viewBox="0 0 1795.6 132.6" style="enable-background:new 0 0 1795.6 132.6;" xml:space="preserve">
<style type="text/css">
	.st0{fill:#373A47;}
	.st1{fill:#FF2A2A;}
</style>
<g>
	<g>
		<polygon class="st0" points="887.4,85.4 887.4,107.6 895.3,107.6 875.8,127.1 856.3,107.6 864.2,107.6 864.2,85.4 		"/>
	</g>
</g>
<g>
	<path class="st1" d="M729.3,16.8l-0.6,4.5h-6.2v20.4h-5.9V21.3h-6.4v-4.5H729.3z"/>
	<path class="st1" d="M746.1,33.9h-11.8c0.2,1.6,0.6,2.7,1.4,3.4c0.7,0.6,1.7,1,3,1c0.8,0,1.5-0.1,2.2-0.4s1.5-0.7,2.3-1.3l2.3,3.2
		c-2.2,1.8-4.7,2.7-7.5,2.7c-3.1,0-5.5-0.9-7.1-2.7c-1.7-1.8-2.5-4.3-2.5-7.3c0-1.9,0.3-3.7,1-5.2s1.7-2.8,3.1-3.7
		c1.3-0.9,3-1.3,4.8-1.3c2.8,0,4.9,0.9,6.5,2.6s2.3,4.1,2.3,7.2C746.2,32.6,746.2,33.3,746.1,33.9z M740.7,30.2
		c0-2.9-1.1-4.4-3.1-4.4c-1,0-1.7,0.4-2.3,1.1s-0.9,1.9-1,3.6h6.4L740.7,30.2L740.7,30.2z"/>
	<path class="st1" d="M761.7,22.4l-0.9,5.5c-0.7-0.2-1.3-0.3-1.7-0.3c-1.1,0-2,0.4-2.6,1.2c-0.6,0.8-1.1,2-1.4,3.5v9.5h-5.7V22.7h5
		l0.5,3.7c0.4-1.3,1.1-2.4,2-3.1c0.9-0.8,1.9-1.1,3-1.1C760.5,22.1,761.1,22.2,761.7,22.4z"/>
	<path class="st1" d="M778.1,37.8c0.2,0.3,0.5,0.6,1,0.8l-1.2,3.7c-1.2-0.1-2.1-0.4-2.9-0.8c-0.7-0.4-1.3-1.1-1.7-2
		c-1.2,1.9-3.2,2.9-5.8,2.9c-1.9,0-3.4-0.6-4.5-1.7s-1.7-2.5-1.7-4.3c0-2.1,0.8-3.7,2.3-4.8c1.5-1.1,3.8-1.7,6.7-1.7h1.9v-0.8
		c0-1.1-0.2-1.9-0.7-2.3s-1.3-0.6-2.5-0.6c-0.6,0-1.4,0.1-2.3,0.3c-0.9,0.2-1.8,0.4-2.7,0.7l-1.3-3.7c1.2-0.5,2.4-0.8,3.7-1
		s2.4-0.4,3.5-0.4c2.7,0,4.7,0.6,6,1.7s1.9,2.8,1.9,5.1v7.4C777.8,37,777.9,37.5,778.1,37.8z M767.7,11.7l7.8,4.8l-1.6,2.9l-8.5-3.4
		L767.7,11.7z M772.2,36.5v-3.4h-1.4c-1.3,0-2.3,0.2-2.9,0.7c-0.6,0.5-1,1.2-1,2.1c0,0.8,0.2,1.4,0.6,1.8s0.9,0.6,1.6,0.6
		C770.5,38.3,771.5,37.7,772.2,36.5z"/>
	<path class="st1" d="M798.5,24.7c1.2,1.8,1.8,4.3,1.8,7.5c0,2-0.3,3.7-0.9,5.3c-0.6,1.5-1.5,2.8-2.6,3.6c-1.2,0.9-2.5,1.3-4,1.3
		c-1.9,0-3.5-0.7-4.6-2v8.7l-5.7,0.6V22.6h5l0.3,2.1c0.7-0.9,1.6-1.6,2.6-2.1c1-0.4,1.9-0.7,3-0.7C795.5,22.1,797.3,23,798.5,24.7z
		 M794.4,32.3c0-2.3-0.3-3.8-0.8-4.7c-0.5-0.9-1.3-1.3-2.3-1.3c-0.6,0-1.3,0.2-1.8,0.6c-0.6,0.4-1.1,0.9-1.5,1.7v8.1
		c0.8,1.1,1.7,1.7,2.9,1.7C793.2,38.2,794.4,36.2,794.4,32.3z"/>
	<path class="st1" d="M809.1,13.5c0.6,0.6,1,1.4,1,2.3s-0.3,1.7-1,2.3c-0.6,0.6-1.4,0.9-2.4,0.9s-1.8-0.3-2.4-0.9
		c-0.6-0.6-0.9-1.4-0.9-2.3s0.3-1.7,0.9-2.3c0.6-0.6,1.4-0.9,2.4-0.9C807.6,12.6,808.4,12.9,809.1,13.5z M809.5,22.7v19.1h-5.7V22.7
		H809.5z"/>
	<path class="st1" d="M829.5,37.8c0.2,0.3,0.5,0.6,1,0.8l-1.2,3.7c-1.2-0.1-2.1-0.4-2.9-0.8c-0.7-0.4-1.3-1.1-1.7-2
		c-1.2,1.9-3.2,2.9-5.8,2.9c-1.9,0-3.4-0.6-4.5-1.7s-1.7-2.5-1.7-4.3c0-2.1,0.8-3.7,2.3-4.8c1.5-1.1,3.8-1.7,6.7-1.7h1.9v-0.8
		c0-1.1-0.2-1.9-0.7-2.3s-1.3-0.6-2.5-0.6c-0.6,0-1.4,0.1-2.3,0.3c-0.9,0.2-1.8,0.4-2.7,0.7l-1.3-3.7c1.2-0.5,2.4-0.8,3.7-1
		s2.4-0.4,3.5-0.4c2.7,0,4.7,0.6,6,1.7s1.9,2.8,1.9,5.1v7.4C829.2,37,829.3,37.5,829.5,37.8z M823.6,36.5v-3.4h-1.4
		c-1.3,0-2.3,0.2-2.9,0.7c-0.6,0.5-1,1.2-1,2.1c0,0.8,0.2,1.4,0.6,1.8s0.9,0.6,1.6,0.6C821.9,38.3,822.9,37.7,823.6,36.5z"/>
	<path class="st1" d="M858.4,24.7c1.2,1.8,1.8,4.3,1.8,7.5c0,2-0.3,3.7-0.9,5.3c-0.6,1.5-1.5,2.8-2.6,3.6c-1.2,0.9-2.5,1.3-4,1.3
		c-1.9,0-3.5-0.7-4.6-2v8.7l-5.7,0.6V22.6h5l0.3,2.1c0.7-0.9,1.6-1.6,2.6-2.1c1-0.4,1.9-0.7,3-0.7C855.5,22.1,857.2,23,858.4,24.7z
		 M854.3,32.3c0-2.3-0.3-3.8-0.8-4.7c-0.5-0.9-1.3-1.3-2.3-1.3c-0.6,0-1.3,0.2-1.8,0.6c-0.6,0.4-1.1,0.9-1.5,1.7v8.1
		c0.8,1.1,1.7,1.7,2.9,1.7C853.1,38.2,854.3,36.2,854.3,32.3z"/>
	<path class="st1" d="M880.3,33.9h-11.8c0.2,1.6,0.6,2.7,1.4,3.4c0.7,0.6,1.7,1,3,1c0.8,0,1.5-0.1,2.2-0.4s1.5-0.7,2.3-1.3l2.3,3.2
		c-2.2,1.8-4.7,2.7-7.5,2.7c-3.1,0-5.5-0.9-7.1-2.7c-1.7-1.8-2.5-4.3-2.5-7.3c0-1.9,0.3-3.7,1-5.2s1.7-2.8,3.1-3.7
		c1.3-0.9,3-1.3,4.8-1.3c2.8,0,4.9,0.9,6.5,2.6s2.3,4.1,2.3,7.2C880.4,32.6,880.4,33.3,880.3,33.9z M874.8,30.2
		c0-2.9-1.1-4.4-3.1-4.4c-1,0-1.7,0.4-2.3,1.1s-0.9,1.9-1,3.6h6.4L874.8,30.2L874.8,30.2z"/>
	<path class="st1" d="M895.9,22.4l-0.9,5.5c-0.7-0.2-1.3-0.3-1.7-0.3c-1.1,0-2,0.4-2.6,1.2c-0.6,0.8-1.1,2-1.4,3.5v9.5h-5.7V22.7h5
		l0.5,3.7c0.4-1.3,1.1-2.4,2-3.1c0.9-0.8,1.9-1.1,3-1.1C894.7,22.1,895.3,22.2,895.9,22.4z"/>
	<path class="st1" d="M908.2,22.7c1.2,0.4,2.3,1,3.2,1.7l-2.1,3.2c-1.6-1-3.1-1.5-4.7-1.5c-0.7,0-1.3,0.1-1.7,0.4s-0.6,0.6-0.6,1.1
		c0,0.4,0.1,0.7,0.3,0.9c0.2,0.2,0.5,0.5,1.1,0.7s1.4,0.5,2.6,0.9c2,0.6,3.5,1.3,4.4,2.2c1,0.9,1.5,2.2,1.5,3.8
		c0,1.3-0.4,2.4-1.1,3.4c-0.7,0.9-1.8,1.7-3.1,2.2s-2.7,0.8-4.3,0.8s-3.1-0.3-4.5-0.8s-2.6-1.2-3.5-2.1l2.8-3.1
		c1.6,1.2,3.3,1.9,5.1,1.9c0.9,0,1.5-0.2,2-0.5s0.7-0.8,0.7-1.3s-0.1-0.8-0.3-1.1c-0.2-0.3-0.6-0.5-1.1-0.7
		c-0.6-0.2-1.4-0.5-2.6-0.8c-1.9-0.6-3.3-1.3-4.2-2.3s-1.4-2.2-1.4-3.7c0-1.1,0.3-2.1,1-3c0.6-0.9,1.5-1.6,2.7-2.1s2.6-0.8,4.1-0.8
		C905.7,22.1,907,22.3,908.2,22.7z"/>
	<path class="st1" d="M930.2,24.7c1.7,1.8,2.5,4.3,2.5,7.5c0,2-0.4,3.8-1.1,5.3c-0.8,1.5-1.8,2.7-3.2,3.5s-3.1,1.3-5,1.3
		c-2.9,0-5.2-0.9-6.9-2.7c-1.7-1.8-2.5-4.3-2.5-7.5c0-2,0.4-3.8,1.1-5.3c0.8-1.5,1.8-2.7,3.2-3.5s3.1-1.3,5-1.3
		C926.2,22.1,928.5,23,930.2,24.7z M920.7,27.7c-0.6,1-0.9,2.5-0.9,4.5c0,2.1,0.3,3.6,0.8,4.6c0.6,1,1.4,1.4,2.6,1.4
		c1.2,0,2-0.5,2.6-1.5s0.9-2.5,0.9-4.5c0-2.1-0.3-3.6-0.8-4.6c-0.6-1-1.4-1.4-2.6-1.4C922.1,26.2,921.3,26.7,920.7,27.7z"/>
	<path class="st1" d="M951.1,23.6c0.9,1,1.4,2.4,1.4,4.2v14h-5.7v-13c0-1-0.2-1.6-0.5-2s-0.8-0.6-1.3-0.6c-1.2,0-2.3,0.8-3.3,2.5
		v13.1H936V22.7h5l0.4,2.3c0.8-1,1.7-1.7,2.6-2.2s2-0.7,3.2-0.7C948.9,22.1,950.2,22.6,951.1,23.6z"/>
	<path class="st1" d="M972.3,37.8c0.2,0.3,0.5,0.6,1,0.8l-1.2,3.7c-1.2-0.1-2.1-0.4-2.9-0.8c-0.7-0.4-1.3-1.1-1.7-2
		c-1.2,1.9-3.2,2.9-5.8,2.9c-1.9,0-3.4-0.6-4.5-1.7s-1.7-2.5-1.7-4.3c0-2.1,0.8-3.7,2.3-4.8c1.5-1.1,3.8-1.7,6.7-1.7h1.9v-0.8
		c0-1.1-0.2-1.9-0.7-2.3s-1.3-0.6-2.5-0.6c-0.6,0-1.4,0.1-2.3,0.3c-0.9,0.2-1.8,0.4-2.7,0.7l-1.3-3.7c1.2-0.5,2.4-0.8,3.7-1
		s2.4-0.4,3.5-0.4c2.7,0,4.7,0.6,6,1.7s1.9,2.8,1.9,5.1v7.4C972,37,972.1,37.5,972.3,37.8z M966.4,36.5v-3.4H965
		c-1.3,0-2.3,0.2-2.9,0.7c-0.6,0.5-1,1.2-1,2.1c0,0.8,0.2,1.4,0.6,1.8c0.4,0.4,0.9,0.6,1.6,0.6C964.7,38.3,965.7,37.7,966.4,36.5z"
		/>
	<path class="st1" d="M977.4,41c-0.9-0.9-1.4-2.3-1.4-4.1V15l5.7-0.6v22.2c0,0.8,0.3,1.2,1,1.2c0.3,0,0.6-0.1,0.9-0.2l1.1,4
		c-1,0.4-2.2,0.6-3.5,0.6C979.6,42.4,978.3,41.9,977.4,41z"/>
	<path class="st1" d="M992.1,13.5c0.6,0.6,1,1.4,1,2.3s-0.3,1.7-1,2.3c-0.6,0.6-1.4,0.9-2.4,0.9s-1.8-0.3-2.4-0.9
		c-0.6-0.6-0.9-1.4-0.9-2.3s0.3-1.7,0.9-2.3c0.6-0.6,1.4-0.9,2.4-0.9C990.7,12.6,991.5,12.9,992.1,13.5z M992.6,22.7v19.1h-5.7V22.7
		H992.6z"/>
	<path class="st1" d="M1009,40.9c-0.7,0.5-1.5,0.9-2.4,1.1s-1.8,0.4-2.8,0.4c-4.2,0-6.3-2.3-6.3-6.9v-8.9h-2.7v-4h2.7v-4.1l5.7-0.6
		v4.8h4.4l-0.6,4h-3.8v8.8c0,0.9,0.1,1.5,0.4,1.9s0.7,0.6,1.4,0.6c0.6,0,1.3-0.2,2.1-0.6L1009,40.9z"/>
	<path class="st1" d="M1024.4,22.7v4l-8.6,10.8h8.8l-0.5,4.3h-14.9v-4l8.7-10.8h-7.9v-4.3H1024.4z"/>
	<path class="st1" d="M1042.4,37.8c0.2,0.3,0.5,0.6,1,0.8l-1.2,3.7c-1.2-0.1-2.1-0.4-2.9-0.8c-0.7-0.4-1.3-1.1-1.7-2
		c-1.2,1.9-3.2,2.9-5.8,2.9c-1.9,0-3.4-0.6-4.5-1.7s-1.7-2.5-1.7-4.3c0-2.1,0.8-3.7,2.3-4.8c1.5-1.1,3.8-1.7,6.7-1.7h1.9v-0.8
		c0-1.1-0.2-1.9-0.7-2.3s-1.3-0.6-2.5-0.6c-0.6,0-1.4,0.1-2.3,0.3c-0.9,0.2-1.8,0.4-2.7,0.7l-1.3-3.7c1.2-0.5,2.4-0.8,3.7-1
		c1.3-0.2,2.4-0.4,3.5-0.4c2.7,0,4.7,0.6,6,1.7s1.9,2.8,1.9,5.1v7.4C1042.1,37,1042.2,37.5,1042.4,37.8z M1036.5,36.5v-3.4h-1.4
		c-1.3,0-2.3,0.2-2.9,0.7s-1,1.2-1,2.1c0,0.8,0.2,1.4,0.6,1.8s0.9,0.6,1.6,0.6C1034.8,38.3,1035.8,37.7,1036.5,36.5z"/>
	<path class="st1" d="M1063.8,15.1v26.7h-5l-0.3-2.2c-1.3,1.9-3.2,2.8-5.4,2.8c-2.4,0-4.2-0.9-5.4-2.7c-1.2-1.8-1.9-4.3-1.9-7.5
		c0-1.9,0.3-3.7,1-5.2c0.6-1.5,1.6-2.7,2.8-3.6c1.2-0.9,2.5-1.3,4.1-1.3c1.8,0,3.3,0.6,4.5,1.8v-9.4L1063.8,15.1z M1058.1,36.1v-8.2
		c-0.5-0.6-0.9-1-1.4-1.2c-0.5-0.3-1-0.4-1.6-0.4c-1.1,0-1.9,0.5-2.5,1.5s-0.9,2.5-0.9,4.5c0,2.2,0.3,3.8,0.8,4.7
		c0.5,0.9,1.3,1.3,2.3,1.3C1056.1,38.2,1057.2,37.5,1058.1,36.1z"/>
	<path class="st1" d="M1083.7,37.8c0.2,0.3,0.5,0.6,1,0.8l-1.2,3.7c-1.2-0.1-2.1-0.4-2.9-0.8c-0.7-0.4-1.3-1.1-1.7-2
		c-1.2,1.9-3.2,2.9-5.8,2.9c-1.9,0-3.4-0.6-4.5-1.7s-1.7-2.5-1.7-4.3c0-2.1,0.8-3.7,2.3-4.8c1.5-1.1,3.8-1.7,6.7-1.7h1.9v-0.8
		c0-1.1-0.2-1.9-0.7-2.3s-1.3-0.6-2.5-0.6c-0.6,0-1.4,0.1-2.3,0.3c-0.9,0.2-1.8,0.4-2.7,0.7l-1.3-3.7c1.2-0.5,2.4-0.8,3.7-1
		c1.3-0.2,2.4-0.4,3.5-0.4c2.7,0,4.7,0.6,6,1.7s1.9,2.8,1.9,5.1v7.4C1083.4,37,1083.5,37.5,1083.7,37.8z M1077.8,36.5v-3.4h-1.4
		c-1.3,0-2.3,0.2-2.9,0.7s-1,1.2-1,2.1c0,0.8,0.2,1.4,0.6,1.8s0.9,0.6,1.6,0.6C1076.1,38.3,1077.1,37.7,1077.8,36.5z"/>
</g>
</svg>
