<?xml version="1.0" encoding="utf-8"?>
<!-- Generator: Adobe Illustrator 24.1.0, SVG Export Plug-In . SVG Version: 6.00 Build 0)  -->
<svg version="1.1" id="Capa_1" xmlns="http://www.w3.org/2000/svg" xmlns:xlink="http://www.w3.org/1999/xlink" x="0px" y="0px"
	 viewBox="0 0 790 736" style="enable-background:new 0 0 790 736;" xml:space="preserve">
<style type="text/css">
	.st0{enable-background:new    ;}
	.st1{fill:#373A47;}
	.st2{fill:none;stroke:#AFAAAA;stroke-miterlimit:10;}
	.st3{fill:#8FB5BC;}
	.st4{fill:#FF2A2A;}
</style>
<g class="st0">
	<path class="st1" d="M64.8,453.7c1.4,0.5,2.8,1.4,4.2,2.5l-2.5,2.6c-1.1-0.9-2.1-1.5-3.1-1.9s-2.2-0.6-3.5-0.6
		c-1.6,0-3,0.4-4.3,1.3c-1.3,0.8-2.4,2.2-3.2,4s-1.2,4.2-1.2,7c0,4.3,0.7,7.4,2.1,9.4c1.4,2,3.5,3,6.2,3c2.2,0,4.2-0.5,5.8-1.4v-9.2
		h-5.4l-0.5-3.4h10.1v14.7c-3.2,1.8-6.5,2.7-10,2.7c-4,0-7.2-1.3-9.4-4c-2.3-2.7-3.4-6.6-3.4-11.8c0-3.3,0.6-6.1,1.8-8.5
		s2.8-4.2,4.8-5.4c2-1.2,4.2-1.8,6.6-1.8C61.8,452.9,63.4,453.2,64.8,453.7z"/>
	<path class="st1" d="M93.8,473.7H79c0.2,2.6,0.8,4.5,1.9,5.7s2.6,1.8,4.3,1.8c1.1,0,2.2-0.2,3.1-0.5s1.9-0.8,3-1.5l1.8,2.4
		c-2.5,1.9-5.2,2.9-8.1,2.9c-3.2,0-5.8-1.1-7.6-3.2c-1.8-2.1-2.7-5-2.7-8.8c0-2.4,0.4-4.6,1.2-6.4c0.8-1.9,1.9-3.3,3.4-4.4
		s3.2-1.6,5.2-1.6c3.1,0,5.5,1,7.1,3.1c1.7,2,2.5,4.9,2.5,8.5C93.9,472.3,93.9,472.9,93.8,473.7z M89.9,470.4c0-2.3-0.5-4.1-1.4-5.3
		c-0.9-1.2-2.3-1.8-4.1-1.8c-3.3,0-5.2,2.5-5.4,7.3h10.9V470.4z"/>
	<path class="st1" d="M116.4,462c1.2,1.3,1.8,3,1.8,5.2v16.7h-4.1v-16.2c0-1.7-0.3-2.8-0.9-3.5s-1.5-1-2.7-1s-2.3,0.4-3.3,1.1
		c-0.9,0.7-1.8,1.7-2.7,3.1V484h-4.1v-23.3h3.5l0.4,3.5c0.8-1.2,1.9-2.2,3.1-2.9c1.2-0.7,2.6-1.1,4.1-1.1
		C113.5,460.1,115.2,460.7,116.4,462z"/>
</g>
<g class="st0">
	<path class="st1" d="M63.9,527.4c1.3,0.5,2.5,1.2,3.8,2.3l-2.3,2.7c-1.9-1.5-3.8-2.3-5.9-2.3c-2.5,0-4.6,1-6.1,2.9
		s-2.3,5.1-2.3,9.4c0,4.2,0.8,7.3,2.3,9.3s3.6,3,6.1,3c1.3,0,2.4-0.2,3.4-0.7c1-0.4,2-1.1,3.1-1.9l2.1,2.7c-0.9,1-2.2,1.8-3.6,2.4
		c-1.5,0.6-3.2,1-5.1,1c-2.5,0-4.7-0.6-6.6-1.8c-1.9-1.2-3.4-3-4.5-5.4s-1.6-5.2-1.6-8.6c0-3.3,0.6-6.2,1.7-8.6
		c1.1-2.4,2.6-4.2,4.6-5.4c1.9-1.2,4.1-1.8,6.4-1.8C61.1,526.7,62.6,526.9,63.9,527.4z"/>
	<path class="st1" d="M88.9,554.4c0.3,0.5,0.8,0.8,1.5,1l-0.9,2.8c-1.2-0.1-2.2-0.5-2.9-1c-0.7-0.5-1.3-1.4-1.6-2.5
		c-1.6,2.3-3.9,3.5-7,3.5c-2.3,0-4.1-0.6-5.4-1.9c-1.3-1.3-2-3-2-5.1c0-2.5,0.9-4.4,2.7-5.7c1.8-1.3,4.3-2,7.6-2h3.6v-1.7
		c0-1.7-0.4-2.8-1.2-3.5c-0.8-0.7-2-1.1-3.7-1.1s-3.8,0.4-6.3,1.2l-1-3c2.9-1.1,5.6-1.6,8.1-1.6c2.7,0,4.8,0.7,6.2,2
		c1.4,1.3,2,3.3,2,5.7v10.7C88.4,553.2,88.6,553.9,88.9,554.4z M84.4,551.6v-5.4h-3.1c-4.3,0-6.5,1.6-6.5,4.8c0,1.4,0.3,2.4,1,3.1
		c0.7,0.7,1.7,1.1,3,1.1C81.2,555.2,83,554,84.4,551.6z"/>
	<path class="st1" d="M112.8,535.8c1.2,1.3,1.8,3,1.8,5.2v16.7h-4.1v-16.2c0-1.7-0.3-2.8-0.9-3.5s-1.5-1-2.7-1s-2.3,0.4-3.3,1.1
		c-0.9,0.7-1.8,1.7-2.7,3.1v16.6h-4.1v-23.3h3.5l0.4,3.5c0.8-1.2,1.9-2.2,3.1-2.9s2.6-1.1,4.1-1.1
		C109.9,533.9,111.6,534.5,112.8,535.8z"/>
	<path class="st1" d="M139.6,534.4l-7.9,23.3h-4.9l-8.1-23.3h4.4l6.1,19.7l6.1-19.7H139.6z"/>
	<path class="st1" d="M148.3,524c0.5,0.5,0.8,1.2,0.8,2s-0.3,1.5-0.8,2s-1.2,0.8-2.1,0.8c-0.8,0-1.5-0.3-2-0.8s-0.8-1.2-0.8-2
		s0.3-1.5,0.8-2s1.2-0.8,2-0.8C147.1,523.2,147.8,523.4,148.3,524z M148.3,534.4v23.3h-4.1v-23.3H148.3z"/>
	<path class="st1" d="M184.7,554.4c0.3,0.5,0.8,0.8,1.5,1l-0.9,2.8c-1.2-0.1-2.2-0.5-2.9-1s-1.3-1.4-1.6-2.5c-1.6,2.3-3.9,3.5-7,3.5
		c-2.3,0-4.1-0.6-5.4-1.9c-1.3-1.3-2-3-2-5.1c0-2.5,0.9-4.4,2.7-5.7s4.3-2,7.6-2h3.6v-1.7c0-1.7-0.4-2.8-1.2-3.5s-2-1.1-3.7-1.1
		s-3.8,0.4-6.3,1.2l-1-3c2.9-1.1,5.6-1.6,8.1-1.6c2.7,0,4.8,0.7,6.2,2s2,3.3,2,5.7v10.7C184.2,553.2,184.3,553.9,184.7,554.4z
		 M180.1,551.6v-5.4H177c-4.3,0-6.5,1.6-6.5,4.8c0,1.4,0.3,2.4,1,3.1c0.7,0.7,1.7,1.1,3,1.1C176.9,555.2,178.8,554,180.1,551.6z"/>
	<path class="st1" d="M205.4,556.9c-0.9-0.9-1.3-2.2-1.3-3.8V525l4.1-0.5V553c0,0.6,0.1,1.1,0.3,1.4c0.2,0.3,0.6,0.4,1.1,0.4
		c0.6,0,1.1-0.1,1.5-0.3l1.1,2.8c-1,0.5-2.1,0.8-3.2,0.8C207.4,558.3,206.2,557.8,205.4,556.9z"/>
	<path class="st1" d="M233.2,554.4c0.3,0.5,0.8,0.8,1.5,1l-0.9,2.8c-1.2-0.1-2.2-0.5-2.9-1s-1.3-1.4-1.6-2.5c-1.6,2.3-3.9,3.5-7,3.5
		c-2.3,0-4.1-0.6-5.4-1.9c-1.3-1.3-2-3-2-5.1c0-2.5,0.9-4.4,2.7-5.7s4.3-2,7.6-2h3.6v-1.7c0-1.7-0.4-2.8-1.2-3.5s-2-1.1-3.7-1.1
		s-3.8,0.4-6.3,1.2l-1-3c2.9-1.1,5.6-1.6,8.1-1.6c2.7,0,4.8,0.7,6.2,2s2,3.3,2,5.7v10.7C232.7,553.2,232.9,553.9,233.2,554.4z
		 M228.7,551.6v-5.4h-3.1c-4.3,0-6.5,1.6-6.5,4.8c0,1.4,0.3,2.4,1,3.1c0.7,0.7,1.7,1.1,3,1.1C225.5,555.2,227.3,554,228.7,551.6z"/>
	<path class="st1" d="M270.1,537c1.4,2.1,2.1,5.1,2.1,9c0,3.7-0.8,6.6-2.4,8.9c-1.6,2.2-3.9,3.4-6.8,3.4c-2.6,0-4.6-0.9-6.1-2.7
		v11.1l-4.1,0.5v-32.8h3.5l0.3,3.1c0.9-1.2,1.9-2.1,3.1-2.7c1.2-0.6,2.5-1,3.8-1C266.5,533.9,268.7,534.9,270.1,537z M267.8,546
		c0-6-1.8-8.9-5.3-8.9c-1.2,0-2.2,0.3-3.1,1s-1.8,1.5-2.5,2.6v11.4c0.6,0.9,1.3,1.6,2.2,2.1c0.9,0.5,1.9,0.7,2.9,0.7
		C265.9,554.9,267.8,552,267.8,546z"/>
	<path class="st1" d="M291.6,534.1l-0.8,4c-0.7-0.2-1.4-0.3-2-0.3c-1.4,0-2.6,0.5-3.5,1.6s-1.6,2.7-2.1,5v13.3h-4.1v-23.3h3.5
		l0.4,4.7c0.6-1.7,1.5-3.1,2.5-3.9c1.1-0.9,2.3-1.3,3.7-1.3C290.1,533.9,290.9,533.9,291.6,534.1z"/>
	<path class="st1" d="M311.3,537.1c1.8,2.2,2.7,5.2,2.7,8.9c0,2.4-0.4,4.6-1.2,6.4c-0.8,1.8-2,3.3-3.6,4.3s-3.4,1.5-5.6,1.5
		c-3.3,0-5.8-1.1-7.7-3.3c-1.8-2.2-2.7-5.2-2.7-8.9c0-2.4,0.4-4.6,1.2-6.4c0.8-1.8,2-3.3,3.6-4.3s3.4-1.5,5.6-1.5
		C306.9,533.9,309.5,534.9,311.3,537.1z M297.6,546.1c0,5.9,2,8.9,6,8.9s6-3,6-8.9s-2-8.9-6-8.9
		C299.6,537.1,297.6,540.1,297.6,546.1z"/>
	<path class="st1" d="M332.5,556.7c-1.5,1.1-3.3,1.6-5.2,1.6c-2,0-3.5-0.6-4.6-1.7c-1.1-1.1-1.7-2.8-1.7-4.9v-14.1h-4v-3.1h4.1v-5.3
		l4.1-0.5v5.8h5.5l-0.4,3.1h-5.1v13.9c0,1.2,0.2,2.1,0.6,2.6s1.1,0.8,2.1,0.8c0.9,0,1.9-0.3,3.1-0.9L332.5,556.7z"/>
	<path class="st1" d="M353.6,547.4h-14.9c0.2,2.6,0.8,4.5,1.9,5.7s2.6,1.8,4.3,1.8c1.1,0,2.2-0.2,3.1-0.5s1.9-0.8,3-1.5l1.8,2.4
		c-2.5,1.9-5.2,2.9-8.1,2.9c-3.2,0-5.8-1.1-7.6-3.2c-1.8-2.1-2.7-5-2.7-8.8c0-2.4,0.4-4.6,1.2-6.4c0.8-1.9,1.9-3.3,3.4-4.4
		c1.5-1.1,3.2-1.6,5.2-1.6c3.1,0,5.5,1,7.1,3.1c1.7,2,2.5,4.9,2.5,8.5C353.7,546,353.7,546.7,353.6,547.4z M349.7,544.2
		c0-2.3-0.5-4.1-1.4-5.3s-2.3-1.8-4.1-1.8c-3.3,0-5.2,2.5-5.4,7.3h10.9V544.2z"/>
	<path class="st1" d="M359.4,524.4c0.5,0.5,0.7,1.1,0.7,1.8s-0.2,1.3-0.7,1.8s-1.1,0.7-1.8,0.7c-0.7,0-1.4-0.2-1.8-0.7
		c-0.5-0.5-0.7-1.1-0.7-1.8s0.2-1.3,0.7-1.8s1.1-0.7,1.8-0.7S358.9,524,359.4,524.4z M364.3,534.4v23.3h-4.1v-23.3H364.3z
		 M368.7,524.4c0.5,0.5,0.7,1.1,0.7,1.8s-0.2,1.3-0.7,1.8s-1.1,0.7-1.8,0.7c-0.7,0-1.3-0.2-1.8-0.7s-0.7-1.1-0.7-1.8
		s0.2-1.3,0.7-1.8s1.1-0.7,1.8-0.7S368.2,524,368.7,524.4z"/>
	<path class="st1" d="M388.7,535.8c1.2,1.3,1.8,3,1.8,5.2v16.7h-4.1v-16.2c0-1.7-0.3-2.8-0.9-3.5s-1.5-1-2.7-1s-2.3,0.4-3.3,1.1
		c-0.9,0.7-1.8,1.7-2.7,3.1v16.6h-4.1v-23.3h3.5l0.4,3.5c0.8-1.2,1.9-2.2,3.1-2.9s2.6-1.1,4.1-1.1
		C385.8,533.9,387.5,534.5,388.7,535.8z"/>
	<path class="st1" d="M414.8,554.4c0.3,0.5,0.8,0.8,1.5,1l-0.9,2.8c-1.2-0.1-2.2-0.5-2.9-1c-0.7-0.5-1.3-1.4-1.6-2.5
		c-1.6,2.3-3.9,3.5-7,3.5c-2.3,0-4.1-0.6-5.4-1.9c-1.3-1.3-2-3-2-5.1c0-2.5,0.9-4.4,2.7-5.7c1.8-1.3,4.3-2,7.6-2h3.6v-1.7
		c0-1.7-0.4-2.8-1.2-3.5c-0.8-0.7-2-1.1-3.7-1.1s-3.8,0.4-6.3,1.2l-1-3c2.9-1.1,5.6-1.6,8.1-1.6c2.7,0,4.8,0.7,6.2,2
		c1.4,1.3,2,3.3,2,5.7v10.7C414.4,553.2,414.5,553.9,414.8,554.4z M410.3,551.6v-5.4h-3.1c-4.3,0-6.5,1.6-6.5,4.8
		c0,1.4,0.3,2.4,1,3.1c0.7,0.7,1.7,1.1,3,1.1C407.1,555.2,409,554,410.3,551.6z"/>
</g>
<g class="st0">
	<path class="st1" d="M75.9,631.5h-4.1l-1.1-13.8c-0.4-5.4-0.7-9.5-0.8-12.4l-6.6,22.8h-3.9l-7-22.8c0,3.7-0.2,8-0.6,12.8l-1,13.5
		h-4l2.5-30.5H55l6.4,22.2l6.1-22.2h5.7L75.9,631.5z"/>
	<path class="st1" d="M100.2,631.5h-3.5l-0.3-3.6c-0.9,1.4-1.9,2.5-3.1,3.2s-2.6,1-4.2,1c-2,0-3.6-0.6-4.8-1.9
		c-1.2-1.2-1.7-3-1.7-5.3v-16.7h4.1v16.3c0,1.6,0.3,2.7,0.8,3.4c0.6,0.7,1.5,1,2.7,1c2.3,0,4.2-1.3,5.8-4v-16.6h4.1L100.2,631.5
		L100.2,631.5z"/>
	<path class="st1" d="M120.4,630.5c-1.5,1.1-3.3,1.6-5.2,1.6c-2,0-3.5-0.6-4.6-1.7c-1.1-1.1-1.7-2.8-1.7-4.9v-14.1h-4.1v-3.1h4.1
		V603l4.1-0.5v5.8h5.5l-0.4,3.1H113v13.9c0,1.2,0.2,2.1,0.6,2.6s1.1,0.8,2.1,0.8c0.9,0,1.9-0.3,3.1-0.9L120.4,630.5z"/>
	<path class="st1" d="M140.5,628.2c0.3,0.5,0.8,0.8,1.5,1l-1,2.8c-1.2-0.1-2.2-0.5-2.9-1s-1.3-1.4-1.6-2.5c-1.6,2.3-3.9,3.5-7,3.5
		c-2.3,0-4.1-0.6-5.4-1.9c-1.3-1.3-2-3-2-5.1c0-2.5,0.9-4.4,2.7-5.7c1.8-1.3,4.3-2,7.6-2h3.6v-1.7c0-1.7-0.4-2.8-1.2-3.5
		s-2-1.1-3.7-1.1s-3.8,0.4-6.3,1.2l-1-3c2.9-1.1,5.6-1.6,8.1-1.6c2.7,0,4.8,0.7,6.2,2s2,3.3,2,5.7V626
		C140,627,140.1,627.7,140.5,628.2z M135.9,625.4V620h-3.1c-4.3,0-6.5,1.6-6.5,4.8c0,1.4,0.3,2.4,1,3.1c0.7,0.7,1.7,1.1,3,1.1
		C132.7,629,134.6,627.8,135.9,625.4z"/>
	<path class="st1" d="M160.7,608.2c1.2,0.4,2.3,1,3.3,1.9l-1.9,2.6c-0.8-0.6-1.6-1-2.4-1.3c-0.8-0.3-1.6-0.4-2.6-0.4
		c-1.9,0-3.4,0.8-4.4,2.3s-1.6,3.7-1.6,6.7s0.5,5.1,1.5,6.5s2.5,2.1,4.4,2.1c0.9,0,1.8-0.1,2.5-0.4c0.8-0.3,1.6-0.7,2.6-1.4l1.9,2.7
		c-2.1,1.7-4.5,2.6-7.1,2.6c-3.2,0-5.6-1.1-7.5-3.2c-1.8-2.1-2.7-5.1-2.7-8.8c0-2.5,0.4-4.6,1.2-6.5s2-3.3,3.5-4.3s3.3-1.5,5.4-1.5
		C158.2,607.6,159.5,607.8,160.7,608.2z"/>
	<path class="st1" d="M173.6,597.8c0.5,0.5,0.8,1.2,0.8,2s-0.3,1.5-0.8,2s-1.2,0.8-2.1,0.8c-0.8,0-1.5-0.3-2-0.8s-0.8-1.2-0.8-2
		s0.3-1.5,0.8-2s1.2-0.8,2-0.8C172.4,597,173.1,597.2,173.6,597.8z M173.6,608.2v23.3h-4.1v-23.3H173.6z"/>
	<path class="st1" d="M198.4,610.9c1.8,2.2,2.7,5.2,2.7,8.9c0,2.4-0.4,4.6-1.2,6.4c-0.8,1.8-2,3.3-3.6,4.3s-3.4,1.5-5.6,1.5
		c-3.3,0-5.8-1.1-7.7-3.3c-1.8-2.2-2.7-5.2-2.7-8.9c0-2.4,0.4-4.6,1.2-6.4c0.8-1.8,2-3.3,3.6-4.3s3.4-1.5,5.6-1.5
		C194,607.6,196.6,608.7,198.4,610.9z M184.7,619.9c0,5.9,2,8.9,6,8.9s6-3,6-8.9s-2-8.9-6-8.9C186.7,610.9,184.7,613.9,184.7,619.9z
		 M194.2,596l1.8,3.4l-9.4,3.8l-1.2-2.2L194.2,596z"/>
</g>
<g class="st0">
	<path class="st1" d="M66.6,674.8l-0.4,3.6h-8.5v26.9h-4.2v-26.9h-8.7v-3.6H66.6z"/>
	<path class="st1" d="M82.4,681.7l-0.8,4c-0.7-0.2-1.4-0.3-2-0.3c-1.4,0-2.6,0.5-3.5,1.6s-1.6,2.7-2.1,5v13.3h-4.1V682h3.5l0.4,4.7
		c0.6-1.7,1.5-3.1,2.5-3.9c1.1-0.9,2.3-1.3,3.7-1.3C80.9,681.4,81.7,681.5,82.4,681.7z"/>
	<path class="st1" d="M101.7,702c0.3,0.5,0.8,0.8,1.5,1l-0.9,2.8c-1.2-0.1-2.2-0.5-2.9-1c-0.7-0.5-1.3-1.4-1.6-2.5
		c-1.6,2.3-3.9,3.5-7,3.5c-2.3,0-4.1-0.6-5.4-1.9c-1.3-1.3-2-3-2-5.1c0-2.5,0.9-4.4,2.7-5.7c1.8-1.3,4.3-2,7.6-2h3.6v-1.7
		c0-1.7-0.4-2.8-1.2-3.5c-0.8-0.7-2-1.1-3.7-1.1s-3.8,0.4-6.3,1.2l-1-3c2.9-1.1,5.6-1.6,8.1-1.6c2.7,0,4.8,0.7,6.2,2
		c1.4,1.3,2,3.3,2,5.7v10.7C101.2,700.8,101.4,701.5,101.7,702z M97.1,699.2v-5.4H94c-4.3,0-6.5,1.6-6.5,4.8c0,1.4,0.3,2.4,1,3.1
		c0.7,0.7,1.7,1.1,3,1.1C94,702.8,95.8,701.6,97.1,699.2z"/>
	<path class="st1" d="M121.9,682c1.2,0.4,2.3,1,3.3,1.9l-1.9,2.6c-0.8-0.6-1.6-1-2.4-1.3s-1.6-0.4-2.6-0.4c-1.9,0-3.4,0.8-4.4,2.3
		s-1.6,3.7-1.6,6.7s0.5,5.1,1.5,6.5s2.5,2.1,4.4,2.1c0.9,0,1.8-0.1,2.5-0.4c0.8-0.3,1.6-0.7,2.6-1.4l1.9,2.7
		c-2.1,1.7-4.5,2.6-7.1,2.6c-3.2,0-5.6-1.1-7.5-3.2c-1.8-2.1-2.7-5.1-2.7-8.8c0-2.5,0.4-4.6,1.2-6.5c0.8-1.9,2-3.3,3.5-4.3
		s3.3-1.5,5.4-1.5C119.4,681.4,120.7,681.6,121.9,682z"/>
	<path class="st1" d="M142.5,704.2c-1.5,1.1-3.3,1.6-5.2,1.6c-2,0-3.5-0.6-4.6-1.7c-1.1-1.1-1.7-2.8-1.7-4.9v-14.1h-4.1V682h4.1
		v-5.3l4.1-0.5v5.8h5.5l-0.4,3.1h-5.1V699c0,1.2,0.2,2.1,0.6,2.6c0.4,0.5,1.1,0.8,2.1,0.8c0.9,0,1.9-0.3,3.1-0.9L142.5,704.2z"/>
	<path class="st1" d="M162.6,702c0.3,0.5,0.8,0.8,1.5,1l-0.9,2.8c-1.2-0.1-2.2-0.5-2.9-1s-1.3-1.4-1.6-2.5c-1.6,2.3-3.9,3.5-7,3.5
		c-2.3,0-4.1-0.6-5.4-1.9c-1.3-1.3-2-3-2-5.1c0-2.5,0.9-4.4,2.7-5.7s4.3-2,7.6-2h3.6v-1.7c0-1.7-0.4-2.8-1.2-3.5s-2-1.1-3.7-1.1
		s-3.8,0.4-6.3,1.2l-1-3c2.9-1.1,5.6-1.6,8.1-1.6c2.7,0,4.8,0.7,6.2,2s2,3.3,2,5.7v10.7C162.1,700.8,162.3,701.5,162.6,702z
		 M158,699.2v-5.4h-3c-4.3,0-6.5,1.6-6.5,4.8c0,1.4,0.3,2.4,1,3.1c0.7,0.7,1.7,1.1,3,1.1C154.9,702.8,156.7,701.6,158,699.2z"/>
	<path class="st1" d="M198.5,683.4c1.2,1.3,1.7,3,1.7,5.2v16.7h-4.1v-16.2c0-3-1.1-4.5-3.3-4.5c-1.2,0-2.1,0.3-2.9,1
		s-1.7,1.7-2.6,3.1v16.6h-4.1v-16.2c0-3-1.1-4.5-3.3-4.5c-1.2,0-2.2,0.3-3,1s-1.6,1.7-2.5,3.1v16.6h-4.1V682h3.5l0.4,3.4
		c1.7-2.6,4-3.9,6.7-3.9c1.4,0,2.7,0.4,3.7,1.1c1,0.7,1.7,1.8,2.2,3.1c0.9-1.4,1.9-2.4,3-3.1c1.1-0.7,2.4-1.1,3.9-1.1
		C195.8,681.4,197.4,682.1,198.5,683.4z"/>
	<path class="st1" d="M226,695h-14.9c0.2,2.6,0.8,4.5,1.9,5.7c1.1,1.2,2.6,1.8,4.3,1.8c1.1,0,2.2-0.2,3.1-0.5c0.9-0.3,1.9-0.8,3-1.5
		l1.8,2.4c-2.5,1.9-5.2,2.9-8.1,2.9c-3.2,0-5.8-1.1-7.6-3.2c-1.8-2.1-2.7-5-2.7-8.8c0-2.4,0.4-4.6,1.2-6.4c0.8-1.9,1.9-3.3,3.4-4.4
		c1.5-1.1,3.2-1.6,5.2-1.6c3.1,0,5.5,1,7.1,3.1c1.7,2,2.5,4.9,2.5,8.5C226.1,693.6,226,694.3,226,695z M222,691.8
		c0-2.3-0.5-4.1-1.4-5.3s-2.3-1.8-4.1-1.8c-3.3,0-5.2,2.5-5.4,7.3H222V691.8z"/>
	<path class="st1" d="M248.5,683.3c1.2,1.3,1.8,3,1.8,5.2v16.7h-4.1V689c0-1.7-0.3-2.8-0.9-3.5c-0.6-0.7-1.5-1-2.7-1
		s-2.3,0.4-3.3,1.1c-0.9,0.7-1.8,1.7-2.7,3.1v16.6h-4.1V682h3.5l0.4,3.5c0.8-1.2,1.9-2.2,3.1-2.9c1.2-0.7,2.6-1.1,4.1-1.1
		C245.7,681.4,247.3,682.1,248.5,683.3z"/>
	<path class="st1" d="M270.3,704.2c-1.5,1.1-3.3,1.6-5.2,1.6c-2,0-3.5-0.6-4.6-1.7c-1.1-1.1-1.7-2.8-1.7-4.9v-14.1h-4.1V682h4.1
		v-5.3l4.1-0.5v5.8h5.5l-0.4,3.1h-5.1V699c0,1.2,0.2,2.1,0.6,2.6s1.1,0.8,2.1,0.8c0.9,0,1.9-0.3,3.1-0.9L270.3,704.2z"/>
</g>
<g class="st0">
	<path class="st1" d="M511.1,469.9c1.3,1.1,1.9,2.8,1.9,5c0,3.3-1.2,5.6-3.5,6.9s-5.6,2-9.9,2h-9.9v-30.7h8.7c4.3,0,7.6,0.6,9.9,1.8
		c2.3,1.2,3.4,3.2,3.4,6c0,1.8-0.5,3.3-1.6,4.4s-2.4,1.9-4,2.2C508.2,468.1,509.8,468.8,511.1,469.9z M497.1,458.4v7.1h2.7
		c3.1,0,4.6-1.2,4.6-3.7c0-1.2-0.4-2.1-1.2-2.6s-2.1-0.8-3.9-0.8H497.1z M504.1,477.8c1-0.6,1.5-1.6,1.5-3.2c0-2.8-1.8-4.2-5.3-4.2
		h-3.2v8.3h2.7C501.6,478.7,503.1,478.4,504.1,477.8z"/>
	<path class="st1" d="M527.2,472.2h-2.8v11.7h-7.3v-30.7h10.1c4.2,0,7.3,0.8,9.5,2.3s3.2,3.9,3.2,7c0,2-0.5,3.6-1.4,4.9
		s-2.4,2.4-4.5,3.3l7.8,13.1h-8.2L527.2,472.2z M524.4,467.2h3.1c1.6,0,2.8-0.4,3.7-1.1c0.8-0.7,1.2-1.9,1.2-3.5
		c0-1.5-0.4-2.6-1.3-3.2c-0.9-0.7-2.2-1-4-1h-2.6v8.8H524.4z"/>
	<path class="st1" d="M560.6,483.9l-1.6-6.6h-8.9l-1.5,6.6H541l9.3-30.7h8.8l9.3,30.7H560.6z M551.3,472.1h6.5l-3.2-13.5
		L551.3,472.1z"/>
	<path class="st1" d="M570.6,483.9v-30.7h18.3l-0.8,5.2h-10.3v8.1h8.9v5.2h-8.9v12.2L570.6,483.9L570.6,483.9z"/>
</g>
<g class="st0">
	<path class="st1" d="M507.5,600.9c1.5,0.6,2.9,1.4,4.2,2.5l-3.5,4.1c-0.9-0.7-1.8-1.2-2.7-1.6c-0.9-0.4-1.8-0.5-2.8-0.5
		c-2.1,0-3.7,0.9-4.9,2.6c-1.2,1.7-1.8,4.4-1.8,8.1c0,3.6,0.6,6.2,1.8,7.9c1.2,1.7,2.9,2.6,5,2.6c1.1,0,2.1-0.2,3.1-0.6
		c0.9-0.4,1.9-1,3-1.8l3.2,4.2c-1.2,1.2-2.5,2.1-4.2,2.8c-1.6,0.7-3.4,1.1-5.4,1.1c-2.8,0-5.3-0.6-7.4-1.9c-2.1-1.2-3.7-3.1-4.9-5.5
		c-1.2-2.4-1.7-5.4-1.7-8.8c0-3.3,0.6-6.2,1.8-8.6c1.2-2.4,2.8-4.3,5-5.5c2.1-1.3,4.5-1.9,7.2-1.9
		C504.3,600.1,506,600.4,507.5,600.9z"/>
	<path class="st1" d="M532.9,610.5c2,2.2,3.1,5.3,3.1,9.2c0,2.5-0.5,4.7-1.4,6.6c-0.9,1.9-2.3,3.3-4,4.4c-1.7,1-3.8,1.5-6.1,1.5
		c-3.6,0-6.4-1.1-8.4-3.3c-2.1-2.2-3.1-5.3-3.1-9.2c0-2.5,0.5-4.7,1.4-6.6c0.9-1.9,2.3-3.3,4-4.4c1.7-1,3.8-1.5,6.1-1.5
		C528,607.3,530.9,608.4,532.9,610.5z M521.2,614.2c-0.7,1.2-1.1,3-1.1,5.6s0.3,4.4,1,5.6c0.7,1.2,1.8,1.8,3.2,1.8s2.5-0.6,3.2-1.8
		s1.1-3,1.1-5.6s-0.3-4.4-1-5.6s-1.8-1.8-3.2-1.8S522,613,521.2,614.2z"/>
	<path class="st1" d="M558.7,609.1c1.2,1.2,1.7,3,1.7,5.2v17.2h-7v-16c0-1.2-0.2-2-0.6-2.5c-0.4-0.5-0.9-0.7-1.7-0.7
		c-1.4,0-2.8,1-4.1,3.1v16.1h-7V608h6.1l0.5,2.8c1-1.2,2.1-2.1,3.3-2.7c1.2-0.6,2.5-0.9,3.9-0.9
		C555.9,607.3,557.5,607.9,558.7,609.1z"/>
	<path class="st1" d="M586.7,598.7v32.9h-6.2l-0.4-2.7c-1.7,2.3-3.9,3.5-6.7,3.5c-2.9,0-5.1-1.1-6.7-3.4c-1.5-2.2-2.3-5.3-2.3-9.2
		c0-2.4,0.4-4.5,1.2-6.4s1.9-3.4,3.4-4.4s3.1-1.6,5-1.6c2.2,0,4.1,0.7,5.6,2.2V598L586.7,598.7z M579.7,624.5v-10.1
		c-0.6-0.7-1.1-1.2-1.7-1.5c-0.6-0.3-1.2-0.5-2-0.5c-1.3,0-2.3,0.6-3.1,1.8s-1.2,3.1-1.2,5.6c0,2.7,0.3,4.7,1,5.8s1.6,1.6,2.9,1.6
		C577.3,627.1,578.6,626.2,579.7,624.5z"/>
	<path class="st1" d="M612.1,631.5H606l-0.3-3c-1.7,2.5-4.1,3.7-7.1,3.7c-2.2,0-3.8-0.6-4.9-1.9c-1.1-1.3-1.7-3.1-1.7-5.4V608h7v16
		c0,1.2,0.2,2,0.6,2.4c0.4,0.5,0.9,0.7,1.7,0.7c1.5,0,2.7-0.9,3.8-2.7V608h7V631.5z"/>
	<path class="st1" d="M632.1,608c1.3,0.5,2.5,1.2,3.7,2.2l-3,4.2c-1.5-1.1-3-1.7-4.5-1.7c-1.6,0-2.7,0.6-3.5,1.7
		c-0.8,1.2-1.2,3-1.2,5.6c0,2.5,0.4,4.2,1.2,5.3c0.8,1,1.9,1.5,3.5,1.5c0.8,0,1.5-0.1,2.2-0.4c0.6-0.2,1.4-0.7,2.3-1.2l3.1,4.3
		c-2.3,1.9-5,2.8-7.9,2.8c-2.4,0-4.5-0.5-6.2-1.5s-3.1-2.5-4-4.3s-1.4-4-1.4-6.5s0.5-4.7,1.4-6.6c0.9-1.9,2.3-3.4,4-4.5
		s3.8-1.6,6.1-1.6C629.4,607.3,630.8,607.5,632.1,608z"/>
	<path class="st1" d="M653.5,630.4c-0.9,0.6-1.9,1-3,1.4c-1.1,0.3-2.3,0.5-3.4,0.5c-5.1,0-7.7-2.9-7.7-8.5v-10.9h-3.3V608h3.3v-5.1
		l7-0.8v5.9h5.4l-0.8,4.9h-4.6v10.8c0,1.1,0.2,1.9,0.5,2.3c0.4,0.5,0.9,0.7,1.7,0.7s1.6-0.2,2.5-0.8L653.5,630.4z"/>
	<path class="st1" d="M673.7,610.5c2,2.2,3.1,5.3,3.1,9.2c0,2.5-0.5,4.7-1.4,6.6c-0.9,1.9-2.3,3.3-4,4.4c-1.7,1-3.8,1.5-6.1,1.5
		c-3.6,0-6.4-1.1-8.4-3.3c-2.1-2.2-3.1-5.3-3.1-9.2c0-2.5,0.5-4.7,1.4-6.6c0.9-1.9,2.3-3.3,4-4.4c1.7-1,3.8-1.5,6.1-1.5
		C668.8,607.3,671.7,608.4,673.7,610.5z M662,614.2c-0.7,1.2-1.1,3-1.1,5.6s0.3,4.4,1,5.6c0.7,1.2,1.8,1.8,3.2,1.8s2.5-0.6,3.2-1.8
		s1.1-3,1.1-5.6s-0.3-4.4-1-5.6s-1.8-1.8-3.2-1.8S662.8,613,662,614.2z"/>
	<path class="st1" d="M696,607.6l-1.1,6.8c-0.9-0.2-1.6-0.3-2.1-0.3c-1.4,0-2.4,0.5-3.2,1.4c-0.7,1-1.3,2.4-1.7,4.3v11.6h-7V608h6.1
		l0.6,4.6c0.5-1.6,1.3-2.9,2.4-3.8s2.3-1.4,3.7-1.4C694.5,607.3,695.3,607.4,696,607.6z"/>
	<path class="st1" d="M716.2,626.6c0.2,0.4,0.7,0.7,1.2,0.9l-1.5,4.6c-1.4-0.1-2.6-0.4-3.5-1c-0.9-0.5-1.6-1.3-2.1-2.5
		c-1.5,2.4-3.9,3.5-7.1,3.5c-2.3,0-4.2-0.7-5.6-2c-1.4-1.4-2.1-3.1-2.1-5.3c0-2.6,0.9-4.5,2.8-5.9c1.9-1.4,4.6-2,8.2-2h2.4v-1
		c0-1.4-0.3-2.3-0.9-2.9c-0.6-0.5-1.6-0.8-3.1-0.8c-0.8,0-1.7,0.1-2.8,0.3s-2.2,0.5-3.4,0.9l-1.6-4.6c1.5-0.6,3-1,4.5-1.3
		s3-0.4,4.3-0.4c3.4,0,5.8,0.7,7.4,2.1c1.6,1.4,2.3,3.5,2.3,6.2v9.1C715.8,625.6,715.9,626.2,716.2,626.6z M708.9,625v-4.2h-1.7
		c-1.6,0-2.8,0.3-3.6,0.8c-0.8,0.6-1.2,1.4-1.2,2.6c0,0.9,0.2,1.7,0.7,2.2s1.2,0.8,2,0.8C706.8,627.3,708,626.5,708.9,625z"/>
</g>
<g class="st0">
	<path class="st1" d="M512.8,674.6l-8.5,30.7h-9l-8.9-30.7h7.7l5.8,25l5.5-25H512.8z"/>
	<path class="st1" d="M534.2,695.6h-14.6c0.2,2,0.8,3.4,1.7,4.2s2.1,1.2,3.7,1.2c0.9,0,1.9-0.2,2.7-0.5c0.9-0.3,1.8-0.9,2.9-1.6
		l2.9,3.9c-2.7,2.2-5.8,3.3-9.2,3.3c-3.8,0-6.7-1.1-8.8-3.4c-2-2.2-3.1-5.3-3.1-9c0-2.4,0.4-4.5,1.3-6.4c0.9-1.9,2.1-3.4,3.8-4.5
		s3.6-1.7,5.9-1.7c3.4,0,6.1,1.1,8,3.2c1.9,2.1,2.9,5.1,2.9,8.9C534.3,694.1,534.3,694.9,534.2,695.6z M527.4,691.1
		c-0.1-3.6-1.3-5.4-3.8-5.4c-1.2,0-2.1,0.4-2.8,1.3s-1.1,2.3-1.2,4.4h7.8V691.1z"/>
	<path class="st1" d="M568.7,682.9c1.1,1.3,1.7,3,1.7,5.2v17.2h-7v-16c0-2.1-0.7-3.1-2-3.1c-0.7,0-1.4,0.3-1.9,0.8
		c-0.6,0.5-1.1,1.3-1.6,2.3v16.1h-7v-16c0-2.1-0.7-3.1-2-3.1c-0.7,0-1.4,0.3-1.9,0.8c-0.6,0.5-1.1,1.3-1.7,2.3v16.1h-7V682h6.1
		l0.5,2.7c0.9-1.2,1.9-2.1,3-2.6c1.1-0.6,2.4-0.9,3.8-0.9c1.3,0,2.5,0.3,3.4,1c1,0.6,1.7,1.6,2.1,2.7c0.9-1.3,2-2.2,3.1-2.8
		s2.4-0.9,3.9-0.9C566.1,681,567.6,681.7,568.7,682.9z"/>
	<path class="st1" d="M595.5,705.3h-6.1l-0.3-3c-1.7,2.5-4.1,3.7-7.1,3.7c-2.2,0-3.8-0.6-4.9-1.9c-1.1-1.3-1.7-3.1-1.7-5.4v-16.9h7
		v16c0,1.2,0.2,2,0.6,2.4c0.4,0.5,0.9,0.7,1.7,0.7c1.5,0,2.7-0.9,3.8-2.7v-16.3h7V705.3z"/>
	<path class="st1" d="M616.1,681.4l-1.1,6.8c-0.9-0.2-1.6-0.3-2.1-0.3c-1.4,0-2.4,0.5-3.2,1.4c-0.7,1-1.3,2.4-1.7,4.3v11.6h-7v-23.5
		h6.1l0.6,4.6c0.5-1.6,1.3-2.9,2.4-3.8s2.3-1.4,3.7-1.4C614.6,681.1,615.4,681.2,616.1,681.4z"/>
	<path class="st1" d="M636.3,700.4c0.2,0.4,0.7,0.7,1.2,0.9l-1.5,4.6c-1.4-0.1-2.6-0.4-3.5-1c-0.9-0.5-1.6-1.3-2.1-2.5
		c-1.5,2.4-3.9,3.5-7.1,3.5c-2.3,0-4.2-0.7-5.6-2c-1.4-1.4-2.1-3.1-2.1-5.3c0-2.6,0.9-4.5,2.8-5.9c1.9-1.4,4.6-2,8.2-2h2.4v-1
		c0-1.4-0.3-2.3-0.9-2.9c-0.6-0.5-1.6-0.8-3.1-0.8c-0.8,0-1.7,0.1-2.8,0.3s-2.2,0.5-3.4,0.9l-1.6-4.6c1.5-0.6,3-1,4.5-1.3
		s3-0.4,4.3-0.4c3.4,0,5.8,0.7,7.4,2.1c1.6,1.4,2.3,3.5,2.3,6.2v9.1C635.9,699.4,636,700,636.3,700.4z M629,698.8v-4.2h-1.7
		c-1.6,0-2.8,0.3-3.6,0.8c-0.8,0.6-1.2,1.4-1.2,2.6c0,0.9,0.2,1.7,0.7,2.2s1.2,0.8,2,0.8C626.9,701.1,628.1,700.3,629,698.8z"/>
	<path class="st1" d="M650,677.6c-0.4,0.5-0.7,1.3-0.7,2.4v1.8h5.5l-0.8,4.9h-4.8v18.6h-7v-18.6h-3.5v-4.9h3.5v-2.1
		c0-2.4,0.8-4.3,2.3-5.8s3.8-2.2,6.7-2.2c2.3,0,4.5,0.5,6.4,1.5l-1.9,4.6c-1.2-0.6-2.4-0.9-3.7-0.9
		C651.2,676.9,650.5,677.1,650,677.6z"/>
	<path class="st1" d="M677.1,695.6h-14.6c0.2,2,0.8,3.4,1.7,4.2s2.1,1.2,3.7,1.2c0.9,0,1.9-0.2,2.7-0.5c0.9-0.3,1.8-0.9,2.9-1.6
		l2.9,3.9c-2.7,2.2-5.8,3.3-9.2,3.3c-3.8,0-6.7-1.1-8.8-3.4c-2-2.2-3.1-5.3-3.1-9c0-2.4,0.4-4.5,1.3-6.4c0.9-1.9,2.1-3.4,3.8-4.5
		s3.6-1.7,5.9-1.7c3.4,0,6.1,1.1,8,3.2c1.9,2.1,2.9,5.1,2.9,8.9C677.3,694.1,677.2,694.9,677.1,695.6z M670.4,691.1
		c-0.1-3.6-1.3-5.4-3.8-5.4c-1.2,0-2.1,0.4-2.8,1.3s-1.1,2.3-1.2,4.4h7.8V691.1z"/>
	<path class="st1" d="M699.8,682.9c1.2,1.2,1.7,3,1.7,5.2v17.2h-7v-16c0-1.2-0.2-2-0.6-2.5c-0.4-0.5-0.9-0.7-1.7-0.7
		c-1.4,0-2.8,1-4.1,3.1v16.1h-7v-23.5h6.1l0.5,2.8c1-1.2,2.1-2.1,3.3-2.7c1.2-0.6,2.5-0.9,3.9-0.9C697,681,698.6,681.7,699.8,682.9z
		"/>
	<path class="st1" d="M713.2,670.5c0.8,0.8,1.2,1.7,1.2,2.9s-0.4,2.1-1.2,2.9c-0.8,0.8-1.8,1.1-3,1.1s-2.2-0.4-3-1.1
		c-0.8-0.8-1.2-1.7-1.2-2.9s0.4-2.1,1.2-2.9c0.8-0.8,1.8-1.1,3-1.1S712.4,669.8,713.2,670.5z M713.8,681.8v23.5h-7v-23.5H713.8z"/>
	<path class="st1" d="M739,684.3c1.5,2.2,2.3,5.3,2.3,9.2c0,2.4-0.4,4.6-1.1,6.5s-1.8,3.4-3.2,4.4c-1.4,1.1-3.1,1.6-5,1.6
		c-1.3,0-2.4-0.3-3.5-0.8s-1.9-1.3-2.7-2.2l-0.4,2.3h-6.2v-32.9l7-0.8v12.5c0.7-1,1.6-1.7,2.7-2.3s2.3-0.8,3.6-0.8
		C735.4,681,737.5,682.1,739,684.3z M734,693.6c0-2.8-0.3-4.7-1-5.8c-0.6-1.1-1.6-1.6-2.8-1.6c-1.6,0-2.9,0.9-4,2.7v9.8
		c0.4,0.7,1,1.3,1.6,1.7s1.3,0.6,2.1,0.6C732.7,701,734,698.5,734,693.6z"/>
</g>
<rect x="2.9" y="5.2" class="st2" width="783.9" height="725.6"/>
<line class="st2" x1="2.9" y1="427.9" x2="787.1" y2="427.9"/>
<line class="st2" x1="2.9" y1="503.9" x2="787.1" y2="503.9"/>
<line class="st2" x1="2.9" y1="579.5" x2="787.1" y2="579.5"/>
<line class="st2" x1="2.9" y1="655.2" x2="787.1" y2="655.2"/>
<g>
	<path class="st3" d="M430.9,221.2c14.2-9.6,28.2-21.8,39.7-39.8c19.2-30.4,28-72.3,28-131.9h-30.1c0,52.9-7.7,90.8-23.4,115.9
		c-11.6,18.4-26.8,28.8-43.2,38.6c-16.4-9.8-31.4-20.1-43.2-38.6c-15.9-25.1-23.4-62.9-23.4-115.9h-29.9c0,59.4,8.9,101.5,28,131.9
		c11.4,18.1,25.6,30.3,39.7,39.8c-14.6,9.6-28.6,21.6-40.2,39.8c-18.8,29.5-27.5,70.3-27.5,127.8h30.1c0-50.9,7.4-87.6,22.9-111.8
		c11.6-18.3,26.9-28.6,43.5-38.6c16.6,9.8,31.9,20.1,43.5,38.6c15.5,24.2,22.9,60.9,22.9,111.8h30.1c0-57.7-8.9-98.3-27.5-127.8
		C459.5,242.8,445.5,231,430.9,221.2z"/>
	<polygon class="st4" points="292.3,86 279.2,77.9 279.2,91 266.3,91 274.1,104.1 266.3,117 279.2,117 279.2,130.1 292.3,122.2 
		305.2,130.1 305.2,117 318.3,117 310.4,104.1 318.3,91 305.2,91 305.2,77.9 	"/>
</g>
<g class="st0">
	<path class="st1" d="M512.8,527l-8.5,30.7h-9l-8.9-30.7h7.7l5.8,25l5.5-25H512.8z"/>
	<path class="st1" d="M531.6,538.7c1.3,0.8,2.3,1.9,3.1,3.4c0.7,1.5,1.1,3.3,1.1,5.3c0,2-0.4,3.9-1.3,5.6c-0.9,1.7-2.1,3-3.8,4
		c-1.6,1-3.5,1.5-5.7,1.5c-3.8,0-6.7-1.3-8.5-3.9c-1.9-2.6-2.8-6.1-2.8-10.6c0-3.4,0.5-6.3,1.6-8.9c1-2.5,2.6-4.5,4.5-5.9
		s4.3-2.1,6.9-2.1c2.6,0,4.8,0.7,6.8,2l-2.6,4.2c-1.3-0.8-2.7-1.2-4.1-1.2c-1.7,0-3,0.7-4.1,2.1c-1,1.4-1.7,3.4-1.9,6
		c1.8-1.8,3.9-2.7,6.3-2.7C528.9,537.6,530.3,538,531.6,538.7z M527.9,551.9c0.6-1,1-2.5,1-4.3c0-1.9-0.3-3.2-0.9-4
		c-0.6-0.8-1.5-1.2-2.7-1.2c-1.6,0-3.1,0.8-4.4,2.3c0.1,3.2,0.4,5.4,1,6.7c0.6,1.3,1.7,2,3.1,2C526.3,553.5,527.2,552.9,527.9,551.9
		z"/>
	<path class="st1" d="M558.3,531.2c1.9,2.7,2.9,6.6,2.9,11.6c0,5-1,8.9-2.9,11.6s-4.7,4.1-8.4,4.1s-6.5-1.4-8.4-4.1
		s-2.9-6.6-2.9-11.6c0-5,1-8.9,2.9-11.6c1.9-2.7,4.7-4,8.4-4S556.3,528.5,558.3,531.2z M547.5,533.3c-0.6,0.6-1,1.7-1.3,3.2
		c-0.3,1.5-0.4,3.6-0.4,6.2c0,2.7,0.1,4.7,0.4,6.3c0.3,1.5,0.7,2.6,1.3,3.3c0.6,0.6,1.4,1,2.4,1s1.8-0.3,2.4-1
		c0.6-0.6,1-1.7,1.3-3.2c0.3-1.5,0.4-3.6,0.4-6.3s-0.1-4.8-0.4-6.3c-0.3-1.5-0.7-2.6-1.3-3.2c-0.6-0.6-1.4-0.9-2.4-0.9
		S548.1,532.7,547.5,533.3z"/>
	<path class="st1" d="M584.2,531.2c1.9,2.7,2.9,6.6,2.9,11.6c0,5-1,8.9-2.9,11.6c-1.9,2.7-4.7,4.1-8.4,4.1c-3.7,0-6.5-1.4-8.4-4.1
		c-1.9-2.7-2.9-6.6-2.9-11.6c0-5,1-8.9,2.9-11.6c1.9-2.7,4.7-4,8.4-4C579.5,527.2,582.2,528.5,584.2,531.2z M573.4,533.3
		c-0.6,0.6-1,1.7-1.3,3.2c-0.3,1.5-0.4,3.6-0.4,6.2c0,2.7,0.1,4.7,0.4,6.3c0.3,1.5,0.7,2.6,1.3,3.3s1.4,1,2.4,1c1,0,1.8-0.3,2.4-1
		c0.6-0.6,1-1.7,1.3-3.2s0.4-3.6,0.4-6.3s-0.1-4.8-0.4-6.3s-0.7-2.6-1.3-3.2c-0.6-0.6-1.4-0.9-2.4-0.9
		C574.8,532.3,574,532.7,573.4,533.3z"/>
	<path class="st1" d="M610.4,527l-0.8,5.2h-10.8v7.3h9.4v5.1h-9.4v7.8h11.6v5.2h-18.8V527H610.4z"/>
</g>
</svg>
