<?xml version="1.0" encoding="utf-8"?>
<!-- Generator: Adobe Illustrator 24.1.0, SVG Export Plug-In . SVG Version: 6.00 Build 0)  -->
<svg version="1.1" id="Capa_1" xmlns="http://www.w3.org/2000/svg" xmlns:xlink="http://www.w3.org/1999/xlink" x="0px" y="0px"
	 viewBox="0 0 1379.6 786.4" style="enable-background:new 0 0 1379.6 786.4;" xml:space="preserve">
<style type="text/css">
	.st0{fill:#E0EADF;}
	.st1{fill:#C0D9DF;}
	.st2{fill:#FF2A2A;}
	.st3{fill:#373A47;}
	.st4{opacity:0.4;fill:#FFFFFF;enable-background:new    ;}
	.st5{fill:#FFFFFF;stroke:#8FB5BC;stroke-width:0.75;stroke-miterlimit:10;}
	.st6{fill:#FFFFFF;stroke:#FF2A2A;stroke-width:0.75;stroke-miterlimit:10;}
	.st7{fill:#F4F9F9;stroke:#FF2A2A;stroke-width:0.75;stroke-miterlimit:10;}
	.st8{fill:#ABDDDB;}
	.st9{fill:#FFFF00;}
	.st10{fill:#BCE2E2;stroke:#3B5E5C;stroke-width:0.3759;stroke-miterlimit:10;}
	.st11{fill:#F0F7F6;stroke:#3B5E5C;stroke-width:0.3759;stroke-miterlimit:10;}
	.st12{fill:#ABDDDB;stroke:#3B5E5C;stroke-width:0.3759;stroke-miterlimit:10;}
	.st13{fill:#C8E8E7;stroke:#3B5E5C;stroke-width:0.3759;stroke-miterlimit:10;}
	.st14{fill:#61F7EF;}
	.st15{fill:#FFFFFF;stroke:#3B5E5C;stroke-width:0.3759;stroke-miterlimit:10;}
	.st16{fill:none;stroke:#3B5E5C;stroke-width:0.3759;stroke-miterlimit:10;}
</style>
<g>
	<g>
		<g>
			<path id="path882_6_" class="st0" d="M362.9,235.5c-1.9-10.5-6.6-21.8-12-31.1s-11.5-16.6-18.1-20.1s-13.7-3.3-23.9,2.8
				c-10.2,6.1-23.7,18.1-35,33.1c-11.3,15-20.5,32.9-25.7,44.4s-6.4,16.7-6.7,20.6c-0.4,3.9,0.1,6.5-2.5,19.8s-8.2,37.3-11.4,54
				s-3.9,25.3-3.9,30.9c0,5.5,0.7,7.7,5.2,10s13.2,4.9,22.7,3.9c9.5-1.1,20.1-5.8,30.6-9.7s20.9-7,28.9-9s13.7-2.9,20.6-10.2
				c7-7.3,15.2-21,20.6-40.3s8-44.3,9.8-61.6C363.8,255.6,364.8,246,362.9,235.5L362.9,235.5z"/>
			<path id="path882-7_6_" class="st1" d="M362.9,235.5c-1.9-10.5-6.6-21.8-12-31.1s-11.5-16.6-18.1-20.1s-13.7-3.3-23.9,2.8
				c-10.2,6.1-23.7,18.1-35,33.1c-11.3,15-20.5,32.9-25.7,44.4s-6.4,16.7-6.7,20.6c-0.4,3.9,0.1,6.5,7.1,24.3s20.4,50.8,32.3,65.7
				c11.9,15,22.3,11.9,30.3,9.9s13.7-2.9,20.6-10.2c7-7.3,15.2-21,20.6-40.3s8-44.3,9.8-61.6C363.8,255.6,364.8,246,362.9,235.5
				L362.9,235.5z"/>
			<path id="path882-7-9_6_" class="st0" d="M362.9,235.5c-1.9-10.5-6.6-21.8-12-31.1s-11.5-16.6-18.1-20.1s-13.7-3.3-23.9,2.8
				c-10.2,6.1-23.7,18.1-33,29c-9.3,10.8-14.5,20.6-18.4,27.9c-3.9,7.3-6.4,12.1-8.7,20.1c-2.4,8-4.6,19.1,13.2,32.3
				c17.8,13.2,55.5,28.5,75.6,23.7s22.7-29.8,24.5-47.1C363.8,255.6,364.8,246,362.9,235.5z"/>
			<path id="path882-8_6_" class="st1" d="M390.2,235.5c1.9-10.5,6.6-21.8,12-31.1s11.5-16.6,18.1-20.1s13.7-3.3,23.9,2.8
				s23.7,18.1,35,33.1c11.3,15,20.5,32.9,25.7,44.4s6.4,16.7,6.7,20.6c0.4,3.9-0.1,6.5,2.5,19.8s8.2,37.3,11.4,54
				c3.2,16.6,3.9,25.3,3.9,30.9c0,5.5-0.7,7.7-5.2,10s-13.2,4.9-22.7,3.9c-9.5-1.1-20.1-5.8-30.6-9.7c-10.5-3.9-20.9-7-28.9-9
				s-13.7-2.9-20.6-10.2c-7-7.3-15.2-21-20.6-40.3c-5.4-19.3-8-44.3-9.8-61.6C389.3,255.8,388.3,246.1,390.2,235.5L390.2,235.5z"/>
			<path id="path882-7-5_6_" class="st0" d="M390.2,235.5c1.9-10.5,6.6-21.8,12-31.1s11.5-16.6,18.1-20.1s13.7-3.3,23.9,2.8
				s23.7,18.1,35,33.1c11.3,15,20.5,32.9,25.4,43.2c4.8,10.4,5.4,13.3,7,22.5c1.4,9.2,3.8,24.7-4,50.3c-7.8,25.6-25.4,61-35.5,56.3
				c-9.9-4.7-11.9-49.6-20.9-68.6c-8.8-19-24.5-11.9-34-12.1s-13-7.8-16.5-16.7c-3.5-9-7.1-19.4-9.4-29.6S388.3,246.1,390.2,235.5
				L390.2,235.5z"/>
			<path class="st1" d="M423.6,239.3c-4.7,0.7-13.2,3.1-19.4,2.9c-3.8-0.1-10.8-2.5-15.8-8.1h0.2c-0.4-0.8-0.9-1.4-1.6-1.8
				c-0.5-0.7-1.1-1.5-1.4-2.4c2-0.2,3.4-1.9,3.4-3.9c0-2.1-1.8-3.9-3.9-3.9h-0.7v-1.9h0.7c2.1,0,3.9-1.8,3.9-3.9
				c0-2.1-1.8-3.9-3.9-3.9h-0.7v-1.8h0.7c2.1,0,3.9-1.8,3.9-3.9c0-2.1-1.8-3.9-3.9-3.9h-0.7V201h0.7c2.1,0,3.9-1.8,3.9-3.9
				c0-2.1-1.8-3.9-3.9-3.9h-0.7v-1.8h0.7c2.1,0,3.9-1.8,3.9-3.9c0-2.1-1.8-3.9-3.9-3.9h-0.7v-1.8h0.7c2.1,0,3.9-1.8,3.9-3.9
				c0-2.1-1.8-3.9-3.9-3.9h-0.7v-1.8h0.7c2.1,0,3.9-1.8,3.9-3.9c0-1.5-0.9-2.9-2.4-3.5h-17.1c-1.3,0.6-2.4,2-2.4,3.5
				c0,2.1,1.8,3.9,3.9,3.9h0.7v1.8H371c-2.1,0-3.9,1.8-3.9,3.9c0,2.1,1.8,3.9,3.9,3.9h0.7v1.8H371c-2.1,0-3.9,1.8-3.9,3.9
				c0,2.1,1.8,3.9,3.9,3.9h0.7v1.5H371c-2.1,0-3.9,1.8-3.9,3.9c0,2.1,1.8,3.9,3.9,3.9h0.7v1.8H371c-2.1,0-3.9,1.8-3.9,3.9
				c0,2.1,1.8,3.9,3.9,3.9h0.7v1.8H371c-2.1,0-3.9,1.8-3.9,3.9c0,2.1,1.8,3.9,3.9,3.9h0.7v1.8H371c-2.1,0-3.9,1.8-3.9,3.9
				c0,2.1,1.8,3.9,3.9,3.9h0.7v0.8c-0.2,0.4-0.6,0.7-0.8,0.9c-1.5,0-2.8,0.9-3.4,2.4h1.2c-6.1,5.5-15.3,8.8-18.4,10
				c-4.5,1.6-9.2,1.4-14.6,1.5c-5.5,0.1-12.4,0.5-12.1,1.3c0.2,0.8,7.3,2.1,13,3.3c5.8,1.2,10.2,2.1,11.4,4.9
				c1.2,2.8-1.1,7.4-4.5,10.2c-3.5,2.8-8.5,4-14.6,5.7c-6.1,1.6-13.5,3.8-13.4,4.5s8.1,0.1,12.4,2.7c4.2,2.6,5.1,8.5,6.1,12
				c1.1,3.5,2.5,4.7,2.9,2c0.5-2.7,0.1-9.3,1.8-13.7c1.5-4.5,5.1-6.7,6.8-7.9c1.8-1.2,17.2-16.4,19.6-17.7s7-3.9,11.3-4.5
				c4.4-0.6,8.4,0.9,13.8,5.4c5.5,4.5,12.5,12,17.6,16.4c4.9,4.4,8,5.5,9.7,4.9c1.6-0.5,2-2.6-0.9-7.2c-2.9-4.5-9.1-11.4-9.8-15.3
				c-0.7-3.9,3.9-4.9,8.7-6.4s9.8-3.4,11.8-4.9C429.3,239.7,428.3,238.6,423.6,239.3z"/>
		</g>
	</g>
	<path class="st2" d="M448.7,271.9c-6.9,30.9,32.6,64.2,58.8,50.9c14.1-7.2,5.3-32.3,0.8-50.1C499.5,239.7,454.8,244.6,448.7,271.9z
		"/>
</g>
<g>
	<g>
		<polygon class="st3" points="567.9,270.5 589,270.5 589,262.9 607.6,281.5 589,300.1 589,292.5 567.9,292.5 		"/>
	</g>
</g>
<g>
	<g>
		<g>
			<g id="sVTMiL.tif_9_">
				<g>
					<path class="st1" d="M466.9,680c1.7,1.7,3.6,0.9,4.9-0.6c3.9-3.7,7.7-7.5,11.4-11.2c3.2-3.2,6.7-6.6,9.7-9.9
						c2.1-2.4,4.7-4.5,6.7-6.7c2.4-2.4,4.9-4.9,7.1-7.1c5.4-6,11-11.6,16.3-18c3.7-4.7,6.7-9.9,9.9-15c0.4-0.7,0.7-1.3,0.9-2.1
						c1.3-1.9,2.8-3.7,4.1-5.6c1.3-2.1,2.8-3.9,3.9-6.2c2.8-6.2,5.6-12.4,8.4-18.3c3-6.7,6.2-13.5,9.4-20c2.8-5.4,5.4-10.7,8.6-15.9
						c4.1-6.7,9-13.1,15.2-18.2c5.8-4.9,12.5-8.6,18.7-12.7c4.3-2.8,8.6-6.2,12.9-9c3.2-2.1,6.7-3.7,9.7-6c6.9-4.9,14.2-9.4,21-14.4
						c5.1-3.7,9.9-8,14.8-12.2c6-4.9,12.9-7.7,20.4-8.8c8-1.3,15.9-2.6,24-3.7c5.4-0.9,11-1.7,16.5-2.2c4.7-0.4,9.4-0.2,14-0.2
						c2.4,0,4.9,0,7.3,0c0.9,0,2.1,0.2,3,0.4c2.2,0.6,2.6,1.3,1.5,3.4c-0.9,2.1-1.7,3.9-4.7,3.4c-0.9-0.2-1.9,0.4-2.8,0.7
						c-5.8,3.2-11.8,6.6-17.4,9.9c-3.6,2.2-6.7,5.1-10.1,7.7c-3.6,2.6-7.5,4.9-11.2,7.1c-2.6,1.7-4.9,3.4-7.5,5.1
						c-5.1,3-10.1,6.4-15.3,9c-8.6,4.5-15.7,10.5-22.1,17.8c-6.9,7.9-14.2,15.3-22.3,21.9c-4.3,3.4-8.4,6.7-12.5,10.1l-0.2,0.2
						c-0.4,1.3-0.9,2.6-1.1,3.9c1.1-0.2,2.8,0.2,3.7-0.6c3.2-2.2,6.2-4.7,9.2-6.9c3.9-3.2,7.9-6.6,11.6-10.1c2.4-2.4,6-3.7,6.7-7.7
						c0.4-1.1,2.6-1.9,3.6-3c4.7-4.9,8.8-9.7,13.7-14.4c1.5-1.5,3.6-2.6,5.2-3.7c2.8-1.7,5.6-2.8,7.7-5.6c0.9-1.3,3.4-1.3,4.9-2.2
						c5.6-3.4,11.4-6.7,16.8-10.3c6-3.9,11.6-8,17.4-12.2c0.4-0.2,0.7-0.6,0.9-0.9c1.5-1.5,3-2.8,5.2-3.7c3-1.1,6.4-3.2,8.6-5.6
						c3-3,6.4-2.8,9.9-2.2c8,1.3,12.7,6.7,16.3,13.7c1.9,3.7,3.6,7.5,4.1,11.6c0.7,7.1,1.1,14-2.8,20.8c-3,5.4-7.3,9.5-12.2,13.1
						c-3.2,2.4-7.1,4.3-10.7,6.2c-2.4,1.1-4.9,2.4-5.2,4.7c-1.5,0.6-2.8,0.6-3.7,1.1c-5.2,3.9-10.5,7.7-15.5,12
						c-4.7,3.9-8.6,8.6-11.6,14c-2.8,4.9-5.6,9.5-8.6,14.2c-3.7,6-7.9,11.6-11.6,17.6c-1.3,2.2-2.2,4.9-3,7.5
						c-2.4,6.4-4.9,12.7-7.1,19.1c-3.2,8.6-6.4,17.4-9.4,26c-2.4,6.7-4.7,13.9-7.3,20.4c-2.1,5.1-4.9,9.9-6.9,14.8
						c-1.9,4.1-3.9,8.2-7.1,11.6c-2.6,2.8-5.1,5.4-7.9,8c-3.6,3.2-7.1,6.6-10.9,9.4c-4.9,3.6-10.3,6.7-15.3,10.1
						c-3.6,2.4-7.1,4.9-10.7,7.3l0.4,0.9c2.4-0.4,4.9-0.6,7.1-1.3c3.9-1.5,7.7-3.4,11.4-5.1c2.4-1.1,4.9-2.4,6.9-3.9
						c3.2-2.4,6.4-4.9,9.2-7.5c1.3-1.3,2.8-1.3,3.9-0.9c6.9,2.6,14.2,3.7,21.5,4.9c3.9,0.6,8,0.7,12.7,0.9c-0.9,1.9-1.5,3.2-2.4,4.3
						c-2.4,3.2-4.7,6.6-7.3,9.4c-1.5,1.7-3.6,3-5.6,4.3c-4.5,2.8-9,5.4-13.5,8c-2.8,1.5-5.4,3.4-8.6,4.5c-4.9,1.7-9.7,3.9-15.3,3.7
						c-3.7-0.2-7.5,1.1-11,2.2c-4.9,1.3-9.9,3-14.8,4.5c-6.7,1.7-13.5,4.3-19.5,8c-2.4,1.5-4.5,3.7-6.7,5.6c-1.3,0.9-2.8,1.9-3.9,3
						c-0.7,0.7-1.3,1.7-1.5,2.8c-0.7,2.4-0.2,2.8,2.2,2.2c4.7-1.3,8.6-4.1,12.2-7.1c2.4-2.1,4.9-3.9,7.5-5.2
						c2.8-1.3,5.8-1.9,8.6-2.8c3.4-0.9,6.7-2.4,10.1-3.2c4.7-1.1,9-2.4,13.7-3.2c2.6-0.6,5.2-0.2,8-0.7c2.6-0.6,5.1-1.3,7.5-2.1
						c8.6-2.4,15.9-7.5,23.4-11.8c7.1-4.1,13.1-10.3,17.4-17.4c1.5-2.8,2.6-5.6,3.9-8.6c6,0.6,12.4,0.7,18.3-1.1
						c1.5-0.6,3-1.3,4.9-1.9c2.8-1.1,5.8-2.2,8.6-3.4c4.3-1.9,7.3-5.2,8.6-9.7c1.1-3.7,2.6-7.7,3-11.6c0.6-3.4,0.2-6.9,0.2-10.5
						c0-1.1,0.6-1.5,1.3-2.2c3.7-3.2,7.1-6.7,10.7-9.9c1.9-1.7,4.1-3.2,6-4.9c5.6-4.7,11-9.2,16.7-13.9c4.3-3.4,6.2-8,6.2-13.3
						c-0.2-7.9-0.6-15.9-0.4-23.8c0-2.2,1.7-4.3,2.6-6.6c1.3-3.7,3-7.5,3.7-11.4c0.9-6.4,1.1-12.5,1.5-18.9
						c0.4-6.9,0.7-13.9,0.9-20.8c0-2.1-0.2-4.1-0.2-6c3,0.4,5.8,0.9,8.6,0.9c4.5-0.4,7.3-3.6,9.5-6.7c6.4-9.4,8.8-19.7,7.1-30.9
						c-1.5-9.9-3.6-19.8-6.7-29.4c-0.9-2.4-2.4-3.9-4.1-4.3c-0.4-2.6-0.2-4.7-0.9-6.6c-1.1-3,0.9-5.1,1.9-7.3c1.3-3.2,3-6.4,4.7-9.4
						c0.4-0.9,1.1-1.3,1.7-2.1c2.2-2.8,4.5-5.8,6.6-8.8c0.9-1.5,1.7-3.2,2.8-4.7c0.7-0.7,2.1-0.9,3-0.9c5.6,0,10.3,3,15.5,4.3
						c5.2,1.1,10.5,2.8,15.7,3.9c6.6,1.3,13.1,2.4,19.7,3.6c2.6,0.4,5.2,0.6,7.9,0.7c4.9,0.4,9.7,0.9,14.6,0.9
						c5.4,0.2,10.9,0,16.3-0.4c6.9-0.4,13.9-0.9,20.8-1.9c6.6-0.9,12.9-2.4,19.3-3.7c4.9-0.9,9.4-2.2,14-3.6
						c4.3-1.3,8.6-2.8,12.7-4.5c3.9-1.3,7.9-2.8,11.6-4.7c7.5-3.6,14.8-7.7,22.1-11.4c2.2-1.1,4.7-2.2,6.7-3.6
						c6.2-4.1,12.4-8,18.2-12.4c5.4-4.1,10.5-8.6,15.7-13.1c3.7-3.4,7.1-7.1,10.5-10.7c3.9-4.1,7.9-8.2,11.4-12.5s6.9-8.6,10.1-13.5
						c5.1-7.7,10.1-15.3,14.4-23.2c3.2-5.8,6.2-11.8,8.8-18c0.9-2.4,1.5-5.1,2.4-7.7c0.6-1.7,1.3-3.4,2.1-5.1
						c1.3-4.1,2.8-8.2,3.9-12.4c1.1-4.1,2.8-8.2,3.6-12.4c1.3-7.1,2.6-14.4,3.7-21.7c0.6-3.6,1.1-7.3,1.5-10.9
						c0.4-3.7,0.2-7.5,0.2-11c0-6.7,0-13.7-0.4-20.4c-0.2-3.7-0.7-7.5-0.9-11c-0.2-1.9-0.4-3.9-0.7-5.8c-1.3-6.9-2.2-14.2-4.1-20.8
						c-1.3-4.5-1.5-9.2-4.1-13.5c-2.6-4.7-3.2-10.5-4.9-15.5c-1.1-3.6-3-6.9-4.7-10.5c-0.9-2.1-1.9-4.3-2.8-6.4
						c-1.7-3.6-3.2-7.1-5.1-10.5c-2.2-3.9-4.9-7.9-7.5-11.6c-4.5-6.4-8.6-12.5-13.3-18.7c-2.8-3.9-6-7.7-9.4-11
						c-6.9-6.9-13.9-14-21.5-20.2c-8.2-6.7-16.8-13.1-26-18.9c-6.4-4.1-13.5-6.7-20.2-10.5c-1.3-0.7-2.4-2.2-3.7-2.8
						c-6.6-2.8-12.7-5.8-19.5-8c-9.9-3.2-20-5.8-29.9-8.6c-3.9-0.9-8-1.9-12-2.2c-9.7-0.9-19.3-0.9-29-2.2
						c-7.3-0.9-14.4,0.2-21.5,0.6c-5.6,0.2-11,0.9-16.5,1.9c-8.6,1.3-17,2.8-25.5,4.7c-4.3,0.9-8.2,2.8-12.4,4.1
						c-2.8,0.9-5.4,1.5-8.2,2.6c-6.2,2.6-12.5,5.1-18.3,8c-4.1,1.9-8.2,4.1-12.2,6.4c-3.9,2.2-7.5,4.9-11.2,6.9
						c-3.9,2.4-8,4.7-11.6,7.3c-4.5,3.2-8.6,6.7-12.5,10.5c-4.3,3.9-8.6,7.9-12.7,12c-4.3,4.3-8.4,8.6-12.2,13.1
						c-3.6,4.3-6.7,8.6-10.3,12.9c-2.1,2.6-4.3,4.9-6,7.7c-2.4,3.6-4.3,7.5-6.7,11c-5.1,7.9-9,16.1-12.7,24.5
						c-2.6,5.8-4.3,12.2-6.4,18.2c-1.3,3.7-2.8,7.5-4.1,11.2c-0.9,3.2-1.7,6.7-2.2,9.9c-1.7,9.7-3.7,19.5-4.9,29.4
						c-0.9,9.9-0.9,19.8-0.9,29.8c0.2,6.7,0.9,13.9,1.7,20.6c0.9,6.7,2.4,13.7,4.1,20.2c1.1,4.9,2.8,9.4,4.3,14.2
						c2.1,6.7,3.9,13.7,6.4,20.2c1.3,3.9,3.4,7.7,5.2,11.6c1.9,3.9,3.7,7.9,6,11.6c3.4,5.8,6.9,11.4,10.7,17
						c3.4,5.1,6.7,10.1,10.5,15c3,4.1,6.6,7.9,10.1,11.6c5.4,5.6,11,11,16.8,16.3c3,2.8,6.4,5.6,9.7,8.2c5.2,3.9,10.7,7.7,16.3,11.4
						c0.7,0.6,1.7,0.7,2.2,1.1c0.7,0.9,1.9,2.6,1.5,3.6c-1.1,4.1-2.8,8-4.5,12c-2.8,6.2-5.4,12.4-8.2,18.3c-0.6,0.9-0.9,1.9-1.7,3
						c-3.2-2.1-6.4-1.9-9.5-1.7c-3.4,0.2-6.7,0-10.1,0c-4.7,0.2-9.2,0.6-13.9,0.9c-5.6,0.7-11.2,1.5-16.8,2.4
						c-7.3,0.9-14.6,1.9-22.1,3.6c-8.6,1.9-16.1,6-22.6,12c-5.1,4.7-11,8.4-16.7,12.5c-4.5,3.2-9,6.6-13.7,9.5
						c-4.5,2.8-8.8,5.6-13.3,8.6c-3.6,2.4-7.1,5.1-10.7,7.5c-1.9,1.3-3.9,2.4-5.8,3.6c-6.7,4.7-13.7,9-19.3,15.2
						c-5.8,6.4-10.5,13.5-14.4,21c-3.7,7.3-7.7,14.6-11.4,22.1c-1.5,3-2.2,6.4-3.7,9.4c-2.2,4.3-4.9,8.2-7.3,12.5
						c-2.6,4.7-5.1,9.2-7.9,13.7c-1.5,2.8-3.4,5.1-5.1,7.7c-0.9,1.1-1.3,2.8-2.4,3.9c-3.6,4.5-7.3,8.6-10.9,13.3
						c-4.3,5.2-9.9,9-14.4,14.2c-3.9,4.5-8,8.8-12.2,13.3c-2.8,2.8-5.8,5.6-8.6,8.4c-3,2.8-6.2,5.6-9,8.6
						C466.2,676.4,465.4,678.3,466.9,680z M1094.3,175.5c-0.4,0.2-0.7,0.2-0.9,0.4c-1.3-5.1-2.8-10.3-3.9-15.3l0.9-0.2
						C1091.5,165.4,1093,170.5,1094.3,175.5z M1099.7,227c-0.9-12.5-2.1-24.9-2.8-37.4c0.2,0,0.6,0,0.7,0c0.7,6.2,1.5,12.5,2.2,18.5
						C1100.3,214.5,1101,220.8,1099.7,227z M1004.4,55.6c-0.2,0.4-0.4,0.6-0.6,0.9L987,45.8c0.2-0.2,0.4-0.4,0.4-0.7
						C994.3,46.4,998.6,52,1004.4,55.6z M1018.9,60.4c-3.2-3-6.2-5.8-9-8.6l0.2-0.2c2.1,1.1,4.1,2.2,6,3.6c1.1,0.9,2.2,2.2,3.2,3.4
						C1019.4,59.1,1019,59.9,1018.9,60.4z M1076.7,151c0.2,0,0.4-0.2,0.7-0.2c2.8,5.6,4.9,11.6,5.4,18.2
						C1080.8,162.8,1078.8,157,1076.7,151z M1088.1,257.1c0.7-6.4,1.3-12.7,2.1-19.1c2.2,1.7,2.4,3.6,1.7,6
						c-1.1,4.5-2.2,8.8-3.2,13.3C1088.5,257.3,1088.3,257.1,1088.1,257.1z M1047.1,371.9c-0.9-4.7,3.2-5.2,4.9-7.7
						c0.2,0.2,0.4,0.4,0.7,0.4C1050.9,366.8,1049,369.3,1047.1,371.9z M1052,113.8c6.4,10.1,12.2,20.6,16.7,31.6
						c0.6,1.1,0.9,2.6,1.3,3.9c2.1,5.6,4.5,11,6.4,16.7c1.5,4.7,2.4,9.2,3.4,14c1.1,5.6,2.1,11.2,3.2,16.7c0.2,0.9,0.7,1.5,0.9,1.9
						c-0.2,0.9-0.6,1.3-0.6,1.9c0.4,4.1,0.9,8.2,1.1,12.4c0.4,5.8,0.7,11.6,0.6,17.2c-0.2,6.4-0.9,12.5-1.3,18.9
						c-0.2,2.8,0.2,5.6-0.2,8.4c-0.4,2.4-1.1,4.7-2.1,6.7c-1.7,4.9-1.7,10.3-3.6,15.2c-2.4,6.6-4.1,13.1-6.4,19.8
						c-1.3,3.7-3,7.3-4.9,10.9c-2.8,6.2-5.8,12.5-9,18.3c-3.6,6.6-6.7,13.1-12.5,18.2c-0.4,0.4-0.7,0.9-0.9,1.5
						c-1.1,2.1-2.2,4.1-3.7,6c-5.1,6.2-10.5,12.2-15.7,18.2c-0.4,0.4-9.4,9-11,10.3c-6.2,4.3-11.4,9.7-18,13.7
						c-3.9,2.4-6,5.1-11.4,8c-68.1,34.1-125.4,33.5-189.2,10.3c-5.4-2.8-11-5.2-16.3-8.2c-3.7-2.2-7.5-4.7-11.4-7.3
						c-4.1-2.6-8-5.2-12-8.2c-3.6-2.6-6.7-5.4-10.3-8.4c-1.9-1.5-3.7-3-5.2-4.9c-1.3-1.5-3.2-2.8-4.7-4.3c-4.5-5.2-9-10.5-13.9-15.7
						c-3.6-3.9-15.2-21-17.2-25.1c-3.9-7.3-7.7-14.8-11-22.3c-4.3-9.2-8-18.7-9.7-28.8c-0.2-0.9-0.6-2.2-0.9-3.2
						c-1.3-6-2.8-12-3.7-18.2c-0.9-5.6-0.9-11.4-1.3-17.2c-0.4-5.6-0.9-11.2-0.9-16.7c0-5.2,0.7-10.5,1.1-15.7
						c1.1-12.5,3.6-24.7,7.1-36.7c3-10.3,6.9-20.2,11.4-29.8c3-6.6,6-12.7,9.9-18.9c2.8-4.7,5.8-9.4,9-14c1.7-2.6,4.3-4.9,6-7.5
						c3-4.9,6.9-8.8,10.9-12.9c3-3.2,6.2-6.6,9.2-9.5c2.4-2.4,4.9-4.9,7.5-7.1c2.8-2.6,6.2-4.9,9.2-7.1c2.8-2.2,5.8-4.7,8.6-6.7
						c2.2-1.7,4.5-3.2,6.7-4.7c3-2.1,6.2-4.1,9.4-5.6c4.5-2.4,9-4.3,13.7-6.6c3.9-1.9,7.9-4.3,12.2-5.4c0.9-0.2,1.7-0.4,2.4-0.6
						c9-3.7,18.3-6.7,28.1-8.4c6.7-1.1,13.3-3.2,20-3.9c8.4-0.9,16.7-0.7,25.1-1.1c6.7-0.4,13.5,0.4,20.2,0.9
						c11.2,0.9,22.1,3.2,32.9,6c11,2.8,21.9,7.1,32.2,12c8,3.7,15.9,7.9,23,12.7c5.1,3.4,10.3,6.7,15.2,10.5
						c8.8,6.7,16.8,14.2,24.5,22.1 M659.9,675.7c9,4.1,18.3,5.8,28.3,6.6c9.7,0.7,19.5,0.6,29.8-0.9c-1.1,5.6-1.7,11-3.4,16.3
						c-1.3,4.1-3.2,8.6-8,10.5c-2.1,0.9-4.3,1.3-6.2,2.4c-7.7,4.1-15.9,4.9-24.3,4.3c-3.9-0.4-7.7-0.9-11.6-0.9
						c-7.3-0.4-14.6-1.3-21.7-3.6c-1.1-0.4-2.2-0.9-3.6-1.1c4.1-5.4,8.4-10.3,11.6-15.7C654.3,687.6,656.9,681.8,659.9,675.7z
						 M678.8,630.5c0.9,0.7,2.1,1.1,3,1.5c0.6,0.2,1.1,0.2,1.7,0.4c5.2,1.9,10.7,2.1,16.3,1.9c3.2-0.2,6.6-0.9,8.6-4.3
						c0.6-0.9,1.9-1.1,2.8-1.5c1.7-0.4,3.2-0.2,4.9-0.4c6-0.7,12-1.3,17.8-2.4c3.4-0.6,6.9-1.3,10.1-2.8c4.9-2.1,9.5-4.9,12.9-8.8
						c0.2-0.2,0.7,0,1.3,0c-0.2,1.3-0.6,2.4-0.6,3.4c-0.2,6.6-0.2,13.1-0.6,19.7c-0.2,3.2-1.3,6.4-3.9,8.6
						c-3.9,3.2-7.9,6.4-11.6,9.5c-6.7,5.8-13.3,11.8-20.2,17.4c-2.4,2.1-4.9,4.1-7.9,4.9c-3.7,1.1-7.7,1.7-11.6,1.5
						c-8.4-0.4-16.5-0.9-24.7-2.2c-5.4-0.9-10.7-2.8-16.5-4.3c3.7-10.3,7.3-20,11-29.9c2.1,0.6,4.3,0.9,6.7,1.5
						c0-3.9-2.8-4.3-5.8-4.7C675.4,636.4,673.3,630.9,678.8,630.5z M718.1,623.8c-2.6,0-5.1,0.4-7.7,0.4c-4.3,0-8.4,1.3-12.5,0.4
						c-3.6-0.9-3.7-0.6-4.9-4.5c0.2-1.9,0.7-3.7,0.6-5.4c-0.6-4.1,1.1-7.7,3.4-10.5c1.5-2.1,4.3-4.1,6.7-4.5c6-0.9,11.8,0,17.4,2.4
						c0.7,0.4,1.3,1.3,1.3,2.2c0.4,2.2,0.6,4.7,0.6,6.7c-0.2,3.6,0.6,7.1-1.3,10.5C720.7,623.1,719.8,623.8,718.1,623.8z M685,619.5
						c4.5,8.4,11.4,10.5,20.2,9.7c-1.3,0.7-2.2,2.1-4.1,1.9c-8-0.6-15.9-1.1-24-3.9c1.1-5.1,2.4-10.3,3.7-15.5
						C683.3,614.1,682,618.2,685,619.5z M754.6,530c0.7,6.2,4.9,9.5,7.9,13.7c0.6,0.7,0.9,1.5,1.5,1.5c2.8,0.7,2.6,2.8,2.4,4.9
						c-0.2,1.1-0.2,2.4-0.2,3.6c-0.2,3.2-0.4,6.4-0.6,9.5c-0.4,4.7-0.9,9.2-1.1,13.9c0,7.7-0.9,15.2-3,22.5
						c-1.5,5.6-5.1,9.5-9.4,13.1c-5.4,4.7-11.8,7.3-18.5,8.6c-3,0.6-6,0.9-9,1.5c0.6-1.1,1.1-2.6,1.1-3.7c0.2-3.9,0.4-7.9,0-11.6
						c-0.7-5.4-3.9-9.2-9.4-10.5c-2.8-0.7-5.8-0.9-8.8-1.1c-8.6-0.4-15.5,5.1-17.2,13.9c-0.6,3-0.9,6.4-1.1,9.7
						c-3.2-3.7-4.5-8-3.9-12.5c0.6-6.4,4.1-11.2,8.6-15.5c2.8-2.8,6.7-4.9,10.5-6.7c4.1-1.7,8.6-2.8,12.7-3.9
						c3.6-0.9,7.3-2.1,10.9-2.8c3.7-0.9,7.7-1.1,11.6-2.1c0.9-0.2,1.3-1.1,2.1-1.9c-0.7-0.7-1.5-2.1-2.2-2.1c-2.1,0-4.3,0.4-6.4,0.7
						c-0.9,0.2-2.1,0.2-3.4,0.4c0.4-1.1,0.4-2.1,0.7-2.8c2.4-4.7,4.9-9.2,7.3-13.9c3-6,6.2-12,9.2-18c0.6-1.1,0.9-2.6,1.7-3.4
						C750.1,533.4,752,532.1,754.6,530z M769.6,512.1c0.9-3.4,1.5-6.7,1.5-10.5c0-3.4,0.4-6.9,0-10.5c0-0.4,0.4-0.9,0.6-1.1
						c0.7-0.9,1.7-2.1,2.2-3.2c2.1-3.7,3.9-7.5,6.4-11.8c0.6,1.3,0.7,2.2,1.1,2.8c1.5,2.1,3,3.9,3.7,6.6c1.1,5.8,2.8,11.4,3.9,17
						c1.5,7.5,2.8,15.2,1.7,22.8c-0.9,6.2-3.6,11.6-6.9,16.7c-2.8,4.1-6.4,4.9-10.7,3.7c-8.6-2.2-11.6-9-14.4-16.3
						c-0.2-0.6,0.4-1.5,0.9-2.1C763.6,522.4,767.7,518.1,769.6,512.1z"/>
					<path class="st1" d="M749.7,473.5c-0.7,1.9-1.1,3.4,1.1,4.9c1.9,0.9,3.6,2.4,5.1,3.9c0.9,0.9,0.9,2.8,1.7,3.9
						c4.1,7.7,3.4,15.5,0.7,23.2c-0.9,2.8-4.1,5.1-6.4,7.5c-0.9,0.9-2.1,1.5-3,1.9c-4.9,1.7-7.9,0.4-10.5-4.7
						c-2.6-4.5-4.9-9-7.5-13.7c-0.9-1.5-1.3-3-2.2-4.5c-3-5.6-2.6-8.8,2.8-12.7c4.3-3,8.6-6.6,14-7.5c0.9-0.2,1.3-1.9,2.4-3.2
						c-3.7-0.2-6.7,0.2-9.7,1.5s-5.6,3.6-8.6,5.1c-4.5,2.2-7.3,8.4-6,13.7c0.2,0.6,0.4,1.1,0.7,1.7c3.9,7.1,8,14.2,12,21.3
						c3,5.6,8.8,7.1,14.6,4.5c9.7-4.7,12.5-12.7,12.5-22.6c0-3.6-0.4-7.3-1.7-10.5C759.3,481.4,755.9,476.1,749.7,473.5z"/>
					<path class="st1" d="M686.6,526.5c1.7,2.8,3.4,5.4,5.2,8.2c0.4,0.6,1.3,0.6,2.2,0.9c0.2-0.9,0.7-1.9,0.6-2.6
						C693.2,529.9,691.7,526.3,686.6,526.5z"/>
					<path class="st1" d="M666.2,670c1.3,3,5.2,4.3,8,2.6c2.2-1.3,3.6-3.4,3.9-5.8c0.6-3.4,0.6-6.9,0.7-10.5c0-0.6,0.7-1.1,0.9-1.7
						c0.4-2.6,0.6-5.2,0.7-7.9c0-0.4-0.7-0.6-0.9-0.9c-3,3.4-2.8,7.7-3.7,11.6c-0.6,2.4-0.7,4.9-1.1,7.1c-0.7,3.7-2.4,5.1-6.2,4.9
						C667.5,669.7,667,669.9,666.2,670z"/>
					<path class="st1" d="M717.5,672.7c0.7-2.6,2.1-4.9,2.2-7.5c0.4-3.7,0-7.5-0.4-11.2c0-0.7-1.3-1.3-2.1-1.9
						c-0.6,0.9-1.3,1.9-1.1,2.8c0.9,4.9,0.9,9.9,0,15c0,0.2,0,0.6,0,0.7c0.2,0.7,0.4,1.3,0.6,2.1
						C717.1,672.5,717.3,672.5,717.5,672.7z"/>
				</g>
			</g>
		</g>
		<path class="st4" d="M1052,113.8c6.4,10.1,12.2,20.6,16.7,31.6c0.6,1.1,0.9,2.6,1.3,3.9c2.1,5.6,4.5,11,6.4,16.7
			c1.5,4.7,2.4,9.2,3.4,14c1.1,5.6,2.1,11.2,3.2,16.7c0.2,0.9,0.7,1.5,0.9,1.9c-0.2,0.9-0.6,1.3-0.6,1.9c0.4,4.1,0.9,8.2,1.1,12.4
			c0.4,5.8,0.7,11.6,0.6,17.2c-0.2,6.4-0.9,12.5-1.3,18.9c-0.2,2.8,0.2,5.6-0.2,8.4c-0.4,2.4-1.1,4.7-2.1,6.7
			c-1.7,4.9-1.7,10.3-3.6,15.2c-2.4,6.6-4.1,13.1-6.4,19.8c-1.3,3.7-3,7.3-4.9,10.9c-2.8,6.2-5.8,12.5-9,18.3
			c-3.6,6.6-6.7,13.1-12.5,18.2c-0.4,0.4-0.7,0.9-0.9,1.5c-1.1,2.1-2.2,4.1-3.7,6c-5.1,6.2-10.5,12.2-15.7,18.2
			c-0.4,0.4-9.4,9-11,10.3c-6.2,4.3-11.4,9.7-18,13.7c-3.9,2.4-6,5.1-11.4,8c-68.1,34.1-125.4,33.5-189.2,10.3
			c-5.4-2.8-11-5.2-16.3-8.2c-3.7-2.2-7.5-4.7-11.4-7.3c-4.1-2.6-8-5.2-12-8.2c-3.6-2.6-6.7-5.4-10.3-8.4c-1.9-1.5-3.7-3-5.2-4.9
			c-1.3-1.5-3.2-2.8-4.7-4.3c-4.5-5.2-9-10.5-13.9-15.7c-3.6-3.9-15.2-21-17.2-25.1c-3.9-7.3-7.7-14.8-11-22.3
			c-4.3-9.2-8-18.7-9.7-28.8c-0.2-0.9-0.6-2.2-0.9-3.2c-1.3-6-2.8-12-3.7-18.2c-0.9-5.6-0.9-11.4-1.3-17.2
			c-0.4-5.6-0.9-11.2-0.9-16.7c0-5.2,0.7-10.5,1.1-15.7c1.1-12.5,3.6-24.7,7.1-36.7c3-10.3,6.9-20.2,11.4-29.8
			c3-6.6,6-12.7,9.9-18.9c2.8-4.7,5.8-9.4,9-14c1.7-2.6,4.3-4.9,6-7.5c3-4.9,6.9-8.8,10.9-12.9c3-3.2,6.2-6.6,9.2-9.5
			c2.4-2.4,4.9-4.9,7.5-7.1c2.8-2.6,6.2-4.9,9.2-7.1c2.8-2.2,5.8-4.7,8.6-6.7c2.2-1.7,4.5-3.2,6.7-4.7c3-2.1,6.2-4.1,9.4-5.6
			c4.5-2.4,9-4.3,13.7-6.6c3.9-1.9,7.9-4.3,12.2-5.4c0.9-0.2,1.7-0.4,2.4-0.6c9-3.7,18.3-6.7,28.1-8.4c6.7-1.1,13.3-3.2,20-3.9
			c8.4-0.9,16.7-0.7,25.1-1.1c6.7-0.4,13.5,0.4,20.2,0.9c11.2,0.9,22.1,3.2,32.9,6c11,2.8,21.9,7.1,32.2,12c8,3.7,15.9,7.9,23,12.7
			c5.1,3.4,10.3,6.7,15.2,10.5c8.8,6.7,16.8,14.2,24.5,22.1"/>
	</g>
	<g>
		<g>
			<g>
				<g>
					<path class="st5" d="M790,115.2c-5,23.5,8.2,51.8,29.4,61.4c34.3,15.5,80.5-18,69-57.8c-10.1-35.1-66.4-50.4-90.2-21
						C794.1,103,791.4,108.9,790,115.2z"/>
				</g>
			</g>
			<path class="st6" d="M836.3,113.9c-4.4-3.6-8.3-7.7-8.3-18.9h-3.5c0,12.3,4.5,17,9.2,21c-4.7,3.9-9.2,8.5-9.2,20.5h3.5
				c0-10.9,3.9-14.9,8.3-18.5c4.4,3.6,8.3,7.6,8.3,18.5h3.5c0-12.1-4.5-16.7-9.2-20.5c4.8-3.9,9.2-8.6,9.2-21h-3.5
				C844.6,106.2,840.8,110.3,836.3,113.9z"/>
			<path class="st6" d="M869.5,131.9c-2.8-2.3-5.2-4.9-5.2-11.9h-2.2c0,7.8,2.8,10.7,5.8,13.2c-3,2.4-5.8,5.3-5.8,12.9h2.2
				c0-6.9,2.4-9.4,5.2-11.6c2.8,2.3,5.2,4.8,5.2,11.6h2.2c0-7.6-2.8-10.5-5.8-12.9c3-2.5,5.8-5.4,5.8-13.2h-2.2
				C874.7,127,872.3,129.6,869.5,131.9z"/>
			<path class="st5" d="M809.1,133.7c-2.8-2.3-5.2-4.9-5.2-11.9h-2.2c0,7.8,2.8,10.7,5.8,13.2c-3,2.4-5.8,5.3-5.8,12.9h2.2
				c0-6.9,2.4-9.4,5.2-11.6c2.8,2.3,5.2,4.8,5.2,11.6h2.2c0-7.6-2.8-10.5-5.8-12.9c3-2.5,5.8-5.4,5.8-13.2h-2.2
				C814.3,128.8,811.9,131.4,809.1,133.7z"/>
			<path class="st5" d="M829.7,153.4c-1.4-1.1-2.6-2.4-2.6-5.9H826c0,3.8,1.4,5.3,2.9,6.5c-1.5,1.2-2.9,2.6-2.9,6.4h1.1
				c0-3.4,1.2-4.6,2.6-5.7c1.4,1.1,2.6,2.3,2.6,5.7h1.1c0-3.8-1.4-5.2-2.9-6.4c1.5-1.2,2.9-2.7,2.9-6.5h-1.1
				C832.2,151,831,152.3,829.7,153.4z"/>
			<path class="st5" d="M849.9,155.1c-2-1.6-3.7-3.5-3.7-8.5h-1.6c0,5.5,2,7.7,4.2,9.4c-2.1,1.7-4.2,3.8-4.2,9.2h1.6
				c0-4.9,1.7-6.7,3.7-8.3c2,1.6,3.7,3.4,3.7,8.3h1.6c0-5.4-2-7.5-4.2-9.2c2.1-1.8,4.2-3.9,4.2-9.4h-1.6
				C853.6,151.7,851.9,153.5,849.9,155.1z"/>
			<polygon class="st2" points="844.8,108.6 847.6,108.6 847.6,111.4 850.4,109.7 853.2,111.4 853.2,108.6 855.9,108.6 854.3,105.8 
				855.9,103 853.2,103 853.2,100.3 850.4,102 847.6,100.3 847.6,103 844.8,103 846.5,105.8 			"/>
			<polygon class="st2" points="874.4,140.3 876.5,140.3 876.5,142.4 878.6,141.2 880.7,142.4 880.7,140.3 882.7,140.3 881.5,138.3 
				882.7,136.2 880.7,136.2 880.7,134.1 878.6,135.4 876.5,134.1 876.5,136.2 874.4,136.2 875.7,138.3 			"/>
		</g>
		<g>
			<g>
				<g>
					<path class="st7" d="M752.5,189.7c-13.1,11-22.3,27.2-25.1,44.4c-1.2,7.2-0.2,13,1,19.8c0.2,1.3,0.4,2.6,0.7,3.9
						c0.9,5.2,0.5,10.4,0.1,15.5c-0.2,3.4-0.5,6.8-0.3,10.2c0.4,11.4,5.6,22.6,15.2,33.2c2.6,2.9,5.7,5.5,8.6,8
						c1.5,1.3,3.1,2.7,4.6,4.1c2,1.8,3.5,3.9,5.1,5.9c2,2.7,4,5.3,6.8,7.1c3.1,2.1,6.6,3.3,10.4,4.6c3.1,1.1,6.2,2.1,9.1,3.7
						c13.2,7.1,25.6,13.1,42.8,13.4c11.9,0.3,29.1,0.2,42.3-3.7c4.6-1.3,9.2-3.5,14.2-6.7c12.7-8,23.1-16.3,31.9-25.5
						c12.3-12.9,21.1-29,24.8-45.5c3.1-13.7,3.6-27.5,1.5-39.9c-1.9-10.7-7.5-18.9-13.5-27.5c-1.5-2.1-3-4.2-4.4-6.5
						c-1.3-2-2.6-4-3.9-6.1c-5.3-8.4-10.3-16.4-18.9-22.6c-11.3-8-23.6-13.6-36.6-16.5c-0.5-0.1-1.1-0.2-1.6-0.3
						c-9.9-2-19.3-1.7-29.2-1.3c-3.1,0.1-6.4,0.3-9.7,0.3c-1.6,0-3.2,0-4.8,0c-4.1-0.1-8.1-0.2-11.9,0.8l0,0c-0.7,0.2-1.3,0.4-2,0.6
						c-2.9,1.1-5.7,2.4-8.4,3.7c-3.7,1.8-7.5,3.6-11.7,4.8C773.2,176.7,761,182.6,752.5,189.7z"/>
				</g>
			</g>
			<g>
				<g>
					<g>
						<path class="st5" d="M865.8,218.5c-30.5-37.7-102.7-18.1-115.7,26.9c-14.7,51,44.5,94,88.5,74.1
							c27.1-12.2,44.1-48.6,37.7-78.7C874.5,232.8,871.1,225.2,865.8,218.5z"/>
					</g>
				</g>
				<path class="st6" d="M806.3,214.9h-4.5c0,15.8,5.8,21.9,11.9,26.9c-6.1,5-11.9,10.9-11.9,26.3h4.5c0-14,5-19.1,10.6-23.7
					c5.6,4.6,10.6,9.7,10.6,23.7h4.5c0-15.5-5.8-21.4-11.9-26.3c6.1-5,11.9-11.1,11.9-26.9h-4.5c0,14.3-4.9,19.6-10.6,24.2
					C811.2,234.5,806.3,229.3,806.3,214.9z"/>
				<path class="st6" d="M767.7,247h-2.9c0,10,3.6,13.8,7.5,16.9c-3.8,3.1-7.5,6.8-7.5,16.6h2.9c0-8.8,3.1-12,6.7-14.9
					c3.5,2.9,6.7,6.1,6.7,14.9h2.9c0-9.7-3.6-13.4-7.5-16.6c3.8-3.2,7.5-7,7.5-16.9h-3c0,9-3.1,12.3-6.7,15.3
					C770.8,259.3,767.7,256,767.7,247z"/>
				<path class="st5" d="M845.2,249.3h-2.9c0,10,3.6,13.8,7.5,16.9c-3.8,3.1-7.5,6.8-7.5,16.6h2.9c0-8.8,3.1-12,6.7-14.9
					c3.5,2.9,6.7,6.1,6.7,14.9h2.9c0-9.7-3.6-13.4-7.5-16.6c3.8-3.2,7.5-7,7.5-16.9h-2.9c0,9-3.1,12.3-6.7,15.3
					C848.3,261.6,845.2,258.3,845.2,249.3z"/>
				<path class="st5" d="M822.2,282.3h-1.4c0,4.9,1.8,6.8,3.7,8.4c-1.9,1.5-3.7,3.4-3.7,8.2h1.4c0-4.3,1.5-5.9,3.3-7.4
					c1.7,1.4,3.3,3,3.3,7.4h1.4c0-4.8-1.8-6.6-3.7-8.2c1.9-1.6,3.7-3.4,3.7-8.4h-1.4c0,4.5-1.5,6.1-3.3,7.5
					C823.7,288.4,822.2,286.7,822.2,282.3z"/>
				<path class="st5" d="M794.7,281.2h-2c0,7.1,2.6,9.8,5.3,12.1c-2.7,2.2-5.3,4.9-5.3,11.8h2c0-6.3,2.2-8.6,4.8-10.6
					c2.5,2.1,4.8,4.4,4.8,10.6h2c0-7-2.6-9.6-5.3-11.8c2.7-2.3,5.3-5,5.3-12.1h-2c0,6.4-2.2,8.8-4.8,10.9
					C797,290,794.7,287.6,794.7,281.2z"/>
				<polygon class="st2" points="803.9,228.8 806,225.3 802.4,225.3 802.4,221.7 798.9,223.9 795.3,221.7 795.3,225.3 791.8,225.3 
					793.9,228.8 791.8,232.4 795.3,232.4 795.3,235.9 798.9,233.8 802.4,235.9 802.4,232.4 806,232.4 				"/>
				<polygon class="st2" points="766.5,270.4 768.1,267.7 765.4,267.7 765.4,265.1 762.7,266.7 760.1,265.1 760.1,267.7 
					757.4,267.7 759,270.4 757.4,273.1 760.1,273.1 760.1,275.7 762.7,274.1 765.4,275.7 765.4,273.1 768.1,273.1 				"/>
			</g>
		</g>
		<g>
			<g>
				<g>
					<path class="st7" d="M1025.8,234.4c10.3-8.6,17.5-21.3,19.7-34.8c0.9-5.7,0.1-10.2-0.8-15.5c-0.2-1-0.3-2-0.5-3.1
						c-0.7-4.1-0.4-8.2-0.1-12.2c0.2-2.6,0.4-5.3,0.3-8c-0.3-9-4.4-17.7-11.9-26c-2.1-2.3-4.5-4.3-6.7-6.3c-1.2-1.1-2.4-2.1-3.6-3.2
						c-1.5-1.5-2.8-3.1-4-4.6c-1.6-2.1-3.1-4.2-5.3-5.6c-2.4-1.6-5.2-2.6-8.2-3.6c-2.4-0.8-4.9-1.7-7.1-2.9
						c-10.4-5.6-20.1-10.3-33.6-10.5c-9.3-0.2-22.9-0.1-33.1,2.9c-3.6,1.1-7.2,2.8-11.1,5.2c-10,6.3-18.1,12.8-25,20
						c-9.7,10.1-16.6,22.8-19.5,35.7c-2.4,10.7-2.8,21.6-1.2,31.3c1.5,8.4,5.9,14.8,10.6,21.6c1.2,1.6,2.3,3.3,3.5,5.1
						c1,1.6,2.1,3.2,3,4.7c4.2,6.6,8.1,12.9,14.8,17.7c8.9,6.3,18.5,10.6,28.7,12.9c0.4,0.1,0.9,0.2,1.3,0.3
						c7.8,1.6,15.1,1.3,22.9,1c2.5-0.1,5-0.2,7.6-0.2c1.3,0,2.5,0,3.7,0c3.3,0.1,6.4,0.2,9.4-0.6l0,0c0.5-0.1,1-0.3,1.5-0.5
						c2.2-0.9,4.5-1.9,6.6-2.9c2.9-1.4,5.9-2.8,9.2-3.8C1009.6,244.6,1019.1,240,1025.8,234.4z"/>
				</g>
			</g>
			<g>
				<g>
					<g>
						<path class="st5" d="M936.9,211.8c23.9,29.6,80.6,14.2,90.7-21.1c11.5-40-34.9-73.7-69.4-58.2c-21.3,9.6-34.6,38.1-29.5,61.7
							C930.1,200.6,932.8,206.6,936.9,211.8z"/>
					</g>
				</g>
				<path class="st6" d="M983.6,214.6h3.6c0-12.4-4.5-17.1-9.3-21.1c4.8-3.9,9.3-8.5,9.3-20.7h-3.6c0,11-3.9,15-8.3,18.6
					c-4.4-3.6-8.3-7.6-8.3-18.6h-3.6c0,12.1,4.5,16.8,9.3,20.7c-4.8,3.9-9.3,8.7-9.3,21.1h3.6c0-11.2,3.9-15.4,8.3-19
					C979.7,199.2,983.6,203.3,983.6,214.6z"/>
				<path class="st5" d="M1013.9,189.5h2.2c0-7.8-2.8-10.8-5.9-13.3c3-2.4,5.9-5.4,5.9-13h-2.2c0,6.9-2.5,9.4-5.2,11.7
					c-2.8-2.3-5.2-4.8-5.2-11.7h-2.2c0,7.6,2.9,10.5,5.9,13c-3,2.5-5.9,5.5-5.9,13.3h2.2c0-7.1,2.4-9.7,5.2-12
					C1011.5,179.8,1013.9,182.4,1013.9,189.5z"/>
				<path class="st5" d="M953.1,187.6h2.2c0-7.8-2.8-10.8-5.9-13.3c3-2.4,5.9-5.4,5.9-13h-2.2c0,6.9-2.5,9.4-5.2,11.7
					c-2.8-2.3-5.2-4.8-5.2-11.7h-2.2c0,7.6,2.9,10.5,5.9,13c-3,2.5-5.9,5.5-5.9,13.3h2.2c0-7.1,2.4-9.7,5.2-12
					C950.7,178,953.1,180.6,953.1,187.6z"/>
				<path class="st5" d="M971.1,161.8h1.1c0-3.9-1.4-5.3-2.9-6.6c1.5-1.2,2.9-2.6,2.9-6.4h-1.1c0,3.4-1.2,4.7-2.6,5.8
					c-1.4-1.1-2.6-2.4-2.6-5.8h-1.1c0,3.8,1.4,5.2,2.9,6.4c-1.5,1.2-2.9,2.7-2.9,6.6h1.1c0-3.5,1.2-4.8,2.6-5.9
					C969.9,157,971.1,158.3,971.1,161.8z"/>
				<path class="st5" d="M992.7,162.6h1.6c0-5.6-2-7.7-4.2-9.5c2.1-1.7,4.2-3.8,4.2-9.3h-1.6c0,4.9-1.8,6.7-3.7,8.3
					c-2-1.6-3.7-3.4-3.7-8.3h-1.6c0,5.5,2,7.5,4.2,9.3c-2.2,1.8-4.2,3.9-4.2,9.5h1.6c0-5.1,1.7-6.9,3.7-8.5
					C990.9,155.7,992.7,157.6,992.7,162.6z"/>
				<polygon class="st2" points="985.5,203.7 983.8,206.5 986.6,206.5 986.6,209.3 989.4,207.6 992.2,209.3 992.2,206.5 995,206.5 
					993.3,203.7 995,200.9 992.2,200.9 992.2,198.1 989.4,199.8 986.6,198.1 986.6,200.9 983.8,200.9 				"/>
			</g>
		</g>
		<g>
			<g>
				<g>
					<path class="st7" d="M995.3,348.3c7.7-6.5,13.1-16,14.8-26.2c0.7-4.3,0.1-7.7-0.6-11.7c-0.1-0.7-0.3-1.5-0.4-2.3
						c-0.5-3.1-0.3-6.2-0.1-9.2c0.1-2,0.3-4,0.2-6c-0.3-6.7-3.3-13.3-9-19.6c-1.5-1.7-3.3-3.2-5.1-4.7c-0.9-0.8-1.8-1.6-2.7-2.4
						c-1.2-1.1-2.1-2.3-3-3.5c-1.2-1.6-2.3-3.1-4-4.2c-1.8-1.2-3.9-2-6.2-2.7c-1.8-0.6-3.7-1.3-5.4-2.2c-7.8-4.2-15.1-7.7-25.2-7.9
						c-7-0.1-17.2-0.1-24.9,2.2c-2.7,0.8-5.4,2.1-8.4,3.9c-7.5,4.7-13.7,9.6-18.8,15.1c-7.3,7.6-12.5,17.1-14.7,26.9
						c-1.8,8.1-2.1,16.2-0.9,23.5c1.1,6.3,4.4,11.1,8,16.2c0.9,1.2,1.7,2.5,2.6,3.8c0.8,1.2,1.5,2.4,2.3,3.6
						c3.1,5,6.1,9.7,11.1,13.3c6.7,4.7,13.9,8,21.6,9.7c0.3,0.1,0.6,0.1,1,0.2c5.9,1.2,11.4,1,17.3,0.8c1.9-0.1,3.8-0.1,5.7-0.2
						c1,0,1.9,0,2.8,0c2.4,0,4.8,0.1,7-0.5l0,0c0.4-0.1,0.8-0.2,1.2-0.4c1.7-0.6,3.3-1.4,5-2.2c2.2-1,4.4-2.1,6.9-2.9
						C983.1,356,990.2,352.5,995.3,348.3z"/>
				</g>
			</g>
			<g>
				<g>
					<g>
						<path class="st5" d="M928.4,331.3c18,22.2,60.6,10.7,68.3-15.9c8.7-30.1-26.3-55.5-52.2-43.8c-16,7.2-26,28.7-22.2,46.4
							C923.2,322.9,925.2,327.4,928.4,331.3z"/>
					</g>
				</g>
				<path class="st6" d="M963.5,333.4h2.7c0-9.3-3.4-12.9-7-15.9c3.6-2.9,7-6.4,7-15.6h-2.7c0,8.3-2.9,11.3-6.3,14
					c-3.3-2.7-6.3-5.7-6.3-14h-2.7c0,9.1,3.4,12.6,7,15.6c-3.6,3-7,6.5-7,15.9h2.7c0-8.5,2.9-11.6,6.3-14.3
					C960.6,321.9,963.5,325,963.5,333.4z"/>
				<path class="st5" d="M986.3,314.5h1.7c0-5.9-2.1-8.1-4.4-10c2.3-1.8,4.4-4,4.4-9.8h-1.7c0,5.2-1.8,7.1-3.9,8.8
					c-2.1-1.7-3.9-3.6-3.9-8.8h-1.7c0,5.8,2.1,7.9,4.4,9.8c-2.3,1.9-4.4,4.1-4.4,10h1.7c0-5.3,1.8-7.3,3.9-9
					C984.5,307.2,986.3,309.2,986.3,314.5z"/>
				<path class="st5" d="M940.5,313.1h1.7c0-5.9-2.1-8.1-4.4-10c2.3-1.8,4.4-4,4.4-9.8h-1.7c0,5.2-1.8,7.1-3.9,8.8
					c-2.1-1.7-3.9-3.6-3.9-8.8H931c0,5.8,2.1,7.9,4.4,9.8c-2.3,1.9-4.4,4.1-4.4,10h1.7c0-5.3,1.8-7.3,3.9-9
					C938.7,305.9,940.5,307.8,940.5,313.1z"/>
				<path class="st5" d="M954.1,293.7h0.8c0-2.9-1.1-4-2.2-4.9c1.1-0.9,2.2-2,2.2-4.8h-0.8c0,2.6-0.9,3.5-1.9,4.3
					c-1-0.8-1.9-1.8-1.9-4.3h-0.8c0,2.8,1.1,3.9,2.2,4.8c-1.1,0.9-2.2,2-2.2,4.9h0.8c0-2.6,0.9-3.6,1.9-4.4
					C953.2,290.1,954.1,291,954.1,293.7z"/>
				<path class="st5" d="M970.3,294.3h1.2c0-4.2-1.5-5.8-3.1-7.1c1.6-1.3,3.1-2.9,3.1-7h-1.2c0,3.7-1.3,5.1-2.8,6.3
					c-1.5-1.2-2.8-2.6-2.8-6.3h-1.2c0,4.1,1.5,5.7,3.1,7c-1.6,1.3-3.1,2.9-3.1,7.1h1.2c0-3.8,1.3-5.2,2.8-6.4
					C969,289.1,970.3,290.5,970.3,294.3z"/>
				<polygon class="st2" points="964.9,325.2 963.7,327.3 965.8,327.3 965.8,329.4 967.9,328.1 970,329.4 970,327.3 972.1,327.3 
					970.8,325.2 972.1,323.1 970,323.1 970,321 967.9,322.3 965.8,321 965.8,323.1 963.7,323.1 				"/>
			</g>
		</g>
		<g>
			<path class="st6" d="M748.5,114.9H744c0,15.8,5.8,21.9,11.9,26.9c-6.1,5-11.9,10.9-11.9,26.3h4.5c0-14,5-19.1,10.6-23.7
				c5.6,4.6,10.6,9.7,10.6,23.7h4.5c0-15.5-5.8-21.4-11.9-26.3c6.1-5,11.9-11.1,11.9-26.9h-4.5c0,14.3-4.9,19.6-10.6,24.2
				C753.4,134.5,748.5,129.3,748.5,114.9z"/>
			<polygon class="st2" points="746.1,128.8 748.2,125.3 744.6,125.3 744.6,121.7 741.1,123.9 737.5,121.7 737.5,125.3 733.9,125.3 
				736.1,128.8 733.9,132.4 737.5,132.4 737.5,136 741.1,133.8 744.6,136 744.6,132.4 748.2,132.4 			"/>
		</g>
		<g>
			<path class="st6" d="M893.4,54.4h-2.9c0,10,3.6,13.8,7.5,16.9c-3.8,3.1-7.5,6.8-7.5,16.6h2.9c0-8.8,3.1-12,6.7-14.9
				c3.5,2.9,6.7,6.1,6.7,14.9h2.9c0-9.7-3.6-13.4-7.5-16.6c3.8-3.2,7.5-7,7.5-16.9h-2.9c0,9-3.1,12.3-6.7,15.3
				C896.5,66.7,893.4,63.4,893.4,54.4z"/>
			<polygon class="st2" points="892.2,77.8 893.8,75.2 891.2,75.2 891.2,72.5 888.5,74.1 885.8,72.5 885.8,75.2 883.2,75.2 
				884.8,77.8 883.2,80.5 885.8,80.5 885.8,83.2 888.5,81.6 891.2,83.2 891.2,80.5 893.8,80.5 			"/>
		</g>
		<g>
			<path class="st6" d="M1036.7,270.8c-3-2.4-5.5-5.2-5.5-12.7h-2.4c0,8.3,3,11.4,6.2,14.1c-3.2,2.6-6.2,5.7-6.2,13.8h2.4
				c0-7.3,2.6-10,5.5-12.4c2.9,2.4,5.5,5.1,5.5,12.4h2.4c0-8.1-3-11.2-6.2-13.8c3.2-2.6,6.2-5.8,6.2-14.1h-2.4
				C1042.3,265.6,1039.7,268.3,1036.7,270.8z"/>
			<polygon class="st2" points="1042.4,267.2 1044.3,267.2 1044.3,269.1 1046.2,268 1048,269.1 1048,267.2 1049.9,267.2 
				1048.8,265.4 1049.9,263.5 1048,263.5 1048,261.7 1046.2,262.8 1044.3,261.7 1044.3,263.5 1042.4,263.5 1043.6,265.4 			"/>
		</g>
		<g>
			<path class="st6" d="M888.5,386.3c-3-2.4-5.5-5.2-5.5-12.7h-2.4c0,8.3,3,11.4,6.2,14.1c-3.2,2.6-6.2,5.7-6.2,13.8h2.4
				c0-7.3,2.6-10,5.5-12.4c2.9,2.4,5.5,5.1,5.5,12.4h2.4c0-8.1-3-11.2-6.2-13.8c3.2-2.6,6.2-5.8,6.2-14.1H894
				C894,381.2,891.5,383.9,888.5,386.3z"/>
			<polygon class="st2" points="894.2,382.8 896.1,382.8 896.1,384.7 897.9,383.5 899.8,384.7 899.8,382.8 901.7,382.8 900.5,380.9 
				901.7,379.1 899.8,379.1 899.8,377.2 897.9,378.3 896.1,377.2 896.1,379.1 894.2,379.1 895.3,380.9 			"/>
		</g>
		<g>
			<polygon class="st2" points="856.6,401.8 859.6,401.8 859.6,404.8 862.6,403 865.5,404.8 865.5,401.8 868.5,401.8 866.7,398.8 
				868.5,395.8 865.5,395.8 865.5,392.8 862.6,394.6 859.6,392.8 859.6,395.8 856.6,395.8 858.4,398.8 			"/>
		</g>
	</g>
</g>
<g id="Capa_3">
	<g>
		<path class="st8" d="M1194.5,724.6l14.4,0.8c2.4,0,4.3-2,4.3-4.3v-4.6c0-2.4-2-4.3-4.3-4.3l-14.4-0.8c-2.4,0-4.3,2-4.3,4.3v4.6
			C1190.3,722.7,1192.1,724.6,1194.5,724.6z"/>
		<path class="st8" d="M963.3,741.5l14.4,0.8c2.4,0,4.3-2,4.3-4.3v-4.6c0-2.4-2-4.3-4.3-4.3l-14.4-0.8c-2.4,0-4.3,2-4.3,4.3v4.6
			C959,739.7,961,741.5,963.3,741.5z"/>
		<path class="st9" d="M1151.9,754.8l14.4,0.8c2.4,0,4.3-2,4.3-4.3v-4.6c0-2.4-2-4.3-4.3-4.3l-14.4-0.8c-2.4,0-4.3,2-4.3,4.3v4.6
			C1147.6,752.9,1149.5,754.8,1151.9,754.8z"/>
		<path class="st8" d="M1151.9,754.8l14.4,0.8c2.4,0,4.3-2,4.3-4.3v-4.6c0-2.4-2-4.3-4.3-4.3l-14.4-0.8c-2.4,0-4.3,2-4.3,4.3v4.6
			C1147.6,752.9,1149.5,754.8,1151.9,754.8z"/>
		<path class="st10" d="M1149.6,493.2h37.7l25.9,7.5c12.4,2.9,19.1,15.6,18.8,25.6l-1.5,158.6c0.5,14.4-0.5,18-9,25.6l-40.5,31.7
			l-31.3,0.2V493.2z"/>
		<path class="st11" d="M1184.2,493.2c12.3,0,19.1,8,18.8,18L1186.4,730c0,9.1-7.4,16.5-16.5,16.5l-226.6-12l-24.4-33.4l180.9,7.3
			l20.1-215.2L1184.2,493.2L1184.2,493.2z"/>
		<path class="st12" d="M1166.4,582.2c11.1,0,15,6,14.1,20.1l-7.5,118.2c-0.5,11.3-21,21-29.2,21l-225.6-11.8
			c-2-0.1-3.5-1.7-3.5-3.7V587.5c0-2,1.7-3.7,3.7-3.7l32.6-1.5L1166.4,582.2L1166.4,582.2z"/>
		<path class="st13" d="M1135.6,585.3c11.1,0,20.1,9,20.1,20.1v115.2c0,13.4-3.3,21.6-19.5,21l-218.1-11.8c-2-0.1-3.5-1.7-3.5-3.7
			V589c0-2,1.7-3.7,3.7-3.7L1135.6,585.3L1135.6,585.3z"/>
		<path class="st11" d="M1120,493.2h25.3c-5.3-3.2-29.7-17.7-34.2-20.8c-3.2-2.2-6.9-2.4-10.6-2.3l-121.8,4.7
			c-6.1,0.4-11.6,2.5-14.7,8.3c-1,1.8-1.7,3.8-1.9,5.9c-0.9,6.8-9.4,85.2-10.1,93.3h159.7L1120,493.2z M1091.7,485.3
			c-0.3,2.2-6.6,77.9-7,80.1c-0.5,2.9-0.8,3.1-3.7,3.1c-16.6,0-83.4,0-100.3,0c-2.5,0-2.9-0.2-2.7-2.6c0.5-6.7,7.3-71.9,7.7-75.8
			c0.3-2.9,0.6-3.2,3.5-3.2c7.1-0.2,96.2-4.1,100.4-4.1C1091.6,482.6,1092,483.3,1091.7,485.3z"/>
		<path class="st14" d="M954.7,580.3l149.2,0.1c1.2,0,1.3-0.4,1.4-1.4l0.5-3.7c0.2-1.3-0.2-1.4-1.4-1.4H955.1c-1,0-1.3,0.3-1.4,1.4
			l-0.5,3.7C953.1,580,953.4,580.3,954.7,580.3z"/>
		<path class="st10" d="M952.2,581.2h153.9c1.1-11.1,8.9-88.3,8.9-95.7c0-7.9-5.9-14.4-13.5-15.5c3.3-0.1,6.5,0.3,9.4,2.3
			c4.6,3.2,29,17.7,34.2,20.8h-25.3l-8.3,89.2h-0.2c-0.6,1.7-2.1,1.5-2.1,1.5H950.4C950.4,581.4,952.2,581.2,952.2,581.2z"/>
		<path class="st15" d="M1091.7,485.3c-0.3,2.2-6.6,77.9-7,80.1c-0.5,2.9-0.8,3.1-3.7,3.1c-16.6,0-83.4,0-100.3,0
			c-2.5,0-2.9-0.2-2.7-2.6c0.5-6.7,7.3-71.9,7.7-75.8c0.3-2.9,0.6-3.2,3.5-3.2c7.1-0.2,96.2-4.1,100.4-4.1
			C1091.6,482.6,1092,483.3,1091.7,485.3z"/>
		<circle class="st16" cx="1140.6" cy="594.3" r="4.5"/>
		<line class="st16" x1="1154.8" y1="603.8" x2="916.1" y2="600.7"/>
		<line class="st16" x1="992.8" y1="601.7" x2="992.8" y2="733.9"/>
		<polygon class="st16" points="1203.5,563.9 1228.5,563.9 1228.5,528.7 1206.4,523.7 		"/>
		<polygon class="st16" points="1192.2,723.3 1228.5,697.7 1228.5,655 1195.1,670.3 		"/>
		<line class="st16" x1="1228.8" y1="533.5" x2="1206.2" y2="529.2"/>
		<line class="st16" x1="1228.5" y1="539.9" x2="1205.4" y2="536.5"/>
		<line class="st16" x1="1229" y1="545.5" x2="1205.4" y2="542.9"/>
		<line class="st16" x1="1228.5" y1="551.9" x2="1204.8" y2="549.8"/>
		<line class="st16" x1="1229" y1="557.5" x2="1204" y2="556.2"/>
		<line class="st16" x1="1228.8" y1="660.4" x2="1195" y2="676.8"/>
		<line class="st16" x1="1228.8" y1="666.4" x2="1194.5" y2="684"/>
		<line class="st16" x1="1228.8" y1="673.4" x2="1194.2" y2="691.3"/>
		<line class="st16" x1="1228.5" y1="679.8" x2="1193.6" y2="699.2"/>
		<line class="st16" x1="1229" y1="685.9" x2="1193.1" y2="707.7"/>
		<line class="st16" x1="1228.5" y1="692.3" x2="1192.8" y2="715.2"/>
		<line class="st16" x1="1231.8" y1="519.4" x2="1203.5" y2="511.1"/>
	</g>
</g>
</svg>
