<?xml version="1.0" encoding="utf-8"?>
<!-- Generator: Adobe Illustrator 24.1.0, SVG Export Plug-In . SVG Version: 6.00 Build 0)  -->
<svg version="1.1" id="Capa_1" xmlns="http://www.w3.org/2000/svg" xmlns:xlink="http://www.w3.org/1999/xlink" x="0px" y="0px"
	 viewBox="0 0 1379.6 786.4" style="enable-background:new 0 0 1379.6 786.4;" xml:space="preserve">
<style type="text/css">
	.st0{fill:none;stroke:#C0D9DF;stroke-miterlimit:10;}
	.st1{fill:#C0D9DF;}
	.st2{fill:#FFFFFF;}
	.st3{fill:#FA7F43;}
	.st4{opacity:0.4;fill:#FFFFFF;}
	.st5{fill:#373A47;}
</style>
<g>
	<g>
		<path class="st0" d="M83.3,248.7c186.2-72.2,399.5-55.4,624.4,0c231.1,61.9,426.6,51.4,603,2.4c2.9-0.8,29.1-8.5,32.1-9.3"/>
		<g>
			<g>
				<g>
					<path class="st1" d="M208.2,269.4H254c0-11.9,0.1-62.6,0.1-62.6l-45.9,6.9C208.1,213.7,208.2,257.8,208.2,269.4z"/>
					<polygon class="st1" points="280.9,260.8 326.6,260.8 326.7,201.2 280.9,204.1 					"/>
					<path class="st1" d="M425.6,278h46.5v-71.6c-15.5-1.5-31.1-2.8-46.4-3.8L425.6,278L425.6,278z"/>
					<path class="st1" d="M505.8,289.9h46.4v-72.3c-15.5-2.8-31.1-4.5-46.4-6.8V289.9z"/>
					<g>
						<path class="st2" d="M534.9,256.4l-2.1,2.2c-0.6-0.5-1.2-0.8-1.8-1c-0.5-0.2-1.2-0.3-1.9-0.3c-1.3,0-2.4,0.5-3.3,1.6
							c-0.8,1.1-1.2,2.6-1.2,4.8c0,2.3,0.3,4,0.9,4.9c0.6,1,1.5,1.4,2.8,1.4c0.9,0,1.7-0.2,2.4-0.6v-4.1h-2.2l-0.4-3h6.9v8.9
							c-0.9,0.6-1.9,1.1-3.1,1.4c-1.1,0.3-2.2,0.5-3.4,0.5c-2.7,0-4.9-0.8-6.2-2.4c-1.4-1.6-2.1-4-2.1-7.1c0-2,0.4-3.7,1.1-5.1
							c0.7-1.4,1.8-2.5,3.1-3.3s2.7-1.1,4.5-1.1C531.2,254.1,533.2,254.9,534.9,256.4z"/>
					</g>
					<path class="st1" d="M1086.5,321.2h45.8c0-9.1,0-35.8,0-35.8l-45.8,3.9C1086.4,289.4,1086.5,312.3,1086.5,321.2z"/>
					<path class="st1" d="M1158.7,312.6h46.4v-37.4c-15.3,2.7-30.8,5.1-46.4,7.2V312.6z"/>
					<path class="st1" d="M1013.6,291.5v38.3h46.4v-39.1C1044.6,291.3,1029.2,291.5,1013.6,291.5z"/>
					<path class="st1" d="M1231.2,270.2v33.7h46.4v-44.1C1262.4,263.6,1246.9,267.1,1231.2,270.2z"/>
					<path class="st1" d="M135.3,278h46.4v-59c-15.6,3.5-31.1,7.4-46.4,12C135.3,231,135.3,278,135.3,278z"/>
					<path class="st1" d="M353.1,200.7v68.7h46.4v-67.9C383.9,200.8,368.4,200.6,353.1,200.7z"/>
				</g>
			</g>
			<g>
				<path class="st2" d="M160.8,260.9l-0.9-3.9h-5.3l-0.9,3.9h-4.5l5.5-18.1h5.2l5.5,18.1H160.8z M155.3,253.9h3.9l-1.9-8
					L155.3,253.9z"/>
			</g>
			<g>
				<path class="st2" d="M233.8,238.3c0.8,0.3,1.5,0.7,2.1,1.3l-1.7,2.4c-0.9-0.7-1.7-1-2.6-1c-0.9,0-1.6,0.3-2.1,1
					c-0.5,0.7-0.7,1.7-0.7,3.3c0,1.4,0.2,2.5,0.7,3.1c0.5,0.6,1.1,0.9,2,0.9c0.5,0,0.9-0.1,1.3-0.2c0.4-0.1,0.8-0.4,1.4-0.7l1.8,2.5
					c-1.4,1.1-2.9,1.6-4.7,1.6c-1.4,0-2.6-0.3-3.7-0.9s-1.8-1.4-2.3-2.5c-0.5-1.1-0.8-2.3-0.8-3.9s0.3-2.7,0.8-3.9
					c0.5-1.1,1.3-2,2.3-2.6s2.2-0.9,3.6-0.9C232.2,237.9,233.1,238,233.8,238.3z"/>
			</g>
			<g>
				<path class="st2" d="M306.4,229.7c0.8,0.3,1.5,0.7,2.1,1.3l-1.8,2.4c-0.9-0.7-1.7-1-2.6-1c-0.9,0-1.6,0.3-2.1,1
					c-0.5,0.7-0.7,1.7-0.7,3.3c0,1.4,0.2,2.5,0.7,3.1c0.5,0.6,1.1,0.9,2,0.9c0.5,0,0.9-0.1,1.3-0.2c0.4-0.1,0.8-0.4,1.4-0.7l1.8,2.5
					c-1.4,1.1-2.9,1.6-4.7,1.6c-1.4,0-2.6-0.3-3.7-0.9c-1-0.6-1.8-1.4-2.3-2.5c-0.5-1.1-0.8-2.3-0.8-3.9s0.3-2.7,0.8-3.9
					c0.5-1.1,1.3-2,2.3-2.6c1-0.6,2.2-0.9,3.6-0.9C304.8,229.3,305.6,229.4,306.4,229.7z"/>
			</g>
			<g>
				<path class="st2" d="M382.1,246.1c0,1.2-0.3,2.3-0.8,3.4c-0.5,1-1.3,1.7-2.4,2.3c-1.1,0.6-2.3,0.8-3.9,0.8
					c-2.3,0-4.1-0.6-5.3-1.7c-1.2-1.1-1.8-2.7-1.8-4.7v-12.1h4.3V246c0,1.1,0.2,2,0.7,2.6c0.4,0.6,1.1,0.8,2.1,0.8
					c1,0,1.7-0.3,2.1-0.8c0.4-0.6,0.7-1.4,0.7-2.6v-11.9h4.3L382.1,246.1L382.1,246.1z"/>
			</g>
			<g>
				<path class="st2" d="M454.7,244.5l-2.1,2.2c-0.6-0.5-1.2-0.8-1.8-1c-0.5-0.2-1.2-0.3-1.9-0.3c-1.3,0-2.4,0.5-3.3,1.6
					c-0.8,1-1.2,2.6-1.2,4.8c0,2.3,0.3,4,0.9,4.9c0.6,1,1.5,1.4,2.8,1.4c0.9,0,1.7-0.2,2.4-0.6v-4.1h-2.3l-0.4-3h6.9v8.9
					c-0.9,0.6-1.9,1.1-3.1,1.4c-1.1,0.3-2.2,0.5-3.4,0.5c-2.7,0-4.9-0.8-6.2-2.4c-1.4-1.6-2.1-4-2.1-7.1c0-2,0.4-3.7,1.1-5.1
					c0.7-1.4,1.8-2.5,3.1-3.3s2.7-1.1,4.5-1.1C451.1,242.3,453.1,243,454.7,244.5z"/>
			</g>
			<g>
				<path class="st2" d="M1042.6,312.7c0,1.2-0.3,2.3-0.8,3.4c-0.5,1-1.3,1.7-2.4,2.3c-1,0.5-2.3,0.8-3.9,0.8
					c-2.3,0-4.1-0.6-5.3-1.7c-1.2-1.1-1.8-2.7-1.8-4.7v-12.1h4.3v11.9c0,1.1,0.2,2,0.7,2.6c0.4,0.6,1.1,0.8,2.1,0.8
					c1,0,1.7-0.3,2.1-0.8c0.4-0.6,0.7-1.4,0.7-2.6v-11.9h4.3V312.7z"/>
			</g>
			<g>
				<path class="st2" d="M1112.1,295.3c0.8,0.3,1.5,0.7,2.1,1.3l-1.7,2.4c-0.9-0.7-1.7-1-2.6-1c-0.9,0-1.6,0.3-2.1,1
					c-0.5,0.7-0.7,1.7-0.7,3.3c0,1.4,0.2,2.5,0.7,3.1s1.1,0.9,2,0.9c0.5,0,0.9-0.1,1.3-0.2c0.4-0.1,0.8-0.4,1.4-0.7l1.8,2.5
					c-1.4,1.1-2.9,1.6-4.7,1.6c-1.4,0-2.6-0.3-3.7-0.9c-1-0.6-1.8-1.4-2.3-2.5c-0.5-1.1-0.8-2.3-0.8-3.9c0-1.4,0.3-2.7,0.8-3.9
					c0.5-1.1,1.3-2,2.3-2.6s2.2-0.9,3.6-0.9C1110.4,294.9,1111.3,295,1112.1,295.3z"/>
			</g>
			<g>
				<path class="st2" d="M1187.8,287.7l-2.1,2.2c-0.6-0.5-1.2-0.8-1.8-1c-0.5-0.2-1.2-0.3-1.9-0.3c-1.3,0-2.4,0.5-3.3,1.6
					c-0.8,1-1.2,2.6-1.2,4.8c0,2.3,0.3,4,0.9,4.9c0.6,1,1.5,1.4,2.8,1.4c0.9,0,1.7-0.2,2.4-0.6v-4.1h-2.3l-0.4-3h6.9v8.9
					c-0.9,0.6-1.9,1.1-3.1,1.4c-1.1,0.3-2.2,0.5-3.4,0.5c-2.7,0-4.9-0.8-6.2-2.4c-1.4-1.6-2.1-4-2.1-7.1c0-2,0.4-3.7,1.1-5.1
					c0.7-1.4,1.8-2.5,3.1-3.3c1.3-0.7,2.7-1.1,4.5-1.1C1184.1,285.4,1186.1,286.2,1187.8,287.7z"/>
			</g>
			<g>
				<path class="st2" d="M1260.3,289.3c0,1.2-0.3,2.3-0.8,3.4c-0.5,1-1.3,1.7-2.4,2.3c-1.1,0.6-2.3,0.8-3.9,0.8
					c-2.3,0-4.1-0.6-5.3-1.7c-1.2-1.1-1.8-2.7-1.8-4.7v-12.1h4.3v11.9c0,1.1,0.2,2,0.7,2.6c0.4,0.6,1.1,0.8,2.1,0.8
					c1,0,1.7-0.3,2.1-0.8c0.4-0.6,0.7-1.4,0.7-2.6v-11.9h4.3L1260.3,289.3L1260.3,289.3z"/>
			</g>
		</g>
		<g>
			<g>
				<g id="sVTMiL.tif_9_">
					<g>
						<path class="st3" d="M405.1,681.3c1.5,1.5,3.2,0.8,4.4-0.5c3.5-3.4,6.9-6.7,10.3-10.1c2.9-2.9,6.1-5.9,8.8-8.9
							c1.9-2.2,4.2-4,6.1-6.1c2.2-2.2,4.4-4.4,6.4-6.4c4.9-5.4,9.9-10.4,14.7-16.2c3.4-4.2,6.1-8.9,8.9-13.5
							c0.3-0.7,0.7-1.2,0.8-1.9c1.2-1.7,2.5-3.4,3.7-5.1c1.2-1.9,2.5-3.5,3.5-5.6c2.5-5.6,5.1-11.1,7.6-16.5
							c2.7-6.1,5.6-12.1,8.4-18c2.5-4.9,4.9-9.6,7.7-14.3c3.7-6.1,8.1-11.8,13.6-16.3c5.2-4.4,11.3-7.7,16.8-11.5
							c3.9-2.5,7.7-5.6,11.6-8.1c2.9-1.9,6.1-3.4,8.8-5.4c6.2-4.4,12.8-8.4,18.9-13c4.5-3.4,8.9-7.2,13.3-10.9
							c5.4-4.4,11.6-6.9,18.4-7.9c7.2-1.2,14.3-2.4,21.6-3.4c4.9-0.8,9.9-1.5,14.8-2c4.2-0.3,8.4-0.2,12.6-0.2c2.2,0,4.4,0,6.6,0
							c0.8,0,1.9,0.2,2.7,0.3c2,0.5,2.4,1.2,1.3,3c-0.8,1.9-1.5,3.5-4.2,3c-0.8-0.2-1.7,0.3-2.5,0.7c-5.2,2.9-10.6,5.9-15.7,8.9
							c-3.2,2-6.1,4.5-9.1,6.9c-3.2,2.4-6.7,4.4-10.1,6.4c-2.4,1.5-4.4,3-6.7,4.5c-4.5,2.7-9.1,5.7-13.8,8.1
							c-7.7,4-14.1,9.4-19.9,16c-6.2,7.1-12.8,13.8-20,19.7c-3.9,3-7.6,6.1-11.3,9.1l-0.2,0.2c-0.3,1.2-0.8,2.4-1,3.5
							c1-0.2,2.5,0.2,3.4-0.5c2.9-2,5.6-4.2,8.3-6.2c3.5-2.9,7.1-5.9,10.4-9.1c2.2-2.2,5.4-3.4,6.1-6.9c0.3-1,2.4-1.7,3.2-2.7
							c4.2-4.4,7.9-8.8,12.3-13c1.3-1.3,3.2-2.4,4.7-3.4c2.5-1.5,5.1-2.5,6.9-5.1c0.8-1.2,3-1.2,4.4-2c5.1-3,10.3-6.1,15.2-9.3
							c5.4-3.5,10.4-7.2,15.7-10.9c0.3-0.2,0.7-0.5,0.8-0.8c1.3-1.3,2.7-2.5,4.7-3.4c2.7-1,5.7-2.9,7.7-5.1c2.7-2.7,5.7-2.5,8.9-2
							c7.2,1.2,11.5,6.1,14.7,12.3c1.7,3.4,3.2,6.7,3.7,10.4c0.7,6.4,1,12.6-2.5,18.7c-2.7,4.9-6.6,8.6-10.9,11.8
							c-2.9,2.2-6.4,3.9-9.6,5.6c-2.2,1-4.4,2.2-4.7,4.2c-1.3,0.5-2.5,0.5-3.4,1c-4.7,3.5-9.4,6.9-14,10.8
							c-4.2,3.5-7.7,7.7-10.4,12.6c-2.5,4.4-5.1,8.6-7.7,12.8c-3.4,5.4-7.1,10.4-10.4,15.8c-1.2,2-2,4.4-2.7,6.7
							c-2.2,5.7-4.4,11.5-6.4,17.2c-2.9,7.7-5.7,15.7-8.4,23.4c-2.2,6.1-4.2,12.5-6.6,18.4c-1.9,4.5-4.4,8.9-6.2,13.3
							c-1.7,3.7-3.5,7.4-6.4,10.4c-2.4,2.5-4.5,4.9-7.1,7.2c-3.2,2.9-6.4,5.9-9.8,8.4c-4.4,3.2-9.3,6.1-13.8,9.1
							c-3.2,2.2-6.4,4.4-9.6,6.6l0.3,0.8c2.2-0.3,4.4-0.5,6.4-1.2c3.5-1.3,6.9-3,10.3-4.5c2.2-1,4.4-2.2,6.2-3.5
							c2.9-2.2,5.7-4.4,8.3-6.7c1.2-1.2,2.5-1.2,3.5-0.8c6.2,2.4,12.8,3.4,19.4,4.4c3.5,0.5,7.2,0.7,11.5,0.8
							c-0.8,1.7-1.3,2.9-2.2,3.9c-2.2,2.9-4.2,5.9-6.6,8.4c-1.3,1.5-3.2,2.7-5.1,3.9c-4,2.5-8.1,4.9-12.1,7.2c-2.5,1.3-4.9,3-7.7,4
							c-4.4,1.5-8.8,3.5-13.8,3.4c-3.4-0.2-6.7,1-9.9,2c-4.4,1.2-8.9,2.7-13.3,4c-6.1,1.5-12.1,3.9-17.5,7.2c-2.2,1.3-4,3.4-6.1,5.1
							c-1.2,0.8-2.5,1.7-3.5,2.7c-0.7,0.7-1.2,1.5-1.3,2.5c-0.7,2.2-0.2,2.5,2,2c4.2-1.2,7.7-3.7,10.9-6.4c2.2-1.9,4.4-3.5,6.7-4.7
							c2.5-1.2,5.2-1.7,7.7-2.5c3-0.8,6.1-2.2,9.1-2.9c4.2-1,8.1-2.2,12.3-2.9c2.4-0.5,4.7-0.2,7.2-0.7c2.4-0.5,4.5-1.2,6.7-1.9
							c7.7-2.2,14.3-6.7,21.1-10.6c6.4-3.7,11.8-9.3,15.7-15.7c1.3-2.5,2.4-5.1,3.5-7.7c5.4,0.5,11.1,0.7,16.5-1
							c1.3-0.5,2.7-1.2,4.4-1.7c2.5-1,5.2-2,7.7-3c3.9-1.7,6.6-4.7,7.7-8.8c1-3.4,2.4-6.9,2.7-10.4c0.5-3,0.2-6.2,0.2-9.4
							c0-1,0.5-1.3,1.2-2c3.4-2.9,6.4-6.1,9.6-8.9c1.7-1.5,3.7-2.9,5.4-4.4c5.1-4.2,9.9-8.3,15-12.5c3.9-3,5.6-7.2,5.6-12
							c-0.2-7.1-0.5-14.3-0.3-21.4c0-2,1.5-3.9,2.4-5.9c1.2-3.4,2.7-6.7,3.4-10.3c0.8-5.7,1-11.3,1.3-17c0.3-6.2,0.7-12.5,0.8-18.7
							c0-1.9-0.2-3.7-0.2-5.4c2.7,0.3,5.2,0.8,7.7,0.8c4-0.3,6.6-3.2,8.6-6.1c5.7-8.4,7.9-17.7,6.4-27.8c-1.3-8.9-3.2-17.9-6.1-26.4
							c-0.8-2.2-2.2-3.5-3.7-3.9c-0.3-2.4-0.2-4.2-0.8-5.9c-1-2.7,0.8-4.5,1.7-6.6c1.2-2.9,2.7-5.7,4.2-8.4c0.3-0.8,1-1.2,1.5-1.9
							c2-2.5,4-5.2,5.9-7.9c0.8-1.3,1.5-2.9,2.5-4.2c0.7-0.7,1.9-0.8,2.7-0.8c5.1,0,9.3,2.7,14,3.9c4.7,1,9.4,2.5,14.1,3.5
							c5.9,1.2,11.8,2.2,17.7,3.2c2.4,0.3,4.7,0.5,7.1,0.7c4.4,0.3,8.8,0.8,13.1,0.8c4.9,0.2,9.8,0,14.7-0.3
							c6.2-0.3,12.5-0.8,18.7-1.7c5.9-0.8,11.6-2.2,17.4-3.4c4.4-0.8,8.4-2,12.6-3.2c3.9-1.2,7.7-2.5,11.5-4
							c3.5-1.2,7.1-2.5,10.4-4.2c6.7-3.2,13.3-6.9,19.9-10.3c2-1,4.2-2,6.1-3.2c5.6-3.7,11.1-7.2,16.3-11.1
							c4.9-3.7,9.4-7.7,14.1-11.8c3.4-3,6.4-6.4,9.4-9.6c3.5-3.7,7.1-7.4,10.3-11.3c3.2-3.9,6.2-7.7,9.1-12.1
							c4.5-6.9,9.1-13.8,13-20.9c2.9-5.2,5.6-10.6,7.9-16.2c0.8-2.2,1.3-4.5,2.2-6.9c0.5-1.5,1.2-3,1.9-4.5
							c1.2-3.7,2.5-7.4,3.5-11.1c1-3.7,2.5-7.4,3.2-11.1c1.2-6.4,2.4-13,3.4-19.5c0.5-3.2,1-6.6,1.3-9.8c0.3-3.4,0.2-6.7,0.2-9.9
							c0-6.1,0-12.3-0.3-18.4c-0.2-3.4-0.7-6.7-0.8-9.9c-0.2-1.7-0.3-3.5-0.7-5.2c-1.2-6.2-2-12.8-3.7-18.7c-1.2-4-1.3-8.3-3.7-12.1
							c-2.4-4.2-2.9-9.4-4.4-14c-1-3.2-2.7-6.2-4.2-9.4c-0.8-1.9-1.7-3.9-2.5-5.7c-1.5-3.2-2.9-6.4-4.5-9.4c-2-3.5-4.4-7.1-6.7-10.4
							c-4-5.7-7.7-11.3-12-16.8c-2.5-3.5-5.4-6.9-8.4-9.9c-6.2-6.2-12.5-12.6-19.4-18.2c-7.4-6.1-15.2-11.8-23.4-17
							c-5.7-3.7-12.1-6.1-18.2-9.4c-1.2-0.7-2.2-2-3.4-2.5c-5.9-2.5-11.5-5.2-17.5-7.2c-8.9-2.9-18-5.2-27-7.7
							c-3.5-0.8-7.2-1.7-10.8-2c-8.8-0.8-17.4-0.8-26.1-2c-6.6-0.8-13,0.2-19.4,0.5c-5.1,0.2-9.9,0.8-14.8,1.7
							c-7.7,1.2-15.3,2.5-22.9,4.2c-3.9,0.8-7.4,2.5-11.1,3.7c-2.5,0.8-4.9,1.3-7.4,2.4c-5.6,2.4-11.3,4.5-16.5,7.2
							c-3.7,1.7-7.4,3.7-10.9,5.7c-3.5,2-6.7,4.4-10.1,6.2c-3.5,2.2-7.2,4.2-10.4,6.6c-4,2.9-7.7,6.1-11.3,9.4
							c-3.9,3.5-7.7,7.1-11.5,10.8c-3.9,3.9-7.6,7.7-10.9,11.8c-3.2,3.9-6.1,7.7-9.3,11.6c-1.9,2.4-3.9,4.4-5.4,6.9
							c-2.2,3.2-3.9,6.7-6.1,9.9c-4.5,7.1-8.1,14.5-11.5,22.1c-2.4,5.2-3.9,10.9-5.7,16.3c-1.2,3.4-2.5,6.7-3.7,10.1
							c-0.8,2.9-1.5,6.1-2,8.9c-1.5,8.8-3.4,17.5-4.4,26.4c-0.8,8.9-0.8,17.9-0.8,26.8c0.2,6.1,0.8,12.5,1.5,18.5
							c0.8,6.1,2.2,12.3,3.7,18.2c1,4.4,2.5,8.4,3.9,12.8c1.9,6.1,3.5,12.3,5.7,18.2c1.2,3.5,3,6.9,4.7,10.4
							c1.7,3.5,3.4,7.1,5.4,10.4c3,5.2,6.2,10.3,9.6,15.3c3,4.5,6.1,9.1,9.4,13.5c2.7,3.7,5.9,7.1,9.1,10.4
							c4.9,5.1,9.9,9.9,15.2,14.7c2.7,2.5,5.7,5.1,8.8,7.4c4.7,3.5,9.6,6.9,14.7,10.3c0.7,0.5,1.5,0.7,2,1c0.7,0.8,1.7,2.4,1.3,3.2
							c-1,3.7-2.5,7.2-4,10.8c-2.5,5.6-4.9,11.1-7.4,16.5c-0.5,0.8-0.8,1.7-1.5,2.7c-2.9-1.9-5.7-1.7-8.6-1.5c-3,0.2-6.1,0-9.1,0
							c-4.2,0.2-8.3,0.5-12.5,0.8c-5.1,0.7-10.1,1.3-15.2,2.2c-6.6,0.8-13.1,1.7-19.9,3.2c-7.7,1.7-14.5,5.4-20.4,10.8
							c-4.5,4.2-9.9,7.6-15,11.3c-4,2.9-8.1,5.9-12.3,8.6c-4,2.5-7.9,5.1-12,7.7c-3.2,2.2-6.4,4.5-9.6,6.7c-1.7,1.2-3.5,2.2-5.2,3.2
							c-6.1,4.2-12.3,8.1-17.4,13.6c-5.2,5.7-9.4,12.1-13,18.9c-3.4,6.6-6.9,13.1-10.3,19.9c-1.3,2.7-2,5.7-3.4,8.4
							c-2,3.9-4.4,7.4-6.6,11.3c-2.4,4.2-4.5,8.3-7.1,12.3c-1.3,2.5-3,4.5-4.5,6.9c-0.8,1-1.2,2.5-2.2,3.5c-3.2,4-6.6,7.7-9.8,12
							c-3.9,4.7-8.9,8.1-13,12.8c-3.5,4-7.2,7.9-10.9,12c-2.5,2.5-5.2,5.1-7.7,7.6c-2.7,2.5-5.6,5.1-8.1,7.7
							C404.4,678.1,403.7,679.8,405.1,681.3z M969.7,227.3c-0.3,0.2-0.7,0.2-0.8,0.3c-1.2-4.5-2.5-9.3-3.5-13.8l0.8-0.2
							C967.2,218.2,968.5,222.7,969.7,227.3z M974.6,273.6c-0.8-11.3-1.9-22.4-2.5-33.7c0.2,0,0.5,0,0.7,0c0.7,5.6,1.3,11.3,2,16.7
							C975.1,262.3,975.8,268.1,974.6,273.6z M888.8,119.3c-0.2,0.3-0.3,0.5-0.5,0.8l-15.2-9.6c0.2-0.2,0.3-0.3,0.3-0.7
							C879.8,111.1,883.6,116.1,888.8,119.3z M901.8,123.7c-2.9-2.7-5.6-5.2-8.1-7.7l0.2-0.2c1.9,1,3.7,2,5.4,3.2c1,0.8,2,2,2.9,3
							C902.3,122.5,902,123.2,901.8,123.7z M953.9,205.2c0.2,0,0.3-0.2,0.7-0.2c2.5,5.1,4.4,10.4,4.9,16.3
							C957.6,215.8,955.7,210.6,953.9,205.2z M964.1,300.7c0.7-5.7,1.2-11.5,1.9-17.2c2,1.5,2.2,3.2,1.5,5.4c-1,4-2,7.9-2.9,12
							C964.5,300.9,964.3,300.7,964.1,300.7z M927.3,404c-0.8-4.2,2.9-4.7,4.4-6.9c0.2,0.2,0.3,0.3,0.7,0.3
							C930.6,399.5,928.9,401.6,927.3,404z M931.6,171.7c5.7,9.1,10.9,18.5,15,28.5c0.5,1,0.8,2.4,1.2,3.5c1.9,5.1,4,9.9,5.7,15
							c1.3,4.2,2.2,8.3,3,12.6c1,5.1,1.9,10.1,2.9,15c0.2,0.8,0.7,1.3,0.8,1.7c-0.2,0.8-0.5,1.2-0.5,1.7c0.3,3.7,0.8,7.4,1,11.1
							c0.3,5.2,0.7,10.4,0.5,15.5c-0.2,5.7-0.8,11.3-1.2,17c-0.2,2.5,0.2,5.1-0.2,7.6c-0.3,2.2-1,4.2-1.9,6.1
							c-1.5,4.4-1.5,9.3-3.2,13.6c-2.2,5.9-3.7,11.8-5.7,17.9c-1.2,3.4-2.7,6.6-4.4,9.8c-2.5,5.6-5.2,11.3-8.1,16.5
							c-3.2,5.9-6.1,11.8-11.3,16.3c-0.3,0.3-0.7,0.8-0.8,1.3c-1,1.9-2,3.7-3.4,5.4c-4.5,5.6-9.4,10.9-14.1,16.3
							c-0.3,0.3-8.4,8.1-9.9,9.3c-5.6,3.9-10.3,8.8-16.2,12.3c-3.5,2.2-5.4,4.5-10.3,7.2c-61.3,30.7-112.9,30.2-170.3,9.3
							c-4.9-2.5-9.9-4.7-14.7-7.4c-3.4-2-6.7-4.2-10.3-6.6c-3.7-2.4-7.2-4.7-10.8-7.4c-3.2-2.4-6.1-4.9-9.3-7.6
							c-1.7-1.3-3.4-2.7-4.7-4.4c-1.2-1.3-2.9-2.5-4.2-3.9c-4-4.7-8.1-9.4-12.5-14.1c-3.2-3.5-13.6-18.9-15.5-22.6
							c-3.5-6.6-6.9-13.3-9.9-20c-3.9-8.3-7.2-16.8-8.8-25.9c-0.2-0.8-0.5-2-0.8-2.9c-1.2-5.4-2.5-10.8-3.4-16.3
							c-0.8-5.1-0.8-10.3-1.2-15.5c-0.3-5.1-0.8-10.1-0.8-15c0-4.7,0.7-9.4,1-14.1c1-11.3,3.2-22.2,6.4-33
							c2.7-9.3,6.2-18.2,10.3-26.8c2.7-5.9,5.4-11.5,8.9-17c2.5-4.2,5.2-8.4,8.1-12.6c1.5-2.4,3.9-4.4,5.4-6.7
							c2.7-4.4,6.2-7.9,9.8-11.6c2.7-2.9,5.6-5.9,8.3-8.6c2.2-2.2,4.4-4.4,6.7-6.4c2.5-2.4,5.6-4.4,8.3-6.4c2.5-2,5.2-4.2,7.7-6.1
							c2-1.5,4-2.9,6.1-4.2c2.7-1.9,5.6-3.7,8.4-5.1c4-2.2,8.1-3.9,12.3-5.9c3.5-1.7,7.1-3.9,10.9-4.9c0.8-0.2,1.5-0.3,2.2-0.5
							c8.1-3.4,16.5-6.1,25.3-7.6c6.1-1,12-2.9,18-3.5c7.6-0.8,15-0.7,22.6-1c6.1-0.3,12.1,0.3,18.2,0.8c10.1,0.8,19.9,2.9,29.6,5.4
							c9.9,2.5,19.7,6.4,29,10.8c7.2,3.4,14.3,7.1,20.7,11.5c4.5,3,9.3,6.1,13.6,9.4c7.9,6.1,15.2,12.8,22.1,19.9 M578.7,677.4
							c8.1,3.7,16.5,5.2,25.4,5.9c8.8,0.7,17.5,0.5,26.8-0.8c-1,5.1-1.5,9.9-3,14.7c-1.2,3.7-2.9,7.7-7.2,9.4
							c-1.9,0.8-3.9,1.2-5.6,2.2c-6.9,3.7-14.3,4.4-21.9,3.9c-3.5-0.3-6.9-0.8-10.4-0.8c-6.6-0.3-13.1-1.2-19.5-3.2
							c-1-0.3-2-0.8-3.2-1c3.7-4.9,7.6-9.3,10.4-14.1C573.7,688.2,576,683,578.7,677.4z M595.7,636.8c0.8,0.7,1.9,1,2.7,1.3
							c0.5,0.2,1,0.2,1.5,0.3c4.7,1.7,9.6,1.9,14.7,1.7c2.9-0.2,5.9-0.8,7.7-3.9c0.5-0.8,1.7-1,2.5-1.3c1.5-0.3,2.9-0.2,4.4-0.3
							c5.4-0.7,10.8-1.2,16-2.2c3-0.5,6.2-1.2,9.1-2.5c4.4-1.9,8.6-4.4,11.6-7.9c0.2-0.2,0.7,0,1.2,0c-0.2,1.2-0.5,2.2-0.5,3
							c-0.2,5.9-0.2,11.8-0.5,17.7c-0.2,2.9-1.2,5.7-3.5,7.7c-3.5,2.9-7.1,5.7-10.4,8.6c-6.1,5.2-12,10.6-18.2,15.7
							c-2.2,1.9-4.4,3.7-7.1,4.4c-3.4,1-6.9,1.5-10.4,1.3c-7.6-0.3-14.8-0.8-22.2-2c-4.9-0.8-9.6-2.5-14.8-3.9
							c3.4-9.3,6.6-18,9.9-27c1.9,0.5,3.9,0.8,6.1,1.3c0-3.5-2.5-3.9-5.2-4.2C592.7,642,590.9,637.1,595.7,636.8z M631.1,630.7
							c-2.4,0-4.5,0.3-6.9,0.3c-3.9,0-7.6,1.2-11.3,0.3c-3.2-0.8-3.4-0.5-4.4-4c0.2-1.7,0.7-3.4,0.5-4.9c-0.5-3.7,1-6.9,3-9.4
							c1.3-1.9,3.9-3.7,6.1-4c5.4-0.8,10.6,0,15.7,2.2c0.7,0.3,1.2,1.2,1.2,2c0.3,2,0.5,4.2,0.5,6.1c-0.2,3.2,0.5,6.4-1.2,9.4
							C633.5,630.1,632.6,630.7,631.1,630.7z M601.3,626.9c4,7.6,10.3,9.4,18.2,8.8c-1.2,0.7-2,1.9-3.7,1.7
							c-7.2-0.5-14.3-1-21.6-3.5c1-4.5,2.2-9.3,3.4-14C599.8,622,598.6,625.7,601.3,626.9z M664,546.3c0.7,5.6,4.4,8.6,7.1,12.3
							c0.5,0.7,0.8,1.3,1.3,1.3c2.5,0.7,2.4,2.5,2.2,4.4c-0.2,1-0.2,2.2-0.2,3.2c-0.2,2.9-0.3,5.7-0.5,8.6c-0.3,4.2-0.8,8.3-1,12.5
							c0,6.9-0.8,13.6-2.7,20.2c-1.3,5.1-4.5,8.6-8.4,11.8c-4.9,4.2-10.6,6.6-16.7,7.7c-2.7,0.5-5.4,0.8-8.1,1.3c0.5-1,1-2.4,1-3.4
							c0.2-3.5,0.3-7.1,0-10.4c-0.7-4.9-3.5-8.3-8.4-9.4c-2.5-0.7-5.2-0.8-7.9-1c-7.7-0.3-14,4.5-15.5,12.5c-0.5,2.7-0.8,5.7-1,8.8
							c-2.9-3.4-4-7.2-3.5-11.3c0.5-5.7,3.7-10.1,7.7-14c2.5-2.5,6.1-4.4,9.4-6.1c3.7-1.5,7.7-2.5,11.5-3.5c3.2-0.8,6.6-1.9,9.8-2.5
							c3.4-0.8,6.9-1,10.4-1.9c0.8-0.2,1.2-1,1.9-1.7c-0.7-0.7-1.3-1.9-2-1.9c-1.9,0-3.9,0.3-5.7,0.7c-0.8,0.2-1.9,0.2-3,0.3
							c0.3-1,0.3-1.9,0.7-2.5c2.2-4.2,4.4-8.3,6.6-12.5c2.7-5.4,5.6-10.8,8.3-16.2c0.5-1,0.8-2.4,1.5-3
							C659.9,549.4,661.6,548.2,664,546.3z M677.4,530.2c0.8-3,1.3-6.1,1.3-9.4c0-3,0.3-6.2,0-9.4c0-0.3,0.3-0.8,0.5-1
							c0.7-0.8,1.5-1.9,2-2.9c1.9-3.4,3.5-6.7,5.7-10.6c0.5,1.2,0.7,2,1,2.5c1.3,1.9,2.7,3.5,3.4,5.9c1,5.2,2.5,10.3,3.5,15.3
							c1.3,6.7,2.5,13.6,1.5,20.6c-0.8,5.6-3.2,10.4-6.2,15c-2.5,3.7-5.7,4.4-9.6,3.4c-7.7-2-10.4-8.1-13-14.7
							c-0.2-0.5,0.3-1.3,0.8-1.9C672.1,539.4,675.8,535.6,677.4,530.2z"/>
						<path class="st3" d="M659.6,495.5c-0.7,1.7-1,3,1,4.4c1.7,0.8,3.2,2.2,4.5,3.5c0.8,0.8,0.8,2.5,1.5,3.5c3.7,6.9,3,14,0.7,20.9
							c-0.8,2.5-3.7,4.5-5.7,6.7c-0.8,0.8-1.9,1.3-2.7,1.7c-4.4,1.5-7.1,0.3-9.4-4.2c-2.4-4-4.4-8.1-6.7-12.3c-0.8-1.3-1.2-2.7-2-4
							c-2.7-5.1-2.4-7.9,2.5-11.5c3.9-2.7,7.7-5.9,12.6-6.7c0.8-0.2,1.2-1.7,2.2-2.9c-3.4-0.2-6.1,0.2-8.8,1.3
							c-2.7,1.2-5.1,3.2-7.7,4.5c-4,2-6.6,7.6-5.4,12.3c0.2,0.5,0.3,1,0.7,1.5c3.5,6.4,7.2,12.8,10.8,19.2c2.7,5.1,7.9,6.4,13.1,4
							c8.8-4.2,11.3-11.5,11.3-20.4c0-3.2-0.3-6.6-1.5-9.4C668.2,502.5,665.1,497.8,659.6,495.5z"/>
						<path class="st3" d="M602.8,543.1c1.5,2.5,3,4.9,4.7,7.4c0.3,0.5,1.2,0.5,2,0.8c0.2-0.8,0.7-1.7,0.5-2.4
							C608.7,546.2,607.4,543,602.8,543.1z"/>
						<path class="st3" d="M584.5,672.3c1.2,2.7,4.7,3.9,7.2,2.4c2-1.2,3.2-3,3.5-5.2c0.5-3,0.5-6.2,0.7-9.4c0-0.5,0.7-1,0.8-1.5
							c0.3-2.4,0.5-4.7,0.7-7.1c0-0.3-0.7-0.5-0.8-0.8c-2.7,3-2.5,6.9-3.4,10.4c-0.5,2.2-0.7,4.4-1,6.4c-0.7,3.4-2.2,4.5-5.6,4.4
							C585.6,672,585.1,672.2,584.5,672.3z"/>
						<path class="st3" d="M630.6,674.7c0.7-2.4,1.9-4.4,2-6.7c0.3-3.4,0-6.7-0.3-10.1c0-0.7-1.2-1.2-1.9-1.7
							c-0.5,0.8-1.2,1.7-1,2.5c0.8,4.4,0.8,8.9,0,13.5c0,0.2,0,0.5,0,0.7c0.2,0.7,0.3,1.2,0.5,1.9
							C630.3,674.5,630.4,674.5,630.6,674.7z"/>
					</g>
				</g>
			</g>
			<path class="st4" d="M931.6,171.7c5.7,9.1,10.9,18.5,15,28.5c0.5,1,0.8,2.4,1.2,3.5c1.9,5.1,4,9.9,5.7,15c1.3,4.2,2.2,8.3,3,12.6
				c1,5.1,1.9,10.1,2.9,15c0.2,0.8,0.7,1.3,0.8,1.7c-0.2,0.8-0.5,1.2-0.5,1.7c0.3,3.7,0.8,7.4,1,11.1c0.3,5.2,0.7,10.4,0.5,15.5
				c-0.2,5.7-0.8,11.3-1.2,17c-0.2,2.5,0.2,5.1-0.2,7.6c-0.3,2.2-1,4.2-1.9,6.1c-1.5,4.4-1.5,9.3-3.2,13.6
				c-2.2,5.9-3.7,11.8-5.7,17.9c-1.2,3.4-2.7,6.6-4.4,9.8c-2.5,5.6-5.2,11.3-8.1,16.5c-3.2,5.9-6.1,11.8-11.3,16.3
				c-0.3,0.3-0.7,0.8-0.8,1.3c-1,1.9-2,3.7-3.4,5.4c-4.5,5.6-9.4,10.9-14.1,16.3c-0.3,0.3-8.4,8.1-9.9,9.3
				c-5.6,3.9-10.3,8.8-16.2,12.3c-3.5,2.2-5.4,4.5-10.3,7.2c-61.3,30.7-112.9,30.2-170.3,9.3c-4.9-2.5-9.9-4.7-14.7-7.4
				c-3.4-2-6.7-4.2-10.3-6.6c-3.7-2.4-7.2-4.7-10.8-7.4c-3.2-2.4-6.1-4.9-9.3-7.6c-1.7-1.3-3.4-2.7-4.7-4.4
				c-1.2-1.3-2.9-2.5-4.2-3.9c-4-4.7-8.1-9.4-12.5-14.1c-3.2-3.5-13.6-18.9-15.5-22.6c-3.5-6.6-6.9-13.3-9.9-20
				c-3.9-8.3-7.2-16.8-8.8-25.9c-0.2-0.8-0.5-2-0.8-2.9c-1.2-5.4-2.5-10.8-3.4-16.3c-0.8-5.1-0.8-10.3-1.2-15.5
				c-0.3-5.1-0.8-10.1-0.8-15c0-4.7,0.7-9.4,1-14.1c1-11.3,3.2-22.2,6.4-33c2.7-9.3,6.2-18.2,10.3-26.8c2.7-5.9,5.4-11.5,8.9-17
				c2.5-4.2,5.2-8.4,8.1-12.6c1.5-2.4,3.9-4.4,5.4-6.7c2.7-4.4,6.2-7.9,9.8-11.6c2.7-2.9,5.6-5.9,8.3-8.6c2.2-2.2,4.4-4.4,6.7-6.4
				c2.5-2.4,5.6-4.4,8.3-6.4c2.5-2,5.2-4.2,7.7-6.1c2-1.5,4-2.9,6.1-4.2c2.7-1.9,5.6-3.7,8.4-5.1c4-2.2,8.1-3.9,12.3-5.9
				c3.5-1.7,7.1-3.9,10.9-4.9c0.8-0.2,1.5-0.3,2.2-0.5c8.1-3.4,16.5-6.1,25.3-7.6c6.1-1,12-2.9,18-3.5c7.6-0.8,15-0.7,22.6-1
				c6.1-0.3,12.1,0.3,18.2,0.8c10.1,0.8,19.9,2.9,29.6,5.4c9.9,2.5,19.7,6.4,29,10.8c7.2,3.4,14.3,7.1,20.7,11.5
				c4.5,3,9.3,6.1,13.6,9.4c7.9,6.1,15.2,12.8,22.1,19.9"/>
		</g>
	</g>
	<path class="st3" d="M678.2,242c0,0,0,67,0,77.5h45.7c0-9.9,0-66,0-66s-16.9-4.3-25.3-6.5C691.9,245.3,678.2,242,678.2,242z"/>
	<path class="st3" d="M895.9,336.7h46.4v-49.2c-15.3-0.4-30.8-2.1-46.4-3.2V336.7z"/>
	<path class="st3" d="M605.3,310.8h46.4v-74.9c-15.5-3.5-31.1-6.7-46.4-9.8V310.8z"/>
	<polygon class="st3" points="750.5,328 797,328 797,269.3 750.5,259.7 	"/>
	<path class="st3" d="M823.1,336.7h46.4v-56c-15.3-1.9-30.8-4.2-46.4-6.8V336.7z"/>
	<g>
		<path class="st2" d="M634.3,287.5c0,1.2-0.3,2.3-0.8,3.4c-0.5,1-1.3,1.7-2.4,2.3c-1,0.5-2.3,0.8-3.9,0.8c-2.3,0-4.1-0.6-5.3-1.7
			c-1.2-1.1-1.8-2.7-1.8-4.7v-12.1h4.3v11.9c0,1.1,0.2,2,0.7,2.6c0.4,0.6,1.1,0.8,2.1,0.8c1,0,1.7-0.3,2.1-0.8
			c0.4-0.6,0.7-1.4,0.7-2.6v-11.9h4.3V287.5z"/>
	</g>
	<g>
		<path class="st2" d="M703.8,288.3c0.8,0.3,1.5,0.7,2.1,1.3l-1.8,2.4c-0.9-0.7-1.7-1-2.6-1c-0.9,0-1.6,0.3-2.1,1
			c-0.5,0.7-0.7,1.8-0.7,3.3c0,1.4,0.2,2.5,0.7,3.1c0.5,0.6,1.1,0.9,2,0.9c0.5,0,0.9-0.1,1.3-0.2c0.4-0.1,0.8-0.4,1.4-0.7l1.8,2.5
			c-1.4,1.1-2.9,1.6-4.7,1.6c-1.4,0-2.6-0.3-3.7-0.9c-1-0.6-1.8-1.4-2.3-2.5c-0.5-1.1-0.8-2.3-0.8-3.9c0-1.5,0.3-2.7,0.8-3.9
			c0.5-1.1,1.3-2,2.3-2.6c1-0.6,2.2-0.9,3.6-0.9C702.2,287.9,703.1,288,703.8,288.3z"/>
	</g>
	<g>
		<path class="st2" d="M776,310.9l-0.9-3.9h-5.3l-0.9,3.9h-4.5l5.5-18.1h5.2l5.5,18.1H776z M770.5,303.9h3.9l-1.9-8L770.5,303.9z"/>
	</g>
	<g>
		<path class="st2" d="M848.5,319.5l-0.9-3.9h-5.3l-0.9,3.9H837l5.5-18.1h5.2l5.5,18.1H848.5z M843.1,312.5h3.9l-1.9-8L843.1,312.5z
			"/>
	</g>
	<g>
		<path class="st2" d="M925.1,303.1l-2.1,2.2c-0.6-0.5-1.2-0.8-1.8-1c-0.5-0.2-1.2-0.3-1.9-0.3c-1.3,0-2.4,0.5-3.3,1.6
			c-0.8,1.1-1.2,2.6-1.2,4.8c0,2.3,0.3,4,0.9,4.9c0.6,1,1.5,1.4,2.8,1.4c0.9,0,1.7-0.2,2.4-0.6v-4.1h-2.2l-0.4-3h6.9v8.9
			c-0.9,0.6-1.9,1.1-3.1,1.4c-1.1,0.3-2.2,0.5-3.4,0.5c-2.7,0-4.9-0.8-6.2-2.4c-1.4-1.6-2.1-4-2.1-7.1c0-2,0.4-3.7,1.1-5.1
			s1.8-2.5,3.1-3.3c1.3-0.7,2.7-1.1,4.5-1.1C921.3,300.9,923.4,301.6,925.1,303.1z"/>
	</g>
</g>
<g>
	<g>
		<polygon class="st5" points="700.8,743.8 700.8,764.9 708.4,764.9 689.8,783.5 671.2,764.9 678.8,764.9 678.8,743.8 		"/>
	</g>
</g>
<g>
	<g>
		<polygon class="st5" points="700.8,1.8 700.8,22.9 708.4,22.9 689.8,41.5 671.2,22.9 678.8,22.9 678.8,1.8 		"/>
	</g>
</g>
</svg>
