<?xml version="1.0" encoding="utf-8"?>
<!-- Generator: Adobe Illustrator 24.1.0, SVG Export Plug-In . SVG Version: 6.00 Build 0)  -->
<svg version="1.1" id="Capa_1" xmlns="http://www.w3.org/2000/svg" xmlns:xlink="http://www.w3.org/1999/xlink" x="0px" y="0px"
	 viewBox="0 0 1379.6 493.1" style="enable-background:new 0 0 1379.6 493.1;" xml:space="preserve">
<style type="text/css">
	.st0{enable-background:new    ;}
	.st1{fill:#373A47;}
	.st2{fill:none;stroke:#AFAAAA;stroke-miterlimit:10;}
	.st3{fill:#8FB5BC;}
	.st4{fill:#FF2A2A;}
	.st5{fill:#E0EADF;}
	.st6{fill:#679091;}
	.st7{fill:#83B1B5;}
	.st8{fill:#C0D9DF;}
	.st9{fill:#FFFFFF;}
	.st10{fill:#005372;}
	.st11{fill:#DCDEE0;}
	.st12{fill:#ABAFB2;}
	.st13{fill:#136F8C;}
	.st14{fill:#4D4D4D;}
	.st15{fill:#939393;}
	.st16{fill:#333333;}
	.st17{opacity:0.4;}
</style>
<g>
	<g class="st0">
		<path class="st1" d="M137.6,325.5c0.8,0.3,1.5,0.8,2.3,1.4l-1.3,1.4c-0.6-0.5-1.2-0.8-1.7-1s-1.2-0.3-1.9-0.3
			c-0.8,0-1.6,0.2-2.3,0.7s-1.3,1.2-1.7,2.2s-0.7,2.3-0.7,3.8c0,2.3,0.4,4,1.1,5.1s1.9,1.6,3.4,1.6c1.2,0,2.3-0.2,3.1-0.7v-5H135
			l-0.3-1.8h5.3v8c-1.7,1-3.5,1.5-5.4,1.5c-2.2,0-3.9-0.7-5.1-2.2s-1.8-3.6-1.8-6.4c0-1.8,0.3-3.3,1-4.6c0.6-1.3,1.5-2.3,2.6-2.9
			c1.1-0.7,2.3-1,3.6-1C135.9,325.1,136.8,325.2,137.6,325.5z"/>
		<path class="st1" d="M153.3,336.3h-8.1c0.1,1.4,0.4,2.4,1.1,3.1s1.4,1,2.4,1c0.6,0,1.2-0.1,1.7-0.3c0.5-0.2,1-0.5,1.6-0.8l1,1.3
			c-1.3,1.1-2.8,1.6-4.4,1.6c-1.8,0-3.1-0.6-4.1-1.7c-1-1.2-1.5-2.7-1.5-4.8c0-1.3,0.2-2.5,0.6-3.5c0.4-1,1-1.8,1.8-2.4
			c0.8-0.6,1.7-0.9,2.8-0.9c1.7,0,3,0.6,3.9,1.7s1.3,2.6,1.3,4.6C153.4,335.6,153.3,335.9,153.3,336.3z M151.2,334.5
			c0-1.2-0.2-2.2-0.7-2.9s-1.2-1-2.2-1c-1.8,0-2.8,1.3-3,4h5.9C151.2,334.6,151.2,334.5,151.2,334.5z"/>
		<path class="st1" d="M165.5,330c0.6,0.7,1,1.6,1,2.8v9.1h-2.2v-8.8c0-0.9-0.2-1.5-0.5-1.9s-0.8-0.6-1.5-0.6s-1.3,0.2-1.8,0.6
			s-1,0.9-1.4,1.7v9h-2.2v-12.6h1.9l0.2,1.9c0.4-0.7,1-1.2,1.7-1.6s1.4-0.6,2.2-0.6C164,329,164.9,329.3,165.5,330z"/>
	</g>
	<g class="st0">
		<path class="st1" d="M137.1,365.4c0.7,0.3,1.4,0.7,2.1,1.2l-1.2,1.5c-1-0.8-2.1-1.2-3.2-1.2c-1.4,0-2.5,0.5-3.3,1.6
			c-0.8,1.1-1.3,2.8-1.3,5.1c0,2.3,0.4,3.9,1.2,5s1.9,1.6,3.3,1.6c0.7,0,1.3-0.1,1.8-0.4c0.5-0.2,1.1-0.6,1.7-1l1.1,1.4
			c-0.5,0.5-1.2,1-2,1.3c-0.8,0.4-1.7,0.5-2.8,0.5c-1.3,0-2.5-0.3-3.6-1c-1-0.7-1.9-1.6-2.4-2.9c-0.6-1.3-0.9-2.8-0.9-4.6
			s0.3-3.4,0.9-4.6c0.6-1.3,1.4-2.3,2.5-2.9c1-0.7,2.2-1,3.5-1C135.6,365.1,136.4,365.2,137.1,365.4z"/>
		<path class="st1" d="M150.6,380.1c0.2,0.2,0.4,0.4,0.8,0.6l-0.5,1.5c-0.7-0.1-1.2-0.3-1.6-0.6c-0.4-0.3-0.7-0.7-0.9-1.3
			c-0.8,1.3-2.1,1.9-3.8,1.9c-1.2,0-2.2-0.4-3-1.1c-0.7-0.7-1.1-1.6-1.1-2.8c0-1.3,0.5-2.4,1.5-3.1s2.3-1.1,4.1-1.1h1.9v-0.9
			c0-0.9-0.2-1.5-0.6-1.9c-0.4-0.4-1.1-0.6-2-0.6c-0.9,0-2.1,0.2-3.4,0.7l-0.6-1.6c1.6-0.6,3-0.9,4.4-0.9c1.5,0,2.6,0.4,3.3,1.1
			s1.1,1.8,1.1,3.1v5.8C150.4,379.4,150.5,379.8,150.6,380.1z M148.2,378.6v-2.9h-1.7c-2.3,0-3.5,0.9-3.5,2.6c0,0.8,0.2,1.3,0.6,1.7
			c0.4,0.4,0.9,0.6,1.6,0.6C146.5,380.5,147.5,379.9,148.2,378.6z"/>
		<path class="st1" d="M163.6,370c0.6,0.7,1,1.6,1,2.8v9.1h-2.2v-8.8c0-0.9-0.2-1.5-0.5-1.9c-0.3-0.4-0.8-0.6-1.5-0.6
			c-0.7,0-1.3,0.2-1.8,0.6s-1,0.9-1.4,1.7v9H155v-12.6h1.9l0.2,1.9c0.4-0.7,1-1.2,1.7-1.6c0.7-0.4,1.4-0.6,2.2-0.6
			C162,369,162.9,369.3,163.6,370z"/>
		<path class="st1" d="M178.1,369.2l-4.3,12.6h-2.7l-4.4-12.6h2.4l3.3,10.7l3.3-10.7H178.1z"/>
		<path class="st1" d="M182.8,363.6c0.3,0.3,0.4,0.6,0.4,1.1s-0.1,0.8-0.4,1.1c-0.3,0.3-0.7,0.4-1.1,0.4c-0.4,0-0.8-0.1-1.1-0.4
			c-0.3-0.3-0.4-0.6-0.4-1.1s0.1-0.8,0.4-1.1c0.3-0.3,0.7-0.4,1.1-0.4C182.2,363.2,182.5,363.3,182.8,363.6z M182.8,369.2v12.6h-2.2
			v-12.6H182.8z"/>
		<path class="st1" d="M202.5,380.1c0.2,0.2,0.4,0.4,0.8,0.6l-0.5,1.5c-0.7-0.1-1.2-0.3-1.6-0.6c-0.4-0.3-0.7-0.7-0.9-1.3
			c-0.8,1.3-2.1,1.9-3.8,1.9c-1.2,0-2.2-0.4-3-1.1c-0.7-0.7-1.1-1.6-1.1-2.8c0-1.3,0.5-2.4,1.5-3.1s2.3-1.1,4.1-1.1h1.9v-0.9
			c0-0.9-0.2-1.5-0.6-1.9c-0.4-0.4-1.1-0.6-2-0.6s-2.1,0.2-3.4,0.7l-0.6-1.6c1.6-0.6,3-0.9,4.4-0.9c1.5,0,2.6,0.4,3.3,1.1
			s1.1,1.8,1.1,3.1v5.8C202.3,379.4,202.4,379.8,202.5,380.1z M200.1,378.6v-2.9h-1.7c-2.3,0-3.5,0.9-3.5,2.6c0,0.8,0.2,1.3,0.6,1.7
			c0.4,0.4,0.9,0.6,1.6,0.6C198.3,380.5,199.3,379.9,200.1,378.6z"/>
		<path class="st1" d="M213.8,381.4c-0.5-0.5-0.7-1.2-0.7-2.1v-15.2l2.2-0.3v15.5c0,0.4,0.1,0.6,0.2,0.8c0.1,0.2,0.3,0.2,0.6,0.2
			s0.6,0,0.8-0.1l0.6,1.5c-0.5,0.3-1.1,0.4-1.8,0.4C214.9,382.2,214.2,381.9,213.8,381.4z"/>
		<path class="st1" d="M228.9,380.1c0.2,0.2,0.4,0.4,0.8,0.6l-0.5,1.5c-0.7-0.1-1.2-0.3-1.6-0.6c-0.4-0.3-0.7-0.7-0.9-1.3
			c-0.8,1.3-2.1,1.9-3.8,1.9c-1.2,0-2.2-0.4-3-1.1c-0.7-0.7-1.1-1.6-1.1-2.8c0-1.3,0.5-2.4,1.5-3.1s2.3-1.1,4.1-1.1h1.9v-0.9
			c0-0.9-0.2-1.5-0.6-1.9c-0.4-0.4-1.1-0.6-2-0.6s-2.1,0.2-3.4,0.7l-0.6-1.6c1.6-0.6,3-0.9,4.4-0.9c1.5,0,2.6,0.4,3.3,1.1
			s1.1,1.8,1.1,3.1v5.8C228.6,379.4,228.7,379.8,228.9,380.1z M226.4,378.6v-2.9h-1.7c-2.3,0-3.5,0.9-3.5,2.6c0,0.8,0.2,1.3,0.6,1.7
			s0.9,0.6,1.6,0.6C224.7,380.5,225.7,379.9,226.4,378.6z"/>
		<path class="st1" d="M248.9,370.7c0.8,1.2,1.1,2.8,1.1,4.9c0,2-0.4,3.6-1.3,4.8c-0.9,1.2-2.1,1.8-3.7,1.8c-1.4,0-2.5-0.5-3.3-1.4
			v6l-2.2,0.3v-17.8h1.9l0.2,1.7c0.5-0.6,1-1.1,1.7-1.5c0.7-0.3,1.3-0.5,2.1-0.5C246.9,369,248.1,369.5,248.9,370.7z M247.6,375.6
			c0-3.2-1-4.8-2.9-4.8c-0.6,0-1.2,0.2-1.7,0.6s-1,0.8-1.3,1.4v6.2c0.3,0.5,0.7,0.9,1.2,1.1c0.5,0.3,1,0.4,1.6,0.4
			C246.6,380.4,247.6,378.8,247.6,375.6z"/>
		<path class="st1" d="M260.5,369.1l-0.4,2.2c-0.4-0.1-0.8-0.1-1.1-0.1c-0.8,0-1.4,0.3-1.9,0.9s-0.9,1.5-1.1,2.7v7.2h-2.2v-12.6h1.9
			l0.2,2.6c0.3-0.9,0.8-1.7,1.4-2.1c0.6-0.5,1.2-0.7,2-0.7C259.7,369,260.1,369,260.5,369.1z"/>
		<path class="st1" d="M271.2,370.7c1,1.2,1.5,2.8,1.5,4.8c0,1.3-0.2,2.5-0.7,3.5c-0.4,1-1.1,1.8-1.9,2.3c-0.8,0.6-1.9,0.8-3,0.8
			c-1.8,0-3.2-0.6-4.2-1.8c-1-1.2-1.5-2.8-1.5-4.8c0-1.3,0.2-2.5,0.7-3.5c0.4-1,1.1-1.8,1.9-2.3s1.9-0.8,3-0.8
			C268.8,369,270.2,369.5,271.2,370.7z M263.8,375.6c0,3.2,1.1,4.8,3.3,4.8s3.3-1.6,3.3-4.8c0-3.2-1.1-4.8-3.2-4.8
			C264.9,370.7,263.8,372.3,263.8,375.6z"/>
		<path class="st1" d="M282.7,381.3c-0.8,0.6-1.8,0.9-2.8,0.9c-1.1,0-1.9-0.3-2.5-0.9s-0.9-1.5-0.9-2.7V371h-2.2v-1.7h2.2v-2.9
			l2.2-0.3v3.1h3l-0.2,1.7h-2.8v7.5c0,0.7,0.1,1.1,0.3,1.4s0.6,0.4,1.2,0.4c0.5,0,1.1-0.2,1.7-0.5L282.7,381.3z"/>
		<path class="st1" d="M294.1,376.3H286c0.1,1.4,0.4,2.4,1.1,3.1s1.4,1,2.4,1c0.6,0,1.2-0.1,1.7-0.3c0.5-0.2,1-0.5,1.6-0.8l1,1.3
			c-1.3,1.1-2.8,1.6-4.4,1.6c-1.8,0-3.1-0.6-4.1-1.7c-1-1.2-1.5-2.7-1.5-4.8c0-1.3,0.2-2.5,0.6-3.5c0.4-1,1-1.8,1.8-2.4
			s1.7-0.9,2.8-0.9c1.7,0,3,0.6,3.9,1.7c0.9,1.1,1.3,2.6,1.3,4.6C294.2,375.6,294.1,375.9,294.1,376.3z M292,374.5
			c0-1.2-0.2-2.2-0.7-2.9s-1.2-1-2.2-1c-1.8,0-2.8,1.3-3,4h5.9V374.5z"/>
		<path class="st1" d="M297.2,363.9c0.3,0.3,0.4,0.6,0.4,1s-0.1,0.7-0.4,1s-0.6,0.4-1,0.4c-0.4,0-0.7-0.1-1-0.4
			c-0.3-0.3-0.4-0.6-0.4-1s0.1-0.7,0.4-1s0.6-0.4,1-0.4C296.7,363.5,297,363.6,297.2,363.9z M299.9,369.2v12.6h-2.2v-12.6H299.9z
			 M302.3,363.9c0.3,0.3,0.4,0.6,0.4,1s-0.1,0.7-0.4,1s-0.6,0.4-1,0.4c-0.4,0-0.7-0.1-1-0.4c-0.3-0.3-0.4-0.6-0.4-1s0.1-0.7,0.4-1
			c0.3-0.3,0.6-0.4,1-0.4C301.7,363.5,302,363.6,302.3,363.9z"/>
		<path class="st1" d="M313.1,370c0.6,0.7,1,1.6,1,2.8v9.1h-2.2v-8.8c0-0.9-0.2-1.5-0.5-1.9c-0.3-0.4-0.8-0.6-1.5-0.6
			c-0.7,0-1.3,0.2-1.8,0.6s-1,0.9-1.4,1.7v9h-2.2v-12.6h1.9l0.2,1.9c0.4-0.7,1-1.2,1.7-1.6c0.7-0.4,1.4-0.6,2.2-0.6
			C311.6,369,312.5,369.3,313.1,370z"/>
		<path class="st1" d="M327.3,380.1c0.2,0.2,0.4,0.4,0.8,0.6l-0.5,1.5c-0.7-0.1-1.2-0.3-1.6-0.6c-0.4-0.3-0.7-0.7-0.9-1.3
			c-0.8,1.3-2.1,1.9-3.8,1.9c-1.2,0-2.2-0.4-3-1.1c-0.7-0.7-1.1-1.6-1.1-2.8c0-1.3,0.5-2.4,1.5-3.1s2.3-1.1,4.1-1.1h1.9v-0.9
			c0-0.9-0.2-1.5-0.6-1.9c-0.4-0.4-1.1-0.6-2-0.6c-0.9,0-2.1,0.2-3.4,0.7l-0.6-1.6c1.6-0.6,3-0.9,4.4-0.9c1.5,0,2.6,0.4,3.3,1.1
			c0.7,0.7,1.1,1.8,1.1,3.1v5.8C327,379.4,327.1,379.8,327.3,380.1z M324.8,378.6v-2.9h-1.7c-2.3,0-3.5,0.9-3.5,2.6
			c0,0.8,0.2,1.3,0.6,1.7s0.9,0.6,1.6,0.6C323.1,380.5,324.1,379.9,324.8,378.6z"/>
	</g>
	<g class="st0">
		<path class="st1" d="M143.6,421.9h-2.2l-0.6-7.5c-0.2-2.9-0.4-5.2-0.4-6.7l-3.6,12.3h-2.1l-3.8-12.4c0,2-0.1,4.3-0.3,6.9l-0.6,7.3
			h-2.2l1.4-16.5h3.1l3.5,12l3.3-12h3.1L143.6,421.9z"/>
		<path class="st1" d="M156.7,421.9h-1.9l-0.2-2c-0.5,0.8-1,1.4-1.7,1.7c-0.6,0.4-1.4,0.5-2.3,0.5c-1.1,0-2-0.3-2.6-1
			s-0.9-1.6-0.9-2.9v-9.1h2.2v8.8c0,0.9,0.2,1.5,0.5,1.8c0.3,0.4,0.8,0.5,1.5,0.5c1.2,0,2.3-0.7,3.2-2.2v-9h2.2
			C156.7,409,156.7,421.9,156.7,421.9z"/>
		<path class="st1" d="M167.7,421.3c-0.8,0.6-1.8,0.9-2.8,0.9c-1.1,0-1.9-0.3-2.5-0.9s-0.9-1.5-0.9-2.7V411h-2.2v-1.7h2.2v-2.9
			l2.2-0.3v3.1h3l-0.2,1.7h-2.8v7.5c0,0.7,0.1,1.1,0.3,1.4c0.2,0.3,0.6,0.4,1.2,0.4c0.5,0,1.1-0.2,1.7-0.5L167.7,421.3z"/>
		<path class="st1" d="M178.6,420.1c0.2,0.2,0.4,0.4,0.8,0.6l-0.5,1.5c-0.7-0.1-1.2-0.3-1.6-0.6c-0.4-0.3-0.7-0.7-0.9-1.3
			c-0.8,1.3-2.1,1.9-3.8,1.9c-1.2,0-2.2-0.4-3-1.1c-0.7-0.7-1.1-1.6-1.1-2.8c0-1.3,0.5-2.4,1.5-3.1s2.3-1.1,4.1-1.1h1.9v-0.9
			c0-0.9-0.2-1.5-0.6-1.9c-0.4-0.4-1.1-0.6-2-0.6c-0.9,0-2.1,0.2-3.4,0.7l-0.6-1.6c1.6-0.6,3-0.9,4.4-0.9c1.5,0,2.6,0.4,3.3,1.1
			s1.1,1.8,1.1,3.1v5.8C178.3,419.4,178.4,419.8,178.6,420.1z M176.1,418.6v-2.9h-1.7c-2.3,0-3.5,0.9-3.5,2.6c0,0.8,0.2,1.3,0.6,1.7
			s0.9,0.6,1.6,0.6C174.4,420.5,175.4,419.9,176.1,418.6z"/>
		<path class="st1" d="M189.5,409.3c0.6,0.2,1.2,0.6,1.8,1l-1.1,1.4c-0.4-0.3-0.9-0.6-1.3-0.7c-0.4-0.2-0.9-0.2-1.4-0.2
			c-1,0-1.8,0.4-2.4,1.2c-0.6,0.8-0.9,2-0.9,3.6s0.3,2.8,0.8,3.5s1.4,1.1,2.4,1.1c0.5,0,1-0.1,1.4-0.2c0.4-0.2,0.9-0.4,1.4-0.7
			l1,1.4c-1.2,0.9-2.4,1.4-3.9,1.4c-1.7,0-3.1-0.6-4-1.7c-1-1.2-1.5-2.7-1.5-4.8c0-1.3,0.2-2.5,0.7-3.5c0.4-1,1.1-1.8,1.9-2.4
			c0.8-0.6,1.8-0.8,2.9-0.8C188.2,409,188.9,409.1,189.5,409.3z"/>
		<path class="st1" d="M196.5,403.6c0.3,0.3,0.4,0.6,0.4,1.1s-0.1,0.8-0.4,1.1c-0.3,0.3-0.7,0.4-1.1,0.4c-0.4,0-0.8-0.1-1.1-0.4
			s-0.4-0.6-0.4-1.1s0.1-0.8,0.4-1.1c0.3-0.3,0.7-0.4,1.1-0.4C195.9,403.2,196.2,403.3,196.5,403.6z M196.5,409.2v12.6h-2.2v-12.6
			H196.5z"/>
		<path class="st1" d="M210,410.7c1,1.2,1.5,2.8,1.5,4.8c0,1.3-0.2,2.5-0.7,3.5c-0.4,1-1.1,1.8-1.9,2.3c-0.8,0.6-1.9,0.8-3,0.8
			c-1.8,0-3.2-0.6-4.2-1.8c-1-1.2-1.5-2.8-1.5-4.8c0-1.3,0.2-2.5,0.7-3.5c0.4-1,1.1-1.8,1.9-2.3s1.9-0.8,3-0.8
			C207.6,409,209,409.5,210,410.7z M202.6,415.6c0,3.2,1.1,4.8,3.3,4.8s3.3-1.6,3.3-4.8c0-3.2-1.1-4.8-3.2-4.8
			C203.7,410.7,202.6,412.3,202.6,415.6z M207.7,402.7l1,1.8l-5.1,2.1l-0.7-1.2L207.7,402.7z"/>
	</g>
	<g class="st0">
		<path class="st1" d="M138.5,445.4l-0.2,1.9h-4.6v14.6h-2.3v-14.6h-4.7v-1.9H138.5z"/>
		<path class="st1" d="M147.1,449.1l-0.4,2.2c-0.4-0.1-0.8-0.1-1.1-0.1c-0.8,0-1.4,0.3-1.9,0.9s-0.9,1.5-1.1,2.7v7.2h-2.2v-12.6h1.9
			l0.2,2.6c0.3-0.9,0.8-1.7,1.4-2.1c0.6-0.5,1.2-0.7,2-0.7C146.3,449,146.7,449,147.1,449.1z"/>
		<path class="st1" d="M157.6,460.1c0.2,0.2,0.4,0.4,0.8,0.6l-0.5,1.5c-0.7-0.1-1.2-0.3-1.6-0.6c-0.4-0.3-0.7-0.7-0.9-1.3
			c-0.8,1.3-2.1,1.9-3.8,1.9c-1.2,0-2.2-0.4-3-1.1c-0.7-0.7-1.1-1.6-1.1-2.8c0-1.3,0.5-2.4,1.5-3.1s2.3-1.1,4.1-1.1h1.9v-0.9
			c0-0.9-0.2-1.5-0.6-1.9c-0.4-0.4-1.1-0.6-2-0.6c-0.9,0-2.1,0.2-3.4,0.7l-0.6-1.6c1.6-0.6,3-0.9,4.4-0.9c1.5,0,2.6,0.4,3.3,1.1
			s1.1,1.8,1.1,3.1v5.8C157.3,459.4,157.4,459.8,157.6,460.1z M155.1,458.6v-2.9h-1.7c-2.3,0-3.5,0.9-3.5,2.6c0,0.8,0.2,1.3,0.6,1.7
			s0.9,0.6,1.6,0.6C153.4,460.5,154.4,459.9,155.1,458.6z"/>
		<path class="st1" d="M168.5,449.3c0.6,0.2,1.2,0.6,1.8,1l-1.1,1.4c-0.4-0.3-0.9-0.6-1.3-0.7c-0.4-0.2-0.9-0.2-1.4-0.2
			c-1,0-1.8,0.4-2.4,1.2c-0.6,0.8-0.9,2-0.9,3.6s0.3,2.8,0.8,3.5s1.4,1.1,2.4,1.1c0.5,0,1-0.1,1.4-0.2c0.4-0.2,0.9-0.4,1.4-0.7
			l1,1.4c-1.2,0.9-2.4,1.4-3.9,1.4c-1.7,0-3.1-0.6-4-1.7c-1-1.2-1.5-2.7-1.5-4.8c0-1.3,0.2-2.5,0.7-3.5c0.4-1,1.1-1.8,1.9-2.4
			c0.8-0.6,1.8-0.8,2.9-0.8C167.2,449,167.9,449.1,168.5,449.3z"/>
		<path class="st1" d="M179.7,461.3c-0.8,0.6-1.8,0.9-2.8,0.9c-1.1,0-1.9-0.3-2.5-0.9s-0.9-1.5-0.9-2.7V451h-2.2v-1.7h2.2v-2.9
			l2.2-0.3v3.1h3l-0.2,1.7h-2.8v7.5c0,0.7,0.1,1.1,0.3,1.4c0.2,0.3,0.6,0.4,1.2,0.4c0.5,0,1.1-0.2,1.7-0.5L179.7,461.3z"/>
		<path class="st1" d="M190.6,460.1c0.2,0.2,0.4,0.4,0.8,0.6l-0.5,1.5c-0.7-0.1-1.2-0.3-1.6-0.6c-0.4-0.3-0.7-0.7-0.9-1.3
			c-0.8,1.3-2.1,1.9-3.8,1.9c-1.2,0-2.2-0.4-3-1.1c-0.7-0.7-1.1-1.6-1.1-2.8c0-1.3,0.5-2.4,1.5-3.1s2.3-1.1,4.1-1.1h1.9v-0.9
			c0-0.9-0.2-1.5-0.6-1.9c-0.4-0.4-1.1-0.6-2-0.6c-0.9,0-2.1,0.2-3.4,0.7l-0.6-1.6c1.6-0.6,3-0.9,4.4-0.9c1.5,0,2.6,0.4,3.3,1.1
			s1.1,1.8,1.1,3.1v5.8C190.3,459.4,190.4,459.8,190.6,460.1z M188.1,458.6v-2.9h-1.7c-2.3,0-3.5,0.9-3.5,2.6c0,0.8,0.2,1.3,0.6,1.7
			s0.9,0.6,1.6,0.6C186.4,460.5,187.4,459.9,188.1,458.6z"/>
		<path class="st1" d="M210,450c0.6,0.7,0.9,1.6,0.9,2.8v9.1h-2.2v-8.8c0-1.6-0.6-2.4-1.8-2.4c-0.6,0-1.2,0.2-1.6,0.5
			c-0.4,0.4-0.9,0.9-1.4,1.7v9h-2.2v-8.8c0-1.6-0.6-2.4-1.8-2.4c-0.6,0-1.2,0.2-1.6,0.6c-0.4,0.4-0.9,0.9-1.4,1.7v9h-2.2v-12.6h1.9
			l0.2,1.8c0.9-1.4,2.2-2.1,3.6-2.1c0.8,0,1.5,0.2,2,0.6c0.6,0.4,0.9,1,1.2,1.7c0.5-0.7,1-1.3,1.6-1.7s1.3-0.6,2.1-0.6
			C208.6,449,209.4,449.3,210,450z"/>
		<path class="st1" d="M224.9,456.3h-8.1c0.1,1.4,0.4,2.4,1.1,3.1s1.4,1,2.4,1c0.6,0,1.2-0.1,1.7-0.3c0.5-0.2,1-0.5,1.6-0.8l1,1.3
			c-1.3,1.1-2.8,1.6-4.4,1.6c-1.8,0-3.1-0.6-4.1-1.7c-1-1.2-1.5-2.7-1.5-4.8c0-1.3,0.2-2.5,0.6-3.5s1-1.8,1.8-2.4s1.7-0.9,2.8-0.9
			c1.7,0,3,0.6,3.9,1.7s1.3,2.6,1.3,4.6C225,455.6,225,455.9,224.9,456.3z M222.8,454.5c0-1.2-0.2-2.2-0.7-2.9s-1.2-1-2.2-1
			c-1.8,0-2.8,1.3-3,4h5.9V454.5z"/>
		<path class="st1" d="M237.2,450c0.6,0.7,1,1.6,1,2.8v9.1H236v-8.8c0-0.9-0.2-1.5-0.5-1.9s-0.8-0.6-1.5-0.6s-1.3,0.2-1.8,0.6
			s-1,0.9-1.4,1.7v9h-2.2v-12.6h1.9l0.2,1.9c0.4-0.7,1-1.2,1.7-1.6s1.4-0.6,2.2-0.6C235.6,449,236.5,449.3,237.2,450z"/>
		<path class="st1" d="M248.9,461.3c-0.8,0.6-1.8,0.9-2.8,0.9c-1.1,0-1.9-0.3-2.5-0.9s-0.9-1.5-0.9-2.7V451h-2.2v-1.7h2.2v-2.9
			l2.2-0.3v3.1h3l-0.2,1.7h-2.8v7.5c0,0.7,0.1,1.1,0.3,1.4s0.6,0.4,1.2,0.4c0.5,0,1.1-0.2,1.7-0.5L248.9,461.3z"/>
	</g>
	<g class="st0">
		<path class="st1" d="M379.5,334.3c0.7,0.6,1,1.5,1,2.7c0,1.8-0.6,3-1.9,3.8s-3.1,1.1-5.3,1.1h-5.4v-16.6h4.7c2.3,0,4.1,0.3,5.4,1
			c1.2,0.7,1.8,1.7,1.8,3.3c0,1-0.3,1.8-0.9,2.4s-1.3,1-2.2,1.2C377.9,333.3,378.8,333.7,379.5,334.3z M371.9,328v3.9h1.5
			c1.7,0,2.5-0.7,2.5-2c0-0.7-0.2-1.1-0.7-1.4c-0.4-0.3-1.2-0.4-2.1-0.4h-1.2L371.9,328L371.9,328z M375.7,338.6
			c0.5-0.3,0.8-0.9,0.8-1.7c0-1.5-1-2.3-2.9-2.3h-1.7v4.5h1.4C374.4,339,375.1,338.9,375.7,338.6z"/>
		<path class="st1" d="M388.2,335.5h-1.5v6.4h-3.9v-16.6h5.4c2.3,0,4,0.4,5.1,1.2s1.7,2.1,1.7,3.8c0,1.1-0.3,2-0.8,2.7
			s-1.3,1.3-2.4,1.8l4.2,7.1h-4.4L388.2,335.5z M386.7,332.8h1.7c0.9,0,1.5-0.2,2-0.6c0.4-0.4,0.7-1,0.7-1.9c0-0.8-0.2-1.4-0.7-1.8
			s-1.2-0.6-2.2-0.6h-1.4v4.9H386.7z"/>
		<path class="st1" d="M406.3,341.9l-0.9-3.6h-4.8l-0.8,3.6h-4.1l5-16.6h4.8l5,16.6H406.3z M401.3,335.5h3.5l-1.8-7.3L401.3,335.5z"
			/>
		<path class="st1" d="M411.7,341.9v-16.6h9.9l-0.4,2.8h-5.6v4.4h4.8v2.8h-4.8v6.6L411.7,341.9L411.7,341.9z"/>
	</g>
	<g class="st0">
		<path class="st1" d="M377.5,405.3c0.8,0.3,1.6,0.8,2.3,1.4l-1.9,2.2c-0.5-0.4-1-0.7-1.5-0.9s-1-0.3-1.5-0.3c-1.1,0-2,0.5-2.7,1.4
			c-0.6,0.9-1,2.4-1,4.4c0,1.9,0.3,3.4,1,4.3c0.6,0.9,1.5,1.4,2.7,1.4c0.6,0,1.2-0.1,1.7-0.3c0.5-0.2,1-0.6,1.6-1l1.8,2.3
			c-0.6,0.6-1.4,1.1-2.3,1.5s-1.9,0.6-2.9,0.6c-1.5,0-2.9-0.3-4-1s-2-1.7-2.7-3c-0.6-1.3-0.9-2.9-0.9-4.8c0-1.8,0.3-3.4,1-4.7
			s1.5-2.3,2.7-3c1.1-0.7,2.4-1,3.9-1C375.8,404.8,376.7,405,377.5,405.3z"/>
		<path class="st1" d="M391.3,410.5c1.1,1.2,1.7,2.9,1.7,5c0,1.4-0.3,2.5-0.8,3.6c-0.5,1-1.2,1.8-2.2,2.4s-2,0.8-3.3,0.8
			c-1.9,0-3.5-0.6-4.6-1.8c-1.1-1.2-1.7-2.9-1.7-5c0-1.4,0.3-2.5,0.8-3.6s1.2-1.8,2.2-2.4c0.9-0.6,2-0.8,3.3-0.8
			C388.7,408.7,390.2,409.3,391.3,410.5z M385,412.5c-0.4,0.6-0.6,1.7-0.6,3c0,1.4,0.2,2.4,0.6,3s1,1,1.7,1c0.8,0,1.3-0.3,1.7-1
			c0.4-0.6,0.6-1.7,0.6-3c0-1.4-0.2-2.4-0.6-3s-1-1-1.7-1C385.9,411.5,385.4,411.8,385,412.5z"/>
		<path class="st1" d="M405.3,409.7c0.6,0.7,0.9,1.6,0.9,2.8v9.3h-3.8v-8.7c0-0.6-0.1-1.1-0.3-1.3c-0.2-0.2-0.5-0.4-0.9-0.4
			c-0.8,0-1.5,0.6-2.2,1.7v8.7h-3.8v-12.7h3.3l0.3,1.5c0.5-0.6,1.1-1.1,1.8-1.4c0.6-0.3,1.3-0.5,2.1-0.5
			C403.8,408.7,404.6,409.1,405.3,409.7z"/>
		<path class="st1" d="M420.5,404.1v17.8h-3.4l-0.2-1.5c-0.9,1.3-2.1,1.9-3.6,1.9c-1.6,0-2.8-0.6-3.6-1.8c-0.8-1.2-1.2-2.9-1.2-5
			c0-1.3,0.2-2.5,0.6-3.5s1-1.8,1.8-2.4s1.7-0.9,2.7-0.9c1.2,0,2.2,0.4,3,1.2v-6.3L420.5,404.1z M416.7,418.1v-5.5
			c-0.3-0.4-0.6-0.6-0.9-0.8s-0.7-0.3-1.1-0.3c-0.7,0-1.3,0.3-1.7,1c-0.4,0.7-0.6,1.7-0.6,3c0,1.5,0.2,2.5,0.5,3.1
			c0.4,0.6,0.9,0.9,1.5,0.9C415.4,419.5,416.1,419,416.7,418.1z"/>
		<path class="st1" d="M434.2,421.9h-3.3l-0.2-1.6c-0.9,1.3-2.2,2-3.9,2c-1.2,0-2.1-0.4-2.7-1.1s-0.9-1.7-0.9-3v-9.1h3.8v8.7
			c0,0.6,0.1,1.1,0.3,1.3c0.2,0.2,0.5,0.4,0.9,0.4c0.8,0,1.5-0.5,2.1-1.5v-8.9h3.8v12.8L434.2,421.9L434.2,421.9z"/>
		<path class="st1" d="M445.1,409.1c0.7,0.3,1.4,0.6,2,1.2l-1.6,2.3c-0.8-0.6-1.6-0.9-2.4-0.9s-1.5,0.3-1.9,0.9s-0.6,1.6-0.6,3
			c0,1.3,0.2,2.3,0.6,2.9s1.1,0.8,1.9,0.8c0.4,0,0.8-0.1,1.2-0.2c0.4-0.1,0.8-0.4,1.3-0.7l1.7,2.4c-1.3,1-2.7,1.5-4.3,1.5
			c-1.3,0-2.4-0.3-3.4-0.8c-0.9-0.6-1.7-1.3-2.2-2.3s-0.8-2.2-0.8-3.5s0.3-2.5,0.8-3.6c0.5-1,1.2-1.9,2.2-2.4c0.9-0.6,2-0.9,3.3-0.9
			C443.6,408.7,444.4,408.9,445.1,409.1z"/>
		<path class="st1" d="M456.7,421.3c-0.5,0.3-1,0.6-1.6,0.7c-0.6,0.2-1.2,0.3-1.8,0.3c-2.8,0-4.2-1.6-4.2-4.6v-5.9h-1.8v-2.6h1.8
			v-2.8l3.8-0.4v3.2h2.9l-0.4,2.6h-2.5v5.9c0,0.6,0.1,1,0.3,1.3c0.2,0.3,0.5,0.4,0.9,0.4s0.9-0.1,1.4-0.4L456.7,421.3z"/>
		<path class="st1" d="M467.6,410.5c1.1,1.2,1.7,2.9,1.7,5c0,1.4-0.3,2.5-0.8,3.6c-0.5,1-1.2,1.8-2.2,2.4s-2,0.8-3.3,0.8
			c-1.9,0-3.5-0.6-4.6-1.8c-1.1-1.2-1.7-2.9-1.7-5c0-1.4,0.3-2.5,0.8-3.6s1.2-1.8,2.2-2.4c0.9-0.6,2-0.8,3.3-0.8
			C465,408.7,466.5,409.3,467.6,410.5z M461.3,412.5c-0.4,0.6-0.6,1.7-0.6,3c0,1.4,0.2,2.4,0.6,3s1,1,1.7,1c0.8,0,1.3-0.3,1.7-1
			c0.4-0.6,0.6-1.7,0.6-3c0-1.4-0.2-2.4-0.6-3s-1-1-1.7-1S461.7,411.8,461.3,412.5z"/>
		<path class="st1" d="M479.7,409l-0.6,3.7c-0.5-0.1-0.9-0.2-1.2-0.2c-0.8,0-1.3,0.3-1.7,0.8c-0.4,0.5-0.7,1.3-0.9,2.3v6.3h-3.8
			v-12.7h3.3l0.3,2.5c0.3-0.9,0.7-1.6,1.3-2.1s1.2-0.8,2-0.8C478.9,408.8,479.3,408.8,479.7,409z"/>
		<path class="st1" d="M490.6,419.2c0.1,0.2,0.4,0.4,0.7,0.5l-0.8,2.5c-0.8-0.1-1.4-0.2-1.9-0.5s-0.9-0.7-1.2-1.3
			c-0.8,1.3-2.1,1.9-3.8,1.9c-1.3,0-2.3-0.4-3-1.1c-0.8-0.7-1.1-1.7-1.1-2.9c0-1.4,0.5-2.5,1.5-3.2s2.5-1.1,4.4-1.1h1.3v-0.6
			c0-0.8-0.2-1.3-0.5-1.5c-0.3-0.3-0.9-0.4-1.7-0.4c-0.4,0-0.9,0.1-1.5,0.2s-1.2,0.3-1.8,0.5l-0.9-2.5c0.8-0.3,1.6-0.5,2.5-0.7
			c0.8-0.2,1.6-0.2,2.3-0.2c1.8,0,3.2,0.4,4,1.1c0.8,0.8,1.3,1.9,1.3,3.4v4.9C490.4,418.7,490.5,419,490.6,419.2z M486.7,418.4v-2.3
			h-0.9c-0.9,0-1.5,0.2-1.9,0.5s-0.6,0.8-0.6,1.4c0,0.5,0.1,0.9,0.4,1.2c0.3,0.3,0.6,0.4,1.1,0.4
			C485.6,419.6,486.2,419.2,486.7,418.4z"/>
	</g>
	<g class="st0">
		<path class="st1" d="M380.4,445.3l-4.6,16.6h-4.9l-4.8-16.6h4.2l3.2,13.6l3-13.6H380.4z"/>
		<path class="st1" d="M392,456.6h-7.9c0.1,1.1,0.4,1.8,0.9,2.3s1.1,0.6,2,0.6c0.5,0,1-0.1,1.5-0.3s1-0.5,1.6-0.9l1.6,2.1
			c-1.5,1.2-3.1,1.8-5,1.8c-2.1,0-3.6-0.6-4.8-1.8c-1.1-1.2-1.7-2.8-1.7-4.9c0-1.3,0.2-2.5,0.7-3.5s1.1-1.8,2-2.4s2-0.9,3.2-0.9
			c1.8,0,3.3,0.6,4.3,1.7c1,1.2,1.6,2.8,1.6,4.8C392.1,455.8,392,456.2,392,456.6z M388.3,454.2c0-2-0.7-2.9-2.1-2.9
			c-0.7,0-1.2,0.2-1.5,0.7c-0.4,0.5-0.6,1.3-0.7,2.4h4.2v-0.2H388.3z"/>
		<path class="st1" d="M410.7,449.8c0.6,0.7,0.9,1.6,0.9,2.8v9.3h-3.8v-8.7c0-1.1-0.4-1.7-1.1-1.7c-0.4,0-0.8,0.1-1.1,0.4
			c-0.3,0.3-0.6,0.7-0.9,1.2v8.7H401v-8.7c0-1.1-0.4-1.7-1.1-1.7c-0.4,0-0.7,0.1-1,0.4s-0.6,0.7-0.9,1.2v8.7h-3.8V449h3.3l0.3,1.5
			c0.5-0.6,1-1.1,1.6-1.4s1.3-0.5,2.1-0.5c0.7,0,1.3,0.2,1.9,0.5c0.5,0.4,0.9,0.8,1.1,1.5c0.5-0.7,1.1-1.2,1.7-1.5s1.3-0.5,2.1-0.5
			C409.3,448.7,410.1,449.1,410.7,449.8z"/>
		<path class="st1" d="M425.2,461.9h-3.3l-0.2-1.6c-0.9,1.3-2.2,2-3.9,2c-1.2,0-2.1-0.4-2.7-1.1s-0.9-1.7-0.9-3v-9.1h3.8v8.7
			c0,0.6,0.1,1.1,0.3,1.3c0.2,0.2,0.5,0.4,0.9,0.4c0.8,0,1.5-0.5,2.1-1.5v-8.9h3.8v12.8L425.2,461.9L425.2,461.9z"/>
		<path class="st1" d="M436.4,449l-0.6,3.7c-0.5-0.1-0.9-0.2-1.2-0.2c-0.8,0-1.3,0.3-1.7,0.8c-0.4,0.5-0.7,1.3-0.9,2.3v6.3h-3.8
			v-12.7h3.3l0.3,2.5c0.3-0.9,0.7-1.6,1.3-2.1s1.2-0.8,2-0.8C435.6,448.8,436,448.8,436.4,449z"/>
		<path class="st1" d="M447.3,459.2c0.1,0.2,0.4,0.4,0.7,0.5l-0.8,2.5c-0.8-0.1-1.4-0.2-1.9-0.5s-0.9-0.7-1.2-1.3
			c-0.8,1.3-2.1,1.9-3.8,1.9c-1.3,0-2.3-0.4-3-1.1c-0.8-0.7-1.1-1.7-1.1-2.9c0-1.4,0.5-2.5,1.5-3.2s2.5-1.1,4.4-1.1h1.3v-0.6
			c0-0.8-0.2-1.3-0.5-1.5c-0.3-0.3-0.9-0.4-1.7-0.4c-0.4,0-0.9,0.1-1.5,0.2s-1.2,0.3-1.8,0.5l-0.9-2.5c0.8-0.3,1.6-0.5,2.5-0.7
			c0.8-0.2,1.6-0.2,2.3-0.2c1.8,0,3.2,0.4,4,1.1c0.8,0.8,1.3,1.9,1.3,3.4v4.9C447.1,458.7,447.2,459,447.3,459.2z M443.4,458.4v-2.3
			h-0.9c-0.9,0-1.5,0.2-1.9,0.5s-0.6,0.8-0.6,1.4c0,0.5,0.1,0.9,0.4,1.2c0.3,0.3,0.6,0.4,1.1,0.4
			C442.2,459.6,442.9,459.2,443.4,458.4z"/>
		<path class="st1" d="M454.8,446.9c-0.2,0.3-0.4,0.7-0.4,1.3v1h3l-0.4,2.6h-2.6v10.1h-3.8v-10.1h-1.9v-2.6h1.9V448
			c0-1.3,0.4-2.3,1.3-3.1c0.8-0.8,2-1.2,3.6-1.2c1.3,0,2.4,0.3,3.5,0.8l-1,2.5c-0.6-0.3-1.3-0.5-2-0.5
			C455.4,446.5,455,446.6,454.8,446.9z"/>
		<path class="st1" d="M469.5,456.6h-7.9c0.1,1.1,0.4,1.8,0.9,2.3s1.1,0.6,2,0.6c0.5,0,1-0.1,1.5-0.3s1-0.5,1.6-0.9l1.6,2.1
			c-1.5,1.2-3.1,1.8-5,1.8c-2.1,0-3.6-0.6-4.8-1.8c-1.1-1.2-1.7-2.8-1.7-4.9c0-1.3,0.2-2.5,0.7-3.5s1.1-1.8,2-2.4s2-0.9,3.2-0.9
			c1.8,0,3.3,0.6,4.3,1.7c1,1.2,1.6,2.8,1.6,4.8C469.6,455.8,469.5,456.2,469.5,456.6z M465.8,454.2c0-2-0.7-2.9-2.1-2.9
			c-0.7,0-1.2,0.2-1.5,0.7c-0.4,0.5-0.6,1.3-0.7,2.4h4.2v-0.2H465.8z"/>
		<path class="st1" d="M481.7,449.7c0.6,0.7,0.9,1.6,0.9,2.8v9.3h-3.8v-8.7c0-0.6-0.1-1.1-0.3-1.3c-0.2-0.2-0.5-0.4-0.9-0.4
			c-0.8,0-1.5,0.6-2.2,1.7v8.7h-3.8v-12.7h3.3l0.3,1.5c0.5-0.6,1.1-1.1,1.8-1.4c0.6-0.3,1.3-0.5,2.1-0.5
			C480.3,448.7,481.1,449.1,481.7,449.7z"/>
		<path class="st1" d="M489,443c0.4,0.4,0.6,0.9,0.6,1.5s-0.2,1.1-0.6,1.5s-1,0.6-1.6,0.6s-1.2-0.2-1.6-0.6s-0.6-0.9-0.6-1.5
			s0.2-1.1,0.6-1.5s1-0.6,1.6-0.6S488.6,442.6,489,443z M489.3,449.1v12.7h-3.8v-12.7H489.3z"/>
		<path class="st1" d="M503,450.5c0.8,1.2,1.2,2.9,1.2,5c0,1.3-0.2,2.5-0.6,3.5s-1,1.8-1.8,2.4s-1.7,0.9-2.7,0.9
			c-0.7,0-1.3-0.1-1.9-0.4s-1.1-0.7-1.5-1.2l-0.2,1.2h-3.4v-17.8l3.8-0.4v6.8c0.4-0.5,0.9-0.9,1.5-1.2s1.3-0.5,2-0.5
			C501.1,448.7,502.2,449.3,503,450.5z M500.3,455.5c0-1.5-0.2-2.6-0.5-3.1c-0.4-0.6-0.9-0.9-1.5-0.9c-0.8,0-1.6,0.5-2.2,1.5v5.3
			c0.2,0.4,0.5,0.7,0.9,0.9c0.3,0.2,0.7,0.3,1.1,0.3C499.6,459.5,500.3,458.2,500.3,455.5z"/>
	</g>
	<rect x="104" y="82.4" class="st2" width="424.9" height="393.3"/>
	<line class="st2" x1="104" y1="311.5" x2="529.1" y2="311.5"/>
	<line class="st2" x1="104" y1="352.7" x2="529.1" y2="352.7"/>
	<line class="st2" x1="104" y1="393.7" x2="529.1" y2="393.7"/>
	<line class="st2" x1="104" y1="434.7" x2="529.1" y2="434.7"/>
	<g>
		<path class="st3" d="M336,199.5c7.7-5.2,15.3-11.8,21.5-21.6c10.4-16.5,15.2-39.2,15.2-71.5h-16.3c0,28.7-4.2,49.2-12.7,62.8
			c-6.3,10-14.5,15.6-23.4,20.9c-8.9-5.3-17-10.9-23.4-20.9c-8.6-13.6-12.7-34.1-12.7-62.8H268c0,32.2,4.8,55,15.2,71.5
			c6.2,9.8,13.9,16.4,21.5,21.6c-7.9,5.2-15.5,11.7-21.8,21.6c-10.2,16-14.9,38.1-14.9,69.3h16.3c0-27.6,4-47.5,12.4-60.6
			c6.3-9.9,14.6-15.5,23.6-20.9c9,5.3,17.3,10.9,23.6,20.9c8.4,13.1,12.4,33,12.4,60.6h16.3c0-31.3-4.8-53.3-14.9-69.3
			C351.5,211.2,343.9,204.8,336,199.5z"/>
		<polygon class="st4" points="260.9,126.2 253.8,121.8 253.8,128.9 246.8,128.9 251,136 246.8,143 253.8,143 253.8,150.1 
			260.9,145.8 267.9,150.1 267.9,143 275,143 270.7,136 275,128.9 267.9,128.9 267.9,121.8 		"/>
	</g>
	<g class="st0">
		<path class="st1" d="M380.4,365.3l-4.6,16.6h-4.9l-4.8-16.6h4.2l3.2,13.6l3-13.6H380.4z"/>
		<path class="st1" d="M390.6,371.6c0.7,0.4,1.3,1,1.7,1.8s0.6,1.8,0.6,2.9s-0.2,2.1-0.7,3s-1.2,1.6-2.1,2.1s-1.9,0.8-3.1,0.8
			c-2.1,0-3.6-0.7-4.6-2.1s-1.5-3.3-1.5-5.7c0-1.8,0.3-3.4,0.9-4.8s1.4-2.4,2.4-3.2s2.3-1.1,3.8-1.1c1.4,0,2.6,0.4,3.7,1.1l-1.4,2.3
			c-0.7-0.4-1.5-0.6-2.2-0.6c-0.9,0-1.6,0.4-2.2,1.2s-0.9,1.9-1,3.3c1-1,2.1-1.5,3.4-1.5C389.1,371,389.9,371.2,390.6,371.6z
			 M388.6,378.7c0.3-0.6,0.5-1.3,0.5-2.3s-0.2-1.7-0.5-2.2c-0.3-0.4-0.8-0.6-1.4-0.6c-0.9,0-1.7,0.4-2.4,1.3c0,1.7,0.2,2.9,0.6,3.6
			c0.3,0.7,0.9,1.1,1.7,1.1C387.7,379.6,388.2,379.3,388.6,378.7z"/>
		<path class="st1" d="M405.1,367.5c1,1.5,1.6,3.6,1.6,6.3c0,2.7-0.5,4.8-1.6,6.3c-1,1.5-2.6,2.2-4.5,2.2c-2,0-3.5-0.7-4.5-2.2
			s-1.6-3.6-1.6-6.3c0-2.7,0.5-4.8,1.6-6.3c1-1.5,2.6-2.2,4.5-2.2S404,366.1,405.1,367.5z M399.2,368.7c-0.3,0.4-0.6,0.9-0.7,1.8
			c-0.2,0.8-0.2,1.9-0.2,3.4s0.1,2.6,0.2,3.4s0.4,1.4,0.7,1.8c0.3,0.4,0.8,0.5,1.3,0.5s1-0.2,1.3-0.5s0.6-0.9,0.7-1.8
			c0.2-0.8,0.2-2,0.2-3.4c0-1.5-0.1-2.6-0.2-3.4c-0.2-0.8-0.4-1.4-0.7-1.7c-0.3-0.3-0.8-0.5-1.3-0.5
			C400,368.1,399.5,368.3,399.2,368.7z"/>
		<path class="st1" d="M419.1,367.5c1,1.5,1.6,3.6,1.6,6.3c0,2.7-0.5,4.8-1.6,6.3c-1,1.5-2.6,2.2-4.5,2.2c-2,0-3.5-0.7-4.5-2.2
			s-1.6-3.6-1.6-6.3c0-2.7,0.5-4.8,1.6-6.3c1-1.5,2.6-2.2,4.5-2.2S418,366.1,419.1,367.5z M413.3,368.7c-0.3,0.4-0.6,0.9-0.7,1.8
			c-0.2,0.8-0.2,1.9-0.2,3.4s0.1,2.6,0.2,3.4s0.4,1.4,0.7,1.8c0.3,0.4,0.8,0.5,1.3,0.5s1-0.2,1.3-0.5s0.6-0.9,0.7-1.8
			c0.2-0.8,0.2-2,0.2-3.4c0-1.5-0.1-2.6-0.2-3.4c-0.2-0.8-0.4-1.4-0.7-1.7c-0.3-0.3-0.8-0.5-1.3-0.5
			C414,368.1,413.6,368.3,413.3,368.7z"/>
		<path class="st1" d="M433.3,365.3l-0.4,2.8H427v4h5.1v2.8H427v4.2h6.3v2.8h-10.2v-16.6L433.3,365.3L433.3,365.3z"/>
	</g>
</g>
<g>
	<g>
		<polygon class="st1" points="783.9,268 805,268 805,260.4 823.6,279 805,297.6 805,290 783.9,290 		"/>
	</g>
</g>
<g>
	<g>
		<polygon class="st1" points="332.8,0.8 332.8,21.9 340.4,21.9 321.8,40.5 303.2,21.9 310.8,21.9 310.8,0.8 		"/>
	</g>
</g>
<g>
	<path class="st5" d="M1043,240.2c7.4-3.8,8.7-9.9,9.7-17c1.7-12.8,3.5-25.7,5.8-38.3c4.4-24.8,9.9-49.4,13.7-74.4
		c2-13,11.3-21.8,22.9-24c4.1-0.8,8.5-2.4,12.2-4.6c5-2.9,8.8-6.9,9.3-13.5c0.6-7.2-4.1-11.5-7.9-15.9c-4.7-5.5-5.2-11.9-3.9-17.7
		c0.8-3.3,1.5-6.6,1.7-10.1c0.7-10.5,8-17.8,18.8-18.5c12.3-0.8,20.9,5,22.9,15.6c0.6,3.4-0.8,7.9,0.8,10.3c3.5,5,2.3,10.1,0.7,14.4
		c-1.9,5.1-5.6,9.2-8.6,13.6c-3.4,5-3.3,11.3,0.4,16.2c4.8,6.5,11.6,9.2,19.2,10.5c11.5,2,21.8,10.9,22.1,22.8
		c0.1,3,0.6,6.2,1.1,9.2c3.9,20.4,8,40.7,11.7,61.3c2.9,16.3,5.4,32.7,8,49.1c0.7,4.3,2.8,7,6.3,9.5c5.2,3.6,9.8,8,15.2,12.5
		c-4.1,1.9-6.8,0-9.4-2.1c-0.8-0.6-2.1-0.5-3.2-0.8c-0.3,1.1-0.8,2.2-0.6,3.2c1.4,4.7,2.9,9.2,4.4,13.8c0.7,2,1.2,4,1.8,5.9
		c-0.4,0.1-0.8,0.3-1.2,0.5c-4.4-3.5-4.1-9.8-8.4-13.7c1.4,5.9,2.8,11.7,4.1,17.6c-0.8,0.2-1.5,0.5-2.3,0.7
		c-1.8-5.5-3.5-11-5.3-16.7c-0.3,0.1-0.7,0.2-1,0.3c0.8,5,1.4,9.9,2.2,14.9c-0.8,0.1-1.4,0.3-2.1,0.4c-1.4-5.4-2.9-10.7-4.3-16
		c-0.3,0-0.6,0.1-0.8,0.2c0,4,0,8,0,12.4c-1-0.6-1.4-0.8-1.4-1c-0.3-0.6-0.7-1.1-0.7-1.6c-0.8-10.1-6.5-19.3-4.7-29.8
		c0.3-1.4-0.5-2.9-1-4.3c-2-5.8-4.3-11.6-6.2-17.4c-3.2-9.8-7.7-19.7-9-29.8c-1.8-14-5.5-27.2-10.8-40.2c-0.7-1.5-1.5-3.2-2.3-4.7
		c-0.5,0.1-0.8,0.2-1.4,0.3c-0.8,9.9-1.6,19.9-2.6,29.8c-1.1,11.3,0.6,22.1,5.3,32.6c5.4,11.9,7.7,24.6,6.8,37.4
		c-1.1,16.7-3.3,33.4-5.5,50c-1.5,11.2-4,22.2-2.4,33.7c0.6,4.7-0.2,9.4-0.3,14.1c-0.1,6.6-0.6,13.4,0,19.9
		c2,21.7,1.4,43.2-3.8,64.4c-3.2,13.4-2.9,25.7,5,37.5c2.1,3.2,3.2,7,4.3,10.6c1.1,3.3,0.8,6.6-3,8c-3.3,1.1-6.9,1.5-9.9,3
		c-3.9,2-6.5,0.5-8.1-2.5c-1.6-2.9-2.6-6.1-3.5-9.3c-1.1-3.6-2-7.3-2.9-11c-0.7-3-2.2-6.3-1.6-9.2c2.5-13.2,2.6-26.3,0-39.5
		c-3.2-16.1-3.2-32.3-2-48.7c0.4-5.1,0.6-10.3,0-15.4c-1.4-12.4-3.3-24.7-4.7-37.1c-1.6-15.3-2.8-30.8-4.1-46.1
		c-0.2-2.4-0.7-4.7-1.1-7c-0.4,0-0.8,0.1-1.1,0.1c-0.3,1.2-0.8,2.6-0.8,3.8c-1,11.6-1.8,23.2-2.8,34.7c-1.1,12.4-1.6,25-3.6,37.3
		c-1.9,11.3-3.3,22.6-2.3,34.1c1.4,14,0.8,27.9-1.8,41.7c-2.5,13.5-3.4,27.1-0.5,40.7c0.6,2.6,0.3,5.6-0.3,8.3
		c-1.1,4.8-2.4,9.7-4.1,14.2c-1.4,3.8-3.2,7.7-5.8,10.6c-1,1.1-4.7-0.1-7.1-0.2c-0.6,0-1.1,0.5-1.7,0.4c-6.6-1-13.4-4.8-9.5-13
		c2.8-5.8,5.1-11.9,8-17.6c2.9-5.9,3.4-12.1,2.1-18.5c-5-23.7-7.7-47.5-5.8-71.8c1.1-12.8,0.1-25.8,0.2-38.8
		c0.1-4.1,0.8-8.3,0.4-12.3c-2.2-18.2-4.3-36.4-7-54.5c-2.8-18.5-1.5-36.5,6.1-53.6c4.7-10.3,5.5-20.6,4.8-31.4
		c-0.2-3.8-0.5-7.7-0.8-11.5c-0.7-6.1-1.4-12.1-2.1-18.2c-1.6,1-2.3,1.9-2.6,2.9c-5.3,13.4-9.7,26.8-11.3,41.3
		c-1.1,10.1-5.8,20-9,29.8c-2.5,7.6-5.9,14.9-7.6,22.5c-2.1,9.2-2.8,18.8-4.1,28.1c-0.2,1.4-1.1,2.6-1.6,3.8
		c-0.4-0.1-0.8-0.3-1.2-0.4c0.3-4,0.5-8,0.7-11.9c-0.3,0-0.7-0.1-1.1-0.1c-1.4,5.3-2.8,10.7-4.1,16c-0.7-0.1-1.4-0.3-2.1-0.4
		c0.8-5,1.4-9.9,2.2-14.9c-0.3,0-0.7-0.1-1-0.1c-1.8,5.5-3.6,11-5.4,16.7c-0.8-0.2-1.4-0.5-2.2-0.7c1.4-5.9,2.8-11.9,4.1-17.8
		c-4.7,3.6-3.6,10.6-9.4,13.4c0-1.8,0.6-3.3,1.1-5c1.6-5,3.3-9.8,4.7-14.6c0.3-1.1-0.2-2.4-0.4-3.6c-1.1,0.4-2.5,0.5-3.4,1.1
		c-2.6,1.8-5,3.6-8.9,2C1034.6,247.5,1038.1,242.9,1043,240.2z"/>
	<g>
		<path id="path882_7_" class="st6" d="M1124.6,101.2c-0.5-2.4-1.6-5.2-2.9-7.3c-1.3-2.2-2.8-4-4.2-4.8c-1.6-0.8-3.2-0.8-5.6,0.7
			c-2.4,1.5-5.6,4.2-8.3,7.8c-2.7,3.5-4.9,7.7-6.1,10.5c-1.3,2.8-1.5,4-1.6,4.9c-0.1,0.9,0,1.5-0.7,4.7c-0.7,3.2-2,8.9-2.7,12.7
			c-0.8,4-0.9,6-0.9,7.3c0,1.3,0.2,1.8,1.3,2.3c1,0.6,3.1,1.2,5.4,0.9c2.2-0.2,4.8-1.4,7.2-2.3c2.4-0.9,4.9-1.6,6.8-2.1
			c2-0.5,3.2-0.8,4.9-2.4c1.6-1.7,3.6-5,4.9-9.5c1.3-4.5,2-10.5,2.3-14.6C1124.9,105.9,1125.1,103.6,1124.6,101.2L1124.6,101.2z"/>
		<path id="path882-7_7_" class="st7" d="M1124.6,101.2c-0.5-2.4-1.6-5.2-2.9-7.3c-1.3-2.2-2.8-4-4.2-4.8c-1.6-0.8-3.2-0.8-5.6,0.7
			c-2.4,1.5-5.6,4.2-8.3,7.8c-2.7,3.5-4.9,7.7-6.1,10.5c-1.3,2.8-1.5,4-1.6,4.9c-0.1,0.9,0,1.5,1.7,5.7c1.6,4.2,4.8,11.9,7.7,15.5
			c2.8,3.5,5.3,2.8,7.1,2.3c1.8-0.5,3.2-0.8,4.9-2.4c1.6-1.7,3.6-5,4.9-9.5c1.3-4.5,2-10.5,2.3-14.6
			C1124.8,105.8,1125.1,103.6,1124.6,101.2L1124.6,101.2z"/>
		<path id="path882-7-9_7_" class="st8" d="M1124.6,101.2c-0.5-2.4-1.6-5.2-2.9-7.3c-1.3-2.2-2.8-4-4.2-4.8
			c-1.6-0.8-3.2-0.8-5.6,0.7c-2.4,1.5-5.6,4.2-7.7,6.9c-2.2,2.6-3.4,4.9-4.4,6.5c-0.9,1.7-1.5,2.9-2,4.8c-0.5,2-1.1,4.4,3.1,7.7
			c4.2,3.1,13.1,6.6,17.8,5.6c4.8-1.2,5.4-7,5.8-11.1C1124.8,105.8,1125.1,103.6,1124.6,101.2z"/>
		<path id="path882-8_7_" class="st7" d="M1131.1,101.2c0.5-2.4,1.6-5.2,2.9-7.3c1.3-2.2,2.8-4,4.2-4.8c1.6-0.8,3.2-0.8,5.6,0.7
			c2.4,1.5,5.6,4.2,8.3,7.8c2.7,3.5,4.9,7.7,6.1,10.5c1.3,2.8,1.5,4,1.6,4.9c0.1,0.9,0,1.5,0.7,4.7c0.7,3.2,2,8.9,2.7,12.7
			c0.8,4,0.9,6,0.9,7.3c0,1.3-0.2,1.8-1.3,2.3c-1.1,0.5-3.1,1.2-5.4,0.9c-2.2-0.2-4.8-1.4-7.2-2.3c-2.4-0.9-4.9-1.6-6.8-2.1
			c-2-0.5-3.2-0.8-4.9-2.4c-1.6-1.7-3.6-5-4.9-9.5c-1.3-4.5-2-10.5-2.3-14.6C1130.8,105.9,1130.6,103.6,1131.1,101.2L1131.1,101.2z"
			/>
		<path id="path882-7-5_7_" class="st8" d="M1131.1,101.2c0.5-2.4,1.6-5.2,2.9-7.3c1.3-2.2,2.8-4,4.2-4.8c1.6-0.8,3.2-0.8,5.6,0.7
			c2.4,1.5,5.6,4.2,8.3,7.8c2.7,3.5,4.9,7.7,6,10.2c1.1,2.4,1.3,3.2,1.6,5.3c0.3,2.1,0.8,5.8-0.9,11.9c-1.8,6.1-6.1,14.4-8.4,13.3
			c-2.3-1.1-2.9-11.7-4.9-16.1c-2.1-4.4-5.8-2.8-8.1-2.9c-2.2,0-3.1-1.8-4-4c-0.8-2.1-1.7-4.5-2.2-7
			C1130.6,105.8,1130.6,103.6,1131.1,101.2L1131.1,101.2z"/>
		<path class="st9" d="M1138.9,102c-1.2,0.1-3.1,0.8-4.5,0.8c-0.8,0-2.6-0.7-3.7-2h0.1c-0.1-0.2-0.2-0.3-0.5-0.5
			c-0.1-0.2-0.2-0.3-0.3-0.5c0.5-0.1,0.8-0.5,0.8-0.9s-0.5-0.9-0.9-0.9h-0.2v-0.5h0.2c0.5,0,0.9-0.5,0.9-0.9c0-0.5-0.5-0.9-0.9-0.9
			h-0.2v-0.5h0.2c0.5,0,0.9-0.5,0.9-0.9s-0.5-0.9-0.9-0.9h-0.2v-0.5h0.2c0.5,0,0.9-0.5,0.9-0.9c0-0.5-0.5-0.9-0.9-0.9h-0.2v-0.5h0.2
			c0.5,0,0.9-0.5,0.9-0.9c0-0.5-0.5-0.9-0.9-0.9h-0.2v-0.8h0.2c0.5,0,0.9-0.5,0.9-0.9s-0.5-0.9-0.9-0.9h-0.2V86h0.2
			c0.5,0,0.9-0.5,0.9-0.9c0-0.5-0.5-0.9-0.9-0.9h-0.2l0,0h0.2c0.5,0,0.9-0.5,0.9-0.9c0-0.5-0.5-0.9-0.9-0.9h-0.2V82h0.2
			c0.5,0,0.9-0.5,0.9-0.9c0-0.5-0.5-0.9-0.9-0.9h-0.2v-0.5c0,0,0-0.1-0.1-0.1h-2.9c0,0-0.1,0-0.1,0.1v0.5h-0.1
			c-0.5,0-0.9,0.5-0.9,0.9c0,0.5,0.5,0.9,0.9,0.9h0.2v0.5h-0.2c-0.5,0-0.9,0.5-0.9,0.9c0,0.5,0.5,0.9,0.9,0.9h0.2v0.5h-0.2
			c-0.5,0-0.9,0.5-0.9,0.9s0.5,0.9,0.9,0.9h0.2v0.5h-0.2c-0.5,0-0.9,0.5-0.9,0.9s0.5,0.9,0.9,0.9h0.2v0.5h-0.2
			c-0.5,0-0.9,0.5-0.9,0.9c0,0.5,0.5,0.9,0.9,0.9h0.2v0.5h-0.2c-0.5,0-0.9,0.5-0.9,0.9c0,0.5,0.5,0.9,0.9,0.9h0.2v0.5h-0.2
			c-0.5,0-0.9,0.5-0.9,0.9s0.5,0.9,0.9,0.9h0.2v0.5h-0.2c-0.5,0-0.9,0.5-0.9,0.9s0.5,0.9,0.9,0.9h0.2v0.5h-0.2
			c-0.5,0-0.9,0.5-0.9,0.9c0,0.5,0.5,0.9,0.9,0.9h0.2v0.2c-0.1,0.1-0.1,0.1-0.2,0.2c-0.3,0-0.7,0.2-0.8,0.5h0.3
			c-1.5,1.3-3.6,2.1-4.4,2.3c-1.1,0.5-2.1,0.3-3.5,0.3c-1.4,0-2.9,0.1-2.9,0.3c0.1,0.2,1.7,0.5,3.1,0.8c1.4,0.3,2.4,0.5,2.7,1.2
			c0.3,0.7-0.2,1.7-1.1,2.4c-0.8,0.7-2,0.9-3.4,1.4c-1.5,0.5-3.2,0.8-3.2,1.1c0,0.2,2,0,2.9,0.7c0.9,0.7,1.2,2,1.5,2.9
			c0.2,0.8,0.5,1.1,0.7,0.5c0.2-0.7,0-2.2,0.5-3.2c0.5-1.1,1.2-1.6,1.6-2s4.1-4,4.7-4.1c0.5-0.3,1.7-0.9,2.7-1.1
			c1.1-0.1,2,0.2,3.3,1.3c1.3,1.1,2.9,2.9,4.1,4s2,1.3,2.3,1.2c0.5-0.1,0.5-0.7-0.2-1.7c-0.7-1.1-2.1-2.7-2.3-3.6
			c-0.2-0.9,0.9-1.2,2-1.5c1.2-0.3,2.3-0.8,2.8-1.2C1140.3,102.1,1140.1,101.8,1138.9,102z"/>
		<path class="st10" d="M1131.4,109.5c0.2,6.2,9.2,10.5,13.5,6.6c2.3-2-0.5-6.4-2.3-9.5C1139.5,100.9,1131.2,104,1131.4,109.5z"/>
	</g>
</g>
<g>
	<path class="st11" d="M1192.5,86.6l-15.4,15.4l0.2,0.2l15.4-15.4C1192.8,86.7,1192.7,86.7,1192.5,86.6L1192.5,86.6z"/>
	<path class="st12" d="M1192.5,86.6c0.1,0.1,0.2,0.2,0.3,0.2c0.6,0.5,1.3,0.3,1.3,0.3l7.7-7.7l-1-1l-7,7L1192.5,86.6L1192.5,86.6z"
		/>
	<polygon class="st11" points="1201.7,79.4 1206.8,84.5 1237.5,53.7 1232.5,48.7 1228.2,53 1232.3,57.1 1230.3,59 1230.3,59 
		1206.8,82.4 1202.8,78.4 1201.7,77.3 1200.7,78.4 	"/>
	<polygon class="st13" points="1202.8,78.4 1206.8,82.4 1230.3,59 1225.2,53.9 1203.5,75.6 1201.7,77.3 	"/>
	<polygon class="st14" points="1234.7,46.4 1253.9,27.3 1259.2,32.7 1261.1,30.7 1254.8,24.4 1254,25.2 1252.8,26.3 1233.7,45.5 	
		"/>
	<polygon class="st14" points="1230.3,59 1230.3,59 1232.3,57.1 1228.2,53 1232.5,48.7 1231.5,47.6 1227.2,52 1225.8,53.2 
		1225.6,53.5 1225.2,53.9 	"/>
	<polygon class="st12" points="1232.5,48.7 1237.5,53.7 1240.3,56.4 1242.4,54.3 1234.7,46.4 1233.7,45.5 1231.8,47.3 1231.5,47.6 	
		"/>
	<path class="st12" d="M1192.2,86.3l-15.4,15.4l0.3,0.3l15.4-15.4C1192.4,86.5,1192.3,86.4,1192.2,86.3z"/>
	<path class="st15" d="M1192.2,86.3c0.1,0.1,0.2,0.2,0.3,0.3l1.2-1.2l7-7l-1-1l-7.7,7.7C1192,85,1191.8,85.6,1192.2,86.3z"/>
	<polygon class="st12" points="1199.6,77.3 1200.7,78.4 1201.7,77.3 1200.7,76.3 1196.6,72.3 1220,48.8 1220,48.8 1222,46.8 
		1226.1,50.8 1230.4,46.6 1225.3,41.5 1194.6,72.3 	"/>
	<polygon class="st10" points="1200.7,76.3 1201.7,77.3 1203.5,75.6 1225.2,53.9 1220,48.8 1196.6,72.3 	"/>
	<polygon class="st16" points="1251.8,25.2 1232.6,44.4 1233.7,45.5 1252.8,26.3 1254,25.2 1254.8,24.4 1248.4,18 1246.4,19.9 	"/>
	<polygon class="st16" points="1220,48.8 1225.2,53.9 1225.6,53.5 1225.8,53.2 1227.2,52 1231.5,47.6 1230.4,46.6 1226.1,50.8 
		1222,46.8 	"/>
	<polygon class="st15" points="1225.3,41.5 1230.4,46.6 1231.5,47.6 1231.8,47.3 1233.7,45.5 1232.6,44.4 1224.8,36.5 1222.6,38.8 	
		"/>
	<g class="st17">
		
			<rect x="1200.8" y="70.4" transform="matrix(0.7071 -0.7071 0.7071 0.7071 299.8179 870.8293)" class="st9" width="0.6" height="6.2"/>
		
			<rect x="1203.3" y="68" transform="matrix(0.7071 -0.7071 0.7071 0.7071 302.2406 871.8892)" class="st9" width="0.6" height="6.2"/>
		
			<rect x="1205.7" y="65.6" transform="matrix(0.7071 -0.7071 0.7071 0.7071 304.64 872.9197)" class="st9" width="0.6" height="6.2"/>
		
			<rect x="1208.2" y="63.1" transform="matrix(0.7071 -0.7071 0.7071 0.7071 307.1436 873.9608)" class="st9" width="0.6" height="6.2"/>
		
			<rect x="1210.6" y="60.7" transform="matrix(0.7071 -0.7071 0.7071 0.7071 309.5486 874.9387)" class="st9" width="0.6" height="6.2"/>
		
			<rect x="1213.1" y="58.2" transform="matrix(0.7071 -0.7071 0.7071 0.7071 312.0535 875.9803)" class="st9" width="0.6" height="6.2"/>
		
			<rect x="1215.5" y="55.8" transform="matrix(0.7071 -0.7071 0.7071 0.7071 314.4229 876.9595)" class="st9" width="0.6" height="6.2"/>
		
			<rect x="1218" y="53.4" transform="matrix(0.7071 -0.7071 0.7071 0.7071 316.8793 878.0448)" class="st9" width="0.6" height="6.2"/>
		
			<rect x="1220.3" y="50.9" transform="matrix(0.7071 -0.7071 0.7071 0.7071 319.3063 878.9138)" class="st9" width="0.6" height="6.2"/>
	</g>
</g>
</svg>
