<?xml version="1.0" encoding="utf-8"?>
<!-- Generator: Adobe Illustrator 24.1.0, SVG Export Plug-In . SVG Version: 6.00 Build 0)  -->
<svg version="1.1" id="Capa_1" xmlns="http://www.w3.org/2000/svg" xmlns:xlink="http://www.w3.org/1999/xlink" x="0px" y="0px"
	 viewBox="0 0 1379.6 352.4" style="enable-background:new 0 0 1379.6 352.4;" xml:space="preserve">
<style type="text/css">
	.st0{fill:#373A47;}
	.st1{fill:#FFFFFF;stroke:#FF2A2A;stroke-width:0.75;stroke-miterlimit:10;}
	.st2{fill:#FF2A2A;}
</style>
<g>
	<g>
		<polygon class="st0" points="700.8,312.4 700.8,333.5 708.3,333.5 689.8,352.1 671.2,333.5 678.8,333.5 678.8,312.4 		"/>
	</g>
</g>
<g>
	<g>
		<polygon class="st0" points="700.8,1.4 700.8,22.5 708.3,22.5 689.8,41.1 671.2,22.5 678.8,22.5 678.8,1.4 		"/>
	</g>
</g>
<g>
	<path class="st1" d="M63,96.9H49.5c0,47.2,17.1,65.1,35.3,80.1c-18.1,14.8-35.3,32.4-35.3,78.5H63c0-41.7,14.8-56.9,31.6-70.6
		c16.8,13.7,31.6,28.9,31.6,70.6h13.5c0-46.1-17.2-63.7-35.3-78.5c18.2-15,35.3-33,35.3-80.1h-13.5c0,42.7-14.7,58.4-31.6,72.2
		C77.7,155.2,63,139.6,63,96.9z"/>
	<polygon class="st2" points="55.8,138.3 62.2,127.7 51.5,127.7 51.5,117.2 40.8,123.6 30.3,117.2 30.3,127.7 19.7,127.7 
		26.1,138.3 19.7,149 30.3,149 30.3,159.5 40.8,153.1 51.5,159.5 51.5,149 62.2,149 	"/>
	<path class="st1" d="M233,96.9h-13.5c0,47.2,17.1,65.1,35.3,80.1c-18.1,14.8-35.3,32.4-35.3,78.5H233c0-41.7,14.8-56.9,31.6-70.6
		c16.8,13.7,31.6,28.9,31.6,70.6h13.5c0-46.1-17.2-63.7-35.3-78.5c18.2-15,35.3-33,35.3-80.1h-13.5c0,42.7-14.7,58.4-31.6,72.2
		C247.7,155.2,233,139.6,233,96.9z"/>
	<polygon class="st2" points="224.8,218.3 228.7,211.9 222.3,211.9 222.3,205.6 215.9,209.5 209.6,205.6 209.6,211.9 203.2,211.9 
		207,218.3 203.2,224.7 209.6,224.7 209.6,231 215.9,227.2 222.3,231 222.3,224.7 228.7,224.7 	"/>
	<path class="st1" d="M403,96.9h-13.5c0,47.2,17.1,65.1,35.3,80.1c-18.1,14.8-35.3,32.4-35.3,78.5H403c0-41.7,14.8-56.9,31.6-70.6
		c16.8,13.7,31.6,28.9,31.6,70.6h13.5c0-46.1-17.2-63.7-35.3-78.5c18.2-15,35.3-33,35.3-80.1h-13.5c0,42.7-14.7,58.4-31.6,72.2
		C417.7,155.2,403,139.6,403,96.9z"/>
	<polygon class="st2" points="493.8,122.3 497.7,115.9 491.3,115.9 491.3,109.6 484.9,113.5 478.6,109.6 478.6,115.9 472.2,115.9 
		476,122.3 472.2,128.7 478.6,128.7 478.6,135 484.9,131.2 491.3,135 491.3,128.7 497.7,128.7 	"/>
	<path class="st1" d="M573,96.9h-13.5c0,47.2,17.1,65.1,35.3,80.1c-18.1,14.8-35.3,32.4-35.3,78.5H573c0-41.7,14.8-56.9,31.6-70.6
		c16.8,13.7,31.6,28.9,31.6,70.6h13.5c0-46.1-17.2-63.7-35.3-78.5c18.2-15,35.3-33,35.3-80.1h-13.5c0,42.7-14.7,58.4-31.6,72.2
		C587.7,155.2,573,139.6,573,96.9z"/>
	<polygon class="st2" points="575.8,158.3 582.2,147.7 571.5,147.7 571.5,137.2 560.8,143.6 550.3,137.2 550.3,147.7 539.7,147.7 
		546.1,158.3 539.7,169 550.3,169 550.3,179.5 560.8,173.1 571.5,179.5 571.5,169 582.2,169 	"/>
	<polygon class="st2" points="663.8,234.3 667.7,227.9 661.3,227.9 661.3,221.6 654.9,225.5 648.6,221.6 648.6,227.9 642.2,227.9 
		646,234.3 642.2,240.7 648.6,240.7 648.6,247 654.9,243.2 661.3,247 661.3,240.7 667.7,240.7 	"/>
	<path class="st1" d="M743,96.9h-13.5c0,47.2,17.1,65.1,35.3,80.1c-18.1,14.8-35.3,32.4-35.3,78.5H743c0-41.7,14.8-56.9,31.6-70.6
		c16.8,13.7,31.6,28.9,31.6,70.6h13.5c0-46.1-17.2-63.7-35.3-78.5c18.2-15,35.3-33,35.3-80.1h-13.5c0,42.7-14.7,58.4-31.6,72.2
		C757.7,155.2,743,139.6,743,96.9z"/>
	<polygon class="st2" points="755.8,184.3 759.7,177.9 753.3,177.9 753.3,171.6 746.9,175.5 740.6,171.6 740.6,177.9 734.2,177.9 
		738,184.3 734.2,190.7 740.6,190.7 740.6,197 746.9,193.2 753.3,197 753.3,190.7 759.7,190.7 	"/>
	<path class="st1" d="M913,96.9h-13.5c0,47.2,17.1,65.1,35.3,80.1c-18.1,14.8-35.3,32.4-35.3,78.5H913c0-41.7,14.8-56.9,31.6-70.6
		c16.8,13.7,31.6,28.9,31.6,70.6h13.5c0-46.1-17.2-63.7-35.3-78.5c18.2-15,35.3-33,35.3-80.1h-13.5c0,42.7-14.7,58.4-31.6,72.2
		C927.7,155.2,913,139.6,913,96.9z"/>
	<polygon class="st2" points="905.8,138.3 912.2,127.7 901.5,127.7 901.5,117.2 890.8,123.6 880.3,117.2 880.3,127.7 869.7,127.7 
		876.1,138.3 869.7,149 880.3,149 880.3,159.5 890.8,153.1 901.5,159.5 901.5,149 912.2,149 	"/>
	<path class="st1" d="M1083,96.9h-13.5c0,47.2,17.1,65.1,35.3,80.1c-18.1,14.8-35.3,32.4-35.3,78.5h13.5c0-41.7,14.8-56.9,31.6-70.6
		c16.8,13.7,31.6,28.9,31.6,70.6h13.5c0-46.1-17.2-63.7-35.3-78.5c18.2-15,35.3-33,35.3-80.1h-13.5c0,42.7-14.7,58.4-31.6,72.2
		C1097.7,155.2,1083,139.6,1083,96.9z"/>
	<polygon class="st2" points="1144.8,228.3 1148.7,221.9 1142.3,221.9 1142.3,215.6 1135.9,219.5 1129.6,215.6 1129.6,221.9 
		1123.2,221.9 1127,228.3 1123.2,234.7 1129.6,234.7 1129.6,241 1135.9,237.2 1142.3,241 1142.3,234.7 1148.7,234.7 	"/>
	<path class="st1" d="M1253,96.9h-13.5c0,47.2,17.1,65.1,35.3,80.1c-18.1,14.8-35.3,32.4-35.3,78.5h13.5c0-41.7,14.8-56.9,31.6-70.6
		c16.8,13.7,31.6,28.9,31.6,70.6h13.5c0-46.1-17.2-63.7-35.3-78.5c18.2-15,35.3-33,35.3-80.1h-13.5c0,42.7-14.7,58.4-31.6,72.2
		C1267.7,155.2,1253,139.6,1253,96.9z"/>
	<polygon class="st2" points="1249.8,143.3 1253.7,136.9 1247.3,136.9 1247.3,130.6 1240.9,134.5 1234.6,130.6 1234.6,136.9 
		1228.2,136.9 1232,143.3 1228.2,149.7 1234.6,149.7 1234.6,156 1240.9,152.2 1247.3,156 1247.3,149.7 1253.7,149.7 	"/>
</g>
</svg>
