<?xml version="1.0" encoding="utf-8"?>
<!-- Generator: Adobe Illustrator 24.1.0, SVG Export Plug-In . SVG Version: 6.00 Build 0)  -->
<svg version="1.1" id="Capa_1" xmlns="http://www.w3.org/2000/svg" xmlns:xlink="http://www.w3.org/1999/xlink" x="0px" y="0px"
	 viewBox="0 0 1379.6 493.1" style="enable-background:new 0 0 1379.6 493.1;" xml:space="preserve">
<style type="text/css">
	.st0{enable-background:new    ;}
	.st1{fill:#373A47;}
	.st2{fill:none;stroke:#AFAAAA;stroke-miterlimit:10;}
	.st3{fill:#8FB5BC;}
	.st4{fill:#FF2A2A;}
	.st5{fill:#DCDEE0;}
	.st6{fill:#ABAFB2;}
	.st7{fill:#4D4D4D;}
	.st8{fill:#939393;}
	.st9{fill:#D31616;}
	.st10{fill:#333333;}
	.st11{opacity:0.4;}
	.st12{fill:#FFFFFF;}
	.st13{fill:none;stroke:#C0D9DF;stroke-miterlimit:10;}
	.st14{fill:#FFFFFF;stroke:#FF6600;stroke-width:0.75;stroke-miterlimit:10;}
	.st15{fill:#CC6633;}
</style>
<g>
	<g class="st0">
		<path class="st1" d="M67.6,325.5c0.8,0.3,1.5,0.8,2.3,1.4l-1.3,1.4c-0.6-0.5-1.2-0.8-1.7-1S65.7,327,65,327
			c-0.8,0-1.6,0.2-2.3,0.7s-1.3,1.2-1.7,2.2s-0.7,2.3-0.7,3.8c0,2.3,0.4,4,1.1,5.1s1.9,1.6,3.4,1.6c1.2,0,2.3-0.2,3.1-0.7v-5H65
			l-0.3-1.8H70v8c-1.7,1-3.5,1.5-5.4,1.5c-2.2,0-3.9-0.7-5.1-2.2c-1.2-1.5-1.8-3.6-1.8-6.4c0-1.8,0.3-3.3,1-4.6
			c0.6-1.3,1.5-2.3,2.6-2.9c1.1-0.7,2.3-1,3.6-1C65.9,325.1,66.8,325.2,67.6,325.5z"/>
		<path class="st1" d="M83.3,336.3h-8.1c0.1,1.4,0.4,2.4,1.1,3.1s1.4,1,2.4,1c0.6,0,1.2-0.1,1.7-0.3c0.5-0.2,1-0.5,1.6-0.8l1,1.3
			c-1.3,1.1-2.8,1.6-4.4,1.6c-1.8,0-3.1-0.6-4.1-1.7c-1-1.2-1.5-2.7-1.5-4.8c0-1.3,0.2-2.5,0.6-3.5s1-1.8,1.8-2.4s1.7-0.9,2.8-0.9
			c1.7,0,3,0.6,3.9,1.7s1.3,2.6,1.3,4.6C83.4,335.6,83.3,335.9,83.3,336.3z M81.2,334.5c0-1.2-0.2-2.2-0.7-2.9s-1.2-1-2.2-1
			c-1.8,0-2.8,1.3-3,4h5.9C81.2,334.6,81.2,334.5,81.2,334.5z"/>
		<path class="st1" d="M95.5,330c0.6,0.7,1,1.6,1,2.8v9.1h-2.2v-8.8c0-0.9-0.2-1.5-0.5-1.9s-0.8-0.6-1.5-0.6s-1.3,0.2-1.8,0.6
			s-1,0.9-1.4,1.7v9h-2.2v-12.6h1.9l0.2,1.9c0.4-0.7,1-1.2,1.7-1.6s1.4-0.6,2.2-0.6C94,329,94.9,329.3,95.5,330z"/>
	</g>
	<g class="st0">
		<path class="st1" d="M67.1,365.4c0.7,0.3,1.4,0.7,2.1,1.2l-1.2,1.5c-1-0.8-2.1-1.2-3.2-1.2c-1.4,0-2.5,0.5-3.3,1.6
			s-1.3,2.8-1.3,5.1c0,2.3,0.4,3.9,1.2,5s1.9,1.6,3.3,1.6c0.7,0,1.3-0.1,1.8-0.4c0.5-0.2,1.1-0.6,1.7-1l1.1,1.4
			c-0.5,0.5-1.2,1-2,1.3c-0.8,0.4-1.7,0.5-2.8,0.5c-1.3,0-2.5-0.3-3.6-1c-1-0.7-1.9-1.6-2.4-2.9c-0.6-1.3-0.9-2.8-0.9-4.6
			s0.3-3.4,0.9-4.6c0.6-1.3,1.4-2.3,2.5-2.9c1-0.7,2.2-1,3.5-1C65.6,365.1,66.4,365.2,67.1,365.4z"/>
		<path class="st1" d="M80.6,380.1c0.2,0.2,0.4,0.4,0.8,0.6l-0.5,1.5c-0.7-0.1-1.2-0.3-1.6-0.6c-0.4-0.3-0.7-0.7-0.9-1.3
			c-0.8,1.3-2.1,1.9-3.8,1.9c-1.2,0-2.2-0.4-3-1.1c-0.7-0.7-1.1-1.6-1.1-2.8c0-1.3,0.5-2.4,1.5-3.1s2.3-1.1,4.1-1.1H78v-0.9
			c0-0.9-0.2-1.5-0.6-1.9s-1.1-0.6-2-0.6s-2.1,0.2-3.4,0.7l-0.6-1.6c1.6-0.6,3-0.9,4.4-0.9c1.5,0,2.6,0.4,3.3,1.1s1.1,1.8,1.1,3.1
			v5.8C80.4,379.4,80.5,379.8,80.6,380.1z M78.2,378.6v-2.9h-1.7c-2.3,0-3.5,0.9-3.5,2.6c0,0.8,0.2,1.3,0.6,1.7s0.9,0.6,1.6,0.6
			C76.5,380.5,77.5,379.9,78.2,378.6z"/>
		<path class="st1" d="M93.6,370c0.6,0.7,1,1.6,1,2.8v9.1h-2.2v-8.8c0-0.9-0.2-1.5-0.5-1.9s-0.8-0.6-1.5-0.6s-1.3,0.2-1.8,0.6
			s-1,0.9-1.4,1.7v9H85v-12.6h1.9l0.2,1.9c0.4-0.7,1-1.2,1.7-1.6s1.4-0.6,2.2-0.6C92,369,92.9,369.3,93.6,370z"/>
		<path class="st1" d="M108.1,369.2l-4.3,12.6h-2.7l-4.4-12.6h2.4l3.3,10.7l3.3-10.7H108.1z"/>
		<path class="st1" d="M112.8,363.6c0.3,0.3,0.4,0.6,0.4,1.1s-0.1,0.8-0.4,1.1c-0.3,0.3-0.7,0.4-1.1,0.4s-0.8-0.1-1.1-0.4
			c-0.3-0.3-0.4-0.6-0.4-1.1s0.1-0.8,0.4-1.1c0.3-0.3,0.7-0.4,1.1-0.4C112.2,363.2,112.5,363.3,112.8,363.6z M112.8,369.2v12.6h-2.2
			v-12.6H112.8z"/>
		<path class="st1" d="M132.5,380.1c0.2,0.2,0.4,0.4,0.8,0.6l-0.5,1.5c-0.7-0.1-1.2-0.3-1.6-0.6c-0.4-0.3-0.7-0.7-0.9-1.3
			c-0.8,1.3-2.1,1.9-3.8,1.9c-1.2,0-2.2-0.4-3-1.1c-0.7-0.7-1.1-1.6-1.1-2.8c0-1.3,0.5-2.4,1.5-3.1s2.3-1.1,4.1-1.1h1.9v-0.9
			c0-0.9-0.2-1.5-0.6-1.9c-0.4-0.4-1.1-0.6-2-0.6c-0.9,0-2.1,0.2-3.4,0.7l-0.6-1.6c1.6-0.6,3-0.9,4.4-0.9c1.5,0,2.6,0.4,3.3,1.1
			s1.1,1.8,1.1,3.1v5.8C132.3,379.4,132.4,379.8,132.5,380.1z M130.1,378.6v-2.9h-1.7c-2.3,0-3.5,0.9-3.5,2.6c0,0.8,0.2,1.3,0.6,1.7
			s0.9,0.6,1.6,0.6C128.3,380.5,129.3,379.9,130.1,378.6z"/>
		<path class="st1" d="M143.8,381.4c-0.5-0.5-0.7-1.2-0.7-2.1v-15.2l2.2-0.3v15.5c0,0.4,0.1,0.6,0.2,0.8c0.1,0.2,0.3,0.2,0.6,0.2
			s0.6,0,0.8-0.1l0.6,1.5c-0.5,0.3-1.1,0.4-1.8,0.4C144.9,382.2,144.2,381.9,143.8,381.4z"/>
		<path class="st1" d="M158.9,380.1c0.2,0.2,0.4,0.4,0.8,0.6l-0.5,1.5c-0.7-0.1-1.2-0.3-1.6-0.6c-0.4-0.3-0.7-0.7-0.9-1.3
			c-0.8,1.3-2.1,1.9-3.8,1.9c-1.2,0-2.2-0.4-3-1.1c-0.7-0.7-1.1-1.6-1.1-2.8c0-1.3,0.5-2.4,1.5-3.1s2.3-1.1,4.1-1.1h1.9v-0.9
			c0-0.9-0.2-1.5-0.6-1.9c-0.4-0.4-1.1-0.6-2-0.6s-2.1,0.2-3.4,0.7l-0.6-1.6c1.6-0.6,3-0.9,4.4-0.9c1.5,0,2.6,0.4,3.3,1.1
			s1.1,1.8,1.1,3.1v5.8C158.6,379.4,158.7,379.8,158.9,380.1z M156.4,378.6v-2.9h-1.7c-2.3,0-3.5,0.9-3.5,2.6c0,0.8,0.2,1.3,0.6,1.7
			s0.9,0.6,1.6,0.6C154.7,380.5,155.7,379.9,156.4,378.6z"/>
		<path class="st1" d="M178.9,370.7c0.8,1.2,1.1,2.8,1.1,4.9c0,2-0.4,3.6-1.3,4.8c-0.9,1.2-2.1,1.8-3.7,1.8c-1.4,0-2.5-0.5-3.3-1.4
			v6l-2.2,0.3v-17.8h1.9l0.2,1.7c0.5-0.6,1-1.1,1.7-1.5c0.7-0.3,1.3-0.5,2.1-0.5C176.9,369,178.1,369.5,178.9,370.7z M177.6,375.6
			c0-3.2-1-4.8-2.9-4.8c-0.6,0-1.2,0.2-1.7,0.6s-1,0.8-1.3,1.4v6.2c0.3,0.5,0.7,0.9,1.2,1.1c0.5,0.3,1,0.4,1.6,0.4
			C176.6,380.4,177.6,378.8,177.6,375.6z"/>
		<path class="st1" d="M190.5,369.1l-0.4,2.2c-0.4-0.1-0.8-0.1-1.1-0.1c-0.8,0-1.4,0.3-1.9,0.9s-0.9,1.5-1.1,2.7v7.2h-2.2v-12.6h1.9
			l0.2,2.6c0.3-0.9,0.8-1.7,1.4-2.1c0.6-0.5,1.2-0.7,2-0.7C189.7,369,190.1,369,190.5,369.1z"/>
		<path class="st1" d="M201.2,370.7c1,1.2,1.5,2.8,1.5,4.8c0,1.3-0.2,2.5-0.7,3.5c-0.4,1-1.1,1.8-1.9,2.3c-0.8,0.6-1.9,0.8-3,0.8
			c-1.8,0-3.2-0.6-4.2-1.8c-1-1.2-1.5-2.8-1.5-4.8c0-1.3,0.2-2.5,0.7-3.5c0.4-1,1.1-1.8,1.9-2.3s1.9-0.8,3-0.8
			C198.8,369,200.2,369.5,201.2,370.7z M193.8,375.6c0,3.2,1.1,4.8,3.3,4.8s3.3-1.6,3.3-4.8c0-3.2-1.1-4.8-3.2-4.8
			C194.9,370.7,193.8,372.3,193.8,375.6z"/>
		<path class="st1" d="M212.7,381.3c-0.8,0.6-1.8,0.9-2.8,0.9c-1.1,0-1.9-0.3-2.5-0.9s-0.9-1.5-0.9-2.7V371h-2.2v-1.7h2.2v-2.9
			l2.2-0.3v3.1h3l-0.2,1.7h-2.8v7.5c0,0.7,0.1,1.1,0.3,1.4s0.6,0.4,1.2,0.4c0.5,0,1.1-0.2,1.7-0.5L212.7,381.3z"/>
		<path class="st1" d="M224.1,376.3H216c0.1,1.4,0.4,2.4,1.1,3.1s1.4,1,2.4,1c0.6,0,1.2-0.1,1.7-0.3c0.5-0.2,1-0.5,1.6-0.8l1,1.3
			c-1.3,1.1-2.8,1.6-4.4,1.6c-1.8,0-3.1-0.6-4.1-1.7c-1-1.2-1.5-2.7-1.5-4.8c0-1.3,0.2-2.5,0.6-3.5s1-1.8,1.8-2.4s1.7-0.9,2.8-0.9
			c1.7,0,3,0.6,3.9,1.7s1.3,2.6,1.3,4.6C224.2,375.6,224.1,375.9,224.1,376.3z M222,374.5c0-1.2-0.2-2.2-0.7-2.9s-1.2-1-2.2-1
			c-1.8,0-2.8,1.3-3,4h5.9V374.5z"/>
		<path class="st1" d="M227.2,363.9c0.3,0.3,0.4,0.6,0.4,1s-0.1,0.7-0.4,1s-0.6,0.4-1,0.4s-0.7-0.1-1-0.4s-0.4-0.6-0.4-1
			s0.1-0.7,0.4-1c0.3-0.3,0.6-0.4,1-0.4C226.7,363.5,227,363.6,227.2,363.9z M229.9,369.2v12.6h-2.2v-12.6H229.9z M232.3,363.9
			c0.3,0.3,0.4,0.6,0.4,1s-0.1,0.7-0.4,1s-0.6,0.4-1,0.4s-0.7-0.1-1-0.4s-0.4-0.6-0.4-1s0.1-0.7,0.4-1c0.3-0.3,0.6-0.4,1-0.4
			S232,363.6,232.3,363.9z"/>
		<path class="st1" d="M243.1,370c0.6,0.7,1,1.6,1,2.8v9.1h-2.2v-8.8c0-0.9-0.2-1.5-0.5-1.9s-0.8-0.6-1.5-0.6s-1.3,0.2-1.8,0.6
			s-1,0.9-1.4,1.7v9h-2.2v-12.6h1.9l0.2,1.9c0.4-0.7,1-1.2,1.7-1.6s1.4-0.6,2.2-0.6C241.6,369,242.5,369.3,243.1,370z"/>
		<path class="st1" d="M257.3,380.1c0.2,0.2,0.4,0.4,0.8,0.6l-0.5,1.5c-0.7-0.1-1.2-0.3-1.6-0.6c-0.4-0.3-0.7-0.7-0.9-1.3
			c-0.8,1.3-2.1,1.9-3.8,1.9c-1.2,0-2.2-0.4-3-1.1c-0.7-0.7-1.1-1.6-1.1-2.8c0-1.3,0.5-2.4,1.5-3.1s2.3-1.1,4.1-1.1h1.9v-0.9
			c0-0.9-0.2-1.5-0.6-1.9c-0.4-0.4-1.1-0.6-2-0.6s-2.1,0.2-3.4,0.7l-0.6-1.6c1.6-0.6,3-0.9,4.4-0.9c1.5,0,2.6,0.4,3.3,1.1
			c0.7,0.7,1.1,1.8,1.1,3.1v5.8C257,379.4,257.1,379.8,257.3,380.1z M254.8,378.6v-2.9h-1.7c-2.3,0-3.5,0.9-3.5,2.6
			c0,0.8,0.2,1.3,0.6,1.7s0.9,0.6,1.6,0.6C253.1,380.5,254.1,379.9,254.8,378.6z"/>
	</g>
	<g class="st0">
		<path class="st1" d="M73.6,421.9h-2.2l-0.6-7.5c-0.2-2.9-0.4-5.2-0.4-6.7L66.8,420h-2.1l-3.8-12.4c0,2-0.1,4.3-0.3,6.9l-0.6,7.3
			h-2.2l1.4-16.5h3.1l3.5,12l3.3-12h3.1L73.6,421.9z"/>
		<path class="st1" d="M86.7,421.9h-1.9l-0.2-2c-0.5,0.8-1,1.4-1.7,1.7c-0.6,0.4-1.4,0.5-2.3,0.5c-1.1,0-2-0.3-2.6-1
			s-0.9-1.6-0.9-2.9v-9.1h2.2v8.8c0,0.9,0.2,1.5,0.5,1.8c0.3,0.4,0.8,0.5,1.5,0.5c1.2,0,2.3-0.7,3.2-2.2v-9h2.2
			C86.7,409,86.7,421.9,86.7,421.9z"/>
		<path class="st1" d="M97.7,421.3c-0.8,0.6-1.8,0.9-2.8,0.9c-1.1,0-1.9-0.3-2.5-0.9s-0.9-1.5-0.9-2.7V411h-2.2v-1.7h2.2v-2.9
			l2.2-0.3v3.1h3l-0.2,1.7h-2.8v7.5c0,0.7,0.1,1.1,0.3,1.4c0.2,0.3,0.6,0.4,1.2,0.4c0.5,0,1.1-0.2,1.7-0.5L97.7,421.3z"/>
		<path class="st1" d="M108.6,420.1c0.2,0.2,0.4,0.4,0.8,0.6l-0.5,1.5c-0.7-0.1-1.2-0.3-1.6-0.6c-0.4-0.3-0.7-0.7-0.9-1.3
			c-0.8,1.3-2.1,1.9-3.8,1.9c-1.2,0-2.2-0.4-3-1.1c-0.7-0.7-1.1-1.6-1.1-2.8c0-1.3,0.5-2.4,1.5-3.1s2.3-1.1,4.1-1.1h1.9v-0.9
			c0-0.9-0.2-1.5-0.6-1.9s-1.1-0.6-2-0.6s-2.1,0.2-3.4,0.7l-0.6-1.6c1.6-0.6,3-0.9,4.4-0.9c1.5,0,2.6,0.4,3.3,1.1s1.1,1.8,1.1,3.1
			v5.8C108.3,419.4,108.4,419.8,108.6,420.1z M106.1,418.6v-2.9h-1.7c-2.3,0-3.5,0.9-3.5,2.6c0,0.8,0.2,1.3,0.6,1.7s0.9,0.6,1.6,0.6
			C104.4,420.5,105.4,419.9,106.1,418.6z"/>
		<path class="st1" d="M119.5,409.3c0.6,0.2,1.2,0.6,1.8,1l-1.1,1.4c-0.4-0.3-0.9-0.6-1.3-0.7c-0.4-0.2-0.9-0.2-1.4-0.2
			c-1,0-1.8,0.4-2.4,1.2c-0.6,0.8-0.9,2-0.9,3.6s0.3,2.8,0.8,3.5s1.4,1.1,2.4,1.1c0.5,0,1-0.1,1.4-0.2c0.4-0.2,0.9-0.4,1.4-0.7
			l1,1.4c-1.2,0.9-2.4,1.4-3.9,1.4c-1.7,0-3.1-0.6-4-1.7c-1-1.2-1.5-2.7-1.5-4.8c0-1.3,0.2-2.5,0.7-3.5c0.4-1,1.1-1.8,1.9-2.4
			s1.8-0.8,2.9-0.8C118.2,409,118.9,409.1,119.5,409.3z"/>
		<path class="st1" d="M126.5,403.6c0.3,0.3,0.4,0.6,0.4,1.1s-0.1,0.8-0.4,1.1c-0.3,0.3-0.7,0.4-1.1,0.4s-0.8-0.1-1.1-0.4
			c-0.3-0.3-0.4-0.6-0.4-1.1s0.1-0.8,0.4-1.1c0.3-0.3,0.7-0.4,1.1-0.4C125.9,403.2,126.2,403.3,126.5,403.6z M126.5,409.2v12.6h-2.2
			v-12.6H126.5z"/>
		<path class="st1" d="M140,410.7c1,1.2,1.5,2.8,1.5,4.8c0,1.3-0.2,2.5-0.7,3.5c-0.4,1-1.1,1.8-1.9,2.3c-0.8,0.6-1.9,0.8-3,0.8
			c-1.8,0-3.2-0.6-4.2-1.8c-1-1.2-1.5-2.8-1.5-4.8c0-1.3,0.2-2.5,0.7-3.5c0.4-1,1.1-1.8,1.9-2.3s1.9-0.8,3-0.8
			C137.6,409,139,409.5,140,410.7z M132.6,415.6c0,3.2,1.1,4.8,3.3,4.8s3.3-1.6,3.3-4.8c0-3.2-1.1-4.8-3.2-4.8
			C133.7,410.7,132.6,412.3,132.6,415.6z M137.7,402.7l1,1.8l-5.1,2.1l-0.7-1.2L137.7,402.7z"/>
	</g>
	<g class="st0">
		<path class="st1" d="M68.5,445.4l-0.2,1.9h-4.6v14.6h-2.3v-14.6h-4.7v-1.9H68.5z"/>
		<path class="st1" d="M77.1,449.1l-0.4,2.2c-0.4-0.1-0.8-0.1-1.1-0.1c-0.8,0-1.4,0.3-1.9,0.9s-0.9,1.5-1.1,2.7v7.2h-2.2v-12.6h1.9
			l0.2,2.6c0.3-0.9,0.8-1.7,1.4-2.1c0.6-0.5,1.2-0.7,2-0.7C76.3,449,76.7,449,77.1,449.1z"/>
		<path class="st1" d="M87.6,460.1c0.2,0.2,0.4,0.4,0.8,0.6l-0.5,1.5c-0.7-0.1-1.2-0.3-1.6-0.6c-0.4-0.3-0.7-0.7-0.9-1.3
			c-0.8,1.3-2.1,1.9-3.8,1.9c-1.2,0-2.2-0.4-3-1.1c-0.7-0.7-1.1-1.6-1.1-2.8c0-1.3,0.5-2.4,1.5-3.1s2.3-1.1,4.1-1.1H85v-0.9
			c0-0.9-0.2-1.5-0.6-1.9s-1.1-0.6-2-0.6s-2.1,0.2-3.4,0.7l-0.6-1.6c1.6-0.6,3-0.9,4.4-0.9c1.5,0,2.6,0.4,3.3,1.1s1.1,1.8,1.1,3.1
			v5.8C87.3,459.4,87.4,459.8,87.6,460.1z M85.1,458.6v-2.9h-1.7c-2.3,0-3.5,0.9-3.5,2.6c0,0.8,0.2,1.3,0.6,1.7s0.9,0.6,1.6,0.6
			C83.4,460.5,84.4,459.9,85.1,458.6z"/>
		<path class="st1" d="M98.5,449.3c0.6,0.2,1.2,0.6,1.8,1l-1.1,1.4c-0.4-0.3-0.9-0.6-1.3-0.7c-0.4-0.2-0.9-0.2-1.4-0.2
			c-1,0-1.8,0.4-2.4,1.2c-0.6,0.8-0.9,2-0.9,3.6s0.3,2.8,0.8,3.5s1.4,1.1,2.4,1.1c0.5,0,1-0.1,1.4-0.2c0.4-0.2,0.9-0.4,1.4-0.7
			l1,1.4c-1.2,0.9-2.4,1.4-3.9,1.4c-1.7,0-3.1-0.6-4-1.7c-1-1.2-1.5-2.7-1.5-4.8c0-1.3,0.2-2.5,0.7-3.5c0.4-1,1.1-1.8,1.9-2.4
			s1.8-0.8,2.9-0.8C97.2,449,97.9,449.1,98.5,449.3z"/>
		<path class="st1" d="M109.7,461.3c-0.8,0.6-1.8,0.9-2.8,0.9c-1.1,0-1.9-0.3-2.5-0.9s-0.9-1.5-0.9-2.7V451h-2.2v-1.7h2.2v-2.9
			l2.2-0.3v3.1h3l-0.2,1.7h-2.8v7.5c0,0.7,0.1,1.1,0.3,1.4c0.2,0.3,0.6,0.4,1.2,0.4c0.5,0,1.1-0.2,1.7-0.5L109.7,461.3z"/>
		<path class="st1" d="M120.6,460.1c0.2,0.2,0.4,0.4,0.8,0.6l-0.5,1.5c-0.7-0.1-1.2-0.3-1.6-0.6c-0.4-0.3-0.7-0.7-0.9-1.3
			c-0.8,1.3-2.1,1.9-3.8,1.9c-1.2,0-2.2-0.4-3-1.1c-0.7-0.7-1.1-1.6-1.1-2.8c0-1.3,0.5-2.4,1.5-3.1s2.3-1.1,4.1-1.1h1.9v-0.9
			c0-0.9-0.2-1.5-0.6-1.9s-1.1-0.6-2-0.6s-2.1,0.2-3.4,0.7l-0.6-1.6c1.6-0.6,3-0.9,4.4-0.9c1.5,0,2.6,0.4,3.3,1.1s1.1,1.8,1.1,3.1
			v5.8C120.3,459.4,120.4,459.8,120.6,460.1z M118.1,458.6v-2.9h-1.7c-2.3,0-3.5,0.9-3.5,2.6c0,0.8,0.2,1.3,0.6,1.7s0.9,0.6,1.6,0.6
			C116.4,460.5,117.4,459.9,118.1,458.6z"/>
		<path class="st1" d="M140,450c0.6,0.7,0.9,1.6,0.9,2.8v9.1h-2.2v-8.8c0-1.6-0.6-2.4-1.8-2.4c-0.6,0-1.2,0.2-1.6,0.5
			c-0.4,0.4-0.9,0.9-1.4,1.7v9h-2.2v-8.8c0-1.6-0.6-2.4-1.8-2.4c-0.6,0-1.2,0.2-1.6,0.6c-0.4,0.4-0.9,0.9-1.4,1.7v9h-2.2v-12.6h1.9
			l0.2,1.8c0.9-1.4,2.2-2.1,3.6-2.1c0.8,0,1.5,0.2,2,0.6c0.6,0.4,0.9,1,1.2,1.7c0.5-0.7,1-1.3,1.6-1.7s1.3-0.6,2.1-0.6
			C138.6,449,139.4,449.3,140,450z"/>
		<path class="st1" d="M154.9,456.3h-8.1c0.1,1.4,0.4,2.4,1.1,3.1s1.4,1,2.4,1c0.6,0,1.2-0.1,1.7-0.3c0.5-0.2,1-0.5,1.6-0.8l1,1.3
			c-1.3,1.1-2.8,1.6-4.4,1.6c-1.8,0-3.1-0.6-4.1-1.7c-1-1.2-1.5-2.7-1.5-4.8c0-1.3,0.2-2.5,0.6-3.5s1-1.8,1.8-2.4s1.7-0.9,2.8-0.9
			c1.7,0,3,0.6,3.9,1.7s1.3,2.6,1.3,4.6C155,455.6,155,455.9,154.9,456.3z M152.8,454.5c0-1.2-0.2-2.2-0.7-2.9s-1.2-1-2.2-1
			c-1.8,0-2.8,1.3-3,4h5.9V454.5z"/>
		<path class="st1" d="M167.2,450c0.6,0.7,1,1.6,1,2.8v9.1H166v-8.8c0-0.9-0.2-1.5-0.5-1.9s-0.8-0.6-1.5-0.6s-1.3,0.2-1.8,0.6
			s-1,0.9-1.4,1.7v9h-2.2v-12.6h1.9l0.2,1.9c0.4-0.7,1-1.2,1.7-1.6s1.4-0.6,2.2-0.6C165.6,449,166.5,449.3,167.2,450z"/>
		<path class="st1" d="M178.9,461.3c-0.8,0.6-1.8,0.9-2.8,0.9c-1.1,0-1.9-0.3-2.5-0.9s-0.9-1.5-0.9-2.7V451h-2.2v-1.7h2.2v-2.9
			l2.2-0.3v3.1h3l-0.2,1.7h-2.8v7.5c0,0.7,0.1,1.1,0.3,1.4s0.6,0.4,1.2,0.4c0.5,0,1.1-0.2,1.7-0.5L178.9,461.3z"/>
	</g>
	<g class="st0">
		<path class="st1" d="M309.5,334.3c0.7,0.6,1,1.5,1,2.7c0,1.8-0.6,3-1.9,3.8s-3.1,1.1-5.3,1.1h-5.4v-16.6h4.7c2.3,0,4.1,0.3,5.4,1
			c1.2,0.7,1.8,1.7,1.8,3.3c0,1-0.3,1.8-0.9,2.4s-1.3,1-2.2,1.2C307.9,333.3,308.8,333.7,309.5,334.3z M301.9,328v3.9h1.5
			c1.7,0,2.5-0.7,2.5-2c0-0.7-0.2-1.1-0.7-1.4c-0.4-0.3-1.2-0.4-2.1-0.4h-1.2V328z M305.7,338.6c0.5-0.3,0.8-0.9,0.8-1.7
			c0-1.5-1-2.3-2.9-2.3h-1.7v4.5h1.4C304.4,339,305.1,338.9,305.7,338.6z"/>
		<path class="st1" d="M318.2,335.5h-1.5v6.4h-3.9v-16.6h5.4c2.3,0,4,0.4,5.1,1.2s1.7,2.1,1.7,3.8c0,1.1-0.3,2-0.8,2.7
			s-1.3,1.3-2.4,1.8l4.2,7.1h-4.4L318.2,335.5z M316.7,332.8h1.7c0.9,0,1.5-0.2,2-0.6c0.4-0.4,0.7-1,0.7-1.9c0-0.8-0.2-1.4-0.7-1.8
			s-1.2-0.6-2.2-0.6h-1.4v4.9H316.7z"/>
		<path class="st1" d="M336.3,341.9l-0.9-3.6h-4.8l-0.8,3.6h-4.1l5-16.6h4.8l5,16.6H336.3z M331.3,335.5h3.5l-1.8-7.3L331.3,335.5z"
			/>
		<path class="st1" d="M341.7,341.9v-16.6h9.9l-0.4,2.8h-5.6v4.4h4.8v2.8h-4.8v6.6L341.7,341.9L341.7,341.9z"/>
	</g>
	<g class="st0">
		<path class="st1" d="M307.5,405.3c0.8,0.3,1.6,0.8,2.3,1.4l-1.9,2.2c-0.5-0.4-1-0.7-1.5-0.9s-1-0.3-1.5-0.3c-1.1,0-2,0.5-2.7,1.4
			c-0.6,0.9-1,2.4-1,4.4c0,1.9,0.3,3.4,1,4.3c0.6,0.9,1.5,1.4,2.7,1.4c0.6,0,1.2-0.1,1.7-0.3c0.5-0.2,1-0.6,1.6-1l1.8,2.3
			c-0.6,0.6-1.4,1.1-2.3,1.5s-1.9,0.6-2.9,0.6c-1.5,0-2.9-0.3-4-1s-2-1.7-2.7-3c-0.6-1.3-0.9-2.9-0.9-4.8c0-1.8,0.3-3.4,1-4.7
			s1.5-2.3,2.7-3c1.1-0.7,2.4-1,3.9-1C305.8,404.8,306.7,405,307.5,405.3z"/>
		<path class="st1" d="M321.3,410.5c1.1,1.2,1.7,2.9,1.7,5c0,1.4-0.3,2.5-0.8,3.6c-0.5,1-1.2,1.8-2.2,2.4s-2,0.8-3.3,0.8
			c-1.9,0-3.5-0.6-4.6-1.8c-1.1-1.2-1.7-2.9-1.7-5c0-1.4,0.3-2.5,0.8-3.6s1.2-1.8,2.2-2.4c0.9-0.6,2-0.8,3.3-0.8
			C318.7,408.7,320.2,409.3,321.3,410.5z M315,412.5c-0.4,0.6-0.6,1.7-0.6,3c0,1.4,0.2,2.4,0.6,3s1,1,1.7,1c0.8,0,1.3-0.3,1.7-1
			c0.4-0.6,0.6-1.7,0.6-3c0-1.4-0.2-2.4-0.6-3s-1-1-1.7-1C315.9,411.5,315.4,411.8,315,412.5z"/>
		<path class="st1" d="M335.3,409.7c0.6,0.7,0.9,1.6,0.9,2.8v9.3h-3.8v-8.7c0-0.6-0.1-1.1-0.3-1.3c-0.2-0.2-0.5-0.4-0.9-0.4
			c-0.8,0-1.5,0.6-2.2,1.7v8.7h-3.8v-12.7h3.3l0.3,1.5c0.5-0.6,1.1-1.1,1.8-1.4c0.6-0.3,1.3-0.5,2.1-0.5
			C333.8,408.7,334.6,409.1,335.3,409.7z"/>
		<path class="st1" d="M350.5,404.1v17.8h-3.4l-0.2-1.5c-0.9,1.3-2.1,1.9-3.6,1.9c-1.6,0-2.8-0.6-3.6-1.8c-0.8-1.2-1.2-2.9-1.2-5
			c0-1.3,0.2-2.5,0.6-3.5s1-1.8,1.8-2.4s1.7-0.9,2.7-0.9c1.2,0,2.2,0.4,3,1.2v-6.3L350.5,404.1z M346.7,418.1v-5.5
			c-0.3-0.4-0.6-0.6-0.9-0.8s-0.7-0.3-1.1-0.3c-0.7,0-1.3,0.3-1.7,1c-0.4,0.7-0.6,1.7-0.6,3c0,1.5,0.2,2.5,0.5,3.1
			c0.4,0.6,0.9,0.9,1.5,0.9C345.4,419.5,346.1,419,346.7,418.1z"/>
		<path class="st1" d="M364.2,421.9h-3.3l-0.2-1.6c-0.9,1.3-2.2,2-3.9,2c-1.2,0-2.1-0.4-2.7-1.1s-0.9-1.7-0.9-3v-9.1h3.8v8.7
			c0,0.6,0.1,1.1,0.3,1.3c0.2,0.2,0.5,0.4,0.9,0.4c0.8,0,1.5-0.5,2.1-1.5v-8.9h3.8v12.8H364.2z"/>
		<path class="st1" d="M375.1,409.1c0.7,0.3,1.4,0.6,2,1.2l-1.6,2.3c-0.8-0.6-1.6-0.9-2.4-0.9s-1.5,0.3-1.9,0.9s-0.6,1.6-0.6,3
			c0,1.3,0.2,2.3,0.6,2.9s1.1,0.8,1.9,0.8c0.4,0,0.8-0.1,1.2-0.2c0.4-0.1,0.8-0.4,1.3-0.7l1.7,2.4c-1.3,1-2.7,1.5-4.3,1.5
			c-1.3,0-2.4-0.3-3.4-0.8c-0.9-0.6-1.7-1.3-2.2-2.3s-0.8-2.2-0.8-3.5s0.3-2.5,0.8-3.6c0.5-1,1.2-1.9,2.2-2.4c0.9-0.6,2-0.9,3.3-0.9
			C373.6,408.7,374.4,408.9,375.1,409.1z"/>
		<path class="st1" d="M386.7,421.3c-0.5,0.3-1,0.6-1.6,0.7c-0.6,0.2-1.2,0.3-1.8,0.3c-2.8,0-4.2-1.6-4.2-4.6v-5.9h-1.8v-2.6h1.8
			v-2.8l3.8-0.4v3.2h2.9l-0.4,2.6h-2.5v5.9c0,0.6,0.1,1,0.3,1.3c0.2,0.3,0.5,0.4,0.9,0.4s0.9-0.1,1.4-0.4L386.7,421.3z"/>
		<path class="st1" d="M397.6,410.5c1.1,1.2,1.7,2.9,1.7,5c0,1.4-0.3,2.5-0.8,3.6c-0.5,1-1.2,1.8-2.2,2.4s-2,0.8-3.3,0.8
			c-1.9,0-3.5-0.6-4.6-1.8c-1.1-1.2-1.7-2.9-1.7-5c0-1.4,0.3-2.5,0.8-3.6s1.2-1.8,2.2-2.4c0.9-0.6,2-0.8,3.3-0.8
			C395,408.7,396.5,409.3,397.6,410.5z M391.3,412.5c-0.4,0.6-0.6,1.7-0.6,3c0,1.4,0.2,2.4,0.6,3s1,1,1.7,1c0.8,0,1.3-0.3,1.7-1
			c0.4-0.6,0.6-1.7,0.6-3c0-1.4-0.2-2.4-0.6-3s-1-1-1.7-1S391.7,411.8,391.3,412.5z"/>
		<path class="st1" d="M409.7,409l-0.6,3.7c-0.5-0.1-0.9-0.2-1.2-0.2c-0.8,0-1.3,0.3-1.7,0.8c-0.4,0.5-0.7,1.3-0.9,2.3v6.3h-3.8
			v-12.7h3.3l0.3,2.5c0.3-0.9,0.7-1.6,1.3-2.1s1.2-0.8,2-0.8C408.9,408.8,409.3,408.8,409.7,409z"/>
		<path class="st1" d="M420.6,419.2c0.1,0.2,0.4,0.4,0.7,0.5l-0.8,2.5c-0.8-0.1-1.4-0.2-1.9-0.5s-0.9-0.7-1.2-1.3
			c-0.8,1.3-2.1,1.9-3.8,1.9c-1.3,0-2.3-0.4-3-1.1c-0.8-0.7-1.1-1.7-1.1-2.9c0-1.4,0.5-2.5,1.5-3.2s2.5-1.1,4.4-1.1h1.3v-0.6
			c0-0.8-0.2-1.3-0.5-1.5c-0.3-0.3-0.9-0.4-1.7-0.4c-0.4,0-0.9,0.1-1.5,0.2s-1.2,0.3-1.8,0.5l-0.9-2.5c0.8-0.3,1.6-0.5,2.5-0.7
			c0.8-0.2,1.6-0.2,2.3-0.2c1.8,0,3.2,0.4,4,1.1c0.8,0.8,1.3,1.9,1.3,3.4v4.9C420.4,418.7,420.5,419,420.6,419.2z M416.7,418.4v-2.3
			h-0.9c-0.9,0-1.5,0.2-1.9,0.5s-0.6,0.8-0.6,1.4c0,0.5,0.1,0.9,0.4,1.2c0.3,0.3,0.6,0.4,1.1,0.4
			C415.6,419.6,416.2,419.2,416.7,418.4z"/>
	</g>
	<g class="st0">
		<path class="st1" d="M310.4,445.3l-4.6,16.6h-4.9l-4.8-16.6h4.2l3.2,13.6l3-13.6H310.4z"/>
		<path class="st1" d="M322,456.6h-7.9c0.1,1.1,0.4,1.8,0.9,2.3s1.1,0.6,2,0.6c0.5,0,1-0.1,1.5-0.3s1-0.5,1.6-0.9l1.6,2.1
			c-1.5,1.2-3.1,1.8-5,1.8c-2.1,0-3.6-0.6-4.8-1.8c-1.1-1.2-1.7-2.8-1.7-4.9c0-1.3,0.2-2.5,0.7-3.5s1.1-1.8,2-2.4s2-0.9,3.2-0.9
			c1.8,0,3.3,0.6,4.3,1.7c1,1.2,1.6,2.8,1.6,4.8C322.1,455.8,322,456.2,322,456.6z M318.3,454.2c0-2-0.7-2.9-2.1-2.9
			c-0.7,0-1.2,0.2-1.5,0.7c-0.4,0.5-0.6,1.3-0.7,2.4h4.2v-0.2H318.3z"/>
		<path class="st1" d="M340.7,449.8c0.6,0.7,0.9,1.6,0.9,2.8v9.3h-3.8v-8.7c0-1.1-0.4-1.7-1.1-1.7c-0.4,0-0.8,0.1-1.1,0.4
			c-0.3,0.3-0.6,0.7-0.9,1.2v8.7H331v-8.7c0-1.1-0.4-1.7-1.1-1.7c-0.4,0-0.7,0.1-1,0.4s-0.6,0.7-0.9,1.2v8.7h-3.8V449h3.3l0.3,1.5
			c0.5-0.6,1-1.1,1.6-1.4s1.3-0.5,2.1-0.5c0.7,0,1.3,0.2,1.9,0.5c0.5,0.4,0.9,0.8,1.1,1.5c0.5-0.7,1.1-1.2,1.7-1.5s1.3-0.5,2.1-0.5
			C339.3,448.7,340.1,449.1,340.7,449.8z"/>
		<path class="st1" d="M355.2,461.9h-3.3l-0.2-1.6c-0.9,1.3-2.2,2-3.9,2c-1.2,0-2.1-0.4-2.7-1.1s-0.9-1.7-0.9-3v-9.1h3.8v8.7
			c0,0.6,0.1,1.1,0.3,1.3c0.2,0.2,0.5,0.4,0.9,0.4c0.8,0,1.5-0.5,2.1-1.5v-8.9h3.8v12.8H355.2z"/>
		<path class="st1" d="M366.4,449l-0.6,3.7c-0.5-0.1-0.9-0.2-1.2-0.2c-0.8,0-1.3,0.3-1.7,0.8c-0.4,0.5-0.7,1.3-0.9,2.3v6.3h-3.8
			v-12.7h3.3l0.3,2.5c0.3-0.9,0.7-1.6,1.3-2.1s1.2-0.8,2-0.8C365.6,448.8,366,448.8,366.4,449z"/>
		<path class="st1" d="M377.3,459.2c0.1,0.2,0.4,0.4,0.7,0.5l-0.8,2.5c-0.8-0.1-1.4-0.2-1.9-0.5s-0.9-0.7-1.2-1.3
			c-0.8,1.3-2.1,1.9-3.8,1.9c-1.3,0-2.3-0.4-3-1.1c-0.8-0.7-1.1-1.7-1.1-2.9c0-1.4,0.5-2.5,1.5-3.2s2.5-1.1,4.4-1.1h1.3v-0.6
			c0-0.8-0.2-1.3-0.5-1.5c-0.3-0.3-0.9-0.4-1.7-0.4c-0.4,0-0.9,0.1-1.5,0.2s-1.2,0.3-1.8,0.5l-0.9-2.5c0.8-0.3,1.6-0.5,2.5-0.7
			c0.8-0.2,1.6-0.2,2.3-0.2c1.8,0,3.2,0.4,4,1.1c0.8,0.8,1.3,1.9,1.3,3.4v4.9C377.1,458.7,377.2,459,377.3,459.2z M373.4,458.4v-2.3
			h-0.9c-0.9,0-1.5,0.2-1.9,0.5s-0.6,0.8-0.6,1.4c0,0.5,0.1,0.9,0.4,1.2c0.3,0.3,0.6,0.4,1.1,0.4
			C372.2,459.6,372.9,459.2,373.4,458.4z"/>
		<path class="st1" d="M384.8,446.9c-0.2,0.3-0.4,0.7-0.4,1.3v1h3l-0.4,2.6h-2.6v10.1h-3.8v-10.1h-1.9v-2.6h1.9V448
			c0-1.3,0.4-2.3,1.3-3.1c0.8-0.8,2-1.2,3.6-1.2c1.3,0,2.4,0.3,3.5,0.8l-1,2.5c-0.6-0.3-1.3-0.5-2-0.5
			C385.4,446.5,385,446.6,384.8,446.9z"/>
		<path class="st1" d="M399.5,456.6h-7.9c0.1,1.1,0.4,1.8,0.9,2.3s1.1,0.6,2,0.6c0.5,0,1-0.1,1.5-0.3s1-0.5,1.6-0.9l1.6,2.1
			c-1.5,1.2-3.1,1.8-5,1.8c-2.1,0-3.6-0.6-4.8-1.8c-1.1-1.2-1.7-2.8-1.7-4.9c0-1.3,0.2-2.5,0.7-3.5s1.1-1.8,2-2.4s2-0.9,3.2-0.9
			c1.8,0,3.3,0.6,4.3,1.7c1,1.2,1.6,2.8,1.6,4.8C399.6,455.8,399.5,456.2,399.5,456.6z M395.8,454.2c0-2-0.7-2.9-2.1-2.9
			c-0.7,0-1.2,0.2-1.5,0.7c-0.4,0.5-0.6,1.3-0.7,2.4h4.2v-0.2H395.8z"/>
		<path class="st1" d="M411.7,449.7c0.6,0.7,0.9,1.6,0.9,2.8v9.3h-3.8v-8.7c0-0.6-0.1-1.1-0.3-1.3c-0.2-0.2-0.5-0.4-0.9-0.4
			c-0.8,0-1.5,0.6-2.2,1.7v8.7h-3.8v-12.7h3.3l0.3,1.5c0.5-0.6,1.1-1.1,1.8-1.4c0.6-0.3,1.3-0.5,2.1-0.5
			C410.3,448.7,411.1,449.1,411.7,449.7z"/>
		<path class="st1" d="M419,443c0.4,0.4,0.6,0.9,0.6,1.5s-0.2,1.1-0.6,1.5s-1,0.6-1.6,0.6s-1.2-0.2-1.6-0.6s-0.6-0.9-0.6-1.5
			s0.2-1.1,0.6-1.5s1-0.6,1.6-0.6S418.6,442.6,419,443z M419.3,449.1v12.7h-3.8v-12.7H419.3z"/>
		<path class="st1" d="M433,450.5c0.8,1.2,1.2,2.9,1.2,5c0,1.3-0.2,2.5-0.6,3.5s-1,1.8-1.8,2.4s-1.7,0.9-2.7,0.9
			c-0.7,0-1.3-0.1-1.9-0.4s-1.1-0.7-1.5-1.2l-0.2,1.2h-3.4v-17.8l3.8-0.4v6.8c0.4-0.5,0.9-0.9,1.5-1.2s1.3-0.5,2-0.5
			C431.1,448.7,432.2,449.3,433,450.5z M430.3,455.5c0-1.5-0.2-2.6-0.5-3.1c-0.4-0.6-0.9-0.9-1.5-0.9c-0.8,0-1.6,0.5-2.2,1.5v5.3
			c0.2,0.4,0.5,0.7,0.9,0.9c0.3,0.2,0.7,0.3,1.1,0.3C429.6,459.5,430.3,458.2,430.3,455.5z"/>
	</g>
	<rect x="34" y="82.4" class="st2" width="424.9" height="393.3"/>
	<line class="st2" x1="34" y1="311.5" x2="459.1" y2="311.5"/>
	<line class="st2" x1="34" y1="352.7" x2="459.1" y2="352.7"/>
	<line class="st2" x1="34" y1="393.7" x2="459.1" y2="393.7"/>
	<line class="st2" x1="34" y1="434.7" x2="459.1" y2="434.7"/>
	<g>
		<path class="st3" d="M266,199.5c7.7-5.2,15.3-11.8,21.5-21.6c10.4-16.5,15.2-39.2,15.2-71.5h-16.3c0,28.7-4.2,49.2-12.7,62.8
			c-6.3,10-14.5,15.6-23.4,20.9c-8.9-5.3-17-10.9-23.4-20.9c-8.6-13.6-12.7-34.1-12.7-62.8H198c0,32.2,4.8,55,15.2,71.5
			c6.2,9.8,13.9,16.4,21.5,21.6c-7.9,5.2-15.5,11.7-21.8,21.6c-10.2,16-14.9,38.1-14.9,69.3h16.3c0-27.6,4-47.5,12.4-60.6
			c6.3-9.9,14.6-15.5,23.6-20.9c9,5.3,17.3,10.9,23.6,20.9c8.4,13.1,12.4,33,12.4,60.6h16.3c0-31.3-4.8-53.3-14.9-69.3
			C281.5,211.2,273.9,204.8,266,199.5z"/>
		<polygon class="st4" points="190.9,126.2 183.8,121.8 183.8,128.9 176.8,128.9 181,136 176.8,143 183.8,143 183.8,150.1 
			190.9,145.8 197.9,150.1 197.9,143 205,143 200.7,136 205,128.9 197.9,128.9 197.9,121.8 		"/>
	</g>
	<g class="st0">
		<path class="st1" d="M310.4,365.3l-4.6,16.6h-4.9l-4.8-16.6h4.2l3.2,13.6l3-13.6H310.4z"/>
		<path class="st1" d="M320.6,371.6c0.7,0.4,1.3,1,1.7,1.8s0.6,1.8,0.6,2.9c0,1.1-0.2,2.1-0.7,3s-1.2,1.6-2.1,2.1
			c-0.9,0.5-1.9,0.8-3.1,0.8c-2.1,0-3.6-0.7-4.6-2.1c-1-1.4-1.5-3.3-1.5-5.7c0-1.8,0.3-3.4,0.9-4.8c0.6-1.4,1.4-2.4,2.4-3.2
			s2.3-1.1,3.8-1.1c1.4,0,2.6,0.4,3.7,1.1l-1.4,2.3c-0.7-0.4-1.5-0.6-2.2-0.6c-0.9,0-1.6,0.4-2.2,1.2s-0.9,1.9-1,3.3
			c1-1,2.1-1.5,3.4-1.5C319.1,371,319.9,371.2,320.6,371.6z M318.6,378.7c0.3-0.6,0.5-1.3,0.5-2.3c0-1-0.2-1.7-0.5-2.2
			c-0.3-0.4-0.8-0.6-1.4-0.6c-0.9,0-1.7,0.4-2.4,1.3c0,1.7,0.2,2.9,0.6,3.6c0.3,0.7,0.9,1.1,1.7,1.1
			C317.7,379.6,318.2,379.3,318.6,378.7z"/>
		<path class="st1" d="M335.1,367.5c1,1.5,1.6,3.6,1.6,6.3c0,2.7-0.5,4.8-1.6,6.3c-1,1.5-2.6,2.2-4.5,2.2c-2,0-3.5-0.7-4.5-2.2
			c-1-1.5-1.6-3.6-1.6-6.3c0-2.7,0.5-4.8,1.6-6.3c1-1.5,2.6-2.2,4.5-2.2C332.5,365.3,334,366.1,335.1,367.5z M329.2,368.7
			c-0.3,0.4-0.6,0.9-0.7,1.8c-0.2,0.8-0.2,1.9-0.2,3.4s0.1,2.6,0.2,3.4s0.4,1.4,0.7,1.8c0.3,0.4,0.8,0.5,1.3,0.5
			c0.5,0,1-0.2,1.3-0.5c0.3-0.3,0.6-0.9,0.7-1.8c0.2-0.8,0.2-2,0.2-3.4c0-1.5-0.1-2.6-0.2-3.4c-0.2-0.8-0.4-1.4-0.7-1.7
			c-0.3-0.3-0.8-0.5-1.3-0.5C330,368.1,329.5,368.3,329.2,368.7z"/>
		<path class="st1" d="M349.1,367.5c1,1.5,1.6,3.6,1.6,6.3c0,2.7-0.5,4.8-1.6,6.3c-1,1.5-2.6,2.2-4.5,2.2c-2,0-3.5-0.7-4.5-2.2
			c-1-1.5-1.6-3.6-1.6-6.3c0-2.7,0.5-4.8,1.6-6.3c1-1.5,2.6-2.2,4.5-2.2C346.5,365.3,348,366.1,349.1,367.5z M343.3,368.7
			c-0.3,0.4-0.6,0.9-0.7,1.8c-0.2,0.8-0.2,1.9-0.2,3.4s0.1,2.6,0.2,3.4s0.4,1.4,0.7,1.8c0.3,0.4,0.8,0.5,1.3,0.5
			c0.5,0,1-0.2,1.3-0.5c0.3-0.3,0.6-0.9,0.7-1.8c0.2-0.8,0.2-2,0.2-3.4c0-1.5-0.1-2.6-0.2-3.4c-0.2-0.8-0.4-1.4-0.7-1.7
			c-0.3-0.3-0.8-0.5-1.3-0.5C344,368.1,343.6,368.3,343.3,368.7z"/>
		<path class="st1" d="M363.3,365.3l-0.4,2.8h-5.9v4h5.1v2.8h-5.1v4.2h6.3v2.8h-10.2v-16.6H363.3z"/>
	</g>
</g>
<g>
	<g>
		<polygon class="st1" points="543.9,268 565,268 565,260.4 583.6,279 565,297.6 565,290 543.9,290 		"/>
	</g>
</g>
<g>
	<g>
		<polygon class="st1" points="262.8,0.8 262.8,21.9 270.4,21.9 251.8,40.5 233.2,21.9 240.8,21.9 240.8,0.8 		"/>
	</g>
</g>
<g>
	<g>
		<path class="st5" d="M841.4,289.4l54.5,54.5l-0.9,0.9l-54.6-54.6C840.8,290.1,841,289.8,841.4,289.4L841.4,289.4z"/>
		<path class="st6" d="M841.4,289.6c-0.3,0.3-0.7,0.5-0.9,0.8c-2.3,1.8-4.4,0.9-4.4,0.9L808.8,264l3.7-3.7l24.8,24.8L841.4,289.6
			C841.4,289.4,841.4,289.4,841.4,289.6z"/>
		<polygon class="st5" points="808.7,263.9 790.7,281.9 681.4,172.6 699.3,154.8 714.6,170.2 700.2,184.5 707.1,191.5 707.1,191.4 
			790.6,274.8 805,260.2 808.7,256.7 812.2,260.4 		"/>
		<polygon class="st4" points="805,260.2 790.6,274.8 707.1,191.4 725.3,173.3 802.3,250.3 808.7,256.7 		"/>
		<polygon class="st7" points="691.5,147.1 623.4,78.9 604.5,97.9 597.6,90.9 620.2,68.3 623.3,71.3 627.2,75.2 695.3,143.3 		"/>
		<polygon class="st7" points="707.1,191.4 707.1,191.5 700.2,184.5 714.6,170.2 699.3,154.8 703.1,151.1 718.3,166.4 722.9,171.1 
			723.8,171.8 725.3,173.3 		"/>
		<polygon class="st6" points="699.3,154.8 681.4,172.6 671.7,182.4 663.8,174.6 691.5,147.1 695.3,143.3 701.9,149.9 703.1,151.1 
					"/>
		<path class="st6" d="M842.5,288.3l54.6,54.6l-1,1l-54.5-54.5C841.8,289.1,842.2,288.7,842.5,288.3z"/>
		<path class="st8" d="M842.5,288.3c-0.3,0.4-0.5,0.8-0.9,1.2l-4.4-4.4l-24.8-24.8l3.8-3.8l27.2,27.2
			C843.4,283.8,844.2,285.8,842.5,288.3z"/>
		<polygon class="st6" points="816,256.6 812.2,260.4 808.7,256.7 812.5,252.9 826.9,238.5 743.6,155 743.6,155 736.7,148.1 
			722.1,162.7 706.7,147.3 724.9,129.3 834,238.6 		"/>
		<polygon class="st9" points="812.5,252.9 808.7,256.7 802.3,250.3 725.3,173.3 743.6,155 826.9,238.5 		"/>
		<polygon class="st10" points="630.9,71.5 698.9,139.5 695.3,143.3 627.2,75.2 623.3,71.3 620.2,68.3 643,45.5 649.9,52.6 		"/>
		<polygon class="st10" points="743.6,155 725.3,173.3 723.8,171.8 722.9,171.1 718.3,166.4 703.1,151.1 706.7,147.3 722.1,162.7 
			736.7,148.1 		"/>
		<polygon class="st8" points="724.9,129.3 706.7,147.3 703.1,151.1 701.9,149.9 695.3,143.3 698.9,139.5 726.8,111.7 734.5,119.6 
					"/>
		<g class="st11">
			
				<rect x="799.6" y="242" transform="matrix(0.7071 -0.7071 0.7071 0.7071 65.5197 644.3805)" class="st12" width="22" height="2.2"/>
			
				<rect x="790.9" y="233.2" transform="matrix(0.7071 -0.7071 0.7071 0.7071 69.207 635.6411)" class="st12" width="22" height="2.2"/>
			
				<rect x="782.2" y="224.6" transform="matrix(0.7071 -0.7071 0.7071 0.7071 72.7464 626.9607)" class="st12" width="22" height="2.2"/>
			
				<rect x="773.6" y="215.9" transform="matrix(0.7071 -0.7071 0.7071 0.7071 76.3596 618.3542)" class="st12" width="22" height="2.2"/>
			
				<rect x="764.9" y="207.3" transform="matrix(0.7071 -0.7071 0.7071 0.7071 79.8992 609.674)" class="st12" width="22" height="2.2"/>
			
				<rect x="756.2" y="198.5" transform="matrix(0.7071 -0.7071 0.7071 0.7071 83.5863 600.9345)" class="st12" width="22" height="2.2"/>
			
				<rect x="747.5" y="190" transform="matrix(0.7071 -0.7071 0.7071 0.7071 87.0217 592.2827)" class="st12" width="22" height="2.2"/>
			
				<rect x="738.9" y="181.2" transform="matrix(0.7071 -0.7071 0.7071 0.7071 90.7374 583.6489)" class="st12" width="22" height="2.2"/>
			
				<rect x="730.2" y="172.6" transform="matrix(0.7071 -0.7071 0.7071 0.7071 94.2793 574.9668)" class="st12" width="22" height="2.2"/>
		</g>
	</g>
	<g>
		<g>
			<path class="st13" d="M1155.5,342.2c3.4,1.2,6.5,2.9,9.6,4.6c2.2,1.2,4.6,2.5,6.9,3.5c0.5,0.3,1,0.4,1.6,0.5l0,0
				c3.1,0.9,6.4,0.8,9.9,0.8c1.3,0,2.6-0.1,3.9,0c2.7,0,5.5,0.1,8.1,0.3c8.2,0.4,15.9,0.7,24.1-1.2c0.4-0.1,0.9-0.3,1.3-0.4
				c10.7-2.7,20.9-8,30.1-15.4c7-5.7,11.2-13.2,15.6-21.1c1-1.8,2.1-3.8,3.1-5.6c1.2-2.1,2.5-4,3.7-6.1c5-8.1,9.6-15.8,11.2-25.7
				c1.7-11.6,1.3-24.5-1.2-37.3c-3.1-15.4-10.3-30.5-20.5-42.6c-7.2-8.6-15.8-16.4-26.3-23.9c-4.2-2.9-8-5-11.7-6.3
				c-10.8-3.7-25-3.8-34.8-3.5c-14.2,0.4-24.4,5.9-35.3,12.6c-2.3,1.4-5,2.5-7.6,3.5c-3.1,1.2-6.1,2.3-8.6,4.3
				c-2.3,1.7-3.9,4.2-5.6,6.6c-1.3,1.8-2.6,3.8-4.2,5.5c-1.3,1.3-2.5,2.6-3.8,3.8c-2.5,2.3-5,4.8-7,7.6c-8,9.9-12.1,20.3-12.5,31
				c-0.1,3.1,0.1,6.4,0.3,9.5c0.3,4.7,0.5,9.6-0.1,14.5c-0.1,1.3-0.4,2.5-0.5,3.7c-1,6.3-1.8,11.7-0.8,18.5
				c2.3,16,9.9,31.3,20.7,41.6C1132,332.1,1142.1,337.6,1155.5,342.2z"/>
			<g>
				<circle class="st14" cx="1271.7" cy="234.2" r="5.3"/>
				<circle class="st14" cx="1281.1" cy="231.2" r="5.3"/>
				<circle class="st14" cx="1290.3" cy="228.2" r="5.3"/>
				<circle class="st14" cx="1299.7" cy="232.1" r="5.3"/>
				<circle class="st14" cx="1295.7" cy="219.6" r="5.3"/>
				<circle class="st14" cx="1309.6" cy="234.6" r="5.3"/>
				<circle class="st14" cx="1302.3" cy="211.7" r="5.3"/>
			</g>
			<g>
				<path class="st15" d="M1223.4,203c-16.6-19.9-55.7-9.5-62.7,14.2c-8,27,24.1,49.7,48,39.1c14.7-6.5,23.9-25.7,20.3-41.6
					C1228.1,210.4,1226.3,206.4,1223.4,203z"/>
			</g>
			<g>
				<circle class="st14" cx="1268.7" cy="304" r="5.3"/>
				<circle class="st14" cx="1278.4" cy="304.8" r="5.3"/>
				<circle class="st14" cx="1288.4" cy="305.7" r="5.3"/>
				<circle class="st14" cx="1295.4" cy="312.9" r="5.3"/>
				<circle class="st14" cx="1296.4" cy="299.9" r="5.3"/>
				<circle class="st14" cx="1303.6" cy="319.2" r="5.3"/>
				<circle class="st14" cx="1305.7" cy="295.2" r="5.3"/>
			</g>
			<g>
				<circle class="st14" cx="1228.4" cy="349.9" r="5.3"/>
				<path class="st14" d="M1234.4,352.3c3,0,5.3,2.4,5.3,5.3c0,3-2.4,5.3-5.3,5.3s-5.3-2.4-5.3-5.3
					C1229,354.7,1231.4,352.3,1234.4,352.3z"/>
				<circle class="st14" cx="1240.4" cy="365.5" r="5.3"/>
				<circle class="st14" cx="1240" cy="375.5" r="5.3"/>
				<circle class="st14" cx="1250.3" cy="367.5" r="5.3"/>
				<circle class="st14" cx="1240.9" cy="385.8" r="5.3"/>
				<circle class="st14" cx="1259.9" cy="371.1" r="5.3"/>
			</g>
			<g>
				<circle class="st14" cx="1155.9" cy="345.4" r="5.3"/>
				<circle class="st14" cx="1153.8" cy="354.9" r="5.3"/>
				<circle class="st14" cx="1151.6" cy="364.5" r="5.3"/>
				<circle class="st14" cx="1143.6" cy="370.7" r="5.3"/>
				<circle class="st14" cx="1156.4" cy="373.4" r="5.3"/>
				<circle class="st14" cx="1136.5" cy="378" r="5.3"/>
				<circle class="st14" cx="1159.9" cy="383.2" r="5.3"/>
			</g>
			<g>
				<circle class="st14" cx="1108.3" cy="305.9" r="5.3"/>
				<circle class="st14" cx="1099" cy="309.4" r="5.3"/>
				<circle class="st14" cx="1089.9" cy="312.9" r="5.3"/>
				<circle class="st14" cx="1080.4" cy="309.5" r="5.3"/>
				<circle class="st14" cx="1085.1" cy="321.8" r="5.3"/>
				<circle class="st14" cx="1070.2" cy="307.6" r="5.3"/>
				<circle class="st14" cx="1079" cy="330" r="5.3"/>
			</g>
			<g>
				<circle class="st14" cx="1104.4" cy="235.2" r="5.3"/>
				<circle class="st14" cx="1094.5" cy="234.9" r="5.3"/>
				<circle class="st14" cx="1084.7" cy="234.7" r="5.3"/>
				<circle class="st14" cx="1077.3" cy="227.9" r="5.3"/>
				<circle class="st14" cx="1076.9" cy="241.1" r="5.3"/>
				<circle class="st14" cx="1068.7" cy="222.3" r="5.3"/>
				<circle class="st14" cx="1068" cy="246.3" r="5.3"/>
			</g>
			<g>
				<circle class="st14" cx="1138.6" cy="182.9" r="5.3"/>
				<circle class="st14" cx="1132.2" cy="175.5" r="5.3"/>
				<circle class="st14" cx="1125.6" cy="168.2" r="5.3"/>
				<circle class="st14" cx="1125.5" cy="158" r="5.3"/>
				<circle class="st14" cx="1115.7" cy="166.8" r="5.3"/>
				<circle class="st14" cx="1123.9" cy="147.9" r="5.3"/>
				<circle class="st14" cx="1105.8" cy="163.8" r="5.3"/>
			</g>
			<g>
				<circle class="st14" cx="1225" cy="165.5" r="5.3"/>
				<circle class="st14" cx="1229.3" cy="156.7" r="5.3"/>
				<path class="st14" d="M1233.6,142.5c3,0,5.3,2.4,5.3,5.3s-2.4,5.3-5.3,5.3s-5.3-2.4-5.3-5.3S1230.6,142.5,1233.6,142.5z"/>
				<circle class="st14" cx="1242.9" cy="143.8" r="5.3"/>
				<circle class="st14" cx="1231" cy="138.1" r="5.3"/>
				<circle class="st14" cx="1251.6" cy="138.3" r="5.3"/>
				<circle class="st14" cx="1229.9" cy="127.8" r="5.3"/>
			</g>
		</g>
		<g>
			<path class="st4" d="M1323.6,244.2l18.4-17.7c1.2-1.2,1.6-3,0.8-4.4l23.5-8c2.2-0.8,3.4-3.1,2.6-5.3s-3.1-3.4-5.3-2.6l-14.5,5
				l-0.9-2.6l14.5-5c2.2-0.8,3.4-3.1,2.6-5.3s-3.1-3.4-5.3-2.6l-23.5,8c-0.4-1.6-1.7-2.9-3.4-3l-25.4-2.7c-2.2-0.3-4,1.3-4.3,3.5
				v0.5c-0.3,2.2,1.3,4,3.5,4.3l22.7,2.5c0,0.5,0,1.2,0.3,1.7c0.8,2.2,3.1,3.4,5.3,2.6l5.2-1.8l0.9,2.6l-5.2,1.8
				c-2.2,0.8-3.4,3.1-2.6,5.3c0.3,0.5,0.5,1,0.9,1.6l-16.4,15.8c-1.6,1.6-1.6,4-0.1,5.6l0.4,0.4
				C1319.5,245.6,1322,245.6,1323.6,244.2z M1343,210.3l2.6-0.9l0.9,2.6l-2.6,0.9L1343,210.3z"/>
			<path class="st4" d="M1314,334.8l23.7-9.3c1.6-0.7,2.5-2.2,2.5-3.8l24.8,1.6c2.3,0.1,4.3-1.6,4.4-3.9s-1.6-4.3-3.9-4.4l-15.3-0.9
				l0.1-2.7l15.3,0.9c2.3,0.1,4.3-1.6,4.4-3.9s-1.6-4.3-3.9-4.4l-24.8-1.6c0.3-1.6-0.5-3.3-2-4l-22.4-12.3c-2-1-4.3-0.4-5.3,1.6
				l-0.3,0.4c-1,2-0.4,4.3,1.6,5.3l19.9,11c-0.3,0.5-0.4,1-0.5,1.7c-0.1,2.3,1.6,4.3,3.9,4.4l5.6,0.4l-0.1,2.7l-5.6-0.4
				c-2.3-0.1-4.3,1.6-4.4,3.9c0,0.7,0,1.2,0.3,1.7l-21.3,8.3c-2.1,0.8-3,3.1-2.2,5.1l0.1,0.4C1309.7,334.7,1312,335.6,1314,334.8z
				 M1344.9,310.8l2.7,0.1l-0.1,2.7l-2.7-0.1L1344.9,310.8z"/>
			<path class="st4" d="M1233.3,400.3l21.6,13.6c1.4,0.9,3.3,0.8,4.6-0.3l13.6,20.7c1.3,2,3.8,2.5,5.7,1.2s2.5-3.8,1.2-5.7
				l-8.3-12.8l2.3-1.6l8.3,12.8c1.3,2,3.8,2.5,5.7,1.2c2-1.3,2.5-3.8,1.2-5.7l-13.6-20.7c1.4-0.8,2.3-2.3,2.1-4l-3.5-25.3
				c-0.3-2.2-2.3-3.7-4.4-3.4l-0.5,0.1c-2.2,0.3-3.7,2.3-3.4,4.4l3.1,22.6c-0.5,0.1-1.2,0.3-1.7,0.7c-2,1.3-2.5,3.8-1.2,5.7l3,4.7
				l-2.3,1.6l-3-4.7c-1.3-2-3.8-2.5-5.7-1.2c-0.5,0.4-0.9,0.8-1.2,1.3l-19.3-12.1c-1.8-1.2-4.3-0.7-5.5,1.3l-0.3,0.4
				C1230.9,396.6,1231.4,399.1,1233.3,400.3z M1270.9,410.7l1.6,2.3l-2.3,1.6l-1.6-2.3L1270.9,410.7z"/>
			<path class="st4" d="M1121.5,385l7.2,24.5c0.5,1.7,2,2.7,3.5,2.7l-3.7,24.5c-0.4,2.2,1.2,4.4,3.5,4.7c2.3,0.3,4.4-1.2,4.7-3.5
				l2.2-15.1l2.7,0.4l-2.2,15.1c-0.4,2.2,1.2,4.4,3.5,4.7c2.3,0.3,4.4-1.2,4.7-3.5l3.7-24.5c1.6,0.4,3.3-0.1,4.3-1.6l14.1-21.3
				c1.2-1.8,0.7-4.3-1-5.5l-0.4-0.3c-1.8-1.2-4.3-0.7-5.5,1l-12.6,19c-0.5-0.3-1-0.5-1.7-0.7c-2.2-0.4-4.4,1.2-4.7,3.5l-0.8,5.5
				l-2.7-0.4l0.8-5.5c0.4-2.2-1.2-4.4-3.5-4.7c-0.7-0.1-1.2,0-1.7,0.1l-6.4-21.9c-0.7-2.1-2.7-3.3-4.8-2.6l-0.5,0.1
				C1122.1,380.7,1120.9,382.9,1121.5,385z M1142.7,417.9l-0.4,2.7l-2.7-0.4l0.4-2.7L1142.7,417.9z"/>
			<path class="st4" d="M1059.5,297.7l-19.6,16.4c-1.3,1.2-1.7,2.9-1.2,4.4L1015,325c-2.2,0.7-3.5,2.9-2.9,5.1
				c0.7,2.2,2.9,3.5,5.1,2.9l14.7-4l0.8,2.7l-14.7,4c-2.2,0.7-3.5,2.9-2.9,5.1c0.7,2.2,2.9,3.5,5.1,2.9l23.9-6.5
				c0.3,1.6,1.6,3,3.3,3.3l25.2,4.3c2.1,0.4,4.2-1,4.6-3.3l0.1-0.5c0.4-2.1-1-4.2-3.3-4.6l-22.4-3.9c0.1-0.5,0.1-1.2-0.1-1.7
				c-0.7-2.2-2.9-3.5-5.1-2.9l-5.3,1.4l-0.8-2.7l5.3-1.4c2.2-0.7,3.5-2.9,2.9-5.1c-0.1-0.7-0.4-1.2-0.8-1.6l17.3-14.7
				c1.7-1.4,1.8-3.9,0.5-5.6l-0.3-0.4C1063.6,296.5,1061.1,296.2,1059.5,297.7z M1038,330.3l-2.7,0.8l-0.8-2.7l2.7-0.8L1038,330.3z"
				/>
			<path class="st4" d="M1060.8,210.2l-24,8.6c-1.6,0.5-2.6,2.1-2.6,3.8l-24.6-2.2c-2.3-0.3-4.3,1.4-4.6,3.8
				c-0.3,2.3,1.4,4.3,3.8,4.6l15.3,1.4l-0.3,2.7l-15.3-1.4c-2.3-0.3-4.3,1.4-4.6,3.8c-0.3,2.3,1.4,4.3,3.8,4.6l24.6,2.2
				c-0.3,1.6,0.4,3.3,1.8,4.2l22,12.8c1.8,1,4.3,0.5,5.3-1.4l0.3-0.4c1-1.8,0.5-4.3-1.4-5.3l-19.7-11.5c0.3-0.5,0.5-1,0.5-1.7
				c0.3-2.3-1.4-4.3-3.8-4.6l-5.6-0.5l0.3-2.7l5.6,0.5c2.3,0.3,4.3-1.4,4.6-3.8c0-0.7,0-1.2-0.3-1.7l21.5-7.7c2.1-0.8,3.1-3,2.3-5.1
				l-0.1-0.4C1065.1,210.6,1062.9,209.5,1060.8,210.2z M1029.3,233.4l-2.7-0.3l0.3-2.7l2.7,0.3L1029.3,233.4z"/>
			<path class="st4" d="M1129.6,134.6l-23.3-10.2c-1.6-0.7-3.4-0.3-4.4,0.9l-16.6-18.5c-1.6-1.7-4.2-1.8-5.9-0.4
				c-1.7,1.6-1.8,4.2-0.4,5.9l10.2,11.5l-2.1,1.8l-10.2-11.5c-1.6-1.7-4.2-1.8-5.9-0.4c-1.7,1.4-1.8,4.2-0.4,5.9l16.4,18.5
				c-1.3,0.9-2,2.6-1.4,4.3l7.3,24.5c0.7,2.1,2.9,3.3,5,2.6l0.5-0.1c2.1-0.7,3.3-2.9,2.6-5l-6.5-21.9c0.5-0.1,1-0.4,1.6-0.9
				c1.7-1.6,1.8-4.2,0.4-5.9l-3.7-4.2l2.1-1.8l3.7,4.2c1.6,1.7,4.2,1.8,5.9,0.4c0.5-0.4,0.8-0.9,1-1.4l20.9,9.1c2,0.9,4.3,0,5.2-2.1
				l0.1-0.4C1132.4,137.8,1131.5,135.5,1129.6,134.6z M1090.7,129.9l-1.8-2.1l2.1-1.8l1.8,2.1L1090.7,129.9z"/>
			<path class="st4" d="M1267.5,132.7l-0.8-25.6c0-1.7-1.2-3.1-2.7-3.7l9.8-22.7c0.9-2.1,0-4.6-2.2-5.5c-2.1-0.9-4.6,0-5.5,2.2
				l-6.1,14.1l-2.6-1l6.1-14.1c0.9-2.1,0-4.6-2.2-5.5s-4.6,0-5.5,2.2L1246,96c-1.4-0.8-3.3-0.7-4.6,0.5l-19,16.9
				c-1.6,1.4-1.8,3.9-0.4,5.6l0.3,0.4c1.4,1.6,3.9,1.8,5.6,0.4l17.1-15.1c0.4,0.4,0.9,0.8,1.4,1c2.1,0.9,4.6,0,5.5-2.2l2.2-5.1
				l2.6,1l-2.2,5.1c-0.9,2.1,0,4.6,2.2,5.5c0.5,0.3,1.2,0.4,1.7,0.4l0.7,22.8c0,2.2,1.8,3.9,4,3.8h0.5
				C1265.9,136.8,1267.6,134.9,1267.5,132.7z M1255.4,95.7l1-2.6l2.6,1l-1,2.6L1255.4,95.7z"/>
		</g>
	</g>
	<path class="st4" d="M930.1,411.1l-9.8-19c-0.7-1.3-2.1-2-3.4-1.7l-0.8-20.9c-0.1-2-1.7-3.4-3.7-3.4s-3.4,1.7-3.4,3.7l0.5,12.9
		l-2.3,0.1l-0.5-12.9c-0.1-2-1.7-3.4-3.7-3.4s-3.4,1.7-3.4,3.7l0.8,20.9c-1.3-0.1-2.7,0.7-3.3,2l-8.3,19.8c-0.7,1.7,0.1,3.7,1.8,4.3
		l0.4,0.1c1.7,0.7,3.7-0.1,4.3-1.8l7.4-17.6c0.4,0.1,0.9,0.3,1.4,0.3c2-0.1,3.4-1.7,3.4-3.7l-0.3-4.7l2.3-0.1l0.1,4.7
		c0.1,2,1.7,3.4,3.7,3.4c0.5,0,1-0.1,1.4-0.4l8.7,17.1c0.8,1.6,2.9,2.2,4.4,1.4l0.4-0.1C930.2,414.6,930.9,412.7,930.1,411.1z
		 M907.4,387.4l-0.1-2.3l2.3-0.1l0.1,2.3L907.4,387.4z"/>
	<path class="st4" d="M1032.7,370.5l-16.6,19.4c-1.2,1.3-1.2,3.1-0.4,4.6l-22.6,10.3c-2.1,0.9-3,3.4-2.1,5.5s3.4,3,5.5,2.1l14-6.4
		l1.2,2.5l-14,6.4c-2.1,0.9-3,3.4-2.1,5.5s3.4,3,5.5,2.1l22.6-10.3c0.5,1.6,2,2.6,3.7,2.6l25.6,0.1c2.2,0,3.9-1.7,3.9-3.9v-0.5
		c0-2.2-1.7-3.9-3.9-3.9l-22.8-0.1c0-0.5-0.1-1.2-0.4-1.7c-0.9-2.1-3.4-3-5.5-2.1l-5.1,2.3l-1.2-2.5l5.1-2.3c2.1-0.9,3-3.4,2.1-5.5
		c-0.3-0.5-0.7-1-1-1.4l14.7-17.3c1.4-1.7,1.2-4.2-0.4-5.6l-0.4-0.3C1036.6,368.7,1034.1,368.8,1032.7,370.5z M1016.9,406.3
		l-2.5,1.2l-1.2-2.5l2.5-1.2L1016.9,406.3z"/>
	<path class="st4" d="M932.9,342.1l-11,1.3c-0.8,0.1-1.3,0.7-1.4,1.3l-10.2-3.4c-0.9-0.3-2,0.1-2.2,1.2c-0.3,0.9,0.1,2,1.2,2.2
		l6.3,2.1l-0.4,1.2l-6.3-2.1c-0.9-0.3-2,0.1-2.2,1.2c-0.3,0.9,0.1,2,1.2,2.2l10.2,3.4c-0.3,0.7-0.1,1.4,0.4,2l8,7.6
		c0.7,0.7,1.7,0.7,2.3,0l0.1-0.1c0.7-0.7,0.7-1.7,0-2.3l-7.2-6.8c0.1-0.1,0.3-0.4,0.4-0.7c0.3-0.9-0.1-2-1.2-2.2l-2.2-0.8l0.4-1.2
		l2.2,0.8c0.9,0.3,2-0.1,2.2-1.2c0.1-0.3,0.1-0.5,0.1-0.8l9.8-1c0.9-0.1,1.6-0.9,1.4-1.8v-0.3C934.8,342.6,933.9,342,932.9,342.1z
		 M917.4,348.6l-1.2-0.4l0.4-1.2l1.2,0.4L917.4,348.6z"/>
</g>
</svg>
