<?xml version="1.0" encoding="utf-8"?>
<!-- Generator: Adobe Illustrator 24.1.0, SVG Export Plug-In . SVG Version: 6.00 Build 0)  -->
<svg version="1.1" id="Capa_1" xmlns="http://www.w3.org/2000/svg" xmlns:xlink="http://www.w3.org/1999/xlink" x="0px" y="0px"
	 viewBox="0 0 790 736" style="enable-background:new 0 0 790 736;" xml:space="preserve">
<style type="text/css">
	.st0{enable-background:new    ;}
	.st1{fill:#373A47;}
	.st2{fill:none;stroke:#AFAAAA;stroke-miterlimit:10;}
	.st3{fill:#8FB5BC;}
	.st4{fill:#FF2A2A;}
</style>
<g class="st0">
	<path class="st1" d="M114.8,453.7c1.4,0.5,2.8,1.4,4.2,2.5l-2.5,2.6c-1.1-0.9-2.1-1.5-3.1-1.9c-1-0.4-2.2-0.6-3.5-0.6
		c-1.6,0-3,0.4-4.3,1.3c-1.3,0.8-2.4,2.2-3.2,4c-0.8,1.8-1.2,4.2-1.2,7c0,4.3,0.7,7.4,2.1,9.4c1.4,2,3.5,3,6.2,3
		c2.2,0,4.2-0.5,5.8-1.4v-9.2h-5.4l-0.5-3.4h10.1v14.7c-3.2,1.8-6.5,2.7-10,2.7c-4,0-7.2-1.3-9.4-4c-2.3-2.7-3.4-6.6-3.4-11.8
		c0-3.3,0.6-6.1,1.8-8.5c1.2-2.4,2.8-4.2,4.8-5.4c2-1.2,4.2-1.8,6.6-1.8C111.8,452.9,113.4,453.2,114.8,453.7z"/>
	<path class="st1" d="M143.8,473.7H129c0.2,2.6,0.8,4.5,1.9,5.7c1.1,1.2,2.6,1.8,4.3,1.8c1.1,0,2.2-0.2,3.1-0.5
		c0.9-0.3,1.9-0.8,3-1.5l1.8,2.4c-2.5,1.9-5.2,2.9-8.1,2.9c-3.2,0-5.8-1.1-7.6-3.2c-1.8-2.1-2.7-5-2.7-8.8c0-2.4,0.4-4.6,1.2-6.4
		c0.8-1.9,1.9-3.3,3.4-4.4c1.5-1.1,3.2-1.6,5.2-1.6c3.1,0,5.5,1,7.1,3.1c1.7,2,2.5,4.9,2.5,8.5C143.9,472.3,143.9,472.9,143.8,473.7
		z M139.9,470.4c0-2.3-0.5-4.1-1.4-5.3c-0.9-1.2-2.3-1.8-4.1-1.8c-3.3,0-5.2,2.5-5.4,7.3h10.9V470.4z"/>
	<path class="st1" d="M166.4,462c1.2,1.3,1.8,3,1.8,5.2v16.7h-4.1v-16.2c0-1.7-0.3-2.8-0.9-3.5c-0.6-0.7-1.5-1-2.7-1
		c-1.2,0-2.3,0.4-3.3,1.1c-0.9,0.7-1.8,1.7-2.7,3.1v16.6h-4.1v-23.3h3.5l0.4,3.5c0.8-1.2,1.9-2.2,3.1-2.9c1.2-0.7,2.6-1.1,4.1-1.1
		C163.5,460.1,165.2,460.7,166.4,462z"/>
	<path class="st1" d="M193.9,473.7H179c0.2,2.6,0.8,4.5,1.9,5.7c1.1,1.2,2.6,1.8,4.3,1.8c1.1,0,2.2-0.2,3.1-0.5
		c0.9-0.3,1.9-0.8,3-1.5l1.8,2.4c-2.5,1.9-5.2,2.9-8.1,2.9c-3.2,0-5.8-1.1-7.6-3.2c-1.8-2.1-2.7-5-2.7-8.8c0-2.4,0.4-4.6,1.2-6.4
		c0.8-1.9,1.9-3.3,3.4-4.4c1.5-1.1,3.2-1.6,5.2-1.6c3.1,0,5.5,1,7.1,3.1c1.7,2,2.5,4.9,2.5,8.5C194,472.3,194,472.9,193.9,473.7z
		 M190,470.4c0-2.3-0.5-4.1-1.4-5.3c-0.9-1.2-2.3-1.8-4.1-1.8c-3.3,0-5.2,2.5-5.4,7.3H190V470.4z"/>
</g>
<g class="st0">
	<path class="st1" d="M115.4,529.6c2.1,1.6,3.1,3.9,3.1,7.1c0,3.3-1.1,5.8-3.2,7.4c-2.2,1.6-5,2.4-8.6,2.4h-3.9v11.2h-4.2v-30.5h8
		C110.4,527.2,113.3,528,115.4,529.6z M112.1,541.8c1.3-0.9,1.9-2.6,1.9-5.1c0-2.2-0.6-3.8-1.9-4.7c-1.3-1-3.1-1.5-5.5-1.5h-3.8
		v12.7h3.7C108.9,543.2,110.8,542.7,112.1,541.8z"/>
	<path class="st1" d="M135.7,534.1l-0.8,4c-0.7-0.2-1.4-0.3-2-0.3c-1.4,0-2.6,0.5-3.5,1.6c-0.9,1.1-1.6,2.7-2.1,5v13.3h-4.1v-23.3
		h3.5l0.4,4.7c0.6-1.7,1.5-3.1,2.5-3.9c1.1-0.9,2.3-1.3,3.7-1.3C134.2,533.9,134.9,533.9,135.7,534.1z"/>
	<path class="st1" d="M155.4,537.1c1.8,2.2,2.7,5.2,2.7,8.9c0,2.4-0.4,4.6-1.2,6.4c-0.8,1.8-2,3.3-3.6,4.3c-1.6,1-3.4,1.5-5.6,1.5
		c-3.3,0-5.8-1.1-7.7-3.3c-1.8-2.2-2.7-5.2-2.7-8.9c0-2.4,0.4-4.6,1.2-6.4c0.8-1.8,2-3.3,3.6-4.3c1.6-1,3.4-1.5,5.6-1.5
		C151,533.9,153.6,534.9,155.4,537.1z M141.7,546.1c0,5.9,2,8.9,6,8.9c4,0,6-3,6-8.9c0-5.9-2-8.9-6-8.9
		C143.7,537.1,141.7,540.1,141.7,546.1z"/>
	<path class="st1" d="M176.6,556.7c-1.5,1.1-3.3,1.6-5.2,1.6c-2,0-3.5-0.6-4.6-1.7c-1.1-1.1-1.7-2.8-1.7-4.9v-14.1H161v-3.1h4.1
		v-5.3l4.1-0.5v5.8h5.5l-0.4,3.1h-5.1v13.9c0,1.2,0.2,2.1,0.6,2.6c0.4,0.5,1.1,0.8,2.1,0.8c0.9,0,1.9-0.3,3.1-0.9L176.6,556.7z"/>
	<path class="st1" d="M197.7,547.4h-14.9c0.2,2.6,0.8,4.5,1.9,5.7c1.1,1.2,2.6,1.8,4.3,1.8c1.1,0,2.2-0.2,3.1-0.5
		c0.9-0.3,1.9-0.8,3-1.5l1.8,2.4c-2.5,1.9-5.2,2.9-8.1,2.9c-3.2,0-5.8-1.1-7.6-3.2c-1.8-2.1-2.7-5-2.7-8.8c0-2.4,0.4-4.6,1.2-6.4
		c0.8-1.9,1.9-3.3,3.4-4.4c1.5-1.1,3.2-1.6,5.2-1.6c3.1,0,5.5,1,7.1,3.1c1.7,2,2.5,4.9,2.5,8.5C197.8,546,197.7,546.7,197.7,547.4z
		 M193.7,544.2c0-2.3-0.5-4.1-1.4-5.3c-0.9-1.2-2.3-1.8-4.1-1.8c-3.3,0-5.2,2.5-5.4,7.3h10.9V544.2z"/>
	<path class="st1" d="M208.4,524c0.5,0.5,0.8,1.2,0.8,2s-0.3,1.5-0.8,2c-0.5,0.5-1.2,0.8-2.1,0.8c-0.8,0-1.5-0.3-2-0.8
		c-0.5-0.5-0.8-1.2-0.8-2s0.3-1.5,0.8-2c0.5-0.5,1.2-0.8,2-0.8C207.1,523.2,207.8,523.4,208.4,524z M208.4,534.4v23.3h-4.1v-23.3
		H208.4z"/>
	<path class="st1" d="M232.7,535.8c1.2,1.3,1.8,3,1.8,5.2v16.7h-4.1v-16.2c0-1.7-0.3-2.8-0.9-3.5c-0.6-0.7-1.5-1-2.7-1
		c-1.2,0-2.3,0.4-3.3,1.1c-0.9,0.7-1.8,1.7-2.7,3.1v16.6h-4.1v-23.3h3.5l0.4,3.5c0.8-1.2,1.9-2.2,3.1-2.9c1.2-0.7,2.6-1.1,4.1-1.1
		C229.9,533.9,231.5,534.5,232.7,535.8z"/>
	<path class="st1" d="M266.8,534.5c1.2,0.4,2.3,1,3.3,1.9l-1.9,2.6c-0.8-0.6-1.6-1-2.4-1.3c-0.8-0.3-1.6-0.4-2.6-0.4
		c-1.9,0-3.4,0.8-4.4,2.3c-1,1.5-1.6,3.7-1.6,6.7c0,3,0.5,5.1,1.5,6.5c1,1.4,2.5,2.1,4.4,2.1c0.9,0,1.8-0.1,2.5-0.4
		c0.8-0.3,1.6-0.7,2.6-1.4l1.9,2.7c-2.1,1.7-4.5,2.6-7.1,2.6c-3.2,0-5.6-1.1-7.5-3.2c-1.8-2.1-2.7-5.1-2.7-8.8
		c0-2.5,0.4-4.6,1.2-6.5c0.8-1.9,2-3.3,3.5-4.3c1.5-1,3.3-1.5,5.4-1.5C264.3,533.9,265.6,534.1,266.8,534.5z"/>
	<path class="st1" d="M291.6,535.8c1.2,1.3,1.8,3,1.8,5.2v16.7h-4.1v-16.2c0-1.7-0.3-2.8-1-3.5c-0.6-0.7-1.6-1-2.8-1
		c-1.2,0-2.3,0.4-3.2,1.1c-0.9,0.7-1.8,1.7-2.7,3v16.6h-4.1V525l4.1-0.4v13c1.8-2.5,4.1-3.8,6.9-3.8
		C288.7,533.9,290.4,534.5,291.6,535.8z"/>
	<path class="st1" d="M317.8,554.4c0.3,0.5,0.8,0.8,1.5,1l-0.9,2.8c-1.2-0.1-2.2-0.5-2.9-1c-0.7-0.5-1.3-1.4-1.6-2.5
		c-1.6,2.3-3.9,3.5-7,3.5c-2.3,0-4.1-0.6-5.4-1.9c-1.3-1.3-2-3-2-5.1c0-2.5,0.9-4.4,2.7-5.7c1.8-1.3,4.3-2,7.6-2h3.6v-1.7
		c0-1.7-0.4-2.8-1.2-3.5c-0.8-0.7-2-1.1-3.7-1.1c-1.7,0-3.8,0.4-6.3,1.2l-1-3c2.9-1.1,5.6-1.6,8.1-1.6c2.7,0,4.8,0.7,6.2,2
		c1.4,1.3,2,3.3,2,5.7v10.7C317.3,553.2,317.4,553.9,317.8,554.4z M313.2,551.6v-5.4h-3.1c-4.3,0-6.5,1.6-6.5,4.8
		c0,1.4,0.3,2.4,1,3.1c0.7,0.7,1.7,1.1,3,1.1C310,555.2,311.9,554,313.2,551.6z"/>
	<path class="st1" d="M341.6,535.8c1.2,1.3,1.8,3,1.8,5.2v16.7h-4.1v-16.2c0-1.7-0.3-2.8-0.9-3.5c-0.6-0.7-1.5-1-2.7-1
		c-1.2,0-2.3,0.4-3.3,1.1c-0.9,0.7-1.8,1.7-2.7,3.1v16.6h-4.1v-23.3h3.5l0.4,3.5c0.8-1.2,1.9-2.2,3.1-2.9c1.2-0.7,2.6-1.1,4.1-1.1
		C338.7,533.9,340.4,534.5,341.6,535.8z"/>
	<path class="st1" d="M370.4,535.4c-0.9,0.3-1.9,0.5-2.9,0.6c-1.1,0.1-2.4,0.1-3.9,0.1c2.7,1.2,4.1,3.2,4.1,5.9
		c0,2.3-0.8,4.2-2.4,5.7c-1.6,1.5-3.8,2.2-6.5,2.2c-1.1,0-2.1-0.1-3-0.4c-0.4,0.2-0.6,0.6-0.8,1c-0.2,0.4-0.3,0.8-0.3,1.2
		c0,1.3,1,1.9,3.1,1.9h3.7c1.6,0,3,0.3,4.2,0.8c1.2,0.6,2.1,1.3,2.8,2.3c0.7,1,1,2.1,1,3.3c0,2.3-0.9,4-2.8,5.2
		c-1.9,1.2-4.6,1.8-8.1,1.8c-2.5,0-4.5-0.3-6-0.8c-1.5-0.5-2.5-1.3-3.1-2.3c-0.6-1-0.9-2.4-0.9-4h3.7c0,0.9,0.2,1.7,0.5,2.2
		c0.4,0.5,1,1,1.9,1.2c0.9,0.3,2.2,0.4,3.9,0.4c2.4,0,4.2-0.3,5.2-0.9c1-0.6,1.6-1.5,1.6-2.7c0-1.1-0.4-1.9-1.2-2.5
		c-0.8-0.6-2-0.8-3.5-0.8h-3.7c-2,0-3.5-0.4-4.5-1.3c-1-0.8-1.5-1.9-1.5-3.2c0-0.8,0.2-1.5,0.7-2.2c0.4-0.7,1.1-1.3,1.9-1.9
		c-1.4-0.7-2.4-1.6-3-2.6c-0.6-1-1-2.3-1-3.8c0-1.6,0.4-3,1.2-4.2c0.8-1.2,1.9-2.2,3.2-2.9s2.9-1,4.6-1c1.8,0,3.4,0,4.6-0.2
		c1.2-0.2,2.3-0.4,3.1-0.7c0.8-0.3,1.8-0.7,3-1.2L370.4,535.4z M355,538.2c-0.8,1-1.3,2.2-1.3,3.8c0,1.6,0.4,2.9,1.3,3.8
		c0.9,1,2.1,1.4,3.6,1.4c1.6,0,2.8-0.5,3.7-1.4s1.3-2.2,1.3-3.9c0-3.5-1.7-5.2-5-5.2C357,536.8,355.8,537.3,355,538.2z"/>
	<path class="st1" d="M391.4,547.4h-14.9c0.2,2.6,0.8,4.5,1.9,5.7c1.1,1.2,2.6,1.8,4.3,1.8c1.1,0,2.2-0.2,3.1-0.5
		c0.9-0.3,1.9-0.8,3-1.5l1.8,2.4c-2.5,1.9-5.2,2.9-8.1,2.9c-3.2,0-5.8-1.1-7.6-3.2c-1.8-2.1-2.7-5-2.7-8.8c0-2.4,0.4-4.6,1.2-6.4
		c0.8-1.9,1.9-3.3,3.4-4.4c1.5-1.1,3.2-1.6,5.2-1.6c3.1,0,5.5,1,7.1,3.1c1.7,2,2.5,4.9,2.5,8.5C391.5,546,391.5,546.7,391.4,547.4z
		 M387.5,544.2c0-2.3-0.5-4.1-1.4-5.3c-0.9-1.2-2.3-1.8-4.1-1.8c-3.3,0-5.2,2.5-5.4,7.3h10.9V544.2z"/>
</g>
<g class="st0">
	<path class="st1" d="M102.8,601v30.5h-4.2V601H102.8z"/>
	<path class="st1" d="M139.5,609.6c1.2,1.3,1.7,3,1.7,5.2v16.7h-4.1v-16.2c0-3-1.1-4.5-3.3-4.5c-1.2,0-2.1,0.3-2.9,1
		s-1.7,1.7-2.6,3.1v16.6h-4.1v-16.2c0-3-1.1-4.5-3.3-4.5c-1.2,0-2.2,0.3-3,1c-0.8,0.7-1.6,1.7-2.5,3.1v16.6h-4.1v-23.3h3.5l0.4,3.4
		c1.7-2.6,4-3.9,6.7-3.9c1.4,0,2.7,0.4,3.7,1.1c1,0.7,1.7,1.8,2.2,3.1c0.9-1.4,1.9-2.4,3-3.1c1.1-0.7,2.4-1.1,3.9-1.1
		C136.8,607.6,138.3,608.3,139.5,609.6z"/>
	<path class="st1" d="M166.6,610.8c1.4,2.1,2.1,5.1,2.1,9c0,3.7-0.8,6.6-2.4,8.9c-1.6,2.2-3.9,3.4-6.8,3.4c-2.6,0-4.6-0.9-6.1-2.7
		v11.1l-4.1,0.5v-32.8h3.5l0.3,3.1c0.9-1.2,1.9-2.1,3.1-2.7c1.2-0.6,2.5-1,3.8-1C163.1,607.6,165.3,608.7,166.6,610.8z M164.3,619.8
		c0-6-1.8-8.9-5.3-8.9c-1.2,0-2.2,0.3-3.1,1c-0.9,0.7-1.8,1.5-2.5,2.6v11.4c0.6,0.9,1.3,1.6,2.2,2.1c0.9,0.5,1.9,0.7,2.9,0.7
		C162.4,628.7,164.3,625.8,164.3,619.8z"/>
	<path class="st1" d="M191.4,628.2c0.3,0.5,0.8,0.8,1.5,1L192,632c-1.2-0.1-2.2-0.5-2.9-1c-0.7-0.5-1.3-1.4-1.6-2.5
		c-1.6,2.3-3.9,3.5-7,3.5c-2.3,0-4.1-0.6-5.4-1.9c-1.3-1.3-2-3-2-5.1c0-2.5,0.9-4.4,2.7-5.7c1.8-1.3,4.3-2,7.6-2h3.6v-1.7
		c0-1.7-0.4-2.8-1.2-3.5c-0.8-0.7-2-1.1-3.7-1.1c-1.7,0-3.8,0.4-6.3,1.2l-1-3c2.9-1.1,5.6-1.6,8.1-1.6c2.7,0,4.8,0.7,6.2,2
		c1.4,1.3,2,3.3,2,5.7v10.7C191,627,191.1,627.7,191.4,628.2z M186.9,625.4V620h-3.1c-4.3,0-6.5,1.6-6.5,4.8c0,1.4,0.3,2.4,1,3.1
		c0.7,0.7,1.7,1.1,3,1.1C183.7,629,185.6,627.8,186.9,625.4z"/>
	<path class="st1" d="M211.6,608.2c1.2,0.4,2.3,1,3.3,1.9l-1.9,2.6c-0.8-0.6-1.6-1-2.4-1.3c-0.8-0.3-1.6-0.4-2.6-0.4
		c-1.9,0-3.4,0.8-4.4,2.3c-1,1.5-1.6,3.7-1.6,6.7c0,3,0.5,5.1,1.5,6.5c1,1.4,2.5,2.1,4.4,2.1c0.9,0,1.8-0.1,2.5-0.4
		c0.8-0.3,1.6-0.7,2.6-1.4l1.9,2.7c-2.1,1.7-4.5,2.6-7.1,2.6c-3.2,0-5.6-1.1-7.5-3.2c-1.8-2.1-2.7-5.1-2.7-8.8
		c0-2.5,0.4-4.6,1.2-6.5c0.8-1.9,2-3.3,3.5-4.3c1.5-1,3.3-1.5,5.4-1.5C209.2,607.6,210.5,607.8,211.6,608.2z"/>
	<path class="st1" d="M232.3,630.5c-1.5,1.1-3.3,1.6-5.2,1.6c-2,0-3.5-0.6-4.6-1.7c-1.1-1.1-1.7-2.8-1.7-4.9v-14.1h-4.1v-3.1h4.1
		v-5.3l4.1-0.5v5.8h5.5l-0.4,3.1h-5.1v13.9c0,1.2,0.2,2.1,0.6,2.6c0.4,0.5,1.1,0.8,2.1,0.8c0.9,0,1.9-0.3,3.1-0.9L232.3,630.5z"/>
</g>
<g class="st0">
	<path class="st1" d="M116.6,674.8l-0.4,3.6h-8.5v26.9h-4.2v-26.9h-8.7v-3.6H116.6z"/>
	<path class="st1" d="M132.4,681.7l-0.8,4c-0.7-0.2-1.4-0.3-2-0.3c-1.4,0-2.6,0.5-3.5,1.6c-0.9,1.1-1.6,2.7-2.1,5v13.3h-4.1V682h3.5
		l0.4,4.7c0.6-1.7,1.5-3.1,2.5-3.9c1.1-0.9,2.3-1.3,3.7-1.3C130.9,681.4,131.7,681.5,132.4,681.7z"/>
	<path class="st1" d="M153.2,695h-14.9c0.2,2.6,0.8,4.5,1.9,5.7c1.1,1.2,2.6,1.8,4.3,1.8c1.1,0,2.2-0.2,3.1-0.5
		c0.9-0.3,1.9-0.8,3-1.5l1.8,2.4c-2.5,1.9-5.2,2.9-8.1,2.9c-3.2,0-5.8-1.1-7.6-3.2c-1.8-2.1-2.7-5-2.7-8.8c0-2.4,0.4-4.6,1.2-6.4
		c0.8-1.9,1.9-3.3,3.4-4.4c1.5-1.1,3.2-1.6,5.2-1.6c3.1,0,5.5,1,7.1,3.1c1.7,2,2.5,4.9,2.5,8.5C153.3,693.6,153.3,694.3,153.2,695z
		 M149.3,691.8c0-2.3-0.5-4.1-1.4-5.3c-0.9-1.2-2.3-1.8-4.1-1.8c-3.3,0-5.2,2.5-5.4,7.3h10.9V691.8z"/>
	<path class="st1" d="M175.6,702c0.3,0.5,0.8,0.8,1.5,1l-0.9,2.8c-1.2-0.1-2.2-0.5-2.9-1c-0.7-0.5-1.3-1.4-1.6-2.5
		c-1.6,2.3-3.9,3.5-7,3.5c-2.3,0-4.1-0.6-5.4-1.9c-1.3-1.3-2-3-2-5.1c0-2.5,0.9-4.4,2.7-5.7c1.8-1.3,4.3-2,7.6-2h3.6v-1.7
		c0-1.7-0.4-2.8-1.2-3.5c-0.8-0.7-2-1.1-3.7-1.1c-1.7,0-3.8,0.4-6.3,1.2l-1-3c2.9-1.1,5.6-1.6,8.1-1.6c2.7,0,4.8,0.7,6.2,2
		c1.4,1.3,2,3.3,2,5.7v10.7C175.1,700.8,175.3,701.5,175.6,702z M171,699.2v-5.4H168c-4.3,0-6.5,1.6-6.5,4.8c0,1.4,0.3,2.4,1,3.1
		c0.7,0.7,1.7,1.1,3,1.1C167.9,702.8,169.7,701.6,171,699.2z"/>
	<path class="st1" d="M195.2,704.2c-1.5,1.1-3.3,1.6-5.2,1.6c-2,0-3.5-0.6-4.6-1.7c-1.1-1.1-1.7-2.8-1.7-4.9v-14.1h-4.1V682h4.1
		v-5.3l4.1-0.5v5.8h5.5l-0.4,3.1h-5.1V699c0,1.2,0.2,2.1,0.6,2.6c0.4,0.5,1.1,0.8,2.1,0.8c0.9,0,1.9-0.3,3.1-0.9L195.2,704.2z"/>
	<path class="st1" d="M227.5,683.4c1.2,1.3,1.7,3,1.7,5.2v16.7h-4.1v-16.2c0-3-1.1-4.5-3.3-4.5c-1.2,0-2.1,0.3-2.9,1
		s-1.7,1.7-2.6,3.1v16.6h-4.1v-16.2c0-3-1.1-4.5-3.3-4.5c-1.2,0-2.2,0.3-3,1c-0.8,0.7-1.6,1.7-2.5,3.1v16.6h-4.1V682h3.5l0.4,3.4
		c1.7-2.6,4-3.9,6.7-3.9c1.4,0,2.7,0.4,3.7,1.1c1,0.7,1.7,1.8,2.2,3.1c0.9-1.4,1.9-2.4,3-3.1c1.1-0.7,2.4-1.1,3.9-1.1
		C224.8,681.4,226.3,682.1,227.5,683.4z"/>
	<path class="st1" d="M254.9,695h-14.9c0.2,2.6,0.8,4.5,1.9,5.7c1.1,1.2,2.6,1.8,4.3,1.8c1.1,0,2.2-0.2,3.1-0.5
		c0.9-0.3,1.9-0.8,3-1.5l1.8,2.4c-2.5,1.9-5.2,2.9-8.1,2.9c-3.2,0-5.8-1.1-7.6-3.2c-1.8-2.1-2.7-5-2.7-8.8c0-2.4,0.4-4.6,1.2-6.4
		c0.8-1.9,1.9-3.3,3.4-4.4c1.5-1.1,3.2-1.6,5.2-1.6c3.1,0,5.5,1,7.1,3.1c1.7,2,2.5,4.9,2.5,8.5C255,693.6,255,694.3,254.9,695z
		 M251,691.8c0-2.3-0.5-4.1-1.4-5.3c-0.9-1.2-2.3-1.8-4.1-1.8c-3.3,0-5.2,2.5-5.4,7.3H251V691.8z"/>
	<path class="st1" d="M277.5,683.3c1.2,1.3,1.8,3,1.8,5.2v16.7h-4.1v-16.2c0-1.7-0.3-2.8-0.9-3.5c-0.6-0.7-1.5-1-2.7-1
		c-1.2,0-2.3,0.4-3.3,1.1c-0.9,0.7-1.8,1.7-2.7,3.1v16.6h-4.1V682h3.5l0.4,3.5c0.8-1.2,1.9-2.2,3.1-2.9c1.2-0.7,2.6-1.1,4.1-1.1
		C274.6,681.4,276.3,682.1,277.5,683.3z"/>
	<path class="st1" d="M299.3,704.2c-1.5,1.1-3.3,1.6-5.2,1.6c-2,0-3.5-0.6-4.6-1.7c-1.1-1.1-1.7-2.8-1.7-4.9v-14.1h-4.1V682h4.1
		v-5.3l4.1-0.5v5.8h5.5l-0.4,3.1h-5.1V699c0,1.2,0.2,2.1,0.6,2.6c0.4,0.5,1.1,0.8,2.1,0.8c0.9,0,1.9-0.3,3.1-0.9L299.3,704.2z"/>
</g>
<g class="st0">
	<path class="st1" d="M461.1,469.9c1.3,1.1,1.9,2.8,1.9,5c0,3.3-1.2,5.6-3.5,6.9c-2.3,1.3-5.6,2-9.9,2h-9.9v-30.7h8.7
		c4.3,0,7.6,0.6,9.9,1.8c2.3,1.2,3.4,3.2,3.4,6c0,1.8-0.5,3.3-1.6,4.4c-1.1,1.1-2.4,1.9-4,2.2C458.2,468.1,459.8,468.8,461.1,469.9z
		 M447.1,458.4v7.1h2.7c3.1,0,4.6-1.2,4.6-3.7c0-1.2-0.4-2.1-1.2-2.6s-2.1-0.8-3.9-0.8H447.1z M454.1,477.8c1-0.6,1.5-1.6,1.5-3.2
		c0-2.8-1.8-4.2-5.3-4.2h-3.2v8.3h2.7C451.6,478.7,453.1,478.4,454.1,477.8z"/>
	<path class="st1" d="M477.2,472.2h-2.8v11.7h-7.3v-30.7h10.1c4.2,0,7.3,0.8,9.5,2.3s3.2,3.9,3.2,7c0,2-0.5,3.6-1.4,4.9
		c-0.9,1.3-2.4,2.4-4.5,3.3l7.8,13.1h-8.2L477.2,472.2z M474.4,467.2h3.1c1.6,0,2.8-0.4,3.7-1.1c0.8-0.7,1.2-1.9,1.2-3.5
		c0-1.5-0.4-2.6-1.3-3.2c-0.9-0.7-2.2-1-4-1h-2.6V467.2z"/>
	<path class="st1" d="M510.6,483.9l-1.6-6.6h-8.9l-1.5,6.6H491l9.3-30.7h8.8l9.3,30.7H510.6z M501.3,472.1h6.5l-3.2-13.5
		L501.3,472.1z"/>
	<path class="st1" d="M520.6,483.9v-30.7h18.3l-0.8,5.2h-10.3v8.1h8.9v5.2h-8.9v12.2H520.6z"/>
</g>
<g class="st0">
	<path class="st1" d="M462.8,527l-8.5,30.7h-9l-8.9-30.7h7.7l5.8,25l5.5-25H462.8z"/>
	<path class="st1" d="M481.6,538.7c1.3,0.8,2.3,1.9,3.1,3.4c0.7,1.5,1.1,3.3,1.1,5.3c0,2-0.4,3.9-1.3,5.6c-0.9,1.7-2.1,3-3.8,4
		c-1.6,1-3.5,1.5-5.7,1.5c-3.8,0-6.7-1.3-8.5-3.9c-1.9-2.6-2.8-6.1-2.8-10.6c0-3.4,0.5-6.3,1.6-8.9c1-2.5,2.6-4.5,4.5-5.9
		c2-1.4,4.3-2.1,6.9-2.1c2.6,0,4.8,0.7,6.8,2l-2.6,4.2c-1.3-0.8-2.7-1.2-4.1-1.2c-1.7,0-3,0.7-4.1,2.1c-1,1.4-1.7,3.4-1.9,6
		c1.8-1.8,3.9-2.7,6.3-2.7C478.9,537.6,480.4,538,481.6,538.7z M477.9,551.9c0.6-1,1-2.5,1-4.3c0-1.9-0.3-3.2-0.9-4
		s-1.5-1.2-2.7-1.2c-1.6,0-3.1,0.8-4.4,2.3c0.1,3.2,0.4,5.4,1,6.7c0.6,1.3,1.7,2,3.1,2C476.3,553.5,477.2,552.9,477.9,551.9z"/>
	<path class="st1" d="M508.3,531.2c1.9,2.7,2.9,6.6,2.9,11.6c0,5-1,8.9-2.9,11.6s-4.7,4.1-8.4,4.1s-6.5-1.4-8.4-4.1
		c-1.9-2.7-2.9-6.6-2.9-11.6c0-5,1-8.9,2.9-11.6c1.9-2.7,4.7-4,8.4-4S506.3,528.5,508.3,531.2z M497.5,533.3c-0.6,0.6-1,1.7-1.3,3.2
		c-0.3,1.5-0.4,3.6-0.4,6.2c0,2.7,0.1,4.7,0.4,6.3c0.3,1.5,0.7,2.6,1.3,3.3c0.6,0.6,1.4,1,2.4,1s1.8-0.3,2.4-1
		c0.6-0.6,1-1.7,1.3-3.2s0.4-3.6,0.4-6.3s-0.1-4.8-0.4-6.3s-0.7-2.6-1.3-3.2c-0.6-0.6-1.4-0.9-2.4-0.9S498.1,532.7,497.5,533.3z"/>
	<path class="st1" d="M534.2,531.2c1.9,2.7,2.9,6.6,2.9,11.6c0,5-1,8.9-2.9,11.6s-4.7,4.1-8.4,4.1s-6.5-1.4-8.4-4.1
		c-1.9-2.7-2.9-6.6-2.9-11.6c0-5,1-8.9,2.9-11.6c1.9-2.7,4.7-4,8.4-4S532.2,528.5,534.2,531.2z M523.4,533.3c-0.6,0.6-1,1.7-1.3,3.2
		c-0.3,1.5-0.4,3.6-0.4,6.2c0,2.7,0.1,4.7,0.4,6.3c0.3,1.5,0.7,2.6,1.3,3.3c0.6,0.6,1.4,1,2.4,1s1.8-0.3,2.4-1
		c0.6-0.6,1-1.7,1.3-3.2s0.4-3.6,0.4-6.3s-0.1-4.8-0.4-6.3s-0.7-2.6-1.3-3.2c-0.6-0.6-1.4-0.9-2.4-0.9S524,532.7,523.4,533.3z"/>
	<path class="st1" d="M565.1,530l-3.7,3.9c-1.1-0.8-2.1-1.4-3-1.8c-0.9-0.4-2-0.6-3.2-0.6c-2.3,0-4.1,0.9-5.4,2.7s-2,4.5-2,8.1
		c0,3.9,0.5,6.7,1.5,8.3c1,1.6,2.6,2.5,4.8,2.5c1.5,0,2.9-0.3,4.2-1v-7h-4l-0.7-5.1h11.7v15.2c-1.6,1-3.4,1.8-5.3,2.4
		s-3.8,0.8-5.8,0.8c-4.7,0-8.2-1.4-10.5-4.1s-3.5-6.7-3.5-12c0-3.4,0.6-6.3,1.9-8.7c1.3-2.4,3-4.3,5.3-5.5c2.2-1.3,4.7-1.9,7.5-1.9
		C558.8,526.3,562.2,527.5,565.1,530z"/>
</g>
<g class="st0">
	<path class="st1" d="M459.9,604.1c2.9,2.2,4.4,6.1,4.4,11.9c0,5.7-1.4,9.7-4.3,12s-6.5,3.5-11,3.5h-9.2v-30.7h8.5
		C453.2,600.8,457,601.9,459.9,604.1z M447.1,606.1v20.1h2.4c2.4,0,4.2-0.7,5.4-2.2c1.2-1.5,1.9-4.2,1.9-8c0-2.6-0.3-4.7-0.9-6.1
		c-0.6-1.4-1.5-2.4-2.5-3c-1.1-0.5-2.4-0.8-3.9-0.8H447.1z"/>
	<path class="st1" d="M483.6,607.6l-1.1,6.8c-0.9-0.2-1.6-0.3-2.1-0.3c-1.4,0-2.4,0.5-3.2,1.4c-0.7,1-1.3,2.4-1.7,4.3v11.6h-7V608
		h6.1l0.6,4.6c0.5-1.6,1.3-2.9,2.4-3.8s2.3-1.4,3.7-1.4C482.1,607.3,482.9,607.4,483.6,607.6z"/>
	<path class="st1" d="M492.7,596.7c0.8,0.8,1.2,1.7,1.2,2.9c0,1.2-0.4,2.1-1.2,2.9c-0.8,0.8-1.8,1.1-3,1.1c-1.2,0-2.2-0.4-3-1.1
		c-0.8-0.8-1.2-1.7-1.2-2.9c0-1.2,0.4-2.1,1.2-2.9c0.8-0.8,1.8-1.1,3-1.1C490.9,595.6,491.9,596,492.7,596.7z M493.2,608v23.5h-7
		V608H493.2z"/>
	<path class="st1" d="M519,608l-7.4,23.5h-8.3l-7.6-23.5h7.6l4.2,18.2l4.3-18.2H519z"/>
	<path class="st1" d="M541.5,621.8h-14.6c0.2,2,0.8,3.4,1.7,4.2c0.9,0.8,2.1,1.2,3.7,1.2c0.9,0,1.9-0.2,2.7-0.5
		c0.9-0.3,1.8-0.9,2.9-1.6l2.9,3.9c-2.7,2.2-5.8,3.3-9.2,3.3c-3.8,0-6.7-1.1-8.8-3.4c-2-2.2-3.1-5.3-3.1-9c0-2.4,0.4-4.5,1.3-6.4
		c0.9-1.9,2.1-3.4,3.8-4.5c1.7-1.1,3.6-1.7,5.9-1.7c3.4,0,6.1,1.1,8,3.2c1.9,2.1,2.9,5.1,2.9,8.9
		C541.6,620.3,541.6,621.1,541.5,621.8z M534.7,617.3c-0.1-3.6-1.3-5.4-3.8-5.4c-1.2,0-2.1,0.4-2.8,1.3s-1.1,2.3-1.2,4.4h7.8V617.3z
		"/>
	<path class="st1" d="M560.6,607.6l-1.1,6.8c-0.9-0.2-1.6-0.3-2.1-0.3c-1.4,0-2.4,0.5-3.2,1.4c-0.7,1-1.3,2.4-1.7,4.3v11.6h-7V608
		h6.1l0.6,4.6c0.5-1.6,1.3-2.9,2.4-3.8s2.3-1.4,3.7-1.4C559.1,607.3,559.9,607.4,560.6,607.6z"/>
</g>
<g class="st0">
	<path class="st1" d="M462.8,674.6l-8.5,30.7h-9l-8.9-30.7h7.7l5.8,25l5.5-25H462.8z"/>
	<path class="st1" d="M484.2,695.6h-14.6c0.2,2,0.8,3.4,1.7,4.2c0.9,0.8,2.1,1.2,3.7,1.2c0.9,0,1.9-0.2,2.7-0.5
		c0.9-0.3,1.8-0.9,2.9-1.6l2.9,3.9c-2.7,2.2-5.8,3.3-9.2,3.3c-3.8,0-6.7-1.1-8.8-3.4c-2-2.2-3.1-5.3-3.1-9c0-2.4,0.4-4.5,1.3-6.4
		c0.9-1.9,2.1-3.4,3.8-4.5c1.7-1.1,3.6-1.7,5.9-1.7c3.4,0,6.1,1.1,8,3.2c1.9,2.1,2.9,5.1,2.9,8.9
		C484.3,694.1,484.3,694.9,484.2,695.6z M477.4,691.1c-0.1-3.6-1.3-5.4-3.8-5.4c-1.2,0-2.1,0.4-2.8,1.3s-1.1,2.3-1.2,4.4h7.8V691.1z
		"/>
	<path class="st1" d="M518.7,682.9c1.1,1.3,1.7,3,1.7,5.2v17.2h-7v-16c0-2.1-0.7-3.1-2-3.1c-0.7,0-1.4,0.3-1.9,0.8
		c-0.6,0.5-1.1,1.3-1.6,2.3v16.1h-7v-16c0-2.1-0.7-3.1-2-3.1c-0.7,0-1.4,0.3-1.9,0.8c-0.6,0.5-1.1,1.3-1.7,2.3v16.1h-7v-23.5h6.1
		l0.5,2.7c0.9-1.2,1.9-2.1,3-2.6c1.1-0.6,2.4-0.9,3.8-0.9c1.3,0,2.5,0.3,3.4,1c1,0.6,1.7,1.6,2.1,2.7c0.9-1.3,2-2.2,3.1-2.8
		c1.1-0.6,2.4-0.9,3.9-0.9C516.1,681,517.6,681.7,518.7,682.9z"/>
	<path class="st1" d="M545.5,705.3h-6.1l-0.3-3c-1.7,2.5-4.1,3.7-7.1,3.7c-2.2,0-3.8-0.6-4.9-1.9c-1.1-1.3-1.7-3.1-1.7-5.4v-16.9h7
		v16c0,1.2,0.2,2,0.6,2.4c0.4,0.5,0.9,0.7,1.7,0.7c1.5,0,2.7-0.9,3.8-2.7v-16.3h7V705.3z"/>
	<path class="st1" d="M566.1,681.4l-1.1,6.8c-0.9-0.2-1.6-0.3-2.1-0.3c-1.4,0-2.4,0.5-3.2,1.4c-0.7,1-1.3,2.4-1.7,4.3v11.6h-7v-23.5
		h6.1l0.6,4.6c0.5-1.6,1.3-2.9,2.4-3.8s2.3-1.4,3.7-1.4C564.6,681.1,565.4,681.2,566.1,681.4z"/>
	<path class="st1" d="M586.3,700.4c0.2,0.4,0.7,0.7,1.2,0.9l-1.5,4.6c-1.4-0.1-2.6-0.4-3.5-1c-0.9-0.5-1.6-1.3-2.1-2.5
		c-1.5,2.4-3.9,3.5-7.1,3.5c-2.3,0-4.2-0.7-5.6-2c-1.4-1.4-2.1-3.1-2.1-5.3c0-2.6,0.9-4.5,2.8-5.9c1.9-1.4,4.6-2,8.2-2h2.4v-1
		c0-1.4-0.3-2.3-0.9-2.9c-0.6-0.5-1.6-0.8-3.1-0.8c-0.8,0-1.7,0.1-2.8,0.3c-1.1,0.2-2.2,0.5-3.4,0.9l-1.6-4.6c1.5-0.6,3-1,4.5-1.3
		c1.5-0.3,3-0.4,4.3-0.4c3.4,0,5.8,0.7,7.4,2.1c1.6,1.4,2.3,3.5,2.3,6.2v9.1C585.9,699.4,586,700,586.3,700.4z M579,698.8v-4.2h-1.7
		c-1.6,0-2.8,0.3-3.6,0.8c-0.8,0.6-1.2,1.4-1.2,2.6c0,0.9,0.2,1.7,0.7,2.2c0.5,0.5,1.2,0.8,2,0.8C576.9,701.1,578.1,700.3,579,698.8
		z"/>
	<path class="st1" d="M600,677.6c-0.4,0.5-0.7,1.3-0.7,2.4v1.8h5.5l-0.8,4.9h-4.8v18.6h-7v-18.6h-3.5v-4.9h3.5v-2.1
		c0-2.4,0.8-4.3,2.3-5.8c1.5-1.5,3.8-2.2,6.7-2.2c2.3,0,4.5,0.5,6.4,1.5l-1.9,4.6c-1.2-0.6-2.4-0.9-3.7-0.9
		C601.2,676.9,600.5,677.1,600,677.6z"/>
	<path class="st1" d="M627.1,695.6h-14.6c0.2,2,0.8,3.4,1.7,4.2c0.9,0.8,2.1,1.2,3.7,1.2c0.9,0,1.9-0.2,2.7-0.5
		c0.9-0.3,1.8-0.9,2.9-1.6l2.9,3.9c-2.7,2.2-5.8,3.3-9.2,3.3c-3.8,0-6.7-1.1-8.8-3.4c-2-2.2-3.1-5.3-3.1-9c0-2.4,0.4-4.5,1.3-6.4
		c0.9-1.9,2.1-3.4,3.8-4.5c1.7-1.1,3.6-1.7,5.9-1.7c3.4,0,6.1,1.1,8,3.2c1.9,2.1,2.9,5.1,2.9,8.9
		C627.3,694.1,627.2,694.9,627.1,695.6z M620.4,691.1c-0.1-3.6-1.3-5.4-3.8-5.4c-1.2,0-2.1,0.4-2.8,1.3s-1.1,2.3-1.2,4.4h7.8V691.1z
		"/>
	<path class="st1" d="M649.8,682.9c1.2,1.2,1.7,3,1.7,5.2v17.2h-7v-16c0-1.2-0.2-2-0.6-2.5c-0.4-0.5-0.9-0.7-1.7-0.7
		c-1.4,0-2.8,1-4.1,3.1v16.1h-7v-23.5h6.1l0.5,2.8c1-1.2,2.1-2.1,3.3-2.7c1.2-0.6,2.5-0.9,3.9-0.9C647,681,648.6,681.7,649.8,682.9z
		"/>
	<path class="st1" d="M663.2,670.5c0.8,0.8,1.2,1.7,1.2,2.9c0,1.2-0.4,2.1-1.2,2.9c-0.8,0.8-1.8,1.1-3,1.1c-1.2,0-2.2-0.4-3-1.1
		c-0.8-0.8-1.2-1.7-1.2-2.9c0-1.2,0.4-2.1,1.2-2.9c0.8-0.8,1.8-1.1,3-1.1C661.4,669.4,662.4,669.8,663.2,670.5z M663.8,681.8v23.5
		h-7v-23.5H663.8z"/>
	<path class="st1" d="M689,684.3c1.5,2.2,2.3,5.3,2.3,9.2c0,2.4-0.4,4.6-1.1,6.5s-1.8,3.4-3.2,4.4c-1.4,1.1-3.1,1.6-5,1.6
		c-1.3,0-2.4-0.3-3.5-0.8s-1.9-1.3-2.7-2.2l-0.4,2.3h-6.2v-32.9l7-0.8v12.5c0.7-1,1.6-1.7,2.7-2.3s2.3-0.8,3.6-0.8
		C685.4,681,687.5,682.1,689,684.3z M684,693.6c0-2.8-0.3-4.7-1-5.8c-0.6-1.1-1.6-1.6-2.8-1.6c-1.6,0-2.9,0.9-4,2.7v9.8
		c0.4,0.7,1,1.3,1.6,1.7c0.6,0.4,1.3,0.6,2.1,0.6C682.7,701,684,698.5,684,693.6z"/>
</g>
<rect x="52.9" y="5.2" class="st2" width="683.9" height="725.6"/>
<line class="st2" x1="52.9" y1="427.9" x2="737.1" y2="427.9"/>
<line class="st2" x1="52.9" y1="503.9" x2="737.1" y2="503.9"/>
<line class="st2" x1="52.9" y1="579.5" x2="737.1" y2="579.5"/>
<line class="st2" x1="52.9" y1="655.2" x2="737.1" y2="655.2"/>
<g>
	<path class="st3" d="M430.9,221.2c14.2-9.6,28.2-21.8,39.7-39.8c19.2-30.4,28-72.3,28-131.9h-30.1c0,52.9-7.7,90.8-23.4,115.9
		c-11.6,18.4-26.8,28.8-43.2,38.6c-16.4-9.8-31.4-20.1-43.2-38.6c-15.9-25.1-23.4-62.9-23.4-115.9h-29.9c0,59.4,8.9,101.5,28,131.9
		c11.4,18.1,25.6,30.3,39.7,39.8c-14.6,9.6-28.6,21.6-40.2,39.8c-18.8,29.5-27.5,70.3-27.5,127.8h30.1c0-50.9,7.4-87.6,22.9-111.8
		c11.6-18.3,26.9-28.6,43.5-38.6c16.6,9.8,31.9,20.1,43.5,38.6c15.5,24.2,22.9,60.9,22.9,111.8h30.1c0-57.7-8.9-98.3-27.5-127.8
		C459.5,242.8,445.5,231,430.9,221.2z"/>
	<polygon class="st4" points="292.3,86 279.2,77.9 279.2,91 266.3,91 274.1,104.1 266.3,117 279.2,117 279.2,130.1 292.3,122.2 
		305.2,130.1 305.2,117 318.3,117 310.4,104.1 318.3,91 305.2,91 305.2,77.9 	"/>
</g>
</svg>
