<?xml version="1.0" encoding="utf-8"?>
<!-- Generator: Adobe Illustrator 24.1.0, SVG Export Plug-In . SVG Version: 6.00 Build 0)  -->
<svg version="1.1" id="Capa_1" xmlns="http://www.w3.org/2000/svg" xmlns:xlink="http://www.w3.org/1999/xlink" x="0px" y="0px"
	 viewBox="0 0 1078.9 650" style="enable-background:new 0 0 1078.9 650;" xml:space="preserve">
<style type="text/css">
	.st0{fill:#EFEFEF;}
	.st1{fill:#CC9933;}
	.st2{font-family:'FiraSans-Light';}
	.st3{font-size:36px;}
	.st4{font-family:'FiraSans-Bold';}
	.st5{fill:#FA7F43;}
	.st6{fill:#005372;}
	.st7{fill:#DCDEE0;}
	.st8{fill:#ABAFB2;}
	.st9{fill:#136F8C;}
	.st10{fill:#4D4D4D;}
	.st11{fill:#939393;}
	.st12{fill:#333333;}
	.st13{opacity:0.4;}
	.st14{fill:#FFFFFF;}
	.st15{fill:#CCCC66;}
	.st16{fill:#B2AF34;}
	.st17{fill:#E55D28;}
	.st18{fill:none;stroke:#005372;stroke-miterlimit:10;}
	.st19{fill:none;stroke:#FA7F43;stroke-miterlimit:10;}
	.st20{fill:none;stroke:#CCCC66;stroke-miterlimit:10;}
</style>
<path class="st0" d="M393.3,183c-0.4,7.1-0.6,14.1-1.1,21.2c-1.5,21.4,1.5,42.4,3.5,63.6c1.7,17.2,0.3,34.8-0.1,52.2
	c-0.4,16-2.1,31.9-5.9,47.6c-0.8,3.4-0.3,7.1-0.3,10.7c0,14.9-0.2,29.9,0.1,44.8c0.1,9.9,0.9,19.9,1.2,29.8
	c0.5,18.5-2.2,36.6-6.3,54.5c-2,8.8-1.4,17.1,3,25.3c3.1,5.7,5.3,11.9,7.8,17.9c4,9.6-3.6,14.5-11.4,15.2c-0.6,0.1-1.2-0.3-1.8-0.3
	c-2.6,0.1-6.4,1.5-7.6,0.3c-2.8-2.8-5.4-6.6-6.3-10.5c-1.5-6.3-1.6-12.9-5.4-18.6c-0.9-1.4-0.8-3.7-0.5-5.4
	c2.9-19.3,1.7-38.3-3.7-57.2c-3.6-12.5-2-25.4-0.9-38c1.2-12.8,0.7-25.3-1.7-38c-2.3-12.2-2.2-24.7-3-37.2
	c-1-16.1-1.9-32.3-2.9-48.4c-0.1-0.8-0.5-1.7-1.8-2.5c-0.3,1.5-0.8,3-0.9,4.5c-1.2,20.6-2.2,41.3-3.7,61.9
	c-0.7,9.9-2.7,19.7-3.5,29.5c-0.7,8.9-0.6,18-0.6,26.9c0,11.9,0.9,23.9,0.2,35.8c-0.4,7.3-3.1,14.5-4.6,21.8
	c-2.6,12.8-1.6,25.6-0.3,38.5c0.4,3.4-1,7.1-1.8,10.6c-1,4.4-2.1,8.7-3.3,13c-1,3.4-2,6.8-3.6,9.9c-2,3.8-4.8,5.3-9.7,3.5
	c-3.8-1.4-8.2-0.7-11.9-3.7c-2.8-2.3-4.3-4.6-3.3-7.8c1.7-5.5,3.1-11.2,6-16c7.8-12.7,7.6-25.7,4.2-39.5
	c-5.6-22.6-5.5-45.6-3.9-68.6c0.6-8.1,0.4-16.2,0.4-24.3c0.1-8.9,0.5-17.8-0.1-26.6c-0.6-9.1-2.4-18.1-3.4-27.1
	c-1.1-10.7-2.5-21.3-2.8-32c-0.5-18.6-0.7-37.3-0.1-56c0.3-10,3.3-20,3.5-30c0.4-16.5-0.5-33-0.9-49.5c0-0.7-0.5-1.4-1.8-2.3
	c-0.9,2.3-2.1,4.6-2.6,7c-2.9,12.7-5.4,25.4-8.6,38c-1.6,6.3-4.2,12.3-6.7,18.3c-4.5,10.9-9.2,21.7-13.8,32.6
	c-0.5,1.3-0.9,2.6-1.2,4c-2.5,11.1-4.9,22.3-7.5,33.4c-0.4,1.8-1.3,3.6-2,5.4c-0.6-0.1-1.2-0.2-1.8-0.3c0.4-5.1,0.8-10.2,1.2-15.3
	c-4.7,5.8-2.9,14-7.9,19.5c-0.6-0.1-1.3-0.3-1.9-0.4c1.3-6.2,2.5-12.4,3.8-18.6c-0.4-0.1-0.8-0.2-1.2-0.3c-2.5,7-5,14-7.5,21
	c-0.6-0.2-1.3-0.4-1.9-0.6c-0.7-8,4.7-14.8,4.2-23c-3,5.9-6.1,11.8-9.1,17.7c-0.7-0.3-1.4-0.6-2-0.8c0.4-1.8,0.6-3.6,1.3-5.3
	c2.3-6.1,4.8-12.1,6.9-18.3c0.5-1.4-0.2-3.2-0.3-4.7c-1.5,0.5-3.2,0.6-4.4,1.5c-4.9,3.4-6.7,3.7-10.3,1.2c6.2-4.8,12-10.1,18.5-14.3
	c4.2-2.7,6.4-5.9,7.3-10.6c3.3-18.9,5.7-38.2,10.6-56.7c3.8-14.2,7.7-28.4,10.2-42.9c1.3-7.8,1.2-15.8,1.5-23.7
	c0.6-17.5,9.1-27.2,26.2-30.2c8.7-1.5,16.9-4.1,23.9-9.7c5.2-4.1,6.9-15.1,4.2-21.2c-3.7-8.2-10.5-15.4-9.4-25.5
	c0.2-2.1-0.9-4.6,2.2-5.9c0.6-0.3,0.4-2.8,0.4-4.3c-0.3-20.4,16.9-31.8,35.6-23.5c8.3,3.7,11.8,10.4,12.6,19.2
	c0.3,3.5-1.7,7.2,2.3,10.5c2.5,2-1.2,17.1-3.9,19.8c-4.9,4.8-8.1,19.9-5.3,26c0.9,1.9,2.6,3.5,4.2,4.8c7.2,5.9,15.7,8.6,24.8,9.9
	c15.3,2.3,25.4,12.7,25.3,28.1c-0.1,17.6,2.8,34.7,6.8,51.6c2.7,11.3,6.8,22.2,9.2,33.6c2.8,13.2,4.5,26.6,6.5,40
	c0.8,4.9,2.8,8.5,7.5,10.9c3.8,2,6.8,5.4,10.2,8.1c2.6,2,5.4,3.9,9.4,6.7c-2.9,0.4-4.6,1-6.1,0.7c-1.7-0.3-3.3-1.5-5-2.2
	c-1.6-0.7-3.2-1.2-4.9-1.8c0,1.9-0.6,3.9,0,5.6c1.8,5.6,4.1,11,6.2,16.6c0.7,1.9,1.3,3.9,1.3,6.2c-6.6-3.6-6.5-11.6-10.7-16.7
	c-0.4,0.1-0.8,0.3-1.3,0.4c2.1,7.4,4.2,14.8,6.3,22.2c-0.7,0.2-1.4,0.5-2.1,0.7c-4.8-6-4.5-14.5-9.5-20.5c1.3,6.2,2.6,12.3,3.9,18.5
	c-0.6,0.2-1.1,0.3-1.7,0.5c-5.5-5.1-3.3-13.7-8.2-19.3c0.4,5,0.8,10,1.3,15c-0.6,0.1-1.2,0.3-1.8,0.4c-0.8-2-1.7-4-2.3-6
	c-1.7-5.6-3.3-11.3-4.8-17c-0.8-3.3-1.9-6.6-1.9-10c-0.1-9.6-5.3-17.4-8.5-25.9c-2.2-6-4.9-11.7-7.6-17.5
	c-3.9-8.2-5.9-16.8-7.4-25.8c-2-11.6-5.8-22.8-8.9-34.2c-0.2-0.8-0.9-1.5-1.4-2.2C394.1,182.8,393.7,182.9,393.3,183z"/>
<path class="st0" d="M694,302.5c-4.4,1.8-7.2-0.2-10.1-2.2c-1.1-0.8-2.6-0.9-3.9-1.3c-0.2,1.4-0.8,2.8-0.4,4.1
	c1.6,5.6,3.5,11.1,5.4,16.7c0.6,1.8,1.1,3.6,1.2,5.6c-6.5-3.2-5.4-11.2-10.7-15.3c1.6,6.8,3.2,13.5,4.8,20.3
	c-0.8,0.2-1.6,0.5-2.4,0.7c-2-6.3-4.1-12.7-6.1-19c-0.4,0-0.7,0.1-1.1,0.1c0.8,5.7,1.6,11.3,2.4,17c-0.8,0.2-1.6,0.3-2.4,0.5
	c-1.5-6.1-3.1-12.1-4.6-18.2c-0.4,0-0.8,0.1-1.2,0.1c0.2,4.5,0.5,9,0.7,13.6c-0.5,0.2-0.9,0.3-1.4,0.5c-0.6-1.4-1.7-2.8-1.9-4.3
	c-1.6-10.7-2.4-21.5-4.7-32c-2-8.7-5.8-17-8.6-25.6c-3.7-11.2-8.9-22.4-10.3-33.9c-1.9-16.6-6.8-31.9-12.9-47.1
	c-0.5-1.2-1.2-2.3-3-3.3c-0.8,6.9-1.6,13.8-2.3,20.7c-0.4,4.3-0.7,8.7-1,13c-0.7,12.3,0.3,24,5.4,35.7c8.6,19.4,10.1,39.9,6.9,60.9
	c-3.1,20.7-5.5,41.4-7.9,62.2c-0.5,4.6,0.4,9.3,0.4,14c0.1,14.7-0.9,29.5,0.2,44.1c2.2,27.7-1,54.7-6.6,81.7c-1.5,7.2-1,14.2,2.4,21
	c3.3,6.6,6,13.4,9.1,20c4.4,9.3-3.2,13.7-10.8,14.8c-0.6,0.1-1.3-0.5-1.9-0.5c-2.8,0.1-7,1.5-8.1,0.2c-2.9-3.4-4.9-7.7-6.5-12
	c-2-5.2-3.4-10.7-4.6-16.1c-0.7-3-1-6.4-0.4-9.4c3.3-15.5,2.3-30.9-0.5-46.3c-2.9-15.7-3.6-31.6-2.1-47.5
	c1.2-13.1-0.5-25.9-2.6-38.8c-2.3-14-2.9-28.3-4.1-42.4c-1.1-13.2-2.1-26.3-3.2-39.5c-0.1-1.4-0.6-2.9-1-4.3c-0.4,0-0.9-0.1-1.3-0.1
	c-0.4,2.6-1,5.3-1.2,7.9c-1.6,17.5-2.9,35-4.7,52.4c-1.5,14.1-3.8,28.1-5.3,42.2c-0.6,5.8-0.4,11.7,0,17.6
	c1.4,18.6,1.3,37.1-2.3,55.5c-2.9,14.9-2.8,29.9,0,44.9c0.6,3.2-1,7-1.8,10.4c-1,4.2-2,8.4-3.2,12.5c-1.1,3.6-2.1,7.4-4,10.6
	c-1.9,3.4-4.8,5.1-9.3,2.8c-3.4-1.8-7.6-2.1-11.3-3.5c-4.5-1.6-4.6-5.4-3.5-9.1c1.3-4.1,2.5-8.5,4.8-12c8.9-13.4,9.2-27.6,5.6-42.7
	c-5.8-24.1-6.6-48.6-4.3-73.3c0.7-7.5,0.1-15,0-22.6c-0.1-5.4-1-10.8-0.3-16c1.8-13-1-25.6-2.7-38.4c-2.5-18.9-4.9-37.8-6.2-56.8
	c-1-14.6,1.6-29.2,7.7-42.6c5.4-12,7.2-24.2,6.1-37.1c-1-11.3-1.9-22.6-2.9-33.9c-0.5-0.1-1-0.2-1.5-0.3c-0.9,1.8-1.8,3.5-2.6,5.3
	c-6,14.7-10.2,29.8-12.3,45.7c-1.5,11.6-6.5,22.7-10.2,33.9c-2.2,6.7-4.7,13.2-7,19.8c-0.5,1.6-1.4,3.3-1.1,4.8
	c2.1,12-4.4,22.5-5.4,33.9c-0.1,0.6-0.4,1.2-0.8,1.8c-0.1,0.3-0.5,0.4-1.6,1.1c0-5,0-9.6,0-14.1c-0.3-0.1-0.6-0.2-1-0.3
	c-1.6,6.1-3.2,12.1-4.8,18.2c-0.8-0.2-1.5-0.3-2.3-0.5c0.8-5.6,1.7-11.3,2.5-16.9c-0.4-0.1-0.7-0.2-1.1-0.3c-2,6.3-4,12.7-6,19
	c-0.8-0.3-1.7-0.5-2.5-0.8c1.6-6.7,3.1-13.3,4.7-20c-4.8,4.4-4.6,11.5-9.5,15.5c-0.5-0.2-0.9-0.4-1.4-0.6c0.7-2.3,1.3-4.5,2-6.8
	c1.7-5.2,3.5-10.4,5.1-15.7c0.3-1-0.4-2.4-0.6-3.6c-1.2,0.3-2.7,0.2-3.6,0.9c-3,2.4-6,4.6-10.6,2.4c6-5,11.3-10.1,17.2-14.2
	c4.1-2.8,6.5-6,7.2-10.8c2.9-18.6,5.7-37.3,9-55.9c4.2-23.3,9-46.5,13.4-69.8c0.7-3.4,1.2-6.9,1.3-10.4c0.5-13.5,12.1-23.7,25.2-26
	c8.6-1.5,16.3-4.7,21.8-12c4.1-5.5,4.3-12.8,0.5-18.4c-3.4-5-7.7-9.7-9.7-15.3c-1.9-5-3.2-10.6,0.7-16.4c1.9-2.8,0.3-7.9,1-11.7
	c2.2-12.2,12-18.7,26.1-17.7c12.3,0.9,20.7,9.2,21.4,21.1c0.2,3.9,1.1,7.6,1.9,11.4c1.5,6.6,1,13.9-4.4,20.1
	c-4.3,5-9.6,9.9-8.9,18.1c0.6,7.6,4.9,12.1,10.5,15.4c4.2,2.5,9.1,4.2,13.9,5.2c13.2,2.6,23.8,12.6,26,27.3
	c4.2,28.4,10.4,56.4,15.5,84.7c2.6,14.5,4.6,29,6.6,43.6c1.1,8,2.5,15,11,19.2C684.8,292.6,688.8,297.9,694,302.5z"/>
<path class="st0" d="M225,302.5c-4.4,1.8-7.2-0.2-10.1-2.2c-1.1-0.8-2.6-0.9-3.9-1.3c-0.2,1.4-0.8,2.8-0.4,4.1
	c1.6,5.6,3.5,11.1,5.4,16.7c0.6,1.8,1.1,3.6,1.2,5.6c-6.5-3.2-5.4-11.2-10.7-15.3c1.6,6.8,3.2,13.5,4.8,20.3
	c-0.8,0.2-1.6,0.5-2.4,0.7c-2-6.3-4.1-12.7-6.1-19c-0.4,0-0.7,0.1-1.1,0.1c0.8,5.7,1.6,11.3,2.4,17c-0.8,0.2-1.6,0.3-2.4,0.5
	c-1.5-6.1-3.1-12.1-4.6-18.2c-0.4,0-0.8,0.1-1.2,0.1c0.2,4.5,0.5,9,0.7,13.6c-0.5,0.2-0.9,0.3-1.4,0.5c-0.6-1.4-1.7-2.8-1.9-4.3
	c-1.6-10.7-2.4-21.5-4.7-32c-2-8.7-5.8-17-8.6-25.6c-3.7-11.2-8.9-22.4-10.3-33.9c-1.9-16.6-6.8-31.9-12.9-47.1
	c-0.5-1.2-1.2-2.3-3-3.3c-0.8,6.9-1.6,13.8-2.3,20.7c-0.4,4.3-0.7,8.7-1,13c-0.7,12.3,0.3,24,5.4,35.7c8.6,19.4,10.1,39.9,6.9,60.9
	c-3.1,20.7-5.5,41.4-7.9,62.2c-0.5,4.6,0.4,9.3,0.4,14c0.1,14.7-0.9,29.5,0.2,44.1c2.2,27.7-1,54.7-6.6,81.7c-1.5,7.2-1,14.2,2.4,21
	c3.3,6.6,6,13.4,9.1,20c4.4,9.3-3.2,13.7-10.8,14.8c-0.6,0.1-1.3-0.5-1.9-0.5c-2.8,0.1-7,1.5-8.1,0.2c-2.9-3.4-4.9-7.7-6.5-12
	c-2-5.2-3.4-10.7-4.6-16.1c-0.7-3-1-6.4-0.4-9.4c3.3-15.5,2.3-30.9-0.5-46.3c-2.9-15.7-3.6-31.6-2.1-47.5
	c1.2-13.1-0.5-25.9-2.6-38.8c-2.3-14-2.9-28.3-4.1-42.4c-1.1-13.2-2.1-26.3-3.2-39.5c-0.1-1.4-0.6-2.9-1-4.3c-0.4,0-0.9-0.1-1.3-0.1
	c-0.4,2.6-1,5.3-1.2,7.9c-1.6,17.5-2.9,35-4.7,52.4c-1.5,14.1-3.8,28.1-5.3,42.2c-0.6,5.8-0.4,11.7,0,17.6
	c1.4,18.6,1.3,37.1-2.3,55.5c-2.9,14.9-2.8,29.9,0,44.9c0.6,3.2-1,7-1.8,10.4c-1,4.2-2,8.4-3.2,12.5c-1.1,3.6-2.1,7.4-4,10.6
	c-1.9,3.4-4.8,5.1-9.3,2.8c-3.4-1.8-7.6-2.1-11.3-3.5c-4.5-1.6-4.6-5.4-3.5-9.1c1.3-4.1,2.5-8.5,4.8-12c8.9-13.4,9.2-27.6,5.6-42.7
	c-5.8-24.1-6.6-48.6-4.3-73.3c0.7-7.5,0.1-15,0-22.6c-0.1-5.4-1-10.8-0.3-16c1.8-13-1-25.6-2.7-38.4c-2.5-18.9-4.9-37.8-6.2-56.8
	c-1-14.6,1.6-29.2,7.7-42.6c5.4-12,7.2-24.2,6.1-37.1c-1-11.3-1.9-22.6-2.9-33.9c-0.5-0.1-1-0.2-1.5-0.3c-0.9,1.8-1.8,3.5-2.6,5.3
	c-6,14.7-10.2,29.8-12.3,45.7c-1.5,11.6-6.5,22.7-10.2,33.9c-2.2,6.7-4.7,13.2-7,19.8c-0.5,1.6-1.4,3.3-1.1,4.8
	c2.1,12-4.4,22.5-5.4,33.9c-0.1,0.6-0.4,1.2-0.8,1.8c-0.1,0.3-0.5,0.4-1.6,1.1c0-5,0-9.6,0-14.1c-0.3-0.1-0.6-0.2-1-0.3
	c-1.6,6.1-3.2,12.1-4.8,18.2c-0.8-0.2-1.5-0.3-2.3-0.5c0.8-5.6,1.7-11.3,2.5-16.9c-0.4-0.1-0.7-0.2-1.1-0.3c-2,6.3-4,12.7-6,19
	c-0.8-0.3-1.7-0.5-2.5-0.8c1.6-6.7,3.1-13.3,4.7-20c-4.8,4.4-4.6,11.5-9.5,15.5c-0.5-0.2-0.9-0.4-1.4-0.6c0.7-2.3,1.3-4.5,2-6.8
	c1.7-5.2,3.5-10.4,5.1-15.7c0.3-1-0.4-2.4-0.6-3.6c-1.2,0.3-2.7,0.2-3.6,0.9c-3,2.4-6,4.6-10.6,2.4c6-5,11.3-10.1,17.2-14.2
	c4.1-2.8,6.5-6,7.2-10.8c2.9-18.6,5.7-37.3,9-55.9c4.2-23.3,9-46.5,13.4-69.8c0.7-3.4,1.2-6.9,1.3-10.4c0.5-13.5,12.1-23.7,25.2-26
	c8.6-1.5,16.3-4.7,21.8-12c4.1-5.5,4.3-12.8,0.5-18.4c-3.4-5-7.7-9.7-9.7-15.3c-1.9-5-3.2-10.6,0.7-16.4c1.9-2.8,0.3-7.9,1-11.7
	c2.2-12.2,12-18.7,26.1-17.7c12.3,0.9,20.7,9.2,21.4,21.1c0.2,3.9,1.1,7.6,1.9,11.4c1.5,6.6,1,13.9-4.4,20.1
	c-4.3,5-9.6,9.9-8.9,18.1c0.6,7.6,4.9,12.1,10.5,15.4c4.2,2.5,9.1,4.2,13.9,5.2c13.2,2.6,23.8,12.6,26,27.3
	c4.2,28.4,10.4,56.4,15.5,84.7c2.6,14.5,4.6,29,6.6,43.6c1.1,8,2.5,15,11,19.2C215.8,292.6,219.8,297.9,225,302.5z"/>
<g>
	<text transform="matrix(1 0 0 1 709.2336 585.0873)" class="st1 st2 st3">Teràpia personalitzada</text>
	<text transform="matrix(1 0 0 1 836.9336 631.0873)" class="st1 st4 st3">tipus C</text>
</g>
<g>
	<text transform="matrix(1 0 0 1 709.2336 362.0873)" class="st5 st2 st3">Teràpia personalitzada</text>
	<text transform="matrix(1 0 0 1 836.1336 408.0873)" class="st5 st4 st3">tipus B</text>
</g>
<g>
	<text transform="matrix(1 0 0 1 709.2336 135.0873)" class="st6 st2 st3">Teràpia personalitzada</text>
	<text transform="matrix(1 0 0 1 836.6336 181.0873)" class="st6 st4 st3">tipus A</text>
	<g>
		<path class="st7" d="M863.6,86.4l-19.2,19.2l0.3,0.3l19.2-19.2C863.9,86.5,863.8,86.5,863.6,86.4L863.6,86.4z"/>
		<path class="st8" d="M863.6,86.4c0.1,0.1,0.2,0.2,0.4,0.3c0.8,0.6,1.6,0.4,1.6,0.4l9.6-9.6l-1.3-1.3l-8.7,8.7L863.6,86.4
			L863.6,86.4z"/>
		<polygon class="st7" points="875.1,77.4 881.4,83.8 919.8,45.3 913.6,39 908.2,44.4 913.3,49.5 910.8,51.9 910.8,51.9 881.5,81.2 
			876.4,76.1 875.1,74.8 873.8,76.1 		"/>
		<polygon class="st9" points="876.4,76.1 881.5,81.2 910.8,51.9 904.4,45.5 877.4,72.6 875.1,74.8 		"/>
		<polygon class="st10" points="916.3,36.2 940.3,12.3 946.9,19 949.3,16.5 941.4,8.6 940.4,9.6 939,11 915.1,35 		"/>
		<polygon class="st10" points="910.8,51.9 910.8,51.9 913.3,49.5 908.2,44.4 913.6,39 912.3,37.7 906.9,43.1 905.2,44.7 905,45 
			904.4,45.5 		"/>
		<polygon class="st8" points="913.6,39 919.8,45.3 923.3,48.7 926,46 916.3,36.2 915.1,35 912.7,37.3 912.3,37.7 		"/>
		<path class="st8" d="M863.2,86L844,105.2l0.4,0.4l19.2-19.2C863.5,86.3,863.3,86.1,863.2,86z"/>
		<path class="st11" d="M863.2,86c0.1,0.1,0.2,0.3,0.4,0.4l1.5-1.5l8.7-8.7l-1.3-1.3l-9.6,9.6C863,84.4,862.7,85.1,863.2,86z"/>
		<polygon class="st8" points="872.5,74.8 873.8,76.1 875.1,74.8 873.8,73.5 868.7,68.5 898,39.1 898,39.1 900.5,36.6 905.6,41.7 
			910.9,36.4 904.6,30 866.2,68.5 		"/>
		<polygon class="st6" points="873.8,73.5 875.1,74.8 877.4,72.6 904.4,45.5 898,39.1 868.7,68.5 		"/>
		<polygon class="st12" points="937.7,9.7 913.7,33.6 915.1,35 939,11 940.4,9.6 941.4,8.6 933.4,0.6 931,3 		"/>
		<polygon class="st12" points="898,39.1 904.4,45.5 905,45 905.2,44.7 906.9,43.1 912.3,37.7 910.9,36.4 905.6,41.7 900.5,36.6 		
			"/>
		<polygon class="st11" points="904.6,30 910.9,36.4 912.3,37.7 912.7,37.3 915.1,35 913.7,33.6 903.9,23.8 901.2,26.6 		"/>
		<g class="st13">
			
				<rect x="874" y="66.2" transform="matrix(0.7071 -0.7071 0.7071 0.7071 206.5361 638.806)" class="st14" width="0.8" height="7.7"/>
			
				<rect x="877.1" y="63.2" transform="matrix(0.7071 -0.7071 0.7071 0.7071 209.6127 640.1252)" class="st14" width="0.8" height="7.7"/>
			
				<rect x="880.1" y="60.1" transform="matrix(0.7071 -0.7071 0.7071 0.7071 212.6462 641.3442)" class="st14" width="0.8" height="7.7"/>
			
				<rect x="883.2" y="57" transform="matrix(0.7071 -0.7071 0.7071 0.7071 215.7556 642.593)" class="st14" width="0.8" height="7.7"/>
			
				<rect x="886.2" y="54" transform="matrix(0.7071 -0.7071 0.7071 0.7071 218.7598 643.8827)" class="st14" width="0.8" height="7.7"/>
			
				<rect x="889.3" y="50.9" transform="matrix(0.7071 -0.7071 0.7071 0.7071 221.8657 645.1312)" class="st14" width="0.8" height="7.7"/>
			
				<rect x="892.4" y="47.9" transform="matrix(0.7071 -0.7071 0.7071 0.7071 224.8896 646.4503)" class="st14" width="0.8" height="7.7"/>
			
				<rect x="895.4" y="44.9" transform="matrix(0.7071 -0.7071 0.7071 0.7071 227.923 647.6693)" class="st14" width="0.8" height="7.7"/>
			
				<rect x="898.4" y="41.8" transform="matrix(0.7071 -0.7071 0.7071 0.7071 230.9324 648.9068)" class="st14" width="0.8" height="7.7"/>
		</g>
	</g>
	<g>
		<path class="st7" d="M863.6,535.7l-19.2,19.2l0.3,0.3l19.2-19.2C863.9,535.8,863.8,535.8,863.6,535.7L863.6,535.7z"/>
		<path class="st8" d="M863.6,535.7c0.1,0.1,0.2,0.2,0.4,0.3c0.8,0.6,1.6,0.4,1.6,0.4l9.6-9.6l-1.3-1.3l-8.7,8.7L863.6,535.7
			L863.6,535.7z"/>
		<polygon class="st7" points="875.1,526.7 881.4,533.1 919.8,494.6 913.6,488.3 908.2,493.7 913.3,498.8 910.8,501.2 910.8,501.2 
			881.5,530.5 876.4,525.4 875.1,524.1 873.8,525.4 		"/>
		<polygon class="st15" points="876.4,525.4 881.5,530.5 910.8,501.2 904.4,494.8 877.4,521.9 875.1,524.1 		"/>
		<polygon class="st10" points="916.3,485.5 940.3,461.6 946.9,468.3 949.3,465.8 941.4,457.9 940.4,458.9 939,460.3 915.1,484.3 		
			"/>
		<polygon class="st10" points="910.8,501.2 910.8,501.2 913.3,498.8 908.2,493.7 913.6,488.3 912.3,487 906.9,492.4 905.2,494 
			905,494.3 904.4,494.8 		"/>
		<polygon class="st8" points="913.6,488.3 919.8,494.6 923.3,498 926,495.3 916.3,485.5 915.1,484.3 912.7,486.6 912.3,487 		"/>
		<path class="st8" d="M863.2,535.3L844,554.5l0.4,0.4l19.2-19.2C863.5,535.6,863.3,535.4,863.2,535.3z"/>
		<path class="st11" d="M863.2,535.3c0.1,0.1,0.2,0.3,0.4,0.5l1.5-1.5l8.7-8.7l-1.3-1.4l-9.6,9.6C863,533.7,862.7,534.4,863.2,535.3
			z"/>
		<polygon class="st8" points="872.5,524.1 873.8,525.4 875.1,524.1 873.8,522.8 868.7,517.8 898,488.4 898,488.4 900.5,485.9 
			905.6,491 910.9,485.7 904.6,479.3 866.2,517.8 		"/>
		<polygon class="st16" points="873.8,522.8 875.1,524.1 877.4,521.9 904.4,494.8 898,488.4 868.7,517.8 		"/>
		<polygon class="st12" points="937.7,459 913.7,482.9 915.1,484.3 939,460.3 940.4,458.9 941.4,457.9 933.4,449.9 931,452.3 		"/>
		<polygon class="st12" points="898,488.4 904.4,494.8 905,494.3 905.2,494 906.9,492.4 912.3,487 910.9,485.7 905.6,491 
			900.5,485.9 		"/>
		<polygon class="st11" points="904.6,479.3 910.9,485.7 912.3,487 912.7,486.6 915.1,484.3 913.7,482.9 903.9,473.1 901.2,475.9 		
			"/>
		<g class="st13">
			
				<rect x="874" y="515.5" transform="matrix(0.7071 -0.7071 0.7071 0.7071 -111.1638 770.3998)" class="st14" width="0.8" height="7.7"/>
			
				<rect x="877.1" y="512.5" transform="matrix(0.7071 -0.7071 0.7071 0.7071 -108.0872 771.7191)" class="st14" width="0.8" height="7.7"/>
			
				<rect x="880.1" y="509.4" transform="matrix(0.7071 -0.7071 0.7071 0.7071 -105.0538 772.9374)" class="st14" width="0.8" height="7.7"/>
			
				<rect x="883.2" y="506.3" transform="matrix(0.7071 -0.7071 0.7071 0.7071 -101.9444 774.1875)" class="st14" width="0.8" height="7.7"/>
			
				<rect x="886.2" y="503.3" transform="matrix(0.7071 -0.7071 0.7071 0.7071 -98.9402 775.4766)" class="st14" width="0.8" height="7.7"/>
			
				<rect x="889.3" y="500.2" transform="matrix(0.7071 -0.7071 0.7071 0.7071 -95.8344 776.725)" class="st14" width="0.8" height="7.7"/>
			
				<rect x="892.4" y="497.2" transform="matrix(0.7071 -0.7071 0.7071 0.7071 -92.8104 778.0442)" class="st14" width="0.8" height="7.7"/>
			
				<rect x="895.4" y="494.2" transform="matrix(0.7071 -0.7071 0.7071 0.7071 -89.777 779.2625)" class="st14" width="0.8" height="7.7"/>
			
				<rect x="898.4" y="491.1" transform="matrix(0.7071 -0.7071 0.7071 0.7071 -86.7676 780.5013)" class="st14" width="0.8" height="7.7"/>
		</g>
	</g>
	<g>
		<path class="st7" d="M863.6,312l-19.2,19.2l0.3,0.3l19.2-19.2C863.9,312.1,863.8,312.1,863.6,312L863.6,312z"/>
		<path class="st8" d="M863.6,312c0.1,0.1,0.2,0.2,0.4,0.3c0.8,0.6,1.6,0.4,1.6,0.4l9.6-9.6l-1.3-1.3l-8.7,8.7L863.6,312L863.6,312z
			"/>
		<polygon class="st7" points="875.1,303 881.4,309.4 919.8,270.9 913.6,264.6 908.2,270 913.3,275.1 910.8,277.5 910.8,277.5 
			881.5,306.8 876.4,301.7 875.1,300.4 873.8,301.7 		"/>
		<polygon class="st5" points="876.4,301.7 881.5,306.8 910.8,277.5 904.4,271.1 877.4,298.2 875.1,300.4 		"/>
		<polygon class="st10" points="916.3,261.8 940.3,237.9 946.9,244.6 949.3,242.1 941.4,234.2 940.4,235.2 939,236.6 915.1,260.6 		
			"/>
		<polygon class="st10" points="910.8,277.5 910.8,277.5 913.3,275.1 908.2,270 913.6,264.6 912.3,263.3 906.9,268.7 905.2,270.3 
			905,270.6 904.4,271.1 		"/>
		<polygon class="st8" points="913.6,264.6 919.8,270.9 923.3,274.3 926,271.6 916.3,261.8 915.1,260.6 912.7,262.9 912.3,263.3 		
			"/>
		<path class="st8" d="M863.2,311.6L844,330.8l0.4,0.4l19.2-19.2C863.5,311.9,863.3,311.7,863.2,311.6z"/>
		<path class="st11" d="M863.2,311.6c0.1,0.1,0.2,0.3,0.4,0.5l1.5-1.5l8.7-8.7l-1.3-1.3l-9.6,9.6C863,310,862.7,310.7,863.2,311.6z"
			/>
		<polygon class="st8" points="872.5,300.4 873.8,301.7 875.1,300.4 873.8,299.1 868.7,294.1 898,264.7 898,264.7 900.5,262.2 
			905.6,267.3 910.9,262 904.6,255.6 866.2,294.1 		"/>
		<polygon class="st17" points="873.8,299.1 875.1,300.4 877.4,298.2 904.4,271.1 898,264.7 868.7,294.1 		"/>
		<polygon class="st12" points="937.7,235.3 913.7,259.2 915.1,260.6 939,236.6 940.4,235.2 941.4,234.2 933.4,226.2 931,228.6 		
			"/>
		<polygon class="st12" points="898,264.7 904.4,271.1 905,270.6 905.2,270.3 906.9,268.7 912.3,263.3 910.9,262 905.6,267.3 
			900.5,262.2 		"/>
		<polygon class="st11" points="904.6,255.6 910.9,262 912.3,263.3 912.7,262.9 915.1,260.6 913.7,259.2 903.9,249.4 901.2,252.2 		
			"/>
		<g class="st13">
			
				<rect x="874" y="291.8" transform="matrix(0.7071 -0.7071 0.7071 0.7071 47.0144 704.8812)" class="st14" width="0.8" height="7.7"/>
			
				<rect x="877.1" y="288.8" transform="matrix(0.7071 -0.7071 0.7071 0.7071 50.091 706.2004)" class="st14" width="0.8" height="7.7"/>
			
				<rect x="880.1" y="285.7" transform="matrix(0.7071 -0.7071 0.7071 0.7071 53.1245 707.4191)" class="st14" width="0.8" height="7.7"/>
			
				<rect x="883.2" y="282.6" transform="matrix(0.7071 -0.7071 0.7071 0.7071 56.2339 708.6685)" class="st14" width="0.8" height="7.7"/>
			
				<rect x="886.2" y="279.6" transform="matrix(0.7071 -0.7071 0.7071 0.7071 59.238 709.9579)" class="st14" width="0.8" height="7.7"/>
			
				<rect x="889.3" y="276.5" transform="matrix(0.7071 -0.7071 0.7071 0.7071 62.3439 711.2063)" class="st14" width="0.8" height="7.7"/>
			
				<rect x="892.4" y="273.5" transform="matrix(0.7071 -0.7071 0.7071 0.7071 65.3679 712.5255)" class="st14" width="0.8" height="7.7"/>
			
				<rect x="895.4" y="270.5" transform="matrix(0.7071 -0.7071 0.7071 0.7071 68.4013 713.7443)" class="st14" width="0.8" height="7.7"/>
			
				<rect x="898.4" y="267.4" transform="matrix(0.7071 -0.7071 0.7071 0.7071 71.4107 714.9823)" class="st14" width="0.8" height="7.7"/>
		</g>
	</g>
</g>
<line class="st18" x1="691.6" y1="124.2" x2="149.6" y2="124.2"/>
<line class="st19" x1="691.6" y1="350.2" x2="380.8" y2="350.2"/>
<polyline class="st20" points="691.6,573.2 611,573.2 611.2,543.2 "/>
</svg>
