<?xml version="1.0" encoding="utf-8"?>
<!-- Generator: Adobe Illustrator 24.1.0, SVG Export Plug-In . SVG Version: 6.00 Build 0)  -->
<svg version="1.1" id="Capa_1" xmlns="http://www.w3.org/2000/svg" xmlns:xlink="http://www.w3.org/1999/xlink" x="0px" y="0px"
	 viewBox="0 0 428.5 291.9" style="enable-background:new 0 0 428.5 291.9;" xml:space="preserve">
<style type="text/css">
	.st0{fill:#FFFFFF;}
	.st1{fill:#F0F7F6;}
	.st2{fill:none;}
	.st3{fill:#D4ECEA;}
	.st4{fill:#777876;}
	.st5{fill:#F69B17;}
</style>
<g id="Capa_1_1_">
</g>
<g id="Capa_2_1_">
</g>
<g>
	<rect x="55.1" y="18.5" class="st0" width="318.7" height="199.2"/>
	<g>
		<g>
			<path class="st1" d="M380.6,230H48.9c-2.2,0-4.3,0.8-6,2.5L9.5,263.9c-6.9,6.5-2.9,14.1,6,14.1H414c8.9,0,12.9-7.6,6-14.1
				l-33.4-31.4C384.9,230.8,382.8,230,380.6,230z"/>
			<g>
				<rect x="67.3" y="31" class="st2" width="294.3" height="169.2"/>
				<path class="st1" d="M374.5,5.9H55c-5.3,0-9.5,4.2-9.5,9.5v4.5c0-5.3,4.2-9.5,9.5-9.5h319.5c5.3,0,9.5,4.2,9.5,9.5v-4.5
					C384,10.1,379.7,5.9,374.5,5.9z"/>
			</g>
			<path class="st3" d="M414,269.8H15.5c-3.2,0-5.8-1.7-7.5-4.2c-4.7,6.8-0.7,12.4,7.5,12.4H414c8.2,0,12.2-5.6,7.5-12.4
				C419.8,268.1,417.2,269.8,414,269.8z"/>
			<path class="st3" d="M55,10.3c-5.3,0-9.5,4.2-9.5,9.5v196.5c0,5.3,4.2,9.5,9.5,9.5h319.5c5.3,0,9.5-4.2,9.5-9.5V19.8
				c0-5.3-4.2-9.5-9.5-9.5L55,10.3L55,10.3z M373.7,216.8H55.2V18.9h318.6V216.8z"/>
		</g>
	</g>
</g>
<g>
	<g>
		<path class="st4" d="M175.2,130.1c0,0.6-0.2,0.9-0.5,0.9c-0.9,0-2-0.1-3.4-0.2c-1.6-0.1-2.9-0.2-4-0.2c-1.1,0-2.4,0.1-3.9,0.2
			c-1.4,0.1-2.5,0.2-3.4,0.2c-0.4,0-0.5-0.3-0.5-0.9c0-0.6,0.2-0.8,0.5-0.9c1.9-0.2,3.1-0.7,3.6-1.4s0.8-2.1,0.8-4.2v-12.2
			c0-1.8-0.2-2.9-0.7-3.5c-0.4-0.6-1.4-0.9-2.9-1.1c-0.4,0-0.5-0.3-0.5-0.9c0-0.5,0.2-0.8,0.5-0.8c2.3-0.6,4.2-1.2,5.6-1.9
			c1.5-0.7,2.4-1.2,2.7-1.7c0.2-0.3,0.5-0.4,0.7-0.4c0.6,0,0.9,0.2,0.9,0.5c-0.4,4.9-0.5,8.8-0.5,11.5v10.4c0,2.2,0.3,3.6,0.8,4.2
			c0.5,0.6,1.8,1.1,3.7,1.4C175.1,129.4,175.2,129.6,175.2,130.1z M170.7,90.2c0,0.9-0.3,1.7-1,2.4c-0.7,0.7-1.5,1-2.4,1
			c-0.9,0-1.7-0.3-2.4-1c-0.7-0.7-1-1.5-1-2.4c0-1,0.3-1.8,1-2.5c0.7-0.7,1.5-1,2.4-1c0.9,0,1.7,0.3,2.4,1
			C170.4,88.3,170.7,89.2,170.7,90.2z"/>
		<path class="st4" d="M201.9,130.4c0,0.4-0.1,0.7-0.4,0.7c-0.6,0-1.4,0-2.3-0.1c-1-0.1-1.9-0.1-2.7-0.1s-1.7,0-2.7,0.1
			c-0.9,0.1-1.7,0.1-2.3,0.1c-0.3,0-0.4-0.2-0.4-0.7c0-0.4,0.1-0.6,0.4-0.6c1.1-0.1,1.8-0.4,2.1-0.9c0.3-0.5,0.5-1.5,0.5-3.1v-8
			c0-1.8-0.3-3.1-1-3.9s-1.8-1.2-3.2-1.2c-0.9,0-1.7,0.2-2.4,0.5c-0.7,0.4-1.5,1-2.3,1.9v10.8c0,1.6,0.2,2.6,0.5,3.1
			s1.1,0.8,2.1,0.9c0.3,0,0.4,0.2,0.4,0.6c0,0.4-0.1,0.7-0.4,0.7c-0.6,0-1.4,0-2.4-0.1c-1-0.1-1.9-0.1-2.7-0.1s-1.6,0-2.7,0.1
			c-0.9,0.1-1.7,0.1-2.4,0.1c-0.3,0-0.4-0.2-0.4-0.7c0-0.4,0.1-0.6,0.4-0.6c1.4-0.2,2.2-0.5,2.6-1c0.4-0.5,0.6-1.5,0.6-3v-8.8
			c0-1.3-0.2-2.1-0.5-2.5s-1-0.7-2.2-0.8c-0.3,0-0.4-0.2-0.4-0.6s0.1-0.6,0.4-0.6c1.6-0.4,2.9-0.8,3.9-1.4c1-0.5,1.7-0.9,2-1.2
			c0.2-0.2,0.3-0.3,0.5-0.3c0.4,0,0.7,0.1,0.7,0.4l-0.2,3c2.3-2.1,4.4-3.2,6.3-3.2c2.1,0,3.8,0.6,5,1.9c1.2,1.2,1.8,2.9,1.8,5v9.1
			c0,1.6,0.2,2.6,0.6,3.1s1.3,0.8,2.6,1C201.8,129.6,201.9,129.9,201.9,130.4z"/>
		<path class="st4" d="M218.4,112c0,0.9-0.2,1.3-0.6,1.3l-7.1-0.2v11.5c0,3,1.1,4.5,3.2,4.5c1.3,0,2.5-0.3,3.6-0.9
			c0.1,0,0.2,0.1,0.3,0.3c0.1,0.2,0.2,0.3,0.2,0.5c0,0.4-0.6,0.9-1.8,1.6s-2.5,1-4,1c-1.8,0-3.2-0.6-4.3-1.7
			c-1.1-1.1-1.6-2.6-1.6-4.4v-0.2l0.1-11.6c0-0.4-0.2-0.7-0.6-0.7H204c-0.3,0-0.5-0.2-0.5-0.6c0-0.3,0.1-0.5,0.4-0.7
			c2.2-1.3,4.1-3.2,5.7-5.5c0.2-0.3,0.4-0.4,0.7-0.4c0.4,0,0.7,0.1,0.7,0.4l-0.2,4.6h7C218.2,110.7,218.4,111.1,218.4,112z"/>
		<path class="st4" d="M256.1,115.5c0,4.9-1.6,8.9-4.7,12.1c-3.2,3.2-7.2,4.7-12.2,4.7s-9.1-1.6-12.3-4.7c-3.2-3.2-4.7-7.2-4.7-12
			c0-4.9,1.6-9,4.8-12.3c3.2-3.3,7.3-4.9,12.2-4.9c5,0,9.1,1.6,12.2,4.9C254.6,106.3,256.1,110.5,256.1,115.5z M248.8,115.4
			c0-4.5-0.9-8.1-2.6-10.8c-1.7-2.7-4.1-4-7.1-4s-5.3,1.4-7,4c-1.7,2.7-2.6,6.3-2.6,10.7s0.8,8,2.6,10.6c1.7,2.6,4.1,3.9,7.1,3.9
			s5.4-1.3,7.1-3.9C247.9,123.5,248.8,119.9,248.8,115.4z"/>
		<path class="st4" d="M295.2,102.3c0,1.4-0.3,2.1-1,2.1l-4.9-0.2c0.6,1.5,0.8,3,0.8,4.5c0,3.7-1.3,6.8-4,9.3
			c-2.7,2.5-6,3.7-9.9,3.7h-1.5c-2,0-3.6,0.3-4.8,0.8c-1.2,0.5-1.8,1.2-1.8,1.9c0,0.9,0.5,1.6,1.5,2.2s2.4,0.9,4.2,0.9l8.9,0.1
			c3.8,0.1,6.8,0.9,8.9,2.4s3.2,3.7,3.2,6.5c0,4.2-2.2,7.8-6.7,10.9c-4.5,3.1-9.8,4.7-15.9,4.7c-4,0-7.4-1-10.2-3
			c-2.8-2-4.1-4.4-4.1-7.2c0-1.9,0.9-3.8,2.6-5.6c1.7-1.8,3.8-3.1,6.2-4c-1.6-0.7-2.9-1.7-3.9-3.1c-1-1.3-1.5-2.7-1.5-4
			c0-0.9,0.9-1.9,2.8-3s3.8-1.8,5.8-2.1c-2.2-1.1-3.9-2.5-5.1-4.3s-1.8-3.8-1.8-6c0-3.6,1.4-6.7,4.1-9.3c2.7-2.7,5.9-4,9.7-4
			c2,0,3.9,0.3,5.9,1c1.9,0.7,3.5,1.6,4.8,2.8l6.9-0.2C295,100.2,295.2,101,295.2,102.3z M290.1,139.4c0-1.8-0.6-3-1.7-3.8
			c-1.2-0.8-3.1-1.2-5.8-1.2l-8.9-0.2c-1.8,0-3.3-0.3-4.7-0.8c-3.1,1.7-4.7,4-4.7,6.8c0,2.5,1.1,4.6,3.2,6.2
			c2.1,1.6,4.8,2.4,8.1,2.4c3.9,0,7.3-0.9,10.2-2.7C288.6,144.2,290.1,142.1,290.1,139.4z M283.1,108.7c0-3.3-0.5-5.7-1.5-7.3
			c-1-1.5-2.6-2.3-4.8-2.3c-4.2,0-6.3,3.6-6.3,10.8c0,3.3,0.5,5.6,1.5,7.1s2.6,2.2,4.9,2.2C281,119.2,283.1,115.8,283.1,108.7z"/>
		<path class="st4" d="M315.2,117.4c0,0.4-0.3,0.7-0.9,0.7h-13c-0.1,0.9-0.1,1.8-0.1,2.7c0,2.6,0.6,4.5,1.8,5.9
			c1.2,1.4,2.9,2.1,5.2,2.1c1.1,0,2.2-0.3,3.4-0.9c1.1-0.6,2.1-1.4,2.7-2.3h0.1c0.1,0,0.3,0.1,0.4,0.3c0.1,0.2,0.2,0.4,0.2,0.6
			c0,0.3-0.5,1-1.5,2.1c-1,1.1-2.1,1.9-3.3,2.4c-1.2,0.5-2.4,0.8-3.7,0.8c-2.8,0-5.2-1.1-7.2-3.2c-1.9-2.1-2.9-4.7-2.9-7.8
			s1-5.8,2.9-7.9c1.9-2.2,4.3-3.3,7.2-3.3c2.4,0,4.5,0.8,6.2,2.4C314.4,113.5,315.2,115.5,315.2,117.4z M311,115.2
			c0-1.2-0.4-2.2-1.2-3c-0.8-0.8-1.9-1.2-3.1-1.2c-1.2,0-2.3,0.5-3.2,1.5s-1.5,2.4-1.8,4.1l6.6-0.2c1,0,1.7-0.1,2.1-0.3
			C310.6,116.1,311,115.8,311,115.2z"/>
		<path class="st4" d="M342.6,130.4c0,0.4-0.1,0.7-0.4,0.7c-0.6,0-1.4,0-2.3-0.1c-1-0.1-1.9-0.1-2.7-0.1s-1.7,0-2.7,0.1
			c-0.9,0.1-1.7,0.1-2.3,0.1c-0.3,0-0.4-0.2-0.4-0.7c0-0.4,0.1-0.6,0.4-0.6c1.1-0.1,1.8-0.4,2.1-0.9s0.5-1.5,0.5-3.1v-8
			c0-1.8-0.3-3.1-1-3.9s-1.8-1.2-3.2-1.2c-0.9,0-1.7,0.2-2.4,0.5c-0.7,0.4-1.5,1-2.3,1.9v10.8c0,1.6,0.2,2.6,0.5,3.1
			s1.1,0.8,2.1,0.9c0.3,0,0.4,0.2,0.4,0.6c0,0.4-0.1,0.7-0.4,0.7c-0.6,0-1.4,0-2.4-0.1c-1-0.1-1.9-0.1-2.7-0.1c-0.8,0-1.6,0-2.7,0.1
			c-0.9,0.1-1.7,0.1-2.4,0.1c-0.3,0-0.4-0.2-0.4-0.7c0-0.4,0.1-0.6,0.4-0.6c1.4-0.2,2.2-0.5,2.6-1s0.6-1.5,0.6-3v-8.8
			c0-1.3-0.2-2.1-0.5-2.5c-0.3-0.4-1-0.7-2.2-0.8c-0.3,0-0.4-0.2-0.4-0.6s0.1-0.6,0.4-0.6c1.6-0.4,2.9-0.8,3.9-1.4
			c1-0.5,1.7-0.9,2-1.2c0.2-0.2,0.3-0.3,0.5-0.3c0.4,0,0.7,0.1,0.7,0.4l-0.2,3c2.3-2.1,4.4-3.2,6.3-3.2c2.1,0,3.8,0.6,5,1.9
			c1.2,1.2,1.8,2.9,1.8,5v9.1c0,1.6,0.2,2.6,0.6,3.1s1.3,0.8,2.6,1C342.5,129.6,342.6,129.9,342.6,130.4z"/>
	</g>
	<g>
		<path class="st5" d="M140.6,108.8c-4.5,4.3-9.6,6.3-15.4,6s-11-2.8-15.5-7.6c-4.6-4.8-6.8-10.1-6.8-15.9s2.3-10.8,6.8-15.1
			c4.5-4.3,9.8-6.4,15.7-6.2c5.9,0.2,11.2,2.7,15.7,7.4c4.6,4.8,6.8,10.1,6.6,16C147.4,99.2,145.2,104.3,140.6,108.8z M133.9,101.6
			c4.1-3.9,6.7-7.9,7.6-11.9c0.9-4,0-7.4-2.7-10.3c-2.7-2.8-6.1-3.9-10.2-3.2c-4.1,0.7-8.1,3-12.3,6.9c-4.1,3.9-6.6,7.8-7.4,11.7
			c-0.9,3.9,0.1,7.3,2.8,10.2c2.8,2.9,6.1,4,10,3.4C125.8,107.8,129.8,105.6,133.9,101.6z"/>
		<path class="st5" d="M122.2,61.5c0,1.2-0.4,2.3-1.3,3.2c-0.9,0.9-2,1.4-3.2,1.4c-1.3,0-2.3-0.5-3.2-1.4c-0.9-0.9-1.3-2-1.3-3.2
			c0-1.3,0.4-2.4,1.3-3.3s2-1.3,3.3-1.3c1.3,0,2.3,0.4,3.2,1.3C121.7,59.2,122.2,60.2,122.2,61.5z"/>
		<path class="st5" d="M115.6,165.2c-1.7-1.2-3.1-2.7-4.2-4.4c-2.6-4.1-3.2-8.6-1.8-13.4s4.4-8.6,9-11.5l1.8-1.1
			c2.4-1.5,4.1-3,5.1-4.5s1.3-2.7,0.8-3.5c-0.6-1-1.7-1.5-3.3-1.4c-1.6,0.1-3.4,0.8-5.6,2.1l-10.5,6.5c-4.6,2.8-8.6,4.1-12.2,4
			c-3.6-0.1-6.4-1.7-8.3-4.8c-3-4.7-2.9-10.4,0.2-17.2s8.3-12.6,15.5-17.2c4.8-3,9.5-4.5,14.1-4.3c4.7,0.1,8,1.8,10,4.9
			c1.3,2.1,1.6,4.8,0.8,8.2c-0.8,3.3-2.3,6.4-4.5,9.1c2.4-0.4,4.6-0.2,6.7,0.5c2.1,0.7,3.6,1.8,4.6,3.3c0.7,1,0.3,2.8-1.2,5.4
			s-3.3,4.8-5.4,6.7c3.4-0.4,6.4-0.1,9.1,1c2.7,1.1,4.9,2.9,6.4,5.3c2.5,4,3.1,8.4,1.8,13.4c-1.3,5-4.2,8.9-8.6,11.7
			c-2.3,1.5-4.9,2.6-7.7,3.2c-2.8,0.7-5.3,0.8-7.6,0.4L115.6,165.2z M90,126.5c1.3,2,2.8,3,4.8,2.9c1.9,0,4.5-1,7.8-3l10.6-6.4
			c2.1-1.3,4.1-2.2,6.1-2.6c2.5-4.3,2.7-7.9,0.7-11.1c-1.8-2.8-4.5-4.3-8.1-4.5c-3.6-0.2-7.4,1-11.2,3.4c-4.6,2.9-8,6.5-10.2,10.7
			C88.2,120.1,88.1,123.6,90,126.5z M119.9,155.6c2.3,3.7,4.6,6,6.9,7s4.7,0.6,7.3-1c5-3.2,4.9-8.8-0.2-16.8
			c-2.3-3.6-4.6-5.9-6.8-6.8c-2.2-0.9-4.6-0.5-7.3,1.2C114.9,142.2,114.9,147.8,119.9,155.6z"/>
	</g>
</g>
</svg>
