<?xml version="1.0" encoding="utf-8"?>
<!-- Generator: Adobe Illustrator 24.1.0, SVG Export Plug-In . SVG Version: 6.00 Build 0)  -->
<svg version="1.1" id="Capa_1" xmlns="http://www.w3.org/2000/svg" xmlns:xlink="http://www.w3.org/1999/xlink" x="0px" y="0px"
	 viewBox="0 0 302.9 616.7" style="enable-background:new 0 0 302.9 616.7;" xml:space="preserve">
<style type="text/css">
	.st0{opacity:0.5;}
	.st1{fill:#F4F9F9;stroke:#8FB5BC;stroke-miterlimit:10;}
	.st2{opacity:0.25;fill:#8FB5BC;}
	.st3{opacity:0.1;fill:#8FB5BC;}
	.st4{fill:#F4F9F9;}
</style>
<g id="Capa_9">
	<g>
		<g class="st0">
			<g>
				<path class="st1" d="M151.4,10c29.7,1,65.6,4.2,86.4,27.9c4.4,6.1,4.1,12.3,4.1,19.4c-0.4,13.2,0.9,26.6-0.6,39.7
					c-2.5,9.2-11.3,15.6-19.2,19.9c-1.1,0.6-1.8,1.9-1.8,3.2c0,27.8,0,55.6,0,83.4c0,107.7,0,215.3,0,323
					c-1.6,106.8-136,107.3-137.8,0.1c0-96.9,0-193.9,0-290.8c0-38.6,0-77.1,0-115.7c0-1.3-0.7-2.6-1.8-3.2
					c-10.3-5.5-21.3-14.8-19.8-27.7c0-9.7,0-19.4,0-29.2c0-6.5-0.9-13.5,2.4-19.4C82.5,14.1,121.1,11.2,151.4,10"/>
			</g>
			<path class="st2" d="M217,49.8c1.1,30.4-131.1,30.4-130,0C85.9,19.4,218.1,19.4,217,49.8z"/>
		</g>
		<path class="st3" d="M152.4,593.1c-32.5,0-58.9-26.4-58.9-58.9v-326h117V535C210.5,567.1,184.5,593.1,152.4,593.1z"/>
		<path class="st4" d="M210.5,208.7c1.2,24.3-118.4,24.3-117.2,0C92.1,184.4,211.7,184.4,210.5,208.7z"/>
	</g>
</g>
</svg>
