<?xml version="1.0" encoding="utf-8"?>
<!-- Generator: Adobe Illustrator 24.1.0, SVG Export Plug-In . SVG Version: 6.00 Build 0)  -->
<svg version="1.1" id="Capa_1" xmlns="http://www.w3.org/2000/svg" xmlns:xlink="http://www.w3.org/1999/xlink" x="0px" y="0px"
	 viewBox="0 0 721 979" style="enable-background:new 0 0 721 979;" xml:space="preserve">
<style type="text/css">
	.st0{opacity:0.5;}
	.st1{fill:#F4F9F9;stroke:#8FB5BC;stroke-miterlimit:10;}
	.st2{fill:#8FB5BC;}
	.st3{fill:#7D46D3;}
	.st4{fill:#9664D9;}
	.st5{fill:#7F9337;}
	.st6{fill:#91AC41;}
	.st7{opacity:0.8;fill:#FFFFFF;stroke:#000000;stroke-miterlimit:10;enable-background:new    ;}
	.st8{fill:#032836;}
	.st9{font-family:'FiraSans-Bold';}
	.st10{font-size:25px;}
</style>
<g id="Capa_1_1_">
	<g id="Capa_9">
		<g>
			<g class="st0">
				<g>
					<path class="st1" d="M271.5,301.2c11.3,0.4,24.9,1.6,32.8,10.6c1.7,2.3,1.6,4.7,1.6,7.4c-0.2,5,0.4,10.1-0.3,15.1
						c-1,3.5-4.3,6-7.3,7.6c-0.4,0.3-0.7,0.7-0.7,1.2c0,10.5,0,21.2,0,31.7c0,40.9,0,81.8,0,122.8c-0.6,40.6-51.7,40.7-52.3,0
						c0-36.8,0-73.7,0-110.5c0-14.7,0-29.3,0-44c0-0.5-0.3-1-0.7-1.2c-4-2.1-8.1-5.6-7.6-10.5c0-3.7,0-7.4,0-11.1
						c0-2.5-0.4-5.1,0.9-7.4C245.3,302.8,260,301.7,271.5,301.2"/>
				</g>
				<path class="st2" d="M296.4,316.4c0.4,11.6-49.8,11.6-49.4,0C246.6,304.8,296.8,304.8,296.4,316.4z"/>
			</g>
			<path class="st3" d="M271.9,522.8c-12.4,0-22.4-10-22.4-22.4v-85.9h44.4v86.1C294,512.9,284.1,522.8,271.9,522.8z"/>
			<path class="st4" d="M294,414.7c0.4,9.2-45,9.2-44.5,0C248.9,405.5,294.4,405.5,294,414.7z"/>
		</g>
	</g>
	<g id="Capa_14">
	</g>
	<g id="Capa_6">
	</g>
	<g id="Capa_3">
	</g>
</g>
<g id="Capa_1_2_">
	<g id="Capa_9_1_">
		<g>
			<g class="st0">
				<g>
					<path class="st1" d="M350.5,274.9c11.3,0.4,24.9,1.6,32.8,10.6c1.7,2.3,1.6,4.7,1.6,7.4c-0.2,5,0.4,10.1-0.3,15.1
						c-1,3.5-4.3,6-7.3,7.6c-0.4,0.3-0.7,0.7-0.7,1.2c0,10.5,0,21.2,0,31.7c0,40.9,0,81.8,0,122.8c-0.6,40.6-51.7,40.7-52.3,0
						c0-36.8,0-73.7,0-110.5c0-14.7,0-29.3,0-44c0-0.5-0.3-1-0.7-1.2c-4-2.1-8.1-5.6-7.6-10.5c0-3.7,0-7.4,0-11.1
						c0-2.5-0.4-5.1,0.9-7.4C324.4,276.4,339,275.4,350.5,274.9"/>
				</g>
				<path class="st2" d="M375.5,290.1c0.4,11.6-49.8,11.6-49.4,0C325.6,278.5,375.8,278.5,375.5,290.1z"/>
			</g>
			<path class="st5" d="M350.9,496.5c-12.4,0-22.4-10-22.4-22.4v-85.9h44.4v86.1C373,486.6,363.1,496.5,350.9,496.5z"/>
			<path class="st6" d="M373,388.4c0.4,9.2-45,9.2-44.5,0C328,379.2,373.5,379.2,373,388.4z"/>
		</g>
	</g>
	<g id="Capa_14_1_">
	</g>
	<g id="Capa_6_1_">
	</g>
	<g id="Capa_3_1_">
	</g>
</g>
<path class="st7" d="M481.6,252.1H371.2c-3.6,0-6.9,1.5-8.9,4l-6.5,8.1c-4.3,5.4-5.5,5.4-9.9,0l-6.5-8.1c-2-2.5-5.4-4-8.9-4h-101
	c-6,0-7.9-1.2-7.9-6.5v-45.3c0-5.2,1.9-6.5,7.9-6.5h252.2c6,0,7.9,1.2,7.9,6.5v45.3C489.5,250.9,487.6,252.1,481.6,252.1z"/>
<text transform="matrix(1 0 0 1 239.989 231.6182)" class="st8 st9 st10">Mostra del pacient 2</text>
<path class="st7" d="M401.5,552.3H291.1c-3.6,0-6.9-1.5-8.9-4l-6.5-8.1c-4.3-5.4-5.5-5.4-9.9,0l-6.5,8.1c-2,2.5-5.4,4-8.9,4h-101
	c-6,0-7.9,1.2-7.9,6.5v45.3c0,5.2,1.9,6.5,7.9,6.5h252.2c6,0,7.9-1.2,7.9-6.5v-45.3C409.4,553.5,407.5,552.3,401.5,552.3z"/>
<text transform="matrix(1 0 0 1 159.9197 589.8899)" class="st8 st9 st10">Mostra del pacient 1</text>
</svg>
