<?xml version="1.0" encoding="utf-8"?>
<!-- Generator: Adobe Illustrator 24.1.0, SVG Export Plug-In . SVG Version: 6.00 Build 0)  -->
<svg version="1.1" id="Capa_1" xmlns="http://www.w3.org/2000/svg" xmlns:xlink="http://www.w3.org/1999/xlink" x="0px" y="0px"
	 viewBox="0 0 721 979" style="enable-background:new 0 0 721 979;" xml:space="preserve">
<style type="text/css">
	.st0{fill:#BCE2E2;}
	.st1{fill:#D4ECEA;}
	.st2{fill:#ABDDDB;}
	.st3{fill:#FFFFFF;}
	.st4{fill:#F0F7F6;}
	.st5{fill:#CBEBEC;}
	.st6{fill:#B8CCC8;}
	.st7{opacity:0.5;}
	.st8{fill:#F4F9F9;stroke:#8FB5BC;stroke-miterlimit:10;}
	.st9{fill:#8FB5BC;}
	.st10{fill:#CC6633;}
	.st11{fill:#FA7F43;}
	.st12{fill:#2A7FFF;}
	.st13{fill:#FF0000;}
	.st14{fill:#FFD42A;}
	.st15{fill:#2E6D67;}
	.st16{fill:#D1E0DD;}
	.st17{fill:#F4F9F9;}
</style>
<g>
	<g>
		<g>
			<g>
				<g>
					<path class="st0" d="M216.3,489.5c0-0.5,0.1-0.9,0.1-1.4c0-0.3,0.1-1,0.1-1c0.1-0.4,0.1-0.8,0.2-1.2c0.1-0.4,0.2-0.8,0.2-1.1
						c0.1-0.5,0.2-0.9,0.4-1.5c0.1-0.5,0.3-0.9,0.4-1.4c0.1-0.5,0.3-0.9,0.5-1.4c0.4-0.9,0.7-1.8,1.2-2.8c0.1-0.3,0.3-0.5,0.4-0.8
						c1.1-2.2,2.4-4.3,3.9-6.4c0.7-0.9,1.4-1.9,2.2-2.7c0.5-0.6,1.1-1.2,1.6-1.8c1.1-1.2,2.3-2.4,3.6-3.5c0.6-0.6,1.3-1.1,1.9-1.7
						c1.3-1.1,2.7-2.2,4.1-3.2c0.7-0.5,1.3-0.9,2.2-1.5c0.7-0.5,1.4-0.9,2.2-1.5c0.7-0.4,1.3-0.8,2-1.2c0.2-0.1,0.5-0.3,0.7-0.4
						c0.7-0.4,1.3-0.8,2-1.1c2.1-1.2,4.4-2.3,6.7-3.3c0.8-0.4,1.6-0.7,2.4-1.1c0.9-0.4,3.7-1.5,4.2-1.6c1.4-0.5,2.8-1,4.3-1.5
						c0.9-0.3,1.9-0.6,2.9-0.9c0,0,2-0.6,3-0.9c0.5-0.1,2.5-0.7,3-0.8c1-0.2,4.1-1,4.6-1.1s5.1-1,6.2-1.2c1.2-0.2,2.5-0.4,3.7-0.6
						c1.4-0.2,5.4-0.7,5.9-0.8c2.9-0.3,5.8-0.6,8.7-0.7c0.9-0.1,4.1-0.2,4.7-0.2c1,0,2,0,3-0.1c4.3,0,8.6,0.1,12.9,0.4
						c1.4,0.1,5.3,0.5,5.9,0.5c1.8,0.2,3.5,0.4,5.3,0.6c0.7,0.1,3.1,0.5,3.6,0.6c7.5,1.3,14.9,3,21.9,5.4c0.4,0.1,0.8,0.3,1.1,0.4
						c2.3,0.8,4.6,1.7,6.8,2.6c0.7,0.3,1.3,0.5,1.9,0.8c1.3,0.6,2.5,1.2,3.7,1.8c1.9,0.9,3.7,1.9,5.4,2.9c0.5,0.3,0.9,0.5,1.4,0.8
						c7.3,4.4,14,9.9,18.9,16.5c0.4,0.5,0.7,1,1,1.4c3.1,4.6,5.1,9.4,6,14.2c0.2,1,0.3,1.9,0.4,2.9c0,0.5,0.1,1,0.1,1.5s0,1,0,1.5
						s0,0.9,0,1.4c-0.4,7.4-3.2,14.7-8.6,21.4c-9,11.4-23.4,19.3-37.2,24.1c-36.2,12.6-84.2,10.2-116.1-8.1
						c-7.2-4.1-14-9.3-19.2-15.8c-5.6-7-8.4-14.4-8.7-21.8c0-0.4,0-0.8,0-1.1c0-0.5,0-1,0-1.5C216.3,490.2,216.3,489.9,216.3,489.5z
						"/>
					<path class="st1" d="M184.4,497.7c0,0.1,0,0.3,0.1,0.4c0.1,0.4,0.1,0.9,0.2,1.3c0.1,0.4,0.1,0.7,0.2,1.1
						c0.1,0.7,0.3,1.4,0.5,2.1c0.1,0.2,0.1,0.4,0.2,0.7c0.1,0.3,0.2,0.6,0.2,0.9c0.2,0.7,0.4,1.5,0.7,2.2c0.1,0.2,0.1,0.4,0.2,0.6
						c0.1,0.3,0.2,0.6,0.3,0.9c0.2,0.5,0.4,1.1,0.7,1.6c0.3,0.7,0.6,1.4,0.9,2c0.2,0.5,0.5,1,0.8,1.5c0.1,0.2,0.2,0.4,0.4,0.7
						s0.3,0.6,0.5,0.9c0.4,0.7,0.8,1.5,1.3,2.2c0.2,0.3,0.4,0.6,0.6,0.9c0.6,0.9,1.2,1.8,1.9,2.7c0.3,0.4,0.6,0.8,0.9,1.2
						c2.5,3.3,5.6,6.7,9.2,9.9c3.8,3.4,7.9,6.5,12.3,9.4c0-16.3,0.1-51,0.1-51.4c0-0.5,0.1-0.9,0.1-1.4c0-0.3,0.1-1,0.1-1
						c0.1-0.4,0.1-0.8,0.2-1.2c0.1-0.4,0.2-0.8,0.2-1.1c0.1-0.5,0.2-1,0.4-1.4c0.2-0.6,0.3-1,0.5-1.5c0.1-0.5,0.3-0.9,0.5-1.4
						c0.4-0.9,0.7-1.9,1.2-2.8c0.1-0.3,0.3-0.5,0.4-0.8c1.1-2.2,2.4-4.3,3.9-6.4c0.3-0.4,0.7-0.9,1-1.3c0.4-0.5,0.7-0.9,1.1-1.4
						c0.5-0.6,1.1-1.3,1.6-1.8c1.1-1.2,2.3-2.4,3.6-3.5c0.6-0.6,1.3-1.1,1.9-1.7c1.3-1.1,2.7-2.2,4.1-3.2c0.7-0.5,1.3-1,2-1.4
						c0.9-0.6,1.6-1,2.3-1.5c0.8-0.5,1.5-0.9,2.1-1.3c0.2-0.1,0.5-0.3,0.7-0.4c0.7-0.4,1.3-0.8,2-1.1c2.1-1.2,4.4-2.2,6.7-3.3
						c0.8-0.4,1.6-0.7,2.4-1.1c0.9-0.4,3.7-1.5,4.2-1.6c1.4-0.5,2.8-1,4.3-1.5c1-0.3,1.9-0.6,2.9-0.9s5.5-1.5,6-1.7
						c1-0.2,1.9-0.5,2.9-0.7c0.7-0.2,1.2-0.3,1.7-0.4s1-0.2,1.5-0.3c0.5-0.1,1-0.2,1.6-0.3c1-0.2,2-0.4,3.1-0.6
						c1.2-0.2,2.5-0.4,3.7-0.6c1.4-0.2,2.9-0.4,4.4-0.6c0.5-0.1,1-0.1,1.5-0.2c2.9-0.3,5.8-0.6,8.7-0.7c0.9-0.1,4.1-0.2,4.7-0.2
						c1,0,2,0,3-0.1c4.3,0,8.6,0.1,12.9,0.4c1.4,0.1,2.8,0.2,4.1,0.3c0.6,0.1,1.2,0.1,1.8,0.2c1.8,0.2,3.5,0.4,5.3,0.6
						c0.7,0.1,3.1,0.5,3.6,0.6c7.5,1.3,14.9,3,21.9,5.4c0.4,0.1,0.8,0.3,1.1,0.4c2.3,0.8,4.6,1.7,6.8,2.6c0.7,0.3,1.3,0.6,1.9,0.8
						c1.3,0.6,2.5,1.1,3.7,1.8c1.9,0.9,3.7,1.9,5.4,2.9c0.5,0.3,0.9,0.5,1.4,0.8c6.7,4,12.9,8.9,17.7,15c0.4,0.5,0.8,1,1.1,1.5
						c0.3,0.5,0.7,1,1,1.4c3,4.3,5,9.1,6,14.2c0.2,1,0.3,1.9,0.4,2.9c0,0.5,0.1,1,0.1,1.5s0,1,0,1.5c0,0,0,32.5,0,48.8
						c4.3-2.8,8.4-5.8,12.1-9.2c1.8-1.6,3.5-3.3,5-4.9c0.4-0.4,0.8-0.8,1.1-1.2c0.4-0.4,0.7-0.8,1.1-1.2s0.7-0.9,1-1.3
						c0.2-0.3,1.2-1.5,1.3-1.7c0.2-0.2,1.2-1.7,1.6-2.2c0.2-0.3,0.3-0.5,0.5-0.7c0.2-0.4,0.5-0.7,0.7-1.1c0.4-0.7,0.8-1.2,1.1-1.8
						c0.5-0.8,0.8-1.4,1.1-2c0.4-0.7,0.7-1.3,1-1.9c0.3-0.7,0.6-1.2,0.8-1.8c0.1-0.2,0.1-0.3,0.2-0.4c0.4-1,0.8-2,1.1-3
						c0.1-0.3,0.2-0.6,0.3-0.9c0.2-0.6,0.4-1.3,0.6-1.9c0.1-0.4,0.2-0.8,0.3-1.3c0.1-0.6,0.3-1.2,0.4-1.8c0.1-0.4,0.1-0.8,0.2-1.1
						c0.1-0.6,0.2-1.1,0.3-1.7c-2.6-20.2-19-36-36.8-46.3c-58.8-33.9-158.5-26.8-200.3,15.5C192.2,475.5,185.9,485.9,184.4,497.7z"
						/>
					<path class="st2" d="M224.9,515c-5.6-7-8.4-14.4-8.7-21.8c0-0.4,0-0.8,0-1.1c0,16.3,0,32.6,0,48.8c0.7,0.4,1.3,0.9,2,1.3
						c0.5,0.3,2.3,1.4,2.8,1.7c1.7,1,3.2,1.8,4.7,2.6c0.1,0.1,0.3,0.1,0.4,0.2c0.5,0.3,2.2,1.1,2.5,1.2c1.6,0.7,3.1,1.5,4.7,2.2
						c0.5,0.2,4.5,1.9,4.9,2.1c0.5,0.2,0.9,0.4,1.4,0.6c10.3,4,20.9,6.9,31.2,8.9c4.9,0.9,9.9,1.8,15,2.3c0.8,0.1,5.3,0.5,5.5,0.6
						c0.7,0.1,3.9,0.3,4.7,0.4c1.9,0.1,8.3,0.4,9,0.4c15.3,0.5,30.6-0.8,45.2-3.4c0.7-0.1,4.8-1,5.5-1.1
						C373,557,391,550.8,406.1,541c0,0,0-32.6,0-48.8c0,0.5,0,0.9,0,1.4c-0.4,7.4-3.2,14.7-8.6,21.4c-9,11.4-23.4,19.3-37.2,24.1
						c-36.2,12.6-84.2,10.2-116.1-8.1C236.9,526.7,230.1,521.6,224.9,515z"/>
					<path class="st1" d="M126.1,388.1c0.6,0.3,1.2,0.5,2,0.8c0.3,0.1,0.7,0.3,1,0.4c0.4,0.2,0.8,0.3,1.2,0.4s0.8,0.3,1.2,0.4
						s0.8,0.3,1.2,0.4s0.7,0.2,1.1,0.3c0.9,0.2,1.9,0.4,2.9,0.6c1.1,0.2,2.3,0.4,3.4,0.6c0.6,0.1,1.2,0.1,1.7,0.2
						c0.6,0.1,1.2,0.1,1.8,0.1s1.2,0.1,1.8,0.1c0.9,0,1.8,0,2.7,0c0.3,0,0.6,0,0.9,0c0.4,0,0.8,0,1.1-0.1c0.5,0,1-0.1,1.5-0.1
						c0.3,0,0.5,0,0.8-0.1c0.4,0,0.7-0.1,1.1-0.1c0.3,0,0.7-0.1,1-0.1c0.8-0.1,1.6-0.2,2.3-0.3c0.7-0.1,1.4-0.2,2.1-0.3
						c18.6-3.4,37.4-13.8,54.7-28.8c2.3-2,4.5-4,6.7-6.2c16.6-15.8,31.1-35.7,42.5-57c0.6-1.2,1.2-2.3,1.8-3.5
						c1.1-2.2,2.2-4.5,3.3-6.8c0.2-0.3,0.3-0.7,0.5-1c0.3-0.5,0.5-1.1,0.7-1.6c0.4-0.8,4.1-9.7,4.3-10.2
						c6.5-17.2,11.3-34.7,12.7-51.7c0-0.3,0.1-0.5,0.1-0.8c0.1-0.7,0.1-1.4,0.2-2c0-0.3,0.1-0.7,0.1-1c0-0.5,0.1-1,0.1-1.6
						c0-0.2,0-0.3,0-0.5c0-0.6,0.1-1.3,0.1-1.9c0-1.6,0.1-3.1,0.1-4.6c0,0-0.1-4.1-0.1-4.6c0-0.1-0.1-2.5-0.1-2.5
						c0-0.8-0.1-1.6-0.2-2.4c-0.1-0.8-0.1-1.6-0.2-2.4c-0.2-1.6-0.3-3.1-0.6-4.7c-0.3-2.3-0.8-4.7-1.3-6.9c-0.3-1.5-0.7-3-1.1-4.5
						c-0.2-0.9-0.5-1.8-0.8-2.7c-0.1-0.5-0.5-1.6-0.6-1.9c-0.2-0.6-0.4-1.2-0.8-2.1c-0.3-0.7-0.5-1.3-0.8-2s-0.6-1.4-0.9-2
						c-0.1-0.2-0.2-0.3-0.2-0.5c-0.1-0.3-0.3-0.6-0.5-0.9c-0.5-0.9-0.9-1.8-1.4-2.7c-0.3-0.6-0.7-1.2-1.1-1.9
						c-0.2-0.3-0.3-0.5-0.5-0.8c-0.9-1.5-1.9-2.9-2.9-4.3c-0.4-0.5-0.8-1-1.2-1.6c-0.4-0.5-0.8-0.9-1.4-1.6
						c-0.4-0.5-0.8-0.9-1.3-1.4c-0.4-0.5-0.9-1-1.4-1.4c-2.5-2.4-5.3-4.4-8.3-6.3c-0.2-0.1-0.5-0.3-0.7-0.4
						c-6.6-3.6-13-7.4-19.5-11.2c-0.2-0.1-0.3-0.2-0.5-0.3c-0.5-0.3-0.9-0.5-1.4-0.8c-11.4-6.1-26.9-8-45.9-1.9
						c-24.6,7.9-47.1,26.5-63.9,46c-18.8,21.7-33.9,47.8-43.3,74.8c-8.5,24.3-13.4,53.1-8,78.3c4.2,19.7,13.7,32.2,24.8,39.2
						c0.4,0.3,21.2,12.3,21.2,12.3C123.5,386.8,124.8,387.5,126.1,388.1z M309.6,10.6v330.9L31.3,502.1c0.3-0.3,0-330.9,0-330.9
						L309.6,10.6z"/>
					<path class="st3" d="M172.7,489.7c0.1-0.6,0.1-1.3,0.1-1.9c0.1-0.7,0.2-1.4,0.3-2.1c0.1-0.6,0.2-1.1,0.3-2
						c0-0.2,0.1-0.4,0.1-0.6c0.1-0.5,0.2-1.1,0.3-1.6c0.1-0.6,0.3-1.1,0.4-1.7c0.1-0.3,0.1-0.5,0.2-0.8c0.3-1.2,0.7-2.3,1.1-3.5
						c0.1-0.4,0.3-0.7,0.4-1.1c0.2-0.6,0.5-1.1,0.7-1.7c0.2-0.5,0.9-2,1-2.1c0.3-0.5,0.5-1.1,0.8-1.6c0.1-0.2,0.7-1.3,0.9-1.7
						c0.2-0.4,0.4-0.7,0.6-1.1c0.2-0.4,0.5-0.8,0.8-1.3c0.1-0.1,0.2-0.3,0.3-0.4c0.3-0.4,0.5-0.8,0.8-1.2c0.3-0.4,0.5-0.8,0.8-1.1
						c1.3-1.9,2.7-3.6,4.2-5.4c0.4-0.5,0.9-1,1.3-1.5c13.4-14.9,33.1-25.4,52.1-31.9c12.3-4.2,25.4-7.2,38.9-9.1
						c1.5-0.2,6.8-0.8,8.1-0.9c23.1-2.3,47.1-1.3,69.5,3.3c0.7,0.1,5.1,1.1,6.7,1.5c14.7,3.5,28.6,8.5,40.9,15
						c1.5,0.8,3.1,1.6,4.5,2.5c1.1,0.6,2.1,1.2,3.2,1.9c10.6,6.5,20.3,14.8,27.2,24.6c0.2,0.3,0.5,0.7,0.7,1
						c0.4,0.6,0.8,1.1,1.1,1.7c0.4,0.7,0.8,1.3,1.2,2.1c3.8,6.5,6,13.3,6.8,20c0,0.4,0.1,0.7,0.1,1.1s0,0.7,0.1,1.1
						c0,0.7,0.1,1.3,0.1,2c0,0.4,0,0.8,0,1.3c0,0.6,0,1.2,0,1.8c-0.5,10.8-4.7,21.5-12.6,31.4c-40.1,50.6-155.3,62.5-223.6,23.3
						c-10.5-6.1-20.4-13.5-28-23.1c-8.2-10.4-12.3-21.4-12.7-32.3c0-0.3,0-0.6,0-0.9c0-0.1,0-0.4,0-0.4
						C172.7,491.4,172.7,490.7,172.7,489.7z M438.2,492c0-10.3-3.8-20.7-11.6-30.6c-6.9-8.7-15.9-15.6-25.6-21.2
						c-61.9-35.5-168-25.8-205.4,21.3c-7.2,9.1-11.1,19-11.5,29c0,0.3,0,0.5,0,0.8c0,0.4,0,0.9,0,1.3c0,0.3,0,0.7,0,1s0,0.5,0.1,1.1
						c0,0.7,0.1,1.5,0.2,2.2c0,0.3,0.1,0.6,0.1,0.8c0,0.1,0,0.3,0.1,0.4c0.1,0.4,0.1,0.9,0.2,1.3c0.1,0.4,0.1,0.7,0.2,1.1
						c0.1,0.7,0.3,1.4,0.5,2.1c0.1,0.2,0.1,0.4,0.2,0.7c0.1,0.3,0.2,0.6,0.2,0.9c0.2,0.7,0.4,1.4,0.7,2.2c0.1,0.2,0.1,0.4,0.2,0.6
						c0.1,0.3,0.2,0.6,0.3,0.9c0.2,0.5,0.4,1.1,0.7,1.7s0.6,1.3,0.9,1.9c0.2,0.5,0.5,1,0.8,1.5c0.1,0.2,0.2,0.4,0.4,0.7
						s0.3,0.6,0.5,0.9c0.4,0.7,0.8,1.5,1.3,2.2c0.2,0.3,0.4,0.6,0.6,0.9c0.6,0.9,1.2,1.8,1.9,2.7c0.3,0.4,1.5,2,1.8,2.4
						c5.7,7.2,12.9,13.1,20.6,18.1c0.7,0.4,1.3,0.9,2,1.3c0.5,0.3,2.3,1.4,3.1,1.8c1.5,0.8,2.9,1.7,4.4,2.4c0.1,0.1,0.3,0.2,0.4,0.2
						c0.5,0.3,1.1,0.6,1.6,0.8c0.3,0.2,0.6,0.3,0.8,0.4c1.6,0.7,3.1,1.5,4.7,2.2c0.5,0.2,2.5,1.1,3,1.3c0.3,0.1,2.9,1.2,3.4,1.4
						c14.4,5.6,30,9.3,46.1,11.2c0.8,0.1,1.7,0.2,2.5,0.3s6.8,0.6,7.7,0.7c1.9,0.1,3.8,0.2,5.7,0.3c0.4,0,0.9,0.1,1.3,0.1
						c0.6,0,1.3,0.1,1.9,0.1c15.2,0.2,30.5-0.8,45.2-3.4c0.4-0.1,0.7-0.1,1.1-0.2c0.3-0.1,0.7-0.1,1-0.2c0.4-0.1,0.9-0.2,1.3-0.3
						c0.7-0.2,1.4-0.3,2.1-0.4c27.7-6.2,52-17.7,67.5-34c0.4-0.4,0.8-0.8,1.1-1.2c0.4-0.4,0.7-0.8,1.1-1.2c0.3-0.4,0.7-0.8,1-1.3
						c0.1-0.1,0.2-0.3,0.3-0.4c0.1-0.1,2.3-3.1,2.6-3.6c0.2-0.3,0.3-0.5,0.5-0.7c0.3-0.4,0.5-0.7,0.8-1.2s0.7-1.1,1.1-1.9
						c0.3-0.6,0.7-1.2,1-1.9c0.3-0.6,0.6-1.2,1-2c0.3-0.6,0.5-1.1,0.8-1.7c0.1-0.2,0.1-0.3,0.2-0.4c0.4-1,0.8-2,1.1-3
						c0.1-0.3,0.2-0.6,0.3-0.9c0.2-0.6,0.4-1.3,0.6-1.9c0.1-0.4,0.2-0.8,0.3-1.3c0.1-0.6,0.3-1.2,0.4-1.8c0.1-0.4,0.1-0.8,0.2-1.1
						c0.1-0.6,0.2-1.1,0.3-1.7c0-0.1,0-0.3,0.1-0.4c0-0.4,0.1-0.8,0.1-1.2c0.1-0.7,0.1-1.3,0.1-2c0-0.6,0.1-1.2,0.1-1.8V492H438.2z"
						/>
					<path class="st1" d="M449.5,494c-0.5,10.8-4.7,21.5-12.6,31.4c-40.1,50.6-155.3,62.5-223.6,23.3c-10.5-6.1-20.4-13.5-28-23.1
						c-8.2-10.4-12.3-21.4-12.7-32.3c0-0.3,0-0.6,0-0.9c0,3.4,0,6.8,0,10.2c0-0.1,0,0.2,0,0.4c0-0.2,0-0.3,0-0.4
						c-0.2,13.8,5.8,29.2,21.8,43.6c19.4,17.6,47.1,27.9,72.8,32.8c28.5,5.5,59.1,5.5,87.6,0.1c25.7-4.9,53.4-15.2,72.8-32.7
						c15.1-13.6,21.4-28.2,21.9-41.4c0-0.3,0-9,0-12.6C449.5,492.9,449.5,493.4,449.5,494z"/>
					<path class="st4" d="M401,451.3c17.8,10.3,34.2,26.1,36.8,46.3c0-0.1,0-0.3,0.1-0.4c0.1-0.4,0.1-0.8,0.1-1.2
						c0.1-0.6,0.1-1.3,0.1-2s0.1-1.3,0.1-1.9c0-10.5-3.8-20.9-11.6-30.8c-6.9-8.7-15.9-15.6-25.6-21.2
						c-61.9-35.5-168-25.8-205.4,21.3c-7.2,9.1-11.1,19-11.5,29c0,0.3,0,0.5,0,0.8s0,0.5,0,0.8c0,0.2,0,0.3,0,0.5c0,0.3,0,0.7,0,1
						s0,0.5,0,0.7c0.1,1,0.1,1.8,0.2,2.5c0,0.3,0.1,0.6,0.1,0.8c1.5-11.7,7.8-22.2,16.3-30.8C242.5,424.5,342.2,417.4,401,451.3z"/>
					<path class="st0" d="M167.3,173c15.9-13.7,36-26,56.7-29c12.1-1.8,23.7-0.3,34,5.3c0.5,0.2,0.9,0.5,1.3,0.8
						c1.8,1.1,3.6,2.3,5.3,3.7c1,0.8,2,1.7,3,2.6c0.5,0.5,1,0.9,1.4,1.4c0.4,0.4,0.9,0.9,1.5,1.6c0.4,0.5,0.8,0.9,1.2,1.4
						c0.4,0.5,0.8,1,1.2,1.6c1,1.4,2,2.8,2.9,4.3c0.2,0.3,0.3,0.5,0.5,0.8c0.4,0.6,0.7,1.2,1.1,1.9c0.5,0.9,1,1.8,1.4,2.7
						c0.1,0.3,0.3,0.6,0.5,0.9c0.1,0.2,0.1,0.3,0.2,0.5c0.3,0.7,0.6,1.3,0.9,2s0.5,1.3,0.9,2.3c0.2,0.6,0.4,1.2,0.7,1.8
						c0,0,0.5,1.4,0.6,1.9c0.3,0.9,0.6,1.8,0.8,2.7c0.4,1.5,0.8,3,1.1,4.5c0.5,2.3,0.9,4.6,1.3,6.9c0.2,1.6,0.4,3.1,0.6,4.7
						c0.1,0.8,0.2,1.6,0.2,2.4c0.1,0.8,0.1,1.6,0.2,2.5c0,0.7,0.1,1.3,0.1,2c0,0.1,0,1.5,0.1,2c0,0.2,0,2.9,0,2.9
						c0,1.5,0,3.1-0.1,4.6c0,0.6,0,1.3-0.1,1.9c0,0.2-0.1,1.6-0.1,2.1c0,0.3,0,0.7-0.1,1c0,0.7-0.1,1.4-0.2,2c0,0.3,0,0.5-0.1,0.8
						c-2,16.9-6.2,34.5-12.7,51.7c-0.2,0.4-2.8,6.9-3.2,7.7c0,0-2.1,4.7-2.3,5.1c-1.1,2.3-2.2,4.5-3.3,6.8c-0.6,1.2-1.2,2.3-1.8,3.5
						c-11.3,21.5-26.1,41.3-42.5,57c-2.2,2.1-4.5,4.2-6.7,6.2c-9.5,8.2-19.5,15.1-29.8,20.3c-7.8,3.9-16.3,7-24.9,8.6
						c-0.7,0.1-1.4,0.2-2.1,0.3c-0.8,0.1-1.6,0.2-2.3,0.3c-0.3,0-0.7,0.1-1,0.1c-0.4,0-0.7,0.1-1.1,0.1c-0.3,0-3,0.2-3.4,0.2
						c-0.3,0-0.6,0-0.9,0c-0.9,0-1.8,0-2.7,0c-0.6,0-1.2,0-1.8-0.1c-0.6,0-1.2-0.1-1.8-0.1s-1.2-0.1-1.7-0.2
						c-1.1-0.2-2.3-0.3-3.4-0.6c-1-0.2-1.9-0.4-2.9-0.6c-0.4-0.1-1.9-0.5-2.3-0.7c-0.4-0.1-0.8-0.3-1.2-0.4s-0.8-0.3-1.2-0.4
						c-0.3-0.1-0.7-0.3-1.2-0.5c-0.6-0.2-1.2-0.5-1.8-0.8c-1.3-0.6-2.7-1.3-4.1-2.1c-0.5-0.3-1-0.6-1.5-0.9
						c-7.1-4.6-13.1-11.1-17.7-19.8c-7.6-14.5-9.6-32.3-8.7-48.8C96.8,265.4,127.1,207.6,167.3,173z"/>
					<path class="st4" d="M11.9,167.4c-0.3,0.1-0.4,0.2-0.5,0.3c-0.6,0.4-0.9,0.6-1.1,0.8c-0.3,0.2-0.5,0.5-0.8,0.7
						c-0.5,0.5-0.9,0.9-1.2,1.4C8.1,170.8,8,171,8,171.1c-0.1,0.1-0.2,0.2-0.2,0.3c-0.1,0.1-0.2,0.3-0.2,0.4
						c-0.1,0.2-0.2,0.3-0.3,0.5c-0.2,0.3-0.3,0.7-0.5,1c-0.3,0.8-0.6,1.7-0.8,2.5c-0.1,0.3-0.1,0.6-0.2,0.9c-0.1,0.5-0.1,0.7-0.2,1
						c0,0.3-0.1,0.5-0.1,0.8c-0.1,0.3-0.1,0.6-0.1,0.9c0,0.2,0,0.5-0.1,0.7c0,0.2,0,0.4,0,0.5c0,0.4,0,0.7,0,1.1v279.7
						c0,11.2,5.8,22.9,13.3,31.2c2.6,2.9,5.6,5.3,8.9,7.2c2.5,0,0-330.9,0-330.9L305.7,8.3c-3.9-2.2-7.4-3.4-11.8-2.8
						c-1.4,0.2-2.7,0.6-3.9,1.3C197.3,60.3,104.1,113.1,11.9,167.4z"/>
					<path class="st5" d="M305.7,8.3L27.4,169c0,0,2.5,330.9,0,330.9l3.8,2.2c0.3-0.3,0-330.9,0-330.9L309.6,10.6L305.7,8.3z"/>
					<polygon class="st1" points="30.9,502.3 30.9,708.6 437.4,943.3 437.4,868.7 273.9,642.6 					"/>
					<path class="st0" d="M184.2,819.4c0.3,0.1,0.7,0.2,1,0.4c0.4,0.1,1.6,0.6,1.9,0.7c0.1,0,2.6,1.1,2.8,1.2
						c0.2,0.1,0.5,0.2,0.7,0.3c0.9,0.4,1.8,0.8,2.8,1.3c0.1,0.1,4,2,4,2c0.3,0.2,3.8,2,4.3,2.3c5.1,2.8,10.8,6.1,17.2,9.8
						c28,16.2,69.9,40.4,90.9,58.8c21,18.4,21,31.2,24.4,39.5c3.5,8.3,10.3,12.4,31.1,24.3c0.7,0.4,7.8,4.4,8.6,4.8
						c0.8,0.4,1.5,0.8,2.3,1.2s3.2,1.6,3.6,1.8c0.8,0.4,1.6,0.8,2.4,1.1c3.3,1.5,6.7,2.7,10.1,3.7c0.8,0.2,1.7,0.5,2.5,0.7
						c3,0.7,6,1.1,9,1.1c0.4,0,0.8,0,1.1,0c0.3,0,0.6,0,0.8,0c0.4,0,0.7,0,0.9-0.1c0.2,0,0.4,0,0.6-0.1c0.4,0,0.7-0.1,1.1-0.2
						c0.3,0,0.5-0.1,0.8-0.1s0.6-0.1,0.9-0.2c0.3-0.1,0.6-0.1,0.9-0.2c0.4-0.1,0.5-0.1,0.7-0.2c0.4-0.1,0.6-0.2,0.8-0.2
						c0.2,0,0.4-0.1,0.6-0.2c0.1,0,0.2-0.1,0.4-0.1c0.6-0.2,1-0.4,1.5-0.5c0.2-0.1,0.4-0.2,0.6-0.3s0.3-0.1,0.5-0.2
						c0.1-0.1,0.6-0.3,0.6-0.3c0.2-0.1,0.8-0.4,0.9-0.5c0.4-0.2,0.5-0.3,0.6-0.3c0.5-0.3,0.8-0.5,1.1-0.6c0.3-0.2,0.7-0.4,1-0.7
						c0.4-0.3,0.6-0.4,0.8-0.6c0.2-0.2,0.7-0.6,0.7-0.6c6-4.8,11.4-12.7,15.7-25L30.9,708.6c0,45.8,19.2,79.8,57.7,102
						c7.1,4.1,13.6,7.6,19.4,10.6c1.7,0.8,3.3,1.6,4.8,2.4c1.6,0.8,3.1,1.5,4.6,2.1c1.5,0.7,2.9,1.3,4.3,1.9c0.7,0.3,1.4,0.6,2,0.9
						c1.3,0.6,3.9,1.6,3.9,1.6c1.2,0.5,2.5,0.9,3.6,1.3c0.6,0.2,1.2,0.4,1.7,0.6c7.8,2.6,13.7,3.5,18.2,3.4c0.3,0,0.6,0,0.8,0
						c0.8,0,1.6-0.1,2.3-0.3c0.4-0.1,0.6-0.1,0.7-0.1c0.2,0,0.5-0.1,0.7-0.2c0.2-0.1,0.4-0.1,0.7-0.2c0.2-0.1,0.4-0.1,0.6-0.2
						c0.2-0.1,0.4-0.1,0.6-0.2c0.2-0.1,0.8-0.3,0.8-0.3c0.1-0.1,0.3-0.1,0.4-0.2c0,0,0.4-0.2,0.5-0.2c0.7-0.4,1.1-0.6,1.5-0.9
						c0.3-0.2,0.5-0.4,0.8-0.6c0.2-0.2,0.4-0.3,0.6-0.5c3.8-3.2,5.3-7.7,7.7-10.3c0.7-0.8,1.5-1.4,2.3-1.9c0.4-0.3,0.9-0.5,1.4-0.7
						c0.1,0,0.3-0.1,0.4-0.1c0.3-0.1,0.7-0.2,1-0.2c2.4-0.5,5.4,0,8.9,1C184,819.3,184.1,819.4,184.2,819.4z"/>
					<path class="st4" d="M239.2,138.4c-0.2-0.1-0.3-0.2-0.5-0.3c-0.5-0.3-0.9-0.5-1.4-0.8c-11.4-6.1-26.9-8-45.9-1.9
						c-24.6,7.9-47.1,26.5-63.9,46c-18.8,21.7-33.9,47.8-43.3,74.8c-8.5,24.3-13.4,53.1-8,78.3c4.2,19.7,13.7,32.2,24.8,39.2
						c0.4,0.3,0.8,0.5,1.3,0.8c6.8,3.9,13.3,7.7,19.9,11.5c-0.5-0.3-1-0.6-1.5-0.9c-7.1-4.6-13.1-11.1-17.7-19.8
						c-7.6-14.5-9.6-32.3-8.7-48.8c2.7-51,33-108.8,73.2-143.4c15.9-13.7,36-26,56.7-29c12.1-1.8,23.8-0.4,34,5.3
						c0.2,0.1,0.4,0.2,0.6,0.3C252.2,145.9,245.6,142.2,239.2,138.4z"/>
					<path class="st6" d="M162.1,831.5c-0.2,0.2-0.4,0.3-0.6,0.5c-0.3,0.2-0.5,0.4-0.8,0.6c-0.1,0.1-0.2,0.2-0.4,0.2
						c7.8-4.5,15.6-9,23.4-13.5c-3.5-1.1-6.4-1.5-8.9-1c-0.3,0.1-0.7,0.1-1,0.2c-0.1,0-0.3,0.1-0.4,0.1c-0.5,0.2-1,0.4-1.4,0.7
						c-0.8,0.5-1.6,1.1-2.3,1.9C167.5,823.9,165.9,828.3,162.1,831.5z"/>
					<path class="st2" d="M697.4,809.5c0.5-0.3,1-0.6,1.4-0.9c0.2-0.2,0.5-0.3,0.7-0.5s0.4-0.3,0.6-0.5c0.5-0.4,1-0.8,1.5-1.2
						c0.2-0.2,0.5-0.4,0.7-0.6c0.2-0.2,0.5-0.4,0.7-0.6c0.2-0.2,0.5-0.5,0.7-0.7s0.4-0.5,0.7-0.7c0.3-0.3,0.5-0.6,0.8-0.9
						c0.6-0.7,1.2-1.5,1.8-2.2c1.1-1.5,2.2-3.1,3.2-4.8c0.4-0.6,0.7-1.3,1.1-2c0.4-0.8,0.8-1.6,1.2-2.4c0.2-0.4,0.4-0.8,0.6-1.2
						c1.1-2.4,2.1-5,3.1-7.8L437.4,943.3c-4.3,12.3-9.7,20.3-15.7,25c0,0-0.5,0.4-0.7,0.6c-0.2,0.2-0.4,0.3-0.7,0.5
						c-0.5,0.3-0.8,0.6-1.1,0.8c-0.3,0.2-0.5,0.3-0.7,0.4C511.1,917.1,697.3,809.6,697.4,809.5z"/>
					<path class="st0" d="M437.4,868.7v74.6l278.7-160.9v-74.6c0-5.3-1-11.2-4-15.6L441.4,848.6C439,854.9,437.4,862,437.4,868.7z"
						/>
					<path class="st1" d="M561,487.3c-0.9-0.7-1.9-1.4-2.8-2c1,0.7,2,1.4,3,2.2C561.2,487.4,561.1,487.3,561,487.3z"/>
					<path class="st1" d="M561.4,487.6c0.8,0.6,1.8,1.4,2.7,2.2C563.2,489,562.3,488.3,561.4,487.6z"/>
					<path class="st1" d="M564.8,490.4c0.4,0.4,0.8,0.7,1.1,1.1c-0.1-0.1-0.2-0.2-0.3-0.3c-0.2-0.2-0.4-0.4-0.6-0.6L564.8,490.4z"/>
					<path class="st4" d="M711.8,691.8c-46.7-64.5-93.3-129.1-140-193.6c-0.1-0.1-0.2-0.3-0.3-0.4c-0.4-0.5-0.6-0.8-0.8-1
						s-0.3-0.4-0.5-0.6s-0.3-0.4-0.5-0.6c-0.4-0.5-0.7-0.8-1-1.1c-0.2-0.2-0.4-0.5-0.6-0.7c-0.2-0.2-0.7-0.7-0.7-0.7
						c-0.4-0.4-0.7-0.7-1.1-1.1c-0.1-0.1-0.2-0.2-0.3-0.3c-0.6-0.6-1-0.9-1.4-1.3c-0.3-0.3-0.5-0.5-0.7-0.6
						c-0.9-0.8-1.9-1.6-2.8-2.3c-1-0.8-2-1.5-3-2.2c-0.3-0.2-0.7-0.5-1-0.7c-0.4-0.3-247.6-143.2-247.6-143.2L30.9,502.3l243,140.3
						l163.5,226.1c0-6.8,1.6-13.8,4-20.2l270.7-156.3C712,692,711.9,691.9,711.8,691.8z M267.2,579c-25.6-4.9-53.3-15.2-72.8-32.8
						c-15.9-14.4-21.9-29.8-21.8-43.6c0-3.4,0.1-12.8,0.1-13c0.1-0.6,0.1-1.3,0.1-1.9c0.1-0.7,0.2-1.4,0.3-2.1
						c0.1-0.6,0.2-1.1,0.3-1.7c0.1-0.5,0.1-0.7,0.2-0.9c0.1-0.5,0.2-1.1,0.3-1.6c0.1-0.6,0.3-1.1,0.4-1.7c0.1-0.3,0.1-0.5,0.2-0.8
						c0.3-1.2,0.7-2.3,1.1-3.5c0.1-0.4,0.3-0.7,0.4-1.1c0.2-0.6,0.5-1.1,0.7-1.7c0.2-0.5,0.9-2,1-2.1c0.3-0.5,0.5-1.1,0.8-1.6
						c0.1-0.2,0.2-0.3,0.3-0.5c0.2-0.4,0.4-0.8,0.7-1.2c0.2-0.4,0.4-0.7,0.6-1.1c0.3-0.4,0.5-0.8,0.8-1.3c0.1-0.1,0.2-0.3,0.3-0.4
						c0.3-0.4,0.5-0.8,0.8-1.2c0.2-0.4,0.5-0.8,0.8-1.1c1.3-1.9,2.7-3.6,4.2-5.4c0.4-0.5,0.9-1,1.3-1.5c19.8-22.1,53.7-36,91-41
						c1.4-0.2,2.9-0.4,4.3-0.5c1.2-0.1,2.5-0.3,3.8-0.4c23.2-2.3,47.1-1.1,69.5,3.3c0.7,0.1,5.1,1.1,6.7,1.5
						c14.7,3.4,28.6,8.4,40.9,15c1.5,0.8,3.1,1.6,4.5,2.5c1.1,0.6,2.1,1.3,3.2,1.9c9.3,5.7,17.9,12.6,24.7,21.1
						c0.9,1.1,1.7,2.3,2.5,3.4c0.2,0.3,0.5,0.7,0.7,1c0.4,0.6,0.8,1.1,1.1,1.7c0.4,0.7,0.8,1.3,1.2,2c3.6,6.3,5.9,13,6.8,20.1
						c0,0.4,0.1,0.7,0.1,1.1s0.1,0.7,0.1,1.1c0,0.7,0.1,1.3,0.1,2c0,0.4,0,13.8,0,14.1c-0.5,13.2-6.8,27.8-21.9,41.4
						c-19.5,17.5-47.2,27.8-72.8,32.7C326.3,584.5,295.7,584.5,267.2,579z"/>
				</g>
			</g>
		</g>
	</g>
	<g id="Capa_1_1_">
		<g id="Capa_9">
			<g>
				<g class="st7">
					<g>
						<path class="st8" d="M314.3,249.7c12.9,0.4,28.4,1.8,37.4,12.1c1.9,2.6,1.8,5.3,1.8,8.4c-0.2,5.7,0.4,11.5-0.3,17.2
							c-1.1,4-4.9,6.8-8.3,8.6c-0.5,0.3-0.8,0.8-0.8,1.4c0,12,0,24.1,0,36.1c0,46.6,0,93.2,0,139.8c-0.7,46.2-58.9,46.4-59.6,0
							c0-41.9,0-83.9,0-125.8c0-16.7,0-33.4,0-50.1c0-0.6-0.3-1.1-0.8-1.4c-4.5-2.4-9.2-6.4-8.6-12c0-4.2,0-8.4,0-12.6
							c0-2.8-0.4-5.8,1-8.4C284.5,251.5,301.2,250.3,314.3,249.7"/>
					</g>
					<path class="st9" d="M342.7,267c0.5,13.2-56.7,13.2-56.3,0C285.9,253.8,343.1,253.8,342.7,267z"/>
				</g>
				<path class="st10" d="M314.7,502.1c-14.1,0-25.5-11.4-25.5-25.5v-97.8h50.6v98.1C339.9,490.8,328.6,502.1,314.7,502.1z"/>
				<path class="st11" d="M339.9,379c0.5,10.5-51.2,10.5-50.7,0C288.6,368.5,340.4,368.5,339.9,379z"/>
			</g>
		</g>
		<g id="Capa_14">
		</g>
		<g id="Capa_6">
		</g>
		<g id="Capa_3">
		</g>
	</g>
</g>
<g>
	<g id="Capa_3_1_">
		<g>
			<path class="st2" d="M585.8,577.9L377.9,697.5c-6.9,4-8.7,13.1-4.2,19.4l34.3,47.5c4,5.5,11.5,7.1,17.4,3.8l207.9-119.6
				c6.9-4,8.7-13.1,4.2-19.4l-34.3-47.5C599.3,576.2,591.7,574.6,585.8,577.9z"/>
			<circle class="st12" cx="385.4" cy="715.8" r="4.4"/>
			<circle class="st13" cx="431.1" cy="753.2" r="4.4"/>
			<circle class="st14" cx="418.1" cy="759.7" r="4.4"/>
			<g id="dwrWbA_1_">
				<g>
					<path class="st15" d="M476.7,680.9c0.6-0.4,1.2-0.6,1.8-1c1-0.6,2-1.2,3-1.8c1-0.6,2-1.2,3-1.8c0.8-0.4,1.8-1,2.8-1.6
						c1.4-0.8,3-1.8,4.4-2.6c1.4-0.8,2.6-1.6,4-2.4c1.6-0.8,3-1.8,4.4-2.6c1.6-1.2,3.4-2.2,5.1-3.2c1.4-1,2.8-2,4.4-2.8
						c1.6-1.2,3.4-2.2,5.1-3.2c1.8-1,3.6-2.2,5.3-3.2c2.2-1.4,4.4-2.6,6.5-4c2.4-1.4,5-3,7.5-4.6c0.6-0.4,1-0.2,1.4,0.4
						c1.2,1.8,2.2,3.4,3.4,5.1c1.4,2,2.8,4.2,4.2,6.3c0.4,0.6,0.8,1.2,1.2,1.8c0.4,0.6,0.4,0.6-0.2,1c-0.8,0.4-1.6,1-2.4,1.4
						c-1.6,1.2-3.4,2.2-5.1,3.2c-1.4,0.8-3,1.8-4.4,2.6c-1.4,0.8-2.6,1.6-4,2.4s-2.8,1.8-4.4,2.6c-0.8,0.6-1.8,1.2-2.8,1.8
						c-1,0.8-2.2,1.4-3.2,2c-1,0.6-2,1.2-3,1.8c-1,0.6-2,1.2-3,1.8c-1,0.6-2,1.2-3,1.8c-1,0.6-2,1.2-3,1.8c-1,0.6-2,1.2-3,1.8
						c-1,0.6-2,1.2-3,1.8c-1,0.6-2,1.2-3,1.8c-0.8,0.6-1.8,1.2-2.8,1.8c-1,0.6-2,1.2-3,1.8c-1.6,0.8-3.2,1.8-4.8,2.8
						c-0.6,0.4-0.6,0.2-1-0.2c-0.4-0.8-1-1.4-1.4-2.2c-1.4-2-2.6-4-4-5.9c-1.2-1.8-2.4-3.6-3.6-5.3c0-0.2-0.2-0.4-0.2-0.6
						C476.5,681.3,476.7,681.1,476.7,680.9z M497.5,675.4c-1.4,0.8-2.6,1.6-4,2.4c-1,0.6-2,1-3,1.6c-0.8,0.4-0.8,0.6-0.4,1.2
						c0.8,1.2,0.8,1.2,2,0.4c2-1.2,4.2-2.4,6.1-3.6c0.2-0.2,0.4-0.2,0.6-0.4c0.2-0.2,0.2-0.4,0.2-0.6c-0.2-0.4-0.6-0.8-0.8-1.2
						c-0.2-0.2-0.2-0.2-0.4-0.2C497.7,675.2,497.5,675.2,497.5,675.4z M504.2,679.3c0,0.2,0.4,0,0.6,0s0.6-0.2,0.8-0.4
						c1.8-1,3.8-2.2,5.5-3.2c0.2-0.2,0.6-0.4,1-0.6c0.4-0.2,0.4-0.4,0.2-0.8c-0.8-1.2-0.8-1.4-2.2-0.6c-2.2,1.2-4.4,2.4-6.5,3.6
						c-0.2,0.2-0.4,0.4-0.6,0.6C503.2,678.5,503.6,679.1,504.2,679.3z M526.6,663.9c-2,1-4,2.2-5.9,3.4c-0.4,0.2-0.6,0.2-1,0.4
						c-0.6,0.2-0.6,0.4-0.4,1c0.2,0.2,0.2,0.6,0.4,0.8c0.4,0.4,0.6,0.4,1.2,0.2c0.4-0.2,0.6-0.4,1-0.6c2-1.2,4-2.2,5.9-3.4
						c0.2-0.2,0.4-0.2,0.6-0.4s0.2-0.4,0.2-0.6c-0.2-0.4-0.4-0.8-0.8-1.2c0-0.2-0.2-0.2-0.4-0.2C527.2,663.5,527,663.5,526.6,663.9z
						 M515.7,671.8c0-0.2,0-0.4-0.2-0.6c-1.2-1.6-2.2-3.4-3.2-5.1c-0.2-0.4-0.4-0.4-0.8-0.2c-0.4,0.2-0.6,0.4-1,0.6
						c-0.4,0.2-0.4,0.4-0.2,0.8c1,1.8,2,3.4,3,5c0.2,0.4,0.4,0.8,0.6,1.2c0.2,0.2,0.4,0.4,0.4,0.4
						C514.9,673.8,516.1,672.4,515.7,671.8z M527.2,657.4c1,1.8,2,3.4,3,5.1c0.2,0.2,0.2,0.6,0.4,0.8c0.2,0.4,0.4,0.4,0.8,0.2
						c0.4-0.4,0.6-0.8,1-1.2c0.4-0.4,0.2-0.6,0-1c-0.8-1.2-1.6-2.2-2.2-3.4c-0.4-0.6-0.6-1.2-1-1.8c-0.2-0.4-0.4-0.4-0.8-0.2
						c-0.4,0.2-0.6,0.4-1,0.6c-0.2,0-0.2,0.2-0.4,0.4C527,657.2,527,657.4,527.2,657.4z"/>
					<path class="st15" d="M554.3,662.5c1.4-0.8,2.6-1.6,4-2.4s3-1.8,4.4-2.6c1.2-0.6,2.2-1.2,3.2-1.8c0.8-0.6,1.8-1.2,2.8-1.8
						c1.4-0.8,2.8-1.8,4.2-2.6c1.4-0.8,2.6-1.6,4-2.4c1.6-1,3-1.8,4.6-2.8c0.6-0.4,1-0.4,1.4,0.2c0.6,1,1.4,2,2,3
						c1.2,2,2.6,4.2,4,6.1c0.8,1.4,1.8,2.8,2.6,4.2c0.4,0.4,0.4,0.6-0.2,1s-1,0.6-1.6,1c-1,0.8-2.2,1.4-3.2,2s-2,1.2-3,1.8
						c-1,0.6-2,1.2-3,1.8c-0.8,0.4-1.8,1-2.8,1.6c-1,0.8-2.2,1.4-3.2,2c-1.8,1-3.4,2-5.1,3c-1.8,1-3.6,2.2-5.3,3.2
						c-0.6,0.4-1,0.4-1.4-0.2c-0.6-1-1.4-2-2-3c-1-1.6-2.2-3.4-3.2-5c-1.2-1.8-2.2-3.4-3.4-5.1c-0.2-0.2-0.4-0.4-0.4-0.6
						C553.5,662.5,553.7,662.3,554.3,662.5z M573.3,661.5c-2,1-4,2.2-5.9,3.4c-0.4,0.2-0.6,0.2-1,0.4c-0.4,0.2-0.6,0.6-0.4,1
						c0,0.2,0,0.2,0,0.2c0.6,1.4,0.8,1.4,2,0.6c1.8-1.2,3.8-2.2,5.5-3.2c0.4-0.2,0.8-0.4,1.2-0.6s0.4-0.4,0.2-0.8
						c-0.2-0.2-0.4-0.6-0.6-0.8c0-0.2-0.2-0.2-0.4-0.4C573.7,661.3,573.5,661.5,573.3,661.5z M573.5,655.4c1,1.8,2,3.4,3,5.1
						c0,0.2,0.2,0.6,0.2,0.8c0.2,0.6,0.6,0.6,1,0.2c0.4-0.2,0.6-0.6,0.8-0.8c0.4-0.4,0.4-0.8,0.2-1.2c-0.8-1.2-1.4-2.4-2.2-3.6
						c-0.4-0.6-0.6-1.2-1-1.8c-0.2-0.4-0.4-0.4-0.8-0.2s-0.6,0.4-1,0.6c-0.2,0-0.2,0.2-0.4,0.4C573.5,655.2,573.5,655.2,573.5,655.4
						z"/>
					<path class="st15" d="M464.8,734.8c-1.2-2-2.6-3.8-3.8-5.7c-1.2-1.6-2.2-3.4-3.4-5c-0.6-0.8-1-1.6-1.6-2.4
						c-0.4-0.6-0.2-1,0.2-1.2c1.2-0.6,2.6-1.4,3.8-2.2c1-0.4,1.8-1,2.8-1.6c1-0.8,2.2-1.4,3.2-2c1-0.6,2-1.2,3-1.8
						c1-0.6,2-1.2,3-1.8c1-0.6,2-1.2,3-1.8c1-0.6,2-1.2,3-1.8c1-0.6,2-1.2,3-1.8c1-0.4,1.8-1,2.8-1.6c0.8-0.4,1.2-0.4,1.6,0.4
						c0.8,1.4,1.8,3,2.8,4.4c1.6,2.4,3.2,4.8,4.8,7.1c0.4,0.6,0.8,1,1,1.6c0.4,0.6,0.2,0.8-0.4,1.2c-1,0.6-2,1.2-3,1.8
						c-1.8,1-3.6,2.2-5.3,3.2c-1.6,1-3,1.8-4.6,2.8c-1.8,1-3.4,2-5.1,3c-1.6,1-3,1.8-4.4,2.6c-1.8,1-3.4,2.2-5.1,3.2
						c-0.2,0.2-0.2,0.2-0.4,0.2C464.8,735.6,464.6,735.4,464.8,734.8z M471.9,724.9c0.2,0,0.6,0,0.8-0.2c2-1.2,4.2-2.4,6.1-3.6
						c0.2-0.2,0.6-0.2,0.8-0.4c0.4-0.2,0.4-0.4,0.2-0.8c-0.2-0.2-0.2-0.4-0.4-0.6c-0.4-0.8-0.8-0.8-1.4-0.4c-2.4,1.4-4.6,2.6-6.9,4
						c-0.4,0.2-0.6,0.4-0.6,0.8C470.8,724.3,471,724.9,471.9,724.9z M468.6,721.3c0.8,1.2,1,1.2,2.2,0.4c2-1.2,4.2-2.4,6.1-3.6
						c0.2,0,0.2-0.2,0.4-0.2c0.4-0.2,0.4-0.4,0.2-0.8c-0.4-0.6-0.4-1.4-1.2-1.2c-0.2,0-0.2,0.2-0.4,0.2c-2.4,1.4-4.6,2.6-6.9,4
						c-0.2,0-0.4,0.2-0.6,0.4C468.4,720.9,468.6,721.1,468.6,721.3z"/>
					<path class="st15" d="M548.4,666.1c0.4,0.6,0.8,1.4,1.2,2c2.2,3.4,4.2,6.5,6.3,9.9c0.4,0.6,0.8,1.2,1.2,1.8
						c0.2,0.2,0.2,0.6-0.2,0.8c-0.4,0.4-0.8,0.6-1.2,0.8c-1,0.6-2,1.2-3,1.8c-0.8,0.6-1.8,1.2-2.8,1.8s-2,1.2-3,1.8
						c-1.4,0.8-3,1.8-4.4,2.6s-2.6,1.6-4,2.4c-1.6,1-3,1.8-4.6,2.8c-1,0.6-1.8,1.2-2.8,1.8c-0.8,0.6-1.2,0.6-1.8-0.2
						c-0.8-1.4-1.6-2.6-2.4-3.8c-1.4-2.2-2.6-4.2-4-6.1c-0.8-1.2-1.4-2.2-2.2-3.4c-0.2-0.6-0.2-0.8,0.4-1.2c0.4-0.2,1-0.6,1.4-0.8
						c1-0.6,2-1.2,3-1.8s2-1.2,3-1.8s2-1.2,3-1.8c1-0.6,2-1.2,3-1.8c1.2-0.6,2.2-1.2,3.2-1.8c1-0.6,2-1.2,3-1.8c1-0.6,2-1.2,3-1.8
						c1.2-0.6,2.6-1.4,3.8-2.2c0.2-0.2,0.4-0.2,0.6-0.2S548.6,666.1,548.4,666.1z M532.5,681.9c0.4,0.4,0.6,0.2,1,0
						c0.8-0.4,1.6-1,2.4-1.4c1.4-0.8,3-1.8,4.4-2.6c0,0,0.2,0,0.4-0.2c0.2-0.2,0.4-0.4,0.2-0.6l0,0c-0.6-1.2-1-1.2-2.2-0.6
						c-2,1.2-3.8,2.4-5.7,3.4c-0.2,0.2-0.6,0.2-0.8,0.4c0,0.2-0.2,0.4-0.4,0.6C531.9,681.3,532.1,681.9,532.5,681.9z M541.1,674.6
						c1,1.8,2,3.4,3,5.1c0.2,0.2,0.2,0.6,0.4,0.8c0.2,0.6,0.4,0.6,0.8,0.2c0.2-0.2,0.6-0.6,0.8-0.8c0.6-0.6,0.6-0.6,0.2-1.2
						c-0.4-0.6-0.8-1.2-1.2-1.8c-0.8-1.2-1.4-2.2-2-3.4c-0.4-0.6-0.6-0.6-1.2-0.2c-0.2,0.2-0.6,0.2-0.8,0.4
						c-0.2,0.2-0.2,0.2-0.4,0.4C540.7,674.4,540.7,674.6,541.1,674.6z"/>
					<path class="st15" d="M517.3,685.7c0.6,1,1.4,2,2,3c1.6,2.4,3.2,5,4.8,7.3c0.6,1,1.2,2,1.8,3c0.2,0.6,0.2,0.8-0.4,1.2
						c-0.6,0.2-1.2,0.6-1.8,1c-1,0.6-2,1.2-3,1.8c-0.8,0.6-1.8,1.2-2.8,1.8s-2,1.2-3,1.8c-1,0.6-2,1.2-3,1.8c-1.6,0.8-3,1.8-4.4,2.6
						c-1.4,0.8-3,1.8-4.4,2.6c-1.2,0.6-2.2,1.4-3.4,2c-0.6,0.4-0.8,0.2-1.2-0.4c-1.6-2.4-3.2-4.8-4.8-7.1c-1.2-2-2.6-4.2-4-6.1
						c-0.2-0.4-0.2-0.6,0.2-1c0.2,0,0.2-0.2,0.4-0.2c0.8-0.6,1.8-1.2,2.8-1.8c1-0.6,2-1.2,3-1.8c1-0.6,2-1.2,3-1.8
						c1-0.6,2-1.2,3-1.8c1-0.6,2-1.2,3-1.8c1.6-1.2,3.4-2.2,5.1-3.2c1.8-1,3.4-2.2,5.1-3.2l0.4-0.2
						C516.3,684.9,516.5,685.3,517.3,685.7z M510,700.9c0.8,0.8,0.8,0.8,1.8,0.2c0.6-0.2,1-0.6,1.6-0.8c0.6-0.4,0.8-0.6,0.4-1.2
						c-0.2-0.2-0.2-0.4-0.4-0.6c-0.2-0.6-0.6-0.6-1-0.4c-0.8,0.4-1.6,1-2.4,1.4c-0.2,0.2-0.2,0.4-0.4,0.6
						C509.8,700.5,510,700.7,510,700.9z M504.6,703.9c0.4,0.4,0.6,1,1,1.2c0.4,0.2,0.8-0.4,1.2-0.6c0.6-0.2,1-0.6,1.6-0.8
						c0.4-0.2,0.4-0.4,0.2-1c0,0-0.2-0.2-0.2-0.4c-0.4-0.8-0.6-0.8-1.4-0.4c-0.6,0.4-1.4,0.8-2,1.2c-0.2,0.2-0.4,0.4-0.6,0.6
						C504.6,703.9,504.6,704.1,504.6,703.9z M509.4,698.5c0.6-0.4,1.4-0.8,2-1.2c0.8-0.4,0.8-0.6,0.4-1.2c0-0.2-0.2-0.2-0.2-0.4
						c-0.4-0.8-0.6-0.8-1.4-0.4c-0.6,0.4-1.4,0.8-2,1.2c-0.4,0.2-0.6,0.6-0.2,1c0.2,0.2,0.4,0.6,0.6,0.8c0,0.2,0.2,0.2,0.4,0.4
						C509.2,698.7,509.2,698.7,509.4,698.5z M502.8,701.3c0.8,1,0.8,1.2,2,0.4c0.4-0.4,1-0.6,1.4-0.8c0.6-0.2,0.8-0.6,0.4-1.2
						c-0.8-1.2-0.8-1.2-2-0.6c-0.6,0.4-1.2,0.6-1.8,1c-0.2,0.2-0.4,0.4-0.6,0.6C502.4,700.9,502.6,701.3,502.8,701.3z"/>
					<path class="st3" d="M498.1,675c0.4,0.4,0.6,0.8,0.8,1.2c0,0.2,0,0.4-0.2,0.6c-0.2,0.2-0.4,0.2-0.6,0.4c-2,1.2-4.2,2.4-6.1,3.6
						c-1.2,0.8-1.2,0.8-2-0.4c-0.4-0.6-0.4-0.8,0.4-1.2c1-0.6,2-1,3-1.6c1.4-0.8,2.6-1.6,4-2.4c0.2,0,0.4-0.2,0.6-0.2
						C498.1,675.2,498.3,675.2,498.1,675z"/>
					<path class="st3" d="M503.4,677.5c2.2-1.2,4.4-2.4,6.5-3.6c1.4-0.8,1.4-0.6,2.2,0.6c0.2,0.4,0.2,0.6-0.2,0.8
						c-0.2,0.2-0.6,0.4-1,0.6c-1.8,1-3.8,2.2-5.5,3.2c-0.2,0-0.6,0.2-0.8,0.4c-0.2,0-0.6,0-0.6,0c-0.4-0.6-0.6-1-1-1.6
						C503.2,677.7,503.4,677.5,503.4,677.5z"/>
					<path class="st3" d="M528,663.1c0.2,0.4,0.6,0.8,0.8,1.2c0,0.2,0,0.4-0.2,0.6c-0.2,0.2-0.4,0.2-0.6,0.4c-2,1.2-4,2.2-5.9,3.4
						c-0.4,0.2-0.6,0.4-1,0.6c-0.6,0.4-0.8,0.4-1.2-0.2c-0.2-0.2-0.2-0.6-0.4-0.8c-0.2-0.6,0-0.8,0.4-1c0.4-0.2,0.8-0.2,1-0.4
						c2-1,4-2.2,5.9-3.4c0.2,0,0.4-0.2,0.6-0.2C527.6,663.3,527.8,663.3,528,663.1z"/>
					<path class="st3" d="M514.1,673.6c-0.2-0.4-0.4-0.8-0.6-1.2c-1-1.8-2-3.4-3-5c-0.2-0.4-0.2-0.6,0.2-0.8s0.6-0.4,1-0.6
						c0.4-0.4,0.6-0.2,0.8,0.2c1.2,1.6,2.2,3.4,3.2,5.1c0,0.2,0.2,0.4,0.2,0.6c0,0.4-1,1.8-1.6,1.8
						C514.3,673.6,514.1,673.6,514.1,673.6z"/>
					<path class="st3" d="M527.4,656.6c0.4-0.2,0.6-0.4,1-0.6c0.4-0.4,0.6-0.2,0.8,0.2c0.4,0.6,0.6,1.2,1,1.8
						c0.8,1.2,1.4,2.2,2.2,3.4c0,0.4,0.2,0.6,0,1c-0.2,0.4-0.6,0.8-1,1.2c-0.4,0.2-0.6,0.2-0.8-0.2c-0.2-0.2-0.2-0.6-0.4-0.8
						c-1-1.8-2-3.4-3-5.1c0,0-0.2-0.2-0.2-0.4S527.2,656.6,527.4,656.6z"/>
					<path class="st3" d="M574.3,661.7c0.2,0.2,0.4,0.6,0.6,0.8c0.2,0.4,0.2,0.6-0.2,0.8c-0.4,0.2-0.8,0.4-1.2,0.6
						c-1.8,1-3.8,2.2-5.5,3.2c-1.2,0.8-1.4,0.8-2-0.6c0-0.2,0-0.2,0-0.2c-0.2-0.6,0-0.8,0.4-1c0.4-0.2,0.8-0.2,1-0.4
						c2-1,4-2.2,5.9-3.4c0.2,0,0.4,0,0.6-0.2C574.1,661.3,574.3,661.5,574.3,661.7z"/>
					<path class="st3" d="M573.7,654.6c0.4-0.2,0.6-0.4,1-0.6c0.4-0.4,0.6-0.2,0.8,0.2c0.4,0.6,0.6,1.2,1,1.8
						c0.8,1.2,1.4,2.4,2.2,3.6c0.2,0.6,0.2,0.8-0.2,1.2c-0.4,0.4-0.6,0.6-0.8,0.8c-0.4,0.4-0.8,0.4-1-0.2c0-0.4,0-0.6-0.2-0.8
						c-1-1.8-2-3.4-3-5.1c0,0-0.2-0.2-0.2-0.4C573.5,654.8,573.5,654.6,573.7,654.6z"/>
					<path class="st3" d="M470.8,723.1c2.4-1.4,4.6-2.6,6.9-4c0.8-0.4,1-0.4,1.4,0.4c0.2,0.2,0.4,0.4,0.4,0.6
						c0.2,0.4,0.2,0.6-0.2,0.8c-0.2,0.2-0.6,0.2-0.8,0.4c-2,1.2-4.2,2.4-6.1,3.6c-0.2,0.2-0.6,0.2-0.8,0.2c-0.6-0.2-0.8-0.8-1-1.4
						C470.6,723.3,471,723.1,470.8,723.1z"/>
					<path class="st3" d="M469.2,719.9c2.4-1.4,4.6-2.6,6.9-4c0.2,0,0.2-0.2,0.4-0.2c0.8,0,0.8,0.8,1.2,1.2c0.2,0.2,0.2,0.6-0.2,0.8
						c-0.2,0-0.2,0.2-0.4,0.2c-2,1.2-4.2,2.4-6.1,3.6c-1.4,0.8-1.4,0.8-2.2-0.4c-0.2-0.2-0.2-0.4-0.4-0.6
						C468.6,720.5,468.8,720.3,469.2,719.9z"/>
					<path class="st3" d="M532.3,680.7c0.2-0.2,0.6-0.2,0.8-0.4c2-1.2,3.8-2.2,5.7-3.4c1.2-0.8,1.6-0.6,2.2,0.6l0,0
						c0,0.2,0,0.4-0.2,0.6c0,0-0.2,0.2-0.4,0.2c-1.4,0.8-3,1.8-4.4,2.6c-0.8,0.4-1.6,1-2.4,1.4c-0.4,0-0.8,0.4-1,0
						c-0.4-0.4-0.6-0.8-1-1.4C531.9,680.7,531.9,680.5,532.3,680.7z"/>
					<path class="st3" d="M540.9,673.8c0.2-0.2,0.6-0.2,0.8-0.4c0.8-0.4,0.8-0.4,1.2,0.2c0.8,1.2,1.4,2.2,2,3.4
						c0.4,0.6,0.8,1.2,1.2,1.8c0.2,0.6,0.2,0.8-0.2,1.2c-0.2,0.2-0.6,0.6-0.8,0.8c-0.4,0.4-0.6,0.4-0.8-0.2
						c-0.2-0.2-0.2-0.6-0.4-0.8c-1-1.8-2-3.4-3-5.1c0,0-0.2-0.2-0.2-0.4C540.7,674,540.9,674,540.9,673.8z"/>
					<path class="st3" d="M510.2,699.5c0.8-0.6,1.6-1,2.4-1.4c0.4-0.2,0.8,0,1,0.4c0.2,0.2,0.2,0.4,0.4,0.6c0.2,0.6,0.2,0.8-0.4,1.2
						c-0.6,0.2-1,0.4-1.6,0.8c-1,0.8-1,0.8-1.8-0.2c-0.2-0.2-0.4-0.4-0.6-0.8C509.8,699.9,510,699.7,510.2,699.5z"/>
					<path class="st3" d="M505,703.5c0.6-0.4,1.4-0.8,2-1.2c0.8-0.4,1-0.4,1.4,0.4c0,0,0.2,0.2,0.2,0.4c0.4,0.6,0.4,0.6-0.2,1
						c-0.6,0.2-1,0.6-1.6,0.8c-0.4,0.2-0.8,0.8-1.2,0.6c-0.4-0.4-0.6-0.8-1-1.2c0-0.2-0.2-0.4-0.2-0.6
						C504.6,703.5,504.8,703.3,505,703.5z"/>
					<path class="st3" d="M508.8,698.3c-0.2-0.2-0.4-0.4-0.6-0.8c-0.4-0.4-0.4-0.8,0.2-1c0.6-0.4,1.4-0.8,2-1.2
						c0.8-0.4,1-0.4,1.4,0.4c0,0.2,0.2,0.2,0.2,0.4c0.2,0.6,0.2,0.8-0.4,1.2s-1.4,0.8-2,1.2c-0.2,0-0.4,0.2-0.6,0.2
						C508.8,698.7,508.6,698.5,508.8,698.3z"/>
					<path class="st3" d="M502.6,700.3c0.6-0.4,1.2-0.6,1.8-1c1.2-0.6,1.4-0.6,2,0.6c0.4,0.6,0.2,0.8-0.4,1.2
						c-0.4,0.2-1,0.4-1.4,0.8c-1.2,0.8-1.2,0.6-2-0.4c-0.2-0.2-0.2-0.6-0.4-0.8C502.4,700.5,502.6,700.3,502.6,700.3z"/>
				</g>
			</g>
			<g>
				<path class="st15" d="M529.6,633.6c1.2-0.8,2.2-1.4,3.4-2c1.2-0.6,2.2-1.2,3.4-1.8c0.8-0.4,1.2-0.2,1.6,0.6
					c0.4,0.6,0.4,0.8-0.4,1.2c-1.6,0.8-3,1.8-4.6,2.6c-0.8,0.4-1.4,0.8-2.2,1.2c-0.4,0.2-0.8,0.4-1,0c-0.2-0.4-0.4-1-0.6-1.2
					C529.2,633.6,529.4,633.4,529.6,633.6z"/>
				<path class="st15" d="M547,616.6c2.2-1.4,4.4-2.6,6.5-3.8c1-0.6,1.4-0.4,1.8,0.6v0.2c0,0.4,0,0.8-0.4,1
					c-0.2,0.2-0.6,0.2-0.8,0.4c-2,1.2-4,2.2-5.9,3.4c-0.4,0.2-0.6,0.2-1,0c-0.4-0.4-0.6-0.8-0.8-1.4
					C546.6,616.8,546.8,616.6,547,616.6z"/>
				<path class="st15" d="M567.2,612.8c0,0.4-0.2,0.6-0.6,0.8c-2,1.2-4,2.2-5.9,3.4c-0.4,0.2-0.6,0.4-1,0.6c-0.4,0.2-0.8,0.2-1-0.2
					c-0.2-0.6-0.6-1-0.4-1.6c0-0.2,0.2-0.4,0.4-0.4c0.2-0.2,0.4-0.2,0.6-0.4c2-1,4-2.2,5.9-3.4c0.2,0,0.4-0.2,0.6-0.2
					C566.4,611.4,567,612,567.2,612.8z"/>
				<path class="st15" d="M461.8,676.6c-0.2,0.2-0.2,0.2-0.4,0.4c-0.2,0.2-0.6,0.4-0.8,0.6c-1.2,0.6-2.4,1.4-3.6,2
					c-0.8,0.4-1.6,1-2.4,1.4c-0.8,0.4-1,0.2-1.4-0.4c0-0.2-0.2-0.2-0.2-0.4c-0.2-0.6-0.2-0.8,0.4-1.2c2.2-1.4,4.4-2.6,6.5-3.8
					c0.2,0,0.4-0.2,0.6-0.2C461.4,675,462.2,676,461.8,676.6z"/>
				<path class="st15" d="M513.1,643.3c1.2-0.8,2.2-1.4,3.4-2s2.2-1.2,3.4-1.8c0.8-0.4,1-0.2,1.6,0.6c0.4,0.6,0.4,0.8-0.4,1.2
					c-1.6,0.8-3,1.8-4.6,2.6c-0.6,0.4-1.4,0.8-2,1.2c-0.4,0.2-0.6,0.4-1,0.2c-0.4-0.4-0.6-1-0.8-1.4
					C512.7,643.5,512.9,643.3,513.1,643.3z"/>
				<path class="st15" d="M448.2,676.8c0.2,0.2,0.4,0.4,0.4,0.6c0.4,0.8,0.2,1-0.4,1.4c-1.2,0.6-2.2,1.2-3.4,1.8
					c-1.2,0.8-2.2,1.4-3.4,2c-0.4,0.2-0.8,0.2-1.2-0.4c0,0-0.2-0.2-0.2-0.4c-0.4-0.4-0.4-0.6,0.2-1c0.6-0.4,1-0.6,1.6-1
					c1.8-1,3.6-2,5.3-3c0.2,0,0.4-0.2,0.6-0.2C448,676.8,448.2,676.8,448.2,676.8z"/>
				<path class="st15" d="M433.7,686.7c0.2,0.2,0.2,0.4,0.4,0.6c0.2,0.6,0.2,1-0.4,1.2c-2.2,1.2-4.4,2.4-6.5,3.6
					c-1,0.6-1.2,0.6-1.8-0.4c-0.6-0.6-0.4-0.8,0.2-1.2c0.8-0.6,1.8-1,2.8-1.6c1.4-0.8,2.6-1.4,4-2.2c0.2,0,0.4,0,0.6-0.2
					C432.9,686.7,433.3,686.9,433.7,686.7z"/>
				<path class="st15" d="M470,668.6c1-0.6,2.2-1.4,3.4-2c1-0.6,2.2-1.2,3.2-1.8c0.4-0.2,0.6-0.2,1,0c0.4,0.4,0.8,0.8,0.8,1.4
					c0,0.2,0,0.2-0.2,0.4c-0.2,0-0.2,0.2-0.4,0.2c-1.6,0.8-3,1.8-4.6,2.6c-0.6,0.4-1.4,0.8-2,1.2c-0.4,0.2-0.8,0.4-1,0.2
					c-0.2-0.2-0.6-0.8-0.8-1.2C469.4,669.2,469.8,669,470,668.6z"/>
				<path class="st15" d="M507.8,641.1c0.2,0.2,0.4,0.4,0.4,0.6c0.4,0.8,0.2,1-0.4,1.4c-1.2,0.8-2.2,1.4-3.4,2
					c-1,0.6-2.2,1.2-3.2,1.8c-0.6,0.4-1,0.2-1.4-0.4c-0.6-0.8-0.6-1,0.4-1.6c2.2-1.2,4.4-2.6,6.5-3.8c0.2,0,0.4,0,0.6-0.2
					C507.6,640.9,507.8,641.1,507.8,641.1z"/>
				<path class="st15" d="M421.1,693.6c0.4-0.4,0.8-0.6,1.2-1c0.4-0.2,0.6-0.2,0.8,0.2c0.2,0.2,0.2,0.6,0.4,0.8
					c0.8,1.4,1.8,3,2.6,4.4c1,1.4,0.4,1.4-0.6,2c-0.4,0.2-0.8,0.2-1-0.2c-0.2-0.2-0.4-0.6-0.6-1c-1-1.4-1.6-3-2.8-4.4
					c-0.2,0-0.2,0-0.2-0.2C420.9,694,420.9,693.8,421.1,693.6z"/>
				<path class="st15" d="M536.9,622.3c0,0,0.2-0.2,0.4-0.2c1-0.6,1-0.6,1.6,0.4c0.6,1,1.2,2.2,1.8,3.2c0.4,0.6,0.6,1.2,1,1.8
					c0.2,0.4,0.4,0.8,0,1.2c-0.2,0.2-0.4,0.6-0.8,0.8c-0.4,0.2-0.6,0.2-0.8-0.2c-0.2-0.4-0.2-0.6-0.4-0.8c-1-1.6-2-3.4-3-5
					c0-0.2,0-0.4-0.2-0.6C536.7,622.7,536.7,622.5,536.9,622.3z"/>
				<path class="st15" d="M477.3,658.3c0.2-0.2,0.4-0.2,0.6-0.4c0.6-0.4,0.8-0.4,1.2,0.2c0.6,1.2,1.4,2.2,2,3.4
					c0.4,0.6,0.6,1.2,1,1.8c0.2,0.4,0.2,0.6,0,1c-0.2,0.2-0.4,0.6-0.8,0.8c-0.4,0.2-0.6,0.2-0.8-0.2c-0.2-0.2-0.4-0.6-0.6-1
					c-1-1.6-1.8-3.2-2.8-4.8c0-0.2-0.2-0.4-0.2-0.6C477.1,658.3,477.1,658.1,477.3,658.3z"/>
				<path class="st15" d="M436.1,683.5c0.2-0.4,0.6-0.6,0.8-0.8c0.4-0.4,0.6-0.2,0.8,0.2c0.8,1.2,1.4,2.2,2,3.4
					c0.4,0.8,1,1.6,1.4,2.4c0.2,0.4,0.2,0.8-0.2,1c-0.2,0.2-0.4,0.2-0.6,0.4c-0.4,0.4-0.6,0.4-1-0.2c-0.4-0.6-0.6-1.2-1-1.8
					c-0.8-1-1.4-2-2-3.2c-0.2-0.2-0.2-0.6-0.4-0.8C436.1,683.9,436.1,683.7,436.1,683.5z"/>
				<path class="st15" d="M495.7,648c0.4-0.4,0.8-0.8,1.2-1.2c0.2-0.2,0.4,0,0.6,0.2c0.2,0.2,0.2,0.6,0.4,0.8c0.8,1.6,1.8,3,2.6,4.6
					c0.8,1.2,0.8,1.2-0.4,1.8c-0.6,0.2-0.8,0.2-1.2-0.4c-0.4-0.6-0.6-1-1-1.6c-0.8-1-1.4-2.2-2-3.2c0-0.2-0.2-0.4-0.2-0.6
					C495.7,648.4,495.7,648.2,495.7,648z"/>
				<path class="st15" d="M543.2,619.1c0.2-0.2,0.4-0.6,0.8-0.8c0.4-0.2,0.6-0.2,0.8,0.2c0.2,0.2,0.2,0.6,0.4,0.8
					c0.8,1.6,1.8,3,2.6,4.6c0.6,1.2,0.6,1.2-0.6,1.8c-0.6,0.4-0.8,0.4-1.2-0.2c-0.4-0.6-0.6-1.2-1-1.8c-0.8-1-1.4-2.2-2-3.2
					c-0.2-0.2-0.2-0.4-0.4-0.6C542.6,619.7,542.6,619.5,543.2,619.1z"/>
				<path class="st15" d="M568,604.5c0.8,1.4,1.8,3,2.6,4.4c0.6,1.2,0.6,1.4-0.4,2.4c-0.2,0.2-0.2,0.2-0.2,0.2
					c-0.4,0.4-0.6,0.2-0.8-0.2c-0.6-1.2-1.4-2.4-2-3.6c-0.6-0.6-1-1.4-1.4-2.2c-0.2-0.4-0.2-0.6,0-0.8c0.4-0.4,0.8-0.6,1.2-0.8
					C567.4,603.9,567.6,604.1,568,604.5z"/>
				<path class="st15" d="M523.6,638.7c-0.2-0.2-0.2-0.6-0.4-0.8c-0.8-1.8-1.8-3.4-2.8-5c-0.4-0.4-0.2-0.8,0.2-1
					c0.2,0,0.2-0.2,0.4-0.2c0.8-0.4,1-0.4,1.4,0.4c0.8,1.4,1.8,3,2.6,4.4c0.8,1.2,0.8,1.4-0.4,2.4l-0.2,0.2
					c-0.2,0.2-0.2,0.2-0.4,0.2C523.8,639.3,523.6,639.1,523.6,638.7z"/>
				<path class="st15" d="M460.9,668c0.2-0.2,0.4-0.2,0.6-0.4c0.8-0.4,0.8-0.4,1.4,0.4c0.6,1.2,1.2,2.2,1.8,3.2
					c0.2,0.6,0.6,1.2,1,1.8c0.2,0.4,0.2,0.8-0.2,1.2c-0.2,0.2-0.4,0.4-0.6,0.6c-0.4,0.4-0.6,0.2-0.8-0.2c-0.2-0.2-0.2-0.4-0.4-0.6
					c-1-1.6-2-3.4-3-5c0-0.2-0.2-0.4-0.2-0.6C460.7,668.4,460.7,668.2,460.9,668z"/>
			</g>
			<path class="st14" d="M599.3,578.1c-4-2.6-9.1-2.8-13.5-0.2L377.9,697.5c-4.4,2.6-6.7,7.1-6.7,11.7L599.3,578.1z"/>
		</g>
	</g>
	<path class="st16" d="M643.6,686.2c5.1,7.3,14,9.8,19.8,5.7c5.9-4.1,6.5-13.3,1.4-20.6s-14-9.8-19.8-5.7S638.5,678.9,643.6,686.2z"
		/>
	<path class="st17" d="M658.3,685c1.3,0,2.5-0.3,3.5-1c2.1-1.5,2.6-4,2.7-5.3c0.2-2.7-0.7-5.7-2.5-8.2c-2.4-3.4-5.9-5.5-9.3-5.5
		c-1.3,0-2.5,0.3-3.5,1c-3.5,2.5-3.6,8.7-0.1,13.5C651.4,682.9,655,685,658.3,685z"/>
	<path class="st16" d="M603.9,708.3c5.1,7.3,14,9.8,19.8,5.7c5.9-4.1,6.5-13.3,1.4-20.6s-14-9.8-19.8-5.7
		C599.5,691.8,598.9,701.1,603.9,708.3z"/>
	<path class="st17" d="M618.6,707.2c1.3,0,2.5-0.3,3.5-1c2.1-1.5,2.6-4,2.7-5.3c0.2-2.7-0.7-5.7-2.5-8.2c-2.4-3.4-5.9-5.5-9.3-5.5
		c-1.3,0-2.5,0.3-3.5,1c-3.5,2.5-3.6,8.7-0.1,13.5C611.7,705.1,615.3,707.2,618.6,707.2z"/>
	<path class="st16" d="M564.3,730.5c5.1,7.3,14,9.8,19.8,5.7c5.9-4.1,6.5-13.3,1.4-20.6s-14-9.8-19.8-5.7
		C559.8,714,559.2,723.2,564.3,730.5z"/>
	<path class="st17" d="M579,729.3c1.3,0,2.5-0.3,3.5-1c2.1-1.5,2.6-4,2.7-5.3c0.2-2.7-0.7-5.7-2.5-8.2c-2.4-3.4-5.9-5.5-9.3-5.5
		c-1.3,0-2.5,0.3-3.5,1c-3.5,2.5-3.6,8.7-0.1,13.5C572.1,727.2,575.6,729.3,579,729.3z"/>
	<path class="st16" d="M530.4,565.4c3.2,5.6,13.5,5.7,23,0.2s14.6-14.4,11.3-20c-3.2-5.6-13.5-5.7-23-0.2
		C532.2,550.8,527.2,559.8,530.4,565.4z"/>
	<path class="st17" d="M541,560.8c3.4,0,7.5-1.2,11.2-3.4c7.7-4.4,10.8-10.8,9.5-13.1c-0.6-1.1-2.5-1.7-4.9-1.7
		c-3.4,0-7.5,1.2-11.2,3.4c-3.8,2.2-6.9,5.1-8.6,8.1c-1.2,2.1-1.5,4-0.9,5C536.6,560.1,538.5,560.8,541,560.8z"/>
	<path class="st16" d="M473.3,600.4c3.2,5.6,13.5,5.7,23,0.2s14.6-14.4,11.3-20c-3.2-5.6-13.5-5.7-23-0.2
		C475.1,585.9,470.1,594.9,473.3,600.4z"/>
	<path class="st17" d="M483.9,595.8c3.4,0,7.5-1.2,11.2-3.4c7.7-4.4,10.8-10.8,9.5-13.1c-0.6-1.1-2.5-1.7-4.9-1.7
		c-3.4,0-7.5,1.2-11.2,3.4c-3.8,2.2-6.9,5.1-8.6,8.1c-1.2,2.1-1.5,4-0.9,5C479.5,595.2,481.4,595.8,483.9,595.8z"/>
	<path class="st16" d="M414.2,634.5c3.2,5.6,13.5,5.7,23,0.2s14.6-14.4,11.3-20c-3.2-5.6-13.5-5.7-23-0.2
		C416.1,620,411,629,414.2,634.5z"/>
	<path class="st17" d="M424.8,629.9c3.4,0,7.5-1.2,11.2-3.4c7.7-4.4,10.8-10.8,9.5-13.1c-0.6-1.1-2.5-1.7-4.9-1.7
		c-3.4,0-7.4,1.2-11.2,3.4c-3.8,2.2-6.9,5.1-8.6,8.1c-1.2,2.1-1.5,4-0.9,5C420.5,629.3,422.4,629.9,424.8,629.9z"/>
	<path class="st16" d="M355.2,668.6c3.2,5.6,13.5,5.7,23,0.2s14.6-14.4,11.3-20c-3.2-5.6-13.5-5.7-23-0.2S351.9,663.1,355.2,668.6z"
		/>
	<path class="st17" d="M365.7,664c3.4,0,7.5-1.2,11.2-3.4c7.7-4.4,10.8-10.8,9.5-13.1c-0.6-1.1-2.5-1.7-4.9-1.7
		c-3.4,0-7.5,1.2-11.2,3.4c-3.8,2.2-6.9,5.1-8.6,8.1c-1.2,2.1-1.5,4-0.9,5C361.4,663.4,363.3,664,365.7,664z"/>
</g>
</svg>
