<?xml version="1.0" encoding="utf-8"?>
<!-- Generator: Adobe Illustrator 24.1.0, SVG Export Plug-In . SVG Version: 6.00 Build 0)  -->
<svg version="1.1" id="Capa_1" xmlns="http://www.w3.org/2000/svg" xmlns:xlink="http://www.w3.org/1999/xlink" x="0px" y="0px"
	 viewBox="0 0 721 979" style="enable-background:new 0 0 721 979;" xml:space="preserve">
<style type="text/css">
	.st0{opacity:0.8;fill:#FFFFFF;stroke:#000000;stroke-miterlimit:10;enable-background:new    ;}
	.st1{fill:#FFFFFF;stroke:#FF6600;stroke-width:0.75;stroke-miterlimit:10;}
	.st2{fill:#FFFFFF;stroke:#FF6600;stroke-width:0.75;stroke-miterlimit:9.9999;}
	.st3{fill:#FF2A2A;}
	.st4{fill:#032836;}
	.st5{font-family:'FiraSans-Bold';}
	.st6{font-size:25px;}
	.st7{opacity:0.5;}
	.st8{fill:#F4F9F9;stroke:#8FB5BC;stroke-miterlimit:10;}
	.st9{fill:#8FB5BC;}
	.st10{fill:#7D46D3;}
	.st11{fill:#9664D9;}
	.st12{fill:#7F9337;}
	.st13{fill:#91AC41;}
</style>
<path class="st0" d="M210.9,366.3v70.4c0,3.6,1.5,6.9,4,8.9l8.1,6.5c5.4,4.3,5.4,5.5,0,9.9l-8.1,6.5c-2.5,2-4,5.4-4,8.9v81
	c0,6-1.2,7.9-6.5,7.9H9.1c-5.2,0-6.5-1.9-6.5-7.9V366.3c0-6,1.2-7.9,6.5-7.9h195.3C209.7,358.4,210.9,360.3,210.9,366.3z"/>
<g>
	<circle class="st1" cx="171.3" cy="430.5" r="12.9"/>
	<ellipse class="st2" cx="107.5" cy="387.1" rx="12.9" ry="12.9"/>
	<circle class="st1" cx="78" cy="468.3" r="12.9"/>
	<circle class="st1" cx="126.9" cy="393.9" r="12.9"/>
	<circle class="st1" cx="55.1" cy="476.7" r="12.9"/>
	<circle class="st1" cx="144.3" cy="408.4" r="12.9"/>
	<circle class="st1" cx="101.1" cy="441.9" r="12.9"/>
	<circle class="st1" cx="153.5" cy="447.2" r="12.9"/>
	<circle class="st1" cx="126.3" cy="414.7" r="12.9"/>
	<circle class="st1" cx="122.7" cy="432.8" r="12.9"/>
	<circle class="st1" cx="102.2" cy="465.6" r="12.9"/>
	<circle class="st1" cx="134.2" cy="454.8" r="12.9"/>
	<ellipse class="st3" cx="114.2" cy="453.4" rx="12.9" ry="12.9"/>
	<circle class="st1" cx="174.6" cy="449.7" r="12.9"/>
</g>
<path class="st0" d="M413.1,240.2v70.4c0,3.6-1.5,6.9-4,8.9L401,326c-5.4,4.3-5.4,5.5,0,9.9l8.1,6.5c2.5,2,4,5.4,4,8.9v81
	c0,6,1.2,7.9,6.5,7.9h195.3c5.2,0,6.5-1.9,6.5-7.9V240.2c0-6-1.2-7.9-6.5-7.9H419.6C414.4,232.3,413.1,234.2,413.1,240.2z"/>
<g>
	<circle class="st1" cx="565.6" cy="304.4" r="12.9"/>
	
		<ellipse transform="matrix(0.1602 -0.9871 0.9871 0.1602 163.7908 714.5129)" class="st2" cx="501.8" cy="261" rx="12.9" ry="12.9"/>
	<circle class="st1" cx="472.3" cy="342.2" r="12.9"/>
	
		<ellipse transform="matrix(0.1602 -0.9871 0.9871 0.1602 173.4697 739.2892)" class="st3" cx="521.2" cy="267.7" rx="12.9" ry="12.9"/>
	<circle class="st1" cx="449.4" cy="350.6" r="12.9"/>
	<circle class="st1" cx="538.6" cy="282.3" r="12.9"/>
	<circle class="st1" cx="495.4" cy="315.8" r="12.9"/>
	<circle class="st1" cx="547.8" cy="321.1" r="12.9"/>
	
		<ellipse transform="matrix(0.1602 -0.9871 0.9871 0.1602 152.3357 756.2491)" class="st1" cx="520.6" cy="288.6" rx="12.9" ry="12.9"/>
	
		<ellipse transform="matrix(0.1602 -0.9871 0.9871 0.1602 131.4461 767.8964)" class="st1" cx="517" cy="306.7" rx="12.9" ry="12.9"/>
	<circle class="st1" cx="496.5" cy="339.5" r="12.9"/>
	<circle class="st1" cx="528.5" cy="328.7" r="12.9"/>
	
		<ellipse transform="matrix(0.1602 -0.9871 0.9871 0.1602 103.9737 776.8063)" class="st1" cx="508.5" cy="327.3" rx="12.9" ry="12.9"/>
	<circle class="st1" cx="568.9" cy="323.5" r="12.9"/>
</g>
<text transform="matrix(1 0 0 1 437.8701 394.1168)" class="st4 st5 st6">Mutacions del</text>
<text transform="matrix(1 0 0 1 465.4701 424.1168)" class="st4 st5 st6">pacient 2</text>
<text transform="matrix(1 0 0 1 28.8016 518.5406)" class="st4 st5 st6">Mutacions del</text>
<text transform="matrix(1 0 0 1 56.4016 548.5406)" class="st4 st5 st6">pacient 1</text>
<g id="Capa_1_1_">
	<g id="Capa_9">
		<g>
			<g class="st7">
				<g>
					<path class="st8" d="M271.5,301.2c11.3,0.4,24.9,1.6,32.8,10.6c1.7,2.3,1.6,4.7,1.6,7.4c-0.2,5,0.4,10.1-0.3,15.1
						c-1,3.5-4.3,6-7.3,7.6c-0.4,0.3-0.7,0.7-0.7,1.2c0,10.5,0,21.2,0,31.7c0,40.9,0,81.8,0,122.8c-0.6,40.6-51.7,40.7-52.3,0
						c0-36.8,0-73.7,0-110.5c0-14.7,0-29.3,0-44c0-0.5-0.3-1-0.7-1.2c-4-2.1-8.1-5.6-7.6-10.5c0-3.7,0-7.4,0-11.1
						c0-2.5-0.4-5.1,0.9-7.4C245.3,302.8,260,301.7,271.5,301.2"/>
				</g>
				<path class="st9" d="M296.4,316.4c0.4,11.6-49.8,11.6-49.4,0C246.6,304.8,296.8,304.8,296.4,316.4z"/>
			</g>
			<path class="st10" d="M271.9,522.8c-12.4,0-22.4-10-22.4-22.4v-85.9h44.4v86.1C294,512.9,284.1,522.8,271.9,522.8z"/>
			<path class="st11" d="M294,414.7c0.4,9.2-45,9.2-44.5,0C248.9,405.5,294.4,405.5,294,414.7z"/>
		</g>
	</g>
	<g id="Capa_14">
	</g>
	<g id="Capa_6">
	</g>
	<g id="Capa_3">
	</g>
</g>
<g id="Capa_1_2_">
	<g id="Capa_9_1_">
		<g>
			<g class="st7">
				<g>
					<path class="st8" d="M350.5,274.9c11.3,0.4,24.9,1.6,32.8,10.6c1.7,2.3,1.6,4.7,1.6,7.4c-0.2,5,0.4,10.1-0.3,15.1
						c-1,3.5-4.3,6-7.3,7.6c-0.4,0.3-0.7,0.7-0.7,1.2c0,10.5,0,21.2,0,31.7c0,40.9,0,81.8,0,122.8c-0.6,40.6-51.7,40.7-52.3,0
						c0-36.8,0-73.7,0-110.5c0-14.7,0-29.3,0-44c0-0.5-0.3-1-0.7-1.2c-4-2.1-8.1-5.6-7.6-10.5c0-3.7,0-7.4,0-11.1
						c0-2.5-0.4-5.1,0.9-7.4C324.4,276.4,339,275.4,350.5,274.9"/>
				</g>
				<path class="st9" d="M375.5,290.1c0.4,11.6-49.8,11.6-49.4,0C325.6,278.5,375.8,278.5,375.5,290.1z"/>
			</g>
			<path class="st12" d="M350.9,496.5c-12.4,0-22.4-10-22.4-22.4v-85.9h44.4v86.1C373,486.6,363.1,496.5,350.9,496.5z"/>
			<path class="st13" d="M373,388.4c0.4,9.2-45,9.2-44.5,0C328,379.2,373.5,379.2,373,388.4z"/>
		</g>
	</g>
	<g id="Capa_14_1_">
	</g>
	<g id="Capa_6_1_">
	</g>
	<g id="Capa_3_1_">
	</g>
</g>
</svg>
