<?xml version="1.0" encoding="utf-8"?>
<!-- Generator: Adobe Illustrator 24.1.0, SVG Export Plug-In . SVG Version: 6.00 Build 0)  -->
<svg version="1.1" id="Capa_1" xmlns="http://www.w3.org/2000/svg" xmlns:xlink="http://www.w3.org/1999/xlink" x="0px" y="0px"
	 viewBox="0 0 721 979" style="enable-background:new 0 0 721 979;" xml:space="preserve">
<style type="text/css">
	.st0{opacity:0.8;fill:#FFFFFF;stroke:#000000;stroke-miterlimit:10;enable-background:new    ;}
	.st1{enable-background:new    ;}
	.st2{fill:#032836;}
	.st3{opacity:0.5;}
	.st4{fill:#F4F9F9;stroke:#8FB5BC;stroke-miterlimit:10;}
	.st5{opacity:0.25;fill:#8FB5BC;enable-background:new    ;}
	.st6{opacity:0.1;fill:#8FB5BC;enable-background:new    ;}
	.st7{fill:#DFE8E8;enable-background:new    ;}
	.st8{fill:#F4F9F9;}
	.st9{opacity:0.1;fill:#CAD8D8;enable-background:new    ;}
	.st10{fill:#7D46D3;}
	.st11{fill:#7F9337;}
</style>
<path class="st0" d="M210.9,406.3v30.4c0,3.6,1.5,6.9,4,8.9l8.1,6.5c5.4,4.3,5.4,5.5,0,9.9l-8.1,6.5c-2.5,2-4,5.4-4,8.9v33
	c0,6-1.2,7.9-6.5,7.9H9.1c-5.2,0-6.5-1.9-6.5-7.9V406.3c0-6,1.2-7.9,6.5-7.9h195.3C209.7,398.4,210.9,400.3,210.9,406.3z"/>
<path class="st0" d="M413.1,280.2v30.4c0,3.6-1.5,6.9-4,8.9L401,326c-5.4,4.3-5.4,5.5,0,9.9l8.1,6.5c2.5,2,4,5.4,4,8.9v33
	c0,6,1.2,7.9,6.5,7.9h195.3c5.2,0,6.5-1.9,6.5-7.9V280.2c0-6-1.2-7.9-6.5-7.9H419.6C414.4,272.3,413.1,274.2,413.1,280.2z"/>
<g class="st1">
	<path class="st2" d="M456.7,324.1h-4l-0.3-6.8c-0.1-1.6-0.1-3.1-0.1-4.3c0-1,0-1.9,0.1-2.8l-2.7,12h-3.9l-2.8-12
		c0.1,1.4,0.2,2.8,0.2,4.1c0,1,0,2-0.1,3l-0.3,6.7h-4l1.3-17.3h5.2l2.6,11.8l2.4-11.8h5.2L456.7,324.1z"/>
	<path class="st2" d="M470.3,324.1h-3.4l-0.2-1.7c-1,1.4-2.3,2.1-4,2.1c-1.2,0-2.1-0.4-2.8-1.1s-0.9-1.8-0.9-3.1v-9.5h4v9
		c0,0.7,0.1,1.1,0.3,1.4c0.2,0.3,0.5,0.4,1,0.4c0.8,0,1.5-0.5,2.1-1.5v-9.2h4v13.2L470.3,324.1L470.3,324.1z"/>
	<path class="st2" d="M481.7,323.5c-0.5,0.3-1,0.6-1.7,0.8c-0.6,0.2-1.3,0.3-1.9,0.3c-2.9,0-4.4-1.6-4.4-4.8v-6.2h-1.9v-2.8h1.9V308
		l4-0.4v3.3h3l-0.4,2.8h-2.6v6.1c0,0.6,0.1,1.1,0.3,1.3c0.2,0.3,0.5,0.4,1,0.4s0.9-0.1,1.4-0.4L481.7,323.5z"/>
	<path class="st2" d="M493.5,321.4c0.1,0.2,0.4,0.4,0.7,0.5l-0.8,2.6c-0.8-0.1-1.5-0.2-2-0.5s-0.9-0.8-1.2-1.4c-0.9,1.3-2.2,2-4,2
		c-1.3,0-2.4-0.4-3.2-1.1c-0.8-0.8-1.2-1.8-1.2-3c0-1.5,0.5-2.6,1.6-3.3s2.6-1.2,4.6-1.2h1.4v-0.6c0-0.8-0.2-1.3-0.5-1.6
		c-0.3-0.3-0.9-0.4-1.8-0.4c-0.4,0-1,0.1-1.6,0.2s-1.2,0.3-1.9,0.5l-0.9-2.6c0.8-0.3,1.7-0.6,2.6-0.7c0.9-0.2,1.7-0.2,2.4-0.2
		c1.9,0,3.3,0.4,4.2,1.2c0.9,0.8,1.3,2,1.3,3.5v5.2C493.3,320.8,493.3,321.1,493.5,321.4z M489.4,320.4V318h-1c-0.9,0-1.6,0.2-2,0.5
		s-0.7,0.8-0.7,1.5c0,0.5,0.1,0.9,0.4,1.2c0.3,0.3,0.7,0.4,1.1,0.4C488.2,321.7,488.9,321.3,489.4,320.4z"/>
	<path class="st2" d="M504.6,310.8c0.7,0.3,1.4,0.7,2.1,1.2l-1.7,2.4c-0.8-0.6-1.7-1-2.5-1c-0.9,0-1.5,0.3-2,1s-0.7,1.7-0.7,3.2
		c0,1.4,0.2,2.4,0.7,3s1.1,0.9,2,0.9c0.4,0,0.9-0.1,1.2-0.2c0.4-0.1,0.8-0.4,1.3-0.7l1.7,2.4c-1.3,1.1-2.8,1.6-4.5,1.6
		c-1.4,0-2.5-0.3-3.5-0.9s-1.7-1.4-2.3-2.4s-0.8-2.3-0.8-3.7c0-1.4,0.3-2.6,0.8-3.7s1.3-1.9,2.3-2.5s2.1-0.9,3.4-0.9
		C503.1,310.4,503.9,310.6,504.6,310.8z"/>
	<path class="st2" d="M512,304.5c0.4,0.4,0.7,1,0.7,1.6c0,0.7-0.2,1.2-0.7,1.6c-0.4,0.4-1,0.6-1.7,0.6s-1.2-0.2-1.7-0.6
		c-0.4-0.4-0.7-1-0.7-1.6s0.2-1.2,0.7-1.6s1-0.6,1.7-0.6S511.6,304.1,512,304.5z M512.3,310.8v13.3h-4v-13.3H512.3z"/>
	<path class="st2" d="M526,312.3c1.2,1.2,1.7,3,1.7,5.2c0,1.4-0.3,2.7-0.8,3.7s-1.3,1.9-2.2,2.5s-2.1,0.9-3.5,0.9
		c-2,0-3.6-0.6-4.8-1.9c-1.2-1.2-1.7-3-1.7-5.2c0-1.4,0.3-2.7,0.8-3.7c0.5-1.1,1.3-1.9,2.2-2.5c1-0.6,2.1-0.9,3.5-0.9
		C523.2,310.4,524.8,311,526,312.3z M519.4,314.3c-0.4,0.7-0.6,1.7-0.6,3.1c0,1.5,0.2,2.5,0.6,3.2c0.4,0.7,1,1,1.8,1s1.4-0.3,1.8-1
		c0.4-0.7,0.6-1.7,0.6-3.1c0-1.5-0.2-2.5-0.6-3.2s-1-1-1.8-1S519.8,313.7,519.4,314.3z"/>
	<path class="st2" d="M540.5,311.5c0.7,0.7,1,1.7,1,3v9.7h-4v-9c0-0.7-0.1-1.1-0.3-1.4s-0.5-0.4-0.9-0.4c-0.8,0-1.6,0.6-2.3,1.7v9.1
		h-4v-13.3h3.5l0.3,1.6c0.6-0.7,1.2-1.2,1.8-1.5c0.7-0.3,1.4-0.5,2.2-0.5C539,310.4,539.9,310.8,540.5,311.5z"/>
	<path class="st2" d="M551.8,310.8c0.8,0.3,1.6,0.7,2.2,1.2l-1.5,2.2c-1.1-0.7-2.2-1-3.3-1c-0.5,0-0.9,0.1-1.2,0.3
		c-0.3,0.2-0.4,0.4-0.4,0.7c0,0.2,0.1,0.5,0.2,0.6c0.1,0.2,0.4,0.3,0.8,0.5c0.4,0.2,1,0.4,1.8,0.6c1.4,0.4,2.4,0.9,3.1,1.6
		c0.7,0.6,1,1.5,1,2.7c0,0.9-0.3,1.7-0.8,2.3c-0.5,0.7-1.2,1.2-2.1,1.5c-0.9,0.3-1.9,0.5-3,0.5s-2.2-0.2-3.1-0.5
		c-1-0.4-1.8-0.8-2.4-1.5l1.9-2.2c1.1,0.9,2.3,1.3,3.5,1.3c0.6,0,1.1-0.1,1.4-0.3c0.3-0.2,0.5-0.5,0.5-0.9c0-0.3-0.1-0.6-0.2-0.8
		c-0.1-0.2-0.4-0.4-0.8-0.5c-0.4-0.2-1-0.4-1.8-0.6c-1.3-0.4-2.3-0.9-3-1.6c-0.6-0.7-1-1.5-1-2.6c0-0.8,0.2-1.5,0.7-2.1
		c0.4-0.6,1.1-1.1,1.9-1.4s1.8-0.5,2.9-0.5C550.1,310.4,551,310.6,551.8,310.8z"/>
	<path class="st2" d="M574.4,305.6v18.5h-3.5l-0.2-1.5c-0.9,1.3-2.2,2-3.8,2c-1.7,0-2.9-0.6-3.8-1.9s-1.3-3-1.3-5.2
		c0-1.4,0.2-2.6,0.7-3.6c0.4-1.1,1.1-1.9,1.9-2.5c0.8-0.6,1.8-0.9,2.8-0.9c1.3,0,2.3,0.4,3.1,1.2v-6.5L574.4,305.6z M570.4,320.1
		v-5.7c-0.3-0.4-0.6-0.7-1-0.8c-0.3-0.2-0.7-0.3-1.1-0.3c-0.7,0-1.3,0.3-1.8,1s-0.6,1.7-0.6,3.1c0,1.6,0.2,2.6,0.6,3.2
		c0.4,0.6,0.9,0.9,1.6,0.9C569,321.6,569.8,321.1,570.4,320.1z"/>
	<path class="st2" d="M589,318.6h-8.2c0.1,1.1,0.5,1.9,1,2.3s1.2,0.7,2.1,0.7c0.5,0,1-0.1,1.5-0.3s1-0.5,1.6-0.9l1.6,2.2
		c-1.5,1.2-3.3,1.8-5.2,1.8c-2.2,0-3.8-0.6-5-1.9s-1.7-3-1.7-5.1c0-1.3,0.2-2.6,0.7-3.6c0.5-1.1,1.2-1.9,2.1-2.5
		c0.9-0.6,2-0.9,3.3-0.9c1.9,0,3.4,0.6,4.5,1.8c1.1,1.2,1.6,2.9,1.6,5C589,317.8,589,318.2,589,318.6z M585.2,316.1c0-2-0.8-3-2.1-3
		c-0.7,0-1.2,0.2-1.6,0.8s-0.6,1.3-0.7,2.5h4.4L585.2,316.1L585.2,316.1z"/>
	<path class="st2" d="M592.1,323.6c-0.6-0.7-1-1.6-1-2.8v-15.2l4-0.4v15.4c0,0.6,0.2,0.8,0.7,0.8c0.2,0,0.5,0,0.7-0.1l0.8,2.8
		c-0.7,0.3-1.5,0.5-2.4,0.5C593.6,324.5,592.7,324.2,592.1,323.6z"/>
</g>
<g class="st1">
	<path class="st2" d="M478.2,342.3c0.8,1.2,1.2,3,1.2,5.2c0,1.4-0.2,2.6-0.6,3.7s-1,1.9-1.8,2.5s-1.7,0.9-2.8,0.9
		c-1.3,0-2.4-0.5-3.2-1.4v6.1l-4,0.4v-18.8h3.5l0.2,1.5c0.5-0.7,1.1-1.1,1.8-1.4s1.4-0.5,2-0.5C476.2,340.4,477.4,341,478.2,342.3z
		 M475.4,347.5c0-1.6-0.2-2.7-0.5-3.3c-0.3-0.6-0.9-0.9-1.6-0.9c-0.4,0-0.9,0.1-1.3,0.4s-0.7,0.7-1,1.2v5.6c0.5,0.8,1.2,1.2,2,1.2
		C474.6,351.6,475.4,350.3,475.4,347.5z"/>
	<path class="st2" d="M492.5,351.4c0.1,0.2,0.4,0.4,0.7,0.5l-0.8,2.6c-0.8-0.1-1.5-0.2-2-0.5s-0.9-0.8-1.2-1.4c-0.9,1.3-2.2,2-4,2
		c-1.3,0-2.4-0.4-3.2-1.1c-0.8-0.8-1.2-1.8-1.2-3c0-1.5,0.5-2.6,1.6-3.3s2.6-1.2,4.6-1.2h1.4v-0.6c0-0.8-0.2-1.3-0.5-1.6
		c-0.3-0.3-0.9-0.4-1.8-0.4c-0.4,0-1,0.1-1.6,0.2s-1.2,0.3-1.9,0.5l-0.9-2.6c0.8-0.3,1.7-0.6,2.6-0.7c0.9-0.2,1.7-0.2,2.4-0.2
		c1.9,0,3.3,0.4,4.2,1.2c0.9,0.8,1.3,2,1.3,3.5v5.2C492.2,350.8,492.3,351.1,492.5,351.4z M488.4,350.4V348h-1c-0.9,0-1.6,0.2-2,0.5
		s-0.7,0.8-0.7,1.5c0,0.5,0.1,0.9,0.4,1.2c0.3,0.3,0.7,0.4,1.1,0.4C487.2,351.7,487.9,351.3,488.4,350.4z"/>
	<path class="st2" d="M503.6,340.8c0.7,0.3,1.4,0.7,2.1,1.2l-1.7,2.4c-0.8-0.6-1.7-1-2.5-1c-0.9,0-1.5,0.3-2,1s-0.7,1.7-0.7,3.2
		c0,1.4,0.2,2.4,0.7,3s1.1,0.9,2,0.9c0.4,0,0.9-0.1,1.2-0.2c0.4-0.1,0.8-0.4,1.3-0.7l1.7,2.4c-1.3,1.1-2.8,1.6-4.5,1.6
		c-1.4,0-2.5-0.3-3.5-0.9s-1.7-1.4-2.3-2.4s-0.8-2.3-0.8-3.7c0-1.4,0.3-2.6,0.8-3.7s1.3-1.9,2.3-2.5s2.1-0.9,3.4-0.9
		C502.1,340.4,502.9,340.6,503.6,340.8z"/>
	<path class="st2" d="M511,334.5c0.4,0.4,0.7,1,0.7,1.6c0,0.7-0.2,1.2-0.7,1.6c-0.4,0.4-1,0.6-1.7,0.6s-1.2-0.2-1.7-0.6
		c-0.4-0.4-0.7-1-0.7-1.6s0.2-1.2,0.7-1.6c0.4-0.4,1-0.6,1.7-0.6C510,333.8,510.6,334.1,511,334.5z M511.3,340.8v13.3h-4v-13.3
		H511.3z"/>
	<path class="st2" d="M525.9,348.6h-8.2c0.1,1.1,0.4,1.9,0.9,2.3s1.2,0.7,2.1,0.7c0.5,0,1-0.1,1.5-0.3s1-0.5,1.6-0.9l1.6,2.2
		c-1.5,1.2-3.3,1.8-5.2,1.8c-2.1,0-3.8-0.6-5-1.9c-1.1-1.3-1.7-3-1.7-5.1c0-1.3,0.2-2.6,0.7-3.6c0.5-1.1,1.2-1.9,2.1-2.5
		s2.1-0.9,3.4-0.9c1.9,0,3.4,0.6,4.5,1.8c1.1,1.2,1.6,2.9,1.6,5C526,347.8,526,348.2,525.9,348.6z M522.1,346.1c0-2-0.8-3-2.2-3
		c-0.7,0-1.2,0.2-1.6,0.8s-0.6,1.3-0.7,2.5h4.4L522.1,346.1L522.1,346.1z"/>
	<path class="st2" d="M538.7,341.5c0.7,0.7,1,1.7,1,3v9.7h-4v-9c0-0.7-0.1-1.1-0.3-1.4s-0.5-0.4-0.9-0.4c-0.8,0-1.6,0.6-2.3,1.7v9.1
		h-4v-13.3h3.5l0.3,1.6c0.6-0.7,1.2-1.2,1.8-1.5c0.7-0.3,1.4-0.5,2.2-0.5C537.1,340.4,538,340.8,538.7,341.5z"/>
	<path class="st2" d="M551,353.5c-0.5,0.3-1,0.6-1.7,0.8c-0.6,0.2-1.3,0.3-1.9,0.3c-2.9,0-4.3-1.6-4.3-4.8v-6.2h-1.9v-2.8h1.9V338
		l4-0.4v3.3h3l-0.4,2.8H547v6.1c0,0.6,0.1,1.1,0.3,1.3s0.5,0.4,1,0.4s0.9-0.1,1.4-0.4L551,353.5z"/>
	<path class="st2" d="M565.8,337.5c0.9,0.4,1.5,1,2,1.8c0.5,0.7,0.7,1.5,0.7,2.4s-0.2,1.8-0.5,2.6c-0.4,0.8-1,1.8-2,2.8
		c-0.9,1.1-2.3,2.4-4.1,4h6.9l-0.4,3h-11v-2.8c2-2,3.5-3.5,4.5-4.6c0.9-1,1.6-1.9,2-2.6s0.6-1.4,0.6-2.1s-0.2-1.2-0.6-1.6
		s-0.9-0.6-1.6-0.6c-0.6,0-1.1,0.1-1.6,0.4s-1,0.7-1.5,1.3l-2.3-1.9c0.7-0.9,1.5-1.6,2.5-2.1s2.1-0.8,3.3-0.8
		S564.9,337.1,565.8,337.5z"/>
</g>
<g class="st1">
	<path class="st2" d="M47.6,448.5h-4l-0.3-6.8c-0.1-1.6-0.1-3.1-0.1-4.3c0-1,0-1.9,0.1-2.8l-2.7,12h-3.9l-2.9-12
		c0.1,1.4,0.2,2.8,0.2,4.1c0,1,0,2-0.1,3l-0.3,6.7h-4l1.3-17.3h5.2l2.6,11.8l2.4-11.8h5.2L47.6,448.5z"/>
	<path class="st2" d="M61.2,448.5h-3.4l-0.2-1.7c-1,1.4-2.3,2.1-4,2.1c-1.2,0-2.1-0.4-2.8-1.1s-0.9-1.8-0.9-3.1v-9.5h4v9
		c0,0.7,0.1,1.1,0.3,1.4c0.2,0.3,0.5,0.4,1,0.4c0.8,0,1.6-0.5,2.1-1.5v-9.2h4L61.2,448.5L61.2,448.5z"/>
	<path class="st2" d="M72.6,447.9c-0.5,0.3-1,0.6-1.7,0.8c-0.6,0.2-1.3,0.3-1.9,0.3c-2.9,0-4.4-1.6-4.4-4.8V438h-1.9v-2.8h1.9v-2.9
		l4-0.4v3.3h3l-0.4,2.8h-2.6v6.1c0,0.6,0.1,1.1,0.3,1.3c0.2,0.3,0.5,0.4,1,0.4s0.9-0.1,1.4-0.4L72.6,447.9z"/>
	<path class="st2" d="M84.4,445.8c0.1,0.2,0.4,0.4,0.7,0.5l-0.8,2.6c-0.8-0.1-1.5-0.2-2-0.5s-0.9-0.8-1.2-1.4c-0.9,1.3-2.2,2-4,2
		c-1.3,0-2.4-0.4-3.1-1.1c-0.8-0.8-1.2-1.8-1.2-3c0-1.5,0.5-2.6,1.6-3.3c1.1-0.8,2.6-1.2,4.6-1.2h1.4v-0.6c0-0.8-0.2-1.3-0.5-1.6
		c-0.3-0.3-0.9-0.4-1.8-0.4c-0.4,0-1,0.1-1.6,0.2s-1.2,0.3-1.9,0.5l-0.9-2.6c0.8-0.3,1.7-0.6,2.6-0.7c0.9-0.2,1.7-0.2,2.4-0.2
		c1.9,0,3.3,0.4,4.2,1.2c0.9,0.8,1.3,2,1.3,3.5v5.2C84.2,445.2,84.3,445.6,84.4,445.8z M80.3,444.9v-2.4h-1c-0.9,0-1.6,0.2-2,0.5
		s-0.7,0.8-0.7,1.5c0,0.5,0.1,0.9,0.4,1.2s0.7,0.4,1.1,0.4C79.1,446.1,79.8,445.7,80.3,444.9z"/>
	<path class="st2" d="M95.6,435.2c0.7,0.3,1.4,0.7,2.1,1.2l-1.7,2.4c-0.8-0.6-1.7-1-2.5-1c-0.9,0-1.5,0.3-2,1s-0.7,1.7-0.7,3.2
		c0,1.4,0.2,2.4,0.7,3s1.1,0.9,2,0.9c0.4,0,0.9-0.1,1.2-0.2s0.8-0.4,1.3-0.7l1.7,2.4c-1.3,1.1-2.8,1.6-4.5,1.6
		c-1.4,0-2.5-0.3-3.5-0.9s-1.7-1.4-2.3-2.4c-0.5-1-0.8-2.3-0.8-3.7c0-1.4,0.3-2.6,0.8-3.7s1.3-1.9,2.3-2.5s2.1-0.9,3.4-0.9
		C94,434.8,94.8,435,95.6,435.2z"/>
	<path class="st2" d="M103,428.9c0.4,0.4,0.7,1,0.7,1.6c0,0.7-0.2,1.2-0.7,1.6c-0.4,0.4-1,0.6-1.7,0.6s-1.2-0.2-1.7-0.6
		c-0.4-0.4-0.7-1-0.7-1.6s0.2-1.2,0.7-1.6c0.4-0.4,1-0.6,1.7-0.6S102.5,428.5,103,428.9z M103.3,435.3v13.3h-4v-13.3H103.3z"/>
	<path class="st2" d="M116.9,436.7c1.1,1.2,1.7,3,1.7,5.2c0,1.4-0.3,2.7-0.8,3.7c-0.5,1.1-1.3,1.9-2.2,2.5c-1,0.6-2.1,0.9-3.5,0.9
		c-2,0-3.6-0.6-4.8-1.9c-1.2-1.2-1.7-3-1.7-5.2c0-1.4,0.3-2.7,0.8-3.7s1.3-1.9,2.2-2.5c1-0.6,2.1-0.9,3.5-0.9
		C114.2,434.8,115.8,435.5,116.9,436.7z M110.3,438.8c-0.4,0.7-0.6,1.7-0.6,3.1c0,1.5,0.2,2.5,0.6,3.2c0.4,0.7,1,1,1.8,1
		s1.4-0.3,1.8-1s0.6-1.7,0.6-3.1c0-1.5-0.2-2.5-0.6-3.2s-1-1-1.8-1C111.3,437.7,110.7,438.1,110.3,438.8z"/>
	<path class="st2" d="M131.5,435.9c0.6,0.7,1,1.7,1,3v9.7h-4v-9c0-0.7-0.1-1.1-0.3-1.4s-0.5-0.4-0.9-0.4c-0.8,0-1.6,0.6-2.3,1.7v9.1
		h-4v-13.3h3.5l0.3,1.6c0.6-0.7,1.2-1.2,1.8-1.5c0.7-0.3,1.4-0.5,2.2-0.5C129.9,434.8,130.8,435.2,131.5,435.9z"/>
	<path class="st2" d="M142.8,435.3c0.8,0.3,1.6,0.7,2.2,1.2l-1.5,2.2c-1.1-0.7-2.2-1-3.3-1c-0.5,0-0.9,0.1-1.2,0.3s-0.4,0.4-0.4,0.7
		c0,0.2,0.1,0.5,0.2,0.6c0.1,0.2,0.4,0.3,0.8,0.5c0.4,0.2,1,0.4,1.8,0.6c1.4,0.4,2.4,0.9,3.1,1.6c0.7,0.6,1,1.5,1,2.7
		c0,0.9-0.3,1.7-0.8,2.3c-0.5,0.7-1.2,1.2-2.1,1.5c-0.9,0.3-1.9,0.5-3,0.5s-2.2-0.2-3.1-0.5c-1-0.4-1.8-0.8-2.4-1.5l1.9-2.2
		c1.1,0.9,2.3,1.3,3.5,1.3c0.6,0,1.1-0.1,1.4-0.3c0.3-0.2,0.5-0.5,0.5-0.9c0-0.3-0.1-0.6-0.2-0.8c-0.1-0.2-0.4-0.4-0.8-0.5
		s-1-0.4-1.8-0.6c-1.3-0.4-2.3-0.9-3-1.6s-1-1.5-1-2.6c0-0.8,0.2-1.5,0.7-2.1c0.4-0.6,1.1-1.1,1.9-1.4c0.8-0.4,1.8-0.5,2.9-0.5
		C141,434.8,141.9,435,142.8,435.3z"/>
	<path class="st2" d="M165.3,430v18.5h-3.5l-0.2-1.5c-0.9,1.3-2.2,2-3.8,2s-2.9-0.6-3.8-1.9s-1.3-3-1.3-5.2c0-1.4,0.2-2.6,0.7-3.6
		c0.4-1.1,1.1-1.9,1.9-2.5c0.8-0.6,1.8-0.9,2.8-0.9c1.3,0,2.3,0.4,3.1,1.2v-6.5L165.3,430z M161.4,444.6v-5.7
		c-0.3-0.4-0.6-0.7-1-0.8c-0.3-0.2-0.7-0.3-1.1-0.3c-0.7,0-1.3,0.3-1.8,1s-0.6,1.7-0.6,3.1c0,1.6,0.2,2.6,0.6,3.2
		c0.4,0.6,0.9,0.9,1.6,0.9C160,446.1,160.7,445.6,161.4,444.6z"/>
	<path class="st2" d="M179.9,443.1h-8.2c0.1,1.1,0.4,1.9,0.9,2.3s1.2,0.7,2.1,0.7c0.5,0,1-0.1,1.5-0.3s1-0.5,1.6-0.9l1.6,2.2
		c-1.5,1.2-3.3,1.8-5.2,1.8c-2.1,0-3.8-0.6-5-1.9s-1.7-3-1.7-5.1c0-1.3,0.2-2.6,0.7-3.6c0.5-1.1,1.2-1.9,2.1-2.5
		c0.9-0.6,2.1-0.9,3.4-0.9c1.9,0,3.4,0.6,4.5,1.8c1.1,1.2,1.6,2.9,1.6,5C180,442.2,180,442.7,179.9,443.1z M176.1,440.5
		c0-2-0.8-3-2.1-3c-0.7,0-1.2,0.2-1.6,0.8s-0.6,1.3-0.7,2.5h4.4L176.1,440.5L176.1,440.5z"/>
	<path class="st2" d="M183,448c-0.6-0.7-1-1.6-1-2.8V430l4-0.4V445c0,0.6,0.2,0.8,0.7,0.8c0.2,0,0.5,0,0.7-0.1l0.8,2.8
		c-0.7,0.3-1.5,0.5-2.4,0.5C184.6,449,183.7,448.6,183,448z"/>
</g>
<g class="st1">
	<path class="st2" d="M69.2,466.7c0.8,1.2,1.2,3,1.2,5.2c0,1.4-0.2,2.6-0.6,3.7c-0.4,1.1-1,1.9-1.8,2.5s-1.7,0.9-2.8,0.9
		c-1.3,0-2.4-0.5-3.2-1.4v6.1l-4,0.4v-18.8h3.5l0.2,1.5c0.5-0.7,1.1-1.1,1.8-1.4c0.7-0.3,1.4-0.5,2-0.5
		C67.1,464.8,68.4,465.5,69.2,466.7z M66.3,471.9c0-1.6-0.2-2.7-0.5-3.3s-0.9-0.9-1.6-0.9c-0.4,0-0.9,0.1-1.3,0.4
		c-0.4,0.3-0.7,0.7-1,1.2v5.6c0.5,0.8,1.2,1.2,2,1.2C65.5,476.1,66.3,474.7,66.3,471.9z"/>
	<path class="st2" d="M83.4,475.8c0.1,0.2,0.4,0.4,0.7,0.5l-0.8,2.6c-0.8-0.1-1.5-0.2-2-0.5s-0.9-0.8-1.2-1.4c-0.9,1.3-2.2,2-4,2
		c-1.3,0-2.4-0.4-3.1-1.1c-0.8-0.8-1.2-1.8-1.2-3c0-1.5,0.5-2.6,1.6-3.3c1.1-0.8,2.6-1.2,4.6-1.2h1.4v-0.6c0-0.8-0.2-1.3-0.5-1.6
		s-0.9-0.4-1.8-0.4c-0.4,0-1,0.1-1.6,0.2s-1.2,0.3-1.9,0.5l-0.9-2.6c0.8-0.3,1.7-0.6,2.6-0.7c0.9-0.2,1.7-0.2,2.4-0.2
		c1.9,0,3.3,0.4,4.2,1.2c0.9,0.8,1.3,2,1.3,3.5v5.2C83.2,475.2,83.2,475.6,83.4,475.8z M79.3,474.9v-2.4h-1c-0.9,0-1.6,0.2-2,0.5
		s-0.7,0.8-0.7,1.5c0,0.5,0.1,0.9,0.4,1.2s0.7,0.4,1.1,0.4C78.1,476.1,78.8,475.7,79.3,474.9z"/>
	<path class="st2" d="M94.6,465.2c0.7,0.3,1.4,0.7,2.1,1.2l-1.7,2.4c-0.8-0.6-1.7-1-2.5-1c-0.9,0-1.5,0.3-2,1s-0.7,1.7-0.7,3.2
		c0,1.4,0.2,2.4,0.7,3s1.1,0.9,2,0.9c0.4,0,0.9-0.1,1.2-0.2s0.8-0.4,1.3-0.7l1.7,2.4c-1.3,1.1-2.8,1.6-4.5,1.6
		c-1.4,0-2.5-0.3-3.5-0.9s-1.7-1.4-2.3-2.4c-0.5-1-0.8-2.3-0.8-3.7s0.3-2.6,0.8-3.7c0.5-1.1,1.3-1.9,2.3-2.5s2.1-0.9,3.4-0.9
		C93,464.8,93.8,465,94.6,465.2z"/>
	<path class="st2" d="M101.9,458.9c0.4,0.4,0.7,1,0.7,1.6c0,0.7-0.2,1.2-0.7,1.6c-0.4,0.4-1,0.6-1.7,0.6s-1.2-0.2-1.7-0.6
		c-0.4-0.4-0.7-1-0.7-1.6s0.2-1.2,0.7-1.6c0.4-0.4,1-0.6,1.7-0.6C100.9,458.3,101.5,458.5,101.9,458.9z M102.3,465.3v13.3h-4v-13.3
		H102.3z"/>
	<path class="st2" d="M116.9,473.1h-8.2c0.1,1.1,0.4,1.9,0.9,2.3s1.2,0.7,2.1,0.7c0.5,0,1-0.1,1.5-0.3s1-0.5,1.6-0.9l1.6,2.2
		c-1.5,1.2-3.3,1.8-5.2,1.8c-2.1,0-3.8-0.6-5-1.9s-1.7-3-1.7-5.1c0-1.3,0.2-2.6,0.7-3.6c0.5-1.1,1.2-1.9,2.1-2.5s2.1-0.9,3.4-0.9
		c1.9,0,3.4,0.6,4.5,1.8s1.6,2.9,1.6,5C116.9,472.2,116.9,472.7,116.9,473.1z M113.1,470.5c0-2-0.8-3-2.1-3c-0.7,0-1.2,0.2-1.6,0.8
		s-0.6,1.3-0.7,2.5h4.4C113.1,470.8,113.1,470.5,113.1,470.5z"/>
	<path class="st2" d="M129.6,465.9c0.6,0.7,1,1.7,1,3v9.7h-4v-9c0-0.7-0.1-1.1-0.3-1.4c-0.2-0.3-0.5-0.4-0.9-0.4
		c-0.8,0-1.6,0.6-2.3,1.7v9.1h-4v-13.3h3.5l0.3,1.6c0.6-0.7,1.2-1.2,1.8-1.5c0.7-0.3,1.4-0.5,2.2-0.5
		C128.1,464.8,129,465.2,129.6,465.9z"/>
	<path class="st2" d="M141.9,477.9c-0.5,0.3-1,0.6-1.7,0.8c-0.6,0.2-1.3,0.3-1.9,0.3c-2.9,0-4.4-1.6-4.4-4.8V468H132v-2.8h1.9v-2.9
		l4-0.4v3.3h3l-0.4,2.8h-2.6v6.1c0,0.6,0.1,1.1,0.3,1.3c0.2,0.3,0.5,0.4,1,0.4s0.9-0.1,1.4-0.4L141.9,477.9z"/>
	<path class="st2" d="M157.1,461.6v16.9h-3.9v-13l-3.6,2.2l-1.7-2.6l5.7-3.5L157.1,461.6L157.1,461.6z"/>
</g>
<g id="Capa_1_4_">
	<g id="Capa_9_3_">
		<g>
			<g class="st3">
				<g>
					<path class="st4" d="M271.6,301.8c11.3,0.4,24.9,1.6,32.8,10.6c1.7,2.3,1.6,4.7,1.6,7.4c-0.2,5,0.4,10.1-0.3,15.1
						c-1,3.5-4.3,6-7.3,7.6c-0.4,0.3-0.7,0.7-0.7,1.2c0,10.5,0,21.2,0,31.7c0,40.9,0,81.8,0,122.8c-0.6,40.6-51.7,40.7-52.3,0
						c0-36.8,0-73.7,0-110.5c0-14.7,0-29.3,0-44c0-0.5-0.3-1-0.7-1.2c-4-2.1-8.1-5.6-7.6-10.5c0-3.7,0-7.4,0-11.1
						c0-2.5-0.4-5.1,0.9-7.4C245.4,303.4,260.1,302.3,271.6,301.8"/>
				</g>
				<path class="st5" d="M296.5,317c0.4,11.6-49.8,11.6-49.4,0C246.7,305.4,296.9,305.4,296.5,317z"/>
			</g>
			<g>
				<path class="st6" d="M249.6,415.1v0.2C249.5,415.3,249.6,415.2,249.6,415.1L249.6,415.1z"/>
				<path class="st7" d="M249.6,415.3V501c0,12.4,10,22.4,22.4,22.4c12.2,0,22.1-9.9,22-22.2v-85
					C291.6,424.5,249.1,424.3,249.6,415.3z"/>
			</g>
			<path class="st8" d="M294.1,415.3c0.4,9.2-45,9.2-44.5,0C249,406.1,294.5,406.1,294.1,415.3z"/>
		</g>
	</g>
	<g id="Capa_14_3_">
	</g>
	<g id="Capa_6_3_">
	</g>
	<g id="Capa_3_3_">
	</g>
</g>
<g id="Capa_1_3_">
	<g id="Capa_9_2_">
		<g>
			<g class="st3">
				<g>
					<path class="st4" d="M350.6,275.5c11.3,0.4,24.9,1.6,32.8,10.6c1.7,2.3,1.6,4.7,1.6,7.4c-0.2,5,0.4,10.1-0.3,15.1
						c-1,3.5-4.3,6-7.3,7.6c-0.4,0.3-0.7,0.7-0.7,1.2c0,10.5,0,21.2,0,31.7c0,40.9,0,81.8,0,122.8c-0.6,40.6-51.7,40.7-52.3,0
						c0-36.8,0-73.7,0-110.5c0-14.7,0-29.3,0-44c0-0.5-0.3-1-0.7-1.2c-4-2.1-8.1-5.6-7.6-10.5c0-3.7,0-7.4,0-11.1
						c0-2.5-0.4-5.1,0.9-7.4C324.5,277,339.1,276,350.6,275.5"/>
				</g>
				<path class="st5" d="M375.6,290.7c0.4,11.6-49.8,11.6-49.4,0C325.7,279.1,375.9,279.1,375.6,290.7z"/>
			</g>
			<g>
				<path class="st9" d="M328.6,388.8v0.2C328.6,389,328.6,388.9,328.6,388.8L328.6,388.8z"/>
				<path class="st7" d="M328.6,389v85.7c0,12.4,10,22.4,22.4,22.4c12.2,0,22.1-9.9,22-22.2v-85C370.6,398.2,328.1,398,328.6,389z"
					/>
			</g>
			<path class="st8" d="M373.1,389c0.4,9.2-45,9.2-44.5,0C328.1,379.8,373.6,379.8,373.1,389z"/>
		</g>
	</g>
	<g id="Capa_14_2_">
	</g>
	<g id="Capa_6_2_">
	</g>
	<g id="Capa_3_2_">
	</g>
</g>
<path class="st10" d="M259,354.6v27c9.2,4.1,28.9,4.2,38.7,0.4v-27C287.8,358.8,268.1,358.7,259,354.6z"/>
<path class="st11" d="M377.1,328.5c-9.7,4-30,4-39.2-0.3v27c9.2,4.2,29.5,4.3,39.2,0.3V328.5z"/>
</svg>
