<?xml version="1.0" encoding="utf-8"?>
<!-- Generator: Adobe Illustrator 24.1.0, SVG Export Plug-In . SVG Version: 6.00 Build 0)  -->
<svg version="1.1" id="Capa_1" xmlns="http://www.w3.org/2000/svg" xmlns:xlink="http://www.w3.org/1999/xlink" x="0px" y="0px"
	 viewBox="0 0 721 679" style="enable-background:new 0 0 721 679;" xml:space="preserve">
<style type="text/css">
	.st0{fill:#ABDDDB;}
	.st1{fill:#FFFF00;}
	.st2{fill:#BCE2E2;stroke:#3B5E5C;stroke-width:0.8446;stroke-miterlimit:10;}
	.st3{fill:#F0F7F6;stroke:#3B5E5C;stroke-width:0.8446;stroke-miterlimit:10;}
	.st4{fill:#ABDDDB;stroke:#3B5E5C;stroke-width:0.8446;stroke-miterlimit:10;}
	.st5{fill:#C8E8E7;stroke:#3B5E5C;stroke-width:0.8446;stroke-miterlimit:10;}
	.st6{fill:#61F7EF;}
	.st7{opacity:0.25;fill:#FFFFFF;stroke:#3B5E5C;stroke-width:0.8446;stroke-miterlimit:10;}
	.st8{fill:none;stroke:#3B5E5C;stroke-width:0.8446;stroke-miterlimit:10;}
</style>
<g id="Capa_3">
	<g>
		<path class="st0" d="M632.9,574.4l32.3,1.7c5.4,0,9.6-4.4,9.6-9.6v-10.3c0-5.4-4.4-9.6-9.6-9.6l-32.3-1.7c-5.4,0-9.6,4.4-9.6,9.6
			v10.3C623.2,570,627.5,574.4,632.9,574.4z"/>
		<path class="st0" d="M113.3,612.4l32.3,1.7c5.4,0,9.6-4.4,9.6-9.6v-10.3c0-5.4-4.4-9.6-9.6-9.6l-32.3-1.7c-5.4,0-9.6,4.4-9.6,9.6
			v10.3C103.7,608.2,108,612.4,113.3,612.4z"/>
		<path class="st1" d="M537.1,642.2l32.3,1.7c5.4,0,9.6-4.4,9.6-9.6V624c0-5.4-4.4-9.6-9.6-9.6l-32.3-1.7c-5.4,0-9.6,4.4-9.6,9.6
			v10.3C527.3,638,531.7,642.2,537.1,642.2z"/>
		<path class="st0" d="M537.1,642.2l32.3,1.7c5.4,0,9.6-4.4,9.6-9.6V624c0-5.4-4.4-9.6-9.6-9.6l-32.3-1.7c-5.4,0-9.6,4.4-9.6,9.6
			v10.3C527.3,638,531.7,642.2,537.1,642.2z"/>
		<path class="st2" d="M531.9,54.5h84.6l58.3,16.9c27.9,6.4,42.9,35,42.2,57.4l-3.4,356.4c1.2,32.4-1,40.4-20.3,57.4l-91,71.3
			l-70.4,0.3L531.9,54.5L531.9,54.5z"/>
		<path class="st3" d="M609.6,54.4c27.7,0,42.9,18.1,42.2,40.5l-37.2,491.5c0,20.4-16.6,37.2-37.2,37.2l-509.1-27l-54.7-75L420,538
			l45.1-483.6L609.6,54.4L609.6,54.4z"/>
		<path class="st4" d="M569.7,254.5c25,0,33.8,13.5,31.8,45.3l-16.9,265.5c-1,25.3-47.3,47.1-65.7,47.1l-507-26.5
			C7.5,585.8,4,582,4,577.7V266.3c0-4.6,3.7-8.3,8.3-8.3l73.1-3.4h484.3V254.5z"/>
		<path class="st5" d="M500.4,261.3c25,0,45.3,20.3,45.3,45.3v258.8c0,30.1-7.4,48.5-43.7,47.1L12,586c-4.5-0.2-8-4-8-8.3v-308
			c0-4.6,3.7-8.3,8.3-8.3h488.2v-0.1H500.4z"/>
		<path class="st3" d="M465.3,54.4h56.8c-11.8-7.1-66.7-39.9-76.9-46.8c-7.1-4.9-15.5-5.4-23.8-5.1L147.7,13.1
			c-13.7,0.8-26,5.6-32.9,18.6c-2.2,4.1-3.7,8.6-4.2,13.2c-2,15.2-21.1,191.4-22.8,209.6h358.8L465.3,54.4z M401.8,36.6
			c-0.7,4.9-14.9,175-15.7,180.1c-1,6.4-1.7,6.9-8.3,6.9c-37.3,0-187.5,0-225.3,0c-5.6,0-6.4-0.5-6.1-5.9
			c1-15,16.4-161.6,17.2-170.3c0.7-6.6,1.4-7.1,7.9-7.3c16-0.3,216.2-9.1,225.5-9.3C401.6,30.7,402.5,32.2,401.8,36.6z"/>
		<path class="st6" d="M93.9,250.1l335.1,0.2c2.7,0,2.9-0.8,3.2-3.2l1-8.3c0.3-2.9-0.5-3.2-3.2-3.2H94.9c-2.2,0-2.9,0.7-3.2,3.2
			l-1,8.3C90.5,249.5,91.2,250.1,93.9,250.1z"/>
		<path class="st2" d="M88.5,252.2h345.8c2.5-24.8,19.9-198.5,19.9-215c0-17.7-13.2-32.4-30.2-34.8c7.4-0.2,14.7,0.7,21.1,5.1
			c10.3,7.1,65.2,39.9,76.9,46.8h-56.8l-18.6,200.3h-0.3c-1.4,3.7-4.7,3.4-4.7,3.4H84.4C84.2,252.7,88.5,252.2,88.5,252.2z"/>
		<path class="st7" d="M401.8,36.6c-0.7,4.9-14.9,175-15.7,180.1c-1,6.4-1.7,6.9-8.3,6.9c-37.3,0-187.5,0-225.3,0
			c-5.6,0-6.4-0.5-6.1-5.9c1-15,16.4-161.6,17.2-170.3c0.7-6.6,1.4-7.1,7.9-7.3c16-0.3,216.2-9.1,225.5-9.3
			C401.6,30.7,402.5,32.2,401.8,36.6z"/>
		
			<ellipse transform="matrix(0.1602 -0.9871 0.9871 0.1602 151.8696 741.5013)" class="st8" cx="511.7" cy="281.5" rx="10.1" ry="10.1"/>
		<line class="st8" x1="543.5" y1="303" x2="7.2" y2="295.9"/>
		<line class="st8" x1="179.5" y1="298.3" x2="179.5" y2="595.2"/>
		<polygon class="st8" points="653,213.3 709.2,213.3 709.2,134.3 659.5,122.9 		"/>
		<polygon class="st8" points="627.6,571.4 709.2,514 709.2,418 634.2,452.3 		"/>
		<line class="st8" x1="709.9" y1="145.1" x2="659" y2="135.4"/>
		<line class="st8" x1="709.2" y1="159.4" x2="657.2" y2="151.7"/>
		<line class="st8" x1="710.4" y1="171.9" x2="657.2" y2="166"/>
		<line class="st8" x1="709.2" y1="186.3" x2="656" y2="181.6"/>
		<line class="st8" x1="710.4" y1="198.9" x2="654.1" y2="195.9"/>
		<line class="st8" x1="709.9" y1="430" x2="633.9" y2="467"/>
		<line class="st8" x1="709.9" y1="443.7" x2="632.7" y2="483.2"/>
		<line class="st8" x1="709.9" y1="459.2" x2="632" y2="499.4"/>
		<line class="st8" x1="709.2" y1="473.6" x2="630.8" y2="517.3"/>
		<line class="st8" x1="710.4" y1="487.5" x2="629.7" y2="536.4"/>
		<line class="st8" x1="709.2" y1="501.8" x2="629" y2="553.3"/>
		<line class="st8" x1="716.5" y1="113.3" x2="653" y2="94.7"/>
	</g>
</g>
</svg>
