<?xml version="1.0" encoding="utf-8"?>
<!-- Generator: Adobe Illustrator 24.1.0, SVG Export Plug-In . SVG Version: 6.00 Build 0)  -->
<svg version="1.1" id="Capa_1" xmlns="http://www.w3.org/2000/svg" xmlns:xlink="http://www.w3.org/1999/xlink" x="0px" y="0px"
	 viewBox="0 0 181 253.3" style="enable-background:new 0 0 181 253.3;" xml:space="preserve">
<style type="text/css">
	.st0{opacity:0.5;fill:#E0EADF;}
	.st1{fill:#FF2A2A;}
</style>
<path class="st0" d="M74,128.5c-28,21.8-54.5,47.7-56.3,112.8h22.8c1.7-57.9,24.4-80.1,50-100.1c25.6,20,48.3,42.2,50,100.1h22.8
	c-1.8-65.1-28.3-90.9-56.3-112.8c28.3-22.2,54.9-49,56.4-116.5h-22.8c-1.3,60.5-24.1,83.5-50.1,103.9C64.5,95.5,41.8,72.4,40.4,12
	H17.7C19.1,79.5,45.7,106.3,74,128.5z"/>
<polygon class="st1" points="175.5,43.9 180.2,36 172.4,36 172.4,28.1 164.5,32.9 156.6,28.1 156.6,36 148.8,36 153.5,43.9 
	148.8,51.7 156.6,51.7 156.6,59.6 164.5,54.8 172.4,59.6 172.4,51.7 180.2,51.7 "/>
</svg>
