<?xml version="1.0" encoding="utf-8"?>
<!-- Generator: Adobe Illustrator 24.1.0, SVG Export Plug-In . SVG Version: 6.00 Build 0)  -->
<svg version="1.1" id="Capa_1" xmlns="http://www.w3.org/2000/svg" xmlns:xlink="http://www.w3.org/1999/xlink" x="0px" y="0px"
	 viewBox="0 0 425 388" style="enable-background:new 0 0 425 388;" xml:space="preserve">
<style type="text/css">
	.st0{opacity:0.4;fill:#F2F4F2;enable-background:new    ;}
	.st1{fill:#FFFFFF;}
	.st2{fill:#E0EADF;}
	.st3{fill:#CC6633;}
	.st4{fill:#FA7F43;}
</style>
<g>
	<path id="path1727-1-9-4_2_" class="st0" d="M7.7,79.9v174.6l202.8,135.3l205.3-111.6l0.6-187.3"/>
	<path id="path1934-1_2_" class="st0" d="M213.7,151.4L210.4,390l204.7-109.6l1.2-189.3L213.7,151.4z"/>
	<path id="path1721-7_2_" class="st1" d="M7.7,79.9c36.4-6,190-39.2,190-39.2l218.8,49.7l-202.8,62.4L7.7,79.9z"/>
	<path class="st2" d="M416.5,90.6l-202.7,62.3v39.8c1.9-1.4,3.6-3.6,5.1-4.6c2-1.4,4-1.2,5.3,0.3c1.4,1.4,2.2,4,4.2,3.4
		c1.9-0.6,5-4.5,8.1-5.1c3.3-0.5,6.7,2.3,10.5,0.5s8.4-8.2,13.6-11.3c5.3-3.1,11.2-2.8,15.3-4.2c4.2-1.2,6.5-4.2,9.8-5
		s7.6,0.5,11.2-1.2s6.4-6.4,10.4-9.9s9.5-6.2,13.9-6.2s8.1,2.6,11.3,1.4c3.3-1.2,6-6,9.3-7.4c3.3-1.2,7.1,1.1,11.2-2
		c3.9-3.1,8.1-11.6,11.9-13.5s7.7,3.1,11.5,3.4c3.6,0.3,7-4.2,9.6-4.2c2.5,0,4.3,4.5,7,4c2.6-0.5,6.4-5.6,9.5-6.5s5.6,2,7.6,2.8
		s3.6-0.8,4.5-7c0.2-1.2,1.2-2.8,2.8-4.5V90.6H416.5z"/>
	<path class="st0" d="M213.8,152.9L213.8,152.9L8,80.1V99c1.1,0.8,1.9,1.4,2.2,1.9c1.9,3.4,5.1,1.2,8.4,3.9s6.4,9.8,11,11.3
		c4.5,1.4,10.7-2.9,15.2-2.5c4.6,0.5,7.7,5.9,12.4,6.7s10.5-3.1,15-2.3c4.5,0.8,7.4,6.2,10.2,11.2s5.3,9.3,9.3,9.3s9.3-4.3,13.2-2.2
		s6.2,11,8.7,14.4s5,1.2,7.7,2.3c2.6,1.1,5.4,5.1,9.1,5.6c3.7,0.3,8.4-2.9,13.3-1.4s10.4,8.5,15.2,11.6s9.1,2.6,13.9,4.2
		c4.8,1.5,10.1,5.1,14.6,4.6s8.1-5.1,10.8-3.4c2.8,1.9,4.6,10.1,7,14.7c2.2,4.6,4.8,5.7,7.1,4.6c0.5-0.2,0.9-0.5,1.4-0.9v-39.7
		H213.8z"/>
	
		<ellipse id="path1744-2-2-5_2_" transform="matrix(0.9826 -0.1856 0.1856 0.9826 -44.7547 25.5343)" class="st0" cx="114" cy="251.8" rx="39" ry="43.4"/>
	<path id="path1752-4_2_" class="st3" d="M275.6,5.7c-15.8,8.4-69.3,37.2-103.4,76.2s-48.8,88.3-60.4,116.2s-20.3,34.6-24.5,42.1
		s-4,16.3,0.2,23.6c4,7.3,11.9,13.5,20,15.3c7.9,1.9,16-0.5,22.2-5.4c6.2-5,10.8-12.6,11-20.6c0.3-8.1-3.9-16.7-5.4-27.9
		c-1.5-11.3-0.5-25.1,6.2-47.3c6.7-22,18.9-52.4,37.5-79.8s43.5-52.1,67.1-70.5S291.4-2.6,275.6,5.7z"/>
	<path class="st4" d="M102.1,84c1.2-2,2.5-3.9,3.9-5.9c13.6-20,31.8-38,48.8-51.3s33.2-22.2,21.5-16C164.9,17,125.8,38,101,66.5
		c-3.4,3.9-5.9,6.7-9.3,10.4C84.7,84.6,96.5,93.6,102.1,84z"/>
	<path class="st4" d="M272.1,117.4c1.2-2,2.5-3.9,3.9-5.9c13.6-20,31.8-38,48.8-51.3s33.2-22.2,21.5-16
		c-11.5,6.2-50.5,27.1-75.3,55.6c-3.4,3.9-5.9,6.7-9.3,10.4C254.7,118.1,266.5,127,272.1,117.4z"/>
</g>
</svg>
