<?xml version="1.0" encoding="UTF-8" standalone="no"?>
<!-- Generator: Adobe Illustrator 24.1.0, SVG Export Plug-In . SVG Version: 6.00 Build 0)  -->

<svg
   version="1.1"
   id="Capa_1"
   x="0px"
   y="0px"
   viewBox="0 0 233.7731 215.43987"
   xml:space="preserve"
   sodipodi:docname="treatment2.svg"
   inkscape:version="1.2.2 (b0a8486, 2022-12-01)"
   width="233.7731"
   height="215.43987"
   xmlns:inkscape="http://www.inkscape.org/namespaces/inkscape"
   xmlns:sodipodi="http://sodipodi.sourceforge.net/DTD/sodipodi-0.dtd"
   xmlns="http://www.w3.org/2000/svg"
   xmlns:svg="http://www.w3.org/2000/svg"><defs
   id="defs5876" /><sodipodi:namedview
   id="namedview5874"
   pagecolor="#ffffff"
   bordercolor="#000000"
   borderopacity="0.25"
   inkscape:showpageshadow="2"
   inkscape:pageopacity="0.0"
   inkscape:pagecheckerboard="0"
   inkscape:deskcolor="#d1d1d1"
   showgrid="false"
   inkscape:zoom="1.6476656"
   inkscape:cx="136.25337"
   inkscape:cy="122.90115"
   inkscape:window-width="1866"
   inkscape:window-height="1016"
   inkscape:window-x="0"
   inkscape:window-y="0"
   inkscape:window-maximized="1"
   inkscape:current-layer="Capa_1" />
<style
   type="text/css"
   id="style5502">
	.st0{fill:#E0EADF;}
	.st1{fill:#679091;}
	.st2{fill:#83B1B5;}
	.st3{fill:#C0D9DF;}
	.st4{fill:#FFFFFF;}
	.st5{fill:#CC9933;}
	.st6{fill:#FA7F43;}
	.st7{fill:#005372;}
	.st8{fill:none;stroke:#005372;stroke-miterlimit:10;}
	.st9{fill:none;stroke:#FA7F43;stroke-miterlimit:10;}
	.st10{fill:none;stroke:#CC9933;stroke-miterlimit:10;}
	.st11{fill:#DCDEE0;}
	.st12{fill:#ABAFB2;}
	.st13{fill:#136F8C;}
	.st14{fill:#4D4D4D;}
	.st15{fill:#939393;}
	.st16{fill:#333333;}
	.st17{opacity:0.4;}
	.st18{fill:#CCCC66;}
	.st19{fill:#B2AF34;}
	.st20{fill:#E55D28;}
</style>










<g
   id="g5871"
   transform="matrix(1.5,0,0,1.5,-1228.4415,-330.58323)">
	<path
   class="st11"
   d="m 870.2,315.2 -15.4,15.4 0.2,0.2 15.4,-15.4 c 0.1,-0.1 0,-0.1 -0.2,-0.2 z"
   id="path5823" />
	<path
   class="st12"
   d="m 870.2,315.2 c 0.1,0.1 0.2,0.2 0.3,0.2 0.6,0.5 1.3,0.3 1.3,0.3 l 7.7,-7.7 -1,-1 -7,7 z"
   id="path5825" />
	<polygon
   class="st11"
   points="908,287.6 884.5,311 880.5,306.9 879.4,305.9 878.4,306.9 879.4,308 884.5,313.1 915.2,282.3 910.2,277.3 905.9,281.6 910,285.7 908,287.6 "
   id="polygon5827" />
	<polygon
   class="st6"
   points="884.5,311 908,287.6 902.9,282.5 881.2,304.1 879.4,305.9 880.5,306.9 "
   id="polygon5829" />
	<polygon
   class="st14"
   points="911.4,274.1 912.4,275 931.6,255.9 936.9,261.3 938.8,259.3 932.5,252.9 931.7,253.7 930.5,254.9 "
   id="polygon5831" />
	<polygon
   class="st14"
   points="903.5,281.8 903.3,282.1 902.9,282.5 908,287.6 910,285.7 905.9,281.6 910.2,277.3 909.2,276.2 904.9,280.5 "
   id="polygon5833" />
	<polygon
   class="st12"
   points="909.2,276.2 910.2,277.3 915.2,282.3 918,285 920.1,282.9 912.4,275 911.4,274.1 909.5,275.9 "
   id="polygon5835" />
	<path
   class="st12"
   d="m 869.9,314.9 -15.4,15.4 0.3,0.3 15.4,-15.4 c -0.1,-0.1 -0.2,-0.3 -0.3,-0.3 z"
   id="path5837" />
	<path
   class="st15"
   d="m 869.9,314.9 c 0.1,0.1 0.2,0.2 0.3,0.4 l 1.2,-1.2 7,-7 -1,-1 -7.7,7.7 c 0,-0.2 -0.2,0.3 0.2,1.1 z"
   id="path5839" />
	<polygon
   class="st12"
   points="899.7,275.3 903.8,279.4 908.1,275.2 903,270.1 872.3,300.9 877.3,305.9 878.4,306.9 879.4,305.9 878.4,304.9 874.3,300.9 897.7,277.3 "
   id="polygon5841" />
	<polygon
   class="st20"
   points="879.4,305.9 881.2,304.1 902.9,282.5 897.7,277.3 874.3,300.9 878.4,304.9 "
   id="polygon5843" />
	<polygon
   class="st16"
   points="924.1,248.5 929.5,253.8 910.3,272.9 911.4,274.1 930.5,254.9 931.7,253.7 932.5,252.9 926.1,246.5 "
   id="polygon5845" />
	<polygon
   class="st16"
   points="903.8,279.4 899.7,275.3 897.7,277.3 902.9,282.5 903.3,282.1 903.5,281.8 904.9,280.5 909.2,276.2 908.1,275.2 "
   id="polygon5847" />
	<polygon
   class="st15"
   points="900.3,267.3 903,270.1 908.1,275.2 909.2,276.2 909.5,275.9 911.4,274.1 910.3,272.9 902.5,265.1 "
   id="polygon5849" />
	<g
   class="st17"
   id="g5869">
		
			<rect
   x="878.5"
   y="299"
   transform="matrix(0.7071,-0.7071,0.7071,0.7071,43.767,709.8912)"
   class="st4"
   width="0.60000002"
   height="6.1999998"
   id="rect5851" />
		
			<rect
   x="881"
   y="296.60001"
   transform="matrix(0.7071,-0.7071,0.7071,0.7071,46.187,710.9615)"
   class="st4"
   width="0.60000002"
   height="6.1999998"
   id="rect5853" />
		
			<rect
   x="883.40002"
   y="294.10001"
   transform="matrix(0.7071,-0.7071,0.7071,0.7071,48.6599,711.904)"
   class="st4"
   width="0.60000002"
   height="6.1999998"
   id="rect5855" />
		
			<rect
   x="885.90002"
   y="291.60001"
   transform="matrix(0.7071,-0.7071,0.7071,0.7071,51.1682,712.9376)"
   class="st4"
   width="0.60000002"
   height="6.1999998"
   id="rect5857" />
		
			<rect
   x="888.29999"
   y="289.29999"
   transform="matrix(0.7071,-0.7071,0.7071,0.7071,53.522,713.9882)"
   class="st4"
   width="0.60000002"
   height="6.1999998"
   id="rect5859" />
		
			<rect
   x="890.79999"
   y="286.79999"
   transform="matrix(0.7071,-0.7071,0.7071,0.7071,56.0319,715.0209)"
   class="st4"
   width="0.60000002"
   height="6.1999998"
   id="rect5861" />
		
			<rect
   x="893.20001"
   y="284.39999"
   transform="matrix(0.7071,-0.7071,0.7071,0.7071,58.3985,716.0446)"
   class="st4"
   width="0.60000002"
   height="6.1999998"
   id="rect5863" />
		
			<rect
   x="895.70001"
   y="282"
   transform="matrix(0.7071,-0.7071,0.7071,0.7071,60.866,717.0869)"
   class="st4"
   width="0.60000002"
   height="6.1999998"
   id="rect5865" />
		
			<rect
   x="898"
   y="279.5"
   transform="matrix(0.7071,-0.7071,0.7071,0.7071,63.2699,717.9857)"
   class="st4"
   width="0.60000002"
   height="6.1999998"
   id="rect5867" />
	</g>
</g></svg>
