<?xml version="1.0" encoding="UTF-8" standalone="no"?>
<!-- Generator: Adobe Illustrator 24.1.0, SVG Export Plug-In . SVG Version: 6.00 Build 0)  -->

<svg
   version="1.1"
   id="Capa_1"
   x="0px"
   y="0px"
   viewBox="0 0 233.7731 215.43987"
   xml:space="preserve"
   sodipodi:docname="treatment3.svg"
   inkscape:version="1.2.2 (b0a8486, 2022-12-01)"
   width="233.7731"
   height="215.43987"
   xmlns:inkscape="http://www.inkscape.org/namespaces/inkscape"
   xmlns:sodipodi="http://sodipodi.sourceforge.net/DTD/sodipodi-0.dtd"
   xmlns="http://www.w3.org/2000/svg"
   xmlns:svg="http://www.w3.org/2000/svg"><defs
   id="defs5876" /><sodipodi:namedview
   id="namedview5874"
   pagecolor="#ffffff"
   bordercolor="#000000"
   borderopacity="0.25"
   inkscape:showpageshadow="2"
   inkscape:pageopacity="0.0"
   inkscape:pagecheckerboard="0"
   inkscape:deskcolor="#d1d1d1"
   showgrid="false"
   inkscape:zoom="1.6476656"
   inkscape:cx="192.69686"
   inkscape:cy="181.77232"
   inkscape:window-width="1866"
   inkscape:window-height="1016"
   inkscape:window-x="0"
   inkscape:window-y="0"
   inkscape:window-maximized="1"
   inkscape:current-layer="g5821" />
<style
   type="text/css"
   id="style5502">
	.st0{fill:#E0EADF;}
	.st1{fill:#679091;}
	.st2{fill:#83B1B5;}
	.st3{fill:#C0D9DF;}
	.st4{fill:#FFFFFF;}
	.st5{fill:#CC9933;}
	.st6{fill:#FA7F43;}
	.st7{fill:#005372;}
	.st8{fill:none;stroke:#005372;stroke-miterlimit:10;}
	.st9{fill:none;stroke:#FA7F43;stroke-miterlimit:10;}
	.st10{fill:none;stroke:#CC9933;stroke-miterlimit:10;}
	.st11{fill:#DCDEE0;}
	.st12{fill:#ABAFB2;}
	.st13{fill:#136F8C;}
	.st14{fill:#4D4D4D;}
	.st15{fill:#939393;}
	.st16{fill:#333333;}
	.st17{opacity:0.4;}
	.st18{fill:#CCCC66;}
	.st19{fill:#B2AF34;}
	.st20{fill:#E55D28;}
</style>








<g
   id="g5821"
   transform="translate(-436.8617,-404.04008)">
	
	
	
	
	
	
	
	
	
	
	
	
	
	
	
<g
   id="g11728"
   transform="matrix(1.5,0,0,1.5,-789.95761,-238.02273)"><path
     class="st11"
     d="m 870.2,524.1 -15.4,15.4 0.2,0.2 15.4,-15.4 c 0.1,-0.1 0,-0.1 -0.2,-0.2 z"
     id="path5773" /><path
     class="st12"
     d="m 870.2,524.1 c 0.1,0.1 0.2,0.2 0.3,0.2 0.6,0.5 1.3,0.3 1.3,0.3 l 7.7,-7.7 -1,-1 -7,7 z"
     id="path5775" /><polygon
     class="st11"
     points="908,496.5 884.5,520 880.5,515.9 879.4,514.9 878.4,515.9 879.4,516.9 884.5,522.1 915.2,491.3 910.2,486.2 905.9,490.5 910,494.6 908,496.5 "
     id="polygon5777" /><polygon
     class="st18"
     points="884.5,520 908,496.5 902.9,491.4 881.2,513.1 879.4,514.9 880.5,515.9 "
     id="polygon5779"
     style="fill:#dcdee0;fill-opacity:1" /><polygon
     class="st14"
     points="911.4,483 912.4,484 931.6,464.9 936.9,470.2 938.8,468.2 932.5,461.9 931.7,462.7 930.5,463.8 "
     id="polygon5781" /><polygon
     class="st14"
     points="903.5,490.8 903.3,491 902.9,491.4 908,496.5 910,494.6 905.9,490.5 910.2,486.2 909.2,485.2 904.9,489.5 "
     id="polygon5783" /><polygon
     class="st12"
     points="909.2,485.2 910.2,486.2 915.2,491.3 918,494 920.1,491.8 912.4,484 911.4,483 909.5,484.9 "
     id="polygon5785" /><path
     class="st12"
     d="m 869.9,523.8 -15.4,15.4 0.3,0.3 15.4,-15.4 c -0.1,0 -0.2,-0.2 -0.3,-0.3 z"
     id="path5787" /><path
     class="st15"
     d="m 869.9,523.8 c 0.1,0.1 0.2,0.2 0.3,0.4 l 1.2,-1.2 7,-7 -1,-1.1 -7.7,7.7 c 0,-0.1 -0.2,0.5 0.2,1.2 z"
     id="path5789" /><polygon
     class="st12"
     points="899.7,484.3 903.8,488.4 908.1,484.1 903,479 872.3,509.8 877.3,514.9 878.4,515.9 879.4,514.9 878.4,513.8 874.3,509.8 897.7,486.3 "
     id="polygon5791" /><polygon
     class="st19"
     points="879.4,514.9 881.2,513.1 902.9,491.4 897.7,486.3 874.3,509.8 878.4,513.8 "
     id="polygon5793"
     style="fill:#abafb2;fill-opacity:1" /><polygon
     class="st16"
     points="924.1,457.4 929.5,462.8 910.3,481.9 911.4,483 930.5,463.8 931.7,462.7 932.5,461.9 926.1,455.5 "
     id="polygon5795" /><polygon
     class="st16"
     points="903.8,488.4 899.7,484.3 897.7,486.3 902.9,491.4 903.3,491 903.5,490.8 904.9,489.5 909.2,485.2 908.1,484.1 "
     id="polygon5797" /><polygon
     class="st15"
     points="900.3,476.3 903,479 908.1,484.1 909.2,485.2 909.5,484.9 911.4,483 910.3,481.9 902.5,474.1 "
     id="polygon5799" /><g
     class="st17"
     id="g5819">
		
			<rect
   x="878.5"
   y="508"
   transform="matrix(0.7071,-0.7071,0.7071,0.7071,-104.0001,771.1222)"
   class="st4"
   width="0.60000002"
   height="6.1999998"
   id="rect5801" />
		
			<rect
   x="881"
   y="505.60001"
   transform="matrix(0.7071,-0.7071,0.7071,0.7071,-101.5802,772.1924)"
   class="st4"
   width="0.60000002"
   height="6.1999998"
   id="rect5803" />
		
			<rect
   x="883.40002"
   y="503.10001"
   transform="matrix(0.7071,-0.7071,0.7071,0.7071,-99.1071,773.1349)"
   class="st4"
   width="0.60000002"
   height="6.1999998"
   id="rect5805" />
		
			<rect
   x="885.90002"
   y="500.60001"
   transform="matrix(0.7071,-0.7071,0.7071,0.7071,-96.599,774.1683)"
   class="st4"
   width="0.60000002"
   height="6.1999998"
   id="rect5807" />
		
			<rect
   x="888.29999"
   y="498.20001"
   transform="matrix(0.7071,-0.7071,0.7071,0.7071,-94.2158,775.1484)"
   class="st4"
   width="0.60000002"
   height="6.1999998"
   id="rect5809" />
		
			<rect
   x="890.79999"
   y="495.70001"
   transform="matrix(0.7071,-0.7071,0.7071,0.7071,-91.706,776.1811)"
   class="st4"
   width="0.60000002"
   height="6.1999998"
   id="rect5811" />
		
			<rect
   x="893.20001"
   y="493.29999"
   transform="matrix(0.7071,-0.7071,0.7071,0.7071,-89.3393,777.2047)"
   class="st4"
   width="0.60000002"
   height="6.1999998"
   id="rect5813" />
		
			<rect
   x="895.70001"
   y="490.89999"
   transform="matrix(0.7071,-0.7071,0.7071,0.7071,-86.8716,778.2472)"
   class="st4"
   width="0.60000002"
   height="6.1999998"
   id="rect5815" />
		
			<rect
   x="898"
   y="488.5"
   transform="matrix(0.7071,-0.7071,0.7071,0.7071,-84.4974,779.2164)"
   class="st4"
   width="0.60000002"
   height="6.1999998"
   id="rect5817" />
	</g><g
     id="g10247"
     transform="rotate(90,881.95148,511.16633)"><ellipse
       style="fill:none;fill-opacity:1;stroke:#ec5e68;stroke-width:4.53543;stroke-linecap:round;stroke-linejoin:round;stroke-dasharray:none;stroke-opacity:1;stop-color:#000000"
       id="path8137"
       cx="868.45227"
       cy="496.92032"
       rx="35.56385"
       ry="34.913826" /><path
       style="fill:#d8141c;fill-opacity:1;stroke:#ec5e68;stroke-width:4.53543;stroke-linecap:round;stroke-linejoin:round;stroke-dasharray:none;stroke-opacity:1;stop-color:#000000"
       d="m 843.58338,521.96231 50.18817,-49.69214"
       id="path9804" /></g></g></g>

</svg>
