<?xml version="1.0" encoding="utf-8"?>
<!-- Generator: Adobe Illustrator 24.1.0, SVG Export Plug-In . SVG Version: 6.00 Build 0)  -->
<svg version="1.1" id="Capa_1" xmlns="http://www.w3.org/2000/svg" xmlns:xlink="http://www.w3.org/1999/xlink" x="0px" y="0px"
	 viewBox="0 0 463.8 451.8" style="enable-background:new 0 0 463.8 451.8;" xml:space="preserve">
<style type="text/css">
	.st0{fill:#F7F4F2;}
</style>
<g>
	<g>
		<g>
			<g>
				<path class="st0" d="M245,188.3c-1.6,1.6,1.7,2.2,0,4c-2.4,2.6-3,3.9-6.7,3.7c-6.5-0.4-15.9-7.5-23-12.1
					c-1.8-1.2-2.4-3.6-1.2-5.4c5.5-8.9-9.9-10.3-16.2-9.8c-9.1,0.8-24.9-0.1-33.2,4.6c-5.7,3.2-13.4,16.6-18,21.9
					c-6.4,7.4-12.9,13.8-17,22.7c-15.3,32.5,8.3,69.7,45.4,65.4c10.3-1.2,21.1-7.7,30.2,0.9c6.7,6.3,3.2,12.2,4.9,19.6
					c1.5,6.4,8.6,10.3,11,16.1c4.7,11.2,1.7,18.2-1.6,28.5c-4.4,13.5,6.9,29.6,11.3,42.7c2.2,6.6,8.7,25,15,27.9
					c10,4.5,25.6-9.1,31.6-16.4c4.7-5.7,3.1-11.5,6.3-16.9c3.4-5.8,7.7-7.5,10-15c2.6-8,5.2-10.1,10.6-15.9c8.7-9.5,7.3-15,3.9-26.2
					c-7.2-23.3,19-34.2,30.8-51.3c12.3-17.9-11.5-11.9-20.8-18c-9.6-6.3-13.8-18.2-18.4-28.1c-4.6-9.9-8.5-24.8-16.1-32.9
					C277.7,191.9,252.2,181.5,245,188.3z"/>
				<path class="st0" d="M372,342.2c1.1,2.8-7.5,25.1-11.2,37.7c-2.6,8.8-11.8,37.5-24.7,19.1c-4.9-7-0.9-16.1,1.8-22.6
					c3.5-8.1-1.2-12.2,1.2-19.9c2.8-8.8,14.1-9.1,19.5-15.3c1.6-1.9,3-4.2,4.2-6.7c1.6-3.2,6.4-2.7,7.4,0.8
					C370.8,337.6,371.4,339.9,372,342.2L372,342.2z"/>
				<path class="st0" d="M437.3,139C397.4,70,327.6,28.9,253.7,22.9c-1.3-0.1-2.6,0.5-3.4,1.5L222.7,59c-1.1,1.4-2.5,2.4-4.1,2.9
					l-59.1,20.7c-2.5,0.9-4.5,2.7-5.5,5.2l-15.2,36.8c-0.5,1.3-0.4,2.7,0.4,3.8l21.4,30c1.9,2.6,5.9,2,7-1l0.3-0.9
					c4.8-13.4,17.5-22.3,31.8-22.3h41c2.4,0,4.9,0.4,7.2,1.2l43.5,15.3c2.9,1,5.6,2.6,7.8,4.8l13.1,12.5c0.8,0.7,1.2,1.8,1.2,2.9
					v8.1c0,0.6,0.2,1.3,0.4,1.8l22.5,43.2c0.9,1.8,3,2.6,4.9,1.9l3.9-1.4c14.4-5.3,27.6-13.5,38.7-24c1.4-1.3,1.7-3.5,0.6-5.1l0,0
					c-3.6-5.5,0.3-12.8,6.8-12.8h5.1c5.4,0,10.4,2.3,13.9,6.4l10.5,12.3c1.1,1.3,2,2.8,2.6,4.4l10.8,29.7c1,2.7,4.5,3.5,6.5,1.4
					l0.6-0.6c4.5-4.5,6.6-10.5,7.1-16.8c0.3-4,2.2-7.8,5.2-10.5l4.7-4.2c0.5-0.4,1-0.8,1.5-1.2c1.4-1,2.1-2.6,1.7-4.3
					C456.5,178.6,448.4,158.3,437.3,139L437.3,139z"/>
				<path class="st0" d="M98.8,136.2c8.2-8.7,10.5-21.4,5.9-32.5l0,0c-4.2-10.3-12.9-17.4-22.9-20c-2.4-0.6-5,0-6.9,1.7
					c-38.6,36.1-63,83.7-70.9,134.2c-0.4,2.8,0.7,5.8,3.1,7.4c9.8,6.5,31.8,11.8,40.6,10.4c2.9-0.5,4.3-3.7,2.6-6.1l-11.2-16.4
					c-1.2-1.8-0.8-4.2,1-5.5l19.2-13.7c1.2-0.9,2.3-2,3-3.3l22.4-39.1c1.9-3.4,4.2-6.5,6.9-9.3L98.8,136.2z"/>
				<path class="st0" d="M110.4,381c10.5-3.4,16.3-14.7,12.9-25.3l-3-9.3c-1.3-4-1.3-8.4,0-12.5l0,0c3.8-11.5-3.4-23.6-15.2-25.9
					l-16.5-3.2c-4.7-0.9-9.1-2.9-12.9-5.8l-34.4-26.1c-1.9-1.4-4.3-1.8-6.5-1.1l-29,9.4c-1.8,0.6-3,2.4-2.7,4.2
					c3.8,29.9,13.5,59.5,29.5,87.2c13.3,23.1,30,43.1,49.1,59.6c3.8,3.3,9.8,1.3,10.8-3.7l8.1-42.3c0.3-1.4,1.3-2.6,2.7-3L110.4,381
					L110.4,381z"/>
			</g>
		</g>
	</g>
</g>
</svg>
