<?xml version="1.0" encoding="utf-8"?>
<!-- Generator: Adobe Illustrator 24.1.0, SVG Export Plug-In . SVG Version: 6.00 Build 0)  -->
<svg version="1.1" id="Capa_1" xmlns="http://www.w3.org/2000/svg" xmlns:xlink="http://www.w3.org/1999/xlink" x="0px" y="0px"
	 viewBox="0 0 400 400" style="enable-background:new 0 0 400 400;" xml:space="preserve">
<style type="text/css">
	.st0{fill:#FFFFFF;}
</style>
<g id="RuUgdZ.tif">
	<g>
		<path class="st0" d="M202.2,338c-3.7-1.5-7.8-2.5-11.1-4.6c-7.9-5.1-11.6-12.7-12-22c-0.1-2.2,0-4.5,0-6.7c0-1,0-2-0.1-3
			c-1.2-6.7-6.8-8.5-12.1-10.5c-4.2-1.6-8.2-0.9-11.5,2.2c-3.1,2.9-6,6.2-9.2,9c-15.1,13.5-38.8,6-43.3-13.7c-2-8.9,0.1-17,6.2-23.8
			c3.4-3.9,7.3-7.4,10.9-11.1c2.4-2.5,2.7-4.1,1.3-7.3c-1.4-3.3-2.8-6.6-4.1-9.9c-1.4-3.7-2.4-4.5-6.3-4.5c-6.8,0-13.6,0-20.5,0
			c-14.7,0-24.6-8-27.8-22.3c-0.1-0.2-0.3-0.5-0.4-0.7c0-2.3,0-4.7,0-7c1.3-4.9,2.8-9.6,6.3-13.5c5.6-6.4,12.7-9.5,21.1-9.6
			c7.3-0.1,14.5-0.1,21.8,0c3,0,4.6-1.2,5.6-4c1.2-3.5,2.6-6.9,4.2-10.2c1.7-3.9,1.7-4.5-1.1-7.7c-13.3-15.1-5.9-38.8,13.6-43.2
			c9-2.1,17.1,0.2,24.1,6.2c1.7,1.5,3.3,2.5,5.8,1.7c2.3-0.7,4.3,0.7,4.8,2.7c0.6,2.1-0.4,4.1-2.7,4.9c-4.8,1.8-8.9,0.6-12.6-2.8
			c-5.3-4.9-11.5-6.6-18.4-4.7c-12.8,3.6-17.6,19.4-8.7,29.5c4.9,5.5,5.7,11,2.3,17.5c-1.6,3.1-2.7,6.4-4,9.7
			c-2.1,5.4-6.1,8.3-11.9,8.4c-7.6,0.1-15.3,0-22.9,0.1c-10.9,0.1-19.4,8.7-19.1,19.1c0.3,8.7,7.1,16.7,15.8,17.4
			c7.9,0.6,15.8,0.3,23.7,0.4c8.7,0.1,12.3,2.6,15.3,10.7c1.1,3,2.5,6,3.8,8.9c2.6,5.8,1.7,11.1-2.7,15.6
			c-3.5,3.5-7.1,6.9-10.4,10.5c-5.2,5.6-6.8,12.2-4.2,19.4c2.5,7.1,7.9,11,15.3,11.9c5.7,0.7,10.6-1.2,14.7-5.1
			c2.7-2.5,5.2-5.2,7.8-7.8c6.2-6,13.3-7.3,21.3-4.2c1.7,0.6,3.3,1.3,5,2.1c7.4,3.5,11.4,9.3,11.7,17.5c0.1,3.5-0.1,7,0.4,10.5
			c1.4,9.4,9.6,16.2,18.8,15.8c9.2-0.3,16.7-7.5,17.5-16.9c0.4-4.5,0.1-9,0.2-13.5c0.1-6.6,2.7-10.2,8.9-12.6
			c3.9-1.4,7.6-3.1,11.4-4.8c4.9-2.2,9.5-1.7,13.5,1.9c6.1,5.5,12.9,7.1,20.7,4.4c2.8-0.9,4.9,0.1,5.7,2.4c0.7,2.2-0.3,4.2-3,5.1
			c-10.1,3.5-19.3,1.9-27.4-5c-2.4-2-4.4-2.5-7.2-1c-3.6,1.8-7.4,3.2-11.2,4.6c-2.3,0.8-3.3,2.2-3.3,4.6c0,4.8,0.2,9.5-0.2,14.3
			c-0.9,12.2-9.5,21.6-21.6,24c-0.4,0.1-0.8,0.3-1.2,0.5C206.8,338,204.5,338,202.2,338z"/>
		<path class="st0" d="M232.2,100.1c0,4.1,0.1,8.3,0,12.4c0,2.1,0.9,3.2,2.9,4c4.3,1.6,8.5,3.4,12.7,5.2c2.1,1,3.7,0.8,5.3-0.9
			c3.8-3.9,7.6-7.9,11.6-11.6c7.5-6.9,16.3-9.1,25.9-6.1c9.7,3,15.9,9.7,18,19.6c1.9,9.1-0.5,17.3-6.8,24.1
			c-3.5,3.8-7.3,7.5-11,11.1c-1.8,1.8-2.1,3.4-1.1,5.7c1.9,4.1,3.6,8.2,5.2,12.4c0.8,2.1,2,3,4.2,3c5.4,0,10.8-0.2,16.1,0.4
			c13.2,1.5,23.1,13.3,22.9,26.7c-0.3,13.2-10.6,24.5-23.8,25.6c-4.6,0.4-9.3,0.2-14,0.3c-3.7,0.1-4.5,0.7-5.8,4
			c-1.4,3.6-2.8,7.2-4.4,10.7c-1.3,2.6-0.9,4.6,1,6.8c7.3,8.3,9,17.7,5,28c-1.1,3-3.2,4.2-5.5,3.3c-2.4-0.9-3.1-3.2-2-6.3
			c2.8-7.3,1.5-13.9-3.6-19.8c-4.5-5.1-5.1-9.4-2.2-15.6c1.5-3.3,2.9-6.6,4.1-9.9c2.4-6.5,6.3-9.3,13.2-9.3c3.9,0,7.7,0.1,11.6-0.1
			c10.6-0.5,18.5-8.6,18.3-18.7c-0.2-9.8-8.5-17.9-18.8-18.1c-4.1-0.1-8.3,0-12.4,0c-6-0.1-9.4-2.6-11.5-8.2
			c-1.6-4.1-3.3-8.1-5.1-12.1c-2.4-5.4-1.7-9.7,2.5-14c4-4,8.2-7.8,11.9-12.1c5.2-6.1,6.2-13.1,2.7-20.4
			c-3.4-7.1-9.4-10.4-17.2-10.2c-4.8,0.1-8.9,2.1-12.2,5.5c-3.8,3.7-7.5,7.5-11.2,11.2c-4.2,4.2-8.6,4.8-14,2.3
			c-4.1-1.8-8.2-3.5-12.4-5.1c-5.1-1.9-7.8-5.5-7.9-11c-0.1-7.7,0-15.4,0-23.2c-0.1-9.4-5.7-17-14-19.1
			c-11.6-2.9-22.7,5.8-22.9,18.1c-0.1,7.8,0,15.6,0,23.4c0,4.2-1.8,7.6-5.2,10.1c-2.2,1.6-4.5,1.4-6-0.5c-1.4-1.8-1.1-4,0.9-5.7
			c1.6-1.3,2.2-2.9,2.2-4.9c-0.1-7.5-0.1-15.1,0-22.6c0.3-15.5,12.7-27.2,27.9-26.6c14,0.6,24.8,12.4,25.1,27.5
			C232.2,93.1,232.2,96.6,232.2,100.1z"/>
		<path class="st0" d="M106.4,154.5c-0.1,8.9-7.2,16-16.2,16c-8.9,0-16.1-7.2-16.1-16.1c0-8.9,7.5-16.4,16.4-16.2
			C99.4,138.3,106.5,145.6,106.4,154.5z M90.2,162.4c4.5,0,8.1-3.5,8.1-7.9c0-4.4-3.6-8.1-8-8.2c-4.3-0.1-8.1,3.6-8.2,8
			C82.2,158.7,85.8,162.3,90.2,162.4z"/>
		<path class="st0" d="M271.9,319.9c0,8.9-7.2,16.1-16.1,16.1c-8.9,0-16.1-7.1-16.2-16c-0.1-8.9,7.4-16.4,16.3-16.3
			C264.7,303.7,271.9,311,271.9,319.9z M255.7,327.8c4.5,0,8.1-3.5,8.1-8c0-4.4-3.6-8.1-8-8.2c-4.3,0-8.1,3.7-8.1,8
			C247.6,324.2,251.3,327.8,255.7,327.8z"/>
		<path class="st0" d="M132,229.2c0-5.2,1.8-9.6,5.2-13.5c1.9-2.1,4.4-2.4,6.2-0.9c1.8,1.5,1.7,4-0.1,6.2
			c-6.3,7.9-2.7,18.4,6.9,20.2c3.8,0.7,7.1-0.5,10-2.9c2.7-2.2,4.9-2.2,6.6-0.1c1.6,2,1.2,4.2-1.3,6.3c-6.6,5.4-13.8,6.5-21.6,3.1
			C136.4,244.4,132,237.2,132,229.2z"/>
		<path class="st0" d="M252.2,80.9c6.8,0,12.1,5.3,12.1,12.1c0,6.7-5.5,12.2-12.2,12.1c-6.6-0.1-11.9-5.4-12-12
			C240,86.4,245.5,80.9,252.2,80.9z M256.2,92.9c0-2.2-1.7-3.9-3.9-3.9c-2.3,0-4.1,1.8-4.1,4.1c0,2.1,1.8,3.9,3.9,4
			C254.4,97,256.2,95.1,256.2,92.9z"/>
		<path class="st0" d="M330.6,159.3c0,6.7-5.5,12.2-12.2,12.1c-6.5-0.1-11.9-5.5-12-12.1c-0.1-6.7,5.4-12.2,12.1-12.2
			C325.3,147.1,330.6,152.5,330.6,159.3z M322.5,159.4c0.1-2.2-1.5-4-3.7-4.1c-2.3-0.1-4.2,1.6-4.3,3.9c-0.1,2.2,1.8,4.2,4,4.2
			C320.6,163.3,322.4,161.5,322.5,159.4z"/>
		<path class="st0" d="M168.3,153.6c0.4-6.5,3.3-11.5,9.4-14.4c6.1-2.8,11.9-1.9,17.1,2.2c2.5,1.9,2.9,4.3,1.4,6.3
			c-1.6,2-3.8,2.1-6.3,0.1c-3.8-2.8-8.2-2.7-11.2,0.4c-2.9,3.1-3,7.3-0.2,11c1.9,2.5,1.9,4.8-0.1,6.3c-2,1.5-4.1,1.1-6.1-1.2
			C169.6,161.3,168.4,157.7,168.3,153.6z"/>
		<path class="st0" d="M238.3,257.6c-0.2,5.3-3.2,10.3-9.2,13.2c-6.1,2.8-11.9,2-17.2-2.1c-2.5-1.9-3-4.3-1.5-6.3
			c1.6-2,3.8-2,6.4-0.1c3.6,2.7,8.1,2.6,11-0.3c3.1-3,3.2-7.4,0.3-11.2c-1.8-2.4-1.8-4.6,0.1-6.2c1.9-1.6,4.3-1.2,6.3,1.2
			C237,248.7,238.3,252.3,238.3,257.6z"/>
		<path class="st0" d="M271.4,217.1c-0.2,6.4-2.4,10.1-6.8,12.2c-4.5,2.2-8.9,1.6-12.9-1.4c-2.3-1.8-2.8-4.1-1.4-6.1
			c1.4-1.9,3.7-2.2,6.1-0.4c1.9,1.4,3.8,1.6,5.6-0.1c1.7-1.7,1.5-3.6,0.2-5.6c-1.8-2.6-1.6-4.7,0.3-6.1c2-1.5,4.6-1.1,6.2,1.5
			C270.1,213.3,270.9,215.9,271.4,217.1z"/>
		<path class="st0" d="M247.2,141.6c6.4,0.3,10.2,2.5,12.3,7.1c2,4.4,1.5,8.7-1.5,12.6c-1.7,2.3-4.2,2.8-6.1,1.4
			c-2-1.5-2.2-3.6-0.4-6.1c1.4-1.9,1.6-3.9-0.1-5.6c-1.7-1.7-3.6-1.5-5.6-0.2c-2.5,1.7-4.7,1.6-6.2-0.4c-1.5-2-1.1-4.6,1.5-6.2
			C243.3,143,245.9,142.2,247.2,141.6z"/>
		<path class="st0" d="M242.9,191.9c0,2.3,0.1,4.4,0,6.5c-0.1,2.7-1.8,4.4-4.2,4.3c-2.3-0.1-3.7-1.7-3.9-4.3c-0.1-1.3,0-2.7,0-4.1
			c-0.5,0-0.9-0.1-1.2-0.1c-2.7,0.3-4.5-0.7-5-2.8c-0.6-2.3,0.6-4.2,3.3-5c4.1-1.2,8.3-2.3,12.5-3.3c2.4-0.6,4.4,0.7,5,2.9
			c0.6,2-0.5,4-2.8,4.8C245.4,191.2,244.2,191.5,242.9,191.9z"/>
		<path class="st0" d="M167.5,191.9c-1.2-0.3-2.3-0.7-3.3-1c-2.6-0.8-3.7-2.8-3.1-5.1c0.6-2.2,2.6-3.3,5.1-2.6
			c3.7,0.9,7.4,1.9,11.2,2.9c3.5,0.9,4.8,2.5,4.4,5c-0.4,2.5-2.2,3.5-6.2,3.1c0,1.4,0.1,2.8,0,4.2c-0.2,2.7-1.8,4.4-4.1,4.3
			c-2.4,0-3.8-1.7-3.9-4.5C167.5,196.1,167.5,194.1,167.5,191.9z"/>
		<path class="st0" d="M218.6,203.3c-1.1,1.2-1.9,2.9-3.1,3.2c-1.3,0.4-3.3,0-4.3-0.8c-2.1-1.6-4.1-3.1-6.8-2.5
			c-1.7,0.4-3.5,1.3-4.9,2.4c-2.4,1.7-4.5,1.9-6.2,0.1c-1.5-1.7-1.3-4,0.6-6c5.9-6.2,16.5-6.3,22.4-0.1
			C217.2,200.5,217.7,201.8,218.6,203.3z"/>
		<path class="st0" d="M93.1,330c-6.8,0-12.2-5.3-12.2-12.1c0-6.7,5.5-12.2,12.2-12.2c6.5,0,12,5.5,12.1,12
			C105.2,324.5,99.8,330,93.1,330z M97,317.9c0-2.2-2-4.1-4.2-3.9c-2.2,0.1-3.8,1.9-3.8,4.1c0,2.3,1.9,4,4.2,3.9
			C95.3,321.8,97.1,320,97,317.9z"/>
	</g>
</g>
</svg>
