<?xml version="1.0" encoding="utf-8"?>
<!-- Generator: Adobe Illustrator 24.1.0, SVG Export Plug-In . SVG Version: 6.00 Build 0)  -->
<svg version="1.1" id="Capa_1" xmlns="http://www.w3.org/2000/svg" xmlns:xlink="http://www.w3.org/1999/xlink" x="0px" y="0px"
	 viewBox="0 0 400 400" style="enable-background:new 0 0 400 400;" xml:space="preserve">
<style type="text/css">
	.st0{fill:#FFFFFF;}
</style>
<g id="Ymikg8.tif">
	<g>
		<path class="st0" d="M317.5,197.3c0,12.1,0.8,24.2-0.2,36.2c-1.9,24.1-15.4,41.8-34,55.8c-16.6,12.5-36.1,18.5-56.1,22.8
			c-21.3,4.5-42.9,6.1-64.5,3c-26.3-3.8-47.4-15.9-59.1-40.9c-2.8-6.1-4-13.1-5-19.8c-1.3-9.2-1.7-18.5-2.4-27.7
			c-0.5-6.6-2.6-12.8-6.3-18.2c-8.8-12.5-9.9-25.9-5.2-39.9c7.5-22.4,17-43.9,34-61.1c7.4-7.6,15.7-14.1,25.2-18.9
			c12.7-6.4,25.8-7,39.1-1.9c8.8,3.4,17.5,6.8,26.2,10.4c7,2.9,14.3,3.5,21.7,2.5c4.7-0.6,9.3-1.2,14-1.8c26.2-3.3,45.2,8.3,59.6,29
			c8.1,11.6,11.7,24.7,12,38.8c0.3,10.5,0,21.1,0,31.6C317.1,197.3,317.3,197.3,317.5,197.3z M308.1,197.3c-0.4,0-0.7,0-1.1,0
			c0-9.7,0.2-19.3,0-29c-0.3-16.4-5.8-30.9-17-43c-8-8.7-17.1-15.9-29.2-18.3c-9-1.8-18-1.2-26.9,0.3c-9.6,1.6-18.9,1.5-28-2.7
			c-7.2-3.3-14.6-6-21.9-8.8c-7.1-2.7-14.5-3.6-22.1-2.2c-12.2,2.1-21.8,8.9-30.7,16.8c-19.5,17.1-29.5,39.7-37,63.8
			c-3.5,11.5-1.9,22.3,5,32.3c3.8,5.6,6,11.7,6.5,18.5c0.5,7,1.1,13.9,1.6,20.9c0.6,9.2,2.4,18.2,7.1,26.2
			c10.6,18,26.9,28.3,47,31.9c23.3,4.2,46.6,2.4,69.6-3.2c15.1-3.7,29.9-8.6,42.8-17.6c22.3-15.7,35.4-36.4,34.4-64.6
			C307.8,211.6,308.1,204.4,308.1,197.3z"/>
		<path class="st0" d="M217.9,225.3c0,2.5,0,4.6,0,6.9c2,0.4,4,0.5,5.6,1.4c1.2,0.8,2.5,2.6,2.5,3.9c0,0.9-2.1,2.3-3.5,2.5
			c-1.8,0.3-3.7-0.4-6-0.7c-0.9,2.1-1.7,4.2-2.6,6.4c1.8,1.1,3.7,1.9,4.9,3.2c1,1.1,1.1,3,1.6,4.5c-1.6,0.5-3.3,0.9-4.9,1.4
			c-0.1,0-0.2-0.1-0.3-0.1c-5.5-2.4-5.5-2.4-9.1,3c1.1,1.4,2.6,2.8,3.2,4.4c0.5,1.4,0,3.2-0.1,4.8c-1.7-0.2-3.6,0.1-5-0.6
			c-1.5-0.8-2.4-2.5-3.9-4.1c-2,1.1-3.9,2.3-6,3.5c0.6,2.1,1.7,4,1.6,5.9c0,1.4-1.1,3.4-2.3,4c-0.8,0.4-2.6-1-4-1.7
			c-0.2-0.1-0.2-0.4-0.3-0.7c-2.6-5.2-2.6-5.2-9-3.6c0,1.7,0.5,3.8-0.1,5.4c-0.6,1.5-2.3,2.5-3.5,3.8c-1.1-1.3-2.6-2.5-3.2-4
			c-0.6-1.6-0.1-3.5-0.1-5.3c-1.5-0.3-2.6-0.5-3.7-0.8c-2.6-0.9-4.1-0.1-4.7,2.6c-0.2,1.1-0.7,2.4-1.5,3c-0.9,0.8-2.6,1.7-3.5,1.3
			c-1.1-0.5-1.8-2.1-2.5-3.3c-0.2-0.3,0-1,0.2-1.5c1.2-5.9,1.2-5.9-4.4-8.6c-0.7,0.7-1.5,1.5-2.2,2.3c-1.8,1.9-3.6,4.7-6.6,2.1
			c-2.8-2.4-0.5-4.5,1.1-6.6c0.7-0.9,1.4-1.8,2.1-2.8c-0.8-1-1.6-1.9-2.2-2.8c-1.4-2.3-3.1-2.8-5.3-1c-0.5,0.4-1.1,0.6-1.7,0.9
			c-2,1-4.1,1.2-5.3-1.1c-1.1-2.2,0-3.9,1.9-5.1c1.4-0.8,2.8-1.7,4.2-2.6c-0.4-1.3-0.8-2.4-1.1-3.5c-0.5-2.4-1.8-3.5-4.3-2.7
			c-0.7,0.2-1.6,0.6-2.2,0.3c-1.5-0.7-3.7-1.4-4.3-2.6c-1-2.4,1-3.4,3.1-4.2c2-0.7,5.2,0.5,5.2-3.4c0.1-3.3-0.6-5.4-4.4-5.6
			c-2.5-0.1-4.6-1.1-4.2-4.2c0.5-3.2,3-3,5.3-2.6c1.4,0.2,2.7,0.4,4.3,0.6c0.6-1.4,1-2.8,1.6-4c0.9-1.8,0.7-3.1-1.3-4
			c-0.6-0.2-1.1-0.6-1.6-1c-2.2-1.3-3.9-3-2.4-5.5c1.6-2.6,3.9-1.6,6-0.5c1.2,0.6,2.4,1.3,3.8,2.1c1.5-1.8,2.9-3.4,4.5-5.3
			c-1.2-1.5-2.8-2.9-3.3-4.5c-0.5-1.5,0-3.4,0.1-5.1c1.7,0.2,3.4,0.2,5.1,0.7c0.7,0.2,1.3,1.2,1.8,1.9c1.4,2.5,3.1,1.8,5.1,0.8
			c2.1-1.1,3.2-2.4,2.2-4.9c-1-2.5-2.7-5.8,1.1-7.1c3.8-1.4,4.4,2.2,5.5,4.8c0.3,0.8,0.7,1.6,1.1,2.5c1.1-0.2,2.1-0.4,3-0.4
			c3.4,0.1,4.2-1.5,4.2-4.7c0-1.7,0.9-4,2.3-5c1.9-1.4,4.2,0.5,4.6,3.4c0.8,5.9,0.8,5.9,7.1,6.7c0.5-1.4,1-2.9,1.6-4.4
			c0.9-2.1,2.2-4,4.9-3c2.6,1,2.5,3.2,1.8,5.4c-0.8,2.3-2.4,4.6,1.1,6.5c2.6,1.3,4.3,1.4,6-1.2c0.8-1.2,2.2-2.3,3.5-2.7
			c0.9-0.3,2.9,0.6,3.1,1.3c0.4,1.4,0.4,3.3-0.3,4.5c-3.3,5.4-3.4,5.4,1.5,9.6c1.6-0.9,3.2-2.2,5-2.5c1.4-0.2,3.8,0.3,4.5,1.3
			c0.6,0.9-0.6,3-1.1,4.5c-0.2,0.5-1,0.7-1.5,1.1c-3.4,2.1-3.8,4.3-1.4,7.5c0.4,0.5,1.4,0.9,2.2,0.9c1.3,0,2.7-0.8,3.7-0.4
			c1.6,0.5,2.9,1.8,4.3,2.7c-1.1,1.3-1.9,3-3.3,3.9C221.6,224.9,219.7,224.9,217.9,225.3z M142.9,228.7
			c-0.1,18.5,15.1,33.8,33.6,33.9c18.6,0.1,34.2-15.4,34.2-33.9c0-18.4-15.5-33.8-33.9-33.8C158.2,194.9,142.9,210.2,142.9,228.7z"
			/>
		<path class="st0" d="M263.3,179.9c-10.8,4.6-19.2,1.5-26.8-6.4c-8.7-9-19.6-13.3-32-14.3c-3.2-0.2-6.4-0.5-9.4-1.4
			c-9.3-2.8-15-12-13.6-21.6c1.4-9.8,9.5-17.2,19.3-17.2c27.1-0.1,49.7,10.1,68,29.9c5.6,6.1,6.7,14.5,2.8,22
			c-1.4,2.7-1.4,4.8-0.2,7.5c4.1,8.6,6,17.8,6.6,27.2c0.1,1.1,0.1,2.3,0.1,3.4c-0.1,2.5-1.4,4.1-4,4.2c-2.7,0-3.7-1.8-3.8-4.2
			c-0.4-8.9-1.9-17.7-5.5-26C264.4,182.1,264,181.2,263.3,179.9z M204.6,126.9c-9.3-0.2-14.9,4.2-15.2,11.4
			c-0.4,7.6,4.8,12.3,13.8,12.8c16.2,0.8,29.9,7.1,41.3,18.7c5.4,5.6,12.5,5.8,17.6,0.9c5.1-4.8,5.1-12-0.2-17.6
			C246.2,136.6,226.8,128.1,204.6,126.9z"/>
		<path class="st0" d="M268.3,260.1c-9.6,0.1-17.6-7.7-17.6-17.3c0-9.5,7.9-17.5,17.5-17.5c9.3,0,17.3,7.9,17.5,17.2
			C285.8,252.1,277.9,260,268.3,260.1z M277.6,242.8c0-5.2-4.2-9.4-9.5-9.4c-5.1,0-9.3,4-9.4,9.1c-0.1,5.3,3.9,9.4,9.3,9.5
			C273.4,252.1,277.5,248.1,277.6,242.8z"/>
		<path class="st0" d="M151.3,135.4c-1.5,2-2.4,4-3.9,5.1c-5.9,4.2-10.7,9.3-14.3,15.6c-2,3.6-5.9,4.3-9.2,2.3
			c-2.9-1.8-3.6-4.7-1.7-8.3c4.3-8.2,10.4-14.7,18.5-19.2c1.8-1,4.7-0.9,6.7-0.2C148.9,131.2,149.8,133.5,151.3,135.4z"/>
		<path class="st0" d="M211.7,291c-0.9-0.8-2.7-1.7-2.9-2.9c-0.2-1.4,0.6-3.6,1.8-4.3c4.8-3,9.7-5.8,14.8-8.3
			c1.1-0.6,3.7-0.2,4.3,0.6c0.8,1.1,1.1,3.8,0.3,4.7C225.3,286.1,219.1,289,211.7,291z"/>
		<path class="st0" d="M291.2,156.5c-0.4,0.5-1.2,2.1-2.3,2.3c-1.3,0.3-3.5-0.2-4.3-1.2c-3.5-4.4-6.9-9-10-13.7
			c-0.7-1.1-0.8-3.5-0.1-4.5c0.7-0.9,3-1.4,4.3-1.1C282.8,139.4,291.2,151.4,291.2,156.5z"/>
		<path class="st0" d="M250.9,113.2c7.4,2.1,13.4,5.1,18,10.5c0.7,0.9,0.6,3.6-0.2,4.3c-1,0.9-3.4,1.4-4.6,0.8
			c-5-2.5-10-5.4-14.7-8.5c-1.1-0.7-1.9-3.1-1.6-4.4C248,114.7,249.9,113.9,250.9,113.2z"/>
		<path class="st0" d="M249.3,213.4c-0.7,2.8-0.8,5.4-4.1,5.6c-3.1,0.3-3.8-2-4.4-4.6c-1-4.3-2.2-8.5-3.6-12.7
			c-0.9-2.5-1.5-4.9,1.3-6.2c2.8-1.3,4.8,0.5,5.7,2.9C246.1,203.4,247.6,208.4,249.3,213.4z"/>
		<path class="st0" d="M174.3,151.7c0.1,3.1-2.1,5.4-5.1,5.5c-2.9,0-5.4-2.4-5.4-5.3c0-2.7,2.2-5.1,5-5.3
			C171.7,146.5,174.2,148.8,174.3,151.7z"/>
		<path class="st0" d="M285.6,179.9c0.2-2.8,2.7-5,5.4-4.8c2.9,0.2,5.2,2.8,5.1,5.6c-0.2,2.9-2.7,5.1-5.7,4.9
			C287.4,185.5,285.3,182.9,285.6,179.9z"/>
		<path class="st0" d="M166.6,113.1c2.9,0.1,5.3,2.5,5.1,5.5c-0.1,2.8-2.4,5-5.2,5c-3,0-5.3-2.3-5.3-5.3
			C161.2,115.4,163.6,113.1,166.6,113.1z"/>
		<path class="st0" d="M294.3,213.3c2.8-0.1,5.4,2.3,5.5,5.2c0.1,2.9-2.2,5.3-5.2,5.4c-2.9,0-5.1-2-5.2-4.9
			C289.3,215.9,291.4,213.4,294.3,213.3z"/>
		<path class="st0" d="M258.3,271.8c0,3-2.3,5.3-5.3,5.3c-2.8,0-5.1-2.2-5.2-5.1c-0.1-2.9,2.2-5.5,5.1-5.5
			C255.9,266.5,258.3,268.9,258.3,271.8z"/>
		<path class="st0" d="M119.2,185.6c-3,0.1-5.4-2.2-5.4-5.2c0-2.9,2.5-5.4,5.3-5.4c2.7,0,5.1,2.4,5.3,5.1
			C124.5,183.1,122.2,185.6,119.2,185.6z"/>
		<path class="st0" d="M176.8,207.6c5.8,0.7,11,2.1,15.6,5.4c11.3,8.1,11.4,22.7,0.1,30.8c-8.6,6.3-21.9,6.5-30.5,0.5
			c-13.3-9.2-12.1-26.1,2.5-33.1C168.4,209.5,172.7,208.8,176.8,207.6z M174.5,237.2c-0.1-3-2.4-5.3-5.4-5.2
			c-2.9,0.1-5.3,2.5-5.2,5.4c0.1,2.8,2.5,5.2,5.5,5.2C172.3,242.6,174.5,240.2,174.5,237.2z M188,220.5c0-0.6-0.1-1.2-0.1-1.8
			c-1.7-1.1-3.3-3-5.1-3.1c-2.4-0.2-4.3,1.6-4.1,4.4c0.1,2.7,2,4.5,4.5,4.1C184.9,223.7,186.4,221.8,188,220.5z M192.4,238.7
			c0-0.5,0-1.1,0-1.6c-1.4-0.9-2.9-2.5-4.2-2.4c-1.2,0.1-3.2,2.3-3.1,3.2c0.2,1.4,2,3.4,3.3,3.5C189.6,241.6,191,239.7,192.4,238.7z
			 M166.2,213.5c-0.6,0-1.2,0-1.8,0c-0.9,1.4-2.6,2.9-2.4,4.1c0.3,1.3,2.2,3,3.6,3.2c0.8,0.2,2.9-2.1,3-3.3
			C168.7,216.3,167,214.9,166.2,213.5z"/>
	</g>
</g>
</svg>
