<?xml version="1.0" encoding="utf-8"?>
<!-- Generator: Adobe Illustrator 24.1.0, SVG Export Plug-In . SVG Version: 6.00 Build 0)  -->
<svg version="1.1" id="Capa_1" xmlns="http://www.w3.org/2000/svg" xmlns:xlink="http://www.w3.org/1999/xlink" x="0px" y="0px"
	 viewBox="0 0 400 400" style="enable-background:new 0 0 400 400;" xml:space="preserve">
<style type="text/css">
	.st0{fill:#FFFFFF;}
</style>
<g id="RuUgdZ.tif_2_">
</g>
<g id="TT9wkl.tif">
	<g>
		<path class="st0" d="M242.2,55.9c3.3,1.3,6.5,2.6,9.8,3.8c6,2.2,12,4.2,18,6.4c3.5,1.3,4.9,2.8,4.6,5.1c-0.3,2.5-1.9,3.6-5.8,3.8
			c-1.6,4.4-3.2,8.9-4.7,13.4c-0.2,0.6,0,1.6,0.4,2.2c2.4,3.1,2.7,6.4,1.4,10.1c-2.4,6.8-4.8,13.6-7.3,20.7c2.1,0.7,4,1.4,5.9,2.1
			c5.2,1.9,7.2,5.4,6.5,11c-0.1,0.9,0.5,2.3,1.2,2.9c5.6,5,11.8,9.4,17,14.7c9.8,10.1,14.2,22.7,14.4,36.8c0.1,4.5,0,9,0,13.5
			c0,0.9,0,1.8,0,3.1c2.6,0,4.9,0,7.2,0c7.7,0.2,12.4,4.9,12.4,12.6c0,9.5,0,18.9,0,28.4c0,3.5-2.1,5.4-5,4.8
			c-2.7-0.6-3.4-2.6-3.4-5.1c0-9,0-18,0-27c0-4.4-0.8-5.3-5.2-5.3c-15.7,0-31.3,0-47,0c-3.9,0-4.9,1-4.9,4.8c0,25.1,0,50.3,0,75.4
			c0,0.7,0.1,1.5,0.2,2.4c18.9,0,37.7,0,56.9,0c0-1.1,0-2.1,0-3.1c0-8.5,0-17.1,0-25.6c0-3.5,2.4-5.6,5.3-4.8c2.5,0.7,3.1,2.6,3.1,5
			c0,8.3,0,16.7,0,25c0,1,0,2.1,0,3.6c1.7,0,3.2-0.1,4.8,0c5.4,0.2,9.1,3.9,9.2,9.3c0.1,3.1,0.1,6.2,0,9.3c-0.2,5.3-3.8,8.9-9.1,9.2
			c-2.1,0.1-4.3,0-6.5,0c-0.2,2.6-0.2,4.8-0.5,7c-0.9,7.1-6.3,12-13.4,12.5c-1.1,0.1-2.2,0.1-3.4,0.1c-37.8,0-75.6-0.2-113.4,0.1
			c-11.9,0.1-18.4-7.6-17.5-17.3c0.1-0.6-0.1-1.3-0.1-2.3c-2,0-3.9,0-5.9,0c-6.2-0.1-9.8-3.7-9.8-9.8c0-2.7,0-5.4,0-8.2
			c0.1-6.1,3.7-9.8,9.8-9.8c9.9-0.1,19.9,0,29.8,0c11.1,0,22.1,0,33.2,0c1,0,2,0,3.7,0c-3.3-4.2-6.4-7.7-9-11.5
			c-2.2-3.3-4.9-4.4-8.8-4.3c-10.2,0.3-20.4-0.2-30.7,0.2c-12,0.4-16.7-2-15.8-15.7c0.1-1.2,0-2.4,0-3.5c-0.4-0.2-0.5-0.4-0.7-0.4
			c-3.6-0.4-5.4-2-5.2-4.6s2.2-3.9,5.8-3.9c25.2,0,50.4,0,75.7,0c1.1,0,2.2,0,3.6,0c0-1.4,0-2.5,0-3.6c0-9.9,0-19.9,0-29.8
			c0-9.5,4.4-14,13.9-14c2,0,4.1,0,6.7,0c-0.9-9.7,2.3-19.6-3.9-28.2c-2.2-3-5.4-5.4-8.2-8c-0.3-0.3-1.1-0.5-1.5-0.3
			c-3.7,1.8-7.1,0.5-10.6-0.8c-0.9-0.4-1.9-0.6-3.1-1c-1.6,4.6-3.2,9-4.7,13.3c-1.4,3.9-3.7,6.7-8,7.3c-0.7,0.1-1.6,1-1.9,1.7
			c-3.1,8.5-6.1,17.1-9.1,25.7c-0.2,0.7,0,1.8,0.4,2.4c2,3.2,1.1,5.9-2.4,7.1c-0.8,0.3-1.6,1.1-2,1.8c-0.6,1.1-0.9,2.5-1.4,3.7
			c-1.9,4.2-6.3,6.4-10.7,5c-5.4-1.7-10.7-3.5-15.9-5.7c-1.9-0.8-3.5-2.7-5-4c-6,2.2-12.2,4.5-18.4,6.6c-2.6,0.9-5.5,1.3-8.2,1.7
			c-3.4,0.6-5.4-0.6-5.9-3.2c-0.5-2.6,1.1-4.6,4.6-5.1c7.6-1.2,14.7-3.5,21.6-6.8c25.5-12.5,41.7-40.8,39.5-69.1
			C212.5,119.6,193.9,95,165,86c-28.3-8.7-53.7-2.3-74.1,19.2c-22.5,23.7-26.2,56.6-10,85c11.1,19.5,28.2,31.1,50.4,35.1
			c0.9,0.2,1.9,0.3,2.8,0.5c2.6,0.7,3.9,2.6,3.5,4.9c-0.4,2.3-2.5,3.6-5.1,3.3c-9.9-1.4-19.4-4.3-28.1-9.3
			c-21.6-12.4-35-30.8-40.2-55.3c-0.6-2.9-1-5.9-1.5-8.8c0-3.9,0-7.9,0-11.8c0.4-2.2,0.7-4.4,1.1-6.6c5-35.3,34.4-64,70.1-67.6
			c32.5-3.3,58,9.2,76.7,36c0.5,0.7,1,1.3,1.6,2.2c0.5-1.4,1-2.5,1.4-3.6c2.8-7.9,5.6-15.9,8.4-23.8c2-5.6,5.4-7.7,11.2-7
			c0.3,0,0.7-0.1,1.1-0.1c1.5-4.1,3-8.2,4.3-12.3c0.2-0.7,0.1-1.9-0.4-2.4c-2.7-3.2-2.5-5.2,1.2-7.7
			C240.3,55.9,241.2,55.9,242.2,55.9z M220.7,176.8c1.8,0.7,3.9,1.4,5.9,2.2c1.8,0.7,2.6,0.2,3.3-1.6c9.2-26.2,18.5-52.4,27.8-78.6
			c0.7-1.9,0.3-2.8-1.7-3.5c-7.6-2.6-15.2-5.3-22.8-8.1c-2.1-0.8-3-0.3-3.7,1.8c-3.6,10.5-7.3,21-11.1,31.5c-0.8,2.1-0.8,3.8,0,5.9
			c4.3,11.5,6.1,23.4,4.7,35.6C222.5,166.8,221.5,171.7,220.7,176.8z M247.6,305c-24.7,0-49.5,0-74.2,0c-7.2,0-7.2,0-7.2,7.2
			c0,3.8,0,3.8,3.7,3.8c50.5,0,101,0,151.6,0c7.4,0,7.4,0,7.3-7.3c0-3.7,0-3.7-3.6-3.7C299.3,305,273.4,305,247.6,305z M182.3,324.6
			c-1.2,8.1,1.3,11.1,9,11c37.7-0.2,75.4-0.1,113-0.1c1.1,0,2.3,0.1,3.4-0.1c2.5-0.4,4.4-1.7,4.9-4.4c0.3-2.1,0.3-4.2,0.5-6.4
			C269.1,324.6,225.7,324.6,182.3,324.6z M267.2,145.1c-1.7,4.8-3.6,9.7-5.2,14.7c-0.2,0.8,0.2,2.1,0.9,2.7c2.2,2.1,4.7,3.7,6.8,5.9
			c5.8,5.8,8.4,12.9,8.4,21.1c0,5.2,0,10.4,0,15.8c5.8,0,11.3,0,16.3,0C298.2,179.3,290.9,158.5,267.2,145.1z M228.1,261.4
			c0,3.8-0.2,7.5,0.1,11.1c0.1,1.5,0.6,3.3,1.5,4.5c4.4,5.8,9.1,11.4,13.5,17.2c1.6,2.1,3.3,2.8,5.8,1.9c0-11.6,0-23.1,0-34.8
			C242.1,261.4,235.3,261.4,228.1,261.4z M219.5,272.4c0-3.9,0-7.4,0-11c-13.7,0-27.3,0-41,0c0,3,0.1,5.8,0,8.6
			c-0.1,1.9,0.8,2.4,2.5,2.4c4.8-0.1,9.6,0,14.3,0C203.3,272.4,211.2,272.4,219.5,272.4z M255.8,129.3c-3.6,10.1-7,19.8-10.5,29.7
			c2.5,0.9,4.7,1.6,7.2,2.5c3.5-10,7-19.7,10.5-29.6C260.3,131,258.3,130.2,255.8,129.3z M242.1,81.3c4.8,1.7,9.3,3.2,13.8,4.8
			c1.8-5.1,3.4-9.7,5-14.3c-4.7-1.7-9.1-3.2-13.7-4.9C245.5,71.8,243.8,76.4,242.1,81.3z M220.1,185.7c-1-0.3-1.7-0.6-2.6-0.9
			c-4,9.7-9.7,18.1-17,25.8c3.4,1.2,6.4,2.2,9.6,3.4C213.5,204.4,216.7,195.2,220.1,185.7z M205.4,227.2c0.7-2,1.3-3.6,1.9-5.4
			c-4.1-1.4-7.9-2.6-11.6-4.2c-2.7-1.2-4.1,0.4-5.5,1.9c-0.9,1-0.7,2,0.8,2.5C195.7,223.7,200.3,225.4,205.4,227.2z"/>
		<path class="st0" d="M143.1,87.1c36.9-0.1,67,30,67.1,67.1c0.1,36.9-29.9,67.1-66.9,67.2c-37,0.2-67.4-30.2-67.3-67.2
			C76.1,117.1,106.1,87.2,143.1,87.1z M143,95.5c-32.6,0.3-59,26.9-58.6,59.1c0.4,32.6,26.6,58.6,58.9,58.4
			c32.4-0.2,58.6-26.6,58.4-58.9C201.6,121.6,175.1,95.3,143,95.5z"/>
		<path class="st0" d="M152.3,138.8c0,11.1-9.1,20.2-20.2,20.1c-11.1,0-20.3-9.3-20.2-20.2c0.1-11,9.4-20.3,20.3-20.2
			C143.2,118.6,152.3,127.7,152.3,138.8z M143.8,138.7c0-6.5-5.4-11.9-11.8-11.8c-6.3,0.1-11.6,5.3-11.7,11.7
			c-0.1,6.5,5.2,11.8,11.7,11.9C138.6,150.5,143.8,145.3,143.8,138.7z"/>
		<path class="st0" d="M142.3,166.6c10,0,18.3,8.3,18.2,18.2c0,10-8.3,18.2-18.3,18.2s-18.2-8.3-18.2-18.2
			C124.1,174.7,132.3,166.5,142.3,166.6z M142.4,175c-5.5-0.1-9.9,4.3-9.9,9.7s4.4,9.8,9.8,9.8c5.3,0,9.7-4.3,9.8-9.6
			C152.2,179.6,147.8,175.1,142.4,175z"/>
		<path class="st0" d="M170.2,111.4c7.4,0,13.5,6,13.4,13.4c-0.1,7.2-6.1,13.2-13.3,13.2c-7.4,0-13.5-6.1-13.4-13.4
			S162.9,111.4,170.2,111.4z M170.1,129.6c2.6,0.1,4.9-2.1,5-4.7s-2-4.9-4.6-5c-2.8-0.1-5.1,2-5.1,4.7S167.5,129.5,170.1,129.6z"/>
		<path class="st0" d="M176.4,155.4c0,6.7-5.5,12-12.2,12s-12.1-5.5-12-12.2c0-6.6,5.6-12.1,12.2-12.1
			C171,143.2,176.4,148.7,176.4,155.4z M164.3,159c2,0,3.6-1.5,3.6-3.5c0.1-2-1.7-3.9-3.7-3.8c-2.1,0.2-3.5,1.4-3.6,3.6
			C160.5,157.3,162.2,159,164.3,159z"/>
		<path class="st0" d="M119.7,169.5c0,6.1-4.8,10.9-10.8,10.9s-10.9-4.7-11-10.8s4.9-11.1,11-11.1
			C114.9,158.6,119.7,163.5,119.7,169.5z M112.4,169.3c-1.8-1.1-2.9-2.2-3.8-2.1c-0.8,0.1-2.2,1.6-2.1,2.2c0.2,0.9,1.4,2.2,2.3,2.3
			C109.7,171.9,110.7,170.6,112.4,169.3z"/>
		<path class="st0" d="M174.6,172c2.8,0,5.2,3.1,3.8,5.5c-1.2,2.1-3.1,4-5.2,5.2c-2.4,1.4-5.4-1-5.4-3.8
			C167.7,176.3,172,172,174.6,172z"/>
	</g>
</g>
</svg>
