<?xml version="1.0" encoding="UTF-8"?>
<svg id="Capa_1" xmlns="http://www.w3.org/2000/svg" xmlns:xlink="http://www.w3.org/1999/xlink" version="1.1" viewBox="0 0 250 250">
  <!-- Generator: Adobe Illustrator 29.3.1, SVG Export Plug-In . SVG Version: 2.1.0 Build 151)  -->
  <defs>
    <style>
      .st0 {
        fill: none;
        stroke: #f9fbfc;
        stroke-miterlimit: 10;
        stroke-width: 10px;
      }

      .st1 {
        isolation: isolate;
      }

      .st2 {
        fill: #f9fbfc;
      }
    </style>
  </defs>
  <path class="st0" d="M235.3,123.7c-.7-60.3-49.8-109-110.3-109S14.7,64.1,14.7,125s48.7,109.6,109,110.3h111.6v-111.6h0Z"/>
  <g class="st1">
    <g class="st1">
      <path class="st2" d="M125.6,148.8h-24.2v-42.8h24.2v5.9h-17.2v11.7h16.1v5.9h-16.1v13.4h17.2v5.9Z"/>
      <path class="st2" d="M159.5,137.2c0,3.8-1.4,6.8-4.1,9s-6.6,3.3-11.4,3.3-8.8-.8-11.9-2.3v-6.6c2,.9,4,1.6,6.2,2.2s4.2.8,6.1.8c2.8,0,4.8-.5,6.1-1.6s2-2.5,2-4.2-.6-3-1.8-4.1c-1.2-1.1-3.7-2.4-7.5-4-3.9-1.6-6.7-3.4-8.3-5.4-1.6-2-2.4-4.5-2.4-7.3s1.3-6.4,3.8-8.4c2.5-2.1,5.9-3.1,10.2-3.1s8.2.9,12.2,2.7l-2.2,5.7c-3.8-1.6-7.2-2.4-10.2-2.4s-4,.5-5.2,1.5-1.8,2.3-1.8,3.9.2,2.1.7,2.9,1.2,1.5,2.3,2.2c1.1.7,3,1.6,5.8,2.8,3.1,1.3,5.4,2.5,6.9,3.7s2.5,2.4,3.2,3.8c.7,1.4,1,3.1,1,5Z"/>
    </g>
  </g>
</svg>