<?xml version="1.0" encoding="UTF-8"?>
<svg id="Capa_1" xmlns="http://www.w3.org/2000/svg" xmlns:xlink="http://www.w3.org/1999/xlink" version="1.1" viewBox="0 0 250 250">
  <!-- Generator: Adobe Illustrator 29.3.1, SVG Export Plug-In . SVG Version: 2.1.0 Build 151)  -->
  <defs>
    <style>
      .st0 {
        fill: none;
        stroke: #f9fbfc;
        stroke-miterlimit: 10;
        stroke-width: 10px;
      }

      .st1 {
        isolation: isolate;
      }

      .st2 {
        fill: #f9fbfc;
      }
    </style>
  </defs>
  <path class="st0" d="M235.3,123.7c-.7-60.3-49.8-109-110.3-109S14.7,64.1,14.7,125s48.7,109.6,109,110.3h111.6v-111.6h0Z"/>
  <g class="st1">
    <g class="st1">
      <path class="st2" d="M113.6,111.4c-4,0-7.2,1.4-9.5,4.3-2.3,2.9-3.5,6.8-3.5,11.8s1.1,9.2,3.3,11.9c2.2,2.7,5.4,4,9.6,4s3.6-.2,5.3-.5,3.5-.8,5.3-1.4v6c-3.4,1.3-7.2,1.9-11.4,1.9-6.3,0-11.1-1.9-14.4-5.7-3.4-3.8-5-9.2-5-16.3s.8-8.3,2.4-11.7c1.6-3.3,4-5.9,7.1-7.7,3.1-1.8,6.7-2.7,10.9-2.7s8.4.9,12.1,2.8l-2.5,5.8c-1.4-.7-3-1.3-4.6-1.8s-3.3-.8-5.1-.8Z"/>
      <path class="st2" d="M160,148.8l-4.3-11.9h-16.4l-4.2,11.9h-7.4l16-43h7.6l16,43h-7.4ZM153.8,130.9l-4-11.7c-.3-.8-.7-2-1.2-3.7-.5-1.7-.9-2.9-1.1-3.7-.5,2.4-1.3,5-2.3,7.9l-3.9,11.2h12.5Z"/>
    </g>
  </g>
</svg>