<?xml version="1.0" encoding="UTF-8"?>
<svg id="Capa_1" xmlns="http://www.w3.org/2000/svg" xmlns:xlink="http://www.w3.org/1999/xlink" version="1.1" viewBox="0 0 250 250">
  <!-- Generator: Adobe Illustrator 29.3.1, SVG Export Plug-In . SVG Version: 2.1.0 Build 151)  -->
  <defs>
    <style>
      .st0 {
        fill: none;
        stroke: #f9fbfc;
        stroke-miterlimit: 10;
        stroke-width: 10px;
      }

      .st1 {
        isolation: isolate;
      }

      .st2 {
        fill: #f9fbfc;
      }
    </style>
  </defs>
  <path class="st0" d="M235.3,123.7c-.7-60.3-49.8-109-110.3-109S14.7,64.1,14.7,125s48.7,109.6,109,110.3h111.6v-111.6h0Z"/>
  <g class="st1">
    <g class="st1">
      <path class="st2" d="M117.6,148.8h-24.2v-42.8h24.2v5.9h-17.2v11.7h16.1v5.9h-16.1v13.4h17.2v5.9Z"/>
      <path class="st2" d="M162.5,148.8h-8.6l-21.1-34.1h-.2v1.9c.4,3.6.6,7,.6,10v22.3h-6.4v-42.8h8.5l21,34h.2c0-.4-.1-2.1-.2-4.9s-.2-5-.2-6.6v-22.4h6.4v42.8Z"/>
    </g>
  </g>
</svg>