<?xml version="1.0" encoding="utf-8"?>
<!-- Generator: Adobe Illustrator 24.1.0, SVG Export Plug-In . SVG Version: 6.00 Build 0)  -->
<svg version="1.1" id="Capa_1" xmlns="http://www.w3.org/2000/svg" xmlns:xlink="http://www.w3.org/1999/xlink" x="0px" y="0px"
	 viewBox="0 0 991.3 213.9" style="enable-background:new 0 0 991.3 213.9;" xml:space="preserve">
<style type="text/css">
	.st0{fill:#00CFFF;}
</style>
<g>
	<g>
		<g>
			<path class="st0" d="M40.9,21c2.9,1.1,5.8,2.9,8.7,5.2l-3.5,4.4c-2.6-2-5-3.5-7.3-4.4s-5-1.3-8-1.3c-7.1,0-12.8,2.7-17.2,8.1
				S7,46.7,7,57.9c0,7.3,1,13.4,3.1,18.4c2,5,4.8,8.6,8.4,11c3.5,2.4,7.6,3.6,12.1,3.6c3.6,0,6.6-0.5,9.1-1.6c2.5-1.1,5-2.6,7.5-4.6
				l3.4,4.3c-5.6,5-12.4,7.6-20.4,7.6c-5.8,0-11-1.5-15.6-4.5S6.5,84.7,3.9,78.9C1.3,73.1,0,66.1,0,57.9s1.3-15.3,4-21.1
				s6.3-10.2,10.9-13.1c4.6-3,9.7-4.4,15.4-4.4C34.5,19.3,38,19.8,40.9,21z"/>
			<path class="st0" d="M94.7,89.2c0.8,1.3,2,2.3,3.7,3L97,96.7c-2.6-0.5-4.7-1.5-6.1-3S88.5,90,88.1,87c-3.9,6.4-9.9,9.6-17.8,9.6
				c-5.5,0-9.8-1.5-13-4.6s-4.8-7.2-4.8-12.4c0-5.9,2.1-10.5,6.3-13.7c4.2-3.2,10-4.8,17.5-4.8h10.9v-5.6c0-4.6-1-7.9-3.1-10
				c-2-2.1-5.4-3.1-10.2-3.1c-4.4,0-9.6,1.1-15.5,3.3l-1.6-4.8c6.4-2.6,12.4-3.8,18.1-3.8c12.5,0,18.7,6.1,18.7,18.2v27.6
				C93.5,85.7,93.9,87.9,94.7,89.2z M87.2,81.4V65.6h-10c-5.8,0-10.3,1.1-13.3,3.4c-3.1,2.3-4.6,5.7-4.6,10.2c0,3.9,1.1,7,3.2,9.1
				c2.1,2.1,5.1,3.2,8.9,3.2C78.2,91.5,83.5,88.1,87.2,81.4z"/>
			<path class="st0" d="M148.3,41.6c2.7,3.1,4.1,7.4,4.1,12.9v40.9h-6.3v-40c0-4.6-0.9-7.9-2.7-10.1c-1.8-2.1-4.5-3.2-8.1-3.2
				s-6.9,1-9.7,3s-5.5,4.9-8,8.8v41.5h-6.3V38.2h5.5l0.7,9.7c2.3-3.4,5.1-6.1,8.3-8c3.2-1.9,6.8-2.9,10.8-2.9
				C141.6,37,145.6,38.5,148.3,41.6z"/>
			<path class="st0" d="M197.9,38.3c2.6,0.9,5,2.4,7.4,4.4l-3.2,4.2c-1.9-1.5-3.8-2.7-5.9-3.4c-2-0.7-4.3-1.1-6.8-1.1
				c-5.4,0-9.7,2.1-12.9,6.3S171.7,59,171.7,67s1.6,13.9,4.8,17.9s7.5,6,12.9,6c2.6,0,4.9-0.4,6.9-1.2c2.1-0.8,4.2-2,6.3-3.6
				l3.1,4.3c-4.8,4.1-10.3,6.1-16.4,6.1c-4.9,0-9.2-1.2-12.8-3.5s-6.5-5.7-8.5-10.1s-3-9.7-3-15.8c0-6.1,1-11.4,3-15.9
				c2-4.6,4.8-8.1,8.5-10.6c3.6-2.5,7.9-3.7,12.7-3.7C192.5,37,195.4,37.4,197.9,38.3z"/>
			<path class="st0" d="M253.9,69.3h-38.2c0.4,7.4,2.1,13,5.3,16.6s7.3,5.4,12.5,5.4c3,0,5.6-0.5,7.9-1.4c2.3-0.9,4.8-2.4,7.5-4.3
				l3,4c-2.8,2.3-5.8,4.1-8.8,5.3c-3,1.2-6.3,1.8-10,1.8c-7.6,0-13.5-2.6-17.8-7.8c-4.3-5.2-6.5-12.4-6.5-21.6
				c0-6.1,0.9-11.4,2.8-15.9c1.9-4.6,4.5-8.1,8-10.6s7.5-3.8,12.1-3.8c7.3,0,12.8,2.5,16.6,7.4s5.7,11.7,5.7,20.3
				C254.2,66.3,254.1,67.8,253.9,69.3z M247.9,62.7c0-6.4-1.3-11.4-4-15c-2.7-3.6-6.6-5.4-11.9-5.4c-4.7,0-8.6,1.8-11.5,5.5
				c-2.9,3.6-4.5,9.2-4.8,16.6h32.2V62.7z"/>
			<path class="st0" d="M294.6,37.6l-1.2,6c-1.6-0.4-3.3-0.7-5-0.7c-3.9,0-7,1.4-9.4,4.2s-4.4,7.2-6,13.2v35h-6.3V38.2h5.5l0.5,12.8
				c1.5-4.7,3.6-8.3,6.3-10.6c2.7-2.3,6-3.4,9.9-3.4C291.2,37,293.1,37.2,294.6,37.6z"/>
		</g>
	</g>
	<g>
		<path class="st0" d="M344.8,74.5c1.5,0.4,2.4,1,3.3,1.5c1.2,0.6,2.5,0.9,3.8,1.1c2.6,0.7,5.2,1,7.7,1.2c4.6,0,9.4-3,12.7-6.3
			c1.7-1.8,2.5-4.3,2.7-6.7c0-2.2,0-4.4-0.3-6.6c-0.2-1.5-1.3-2.6-1.9-3.8c-0.6-1.1-0.8-2.4-1-3.6c-0.2-1.8-1-5.7-1.9-7.3
			c-0.7-0.9-1.5-1.7-2-2.7c-1.3-2.2-1.3-4.9-2.5-7.3c-0.7-1.5-2-2.2-3.1-3.3c-1.7-1.7-3.4-3.4-4.7-5.3c-0.7-1.1-1.2-2.4-1.3-3.7
			c1-0.3,2-0.2,2.9,0c0.1,0.3,0.2,0.7,0.3,1c0.6,2.4,5,7.2,7.4,7.8c0.7,0.2,1.2,0.9,1.2,1.7c0.1,2.8,1.5,5.4,1.6,8.1
			c0,0.6,0.6,1,1.1,1.1c0.6-0.1,1.1-0.7,1.1-1.2c-0.2-0.8-0.6-1.5-0.8-2.2c-0.3-2-0.7-3.9-1.1-5.9c-0.1-0.4-0.1-0.9,0-1.3
			c0.2-0.3,0.6-0.7,0.9-0.9c0.7-0.6,1.1-1.2,1.7-1.8c0.4,0.4,0.9,0.8,1.3,1.2c-0.2,0.3-0.3,0.8-0.4,1.1c-0.1,0.9-0.3,1.7-0.4,2.5
			c-0.1,2.2,0.8,4.3,0.8,6.5c0,1.9-1,3.7-0.7,5.6c0.8,3,1.3,5.9,1.3,9.1c0.2,0.6,0.6,0.9,1.1,1c0.3,0,0.8-0.3,1-0.7
			c0.3-0.9-0.3-1.9-0.3-2.9c-0.1-1.8-0.4-3.5-0.9-5.3c-0.3-1.6-0.2-3.3,0-4.9c0.2-1.2,0.2-2.5,0.1-3.7c-0.2-1.8-0.7-3.6-0.4-5.4
			c0.1-0.3,0.3-0.7,0.4-1c0.8,1,1.6,2.1,2.2,3.4c0.1,2.2,0.4,4.6,0.2,6.8c-0.2,2,0,4.1,0.3,6.2c0.3,2,0.8,4.1,0.3,6.2
			c-0.2,1.8-1.3,3.4-1.2,5.2c0.1,1.8,0.3,3.6,0.4,5.3c0,4.4-2.1,8.7-5.6,11.3c-1.7,1.2-3.5,2.5-5.2,3.6c-2.6,1.7-5.4,1.7-8.3,1.7
			c-3-0.3-6.1-0.9-9.1-1.6c-2.5-0.8-4.8-2-7.1-3.4c-0.7-0.4-1-1.1-1.7-1.5c-0.2-0.1-0.4-0.1-0.7-0.1c-0.2,0-0.6,0-0.8,0.2
			c-0.3,0.3-0.2,0.9-0.1,1.3c0.2,0.4,0.7,0.8,1.2,1c1.7,0.8,3.3,1.8,4.9,2.8c2.6,1.5,10,2.8,13,2.9c0.4,0.1,1,0.1,1.5,0.1
			c1.1,0,2.2-0.1,3.4-0.2c1.3-0.2,2.7-0.6,3.8-1.2c2.4-1.3,6.4-4.1,8.3-5.9c1.8-1.8,2.7-4,3.6-6.4c0.7-1.9,0.9-3.9,0.6-5.9
			c-0.1-1.7-0.3-3.4-0.1-5c0.2-1.5,0.8-2.9,1-4.4c0.6-3.3-0.6-6.4-0.8-9.5c0-1.6,0-3.1,0.1-4.7c1.7,4.8,2.6,10.8,2.6,17.6
			c-0.2,1-0.3,1.9-0.3,2.9c0,3.7-0.1,6.8-0.8,10.5c-0.3,0.7-0.7,1.3-0.9,2c-0.8,1.6-1.3,3.1-2.6,4.4c-2.4,2.2-5.5,3.6-8,5.8
			c-2.6,2.2-6.2,2.7-9.4,2.7c-0.9,0-1.8-0.1-2.7-0.1c-2.6-0.3-12.7-1.9-14.5-3.7c-0.4-0.4-0.7-1-1.1-1.5c-0.2-0.2-0.6-0.3-0.9-0.3
			c-0.1,0-0.3,0-0.6,0.1c-0.6,0.2-0.6,1-0.3,1.5c0.2,0.6,0.8,0.9,1.2,1.3c0.4,0.3,0.9,0.9,1.5,1.2c2.4,1.3,13,3,15.6,3.3
			c0.8,0.1,1.6,0.1,2.4,0.1c2.1,0,7.1-0.6,8.9-2c1-0.9,2-1.9,3.1-2.7c1-0.6,2-1.2,3-1.9c0.9-0.7,1.9-1.3,2.8-2.1
			c-0.8,1.9-1.8,3.8-2.9,5.4c-0.3,0.2-0.7,0.4-1.1,0.7c-0.8,0.4-1.9,0.2-2.5,1c-0.4,0.7,0.1,1.6,0.9,1.6c-0.6,0.6-1.1,1.1-1.7,1.7
			c-0.6-0.1-1.2-0.2-1.8-0.2c-0.3,0-0.7,0-1,0.1c-2.2,0.4-4.4,1.1-6.7,1.1c-0.1,0-0.2,0-0.3,0c-2.4,0-4.6-0.2-6.8-0.6
			c-3.9-0.8-7.8-1.6-11.7-2.4c-4.1-0.8-4.5-3.5-4.9-7.3c-0.1-1.2-0.6-2.4-0.7-3.5c-0.1-1.2-0.1-2.5-0.3-3.7
			c-0.1-0.8-0.4-1.5-0.8-2.2c-0.8-1.7-1.5-3.4-2.2-5c-0.4-0.9-0.9-1.9-1.2-2.9c-0.1-0.6,0.1-1.3-0.2-2c-0.2-0.3-0.7-0.7-1.1-0.7
			c-0.2,0-0.4,0.1-0.6,0.2c-0.6,0.3-0.4,1.1-0.3,1.7c0.4,1.3,0.8,2.7,1.5,3.9c0.9,1.9,1.8,3.8,2.6,5.7c0.6,1.2,0.7,2.6,0.8,3.9
			c0.2,2.9,1.3,9.2,2.8,11.7c0.4,0.9,1.5,1.5,2.4,1.7c1.3,0.3,2.6,0.4,3.8,0.8c5,1,10,2,15.1,2.6c0.3,0,0.7,0,1,0s0.8,0,1.2,0
			c0.2,0,0.4,0,0.6,0c2.2,0.1,4.3-0.7,6.4-1c-2.6,1.6-5.5,2.8-8.9,3.6c-2.9-0.2-5.6-0.7-8.4-1.2c-4.1-0.9-8.2-1.6-12.3-2.4
			c-0.9-0.1-1.9,0-2.7-0.6c-0.6-0.8-0.4-1.9-0.9-2.8c-1.5-4.1-2.2-8.7-2.8-13.1c-0.3-2.2-1.2-4.4-2.2-6.4c-0.8-1.2-1.3-2.6-2.2-3.7
			c-0.4-0.6-0.8-1.2-0.6-1.9c0.4-0.8,0.9-1.6,1.2-2.4c0.4-1,0.9-2.1,0.8-3.4c0-1-0.3-1.9-0.7-2.9c-0.4-1.7-0.9-3.4-1.5-5
			c-0.8-2.8-1.5-5.3-2.1-7.7c-0.7-2.2-1.1-4.6-1.8-6.8c-1.1-3.5-6.5-7.4-9.5-9.2c0.1-0.9,0.4-1.8,1.1-2.5c0.7,0.3,1.3,0.8,1.9,1.2
			c1.7,1.1,3.5,2,4.7,3.6c0.9,1.1,1.9,2,2.9,2.9c0.9,0.9,1.3,2.1,1.5,3.3c0.4,1.8,0.8,3.7,1.3,5.5c0.2,1.1,0.6,2.2,0.9,3.4
			c1.1,3.4,1.8,6.7,2.8,10.1c0.4,1.2,0.7,2.6,1.1,3.8c0.4,1.3,1.5,2.2,2.1,3.5c0.7,1.1,1,2.4,1.6,3.6c0.7,1.8,2.8,8,4.5,8.7
			C341.4,73.3,342.9,74.5,344.8,74.5z M327.7,58.2c-0.3,1-0.8,2-1.2,2.9c-0.1,0.6-0.7,0.8-1.2,0.8c-1.5-0.1-3-0.8-3.8-2
			c-0.8-1.3-0.8-2.8-1-4.3c-0.6-3.7-2.2-7.2-3.1-10.8c-0.7-2.4-1-4.7-2-6.8c-0.2-0.7-0.6-1.2-1-1.7v-3.8c0.4,0.4,0.9,0.8,1.3,1.2
			c1.5,1.5,2.4,3.3,2.8,5.2c0.7,2.5,1.2,4.9,2,7.3c1,3.3,2,6.4,2.7,9.8c0.1,1-0.3,2.2,0.6,3c0.2,0.2,0.4,0.3,0.7,0.3
			c0.6,0,1.1-0.7,1.1-1.3c-0.3-2.7-1.5-6.6-2.2-9.2c-1-3.3-1.9-6.5-2.8-9.8c-1-4.6-2.5-6.1-5.9-8.9l-0.2-3.3
			c1.3,0.8,2.6,1.7,3.7,2.7c1.1,1.1,2.4,2.1,3.1,3.5c1.1,1.6,1.3,3.5,1.9,5.4c1,4.3,2.5,8.4,3.6,12.8c0.2,1.3,0.8,2.6,1.1,3.9
			c0.1,0.6,0.1,1.2,0.1,1.8C327.8,57.4,327.8,57.9,327.7,58.2z M332.4,93c-1.1,1-2.4,1.9-3.6,2.7H323c1.6-0.7,3.1-1.5,4.7-2.4
			c0.6-0.4,1.2-0.9,1.8-1.3c0.7-0.6,1.5-1.2,1.6-2.1c0.3-1.1-0.1-2.4-0.4-3.5c-0.4-1.7-0.7-3.5-1.1-5.2c-0.3-1.3-0.9-2.7-1-4.1
			c0-0.7-0.1-1.5-0.1-2.1c-0.1-1.1-0.3-2.1-0.7-3.1c-0.7-1.6-1.6-2.9-2.6-4.1c-1.3-1.7-3.4-2-5.2-2.9c-1.2-0.7-2.5-1.6-2.9-2.9
			c-0.7-2.5-0.8-4.9-1.5-7.4c-0.3-1.3-0.8-2.7-1.3-4v-9.5c0.6,1.8,0.9,3.6,1.3,5.5c0.6,1.7,1.2,3.4,1.8,5.2c0.6,1.8,1,3.7,1.2,5.7
			c0.3,1.6,0.6,3.4,1.8,4.6c1.1,1,2.5,1.8,4,1.8c0.6,0.1,1.3,0,1.7,0.4c1.2,1.5,3,5,3.7,6.7c0.9,1.9,1.2,4.1,1.5,6.3
			c0.4,2.6,1,5.3,1.7,7.8c0.4,1.6,0.7,3.1,1.3,4.5c0.2,0.6,0.6,1.1,0.1,1.7C334,91.8,333.1,92.3,332.4,93z M327.7,90.9
			c-0.4,0.2-0.9,0.4-1.2,0.7c-2.7,1.9-5.6,3-8.7,3.8c-1.2-0.2-2.2-1-2.8-2.1c2.9-0.1,7.7-1.8,10-3.8c0.8-0.7,1.2-1.8,1.1-2.8
			c-0.2-1.9-1-6.8-2.5-8.3c-0.7-0.7-1.7-1.2-2.5-1.8c-0.9-0.7-1.6-1.5-2.4-2c-1.3-1.2-2.9-2-4.5-2.7V69c1.2,0.7,2.5,1.1,3.7,1.8
			c1.7,0.9,3.4,2,4.3,3.8c0.1,0.6,0.4,1,1,1.1c0.1,0.1,0.1,0.1,0.2,0.1c0.4,0,0.8-0.3,1-0.6c0.1-0.6,0.1-1.1-0.2-1.5
			c-2.5-3-3.5-3.7-7.1-5.5c-0.9-0.6-2-0.9-2.9-1.6v-9.4c0.1,0.9,0.3,1.9,0.4,2.9c0.3,1.6,0.6,3.3,1.8,4.5c2,1.9,5,2.2,7.2,4.1
			c1,1.2,1.9,2.6,2.5,4c0.6,1.6,0.2,3.3,0.4,4.8c0.1,1.1,0.6,2.1,0.8,3.1c0.1,0.2,0.2,0.6,0.3,0.9c0.4,1.8,0.7,3.6,1.1,5.4
			c0.2,0.7,0.3,1.3,0.2,2c-0.1,0.7-0.6,1.1-1,1.5L327.7,90.9z M314.2,91.4v-2.6c1.7,0,6.3-0.7,6.6-2.8c0.6-1.1,0.1-2.4-0.2-3.5
			c-0.8-1.8-2.5-2.9-3.9-4c-0.9-0.6-1.7-1.1-2.5-1.6V74c1.9,1,7.2,4.6,8.3,6.4c0.7,1.1,0.8,2.5,1,3.7c0.2,1,0.6,2.1,0.3,3.3
			C323,89.7,316.4,91.4,314.2,91.4z M314.9,87l-0.7-2.5c0.8,0.3,0.9,0.4,1,0.4c0.7,0,1.3-0.8,1.1-1.6c-0.4-0.8-1.3-0.9-2.1-1.1v-3.1
			c0.4,0.3,0.8,0.6,1.2,0.9c1.5,0.9,3,2,3.6,3.7c0.2,0.8-0.1,1.9-0.9,2.4C317.3,86.7,316,86.9,314.9,87z M318.8,20.5h2
			c0.9,0.7,1.9,1.3,3.1,1.3c1.2-0.1,2.4-0.6,3.5-1.1l3.4-0.2c-0.2,0.9-0.4,1.8-0.3,2.8c0.2,1.3-0.1,2.7-0.3,4.1
			c-0.2,1.2,0.2,2.4,0.4,3.6c0.6,2,0.7,4.1,1.2,6.2c0.6,2.5,1.7,4.7,2.2,7.2c1,5.7,2.2,8.4,4.7,13.3c0.6,1.1,1,2.2,1.5,3.4v6.7
			c-0.4-0.9-0.8-1.9-1.2-2.9c-0.8-1.8-1.3-3.7-2.2-5.5c-0.8-1.8-2.2-3.4-2.8-5.3c-0.8-2.8-1.6-5.6-2.2-8.4c-0.7-2.8-1.7-5.4-2.4-8.1
			c-0.6-1.9-0.8-3.8-1.2-5.7c-0.1-0.6-0.2-1.1-0.4-1.7c-0.3-0.7-0.8-1.3-1.5-1.8c-1.2-0.8-2.2-1.9-3-3s-2-1.8-3.1-2.5
			c-1-0.7-2-1.5-3-2.1C317.6,20.6,318.2,20.5,318.8,20.5z M325.8,25.2c0.2,0.9,1.2,1,1.9,1c1.2-1,0.9-2.5,0-3
			c-0.4-0.1-0.6-0.1-0.8-0.1c-0.3,0-0.7,0.1-0.9,0.3C325.6,23.9,325.6,24.7,325.8,25.2z M335.8,20.5c-0.7,2.4-0.9,4.7-0.7,7
			c0.2,1.7,0.4,3.3,0.4,4.8c0,1.9,0.3,3.8,1.1,5.6c0.6,1.3,1.2,2.6,1.6,4c0.3,1.1,0.3,2.2,0.4,3.4c0.2,1.8,0.9,3.4,1.6,4.9v6.2
			c-0.2-0.4-0.3-0.8-0.6-1.1c-1.3-2.5-2.4-5.2-3-8c-0.6-1.9-0.8-3.9-1.3-5.7c-1.1-3.3-1.8-5.6-2.4-9.1c-0.2-1.8-0.9-3.5-0.8-5.3
			c0.3-1.8,0.2-3.7,0.4-5.5c0.1-0.4,0.2-0.8,0.3-1.2H335.8z M347.9,94.2c1.8,0.3,3.7,0.6,5.5,1.1c-2,0.2-4,0.3-6.3,0.3h-5.8
			c-0.6-0.1-1.1-0.1-1.7-0.2c-0.2-0.1-0.6-0.1-0.8-0.1c-0.6,0-1.1,0.1-1.7,0.3h-4.9c0.7-0.6,1.3-1,2-1.5c0.7-0.6,1-1.5,1.8-1.9
			c0.2-0.1,0.3-0.1,0.6-0.1c0.4,0,0.9,0.1,1.2,0.2c1,0.3,2,0.3,3,0.6C343.2,93.3,345.5,93.8,347.9,94.2z M337,25.8
			c0-1.8,0.3-3.6,0.8-5.3h2.7c-0.6,2.2-0.9,4.6-0.6,7c0.1,1.6,1.6,2.6,2.6,3.5c1.5,1.2,2.1,3,3,4.6c1.2,2.1,3.4,3.6,5,5.6
			c0.4,0.6,0.9,1.2,1.2,1.9c-1-0.6-2.4-1-3.9-1.1c-1.6-1.7-2.8-2.4-3.7-3.5c-1.1-1.3-2.1-3.7-2.6-5.4c-0.1-0.6-0.6-1.1-1.2-1.1
			s-1.2,0.8-1.1,1.3c0.1,0.2,0.2,0.6,0.4,0.8c1.2,1.8,1.6,4.1,3,5.8c0.6,0.8,1.5,1.2,2.2,1.8c-2.1,0-3.8,1.2-4.5,3
			c0-1.7,0-3.1-0.6-4.4c-0.9-1.9-1.9-3.7-2.4-5.6c-0.3-1.9,0.1-3.7-0.1-5.5C337.2,28.2,337,26.9,337,25.8z M342.3,27.9
			c-0.7-1.2-0.6-2.6-0.4-3.9c0.2-1.1,0.4-2.4,0.7-3.5h2.7c-0.2,1-0.4,2-0.6,3c-0.1,0.6-0.1,1.1,0,1.7c0.1,1,0.6,2,1.2,2.9
			c1.1,1.3,2.1,2.8,3,4.1c1.5,2.2,3.3,4,5,5.8c1.9,2,5.4,9.8,6.5,12.8c0.9,2.4,1.5,4.8,2.2,7.2c0.9,2.5,1.5,5.2,1.1,7.7
			c-0.2,1.3,0.2,2.8,0.1,4.1c0,0.7-0.1,1.2,0,1.9c0.2,0.3,0.4,0.7,0.9,0.8c0.1,0.1,0.2,0.1,0.3,0.1c0.6,0,1.1-0.6,1-1.2
			c0.1-0.9-0.6-1.8-0.4-2.8c0-1.5-0.1-2.9,0.1-4.4c0.1-2.9-0.9-5.7-1.8-8.4c-0.7-1.9-1.1-3.9-1.8-5.8c-0.9-2.6-2.2-4.8-3.4-7.3
			c-0.8-2-1.7-4-3.1-5.6c-1.6-1.8-3.5-3.4-4.8-5.5c-1.1-1.7-2.4-3.4-3.6-5c-0.8-1.1-0.8-2.6-0.6-3.9c0.1-0.8,0.3-1.5,0.4-2.2
			c0.9,0,1.8,0.1,2.6,0.1c-0.2,1.2-0.4,2.5-0.2,3.7c0.3,1.9,3,5.6,4.4,7.1c1.3,1.8,3.1,3.3,4.7,5c0.9,1.1,1.5,2.5,2,3.9
			c0.6,1.5,1.2,2.9,2,4.4s1.7,3,2.1,4.8c0.7,2.2,1.1,4.6,1.9,6.8c0.7,1.7,1.3,3.4,1.6,5.2c0.3,1.6,0.2,3.3,0,4.8
			c-0.2,0.7-0.6,1.3-0.7,2c-0.1,0.4,0.2,0.9,0.6,1.2c0.2,0,0.3,0.1,0.4,0.1c0.6,0,1.1-0.3,1.2-0.9c0.1-0.9,0.1-1.8,0.3-2.6
			c0.3-1.6,0.3-3.1,0.1-4.6c-0.2-2.7-1.6-5-2.4-7.6c-0.6-1.9-0.9-3.9-1.5-5.8c-0.8-2.4-2.4-4.4-3.4-6.7c-0.7-1.5-1-3-1.8-4.5
			c-0.7-1.5-1.7-2.5-2.8-3.5c-2.4-2.1-5.6-5.9-6.8-9c-0.3-1.2-0.2-2.6,0.1-3.8c0.9,0.1,1.7,0.1,2.6,0.2c-0.1,0.3-0.1,0.7-0.1,1
			c-0.1,1.9,1,3.7,2.1,5.2c1.3,1.9,2.8,3.6,4.6,5c1,0.9,2.1,1.7,2.7,2.9s0.8,2.7,1.2,3.9c0.4,1.6,1.1,3.1,2.1,4.4
			c0.7,1.1,1.5,2.1,1.8,3.4c0.9,3,1,6.2,2.4,9.1c0.6,1.1,1.2,2.1,1.6,3.4c0.4,2,0.3,4,0.2,6.1c-0.1,1.6-0.4,3.3-1.3,4.6
			c-0.9,1.3-2.4,2.1-3.5,3.1c-1.6,1.2-3.4,2.4-5.4,2.9c-0.8,0.3-1.7,0.4-2.6,0.4c-0.8,0-1.7-0.1-2.5-0.2c-2.6,0-6.7-1-9.1-2.1
			c1.1-0.2,2.2-0.7,3.1-1.1c0.2,0.1,0.6,0.2,0.8,0.1c0.8,0.1,1.3-0.8,1-1.5c0.6-0.8,1.1-1.8,1.5-3.1c0.1,1.6,0.4,2.4,0.4,3.1
			s-0.2,1.7,0.3,2.2c0.2,0.3,0.6,0.4,0.9,0.4s0.7-0.1,0.9-0.4c0.3-0.7,0.1-1.3-0.1-1.9c-0.7-1.5-0.7-5.6-0.7-7.4
			c-0.1-1.3-0.3-2.7-0.7-4c0-2.9,0-5.9-0.3-8.9c0.3,1,0.8,1.9,1.1,2.9c0.9,3,2,5.9,2.4,9.2c0,1.7,0.2,3.4,0.2,5
			c0,1.1,0.3,2.2,0.3,3.4c0,0.7-0.2,1.7,0.4,2.1c0.2,0.1,0.6,0.2,0.8,0.2c0.3,0,0.7-0.1,0.8-0.4c0.6-0.7,0.1-1.7-0.1-2.4
			c-0.4-1.2-0.2-2.6-0.4-3.8c-0.2-1.6,0.1-3.3-0.2-4.9c-0.4-4.9-5.8-19.5-9.5-23.5c-1.3-1.5-2.9-2.7-4-4.4c-1.1-1.6-1.8-3.3-3.1-4.7
			C343.7,29.5,342.8,28.8,342.3,27.9z M365.4,23.8c0.4,0.3,0.9,0.8,1.3,1.1c0.6,0.4,1.1,1,1.8,1.2c0.1,0,0.3,0,0.6,0
			c0.2,0,0.4,0,0.7-0.1c0.4,0.2,0.9,0.6,1.3,0.9c-0.6,0.6-1.1,1.2-1.6,1.8c-0.3,0.3-0.8,0.7-1.1,0.7c-0.2,0-0.4-0.1-0.7-0.2
			c-2.1-1.3-5.6-4.6-6.5-6.8C362.7,22.8,364.1,23.2,365.4,23.8z"/>
		<path class="st0" d="M387.6,36.2V23.7c0-0.9,0.4-1.8,1.1-2.4c0.2,1.7-0.1,3.1-0.3,4.5c-0.2,1.2,0.2,2.5,0.4,3.7
			c0.6,2,0.7,4.1,1.2,6.2c0.6,2.4,1.7,4.6,2.1,7.1c0.7,3.1,1.5,6.3,2.7,9.2c0.6,1.5,1.5,2.8,2.1,4.3c1.1,2.2,1.9,4.6,2.8,7
			c0.4,1.1,1,2.4,1.8,3.1c1.1,1.1,2.5,1.8,3.8,2.6c0.6,0.3,5,2.6,5.4,2.6c0.8,0,1.3-0.9,1-1.6s-1.1-0.8-1.7-0.9
			c-1.1-0.2-6.1-2.9-7-3.7c-0.9-0.9-1.3-2.2-1.8-3.5c-1-2.8-2-5.5-3.5-8.2c-1.3-2.5-2.5-5.2-3.1-8c-0.4-1.9-0.7-3.8-1.2-5.7
			c-0.6-1.6-1.2-3-1.6-4.6c-0.4-1.5-0.7-2.9-0.8-4.5c-0.2-1.8-1-3.5-0.8-5.3c0.2-1.7,0.2-3.4,0.4-5h2.7c-0.2,1.8-0.4,3.6-0.2,5.4
			c0.2,1.6,0.4,3.1,0.4,4.8c0,1.9,0.3,3.8,1.1,5.6c0.4,1.3,1.2,2.6,1.6,3.9c0.3,1.1,0.3,2.4,0.4,3.5c0.3,2.6,1.6,5,2.7,7.4
			c0.9,1.8,1.8,3.6,2.6,5.5c0.7,1.6,1.1,3.3,1.8,4.8c0.4,0.8,0.4,1.7,0.9,2.5c0.2,0.4,0.6,0.6,1,0.6c0.3,0,0.8-0.2,0.9-0.6
			c0.4-1-0.6-1.8-0.9-2.7c-0.6-1.7-1.1-3.4-1.8-4.9c-1.3-3.5-3.3-6.7-4.6-10.2c-0.4-1-0.8-2.1-0.8-3.3c0-1.3,0-2.9-0.7-4.1
			c-0.8-1.8-1.8-3.6-2.2-5.6c-0.3-1.8,0.1-3.7-0.1-5.5c-0.2-1.1-0.4-2.2-0.4-3.4c0-1.3,0.1-2.5,0.4-3.7h2.7
			c-0.3,1.8-0.4,3.5-0.3,5.4c0.2,1.6,1.6,2.5,2.7,3.5c1.3,1.2,2.1,3,3,4.5c1.2,2.2,3.4,3.7,4.9,5.6c3.1,3.4,8.3,17.3,8.9,22.5
			c0,1.7,0.1,3.4,0.2,5.2c0,0.3,0,0.7,0.1,1h-1c-0.6,0-1.1,0.1-1.6,0.3c-0.2-1.8-0.2-3.8-0.2-5.6c-0.2-2.8-1-5.5-2-8.1
			c-1-3.4-4.9-12.9-7.5-15.1c-1-1-2.2-1.7-3.1-2.8c-0.8-1-1.2-2.2-1.8-3.4c-0.4-0.6-0.6-1.3-0.8-2c-0.1-0.6-0.7-1.2-1.2-1.2
			c-0.7,0-1.2,0.8-1.1,1.5c0.1,0.2,0.2,0.4,0.3,0.7c1.3,1.8,1.7,4.1,3.1,5.9c0.8,1,2.1,1.5,3,2.4c3.3,2.9,9,17.2,9.2,22.5
			c0.2,1.5,0.1,2.8,0.1,4.3c0,0.8,0.4,1.6,0.3,2.5c0.1,0.2,0,0.6,0,0.9v0.8c0,1.2,0.7,2.2,1.7,2.8c-5.3-0.3-8.5-2-13-4.6
			c-1.1-0.6-2.4-1.1-3.1-2.4c-0.8-1.2-1.3-2.8-1.9-4.1c-0.8-1.8-1.3-3.8-2.2-5.6c-0.8-1.8-2.2-3.3-2.8-5.3c-0.8-2.8-1.6-5.6-2.4-8.4
			C389.2,41.4,388.2,38.8,387.6,36.2z M388.7,66.2c-0.3-0.8-0.7-1.5-1.1-2.1v-6.8c0.2-0.8,0.4-1.6,0.4-2.4s-0.2-1.5-0.4-2.1v-9.5
			c0.7,2.5,1.3,4.9,2,7.3c0.3,1.3,0.7,2.6,1.1,3.9c0.4,1.2,1.5,2.2,2.1,3.4c0.7,1.1,1,2.5,1.6,3.7c0.6,1.5,2.7,7.1,3.8,8.1
			c0.8,0.9,1.9,1.2,2.9,1.9c1.7,0.9,3.4,2,5.2,2.8c3,1.3,8.3,2.2,11.5,2.4c1.3,0,2.7-0.1,3.9-0.4c0.9-0.3,1.8-0.8,2.7-1.2h4.4
			c-1.2,0.9-2.4,1.7-3.7,2.5c-2,1.3-4.6,1.8-7,1.8c-0.4,0-0.8-0.1-1.2-0.1c-6.2-0.4-11-1.7-16.1-4.9c-0.7-0.3-1-1-1.7-1.5
			c-0.2-0.1-0.4-0.1-0.7-0.1c-0.2,0-0.6,0.1-0.8,0.3c-0.3,0.2-0.2,0.8-0.2,1.2c0.3,0.4,0.8,0.8,1.3,1c1.7,0.9,3.3,1.9,4.9,2.8
			c1.6,1,3.5,1.3,5.3,1.8c2.6,0.4,5.2,1,7.7,1.2c0.4,0.1,1,0.1,1.5,0.1c1.1,0,2.2-0.1,3.4-0.2c2.9-0.4,4.9-2,7.3-3.6
			c1.1-0.8,2.1-1.6,3.3-2.4h4c-2.5,2.5-5.6,3.8-8.1,5.9c-2.8,2.5-5.8,2.7-9.4,2.7c-0.9,0-1.8,0-2.7-0.1c-3.4-0.3-6.6-1.1-9.9-1.8
			c-1.6-0.4-3.4-0.7-4.6-1.8c-0.4-0.4-0.7-1.1-1.1-1.6c-0.2-0.2-0.6-0.3-0.9-0.3c-0.1,0-0.3,0.1-0.6,0.1c-0.6,0.3-0.6,1-0.3,1.6
			c0.2,0.6,0.8,0.9,1.2,1.2c1.6,1.6,2.5,1.9,4.6,2.4c4.1,0.9,8.2,1.8,12.4,2.2c0.8,0,1.6,0,2.4,0c0.7,0,1.3,0,2,0
			c1.5-0.2,3-0.4,4.5-0.9c0.8-0.2,1.7-0.4,2.4-1.1c1-0.9,2-1.9,3.1-2.6c1-0.7,2-1.2,3-2c1.5-1,3-2,4-3.5l2.4-0.4
			c0.3,0,0.7,0,0.9,0.1c-0.4,1.2-0.9,2.2-1.6,3c-0.9,0.8-2,1.2-2.9,1.9c-1.5,0.9-2.5,2.1-4,2.8c-0.8,0.4-1.9,0.2-2.5,1.1
			c-0.4,0.7,0.2,1.7,1.1,1.6c0.9-0.2,1.6-0.8,2.5-1c1.3-0.6,2.2-1.8,3.4-2.7c1-0.7,2.1-1.1,3.1-1.7c1.1-0.7,1.7-1.7,2.1-2.8
			c0.1-0.4,0.3-0.8,0.4-1.1c0.4,0.6,0.7,1.2,0.7,1.9v3.7c-0.2,0.2-0.3,0.3-0.7,0.4c-0.9,0.4-1.9,0.7-2.8,0.9
			c-0.8,0.2-1.6,0.1-2.2,0.6c-0.7,0.4-0.6,1.7,0.2,1.9c0.1,0,0.2,0.1,0.4,0.1c0.4,0,0.8-0.2,1.2-0.4c1.2-0.6,2.6-0.7,3.8-1V87
			c-0.9,0.3-1.8,0.6-2.8,0.8c-0.3,0-0.8,0-1.2,0c-0.3,0-0.8,0-1.2,0c-1.1-0.2-2.1-0.6-3.3-0.6c-0.1,0-0.3,0-0.4,0
			c-0.9,0.1-1.8,0.3-2.8,0.3c-1.3-0.1-2.8-0.6-4.1-0.6c-0.3,0-0.7,0-1,0.1c-2.2,0.4-4.5,1.2-6.7,1.2c-0.1,0-0.2,0-0.4-0.1
			c-0.2,0.1-0.4,0.1-0.7,0.1c-2,0-4-0.3-6.1-0.7c-3.9-0.7-7.8-1.6-11.8-2.4c-1.1-0.2-2.6-0.4-3.3-1.7c-0.9-1.5-2-7.1-2.2-9.1
			c-0.1-1.2-0.1-2.5-0.3-3.7c-0.2-1.5-2.4-5.8-3-7.2c-0.4-1-0.9-1.9-1.2-2.9c-0.1-0.7,0.1-1.3-0.2-2c-0.2-0.4-0.7-0.8-1.1-0.8
			c-0.2,0-0.4,0.1-0.6,0.2c-0.7,0.3-0.4,1.1-0.3,1.7c0.4,1.3,0.8,2.8,1.5,4c0.9,1.8,1.8,3.7,2.6,5.6c0.6,1.3,0.7,2.7,0.8,4
			c0.2,2.9,1.5,9.3,2.8,11.7c0.4,0.9,1.5,1.3,2.4,1.6c1.2,0.3,2.6,0.6,3.8,0.8c3.1,0.7,6.4,1.3,9.5,1.9c1.9,0.4,3.7,0.6,5.6,0.8
			c0.3,0,0.7,0,0.9,0c0.4,0,0.9,0,1.3,0c0.2,0,0.3,0,0.6,0c2.5,0,4.8-1,7.3-1.2c1,0,2,0.2,3.1,0.3c0.4,0,0.8,0,1.2,0
			c0.9,0,1.8,0,2.6-0.1c1.8,0,3.5,0.3,5.2,0.4c1.3,0,2.6-0.2,3.8-0.7v2.9c-0.9,0-1.7,0-2.6,0.1c-0.3,0.1-0.7,0.1-1,0.1
			c-1.1,0-2.2-0.2-3.4-0.2c-0.1,0-0.1,0-0.2,0c-1.2-0.1-2.5-0.1-3.7-0.1c-0.9,0-1.8,0-2.8,0c-0.3,0-0.7,0-1,0
			c-2.2,0-4.3,0.4-6.4,0.9c-0.7,0.1-1.5,0.3-2.2,0.3c-0.2,0-0.3,0-0.6,0c-1.8-0.3-3.6-0.6-5.5-0.6c-1.6-0.1-3.1-0.7-4.7-1
			c-4.1-0.8-8.3-1.5-12.3-2.2c-0.9-0.2-1.9,0-2.7-0.6c-0.6-0.8-0.4-1.9-0.9-2.8c-1.5-4.3-2.2-8.7-2.8-13.1
			C390.7,70.3,389.8,68.2,388.7,66.2z M390.6,91.3c-0.9,0.8-1.8,1.6-2.8,2.2c-0.1-0.3-0.2-0.7-0.2-1.1v-2c0.8-0.7,1.5-1.2,1.7-2.1
			c0.2-1.2-0.1-2.4-0.4-3.6c-0.4-1.7-0.7-3.4-1.1-5.2l-0.1-11.4c0.1,0.3,0.3,0.7,0.4,1c0.9,2,1.1,4.1,1.3,6.3c0.4,2.7,1.1,5.3,1.8,8
			c0.4,1.5,0.7,3,1.3,4.5c0.2,0.4,0.4,1.1,0.1,1.7C392,90.2,391.3,90.6,390.6,91.3z M440.6,95.7h-31.7c-4-1-7.6-1.3-11.1-1.9
			c-1.6,0-2.7,0-4,1c-0.3,0.3-0.7,0.6-1.1,0.9h-1.8c-0.7,0-1.3-0.2-1.8-0.6c1.1-0.8,2.2-1.7,3.4-2.6c0.7-0.6,1-1.5,1.8-1.9
			c0.2,0,0.3-0.1,0.6-0.1c0.4,0,0.8,0.2,1.2,0.2c1,0.3,2,0.4,3,0.6c3.7,0.6,9.8,1.5,13.2,2.6c0.9,0.3,1.8,0.4,2.8,0.4
			c0.3,0,0.7-0.1,1-0.1c0.1,0,0.2,0,0.3,0c1.3,0,2.7,0.7,4.1,0.6c1,0.1,2-0.2,3-0.4c1.6-0.3,3.1-0.7,4.7-0.8c0.3,0,0.8,0,1.1,0
			c1.1,0,2.1,0,3.3,0c0.9,0,1.9,0,2.8,0c1.5,0.2,2.8,0.1,4.3,0.3c0.2,0,0.4,0,0.6,0c1,0,2-0.1,2.9-0.1c0.1,0,0.2,0,0.4,0
			C443.1,94.9,441.9,95.7,440.6,95.7z M400.5,26.3c-0.8-1.1-0.7-2.6-0.4-3.8c0.1-0.7,0.2-1.3,0.3-1.9h2.7c-0.1,0.4-0.2,0.9-0.2,1.5
			c-0.1,0.6-0.1,1,0,1.6c0.1,1.1,0.6,2.1,1.2,2.9c1.1,1.3,2.1,2.8,3,4.3c1.3,2.1,3.3,3.9,5,5.7c1.3,1.5,2.2,3.4,3.1,5.3
			c-1,0.4-1.6,1.5-1.7,2.6c-1-2.4-2.1-4.7-3.8-6.5c-1.3-1.6-2.9-2.8-4-4.5c-1.1-1.5-1.8-3.3-3.1-4.6C401.9,27.8,401,27.2,400.5,26.3
			z M410.9,64.6c-0.4-1.3-0.2-2.8-0.7-4.1c-1.3-5.2-3.7-10-6.1-14.7c-0.6-1-1-2-1.3-3.1c-0.1-0.6-0.7-1-1.2-1c-0.2,0-0.3,0-0.6,0.1
			c-0.6,0.2-0.6,1-0.3,1.6c0.3,0.7,0.9,1.2,1.2,1.9c1.7,4,3.8,7.8,5.2,11.9c0.8,2.2,1.7,4.4,1.8,6.7c0,0.8-0.4,1.8,0.1,2.6
			c0.1,0.3,0.6,0.6,0.9,0.6s0.7-0.1,0.9-0.4C411.2,65.9,411,65.3,410.9,64.6z M419.9,41.3h-2.7c-0.9-2-1.8-4-3.3-5.6
			c-1.6-1.9-3.5-3.5-4.8-5.5c-1.2-1.7-2.5-3.4-3.6-5.2c-0.8-1.1-0.8-2.6-0.6-3.9l2.8-0.6c-0.1,0.7-0.1,1.5,0,2.1
			c0.2,1.3,1,2.5,1.7,3.6c0.9,1.2,1.7,2.4,2.7,3.5c1.3,1.9,3.1,3.3,4.6,5c1,1.1,1.6,2.6,2.1,3.9C419.2,39.6,419.5,40.4,419.9,41.3z
			 M409.8,20.5h2.7c0,3.4,4.3,8.1,6.7,10.1c1,0.8,2,1.6,2.7,2.8c0.6,1.2,0.8,2.7,1.2,4c0.3,1.3,1,2.6,1.8,3.8H422
			c-0.2-0.4-0.4-0.9-0.7-1.5c-0.7-1.5-1-3-1.8-4.5c-0.7-1.3-1.8-2.5-2.8-3.5c-1.9-1.7-5.9-6.4-6.8-8.9
			C409.6,22.2,409.6,21.3,409.8,20.5z M443.8,38c0,1.1-0.6,2.1-1.5,2.7c-0.1-2.2,0-4.6-0.1-6.8c-0.2-2.8,0-5.5,0-8.3
			c0-0.9,0.7-1.7,0.6-2.6c0-0.7-0.6-1.1-1.1-1.1c-0.2,0-0.4,0.1-0.6,0.2c-0.7,0.4-0.7,1.3-0.7,2c0,0.9-0.1,1.8-0.1,2.7
			c0,4.8,0,9.6,0.2,14.5h-2.7c0-2.8,0.1-5.5-0.1-8.3c-0.1-1.5,0.2-2.9,0.1-4.4c-0.1-0.9,0.1-1.8,0.3-2.6c0.2-0.8-0.4-1.7-1.2-1.7
			c-0.1,0-0.2,0-0.2,0c-0.8,0.2-1,1.1-0.9,1.7c0.3,2.1,0.1,4.1,0,6.3c0,2.5,0.4,4.9,0.2,7.5c-0.1,0.4-0.1,0.9-0.1,1.5h-2.7
			c0.1-0.6,0.1-1.1,0.2-1.6c0.2-1.2,0.2-2.5,0.1-3.7c-0.2-1.8-0.7-3.6-0.4-5.5c0.2-0.8,1-1.5,0.9-2.5c-0.1-0.4-0.7-0.9-1.1-0.9
			c-0.2,0-0.3,0.1-0.6,0.1c-0.4,0.3-0.7,1-0.8,1.6c-0.1,0.8-0.4,1.6-0.4,2.4c-0.1,2.2,0.8,4.4,0.8,6.5c0,1.2-0.4,2.4-0.6,3.6H427
			c-0.4-0.6-0.9-1-1.1-1.6c-1.3-2.2-1.5-5-2.5-7.4c-0.7-1.3-2-2.2-3.1-3.3c-1.8-1.6-3.4-3.3-4.7-5.3c-0.7-0.9-1.1-2-1.2-3.3h2.9
			c0.7,2.7,4.9,7.5,7.6,8.5c0.7,0.2,1.2,0.8,1.2,1.6c0.1,2.8,1.5,5.4,1.5,8.2c0.1,0.6,0.7,1,1.2,1c0.6-0.1,1.1-0.6,1-1.2
			c-0.1-0.8-0.6-1.5-0.7-2.2c-0.4-1.9-0.7-3.9-1.1-5.8c-0.1-0.4-0.1-0.9,0-1.3c0.2-0.4,0.6-0.7,0.9-1c0.8-0.6,1.2-1.6,2-2.1
			c2.4-2.1,5.4-3.1,8-4.8c0.4-0.2,0.9-0.4,1.5-0.7h0.1c1.8,0,3.3,1.5,3.3,3.1L443.8,38L443.8,38z M422.1,68.2h-2.5
			c0-0.7,0-1.3-0.1-1.9c-0.2-1.7,0.1-3.4-0.2-5c-0.2-2.5-1.1-4.8-1.8-7.3c-0.8-2.4-1.7-4.7-2.7-7c0.6,0.4,1.2,0.7,2,0.7h1.1
			c0.2,0.6,0.4,1,0.7,1.6c0.8,2.5,1.5,4.9,2.2,7.3c0.9,2.5,1.5,5,1.1,7.6C421.8,65.5,422.1,66.8,422.1,68.2z M422.4,20.5
			c0.6,1.1,1.6,1.9,2.5,2.7c0.6,0.6,1,1.1,1.8,1.3c0.1,0,0.3,0,0.6,0c0.2,0,0.6-0.1,0.8-0.3c0.3-0.2,0.2-0.8,0.1-1.2
			c-0.6-1-1.8-0.9-2.6-1.6c-0.3-0.3-0.6-0.6-0.8-0.9h4.4c0.3,0.1,0.7,0.1,0.9,0.1c0.3,0,0.7,0,1-0.1h5.4c-0.4,0.2-0.9,0.6-1.3,0.8
			c-1.6,0.9-3.4,1.3-4.6,2.7c-1,1-1.9,2-2.8,3.1c-0.3,0.3-0.8,0.6-1.1,0.6c-1.8,0-6.6-5.4-7.2-7.1L422.4,20.5z M431.2,63.6
			c-0.1,1.6-0.4,3.3-1.3,4.6H424c-0.1-0.3-0.2-0.7-0.1-1c0-1.5-0.1-3,0.1-4.5c0.1-2.9-1-5.6-1.8-8.3c-0.7-2-1.1-3.9-1.8-5.8
			c-0.1-0.3-0.2-0.6-0.3-0.9h2.8c0.8,2.5,1.2,4.8,2,7.1c0.7,1.7,1.3,3.4,1.6,5.2c0.3,1.7,0.2,3.3,0,4.9c-0.2,0.7-0.6,1.2-0.7,2
			c-0.1,0.4,0.2,0.9,0.6,1.1c0.1,0.1,0.3,0.1,0.4,0.1c0.6,0,1-0.3,1.2-0.8c0.1-0.9,0.1-1.8,0.3-2.7c0.3-1.5,0.3-3,0.1-4.6
			c-0.2-2.7-1.6-5-2.4-7.5c-0.4-1.6-0.8-3.3-1.2-4.8h2.7c0.4,2.2,0.8,4.5,1.8,6.5c0.6,1.1,1.2,2.2,1.6,3.5
			C431.3,59.6,431.3,61.6,431.2,63.6z M436,62.6c0,1.9-0.4,3.7-1.1,5.5c-0.3,0-0.7,0.1-1,0.1H432c0.7-1.5,1.1-3,1.2-4.6
			c0-2.1,0-4.4-0.3-6.5c-0.3-1.5-1.3-2.6-1.9-3.9c-0.6-1.1-0.8-2.4-1-3.6c-0.1-0.7-0.2-1.2-0.3-1.9h2.6c0.1,0.9,0.3,1.7,0.4,2.6
			c0.1,0.8-0.1,1.5,0,2.2c0.2,0.4,0.6,0.8,1.1,0.9c0.3,0,0.7-0.2,1-0.6c0.3-1-0.3-1.9-0.3-2.9c-0.1-0.8-0.2-1.5-0.3-2.2
			c1.3,0.1,2.5,1,2.8,2.2c0.1,0.7,0.1,1.5-0.1,2.2c-0.3,1.7-1.3,3.4-1.2,5.2C435.7,59,435.9,60.8,436,62.6z"/>
		<path class="st0" d="M470.5,20.5c-0.3,5.4-0.9,7.3-2.4,12.4c-0.4,1.1-0.8,2.2-1.1,3.3c-0.6,1.2-0.9,2.5-0.8,3.8
			c0.2,1.3-0.1,2.8-0.3,4.1c-0.2,1.2,0.2,2.5,0.4,3.6c0.6,2.1,0.7,4.1,1.2,6.2c0.7,2.5,1.7,4.7,2.2,7.2c1,5.7,2.2,8.4,4.7,13.3
			c1.1,2.4,1.9,4.7,2.8,7.1c0.4,1.1,1,2.2,1.8,3.1c1.1,1.1,2.6,1.8,3.8,2.6c0.4,0.2,5,2.5,5.3,2.5v0.6c0,0.7-0.1,1.1-0.2,1.7
			c-2.2-0.4-9.9-3.9-11.3-6.1c-0.8-1.2-1.2-2.8-1.9-4.1c-0.8-1.9-1.3-3.8-2.2-5.6c-0.8-1.8-2.2-3.3-2.8-5.3
			c-0.8-2.8-1.6-5.6-2.2-8.4c-0.7-2.7-1.7-5.4-2.4-8.1c-0.4-1.9-0.8-3.8-1.2-5.6c-0.1-0.7-0.2-1.2-0.4-1.8c-0.3-0.7-0.8-1.3-1.5-1.8
			c-0.7-1.5-1.7-2.5-3-3c-1.7-2.4-8.7-6.4-12.2-6.6v-2.8c0.7,0,1.3,0.1,2,0.3c1.2,0.6,2.6,0.9,3.9,1.3c1.2,0.4,2.2,1.2,3.1,2.1
			c1.1,1,2.4,2,3.9,2.1c1.2-0.2,2.4-0.7,3.5-1.2c1.2-0.9,1.6-2.4,1.9-3.6c0.8-3,2.1-5.8,2.6-8.9c0.1-1.3,0.3-2.7,0.1-3.9L470.5,20.5
			z M446.8,25.5c0.1-1.1,0.6-2.1,1.2-3c0.6,0.4,1.1,0.8,1.7,1.1c1.8,0.8,3.7,2,5.7,2c0.3,0,0.6,0,0.9,0c0.3-0.1,0.6-0.1,0.9-0.1
			c0.2,0,0.4,0,0.7,0c0.4,0,0.8,0,1.2-0.1c0.9-0.3,1.1-1.7,0.2-2.1c-0.2,0-0.4-0.1-0.7-0.1c-0.9,0-1.8,0.7-2.8,0.6
			c-2.4,0.1-4.3-1.5-6.2-2.5c0.7-0.4,1.6-0.7,2.5-0.7h1.8c0.8,0.4,1.3,1.1,2.2,1.1c0.6,0,1.1-0.6,1-1.1h2.7c0.7,0.9,1.5,1.7,1.7,2.8
			c0.1,0.7,0.2,1.5,0.9,1.8c0.1,0,0.3,0,0.4,0c0.2,0,0.3,0,0.6-0.1c0.7-0.4,0.6-1.2,0.3-1.7c-0.1-0.3-0.2-0.6-0.3-0.8
			c-0.3-0.4-0.6-0.9-0.8-1.3c-0.1-0.2-0.2-0.4-0.4-0.7h3.4c0.1,0.3,0.2,0.7,0.3,1c0.4,2-0.2,3.9-0.7,5.7c-0.4,2-1.5,3.7-1.8,5.6
			c-0.3,2.1-1.1,3.7-3.5,3.7c-0.3,0-0.6,0-0.9-0.1c-1.5-0.3-2.4-1.7-3.4-2.6c-0.9-0.9-7.5-3.1-8.9-3.3l-0.1-3c1.1,0,2,0.6,3,1
			c1.7,0.7,3.4,1.3,5.2,1.8c0.2,0,0.3,0,0.6,0c1.5,0,2.7-0.8,4-1c0.8-0.2,1.7-0.1,2.5-0.2c0.3,0,0.7-0.3,0.9-0.6
			c0.4-0.6,0-1.7-0.7-1.8c-0.1,0-0.3,0-0.4,0c-0.8,0-1.6,0.7-2.4,0.8c-1.3,0.3-2.7,0.7-4.1,0.7c-1,0.1-2-0.3-3-0.8
			c-1.3-0.4-2.7-1.1-3.9-1.7C447.9,25.6,447.3,25.5,446.8,25.5z M455.4,41.7h-3.3c-2.6,0-4.7-1.8-5.3-4.1c2.5,0.4,4.1,1.1,6.3,2.6
			C453.8,40.7,454.6,41.2,455.4,41.7z M461.3,32.6c-0.1-0.8-0.9-1.3-1.6-1.3c-0.1,0-0.3,0-0.4,0.1c-0.8,0.1-1.3,1-1.1,1.8
			c0.2,0.6,0.9,0.9,1.6,0.9C460.6,34.1,461.2,33.4,461.3,32.6z M463.8,42.7c0.9-0.7,0.6-2.2-0.3-2.7c-0.4-0.1-0.6-0.2-0.8-0.2
			c-0.3,0-0.7,0.1-0.9,0.4c-0.4,0.4-0.4,1.1-0.2,1.7c0.3,0.9,1,1,1.9,1L463.8,42.7z M484.2,95.4c-1.9-0.7-4-1.8-5.8-2.9
			c-0.7-0.3-1-1.1-1.7-1.5c-0.2-0.1-0.4-0.1-0.6-0.1c-0.3,0-0.7,0.1-0.8,0.2c-0.4,0.3-0.3,0.9-0.2,1.3c0.2,0.4,0.7,0.8,1.2,1
			c1.2,0.7,2.6,1.3,3.8,2.1h-6.3c-0.1-1-0.4-1.9-0.6-2.9c-0.1-1.2-0.1-2.5-0.2-3.7c-0.2-0.8-0.6-1.5-0.8-2.1
			c-0.8-1.7-1.6-3.5-2.4-5.2c-0.4-0.9-0.9-1.8-1.1-2.8c-0.2-0.7,0-1.5-0.3-2c-0.1-0.4-0.7-0.8-1.1-0.8c-0.2,0-0.3,0.1-0.6,0.2
			c-0.6,0.3-0.4,1.1-0.3,1.7c0.4,1.3,0.8,2.7,1.5,4c0.9,1.8,1.8,3.7,2.6,5.6c0.6,1.2,0.7,2.6,0.8,3.9c0.1,1.3,0.3,2.7,0.7,4h-2.7
			c-0.2-1.6-0.4-3.1-0.7-4.8c-0.4-2.8-2.6-7.7-4.5-10.1c-0.4-0.6-0.8-1.2-0.4-1.9c0.3-0.8,0.8-1.5,1.1-2.4c0.4-1,0.9-2.1,0.8-3.3
			c0-1-0.3-2-0.7-3c-0.4-1.7-0.9-3.4-1.3-5c-0.6-1.8-0.9-3.1-1.3-4.5V50.1c0.3,1.8,0.8,3.6,1.2,5.3c0.2,1.1,0.6,2.2,0.9,3.4
			c1.1,3.4,1.9,6.7,2.8,10.1c0.4,1.3,0.7,2.6,1.1,3.8c0.4,1.3,1.6,2.4,2.2,3.5s1,2.5,1.5,3.7c0.7,1.7,2.6,6.8,3.8,8.1
			c1.3,1.6,8.4,5.2,11.2,5.7C486.3,94.5,485.3,95.2,484.2,95.4z M463.5,74.9c-0.3,1-0.8,2-1.1,2.9l-0.1-10.2c0.4,1.7,0.9,3,1.2,4.4
			v-0.1c0.1,0.6,0.2,1.2,0.1,1.8C463.6,74.1,463.6,74.6,463.5,74.9z M467.1,93.8c0.1,0.7,0.2,1.2,0.3,1.9c-1.1-0.1-2.1-0.4-2.9-1
			c-0.1-0.3-0.1-0.6-0.1-0.9c-0.1-0.7-0.2-1.3-0.2-2.1c-0.1-1-0.3-2.1-0.7-3.1c-0.3-0.8-0.8-1.6-1.2-2.2v-4.9c0.3,0.6,0.7,1.1,1,1.7
			c1,1.7,1.8,3,2.5,4.5C466.5,89.5,466.8,91.6,467.1,93.8z M477.3,20.5h2.9c-0.3,0.7-0.6,1.3-0.7,2.1c-0.7,2.6-0.6,5.2-1.2,7.7
			c-1.2,4.6-3.1,9.1-2.6,13.8c0.1,1.6,1.6,2.6,2.6,3.6c1.5,1.2,2.1,2.9,3,4.5c1.3,2.2,3.5,3.7,5,5.6c0.8,0.9,1.3,2,1.9,3.1v6.2
			c-1.1-2.9-2.9-7.1-5.2-9.1c-0.9-1-2.2-1.7-3.1-2.8c-1.1-1.5-2-3.6-2.6-5.4c-0.1-0.7-0.6-1.2-1.2-1.2c-0.7,0-1.2,0.8-1,1.3
			c0,0.3,0.1,0.6,0.3,0.8c1.2,1.8,1.7,4.1,3,5.8c0.9,1.1,2.1,1.6,3,2.5c1.1,1,1.9,2.4,2.6,3.6c1.5,3.1,2.9,6.3,4.1,9.4v9.6
			c-0.1-1-0.1-2-0.4-2.9c-0.3-1.7-1.1-3.4-1.7-5.2c-1.2-3.3-2.8-6.4-4.3-9.6c-0.6-0.9-1.1-2-1.5-3.1c-0.1-0.6-0.7-0.9-1.2-0.9
			c-0.1,0-0.3,0-0.4,0.1c-0.7,0.2-0.7,1-0.4,1.6c0.3,0.7,0.9,1.2,1.2,1.9c1.8,4,3.8,7.8,5.3,11.9c0.8,2.1,1.7,4.4,1.7,6.7
			c0.1,0.8-0.4,1.7,0.1,2.5c0.2,0.4,0.6,0.6,0.9,0.6s0.6,0,0.8-0.2v2.5c-1.8-0.4-2.9-1.2-4-1.8c-1.1-0.7-2.5-1.1-3.4-2
			c-1-1-1.5-2.2-1.9-3.5c-1-2.8-2-5.6-3.5-8.2c-1.3-2.5-2.4-5.2-3-8c-0.4-1.9-0.7-3.8-1.3-5.7c-1.1-3.3-1.8-5.6-2.4-9.1
			c-0.2-1.8-0.9-3.5-0.7-5.3c0.2-1.8,0.1-3.6,0.3-5.4c0.2-1.2,0.7-2.4,1.1-3.6c1.2-3.8,2.6-7.7,2.7-11.8c0.2-0.9,0.2-1.8,0.2-2.7
			h2.7c-0.3,2-0.3,4-0.8,6.1c-0.4,3.7-1.9,7.2-2.8,10.9c-0.7,2.1-0.9,4.5-0.7,6.8c0.2,1.6,0.4,3.1,0.4,4.7c0,2,0.4,3.9,1.1,5.6
			c0.6,1.3,1.3,2.7,1.6,4c0.3,1.1,0.3,2.2,0.4,3.5c0.4,2.6,1.6,4.9,2.7,7.4c0.9,1.8,1.8,3.6,2.6,5.5c0.7,1.6,1.1,3.3,1.9,4.8
			c0.3,0.8,0.3,1.7,0.8,2.5c0.2,0.3,0.6,0.6,1,0.6c0.3,0,0.8-0.2,0.9-0.6c0.6-1-0.6-1.9-0.9-2.8c-0.6-1.6-1.1-3.3-1.8-4.8
			c-1.3-3.5-3.1-6.7-4.6-10.2c-0.4-1-0.8-2.1-0.8-3.3c0-1.5,0-2.9-0.6-4.1c-0.9-1.9-1.9-3.6-2.4-5.6c-0.3-1.8,0.1-3.7-0.1-5.5
			c-0.2-1.1-0.4-2.2-0.4-3.5c0.1-4.3,1.8-8.2,2.8-12.2c0.7-2.6,0.9-5.2,1.2-7.8C476.9,21.8,477,21.2,477.3,20.5z M479.5,33.2
			c0.3-1.2,0.8-2.6,0.9-3.9c0.4-2.1,0.4-4.4,1-6.4c0.2-0.8,0.6-1.6,0.9-2.4h3c-0.6,1.1-1.2,2.4-1.6,3.6c-0.7,2-0.3,4.1-0.8,6.2
			c-0.2,1.2-0.7,2.4-1,3.5c-0.7,2.1-1.2,4.4-1.6,6.6c-0.1,0.4-0.1,1,0,1.6c0.1,1.1,0.7,2.1,1.3,2.9c1,1.3,2,2.8,2.9,4.3
			c1,1.6,2.2,2.9,3.6,4.3v3.9c-0.3-0.4-0.6-0.8-0.9-1.2c-1.3-1.5-2.9-2.7-4-4.4c-1.1-1.5-1.8-3.3-3.1-4.7c-0.7-0.8-1.6-1.5-2.1-2.4
			c-0.7-1.1-0.6-2.6-0.4-3.9C477.9,38.1,478.7,35.7,479.5,33.2z M490.3,20.5c-0.4,1.6-1.1,3-2,4.4c-0.6,0.8-1.6,1.6-1.2,2.6
			c0.2,0.4,0.7,0.7,1,0.7c0.2,0,0.3-0.1,0.4-0.1c0.7-0.3,0.9-1.1,1.1-1.8c0.6-1,1.3-1.8,1.8-2.9c0.3-0.9,0.6-1.9,0.9-2.8h2
			c-0.2,1.3,0.7,2,0.8,3c0,0.6-0.6,0.9-0.9,1.2c-1.6,1.1-2.4,2.9-3.7,4c-1,0.9-2.1,1.5-2.8,2.6c-0.9,1.2-1.2,2.7-1.7,4.1
			c-0.3,1.8-1,3.7-0.7,5.5c0.2,1.3,1,2.5,1.8,3.6c0.3,0.6,0.8,1.1,1.2,1.7l-0.1,4.1c-0.6-0.6-1.1-1.2-1.6-1.9
			c-1.1-1.8-2.4-3.5-3.6-5.2c-0.8-1.1-0.8-2.6-0.6-3.9c0.4-2.2,0.9-4.5,1.7-6.6c0.3-1,0.8-1.9,0.9-3c0.1-1.2-0.2-2.6,0.1-3.9
			c0.2-1.3,0.9-2.7,1.6-3.9c0.2-0.4,0.4-0.9,0.7-1.5H490.3z M495.9,25.7c0.2-0.3,0.7-0.4,1.1-0.4c0.2,0,0.3,0,0.6,0.1
			c1.8,0.4,3.5,0.8,5.3,1v3.1c-0.9-0.4-1.8-1-2.8-1.1c-0.4-0.1-0.9-0.1-1.3-0.1c-0.6,0-1.2,0.1-1.8,0.3c-1,0.7-1.8,1.6-2.7,2.5
			c-0.8,0.9-1.7,1.7-2.5,2.7c-1.1,1.3-1.6,3.1-1.7,4.9c0,1.3,0.4,2.5,1.1,3.6c-0.8,0.4-1.6,1.1-2,1.8c-0.7-0.8-1.2-1.7-1.6-2.7
			c-0.6-1.6-0.2-3.1,0.1-4.6c0.8-3.1,1.1-4,3.6-6.2C493,29.1,494.4,27.4,495.9,25.7z M493.5,41.7c-1-0.9-1.5-2-1.6-3.3
			c0.1-1.3,0.6-2.8,1.5-3.8c0.8-0.9,1.8-1.7,2.5-2.6c0.7-0.8,1.3-1.6,2.2-1.8c0.3-0.1,0.6-0.1,0.9-0.1c0.9,0,1.8,0.3,2.7,0.7
			c0.4,0.2,0.9,0.6,1,1.1c0,0.7,0,1.2,0.1,1.8v2.7c0,0.8-0.2,1.6-0.6,2.4c-0.7-1-1.1-2.1-1.6-3.3c-0.3-0.7-0.3-1.6-0.7-2.4
			c-0.2-0.4-0.7-0.8-1.1-0.8c-0.2,0-0.4,0-0.6,0.1c-0.6,0.2-0.7,1-0.6,1.6c0.3,0.7,0.8,1.2,1.1,1.9c0.3,0.9,0.6,2,1.1,2.9
			c0.2,0.6,0.7,1,1,1.5c-0.7,0.6-1.5,1-2.4,1.2c-0.7-0.8-1.3-1.6-1.7-2.6c-0.3-0.9,0.1-1.9-0.3-2.8c-0.1-0.3-0.6-0.6-1-0.6
			c-0.3,0-0.6,0.1-0.8,0.3c-0.4,0.4-0.3,1.1-0.2,1.7c0.2,0.7,0.3,1.2,0.6,1.8c0.2,0.9,0.6,1.6,1.1,2.2h-2.6V41.7z M496.4,20.8
			l1.1-0.2c2.4,0,4.4,1.7,5,3.9c-1.5-0.3-2.9-0.8-4.5-0.9c-0.6,0-1.1-0.1-1.3-0.6C496.4,22.3,496.7,21.5,496.4,20.8z"/>
		<path class="st0" d="M507.3,36.2V23.7c0-0.9,0.4-1.8,1.1-2.4c0.2,1.7-0.1,3.1-0.3,4.5c-0.2,1.2,0.2,2.5,0.4,3.7
			c0.6,2,0.7,4.1,1.2,6.2c0.6,2.4,1.7,4.6,2.1,7.1c0.7,3.1,1.5,6.3,2.7,9.2c0.6,1.5,1.5,2.8,2.1,4.3c1.1,2.2,1.9,4.6,2.8,7
			c0.4,1.1,1,2.4,1.8,3.1c1.1,1.1,2.5,1.8,3.8,2.6c0.6,0.3,5,2.6,5.4,2.6c0.8,0,1.3-0.9,1-1.6s-1.1-0.8-1.7-0.9
			c-1.1-0.2-6.1-2.9-7-3.7c-0.9-0.9-1.3-2.2-1.8-3.5c-1-2.8-2-5.5-3.5-8.2c-1.3-2.5-2.5-5.2-3.1-8c-0.4-1.9-0.7-3.8-1.2-5.7
			c-0.6-1.6-1.2-3-1.6-4.6c-0.4-1.5-0.7-2.9-0.8-4.5c-0.2-1.8-1-3.5-0.8-5.3c0.2-1.7,0.2-3.4,0.4-5h2.7c-0.2,1.8-0.4,3.6-0.2,5.4
			c0.2,1.6,0.4,3.1,0.4,4.8c0,1.9,0.3,3.8,1.1,5.6c0.4,1.3,1.2,2.6,1.6,3.9c0.3,1.1,0.3,2.4,0.4,3.5c0.3,2.6,1.6,5,2.7,7.4
			c0.9,1.8,1.8,3.6,2.6,5.5c0.7,1.6,1.1,3.3,1.8,4.8c0.4,0.8,0.4,1.7,0.9,2.5c0.2,0.4,0.6,0.6,1,0.6c0.3,0,0.8-0.2,0.9-0.6
			c0.4-1-0.6-1.8-0.9-2.7c-0.6-1.7-1.1-3.4-1.8-4.9c-1.3-3.5-3.3-6.7-4.6-10.2c-0.4-1-0.8-2.1-0.8-3.3c0-1.3,0-2.9-0.7-4.1
			c-0.8-1.8-1.8-3.6-2.2-5.6c-0.3-1.8,0.1-3.7-0.1-5.5c-0.2-1.1-0.4-2.2-0.4-3.4c0-1.3,0.1-2.5,0.4-3.7h2.7
			c-0.3,1.8-0.4,3.5-0.3,5.4c0.2,1.6,1.6,2.5,2.7,3.5c1.3,1.2,2.1,3,3,4.5c1.2,2.2,3.4,3.7,4.9,5.6c3.1,3.4,8.3,17.3,8.9,22.5
			c0,1.7,0.1,3.4,0.2,5.2c0,0.3,0,0.7,0.1,1h-1c-0.6,0-1.1,0.1-1.6,0.3c-0.2-1.8-0.2-3.8-0.2-5.6c-0.2-2.8-1-5.5-2-8.1
			c-1-3.4-4.9-12.9-7.5-15.1c-1-1-2.2-1.7-3.1-2.8c-0.8-1-1.2-2.2-1.8-3.4c-0.4-0.6-0.6-1.3-0.8-2c-0.1-0.6-0.7-1.2-1.2-1.2
			c-0.7,0-1.2,0.8-1.1,1.5c0.1,0.2,0.2,0.4,0.3,0.7c1.3,1.8,1.7,4.1,3.1,5.9c0.8,1,2.1,1.5,3,2.4c3.3,2.9,9,17.2,9.2,22.5
			c0.2,1.5,0.1,2.8,0.1,4.3c0,0.8,0.4,1.6,0.3,2.5c0.1,0.2,0,0.6,0,0.9v0.8c0,1.2,0.7,2.2,1.7,2.8c-5.3-0.3-8.5-2-13-4.6
			c-1.1-0.6-2.4-1.1-3.1-2.4c-0.8-1.2-1.3-2.8-1.9-4.1c-0.8-1.8-1.3-3.8-2.2-5.6c-0.8-1.8-2.2-3.3-2.8-5.3c-0.8-2.8-1.6-5.6-2.4-8.4
			C509,41.4,508,38.8,507.3,36.2z M508.4,66.2c-0.3-0.8-0.7-1.5-1.1-2.1v-6.8c0.2-0.8,0.4-1.6,0.4-2.4s-0.2-1.5-0.4-2.1v-9.5
			c0.7,2.5,1.3,4.9,2,7.3c0.3,1.3,0.7,2.6,1.1,3.9c0.4,1.2,1.5,2.2,2.1,3.4c0.7,1.1,1,2.5,1.6,3.7c0.6,1.5,2.7,7.1,3.8,8.1
			c0.8,0.9,1.9,1.2,2.9,1.9c1.7,0.9,3.4,2,5.2,2.8c3,1.3,8.3,2.2,11.5,2.4c1.3,0,2.7-0.1,3.9-0.4c0.9-0.3,1.8-0.8,2.7-1.2h4.4
			c-1.2,0.9-2.4,1.7-3.7,2.5c-2,1.3-4.6,1.8-7,1.8c-0.4,0-0.8-0.1-1.2-0.1c-6.2-0.4-11-1.7-16.1-4.9c-0.7-0.3-1-1-1.7-1.5
			c-0.2-0.1-0.4-0.1-0.7-0.1c-0.2,0-0.6,0.1-0.8,0.3c-0.3,0.2-0.2,0.8-0.2,1.2c0.3,0.4,0.8,0.8,1.3,1c1.7,0.9,3.3,1.9,4.9,2.8
			c1.6,1,3.5,1.3,5.3,1.8c2.6,0.4,5.2,1,7.7,1.2c0.4,0.1,1,0.1,1.5,0.1c1.1,0,2.2-0.1,3.4-0.2c2.9-0.4,4.9-2,7.3-3.6
			c1.1-0.8,2.1-1.6,3.3-2.4h4c-2.5,2.5-5.6,3.8-8.1,5.9c-2.8,2.5-5.8,2.7-9.4,2.7c-0.9,0-1.8,0-2.7-0.1c-3.4-0.3-6.6-1.1-9.9-1.8
			c-1.6-0.4-3.4-0.7-4.6-1.8c-0.4-0.4-0.7-1.1-1.1-1.6c-0.2-0.2-0.6-0.3-0.9-0.3c-0.1,0-0.3,0.1-0.6,0.1c-0.6,0.3-0.6,1-0.3,1.6
			c0.2,0.6,0.8,0.9,1.2,1.2c1.6,1.6,2.5,1.9,4.6,2.4c4.1,0.9,8.2,1.8,12.4,2.2c0.8,0,1.6,0,2.4,0c0.7,0,1.3,0,2,0
			c1.5-0.2,3-0.4,4.5-0.9c0.8-0.2,1.7-0.4,2.4-1.1c1-0.9,2-1.9,3.1-2.6c1-0.7,2-1.2,3-2c1.5-1,3-2,4-3.5l2.4-0.4
			c0.3,0,0.7,0,0.9,0.1c-0.4,1.2-0.9,2.2-1.6,3c-0.9,0.8-2,1.2-2.9,1.9c-1.5,0.9-2.5,2.1-4,2.8c-0.8,0.4-1.9,0.2-2.5,1.1
			c-0.4,0.7,0.2,1.7,1.1,1.6c0.9-0.2,1.6-0.8,2.5-1c1.3-0.6,2.2-1.8,3.4-2.7c1-0.7,2.1-1.1,3.1-1.7c1.1-0.7,1.7-1.7,2.1-2.8
			c0.1-0.4,0.3-0.8,0.4-1.1c0.4,0.6,0.7,1.2,0.7,1.9v3.7c-0.2,0.2-0.3,0.3-0.7,0.4c-0.9,0.4-1.9,0.7-2.8,0.9
			c-0.8,0.2-1.6,0.1-2.2,0.6c-0.7,0.4-0.6,1.7,0.2,1.9c0.1,0,0.2,0.1,0.4,0.1c0.4,0,0.8-0.2,1.2-0.4c1.2-0.6,2.6-0.7,3.8-1V87
			c-0.9,0.3-1.8,0.6-2.8,0.8c-0.3,0-0.8,0-1.2,0c-0.3,0-0.8,0-1.2,0c-1.1-0.2-2.1-0.6-3.3-0.6c-0.1,0-0.3,0-0.4,0
			c-0.9,0.1-1.8,0.3-2.8,0.3c-1.3-0.1-2.8-0.6-4.1-0.6c-0.3,0-0.7,0-1,0.1c-2.2,0.4-4.5,1.2-6.7,1.2c-0.1,0-0.2,0-0.4-0.1
			c-0.2,0.1-0.4,0.1-0.7,0.1c-2,0-4-0.3-6.1-0.7c-3.9-0.7-7.8-1.6-11.8-2.4c-1.1-0.2-2.6-0.4-3.3-1.7c-0.9-1.5-2-7.1-2.2-9.1
			c-0.1-1.2-0.1-2.5-0.3-3.7c-0.2-1.5-2.4-5.8-3-7.2c-0.4-1-0.9-1.9-1.2-2.9c-0.1-0.7,0.1-1.3-0.2-2c-0.2-0.4-0.7-0.8-1.1-0.8
			c-0.2,0-0.4,0.1-0.6,0.2c-0.7,0.3-0.4,1.1-0.3,1.7c0.4,1.3,0.8,2.8,1.5,4c0.9,1.8,1.8,3.7,2.6,5.6c0.6,1.3,0.7,2.7,0.8,4
			c0.2,2.9,1.5,9.3,2.8,11.7c0.4,0.9,1.5,1.3,2.4,1.6c1.2,0.3,2.6,0.6,3.8,0.8c3.1,0.7,6.4,1.3,9.5,1.9c1.9,0.4,3.7,0.6,5.6,0.8
			c0.3,0,0.7,0,0.9,0c0.4,0,0.9,0,1.3,0c0.2,0,0.3,0,0.6,0c2.5,0,4.8-1,7.3-1.2c1,0,2,0.2,3.1,0.3c0.4,0,0.8,0,1.2,0
			c0.9,0,1.8,0,2.6-0.1c1.8,0,3.5,0.3,5.2,0.4c1.3,0,2.6-0.2,3.8-0.7v2.9c-0.9,0-1.7,0-2.6,0.1c-0.3,0.1-0.7,0.1-1,0.1
			c-1.1,0-2.2-0.2-3.4-0.2c-0.1,0-0.1,0-0.2,0c-1.2-0.1-2.5-0.1-3.7-0.1c-0.9,0-1.8,0-2.8,0c-0.3,0-0.7,0-1,0
			c-2.2,0-4.3,0.4-6.4,0.9c-0.7,0.1-1.5,0.3-2.2,0.3c-0.2,0-0.3,0-0.6,0c-1.8-0.3-3.6-0.6-5.5-0.6c-1.6-0.1-3.1-0.7-4.7-1
			c-4.1-0.8-8.3-1.5-12.3-2.2c-0.9-0.2-1.9,0-2.7-0.6c-0.6-0.8-0.4-1.9-0.9-2.8c-1.5-4.3-2.2-8.7-2.8-13.1
			C510.4,70.3,509.6,68.2,508.4,66.2z M510.3,91.3c-0.9,0.8-1.8,1.6-2.8,2.2c-0.1-0.3-0.2-0.7-0.2-1.1v-2c0.8-0.7,1.5-1.2,1.7-2.1
			c0.2-1.2-0.1-2.4-0.4-3.6c-0.4-1.7-0.7-3.4-1.1-5.2l-0.1-11.4c0.1,0.3,0.3,0.7,0.4,1c0.9,2,1.1,4.1,1.3,6.3c0.4,2.7,1.1,5.3,1.8,8
			c0.4,1.5,0.7,3,1.3,4.5c0.2,0.4,0.4,1.1,0.1,1.7C511.8,90.2,511,90.6,510.3,91.3z M560.3,95.7h-31.7c-4-1-7.6-1.3-11.1-1.9
			c-1.6,0-2.7,0-4,1c-0.3,0.3-0.7,0.6-1.1,0.9h-1.8c-0.7,0-1.3-0.2-1.8-0.6c1.1-0.8,2.2-1.7,3.4-2.6c0.7-0.6,1-1.5,1.8-1.9
			c0.2,0,0.3-0.1,0.6-0.1c0.4,0,0.8,0.2,1.2,0.2c1,0.3,2,0.4,3,0.6c3.7,0.6,9.8,1.5,13.2,2.6c0.9,0.3,1.8,0.4,2.8,0.4
			c0.3,0,0.7-0.1,1-0.1c0.1,0,0.2,0,0.3,0c1.3,0,2.7,0.7,4.1,0.6c1,0.1,2-0.2,3-0.4c1.6-0.3,3.1-0.7,4.7-0.8c0.3,0,0.8,0,1.1,0
			c1.1,0,2.1,0,3.3,0c0.9,0,1.9,0,2.8,0c1.5,0.2,2.8,0.1,4.3,0.3c0.2,0,0.4,0,0.6,0c1,0,2-0.1,2.9-0.1c0.1,0,0.2,0,0.4,0
			C562.8,94.9,561.7,95.7,560.3,95.7z M520.2,26.3c-0.8-1.1-0.7-2.6-0.4-3.8c0.1-0.7,0.2-1.3,0.3-1.9h2.7c-0.1,0.4-0.2,0.9-0.2,1.5
			c-0.1,0.6-0.1,1,0,1.6c0.1,1.1,0.6,2.1,1.2,2.9c1.1,1.3,2.1,2.8,3,4.3c1.3,2.1,3.3,3.9,5,5.7c1.3,1.5,2.2,3.4,3.1,5.3
			c-1,0.4-1.6,1.5-1.7,2.6c-1-2.4-2.1-4.7-3.8-6.5c-1.3-1.6-2.9-2.8-4-4.5c-1.1-1.5-1.8-3.3-3.1-4.6
			C521.7,27.8,520.8,27.2,520.2,26.3z M530.6,64.6c-0.4-1.3-0.2-2.8-0.7-4.1c-1.3-5.2-3.7-10-6.1-14.7c-0.6-1-1-2-1.3-3.1
			c-0.1-0.6-0.7-1-1.2-1c-0.2,0-0.3,0-0.6,0.1c-0.6,0.2-0.6,1-0.3,1.6c0.3,0.7,0.9,1.2,1.2,1.9c1.7,4,3.8,7.8,5.2,11.9
			c0.8,2.2,1.7,4.4,1.8,6.7c0,0.8-0.4,1.8,0.1,2.6c0.1,0.3,0.6,0.6,0.9,0.6c0.3,0,0.7-0.1,0.9-0.4C531,65.9,530.7,65.3,530.6,64.6z
			 M539.6,41.3h-2.7c-0.9-2-1.8-4-3.3-5.6c-1.6-1.9-3.5-3.5-4.8-5.5c-1.2-1.7-2.5-3.4-3.6-5.2c-0.8-1.1-0.8-2.6-0.6-3.9l2.8-0.6
			c-0.1,0.7-0.1,1.5,0,2.1c0.2,1.3,1,2.5,1.7,3.6c0.9,1.2,1.7,2.4,2.7,3.5c1.3,1.9,3.1,3.3,4.6,5c1,1.1,1.6,2.6,2.1,3.9
			C538.9,39.6,539.3,40.4,539.6,41.3z M529.5,20.5h2.7c0,3.4,4.3,8.1,6.7,10.1c1,0.8,2,1.6,2.7,2.8c0.6,1.2,0.8,2.7,1.2,4
			c0.3,1.3,1,2.6,1.8,3.8h-2.9c-0.2-0.4-0.4-0.9-0.7-1.5c-0.7-1.5-1-3-1.8-4.5c-0.7-1.3-1.8-2.5-2.8-3.5c-1.9-1.7-5.9-6.4-6.8-8.9
			C529.4,22.2,529.4,21.3,529.5,20.5z M563.6,38c0,1.1-0.6,2.1-1.5,2.7c-0.1-2.2,0-4.6-0.1-6.8c-0.2-2.8,0-5.5,0-8.3
			c0-0.9,0.7-1.7,0.6-2.6c0-0.7-0.6-1.1-1.1-1.1c-0.2,0-0.4,0.1-0.6,0.2c-0.7,0.4-0.7,1.3-0.7,2c0,0.9-0.1,1.8-0.1,2.7
			c0,4.8,0,9.6,0.2,14.5h-2.7c0-2.8,0.1-5.5-0.1-8.3c-0.1-1.5,0.2-2.9,0.1-4.4c-0.1-0.9,0.1-1.8,0.3-2.6c0.2-0.8-0.4-1.7-1.2-1.7
			c-0.1,0-0.2,0-0.2,0c-0.8,0.2-1,1.1-0.9,1.7c0.3,2.1,0.1,4.1,0,6.3c0,2.5,0.4,4.9,0.2,7.5c-0.1,0.4-0.1,0.9-0.1,1.5H553
			c0.1-0.6,0.1-1.1,0.2-1.6c0.2-1.2,0.2-2.5,0.1-3.7c-0.2-1.8-0.7-3.6-0.4-5.5c0.2-0.8,1-1.5,0.9-2.5c-0.1-0.4-0.7-0.9-1.1-0.9
			c-0.2,0-0.3,0.1-0.6,0.1c-0.4,0.3-0.7,1-0.8,1.6c-0.1,0.8-0.4,1.6-0.4,2.4c-0.1,2.2,0.8,4.4,0.8,6.5c0,1.2-0.4,2.4-0.6,3.6h-4.3
			c-0.4-0.6-0.9-1-1.1-1.6c-1.3-2.2-1.5-5-2.5-7.4c-0.7-1.3-2-2.2-3.1-3.3c-1.8-1.6-3.4-3.3-4.7-5.3c-0.7-0.9-1.1-2-1.2-3.3h2.9
			c0.7,2.7,4.9,7.5,7.6,8.5c0.7,0.2,1.2,0.8,1.2,1.6c0.1,2.8,1.5,5.4,1.5,8.2c0.1,0.6,0.7,1,1.2,1c0.6-0.1,1.1-0.6,1-1.2
			c-0.1-0.8-0.6-1.5-0.7-2.2c-0.4-1.9-0.7-3.9-1.1-5.8c-0.1-0.4-0.1-0.9,0-1.3c0.2-0.4,0.6-0.7,0.9-1c0.8-0.6,1.2-1.6,2-2.1
			c2.4-2.1,5.4-3.1,8-4.8c0.4-0.2,0.9-0.4,1.5-0.7h0.1c1.8,0,3.3,1.5,3.3,3.1L563.6,38L563.6,38z M541.8,68.2h-2.5
			c0-0.7,0-1.3-0.1-1.9c-0.2-1.7,0.1-3.4-0.2-5c-0.2-2.5-1.1-4.8-1.8-7.3c-0.8-2.4-1.7-4.7-2.7-7c0.6,0.4,1.2,0.7,2,0.7h1.1
			c0.2,0.6,0.4,1,0.7,1.6c0.8,2.5,1.5,4.9,2.2,7.3c0.9,2.5,1.5,5,1.1,7.6C541.5,65.5,541.8,66.8,541.8,68.2z M542.2,20.5
			c0.6,1.1,1.6,1.9,2.5,2.7c0.6,0.6,1,1.1,1.8,1.3c0.1,0,0.3,0,0.6,0c0.2,0,0.6-0.1,0.8-0.3c0.3-0.2,0.2-0.8,0.1-1.2
			c-0.6-1-1.8-0.9-2.6-1.6c-0.3-0.3-0.6-0.6-0.8-0.9h4.4c0.3,0.1,0.7,0.1,0.9,0.1c0.3,0,0.7,0,1-0.1h5.4c-0.4,0.2-0.9,0.6-1.3,0.8
			c-1.6,0.9-3.4,1.3-4.6,2.7c-1,1-1.9,2-2.8,3.1c-0.3,0.3-0.8,0.6-1.1,0.6c-1.8,0-6.6-5.4-7.2-7.1L542.2,20.5z M550.9,63.6
			c-0.1,1.6-0.4,3.3-1.3,4.6h-5.8c-0.1-0.3-0.2-0.7-0.1-1c0-1.5-0.1-3,0.1-4.5c0.1-2.9-1-5.6-1.8-8.3c-0.7-2-1.1-3.9-1.8-5.8
			c-0.1-0.3-0.2-0.6-0.3-0.9h2.8c0.8,2.5,1.2,4.8,2,7.1c0.7,1.7,1.3,3.4,1.6,5.2c0.3,1.7,0.2,3.3,0,4.9c-0.2,0.7-0.6,1.2-0.7,2
			c-0.1,0.4,0.2,0.9,0.6,1.1c0.1,0.1,0.3,0.1,0.4,0.1c0.6,0,1-0.3,1.2-0.8c0.1-0.9,0.1-1.8,0.3-2.7c0.3-1.5,0.3-3,0.1-4.6
			c-0.2-2.7-1.6-5-2.4-7.5c-0.4-1.6-0.8-3.3-1.2-4.8h2.7c0.4,2.2,0.8,4.5,1.8,6.5c0.6,1.1,1.2,2.2,1.6,3.5
			C551,59.6,551,61.6,550.9,63.6z M555.7,62.6c0,1.9-0.4,3.7-1.1,5.5c-0.3,0-0.7,0.1-1,0.1h-1.9c0.7-1.5,1.1-3,1.2-4.6
			c0-2.1,0-4.4-0.3-6.5c-0.3-1.5-1.3-2.6-1.9-3.9c-0.6-1.1-0.8-2.4-1-3.6c-0.1-0.7-0.2-1.2-0.3-1.9h2.6c0.1,0.9,0.3,1.7,0.4,2.6
			c0.1,0.8-0.1,1.5,0,2.2c0.2,0.4,0.6,0.8,1.1,0.9c0.3,0,0.7-0.2,1-0.6c0.3-1-0.3-1.9-0.3-2.9c-0.1-0.8-0.2-1.5-0.3-2.2
			c1.3,0.1,2.5,1,2.8,2.2c0.1,0.7,0.1,1.5-0.1,2.2c-0.3,1.7-1.3,3.4-1.2,5.2C555.4,59,555.6,60.8,555.7,62.6z"/>
		<path class="st0" d="M567.7,64.9c-0.1-3-0.2-6.1-0.2-9.1c0.1,0.6,0.1,1,0.1,1.5c0,1.1,0.4,2.2,0.3,3.4c0,0.7-0.1,1.7,0.6,2.1
			c0.1,0.1,0.4,0.2,0.7,0.2s0.7-0.1,0.9-0.4c0.4-0.7,0-1.7-0.2-2.4c-0.4-1.2-0.2-2.6-0.4-3.8c-0.1-1.6,0.1-3.3-0.1-4.9
			c-0.2-1.8-0.7-3.5-1.2-5c0.2-2.1,0.6-4,0.9-5.7c0.7,1.9,1.2,4,1.9,5.9c0.8,2.5,1.3,5.2,1,7.7c-0.2,1.3,0.2,2.8,0.1,4.1
			c0,0.7,0,1.2,0.1,1.9c0.1,0.3,0.3,0.7,0.8,0.8c0.1,0.1,0.2,0.1,0.3,0.1c0.6,0,1.1-0.6,1.1-1.2c0-0.9-0.6-1.8-0.6-2.8
			c0-1.5-0.1-2.9,0.1-4.4c0.2-2.9-0.9-5.7-1.8-8.4c-0.6-1.9-1.1-3.9-1.8-5.8c-0.1-0.4-0.3-1-0.6-1.5c0.3-1.3,0.7-2.6,1.1-3.6
			c0.8,1.3,1.6,2.8,2,4.5c0.7,2.2,1.2,4.6,2,6.8c0.6,1.7,1.2,3.4,1.6,5.2c0.2,1.6,0.1,3.3-0.1,4.8c-0.1,0.7-0.4,1.3-0.7,2
			c-0.1,0.4,0.2,0.9,0.6,1.2c0.2,0,0.3,0.1,0.6,0.1c0.4,0,1-0.3,1.1-0.9c0.1-0.9,0.1-1.8,0.3-2.6c0.3-1.6,0.3-3.1,0.1-4.7
			c-0.2-2.6-1.6-4.9-2.2-7.5c-0.7-1.9-1-3.9-1.6-5.8c-0.6-1.9-1.8-3.6-2.7-5.5c0.4-0.9,1-1.8,1.6-2.6c0.4,1.1,0.9,2.2,1.7,3.3
			c0.8,1.1,1.5,2.1,1.8,3.4c0.9,3,1,6.2,2.4,9.1c0.6,1.1,1.2,2.1,1.6,3.4c0.4,2,0.3,4,0.3,6.1c-0.2,1.6-0.4,3.3-1.5,4.6
			c-1.5,2.1-6.4,5.4-8.7,6.1C569.9,64.9,569,64.9,567.7,64.9z M585.9,20.8c0,0.6-0.1,1.1-0.1,1.7c0.1,2.6,0.6,5,0.2,7.5
			c-0.2,2,0,4.1,0.3,6.2c0.3,2,0.8,4.1,0.4,6.2c-0.3,1.8-1.5,3.4-1.3,5.2c0.1,1.8,0.3,3.6,0.4,5.3c0,7.7-4.9,11.2-10.8,14.9
			c-2.1,1.3-4.7,1.7-7.2,1.7c0-0.8-0.1-1.7-0.1-2.5c4.6,0,9.4-3.1,12.6-6.3c1.8-1.8,2.6-4.3,2.7-6.7c0-2.2,0.1-4.4-0.3-6.6
			c-0.2-1.5-1.3-2.6-1.9-3.8c-0.6-1.1-0.8-2.4-1-3.6c-0.2-1.5-0.6-3-0.8-4.5c-0.2-0.9-0.6-1.9-1.1-2.8c-0.7-0.9-1.5-1.7-2-2.7
			c-0.6-0.9-0.9-1.9-1.1-2.9c0.7-0.7,1.3-1.3,2.1-2c0.3,1.3,0.7,2.7,0.8,4c0,0.6,0.6,1,1.1,1.1c0.6-0.1,1.1-0.7,1.1-1.2
			c-0.2-0.8-0.6-1.5-0.8-2.2c-0.1-1-0.3-1.9-0.4-2.9c0.7-0.4,1.6-0.9,2.5-1.3c0.1,1.9,0.7,3.7,0.7,5.6s-1,3.7-0.7,5.6
			c0.6,2.2,1,4.6,1.3,6.8c0.1,0.8,0,1.6,0.1,2.2c0.1,0.6,0.6,0.9,1,1c0.4,0,0.8-0.3,1-0.7c0.3-0.9-0.3-1.9-0.3-2.9
			c-0.1-1.8-0.4-3.5-0.9-5.3c-0.3-1.6-0.2-3.3,0-4.9c0.2-1.2,0.2-2.5,0.2-3.7c-0.2-1.5-0.6-3-0.6-4.5C584,21.3,584.9,21,585.9,20.8z
			 M587.8,20.3c0.8-0.2,1.7-0.3,2.5-0.4c0,4.4,0,8.7,0.2,13.1c0.2,1.2,0.3,2.4,0.6,3.6c0.2,1.5,0.2,3,0.1,4.6
			c-0.2,2.4-0.9,4.7-1,7.2c0,0.9,0.2,1.7,0.2,2.5c0.1,2,0.4,4-0.2,6.1c-0.8,2.2-2.7,6.8-4.3,8.4c-2.4,2.2-5.4,3.6-7.8,5.8
			c-2.6,2.2-6.3,2.7-9.5,2.7c-0.1-0.9-0.2-1.7-0.3-2.6c1.1,0,2.1-0.1,3.3-0.2c1.3-0.2,2.7-0.6,3.8-1.2c2.4-1.3,6.4-4.1,8.3-5.9
			c1.8-1.8,2.8-4,3.6-6.4c0.7-1.9,0.9-3.9,0.7-5.9c-0.2-1.7-0.4-3.4-0.2-5c0.2-1.5,0.9-2.9,1-4.4c0.6-3.3-0.4-6.4-0.7-9.5
			c-0.1-3.1,0.1-6.3-0.2-9.3C587.7,22.2,587.8,21.2,587.8,20.3z M577.8,77c-0.3,0-0.7,0-1,0.1c-2.2,0.4-4.4,1.1-6.7,1.1
			c-0.1,0-0.2,0-0.3,0c-0.4-0.8-0.7-1.7-0.9-2.6c2.2,0,7.3-0.4,9.1-2c1-0.9,2-1.9,3.1-2.7c2.1-1.2,5.7-3.5,7.2-5.4
			c0.9-1.5,1.6-3,2.2-4.6c1-2.2,2.2-4.5,2.1-7.1c-0.2-1.7-0.3-3.5-0.4-5.3c-0.1-3.1,1.1-6.3,1-9.5c0-2.5-0.8-4.8-0.8-7.4
			c-0.2-2.6-0.1-5.2-0.2-7.7c-0.1-1.5,0-2.9,0-4.5c0.8-0.1,1.7-0.1,2.5-0.2c0,1.5,0,2.9,0.1,4.4c0,1.9-0.1,3.9,0.1,5.8
			c0.1,1.1,0,2.2,0.2,3.4c0.2,2.1,0.8,4.3,0.7,6.5s-0.7,4.5-0.9,6.7c-0.8,2.5-1.1,5.7-1.1,10.2c0,1.3,0,2.6,0,3.7
			c-0.8,1.8-1.7,3.7-2.5,5.5c-0.3,1-0.7,2-1.5,2.8c-0.9,0.8-2,1.1-2.9,1.8c-1.3,0.9-2.5,2.2-3.9,2.9c-0.9,0.3-2,0.2-2.6,1
			c-0.4,0.8,0.2,1.8,1.1,1.7c0.9-0.2,1.7-0.8,2.5-1.1c1.5-0.4,2.2-1.7,3.4-2.6c1-0.8,2.1-1.1,3.3-1.7c1-0.7,1.7-1.8,2-2.9
			c0.4-1.1,0.9-2.2,1.3-3.4c0.2,2.2,0.4,3.9,0.8,5.2c0,0.3-0.2,0.7-0.2,1.1c-0.2,0.8-0.6,1.8-1.5,2.1c-0.9,0.4-1.8,0.6-2.8,0.9
			c-0.7,0.2-1.6,0.1-2.2,0.6c-0.7,0.4-0.6,1.6,0.2,1.9c0.1,0,0.3,0,0.4,0c0.4,0,0.9-0.2,1.2-0.3c1.6-0.8,3.5-0.7,4.9-1.6
			c0.7-0.4,1-1.2,1.2-2c0.6,0.9,1.2,1.7,2.1,2c0.6,1.3,1.5,1.9,2.1,2.5c4.3,3.4,6.7,5,12,5.6c3.1,0,8.3-1.8,10.8-3.9
			c0.2,0.3,0.3,0.8,0.3,1.2V81c-1.9,1.1-3.9,2-5.9,2.7c-1.6,0.3-3,0.9-4.6,0.9c-0.3,0-0.6,0-0.9,0c-1.3-0.2-2.8-0.3-4.3-0.6
			c-1.1-0.1-2.1-0.8-3-1.5c-1.8-1.1-3.6-2.1-5.2-3.5c-0.8-0.7-1.6-1.5-2.4-2c-0.4-0.3-1-0.3-1.5-0.3c-0.3,0-0.7,0-1,0
			c-1.2,0.4-2.5,0.8-3.7,1c-0.8,0-1.7,0-2.5,0c-1.1-0.1-2.2-0.4-3.4-0.4c-0.1,0-0.2,0-0.3,0c-1,0.1-1.9,0.2-2.8,0.2
			C580.6,77.5,579.3,77,577.8,77z M623.6,86c-2,0.9-4,1.7-6.2,2.1c-0.9,0.2-1.9,0.4-2.8,0.9c-1,0.4-1.7,1.5-2.1,2.4
			c-0.6,0.9-0.9,1.9-0.8,2.9c0.1,0.7,0.3,1.3,0.4,1.9c-0.8,0.1-1.5,0.2-2.2,0.3c-0.2-0.9-0.4-1.7-0.9-2.5c-0.4-1-1.3-1.7-2-2.6
			c-0.8-1.1-1.2-2.6-2.2-3.5c-1-0.8-2.1-1.3-3.3-2.1c-1.5-0.9-2.8-1.8-4.1-2.8c-1.5-0.9-2-1.1-3.8-1.1c-0.8,0-1.6,0-2.4,0.1
			c-0.3,0-0.6,0.1-0.9,0.1c-1.1,0-2.2-0.2-3.5-0.2c0,0-0.1,0-0.2,0c-1.2-0.1-2.5-0.2-3.7-0.2c-0.9,0-1.8,0.1-2.7,0.1
			c-0.4,0-0.8,0-1.1-0.1c-0.1,0-0.3,0-0.4,0c-2,0-3.9,0.6-5.8,0.9c-0.7,0.1-1.2,0.3-1.8,0.3c-0.1-0.4-0.3-0.8-0.4-1.2
			c-0.2-0.4-0.3-1-0.6-1.6c3.1,0.1,5.4-1,7.8-1.1c1,0,2.1,0.1,3.1,0.2c0.4,0,0.9,0.1,1.2,0.1c0.9,0,1.8-0.1,2.7-0.2
			c1.7,0.1,3.4,0.4,5,0.6c1.5-0.1,2.9-0.3,4.4-0.8c0.3-0.1,0.6-0.1,0.9-0.1c0.7,0,1.5,0.2,1.9,0.7c1.5,1.3,8.1,6.2,10.1,6.5
			c1.3,0.1,2.7,0.1,4,0.3c0.7,0.1,1.2,0.2,1.8,0.2c2.7,0,8.1-2.2,10.4-3.4L623.6,86z M605.4,96.9c-0.6-0.6-1-1.3-1.5-2
			c-1.1-1.7-2.4-3.3-4-4.5c-1.9-1.3-4.9-3.5-7.3-3.7c-0.7-0.1-1.2-0.1-1.9-0.1c-0.3,0-0.7,0-1,0c-0.4,0-1,0-1.5-0.1
			c-2-0.2-4.3-0.2-6.4-0.2c-0.8,0-1.6,0-2.5,0.1c-1.7,0-3.4,0.3-5,0.7c-0.3,0-0.8,0.1-1.1,0.2c-0.6-0.8-1-1.6-1.3-2.4
			c0.6-0.1,1-0.2,1.6-0.3c1.6-0.3,3.1-0.7,4.7-0.8c0.4,0,0.9,0,1.2,0c1.1,0,2.1,0,3.3,0c0.9,0,1.8,0,2.8,0c1.3,0.2,2.8,0.1,4.1,0.2
			c0.2,0,0.4,0,0.7,0c0.9,0,1.9-0.1,2.9-0.1c0.8,0,1.7,0.1,2.5,0.6c1.3,0.8,6.8,4.3,7.8,5.3c0.9,1.1,4,5.5,4.4,6.5
			C607.1,96.8,606.2,96.9,605.4,96.9z M599.9,97.1c-1.7-2.2-3.8-4-6.3-5.2c-2.2-1-4.7-0.9-7-1.1c-1.1,0-2.1,0-3.3,0
			c-1.1,0-2.2,0-3.4,0c-1.1,0.1-2.2,0.2-3.4,0.3c-0.8-0.7-1.6-1.5-2.2-2.2c2.7-0.6,5.3-0.8,8-0.8c1.1,0,2.4,0,3.5,0.1
			c0.1,0,0.3,0,0.4,0c8.3,0,11.5,1.7,16.7,8.7C602.1,97,600.9,97.1,599.9,97.1z M597.3,97c-1.6,0-3.1-0.1-4.5-0.2
			c-0.3-0.2-0.8-0.3-1.1-0.6c-1.8-0.7-3.7-0.9-5.6-1c-0.7,0-1.3,0-2,0c-1.5-0.4-2.7-1-3.9-1.7c-0.4-0.2-0.8-0.4-1.2-0.7
			c1.6-0.1,3.1-0.2,4.7-0.2c2.6,0.1,5.3,0.1,7.8,0.7C593.8,94,595.8,95.3,597.3,97z M599,19.1c0,0.3-0.1,0.7,0,0.9
			c0,1.3-0.1,2.6,0,3.9c0.2,1.9,0,3.9,0.2,5.8c0.1,0.9,0,1.8,0.1,2.7c0.3,1.8,0.8,3.6,1.1,5.5c0.1,1,0,2-0.2,2.9
			c-0.1,0.3-0.1,0.6-0.2,0.9c-1.1,0.2-2,0.7-2.8,1.1c0.3-1.5,0.6-2.9,0.4-4.4c0.1-1-0.1-2.1-0.3-3.1c-0.9-5-0.9-11-0.9-16.1
			C597.3,19.2,598.1,19.2,599,19.1z M600.9,19.1c2.9,0,6.2,0.2,9.8,0.7c1.1,0.8,2.2,1.7,3.3,2.6c1.3,1.5,2.2,3.3,2.7,5.2
			c0.7,2.5,1.2,4.9,2,7.3c0.7,2.1,1.3,4.3,1.9,6.4c-0.8,0.3-1.6,0.4-2.5,0.4c-0.8-2.8-1.9-5.4-2.6-8.2c-0.6-2.4-1-4.7-2-6.8
			c-1.5-3.5-4.1-4.7-7.4-5.9c-0.7-0.2-1.3-0.7-2-0.8c-0.8-0.1-1.8,0.8-1.2,1.6c0.3,0.7,1.1,0.9,1.8,0.9c3,0,6.3,3,7.4,5.6
			c0.9,2.2,1.2,4.6,1.9,7c0.4,1.7,1.1,3.4,1.7,5.2c0.1,0.4,0.2,0.9,0.4,1.5c-0.9-0.1-1.8-0.1-2.7-0.2c-0.7-1.9-1.6-3.7-2-5.7
			c-0.7-2.2-0.9-4.7-1.9-6.8c-0.6-1.3-1.6-2.4-2.8-3c-0.9-0.3-1.6-1.1-2.5-1.3c-0.1-0.1-0.1-0.1-0.2-0.1c-0.3,0-0.6,0.2-0.8,0.3
			c-0.4,0.2-0.4,0.8-0.3,1.2c0.2,0.7,1,0.9,1.7,1c1.5,0.3,2.7,1.3,3.3,2.7c0.8,1.9,1,3.9,1.5,5.9c0.4,1.9,1.3,3.8,2,5.7
			c-0.9,0-1.8,0-2.7-0.1c-0.6-1-1.2-2-1.5-3.3c-0.6-1.9-0.6-3.8-1.2-5.6c-0.3-0.9-0.2-2-0.8-2.8c-0.2-0.3-0.6-0.4-0.9-0.4
			c-0.2,0-0.4,0-0.6,0.1c-0.4,0.2-0.7,0.8-0.6,1.2c0.2,0.8,0.7,1.3,0.9,2.1c0.6,2,0.8,4.1,1.2,6.2c0.2,0.9,0.7,1.7,1.1,2.5
			c-1.7,0-3,0.1-4.1,0.2c0.2-0.7,0.4-1.5,0.3-2.2c-0.1-2.5-0.9-4.8-1.2-7.2c-0.3-1.3-0.2-2.7-0.2-4.1c0-1.1-0.1-2.1-0.1-3.3
			C600.9,22.7,600.9,20.9,600.9,19.1z M602.7,75.7c-0.3-0.3-0.8-0.6-1.1-0.9c1.2,0.2,2.6,0.3,4.3,0.3h0.4c0.4,0.2,0.9,0.6,1.3,0.8
			c1.9,1,3.4,1.5,5.6,1.5c1.7,0,5.2-0.9,5.8-2.7c1.1,0.1,2.1,0.6,2.9,1.3c-0.4,1-1.6,1.5-2.5,2c-2.5,1.2-4.7,1.9-7.4,1.9
			c-1.2,0-2.4-0.2-3.5-0.7C606.4,78.5,604.6,77,602.7,75.7z M609.8,90.9c0.8,0,1.5-0.7,1.3-1.3c0.1-0.9-0.7-1.6-1.6-1.6
			c-0.2,0-0.4,0.1-0.7,0.2c-0.7,0.2-0.7,1.1-0.6,1.8c0.2,0.3,0.6,0.7,1,0.8C609.5,90.9,609.6,90.9,609.8,90.9z M616.4,74.7
			c-1,0.6-2.1,0.8-3.1,0.9c-1.1,0-2-0.2-3-0.7L616.4,74.7z M623.6,88.1v2.2c0.1,1-0.3,2.1-0.9,2.9c-0.4-0.6-0.6-1.1-1-1.7
			c-0.2-0.2-0.6-0.4-1-0.4c-0.2,0-0.3,0-0.6,0.2c-0.4,0.2-0.4,0.9-0.3,1.5c0.2,0.6,0.7,0.8,1.1,1.2c0,0.9-1.5,1.1-2.2,1.1
			c-0.4-0.8-0.2-1.9-1.1-2.5c-0.1,0-0.3,0-0.6,0s-0.6,0-0.8,0.3c-0.2,0.2-0.3,0.7-0.2,1c0,0.3,0.2,0.7,0.4,1.1
			c-0.6,0.6-1.5,0.7-2.4,0.8c-0.6-2-0.4-3.6,0.6-4.5c1-1.1,2.6-1.2,3.8-1.7C620.2,89.4,621.9,88.9,623.6,88.1z M619.3,21.7
			c1.1,1.6,1.3,3.5,1.9,5.4c0.6,2.5,1.3,4.9,2,7.4l-0.1,2.7c0,1-0.3,1.9-0.9,2.7c-0.3-0.8-0.6-1.7-0.8-2.5c-1-3.3-1.9-6.5-2.8-9.8
			c-0.6-2.5-1.8-5.7-4-7.2c1.5,0.2,2.9,0.4,4.4,0.8L619.3,21.7z M623.6,26.1l-0.1,1.9c-0.4-1.8-0.9-3.7-1.5-5.6
			C623,23.3,623.6,24.7,623.6,26.1z"/>
		<path class="st0" d="M650,20.5c-0.3,5.4-0.9,7.3-2.4,12.4c-0.4,1.1-0.8,2.2-1.1,3.3c-0.6,1.2-0.9,2.5-0.8,3.8
			c0.2,1.3-0.1,2.8-0.3,4.1c-0.2,1.2,0.2,2.5,0.4,3.6c0.6,2.1,0.7,4.1,1.2,6.2c0.7,2.5,1.7,4.7,2.2,7.2c1,5.7,2.2,8.4,4.7,13.3
			c1.1,2.4,1.9,4.7,2.8,7.1c0.4,1.1,1,2.2,1.8,3.1c1.1,1.1,2.6,1.8,3.8,2.6c0.4,0.2,5,2.5,5.3,2.5v0.6c0,0.7-0.1,1.1-0.2,1.7
			c-2.2-0.4-9.9-3.9-11.3-6.1c-0.8-1.2-1.2-2.8-1.9-4.1c-0.8-1.9-1.3-3.8-2.2-5.6c-0.8-1.8-2.2-3.3-2.8-5.3
			c-0.8-2.8-1.6-5.6-2.2-8.4c-0.7-2.7-1.7-5.4-2.4-8.1c-0.4-1.9-0.8-3.8-1.2-5.6c-0.1-0.7-0.2-1.2-0.4-1.8c-0.3-0.7-0.8-1.3-1.5-1.8
			c-0.7-1.5-1.7-2.5-3-3c-1.7-2.4-8.7-6.4-12.2-6.6v-2.8c0.7,0,1.3,0.1,2,0.3c1.2,0.6,2.6,0.9,3.9,1.3c1.2,0.4,2.2,1.2,3.1,2.1
			c1.1,1,2.4,2,3.9,2.1c1.2-0.2,2.4-0.7,3.5-1.2c1.2-0.9,1.6-2.4,1.9-3.6c0.8-3,2.1-5.8,2.6-8.9c0.1-1.3,0.3-2.7,0.1-3.9L650,20.5z
			 M626.3,25.5c0.1-1.1,0.6-2.1,1.2-3c0.6,0.4,1.1,0.8,1.7,1.1c1.8,0.8,3.7,2,5.7,2c0.3,0,0.6,0,0.9,0c0.3-0.1,0.6-0.1,0.9-0.1
			c0.2,0,0.4,0,0.7,0c0.4,0,0.8,0,1.2-0.1c0.9-0.3,1.1-1.7,0.2-2.1c-0.2,0-0.4-0.1-0.7-0.1c-0.9,0-1.8,0.7-2.8,0.6
			c-2.4,0.1-4.3-1.5-6.2-2.5c0.7-0.4,1.6-0.7,2.5-0.7h1.8c0.8,0.4,1.3,1.1,2.2,1.1c0.6,0,1.1-0.6,1-1.1h2.7c0.7,0.9,1.5,1.7,1.7,2.8
			c0.1,0.7,0.2,1.5,0.9,1.8c0.1,0,0.3,0,0.4,0c0.2,0,0.3,0,0.6-0.1c0.7-0.4,0.6-1.2,0.3-1.7c-0.1-0.3-0.2-0.6-0.3-0.8
			c-0.3-0.4-0.6-0.9-0.8-1.3c-0.1-0.2-0.2-0.4-0.4-0.7h3.4c0.1,0.3,0.2,0.7,0.3,1c0.4,2-0.2,3.9-0.7,5.7c-0.4,2-1.5,3.7-1.8,5.6
			c-0.3,2.1-1.1,3.7-3.5,3.7c-0.3,0-0.6,0-0.9-0.1c-1.5-0.3-2.4-1.7-3.4-2.6c-0.9-0.9-7.5-3.1-8.9-3.3l-0.1-3c1.1,0,2,0.6,3,1
			c1.7,0.7,3.4,1.3,5.2,1.8c0.2,0,0.3,0,0.6,0c1.5,0,2.7-0.8,4-1c0.8-0.2,1.7-0.1,2.5-0.2c0.3,0,0.7-0.3,0.9-0.6
			c0.4-0.6,0-1.7-0.7-1.8c-0.1,0-0.3,0-0.4,0c-0.8,0-1.6,0.7-2.4,0.8c-1.3,0.3-2.7,0.7-4.1,0.7c-1,0.1-2-0.3-3-0.8
			c-1.3-0.4-2.7-1.1-3.9-1.7C627.4,25.6,626.8,25.5,626.3,25.5z M634.9,41.7h-3.3c-2.6,0-4.7-1.8-5.3-4.1c2.5,0.4,4.1,1.1,6.3,2.6
			C633.3,40.7,634.1,41.2,634.9,41.7z M640.8,32.6c-0.1-0.8-0.9-1.3-1.6-1.3c-0.1,0-0.3,0-0.4,0.1c-0.8,0.1-1.3,1-1.1,1.8
			c0.2,0.6,0.9,0.9,1.6,0.9C640.1,34.1,640.7,33.4,640.8,32.6z M643.3,42.7c0.9-0.7,0.6-2.2-0.3-2.7c-0.4-0.1-0.6-0.2-0.8-0.2
			c-0.3,0-0.7,0.1-0.9,0.4c-0.4,0.4-0.4,1.1-0.2,1.7c0.3,0.9,1,1,1.9,1L643.3,42.7z M663.7,95.4c-1.9-0.7-4-1.8-5.8-2.9
			c-0.7-0.3-1-1.1-1.7-1.5c-0.2-0.1-0.4-0.1-0.6-0.1c-0.3,0-0.7,0.1-0.8,0.2c-0.4,0.3-0.3,0.9-0.2,1.3c0.2,0.4,0.7,0.8,1.2,1
			c1.2,0.7,2.6,1.3,3.8,2.1h-6.3c-0.1-1-0.4-1.9-0.6-2.9c-0.1-1.2-0.1-2.5-0.2-3.7c-0.2-0.8-0.6-1.5-0.8-2.1
			c-0.8-1.7-1.6-3.5-2.4-5.2c-0.4-0.9-0.9-1.8-1.1-2.8c-0.2-0.7,0-1.5-0.3-2c-0.1-0.4-0.7-0.8-1.1-0.8c-0.2,0-0.3,0.1-0.6,0.2
			c-0.6,0.3-0.4,1.1-0.3,1.7c0.4,1.3,0.8,2.7,1.5,4c0.9,1.8,1.8,3.7,2.6,5.6c0.6,1.2,0.7,2.6,0.8,3.9s0.3,2.7,0.7,4h-2.7
			c-0.2-1.6-0.4-3.1-0.7-4.8c-0.4-2.8-2.6-7.7-4.5-10.1c-0.4-0.6-0.8-1.2-0.4-1.9c0.3-0.8,0.8-1.5,1.1-2.4c0.4-1,0.9-2.1,0.8-3.3
			c0-1-0.3-2-0.7-3c-0.4-1.7-0.9-3.4-1.3-5c-0.6-1.8-0.9-3.1-1.3-4.5V50.1c0.3,1.8,0.8,3.6,1.2,5.3c0.2,1.1,0.6,2.2,0.9,3.4
			c1.1,3.4,1.9,6.7,2.8,10.1c0.4,1.3,0.7,2.6,1.1,3.8c0.4,1.3,1.6,2.4,2.2,3.5c0.6,1.1,1,2.5,1.5,3.7c0.7,1.7,2.6,6.8,3.8,8.1
			c1.3,1.6,8.4,5.2,11.2,5.7C665.9,94.5,664.8,95.2,663.7,95.4z M643,74.9c-0.3,1-0.8,2-1.1,2.9l-0.1-10.2c0.4,1.7,0.9,3,1.2,4.4
			v-0.1c0.1,0.6,0.2,1.2,0.1,1.8C643.1,74.1,643.1,74.6,643,74.9z M646.6,93.8c0.1,0.7,0.2,1.2,0.3,1.9c-1.1-0.1-2.1-0.4-2.9-1
			c-0.1-0.3-0.1-0.6-0.1-0.9c-0.1-0.7-0.2-1.3-0.2-2.1c-0.1-1-0.3-2.1-0.7-3.1c-0.3-0.8-0.8-1.6-1.2-2.2v-4.9c0.3,0.6,0.7,1.1,1,1.7
			c1,1.7,1.8,3,2.5,4.5C646,89.5,646.3,91.6,646.6,93.8z M656.8,20.5h2.9c-0.3,0.7-0.6,1.3-0.7,2.1c-0.7,2.6-0.6,5.2-1.2,7.7
			c-1.2,4.6-3.1,9.1-2.6,13.8c0.1,1.6,1.6,2.6,2.6,3.6c1.5,1.2,2.1,2.9,3,4.5c1.3,2.2,3.5,3.7,5,5.6c0.8,0.9,1.3,2,1.9,3.1v6.2
			c-1.1-2.9-2.9-7.1-5.2-9.1c-0.9-1-2.2-1.7-3.1-2.8c-1.1-1.5-2-3.6-2.6-5.4c-0.1-0.7-0.6-1.2-1.2-1.2c-0.7,0-1.2,0.8-1,1.3
			c0,0.3,0.1,0.6,0.3,0.8c1.2,1.8,1.7,4.1,3,5.8c0.9,1.1,2.1,1.6,3,2.5c1.1,1,1.9,2.4,2.6,3.6c1.5,3.1,2.9,6.3,4.1,9.4v9.6
			c-0.1-1-0.1-2-0.4-2.9c-0.3-1.7-1.1-3.4-1.7-5.2c-1.2-3.3-2.8-6.4-4.3-9.6c-0.6-0.9-1.1-2-1.5-3.1c-0.1-0.6-0.7-0.9-1.2-0.9
			c-0.1,0-0.3,0-0.4,0.1c-0.7,0.2-0.7,1-0.4,1.6c0.3,0.7,0.9,1.2,1.2,1.9c1.8,4,3.8,7.8,5.3,11.9c0.8,2.1,1.7,4.4,1.7,6.7
			c0.1,0.8-0.4,1.7,0.1,2.5c0.2,0.4,0.6,0.6,0.9,0.6s0.6,0,0.8-0.2v2.5c-1.8-0.4-2.9-1.2-4-1.8c-1.1-0.7-2.5-1.1-3.4-2
			c-1-1-1.5-2.2-1.9-3.5c-1-2.8-2-5.6-3.5-8.2c-1.3-2.5-2.4-5.2-3-8c-0.4-1.9-0.7-3.8-1.3-5.7c-1.1-3.3-1.8-5.6-2.4-9.1
			c-0.2-1.8-0.9-3.5-0.7-5.3s0.1-3.6,0.3-5.4c0.2-1.2,0.7-2.4,1.1-3.6c1.2-3.8,2.6-7.7,2.7-11.8c0.2-0.9,0.2-1.8,0.2-2.7h2.7
			c-0.3,2-0.3,4-0.8,6.1c-0.4,3.7-1.9,7.2-2.8,10.9c-0.7,2.1-0.9,4.5-0.7,6.8c0.2,1.6,0.4,3.1,0.4,4.7c0,2,0.4,3.9,1.1,5.6
			c0.6,1.3,1.3,2.7,1.6,4c0.3,1.1,0.3,2.2,0.4,3.5c0.4,2.6,1.6,4.9,2.7,7.4c0.9,1.8,1.8,3.6,2.6,5.5c0.7,1.6,1.1,3.3,1.9,4.8
			c0.3,0.8,0.3,1.7,0.8,2.5c0.2,0.3,0.6,0.6,1,0.6c0.3,0,0.8-0.2,0.9-0.6c0.6-1-0.6-1.9-0.9-2.8c-0.6-1.6-1.1-3.3-1.8-4.8
			c-1.3-3.5-3.1-6.7-4.6-10.2c-0.4-1-0.8-2.1-0.8-3.3c0-1.5,0-2.9-0.6-4.1c-0.9-1.9-1.9-3.6-2.4-5.6c-0.3-1.8,0.1-3.7-0.1-5.5
			c-0.2-1.1-0.4-2.2-0.4-3.5c0.1-4.3,1.8-8.2,2.8-12.2c0.7-2.6,0.9-5.2,1.2-7.8C656.4,21.8,656.5,21.2,656.8,20.5z M659,33.2
			c0.3-1.2,0.8-2.6,0.9-3.9c0.4-2.1,0.4-4.4,1-6.4c0.2-0.8,0.6-1.6,0.9-2.4h3c-0.6,1.1-1.2,2.4-1.6,3.6c-0.7,2-0.3,4.1-0.8,6.2
			c-0.2,1.2-0.7,2.4-1,3.5c-0.7,2.1-1.2,4.4-1.6,6.6c-0.1,0.4-0.1,1,0,1.6c0.1,1.1,0.7,2.1,1.3,2.9c1,1.3,2,2.8,2.9,4.3
			c1,1.6,2.2,2.9,3.6,4.3v3.9c-0.3-0.4-0.6-0.8-0.9-1.2c-1.3-1.5-2.9-2.7-4-4.4c-1.1-1.5-1.8-3.3-3.1-4.7c-0.7-0.8-1.6-1.5-2.1-2.4
			c-0.7-1.1-0.6-2.6-0.4-3.9C657.4,38.1,658.2,35.7,659,33.2z M669.8,20.5c-0.4,1.6-1.1,3-2,4.4c-0.6,0.8-1.6,1.6-1.2,2.6
			c0.2,0.4,0.7,0.7,1,0.7c0.2,0,0.3-0.1,0.4-0.1c0.7-0.3,0.9-1.1,1.1-1.8c0.6-1,1.3-1.8,1.8-2.9c0.3-0.9,0.6-1.9,0.9-2.8h2
			c-0.2,1.3,0.7,2,0.8,3c0,0.6-0.6,0.9-0.9,1.2c-1.6,1.1-2.4,2.9-3.7,4c-1,0.9-2.1,1.5-2.8,2.6c-0.9,1.2-1.2,2.7-1.7,4.1
			c-0.3,1.8-1,3.7-0.7,5.5c0.2,1.3,1,2.5,1.8,3.6c0.3,0.6,0.8,1.1,1.2,1.7l-0.1,4.1c-0.6-0.6-1.1-1.2-1.6-1.9
			c-1.1-1.8-2.4-3.5-3.6-5.2c-0.8-1.1-0.8-2.6-0.6-3.9c0.4-2.2,0.9-4.5,1.7-6.6c0.3-1,0.8-1.9,0.9-3c0.1-1.2-0.2-2.6,0.1-3.9
			c0.2-1.3,0.9-2.7,1.6-3.9c0.2-0.4,0.4-0.9,0.7-1.5H669.8z M675.4,25.7c0.2-0.3,0.7-0.4,1.1-0.4c0.2,0,0.3,0,0.6,0.1
			c1.8,0.4,3.5,0.8,5.3,1v3.1c-0.9-0.4-1.8-1-2.8-1.1c-0.4-0.1-0.9-0.1-1.3-0.1c-0.6,0-1.2,0.1-1.8,0.3c-1,0.7-1.8,1.6-2.7,2.5
			c-0.8,0.9-1.7,1.7-2.5,2.7c-1.1,1.3-1.6,3.1-1.7,4.9c0,1.3,0.4,2.5,1.1,3.6c-0.8,0.4-1.6,1.1-2,1.8c-0.7-0.8-1.2-1.7-1.6-2.7
			c-0.6-1.6-0.2-3.1,0.1-4.6c0.8-3.1,1.1-4,3.6-6.2C672.5,29.1,673.9,27.4,675.4,25.7z M673,41.7c-1-0.9-1.5-2-1.6-3.3
			c0.1-1.3,0.6-2.8,1.5-3.8c0.8-0.9,1.8-1.7,2.5-2.6c0.7-0.8,1.3-1.6,2.2-1.8c0.3-0.1,0.6-0.1,0.9-0.1c0.9,0,1.8,0.3,2.7,0.7
			c0.4,0.2,0.9,0.6,1,1.1c0,0.7,0,1.2,0.1,1.8v2.7c0,0.8-0.2,1.6-0.6,2.4c-0.7-1-1.1-2.1-1.6-3.3c-0.3-0.7-0.3-1.6-0.7-2.4
			c-0.2-0.4-0.7-0.8-1.1-0.8c-0.2,0-0.4,0-0.6,0.1c-0.6,0.2-0.7,1-0.6,1.6c0.3,0.7,0.8,1.2,1.1,1.9c0.3,0.9,0.6,2,1.1,2.9
			c0.2,0.6,0.7,1,1,1.5c-0.7,0.6-1.5,1-2.4,1.2c-0.7-0.8-1.3-1.6-1.7-2.6c-0.3-0.9,0.1-1.9-0.3-2.8c-0.1-0.3-0.6-0.6-1-0.6
			c-0.3,0-0.6,0.1-0.8,0.3c-0.4,0.4-0.3,1.1-0.2,1.7c0.2,0.7,0.3,1.2,0.6,1.8c0.2,0.9,0.6,1.6,1.1,2.2H673V41.7z M675.9,20.8
			l1.1-0.2c2.4,0,4.4,1.7,5,3.9c-1.5-0.3-2.9-0.8-4.5-0.9c-0.6,0-1.1-0.1-1.3-0.6C675.9,22.3,676.2,21.5,675.9,20.8z"/>
		<path class="st0" d="M708.6,44.3c-0.9,1.6-2.2,2.9-2.5,4.8c0,1.2,0.3,2.5,0.6,3.7c0.2,1.5,0.4,2.8,0.6,4.1c0.2,1.6,0.1,3,0.1,4.6
			c0,2-1.5,3.7-1.2,5.8c0.1,2.4,0.9,4.7,1.2,7.2c0.3,1.3,0.1,2.7,0.2,4c0,1.1,0.1,2.2,0.1,3.4c0,2.4,0,4.8,0,7.2
			c0,2.7-1.5,3.9-4,3.9c-1,0-2-0.2-2.9-0.3c-3.1-0.7-5.9-2.5-8.4-4.6c-1-1-2.2-2.1-3-3.4c-1.1-1.6-1.5-3.6-1.9-5.4
			c-0.1-0.8-0.3-1.5-0.6-2.1V68c0.1,0.3,0.2,0.7,0.3,1.1c1,3.3,1.9,6.5,2.7,9.8c1.2,4.1,2.5,6.4,6.1,8.7c2.5,1.7,5.6,3,8.6,3
			c0.7,0,1.2-0.8,1-1.3c-0.1-0.3-0.4-0.8-0.8-0.8c-0.2-0.1-0.3-0.1-0.6-0.1c-0.4,0-0.9,0.1-1.3,0.1c-0.1,0-0.3,0-0.4,0
			c-4.7-0.9-9.3-4.8-10.4-9.5c-0.7-2.5-1.2-4.9-2-7.4c-1-3.1-2-6.4-2.7-9.6c-0.2-1,0.2-2.1-0.4-2.9v-2.7c0.9,0.3,1.7,0.9,2.1,1.7
			c0.8,1.2,0.8,2.8,1,4.1c0.6,3.8,2.2,7.2,3.1,10.9c0.6,2.2,1,4.6,2,6.8c0.9,2.1,2.7,3.7,4.7,4.9c0.9,0.4,1.8,0.7,2.7,1
			c0.7,0.1,1.3,0.6,2,0.7c0.8,0.1,1.8-0.8,1.2-1.6c-0.3-0.7-1.1-0.8-1.8-0.8c-1.2,0-2.4-0.6-3.4-1.2c-1.8-1-3.3-2.5-4-4.4
			c-0.9-2.2-1.2-4.7-1.9-7c-0.4-1.8-1.1-3.5-1.7-5.2c-0.6-1.9-1-3.8-1.3-5.7c-0.2-1.6-0.4-3.4-1.7-4.6c-0.9-0.8-2-1.5-3.1-1.8v-2.8
			c1.1,0.7,2.5,1,3.6,1.7c1.2,0.6,2.5,1.6,2.9,2.9c0.7,2.4,0.8,4.9,1.5,7.3c0.6,2.6,1.8,4.9,2.5,7.4c0.7,2.4,0.9,4.7,1.9,7
			c0.7,1.5,3.7,3.9,5.3,4.4c0.4,0,0.7,0,1-0.2c0.4-0.3,0.4-0.9,0.3-1.2c-0.2-0.7-1-0.9-1.7-1.1c-1.5-0.2-2.7-1.3-3.3-2.7
			c-0.8-1.8-1-3.9-1.5-5.8c-0.4-2-1.3-3.8-2-5.7c-1-2.5-1.3-5-1.7-7.6c-0.3-1.6-0.7-3.3-1.8-4.5c-2-2-5-2.2-7.1-4.1v-4.3
			c0.3,0.4,0.7,0.8,0.9,1.1c1.3,1.9,3.5,2.7,5.4,3.7c1.2,0.7,2.8,1,3.6,2.1c0.7,0.9,0.8,2,1,2.9c0.2,1.5,0.6,2.9,0.7,4.3
			c0.2,1.8,0.4,3.7,1.2,5.4c0.6,1.5,1.6,2.8,1.9,4.4c0.4,1.8,0.6,3.8,1.2,5.6c0.3,0.9,0.2,1.9,0.8,2.7c0.2,0.4,0.6,0.6,0.9,0.6
			c0.2,0,0.4-0.1,0.6-0.1c0.4-0.3,0.7-0.8,0.6-1.3c-0.2-0.7-0.7-1.3-0.9-2c-0.6-2.1-0.8-4.1-1.2-6.3c-0.3-1.6-1.6-2.7-2.1-4.1
			c-0.6-1.1-0.7-2.4-0.9-3.6c-0.1-2.4-0.8-6.7-1.7-9c-0.3-0.9-1.1-1.5-1.9-1.9c-1.3-0.7-2.9-1.3-4.4-2.1c-1.7-0.9-3.5-2-4.3-3.8
			c-0.2-0.4-0.4-0.9-1-1.1l-0.3-2.6c0.8,0.7,1.7,1.1,2.5,1.8c0.8,0.6,1.5,1.3,2.4,2c1.6,1.5,5.5,3.3,7.6,3.9
			c0.4,0.1,1.1,0.1,1.5,0.4c0.4,0.4,0.4,1.1,0.6,1.7c0.1,1.5,0.7,2.9,0.9,4.4c0.4,2.2,0.6,4.6,0.9,7c0.1,0.8-0.1,1.6,0,2.5
			c0.2,0.4,0.7,0.7,1.1,0.7c0.3,0,0.7-0.1,0.8-0.3c0.4-0.6,0.2-1.2,0.1-1.8c-0.3-0.9-0.1-1.9-0.3-2.9c-0.2-3-0.8-5.9-1.3-9
			c-0.1-0.8-0.6-1.6-0.6-2.4c0.1-0.6,0.7-1,1-1.3c3.1-2.6,5-8.2,6.2-11.9c0.2-0.7,0.2-1.5,0.1-2.2c-0.7-1.8-8.1-6.6-10.7-7.1
			c-1-0.3-2.1-0.3-3.3-0.4c-2.7,0-5.3,0.9-7.6,2c-0.6,0.2-1.2,0.6-1.8,0.9V25c1.9-1.7,6.3-3.3,8.9-3.3c0.3,0,0.6,0,0.9,0.1
			c1.3,0.1,2.8,0.2,4.3,0.4c1.9,0.3,6.7,3.8,8.2,5c0.8,0.6,1.6,1.3,2.4,1.9c0.4,0.3,0.9,0.4,1.5,0.4v3.8c-0.1,0.3-0.2,0.8-0.3,1.1
			C711.7,38,710.4,41.3,708.6,44.3z M686.8,34.1V30c0.6-0.8,1.5-1.1,2.2-1.6c2.5-1.2,4.7-2,7.4-2c4.3,0.4,6.1,1.7,9.3,4.4
			c0.9,0.6,1.8,1,2.2,2c0.2,0.8,0,1.6-0.2,2.2c-0.4,1.2-0.8,2.5-1.2,3.7c-0.8,1.8-1.8,3.5-3.1,5c-0.6,0.6-1,1.5-1.8,1.9
			c-0.1,0.1-0.2,0.1-0.4,0.1c-0.3,0-0.7-0.1-1-0.2c-1.5-0.8-3.1-1.2-4.6-2c-1.5-0.7-6.8-4.7-7.7-6.1C687.3,36.3,687,35.2,686.8,34.1
			z M710.6,94.6c-0.3,0.3-0.8,0.6-1.1,0.9c-0.3,0-0.7,0.1-1,0.1h-13.3c-0.7-0.4-1.5-0.8-2.1-1.3c-1.6-1.1-3.4-2-4.6-3.6
			c-0.4-0.6-1-1.1-1.6-1.6v-4.7c1.6,3.5,6.1,7,9.3,8.7c2,1,4.1,1.5,6.3,1.8c0.4,0,0.9,0,1.3,0c0.8,0,1.6-0.1,2.4-0.3
			c1.6-0.6,2.9-1.9,3.3-3.6c0.2-1.6,0.3-3.1,0.2-4.7c0-1.2,0.1-2.6,0-3.8c-0.2-2,0-3.9-0.2-5.9c-0.1-0.8,0-1.7-0.2-2.6
			c-0.2-1.9-0.7-3.7-1-5.5c-0.2-1,0-2,0.2-3c0.4-1.6,0.9-3.1,0.9-4.8c0.1-3.3-0.3-6.5-0.9-9.6c-0.1-0.8-0.2-1.5,0-2.2
			c0.2-0.8,0.7-1.6,1.1-2.2c1.2-1.8,2.1-3.7,3-5.7c0.1-0.3,0.2-0.7,0.3-0.9V46c-0.7,1.2-1.3,2.4-1.6,3.8c-0.1,0.8-0.1,1.7,0,2.6
			c0.3,2.7,0.8,5.5,0.4,8.3c-0.1,2.5-1,4.8-0.9,7.2c0,1.1,0.2,2.1,0.4,3.3c0.4,2.5,0.7,5.2,0.7,7.7c-0.1,3.6,0.4,7.2,0,10.8
			C711.9,91.3,711.9,93.4,710.6,94.6z M691.2,95.7c-2.1,0-3.9-1.6-4.3-3.6c0.9,1.5,2.2,2,3.4,2.8c0.3,0.2,0.8,0.4,1.2,0.8
			C691.5,95.7,691.2,95.7,691.2,95.7z M692.1,20.5c-0.9,0.2-1.8,0.4-2.6,0.8c-0.6,0.1-1,0.3-1.5,0.6c0.8-0.8,1.9-1.3,3.1-1.3h1V20.5
			z M689.7,35.3c1.1,2.6,6.8,6.2,9.5,7c0.2,0.1,0.4,0.1,0.7,0.1c1,0,1.9-0.7,2.5-1.5c1.5-1.8,2.6-4,2.6-6.4c0-3.1-7.1-5.6-9.6-5.6
			c-1.6,0-3.3,0.6-4.6,1.3c-0.6,0.4-1.1,0.9-1.3,1.6C689,33,689.4,34.2,689.7,35.3z M692.1,31.7c1-0.7,2.1-0.9,3.3-1
			c1.7,0,6.8,1.9,7.5,3.8c0.3,1.2-0.1,2.5-0.7,3.5c-0.4,0.8-1,1.7-1.8,2.1c-0.2,0.1-0.6,0.1-0.8,0.1c-0.4,0-0.9-0.1-1.2-0.3
			c-2.1-1.2-6.3-3.5-7.1-5.8C691,33.2,691.4,32.2,692.1,31.7z M695.1,32.9c-0.8,0-1.5,0.8-1.1,1.6c0.4,0.9,1.6,0.9,2.4,1.1
			c1,0.3,1.7,1.2,2.5,1.8c0.2,0,0.4,0.1,0.7,0.1c0.4,0,0.8-0.1,1-0.4c0.2-0.3,0.2-0.8,0.1-1.1c-0.4-1-1.6-1-2.5-1.5
			c-1-0.3-1.7-1.1-2.7-1.5C695.3,32.9,695.2,32.9,695.1,32.9z M702.1,20.5h5.2c1.3,0.9,2.7,1.8,4,2.8c0.4,0.2,1,0.6,1.5,0.8
			c0.1,0.2,0.1,0.6,0.1,0.9v2.5c-0.6,0-1-0.3-1.3-0.7C710.3,25.7,703.8,21.1,702.1,20.5z M712.8,68.3c0-0.4,0-0.9,0-1.3V68.3z"/>
		<path class="st0" d="M726.6,20.8c-1.9,1.1-3.7,2.7-5.7,3.7c-1.3,0.7-2.8,1.1-4,2c-0.1-1.2,0.1-2.4,0.7-3.4c1.5-0.3,2.7-1,3.8-1.9
			c0.3-0.2,0.7-0.4,0.9-0.7h4.7L726.6,20.8z M730.7,20.5h4.3c-2.9,2.4-6.3,4.3-9.4,6.4c-2.5,1.6-5.2,2.7-7.5,4.4l-0.8-2.7
			c0.3-0.1,0.6-0.3,0.8-0.6c1.6-1,3.4-1.6,4.9-2.6c1.7-1,3.3-2.2,4.9-3.1C728.8,21.8,729.8,21.1,730.7,20.5z M738.5,20.5
			c1,0,2,0.3,2.9,0.9c-0.7,0.4-1.3,0.9-1.9,1.3c-2.6,1.7-4.8,3.8-7.5,5.4c-1.7,1-3.3,2-4.8,3c-1.8,1.2-3.8,2-5.6,3.1
			c-1,0.4-1.9,1.1-2.8,1.7l-0.6-2.7c0.8-0.6,1.8-1,2.7-1.6c1.6-0.9,3.1-1.7,4.6-2.6c1.9-1.1,3.7-2.4,5.6-3.5
			c2.5-1.6,4.7-3.5,7.2-5.2h0.2V20.5z M741,24.1c0.7-0.4,1.2-0.8,1.9-1.1c0.4,0.7,0.8,1.3,0.9,2.2v0.3c-2.5,1-4.1,2.2-5.5,3.7
			c-1,0.9-2,1.8-3.3,2.4c-1.8,0.9-3.5,2-5,3.3c-1.5,1.1-3.1,1.7-4.7,2.5c-1.5,0.7-2.8,1.6-4.3,2.4c-0.4,0.2-0.9,0.4-1.3,0.7
			l-0.6-2.5c1-0.6,1.9-1.1,2.8-1.7c1.7-0.9,3.5-1.7,5.2-2.7c1.6-0.9,6.7-4,8.1-5.2C737.2,26.9,738.8,25.4,741,24.1z M741.5,28.9
			c0.8-0.6,1.6-1,2.5-1.2l0.4,3c-0.7,0.1-1.3,0.2-1.9,0.2c-0.7,0-1.6,0.4-1.5,1.2c-0.1,0.6,0.4,1.1,1.1,1c0.6,0.1,1.1-0.3,1.7-0.4
			l1.1,2.7c-1.5-0.1-2.5-0.1-3.6-0.3c-0.6-0.1-1.1-0.2-1.8-0.2s-1.3,0.1-1.9,0.4c-2.2,0.9-6.4,3.1-6.7,5.9
			c-0.3,3.5-0.4,7.1-0.3,10.5c0.1,2,0,3.9,0.1,5.8c0.1,1.1,0.1,2.2,0.2,3.4c0.2,2.2,0.9,4.4,0.8,6.5c-0.1,2.2-0.7,4.5-0.9,6.7
			c-0.1,2-0.1,4.1,0.2,6.2c0.1,1.3,0.4,2.7,0.2,4.1c-0.2,1-0.7,1.9-1.1,2.9c-0.3,0.4-0.4,0.9-0.8,1.3l-1-4.9
			c0.1-0.6,0.2-1.1,0.2-1.8c-0.2-1.7-0.4-3.5-0.6-5.2c0-3.3,1.2-6.4,1-9.5c0.1-2.6-0.7-4.9-0.7-7.4c-0.2-2.6-0.1-5.2-0.2-7.7
			c-0.2-2.8,0-5.6,0-8.3c0-0.9,0.7-1.7,0.6-2.7c0-0.6-0.6-1-1.1-1c-0.2,0-0.4,0-0.6,0.2c-0.7,0.4-0.7,1.3-0.7,2
			c0,0.9-0.1,1.8-0.1,2.7c0,5.3,0,10.7,0.2,16c0.1,1.1,0.3,2.4,0.6,3.5c0.2,1.6,0.2,3,0.1,4.6c-0.1,1.6-0.4,3-0.8,4.6l-2.5-12.2
			c0-0.3,0-0.7-0.1-1c0-3.1,0.2-6.2-0.1-9.3c-0.1-1.5,0.2-2.9,0.1-4.4c-0.1-0.9,0.1-1.8,0.3-2.6s-0.4-1.7-1.2-1.7
			c-0.1,0-0.1,0-0.2,0c-0.8,0.2-1,1-0.9,1.7c0.3,2,0.1,4.1,0,6.2l-1.8-8.3c1.7-0.9,3.4-1.7,4.9-2.7c1.1-0.7,2.5-1.1,3.7-1.6
			c1.6-0.6,2.7-1.9,4-2.8c1.3-0.9,2.8-1.7,4.1-2.4C738.7,32,739.7,30,741.5,28.9z M731.7,88.7c0.7-1.2,1.5-2.5,1.7-3.9
			c0-0.9,0-1.7,0-2.6c-0.4-2.8-0.9-5.6-0.6-8.3c0.2-2.5,1-4.8,0.9-7.3c0.1-1-0.1-2.1-0.3-3.1c-0.4-2.6-0.8-5.2-0.7-7.7
			c0-3.6-0.4-7.2-0.1-10.8c0.3-4.8,0.8-5.2,4.9-7.4c0.9-0.6,1.8-0.7,2.7-0.7c0.6,0,1,0,1.5,0.1c1.2,0.2,2.4,0.3,3.6,0.4l0.3,2.8
			c-1.1-0.3-2.2-0.6-3.5-0.7c-0.3,0-0.8-0.1-1.2-0.1c-0.8,0-1.6,0.1-2.4,0.4c-1.6,0.6-3,1.9-3.3,3.6c-0.2,1.6-0.3,3.1-0.3,4.7
			c0.1,1.2,0,2.6,0.1,3.8c0.2,2,0,3.9,0.1,5.8c0.1,0.9,0.1,1.8,0.2,2.7c0.3,1.8,0.8,3.7,1.1,5.5c0.1,1,0,2-0.2,2.9
			c-0.4,1.7-0.9,3.3-1,4.9c-0.1,3.3,0.4,6.4,1,9.6c0.1,0.7,0.2,1.5,0,2.2c-0.2,0.8-0.7,1.5-1.1,2.1c-1.2,1.9-2.2,3.8-3,5.8
			c-1.1,0-1.7-0.8-2-1.8C730.7,90.8,731.1,89.8,731.7,88.7z M741,41.5c0.9,0,2,0.1,2.9,0.3c0.7,0.1,1.2,0.3,1.9,0.6l0.3,3
			c-1-0.6-2.1-0.9-3.3-1.1c-0.9,0-1.7-0.4-2.5-0.4c-0.1,0-0.2,0.1-0.3,0.1c-0.7,0-1.2,0.7-1,1.3c0.1,0.3,0.3,0.7,0.8,0.8
			c0.1,0.1,0.3,0.1,0.6,0.1c0.4,0,0.9-0.1,1.3-0.1c0.1,0,0.2,0,0.3,0c1.6,0.3,3,0.9,4.4,1.7l0.3,3.6c-0.6-0.6-1.3-1.1-2-1.6
			c-0.9-0.4-1.8-0.7-2.7-1c-0.8-0.2-1.3-0.7-2.1-0.8s-1.7,0.8-1.2,1.6c0.3,0.7,1.1,0.9,1.8,0.9c1.2,0,2.4,0.6,3.5,1.1
			c1.3,0.8,2.5,1.8,3.3,3.1l1.6,13.5c-0.6-1.5-1.1-2.9-1.5-4.4c-0.7-2.4-0.9-4.8-1.9-7c-0.6-1.3-1.6-2.4-2.9-2.9
			c-0.8-0.4-1.5-1.2-2.4-1.5c-0.1-0.1-0.2-0.1-0.2-0.1c-0.3,0-0.6,0.2-0.8,0.3c-0.4,0.2-0.4,0.8-0.3,1.2c0.2,0.7,1,0.9,1.6,1
			c1.5,0.3,2.7,1.3,3.4,2.7c0.8,1.9,1,3.9,1.5,5.9c0.4,2,1.3,3.8,2,5.7c1,2.5,1.2,5,1.7,7.6c0.3,1.6,0.6,3.3,1.7,4.5
			c2.1,2,5.2,2.2,7.3,4.3c1,1.1,1.9,2.5,2.5,3.9c0.6,1.6,0.2,3.3,0.4,4.8c0,0.4,0.1,0.8,0.2,1.2h-2.9c-1-1.2-2-1.7-2.8-2.4
			c-0.9-0.7-1.6-1.5-2.4-2c-1.5-1.2-5.7-3.6-7.6-3.9c-0.6-0.1-1.1-0.1-1.6-0.6c-0.3-0.3-1.2-5.4-1.3-5.9c-0.4-2.4-0.6-4.7-1-7
			c-0.1-0.8,0.2-1.7,0-2.5c-0.1-0.4-0.6-0.8-1-0.8c-0.3,0-0.7,0.1-0.9,0.4c-0.3,0.6-0.2,1.2,0,1.7c0.3,1,0.1,2,0.2,3
			c0.2,3,0.9,5.9,1.5,9c0.1,0.8,0.6,1.5,0.4,2.4c0,0.6-0.6,0.9-1,1.3c-1.7,1.3-3.8,5-4.5,7.2h-0.9c-0.7,0-1.2-0.1-1.8-0.3
			c0.8-1.7,1.6-3.5,2.5-5s2.4-2.9,2.5-4.8c0-1.2-0.2-2.6-0.4-3.8c-0.3-1.3-0.4-2.7-0.6-4c-0.2-1.6-0.1-3.1-0.1-4.6
			c0-2,1.3-3.8,1.2-5.8c-0.1-2.5-0.9-4.8-1.3-7.2c-0.2-1.3-0.1-2.7-0.1-4c0-1.1-0.2-2.2-0.2-3.4c0-2.5,0-4.8,0-7.3
			c0.1-1.2,0.4-2.6,1.7-3.3C739.2,41.6,740.1,41.5,741,41.5z M755.4,95.7h-4c-2.2-1.6-4-2.9-6.1-3.4c-0.2-0.1-0.4-0.1-0.7-0.1
			c-1.8,0-3.1,2-3.8,3.5h-2.7c0.6-1.6,3.3-5.7,4.7-6.7c0.2-0.1,0.3-0.1,0.6-0.1s0.7,0.1,1,0.2c1.5,0.7,3.1,1.1,4.6,1.9
			C751.2,92.1,753.5,94,755.4,95.7z M739.1,58.4c0.2,0.8,0.7,1.5,0.9,2.1c0.6,2,0.8,4.1,1.2,6.2c0.3,1.7,1.6,2.8,2.1,4.3
			c0.6,1.1,0.7,2.4,0.8,3.6c0.2,1.8,0.6,3.7,0.8,5.5c0.3,1.1,0.4,2.4,1,3.5c0.3,0.8,1,1.5,1.8,1.8c1.5,0.8,3,1.3,4.5,2.1
			c1.7,0.9,3.4,2,4.1,3.9c0.2,0.4,0.6,0.9,1.1,1c0,0.1,0.1,0.1,0.2,0.1c0.4,0,0.8-0.3,1-0.6c0.1-0.4,0.1-1-0.2-1.5
			c-0.6-0.7-1.2-1.1-1.7-1.9c-1.2-1.8-3.5-2.6-5.4-3.6c-1.2-0.7-2.7-1-3.6-2.2c-0.6-0.8-0.7-1.9-0.9-2.9c-0.2-1.3-0.6-2.8-0.7-4.3
			c-0.2-1.8-0.4-3.6-1.2-5.3c-0.6-1.5-1.6-2.8-2-4.4c-0.4-1.9-0.6-3.8-1.1-5.6c-0.4-0.9-0.3-1.9-0.8-2.8c-0.2-0.3-0.6-0.4-1-0.4
			c-0.1,0-0.3,0-0.4,0.1C739.2,57.4,738.8,58,739.1,58.4z M745,94.3c0.4,0,0.9,0.1,1.2,0.3c0.6,0.2,1.2,0.7,1.8,1h-5.2
			c0.3-0.6,0.8-1,1.3-1.2C744.5,94.3,744.8,94.3,745,94.3z M765.9,95.5c-0.3,0.1-0.7,0.1-1,0.1h-1.8c-0.1-0.7-0.2-1.2-0.3-1.9
			c0-0.7-0.1-1.3-0.1-2.1c-0.3-2.7-1.6-5.2-3.3-7.3c-1.3-1.6-3.5-2-5.2-2.9c-1.2-0.6-2.5-1.6-2.9-2.9c-0.7-2.5-0.8-4.9-1.5-7.4
			c-0.1-0.6-0.3-1.1-0.6-1.7h1.8l0.2-2.1c0.9,1.8,1.3,4.7,1.6,6.6c0.3,1.6,0.6,3.4,1.8,4.6c1.1,1,2.5,1.8,4,1.9
			c0.6,0,1.2-0.1,1.7,0.4c0.6,0.6,0.9,1.5,1.3,2.1c2.2,3.7,3.5,6.3,3.7,10.8C765.5,94.3,765.8,95,765.9,95.5z M761.8,74.9
			c-0.2,1-0.7,2-1.1,2.9c-0.1,0.6-0.6,0.8-1.1,0.8c0,0-0.1,0-0.2,0c-1.3-0.1-2.9-0.8-3.7-2s-0.8-2.8-1.1-4.3
			c-0.4-3.4-1.8-6.5-2.8-9.9l0.8-7.2c0.8,2.8,1.3,5.3,2.1,7.7c1,3.1,2,6.3,2.7,9.6c0.1,1-0.3,2.2,0.6,3.1c0.1,0.1,0.3,0.2,0.6,0.2
			c0.7,0,1.2-0.6,1.2-1.2c-0.3-2.6-1.6-7-2.2-9.3c-1-3.3-1.9-6.5-2.8-9.8c-0.3-1.6-0.9-3.1-1.7-4.5l0.4-3.7c0.7,0.7,1.3,1.3,1.9,2.2
			c1.1,1.6,1.3,3.5,1.9,5.4c1,4.3,2.5,8.5,3.5,12.8c0.3,1.3,0.9,2.7,1.1,4v-0.1c0.2,0.6,0.2,1.2,0.2,1.8
			C762.1,74.1,761.9,74.6,761.8,74.9z M770.5,79.7c0.3,1.1,0.8,2.1,1.2,3.1l-0.9,4.3c-0.9-1.9-1.6-3.7-2.4-5.4
			c-0.4-0.9-0.9-1.8-1.2-2.8c-0.1-0.7,0.1-1.5-0.2-2c-0.2-0.4-0.7-0.8-1.1-0.8c-0.2,0-0.4,0.1-0.6,0.2c-0.6,0.3-0.4,1.1-0.3,1.7
			c0.4,1.3,0.8,2.7,1.5,4c0.9,1.8,1.8,3.7,2.6,5.6c0.6,1.2,0.7,2.6,0.8,3.9c-0.3,1.6-1.1,2.6-2.1,3.1c-0.2-1.2-0.4-2.6-0.6-3.9
			c-0.3-2.2-1.2-4.4-2.4-6.3c-0.7-1.3-1.2-2.7-2.1-3.8c-0.4-0.6-0.8-1.2-0.6-1.9c0.4-0.8,0.9-1.5,1.2-2.4c0.4-1,0.9-2.1,0.8-3.3
			c0-1.2-1.7-6.8-2.1-8.1c-0.8-2.8-1.5-5.3-2.1-7.6c-0.7-2.4-1.1-4.6-1.8-6.8c-0.6-1.8-1.9-3.1-3.1-4.5c-0.3-0.4-0.8-0.8-1.2-1.1
			l0.3-3.3c0.8,0.6,1.6,1.1,2.2,1.9c0.9,1.1,1.9,2,2.9,2.9c0.9,0.9,1.3,2.1,1.5,3.3c0.4,1.9,0.8,3.7,1.2,5.5c0.3,1.1,0.7,2.2,1,3.4
			c1.1,3.4,1.8,6.7,2.8,10.1c0.3,1.2,0.7,2.6,1.1,3.8c0.4,1.3,1.5,2.2,2.1,3.5C769.6,77.3,769.9,78.6,770.5,79.7z M768.9,20.5
			c0,4.9-1.5,11.1-3.5,15.7c-0.4,1.2-0.9,2.5-0.7,3.8s-0.1,2.8-0.3,4.1c-0.2,1.2,0.2,2.5,0.4,3.6c0.6,2,0.7,4.1,1.2,6.2
			c0.6,2.5,1.7,4.7,2.1,7.2c0.7,3.1,1.5,6.3,2.7,9.2c0.6,1.5,1.5,2.8,2.1,4.1l-0.7,4.9c-0.4-1-0.8-2.1-1.3-3.3
			c-0.8-1.8-2.2-3.4-2.8-5.3c-0.8-2.8-1.6-5.6-2.4-8.4c-0.6-2.8-1.6-5.4-2.2-8.1c-0.6-1.9-0.8-3.8-1.2-5.7c-0.1-0.6-0.2-1.1-0.6-1.7
			c-0.2-0.7-0.8-1.3-1.3-1.8c-1.2-0.8-2.2-1.8-3-3c-0.8-1.1-2-1.7-3.1-2.5l0.2-2.9c1,0.9,2.2,1.8,3.6,1.9c1.2-0.2,2.5-0.7,3.6-1.2
			c1.2-0.9,1.6-2.4,1.9-3.6c0.8-3,2.1-5.8,2.6-8.9c0.1-1.3,0.3-2.7,0.1-3.9L768.9,20.5z M760.7,20.5h3.4c0.1,0.3,0.2,0.7,0.3,1
			c0.4,2-0.2,3.9-0.7,5.7c-0.4,1.9-1.5,3.7-1.8,5.6c-0.3,1.2-0.7,2.6-1.8,3.3c-0.4,0.3-1,0.4-1.7,0.4c-0.3,0-0.7,0-0.9-0.1
			c-1.1-0.3-2-1.1-2.8-2l0.4-4.3c1-0.2,1.9-0.6,2.8-0.8c0.8-0.2,1.7-0.1,2.5-0.2c0.3,0,0.6-0.3,0.8-0.6c0.6-0.6,0.1-1.7-0.7-1.8
			c-0.1,0-0.2,0-0.3,0c-0.8,0-1.6,0.7-2.4,0.8c-0.8,0.2-1.7,0.4-2.5,0.6l0.3-2.7c0.1,0,0.3,0,0.4,0c0.4,0,0.9,0,1.3-0.1
			c0.8-0.3,1-1.7,0.1-2.1c-0.4,0-0.8,0-1.2,0c0.6-0.9,1.3-1.7,2.4-2.1c0.6,0.7,1,1.3,1.1,2.2c0.2,0.7,0.3,1.5,0.9,1.7
			c0.2,0.1,0.3,0.1,0.6,0.1c0.1,0,0.3,0,0.4-0.1c0.7-0.4,0.7-1.2,0.4-1.7c-0.1-0.3-0.2-0.6-0.4-0.8c-0.2-0.4-0.4-0.9-0.7-1.3
			C761,21,760.9,20.8,760.7,20.5z M759.7,32.6c0-0.8-0.8-1.3-1.5-1.3c-0.2,0-0.3,0-0.4,0.1c-0.8,0.1-1.5,1-1.1,1.8
			c0.2,0.6,0.9,0.9,1.5,0.9C758.9,34.1,759.7,33.4,759.7,32.6z M762.3,42.7c0.9-0.8,0.6-2.2-0.4-2.7c-0.3-0.2-0.4-0.2-0.7-0.2
			s-0.7,0.1-0.9,0.3c-0.4,0.6-0.4,1.2-0.3,1.8c0.3,0.9,1.1,1,1.9,1L762.3,42.7z M770.7,23.2c0.1-0.9,0.2-1.8,0.2-2.7h2.7
			c-0.3,2-0.4,4-0.8,6.1c-0.4,3.7-1.9,7.2-2.9,10.8c-0.6,2.2-0.8,4.6-0.6,7c0.2,1.6,0.4,3.1,0.4,4.7c0,1.9,0.3,3.9,1.1,5.6
			c0.4,1.3,1.2,2.6,1.6,4c0.3,1.1,0.3,2.2,0.4,3.5c0.2,1.8,1,3.6,1.8,5.4l-0.9,4.4c-1.3-2.5-2.4-5.2-3-7.8c-0.4-1.9-0.7-3.9-1.2-5.7
			c-0.6-1.6-1.2-3-1.6-4.6c-0.4-1.5-0.7-3-0.8-4.5c-0.2-1.8-1-3.5-0.8-5.3c0.3-1.8,0.2-3.7,0.4-5.5c0.2-1.1,0.7-2.2,1-3.5
			C769.1,31.2,770.5,27.3,770.7,23.2z M777.4,20.5c0.4,0,0.8,0,1.1,0.1c-0.2,0.7-0.4,1.3-0.7,2c-0.6,2.6-0.4,5.2-1.2,7.7
			c-1.1,4.5-3.1,9.1-2.6,13.8c0.2,1.6,1.6,2.6,2.7,3.5c0.6,0.6,1,1.2,1.5,1.9l-0.8,4c-0.2-0.6-0.6-1.1-0.8-1.7
			c-0.4-0.7-0.6-1.3-0.8-2c-0.1-0.7-0.7-1.2-1.2-1.2c-0.7,0-1.2,0.8-1.1,1.3c0.1,0.3,0.2,0.6,0.3,0.8c1.3,1.7,1.7,3.9,3,5.7
			l-1.5,7.6c-0.3-1-0.7-1.9-0.7-2.9c0-1.5,0-2.9-0.7-4.1c-0.8-1.9-1.8-3.7-2.2-5.6c-0.3-1.8,0.1-3.7-0.1-5.5
			c-0.2-1.1-0.4-2.2-0.4-3.5c0-4.3,1.8-8.2,2.8-12.2c0.7-2.6,0.9-5.2,1.2-7.8c0-0.7,0.2-1.2,0.4-1.9
			C775.6,20.5,777.4,20.5,777.4,20.5z M779.3,43.6l-0.7,3.5c-0.7-0.9-1.6-1.6-2.1-2.5c-0.7-1.1-0.7-2.6-0.4-3.9
			c0.3-2.6,1.1-5,1.8-7.5c0.4-1.3,0.8-2.6,1-3.9c0.4-2.1,0.3-4.4,1-6.4c0.1-0.6,0.3-1,0.4-1.5c0.9,0.6,1.6,1.3,1.9,2.4
			c-0.7,2.4-0.3,4.5-0.8,6.5c-0.2,1.1-0.7,2.4-1,3.5c-0.7,2.1-1.2,4.4-1.6,6.5c-0.1,0.6-0.1,1.1,0,1.7
			C778.9,42.5,779.1,43.1,779.3,43.6z"/>
		<path class="st0" d="M786.6,36.2V23.7c0-0.9,0.4-1.8,1.1-2.4c0.2,1.7-0.1,3.1-0.3,4.5c-0.2,1.2,0.2,2.5,0.4,3.7
			c0.6,2,0.7,4.1,1.2,6.2c0.6,2.4,1.7,4.6,2.1,7.1c0.7,3.1,1.5,6.3,2.7,9.2c0.6,1.5,1.5,2.8,2.1,4.3c1.1,2.2,1.9,4.6,2.8,7
			c0.4,1.1,1,2.4,1.8,3.1c1.1,1.1,2.5,1.8,3.8,2.6c0.6,0.3,5,2.6,5.4,2.6c0.8,0,1.3-0.9,1-1.6s-1.1-0.8-1.7-0.9
			c-1.1-0.2-6.1-2.9-7-3.7c-0.9-0.9-1.3-2.2-1.8-3.5c-1-2.8-2-5.5-3.5-8.2c-1.3-2.5-2.5-5.2-3.1-8c-0.4-1.9-0.7-3.8-1.2-5.7
			c-0.6-1.6-1.2-3-1.6-4.6c-0.4-1.5-0.7-2.9-0.8-4.5c-0.2-1.8-1-3.5-0.8-5.3c0.2-1.7,0.2-3.4,0.4-5h2.7c-0.2,1.8-0.4,3.6-0.2,5.4
			c0.2,1.6,0.4,3.1,0.4,4.8c0,1.9,0.3,3.8,1.1,5.6c0.4,1.3,1.2,2.6,1.6,3.9c0.3,1.1,0.3,2.4,0.4,3.5c0.3,2.6,1.6,5,2.7,7.4
			c0.9,1.8,1.8,3.6,2.6,5.5c0.7,1.6,1.1,3.3,1.8,4.8c0.4,0.8,0.4,1.7,0.9,2.5c0.2,0.4,0.6,0.6,1,0.6c0.3,0,0.8-0.2,0.9-0.6
			c0.4-1-0.6-1.8-0.9-2.7c-0.6-1.7-1.1-3.4-1.8-4.9c-1.3-3.5-3.3-6.7-4.6-10.2c-0.4-1-0.8-2.1-0.8-3.3c0-1.3,0-2.9-0.7-4.1
			c-0.8-1.8-1.8-3.6-2.2-5.6c-0.3-1.8,0.1-3.7-0.1-5.5c-0.2-1.1-0.4-2.2-0.4-3.4c0-1.3,0.1-2.5,0.4-3.7h2.7
			c-0.3,1.8-0.4,3.5-0.3,5.4c0.2,1.6,1.6,2.5,2.7,3.5c1.3,1.2,2.1,3,3,4.5c1.2,2.2,3.4,3.7,4.9,5.6c3.1,3.4,8.3,17.3,8.9,22.5
			c0,1.7,0.1,3.4,0.2,5.2c0,0.3,0,0.7,0.1,1h-1c-0.6,0-1.1,0.1-1.6,0.3c-0.2-1.8-0.2-3.8-0.2-5.6c-0.2-2.8-1-5.5-2-8.1
			c-1-3.4-4.9-12.9-7.5-15.1c-1-1-2.2-1.7-3.1-2.8c-0.8-1-1.2-2.2-1.8-3.4c-0.4-0.6-0.6-1.3-0.8-2c-0.1-0.6-0.7-1.2-1.2-1.2
			c-0.7,0-1.2,0.8-1.1,1.5c0.1,0.2,0.2,0.4,0.3,0.7c1.3,1.8,1.7,4.1,3.1,5.9c0.8,1,2.1,1.5,3,2.4c3.3,2.9,9,17.2,9.2,22.5
			c0.2,1.5,0.1,2.8,0.1,4.3c0,0.8,0.4,1.6,0.3,2.5c0.1,0.2,0,0.6,0,0.9v0.8c0,1.2,0.7,2.2,1.7,2.8c-5.3-0.3-8.5-2-13-4.6
			c-1.1-0.6-2.4-1.1-3.1-2.4c-0.8-1.2-1.3-2.8-1.9-4.1c-0.8-1.8-1.3-3.8-2.2-5.6c-0.8-1.8-2.2-3.3-2.8-5.3c-0.8-2.8-1.6-5.6-2.4-8.4
			C788.3,41.4,787.3,38.8,786.6,36.2z M787.7,66.2c-0.3-0.8-0.7-1.5-1.1-2.1v-6.8c0.2-0.8,0.4-1.6,0.4-2.4s-0.2-1.5-0.4-2.1v-9.5
			c0.7,2.5,1.3,4.9,2,7.3c0.3,1.3,0.7,2.6,1.1,3.9c0.4,1.2,1.5,2.2,2.1,3.4c0.7,1.1,1,2.5,1.6,3.7c0.6,1.5,2.7,7.1,3.8,8.1
			c0.8,0.9,1.9,1.2,2.9,1.9c1.7,0.9,3.4,2,5.2,2.8c3,1.3,8.3,2.2,11.5,2.4c1.3,0,2.7-0.1,3.9-0.4c0.9-0.3,1.8-0.8,2.7-1.2h4.4
			c-1.2,0.9-2.4,1.7-3.7,2.5c-2,1.3-4.6,1.8-7,1.8c-0.4,0-0.8-0.1-1.2-0.1c-6.2-0.4-11-1.7-16.1-4.9c-0.7-0.3-1-1-1.7-1.5
			c-0.2-0.1-0.4-0.1-0.7-0.1c-0.2,0-0.6,0.1-0.8,0.3c-0.3,0.2-0.2,0.8-0.2,1.2c0.3,0.4,0.8,0.8,1.3,1c1.7,0.9,3.3,1.9,4.9,2.8
			c1.6,1,3.5,1.3,5.3,1.8c2.6,0.4,5.2,1,7.7,1.2c0.4,0.1,1,0.1,1.5,0.1c1.1,0,2.2-0.1,3.4-0.2c2.9-0.4,4.9-2,7.3-3.6
			c1.1-0.8,2.1-1.6,3.3-2.4h4c-2.5,2.5-5.6,3.8-8.1,5.9c-2.8,2.5-5.8,2.7-9.4,2.7c-0.9,0-1.8,0-2.7-0.1c-3.4-0.3-6.6-1.1-9.9-1.8
			c-1.6-0.4-3.4-0.7-4.6-1.8c-0.4-0.4-0.7-1.1-1.1-1.6c-0.2-0.2-0.6-0.3-0.9-0.3c-0.1,0-0.3,0.1-0.6,0.1c-0.6,0.3-0.6,1-0.3,1.6
			c0.2,0.6,0.8,0.9,1.2,1.2c1.6,1.6,2.5,1.9,4.6,2.4c4.1,0.9,8.2,1.8,12.4,2.2c0.8,0,1.6,0,2.4,0c0.7,0,1.3,0,2,0
			c1.5-0.2,3-0.4,4.5-0.9c0.8-0.2,1.7-0.4,2.4-1.1c1-0.9,2-1.9,3.1-2.6c1-0.7,2-1.2,3-2c1.5-1,3-2,4-3.5l2.4-0.4
			c0.3,0,0.7,0,0.9,0.1c-0.4,1.2-0.9,2.2-1.6,3c-0.9,0.8-2,1.2-2.9,1.9c-1.5,0.9-2.5,2.1-4,2.8c-0.8,0.4-1.9,0.2-2.5,1.1
			c-0.4,0.7,0.2,1.7,1.1,1.6c0.9-0.2,1.6-0.8,2.5-1c1.3-0.6,2.2-1.8,3.4-2.7c1-0.7,2.1-1.1,3.1-1.7c1.1-0.7,1.7-1.7,2.1-2.8
			c0.1-0.4,0.3-0.8,0.4-1.1c0.4,0.6,0.7,1.2,0.7,1.9v3.7c-0.2,0.2-0.3,0.3-0.7,0.4c-0.9,0.4-1.9,0.7-2.8,0.9
			c-0.8,0.2-1.6,0.1-2.2,0.6c-0.7,0.4-0.6,1.7,0.2,1.9c0.1,0,0.2,0.1,0.4,0.1c0.4,0,0.8-0.2,1.2-0.4c1.2-0.6,2.6-0.7,3.8-1V87
			c-0.9,0.3-1.8,0.6-2.8,0.8c-0.3,0-0.8,0-1.2,0c-0.3,0-0.8,0-1.2,0c-1.1-0.2-2.1-0.6-3.3-0.6c-0.1,0-0.3,0-0.4,0
			c-0.9,0.1-1.8,0.3-2.8,0.3c-1.3-0.1-2.8-0.6-4.1-0.6c-0.3,0-0.7,0-1,0.1c-2.2,0.4-4.5,1.2-6.7,1.2c-0.1,0-0.2,0-0.4-0.1
			c-0.2,0.1-0.4,0.1-0.7,0.1c-2,0-4-0.3-6.1-0.7c-3.9-0.7-7.8-1.6-11.8-2.4c-1.1-0.2-2.6-0.4-3.3-1.7c-0.9-1.5-2-7.1-2.2-9.1
			c-0.1-1.2-0.1-2.5-0.3-3.7c-0.2-1.5-2.4-5.8-3-7.2c-0.4-1-0.9-1.9-1.2-2.9c-0.1-0.7,0.1-1.3-0.2-2c-0.2-0.4-0.7-0.8-1.1-0.8
			c-0.2,0-0.4,0.1-0.6,0.2c-0.7,0.3-0.4,1.1-0.3,1.7c0.4,1.3,0.8,2.8,1.5,4c0.9,1.8,1.8,3.7,2.6,5.6c0.6,1.3,0.7,2.7,0.8,4
			c0.2,2.9,1.5,9.3,2.8,11.7c0.4,0.9,1.5,1.3,2.4,1.6c1.2,0.3,2.6,0.6,3.8,0.8c3.1,0.7,6.4,1.3,9.5,1.9c1.9,0.4,3.7,0.6,5.6,0.8
			c0.3,0,0.7,0,0.9,0c0.4,0,0.9,0,1.3,0c0.2,0,0.3,0,0.6,0c2.5,0,4.8-1,7.3-1.2c1,0,2,0.2,3.1,0.3c0.4,0,0.8,0,1.2,0
			c0.9,0,1.8,0,2.6-0.1c1.8,0,3.5,0.3,5.2,0.4c1.3,0,2.6-0.2,3.8-0.7v2.9c-0.9,0-1.7,0-2.6,0.1c-0.3,0.1-0.7,0.1-1,0.1
			c-1.1,0-2.2-0.2-3.4-0.2c-0.1,0-0.1,0-0.2,0c-1.2-0.1-2.5-0.1-3.7-0.1c-0.9,0-1.8,0-2.8,0c-0.3,0-0.7,0-1,0
			c-2.2,0-4.3,0.4-6.4,0.9c-0.7,0.1-1.5,0.3-2.2,0.3c-0.2,0-0.3,0-0.6,0c-1.8-0.3-3.6-0.6-5.5-0.6c-1.6-0.1-3.1-0.7-4.7-1
			c-4.1-0.8-8.3-1.5-12.3-2.2c-0.9-0.2-1.9,0-2.7-0.6c-0.6-0.8-0.4-1.9-0.9-2.8c-1.5-4.3-2.2-8.7-2.8-13.1
			C789.7,70.3,788.9,68.2,787.7,66.2z M789.6,91.3c-0.9,0.8-1.8,1.6-2.8,2.2c-0.1-0.3-0.2-0.7-0.2-1.1v-2c0.8-0.7,1.5-1.2,1.7-2.1
			c0.2-1.2-0.1-2.4-0.4-3.6c-0.4-1.7-0.7-3.4-1.1-5.2l-0.1-11.4c0.1,0.3,0.3,0.7,0.4,1c0.9,2,1.1,4.1,1.3,6.3c0.4,2.7,1.1,5.3,1.8,8
			c0.4,1.5,0.7,3,1.3,4.5c0.2,0.4,0.4,1.1,0.1,1.7C791.1,90.2,790.3,90.6,789.6,91.3z M839.6,95.7h-31.7c-4-1-7.6-1.3-11.1-1.9
			c-1.6,0-2.7,0-4,1c-0.3,0.3-0.7,0.6-1.1,0.9h-1.8c-0.7,0-1.3-0.2-1.8-0.6c1.1-0.8,2.2-1.7,3.4-2.6c0.7-0.6,1-1.5,1.8-1.9
			c0.2,0,0.3-0.1,0.6-0.1c0.4,0,0.8,0.2,1.2,0.2c1,0.3,2,0.4,3,0.6c3.7,0.6,9.8,1.5,13.2,2.6c0.9,0.3,1.8,0.4,2.8,0.4
			c0.3,0,0.7-0.1,1-0.1c0.1,0,0.2,0,0.3,0c1.3,0,2.7,0.7,4.1,0.6c1,0.1,2-0.2,3-0.4c1.6-0.3,3.1-0.7,4.7-0.8c0.3,0,0.8,0,1.1,0
			c1.1,0,2.1,0,3.3,0c0.9,0,1.9,0,2.8,0c1.5,0.2,2.8,0.1,4.3,0.3c0.2,0,0.4,0,0.6,0c1,0,2-0.1,2.9-0.1c0.1,0,0.2,0,0.4,0
			C842.1,94.9,841,95.7,839.6,95.7z M799.5,26.3c-0.8-1.1-0.7-2.6-0.4-3.8c0.1-0.7,0.2-1.3,0.3-1.9h2.7c-0.1,0.4-0.2,0.9-0.2,1.5
			c-0.1,0.6-0.1,1,0,1.6c0.1,1.1,0.6,2.1,1.2,2.9c1.1,1.3,2.1,2.8,3,4.3c1.3,2.1,3.3,3.9,5,5.7c1.3,1.5,2.2,3.4,3.1,5.3
			c-1,0.4-1.6,1.5-1.7,2.6c-1-2.4-2.1-4.7-3.8-6.5c-1.3-1.6-2.9-2.8-4-4.5c-1.1-1.5-1.8-3.3-3.1-4.6C801,27.8,800.1,27.2,799.5,26.3
			z M809.9,64.6c-0.4-1.3-0.2-2.8-0.7-4.1c-1.3-5.2-3.7-10-6.1-14.7c-0.6-1-1-2-1.3-3.1c-0.1-0.6-0.7-1-1.2-1c-0.2,0-0.3,0-0.6,0.1
			c-0.6,0.2-0.6,1-0.3,1.6c0.3,0.7,0.9,1.2,1.2,1.9c1.7,4,3.8,7.8,5.2,11.9c0.8,2.2,1.7,4.4,1.8,6.7c0,0.8-0.4,1.8,0.1,2.6
			c0.1,0.3,0.6,0.6,0.9,0.6c0.3,0,0.7-0.1,0.9-0.4C810.3,65.9,810,65.3,809.9,64.6z M818.9,41.3h-2.7c-0.9-2-1.8-4-3.3-5.6
			c-1.6-1.9-3.5-3.5-4.8-5.5c-1.2-1.7-2.5-3.4-3.6-5.2c-0.8-1.1-0.8-2.6-0.6-3.9l2.8-0.6c-0.1,0.7-0.1,1.5,0,2.1
			c0.2,1.3,1,2.5,1.7,3.6c0.9,1.2,1.7,2.4,2.7,3.5c1.3,1.9,3.1,3.3,4.6,5c1,1.1,1.6,2.6,2.1,3.9C818.2,39.6,818.6,40.4,818.9,41.3z
			 M808.8,20.5h2.7c0,3.4,4.3,8.1,6.7,10.1c1,0.8,2,1.6,2.7,2.8c0.6,1.2,0.8,2.7,1.2,4c0.3,1.3,1,2.6,1.8,3.8H821
			c-0.2-0.4-0.4-0.9-0.7-1.5c-0.7-1.5-1-3-1.8-4.5c-0.7-1.3-1.8-2.5-2.8-3.5c-1.9-1.7-5.9-6.4-6.8-8.9
			C808.7,22.2,808.7,21.3,808.8,20.5z M842.9,38c0,1.1-0.6,2.1-1.5,2.7c-0.1-2.2,0-4.6-0.1-6.8c-0.2-2.8,0-5.5,0-8.3
			c0-0.9,0.7-1.7,0.6-2.6c0-0.7-0.6-1.1-1.1-1.1c-0.2,0-0.4,0.1-0.6,0.2c-0.7,0.4-0.7,1.3-0.7,2c0,0.9-0.1,1.8-0.1,2.7
			c0,4.8,0,9.6,0.2,14.5H837c0-2.8,0.1-5.5-0.1-8.3c-0.1-1.5,0.2-2.9,0.1-4.4c-0.1-0.9,0.1-1.8,0.3-2.6c0.2-0.8-0.4-1.7-1.2-1.7
			c-0.1,0-0.2,0-0.2,0c-0.8,0.2-1,1.1-0.9,1.7c0.3,2.1,0.1,4.1,0,6.3c0,2.5,0.4,4.9,0.2,7.5c-0.1,0.4-0.1,0.9-0.1,1.5h-2.7
			c0.1-0.6,0.1-1.1,0.2-1.6c0.2-1.2,0.2-2.5,0.1-3.7c-0.2-1.8-0.7-3.6-0.4-5.5c0.2-0.8,1-1.5,0.9-2.5c-0.1-0.4-0.7-0.9-1.1-0.9
			c-0.2,0-0.3,0.1-0.6,0.1c-0.4,0.3-0.7,1-0.8,1.6c-0.1,0.8-0.4,1.6-0.4,2.4c-0.1,2.2,0.8,4.4,0.8,6.5c0,1.2-0.4,2.4-0.6,3.6h-4.3
			c-0.4-0.6-0.9-1-1.1-1.6c-1.3-2.2-1.5-5-2.5-7.4c-0.7-1.3-2-2.2-3.1-3.3c-1.8-1.6-3.4-3.3-4.7-5.3c-0.7-0.9-1.1-2-1.2-3.3h2.9
			c0.7,2.7,4.9,7.5,7.6,8.5c0.7,0.2,1.2,0.8,1.2,1.6c0.1,2.8,1.5,5.4,1.5,8.2c0.1,0.6,0.7,1,1.2,1c0.6-0.1,1.1-0.6,1-1.2
			c-0.1-0.8-0.6-1.5-0.7-2.2c-0.4-1.9-0.7-3.9-1.1-5.8c-0.1-0.4-0.1-0.9,0-1.3c0.2-0.4,0.6-0.7,0.9-1c0.8-0.6,1.2-1.6,2-2.1
			c2.4-2.1,5.4-3.1,8-4.8c0.4-0.2,0.9-0.4,1.5-0.7h0.1c1.8,0,3.3,1.5,3.3,3.1V38H842.9z M821.1,68.2h-2.5c0-0.7,0-1.3-0.1-1.9
			c-0.2-1.7,0.1-3.4-0.2-5c-0.2-2.5-1.1-4.8-1.8-7.3c-0.8-2.4-1.7-4.7-2.7-7c0.6,0.4,1.2,0.7,2,0.7h1.1c0.2,0.6,0.4,1,0.7,1.6
			c0.8,2.5,1.5,4.9,2.2,7.3c0.9,2.5,1.5,5,1.1,7.6C820.8,65.5,821.1,66.8,821.1,68.2z M821.5,20.5c0.6,1.1,1.6,1.9,2.5,2.7
			c0.6,0.6,1,1.1,1.8,1.3c0.1,0,0.3,0,0.6,0s0.6-0.1,0.8-0.3c0.3-0.2,0.2-0.8,0.1-1.2c-0.6-1-1.8-0.9-2.6-1.6
			c-0.3-0.3-0.6-0.6-0.8-0.9h4.4c0.3,0.1,0.7,0.1,0.9,0.1c0.3,0,0.7,0,1-0.1h5.4c-0.4,0.2-0.9,0.6-1.3,0.8c-1.6,0.9-3.4,1.3-4.6,2.7
			c-1,1-1.9,2-2.8,3.1c-0.3,0.3-0.8,0.6-1.1,0.6c-1.8,0-6.6-5.4-7.2-7.1L821.5,20.5z M830.2,63.6c-0.1,1.6-0.4,3.3-1.3,4.6h-5.8
			c-0.1-0.3-0.2-0.7-0.1-1c0-1.5-0.1-3,0.1-4.5c0.1-2.9-1-5.6-1.8-8.3c-0.7-2-1.1-3.9-1.8-5.8c-0.1-0.3-0.2-0.6-0.3-0.9h2.8
			c0.8,2.5,1.2,4.8,2,7.1c0.7,1.7,1.3,3.4,1.6,5.2c0.3,1.7,0.2,3.3,0,4.9c-0.2,0.7-0.6,1.2-0.7,2c-0.1,0.4,0.2,0.9,0.6,1.1
			c0.1,0.1,0.3,0.1,0.4,0.1c0.6,0,1-0.3,1.2-0.8c0.1-0.9,0.1-1.8,0.3-2.7c0.3-1.5,0.3-3,0.1-4.6c-0.2-2.7-1.6-5-2.4-7.5
			c-0.4-1.6-0.8-3.3-1.2-4.8h2.7c0.4,2.2,0.8,4.5,1.8,6.5c0.6,1.1,1.2,2.2,1.6,3.5C830.3,59.6,830.3,61.6,830.2,63.6z M835,62.6
			c0,1.9-0.4,3.7-1.1,5.5c-0.3,0-0.7,0.1-1,0.1H831c0.7-1.5,1.1-3,1.2-4.6c0-2.1,0-4.4-0.3-6.5c-0.3-1.5-1.3-2.6-1.9-3.9
			c-0.6-1.1-0.8-2.4-1-3.6c-0.1-0.7-0.2-1.2-0.3-1.9h2.6c0.1,0.9,0.3,1.7,0.4,2.6c0.1,0.8-0.1,1.5,0,2.2c0.2,0.4,0.6,0.8,1.1,0.9
			c0.3,0,0.7-0.2,1-0.6c0.3-1-0.3-1.9-0.3-2.9c-0.1-0.8-0.2-1.5-0.3-2.2c1.3,0.1,2.5,1,2.8,2.2c0.1,0.7,0.1,1.5-0.1,2.2
			c-0.3,1.7-1.3,3.4-1.2,5.2C834.7,59,834.9,60.8,835,62.6z"/>
	</g>
</g>
<path class="st0" d="M986.5,51.4C974.5,15,936.6-4.9,899.9,6.1c-40.9,12.1-61.3,59-42.4,97.2c3.3,6.7,7.6,12.8,13.2,18.6
	c-0.6,0.6-1.4,1-1.9,1.6c-12.7,15.9-25.3,31.8-37.9,47.7c-0.6,0.7-1.2,1.5-1.7,2.3c-3,5.2,0.1,11.9,6,12.9c3.7,0.6,6.5-0.9,8.8-3.8
	c12.8-16.1,25.6-32.2,38.4-48.4c0.5-0.6,0.7-1.5,1-2.2c1.1,0.7,1.5,1,1.9,1.2c15.7,8.9,32.5,11.5,50.1,7.7
	c28.5-6.2,50.5-30.5,53.8-59.6c0.4-3.7,0.5-7.5,0.7-11.3c-0.4-3.2-0.7-6.5-1.1-9.7C988.1,57.3,987.5,54.3,986.5,51.4z M927.5,134.4
	c-34,3.9-64.7-20.6-68.6-54.6s20.6-64.7,54.6-68.6c34-3.9,64.7,20.6,68.6,54.6S961.6,130.5,927.5,134.4z"/>
</svg>
