<?xml version="1.0" encoding="utf-8"?>
<!-- Generator: Adobe Illustrator 24.1.0, SVG Export Plug-In . SVG Version: 6.00 Build 0)  -->
<svg version="1.1" id="Capa_1" xmlns="http://www.w3.org/2000/svg" xmlns:xlink="http://www.w3.org/1999/xlink" x="0px" y="0px"
	 viewBox="0 0 710.1 454.4" style="enable-background:new 0 0 710.1 454.4;" xml:space="preserve">
<style type="text/css">
	.st0{fill:url(#SVGID_1_);}
	.st1{opacity:0.4;fill:#FFFFFF;}
	.st2{fill:#FFFFFF;}
</style>
<g id="HYVlaw.tif">
	<g>
		<linearGradient id="SVGID_1_" gradientUnits="userSpaceOnUse" x1="4.6266" y1="121.1393" x2="705.4733" y2="121.1393">
			<stop  offset="0" style="stop-color:#FFFFFF;stop-opacity:0"/>
			<stop  offset="1" style="stop-color:#FFFFFF"/>
		</linearGradient>
		<path class="st0" d="M465,18.5c1.5,0.1,3.1,0.3,4.6,0.4c36.5,1.2,70.3,11.5,101.1,31.1c24.6,15.7,45.2,35.7,63.5,58.1
			c19.7,24,36.4,50,52.6,76.4c5.6,9.1,11.1,18.2,16.7,27.2c0.5,0.9,1.3,1.6,2,2.3c0,0.8,0,1.7,0,2.5c-1.6,3.3-3.7,6.1-7.6,7
			c-5,1.1-9.1-0.6-11.7-4.9c-14.5-24-29-48-45.2-70.9c-12.6-17.8-26.1-34.9-41.4-50.5c-26.2-26.6-56.4-46.4-93.1-55.3
			c-20.3-4.9-40.8-6.1-61.5-4.6c-32.7,2.3-64.3,10-95.2,20.4c-30.4,10.2-60.4,21.3-90.6,32c-24,8.5-47.9,17.3-72.6,24
			c-19.8,5.4-39.8,9.9-60.2,12.4c-38.6,4.8-76.7,2.6-113.9-9.7c-5.9-1.9-8.5-5.4-7.8-10.6c0.7-5,5.7-8.8,10.6-7.6
			c5.7,1.4,11.2,3.4,16.8,4.9c22.3,5.9,45.1,7.8,68.1,6.8c34.8-1.6,68.5-9.3,101.5-19.9c24.9-8,49.4-17,74-25.6
			c24.6-8.6,49.1-17.5,73.8-25.7c21.3-7.2,43.1-12.6,65.3-16.3c12.7-2.1,25.6-3.5,38.5-3.7c0.6,0,1.2-0.2,1.8-0.3
			C458.5,18.5,461.7,18.5,465,18.5z"/>
		<path class="st1" d="M461,215.4c0,17.8,0,35.5,0,53.3c0,9.5-6.7,17-16.2,18.3c-8.6,1.2-17.2-4.5-19.6-13.3
			c-0.5-1.7-0.7-3.6-0.7-5.4c0-35.3,0-70.7,0-106c0-9.7,6.8-17.4,16.3-18.5c9.1-1.1,17.7,5,19.9,14.1c0.3,1.4,0.4,2.9,0.4,4.4
			C461,180,461,197.7,461,215.4z"/>
		<path class="st1" d="M221.3,221.1c0,15.8,0,31.6,0,47.4c0,10.5-8,18.7-18.3,18.7c-10.1,0-18.3-8.2-18.3-18.5c0-31.7,0-63.5,0-95.2
			c0-10.3,8.3-18.6,18.3-18.5c10.3,0.1,18.3,8.2,18.3,18.5C221.4,189.3,221.3,205.2,221.3,221.1z"/>
		<path class="st1" d="M479.8,232.2c0-12.1,0-24.2,0-36.4c0-8.3,5.4-15.4,13.2-17.6c7.7-2.2,15.9,0.8,20.4,7.5
			c2.2,3.3,3.1,7.1,3.1,11c0,23.8,0.1,47.5,0,71.3c0,10.9-7.8,19.1-18.1,19.2c-10.4,0.1-18.6-8-18.6-18.6
			C479.8,256.4,479.8,244.3,479.8,232.2z"/>
		<path class="st1" d="M277.7,232.3c0,11.6,0,23.3,0,34.9c0,4.6-0.9,9-3.8,12.7c-4.9,6.3-12.9,8.8-20.5,6.3
			c-7.5-2.5-12.4-9.4-12.4-17.6c0-19.6,0-39.2,0-58.8c0-4.8-0.1-9.6,0-14.4c0.2-9.2,7.3-17,16.1-17.8c9.9-0.9,18.2,5.1,20.1,14.5
			c0.4,1.8,0.4,3.8,0.4,5.7C277.7,209.3,277.7,220.8,277.7,232.3z"/>
		<path class="st1" d="M207.5,433.8c0-2.1,0-4,0-5.9c2.1-0.2,4.1-0.3,6.1-0.6c3.6-0.6,5.2-2.1,5.4-5.7c0.3-4.5,0.5-9,0.5-13.5
			c0-19.3-0.1-38.6-0.1-58c0-2-0.2-4.1-0.3-6.1c-0.2-3.4-1.5-5.2-4.9-6c-2.3-0.5-4.6-0.6-7.1-0.8c0-1.8,0-3.7,0-5.9
			c3.7,0.2,7.3,0.5,10.9,0.5c9.7,0,19.3-0.3,29-0.1c4.8,0.1,9.6,0.3,14.3,1.3c8.8,1.8,15.1,9.9,15.4,18.9
			c0.4,11.2-4.6,19.1-15.1,23.8c-1.5,0.7-3.1,1.3-5,2c2.8,0.5,5.3,0.8,7.7,1.3c13.4,3.1,21.6,14.8,19.9,28.5
			c-1.8,13.9-10.8,23.1-25.2,25.7c-7.3,1.3-14.6,0.5-21.9,0.4c-9.4-0.1-18.9,0.1-28.3,0.2C208.3,433.8,208,433.8,207.5,433.8z
			 M232.9,382.9c-0.1,1-0.1,1.5-0.1,2c0,7.7-0.1,15.4,0,23c0,4.1,0.3,8.3,0.5,12.4c0.2,3.8,2.5,5.7,5.9,6.4c6.3,1.4,12.5,1,18.4-1.5
			c2.2-0.9,4.3-2.3,6-3.9c6.1-5.7,7.2-13.1,6.4-21c-0.9-8.1-5.6-13.3-13.3-15.4c-4.3-1.2-8.8-1.7-13.3-2.1
			C240,382.6,236.5,382.9,232.9,382.9z M232.8,375.9c8.2,0.4,16,0.3,22.9-4.5c7-4.8,8.8-11.8,7.3-19.7c-1.3-7.2-6.4-11.1-13.2-12.3
			c-5.1-0.9-10.4-0.7-15.5-1c-1.4-0.1-1.5,0.8-1.5,1.9c0,5,0,10,0,15C232.8,362.1,232.8,368.8,232.8,375.9z"/>
		<path class="st1" d="M167.5,377.5c3.6,0.8,7,1.3,10.3,2.3c9.8,3.1,16.4,11.7,17,22c1,16.3-8.8,28.4-25.3,31.4
			c-7.1,1.3-14.2,0.5-21.3,0.4c-9.9-0.2-19.9,0-29.9,0c0-1.7,0-3.6,0-5.7c1.9-0.2,3.8-0.2,5.7-0.5c3.9-0.6,5.3-1.9,5.8-5.9
			c0.4-3.8,0.5-7.6,0.5-11.4c0-17.9,0-35.8,0-53.7c0-4.2-0.2-8.3-0.4-12.5c-0.2-3.6-1.6-5.2-5.2-5.9c-2.2-0.4-4.4-0.5-6.8-0.7
			c0-1.9,0-3.8,0-5.9c3.6,0.2,7.2,0.5,10.8,0.5c9.7,0,19.3-0.3,29-0.1c4.7,0.1,9.5,0.3,14.1,1.2c11.5,2,16.4,13.4,15.9,21.9
			c-0.6,10.7-6.8,17.2-16.2,21.2C170.2,376.5,168.9,377,167.5,377.5z M143.9,383.2c-0.1,0.4-0.2,0.5-0.2,0.7c0,6.3-0.1,12.5,0,18.8
			c0.1,5.8,0.2,11.7,0.4,17.5c0.1,3.3,1.9,5.4,5.1,6.4c4,1.2,8.1,1.1,12.1,0.7c9.2-1,16.2-6.4,18.5-14.6c0.7-2.5,1-5.1,1.1-7.7
			c0.6-9.9-4-16.9-13.2-19.9C160,382.5,152,382.5,143.9,383.2z M143.7,375.9c7.1,0.4,13.9,0.2,20.2-2.9c5.5-2.7,8.9-7.1,10-13.2
			c1.9-10.3-3.4-18.3-13.7-20.5c-1.4-0.3-2.9-0.7-4.4-0.7c-4-0.1-8.1,0-12.2,0C143.7,351.2,143.7,363.4,143.7,375.9z"/>
		<path class="st1" d="M387.3,359c-1.8,0.3-3.4,0.5-5.1,0.8c-0.2-0.6-0.4-1.2-0.6-1.7c-2.9-11.2-10-18.1-21.6-19.9
			c-12.9-2-24.6,0.6-34.3,9.6c-6.5,6-10.4,13.5-12.4,21.9c-2.7,11.6-2.6,23.1,1.7,34.3c6.2,16.2,21.4,25.7,38.7,24.1
			c3.4-0.3,6.8-1.2,10.1-2.1c3.5-0.9,5.7-3.3,5.8-6.9c0.3-5.5,0.3-11,0.2-16.4c-0.1-2.8-1.2-3.8-4.1-4.3c-3.5-0.6-7-0.8-10.5-1.2
			c-0.5-0.1-1-0.1-1.5-0.1c0-2,0-3.9,0-5.5c13.1,0,26.2,0,39.4,0c0,1.5,0,3.4,0,5.4c-1.3,0.2-2.6,0.4-3.9,0.5
			c-3.3,0.5-4.7,1.7-5.1,5c-0.9,8.6-1.2,17.1,0.6,25.7c0.1,0.3,0.1,0.5,0.2,1.3c-5.6,1.5-11.1,3.2-16.7,4.3
			c-11.6,2.4-23.4,3.1-35,0.2c-22.6-5.6-34.7-22.9-36.8-43.3c-1.2-11.6,0.1-22.8,5.5-33.3c7.4-14.4,19.4-22.5,35-25.8
			c12.3-2.6,24.4-1.3,36.5,1.5c3.4,0.8,6.8,1.8,10.2,2.7c0.5,0.2,1.3,0.8,1.4,1.2C385.8,344.3,386.5,351.6,387.3,359z"/>
		<path class="st1" d="M165.2,243.6c0,8.2,0,16.5,0,24.7c0,10.6-8,18.7-18.2,18.8c-10.3,0-18.4-8.1-18.4-18.6
			c-0.1-16.6,0-33.3,0-49.9c0-10.5,8.1-18.7,18.4-18.6c10.3,0,18.3,8.2,18.3,18.7C165.2,227,165.2,235.3,165.2,243.6z"/>
		<path class="st1" d="M572.6,243.6c0,9,0.3,17.9-0.1,26.8c-0.4,9.4-8.8,16.8-18.5,16.7c-9.4-0.1-17.7-7.8-17.9-17.1
			c-0.2-17.7-0.1-35.4,0-53.1c0-1,0.2-2,0.4-2.9c2-8.8,10.3-14.7,19.7-14c8.6,0.7,15.7,8,16.3,16.7c0,0.6,0.1,1.3,0.1,1.9
			c0,8.3,0,16.6,0,25C572.7,243.6,572.6,243.6,572.6,243.6z"/>
		<path class="st1" d="M371,243.4c0-8.3,0-16.6,0-25c0-10.3,7.9-18.4,18.1-18.5c10.2-0.1,18.4,7.7,18.5,18c0.1,17.1,0.2,34.1,0,51.2
			c-0.1,10.4-8.5,18.2-18.8,18c-9.9-0.2-17.8-8.4-17.8-18.6C371,260.2,371,251.8,371,243.4z"/>
		<path class="st2" d="M564.9,434.7c0-0.7,0-1.4,0-2.2c0-24.4,0-48.8,0-73.2c0-4.7-0.2-9.4-0.3-14.2c-0.1-5.8-1.4-7.1-7.1-7.4
			c-0.3,0-0.5-0.1-1-0.1c0-1.6,0-3.1,0-4.8c6.3-1.2,11.8-4.4,17.2-7.6c1.7-1,4,0.8,3.8,3c-1.5,15.9-1.2,31.8-1.2,47.8
			c0,0.3,0,0.5,0.1,1c2.3-1.4,4.5-2.8,6.7-4.1c15.3-9.4,33.8-3.3,39.5,15c4.4,14.1,2.2,27.3-8.4,38.2c-6,6.1-13.7,8.8-22.2,8.9
			c-5,0-10-0.7-15-0.8C573.1,434,569.1,434.5,564.9,434.7z M576.3,399.1c0.1,0,0.3,0,0.4,0c0,5.7-0.3,11.4,0.1,17.1
			c0.4,6,5.3,10.9,11.2,11.9c8.7,1.5,16.7-2.3,21-10.1c3.6-6.6,4.3-13.8,3-21.1c-1.3-7.5-4.9-13.6-12-16.9c-8-3.7-15.7-2-22.9,2.3
			c-0.5,0.3-0.7,1.3-0.7,2C576.3,389.2,576.3,394.1,576.3,399.1z"/>
		<path class="st1" d="M354.6,254.8c0,5.8,0.6,11.6-0.1,17.3c-1.1,9.2-10,15.7-19.2,15c-9.5-0.8-16.8-8.5-16.9-17.9
			c-0.1-9.4,0-18.9,0-28.3c0-10.1,7.9-18.4,17.6-18.4c10.7-0.1,18.8,7.7,19,18.2c0.1,4.7,0,9.4,0,14.2
			C354.8,254.8,354.7,254.8,354.6,254.8z"/>
		<path class="st1" d="M624,254.7c0,5.1,0.3,10.3-0.1,15.4c-0.7,10.1-9,17.3-19.1,17c-9.7-0.3-17.4-8.4-17.5-18.5
			c-0.1-8.9,0-17.9,0-26.8c0-10.8,7.7-19.2,17.7-19.3c11-0.1,18.9,7.7,19.1,19c0.1,4.4,0,8.9,0,13.3
			C624.1,254.7,624,254.7,624,254.7z"/>
		<path class="st2" d="M409.9,337.7c0-1.9,0-3.8,0-5.6c12.7,0,25.3,0,38,0c0,1.7,0,3.6,0,5.9c-1.5,0-3-0.1-4.5,0
			c-5.3,0.3-7.2,2.1-7.6,7.3c-0.2,3.3-0.3,6.6-0.3,9.9c0.1,21.4,0.2,42.7,0.3,64.1c0,1,0.2,2.1,0.4,3.1c0.4,2.4,1.9,3.9,4.3,4
			c5.8,0.3,11.7,0.4,17.5,0.4c2.6,0,5.2-0.4,7.8-0.9c4.4-0.8,7.8-3.2,9.8-7.3c1.3-2.6,2.4-5.4,3.7-8.3c1.7,0.5,3.6,0.9,5.7,1.5
			c-1.8,6-3.5,11.8-5.3,17.7c-1.3,4.2-1.3,4.2-5.6,4.2c-16.9-0.2-33.7-0.3-50.6-0.4c-3.8,0-7.6,0.3-11.4,0.4c-0.7,0-1.4,0-2.2,0
			c0-2,0-4,0-5.9c2.2-0.2,4.4-0.3,6.4-0.6c3.2-0.5,4.8-2.1,5.1-5.3c0.4-3.9,0.5-7.7,0.5-11.6c0-20.2-0.1-40.5-0.1-60.7
			c0-1.8-0.2-3.5-0.3-5.3c-0.2-3.3-1.5-5.1-4.8-5.8C414.5,338,412.2,337.9,409.9,337.7z"/>
		<path class="st2" d="M550,425.1c0.7,1.1,1.4,2.2,2.2,3.5c-4.2,3.4-8.5,6.2-14,6.3c-4.5,0.1-6.8-1.7-7.9-6
			c-0.2-0.8-0.4-1.6-0.6-2.6c-1.2,1.1-2.2,2.1-3.3,3c-5.1,4.4-10.8,7-17.8,6.1c-5.9-0.8-10.5-5.1-11.7-11
			c-1.4-7.2,0.3-12.2,6.4-15.2c6.4-3.1,13.2-5.5,19.9-8.2c2-0.8,4.1-1.5,6.5-2.4c-0.3-4.5-0.3-9-0.9-13.4c-0.2-1.9-1.3-3.9-2.4-5.5
			c-1.7-2.5-4.4-3.4-7.3-2.6c-2.4,0.7-4.8,1.7-7,2.9c-2.4,1.2-3.8,3.1-3.9,6c-0.2,3.4-5.5,6.5-8.7,5.2c-0.5-0.2-1.1-1.6-0.9-2.3
			c0.9-4,3.1-7.2,5.8-10.1c5-5.4,10.6-9.5,18.4-10c9.8-0.6,16.2,3.8,17.6,13.6c0.8,6.1,0.6,12.3,0.7,18.5c0.1,7.4,0.2,14.8,0.3,22.2
			c0,0.8,0.2,1.5,0.5,2.3c0.8,2.2,2.4,2.9,4.5,2C547.5,426.6,548.7,425.8,550,425.1z M529.3,404.1c-6.2,2.4-12.4,4.1-17.5,8.1
			c-0.4,0.3-0.8,0.8-1.2,1.2c-2.1,2.5-2.4,6.6-0.8,9.5c1.8,3.1,5.1,4.6,8.6,4c4.4-0.7,7.4-3.5,10.4-6.5c0.3-0.3,0.5-0.7,0.5-1.1
			C529.4,414.5,529.3,409.5,529.3,404.1z"/>
		<path class="st2" d="M336,215.6c-4.7,0.3-9.5-0.6-13.4-4.6c-4.4-4.6-5.6-10.1-3.4-16c2.2-5.8,6.6-9.3,12.8-9.8
			c3.6-0.3,7.2-0.4,10.7,0.3c7.6,1.4,12.8,8.7,12,16.3c-0.8,7.8-7.2,13.7-15.1,13.9C338.7,215.6,337.7,215.6,336,215.6z"/>
		<path class="st2" d="M146.8,192.8c-5.4,0.4-10.3-0.7-14.1-4.9c-4.3-4.8-5.4-10.4-2.8-16.3c2.5-5.8,7.1-9,13.5-9.3
			c2.1-0.1,4.2,0,6.3,0c8.6,0,15.4,6.6,15.6,14.8c0.1,8.6-6.3,15.3-14.9,15.7C149.1,192.8,148,192.8,146.8,192.8z"/>
		<path class="st2" d="M389.3,162.3c4.6-0.4,8.9,0.3,12.6,3.3c4.9,4,7,10.5,5.1,16.5c-1.8,5.9-7.2,10.3-13.4,10.6
			c-3.4,0.2-6.8,0.2-10.1-0.3c-7.8-1.2-13-8.3-12.4-16.4c0.6-7.5,7.2-13.6,14.9-13.7C387,162.3,388.2,162.3,389.3,162.3z"/>
		<path class="st2" d="M605.8,184.8c5.3-0.4,10.2,0.6,14,4.7c4.3,4.7,5.4,10.1,3.2,16c-2.3,5.9-6.8,9.2-13,9.7
			c-3.5,0.3-7.1,0.2-10.5-0.4c-7.4-1.3-12.6-8.3-12-15.8c0.5-7.7,6.7-13.8,14.3-14.2C603,184.7,604.3,184.8,605.8,184.8z"/>
		<path class="st2" d="M554.3,194.6c-4.5,0.3-8.7-0.3-12.4-3.1c-5.2-4-7.2-10.8-5-17.1c2.1-6.1,7.8-10.3,14.3-10.3
			c2.9,0,5.8-0.2,8.6,0.3c8.3,1.3,13.5,8.4,12.7,16.9c-0.7,7.4-7.4,13.3-15.3,13.3C556.3,194.6,555.3,194.6,554.3,194.6z"/>
	</g>
</g>
</svg>
