<?xml version="1.0" encoding="utf-8"?>
<!-- Generator: Adobe Illustrator 24.1.0, SVG Export Plug-In . SVG Version: 6.00 Build 0)  -->
<svg version="1.1" id="Capa_1" xmlns="http://www.w3.org/2000/svg" xmlns:xlink="http://www.w3.org/1999/xlink" x="0px" y="0px"
	 viewBox="0 0 41.8 41.1" style="enable-background:new 0 0 41.8 41.1;" xml:space="preserve">
<style type="text/css">
	.st0{fill-rule:evenodd;clip-rule:evenodd;fill:#FFFFFF;}
</style>
<path class="st0" d="M20.9-0.2C9.4-0.2,0.1,9.1,0.1,20.6s9.3,20.8,20.8,20.8S41.7,32,41.7,20.6C41.7,9.1,32.4-0.2,20.9-0.2z
	 M33.3,15c0,0.3,0,0.5,0,0.8c0,8.1-6.2,17.5-17.5,17.5l0,0c-3.3,0-6.6-1-9.4-2.8c0.5,0.1,1,0.1,1.5,0.1c2.8,0,5.5-0.9,7.6-2.6
	c-2.6,0-4.9-1.8-5.7-4.3c0.9,0.2,1.9,0.1,2.8-0.1c-2.9-0.6-4.9-3.1-4.9-6v-0.1c0.9,0.5,1.8,0.7,2.8,0.8c-2.7-1.8-3.5-5.4-1.9-8.2
	c3.1,3.8,7.7,6.2,12.7,6.4c-0.5-2.1,0.2-4.4,1.8-5.9c2.5-2.3,6.4-2.2,8.7,0.3c1.4-0.3,2.7-0.8,3.9-1.5c-0.5,1.4-1.4,2.6-2.7,3.4
	c1.2-0.1,2.4-0.5,3.5-1C35.5,13,34.5,14.1,33.3,15z"/>
</svg>
