<?xml version="1.0" encoding="utf-8"?>
<!-- Generator: Adobe Illustrator 24.1.0, SVG Export Plug-In . SVG Version: 6.00 Build 0)  -->
<svg version="1.1" id="Capa_1" xmlns="http://www.w3.org/2000/svg" xmlns:xlink="http://www.w3.org/1999/xlink" x="0px" y="0px"
	 viewBox="0 0 400 400" style="enable-background:new 0 0 400 400;" xml:space="preserve">
<style type="text/css">
	.st0{fill:#FFFFFF;}
</style>
<g id="RuUgdZ.tif_2_">
</g>
<g id="WLad1c.tif">
	<g>
		<path class="st0" d="M311.9,185.5c-1.2,4.5-1.9,9.1-3.6,13.4c-6.3,15.9-18,25.9-34.3,30.6c-0.7,0.2-1.5,0.4-1.3,0.4
			c1.7,8.1,4.3,15.7,4.7,23.5c1,20.1-11.6,38.2-31.2,46.7c-24.1,10.4-53.1,2.6-67.6-18c-19.4-27.5-5.4-65.3,28-75.4
			c3.3-1,6.7-1.6,9.9-2.4c-1.5-5.8-3.5-11.6-4.3-17.6c-3.7-27.3,15.5-51.9,43.3-56c25.9-3.8,51.2,15.1,55.6,41.6
			c0.2,1.1,0.6,2.2,0.9,3.3C311.9,178.8,311.9,182.2,311.9,185.5z M270.5,250.2c-1.1-3.2-3-9.2-5-15.1c-1.1-3.1-3.3-4.3-6.8-4.4
			c-12.4-0.4-23.6-4.9-31.7-14.2c-4.7-5.3-9.2-5.4-14.9-3.9c-17.2,4.7-29.6,14.9-34,32.7c-3.9,15.8,1.4,29.3,13.3,39.9
			c16.7,14.9,41.3,16.3,59.8,3.7C263.7,280.4,270.4,268.5,270.5,250.2z M261.7,223.6c23.7,0,43.1-19.6,42.9-43.2
			c-0.2-23.5-19.6-42.8-43-42.8c-23.6,0-43.1,19.7-42.9,43.3C219,204.6,238.2,223.6,261.7,223.6z"/>
		<path class="st0" d="M144.9,227.6c-24.8-0.9-46.7-15.7-54-37.1c-8.8-25.8,3.9-53,29.9-64.4c32.2-14.1,69.7,2.4,78.9,34.7
			c7.3,25.8-7.7,53.2-34.5,62.4C158.6,225.5,151.6,226.2,144.9,227.6z M144.5,127.9c-5,0.9-10.2,1.3-15.1,2.8
			c-31.7,9.5-44.4,45.2-24.9,69.8c17.4,21.8,50.4,25.6,72.2,8.1c12.8-10.3,19.5-23.7,17-40.3C190.2,144.7,169.7,128.4,144.5,127.9z"
			/>
		<path class="st0" d="M130.3,297.6c-15.6,0-28.1-12.7-27.9-28.3c0.2-15.4,12.7-27.9,27.9-27.9c15.3,0,27.8,12.5,27.9,27.9
			C158.3,285,145.9,297.6,130.3,297.6z M109.8,269.2c-0.1,11.9,8.8,21.1,20.4,21.2c11.4,0.1,20.8-9.4,20.8-20.9
			c-0.1-11.2-9.5-20.7-20.6-20.7C119.2,248.7,109.9,257.9,109.8,269.2z"/>
		<path class="st0" d="M209,91.2c11.6,0.1,20.4,9,20.3,20.6c-0.1,11.4-9.6,20.6-20.8,20.4c-11.2-0.3-20.1-9.4-20.1-20.6
			C188.4,100.1,197.5,91.1,209,91.2z M209,98.5c-7.5,0-13.4,5.8-13.4,13.1c0,7.3,6.1,13.3,13.4,13.2c7.1-0.1,13-5.9,13.1-13
			C222.3,104.5,216.4,98.5,209,98.5z"/>
		<path class="st0" d="M293.2,308.8c-8.4,0-14.9-6.5-14.9-14.8c0-8.3,6.5-14.7,14.9-14.8c8.3,0,14.8,6.4,14.8,14.7
			C308,302.3,301.5,308.8,293.2,308.8z M293.3,301.5c4.1,0,7.6-3.5,7.6-7.5c0-4.1-3.6-7.5-7.7-7.4c-4.1,0-7.6,3.5-7.6,7.6
			C285.6,298.3,289,301.5,293.3,301.5z"/>
		<path class="st0" d="M250.4,259.9c0.1,14.1-10.8,25.1-24.7,25.2c-13.8,0-25.1-11.3-25-25.1c0.1-13.7,11.1-24.7,24.7-24.8
			C239.4,235,250.4,245.8,250.4,259.9z M225.7,242.5c-10,0-17.7,7.7-17.6,17.7c0,9.9,7.9,17.8,17.8,17.7c9.6-0.1,17.3-7.9,17.4-17.5
			C243.3,250.3,235.6,242.5,225.7,242.5z"/>
		<path class="st0" d="M192.1,246.1c-2.4,0-4.3,0-6.6,0c0-2.3,0-4.4,0-6.8c2.1,0,4.1,0,6.6,0C192.1,241.3,192.1,243.5,192.1,246.1z"
			/>
		<path class="st0" d="M265.8,261.5c-2.4,0-4.3,0-6.6,0c0-2.2,0-4.3,0-6.7c2,0,4.1,0,6.6,0C265.8,256.9,265.8,259.2,265.8,261.5z"/>
		<path class="st0" d="M235.2,172.4c0-13.8,11.9-24.8,26.5-24.6c14.9,0.2,27.1,11.6,27.1,25.5c0.1,13.8-11.5,24.8-26.3,24.8
			C247.4,198.1,235.1,186.6,235.2,172.4z M262.4,190.9c10.6,0,19.2-7.8,19.1-17.5c-0.1-9.8-9.1-18.2-19.7-18.4
			c-10.3-0.2-19.3,7.8-19.4,17.3C242.2,182.2,251.5,190.8,262.4,190.9z"/>
		<path class="st0" d="M284.2,191.1c2.6,0,4.7,0,7.1,0c0,2.3,0,4.3,0,6.7c-2.3,0-4.6,0-7.1,0C284.2,195.7,284.2,193.6,284.2,191.1z"
			/>
		<path class="st0" d="M276.1,203.6c2.5,0,4.7,0,7.2,0c0,2.3,0,4.4,0,6.7c-2.3,0-4.6,0-7.2,0C276.1,208.2,276.1,206.2,276.1,203.6z"
			/>
		<path class="st0" d="M176.9,174c0,15.7-12.4,28.3-28,28.3c-15.5,0-28.1-12.7-28.2-28.3c0-15.4,12.9-28.5,28.1-28.5
			C164.2,145.5,176.8,158.3,176.9,174z M169.6,174.2c0.1-11.7-9-21-20.6-21.1c-11.4-0.1-21,9.3-21.2,20.7
			c-0.2,11.3,9.4,21,20.8,21.2C160.1,195.1,169.6,185.8,169.6,174.2z"/>
		<path class="st0" d="M108.4,158.5c2.4,0,4.6,0,7.2,0c0,2,0,4.1,0,6.5c-2.2,0-4.5,0-7.2,0C108.4,162.9,108.4,160.9,108.4,158.5z"/>
		<path class="st0" d="M104.2,170.6c2.7,0,4.9,0,7.4,0c0,2.3,0,4.3,0,6.7c-2.5,0-4.8,0-7.4,0C104.2,175.1,104.2,173.1,104.2,170.6z"
			/>
		<path class="st0" d="M108.4,182.7c2.6,0,4.8,0,7.2,0c0,2.2,0,4.3,0,6.8c-2.2,0-4.6,0-7.2,0C108.4,187.2,108.4,185.2,108.4,182.7z"
			/>
	</g>
</g>
</svg>
