<?xml version="1.0" encoding="utf-8"?>
<!-- Generator: Adobe Illustrator 24.1.0, SVG Export Plug-In . SVG Version: 6.00 Build 0)  -->
<svg version="1.1" id="Capa_1" xmlns="http://www.w3.org/2000/svg" xmlns:xlink="http://www.w3.org/1999/xlink" x="0px" y="0px"
	 viewBox="0 0 400 400" style="enable-background:new 0 0 400 400;" xml:space="preserve">
<style type="text/css">
	.st0{fill:#FFFFFF;}
</style>
<g id="RuUgdZ.tif_2_">
</g>
<g id="TCTHA1.tif">
	<g>
		<path class="st0" d="M257.4,316.5c-29.8,0-59.6,0-89.4,0c-0.3-0.1-0.5-0.3-0.8-0.4c-1.7-0.7-2.6-2-2.3-3.9
			c0.4-1.9,1.7-2.9,3.7-2.9c0.8,0,1.6,0,2.4,0c27.8,0,55.6,0,83.4,0c1.3,0,2.7,0,4-0.3c3.6-0.7,6.3-3.9,6.6-7.6
			c0.4-5.2-3.3-9.4-8.5-9.4c-37.7,0-75.4,0-113,0c-0.2,0-0.3,0-0.5,0c-4.3,0.3-7.8,3.8-8,8.1c-0.2,5.2,3.4,9,8.8,9.2
			c3.4,0.1,6.9,0,10.3,0.1c1.8,0,3,0.9,3.4,2.6c0.4,1.7-0.2,3.1-1.8,4c-0.3,0.2-0.6,0.4-1,0.6c-4.1,0-8.2,0-12.2,0
			c-0.5-0.1-1-0.3-1.6-0.4c-8.2-1.4-13.6-8.4-13.1-16.9c0.5-7.8,7.1-14.1,15.1-14.3c4.2-0.1,8.3,0,12.5,0c1.4,0,2.8,0,4.2,0
			c0-5.9,0-11.5,0-17.3c-1.1,0-2,0-2.9,0c-15.5,0-31,0.1-46.6-0.1c-13.9-0.1-25.8-9.4-29.5-22.7c-0.4-1.5-0.8-3-1.2-4.5
			c0-43.3,0-86.5,0-129.8c0.4-1.5,0.8-3,1.2-4.5c4-13.8,16-22.6,31-22.6c41.3,0,82.6,0,123.9,0c17.6,0,35.1,0,52.7,0
			c18.5,0,32.1,13.6,32.1,32.1c0,40,0,80.1,0,120.1c0,2.5-0.2,5-0.7,7.5c-3.2,14.4-15.4,24.4-30.2,24.5c-15.4,0.1-30.9,0-46.3,0
			c-0.9,0-1.8,0-2.8,0c0,5.9,0,11.6,0,17.2c0.4,0.1,0.5,0.2,0.7,0.2c5.2,0,10.5,0,15.7,0.1c7.8,0.1,14.3,6,15.2,13.4
			c1,8.2-3.8,15.4-11.6,17.5C259.3,316.1,258.4,316.3,257.4,316.5z M200.1,90.5c-29.3,0-58.6,0-87.9,0c-15.3,0-25.5,10.2-25.5,25.5
			c0,39.9,0,79.8,0,119.6c0,14.2,10.3,24.8,24.5,24.9c59.2,0.1,118.5,0.1,177.7,0c14.1,0,24.4-10.6,24.5-24.6c0-40.3,0-80.5,0-120.8
			c0-2.7-0.5-5.5-1.3-8.1c-3.4-10.4-12.4-16.5-24.2-16.5C258.6,90.5,229.3,90.5,200.1,90.5z M232.8,284.8c0-5.8,0-11.4,0-17.1
			c-22,0-43.8,0-65.7,0c0,5.7,0,11.3,0,17.1C189.1,284.8,210.9,284.8,232.8,284.8z"/>
		<path class="st0" d="M200,248.8c-29.2,0-58.3,0-87.5,0c-9.3,0-14.1-4.8-14.1-14.2c0-39.4,0-78.8,0-118.2c0-9.2,4.9-14.1,14.1-14.1
			c58.3,0,116.6,0,174.9,0c9.4,0,14.2,4.8,14.2,14.2c0,2.4,0,4.7,0,7.1c0,2.5-1.5,4.1-3.6,4c-2-0.1-3.4-1.6-3.4-4c0-2.8,0-5.6,0-8.5
			c-0.1-3.4-1.9-5.4-5.3-5.7c-0.7-0.1-1.4,0-2.1,0c-58.1,0-116.2,0-174.2,0c-1.7,0-3.5,0.2-5,0.9c-1.9,0.9-2.5,2.9-2.4,5
			c0,6.5,0,13,0,19.5c0,33.3,0,66.6,0,99.9c0,5.3,1.7,7,7.1,7c58.3,0,116.6,0,174.9,0c5.3,0,7.1-1.8,7.1-7c0-31.6,0-63.2,0-94.7
			c0-0.8-0.1-1.6,0.1-2.3c0.3-1.8,1.5-3,3.4-3c2,0,3.2,1.1,3.6,3c0.1,0.6,0.1,1.2,0.1,1.9c0,31.9,0,63.8,0,95.7
			c0,8.5-5.1,13.6-13.6,13.6C258.7,248.8,229.3,248.8,200,248.8z"/>
		<path class="st0" d="M156.1,171.2c1.8-5,4.9-8.7,10.2-9.9c1.8-0.4,3.7-0.1,5.6-0.4c0.8-0.1,1.7-0.5,2.1-1.1c1-1.4,1.7-3,2.6-4.4
			c1.9-2.8,3-5.2,0.9-8.9c-3-5.3,0.2-12.1,5.8-14.7c5.6-2.6,12.3-0.4,15.1,5.2c0.8,1.6,1.6,1.9,3.2,1.9c3.4-0.1,6.7,0,10.2,0
			c0.3-0.7,0.6-1.3,0.8-1.9c3.8-8.6,14.5-11.1,21.6-5c1.2,1,2.1,1.4,3.4,0.4c0.4-0.3,0.8-0.5,1.3-0.6c2.8-1,4.1-2.4,4-5.8
			c-0.1-6.5,5.1-11.7,11.7-12.8c6.1-1,12.4,2.6,14.8,8.4c2.4,5.8,0.5,12.6-4.5,16.4c-5.2,3.9-12.2,3.7-17.1-0.6
			c-1.3-1.2-2.3-1.2-3.6-0.3c-0.2,0.1-0.4,0.3-0.6,0.3c-3.2,1-4.8,2.6-4.6,6.5c0.1,2.3-1.4,4.9-2.7,7c-0.7,1.3-0.9,2-0.1,3.3
			c1.5,2.4,3,5,4.3,7.5c0.7,1.4,1.6,1.8,3.1,1.6c6.5-0.8,12.1,3.5,12.9,10.1c0.8,6.1-3.5,11.9-9.7,12.9c-1.7,0.3-3.4,0-5.5,0
			c-1.8,3.1-3.9,6.6-5.7,10.1c-0.3,0.5,0.3,1.7,0.8,2.3c4.2,5.7,3.5,13.8-1.8,18.6c-5.3,4.8-13.4,4.8-18.6-0.1
			c-1.4-1.4-2.5-3.2-3.4-5c-0.6-1.2-1.2-1.8-2.6-1.7c-3.1,0.1-6.1,0-9.2,0.1c-0.7,0-1.7,0.6-2.1,1.3c-3.5,6.3-9.2,8.2-16,5.6
			c-3-1.1-4.1,2.4-6.2,3.5c-1.3,0.6-1.5,1.6-1.2,3.1c1.4,6.5-2.6,12.7-9,14c-6.3,1.3-12.5-2.9-13.8-9.4c-0.9-4.5,0.6-8.2,4.1-11.1
			c3.6-2.9,7.7-3.4,11.9-1.6c1.4,0.6,2.5,0.7,3.5-0.5c0.4-0.4,0.8-0.7,1.3-1c2.4-1.6,4-3.2,3.2-6.8c-0.5-2.2,1.2-4.8,1.8-7.3
			c0.2-0.9,0.5-2,0.1-2.7c-1.4-2.8-3-5.5-4.7-8.1c-0.4-0.6-1.6-1.2-2.4-1.1c-6.8,0.7-12.2-2.4-14.8-8.6c-0.5-1.3-1.2-1.5-2.4-1.5
			c-3,0.1-6,0.1-8.9,0c-1.7-0.1-2.7,0.4-3.6,2.1c-2.5,4.7-7.7,7-12.7,5.7c-5.2-1.3-8.8-5.6-9-10.7c-0.2-5.3,3-10,8-11.7
			c5.5-1.8,11.4,0.5,14.1,5.9c0.6,1.2,1.3,1.7,2.6,1.7C148.5,171.1,152.3,171.2,156.1,171.2z M179.4,184.6c1.7,3,3.5,6,5.1,9
			c0.7,1.2,1.4,1.7,2.9,1.7c5.1-0.3,8.8,2.1,11.3,6.6c0.4,0.7,1.4,1.4,2.2,1.4c3.1,0.2,6.3,0,9.4,0.1c1.2,0,1.7-0.5,2.2-1.5
			c2.7-6.3,8.1-9.3,14.9-8.6c0.8,0.1,2-0.5,2.4-1.1c1.9-3,3.6-6,5.3-9.1c0.3-0.6,0.2-1.6-0.1-2.2c-2.2-4.1-2.2-8,0-12.1
			c0.3-0.6,0.4-1.7,0.1-2.3c-1.7-3.2-3.5-6.3-5.4-9.3c-0.3-0.5-1.3-0.9-2-0.9c-7,0.7-12.3-2.3-15.3-8.8c-0.3-0.6-1.3-1.3-2-1.4
			c-3.2-0.1-6.4-0.1-9.6,0c-0.7,0-1.6,0.6-1.9,1.2c-2.6,4.8-6.5,7.3-12.1,6.9c-0.6,0-1.4,0.3-1.7,0.8c-2,3.3-3.9,6.6-5.8,9.9
			C184.9,171.4,184.8,178,179.4,184.6z M263.5,126.7c0-3.7-3.1-6.7-6.7-6.7c-3.7,0-6.9,3.1-6.8,6.9c0.1,3.6,3.1,6.7,6.8,6.7
			C260.4,133.6,263.5,130.5,263.5,126.7z M176.4,174.7c0-3.7-3-6.7-6.7-6.8c-3.7-0.1-6.8,2.8-6.9,6.6c-0.1,3.8,3,7,6.8,7
			C173.2,181.5,176.4,178.3,176.4,174.7z M218.7,206.9c0,3.7,3,6.7,6.7,6.7c3.7,0,6.7-3,6.8-6.7c0-3.8-3.1-6.9-6.9-6.9
			C221.6,200.2,218.7,203.2,218.7,206.9z M218.7,142.5c0,3.7,3,6.7,6.7,6.7c3.7,0,6.7-3,6.8-6.7c0-3.8-3.1-6.9-6.9-6.9
			C221.6,135.7,218.7,138.7,218.7,142.5z M164.1,231c2.6,0.1,4.7-2,4.7-4.5c0-2.4-1.9-4.5-4.4-4.6c-2.6-0.1-4.7,1.8-4.9,4.4
			C159.5,228.8,161.6,231,164.1,231z M192.8,207c0.1-2.5-2.1-4.7-4.6-4.7c-2.4,0-4.5,1.9-4.7,4.4c-0.1,2.5,1.9,4.7,4.5,4.8
			C190.6,211.5,192.8,209.5,192.8,207z M131.7,179.2c2.5,0,4.7-2.1,4.6-4.6c0-2.5-2-4.5-4.5-4.6c-2.5-0.1-4.7,2-4.7,4.5
			C127.1,177.1,129.1,179.2,131.7,179.2z M245.1,179.2c2.5,0,4.6-2.2,4.6-4.7c-0.1-2.5-2.1-4.4-4.5-4.5c-2.5-0.1-4.7,2-4.7,4.6
			C240.4,177.2,242.5,179.3,245.1,179.2z M192.8,142.5c0-2.5-2.1-4.6-4.6-4.6c-2.5,0-4.5,2-4.6,4.4c-0.1,2.5,2,4.7,4.5,4.7
			C190.7,147.1,192.8,145,192.8,142.5z"/>
		<path class="st0" d="M259.9,231.9c-8.1,0-16.3,0-24.4,0c-2.9,0-4.5-1.3-4.5-3.6c0-2.2,1.6-3.4,4.4-3.5c16.4,0,32.7,0,49.1,0
			c2.9,0,4.5,1.3,4.5,3.6c0,2.2-1.6,3.4-4.4,3.4C276.3,231.9,268.1,231.9,259.9,231.9z"/>
		<path class="st0" d="M271.1,212.1c4.5,0,9.1,0,13.6,0c2.7,0,4.1,1.2,4.2,3.4c0.1,2.2-1.5,3.6-4.2,3.6c-9.2,0-18.3,0-27.5,0
			c-2.7,0-4.4-1.4-4.3-3.6c0-2.2,1.6-3.5,4.4-3.5C261.9,212.1,266.5,212.1,271.1,212.1z"/>
		<path class="st0" d="M133.2,124c0,2.6,0,5.2,0,7.7c-0.1,2.4-1.5,3.8-3.5,3.8c-2.1,0-3.5-1.5-3.5-3.9c0-5.1,0-10.2,0-15.2
			c0-2.3,1.5-3.9,3.5-3.9c2,0,3.4,1.6,3.5,3.9C133.3,119,133.2,121.5,133.2,124z"/>
		<path class="st0" d="M122.9,127.1c0,1.6,0.1,3.3,0,4.9c-0.1,2.2-1.6,3.6-3.6,3.5c-1.9,0-3.4-1.4-3.4-3.4c-0.1-3.4-0.1-6.9,0-10.3
			c0.1-2.1,1.7-3.6,3.6-3.6c1.9,0,3.3,1.5,3.4,3.7C122.9,123.7,122.9,125.4,122.9,127.1z"/>
		<path class="st0" d="M144.2,126.9c0,1.7,0.1,3.4,0,5.1c-0.1,2.1-1.2,3.3-3.4,3.5c-2,0.1-3.5-1.2-3.6-3.5c-0.1-3.4-0.1-6.9,0-10.3
			c0.1-2.1,1.3-3.3,3.4-3.5c1.9-0.2,3.4,1.4,3.6,3.5C144.3,123.5,144.2,125.2,144.2,126.9z"/>
		<path class="st0" d="M147.8,128.9c0-1.1-0.1-2.2,0-3.3c0.2-1.9,1.3-3,3.1-3.2c2-0.2,3.5,0.9,3.7,2.8c0.3,2.5,0.3,5,0,7.5
			c-0.2,1.9-1.6,3-3.6,2.9c-2-0.1-3.1-1.4-3.2-3.4C147.7,131.1,147.8,130,147.8,128.9z"/>
	</g>
</g>
</svg>
