<?xml version="1.0" encoding="utf-8"?>
<!-- Generator: Adobe Illustrator 24.1.0, SVG Export Plug-In . SVG Version: 6.00 Build 0)  -->
<svg version="1.1" id="Capa_1" xmlns="http://www.w3.org/2000/svg" xmlns:xlink="http://www.w3.org/1999/xlink" x="0px" y="0px"
	 viewBox="0 0 400 400" style="enable-background:new 0 0 400 400;" xml:space="preserve">
<style type="text/css">
	.st0{fill:#FFFFFF;}
</style>
<g id="_x37_kEaST.tif">
	<g>
		<path class="st0" d="M92.5,140.6c1.7-1.3,3.3-2.7,5.1-3.8c11.1-6.5,22.2-12.7,33.2-19.3c3.1-1.9,5.7-2,8.9-0.1
			c10.1,6,20.4,11.7,30.5,17.8c2.5,1.5,4.3,1.4,6.8-0.1c10.3-6.1,20.8-12,31.1-18.1c2.6-1.5,4.8-1.5,7.3,0
			c11.7,6.9,23.5,13.7,35.4,20.4c2.7,1.6,3.8,3.6,3.7,6.7c-0.1,9.8,0,19.7,0,29.5c0,1.2,0,2.5,0,3.7c34.1-0.4,58.9,13.8,69.4,46.6
			c9.6,30.1-0.9,54.9-25.5,74.5c8.7,13.4,17.4,26.8,26.4,40.6c-2.4,1.6-4.8,3.2-7.4,4.9c-9-13.8-17.9-27.5-26.9-41.3
			c-18,8.3-36.1,9.2-54.3,1.7c-18.1-7.4-30.3-20.8-37.3-39.3c-7,4-13.8,7.8-20.3,11.8c-3.4,2.1-6.2,2.2-9.8,0.1
			c-11.1-6.7-22.3-13.1-33.5-19.4c-3.1-1.7-4.4-3.8-4.3-7.3c0.2-11.8-0.1-23.6,0.2-35.4c0.1-3.1-1.1-4.6-3.6-6.1
			c-10-5.6-19.9-11.3-29.7-17.1c-1.8-1.1-3.4-2.5-5.1-3.8C92.5,172.2,92.5,156.4,92.5,140.6z M204.3,243.4
			c-0.3,31,25.1,56.9,56.1,57.2c31.7,0.3,57.7-25,58-56.4c0.3-31.5-25-57.3-56.3-57.6C230.1,186.2,204.6,211.3,204.3,243.4z
			 M101.5,163.9c0,5.7,0.1,11.4,0,17.2c0,2,0.6,3.1,2.3,4c9.8,5.6,19.6,11.3,29.5,16.8c1,0.6,2.9,0.7,3.9,0.1
			c10-5.6,19.9-11.3,29.7-17.1c1.1-0.7,2.1-2.4,2.1-3.7c0.2-11.3,0.2-22.6,0-34c0-1.3-1-3.1-2.1-3.7c-9.8-5.9-19.7-11.5-29.7-17.1
			c-0.9-0.5-2.7-0.5-3.6,0c-10.1,5.7-20.1,11.4-30,17.3c-1.1,0.6-1.9,2.4-2,3.7C101.4,153,101.5,158.4,101.5,163.9z M245.6,179.4
			c0-11.2,0-22.1-0.1-33c0-0.9-1.1-2.2-2-2.7c-9.8-5.8-19.7-11.5-29.7-17.1c-1-0.6-2.9-0.7-3.9-0.1c-10,5.6-19.9,11.3-29.7,17.1
			c-1.1,0.7-2.1,2.4-2.2,3.7c-0.2,11.3-0.2,22.6,0,34c0,1.3,1.2,3.1,2.4,3.9c5.2,3.3,10.6,6.3,16,9.3c4.4,2.5,8.8,5.1,13.4,7.7
			C219.4,190.6,231.2,183.2,245.6,179.4z M204.7,209.5c-10.1-5.9-19.9-11.5-29.7-17.1c-0.8-0.5-2.4-0.3-3.3,0.3
			c-9.9,5.6-19.8,11.3-29.6,17.1c-1.1,0.6-2.1,2.4-2.1,3.6c-0.2,11.3,0,22.6-0.1,33.9c0,2,0.8,3,2.4,4c9.7,5.5,19.4,11.2,29.1,16.7
			c1.2,0.7,3.3,0.6,4.5-0.1c4.6-2.3,8.8-5.4,13.4-7.5c5.3-2.4,7.3-5.2,6.5-11.6C193.9,235,197.5,221.9,204.7,209.5z"/>
		<path class="st0" d="M135.4,179.7c8.5,0,15.5-7.1,15.5-15.6c0-8.3-7-15.3-15.3-15.3c-8.6,0-15.5,6.8-15.5,15.4
			C119.9,172.8,126.8,179.7,135.4,179.7z"/>
		<path class="st0" d="M227.2,164.3c0-8.6-6.9-15.5-15.4-15.5c-8.5,0-15.5,7.1-15.4,15.6c0,8.3,7,15.3,15.3,15.3
			C220.2,179.8,227.1,172.9,227.2,164.3z"/>
		<path class="st0" d="M173.5,245.8c8.6,0,15.4-6.8,15.4-15.5c0-8.4-6.9-15.3-15.2-15.4c-8.5-0.1-15.5,6.8-15.6,15.4
			C158.1,239,164.9,245.8,173.5,245.8z"/>
		<path class="st0" d="M225,243.4c0-5.6,0.1-11.2,0-16.8c-0.1-2.7,0.9-4.5,3.3-5.9c9.9-5.6,19.8-11.3,29.7-17.1
			c2.4-1.4,4.4-1.3,6.7,0c9.8,5.7,19.6,11.4,29.4,16.9c2.5,1.4,3.5,3.3,3.5,6.1c-0.1,11.2-0.1,22.4,0,33.6c0,3-1.2,4.9-3.7,6.3
			c-9.6,5.5-19.2,11-28.8,16.6c-2.7,1.6-5,1.5-7.6-0.1c-9.5-5.7-19.1-11.2-28.8-16.6c-2.6-1.5-3.7-3.4-3.6-6.4
			C225.2,254.6,225,249,225,243.4z M288.6,243.7c0-4.3-0.1-8.7,0-13c0.1-2.1-0.6-3.3-2.5-4.3c-7.6-4.2-15.1-8.6-22.5-13
			c-1.7-1-2.9-1.1-4.6,0c-7.6,4.5-15.2,8.9-22.8,13.2c-1.8,1-2.3,2.2-2.2,4.1c0.1,8.7,0.1,17.4,0,26.1c0,1.9,0.5,3.1,2.3,4.1
			c7.7,4.3,15.3,8.7,22.8,13.2c1.5,0.9,2.7,1.1,4.3,0.1c7.7-4.5,15.5-8.9,23.1-13.5c1.1-0.6,2-2.4,2-3.7
			C288.7,252.4,288.6,248,288.6,243.7z"/>
		<path class="st0" d="M135.4,179.7c-8.6,0-15.4-6.9-15.4-15.5c0-8.6,6.9-15.4,15.5-15.4c8.3,0,15.3,7,15.3,15.3
			C150.9,172.7,143.9,179.7,135.4,179.7z"/>
		<path class="st0" d="M227.2,164.3c0,8.6-6.9,15.4-15.5,15.4c-8.3,0-15.3-7-15.3-15.3c0-8.5,6.9-15.5,15.4-15.6
			C220.3,148.8,227.2,155.8,227.2,164.3z"/>
		<path class="st0" d="M173.5,245.8c-8.6,0-15.5-6.9-15.4-15.5c0.1-8.5,7.1-15.4,15.6-15.4c8.3,0.1,15.2,7,15.2,15.4
			C189,239,182.2,245.8,173.5,245.8z"/>
		<path class="st0" d="M261.2,237.2c6.5-5.8,13.1-6.2,17.7-1.2c4.1,4.4,3.9,11.3-0.4,15.5c-4.8,4.7-11.2,4.1-17.2-1.5
			c-6.7,5.8-13,6.2-17.7,1.1c-4-4.4-3.9-11.3,0.4-15.5C248.8,230.9,255.5,231.5,261.2,237.2z"/>
	</g>
</g>
</svg>
