<?xml version="1.0" encoding="utf-8"?>
<!-- Generator: Adobe Illustrator 24.1.0, SVG Export Plug-In . SVG Version: 6.00 Build 0)  -->
<svg version="1.1" id="Capa_1" xmlns="http://www.w3.org/2000/svg" xmlns:xlink="http://www.w3.org/1999/xlink" x="0px" y="0px"
	 viewBox="0 0 400 400" style="enable-background:new 0 0 400 400;" xml:space="preserve">
<style type="text/css">
	.st0{fill:#FFFFFF;}
	.st1{opacity:0.5;fill:#FFFFFF;}
</style>
<g id="aU7AaT.tif">
	<g>
		<path class="st0" d="M189.4,267.1c-26.2-15.4-42.5-36.1-42.4-67.3c0.1-31,16.4-51.5,41.7-66.3c-7.5-6.8-15.1-12.9-21.7-19.9
			C156,102,150.5,87.7,148.4,72c-0.5-4.1,0.5-7.4,4.9-8.5c3.7-0.9,7.1,1.7,7.6,6.6c2.7,26.1,19.1,42.1,40,55
			c20.9-12.8,35.7-29.7,38.3-55.1c0.4-4.1,2.5-6.9,7.1-6.6c4,0.3,6,3.5,5.4,8.5c-2.8,23.6-14.2,42.1-33.1,56.3
			c-1.8,1.4-3.7,2.8-6.4,4.8c25.2,15.6,41,36.5,40.9,66.9c-0.1,30.5-15.6,51.6-40,66.4c7.8,7.7,15.8,14.5,22.6,22.4
			c10,11.5,14.4,25.6,16.1,40.6c0.5,3.9-1,7-5.4,7.4c-4.7,0.5-6.7-2.4-7.2-6.5c-1.4-11.9-4.6-23.5-12.6-32.5
			c-7.1-8-15.8-14.6-23.9-21.6c-0.7-0.6-2.6-0.7-3.4-0.2c-18.4,11.8-33.6,26.2-37.6,49c-0.4,2.1-0.6,4.3-1,6.4
			c-0.7,3.9-3.1,5.9-7.1,5.3s-5.9-3.4-5.3-7.1c1-6.2,2.1-12.5,4.1-18.4c5.9-17.8,18.4-30.5,33.1-41.2
			C186.5,269.1,187.6,268.4,189.4,267.1z M240.2,200.3c0.4-0.1,0.9-0.2,1.3-0.3c-2-8.3-3.2-16.9-6.2-24.9
			c-6-15.7-19.6-24.7-32.9-33.5c-0.9-0.6-2.9-0.3-3.9,0.3c-5,3.2-9.9,6.7-14.8,10.1c-25.7,18.5-28.5,48.9-19.6,71.6
			c5.3,13.5,16.1,22.1,27.5,30c9,6.3,8.9,6.3,17.6,0.1c1.2-0.9,2.4-1.7,3.6-2.6C230.2,238.6,240.6,222.4,240.2,200.3z"/>
		<path class="st1" d="M165.5,323.9c-0.2-5.2,2-6.9,7.1-6.8c18.3,0.3,36.6,0.3,54.9,0c4.9-0.1,7.2,1.4,7,6.7
			C211.7,323.9,188.7,323.9,165.5,323.9z"/>
		<path class="st1" d="M165.7,76.7c22.8,0,45.5,0,68.2,0c0.1,6.5,0,6.7-6.1,6.7c-18.4,0-36.9-0.2-55.3,0.1
			C167.6,83.6,165.4,82.1,165.7,76.7z"/>
		<path class="st1" d="M224.9,301.7c-16.5,0-32.8,0-49.5,0c2.1-4.4,4.5-7.1,10-6.9c10.1,0.5,20.2,0.1,30.4,0.1
			C221.3,295,222.1,295.5,224.9,301.7z"/>
		<path class="st1" d="M175.9,98.8c15.1,0,29.6,0,44,0c1.5,0,2.9,0.1,4.8,0.2c-2,4.4-4.3,6.8-9.4,6.6c-9.8-0.4-19.6-0.4-29.4,0
			C181,105.9,178.2,103.9,175.9,98.8z"/>
		<path class="st1" d="M164,209c-0.9,5.5,1.3,6.9,6.5,6.8c19.9-0.3,39.8-0.1,59.7-0.1c5.8,0,6.3-0.7,5.2-6.7
			C211.6,209,187.8,209,164,209z M164.2,186.9c-0.3,2.2-0.6,4.1-0.9,6.2c24.7,0,48.9,0,73.5,0c-0.4-2.2-0.7-4.1-1-6.2
			C211.9,186.9,188.4,186.9,164.2,186.9z M229.6,170.9c-2.2-4.3-4.2-6.9-9.5-6.7c-13.4,0.4-26.9,0.4-40.3,0.1
			c-5.1-0.1-7.4,2.3-9,6.7C190.5,170.9,209.8,170.9,229.6,170.9z M172.1,231.2c4,6.7,4,6.7,10.6,6.7c11.8,0,23.6-0.3,35.4,0.1
			c5.3,0.2,7.7-2.5,10.1-6.9C209.3,231.2,190.9,231.2,172.1,231.2z"/>
		<path class="st1" d="M164,209c23.7,0,47.6,0,71.5,0c1.1,6,0.6,6.7-5.2,6.7c-19.9,0-39.8-0.2-59.7,0.1
			C165.3,215.9,163.1,214.5,164,209z"/>
		<path class="st1" d="M164.2,186.9c24.2,0,47.8,0,71.6,0c0.3,2.1,0.6,3.9,1,6.2c-24.6,0-48.8,0-73.5,0
			C163.6,191,163.8,189.1,164.2,186.9z"/>
		<path class="st1" d="M229.6,170.9c-19.8,0-39.1,0-58.7,0c1.6-4.4,3.8-6.8,9-6.7c13.4,0.3,26.9,0.4,40.3-0.1
			C225.3,164,227.4,166.6,229.6,170.9z"/>
		<path class="st1" d="M172.1,231.2c18.8,0,37.2,0,56.1,0c-2.4,4.3-4.7,7.1-10.1,6.9c-11.8-0.4-23.6-0.1-35.4-0.1
			C176.2,237.9,176.2,237.9,172.1,231.2z"/>
	</g>
</g>
</svg>
