<?xml version="1.0" encoding="utf-8"?>
<!-- Generator: Adobe Illustrator 24.1.0, SVG Export Plug-In . SVG Version: 6.00 Build 0)  -->
<svg version="1.1" id="Capa_1" xmlns="http://www.w3.org/2000/svg" xmlns:xlink="http://www.w3.org/1999/xlink" x="0px" y="0px"
	 viewBox="0 0 41.8 41.1" style="enable-background:new 0 0 41.8 41.1;" xml:space="preserve">
<style type="text/css">
	.st0{fill-rule:evenodd;clip-rule:evenodd;fill:#FFFFFF;}
</style>
<path class="st0" d="M20.9,0C9.4,0,0,9.4,0,21.1c0,9.3,6,17.2,14.3,20c1,0.2,1.4-0.5,1.4-1s0-2.2,0-3.9c-5.8,1.3-7-2.5-7-2.5
	c-0.9-2.4-2.3-3.1-2.3-3.1c-1.9-1.3,0.1-1.3,0.1-1.3c2.1,0.1,3.2,2.2,3.2,2.2c1.9,3.2,4.9,2.3,6.1,1.7c0.2-1.4,0.7-2.3,1.3-2.8
	c-4.6-0.5-9.5-2.3-9.5-10.4c0-2.3,0.8-4.2,2.1-5.7c-0.2-0.5-0.9-2.7,0.2-5.6c0,0,1.8-0.6,5.7,2.2c1.7-0.5,3.5-0.7,5.2-0.7
	c1.8,0,3.6,0.2,5.2,0.7c4-2.7,5.7-2.2,5.7-2.2c1.1,2.9,0.4,5.1,0.2,5.6c1.4,1.5,2.1,3.3,2.1,5.7c0,8.1-4.9,9.9-9.6,10.4
	c0.8,0.7,1.4,1.9,1.4,3.9c0,2.8,0,5.1,0,5.8c0,0.6,0.4,1.2,1.4,1c8.3-2.8,14.3-10.7,14.3-20C41.8,9.4,32.5,0,20.9,0z"/>
</svg>
