<?xml version="1.0" encoding="utf-8"?>
<!-- Generator: Adobe Illustrator 24.1.0, SVG Export Plug-In . SVG Version: 6.00 Build 0)  -->
<svg version="1.1" id="Capa_1" xmlns="http://www.w3.org/2000/svg" xmlns:xlink="http://www.w3.org/1999/xlink" x="0px" y="0px"
	 viewBox="0 0 400 400" style="enable-background:new 0 0 400 400;" xml:space="preserve">
<style type="text/css">
	.st0{fill:#FFFFFF;}
</style>
<g id="RuUgdZ.tif_2_">
</g>
<g id="mQjpxV.tif">
	<g>
		<path class="st0" d="M199.4,80.3c3.3,1.2,4.4,3.7,4.3,7.1c-0.2,6.5-0.1,13.1-0.1,19.6c0,5.6-1.2,6.9-7,6.9c-0.8,0-1.6,0-2.9,0
			c0,3-0.2,5.8,0.1,8.5c0.1,0.7,1.4,1.7,2.2,1.9c17,4,28.3,15.9,31,32.9c0.4,2.4,0.4,4.9,0.4,7.3c0,21,0,42,0,63c0,1.3,0,2.5,0,4.4
			c0.9-0.7,1.4-1.1,1.9-1.5c13.2-12.3,31.4-12.2,44.3,0.5c11.1,10.9,22,21.9,32.9,32.9c12.5,12.8,12.7,32,0.5,44.3
			c-12.3,12.3-31.7,12.1-44.5-0.6c-10.7-10.6-21.3-21.3-31.9-31.9c-0.8-0.8-1.6-1.6-2.8-2.7c-0.2,4.6,0,8.8-0.6,12.8
			c-3.2,20-18.5,33.4-38.9,33.7c-21.5,0.3-42.9,0.3-64.4,0c-20.9-0.3-36-13.8-39.3-34.6c-0.1-0.8-0.4-1.5-0.6-2.3
			c0-40.8,0-81.7,0-122.5c0.3-1.7,0.6-3.4,1-5.1c3.9-16.3,14-26.4,30.1-30.6c0.9-0.2,2.3-1.1,2.4-1.7c0.3-2.8,0.1-5.7,0.1-8.6
			c-1-0.1-1.4-0.1-1.9-0.2c-6.8-0.2-7.6-1-7.6-7.7c0-6.3,0.1-12.6,0-18.9c-0.1-3.3,1-5.6,3.9-7C141.1,80.3,170.3,80.3,199.4,80.3z
			 M217.7,181.2c-41.4,0-82.6,0-123.8,0c0,25.5,0,50.7,0,76c41.3,0,82.5,0,123.8,0C217.7,231.9,217.7,206.7,217.7,181.2z
			 M218.4,267.2c-42.1,0-83.3,0-124.6,0c0,4.9-0.1,9.6,0,14.2c0.4,15.4,13.1,28.2,28.6,28.4c22.3,0.2,44.6,0.2,66.8,0
			c13.2-0.1,24.9-9.2,27.6-22.1C218.2,281.2,217.9,274.4,218.4,267.2z M93.3,171c42.1,0,83.3,0,124.7,0c0-2.7,0-5.2,0-7.6
			c-0.4-17.8-12.5-30.1-30.3-30.3c-21.2-0.2-42.5-0.2-63.7,0c-14.4,0.1-25.8,8.5-29,21.7C93.7,160,93.8,165.4,93.3,171z
			 M285.6,256.6c-10.2,10.2-20.3,20.2-30.2,30c5,5.1,10,10.6,15.5,15.6c8.5,7.8,21.4,7.2,29.4-0.9c8.1-8.2,8.5-21.2,0.5-29.7
			C295.8,266.3,290.4,261.3,285.6,256.6z M277.7,249c-4.2-4.3-8.2-9-12.7-13c-8-7.1-20.2-6.7-28.1,0.5c-8.1,7.3-9.7,19.6-3.1,28.2
			c4.1,5.3,9.2,9.8,13.6,14.5C257.7,268.9,267.7,259,277.7,249z M183.9,114.2c-19,0-37.7,0-56.5,0c0,3.2,0,6.2,0,9.2
			c18.9,0,37.6,0,56.5,0C183.9,120.2,183.9,117.3,183.9,114.2z M151,90.2c-4.9,0-9.4,0-14,0c0,4.7,0,9.3,0,13.9c4.8,0,9.4,0,14,0
			C151,99.4,151,95,151,90.2z M160.9,104.2c4.8,0,9.3,0,13.9,0c0-4.8,0-9.3,0-13.8c-4.8,0-9.3,0-13.9,0
			C160.9,95.1,160.9,99.6,160.9,104.2z M117.7,90.2c0,4.8,0,9.3,0,13.9c3.2,0,6.3,0,9.3,0c0-4.8,0-9.3,0-13.9
			C123.9,90.2,121,90.2,117.7,90.2z M193.8,104.3c0-4.8,0-9.3,0-13.9c-3.2,0-6.1,0-9.2,0c0,2.5,0,4.7,0,6.9c0,2.3,0,4.6,0,7
			C187.9,104.3,190.8,104.3,193.8,104.3z"/>
		<path class="st0" d="M124.5,200c-3.7,0-7.4,0.1-11.2,0c-3.3-0.1-5.3-2-5.2-4.8c0.2-3.1,2.1-4.6,5-4.7c7.8-0.1,15.6-0.1,23.4,0
			c2.9,0.1,4.9,1.7,4.8,4.8c-0.1,3.1-2,4.6-5,4.7C132.4,200.1,128.5,200,124.5,200z"/>
		<path class="st0" d="M124.9,238.3c3.8,0,7.7,0,11.5,0c3,0,4.9,1.5,5,4.6c0.1,2.8-1.7,4.7-4.8,4.8c-7.9,0.1-15.8,0.1-23.7,0
			c-2.9,0-4.5-1.7-4.7-4.6c-0.2-2.7,1.8-4.7,4.9-4.7C117,238.3,120.9,238.3,124.9,238.3z"/>
		<path class="st0" d="M124.6,223.9c-3.7,0-7.4,0.1-11.2,0c-3.3-0.1-5.3-1.9-5.4-4.7c0-2.8,1.9-4.7,5.3-4.8c7.6-0.1,15.1-0.1,22.7,0
			c3.4,0,5.3,1.8,5.3,4.7s-1.8,4.7-5.3,4.7C132.3,223.9,128.5,223.9,124.6,223.9z"/>
	</g>
</g>
</svg>
