<?xml version="1.0" encoding="utf-8"?>
<!-- Generator: Adobe Illustrator 24.1.0, SVG Export Plug-In . SVG Version: 6.00 Build 0)  -->
<svg version="1.1" id="Capa_1" xmlns="http://www.w3.org/2000/svg" xmlns:xlink="http://www.w3.org/1999/xlink" x="0px" y="0px"
	 viewBox="0 0 400 400" style="enable-background:new 0 0 400 400;" xml:space="preserve">
<style type="text/css">
	.st0{fill:#FFFFFF;}
	.st1{opacity:0.5;fill:#FFFFFF;}
</style>
<g id="aU7AaT.tif">
	<g>
		<path class="st0" d="M326.6,130.6c-3.2-3.3-6.6-2.7-9.7,0c-19.1,16.9-41.4,19.3-65.5,14.6c-6.6-23.6-7.9-46.5,7.8-67.6
			c3-3.9,2.2-8.2-1.1-10c-4-2.2-7-0.4-9.4,2.9c-9.1,13-14.7,27.2-14.5,43.2c0.1,9.6,1.6,19.3,2.5,29.3c-19.4-4.2-37.4-3.7-53.6,4.1
			c3.2,3.2,6.3,6.3,9.5,9.5c8.2-3.2,17.6-4.6,27.9-3.4c5.9,0.8,11.9,1.6,17.7,2.6c1.1,0.2,2.8,1.4,3.1,2.4
			c3.8,15.5,7.7,31.3,1.5,46.9c-3.2,7.9-8.2,15.1-12.3,22.5c-0.4-0.2-0.8-0.5-1.2-0.7c-14.7,16.5-33.3,21.4-54.6,18.8
			c-1.5-0.2-2.9-0.4-4.4-0.5c-10.6-1.3-10.5-1.3-12.9-12c-3-13.5-5.2-27.2,0.1-40.7c4.6-11.7,12.8-22.8,24-30.3l-9-9
			c-4,2.9-7.8,6.3-11.5,10.3c-21.2,22.9-23.2,49.2-14.4,78.2c-2.2-0.3-3.5-0.5-4.8-0.6c-18.1-2.1-35.9-1.2-52.3,7.9
			c-5.5,3-10.5,6.9-15.5,10.8c-2.9,2.3-3.4,5.7-0.9,8.8c2.5,3.2,5.7,3.3,8.8,0.9c1.7-1.3,3.4-2.8,5.1-4
			c18.4-14.1,39.3-14.4,60.8-10.6c0.9,0.2,2.3,1.5,2.4,2.4c1.2,10.6,3.2,21.4,3,32.1c-0.2,12-5.7,22.7-12.7,32.4
			c-2.4,3.4-2.9,6.8,0.9,9.7c3.5,2.7,6.7,1.4,9-1.8c8.9-12.2,15.2-25.5,15.6-40.8c0.3-10.4-0.9-20.8-1.5-31.8
			c28,5.6,53.7,0.6,74.4-21.8c20.7-22.3,23.2-48.4,15.2-76.9c3.3,0.4,5.7,0.6,8,0.8c23.5,2.4,44.4-3.5,62.5-19
			C328.6,137.3,329.3,133.5,326.6,130.6z"/>
		<path class="st1" d="M90.7,267.6c3.4-4,6.1-3.7,9.8-0.2c13.3,12.6,26.7,25,40.4,37.2c3.7,3.2,4.3,5.9,0.6,9.7
			C124.7,298.9,107.8,283.3,90.7,267.6z"/>
		<path class="st1" d="M258.3,85.8c16.8,15.4,33.5,30.8,50.2,46.2c-4.3,4.9-4.5,4.9-9,0.8c-13.5-12.5-27-25.1-40.8-37.4
			C255,92.2,254.4,89.6,258.3,85.8z"/>
		<path class="st1" d="M149.5,291.5c-12.1-11.2-24.1-22.2-36.4-33.5c4.5-1.8,8.1-2.2,12,1.7c7.1,7.2,14.8,13.8,22.3,20.7
			C151.4,284.1,151.6,285,149.5,291.5z"/>
		<path class="st1" d="M250.8,109c11.1,10.2,21.8,20,32.4,29.8c1.1,1,2.1,2,3.4,3.4c-4.5,1.9-7.8,2.1-11.4-1.5
			c-6.9-6.9-14.2-13.6-21.6-19.9C249.8,117.7,249.1,114.3,250.8,109z"/>
	</g>
</g>
<path class="st0" d="M172.7,129.1c0.6,2-0.2,3.9-2.1,4.7c-2,0.8-3.8,0.2-4.9-1.9c-2.2-3.9-4.4-7.9-6.5-12c-2.5-4.5-4.9-9-7.2-13.4
	c-1.4-2.6-1.1-4.7,1.1-5.8c2-1.1,4-0.4,5.4,2.1c4.6,8.3,9.1,16.7,13.7,25.1C172.2,128.3,172.5,128.7,172.7,129.1z"/>
<path class="st0" d="M187,133.4c-2.6,0.8-4.8-1.1-4.9-4.2c0-2.8,0.2-5.7,0.4-8.4c0.3-6.4,0.5-13,0.8-19.4c0.2-3.1,1.5-4.6,3.9-4.5
	c2.4,0.1,3.7,1.7,3.6,4.8c-0.4,9.2-0.8,18.5-1.1,27.6C189.6,131.1,188.9,132.6,187,133.4z"/>
<path class="st0" d="M132.9,125.2c1.6,0.5,2.9,0.5,3.8,1.2c8,4.6,16.1,9.4,24.1,14.1c2.4,1.5,3.1,3.5,1.8,5.5
	c-1.2,2-3.3,2.4-5.8,0.9c-8-4.7-16.1-9.5-24.1-14.2c-1.5-0.9-2.7-2.1-2.2-3.9C131,127.7,132.1,126.6,132.9,125.2z"/>
<path class="st1" d="M167.4,182c17.4,16,35,32.2,52.6,48.4c-3.3,5.2-4.1,5.3-8.4,1.4c-14.6-13.5-29.1-27.1-44-40.4
	C163.7,188,163.1,185.5,167.4,182z"/>
<path class="st1" d="M182.6,165.9c17.8,16.4,35.2,32.4,52.7,48.5c-1.2,1.7-2.2,3.3-3.5,5.2c-18.1-16.7-35.9-33-54.1-49.8
	C179.3,168.5,180.8,167.2,182.6,165.9z"/>
<path class="st1" d="M241.5,198.4c-14.6-13.4-28.8-26.5-43.2-39.8c4.2-2.2,7.4-2.4,11.2,1.2c9.7,9.3,19.5,18.5,29.7,27.2
	C243,190.4,242.8,193.8,241.5,198.4z"/>
<path class="st1" d="M158.4,203.8c13.8,12.7,27.4,25.2,41.3,38c-4.7,1.5-8.3,2-12.1-1.8c-8.4-8.3-17.3-16.1-26-24
	C156.8,211.5,156.8,211.5,158.4,203.8z"/>
</svg>
