<?xml version="1.0" encoding="utf-8"?>
<!-- Generator: Adobe Illustrator 24.1.0, SVG Export Plug-In . SVG Version: 6.00 Build 0)  -->
<svg version="1.1" id="Capa_1" xmlns="http://www.w3.org/2000/svg" xmlns:xlink="http://www.w3.org/1999/xlink" x="0px" y="0px"
	 viewBox="0 0 400 400" style="enable-background:new 0 0 400 400;" xml:space="preserve">
<style type="text/css">
	.st0{fill:#FFFFFF;}
</style>
<g id="Etd8Cw.tif">
	<g>
		<path class="st0" d="M348.9,132.2c-4.1,4.2-8.3,8.4-12.4,12.6c-3.7,3.7-7.5,7.3-11,11.1c-2.8,2.9-6,3.6-9.8,3
			c-4.5-0.8-8.6-2.7-12.6-4.8c-9.6-5.1-18.5-11.3-27.5-17.5c-2.3-1.6-4.6-3.2-7.2-4.7c0.5,0.7,0.9,1.3,1.4,2
			c6.5,9.9,13.2,19.8,19.5,29.9c2.8,4.4,5,9.2,6.1,14.3c0.9,4.3,0.1,7.9-3.2,11.1c-7.2,6.9-14.2,13.9-21.1,21.1
			c-3.2,3.3-6.8,4.1-11.1,3.2c-4.4-1-8.4-2.9-12.4-5c-10.3-5.6-19.9-12.3-29.5-19c-1.4-1-2.8-1.9-4.4-2.7c0.3,0.4,0.6,0.9,0.9,1.3
			c6.1,9.1,12.2,18.1,18.1,27.3c3.4,5.3,6.3,10.8,7.8,17c0.4,1.5,0.5,3.1,0.5,4.7c0,2.2-0.9,4.1-2.5,5.7
			c-7.8,7.7-15.5,15.5-23.3,23.3c-2.6,2.6-5.8,2.8-9.1,2.3c-4.1-0.7-7.9-2.4-11.5-4.3c-9.9-5.1-18.9-11.4-28-17.7
			c-2.4-1.7-4.8-3.4-7.5-4.8c1.9,2.8,3.9,5.6,5.8,8.4c6.3,9.1,12.6,18.2,17.5,28.1c1.9,3.8,3.5,7.7,3.9,12c0.2,3.1-0.7,5.7-2.9,7.9
			c-7.5,7.4-14.9,14.8-22.3,22.3c-2.5,2.6-5.5,3.4-9,2.9c-5.3-0.8-10.1-3.2-14.8-5.7c-10.7-5.9-20.6-13-30.7-20
			c-10.9-7.6-21.5-15.4-33.2-21.9c-3.8-2.1-7.8-3.6-11.8-5.3c-4.9-2-6.4,0.1-6.5,0.2c-1.5,1-2.8,1-3.7-0.1c-1-1.1-0.8-2.4,0.5-3.8
			c0.4-0.4,0.8-0.8,1.3-1.3c1.3-1.3,16-15.7,20.5-20.6c3.4-3.7,7.3-4.5,11.8-3.2c3.6,1.1,7.1,2.5,10.5,4.1c9.6,4.8,18.3,11,27.1,17
			c2.7,1.9,5.4,3.7,8.3,5.5c-0.3-0.4-0.5-0.8-0.8-1.2c-5.5-8.2-11.1-16.3-16.5-24.6c-3.4-5.1-6.4-10.5-8.5-16.3
			c-1.1-3-2.1-6.1-1.3-9.3c0.4-1.6,1.1-3.4,2.3-4.5c7.7-7.9,15.5-15.6,23.3-23.4c2.8-2.8,6.4-3.1,9.9-2c4.1,1.3,8.3,2.8,12.1,4.8
			c10.9,5.6,20.8,12.9,30.9,19.9c1,0.7,2.1,1.4,3.3,2c-1.1-1.6-2.2-3.1-3.3-4.7c-6.6-9.5-13.3-19-18.8-29.3c-2.2-4.1-4.2-8.3-5-13
			c-0.7-3.8,0.2-7,3.1-9.9c7.3-7.1,14.5-14.3,21.6-21.6c2.9-3,6.2-3.8,10.1-3.1c5.2,1,9.9,3.3,14.5,5.9c10.8,6,20.9,13.2,31,20.3
			c0.4,0.3,0.8,0.5,1.4,0.7c-0.2-0.4-0.5-0.8-0.7-1.2c-7.1-10.1-14.3-20.2-20.3-31c-2.5-4.5-4.8-9.1-5.9-14.2
			c-0.8-4.1,0-7.6,3.2-10.7c7-6.7,13.8-13.6,20.6-20.5c1.9-1.9,3.8-3.6,6.5-4.2c1.2,0,2.4,0,3.6,0c1.7,0.5,3.5,0.9,5.1,1.4
			c5.6,1.9,10.8,4.7,15.8,8c10,6.5,19.7,13.3,29.6,19.9c9.4,6.2,18.8,12.4,28.3,18.5c4.1,2.6,8.4,4.7,13.2,5.6
			c1.5,0.3,3.3,0.2,4.6-0.4c2.4-1.1,2.9-1.3,4.7,0.6C348.9,131,348.9,131.6,348.9,132.2z M61.1,264.6c0.2,0.1,0.3,0.2,0.4,0.3
			c5.8,1.4,11.2,3.9,16.1,7.1c10.9,7,21.6,14.2,32.3,21.5c9.8,6.6,19.3,13.6,29.7,19.3c3.9,2.1,7.8,4.1,12.2,5.1
			c2.4,0.5,4.4,0.2,6.3-1.8c5-5.3,10.3-10.4,15.4-15.5c0.4-0.4,0.8-0.8,1.2-1.3c-1.6-0.5-3.1-0.9-4.5-1.4c-6.4-2.3-12.4-5.7-18-9.5
			c-12.4-8.3-24.7-16.8-37-25.2c-7.8-5.3-15.6-10.7-24.2-14.6c-2.7-1.2-5.7-2-8.6-2.7c-1.6-0.4-3,0.2-4.2,1.4
			c-5.4,5.5-10.9,11-16.4,16.4C61.7,264,61.4,264.3,61.1,264.6z M237.4,88.5c-0.3,0.2-0.4,0.3-0.6,0.4c-5.7,5.7-11.5,11.4-17.1,17.2
			c-0.7,0.7-1,1.9-1.2,2.9c-0.1,1,0.1,2.2,0.4,3.2c1.4,5.3,3.8,10.1,6.8,14.7c6.6,10.2,13.4,20.2,20.1,30.2
			c2.4,3.6,4.6,7.5,7.7,10.5c3.1,3,7.1,5,10.8,7.3c5.6,3.5,11.3,7,17.7,9.2c1.7,0.6,3.6,0.9,5.4,1c2.2,0.1,3.4-1.1,3.4-3.4
			c0-0.7,0-1.4-0.2-2.1c-1-2.9-1.6-5.9-3.1-8.5c-4.2-7.3-8.4-14.6-13.1-21.6c-8.2-12.4-16.9-24.5-25.2-36.9
			C244.4,105.2,239.7,97.5,237.4,88.5z M229.5,244.7c-2.3-0.8-4.4-1.4-6.4-2.2c-7-2.9-13.5-6.8-19.7-11c-12.4-8.4-24.8-17-37.2-25.5
			c-7.1-4.8-14.2-9.5-22.1-12.8c-2.1-0.9-4.4-1.6-6.7-1.9c-3.6-0.5-5.3,1.2-4.5,4.7c0.8,3.3,1.9,6.6,3.3,9.6
			c3.8,8.1,8.9,15.4,13.9,22.7c0.3,0.4,0.7,0.8,1.2,1.1c7.5,5.3,15,10.5,22.6,15.7c7.9,5.4,15.7,10.8,24.3,14.9
			c3,1.4,6.3,2.3,9.5,3.3c1.7,0.5,3.3-0.1,4.6-1.5c2.1-2.2,4.3-4.3,6.4-6.4C222.3,251.9,225.9,248.4,229.5,244.7z M128,197.8
			c-6.1,6.1-12,12-17.9,18c-0.6,0.6-1,1.7-0.9,2.6c0.3,2.1,0.5,4.3,1.3,6.2c2.3,4.9,4.5,10,7.5,14.5c8.2,12.6,16.8,24.9,25.3,37.3
			c0.2,0.4,0.6,0.7,0.9,0.9c6.5,4.1,13,8.3,19.7,12.3c3.8,2.3,7.9,4.2,12.4,4.9c3.9,0.7,5.8-1.1,4.9-5c-0.6-2.7-1.5-5.5-2.7-8
			c-3.6-7.9-8.4-15.1-13.2-22.2c-7.9-11.6-16.1-23.1-23.9-34.8C135.9,216.1,130.6,207.7,128,197.8z M284.3,190
			c-1.6-0.5-3.1-0.8-4.5-1.4c-5-2.4-10.2-4.6-14.8-7.5c-11.1-7.1-21.8-14.7-32.7-22c-9.1-6-18.3-11.9-27.5-17.7
			c-3.7-2.3-7.6-4-12-4.7c-4.3-0.7-5.9,1-5.2,5.2c0,0.1,0,0.3,0.1,0.4c1,2.7,1.8,5.6,3,8.2c3.9,8.2,9,15.7,14.1,23.2
			c0.3,0.4,0.8,0.8,1.2,1.1c5.8,4,11.5,8.1,17.3,12.1c8.9,6.1,17.7,12.4,27.4,17.4c3,1.6,6.2,2.8,9.4,3.9c3,1.1,5.8,0.8,7.8-2
			c0.5-0.8,1.3-1.3,2-2C274.7,199.6,279.4,194.9,284.3,190z M338.8,135.5c-2.8-1.1-5.7-1.8-8.2-3.2c-5.8-3.1-11.6-6.1-17-9.7
			c-12.1-8-24-16.4-36-24.6c-7.4-5.1-14.9-10.1-23.2-13.7c-2.4-1.1-5-1.9-7.6-2.3c-3.5-0.6-5.1,1.1-4.4,4.5c0.6,3,1.5,6,2.8,8.7
			c3.9,8.5,9.2,16.2,14.4,23.9c0.3,0.4,0.7,0.7,1.1,1c7.8,5.4,15.5,10.9,23.3,16.2c7.7,5.3,15.4,10.6,23.9,14.5
			c3,1.4,6.3,2.3,9.5,3.2c1.6,0.5,3.1-0.1,4.3-1.4c5.4-5.5,10.9-10.9,16.3-16.3C338.3,136,338.6,135.7,338.8,135.5z M182.6,143.3
			c-0.2,0.2-0.5,0.4-0.7,0.6c-5.1,5.1-10.1,10.4-15.4,15.3c-2.6,2.4-3,4.9-2.1,8c0.3,0.9,0.5,1.9,0.9,2.8c2.4,4.7,4.4,9.6,7.3,13.9
			c8.3,12.7,17,25.1,25.5,37.7c0.3,0.4,0.7,0.8,1.2,1.1c5.6,3.6,11.1,7.3,16.8,10.7c4.5,2.7,9.1,5.1,14.3,6.2c4.6,1,6.4-0.8,5.6-5.4
			c0-0.3-0.1-0.6-0.2-0.9c-1.2-5-3.4-9.5-6.2-13.8c-7.4-11.4-15-22.6-22.6-33.9C197.9,172.1,187.6,159.2,182.6,143.3z"/>
	</g>
</g>
</svg>
