<?xml version="1.0" encoding="utf-8"?>
<!-- Generator: Adobe Illustrator 24.1.0, SVG Export Plug-In . SVG Version: 6.00 Build 0)  -->
<svg version="1.1" id="Capa_1" xmlns="http://www.w3.org/2000/svg" xmlns:xlink="http://www.w3.org/1999/xlink" x="0px" y="0px"
	 viewBox="0 0 60 60" style="enable-background:new 0 0 60 60;" xml:space="preserve">
<style type="text/css">
	.st0{fill:#00CFFF;}
</style>
<g>
	<path class="st0" d="M51.2,28.8c-2.1-0.3-3.7,1.2-3.7,3.5c0,5.1,0,0.5,0,5.6c0,2.3-1.2,3.6-3.5,3.6c-12.6,0-15.3,0-27.9,0
		c-2.3,0-3.5-1.2-3.5-3.6c0-12.6,0-15.2,0-27.8c0-2.4,1.2-3.6,3.6-3.6c5.1,0,0.5,0,5.6,0c2.1,0,3.5-1.3,3.5-3.3
		c0-1.9-1.4-3.1-3.5-3.1c-6.3,0-2.8,0-9.1,0c-3.9,0-6.6,2.7-6.6,6.6c0,14.9,0,19.7,0,34.6c0,2.2,0.8,4.1,2.7,5.4
		c0.9,0.6,1.9,0.8,2.9,1.3c15.5,0,21,0,36.5,0c3.1-0.7,5-2.6,5.7-5.7c0-6.9,0-4,0-10.9C53.4,30.1,52.7,29,51.2,28.8z"/>
	<path class="st0" d="M50.7,0.1c-5.4,0-10.8-0.1-16.2,0c-1.9,0-3.1,1.5-3,3.4c0.1,1.7,1.5,2.9,3.4,3c2.6,0,5.2,0,8,0
		c-0.3,0.4-0.5,0.6-0.7,0.7c-9.4,9.4-5.8,5.7-15.1,15.1c-0.6,0.6-1.1,1.4-1.3,2.2c-0.3,1.4,0.4,2.7,1.7,3.3c1.3,0.7,2.7,0.4,4-1
		c9.1-9.1,5.3-5.3,14.4-14.4c0.5-0.5,0.9-0.9,1.6-1.5c0,2.9,0,5.4,0,8c0,2.3,1.7,3.8,3.8,3.4c1.4-0.3,2.1-1.3,2.6-2.6
		c0-5.5,0-10.9,0-16.4C53.9,1.7,53.2,0.1,50.7,0.1z"/>
</g>
</svg>
