<?xml version="1.0" encoding="utf-8"?>
<!-- Generator: Adobe Illustrator 24.1.0, SVG Export Plug-In . SVG Version: 6.00 Build 0)  -->
<svg version="1.1" id="Capa_1" xmlns="http://www.w3.org/2000/svg" xmlns:xlink="http://www.w3.org/1999/xlink" x="0px" y="0px"
	 viewBox="0 0 1048.6 455.3" style="enable-background:new 0 0 1048.6 455.3;" xml:space="preserve">
<style type="text/css">
	.st0{fill:#FFFFFF;}
	.st1{opacity:0.25;fill:#FFFFFF;}
</style>
<g>
	<g>
		<g>
			<g>
				<path class="st0" d="M459.2,46c3.5,1.4,7,3.5,10.6,6.3l-4.3,5.3c-3.1-2.5-6.1-4.3-8.9-5.3c-2.8-1.1-6.1-1.6-9.7-1.6
					c-8.6,0-15.6,3.3-21,9.9s-8.1,16.7-8.1,30.4c0,8.9,1.2,16.3,3.7,22.4c2.5,6,5.9,10.5,10.2,13.4c4.3,2.9,9.2,4.3,14.7,4.3
					c4.4,0,8-0.6,11.1-1.9c3-1.3,6.1-3.2,9.2-5.7l4.1,5.2c-6.7,6.3-14.9,9.5-24.7,9.5c-7.1,0-13.4-1.8-19-5.5
					c-5.6-3.6-9.9-9-13.1-16.1s-4.7-15.6-4.7-25.7c0-10,1.6-18.6,4.9-25.7s7.7-12.4,13.3-16c5.6-3.6,11.8-5.4,18.7-5.4
					C451.4,43.9,455.7,44.6,459.2,46z"/>
				<path class="st0" d="M524.7,129c0.9,1.6,2.4,2.8,4.5,3.6l-1.7,5.5c-3.2-0.6-5.7-1.8-7.4-3.6c-1.7-1.8-2.9-4.5-3.4-8.1
					c-4.8,7.8-12,11.7-21.7,11.7c-6.7,0-11.9-1.9-15.8-5.7c-3.9-3.8-5.8-8.8-5.8-15.1c0-7.2,2.6-12.7,7.7-16.7
					c5.1-3.9,12.2-5.9,21.3-5.9h13.3V88c0-5.6-1.2-9.7-3.7-12.2s-6.6-3.8-12.4-3.8c-5.3,0-11.6,1.3-18.9,4l-2-5.9
					c7.8-3.1,15.1-4.7,22-4.7c15.2,0,22.8,7.4,22.8,22.1v33.6C523.3,124.8,523.8,127.4,524.7,129z M515.6,119.6v-19.2h-12.1
					c-7.1,0-12.5,1.4-16.3,4.1c-3.7,2.8-5.6,6.9-5.6,12.4c0,4.8,1.3,8.5,3.9,11.1c2.6,2.6,6.2,3.9,10.8,3.9
					C504.6,131.8,511.1,127.8,515.6,119.6z"/>
				<path class="st0" d="M590,71.1c3.3,3.7,5,9,5,15.7v49.8h-7.7V87.9c0-5.6-1.1-9.7-3.3-12.3c-2.2-2.6-5.5-3.9-9.9-3.9
					s-8.4,1.2-11.8,3.7c-3.4,2.4-6.7,6-9.8,10.7v50.5h-7.7V66.9h6.7l0.8,11.9c2.8-4.2,6.2-7.4,10.1-9.8c3.9-2.4,8.3-3.5,13.2-3.5
					C581.9,65.5,586.7,67.3,590,71.1z"/>
				<path class="st0" d="M650.5,67.1c3.1,1.1,6.1,2.9,9.1,5.4l-3.9,5.1c-2.3-1.9-4.7-3.2-7.1-4.1c-2.4-0.9-5.2-1.3-8.3-1.3
					c-6.6,0-11.8,2.6-15.7,7.7s-5.9,12.5-5.9,22.3c0,9.7,1.9,17,5.8,21.9c3.9,4.9,9.1,7.3,15.7,7.3c3.1,0,5.9-0.5,8.5-1.5
					c2.5-1,5.1-2.4,7.7-4.4l3.7,5.2c-5.9,5-12.5,7.5-20,7.5c-6,0-11.1-1.4-15.6-4.3c-4.4-2.8-7.9-6.9-10.3-12.3
					c-2.4-5.4-3.7-11.8-3.7-19.3c0-7.4,1.2-13.8,3.7-19.4c2.4-5.6,5.9-9.8,10.3-12.9c4.4-3,9.6-4.5,15.5-4.5
					C643.8,65.5,647.3,66,650.5,67.1z"/>
				<path class="st0" d="M718.7,104.8h-46.5c0.4,9.1,2.6,15.8,6.5,20.2s8.9,6.6,15.3,6.6c3.6,0,6.9-0.6,9.7-1.7
					c2.8-1.1,5.8-2.9,9.1-5.3l3.6,4.9c-3.5,2.8-7,5-10.7,6.4c-3.6,1.4-7.7,2.1-12.1,2.1c-9.2,0-16.5-3.2-21.7-9.5
					s-7.9-15.1-7.9-26.2c0-7.4,1.1-13.8,3.4-19.4c2.3-5.6,5.5-9.9,9.7-12.9c4.2-3.1,9.1-4.6,14.7-4.6c8.9,0,15.6,3,20.3,9
					c4.6,6,6.9,14.2,6.9,24.7C718.9,101.1,718.9,103,718.7,104.8z M711.3,96.8c0-7.8-1.6-13.9-4.9-18.3c-3.2-4.4-8.1-6.6-14.5-6.6
					c-5.8,0-10.4,2.2-14,6.7c-3.6,4.4-5.5,11.2-5.9,20.3h39.2v-2.1C711.2,96.8,711.3,96.8,711.3,96.8z"/>
				<path class="st0" d="M768.2,66.3l-1.5,7.3c-2-0.5-4-0.8-6.1-0.8c-4.7,0-8.5,1.7-11.4,5.1c-2.9,3.4-5.3,8.8-7.3,16.1v42.6h-7.7
					V66.9h6.7l0.7,15.6c1.9-5.8,4.4-10.1,7.7-12.9c3.2-2.8,7.3-4.2,12.1-4.2C764.1,65.5,766.4,65.7,768.2,66.3z"/>
			</g>
		</g>
		<g>
			<path class="st0" d="M442,253.5c1.8,0.5,2.9,1.2,4,1.8c1.5,0.7,3,1.1,4.6,1.4c3.1,0.8,6.3,1.2,9.4,1.5c5.6,0,11.5-3.7,15.4-7.6
				c2-2.2,3-5.2,3.3-8.2c0-2.7,0-5.3-0.4-8.1c-0.3-1.8-1.6-3.1-2.3-4.6c-0.7-1.4-1-2.9-1.2-4.4c-0.3-2.2-1.2-7-2.3-8.9
				c-0.8-1.1-1.8-2-2.5-3.3c-1.6-2.7-1.6-6-3-8.9c-0.8-1.8-2.5-2.7-3.8-4c-2-2-4.1-4.1-5.7-6.4c-0.8-1.4-1.5-2.9-1.6-4.5
				c1.2-0.4,2.5-0.3,3.6,0c0.1,0.4,0.3,0.8,0.4,1.2c0.7,2.9,6.1,8.7,9,9.6c0.8,0.3,1.5,1.1,1.5,2c0.1,3.4,1.8,6.6,1.9,9.8
				c0,0.7,0.7,1.2,1.4,1.4c0.7-0.1,1.4-0.8,1.4-1.5c-0.3-1-0.7-1.8-1-2.7c-0.4-2.5-0.8-4.8-1.4-7.2c-0.1-0.5-0.1-1.1,0-1.6
				c0.3-0.4,0.7-0.8,1.1-1.1c0.8-0.7,1.4-1.5,2-2.2c0.5,0.5,1.1,1,1.6,1.5c-0.3,0.4-0.4,1-0.5,1.4c-0.1,1.1-0.4,2-0.5,3
				c-0.1,2.7,1,5.2,1,7.9c0,2.3-1.2,4.5-0.8,6.8c1,3.7,1.6,7.2,1.6,11.1c0.3,0.7,0.7,1.1,1.4,1.2c0.4,0,1-0.4,1.2-0.8
				c0.4-1.1-0.4-2.3-0.4-3.6c-0.1-2.2-0.5-4.2-1.1-6.4c-0.4-1.9-0.3-4,0-6c0.3-1.5,0.3-3,0.1-4.5c-0.3-2.2-0.8-4.4-0.5-6.6
				c0.1-0.4,0.4-0.8,0.5-1.2c1,1.2,1.9,2.6,2.7,4.1c0.1,2.7,0.5,5.6,0.3,8.3c-0.3,2.5,0,5.1,0.4,7.5c0.4,2.5,1,5.1,0.4,7.5
				c-0.3,2.2-1.6,4.1-1.5,6.3s0.4,4.4,0.5,6.4c0,5.3-2.6,10.7-6.8,13.8c-2,1.5-4.2,3-6.3,4.4c-3.1,2-6.6,2-10.1,2
				c-3.7-0.4-7.4-1.1-11.1-1.9c-3-1-5.9-2.5-8.6-4.1c-0.8-0.5-1.2-1.4-2-1.8c-0.3-0.1-0.5-0.1-0.8-0.1s-0.7,0-1,0.3
				c-0.4,0.4-0.3,1.1-0.1,1.6c0.3,0.5,0.8,1,1.5,1.2c2,1,4,2.2,6,3.4c3.1,1.8,12.2,3.4,15.8,3.6c0.5,0.1,1.2,0.1,1.8,0.1
				c1.4,0,2.7-0.1,4.1-0.3c1.6-0.3,3.3-0.7,4.6-1.5c2.9-1.6,7.8-5.1,10.1-7.2c2.2-2.2,3.3-4.9,4.4-7.8c0.8-2.3,1.1-4.8,0.7-7.2
				c-0.1-2-0.4-4.1-0.1-6.1c0.3-1.8,1-3.6,1.2-5.3c0.7-4-0.7-7.8-1-11.6c0-1.9,0-3.8,0.1-5.7c2,5.9,3.1,13.1,3.1,21.4
				c-0.3,1.2-0.4,2.3-0.4,3.6c0,4.5-0.1,8.3-1,12.8c-0.4,0.8-0.8,1.6-1.1,2.5c-1,1.9-1.6,3.8-3.1,5.3c-2.9,2.7-6.7,4.4-9.7,7.1
				c-3.1,2.7-7.5,3.3-11.5,3.3c-1.1,0-2.2-0.1-3.3-0.1c-3.1-0.4-15.4-2.3-17.6-4.5c-0.5-0.5-0.8-1.2-1.4-1.8
				c-0.3-0.3-0.7-0.4-1.1-0.4c-0.1,0-0.4,0-0.7,0.1c-0.7,0.3-0.7,1.2-0.4,1.8c0.3,0.7,1,1.1,1.5,1.6c0.5,0.4,1.1,1.1,1.8,1.5
				c2.9,1.6,15.8,3.7,19,4c1,0.1,1.9,0.1,2.9,0.1c2.6,0,8.6-0.7,10.8-2.5c1.2-1.1,2.5-2.3,3.8-3.3c1.2-0.7,2.5-1.5,3.7-2.3
				c1.1-0.8,2.3-1.6,3.4-2.6c-1,2.3-2.2,4.6-3.6,6.6c-0.4,0.3-0.8,0.5-1.4,0.8c-1,0.5-2.3,0.3-3,1.2c-0.5,0.8,0.1,1.9,1.1,1.9
				c-0.7,0.7-1.4,1.4-2,2c-0.7-0.1-1.5-0.3-2.2-0.3c-0.4,0-0.8,0-1.2,0.1c-2.7,0.5-5.3,1.4-8.2,1.4c-0.1,0-0.3,0-0.4,0
				c-2.9,0-5.6-0.3-8.3-0.7c-4.8-1-9.6-1.9-14.2-2.9c-5.1-1-5.5-4.2-6-8.9c-0.1-1.5-0.7-2.9-0.8-4.2c-0.1-1.5-0.1-3-0.4-4.5
				c-0.1-1-0.5-1.8-1-2.7c-1-2-1.8-4.1-2.7-6.1c-0.5-1.1-1.1-2.3-1.5-3.6c-0.1-0.7,0.1-1.6-0.3-2.5c-0.3-0.4-0.8-0.8-1.4-0.8
				c-0.3,0-0.5,0.1-0.7,0.3c-0.7,0.4-0.5,1.4-0.4,2c0.5,1.6,1,3.3,1.8,4.8c1.1,2.3,2.2,4.6,3.1,7c0.7,1.5,0.8,3.1,1,4.8
				c0.3,3.6,1.6,11.2,3.4,14.2c0.5,1.1,1.8,1.8,2.9,2c1.6,0.4,3.1,0.5,4.6,1c6.1,1.2,12.2,2.5,18.4,3.1c0.4,0,0.8,0,1.2,0s1,0,1.5,0
				c0.3,0,0.5,0,0.7,0c2.7,0.1,5.2-0.8,7.8-1.2c-3.1,1.9-6.7,3.4-10.8,4.4c-3.6-0.3-6.8-0.8-10.2-1.5c-5.1-1.1-10-1.9-15-2.9
				c-1.1-0.1-2.3,0-3.3-0.7c-0.7-1-0.5-2.3-1.1-3.4c-1.8-5.1-2.7-10.7-3.4-16c-0.4-2.7-1.5-5.3-2.7-7.8c-1-1.5-1.6-3.1-2.7-4.5
				c-0.5-0.7-1-1.5-0.7-2.3c0.5-1,1.1-1.9,1.5-2.9c0.5-1.2,1.1-2.6,1-4.1c0-1.2-0.4-2.3-0.8-3.6c-0.5-2-1.1-4.1-1.8-6.1
				c-1-3.4-1.8-6.4-2.6-9.4c-0.8-2.7-1.4-5.6-2.2-8.3c-1.4-4.2-7.9-9-11.6-11.2c0.1-1.1,0.5-2.2,1.4-3c0.8,0.4,1.6,1,2.3,1.5
				c2,1.4,4.2,2.5,5.7,4.4c1.1,1.4,2.3,2.5,3.6,3.6c1.1,1.1,1.6,2.6,1.8,4c0.5,2.2,1,4.5,1.6,6.7c0.3,1.4,0.7,2.7,1.1,4.1
				c1.4,4.1,2.2,8.2,3.4,12.3c0.5,1.5,0.8,3.1,1.4,4.6c0.5,1.6,1.8,2.7,2.6,4.2c0.8,1.4,1.2,2.9,1.9,4.4c0.8,2.2,3.4,9.7,5.5,10.7
				C437.8,252.2,439.7,253.5,442,253.5z M421.1,233.7c-0.4,1.2-1,2.5-1.5,3.6c-0.1,0.7-0.8,1-1.5,1c-1.8-0.1-3.7-1-4.6-2.5
				c-1-1.6-1-3.4-1.2-5.2c-0.7-4.5-2.7-8.7-3.8-13.1c-0.8-2.9-1.2-5.7-2.5-8.3c-0.3-0.8-0.7-1.5-1.2-2v-4.6c0.5,0.5,1.1,1,1.6,1.5
				c1.8,1.8,2.9,4,3.4,6.3c0.8,3,1.5,6,2.5,8.9c1.2,4,2.5,7.8,3.3,11.9c0.1,1.2-0.4,2.7,0.7,3.7c0.3,0.3,0.5,0.4,0.8,0.4
				c0.7,0,1.4-0.8,1.4-1.6c-0.4-3.3-1.8-8.1-2.7-11.2c-1.2-4-2.3-7.9-3.4-11.9c-1.2-5.6-3-7.4-7.2-10.8l-0.3-4c1.6,1,3.1,2,4.5,3.3
				c1.4,1.4,2.9,2.6,3.8,4.2c1.4,1.9,1.6,4.2,2.3,6.6c1.2,5.2,3,10.2,4.4,15.6c0.3,1.6,1,3.1,1.4,4.8c0.1,0.7,0.1,1.5,0.1,2.2
				C421.2,232.8,421.2,233.3,421.1,233.7z M426.8,276.1c-1.4,1.2-2.9,2.3-4.4,3.3h-7.1c1.9-0.8,3.8-1.8,5.7-2.9
				c0.7-0.5,1.5-1.1,2.2-1.6c0.8-0.7,1.8-1.5,1.9-2.6c0.4-1.4-0.1-2.9-0.5-4.2c-0.5-2-0.8-4.2-1.4-6.3c-0.4-1.6-1.1-3.3-1.2-5.1
				c0-0.8-0.1-1.8-0.1-2.6c-0.1-1.4-0.4-2.6-0.8-3.8c-0.8-1.9-1.9-3.6-3.1-5.1c-1.6-2-4.1-2.5-6.3-3.6c-1.5-0.8-3-1.9-3.6-3.6
				c-0.8-3-1-6-1.8-9c-0.4-1.6-1-3.3-1.6-4.9v-11.6c0.7,2.2,1.1,4.4,1.6,6.7c0.7,2,1.5,4.1,2.2,6.3s1.2,4.5,1.5,7
				c0.4,1.9,0.7,4.1,2.2,5.6c1.4,1.2,3,2.2,4.9,2.2c0.7,0.1,1.6,0,2,0.5c1.5,1.8,3.7,6.1,4.5,8.2c1.1,2.3,1.5,5.1,1.8,7.6
				c0.5,3.1,1.2,6.4,2,9.6c0.5,1.9,0.8,3.8,1.6,5.5c0.3,0.7,0.7,1.4,0.1,2C428.7,274.7,427.7,275.2,426.8,276.1z M421.1,273.6
				c-0.5,0.3-1.1,0.5-1.5,0.8c-3.3,2.3-6.8,3.7-10.7,4.6c-1.5-0.3-2.7-1.2-3.4-2.6c3.6-0.1,9.4-2.2,12.2-4.6c1-0.8,1.5-2.2,1.4-3.4
				c-0.3-2.3-1.2-8.3-3-10.1c-0.8-0.8-2-1.5-3-2.2c-1.1-0.8-1.9-1.8-2.9-2.5c-1.6-1.5-3.6-2.5-5.5-3.3v-3.6c1.5,0.8,3,1.4,4.5,2.2
				c2,1.1,4.1,2.5,5.2,4.6c0.1,0.7,0.5,1.2,1.2,1.4c0.1,0.1,0.1,0.1,0.3,0.1c0.5,0,1-0.4,1.2-0.7c0.1-0.7,0.1-1.4-0.3-1.8
				c-3-3.7-4.2-4.5-8.6-6.7c-1.1-0.7-2.5-1.1-3.6-1.9v-11.5c0.1,1.1,0.4,2.3,0.5,3.6c0.4,1.9,0.7,4,2.2,5.5c2.5,2.3,6.1,2.7,8.7,5.1
				c1.2,1.5,2.3,3.1,3,4.9c0.7,1.9,0.3,4,0.5,5.9c0.1,1.4,0.7,2.6,1,3.8c0.1,0.3,0.3,0.7,0.4,1.1c0.5,2.2,0.8,4.4,1.4,6.6
				c0.3,0.8,0.4,1.6,0.3,2.5c-0.1,0.8-0.7,1.4-1.2,1.8L421.1,273.6z M404.7,274.2V271c2,0,7.6-0.8,8.1-3.4c0.7-1.4,0.1-2.9-0.3-4.2
				c-1-2.2-3-3.6-4.8-4.9c-1.1-0.7-2-1.4-3-1.9V253c2.3,1.2,8.7,5.6,10.1,7.8c0.8,1.4,1,3,1.2,4.5c0.3,1.2,0.7,2.6,0.4,4
				C415.4,272.1,407.3,274.2,404.7,274.2z M405.5,268.8l-0.8-3c1,0.4,1.1,0.5,1.2,0.5c0.8,0,1.6-1,1.4-1.9c-0.5-1-1.6-1.1-2.6-1.4
				v-3.8c0.5,0.4,1,0.7,1.5,1.1c1.8,1.1,3.7,2.5,4.4,4.5c0.3,1-0.1,2.3-1.1,2.9C408.4,268.4,406.9,268.7,405.5,268.8z M410.3,187.9
				h2.5c1.1,0.8,2.3,1.6,3.8,1.6c1.5-0.1,2.9-0.7,4.2-1.4l4.1-0.3c-0.3,1.1-0.5,2.2-0.4,3.4c0.3,1.6-0.1,3.3-0.4,5.1
				c-0.3,1.5,0.3,2.9,0.5,4.4c0.7,2.5,0.8,5.1,1.5,7.5c0.7,3,2,5.7,2.7,8.7c1.2,7,2.7,10.2,5.7,16.2c0.7,1.4,1.2,2.7,1.8,4.1v8.2
				c-0.5-1.1-1-2.3-1.5-3.6c-1-2.2-1.6-4.5-2.7-6.7c-1-2.2-2.7-4.1-3.4-6.4c-1-3.4-1.9-6.8-2.7-10.2c-0.8-3.4-2-6.6-2.9-9.8
				c-0.7-2.3-1-4.6-1.5-7c-0.1-0.7-0.3-1.4-0.5-2c-0.4-0.8-1-1.6-1.8-2.2c-1.5-1-2.7-2.3-3.7-3.7s-2.5-2.2-3.8-3
				c-1.2-0.8-2.5-1.8-3.7-2.6C408.8,188,409.5,187.9,410.3,187.9z M418.8,193.6c0.3,1.1,1.5,1.2,2.3,1.2c1.5-1.2,1.1-3,0-3.7
				c-0.5-0.1-0.7-0.1-1-0.1c-0.4,0-0.8,0.1-1.1,0.4C418.5,191.9,418.5,192.9,418.8,193.6z M430.9,187.9c-0.8,2.9-1.1,5.7-0.8,8.5
				c0.3,2,0.5,4,0.5,5.9c0,2.3,0.4,4.6,1.4,6.8c0.7,1.6,1.5,3.1,1.9,4.9c0.4,1.4,0.4,2.7,0.5,4.1c0.3,2.2,1.1,4.1,1.9,6v7.5
				c-0.3-0.5-0.4-1-0.7-1.4c-1.6-3-2.9-6.3-3.7-9.7c-0.7-2.3-1-4.8-1.6-7c-1.4-4-2.2-6.8-2.9-11.1c-0.3-2.2-1.1-4.2-1-6.4
				c0.4-2.2,0.3-4.5,0.5-6.7c0.1-0.5,0.3-1,0.4-1.5L430.9,187.9L430.9,187.9z M445.7,277.6c2.2,0.4,4.5,0.7,6.7,1.4
				c-2.5,0.3-4.9,0.4-7.6,0.4h-7.1c-0.7-0.1-1.4-0.1-2-0.3c-0.3-0.1-0.7-0.1-1-0.1c-0.7,0-1.4,0.1-2,0.4h-6c0.8-0.7,1.6-1.2,2.5-1.8
				c0.8-0.7,1.2-1.8,2.2-2.3c0.3-0.1,0.4-0.1,0.7-0.1c0.5,0,1.1,0.1,1.5,0.3c1.2,0.4,2.5,0.4,3.7,0.7
				C439.9,276.5,442.8,277,445.7,277.6z M432.4,194.3c0-2.2,0.4-4.4,1-6.4h3.3c-0.7,2.7-1.1,5.6-0.7,8.5c0.1,1.9,1.9,3.1,3.1,4.2
				c1.8,1.5,2.6,3.7,3.7,5.6c1.5,2.6,4.1,4.4,6.1,6.8c0.5,0.7,1.1,1.5,1.5,2.3c-1.2-0.7-2.9-1.2-4.8-1.4c-1.9-2-3.4-2.9-4.5-4.2
				c-1.4-1.6-2.6-4.5-3.1-6.6c-0.1-0.7-0.7-1.4-1.5-1.4s-1.5,1-1.4,1.6c0.1,0.3,0.3,0.7,0.5,1c1.5,2.2,1.9,5.1,3.7,7.1
				c0.7,1,1.8,1.5,2.7,2.2c-2.6,0-4.6,1.5-5.5,3.7c0-2,0-3.8-0.7-5.3c-1.1-2.3-2.3-4.5-2.9-6.8c-0.4-2.3,0.1-4.5-0.1-6.7
				C432.7,197.1,432.4,195.6,432.4,194.3z M438.8,196.9c-0.8-1.5-0.7-3.1-0.5-4.8c0.3-1.4,0.5-2.9,0.8-4.2h3.3
				c-0.3,1.2-0.5,2.5-0.7,3.7c-0.1,0.7-0.1,1.4,0,2c0.1,1.2,0.7,2.5,1.5,3.6c1.4,1.6,2.6,3.4,3.7,5.1c1.8,2.7,4,4.9,6.1,7.1
				c2.3,2.5,6.6,11.9,7.9,15.6c1.1,2.9,1.8,5.9,2.7,8.7c1.1,3,1.8,6.3,1.4,9.4c-0.3,1.6,0.3,3.4,0.1,5.1c0,0.8-0.1,1.5,0,2.3
				c0.3,0.4,0.5,0.8,1.1,1c0.1,0.1,0.3,0.1,0.4,0.1c0.7,0,1.4-0.7,1.2-1.5c0.1-1.1-0.7-2.2-0.5-3.4c0-1.8-0.1-3.6,0.1-5.3
				c0.1-3.6-1.1-7-2.2-10.2c-0.8-2.3-1.4-4.8-2.2-7.1c-1.1-3.1-2.7-5.9-4.1-8.9c-1-2.5-2-4.9-3.8-6.8c-1.9-2.2-4.2-4.1-5.9-6.7
				c-1.4-2-2.9-4.1-4.4-6.1c-1-1.4-1-3.1-0.7-4.8c0.1-1,0.4-1.8,0.5-2.7c1.1,0,2.2,0.1,3.1,0.1c-0.3,1.5-0.5,3-0.3,4.5
				c0.4,2.3,3.7,6.8,5.3,8.6c1.6,2.2,3.8,4,5.7,6.1c1.1,1.4,1.8,3,2.5,4.8s1.5,3.6,2.5,5.3c1,1.8,2,3.7,2.6,5.9
				c0.8,2.7,1.4,5.6,2.3,8.3c0.8,2,1.6,4.1,1.9,6.3c0.4,1.9,0.3,4,0,5.9c-0.3,0.8-0.7,1.6-0.8,2.5c-0.1,0.5,0.3,1.1,0.7,1.5
				c0.3,0,0.4,0.1,0.5,0.1c0.7,0,1.4-0.4,1.5-1.1c0.1-1.1,0.1-2.2,0.4-3.1c0.4-1.9,0.4-3.8,0.1-5.6c-0.3-3.3-1.9-6.1-2.9-9.3
				c-0.7-2.3-1.1-4.8-1.8-7.1c-1-2.9-2.9-5.3-4.1-8.2c-0.8-1.8-1.2-3.7-2.2-5.5c-0.8-1.8-2-3-3.4-4.2c-2.9-2.6-6.8-7.2-8.3-10.9
				c-0.4-1.5-0.3-3.1,0.1-4.6c1.1,0.1,2,0.1,3.1,0.3c-0.1,0.4-0.1,0.8-0.1,1.2c-0.1,2.3,1.2,4.5,2.6,6.3c1.6,2.3,3.4,4.4,5.6,6.1
				c1.2,1.1,2.6,2,3.3,3.6c0.7,1.5,1,3.3,1.5,4.8c0.5,1.9,1.4,3.8,2.6,5.3c0.8,1.4,1.8,2.6,2.2,4.1c1.1,3.7,1.2,7.5,2.9,11.1
				c0.7,1.4,1.5,2.6,1.9,4.1c0.5,2.5,0.4,4.9,0.3,7.4c-0.1,1.9-0.5,4-1.6,5.6s-2.9,2.6-4.2,3.8c-1.9,1.5-4.1,2.9-6.6,3.6
				c-1,0.4-2,0.5-3.1,0.5c-1,0-2-0.1-3-0.3c-3.1,0-8.2-1.2-11.1-2.6c1.4-0.3,2.7-0.8,3.8-1.4c0.3,0.1,0.7,0.3,1,0.1
				c1,0.1,1.6-1,1.2-1.8c0.7-1,1.4-2.2,1.8-3.8c0.1,1.9,0.5,2.9,0.5,3.8s-0.3,2,0.4,2.7c0.3,0.4,0.7,0.5,1.1,0.5s0.8-0.1,1.1-0.5
				c0.4-0.8,0.1-1.6-0.1-2.3c-0.8-1.8-0.8-6.8-0.8-9c-0.1-1.6-0.4-3.3-0.8-4.9c0-3.6,0-7.2-0.4-10.8c0.4,1.2,1,2.3,1.4,3.6
				c1.1,3.7,2.5,7.2,2.9,11.2c0,2,0.3,4.1,0.3,6.1c0,1.4,0.4,2.7,0.4,4.1c0,0.8-0.3,2,0.5,2.6c0.3,0.1,0.7,0.3,1,0.3
				c0.4,0,0.8-0.1,1-0.5c0.7-0.8,0.1-2-0.1-2.9c-0.5-1.5-0.3-3.1-0.5-4.6c-0.3-1.9,0.1-4-0.3-6c-0.5-6-7.1-23.8-11.6-28.7
				c-1.6-1.8-3.6-3.3-4.9-5.3c-1.4-1.9-2.2-4-3.8-5.7C440.6,198.8,439.5,198,438.8,196.9z M467,191.8c0.5,0.4,1.1,1,1.6,1.4
				c0.7,0.5,1.4,1.2,2.2,1.5c0.1,0,0.4,0,0.7,0c0.3,0,0.5,0,0.8-0.1c0.5,0.3,1.1,0.7,1.6,1.1c-0.7,0.7-1.4,1.5-1.9,2.2
				c-0.4,0.4-1,0.8-1.4,0.8c-0.3,0-0.5-0.1-0.8-0.3c-2.6-1.6-6.8-5.6-7.9-8.3C463.7,190.6,465.5,191.1,467,191.8z"/>
			<path class="st0" d="M494,207v-15.3c0-1.1,0.5-2.2,1.4-2.9c0.3,2-0.1,3.8-0.4,5.5c-0.3,1.5,0.3,3,0.5,4.5
				c0.7,2.5,0.8,5.1,1.5,7.5c0.7,2.9,2,5.6,2.6,8.6c0.8,3.8,1.8,7.6,3.3,11.2c0.7,1.8,1.8,3.4,2.6,5.2c1.4,2.7,2.3,5.6,3.4,8.5
				c0.5,1.4,1.2,2.9,2.2,3.8c1.4,1.4,3,2.2,4.6,3.1c0.7,0.4,6.1,3.1,6.6,3.1c1,0,1.6-1.1,1.2-1.9c-0.4-0.8-1.4-1-2-1.1
				c-1.4-0.3-7.4-3.6-8.5-4.5c-1.1-1.1-1.6-2.7-2.2-4.2c-1.2-3.4-2.5-6.7-4.2-10c-1.6-3-3-6.3-3.8-9.7c-0.5-2.3-0.8-4.6-1.5-7
				c-0.7-1.9-1.5-3.7-1.9-5.6c-0.5-1.8-0.8-3.6-1-5.5c-0.3-2.2-1.2-4.2-1-6.4c0.3-2,0.3-4.1,0.5-6.1h3.3c-0.3,2.2-0.5,4.4-0.3,6.6
				c0.3,1.9,0.5,3.8,0.5,5.9c0,2.3,0.4,4.6,1.4,6.8c0.5,1.6,1.5,3.1,1.9,4.8c0.4,1.4,0.4,2.9,0.5,4.2c0.4,3.1,1.9,6.1,3.3,9
				c1.1,2.2,2.2,4.4,3.1,6.7c0.8,1.9,1.4,4,2.2,5.9c0.5,1,0.5,2,1.1,3c0.3,0.5,0.7,0.7,1.2,0.7c0.4,0,1-0.3,1.1-0.7
				c0.5-1.2-0.7-2.2-1.1-3.3c-0.7-2-1.4-4.1-2.2-6c-1.6-4.2-4-8.2-5.6-12.4c-0.5-1.2-1-2.6-1-4c0-1.6,0-3.6-0.8-5.1
				c-1-2.2-2.2-4.4-2.7-6.8c-0.4-2.2,0.1-4.5-0.1-6.7c-0.3-1.4-0.5-2.7-0.5-4.1c0-1.6,0.1-3,0.5-4.5h3.3c-0.4,2.2-0.5,4.2-0.4,6.6
				c0.3,1.9,1.9,3,3.3,4.2c1.6,1.5,2.6,3.7,3.7,5.5c1.5,2.7,4.1,4.5,6,6.8c3.8,4.1,10.1,21,10.8,27.4c0,2,0.1,4.1,0.3,6.3
				c0,0.4,0,0.8,0.1,1.2h-1.2c-0.7,0-1.4,0.1-1.9,0.4c-0.3-2.2-0.3-4.6-0.3-6.8c-0.3-3.4-1.2-6.7-2.5-9.8c-1.2-4.1-6-15.7-9.1-18.4
				c-1.2-1.2-2.7-2-3.8-3.4c-1-1.2-1.5-2.7-2.2-4.1c-0.5-0.7-0.7-1.6-1-2.5c-0.1-0.7-0.8-1.5-1.5-1.5c-0.8,0-1.5,1-1.4,1.8
				c0.1,0.3,0.3,0.5,0.4,0.8c1.6,2.2,2,5.1,3.8,7.2c1,1.2,2.6,1.8,3.7,2.9c4,3.6,10.9,20.9,11.2,27.4c0.3,1.8,0.1,3.4,0.1,5.2
				c0,1,0.5,1.9,0.4,3c0.1,0.3,0,0.7,0,1.1v1c0,1.5,0.8,2.7,2,3.4c-6.4-0.4-10.4-2.5-15.8-5.6c-1.4-0.7-2.9-1.4-3.8-2.9
				c-1-1.5-1.6-3.4-2.3-5.1c-1-2.2-1.6-4.6-2.7-6.8c-1-2.2-2.7-4-3.4-6.4c-1-3.4-1.9-6.8-2.9-10.2C496.1,213.3,494.8,210.1,494,207z
				 M495.4,243.4c-0.4-1-0.8-1.8-1.4-2.6v-8.3c0.3-1,0.5-1.9,0.5-2.9s-0.3-1.8-0.5-2.6v-11.6c0.8,3,1.6,6,2.5,8.9
				c0.4,1.6,0.8,3.1,1.4,4.8c0.5,1.5,1.8,2.7,2.6,4.1c0.8,1.4,1.2,3,1.9,4.5c0.7,1.8,3.3,8.6,4.6,9.8c1,1.1,2.3,1.5,3.6,2.3
				c2,1.1,4.1,2.5,6.3,3.4c3.7,1.6,10.1,2.7,14.1,2.9c1.6,0,3.3-0.1,4.8-0.5c1.1-0.4,2.2-1,3.3-1.5h5.3c-1.5,1.1-2.9,2-4.5,3
				c-2.5,1.6-5.6,2.2-8.5,2.2c-0.5,0-1-0.1-1.5-0.1c-7.5-0.5-13.4-2-19.7-6c-0.8-0.4-1.2-1.2-2-1.8c-0.3-0.1-0.5-0.1-0.8-0.1
				s-0.7,0.1-1,0.4c-0.4,0.3-0.3,1-0.3,1.5c0.4,0.5,1,1,1.6,1.2c2,1.1,4,2.3,6,3.4c1.9,1.2,4.2,1.6,6.4,2.2c3.1,0.5,6.3,1.2,9.4,1.5
				c0.5,0.1,1.2,0.1,1.8,0.1c1.4,0,2.7-0.1,4.1-0.3c3.6-0.5,6-2.5,8.9-4.4c1.4-1,2.6-1.9,4-2.9h4.9c-3,3-6.8,4.6-9.8,7.2
				c-3.4,3-7.1,3.3-11.5,3.3c-1.1,0-2.2,0-3.3-0.1c-4.1-0.4-8.1-1.4-12-2.2c-1.9-0.5-4.1-0.8-5.6-2.2c-0.5-0.5-0.8-1.4-1.4-1.9
				c-0.3-0.3-0.7-0.4-1.1-0.4c-0.1,0-0.4,0.1-0.7,0.1c-0.7,0.4-0.7,1.2-0.4,1.9c0.3,0.7,1,1.1,1.5,1.5c1.9,1.9,3,2.3,5.6,2.9
				c5.1,1.1,10,2.2,15.2,2.7c1,0,1.9,0,2.9,0c0.8,0,1.6,0,2.5,0c1.8-0.3,3.7-0.5,5.5-1.1c1-0.3,2-0.5,2.9-1.4
				c1.2-1.1,2.5-2.3,3.8-3.1c1.2-0.8,2.5-1.5,3.7-2.5c1.8-1.2,3.7-2.5,4.9-4.2l2.9-0.5c0.4,0,0.8,0,1.1,0.1
				c-0.5,1.5-1.1,2.7-1.9,3.7c-1.1,1-2.5,1.5-3.6,2.3c-1.8,1.1-3,2.6-4.9,3.4c-1,0.5-2.3,0.3-3,1.4c-0.5,0.8,0.3,2,1.4,1.9
				c1.1-0.3,1.9-1,3-1.2c1.6-0.7,2.7-2.2,4.1-3.3c1.2-0.8,2.6-1.4,3.8-2c1.4-0.8,2-2,2.6-3.4c0.1-0.5,0.4-1,0.5-1.4
				c0.5,0.7,0.8,1.5,0.8,2.3v4.5c-0.3,0.3-0.4,0.4-0.8,0.5c-1.1,0.5-2.3,0.8-3.4,1.1c-1,0.3-1.9,0.1-2.7,0.7c-0.8,0.6-0.7,2,0.3,2.3
				c0.1,0,0.3,0.1,0.5,0.1c0.5,0,1-0.3,1.5-0.5c1.5-0.7,3.1-0.8,4.6-1.2v3.1c-1.1,0.4-2.2,0.7-3.4,1c-0.4,0-1,0-1.5,0
				c-0.4,0-1,0-1.5,0c-1.4-0.3-2.6-0.7-4-0.7c-0.1,0-0.4,0-0.5,0c-1.1,0.1-2.2,0.4-3.4,0.4c-1.6-0.1-3.4-0.7-5.1-0.7
				c-0.4,0-0.8,0-1.2,0.1c-2.7,0.5-5.5,1.5-8.2,1.5c-0.1,0-0.3,0-0.5-0.1c-0.3,0.1-0.5,0.1-0.8,0.1c-2.5,0-4.9-0.4-7.4-0.8
				c-4.8-0.8-9.6-1.9-14.3-2.9c-1.4-0.3-3.1-0.5-4-2c-1.1-1.8-2.5-8.6-2.7-11.1c-0.1-1.5-0.1-3-0.4-4.5c-0.3-1.8-2.9-7.1-3.7-8.7
				c-0.5-1.2-1.1-2.3-1.5-3.6c-0.1-0.8,0.1-1.6-0.3-2.5c-0.3-0.5-0.8-1-1.4-1c-0.3,0-0.5,0.1-0.7,0.3c-0.8,0.4-0.5,1.4-0.4,2
				c0.5,1.6,1,3.4,1.8,4.9c1.1,2.2,2.2,4.5,3.1,6.8c0.7,1.6,0.8,3.3,1,4.9c0.3,3.6,1.8,11.3,3.4,14.2c0.5,1.1,1.8,1.6,2.9,1.9
				c1.5,0.4,3.1,0.7,4.6,1c3.8,0.8,7.8,1.6,11.6,2.3c2.3,0.5,4.5,0.7,6.8,1c0.4,0,0.8,0,1.1,0c0.5,0,1.1,0,1.6,0c0.3,0,0.4,0,0.7,0
				c3,0,5.9-1.2,8.9-1.5c1.2,0,2.5,0.3,3.8,0.4c0.5,0,1,0,1.5,0c1.1,0,2.2,0,3.1-0.1c2.2,0,4.2,0.4,6.3,0.5c1.6,0,3.1-0.3,4.6-0.8
				v3.6c-1.1,0-2,0-3.1,0.1c-0.4,0.1-0.8,0.1-1.2,0.1c-1.4,0-2.7-0.3-4.1-0.3c-0.1,0-0.1,0-0.3,0c-1.5-0.1-3-0.1-4.5-0.1
				c-1.1,0-2.2,0-3.4,0c-0.4,0-0.8,0-1.2,0c-2.7,0-5.2,0.5-7.8,1.1c-0.8,0.1-1.8,0.4-2.7,0.4c-0.3,0-0.4,0-0.7,0
				c-2.2-0.4-4.4-0.7-6.7-0.7c-1.9-0.1-3.8-0.8-5.7-1.2c-5.1-1-10.1-1.8-15-2.7c-1.1-0.3-2.3,0-3.3-0.7c-0.7-1-0.5-2.3-1.1-3.4
				c-1.8-5.2-2.7-10.7-3.4-16C497.8,248.5,496.7,245.9,495.4,243.4z M497.7,274c-1.1,1-2.2,1.9-3.4,2.7c-0.1-0.4-0.3-0.8-0.3-1.4
				v-2.5c1-0.8,1.8-1.5,2-2.6c0.3-1.5-0.1-2.9-0.5-4.4c-0.5-2-0.8-4.1-1.4-6.3l-0.1-13.9c0.1,0.4,0.4,0.8,0.5,1.2
				c1.1,2.5,1.4,5.1,1.6,7.6c0.5,3.3,1.4,6.4,2.2,9.7c0.5,1.8,0.8,3.7,1.6,5.5c0.3,0.5,0.5,1.4,0.1,2
				C499.5,272.7,498.5,273.2,497.7,274z M558.6,279.3H520c-4.9-1.2-9.3-1.6-13.5-2.3c-1.9,0-3.3,0-4.9,1.2c-0.4,0.4-0.8,0.7-1.4,1.1
				H498c-0.8,0-1.6-0.3-2.2-0.7c1.4-1,2.7-2,4.1-3.1c0.8-0.7,1.2-1.8,2.2-2.3c0.3,0,0.4-0.1,0.7-0.1c0.5,0,1,0.3,1.5,0.3
				c1.2,0.4,2.5,0.5,3.7,0.7c4.5,0.7,11.9,1.8,16.1,3.1c1.1,0.4,2.2,0.5,3.4,0.5c0.4,0,0.8-0.1,1.2-0.1c0.1,0,0.3,0,0.4,0
				c1.6,0,3.3,0.8,5.1,0.7c1.2,0.1,2.5-0.3,3.7-0.5c1.9-0.4,3.8-0.8,5.7-1c0.4,0,1,0,1.4,0c1.4,0,2.6,0,4,0c1.1,0,2.3,0,3.4,0
				c1.8,0.3,3.4,0.1,5.2,0.4c0.3,0,0.5,0,0.7,0c1.2,0,2.5-0.1,3.6-0.1c0.1,0,0.3,0,0.5,0C561.6,278.4,560.2,279.3,558.6,279.3z
				 M509.7,194.8c-1-1.4-0.8-3.1-0.5-4.6c0.1-0.8,0.3-1.6,0.4-2.3h3.3c-0.1,0.5-0.3,1.1-0.3,1.8c-0.1,0.7-0.1,1.2,0,1.9
				c0.1,1.4,0.7,2.6,1.5,3.6c1.4,1.6,2.6,3.4,3.7,5.2c1.6,2.6,4,4.8,6.1,7c1.6,1.8,2.7,4.1,3.8,6.4c-1.2,0.5-1.9,1.8-2,3.1
				c-1.2-2.9-2.6-5.7-4.6-7.9c-1.6-1.9-3.6-3.4-4.9-5.5c-1.4-1.8-2.2-4-3.8-5.6C511.5,196.7,510.4,195.9,509.7,194.8z M522.4,241.5
				c-0.5-1.6-0.3-3.4-0.8-5.1c-1.6-6.3-4.5-12.2-7.4-17.9c-0.7-1.2-1.2-2.5-1.6-3.8c-0.1-0.7-0.8-1.2-1.5-1.2c-0.3,0-0.4,0-0.7,0.1
				c-0.7,0.3-0.7,1.2-0.4,1.9c0.4,0.8,1.1,1.5,1.5,2.3c2,4.9,4.6,9.6,6.3,14.5c1,2.7,2,5.3,2.2,8.2c0,1-0.5,2.2,0.1,3.1
				c0.1,0.4,0.7,0.7,1.1,0.7s0.8-0.1,1.1-0.5C522.8,243.2,522.6,242.3,522.4,241.5z M533.3,213.1H530c-1.1-2.5-2.2-4.9-4-6.8
				c-1.9-2.3-4.2-4.2-5.9-6.7c-1.5-2-3-4.1-4.4-6.3c-1-1.4-1-3.1-0.7-4.8l3.4-0.7c-0.1,0.8-0.1,1.8,0,2.6c0.3,1.6,1.2,3,2,4.4
				c1.1,1.5,2,2.9,3.3,4.2c1.6,2.3,3.8,4,5.6,6.1c1.2,1.4,1.9,3.1,2.6,4.8C532.5,211.1,532.9,212,533.3,213.1z M521.1,187.9h3.3
				c0,4.1,5.2,9.8,8.2,12.3c1.2,1,2.5,1.9,3.3,3.4c0.7,1.5,1,3.3,1.5,4.9c0.4,1.6,1.2,3.1,2.2,4.6H536c-0.3-0.5-0.5-1.1-0.8-1.8
				c-0.8-1.8-1.2-3.7-2.2-5.5c-0.8-1.6-2.2-3-3.4-4.2c-2.3-2-7.2-7.8-8.3-10.8C520.9,189.9,520.9,188.8,521.1,187.9z M562.6,209.2
				c0,1.4-0.7,2.6-1.8,3.3c-0.1-2.7,0-5.6-0.1-8.3c-0.3-3.4,0-6.7,0-10.1c0-1.1,0.8-2,0.7-3.1c0-0.8-0.7-1.4-1.4-1.4
				c-0.3,0-0.5,0.1-0.7,0.3c-0.8,0.5-0.8,1.6-0.8,2.5c0,1.1-0.1,2.2-0.1,3.3c0,5.9,0,11.7,0.3,17.6h-3.3c0-3.4,0.1-6.7-0.1-10.1
				c-0.1-1.8,0.3-3.6,0.1-5.3c-0.1-1.1,0.1-2.2,0.4-3.1c0.3-1-0.5-2-1.5-2c-0.1,0-0.3,0-0.3,0c-1,0.3-1.2,1.4-1.1,2
				c0.4,2.6,0.1,5.1,0,7.6c0,3,0.5,6,0.3,9.1c-0.1,0.5-0.1,1.1-0.1,1.8h-3.3c0.1-0.7,0.1-1.4,0.3-1.9c0.3-1.5,0.3-3,0.1-4.5
				c-0.3-2.2-0.8-4.4-0.5-6.7c0.3-1,1.2-1.8,1.1-3c-0.1-0.5-0.8-1.1-1.4-1.1c-0.3,0-0.4,0.1-0.7,0.1c-0.5,0.4-0.8,1.2-1,1.9
				c-0.1,1-0.5,1.9-0.5,2.9c-0.1,2.7,1,5.3,1,7.9c0,1.5-0.5,2.9-0.7,4.4h-5.2c-0.5-0.7-1.1-1.2-1.4-1.9c-1.6-2.7-1.8-6.1-3-9
				c-0.8-1.6-2.5-2.7-3.8-4c-2.2-1.9-4.1-4-5.7-6.4c-0.8-1.1-1.4-2.5-1.5-4h3.6c0.8,3.3,6,9.1,9.3,10.4c0.8,0.3,1.5,1,1.5,1.9
				c0.1,3.4,1.8,6.6,1.8,10c0.1,0.7,0.8,1.2,1.5,1.2c0.7-0.1,1.4-0.7,1.2-1.5c-0.1-1-0.7-1.8-0.8-2.7c-0.5-2.3-0.8-4.8-1.4-7.1
				c-0.1-0.5-0.1-1.1,0-1.6c0.3-0.5,0.7-0.8,1.1-1.2c1-0.7,1.5-1.9,2.5-2.6c2.9-2.6,6.6-3.8,9.7-5.9c0.5-0.3,1.1-0.5,1.8-0.8h0.1
				c2.2,0,4,1.8,4,3.8v17.3L562.6,209.2L562.6,209.2z M536.1,245.9h-3c0-0.8,0-1.6-0.1-2.3c-0.3-2,0.1-4.1-0.3-6.1
				c-0.3-3-1.4-5.9-2.2-8.9c-1-2.9-2-5.7-3.3-8.5c0.7,0.5,1.5,0.8,2.5,0.8h1.4c0.3,0.7,0.5,1.2,0.8,1.9c1,3,1.8,6,2.7,8.9
				c1.1,3,1.8,6.1,1.4,9.3C535.7,242.6,536.1,244.2,536.1,245.9z M536.5,187.9c0.7,1.4,1.9,2.3,3,3.3c0.7,0.7,1.2,1.4,2.2,1.6
				c0.1,0,0.4,0,0.7,0s0.7-0.1,1-0.4c0.4-0.3,0.3-1,0.1-1.5c-0.7-1.2-2.2-1.1-3.1-1.9c-0.4-0.4-0.7-0.7-1-1.1h5.3
				c0.4,0.1,0.8,0.1,1.1,0.1c0.4,0,0.8,0,1.2-0.1h6.6c-0.5,0.3-1.1,0.7-1.6,1c-1.9,1.1-4.1,1.6-5.6,3.3c-1.2,1.2-2.3,2.5-3.4,3.8
				c-0.4,0.4-1,0.7-1.4,0.7c-2.2,0-8.1-6.6-8.7-8.6L536.5,187.9z M547.1,240.3c-0.1,1.9-0.5,4-1.6,5.6h-7.1
				c-0.1-0.4-0.3-0.8-0.1-1.2c0-1.8-0.1-3.7,0.1-5.5c0.1-3.6-1.2-6.8-2.2-10.1c-0.8-2.5-1.4-4.8-2.2-7.1c-0.1-0.4-0.3-0.7-0.4-1.1
				h3.4c1,3,1.5,5.9,2.5,8.6c0.8,2,1.6,4.1,1.9,6.3c0.4,2,0.3,4,0,6c-0.3,0.8-0.7,1.5-0.8,2.5c-0.1,0.5,0.3,1.1,0.7,1.4
				c0.1,0.1,0.4,0.1,0.5,0.1c0.7,0,1.2-0.4,1.5-1c0.1-1.1,0.1-2.2,0.4-3.3c0.4-1.8,0.4-3.7,0.1-5.6c-0.3-3.3-1.9-6.1-2.9-9.1
				c-0.5-1.9-1-4-1.5-5.9h3.3c0.5,2.7,1,5.5,2.2,7.9c0.7,1.4,1.5,2.7,1.9,4.2C547.3,235.4,547.3,237.8,547.1,240.3z M553,239.1
				c0,2.3-0.5,4.5-1.4,6.7c-0.4,0-0.8,0.1-1.2,0.1h-2.3c0.8-1.8,1.4-3.7,1.5-5.6c0-2.6,0-5.3-0.4-7.9c-0.4-1.8-1.6-3.1-2.3-4.8
				c-0.7-1.4-1-2.9-1.2-4.4c-0.1-0.8-0.3-1.5-0.4-2.3h3.1c0.1,1.1,0.4,2,0.5,3.1c0.1,1-0.1,1.8,0,2.7c0.3,0.5,0.7,1,1.4,1.1
				c0.4,0,0.8-0.3,1.2-0.7c0.4-1.2-0.4-2.3-0.4-3.6c-0.1-1-0.3-1.8-0.4-2.7c1.6,0.1,3,1.2,3.4,2.7c0.1,0.8,0.1,1.8-0.1,2.7
				c-0.4,2-1.6,4.1-1.5,6.3C552.6,234.7,552.9,236.9,553,239.1z"/>
			<path class="st0" d="M595.1,187.9c-0.4,6.6-1.1,8.9-2.9,15.2c-0.5,1.4-1,2.7-1.4,4c-0.7,1.5-1.1,3-1,4.6c0.3,1.6-0.1,3.4-0.4,5.1
				c-0.3,1.5,0.3,3,0.5,4.4c0.7,2.6,0.8,5.1,1.5,7.5c0.8,3,2,5.7,2.7,8.7c1.2,7,2.7,10.2,5.7,16.2c1.4,2.9,2.3,5.7,3.4,8.6
				c0.5,1.4,1.2,2.7,2.2,3.8c1.4,1.4,3.1,2.2,4.6,3.1c0.5,0.3,6.1,3,6.4,3v0.7c0,0.8-0.1,1.4-0.3,2c-2.7-0.5-12-4.8-13.8-7.4
				c-1-1.5-1.5-3.4-2.3-5.1c-1-2.3-1.6-4.6-2.7-6.8c-1-2.2-2.7-4-3.4-6.4c-1-3.4-1.9-6.8-2.7-10.2c-0.8-3.3-2-6.6-2.9-9.8
				c-0.5-2.3-1-4.6-1.5-6.8c-0.1-0.8-0.3-1.5-0.5-2.2c-0.4-0.8-1-1.6-1.8-2.2c-0.8-1.8-2-3-3.7-3.7c-2-2.9-10.7-7.8-14.9-8.1v-3.4
				c0.8,0,1.6,0.1,2.5,0.4c1.5,0.7,3.1,1.1,4.8,1.6c1.5,0.5,2.7,1.5,3.8,2.6c1.4,1.2,2.9,2.5,4.8,2.6c1.5-0.3,2.9-0.8,4.2-1.5
				c1.5-1.1,1.9-2.9,2.3-4.4c1-3.7,2.6-7.1,3.1-10.8c0.1-1.6,0.4-3.3,0.1-4.8L595.1,187.9z M566.1,193.9c0.1-1.4,0.7-2.6,1.5-3.7
				c0.7,0.5,1.4,1,2,1.4c2.2,1,4.5,2.5,7,2.5c0.4,0,0.7,0,1.1,0c0.4-0.1,0.7-0.1,1.1-0.1c0.3,0,0.5,0,0.8,0c0.5,0,1,0,1.5-0.1
				c1.1-0.4,1.4-2,0.3-2.6c-0.3,0-0.5-0.1-0.8-0.1c-1.1,0-2.2,0.8-3.4,0.7c-2.9,0.1-5.2-1.8-7.5-3c0.8-0.5,1.9-0.8,3-0.8h2.2
				c1,0.5,1.6,1.4,2.7,1.4c0.7,0,1.4-0.7,1.2-1.4h3.3c0.8,1.1,1.8,2,2,3.4c0.1,0.8,0.3,1.8,1.1,2.2c0.1,0,0.4,0,0.5,0
				c0.3,0,0.4,0,0.7-0.1c0.8-0.5,0.7-1.5,0.4-2c-0.1-0.4-0.3-0.7-0.4-1c-0.4-0.5-0.7-1.1-1-1.6c-0.1-0.3-0.3-0.5-0.5-0.8h4.1
				c0.1,0.4,0.3,0.8,0.4,1.2c0.5,2.5-0.3,4.8-0.8,7c-0.5,2.5-1.8,4.5-2.2,6.8c-0.4,2.6-1.4,4.5-4.2,4.5c-0.4,0-0.7,0-1.1-0.1
				c-1.8-0.4-2.9-2-4.1-3.1c-1.1-1.1-9.1-3.8-10.8-4l-0.1-3.7c1.4,0,2.5,0.7,3.7,1.2c2,0.8,4.1,1.6,6.3,2.2c0.3,0,0.4,0,0.7,0
				c1.8,0,3.3-1,4.9-1.2c1-0.3,2-0.1,3-0.3c0.4,0,0.8-0.4,1.1-0.7c0.5-0.7,0-2-0.8-2.2c-0.1,0-0.4,0-0.5,0c-1,0-1.9,0.8-2.9,1
				c-1.6,0.4-3.3,0.8-5.1,0.8c-1.2,0.1-2.5-0.4-3.7-1c-1.6-0.5-3.3-1.4-4.8-2C567.5,194,566.8,193.9,566.1,193.9z M576.6,213.7h-4
				c-3.1,0-5.7-2.2-6.4-5.1c3,0.5,5.1,1.4,7.6,3.1C574.7,212.4,575.7,213,576.6,213.7z M583.9,202.6c-0.1-1-1.1-1.6-1.9-1.6
				c-0.1,0-0.4,0-0.5,0.1c-1,0.1-1.6,1.2-1.4,2.2c0.3,0.7,1.1,1.1,1.9,1.1C582.9,204.4,583.7,203.6,583.9,202.6z M586.9,214.9
				c1.1-0.8,0.7-2.7-0.4-3.3c-0.5-0.1-0.7-0.3-1-0.3c-0.4,0-0.8,0.1-1.1,0.5c-0.5,0.5-0.5,1.4-0.3,2c0.4,1.1,1.2,1.2,2.3,1.2
				L586.9,214.9z M611.7,279.1c-2.3-0.8-4.9-2.2-7.1-3.6c-0.8-0.4-1.2-1.4-2-1.8c-0.3-0.1-0.5-0.1-0.7-0.1c-0.4,0-0.8,0.1-1,0.3
				c-0.5,0.4-0.4,1.1-0.3,1.6c0.3,0.5,0.8,1,1.5,1.2c1.5,0.8,3.1,1.6,4.6,2.6h-7.6c-0.1-1.2-0.5-2.3-0.7-3.6c-0.1-1.5-0.1-3-0.3-4.5
				c-0.3-1-0.7-1.8-1-2.6c-1-2-1.9-4.2-2.9-6.3c-0.5-1.1-1.1-2.2-1.4-3.4c-0.3-0.8,0-1.8-0.4-2.5c-0.1-0.5-0.8-1-1.4-1
				c-0.3,0-0.4,0.1-0.7,0.3c-0.7,0.4-0.5,1.4-0.4,2c0.5,1.6,1,3.3,1.8,4.9c1.1,2.2,2.2,4.5,3.1,6.8c0.7,1.5,0.8,3.1,1,4.8
				c0.1,1.6,0.4,3.3,0.8,4.9h-3.3c-0.3-1.9-0.5-3.8-0.8-5.9c-0.5-3.4-3.1-9.4-5.5-12.3c-0.5-0.7-1-1.5-0.5-2.3c0.4-1,1-1.8,1.4-2.9
				c0.5-1.2,1.1-2.6,1-4c0-1.2-0.4-2.5-0.8-3.7c-0.5-2-1.1-4.1-1.6-6.1c-0.7-2.2-1.1-3.8-1.6-5.5v-12.8c0.4,2.2,1,4.4,1.5,6.4
				c0.3,1.4,0.7,2.7,1.1,4.1c1.4,4.1,2.3,8.2,3.4,12.3c0.5,1.6,0.8,3.1,1.4,4.6c0.5,1.6,1.9,2.9,2.7,4.2c0.7,1.4,1.2,3,1.8,4.5
				c0.8,2,3.1,8.3,4.6,9.8c1.6,1.9,10.2,6.3,13.7,7C614.3,278,613.1,278.8,611.7,279.1z M586.5,254.1c-0.4,1.2-1,2.5-1.4,3.6
				l-0.1-12.4c0.5,2,1.1,3.7,1.5,5.3v-0.1c0.1,0.7,0.3,1.5,0.1,2.2C586.6,253.1,586.6,253.7,586.5,254.1z M590.8,277
				c0.1,0.8,0.3,1.5,0.4,2.3c-1.4-0.1-2.6-0.5-3.6-1.2c-0.1-0.4-0.1-0.7-0.1-1.1c-0.1-0.8-0.3-1.6-0.3-2.6c-0.1-1.2-0.4-2.6-0.8-3.8
				c-0.4-1-1-1.9-1.5-2.7v-6c0.4,0.7,0.8,1.4,1.2,2c1.2,2,2.2,3.7,3,5.5C590.1,271.8,590.6,274.4,590.8,277z M603.3,187.9h3.6
				c-0.4,0.8-0.7,1.6-0.8,2.6c-0.8,3.1-0.7,6.3-1.5,9.4c-1.5,5.6-3.8,11.1-3.1,16.8c0.1,1.9,1.9,3.1,3.1,4.4
				c1.8,1.5,2.6,3.6,3.7,5.5c1.6,2.7,4.2,4.5,6.1,6.8c1,1.1,1.6,2.5,2.3,3.8v7.5c-1.4-3.6-3.6-8.6-6.3-11.1c-1.1-1.2-2.7-2-3.8-3.4
				c-1.4-1.8-2.5-4.4-3.1-6.6c-0.1-0.8-0.7-1.5-1.5-1.5s-1.5,1-1.2,1.6c0,0.4,0.1,0.7,0.4,1c1.5,2.2,2,5.1,3.7,7.1
				c1.1,1.4,2.6,1.9,3.7,3c1.4,1.2,2.3,2.9,3.1,4.4c1.8,3.8,3.6,7.6,5.1,11.5v11.7c-0.1-1.2-0.1-2.5-0.5-3.6c-0.4-2-1.4-4.1-2-6.3
				c-1.5-4-3.4-7.8-5.2-11.7c-0.7-1.1-1.4-2.5-1.8-3.8c-0.1-0.7-0.8-1.1-1.5-1.1c-0.1,0-0.4,0-0.5,0.1c-0.8,0.3-0.8,1.2-0.5,1.9
				c0.4,0.8,1.1,1.5,1.5,2.3c2.2,4.9,4.6,9.6,6.4,14.5c1,2.6,2,5.3,2,8.2c0.1,1-0.5,2,0.1,3c0.3,0.5,0.7,0.7,1.1,0.7s0.7,0,1-0.3v3
				c-2.2-0.5-3.6-1.5-4.9-2.2c-1.4-0.8-3-1.4-4.1-2.5c-1.2-1.2-1.8-2.7-2.3-4.2c-1.2-3.4-2.5-6.8-4.2-10c-1.6-3-2.9-6.3-3.7-9.7
				c-0.5-2.3-0.8-4.6-1.6-7c-1.4-4-2.2-6.8-2.9-11.1c-0.3-2.2-1.1-4.2-0.8-6.4s0.1-4.4,0.4-6.6c0.3-1.5,0.8-2.9,1.4-4.4
				c1.5-4.6,3.1-9.4,3.3-14.3c0.3-1.1,0.3-2.2,0.3-3.3h3.3c-0.4,2.5-0.4,4.9-1,7.4c-0.5,4.5-2.3,8.7-3.4,13.2
				c-0.8,2.6-1.1,5.5-0.8,8.3c0.3,1.9,0.5,3.8,0.5,5.7c0,2.5,0.5,4.8,1.4,6.8c0.7,1.6,1.6,3.3,1.9,4.9c0.4,1.4,0.4,2.7,0.5,4.2
				c0.5,3.1,1.9,6,3.3,9c1.1,2.2,2.2,4.4,3.1,6.7c0.8,1.9,1.4,4,2.3,5.9c0.4,1,0.4,2,1,3c0.3,0.4,0.7,0.7,1.2,0.7
				c0.4,0,1-0.3,1.1-0.7c0.7-1.2-0.7-2.3-1.1-3.4c-0.7-1.9-1.4-4-2.2-5.9c-1.6-4.2-3.8-8.2-5.6-12.4c-0.5-1.2-1-2.6-1-4
				c0-1.8,0-3.6-0.7-5.1c-1.1-2.3-2.3-4.4-2.9-6.8c-0.4-2.2,0.1-4.5-0.1-6.7c-0.3-1.4-0.5-2.7-0.5-4.2c0.1-5.2,2.2-10,3.4-14.9
				c0.8-3.1,1.1-6.3,1.5-9.6C602.8,189.4,603,188.7,603.3,187.9z M606,203.3c0.4-1.5,1-3.1,1.1-4.8c0.5-2.6,0.5-5.3,1.2-7.8
				c0.3-1,0.7-1.9,1.1-2.9h3.7c-0.7,1.4-1.5,2.9-1.9,4.4c-0.8,2.5-0.4,5.1-1,7.5c-0.3,1.5-0.8,2.9-1.2,4.2c-0.8,2.6-1.5,5.3-1.9,8.1
				c-0.1,0.5-0.1,1.2,0,1.9c0.1,1.4,0.8,2.6,1.6,3.6c1.2,1.6,2.5,3.4,3.6,5.2c1.2,1.9,2.7,3.6,4.4,5.2v4.8c-0.4-0.5-0.7-1-1.1-1.5
				c-1.6-1.8-3.6-3.3-4.9-5.3c-1.4-1.8-2.2-4-3.8-5.7c-0.8-1-1.9-1.8-2.6-2.9c-0.8-1.4-0.7-3.1-0.5-4.8
				C604.1,209.3,605,206.3,606,203.3z M619.1,187.9c-0.5,1.9-1.4,3.7-2.5,5.3c-0.7,1-1.9,1.9-1.5,3.1c0.3,0.5,0.8,0.8,1.2,0.8
				c0.3,0,0.4-0.1,0.5-0.1c0.8-0.4,1.1-1.4,1.4-2.2c0.7-1.2,1.6-2.2,2.2-3.6c0.4-1.1,0.7-2.3,1.1-3.4h2.5c-0.3,1.6,0.8,2.5,1,3.7
				c0,0.7-0.7,1.1-1.1,1.5c-1.9,1.4-2.9,3.6-4.5,4.9c-1.2,1.1-2.6,1.8-3.4,3.1c-1.1,1.5-1.5,3.3-2,5.1c-0.4,2.2-1.2,4.5-0.8,6.7
				c0.3,1.6,1.2,3,2.2,4.4c0.4,0.7,1,1.4,1.5,2l-0.1,5.1c-0.7-0.7-1.4-1.5-1.9-2.3c-1.4-2.2-2.9-4.2-4.4-6.3c-1-1.4-1-3.1-0.7-4.8
				c0.5-2.7,1.1-5.5,2-8.1c0.4-1.2,1-2.3,1.1-3.7c0.1-1.5-0.3-3.1,0.1-4.8c0.3-1.6,1.1-3.3,1.9-4.8c0.3-0.5,0.5-1.1,0.8-1.8h3.4
				V187.9z M625.9,194.1c0.3-0.4,0.8-0.5,1.4-0.5c0.3,0,0.4,0,0.7,0.1c2.2,0.5,4.2,1,6.4,1.2v3.8c-1.1-0.5-2.2-1.2-3.4-1.4
				c-0.5-0.1-1.1-0.1-1.6-0.1c-0.7,0-1.5,0.1-2.2,0.4c-1.2,0.8-2.2,1.9-3.3,3c-1,1.1-2,2-3,3.3c-1.4,1.6-1.9,3.8-2,6
				c0,1.6,0.5,3,1.4,4.4c-1,0.5-1.9,1.4-2.5,2.2c-0.8-1-1.5-2-1.9-3.3c-0.7-1.9-0.3-3.8,0.1-5.6c1-3.8,1.4-4.9,4.4-7.5
				C622.4,198.2,624.1,196.2,625.9,194.1z M623.1,213.7c-1.2-1.1-1.8-2.5-1.9-4c0.1-1.6,0.7-3.4,1.8-4.6c1-1.1,2.2-2,3-3.1
				c0.8-1,1.6-1.9,2.7-2.2c0.4-0.1,0.7-0.1,1.1-0.1c1.1,0,2.2,0.4,3.3,0.8c0.5,0.3,1.1,0.7,1.2,1.4c0,0.8,0,1.5,0.1,2.2v3.3
				c0,1-0.3,1.9-0.7,2.9c-0.8-1.2-1.4-2.6-1.9-4c-0.4-0.8-0.4-1.9-0.8-2.9c-0.3-0.5-0.8-1-1.4-1c-0.3,0-0.5,0-0.7,0.1
				c-0.7,0.3-0.8,1.2-0.7,1.9c0.4,0.8,1,1.5,1.4,2.3c0.4,1.1,0.7,2.5,1.4,3.6c0.3,0.7,0.8,1.2,1.2,1.8c-0.8,0.7-1.8,1.2-2.9,1.5
				c-0.8-1-1.6-1.9-2-3.1c-0.4-1.1,0.1-2.3-0.4-3.4c-0.1-0.4-0.7-0.7-1.2-0.7c-0.4,0-0.7,0.1-1,0.4c-0.5,0.5-0.4,1.4-0.3,2
				c0.3,0.8,0.4,1.5,0.7,2.2c0.3,1.1,0.7,1.9,1.4,2.7L623.1,213.7L623.1,213.7z M626.6,188.1l1.4-0.3c2.9,0,5.3,2,6.1,4.8
				c-1.8-0.4-3.6-1-5.5-1.1c-0.7,0-1.4-0.1-1.6-0.7C626.6,190,626.9,189.1,626.6,188.1z"/>
			<path class="st0" d="M639.9,207v-15.3c0-1.1,0.5-2.2,1.4-2.9c0.3,2-0.1,3.8-0.4,5.5c-0.3,1.5,0.3,3,0.5,4.5
				c0.7,2.5,0.8,5.1,1.5,7.5c0.7,2.9,2,5.6,2.6,8.6c0.8,3.8,1.8,7.6,3.3,11.2c0.7,1.8,1.8,3.4,2.6,5.2c1.4,2.7,2.3,5.6,3.4,8.5
				c0.5,1.4,1.2,2.9,2.2,3.8c1.4,1.4,3,2.2,4.6,3.1c0.7,0.4,6.1,3.1,6.6,3.1c1,0,1.6-1.1,1.2-1.9c-0.4-0.8-1.4-1-2-1.1
				c-1.4-0.3-7.4-3.6-8.5-4.5c-1.1-1.1-1.6-2.7-2.2-4.2c-1.2-3.4-2.5-6.7-4.2-10c-1.6-3-3-6.3-3.8-9.7c-0.5-2.3-0.8-4.6-1.5-7
				c-0.7-1.9-1.5-3.7-1.9-5.6c-0.5-1.8-0.8-3.6-1-5.5c-0.3-2.2-1.2-4.2-1-6.4c0.3-2,0.3-4.1,0.5-6.1h3.3c-0.3,2.2-0.5,4.4-0.3,6.6
				c0.3,1.9,0.5,3.8,0.5,5.9c0,2.3,0.4,4.6,1.4,6.8c0.5,1.6,1.5,3.1,1.9,4.8c0.4,1.4,0.4,2.9,0.5,4.2c0.4,3.1,1.9,6.1,3.3,9
				c1.1,2.2,2.2,4.4,3.1,6.7c0.8,1.9,1.4,4,2.2,5.9c0.5,1,0.5,2,1.1,3c0.3,0.5,0.7,0.7,1.2,0.7c0.4,0,1-0.3,1.1-0.7
				c0.5-1.2-0.7-2.2-1.1-3.3c-0.7-2-1.4-4.1-2.2-6c-1.6-4.2-4-8.2-5.6-12.4c-0.5-1.2-1-2.6-1-4c0-1.6,0-3.6-0.8-5.1
				c-1-2.2-2.2-4.4-2.7-6.8c-0.4-2.2,0.1-4.5-0.1-6.7c-0.3-1.4-0.5-2.7-0.5-4.1c0-1.6,0.1-3,0.5-4.5h3.3c-0.4,2.2-0.5,4.2-0.4,6.6
				c0.3,1.9,1.9,3,3.3,4.2c1.6,1.5,2.6,3.7,3.7,5.5c1.5,2.7,4.1,4.5,6,6.8c3.8,4.1,10.1,21,10.8,27.4c0,2,0.1,4.1,0.3,6.3
				c0,0.4,0,0.8,0.1,1.2h-1.2c-0.7,0-1.4,0.1-1.9,0.4c-0.3-2.2-0.3-4.6-0.3-6.8c-0.3-3.4-1.2-6.7-2.5-9.8c-1.2-4.1-6-15.7-9.1-18.4
				c-1.2-1.2-2.7-2-3.8-3.4c-1-1.2-1.5-2.7-2.2-4.1c-0.5-0.7-0.7-1.6-1-2.5c-0.1-0.7-0.8-1.5-1.5-1.5c-0.8,0-1.5,1-1.4,1.8
				c0.1,0.3,0.3,0.5,0.4,0.8c1.6,2.2,2,5.1,3.8,7.2c1,1.2,2.6,1.8,3.7,2.9c4,3.6,10.9,20.9,11.2,27.4c0.3,1.8,0.1,3.4,0.1,5.2
				c0,1,0.5,1.9,0.4,3c0.1,0.3,0,0.7,0,1.1v1c0,1.5,0.8,2.7,2,3.4c-6.4-0.4-10.4-2.5-15.8-5.6c-1.4-0.7-2.9-1.4-3.8-2.9
				c-1-1.5-1.6-3.4-2.3-5.1c-1-2.2-1.6-4.6-2.7-6.8c-1-2.2-2.7-4-3.4-6.4c-1-3.4-1.9-6.8-2.9-10.2
				C641.9,213.3,640.7,210.1,639.9,207z M641.2,243.4c-0.4-1-0.8-1.8-1.4-2.6v-8.3c0.3-1,0.5-1.9,0.5-2.9s-0.3-1.8-0.5-2.6v-11.6
				c0.8,3,1.6,6,2.5,8.9c0.4,1.6,0.8,3.1,1.4,4.8c0.5,1.5,1.8,2.7,2.6,4.1c0.8,1.4,1.2,3,1.9,4.5c0.7,1.8,3.3,8.6,4.6,9.8
				c1,1.1,2.3,1.5,3.6,2.3c2,1.1,4.1,2.5,6.3,3.4c3.7,1.6,10.1,2.7,14.1,2.9c1.6,0,3.3-0.1,4.8-0.5c1.1-0.4,2.2-1,3.3-1.5h5.3
				c-1.5,1.1-2.9,2-4.5,3c-2.5,1.6-5.6,2.2-8.5,2.2c-0.5,0-1-0.1-1.5-0.1c-7.5-0.5-13.4-2-19.7-6c-0.8-0.4-1.2-1.2-2-1.8
				c-0.3-0.1-0.5-0.1-0.8-0.1s-0.7,0.1-1,0.4c-0.4,0.3-0.3,1-0.3,1.5c0.4,0.5,1,1,1.6,1.2c2,1.1,4,2.3,6,3.4
				c1.9,1.2,4.2,1.6,6.4,2.2c3.1,0.5,6.3,1.2,9.4,1.5c0.5,0.1,1.2,0.1,1.8,0.1c1.4,0,2.7-0.1,4.1-0.3c3.6-0.5,6-2.5,8.9-4.4
				c1.4-1,2.6-1.9,4-2.9h4.9c-3,3-6.8,4.6-9.8,7.2c-3.4,3-7.1,3.3-11.5,3.3c-1.1,0-2.2,0-3.3-0.1c-4.1-0.4-8.1-1.4-12-2.2
				c-1.9-0.5-4.1-0.8-5.6-2.2c-0.5-0.5-0.8-1.4-1.4-1.9c-0.3-0.3-0.7-0.4-1.1-0.4c-0.1,0-0.4,0.1-0.7,0.1c-0.7,0.4-0.7,1.2-0.4,1.9
				c0.3,0.7,1,1.1,1.5,1.5c1.9,1.9,3,2.3,5.6,2.9c5.1,1.1,10,2.2,15.2,2.7c1,0,1.9,0,2.9,0c0.8,0,1.6,0,2.5,0
				c1.8-0.3,3.7-0.5,5.5-1.1c1-0.3,2-0.5,2.9-1.4c1.2-1.1,2.5-2.3,3.8-3.1c1.2-0.8,2.5-1.5,3.7-2.5c1.8-1.2,3.7-2.5,4.9-4.2l2.9-0.5
				c0.4,0,0.8,0,1.1,0.1c-0.5,1.5-1.1,2.7-1.9,3.7c-1.1,1-2.5,1.5-3.6,2.3c-1.8,1.1-3,2.6-4.9,3.4c-1,0.5-2.3,0.3-3,1.4
				c-0.5,0.8,0.3,2,1.4,1.9c1.1-0.3,1.9-1,3-1.2c1.6-0.7,2.7-2.2,4.1-3.3c1.2-0.8,2.6-1.4,3.8-2c1.4-0.8,2-2,2.6-3.4
				c0.1-0.5,0.4-1,0.5-1.4c0.5,0.7,0.8,1.5,0.8,2.3v4.5c-0.3,0.3-0.4,0.4-0.8,0.5c-1.1,0.5-2.3,0.8-3.4,1.1c-1,0.3-1.9,0.1-2.7,0.7
				c-0.8,0.6-0.7,2,0.3,2.3c0.1,0,0.3,0.1,0.5,0.1c0.5,0,1-0.3,1.5-0.5c1.5-0.7,3.1-0.8,4.6-1.2v3.1c-1.1,0.4-2.2,0.7-3.4,1
				c-0.4,0-1,0-1.5,0c-0.4,0-1,0-1.5,0c-1.4-0.3-2.6-0.7-4-0.7c-0.1,0-0.4,0-0.5,0c-1.1,0.1-2.2,0.4-3.4,0.4
				c-1.6-0.1-3.4-0.7-5.1-0.7c-0.4,0-0.8,0-1.2,0.1c-2.7,0.5-5.5,1.5-8.2,1.5c-0.1,0-0.3,0-0.5-0.1c-0.3,0.1-0.5,0.1-0.8,0.1
				c-2.5,0-4.9-0.4-7.4-0.8c-4.8-0.8-9.6-1.9-14.3-2.9c-1.4-0.3-3.1-0.5-4-2c-1.1-1.8-2.5-8.6-2.7-11.1c-0.1-1.5-0.1-3-0.4-4.5
				c-0.3-1.8-2.9-7.1-3.7-8.7c-0.5-1.2-1.1-2.3-1.5-3.6c-0.1-0.8,0.1-1.6-0.3-2.5c-0.3-0.5-0.8-1-1.4-1c-0.3,0-0.5,0.1-0.7,0.3
				c-0.8,0.4-0.5,1.4-0.4,2c0.5,1.6,1,3.4,1.8,4.9c1.1,2.2,2.2,4.5,3.1,6.8c0.7,1.6,0.8,3.3,1,4.9c0.3,3.6,1.8,11.3,3.4,14.2
				c0.5,1.1,1.8,1.6,2.9,1.9c1.5,0.4,3.1,0.7,4.6,1c3.8,0.8,7.8,1.6,11.6,2.3c2.3,0.5,4.5,0.7,6.8,1c0.4,0,0.8,0,1.1,0
				c0.5,0,1.1,0,1.6,0c0.3,0,0.4,0,0.7,0c3,0,5.9-1.2,8.9-1.5c1.2,0,2.5,0.3,3.8,0.4c0.5,0,1,0,1.5,0c1.1,0,2.2,0,3.1-0.1
				c2.2,0,4.2,0.4,6.3,0.5c1.6,0,3.1-0.3,4.6-0.8v3.6c-1.1,0-2,0-3.1,0.1c-0.4,0.1-0.8,0.1-1.2,0.1c-1.4,0-2.7-0.3-4.1-0.3
				c-0.1,0-0.1,0-0.3,0c-1.5-0.1-3-0.1-4.5-0.1c-1.1,0-2.2,0-3.4,0c-0.4,0-0.8,0-1.2,0c-2.7,0-5.2,0.5-7.8,1.1
				c-0.8,0.1-1.8,0.4-2.7,0.4c-0.3,0-0.4,0-0.7,0c-2.2-0.4-4.4-0.7-6.7-0.7c-1.9-0.1-3.8-0.8-5.7-1.2c-5.1-1-10.1-1.8-15-2.7
				c-1.1-0.3-2.3,0-3.3-0.7c-0.7-1-0.5-2.3-1.1-3.4c-1.8-5.2-2.7-10.7-3.4-16C643.7,248.5,642.6,245.9,641.2,243.4z M643.5,274
				c-1.1,1-2.2,1.9-3.4,2.7c-0.1-0.4-0.3-0.8-0.3-1.4v-2.5c1-0.8,1.8-1.5,2-2.6c0.3-1.5-0.1-2.9-0.5-4.4c-0.5-2-0.8-4.1-1.4-6.3
				l-0.1-13.9c0.1,0.4,0.4,0.8,0.5,1.2c1.1,2.5,1.4,5.1,1.6,7.6c0.5,3.3,1.4,6.4,2.2,9.7c0.5,1.8,0.8,3.7,1.6,5.5
				c0.3,0.5,0.5,1.4,0.1,2C645.3,272.7,644.4,273.2,643.5,274z M704.4,279.3h-38.6c-4.9-1.2-9.3-1.6-13.5-2.3c-1.9,0-3.3,0-4.9,1.2
				c-0.4,0.4-0.8,0.7-1.4,1.1h-2.2c-0.8,0-1.6-0.3-2.2-0.7c1.4-1,2.7-2,4.1-3.1c0.8-0.7,1.2-1.8,2.2-2.3c0.3,0,0.4-0.1,0.7-0.1
				c0.5,0,1,0.3,1.5,0.3c1.2,0.4,2.5,0.5,3.7,0.7c4.5,0.7,11.9,1.8,16.1,3.1c1.1,0.4,2.2,0.5,3.4,0.5c0.4,0,0.8-0.1,1.2-0.1
				c0.1,0,0.3,0,0.4,0c1.6,0,3.3,0.8,5.1,0.7c1.2,0.1,2.5-0.3,3.7-0.5c1.9-0.4,3.8-0.8,5.7-1c0.4,0,1,0,1.4,0c1.4,0,2.6,0,4,0
				c1.1,0,2.3,0,3.4,0c1.8,0.3,3.4,0.1,5.2,0.4c0.3,0,0.5,0,0.7,0c1.2,0,2.5-0.1,3.6-0.1c0.1,0,0.3,0,0.5,0
				C707.4,278.4,706.1,279.3,704.4,279.3z M655.6,194.8c-1-1.4-0.8-3.1-0.5-4.6c0.1-0.8,0.3-1.6,0.4-2.3h3.3
				c-0.1,0.5-0.3,1.1-0.3,1.8c-0.1,0.7-0.1,1.2,0,1.9c0.1,1.4,0.7,2.6,1.5,3.6c1.4,1.6,2.6,3.4,3.7,5.2c1.6,2.6,4,4.8,6.1,7
				c1.6,1.8,2.7,4.1,3.8,6.4c-1.2,0.5-1.9,1.8-2,3.1c-1.2-2.9-2.6-5.7-4.6-7.9c-1.6-1.9-3.6-3.4-4.9-5.5c-1.4-1.8-2.2-4-3.8-5.6
				C657.3,196.7,656.2,195.9,655.6,194.8z M668.3,241.5c-0.5-1.6-0.3-3.4-0.8-5.1c-1.6-6.3-4.5-12.2-7.4-17.9
				c-0.7-1.2-1.2-2.5-1.6-3.8c-0.1-0.7-0.8-1.2-1.5-1.2c-0.3,0-0.4,0-0.7,0.1c-0.7,0.3-0.7,1.2-0.4,1.9c0.4,0.8,1.1,1.5,1.5,2.3
				c2,4.9,4.6,9.6,6.3,14.5c1,2.7,2,5.3,2.2,8.2c0,1-0.5,2.2,0.1,3.1c0.1,0.4,0.7,0.7,1.1,0.7c0.4,0,0.8-0.1,1.1-0.5
				C668.7,243.2,668.4,242.3,668.3,241.5z M679.2,213.1h-3.3c-1.1-2.5-2.2-4.9-4-6.8c-1.9-2.3-4.2-4.2-5.9-6.7c-1.5-2-3-4.1-4.4-6.3
				c-1-1.4-1-3.1-0.7-4.8l3.4-0.7c-0.1,0.8-0.1,1.8,0,2.6c0.3,1.6,1.2,3,2,4.4c1.1,1.5,2,2.9,3.3,4.2c1.6,2.3,3.8,4,5.6,6.1
				c1.2,1.4,1.9,3.1,2.6,4.8C678.4,211.1,678.8,212,679.2,213.1z M666.9,187.9h3.3c0,4.1,5.2,9.8,8.2,12.3c1.2,1,2.5,1.9,3.3,3.4
				c0.7,1.5,1,3.3,1.5,4.9c0.4,1.6,1.2,3.1,2.2,4.6h-3.6c-0.3-0.5-0.5-1.1-0.8-1.8c-0.8-1.8-1.2-3.7-2.2-5.5c-0.8-1.6-2.2-3-3.4-4.2
				c-2.3-2-7.2-7.8-8.3-10.8C666.8,189.9,666.8,188.8,666.9,187.9z M708.4,209.2c0,1.4-0.7,2.6-1.8,3.3c-0.1-2.7,0-5.6-0.1-8.3
				c-0.3-3.4,0-6.7,0-10.1c0-1.1,0.8-2,0.7-3.1c0-0.8-0.7-1.4-1.4-1.4c-0.3,0-0.5,0.1-0.7,0.3c-0.8,0.5-0.8,1.6-0.8,2.5
				c0,1.1-0.1,2.2-0.1,3.3c0,5.9,0,11.7,0.3,17.6h-3.3c0-3.4,0.1-6.7-0.1-10.1c-0.1-1.8,0.3-3.6,0.1-5.3c-0.1-1.1,0.1-2.2,0.4-3.1
				c0.3-1-0.5-2-1.5-2c-0.1,0-0.3,0-0.3,0c-1,0.3-1.2,1.4-1.1,2c0.4,2.6,0.1,5.1,0,7.6c0,3,0.5,6,0.3,9.1c-0.1,0.5-0.1,1.1-0.1,1.8
				h-3.3c0.1-0.7,0.1-1.4,0.3-1.9c0.3-1.5,0.3-3,0.1-4.5c-0.3-2.2-0.8-4.4-0.5-6.7c0.3-1,1.2-1.8,1.1-3c-0.1-0.5-0.8-1.1-1.4-1.1
				c-0.3,0-0.4,0.1-0.7,0.1c-0.5,0.4-0.8,1.2-1,1.9c-0.1,1-0.5,1.9-0.5,2.9c-0.1,2.7,1,5.3,1,7.9c0,1.5-0.5,2.9-0.7,4.4h-5.2
				c-0.5-0.7-1.1-1.2-1.4-1.9c-1.6-2.7-1.8-6.1-3-9c-0.8-1.6-2.5-2.7-3.8-4c-2.2-1.9-4.1-4-5.7-6.4c-0.8-1.1-1.4-2.5-1.5-4h3.6
				c0.8,3.3,6,9.1,9.3,10.4c0.8,0.3,1.5,1,1.5,1.9c0.1,3.4,1.8,6.6,1.8,10c0.1,0.7,0.8,1.2,1.5,1.2c0.7-0.1,1.4-0.7,1.2-1.5
				c-0.1-1-0.7-1.8-0.8-2.7c-0.5-2.3-0.8-4.8-1.4-7.1c-0.1-0.5-0.1-1.1,0-1.6c0.3-0.5,0.7-0.8,1.1-1.2c1-0.7,1.5-1.9,2.5-2.6
				c2.9-2.6,6.6-3.8,9.7-5.9c0.5-0.3,1.1-0.5,1.8-0.8h0.1c2.2,0,4,1.8,4,3.8v17.3L708.4,209.2L708.4,209.2z M681.9,245.9h-3
				c0-0.8,0-1.6-0.1-2.3c-0.3-2,0.1-4.1-0.3-6.1c-0.3-3-1.4-5.9-2.2-8.9c-1-2.9-2-5.7-3.3-8.5c0.7,0.5,1.5,0.8,2.5,0.8h1.4
				c0.3,0.7,0.5,1.2,0.8,1.9c1,3,1.8,6,2.7,8.9c1.1,3,1.8,6.1,1.4,9.3C681.5,242.6,681.9,244.2,681.9,245.9z M682.3,187.9
				c0.7,1.4,1.9,2.3,3,3.3c0.7,0.7,1.2,1.4,2.2,1.6c0.1,0,0.4,0,0.7,0s0.7-0.1,1-0.4c0.4-0.3,0.3-1,0.1-1.5
				c-0.7-1.2-2.2-1.1-3.1-1.9c-0.4-0.4-0.7-0.7-1-1.1h5.3c0.4,0.1,0.8,0.1,1.1,0.1c0.4,0,0.8,0,1.2-0.1h6.6c-0.5,0.3-1.1,0.7-1.6,1
				c-1.9,1.1-4.1,1.6-5.6,3.3c-1.2,1.2-2.3,2.5-3.4,3.8c-0.4,0.4-1,0.7-1.4,0.7c-2.2,0-8.1-6.6-8.7-8.6L682.3,187.9z M693,240.3
				c-0.1,1.9-0.5,4-1.6,5.6h-7.1c-0.1-0.4-0.3-0.8-0.1-1.2c0-1.8-0.1-3.7,0.1-5.5c0.1-3.6-1.2-6.8-2.2-10.1
				c-0.8-2.5-1.4-4.8-2.2-7.1c-0.1-0.4-0.3-0.7-0.4-1.1h3.4c1,3,1.5,5.9,2.5,8.6c0.8,2,1.6,4.1,1.9,6.3c0.4,2,0.3,4,0,6
				c-0.3,0.8-0.7,1.5-0.8,2.5c-0.1,0.5,0.3,1.1,0.7,1.4c0.1,0.1,0.4,0.1,0.5,0.1c0.7,0,1.2-0.4,1.5-1c0.1-1.1,0.1-2.2,0.4-3.3
				c0.4-1.8,0.4-3.7,0.1-5.6c-0.3-3.3-1.9-6.1-2.9-9.1c-0.5-1.9-1-4-1.5-5.9h3.3c0.5,2.7,1,5.5,2.2,7.9c0.7,1.4,1.5,2.7,1.9,4.2
				C693.1,235.4,693.1,237.8,693,240.3z M698.8,239.1c0,2.3-0.5,4.5-1.4,6.7c-0.4,0-0.8,0.1-1.2,0.1h-2.3c0.8-1.8,1.4-3.7,1.5-5.6
				c0-2.6,0-5.3-0.4-7.9c-0.4-1.8-1.6-3.1-2.3-4.8c-0.7-1.4-1-2.9-1.2-4.4c-0.1-0.8-0.3-1.5-0.4-2.3h3.1c0.1,1.1,0.4,2,0.5,3.1
				c0.1,1-0.1,1.8,0,2.7c0.3,0.5,0.7,1,1.4,1.1c0.4,0,0.8-0.3,1.2-0.7c0.4-1.2-0.4-2.3-0.4-3.6c-0.1-1-0.3-1.8-0.4-2.7
				c1.6,0.1,3,1.2,3.4,2.7c0.1,0.8,0.1,1.8-0.1,2.7c-0.4,2-1.6,4.1-1.5,6.3C698.4,234.7,698.7,236.9,698.8,239.1z"/>
			<path class="st0" d="M713.5,241.9c-0.1-3.7-0.3-7.4-0.3-11.1c0.1,0.7,0.1,1.2,0.1,1.8c0,1.4,0.5,2.7,0.4,4.1c0,0.8-0.1,2,0.7,2.6
				c0.1,0.1,0.5,0.3,0.8,0.3c0.4,0,0.8-0.1,1.1-0.5c0.5-0.8,0-2-0.3-2.9c-0.5-1.5-0.3-3.1-0.5-4.6c-0.1-1.9,0.1-4-0.1-6
				c-0.3-2.2-0.8-4.2-1.5-6.1c0.3-2.6,0.7-4.9,1.1-7c0.8,2.3,1.5,4.9,2.3,7.2c1,3,1.6,6.3,1.2,9.4c-0.3,1.6,0.3,3.4,0.1,5.1
				c0,0.8,0,1.5,0.1,2.3c0.1,0.4,0.4,0.8,1,1c0.1,0.1,0.3,0.1,0.4,0.1c0.7,0,1.4-0.7,1.4-1.5c0-1.1-0.7-2.2-0.7-3.4
				c0-1.8-0.1-3.6,0.1-5.3c0.3-3.6-1.1-7-2.2-10.2c-0.7-2.3-1.4-4.8-2.2-7.1c-0.1-0.5-0.4-1.2-0.7-1.8c0.4-1.6,0.8-3.1,1.4-4.4
				c1,1.6,1.9,3.4,2.5,5.5c0.8,2.7,1.5,5.6,2.5,8.3c0.7,2,1.5,4.1,1.9,6.3c0.3,1.9,0.1,4-0.1,5.9c-0.1,0.8-0.5,1.6-0.8,2.5
				c-0.1,0.5,0.3,1.1,0.7,1.5c0.3,0,0.4,0.1,0.7,0.1c0.5,0,1.2-0.4,1.4-1.1c0.1-1.1,0.1-2.2,0.4-3.1c0.4-1.9,0.4-3.8,0.1-5.7
				c-0.3-3.1-1.9-6-2.7-9.1c-0.8-2.3-1.2-4.8-1.9-7.1s-2.2-4.4-3.3-6.7c0.5-1.1,1.2-2.2,1.9-3.1c0.5,1.4,1.1,2.7,2,4
				c1,1.4,1.8,2.6,2.2,4.1c1.1,3.7,1.2,7.5,2.9,11.1c0.7,1.4,1.5,2.6,1.9,4.1c0.5,2.5,0.4,4.9,0.4,7.4c-0.3,1.9-0.5,4-1.8,5.6
				c-1.8,2.6-7.8,6.6-10.7,7.4C716.1,241.9,715,241.9,713.5,241.9z M735.6,188.1c0,0.7-0.1,1.4-0.1,2c0.1,3.1,0.7,6.1,0.3,9.1
				c-0.3,2.5,0,5.1,0.4,7.5c0.4,2.5,1,5.1,0.5,7.5c-0.4,2.2-1.8,4.1-1.6,6.3c0.1,2.2,0.4,4.4,0.5,6.4c0,9.4-6,13.7-13.1,18.2
				c-2.6,1.6-5.7,2-8.7,2c0-1-0.1-2-0.1-3c5.6,0,11.5-3.8,15.3-7.6c2.2-2.2,3.1-5.2,3.3-8.2c0-2.7,0.1-5.3-0.4-8.1
				c-0.3-1.8-1.6-3.1-2.3-4.6c-0.7-1.4-1-2.9-1.2-4.4c-0.3-1.8-0.7-3.7-1-5.5c-0.3-1.1-0.7-2.3-1.4-3.4c-0.8-1.1-1.8-2-2.5-3.3
				c-0.7-1.1-1.1-2.3-1.4-3.6c0.8-0.8,1.6-1.6,2.6-2.5c0.4,1.6,0.8,3.3,1,4.9c0,0.7,0.7,1.2,1.4,1.4c0.7-0.1,1.4-0.8,1.4-1.5
				c-0.3-1-0.7-1.8-1-2.7c-0.1-1.2-0.4-2.3-0.5-3.6c0.8-0.5,1.9-1.1,3-1.6c0.1,2.3,0.8,4.5,0.8,6.8s-1.2,4.5-0.8,6.8
				c0.7,2.7,1.2,5.6,1.6,8.3c0.1,1,0,1.9,0.1,2.7c0.1,0.7,0.7,1.1,1.2,1.2c0.5,0,1-0.4,1.2-0.8c0.4-1.1-0.4-2.3-0.4-3.6
				c-0.1-2.2-0.5-4.2-1.1-6.4c-0.4-1.9-0.3-4,0-6c0.3-1.5,0.3-3,0.3-4.5c-0.3-1.8-0.7-3.7-0.7-5.5
				C733.3,188.8,734.3,188.4,735.6,188.1z M737.9,187.6c1-0.3,2-0.4,3-0.5c0,5.3,0,10.7,0.3,16c0.3,1.5,0.4,2.9,0.7,4.4
				c0.3,1.8,0.3,3.7,0.1,5.6c-0.3,2.9-1.1,5.7-1.2,8.7c0,1.1,0.3,2,0.3,3c0.1,2.5,0.5,4.9-0.3,7.4c-1,2.7-3.3,8.3-5.2,10.2
				c-2.9,2.7-6.6,4.4-9.6,7.1c-3.1,2.7-7.6,3.3-11.6,3.3c-0.1-1.1-0.3-2-0.4-3.1c1.4,0,2.6-0.1,4-0.3c1.6-0.3,3.3-0.7,4.6-1.5
				c2.9-1.6,7.8-5.1,10.1-7.2c2.2-2.2,3.4-4.9,4.4-7.8c0.8-2.3,1.1-4.8,0.8-7.2c-0.3-2-0.5-4.1-0.3-6.1c0.3-1.8,1.1-3.6,1.2-5.3
				c0.7-4-0.5-7.8-0.8-11.6c-0.1-3.8,0.1-7.6-0.3-11.3C737.8,189.9,737.9,188.7,737.9,187.6z M725.7,256.7c-0.4,0-0.8,0-1.2,0.1
				c-2.7,0.5-5.3,1.4-8.2,1.4c-0.1,0-0.3,0-0.4,0c-0.5-1-0.8-2-1.1-3.1c2.7,0,8.9-0.5,11.1-2.5c1.2-1.1,2.5-2.3,3.8-3.3
				c2.6-1.5,7-4.2,8.7-6.6c1.1-1.8,1.9-3.7,2.7-5.6c1.2-2.7,2.7-5.5,2.6-8.6c-0.3-2-0.4-4.2-0.5-6.4c-0.1-3.8,1.4-7.6,1.2-11.6
				c0-3-1-5.9-1-9c-0.3-3.1-0.1-6.3-0.3-9.4c-0.1-1.8,0-3.6,0-5.5c1-0.1,2-0.1,3-0.3c0,1.8,0,3.6,0.1,5.3c0,2.3-0.1,4.8,0.1,7.1
				c0.1,1.4,0,2.7,0.3,4.1c0.3,2.6,1,5.2,0.8,7.9c-0.1,2.7-0.8,5.5-1.1,8.2c-1,3-1.4,7-1.4,12.4c0,1.6,0,3.1,0,4.5
				c-1,2.2-2,4.5-3,6.7c-0.4,1.2-0.8,2.5-1.8,3.4c-1.1,1-2.5,1.4-3.6,2.2c-1.6,1.1-3,2.7-4.8,3.6c-1.1,0.4-2.5,0.3-3.1,1.2
				c-0.5,1,0.3,2.2,1.4,2c1.1-0.3,2-1,3-1.4c1.8-0.5,2.7-2,4.1-3.1c1.2-1,2.6-1.4,4-2c1.2-0.8,2-2.2,2.5-3.6
				c0.5-1.4,1.1-2.7,1.6-4.1c0.3,2.7,0.5,4.8,1,6.3c0,0.4-0.3,0.8-0.3,1.4c-0.3,1-0.7,2.2-1.8,2.6c-1.1,0.5-2.2,0.7-3.4,1.1
				c-0.8,0.3-1.9,0.1-2.7,0.7c-0.8,0.5-0.7,1.9,0.3,2.3c0.1,0,0.4,0,0.5,0c0.5,0,1.1-0.3,1.5-0.4c1.9-1,4.2-0.8,6-1.9
				c0.8-0.5,1.2-1.5,1.5-2.5c0.7,1.1,1.5,2,2.6,2.5c0.7,1.6,1.8,2.3,2.6,3c5.2,4.1,8.2,6.1,14.6,6.8c3.8,0,10.1-2.2,13.1-4.8
				c0.3,0.4,0.4,1,0.4,1.5v2c-2.3,1.4-4.8,2.5-7.2,3.3c-1.9,0.4-3.7,1.1-5.6,1.1c-0.4,0-0.7,0-1.1,0c-1.6-0.3-3.4-0.4-5.2-0.7
				c-1.4-0.1-2.6-1-3.7-1.8c-2.2-1.4-4.4-2.6-6.3-4.2c-1-0.8-1.9-1.8-2.9-2.5c-0.5-0.4-1.2-0.4-1.8-0.4c-0.4,0-0.8,0-1.2,0
				c-1.5,0.5-3,1-4.5,1.2c-1,0-2,0-3,0c-1.4-0.1-2.7-0.5-4.1-0.5c-0.1,0-0.3,0-0.4,0c-1.2,0.1-2.3,0.3-3.4,0.3
				C729.2,257.2,727.5,256.7,725.7,256.7z M781.5,267.6c-2.5,1.1-4.9,2-7.5,2.6c-1.1,0.3-2.3,0.5-3.4,1.1c-1.2,0.5-2,1.8-2.6,2.9
				c-0.7,1.1-1.1,2.3-1,3.6c0.1,0.8,0.4,1.6,0.5,2.3c-1,0.1-1.8,0.3-2.7,0.4c-0.3-1.1-0.5-2-1.1-3c-0.5-1.2-1.6-2-2.5-3.1
				c-1-1.4-1.5-3.1-2.7-4.2c-1.2-1-2.6-1.6-4-2.6c-1.8-1.1-3.4-2.2-5.1-3.4c-1.8-1.1-2.5-1.4-4.6-1.4c-1,0-1.9,0-2.9,0.1
				c-0.4,0-0.7,0.1-1.1,0.1c-1.4,0-2.7-0.3-4.2-0.3c0,0-0.1,0-0.3,0c-1.5-0.1-3-0.3-4.5-0.3c-1.1,0-2.2,0.1-3.3,0.1
				c-0.5,0-1,0-1.4-0.1c-0.1,0-0.4,0-0.5,0c-2.5,0-4.8,0.7-7.1,1.1c-0.8,0.1-1.5,0.4-2.2,0.4c-0.1-0.5-0.4-1-0.5-1.5
				c-0.3-0.5-0.4-1.2-0.7-1.9c3.8,0.1,6.6-1.2,9.6-1.4c1.2,0,2.6,0.1,3.8,0.3c0.5,0,1.1,0.1,1.5,0.1c1.1,0,2.2-0.1,3.3-0.3
				c2,0.1,4.1,0.5,6.1,0.7c1.8-0.1,3.6-0.4,5.3-1c0.4-0.1,0.7-0.1,1.1-0.1c0.8,0,1.8,0.3,2.3,0.8c1.8,1.6,9.8,7.5,12.3,7.9
				c1.6,0.1,3.3,0.1,4.9,0.4c0.8,0.1,1.5,0.3,2.2,0.3c3.3,0,9.8-2.7,12.7-4.1L781.5,267.6z M759.3,280.8c-0.7-0.7-1.2-1.6-1.8-2.5
				c-1.4-2-2.9-4-4.9-5.5c-2.3-1.6-6-4.2-8.9-4.5c-0.8-0.1-1.5-0.1-2.3-0.1c-0.4,0-0.8,0-1.2,0c-0.5,0-1.2,0-1.8-0.1
				c-2.5-0.3-5.2-0.3-7.8-0.3c-1,0-1.9,0-3,0.1c-2,0-4.1,0.4-6.1,0.8c-0.4,0-1,0.1-1.4,0.3c-0.7-1-1.2-1.9-1.6-2.9
				c0.7-0.1,1.2-0.3,1.9-0.4c1.9-0.4,3.8-0.8,5.7-1c0.5,0,1.1,0,1.5,0c1.4,0,2.6,0,4,0c1.1,0,2.2,0,3.4,0c1.6,0.3,3.4,0.1,5.1,0.3
				c0.3,0,0.5,0,0.8,0c1.1,0,2.3-0.1,3.6-0.1c1,0,2,0.1,3,0.7c1.6,1,8.3,5.2,9.6,6.4c1.1,1.4,4.9,6.7,5.3,7.9
				C761.4,280.7,760.3,280.8,759.3,280.8z M752.6,281.1c-2-2.7-4.6-4.9-7.6-6.3c-2.7-1.2-5.7-1.1-8.5-1.4c-1.4,0-2.6,0-4,0
				s-2.7,0-4.1,0c-1.4,0.1-2.7,0.3-4.1,0.4c-1-0.8-1.9-1.8-2.7-2.7c3.3-0.7,6.4-1,9.7-1c1.4,0,2.9,0,4.2,0.1c0.1,0,0.4,0,0.5,0
				c10.1,0,14.1,2,20.3,10.7C755.2,281,753.9,281.1,752.6,281.1z M749.5,281c-1.9,0-3.8-0.1-5.5-0.3c-0.4-0.3-1-0.4-1.4-0.7
				c-2.2-0.8-4.5-1.1-6.8-1.2c-0.8,0-1.6,0-2.5,0c-1.8-0.5-3.3-1.2-4.8-2c-0.5-0.3-1-0.5-1.5-0.8c1.9-0.1,3.8-0.3,5.7-0.3
				c3.1,0.1,6.4,0.1,9.6,0.8C745.1,277.3,747.6,278.9,749.5,281z M751.6,186.1c0,0.4-0.1,0.8,0,1.1c0,1.6-0.1,3.1,0,4.8
				c0.3,2.3,0,4.8,0.3,7.1c0.1,1.1,0,2.2,0.1,3.3c0.4,2.2,1,4.4,1.4,6.7c0.1,1.2,0,2.5-0.3,3.6c-0.1,0.4-0.1,0.7-0.3,1.1
				c-1.4,0.3-2.5,0.8-3.4,1.4c0.4-1.8,0.7-3.6,0.5-5.3c0.1-1.2-0.1-2.6-0.4-3.8c-1.1-6.1-1.1-13.4-1.1-19.7
				C749.5,186.2,750.5,186.2,751.6,186.1z M753.9,186.1c3.6,0,7.5,0.3,11.9,0.8c1.4,1,2.7,2,4,3.1c1.6,1.8,2.7,4,3.3,6.3
				c0.8,3,1.5,6,2.5,8.9c0.8,2.6,1.6,5.2,2.3,7.8c-1,0.4-1.9,0.5-3,0.5c-1-3.4-2.3-6.6-3.1-10c-0.7-2.9-1.2-5.7-2.5-8.3
				c-1.8-4.2-5.1-5.7-9-7.2c-0.8-0.3-1.6-0.8-2.5-1c-1-0.1-2.2,1-1.5,1.9c0.4,0.8,1.4,1.1,2.2,1.1c3.7,0,7.6,3.7,9,6.8
				c1.1,2.7,1.5,5.6,2.3,8.5c0.5,2,1.4,4.1,2,6.3c0.1,0.5,0.3,1.1,0.5,1.8c-1.1-0.1-2.2-0.1-3.3-0.3c-0.8-2.3-1.9-4.5-2.5-7
				c-0.8-2.7-1.1-5.7-2.3-8.3c-0.7-1.6-1.9-2.9-3.4-3.7c-1.1-0.4-1.9-1.4-3-1.6c-0.1-0.1-0.1-0.1-0.3-0.1c-0.4,0-0.7,0.3-1,0.4
				c-0.5,0.3-0.5,1-0.4,1.5c0.3,0.8,1.2,1.1,2,1.2c1.8,0.4,3.3,1.6,4,3.3c1,2.3,1.2,4.8,1.8,7.2c0.5,2.3,1.6,4.6,2.5,7
				c-1.1,0-2.2,0-3.3-0.1c-0.7-1.2-1.5-2.5-1.8-4c-0.7-2.3-0.7-4.6-1.5-6.8c-0.4-1.1-0.3-2.5-1-3.4c-0.3-0.4-0.7-0.5-1.1-0.5
				c-0.3,0-0.5,0-0.7,0.1c-0.5,0.3-0.8,1-0.7,1.5c0.3,1,0.8,1.6,1.1,2.6c0.7,2.5,1,5.1,1.5,7.5c0.3,1.1,0.8,2,1.4,3
				c-2,0-3.7,0.1-5.1,0.3c0.3-0.8,0.5-1.8,0.4-2.7c-0.1-3-1.1-5.9-1.5-8.7c-0.4-1.6-0.3-3.3-0.3-5.1c0-1.4-0.1-2.6-0.1-4
				C753.9,190.4,753.9,188.3,753.9,186.1z M756.1,255c-0.4-0.4-1-0.7-1.4-1.1c1.5,0.3,3.1,0.4,5.2,0.4h0.5c0.5,0.3,1.1,0.7,1.6,1
				c2.3,1.2,4.1,1.8,6.8,1.8c2,0,6.3-1.1,7.1-3.3c1.4,0.1,2.6,0.7,3.6,1.6c-0.5,1.2-1.9,1.8-3,2.5c-3,1.5-5.7,2.3-9,2.3
				c-1.5,0-2.9-0.3-4.2-0.8C760.6,258.4,758.4,256.7,756.1,255z M764.7,273.6c1,0,1.8-0.8,1.6-1.6c0.1-1.1-0.8-1.9-1.9-1.9
				c-0.3,0-0.5,0.1-0.8,0.3c-0.8,0.3-0.8,1.4-0.7,2.2c0.3,0.4,0.7,0.8,1.2,1C764.3,273.6,764.4,273.6,764.7,273.6z M772.7,253.8
				c-1.2,0.7-2.6,1-3.8,1.1c-1.4,0-2.5-0.3-3.7-0.8L772.7,253.8z M781.5,270.2v2.7c0.1,1.2-0.4,2.6-1.1,3.6c-0.5-0.7-0.7-1.4-1.2-2
				c-0.3-0.3-0.7-0.5-1.2-0.5c-0.3,0-0.4,0-0.7,0.3c-0.5,0.3-0.5,1.1-0.4,1.8c0.3,0.7,0.8,1,1.4,1.5c0,1.1-1.8,1.4-2.7,1.4
				c-0.5-1-0.3-2.3-1.4-3c-0.1,0-0.4,0-0.7,0c-0.4,0-0.7,0-1,0.4c-0.3,0.3-0.4,0.8-0.3,1.2c0,0.4,0.3,0.8,0.5,1.4
				c-0.7,0.7-1.8,0.8-2.9,1c-0.7-2.5-0.5-4.4,0.7-5.5c1.2-1.4,3.1-1.5,4.6-2C777.4,271.7,779.4,271.1,781.5,270.2z M776.3,189.2
				c1.4,1.9,1.6,4.2,2.3,6.6c0.7,3,1.6,6,2.5,9l-0.1,3.3c0,1.2-0.4,2.3-1.1,3.3c-0.4-1-0.7-2-1-3c-1.2-4-2.3-7.9-3.4-11.9
				c-0.7-3-2.2-7-4.9-8.7c1.8,0.3,3.6,0.5,5.3,1L776.3,189.2z M781.5,194.7l-0.1,2.3c-0.5-2.2-1.1-4.5-1.8-6.8
				C780.8,191.3,781.5,192.9,781.5,194.7z"/>
			<path class="st0" d="M813.7,187.9c-0.4,6.6-1.1,8.9-2.9,15.2c-0.5,1.4-1,2.7-1.4,4c-0.7,1.5-1.1,3-1,4.6c0.3,1.6-0.1,3.4-0.4,5.1
				c-0.3,1.5,0.3,3,0.5,4.4c0.7,2.6,0.8,5.1,1.5,7.5c0.8,3,2,5.7,2.7,8.7c1.2,7,2.7,10.2,5.7,16.2c1.4,2.9,2.3,5.7,3.4,8.6
				c0.5,1.4,1.2,2.7,2.2,3.8c1.4,1.4,3.1,2.2,4.6,3.1c0.5,0.3,6.1,3,6.4,3v0.7c0,0.8-0.1,1.4-0.3,2c-2.7-0.5-12-4.8-13.8-7.4
				c-1-1.5-1.5-3.4-2.3-5.1c-1-2.3-1.6-4.6-2.7-6.8c-1-2.2-2.7-4-3.4-6.4c-1-3.4-1.9-6.8-2.7-10.2c-0.8-3.3-2-6.6-2.9-9.8
				c-0.5-2.3-1-4.6-1.5-6.8c-0.1-0.8-0.3-1.5-0.5-2.2c-0.4-0.8-1-1.6-1.8-2.2c-0.8-1.8-2-3-3.7-3.7c-2-2.9-10.7-7.8-14.9-8.1v-3.4
				c0.8,0,1.6,0.1,2.5,0.4c1.5,0.7,3.1,1.1,4.8,1.6c1.5,0.5,2.7,1.5,3.8,2.6c1.4,1.2,2.9,2.5,4.8,2.6c1.5-0.3,2.9-0.8,4.2-1.5
				c1.5-1.1,1.9-2.9,2.3-4.4c1-3.7,2.6-7.1,3.1-10.8c0.1-1.6,0.4-3.3,0.1-4.8L813.7,187.9z M784.7,193.9c0.1-1.4,0.7-2.6,1.5-3.7
				c0.7,0.5,1.4,1,2,1.4c2.2,1,4.5,2.5,7,2.5c0.4,0,0.7,0,1.1,0c0.4-0.1,0.7-0.1,1.1-0.1c0.3,0,0.5,0,0.8,0c0.5,0,1,0,1.5-0.1
				c1.1-0.4,1.4-2,0.3-2.6c-0.3,0-0.5-0.1-0.8-0.1c-1.1,0-2.2,0.8-3.4,0.7c-2.9,0.1-5.2-1.8-7.5-3c0.8-0.5,1.9-0.8,3-0.8h2.2
				c1,0.5,1.6,1.4,2.7,1.4c0.7,0,1.4-0.7,1.2-1.4h3.3c0.8,1.1,1.8,2,2,3.4c0.1,0.8,0.3,1.8,1.1,2.2c0.1,0,0.4,0,0.5,0
				c0.3,0,0.4,0,0.7-0.1c0.8-0.5,0.7-1.5,0.4-2c-0.1-0.4-0.3-0.7-0.4-1c-0.4-0.5-0.7-1.1-1-1.6c-0.1-0.3-0.3-0.5-0.5-0.8h4.1
				c0.1,0.4,0.3,0.8,0.4,1.2c0.5,2.5-0.3,4.8-0.8,7c-0.5,2.5-1.8,4.5-2.2,6.8c-0.4,2.6-1.4,4.5-4.2,4.5c-0.4,0-0.7,0-1.1-0.1
				c-1.8-0.4-2.9-2-4.1-3.1c-1.1-1.1-9.1-3.8-10.8-4l-0.1-3.7c1.4,0,2.5,0.7,3.7,1.2c2,0.8,4.1,1.6,6.3,2.2c0.3,0,0.4,0,0.7,0
				c1.8,0,3.3-1,4.9-1.2c1-0.3,2-0.1,3-0.3c0.4,0,0.8-0.4,1.1-0.7c0.5-0.7,0-2-0.8-2.2c-0.1,0-0.4,0-0.5,0c-1,0-1.9,0.8-2.9,1
				c-1.6,0.4-3.3,0.8-5.1,0.8c-1.2,0.1-2.5-0.4-3.7-1c-1.6-0.5-3.3-1.4-4.8-2C786.1,194,785.4,193.9,784.7,193.9z M795.3,213.7h-4
				c-3.1,0-5.7-2.2-6.4-5.1c3,0.5,5.1,1.4,7.6,3.1C793.3,212.4,794.3,213,795.3,213.7z M802.5,202.6c-0.1-1-1.1-1.6-1.9-1.6
				c-0.1,0-0.4,0-0.5,0.1c-1,0.1-1.6,1.2-1.4,2.2c0.3,0.7,1.1,1.1,1.9,1.1C801.5,204.4,802.4,203.6,802.5,202.6z M805.5,214.9
				c1.1-0.8,0.7-2.7-0.4-3.3c-0.5-0.1-0.7-0.3-1-0.3c-0.4,0-0.8,0.1-1.1,0.5c-0.5,0.5-0.5,1.4-0.3,2c0.4,1.1,1.2,1.2,2.3,1.2
				L805.5,214.9z M830.3,279.1c-2.3-0.8-4.9-2.2-7.1-3.6c-0.8-0.4-1.2-1.4-2-1.8c-0.3-0.1-0.5-0.1-0.7-0.1c-0.4,0-0.8,0.1-1,0.3
				c-0.5,0.4-0.4,1.1-0.3,1.6c0.3,0.5,0.8,1,1.5,1.2c1.5,0.8,3.1,1.6,4.6,2.6h-7.6c-0.1-1.2-0.5-2.3-0.7-3.6c-0.1-1.5-0.1-3-0.3-4.5
				c-0.3-1-0.7-1.8-1-2.6c-1-2-1.9-4.2-2.9-6.3c-0.5-1.1-1.1-2.2-1.4-3.4c-0.3-0.8,0-1.8-0.4-2.5c-0.1-0.5-0.8-1-1.4-1
				c-0.3,0-0.4,0.1-0.7,0.3c-0.7,0.4-0.5,1.4-0.4,2c0.5,1.6,1,3.3,1.8,4.9c1.1,2.2,2.2,4.5,3.1,6.8c0.7,1.5,0.8,3.1,1,4.8
				c0.1,1.6,0.4,3.3,0.8,4.9h-3.3c-0.3-1.9-0.5-3.8-0.8-5.9c-0.5-3.4-3.1-9.4-5.5-12.3c-0.5-0.7-1-1.5-0.5-2.3c0.4-1,1-1.8,1.4-2.9
				c0.5-1.2,1.1-2.6,1-4c0-1.2-0.4-2.5-0.8-3.7c-0.5-2-1.1-4.1-1.6-6.1c-0.7-2.2-1.1-3.8-1.6-5.5v-12.8c0.4,2.2,1,4.4,1.5,6.4
				c0.3,1.4,0.7,2.7,1.1,4.1c1.4,4.1,2.3,8.2,3.4,12.3c0.5,1.6,0.8,3.1,1.4,4.6c0.5,1.6,1.9,2.9,2.7,4.2c0.7,1.4,1.2,3,1.8,4.5
				c0.8,2,3.1,8.3,4.6,9.8c1.6,1.9,10.2,6.3,13.7,7C832.9,278,831.7,278.8,830.3,279.1z M805.1,254.1c-0.4,1.2-1,2.5-1.4,3.6
				l-0.1-12.4c0.5,2,1.1,3.7,1.5,5.3v-0.1c0.1,0.7,0.3,1.5,0.1,2.2C805.2,253.1,805.2,253.7,805.1,254.1z M809.5,277
				c0.1,0.8,0.3,1.5,0.4,2.3c-1.4-0.1-2.6-0.5-3.6-1.2c-0.1-0.4-0.1-0.7-0.1-1.1c-0.1-0.8-0.3-1.6-0.3-2.6c-0.1-1.2-0.4-2.6-0.8-3.8
				c-0.4-1-1-1.9-1.5-2.7v-6c0.4,0.7,0.8,1.4,1.2,2c1.2,2,2.2,3.7,3,5.5C808.8,271.8,809.2,274.4,809.5,277z M821.9,187.9h3.6
				c-0.4,0.8-0.7,1.6-0.8,2.6c-0.8,3.1-0.7,6.3-1.5,9.4c-1.5,5.6-3.8,11.1-3.1,16.8c0.1,1.9,1.9,3.1,3.1,4.4
				c1.8,1.5,2.6,3.6,3.7,5.5c1.6,2.7,4.2,4.5,6.1,6.8c1,1.1,1.6,2.5,2.3,3.8v7.5c-1.4-3.6-3.6-8.6-6.3-11.1c-1.1-1.2-2.7-2-3.8-3.4
				c-1.4-1.8-2.5-4.4-3.1-6.6c-0.1-0.8-0.7-1.5-1.5-1.5s-1.5,1-1.2,1.6c0,0.4,0.1,0.7,0.4,1c1.5,2.2,2,5.1,3.7,7.1
				c1.1,1.4,2.6,1.9,3.7,3c1.4,1.2,2.3,2.9,3.1,4.4c1.8,3.8,3.6,7.6,5.1,11.5v11.7c-0.1-1.2-0.1-2.5-0.5-3.6c-0.4-2-1.4-4.1-2-6.3
				c-1.5-4-3.4-7.8-5.2-11.7c-0.7-1.1-1.4-2.5-1.8-3.8c-0.1-0.7-0.8-1.1-1.5-1.1c-0.1,0-0.4,0-0.5,0.1c-0.8,0.3-0.8,1.2-0.5,1.9
				c0.4,0.8,1.1,1.5,1.5,2.3c2.2,4.9,4.6,9.6,6.4,14.5c1,2.6,2,5.3,2,8.2c0.1,1-0.5,2,0.1,3c0.3,0.5,0.7,0.7,1.1,0.7s0.7,0,1-0.3v3
				c-2.2-0.5-3.6-1.5-4.9-2.2c-1.4-0.8-3-1.4-4.1-2.5c-1.2-1.2-1.8-2.7-2.3-4.2c-1.2-3.4-2.5-6.8-4.2-10c-1.6-3-2.9-6.3-3.7-9.7
				c-0.5-2.3-0.8-4.6-1.6-7c-1.4-4-2.2-6.8-2.9-11.1c-0.3-2.2-1.1-4.2-0.8-6.4s0.1-4.4,0.4-6.6c0.3-1.5,0.8-2.9,1.4-4.4
				c1.5-4.6,3.1-9.4,3.3-14.3c0.3-1.1,0.3-2.2,0.3-3.3h3.3c-0.4,2.5-0.4,4.9-1,7.4c-0.5,4.5-2.3,8.7-3.4,13.2
				c-0.8,2.6-1.1,5.5-0.8,8.3c0.3,1.9,0.5,3.8,0.5,5.7c0,2.5,0.5,4.8,1.4,6.8c0.7,1.6,1.6,3.3,1.9,4.9c0.4,1.4,0.4,2.7,0.5,4.2
				c0.5,3.1,1.9,6,3.3,9c1.1,2.2,2.2,4.4,3.1,6.7c0.8,1.9,1.4,4,2.3,5.9c0.4,1,0.4,2,1,3c0.3,0.4,0.7,0.7,1.2,0.7
				c0.4,0,1-0.3,1.1-0.7c0.7-1.2-0.7-2.3-1.1-3.4c-0.7-1.9-1.4-4-2.2-5.9c-1.6-4.2-3.8-8.2-5.6-12.4c-0.5-1.2-1-2.6-1-4
				c0-1.8,0-3.6-0.7-5.1c-1.1-2.3-2.3-4.4-2.9-6.8c-0.4-2.2,0.1-4.5-0.1-6.7c-0.3-1.4-0.5-2.7-0.5-4.2c0.1-5.2,2.2-10,3.4-14.9
				c0.8-3.1,1.1-6.3,1.5-9.6C821.5,189.4,821.6,188.7,821.9,187.9z M824.6,203.3c0.4-1.5,1-3.1,1.1-4.8c0.5-2.6,0.5-5.3,1.2-7.8
				c0.3-1,0.7-1.9,1.1-2.9h3.7c-0.7,1.4-1.5,2.9-1.9,4.4c-0.8,2.5-0.4,5.1-1,7.5c-0.3,1.5-0.8,2.9-1.2,4.2c-0.8,2.6-1.5,5.3-1.9,8.1
				c-0.1,0.5-0.1,1.2,0,1.9c0.1,1.4,0.8,2.6,1.6,3.6c1.2,1.6,2.5,3.4,3.6,5.2c1.2,1.9,2.7,3.6,4.4,5.2v4.8c-0.4-0.5-0.7-1-1.1-1.5
				c-1.6-1.8-3.6-3.3-4.9-5.3c-1.4-1.8-2.2-4-3.8-5.7c-0.8-1-1.9-1.8-2.6-2.9c-0.8-1.4-0.7-3.1-0.5-4.8
				C822.7,209.3,823.7,206.3,824.6,203.3z M837.7,187.9c-0.5,1.9-1.4,3.7-2.5,5.3c-0.7,1-1.9,1.9-1.5,3.1c0.3,0.5,0.8,0.8,1.2,0.8
				c0.3,0,0.4-0.1,0.5-0.1c0.8-0.4,1.1-1.4,1.4-2.2c0.7-1.2,1.6-2.2,2.2-3.6c0.4-1.1,0.7-2.3,1.1-3.4h2.5c-0.3,1.6,0.8,2.5,1,3.7
				c0,0.7-0.7,1.1-1.1,1.5c-1.9,1.4-2.9,3.6-4.5,4.9c-1.2,1.1-2.6,1.8-3.4,3.1c-1.1,1.5-1.5,3.3-2,5.1c-0.4,2.2-1.2,4.5-0.8,6.7
				c0.3,1.6,1.2,3,2.2,4.4c0.4,0.7,1,1.4,1.5,2l-0.1,5.1c-0.7-0.7-1.4-1.5-1.9-2.3c-1.4-2.2-2.9-4.2-4.4-6.3c-1-1.4-1-3.1-0.7-4.8
				c0.5-2.7,1.1-5.5,2-8.1c0.4-1.2,1-2.3,1.1-3.7c0.1-1.5-0.3-3.1,0.1-4.8c0.3-1.6,1.1-3.3,1.9-4.8c0.3-0.5,0.5-1.1,0.8-1.8h3.4
				V187.9z M844.5,194.1c0.3-0.4,0.8-0.5,1.4-0.5c0.3,0,0.4,0,0.7,0.1c2.2,0.5,4.2,1,6.4,1.2v3.8c-1.1-0.5-2.2-1.2-3.4-1.4
				c-0.5-0.1-1.1-0.1-1.6-0.1c-0.7,0-1.5,0.1-2.2,0.4c-1.2,0.8-2.2,1.9-3.3,3c-1,1.1-2,2-3,3.3c-1.4,1.6-1.9,3.8-2,6
				c0,1.6,0.5,3,1.4,4.4c-1,0.5-1.9,1.4-2.5,2.2c-0.8-1-1.5-2-1.9-3.3c-0.7-1.9-0.3-3.8,0.1-5.6c1-3.8,1.4-4.9,4.4-7.5
				C841,198.2,842.8,196.2,844.5,194.1z M841.7,213.7c-1.2-1.1-1.8-2.5-1.9-4c0.1-1.6,0.7-3.4,1.8-4.6c1-1.1,2.2-2,3-3.1
				c0.8-1,1.6-1.9,2.7-2.2c0.4-0.1,0.7-0.1,1.1-0.1c1.1,0,2.2,0.4,3.3,0.8c0.5,0.3,1.1,0.7,1.2,1.4c0,0.8,0,1.5,0.1,2.2v3.3
				c0,1-0.3,1.9-0.7,2.9c-0.8-1.2-1.4-2.6-1.9-4c-0.4-0.8-0.4-1.9-0.8-2.9c-0.3-0.5-0.8-1-1.4-1c-0.3,0-0.5,0-0.7,0.1
				c-0.7,0.3-0.8,1.2-0.7,1.9c0.4,0.8,1,1.5,1.4,2.3c0.4,1.1,0.7,2.5,1.4,3.6c0.3,0.7,0.8,1.2,1.2,1.8c-0.8,0.7-1.8,1.2-2.9,1.5
				c-0.8-1-1.6-1.9-2-3.1c-0.4-1.1,0.1-2.3-0.4-3.4c-0.1-0.4-0.7-0.7-1.2-0.7c-0.4,0-0.7,0.1-1,0.4c-0.5,0.5-0.4,1.4-0.3,2
				c0.3,0.8,0.4,1.5,0.7,2.2c0.3,1.1,0.7,1.9,1.4,2.7L841.7,213.7L841.7,213.7z M845.2,188.1l1.4-0.3c2.9,0,5.3,2,6.1,4.8
				c-1.8-0.4-3.6-1-5.5-1.1c-0.7,0-1.4-0.1-1.6-0.7C845.2,190,845.5,189.1,845.2,188.1z"/>
			<path class="st0" d="M885,216.8c-1.1,1.9-2.7,3.6-3,5.9c0,1.5,0.4,3,0.7,4.5c0.3,1.8,0.5,3.4,0.7,5.1c0.3,1.9,0.1,3.7,0.1,5.6
				c0,2.5-1.8,4.5-1.5,7.1c0.1,2.9,1.1,5.7,1.5,8.7c0.4,1.6,0.1,3.3,0.3,4.9c0,1.4,0.1,2.7,0.1,4.1c0,2.9,0,5.9,0,8.7
				c0,3.3-1.8,4.8-4.9,4.8c-1.2,0-2.5-0.3-3.6-0.4c-3.8-0.8-7.2-3-10.2-5.6c-1.2-1.2-2.7-2.6-3.7-4.1c-1.4-1.9-1.8-4.4-2.3-6.6
				c-0.1-1-0.4-1.8-0.7-2.6v-11.3c0.1,0.4,0.3,0.8,0.4,1.4c1.2,4,2.3,7.9,3.3,11.9c1.5,5.1,3,7.8,7.4,10.7c3,2,6.8,3.7,10.5,3.7
				c0.8,0,1.5-1,1.2-1.6c-0.1-0.4-0.5-1-1-1c-0.3-0.1-0.4-0.1-0.7-0.1c-0.5,0-1.1,0.1-1.6,0.1c-0.1,0-0.4,0-0.5,0
				c-5.7-1.1-11.3-5.9-12.7-11.6c-0.8-3-1.5-6-2.5-9c-1.2-3.8-2.5-7.8-3.3-11.7c-0.3-1.2,0.3-2.6-0.5-3.6v-3.3c1.1,0.4,2,1.1,2.6,2
				c1,1.5,1,3.4,1.2,5.1c0.7,4.6,2.7,8.7,3.8,13.2c0.7,2.7,1.2,5.6,2.5,8.3c1.1,2.6,3.3,4.5,5.7,6c1.1,0.5,2.2,0.8,3.3,1.2
				c0.8,0.1,1.6,0.7,2.5,0.8c1,0.1,2.2-1,1.5-1.9c-0.4-0.8-1.4-1-2.2-1c-1.5,0-2.9-0.7-4.1-1.5c-2.2-1.2-4-3-4.9-5.3
				c-1.1-2.7-1.5-5.7-2.3-8.5c-0.5-2.2-1.4-4.2-2-6.3c-0.7-2.3-1.2-4.6-1.6-7c-0.3-1.9-0.5-4.1-2-5.6c-1.1-1-2.5-1.8-3.8-2.2v-3.4
				c1.4,0.8,3,1.2,4.4,2c1.5,0.7,3,1.9,3.6,3.6c0.8,2.9,1,6,1.8,8.9c0.7,3.1,2.2,6,3,9c0.8,2.9,1.1,5.7,2.3,8.5
				c0.8,1.8,4.5,4.8,6.4,5.3c0.5,0,0.8,0,1.2-0.3c0.5-0.4,0.5-1.1,0.4-1.5c-0.3-0.8-1.2-1.1-2-1.4c-1.8-0.3-3.3-1.6-4-3.3
				c-1-2.2-1.2-4.8-1.8-7.1c-0.5-2.5-1.6-4.6-2.5-7c-1.2-3-1.6-6.1-2-9.3c-0.4-1.9-0.8-4-2.2-5.5c-2.5-2.5-6.1-2.7-8.6-5.1V217
				c0.4,0.5,0.8,1,1.1,1.4c1.6,2.3,4.2,3.3,6.6,4.5c1.5,0.8,3.4,1.2,4.4,2.6c0.8,1.1,1,2.5,1.2,3.6c0.3,1.8,0.7,3.6,0.8,5.2
				c0.3,2.2,0.5,4.5,1.5,6.6c0.7,1.8,1.9,3.4,2.3,5.3c0.5,2.2,0.7,4.6,1.5,6.8c0.4,1.1,0.3,2.3,1,3.3c0.3,0.5,0.7,0.7,1.1,0.7
				c0.3,0,0.5-0.1,0.7-0.1c0.5-0.4,0.8-1,0.7-1.6c-0.3-0.8-0.8-1.6-1.1-2.5c-0.7-2.6-1-5.1-1.5-7.6c-0.4-1.9-1.9-3.3-2.6-5.1
				c-0.7-1.4-0.8-2.9-1.1-4.4c-0.1-2.9-1-8.2-2-10.9c-0.4-1.1-1.4-1.8-2.3-2.3c-1.6-0.8-3.6-1.6-5.3-2.6c-2-1.1-4.2-2.5-5.2-4.6
				c-0.3-0.5-0.5-1.1-1.2-1.4l-0.4-3.1c1,0.8,2,1.4,3,2.2c1,0.7,1.8,1.6,2.9,2.5c1.9,1.8,6.7,4,9.3,4.8c0.5,0.1,1.4,0.1,1.8,0.5
				c0.5,0.5,0.5,1.4,0.7,2c0.1,1.8,0.8,3.6,1.1,5.3c0.5,2.7,0.7,5.6,1.1,8.5c0.1,1-0.1,1.9,0,3c0.3,0.5,0.8,0.8,1.4,0.8
				c0.4,0,0.8-0.1,1-0.4c0.5-0.7,0.3-1.5,0.1-2.2c-0.4-1.1-0.1-2.3-0.4-3.6c-0.3-3.7-1-7.2-1.6-10.9c-0.1-1-0.7-1.9-0.7-2.9
				c0.1-0.7,0.8-1.2,1.2-1.6c3.8-3.1,6.1-10,7.5-14.5c0.3-0.8,0.3-1.8,0.1-2.7c-0.8-2.2-9.8-8.1-13-8.6c-1.2-0.4-2.6-0.4-4-0.5
				c-3.3,0-6.4,1.1-9.3,2.5c-0.7,0.3-1.5,0.7-2.2,1.1v-2.9c2.3-2,7.6-4,10.8-4c0.4,0,0.7,0,1.1,0.1c1.6,0.1,3.4,0.3,5.2,0.5
				c2.3,0.4,8.2,4.6,10,6.1c1,0.7,1.9,1.6,2.9,2.3c0.5,0.4,1.1,0.5,1.8,0.5v4.6c-0.1,0.4-0.3,1-0.4,1.4
				C888.8,209.2,887.2,213.1,885,216.8z M858.5,204.4v-5.1c0.7-1,1.8-1.4,2.7-1.9c3-1.5,5.7-2.5,9-2.5c5.2,0.5,7.4,2,11.3,5.3
				c1.1,0.7,2.2,1.2,2.7,2.5c0.3,1,0,1.9-0.3,2.7c-0.5,1.5-1,3-1.5,4.5c-1,2.2-2.2,4.2-3.8,6.1c-0.7,0.7-1.2,1.8-2.2,2.3
				c-0.1,0.1-0.3,0.1-0.5,0.1c-0.4,0-0.8-0.1-1.2-0.3c-1.8-1-3.8-1.5-5.6-2.5c-1.8-0.8-8.3-5.7-9.4-7.4
				C859,207.1,858.7,205.7,858.5,204.4z M887.4,278.1c-0.4,0.4-1,0.7-1.4,1.1c-0.4,0-0.8,0.1-1.2,0.1h-16.2c-0.8-0.5-1.8-1-2.6-1.6
				c-1.9-1.4-4.1-2.5-5.6-4.4c-0.5-0.7-1.2-1.4-1.9-1.9v-5.7c1.9,4.2,7.4,8.5,11.3,10.7c2.5,1.2,5.1,1.8,7.6,2.2c0.5,0,1.1,0,1.6,0
				c1,0,1.9-0.1,2.9-0.4c1.9-0.7,3.6-2.3,4-4.4c0.3-1.9,0.4-3.8,0.3-5.7c0-1.5,0.1-3.1,0-4.6c-0.3-2.5,0-4.8-0.3-7.2
				c-0.1-1,0-2-0.3-3.1c-0.3-2.3-0.8-4.5-1.2-6.7c-0.3-1.2,0-2.5,0.3-3.7c0.5-1.9,1.1-3.8,1.1-5.9c0.1-4-0.4-7.9-1.1-11.7
				c-0.1-1-0.3-1.8,0-2.7c0.3-1,0.8-1.9,1.4-2.7c1.5-2.2,2.6-4.5,3.7-7c0.1-0.4,0.3-0.8,0.4-1.1v7.4c-0.8,1.5-1.6,2.9-1.9,4.6
				c-0.1,1-0.1,2,0,3.1c0.4,3.3,1,6.7,0.5,10.1c-0.1,3-1.2,5.9-1.1,8.7c0,1.4,0.3,2.6,0.5,4c0.5,3,0.8,6.3,0.8,9.4
				c-0.1,4.4,0.5,8.7,0,13.1C889.1,274,889.1,276.6,887.4,278.1z M863.8,279.3c-2.6,0-4.8-1.9-5.2-4.4c1.1,1.8,2.7,2.5,4.1,3.4
				c0.4,0.3,1,0.5,1.5,1H863.8z M864.9,187.9c-1.1,0.3-2.2,0.5-3.1,1c-0.7,0.1-1.2,0.4-1.8,0.7c1-1,2.3-1.6,3.8-1.6L864.9,187.9
				L864.9,187.9z M862,205.9c1.4,3.1,8.3,7.5,11.6,8.5c0.3,0.1,0.5,0.1,0.8,0.1c1.2,0,2.3-0.8,3-1.8c1.8-2.2,3.1-4.9,3.1-7.8
				c0-3.8-8.6-6.8-11.7-6.8c-1.9,0-4,0.7-5.6,1.6c-0.7,0.5-1.4,1.1-1.6,1.9C861.1,203,861.6,204.5,862,205.9z M864.9,201.5
				c1.2-0.8,2.6-1.1,4-1.2c2,0,8.3,2.3,9.1,4.6c0.4,1.5-0.1,3-0.8,4.2c-0.5,1-1.2,2-2.2,2.6c-0.3,0.1-0.7,0.1-1,0.1
				c-0.5,0-1.1-0.1-1.5-0.4c-2.6-1.5-7.6-4.2-8.6-7.1C863.5,203.3,864.1,202.1,864.9,201.5z M868.6,202.9c-1,0-1.8,1-1.4,1.9
				c0.5,1.1,1.9,1.1,2.9,1.4c1.2,0.4,2,1.5,3,2.2c0.3,0,0.5,0.1,0.8,0.1c0.5,0,1-0.1,1.2-0.5c0.3-0.4,0.3-1,0.1-1.4
				c-0.5-1.2-1.9-1.2-3-1.8c-1.2-0.4-2-1.4-3.3-1.8C868.9,202.9,868.7,202.9,868.6,202.9z M877,187.9h6.3c1.6,1.1,3.3,2.2,4.9,3.4
				c0.5,0.3,1.2,0.7,1.8,1c0.1,0.3,0.1,0.7,0.1,1.1v3c-0.7,0-1.2-0.4-1.6-0.8C887,194.1,879.1,188.5,877,187.9z M890.2,246
				c0-0.5,0-1.1,0-1.6V246z"/>
			<path class="st0" d="M907,188.1c-2.3,1.4-4.5,3.3-7,4.5c-1.6,0.8-3.4,1.4-4.9,2.5c-0.1-1.5,0.1-2.9,0.8-4.1
				c1.8-0.4,3.3-1.2,4.6-2.3c0.4-0.3,0.8-0.5,1.1-0.8h5.7L907,188.1z M911.9,187.9h5.2c-3.6,2.9-7.6,5.2-11.5,7.8
				c-3,1.9-6.3,3.3-9.1,5.3l-1-3.3c0.4-0.1,0.7-0.4,1-0.7c1.9-1.2,4.1-1.9,6-3.1c2-1.2,4-2.7,6-3.8
				C909.5,189.4,910.8,188.5,911.9,187.9z M921.4,187.9c1.2,0,2.5,0.4,3.6,1.1c-0.8,0.5-1.6,1.1-2.3,1.6c-3.1,2-5.9,4.6-9.1,6.6
				c-2,1.2-4,2.5-5.9,3.7c-2.2,1.5-4.6,2.5-6.8,3.8c-1.2,0.5-2.3,1.4-3.4,2l-0.7-3.3c1-0.7,2.2-1.2,3.3-1.9c1.9-1.1,3.8-2,5.6-3.1
				c2.3-1.4,4.5-2.9,6.8-4.2c3-1.9,5.7-4.2,8.7-6.3L921.4,187.9L921.4,187.9z M924.4,192.2c0.8-0.5,1.5-1,2.3-1.4
				c0.5,0.8,1,1.6,1.1,2.7v0.4c-3,1.2-5.1,2.7-6.7,4.5c-1.2,1.1-2.5,2.2-4,2.9c-2.2,1.1-4.2,2.5-6.1,4c-1.8,1.4-3.8,2-5.7,3
				c-1.8,0.8-3.4,1.9-5.2,2.9c-0.5,0.3-1.1,0.5-1.6,0.8l-0.7-3c1.2-0.7,2.3-1.4,3.4-2c2-1.1,4.2-2,6.3-3.3c1.9-1.1,8.2-4.9,9.8-6.3
				C919.8,195.6,921.8,193.7,924.4,192.2z M925.1,198.1c1-0.7,1.9-1.2,3-1.5l0.5,3.7c-0.8,0.1-1.6,0.3-2.3,0.3
				c-0.8,0-1.9,0.5-1.8,1.5c-0.1,0.7,0.5,1.4,1.4,1.2c0.7,0.1,1.4-0.4,2-0.5l1.4,3.3c-1.8-0.1-3-0.1-4.4-0.4
				c-0.7-0.1-1.4-0.3-2.2-0.3s-1.6,0.1-2.3,0.5c-2.7,1.1-7.8,3.8-8.2,7.2c-0.4,4.2-0.5,8.6-0.4,12.8c0.1,2.5,0,4.8,0.1,7.1
				c0.1,1.4,0.1,2.7,0.3,4.1c0.3,2.7,1.1,5.3,1,7.9c-0.1,2.7-0.8,5.5-1.1,8.2c-0.1,2.5-0.1,5.1,0.3,7.5c0.1,1.6,0.5,3.3,0.3,5.1
				c-0.3,1.2-0.8,2.3-1.4,3.6c-0.4,0.5-0.5,1.1-1,1.6l-1.2-6c0.1-0.7,0.3-1.4,0.3-2.2c-0.3-2-0.5-4.2-0.7-6.3c0-4,1.5-7.8,1.2-11.6
				c0.1-3.1-0.8-6-0.8-9c-0.3-3.1-0.1-6.3-0.3-9.4c-0.3-3.4,0-6.8,0-10.1c0-1.1,0.8-2,0.7-3.3c0-0.7-0.7-1.2-1.4-1.2
				c-0.3,0-0.5,0-0.7,0.3c-0.8,0.5-0.8,1.6-0.8,2.5c0,1.1-0.1,2.2-0.1,3.3c0,6.4,0,13,0.3,19.5c0.1,1.4,0.4,2.9,0.7,4.2
				c0.3,1.9,0.3,3.7,0.1,5.6c-0.1,1.9-0.5,3.7-1,5.6l-3-14.9c0-0.4,0-0.8-0.1-1.2c0-3.8,0.3-7.5-0.1-11.3c-0.1-1.8,0.3-3.6,0.1-5.3
				c-0.1-1.1,0.1-2.2,0.4-3.1c0.3-1-0.5-2-1.5-2c-0.1,0-0.1,0-0.3,0c-1,0.3-1.2,1.2-1.1,2c0.4,2.5,0.1,5.1,0,7.5l-2.2-10.1
				c2-1.1,4.1-2,6-3.3c1.4-0.8,3-1.4,4.5-1.9c1.9-0.7,3.3-2.3,4.9-3.4s3.4-2,5.1-2.9C921.7,201.8,922.9,199.3,925.1,198.1z
				 M913.1,270.9c0.8-1.5,1.8-3,2-4.8c0-1.1,0-2,0-3.1c-0.5-3.4-1.1-6.8-0.7-10.1c0.3-3,1.2-5.9,1.1-8.9c0.1-1.2-0.1-2.6-0.4-3.8
				c-0.5-3.1-1-6.3-0.8-9.4c0-4.4-0.5-8.7-0.1-13.1c0.4-5.9,1-6.3,6-9c1.1-0.7,2.2-0.8,3.3-0.8c0.7,0,1.2,0,1.8,0.1
				c1.5,0.3,2.9,0.4,4.4,0.5l0.4,3.4c-1.4-0.4-2.7-0.7-4.2-0.8c-0.4,0-1-0.1-1.5-0.1c-1,0-1.9,0.1-2.9,0.5c-1.9,0.7-3.7,2.3-4,4.4
				c-0.3,1.9-0.4,3.8-0.4,5.7c0.1,1.5,0,3.1,0.1,4.6c0.3,2.5,0,4.8,0.1,7.1c0.1,1.1,0.1,2.2,0.3,3.3c0.4,2.2,1,4.5,1.4,6.7
				c0.1,1.2,0,2.5-0.3,3.6c-0.5,2-1.1,4-1.2,6c-0.1,4,0.5,7.8,1.2,11.7c0.1,0.8,0.3,1.8,0,2.7c-0.3,0.9-0.8,1.8-1.4,2.6
				c-1.5,2.3-2.7,4.6-3.7,7.1c-1.4,0-2-1-2.5-2.2C911.9,273.5,912.4,272.2,913.1,270.9z M924.4,213.4c1.1,0,2.5,0.1,3.6,0.4
				c0.8,0.1,1.5,0.4,2.3,0.7l0.4,3.7c-1.2-0.7-2.6-1.1-4-1.4c-1.1,0-2-0.5-3-0.5c-0.1,0-0.3,0.1-0.4,0.1c-0.8,0-1.5,0.8-1.2,1.6
				c0.1,0.4,0.4,0.8,1,1c0.1,0.1,0.4,0.1,0.7,0.1c0.5,0,1.1-0.1,1.6-0.1c0.1,0,0.3,0,0.4,0c1.9,0.4,3.7,1.1,5.3,2l0.4,4.4
				c-0.7-0.7-1.6-1.4-2.5-1.9c-1.1-0.5-2.2-0.8-3.3-1.2c-1-0.3-1.6-0.8-2.6-1s-2,1-1.5,1.9c0.4,0.8,1.4,1.1,2.2,1.1
				c1.5,0,2.9,0.7,4.2,1.4c1.6,1,3,2.2,4,3.8l1.9,16.4c-0.7-1.8-1.4-3.6-1.8-5.3c-0.8-2.9-1.1-5.9-2.3-8.5c-0.7-1.6-1.9-2.9-3.6-3.6
				c-1-0.5-1.8-1.5-2.9-1.8c-0.1-0.1-0.3-0.1-0.3-0.1c-0.4,0-0.7,0.3-1,0.4c-0.5,0.3-0.5,1-0.4,1.5c0.3,0.8,1.2,1.1,1.9,1.2
				c1.8,0.4,3.3,1.6,4.1,3.3c1,2.3,1.2,4.8,1.8,7.2c0.5,2.5,1.6,4.6,2.5,7c1.2,3,1.5,6.1,2,9.3c0.4,1.9,0.7,4,2,5.5
				c2.6,2.5,6.3,2.7,8.9,5.2c1.2,1.4,2.3,3,3,4.8c0.7,1.9,0.3,4,0.5,5.9c0,0.5,0.1,1,0.3,1.5H945c-1.2-1.5-2.5-2-3.4-2.9
				c-1.1-0.8-1.9-1.8-2.9-2.5c-1.8-1.5-7-4.4-9.3-4.8c-0.7-0.1-1.4-0.1-1.9-0.7c-0.4-0.4-1.5-6.6-1.6-7.2c-0.5-2.9-0.7-5.7-1.2-8.5
				c-0.1-1,0.3-2,0-3c-0.1-0.5-0.7-1-1.2-1c-0.4,0-0.8,0.1-1.1,0.5c-0.4,0.7-0.3,1.5,0,2c0.4,1.2,0.1,2.5,0.3,3.7
				c0.3,3.7,1.1,7.2,1.8,10.9c0.1,1,0.7,1.8,0.5,2.9c0,0.7-0.7,1.1-1.2,1.6c-2,1.6-4.6,6.1-5.5,8.7h-1.1c-0.8,0-1.5-0.1-2.2-0.4
				c1-2,1.9-4.2,3-6.1c1.1-1.9,2.9-3.6,3-5.9c0-1.5-0.3-3.1-0.5-4.6c-0.4-1.6-0.5-3.3-0.7-4.9c-0.3-1.9-0.1-3.8-0.1-5.6
				c0-2.5,1.6-4.6,1.5-7.1c-0.1-3-1.1-5.9-1.6-8.7c-0.3-1.6-0.1-3.3-0.1-4.9c0-1.4-0.3-2.7-0.3-4.1c0-3,0-5.9,0-8.9
				c0.1-1.5,0.5-3.1,2-4C922.2,213.5,923.3,213.4,924.4,213.4z M942,279.3h-4.9c-2.7-1.9-4.9-3.6-7.4-4.1c-0.3-0.1-0.5-0.1-0.8-0.1
				c-2.2,0-3.8,2.5-4.6,4.2H921c0.7-1.9,4-7,5.7-8.2c0.3-0.1,0.4-0.1,0.7-0.1c0.4,0,0.8,0.1,1.2,0.3c1.8,0.8,3.8,1.4,5.6,2.3
				C936.9,275,939.7,277.3,942,279.3z M922.1,234c0.3,1,0.8,1.8,1.1,2.6c0.7,2.5,1,5.1,1.5,7.5c0.4,2,1.9,3.4,2.6,5.2
				c0.7,1.4,0.8,2.9,1,4.4c0.3,2.2,0.7,4.5,1,6.7c0.4,1.4,0.5,2.9,1.2,4.2c0.4,1,1.2,1.8,2.2,2.2c1.8,1,3.7,1.6,5.5,2.6
				c2,1.1,4.1,2.5,5.1,4.8c0.3,0.5,0.7,1.1,1.4,1.2c0,0.1,0.1,0.1,0.3,0.1c0.5,0,1-0.4,1.2-0.7c0.1-0.5,0.1-1.2-0.3-1.8
				c-0.7-0.8-1.5-1.4-2-2.3c-1.5-2.2-4.2-3.1-6.6-4.4c-1.5-0.8-3.3-1.2-4.4-2.7c-0.7-1-0.8-2.3-1.1-3.6c-0.3-1.6-0.7-3.4-0.8-5.2
				c-0.3-2.2-0.5-4.4-1.5-6.4c-0.7-1.8-1.9-3.4-2.5-5.3c-0.5-2.3-0.7-4.6-1.4-6.8c-0.5-1.1-0.4-2.3-1-3.4c-0.3-0.4-0.7-0.5-1.2-0.5
				c-0.1,0-0.4,0-0.5,0.1C922.2,232.8,921.8,233.5,922.1,234z M929.3,277.7c0.5,0,1.1,0.1,1.5,0.4c0.7,0.3,1.5,0.8,2.2,1.2h-6.3
				c0.4-0.7,1-1.2,1.6-1.5C928.7,277.7,929.1,277.7,929.3,277.7z M954.7,279.2c-0.4,0.1-0.8,0.1-1.2,0.1h-2.2
				c-0.1-0.8-0.3-1.5-0.4-2.3c0-0.8-0.1-1.6-0.1-2.6c-0.4-3.3-1.9-6.3-4-8.9c-1.6-1.9-4.2-2.5-6.3-3.6c-1.5-0.7-3-1.9-3.6-3.6
				c-0.8-3-1-6-1.8-9c-0.1-0.7-0.4-1.4-0.7-2h2.2l0.3-2.6c1.1,2.2,1.6,5.7,1.9,8.1c0.4,1.9,0.7,4.1,2.2,5.6c1.4,1.2,3,2.2,4.9,2.3
				c0.7,0,1.5-0.1,2,0.5c0.7,0.7,1.1,1.8,1.6,2.6c2.7,4.5,4.2,7.6,4.5,13.1C954.3,277.7,954.6,278.5,954.7,279.2z M949.8,254.1
				c-0.3,1.2-0.8,2.5-1.4,3.6c-0.1,0.7-0.7,1-1.4,1c0,0-0.1,0-0.3,0c-1.6-0.1-3.6-1-4.5-2.5c-1-1.5-1-3.4-1.4-5.2
				c-0.5-4.1-2.2-7.9-3.4-12l1-8.7c1,3.4,1.6,6.4,2.6,9.4c1.2,3.8,2.5,7.6,3.3,11.7c0.1,1.2-0.4,2.7,0.7,3.8
				c0.1,0.1,0.4,0.3,0.7,0.3c0.8,0,1.5-0.7,1.5-1.5c-0.4-3.1-1.9-8.5-2.7-11.3c-1.2-4-2.3-7.9-3.4-11.9c-0.4-1.9-1.1-3.8-2-5.5
				l0.5-4.5c0.8,0.8,1.6,1.6,2.3,2.7c1.4,1.9,1.6,4.2,2.3,6.6c1.2,5.2,3,10.4,4.2,15.6c0.4,1.6,1.1,3.3,1.4,4.9v-0.1
				c0.3,0.7,0.3,1.5,0.3,2.2C950.1,253.1,950,253.7,949.8,254.1z M960.3,260c0.4,1.4,1,2.6,1.5,3.8l-1.1,5.2
				c-1.1-2.3-1.9-4.5-2.9-6.6c-0.5-1.1-1.1-2.2-1.5-3.4c-0.1-0.8,0.1-1.8-0.3-2.5c-0.3-0.5-0.8-1-1.4-1c-0.3,0-0.5,0.1-0.7,0.3
				c-0.7,0.4-0.5,1.4-0.4,2c0.5,1.6,1,3.3,1.8,4.9c1.1,2.2,2.2,4.5,3.1,6.8c0.7,1.5,0.8,3.1,1,4.8c-0.4,1.9-1.4,3.1-2.6,3.8
				c-0.3-1.5-0.5-3.1-0.7-4.8c-0.4-2.7-1.5-5.3-2.9-7.6c-0.8-1.6-1.5-3.3-2.6-4.6c-0.5-0.7-1-1.5-0.7-2.3c0.5-1,1.1-1.8,1.5-2.9
				c0.5-1.2,1.1-2.6,1-4c0-1.5-2-8.3-2.6-9.8c-1-3.4-1.8-6.4-2.6-9.3c-0.8-2.9-1.4-5.6-2.2-8.3c-0.7-2.2-2.3-3.8-3.8-5.5
				c-0.4-0.5-1-1-1.5-1.4l0.4-4c1,0.7,1.9,1.4,2.7,2.3c1.1,1.4,2.3,2.5,3.6,3.6c1.1,1.1,1.6,2.6,1.8,4c0.5,2.3,1,4.5,1.5,6.7
				c0.4,1.4,0.8,2.7,1.2,4.1c1.4,4.1,2.2,8.2,3.4,12.3c0.4,1.5,0.8,3.1,1.4,4.6c0.5,1.6,1.8,2.7,2.6,4.2
				C959.2,256.9,959.7,258.6,960.3,260z M958.4,187.9c0,6-1.8,13.5-4.2,19.1c-0.5,1.5-1.1,3-0.8,4.6s-0.1,3.4-0.4,5.1
				c-0.3,1.5,0.3,3,0.5,4.4c0.7,2.5,0.8,5.1,1.5,7.5c0.7,3,2,5.7,2.6,8.7c0.8,3.8,1.8,7.6,3.3,11.2c0.7,1.8,1.8,3.4,2.6,5.1l-0.8,6
				c-0.5-1.2-1-2.6-1.6-4c-1-2.2-2.7-4.1-3.4-6.4c-1-3.4-1.9-6.8-2.9-10.2c-0.7-3.4-1.9-6.6-2.7-9.8c-0.7-2.3-1-4.6-1.5-7
				c-0.1-0.7-0.3-1.4-0.7-2c-0.3-0.8-1-1.6-1.6-2.2c-1.5-1-2.7-2.2-3.7-3.7c-1-1.4-2.5-2-3.8-3l0.3-3.6c1.2,1.1,2.7,2.2,4.4,2.3
				c1.5-0.3,3-0.8,4.4-1.5c1.5-1.1,1.9-2.9,2.3-4.4c1-3.7,2.6-7.1,3.1-10.8c0.1-1.6,0.4-3.3,0.1-4.8L958.4,187.9z M948.5,187.9h4.1
				c0.1,0.4,0.3,0.8,0.4,1.2c0.5,2.5-0.3,4.8-0.8,7c-0.5,2.3-1.8,4.5-2.2,6.8c-0.4,1.5-0.8,3.1-2.2,4c-0.5,0.4-1.2,0.5-2,0.5
				c-0.4,0-0.8,0-1.1-0.1c-1.4-0.4-2.5-1.4-3.4-2.5l0.5-5.2c1.2-0.3,2.3-0.7,3.4-1c1-0.3,2-0.1,3-0.3c0.4,0,0.7-0.4,1-0.7
				c0.7-0.7,0.1-2-0.8-2.2c-0.1,0-0.3,0-0.4,0c-1,0-1.9,0.8-2.9,1c-1,0.3-2,0.5-3,0.7l0.4-3.3c0.1,0,0.4,0,0.5,0
				c0.5,0,1.1,0,1.6-0.1c1-0.4,1.2-2,0.1-2.6c-0.5,0-1,0-1.5,0c0.7-1.1,1.6-2,2.9-2.6c0.7,0.8,1.2,1.6,1.4,2.7
				c0.3,0.8,0.4,1.8,1.1,2c0.3,0.1,0.4,0.1,0.7,0.1c0.1,0,0.4,0,0.5-0.1c0.8-0.5,0.8-1.5,0.5-2c-0.1-0.4-0.3-0.7-0.5-1
				c-0.3-0.5-0.5-1.1-0.8-1.6C948.9,188.4,948.7,188.1,948.5,187.9z M947.2,202.6c0-1-1-1.6-1.8-1.6c-0.3,0-0.4,0-0.5,0.1
				c-1,0.1-1.8,1.2-1.4,2.2c0.3,0.7,1.1,1.1,1.8,1.1C946.3,204.4,947.2,203.6,947.2,202.6z M950.4,214.9c1.1-1,0.7-2.7-0.5-3.3
				c-0.4-0.3-0.5-0.3-0.8-0.3c-0.4,0-0.8,0.1-1.1,0.4c-0.5,0.7-0.5,1.5-0.4,2.2c0.4,1.1,1.4,1.2,2.3,1.2L950.4,214.9z M960.6,191.1
				c0.1-1.1,0.3-2.2,0.3-3.3h3.3c-0.4,2.5-0.5,4.9-1,7.4c-0.5,4.5-2.3,8.7-3.6,13.1c-0.7,2.7-1,5.6-0.7,8.5c0.3,1.9,0.5,3.8,0.5,5.7
				c0,2.3,0.4,4.8,1.4,6.8c0.5,1.6,1.5,3.1,1.9,4.9c0.4,1.4,0.4,2.7,0.5,4.2c0.3,2.2,1.2,4.4,2.2,6.6l-1.1,5.3
				c-1.6-3-2.9-6.3-3.7-9.6c-0.5-2.3-0.8-4.8-1.5-7c-0.7-1.9-1.5-3.7-1.9-5.6c-0.5-1.8-0.8-3.7-1-5.5c-0.3-2.2-1.2-4.2-1-6.4
				c0.4-2.2,0.3-4.5,0.5-6.7c0.3-1.4,0.8-2.7,1.2-4.2C958.7,200.8,960.3,196,960.6,191.1z M968.8,187.9c0.5,0,1,0,1.4,0.1
				c-0.3,0.8-0.5,1.6-0.8,2.5c-0.7,3.1-0.5,6.3-1.5,9.4c-1.4,5.5-3.8,11.1-3.1,16.8c0.3,1.9,1.9,3.1,3.3,4.2
				c0.7,0.7,1.2,1.5,1.8,2.3l-1,4.9c-0.3-0.7-0.7-1.4-1-2c-0.5-0.8-0.7-1.6-1-2.5c-0.1-0.8-0.8-1.5-1.5-1.5c-0.8,0-1.5,1-1.4,1.6
				c0.1,0.4,0.3,0.7,0.4,1c1.6,2,2,4.8,3.7,7l-1.8,9.3c-0.4-1.2-0.8-2.3-0.8-3.6c0-1.8,0-3.6-0.8-5.1c-1-2.3-2.2-4.5-2.7-6.8
				c-0.4-2.2,0.1-4.5-0.1-6.7c-0.3-1.4-0.5-2.7-0.5-4.2c0-5.2,2.2-10,3.4-14.9c0.8-3.1,1.1-6.3,1.5-9.6c0-0.8,0.3-1.5,0.5-2.3h2
				L968.8,187.9L968.8,187.9z M971.1,216l-0.8,4.2c-0.8-1.1-1.9-1.9-2.6-3c-0.8-1.4-0.8-3.1-0.5-4.8c0.4-3.1,1.4-6.1,2.2-9.1
				c0.5-1.6,1-3.1,1.2-4.8c0.5-2.6,0.4-5.3,1.2-7.8c0.1-0.7,0.4-1.2,0.5-1.8c1.1,0.7,1.9,1.6,2.3,2.9c-0.8,2.9-0.4,5.5-1,7.9
				c-0.3,1.4-0.8,2.9-1.2,4.2c-0.8,2.6-1.5,5.3-1.9,7.9c-0.1,0.7-0.1,1.4,0,2C970.6,214.6,970.9,215.3,971.1,216z"/>
			<path class="st0" d="M980,207v-15.3c0-1.1,0.5-2.2,1.4-2.9c0.3,2-0.1,3.8-0.4,5.5c-0.3,1.5,0.3,3,0.5,4.5
				c0.7,2.5,0.8,5.1,1.5,7.5c0.7,2.9,2,5.6,2.6,8.6c0.8,3.8,1.8,7.6,3.3,11.2c0.7,1.8,1.8,3.4,2.6,5.2c1.4,2.7,2.3,5.6,3.4,8.5
				c0.5,1.4,1.2,2.9,2.2,3.8c1.4,1.4,3,2.2,4.6,3.1c0.7,0.4,6.1,3.1,6.6,3.1c1,0,1.6-1.1,1.2-1.9c-0.4-0.8-1.4-1-2-1.1
				c-1.4-0.3-7.4-3.6-8.5-4.5c-1.1-1.1-1.6-2.7-2.2-4.2c-1.2-3.4-2.5-6.7-4.2-10c-1.6-3-3-6.3-3.8-9.7c-0.5-2.3-0.8-4.6-1.5-7
				c-0.7-1.9-1.5-3.7-1.9-5.6c-0.5-1.8-0.8-3.6-1-5.5c-0.3-2.2-1.2-4.2-1-6.4c0.3-2,0.3-4.1,0.5-6.1h3.3c-0.3,2.2-0.5,4.4-0.3,6.6
				c0.3,1.9,0.5,3.8,0.5,5.9c0,2.3,0.4,4.6,1.4,6.8c0.5,1.6,1.5,3.1,1.9,4.8c0.4,1.4,0.4,2.9,0.5,4.2c0.4,3.1,1.9,6.1,3.3,9
				c1.1,2.2,2.2,4.4,3.1,6.7c0.8,1.9,1.4,4,2.2,5.9c0.5,1,0.5,2,1.1,3c0.3,0.5,0.7,0.7,1.2,0.7c0.4,0,1-0.3,1.1-0.7
				c0.5-1.2-0.7-2.2-1.1-3.3c-0.7-2-1.4-4.1-2.2-6c-1.6-4.2-4-8.2-5.6-12.4c-0.5-1.2-1-2.6-1-4c0-1.6,0-3.6-0.8-5.1
				c-1-2.2-2.2-4.4-2.7-6.8c-0.4-2.2,0.1-4.5-0.1-6.7c-0.3-1.4-0.5-2.7-0.5-4.1c0-1.6,0.1-3,0.5-4.5h3.3c-0.4,2.2-0.5,4.2-0.4,6.6
				c0.3,1.9,1.9,3,3.3,4.2c1.6,1.5,2.6,3.7,3.7,5.5c1.5,2.7,4.1,4.5,6,6.8c3.8,4.1,10.1,21,10.8,27.4c0,2,0.1,4.1,0.3,6.3
				c0,0.4,0,0.8,0.1,1.2h-1.2c-0.7,0-1.4,0.1-1.9,0.4c-0.3-2.2-0.3-4.6-0.3-6.8c-0.3-3.4-1.2-6.7-2.5-9.8c-1.2-4.1-6-15.7-9.1-18.4
				c-1.2-1.2-2.7-2-3.8-3.4c-1-1.2-1.5-2.7-2.2-4.1c-0.5-0.7-0.7-1.6-1-2.5c-0.1-0.7-0.8-1.5-1.5-1.5c-0.8,0-1.5,1-1.4,1.8
				c0.1,0.3,0.3,0.5,0.4,0.8c1.6,2.2,2,5.1,3.8,7.2c1,1.2,2.6,1.8,3.7,2.9c4,3.6,10.9,20.9,11.2,27.4c0.3,1.8,0.1,3.4,0.1,5.2
				c0,1,0.5,1.9,0.4,3c0.1,0.3,0,0.7,0,1.1v1c0,1.5,0.8,2.7,2,3.4c-6.4-0.4-10.4-2.5-15.8-5.6c-1.4-0.7-2.9-1.4-3.8-2.9
				c-1-1.5-1.6-3.4-2.3-5.1c-1-2.2-1.6-4.6-2.7-6.8c-1-2.2-2.7-4-3.4-6.4c-1-3.4-1.9-6.8-2.9-10.2C982.1,213.3,980.8,210.1,980,207z
				 M981.4,243.4c-0.4-1-0.8-1.8-1.4-2.6v-8.3c0.3-1,0.5-1.9,0.5-2.9s-0.3-1.8-0.5-2.6v-11.6c0.8,3,1.6,6,2.5,8.9
				c0.4,1.6,0.8,3.1,1.4,4.8c0.5,1.5,1.8,2.7,2.6,4.1c0.8,1.4,1.2,3,1.9,4.5c0.7,1.8,3.3,8.6,4.6,9.8c1,1.1,2.3,1.5,3.6,2.3
				c2,1.1,4.1,2.5,6.3,3.4c3.7,1.6,10.1,2.7,14.1,2.9c1.6,0,3.3-0.1,4.8-0.5c1.1-0.4,2.2-1,3.3-1.5h5.3c-1.5,1.1-2.9,2-4.5,3
				c-2.5,1.6-5.6,2.2-8.5,2.2c-0.5,0-1-0.1-1.5-0.1c-7.5-0.5-13.4-2-19.7-6c-0.8-0.4-1.2-1.2-2-1.8c-0.3-0.1-0.5-0.1-0.8-0.1
				s-0.7,0.1-1,0.4c-0.4,0.3-0.3,1-0.3,1.5c0.4,0.5,1,1,1.6,1.2c2,1.1,4,2.3,6,3.4c1.9,1.2,4.2,1.6,6.4,2.2c3.1,0.5,6.3,1.2,9.4,1.5
				c0.5,0.1,1.2,0.1,1.8,0.1c1.4,0,2.7-0.1,4.1-0.3c3.6-0.5,6-2.5,8.9-4.4c1.4-1,2.6-1.9,4-2.9h4.9c-3,3-6.8,4.6-9.8,7.2
				c-3.4,3-7.1,3.3-11.5,3.3c-1.1,0-2.2,0-3.3-0.1c-4.1-0.4-8.1-1.4-12-2.2c-1.9-0.5-4.1-0.8-5.6-2.2c-0.5-0.5-0.8-1.4-1.4-1.9
				c-0.3-0.3-0.7-0.4-1.1-0.4c-0.1,0-0.4,0.1-0.7,0.1c-0.7,0.4-0.7,1.2-0.4,1.9c0.3,0.7,1,1.1,1.5,1.5c1.9,1.9,3,2.3,5.6,2.9
				c5.1,1.1,10,2.2,15.2,2.7c1,0,1.9,0,2.9,0c0.8,0,1.6,0,2.5,0c1.8-0.3,3.7-0.5,5.5-1.1c1-0.3,2-0.5,2.9-1.4
				c1.2-1.1,2.5-2.3,3.8-3.1c1.2-0.8,2.5-1.5,3.7-2.5c1.8-1.2,3.7-2.5,4.9-4.2l2.9-0.5c0.4,0,0.8,0,1.1,0.1
				c-0.5,1.5-1.1,2.7-1.9,3.7c-1.1,1-2.5,1.5-3.6,2.3c-1.8,1.1-3,2.6-4.9,3.4c-1,0.5-2.3,0.3-3,1.4c-0.5,0.8,0.3,2,1.4,1.9
				c1.1-0.3,1.9-1,3-1.2c1.6-0.7,2.7-2.2,4.1-3.3c1.2-0.8,2.6-1.4,3.8-2c1.4-0.8,2-2,2.6-3.4c0.1-0.5,0.4-1,0.5-1.4
				c0.5,0.7,0.8,1.5,0.8,2.3v4.5c-0.3,0.3-0.4,0.4-0.8,0.5c-1.1,0.5-2.3,0.8-3.4,1.1c-1,0.3-1.9,0.1-2.7,0.7c-0.8,0.6-0.7,2,0.3,2.3
				c0.1,0,0.3,0.1,0.5,0.1c0.5,0,1-0.3,1.5-0.5c1.5-0.7,3.1-0.8,4.6-1.2v3.1c-1.1,0.4-2.2,0.7-3.4,1c-0.4,0-1,0-1.5,0
				c-0.4,0-1,0-1.5,0c-1.4-0.3-2.6-0.7-4-0.7c-0.1,0-0.4,0-0.5,0c-1.1,0.1-2.2,0.4-3.4,0.4c-1.6-0.1-3.4-0.7-5.1-0.7
				c-0.4,0-0.8,0-1.2,0.1c-2.7,0.5-5.5,1.5-8.2,1.5c-0.1,0-0.3,0-0.5-0.1c-0.3,0.1-0.5,0.1-0.8,0.1c-2.5,0-4.9-0.4-7.4-0.8
				c-4.8-0.8-9.6-1.9-14.3-2.9c-1.4-0.3-3.1-0.5-4-2c-1.1-1.8-2.5-8.6-2.7-11.1c-0.1-1.5-0.1-3-0.4-4.5c-0.3-1.8-2.9-7.1-3.7-8.7
				c-0.5-1.2-1.1-2.3-1.5-3.6c-0.1-0.8,0.1-1.6-0.3-2.5c-0.3-0.5-0.8-1-1.4-1c-0.3,0-0.5,0.1-0.7,0.3c-0.8,0.4-0.5,1.4-0.4,2
				c0.5,1.6,1,3.4,1.8,4.9c1.1,2.2,2.2,4.5,3.1,6.8c0.7,1.6,0.8,3.3,1,4.9c0.3,3.6,1.8,11.3,3.4,14.2c0.5,1.1,1.8,1.6,2.9,1.9
				c1.5,0.4,3.1,0.7,4.6,1c3.8,0.8,7.8,1.6,11.6,2.3c2.3,0.5,4.5,0.7,6.8,1c0.4,0,0.8,0,1.1,0c0.5,0,1.1,0,1.6,0c0.3,0,0.4,0,0.7,0
				c3,0,5.9-1.2,8.9-1.5c1.2,0,2.5,0.3,3.8,0.4c0.5,0,1,0,1.5,0c1.1,0,2.2,0,3.1-0.1c2.2,0,4.2,0.4,6.3,0.5c1.6,0,3.1-0.3,4.6-0.8
				v3.6c-1.1,0-2,0-3.1,0.1c-0.4,0.1-0.8,0.1-1.2,0.1c-1.4,0-2.7-0.3-4.1-0.3c-0.1,0-0.1,0-0.3,0c-1.5-0.1-3-0.1-4.5-0.1
				c-1.1,0-2.2,0-3.4,0c-0.4,0-0.8,0-1.2,0c-2.7,0-5.2,0.5-7.8,1.1c-0.8,0.1-1.8,0.4-2.7,0.4c-0.3,0-0.4,0-0.7,0
				c-2.2-0.4-4.4-0.7-6.7-0.7c-1.9-0.1-3.8-0.8-5.7-1.2c-5.1-1-10.1-1.8-15-2.7c-1.1-0.3-2.3,0-3.3-0.7c-0.7-1-0.5-2.3-1.1-3.4
				c-1.8-5.2-2.7-10.7-3.4-16C983.8,248.5,982.7,245.9,981.4,243.4z M983.7,274c-1.1,1-2.2,1.9-3.4,2.7c-0.1-0.4-0.3-0.8-0.3-1.4
				v-2.5c1-0.8,1.8-1.5,2-2.6c0.3-1.5-0.1-2.9-0.5-4.4c-0.5-2-0.8-4.1-1.4-6.3l-0.1-13.9c0.1,0.4,0.4,0.8,0.5,1.2
				c1.1,2.5,1.4,5.1,1.6,7.6c0.5,3.3,1.4,6.4,2.2,9.7c0.5,1.8,0.8,3.7,1.6,5.5c0.3,0.5,0.5,1.4,0.1,2
				C985.5,272.7,984.5,273.2,983.7,274z M1044.6,279.3H1006c-4.9-1.2-9.3-1.6-13.5-2.3c-1.9,0-3.3,0-4.9,1.2
				c-0.4,0.4-0.8,0.7-1.4,1.1H984c-0.8,0-1.6-0.3-2.2-0.7c1.4-1,2.7-2,4.1-3.1c0.8-0.7,1.2-1.8,2.2-2.3c0.3,0,0.4-0.1,0.7-0.1
				c0.5,0,1,0.3,1.5,0.3c1.2,0.4,2.5,0.5,3.7,0.7c4.5,0.7,11.9,1.8,16.1,3.1c1.1,0.4,2.2,0.5,3.4,0.5c0.4,0,0.8-0.1,1.2-0.1
				c0.1,0,0.3,0,0.4,0c1.6,0,3.3,0.8,5.1,0.7c1.2,0.1,2.5-0.3,3.7-0.5c1.9-0.4,3.8-0.8,5.7-1c0.4,0,1,0,1.4,0c1.4,0,2.6,0,4,0
				c1.1,0,2.3,0,3.4,0c1.8,0.3,3.4,0.1,5.2,0.4c0.3,0,0.5,0,0.7,0c1.2,0,2.5-0.1,3.6-0.1c0.1,0,0.3,0,0.5,0
				C1047.6,278.4,1046.2,279.3,1044.6,279.3z M995.7,194.8c-1-1.4-0.8-3.1-0.5-4.6c0.1-0.8,0.3-1.6,0.4-2.3h3.3
				c-0.1,0.5-0.3,1.1-0.3,1.8c-0.1,0.7-0.1,1.2,0,1.9c0.1,1.4,0.7,2.6,1.5,3.6c1.4,1.6,2.6,3.4,3.7,5.2c1.6,2.6,4,4.8,6.1,7
				c1.6,1.8,2.7,4.1,3.8,6.4c-1.2,0.5-1.9,1.8-2,3.1c-1.2-2.9-2.6-5.7-4.6-7.9c-1.6-1.9-3.6-3.4-4.9-5.5c-1.4-1.8-2.2-4-3.8-5.6
				C997.5,196.7,996.4,195.9,995.7,194.8z M1008.4,241.5c-0.5-1.6-0.3-3.4-0.8-5.1c-1.6-6.3-4.5-12.2-7.4-17.9
				c-0.7-1.2-1.2-2.5-1.6-3.8c-0.1-0.7-0.8-1.2-1.5-1.2c-0.3,0-0.4,0-0.7,0.1c-0.7,0.3-0.7,1.2-0.4,1.9c0.4,0.8,1.1,1.5,1.5,2.3
				c2,4.9,4.6,9.6,6.3,14.5c1,2.7,2,5.3,2.2,8.2c0,1-0.5,2.2,0.1,3.1c0.1,0.4,0.7,0.7,1.1,0.7c0.4,0,0.8-0.1,1.1-0.5
				C1008.8,243.2,1008.5,242.3,1008.4,241.5z M1019.3,213.1h-3.3c-1.1-2.5-2.2-4.9-4-6.8c-1.9-2.3-4.2-4.2-5.9-6.7
				c-1.5-2-3-4.1-4.4-6.3c-1-1.4-1-3.1-0.7-4.8l3.4-0.7c-0.1,0.8-0.1,1.8,0,2.6c0.3,1.6,1.2,3,2,4.4c1.1,1.5,2,2.9,3.3,4.2
				c1.6,2.3,3.8,4,5.6,6.1c1.2,1.4,1.9,3.1,2.6,4.8C1018.5,211.1,1018.9,212,1019.3,213.1z M1007,187.9h3.3c0,4.1,5.2,9.8,8.2,12.3
				c1.2,1,2.5,1.9,3.3,3.4c0.7,1.5,1,3.3,1.5,4.9c0.4,1.6,1.2,3.1,2.2,4.6h-3.6c-0.3-0.5-0.5-1.1-0.8-1.8c-0.8-1.8-1.2-3.7-2.2-5.5
				c-0.8-1.6-2.2-3-3.4-4.2c-2.3-2-7.2-7.8-8.3-10.8C1006.9,189.9,1006.9,188.8,1007,187.9z M1048.6,209.2c0,1.4-0.7,2.6-1.8,3.3
				c-0.1-2.7,0-5.6-0.1-8.3c-0.3-3.4,0-6.7,0-10.1c0-1.1,0.8-2,0.7-3.1c0-0.8-0.7-1.4-1.4-1.4c-0.3,0-0.5,0.1-0.7,0.3
				c-0.8,0.5-0.8,1.6-0.8,2.5c0,1.1-0.1,2.2-0.1,3.3c0,5.9,0,11.7,0.3,17.6h-3.3c0-3.4,0.1-6.7-0.1-10.1c-0.1-1.8,0.3-3.6,0.1-5.3
				c-0.1-1.1,0.1-2.2,0.4-3.1c0.3-1-0.5-2-1.5-2c-0.1,0-0.3,0-0.3,0c-1,0.3-1.2,1.4-1.1,2c0.4,2.6,0.1,5.1,0,7.6c0,3,0.5,6,0.3,9.1
				c-0.1,0.5-0.1,1.1-0.1,1.8h-3.3c0.1-0.7,0.1-1.4,0.3-1.9c0.3-1.5,0.3-3,0.1-4.5c-0.3-2.2-0.8-4.4-0.5-6.7c0.3-1,1.2-1.8,1.1-3
				c-0.1-0.5-0.8-1.1-1.4-1.1c-0.3,0-0.4,0.1-0.7,0.1c-0.5,0.4-0.8,1.2-1,1.9c-0.1,1-0.5,1.9-0.5,2.9c-0.1,2.7,1,5.3,1,7.9
				c0,1.5-0.5,2.9-0.7,4.4h-5.2c-0.5-0.7-1.1-1.2-1.4-1.9c-1.6-2.7-1.8-6.1-3-9c-0.8-1.6-2.5-2.7-3.8-4c-2.2-1.9-4.1-4-5.7-6.4
				c-0.8-1.1-1.4-2.5-1.5-4h3.6c0.8,3.3,6,9.1,9.3,10.4c0.8,0.3,1.5,1,1.5,1.9c0.1,3.4,1.8,6.6,1.8,10c0.1,0.7,0.8,1.2,1.5,1.2
				c0.7-0.1,1.4-0.7,1.2-1.5c-0.1-1-0.7-1.8-0.8-2.7c-0.5-2.3-0.8-4.8-1.4-7.1c-0.1-0.5-0.1-1.1,0-1.6c0.3-0.5,0.7-0.8,1.1-1.2
				c1-0.7,1.5-1.9,2.5-2.6c2.9-2.6,6.6-3.8,9.7-5.9c0.5-0.3,1.1-0.5,1.8-0.8h0.1c2.2,0,4,1.8,4,3.8v17.3L1048.6,209.2L1048.6,209.2z
				 M1022.1,245.9h-3c0-0.8,0-1.6-0.1-2.3c-0.3-2,0.1-4.1-0.3-6.1c-0.3-3-1.4-5.9-2.2-8.9c-1-2.9-2-5.7-3.3-8.5
				c0.7,0.5,1.5,0.8,2.5,0.8h1.4c0.3,0.7,0.5,1.2,0.8,1.9c1,3,1.8,6,2.7,8.9c1.1,3,1.8,6.1,1.4,9.3
				C1021.7,242.6,1022.1,244.2,1022.1,245.9z M1022.5,187.9c0.7,1.4,1.9,2.3,3,3.3c0.7,0.7,1.2,1.4,2.2,1.6c0.1,0,0.4,0,0.7,0
				s0.7-0.1,1-0.4c0.4-0.3,0.3-1,0.1-1.5c-0.7-1.2-2.2-1.1-3.1-1.9c-0.4-0.4-0.7-0.7-1-1.1h5.3c0.4,0.1,0.8,0.1,1.1,0.1
				c0.4,0,0.8,0,1.2-0.1h6.6c-0.5,0.3-1.1,0.7-1.6,1c-1.9,1.1-4.1,1.6-5.6,3.3c-1.2,1.2-2.3,2.5-3.4,3.8c-0.4,0.4-1,0.7-1.4,0.7
				c-2.2,0-8.1-6.6-8.7-8.6L1022.5,187.9z M1033.1,240.3c-0.1,1.9-0.5,4-1.6,5.6h-7.1c-0.1-0.4-0.3-0.8-0.1-1.2
				c0-1.8-0.1-3.7,0.1-5.5c0.1-3.6-1.2-6.8-2.2-10.1c-0.8-2.5-1.4-4.8-2.2-7.1c-0.1-0.4-0.3-0.7-0.4-1.1h3.4c1,3,1.5,5.9,2.5,8.6
				c0.8,2,1.6,4.1,1.9,6.3c0.4,2,0.3,4,0,6c-0.3,0.8-0.7,1.5-0.8,2.5c-0.1,0.5,0.3,1.1,0.7,1.4c0.1,0.1,0.4,0.1,0.5,0.1
				c0.7,0,1.2-0.4,1.5-1c0.1-1.1,0.1-2.2,0.4-3.3c0.4-1.8,0.4-3.7,0.1-5.6c-0.3-3.3-1.9-6.1-2.9-9.1c-0.5-1.9-1-4-1.5-5.9h3.3
				c0.5,2.7,1,5.5,2.2,7.9c0.7,1.4,1.5,2.7,1.9,4.2C1033.3,235.4,1033.3,237.8,1033.1,240.3z M1039,239.1c0,2.3-0.5,4.5-1.4,6.7
				c-0.4,0-0.8,0.1-1.2,0.1h-2.3c0.8-1.8,1.4-3.7,1.5-5.6c0-2.6,0-5.3-0.4-7.9c-0.4-1.8-1.6-3.1-2.3-4.8c-0.7-1.4-1-2.9-1.2-4.4
				c-0.1-0.8-0.3-1.5-0.4-2.3h3.1c0.1,1.1,0.4,2,0.5,3.1c0.1,1-0.1,1.8,0,2.7c0.3,0.5,0.7,1,1.4,1.1c0.4,0,0.8-0.3,1.2-0.7
				c0.4-1.2-0.4-2.3-0.4-3.6c-0.1-1-0.3-1.8-0.4-2.7c1.6,0.1,3,1.2,3.4,2.7c0.1,0.8,0.1,1.8-0.1,2.7c-0.4,2-1.6,4.1-1.5,6.3
				C1038.6,234.7,1038.9,236.9,1039,239.1z"/>
		</g>
	</g>
</g>
<path class="st1" d="M296,295.7c-13.7-9.2-24.1-21.3-31.8-35.8c-6.7-12.5-10.9-25.9-13.9-39.7c-2.4-11.1-3.4-22.5-4.7-33.8
	c-1.8-16.6-4.8-32.9-10.3-48.7c-3.5-10-7.9-19.5-14.2-28.1c-11.5-15.7-27-24-46.4-24.9c-5.5-0.3-11,0.2-16.6,0.4
	c-1.6,0.1-3.1-0.2-4.4-1.3c-1.6-1.5-2.2-3.3-1.6-5.4c0.6-2.2,2.1-3.5,4.3-3.8c15.8-1.8,31.3-0.8,46,6c10.4,4.9,19,12.1,25.9,21.2
	c8.4,11,14,23.4,18.1,36.5c5.4,17.1,8.5,34.7,10.1,52.6c1.5,16.2,4.1,32.1,9.6,47.5c4.3,12.1,10.1,23.4,18.5,33.2
	c10.7,12.6,24.2,20.9,40,25.6c0.7,0.2,1.5,0.4,2.2,0.8c2.4,1.2,3.5,4,2.6,6.5c-1,2.6-3.6,4.1-6.3,3.3c-3.6-1.1-7.1-2.2-10.6-3.6
	c-2.9-1.1-5.8-2.5-8.6-3.9C301.4,298.9,298.7,297.3,296,295.7z"/>
<path class="st1" d="M102.9,14.5c13.8,9.1,24.1,21.2,31.9,35.6c7.1,13.4,11.5,27.7,14.5,42.5c2,9.9,2.9,19.9,4,29.8
	c1.6,15.1,4.2,30,8.7,44.5c3.6,11.7,8.3,22.8,15.5,32.8c5.2,7.2,11.4,13.3,19,17.7c9.1,5.3,18.9,7.7,29.3,8
	c4.8,0.1,9.7-0.2,14.6-0.4c2.8-0.1,5.2,1.6,5.7,4.2c0.5,2.6-0.9,5.2-3.5,6.1c-0.4,0.1-0.8,0.2-1.1,0.3c-10.8,1.1-21.5,0.9-32-1.6
	c-16.4-4-29.3-13.1-39.4-26.5c-7.8-10.4-13.1-22.1-17.2-34.3c-4.8-14.7-7.7-29.8-9.6-45.1c-1.1-9.2-1.9-18.4-3.3-27.6
	c-2.3-15-6.4-29.4-13.2-43c-5.9-11.7-13.6-21.9-24-30.1c-8.8-6.9-18.7-11.7-29.4-14.8c-4.3-1.2-5.6-6.1-2.5-9.1
	C72.2,2.1,74,1.8,76,2.4C85.6,5.1,94.5,9,102.9,14.5z"/>
<path class="st1" d="M124.6,91.3c-1.1,0.7-2.1,1.6-3.2,2c-23.4,7.3-47.1,13.4-71.6,15.8c-12.8,1.2-25.7,1.3-38.4-1
	c-1.4-0.3-2.7-0.8-3.7-1.9c-1.5-1.7-1.8-4.1-0.6-6.1c1.1-1.9,3.3-2.9,5.6-2.6c4.2,0.5,8.3,1.2,12.5,1.5c12.9,0.9,25.7-0.4,38.4-2.4
	c18.4-3,36.4-7.7,54.2-13.2c3.5-1.1,6.9,0.8,7.2,4.2C125.2,88.8,124.8,90,124.6,91.3z"/>
<path class="st1" d="M390.2,202.9c2.1,1.5,2.9,4.1,2,6.4c-0.9,2.4-3.3,3.7-6,3.3c-4.1-0.6-8.2-1.2-12.4-1.5
	c-13.2-0.9-26.2,0.4-39.2,2.5c-17.7,2.9-35,7.4-52.1,12.7c-0.6,0.2-1.3,0.4-1.9,0.6c-2.9,0.8-5.7-0.7-6.6-3.4
	c-0.9-2.8,0.6-5.8,3.5-6.7c5.2-1.6,10.4-3.2,15.6-4.6c16-4.5,32.1-8.2,48.6-10.3c13.3-1.7,26.7-2.4,40.1-0.7c2.1,0.3,4.1,0.6,6.2,1
	C388.7,202.3,389.4,202.6,390.2,202.9z"/>
<path class="st1" d="M340.6,253.6c-7.1,10.8-14.1,21.5-21.2,32.3c-1.8,2.8-5,3.5-7.5,1.8c-2.6-1.7-3.1-4.9-1.3-7.8
	c3.1-4.7,6.2-9.4,9.3-14c5.2-7.9,10.4-15.7,15.6-23.6c5.9-8.9,11.8-17.9,17.7-26.8c1.4-2.2,4-3,6.3-2.2c2.3,0.9,3.8,3.1,3.4,5.6
	c-0.1,0.8-0.4,1.7-0.9,2.4c-7.1,10.8-14.1,21.6-21.2,32.4C340.7,253.7,340.6,253.7,340.6,253.6z"/>
<path class="st1" d="M65.6,60.3C59.3,69.9,53,79.5,46.7,89c-1.8,2.7-4.8,3.4-7.4,1.8c-2.6-1.7-3.3-4.9-1.5-7.6
	c3.8-5.8,7.7-11.7,11.5-17.5c5.9-8.9,11.8-17.9,17.7-26.8c2.9-4.3,5.7-8.6,8.6-13c1.8-2.8,5-3.5,7.6-1.8c2.6,1.7,3.1,4.9,1.3,7.7
	C78.3,41.4,72,50.9,65.7,60.4C65.7,60.4,65.6,60.4,65.6,60.3z"/>
<path class="st0" d="M204,158.6c-6.2,9.5-12.4,18.9-18.7,28.4c-1.4,2.1-3.6,3-5.9,2.4c-2.2-0.6-3.8-2.5-4-4.7
	c-0.1-1.4,0.4-2.6,1.1-3.8c7.3-11.1,14.6-22.1,21.9-33.2c5.1-7.8,10.3-15.6,15.4-23.4c1.9-2.8,5.1-3.5,7.6-1.7
	c2.5,1.7,3,4.8,1.3,7.5c-2.8,4.2-5.5,8.4-8.3,12.6c-3.5,5.3-7,10.6-10.5,15.9C204.1,158.7,204,158.7,204,158.6z"/>
<path class="st1" d="M208,171.5c6.1-9.3,12.2-18.6,18.3-27.8c1.3-1.9,3-2.9,5.3-2.6c2.1,0.3,3.6,1.5,4.3,3.5
	c0.6,1.8,0.2,3.4-0.8,4.9c-6.2,9.4-12.5,18.8-18.7,28.3c-5.9,9-11.8,17.9-17.8,26.9c-1.6,2.4-4,3.3-6.4,2.5c-3.3-1.1-4.7-4.9-2.7-8
	c3.6-5.6,7.3-11.1,10.9-16.6c2.5-3.7,4.9-7.5,7.4-11.2C207.9,171.4,208,171.5,208,171.5z"/>
<path class="st1" d="M183.3,133.4c6-9.1,12-18.2,18-27.3c1.8-2.7,5-3.4,7.5-1.7c2.5,1.7,3.1,4.9,1.3,7.6
	c-12,18.2-24.1,36.4-36.1,54.6c-1.9,2.8-5,3.6-7.6,1.8c-2.5-1.7-3-4.9-1.2-7.7c6-9.1,12-18.2,18-27.3
	C183.2,133.3,183.2,133.3,183.3,133.4z"/>
<path class="st1" d="M318.4,250c-5.6,8.6-11.3,17.2-16.9,25.8c-1.7,2.6-4.6,3.5-7,2.2c-2.9-1.5-3.8-4.9-2-7.7
	c3.2-4.9,6.4-9.8,9.7-14.6c8.2-12.4,16.4-24.7,24.5-37.1c1.6-2.4,4-3.3,6.4-2.5c3.4,1.2,4.7,5,2.7,8.1c-2.9,4.5-5.9,9-8.9,13.5
	c-2.8,4.2-5.5,8.4-8.3,12.6C318.4,250.1,318.4,250,318.4,250z"/>
<path class="st1" d="M83.4,57.5c4.7-7.2,9.5-14.4,14.2-21.6c0.5-0.7,1.1-1.5,1.8-2c2-1.6,4.8-1.4,6.7,0.4c1.9,1.8,2.3,4.5,0.8,6.9
	c-2.1,3.3-4.3,6.6-6.4,9.9C92.9,62.4,85.5,73.9,78,85.4c-2.1,3.2-5.7,3.8-8.3,1.4c-1.9-1.8-2.3-4.5-0.8-6.8
	c2.2-3.4,4.3-6.7,6.5-10.1c2.7-4.1,5.4-8.2,8.1-12.3C83.4,57.6,83.4,57.5,83.4,57.5z"/>
<path class="st1" d="M172.4,112.1c4.2-6.4,8.4-12.8,12.6-19.2c1.6-2.4,4.1-3.3,6.5-2.3c2.4,0.9,3.8,3.4,3.3,5.8
	c-0.2,0.8-0.5,1.6-1,2.3c-8.4,12.7-16.8,25.4-25.2,38c-1.7,2.5-4.4,3.3-6.8,2.2c-2.5-1.2-3.7-3.8-2.8-6.4c0.2-0.7,0.6-1.3,1-1.9
	c4.1-6.3,8.2-12.5,12.3-18.8C172.3,112,172.3,112.1,172.4,112.1z"/>
<path class="st1" d="M225.7,201.3c-3.3,5-6.5,10-9.8,14.9c-2.1,3.1-6.2,3.4-8.5,0.7c-1.5-1.8-1.7-4.3-0.4-6.3
	c6.7-10.1,13.4-20.1,20.1-30.2c1.7-2.5,4.8-3.1,7.3-1.5c2.4,1.6,3.1,4.8,1.5,7.4c-1.6,2.5-3.3,5-5,7.6c-1.7,2.5-3.3,5-5,7.6
	C225.8,201.3,225.8,201.3,225.7,201.3z"/>
<path class="st1" d="M288,239c3.1-4.7,6.1-9.3,9.2-14c1.8-2.7,5-3.4,7.5-1.7c2.5,1.7,3.1,4.8,1.3,7.6c-6.1,9.3-12.3,18.5-18.4,27.7
	c-1.6,2.4-4.2,3.2-6.6,2.2c-2.3-1-3.7-3.5-3.1-5.9c0.2-0.8,0.6-1.5,1-2.2c3-4.6,6-9.2,9-13.8C287.9,238.9,288,239,288,239z"/>
<path class="st1" d="M112.7,70.4c-2.6,4-5.2,8-7.9,12c-1.3,1.9-3.5,2.6-5.7,2.1c-2.1-0.6-3.8-2.4-3.8-4.5c0-1.2,0.3-2.6,0.9-3.5
	c5.2-7.9,10.4-15.8,15.7-23.6c1.7-2.5,4.9-3.1,7.4-1.5c2.5,1.6,3.1,4.8,1.5,7.4c-2.6,4-5.2,7.9-7.8,11.9
	C112.8,70.5,112.7,70.5,112.7,70.4z"/>
<path class="st1" d="M166.6,101.9c-1.3,1.9-2.5,3.9-3.8,5.8c-1.8,2.6-4.9,3.3-7.4,1.6c-2.5-1.6-3.2-4.8-1.4-7.4
	c2.6-3.9,5.2-7.8,7.9-11.7c1.7-2.5,5-3.1,7.4-1.4c2.4,1.6,3,4.8,1.4,7.3c-1.3,2-2.6,3.9-3.9,5.9C166.7,102,166.7,101.9,166.6,101.9z
	"/>
<path class="st1" d="M241.3,215.4c-1.3,1.9-2.5,3.9-3.8,5.8c-1.3,1.7-3.5,2.4-5.6,1.8c-2.1-0.7-3.6-2.1-3.7-4.4
	c-0.1-1.2,0.2-2.6,0.9-3.7c2.3-3.6,4.7-7.2,7.2-10.7c1.8-2.5,4.9-3,7.4-1.4c2.4,1.7,3,4.8,1.3,7.4c-0.3,0.5-0.7,1-1,1.5
	c-0.8,1.3-1.7,2.6-2.5,3.8C241.4,215.5,241.3,215.5,241.3,215.4z"/>
<path class="st0" d="M342.6,123.7C326.1,45.1,252.3-4.9,173.5,9.1C85.8,24.6,32.3,117.1,62.4,200.8c5.3,14.7,12.7,28.3,23,41.7
	c-1.5,1-3.1,1.8-4.2,2.9c-30,30-39.5,39.5-69.5,69.5c-1.4,1.4-2.8,2.8-4,4.4c-7.5,10-2.7,24.7,9.4,28.1c7.5,2.1,13.8-0.3,19.2-5.8
	c30.3-30.5,40.3-40.3,70.6-70.8c1.2-1.2,1.8-2.9,2.7-4.4c2.1,1.8,2.9,2.3,3.7,2.9c30.6,22.3,64.7,31.5,102.3,27.7
	c60.7-6.1,112.1-51.5,125.8-111c1.8-7.7,2.8-15.5,4.1-23.3c0-6.8,0-13.6,0-20.4C344.5,136.2,343.8,129.9,342.6,123.7z M200.5,282
	c-71.5,0-129.5-58-129.5-129.5s58-129.5,129.5-129.5S330,80.9,330,152.5S272,282,200.5,282z"/>
</svg>
