<?xml version="1.0" encoding="utf-8"?>
<!-- Generator: Adobe Illustrator 24.1.0, SVG Export Plug-In . SVG Version: 6.00 Build 0)  -->
<svg version="1.1" id="Capa_1" xmlns="http://www.w3.org/2000/svg" xmlns:xlink="http://www.w3.org/1999/xlink" x="0px" y="0px"
	 viewBox="0 0 653.6 243.3" style="enable-background:new 0 0 653.6 243.3;" xml:space="preserve">
<style type="text/css">
	.st0{fill:#FFFFFF;}
</style>
<g>
	<g>
		<g>
			<g>
				<path class="st0" d="M59.3,6.2c3.5,1.4,7,3.5,10.6,6.3l-4.3,5.3c-3.1-2.5-6.1-4.3-8.9-5.3c-2.8-1.1-6.1-1.6-9.7-1.6
					c-8.6,0-15.6,3.3-21,9.9s-8.1,16.7-8.1,30.4c0,8.9,1.2,16.3,3.7,22.4c2.5,6,5.9,10.5,10.2,13.4s9.2,4.3,14.7,4.3
					c4.4,0,8-0.6,11.1-1.9c3-1.3,6.1-3.2,9.2-5.7l4.1,5.2c-6.7,6.3-14.9,9.5-24.7,9.5c-7.1,0-13.4-1.8-19-5.5
					c-5.6-3.6-9.9-9-13.1-16.1S9.4,61.2,9.4,51.1c0-10,1.6-18.6,4.9-25.7S22,13,27.6,9.4S39.4,4,46.3,4C51.5,4.1,55.8,4.8,59.3,6.2z
					"/>
				<path class="st0" d="M124.8,89.2c0.9,1.6,2.4,2.8,4.5,3.6l-1.7,5.5c-3.2-0.6-5.7-1.8-7.4-3.6c-1.7-1.8-2.9-4.5-3.4-8.1
					c-4.8,7.8-12,11.7-21.7,11.7c-6.7,0-11.9-1.9-15.8-5.7c-3.9-3.8-5.8-8.8-5.8-15.1c0-7.2,2.6-12.7,7.7-16.7
					c5.1-3.9,12.2-5.9,21.3-5.9h13.3v-6.7c0-5.6-1.2-9.7-3.7-12.2s-6.6-3.8-12.4-3.8c-5.3,0-11.6,1.3-18.9,4l-2-5.9
					c7.8-3.1,15.1-4.7,22-4.7c15.2,0,22.8,7.4,22.8,22.1v33.6C123.4,85,123.9,87.6,124.8,89.2z M115.7,79.8V60.6h-12.1
					c-7.1,0-12.5,1.4-16.3,4.1c-3.7,2.8-5.6,6.9-5.6,12.4c0,4.8,1.3,8.5,3.9,11.1s6.2,3.9,10.8,3.9C104.7,92,111.2,88,115.7,79.8z"
					/>
				<path class="st0" d="M190.1,31.3c3.3,3.7,5,9,5,15.7v49.8h-7.7V48.1c0-5.6-1.1-9.7-3.3-12.3s-5.5-3.9-9.9-3.9s-8.4,1.2-11.8,3.7
					c-3.4,2.4-6.7,6-9.8,10.7v50.5h-7.7V27.1h6.7l0.8,11.9c2.8-4.2,6.2-7.4,10.1-9.8c3.9-2.4,8.3-3.5,13.2-3.5
					C182,25.7,186.8,27.5,190.1,31.3z"/>
				<path class="st0" d="M250.6,27.3c3.1,1.1,6.1,2.9,9.1,5.4l-3.9,5.1c-2.3-1.9-4.7-3.2-7.1-4.1c-2.4-0.9-5.2-1.3-8.3-1.3
					c-6.6,0-11.8,2.6-15.7,7.7s-5.9,12.5-5.9,22.3c0,9.7,1.9,17,5.8,21.9c3.9,4.9,9.1,7.3,15.7,7.3c3.1,0,5.9-0.5,8.5-1.5
					c2.5-1,5.1-2.4,7.7-4.4l3.7,5.2c-5.9,5-12.5,7.5-20,7.5c-6,0-11.1-1.4-15.6-4.3c-4.4-2.8-7.9-6.9-10.3-12.3
					c-2.4-5.4-3.7-11.8-3.7-19.3c0-7.4,1.2-13.8,3.7-19.4c2.4-5.6,5.9-9.8,10.3-12.9c4.4-3,9.6-4.5,15.5-4.5
					C243.9,25.7,247.4,26.2,250.6,27.3z"/>
				<path class="st0" d="M318.8,65h-46.5c0.4,9.1,2.6,15.8,6.5,20.2c3.9,4.4,8.9,6.6,15.3,6.6c3.6,0,6.9-0.6,9.7-1.7
					s5.8-2.9,9.1-5.3l3.6,4.9c-3.5,2.8-7,5-10.7,6.4c-3.6,1.4-7.7,2.1-12.1,2.1c-9.2,0-16.5-3.2-21.7-9.5s-7.9-15.1-7.9-26.2
					c0-7.4,1.1-13.8,3.4-19.4s5.5-9.9,9.7-12.9c4.2-3.1,9.1-4.6,14.7-4.6c8.9,0,15.6,3,20.3,9c4.6,6,6.9,14.2,6.9,24.7
					C319,61.3,319,63.2,318.8,65z M311.4,57c0-7.8-1.6-13.9-4.9-18.3c-3.2-4.4-8.1-6.6-14.5-6.6c-5.8,0-10.4,2.2-14,6.7
					c-3.6,4.4-5.5,11.2-5.9,20.3h39.2L311.4,57C311.3,57,311.4,57,311.4,57z"/>
				<path class="st0" d="M368.3,26.5l-1.5,7.3c-2-0.5-4-0.8-6.1-0.8c-4.7,0-8.5,1.7-11.4,5.1c-2.9,3.4-5.3,8.8-7.3,16.1v42.6h-7.7
					V27.1h6.7l0.7,15.6c1.9-5.8,4.4-10.1,7.7-12.9c3.2-2.8,7.3-4.2,12.1-4.2C364.2,25.7,366.5,25.9,368.3,26.5z"/>
			</g>
		</g>
		<g>
			<path class="st0" d="M42.1,213.7c1.8,0.5,2.9,1.2,4,1.8c1.5,0.7,3,1.1,4.6,1.4c3.1,0.8,6.3,1.2,9.4,1.5c5.6,0,11.5-3.7,15.4-7.6
				c2-2.2,3-5.2,3.3-8.2c0-2.7,0-5.3-0.4-8.1c-0.3-1.8-1.6-3.1-2.3-4.6c-0.7-1.4-1-2.9-1.2-4.4c-0.3-2.2-1.2-7-2.3-8.9
				c-0.8-1.1-1.8-2-2.5-3.3c-1.6-2.7-1.6-6-3-8.9c-0.8-1.8-2.5-2.7-3.8-4c-2-2-4.1-4.1-5.7-6.4c-0.8-1.4-1.5-2.9-1.6-4.5
				c1.2-0.4,2.5-0.3,3.6,0c0.1,0.4,0.3,0.8,0.4,1.2c0.7,2.9,6.1,8.7,9,9.6c0.8,0.3,1.5,1.1,1.5,2c0.1,3.4,1.8,6.6,1.9,9.8
				c0,0.7,0.7,1.2,1.4,1.4c0.7-0.1,1.4-0.8,1.4-1.5c-0.3-1-0.7-1.8-1-2.7c-0.4-2.5-0.8-4.8-1.4-7.2c-0.1-0.5-0.1-1.1,0-1.6
				c0.3-0.4,0.7-0.8,1.1-1.1c0.8-0.7,1.4-1.5,2-2.2c0.5,0.5,1.1,1,1.6,1.5c-0.3,0.4-0.4,1-0.5,1.4c-0.1,1.1-0.4,2-0.5,3
				c-0.1,2.7,1,5.2,1,7.9c0,2.3-1.2,4.5-0.8,6.8c1,3.7,1.6,7.2,1.6,11.1c0.3,0.7,0.7,1.1,1.4,1.2c0.4,0,1-0.4,1.2-0.8
				c0.4-1.1-0.4-2.3-0.4-3.6c-0.1-2.2-0.5-4.2-1.1-6.4c-0.4-1.9-0.3-4,0-6c0.3-1.5,0.3-3,0.1-4.5c-0.3-2.2-0.8-4.4-0.5-6.6
				c0.1-0.4,0.4-0.8,0.5-1.2c1,1.2,1.9,2.6,2.7,4.1c0.1,2.7,0.5,5.6,0.3,8.3c-0.3,2.5,0,5.1,0.4,7.5c0.4,2.5,1,5.1,0.4,7.5
				c-0.3,2.2-1.6,4.1-1.5,6.3s0.4,4.4,0.5,6.4c0,5.3-2.6,10.7-6.8,13.8c-2,1.5-4.2,3-6.3,4.4c-3.1,2-6.6,2-10.1,2
				c-3.7-0.4-7.4-1.1-11.1-1.9c-3-1-5.9-2.5-8.6-4.1c-0.8-0.5-1.2-1.4-2-1.8c-0.3-0.1-0.5-0.1-0.8-0.1s-0.7,0-1,0.3
				c-0.4,0.4-0.3,1.1-0.1,1.6c0.3,0.5,0.8,1,1.5,1.2c2,1,4,2.2,6,3.4c3.1,1.8,12.2,3.4,15.8,3.6c0.5,0.1,1.2,0.1,1.8,0.1
				c1.4,0,2.7-0.1,4.1-0.3c1.6-0.3,3.3-0.7,4.6-1.5c2.9-1.6,7.8-5.1,10.1-7.2c2.2-2.2,3.3-4.9,4.4-7.8c0.8-2.3,1.1-4.8,0.7-7.2
				c-0.1-2-0.4-4.1-0.1-6.1c0.3-1.8,1-3.6,1.2-5.3c0.7-4-0.7-7.8-1-11.6c0-1.9,0-3.8,0.1-5.7c2,5.9,3.1,13.1,3.1,21.4
				c-0.3,1.2-0.4,2.3-0.4,3.6c0,4.5-0.1,8.3-1,12.8c-0.4,0.8-0.8,1.6-1.1,2.5c-1,1.9-1.6,3.8-3.1,5.3c-2.9,2.7-6.7,4.4-9.7,7.1
				c-3.1,2.7-7.5,3.3-11.5,3.3c-1.1,0-2.2-0.1-3.3-0.1c-3.1-0.4-15.4-2.3-17.6-4.5c-0.5-0.5-0.8-1.2-1.4-1.8
				c-0.3-0.3-0.7-0.4-1.1-0.4c-0.1,0-0.4,0-0.7,0.1c-0.7,0.3-0.7,1.2-0.4,1.8c0.3,0.7,1,1.1,1.5,1.6c0.5,0.4,1.1,1.1,1.8,1.5
				c2.9,1.6,15.8,3.7,19,4c1,0.1,1.9,0.1,2.9,0.1c2.6,0,8.6-0.7,10.8-2.5c1.2-1.1,2.5-2.3,3.8-3.3c1.2-0.7,2.5-1.5,3.7-2.3
				c1.1-0.8,2.3-1.6,3.4-2.6c-1,2.3-2.2,4.6-3.6,6.6c-0.4,0.3-0.8,0.5-1.4,0.8c-1,0.5-2.3,0.3-3,1.2c-0.5,0.8,0.1,1.9,1.1,1.9
				c-0.7,0.7-1.4,1.4-2,2c-0.7-0.1-1.5-0.3-2.2-0.3c-0.4,0-0.8,0-1.2,0.1c-2.7,0.5-5.3,1.4-8.2,1.4c-0.1,0-0.3,0-0.4,0
				c-2.9,0-5.6-0.3-8.3-0.7c-4.8-1-9.6-1.9-14.2-2.9c-5.1-1-5.5-4.2-6-8.9c-0.1-1.5-0.7-2.9-0.8-4.2c-0.1-1.5-0.1-3-0.4-4.5
				c-0.1-1-0.5-1.8-1-2.7c-1-2-1.8-4.1-2.7-6.1c-0.5-1.1-1.1-2.3-1.5-3.6c-0.1-0.7,0.1-1.6-0.3-2.5c-0.3-0.4-0.8-0.8-1.4-0.8
				c-0.3,0-0.5,0.1-0.7,0.3c-0.7,0.4-0.5,1.4-0.4,2c0.5,1.6,1,3.3,1.8,4.8c1.1,2.3,2.2,4.6,3.1,7c0.7,1.5,0.8,3.1,1,4.8
				c0.3,3.6,1.6,11.2,3.4,14.2c0.5,1.1,1.8,1.8,2.9,2c1.6,0.4,3.1,0.5,4.6,1c6.1,1.2,12.2,2.5,18.4,3.1c0.4,0,0.8,0,1.2,0s1,0,1.5,0
				c0.3,0,0.5,0,0.7,0c2.7,0.1,5.2-0.8,7.8-1.2c-3.1,1.9-6.7,3.4-10.8,4.4c-3.6-0.3-6.8-0.8-10.2-1.5c-5.1-1.1-10-1.9-15-2.9
				c-1.1-0.1-2.3,0-3.3-0.7c-0.7-1-0.5-2.3-1.1-3.4c-1.8-5.1-2.7-10.7-3.4-16c-0.4-2.7-1.5-5.3-2.7-7.8c-1-1.5-1.6-3.1-2.7-4.5
				c-0.5-0.7-1-1.5-0.7-2.3c0.5-1,1.1-1.9,1.5-2.9c0.5-1.2,1.1-2.6,1-4.1c0-1.2-0.4-2.3-0.8-3.6c-0.5-2-1.1-4.1-1.8-6.1
				c-1-3.4-1.8-6.4-2.6-9.4c-0.8-2.7-1.4-5.6-2.2-8.3c-1.4-4.2-7.9-9-11.6-11.2c0.1-1.1,0.5-2.2,1.4-3c0.8,0.4,1.6,1,2.3,1.5
				c2,1.4,4.2,2.5,5.7,4.4c1.1,1.4,2.3,2.5,3.6,3.6c1.1,1.1,1.6,2.6,1.8,4c0.5,2.2,1,4.5,1.6,6.7c0.3,1.4,0.7,2.7,1.1,4.1
				c1.4,4.1,2.2,8.2,3.4,12.3c0.5,1.5,0.8,3.1,1.4,4.6c0.5,1.6,1.8,2.7,2.6,4.2c0.8,1.4,1.2,2.9,1.9,4.4c0.8,2.2,3.4,9.7,5.5,10.7
				C37.9,212.4,39.8,213.7,42.1,213.7z M21.2,193.9c-0.4,1.2-1,2.5-1.5,3.6c-0.1,0.7-0.8,1-1.5,1c-1.8-0.1-3.7-1-4.6-2.5
				c-1-1.6-1-3.4-1.2-5.2c-0.7-4.5-2.7-8.7-3.8-13.1c-0.8-2.9-1.2-5.7-2.5-8.3c-0.3-0.8-0.7-1.5-1.2-2v-4.6c0.5,0.5,1.1,1,1.6,1.5
				c1.8,1.8,2.9,4,3.4,6.3c0.8,3,1.5,6,2.5,8.9c1.2,4,2.5,7.8,3.3,11.9c0.1,1.2-0.4,2.7,0.7,3.7c0.3,0.3,0.5,0.4,0.8,0.4
				c0.7,0,1.4-0.8,1.4-1.6c-0.4-3.3-1.8-8.1-2.7-11.2c-1.2-4-2.3-7.9-3.4-11.9c-1.2-5.6-3-7.4-7.2-10.8L5,156c1.6,1,3.1,2,4.5,3.3
				c1.4,1.4,2.9,2.6,3.8,4.2c1.4,1.9,1.6,4.2,2.3,6.6c1.2,5.2,3,10.2,4.4,15.6c0.3,1.6,1,3.1,1.4,4.8c0.1,0.7,0.1,1.5,0.1,2.2
				C21.3,193,21.3,193.5,21.2,193.9z M26.9,236.3c-1.4,1.2-2.9,2.3-4.4,3.3h-7.1c1.9-0.8,3.8-1.8,5.7-2.9c0.7-0.5,1.5-1.1,2.2-1.6
				c0.8-0.7,1.8-1.5,1.9-2.6c0.4-1.4-0.1-2.9-0.5-4.2c-0.5-2-0.8-4.2-1.4-6.3c-0.4-1.6-1.1-3.3-1.2-5.1c0-0.8-0.1-1.8-0.1-2.6
				c-0.1-1.4-0.4-2.6-0.8-3.8c-0.8-1.9-1.9-3.6-3.1-5.1c-1.6-2-4.1-2.5-6.3-3.6c-1.5-0.8-3-1.9-3.6-3.6c-0.8-3-1-6-1.8-9
				c-0.4-1.6-1-3.3-1.6-4.9v-11.6c0.7,2.2,1.1,4.4,1.6,6.7c0.7,2,1.5,4.1,2.2,6.3s1.2,4.5,1.5,7c0.4,1.9,0.7,4.1,2.2,5.6
				c1.4,1.2,3,2.2,4.9,2.2c0.7,0.1,1.6,0,2,0.5c1.5,1.8,3.7,6.1,4.5,8.2c1.1,2.3,1.5,5.1,1.8,7.6c0.5,3.1,1.2,6.4,2,9.6
				c0.5,1.9,0.8,3.8,1.6,5.5c0.3,0.7,0.7,1.4,0.1,2C28.8,234.9,27.8,235.4,26.9,236.3z M21.2,233.8c-0.5,0.3-1.1,0.5-1.5,0.8
				c-3.3,2.3-6.8,3.7-10.7,4.6c-1.5-0.3-2.7-1.2-3.4-2.6c3.6-0.1,9.4-2.2,12.2-4.6c1-0.8,1.5-2.2,1.4-3.4c-0.3-2.3-1.2-8.3-3-10.1
				c-0.8-0.8-2-1.5-3-2.2c-1.1-0.8-1.9-1.8-2.9-2.5c-1.6-1.5-3.6-2.5-5.5-3.3v-3.6c1.5,0.8,3,1.4,4.5,2.2c2,1.1,4.1,2.5,5.2,4.6
				c0.1,0.7,0.5,1.2,1.2,1.4c0.1,0.1,0.1,0.1,0.3,0.1c0.5,0,1-0.4,1.2-0.7c0.1-0.7,0.1-1.4-0.3-1.8c-3-3.7-4.2-4.5-8.6-6.7
				c-1.1-0.7-2.5-1.1-3.6-1.9v-11.5c0.1,1.1,0.4,2.3,0.5,3.6c0.4,1.9,0.7,4,2.2,5.5c2.5,2.3,6.1,2.7,8.7,5.1c1.2,1.5,2.3,3.1,3,4.9
				c0.7,1.9,0.3,4,0.5,5.9c0.1,1.4,0.7,2.6,1,3.8c0.1,0.3,0.3,0.7,0.4,1.1c0.5,2.2,0.8,4.4,1.4,6.6c0.3,0.8,0.4,1.6,0.3,2.5
				c-0.1,0.8-0.7,1.4-1.2,1.8L21.2,233.8z M4.8,234.4v-3.2c2,0,7.6-0.8,8.1-3.4c0.7-1.4,0.1-2.9-0.3-4.2c-1-2.2-3-3.6-4.8-4.9
				c-1.1-0.7-2-1.4-3-1.9v-3.6c2.3,1.2,8.7,5.6,10.1,7.8c0.8,1.4,1,3,1.2,4.5c0.3,1.2,0.7,2.6,0.4,4C15.5,232.3,7.4,234.4,4.8,234.4
				z M5.6,229l-0.8-3c1,0.4,1.1,0.5,1.2,0.5c0.8,0,1.6-1,1.4-1.9c-0.5-1-1.6-1.1-2.6-1.4v-3.8c0.5,0.4,1,0.7,1.5,1.1
				c1.8,1.1,3.7,2.5,4.4,4.5c0.3,1-0.1,2.3-1.1,2.9C8.5,228.6,7,228.9,5.6,229z M10.4,148.1h2.5c1.1,0.8,2.3,1.6,3.8,1.6
				c1.5-0.1,2.9-0.7,4.2-1.4L25,148c-0.3,1.1-0.5,2.2-0.4,3.4c0.3,1.6-0.1,3.3-0.4,5.1c-0.3,1.5,0.3,2.9,0.5,4.4
				c0.7,2.5,0.8,5.1,1.5,7.5c0.7,3,2,5.7,2.7,8.7c1.2,7,2.7,10.2,5.7,16.2c0.7,1.4,1.2,2.7,1.8,4.1v8.2c-0.5-1.1-1-2.3-1.5-3.6
				c-1-2.2-1.6-4.5-2.7-6.7c-1-2.2-2.7-4.1-3.4-6.4c-1-3.4-1.9-6.8-2.7-10.2c-0.8-3.4-2-6.6-2.9-9.8c-0.7-2.3-1-4.6-1.5-7
				c-0.1-0.7-0.3-1.4-0.5-2c-0.4-0.8-1-1.6-1.8-2.2c-1.5-1-2.7-2.3-3.7-3.7s-2.5-2.2-3.8-3c-1.2-0.8-2.5-1.8-3.7-2.6
				C8.9,148.2,9.6,148.1,10.4,148.1z M18.9,153.8c0.3,1.1,1.5,1.2,2.3,1.2c1.5-1.2,1.1-3,0-3.7c-0.5-0.1-0.7-0.1-1-0.1
				c-0.4,0-0.8,0.1-1.1,0.4C18.6,152.1,18.6,153.1,18.9,153.8z M31,148.1c-0.8,2.9-1.1,5.7-0.8,8.5c0.3,2,0.5,4,0.5,5.9
				c0,2.3,0.4,4.6,1.4,6.8c0.7,1.6,1.5,3.1,1.9,4.9c0.4,1.4,0.4,2.7,0.5,4.1c0.3,2.2,1.1,4.1,1.9,6v7.5c-0.3-0.5-0.4-1-0.7-1.4
				c-1.6-3-2.9-6.3-3.7-9.7c-0.7-2.3-1-4.8-1.6-7c-1.4-4-2.2-6.8-2.9-11.1c-0.3-2.2-1.1-4.2-1-6.4c0.4-2.2,0.3-4.5,0.5-6.7
				c0.1-0.5,0.3-1,0.4-1.5L31,148.1L31,148.1z M45.8,237.8c2.2,0.4,4.5,0.7,6.7,1.4c-2.5,0.3-4.9,0.4-7.6,0.4h-7.1
				c-0.7-0.1-1.4-0.1-2-0.3c-0.3-0.1-0.7-0.1-1-0.1c-0.7,0-1.4,0.1-2,0.4h-6c0.8-0.7,1.6-1.2,2.5-1.8c0.8-0.7,1.2-1.8,2.2-2.3
				c0.3-0.1,0.4-0.1,0.7-0.1c0.5,0,1.1,0.1,1.5,0.3c1.2,0.4,2.5,0.4,3.7,0.7C40,236.7,42.9,237.2,45.8,237.8z M32.5,154.5
				c0-2.2,0.4-4.4,1-6.4h3.3c-0.7,2.7-1.1,5.6-0.7,8.5c0.1,1.9,1.9,3.1,3.1,4.2c1.8,1.5,2.6,3.7,3.7,5.6c1.5,2.6,4.1,4.4,6.1,6.8
				c0.5,0.7,1.1,1.5,1.5,2.3c-1.2-0.7-2.9-1.2-4.8-1.4c-1.9-2-3.4-2.9-4.5-4.2c-1.4-1.6-2.6-4.5-3.1-6.6c-0.1-0.7-0.7-1.4-1.5-1.4
				s-1.5,1-1.4,1.6c0.1,0.3,0.3,0.7,0.5,1c1.5,2.2,1.9,5.1,3.7,7.1c0.7,1,1.8,1.5,2.7,2.2c-2.6,0-4.6,1.5-5.5,3.7c0-2,0-3.8-0.7-5.3
				c-1.1-2.3-2.3-4.5-2.9-6.8c-0.4-2.3,0.1-4.5-0.1-6.7C32.8,157.3,32.5,155.8,32.5,154.5z M38.9,157.1c-0.8-1.5-0.7-3.1-0.5-4.8
				c0.3-1.4,0.5-2.9,0.8-4.2h3.3c-0.3,1.2-0.5,2.5-0.7,3.7c-0.1,0.7-0.1,1.4,0,2c0.1,1.2,0.7,2.5,1.5,3.6c1.4,1.6,2.6,3.4,3.7,5.1
				c1.8,2.7,4,4.9,6.1,7.1c2.3,2.5,6.6,11.9,7.9,15.6c1.1,2.9,1.8,5.9,2.7,8.7c1.1,3,1.8,6.3,1.4,9.4c-0.3,1.6,0.3,3.4,0.1,5.1
				c0,0.8-0.1,1.5,0,2.3c0.3,0.4,0.5,0.8,1.1,1c0.1,0.1,0.3,0.1,0.4,0.1c0.7,0,1.4-0.7,1.2-1.5c0.1-1.1-0.7-2.2-0.5-3.4
				c0-1.8-0.1-3.6,0.1-5.3c0.1-3.6-1.1-7-2.2-10.2c-0.8-2.3-1.4-4.8-2.2-7.1c-1.1-3.1-2.7-5.9-4.1-8.9c-1-2.5-2-4.9-3.8-6.8
				c-1.9-2.2-4.2-4.1-5.9-6.7c-1.4-2-2.9-4.1-4.4-6.1c-1-1.4-1-3.1-0.7-4.8c0.1-1,0.4-1.8,0.5-2.7c1.1,0,2.2,0.1,3.1,0.1
				c-0.3,1.5-0.5,3-0.3,4.5c0.4,2.3,3.7,6.8,5.3,8.6c1.6,2.2,3.8,4,5.7,6.1c1.1,1.4,1.8,3,2.5,4.8s1.5,3.6,2.5,5.3
				c1,1.8,2,3.7,2.6,5.9c0.8,2.7,1.4,5.6,2.3,8.3c0.8,2,1.6,4.1,1.9,6.3c0.4,1.9,0.3,4,0,5.9c-0.3,0.8-0.7,1.6-0.8,2.5
				c-0.1,0.5,0.3,1.1,0.7,1.5c0.3,0,0.4,0.1,0.5,0.1c0.7,0,1.4-0.4,1.5-1.1c0.1-1.1,0.1-2.2,0.4-3.1c0.4-1.9,0.4-3.8,0.1-5.6
				c-0.3-3.3-1.9-6.1-2.9-9.3c-0.7-2.3-1.1-4.8-1.8-7.1c-1-2.9-2.9-5.3-4.1-8.2c-0.8-1.8-1.2-3.7-2.2-5.5c-0.8-1.8-2-3-3.4-4.2
				c-2.9-2.6-6.8-7.2-8.3-10.9c-0.4-1.5-0.3-3.1,0.1-4.6c1.1,0.1,2,0.1,3.1,0.3c-0.1,0.4-0.1,0.8-0.1,1.2c-0.1,2.3,1.2,4.5,2.6,6.3
				c1.6,2.3,3.4,4.4,5.6,6.1c1.2,1.1,2.6,2,3.3,3.6c0.7,1.5,1,3.3,1.5,4.8c0.5,1.9,1.4,3.8,2.6,5.3c0.8,1.4,1.8,2.6,2.2,4.1
				c1.1,3.7,1.2,7.5,2.9,11.1c0.7,1.4,1.5,2.6,1.9,4.1c0.5,2.5,0.4,4.9,0.3,7.4c-0.1,1.9-0.5,4-1.6,5.6s-2.9,2.6-4.2,3.8
				c-1.9,1.5-4.1,2.9-6.6,3.6c-1,0.4-2,0.5-3.1,0.5c-1,0-2-0.1-3-0.3c-3.1,0-8.2-1.2-11.1-2.6c1.4-0.3,2.7-0.8,3.8-1.4
				c0.3,0.1,0.7,0.3,1,0.1c1,0.1,1.6-1,1.2-1.8c0.7-1,1.4-2.2,1.8-3.8c0.1,1.9,0.5,2.9,0.5,3.8s-0.3,2,0.4,2.7
				c0.3,0.4,0.7,0.5,1.1,0.5s0.8-0.1,1.1-0.5c0.4-0.8,0.1-1.6-0.1-2.3c-0.8-1.8-0.8-6.8-0.8-9c-0.1-1.6-0.4-3.3-0.8-4.9
				c0-3.6,0-7.2-0.4-10.8c0.4,1.2,1,2.3,1.4,3.6c1.1,3.7,2.5,7.2,2.9,11.2c0,2,0.3,4.1,0.3,6.1c0,1.4,0.4,2.7,0.4,4.1
				c0,0.8-0.3,2,0.5,2.6c0.3,0.1,0.7,0.3,1,0.3c0.4,0,0.8-0.1,1-0.5c0.7-0.8,0.1-2-0.1-2.9c-0.5-1.5-0.3-3.1-0.5-4.6
				c-0.3-1.9,0.1-4-0.3-6c-0.5-6-7.1-23.8-11.6-28.7c-1.6-1.8-3.6-3.3-4.9-5.3c-1.4-1.9-2.2-4-3.8-5.7
				C40.7,159,39.6,158.2,38.9,157.1z M67.1,152c0.5,0.4,1.1,1,1.6,1.4c0.7,0.5,1.4,1.2,2.2,1.5c0.1,0,0.4,0,0.7,0
				c0.3,0,0.5,0,0.8-0.1c0.5,0.3,1.1,0.7,1.6,1.1c-0.7,0.7-1.4,1.5-1.9,2.2c-0.4,0.4-1,0.8-1.4,0.8c-0.3,0-0.5-0.1-0.8-0.3
				c-2.6-1.6-6.8-5.6-7.9-8.3C63.8,150.8,65.6,151.3,67.1,152z"/>
			<path class="st0" d="M94.1,167.2v-15.3c0-1.1,0.5-2.2,1.4-2.9c0.3,2-0.1,3.8-0.4,5.5c-0.3,1.5,0.3,3,0.5,4.5
				c0.7,2.5,0.8,5.1,1.5,7.5c0.7,2.9,2,5.6,2.6,8.6c0.8,3.8,1.8,7.6,3.3,11.2c0.7,1.8,1.8,3.4,2.6,5.2c1.4,2.7,2.3,5.6,3.4,8.5
				c0.5,1.4,1.2,2.9,2.2,3.8c1.4,1.4,3,2.2,4.6,3.1c0.7,0.4,6.1,3.1,6.6,3.1c1,0,1.6-1.1,1.2-1.9c-0.4-0.8-1.4-1-2-1.1
				c-1.4-0.3-7.4-3.6-8.5-4.5c-1.1-1.1-1.6-2.7-2.2-4.2c-1.2-3.4-2.5-6.7-4.2-10c-1.6-3-3-6.3-3.8-9.7c-0.5-2.3-0.8-4.6-1.5-7
				c-0.7-1.9-1.5-3.7-1.9-5.6c-0.5-1.8-0.8-3.6-1-5.5c-0.3-2.2-1.2-4.2-1-6.4c0.3-2,0.3-4.1,0.5-6.1h3.3c-0.3,2.2-0.5,4.4-0.3,6.6
				c0.3,1.9,0.5,3.8,0.5,5.9c0,2.3,0.4,4.6,1.4,6.8c0.5,1.6,1.5,3.1,1.9,4.8c0.4,1.4,0.4,2.9,0.5,4.2c0.4,3.1,1.9,6.1,3.3,9
				c1.1,2.2,2.2,4.4,3.1,6.7c0.8,1.9,1.4,4,2.2,5.9c0.5,1,0.5,2,1.1,3c0.3,0.5,0.7,0.7,1.2,0.7c0.4,0,1-0.3,1.1-0.7
				c0.5-1.2-0.7-2.2-1.1-3.3c-0.7-2-1.4-4.1-2.2-6c-1.6-4.2-4-8.2-5.6-12.4c-0.5-1.2-1-2.6-1-4c0-1.6,0-3.6-0.8-5.1
				c-1-2.2-2.2-4.4-2.7-6.8c-0.4-2.2,0.1-4.5-0.1-6.7c-0.3-1.4-0.5-2.7-0.5-4.1c0-1.6,0.1-3,0.5-4.5h3.3c-0.4,2.2-0.5,4.2-0.4,6.6
				c0.3,1.9,1.9,3,3.3,4.2c1.6,1.5,2.6,3.7,3.7,5.5c1.5,2.7,4.1,4.5,6,6.8c3.8,4.1,10.1,21,10.8,27.4c0,2,0.1,4.1,0.3,6.3
				c0,0.4,0,0.8,0.1,1.2h-1.2c-0.7,0-1.4,0.1-1.9,0.4c-0.3-2.2-0.3-4.6-0.3-6.8c-0.3-3.4-1.2-6.7-2.5-9.8c-1.2-4.1-6-15.7-9.1-18.4
				c-1.2-1.2-2.7-2-3.8-3.4c-1-1.2-1.5-2.7-2.2-4.1c-0.5-0.7-0.7-1.6-1-2.5c-0.1-0.7-0.8-1.5-1.5-1.5c-0.8,0-1.5,1-1.4,1.8
				c0.1,0.3,0.3,0.5,0.4,0.8c1.6,2.2,2,5.1,3.8,7.2c1,1.2,2.6,1.8,3.7,2.9c4,3.6,10.9,20.9,11.2,27.4c0.3,1.8,0.1,3.4,0.1,5.2
				c0,1,0.5,1.9,0.4,3c0.1,0.3,0,0.7,0,1.1v1c0,1.5,0.8,2.7,2,3.4c-6.4-0.4-10.4-2.5-15.8-5.6c-1.4-0.7-2.9-1.4-3.8-2.9
				c-1-1.5-1.6-3.4-2.3-5.1c-1-2.2-1.6-4.6-2.7-6.8c-1-2.2-2.7-4-3.4-6.4c-1-3.4-1.9-6.8-2.9-10.2C96.2,173.5,94.9,170.3,94.1,167.2
				z M95.5,203.6c-0.4-1-0.8-1.8-1.4-2.6v-8.3c0.3-1,0.5-1.9,0.5-2.9s-0.3-1.8-0.5-2.6v-11.6c0.8,3,1.6,6,2.5,8.9
				c0.4,1.6,0.8,3.1,1.4,4.8c0.5,1.5,1.8,2.7,2.6,4.1c0.8,1.4,1.2,3,1.9,4.5c0.7,1.8,3.3,8.6,4.6,9.8c1,1.1,2.3,1.5,3.6,2.3
				c2,1.1,4.1,2.5,6.3,3.4c3.7,1.6,10.1,2.7,14.1,2.9c1.6,0,3.3-0.1,4.8-0.5c1.1-0.4,2.2-1,3.3-1.5h5.3c-1.5,1.1-2.9,2-4.5,3
				c-2.5,1.6-5.6,2.2-8.5,2.2c-0.5,0-1-0.1-1.5-0.1c-7.5-0.5-13.4-2-19.7-6c-0.8-0.4-1.2-1.2-2-1.8c-0.3-0.1-0.5-0.1-0.8-0.1
				s-0.7,0.1-1,0.4c-0.4,0.3-0.3,1-0.3,1.5c0.4,0.5,1,1,1.6,1.2c2,1.1,4,2.3,6,3.4c1.9,1.2,4.2,1.6,6.4,2.2c3.1,0.5,6.3,1.2,9.4,1.5
				c0.5,0.1,1.2,0.1,1.8,0.1c1.4,0,2.7-0.1,4.1-0.3c3.6-0.5,6-2.5,8.9-4.4c1.4-1,2.6-1.9,4-2.9h4.9c-3,3-6.8,4.6-9.8,7.2
				c-3.4,3-7.1,3.3-11.5,3.3c-1.1,0-2.2,0-3.3-0.1c-4.1-0.4-8.1-1.4-12-2.2c-1.9-0.5-4.1-0.8-5.6-2.2c-0.5-0.5-0.8-1.4-1.4-1.9
				c-0.3-0.3-0.7-0.4-1.1-0.4c-0.1,0-0.4,0.1-0.7,0.1c-0.7,0.4-0.7,1.2-0.4,1.9c0.3,0.7,1,1.1,1.5,1.5c1.9,1.9,3,2.3,5.6,2.9
				c5.1,1.1,10,2.2,15.2,2.7c1,0,1.9,0,2.9,0c0.8,0,1.6,0,2.5,0c1.8-0.3,3.7-0.5,5.5-1.1c1-0.3,2-0.5,2.9-1.4
				c1.2-1.1,2.5-2.3,3.8-3.1c1.2-0.8,2.5-1.5,3.7-2.5c1.8-1.2,3.7-2.5,4.9-4.2l2.9-0.5c0.4,0,0.8,0,1.1,0.1
				c-0.5,1.5-1.1,2.7-1.9,3.7c-1.1,1-2.5,1.5-3.6,2.3c-1.8,1.1-3,2.6-4.9,3.4c-1,0.5-2.3,0.3-3,1.4c-0.5,0.8,0.3,2,1.4,1.9
				c1.1-0.3,1.9-1,3-1.2c1.6-0.7,2.7-2.2,4.1-3.3c1.2-0.8,2.6-1.4,3.8-2c1.4-0.8,2-2,2.6-3.4c0.1-0.5,0.4-1,0.5-1.4
				c0.5,0.7,0.8,1.5,0.8,2.3v4.5c-0.3,0.3-0.4,0.4-0.8,0.5c-1.1,0.5-2.3,0.8-3.4,1.1c-1,0.3-1.9,0.1-2.7,0.7s-0.7,2,0.3,2.3
				c0.1,0,0.3,0.1,0.5,0.1c0.5,0,1-0.3,1.5-0.5c1.5-0.7,3.1-0.8,4.6-1.2v3.1c-1.1,0.4-2.2,0.7-3.4,1c-0.4,0-1,0-1.5,0
				c-0.4,0-1,0-1.5,0c-1.4-0.3-2.6-0.7-4-0.7c-0.1,0-0.4,0-0.5,0c-1.1,0.1-2.2,0.4-3.4,0.4c-1.6-0.1-3.4-0.7-5.1-0.7
				c-0.4,0-0.8,0-1.2,0.1c-2.7,0.5-5.5,1.5-8.2,1.5c-0.1,0-0.3,0-0.5-0.1c-0.3,0.1-0.5,0.1-0.8,0.1c-2.5,0-4.9-0.4-7.4-0.8
				c-4.8-0.8-9.6-1.9-14.3-2.9c-1.4-0.3-3.1-0.5-4-2c-1.1-1.8-2.5-8.6-2.7-11.1c-0.1-1.5-0.1-3-0.4-4.5c-0.3-1.8-2.9-7.1-3.7-8.7
				c-0.5-1.2-1.1-2.3-1.5-3.6c-0.1-0.8,0.1-1.6-0.3-2.5c-0.3-0.5-0.8-1-1.4-1c-0.3,0-0.5,0.1-0.7,0.3c-0.8,0.4-0.5,1.4-0.4,2
				c0.5,1.6,1,3.4,1.8,4.9c1.1,2.2,2.2,4.5,3.1,6.8c0.7,1.6,0.8,3.3,1,4.9c0.3,3.6,1.8,11.3,3.4,14.2c0.5,1.1,1.8,1.6,2.9,1.9
				c1.5,0.4,3.1,0.7,4.6,1c3.8,0.8,7.8,1.6,11.6,2.3c2.3,0.5,4.5,0.7,6.8,1c0.4,0,0.8,0,1.1,0c0.5,0,1.1,0,1.6,0c0.3,0,0.4,0,0.7,0
				c3,0,5.9-1.2,8.9-1.5c1.2,0,2.5,0.3,3.8,0.4c0.5,0,1,0,1.5,0c1.1,0,2.2,0,3.1-0.1c2.2,0,4.2,0.4,6.3,0.5c1.6,0,3.1-0.3,4.6-0.8
				v3.6c-1.1,0-2,0-3.1,0.1c-0.4,0.1-0.8,0.1-1.2,0.1c-1.4,0-2.7-0.3-4.1-0.3c-0.1,0-0.1,0-0.3,0c-1.5-0.1-3-0.1-4.5-0.1
				c-1.1,0-2.2,0-3.4,0c-0.4,0-0.8,0-1.2,0c-2.7,0-5.2,0.5-7.8,1.1c-0.8,0.1-1.8,0.4-2.7,0.4c-0.3,0-0.4,0-0.7,0
				c-2.2-0.4-4.4-0.7-6.7-0.7c-1.9-0.1-3.8-0.8-5.7-1.2c-5.1-1-10.1-1.8-15-2.7c-1.1-0.3-2.3,0-3.3-0.7c-0.7-1-0.5-2.3-1.1-3.4
				c-1.8-5.2-2.7-10.7-3.4-16C97.9,208.7,96.8,206.1,95.5,203.6z M97.8,234.2c-1.1,1-2.2,1.9-3.4,2.7c-0.1-0.4-0.3-0.8-0.3-1.4V233
				c1-0.8,1.8-1.5,2-2.6c0.3-1.5-0.1-2.9-0.5-4.4c-0.5-2-0.8-4.1-1.4-6.3l-0.1-13.9c0.1,0.4,0.4,0.8,0.5,1.2
				c1.1,2.5,1.4,5.1,1.6,7.6c0.5,3.3,1.4,6.4,2.2,9.7c0.5,1.8,0.8,3.7,1.6,5.5c0.3,0.5,0.5,1.4,0.1,2
				C99.6,232.9,98.6,233.4,97.8,234.2z M158.7,239.5h-38.6c-4.9-1.2-9.3-1.6-13.5-2.3c-1.9,0-3.3,0-4.9,1.2
				c-0.4,0.4-0.8,0.7-1.4,1.1h-2.2c-0.8,0-1.6-0.3-2.2-0.7c1.4-1,2.7-2,4.1-3.1c0.8-0.7,1.2-1.8,2.2-2.3c0.3,0,0.4-0.1,0.7-0.1
				c0.5,0,1,0.3,1.5,0.3c1.2,0.4,2.5,0.5,3.7,0.7c4.5,0.7,11.9,1.8,16.1,3.1c1.1,0.4,2.2,0.5,3.4,0.5c0.4,0,0.8-0.1,1.2-0.1
				c0.1,0,0.3,0,0.4,0c1.6,0,3.3,0.8,5.1,0.7c1.2,0.1,2.5-0.3,3.7-0.5c1.9-0.4,3.8-0.8,5.7-1c0.4,0,1,0,1.4,0c1.4,0,2.6,0,4,0
				c1.1,0,2.3,0,3.4,0c1.8,0.3,3.4,0.1,5.2,0.4c0.3,0,0.5,0,0.7,0c1.2,0,2.5-0.1,3.6-0.1c0.1,0,0.3,0,0.5,0
				C161.7,238.6,160.3,239.5,158.7,239.5z M109.8,155c-1-1.4-0.8-3.1-0.5-4.6c0.1-0.8,0.3-1.6,0.4-2.3h3.3c-0.1,0.5-0.3,1.1-0.3,1.8
				c-0.1,0.7-0.1,1.2,0,1.9c0.1,1.4,0.7,2.6,1.5,3.6c1.4,1.6,2.6,3.4,3.7,5.2c1.6,2.6,4,4.8,6.1,7c1.6,1.8,2.7,4.1,3.8,6.4
				c-1.2,0.5-1.9,1.8-2,3.1c-1.2-2.9-2.6-5.7-4.6-7.9c-1.6-1.9-3.6-3.4-4.9-5.5c-1.4-1.8-2.2-4-3.8-5.6
				C111.6,156.9,110.5,156.1,109.8,155z M122.5,201.7c-0.5-1.6-0.3-3.4-0.8-5.1c-1.6-6.3-4.5-12.2-7.4-17.9
				c-0.7-1.2-1.2-2.5-1.6-3.8c-0.1-0.7-0.8-1.2-1.5-1.2c-0.3,0-0.4,0-0.7,0.1c-0.7,0.3-0.7,1.2-0.4,1.9c0.4,0.8,1.1,1.5,1.5,2.3
				c2,4.9,4.6,9.6,6.3,14.5c1,2.7,2,5.3,2.2,8.2c0,1-0.5,2.2,0.1,3.1c0.1,0.4,0.7,0.7,1.1,0.7s0.8-0.1,1.1-0.5
				C122.9,203.4,122.7,202.5,122.5,201.7z M133.4,173.3h-3.3c-1.1-2.5-2.2-4.9-4-6.8c-1.9-2.3-4.2-4.2-5.9-6.7c-1.5-2-3-4.1-4.4-6.3
				c-1-1.4-1-3.1-0.7-4.8l3.4-0.7c-0.1,0.8-0.1,1.8,0,2.6c0.3,1.6,1.2,3,2,4.4c1.1,1.5,2,2.9,3.3,4.2c1.6,2.3,3.8,4,5.6,6.1
				c1.2,1.4,1.9,3.1,2.6,4.8C132.6,171.3,133,172.2,133.4,173.3z M121.2,148.1h3.3c0,4.1,5.2,9.8,8.2,12.3c1.2,1,2.5,1.9,3.3,3.4
				c0.7,1.5,1,3.3,1.5,4.9c0.4,1.6,1.2,3.1,2.2,4.6h-3.6c-0.3-0.5-0.5-1.1-0.8-1.8c-0.8-1.8-1.2-3.7-2.2-5.5c-0.8-1.6-2.2-3-3.4-4.2
				c-2.3-2-7.2-7.8-8.3-10.8C121,150.1,121,149,121.2,148.1z M162.7,169.4c0,1.4-0.7,2.6-1.8,3.3c-0.1-2.7,0-5.6-0.1-8.3
				c-0.3-3.4,0-6.7,0-10.1c0-1.1,0.8-2,0.7-3.1c0-0.8-0.7-1.4-1.4-1.4c-0.3,0-0.5,0.1-0.7,0.3c-0.8,0.5-0.8,1.6-0.8,2.5
				c0,1.1-0.1,2.2-0.1,3.3c0,5.9,0,11.7,0.3,17.6h-3.3c0-3.4,0.1-6.7-0.1-10.1c-0.1-1.8,0.3-3.6,0.1-5.3c-0.1-1.1,0.1-2.2,0.4-3.1
				c0.3-1-0.5-2-1.5-2c-0.1,0-0.3,0-0.3,0c-1,0.3-1.2,1.4-1.1,2c0.4,2.6,0.1,5.1,0,7.6c0,3,0.5,6,0.3,9.1c-0.1,0.5-0.1,1.1-0.1,1.8
				h-3.3c0.1-0.7,0.1-1.4,0.3-1.9c0.3-1.5,0.3-3,0.1-4.5c-0.3-2.2-0.8-4.4-0.5-6.7c0.3-1,1.2-1.8,1.1-3c-0.1-0.5-0.8-1.1-1.4-1.1
				c-0.3,0-0.4,0.1-0.7,0.1c-0.5,0.4-0.8,1.2-1,1.9c-0.1,1-0.5,1.9-0.5,2.9c-0.1,2.7,1,5.3,1,7.9c0,1.5-0.5,2.9-0.7,4.4h-5.2
				c-0.5-0.7-1.1-1.2-1.4-1.9c-1.6-2.7-1.8-6.1-3-9c-0.8-1.6-2.5-2.7-3.8-4c-2.2-1.9-4.1-4-5.7-6.4c-0.8-1.1-1.4-2.5-1.5-4h3.6
				c0.8,3.3,6,9.1,9.3,10.4c0.8,0.3,1.5,1,1.5,1.9c0.1,3.4,1.8,6.6,1.8,10c0.1,0.7,0.8,1.2,1.5,1.2c0.7-0.1,1.4-0.7,1.2-1.5
				c-0.1-1-0.7-1.8-0.8-2.7c-0.5-2.3-0.8-4.8-1.4-7.1c-0.1-0.5-0.1-1.1,0-1.6c0.3-0.5,0.7-0.8,1.1-1.2c1-0.7,1.5-1.9,2.5-2.6
				c2.9-2.6,6.6-3.8,9.7-5.9c0.5-0.3,1.1-0.5,1.8-0.8h0.1c2.2,0,4,1.8,4,3.8v17.3L162.7,169.4L162.7,169.4z M136.2,206.1h-3
				c0-0.8,0-1.6-0.1-2.3c-0.3-2,0.1-4.1-0.3-6.1c-0.3-3-1.4-5.9-2.2-8.9c-1-2.9-2-5.7-3.3-8.5c0.7,0.5,1.5,0.8,2.5,0.8h1.4
				c0.3,0.7,0.5,1.2,0.8,1.9c1,3,1.8,6,2.7,8.9c1.1,3,1.8,6.1,1.4,9.3C135.8,202.8,136.2,204.4,136.2,206.1z M136.6,148.1
				c0.7,1.4,1.9,2.3,3,3.3c0.7,0.7,1.2,1.4,2.2,1.6c0.1,0,0.4,0,0.7,0s0.7-0.1,1-0.4c0.4-0.3,0.3-1,0.1-1.5
				c-0.7-1.2-2.2-1.1-3.1-1.9c-0.4-0.4-0.7-0.7-1-1.1h5.3c0.4,0.1,0.8,0.1,1.1,0.1c0.4,0,0.8,0,1.2-0.1h6.6c-0.5,0.3-1.1,0.7-1.6,1
				c-1.9,1.1-4.1,1.6-5.6,3.3c-1.2,1.2-2.3,2.5-3.4,3.8c-0.4,0.4-1,0.7-1.4,0.7c-2.2,0-8.1-6.6-8.7-8.6L136.6,148.1z M147.2,200.5
				c-0.1,1.9-0.5,4-1.6,5.6h-7.1c-0.1-0.4-0.3-0.8-0.1-1.2c0-1.8-0.1-3.7,0.1-5.5c0.1-3.6-1.2-6.8-2.2-10.1
				c-0.8-2.5-1.4-4.8-2.2-7.1c-0.1-0.4-0.3-0.7-0.4-1.1h3.4c1,3,1.5,5.9,2.5,8.6c0.8,2,1.6,4.1,1.9,6.3c0.4,2,0.3,4,0,6
				c-0.3,0.8-0.7,1.5-0.8,2.5c-0.1,0.5,0.3,1.1,0.7,1.4c0.1,0.1,0.4,0.1,0.5,0.1c0.7,0,1.2-0.4,1.5-1c0.1-1.1,0.1-2.2,0.4-3.3
				c0.4-1.8,0.4-3.7,0.1-5.6c-0.3-3.3-1.9-6.1-2.9-9.1c-0.5-1.9-1-4-1.5-5.9h3.3c0.5,2.7,1,5.5,2.2,7.9c0.7,1.4,1.5,2.7,1.9,4.2
				C147.4,195.6,147.4,198,147.2,200.5z M153.1,199.3c0,2.3-0.5,4.5-1.4,6.7c-0.4,0-0.8,0.1-1.2,0.1h-2.3c0.8-1.8,1.4-3.7,1.5-5.6
				c0-2.6,0-5.3-0.4-7.9c-0.4-1.8-1.6-3.1-2.3-4.8c-0.7-1.4-1-2.9-1.2-4.4c-0.1-0.8-0.3-1.5-0.4-2.3h3.1c0.1,1.1,0.4,2,0.5,3.1
				c0.1,1-0.1,1.8,0,2.7c0.3,0.5,0.7,1,1.4,1.1c0.4,0,0.8-0.3,1.2-0.7c0.4-1.2-0.4-2.3-0.4-3.6c-0.1-1-0.3-1.8-0.4-2.7
				c1.6,0.1,3,1.2,3.4,2.7c0.1,0.8,0.1,1.8-0.1,2.7c-0.4,2-1.6,4.1-1.5,6.3C152.7,194.9,153,197.1,153.1,199.3z"/>
			<path class="st0" d="M195.2,148.1c-0.4,6.6-1.1,8.9-2.9,15.2c-0.5,1.4-1,2.7-1.4,4c-0.7,1.5-1.1,3-1,4.6c0.3,1.6-0.1,3.4-0.4,5.1
				c-0.3,1.5,0.3,3,0.5,4.4c0.7,2.6,0.8,5.1,1.5,7.5c0.8,3,2,5.7,2.7,8.7c1.2,7,2.7,10.2,5.7,16.2c1.4,2.9,2.3,5.7,3.4,8.6
				c0.5,1.4,1.2,2.7,2.2,3.8c1.4,1.4,3.1,2.2,4.6,3.1c0.5,0.3,6.1,3,6.4,3v0.7c0,0.8-0.1,1.4-0.3,2c-2.7-0.5-12-4.8-13.8-7.4
				c-1-1.5-1.5-3.4-2.3-5.1c-1-2.3-1.6-4.6-2.7-6.8c-1-2.2-2.7-4-3.4-6.4c-1-3.4-1.9-6.8-2.7-10.2c-0.8-3.3-2-6.6-2.9-9.8
				c-0.5-2.3-1-4.6-1.5-6.8c-0.1-0.8-0.3-1.5-0.5-2.2c-0.4-0.8-1-1.6-1.8-2.2c-0.8-1.8-2-3-3.7-3.7c-2-2.9-10.7-7.8-14.9-8.1v-3.4
				c0.8,0,1.6,0.1,2.5,0.4c1.5,0.7,3.1,1.1,4.8,1.6c1.5,0.5,2.7,1.5,3.8,2.6c1.4,1.2,2.9,2.5,4.8,2.6c1.5-0.3,2.9-0.8,4.2-1.5
				c1.5-1.1,1.9-2.9,2.3-4.4c1-3.7,2.6-7.1,3.1-10.8c0.1-1.6,0.4-3.3,0.1-4.8L195.2,148.1z M166.2,154.1c0.1-1.4,0.7-2.6,1.5-3.7
				c0.7,0.5,1.4,1,2,1.4c2.2,1,4.5,2.5,7,2.5c0.4,0,0.7,0,1.1,0c0.4-0.1,0.7-0.1,1.1-0.1c0.3,0,0.5,0,0.8,0c0.5,0,1,0,1.5-0.1
				c1.1-0.4,1.4-2,0.3-2.6c-0.3,0-0.5-0.1-0.8-0.1c-1.1,0-2.2,0.8-3.4,0.7c-2.9,0.1-5.2-1.8-7.5-3c0.8-0.5,1.9-0.8,3-0.8h2.2
				c1,0.5,1.6,1.4,2.7,1.4c0.7,0,1.4-0.7,1.2-1.4h3.3c0.8,1.1,1.8,2,2,3.4c0.1,0.8,0.3,1.8,1.1,2.2c0.1,0,0.4,0,0.5,0
				c0.3,0,0.4,0,0.7-0.1c0.8-0.5,0.7-1.5,0.4-2c-0.1-0.4-0.3-0.7-0.4-1c-0.4-0.5-0.7-1.1-1-1.6c-0.1-0.3-0.3-0.5-0.5-0.8h4.1
				c0.1,0.4,0.3,0.8,0.4,1.2c0.5,2.5-0.3,4.8-0.8,7c-0.5,2.5-1.8,4.5-2.2,6.8c-0.4,2.6-1.4,4.5-4.2,4.5c-0.4,0-0.7,0-1.1-0.1
				c-1.8-0.4-2.9-2-4.1-3.1c-1.1-1.1-9.1-3.8-10.8-4l-0.1-3.7c1.4,0,2.5,0.7,3.7,1.2c2,0.8,4.1,1.6,6.3,2.2c0.3,0,0.4,0,0.7,0
				c1.8,0,3.3-1,4.9-1.2c1-0.3,2-0.1,3-0.3c0.4,0,0.8-0.4,1.1-0.7c0.5-0.7,0-2-0.8-2.2c-0.1,0-0.4,0-0.5,0c-1,0-1.9,0.8-2.9,1
				c-1.6,0.4-3.3,0.8-5.1,0.8c-1.2,0.1-2.5-0.4-3.7-1c-1.6-0.5-3.3-1.4-4.8-2C167.6,154.2,166.9,154.1,166.2,154.1z M176.7,173.9h-4
				c-3.1,0-5.7-2.2-6.4-5.1c3,0.5,5.1,1.4,7.6,3.1C174.8,172.6,175.8,173.2,176.7,173.9z M184,162.8c-0.1-1-1.1-1.6-1.9-1.6
				c-0.1,0-0.4,0-0.5,0.1c-1,0.1-1.6,1.2-1.4,2.2c0.3,0.7,1.1,1.1,1.9,1.1C183,164.6,183.8,163.8,184,162.8z M187,175.1
				c1.1-0.8,0.7-2.7-0.4-3.3c-0.5-0.1-0.7-0.3-1-0.3c-0.4,0-0.8,0.1-1.1,0.5c-0.5,0.5-0.5,1.4-0.3,2c0.4,1.1,1.2,1.2,2.3,1.2
				L187,175.1z M211.8,239.3c-2.3-0.8-4.9-2.2-7.1-3.6c-0.8-0.4-1.2-1.4-2-1.8c-0.3-0.1-0.5-0.1-0.7-0.1c-0.4,0-0.8,0.1-1,0.3
				c-0.5,0.4-0.4,1.1-0.3,1.6c0.3,0.5,0.8,1,1.5,1.2c1.5,0.8,3.1,1.6,4.6,2.6h-7.6c-0.1-1.2-0.5-2.3-0.7-3.6c-0.1-1.5-0.1-3-0.3-4.5
				c-0.3-1-0.7-1.8-1-2.6c-1-2-1.9-4.2-2.9-6.3c-0.5-1.1-1.1-2.2-1.4-3.4c-0.3-0.8,0-1.8-0.4-2.5c-0.1-0.5-0.8-1-1.4-1
				c-0.3,0-0.4,0.1-0.7,0.3c-0.7,0.4-0.5,1.4-0.4,2c0.5,1.6,1,3.3,1.8,4.9c1.1,2.2,2.2,4.5,3.1,6.8c0.7,1.5,0.8,3.1,1,4.8
				c0.1,1.6,0.4,3.3,0.8,4.9h-3.3c-0.3-1.9-0.5-3.8-0.8-5.9c-0.5-3.4-3.1-9.4-5.5-12.3c-0.5-0.7-1-1.5-0.5-2.3c0.4-1,1-1.8,1.4-2.9
				c0.5-1.2,1.1-2.6,1-4c0-1.2-0.4-2.5-0.8-3.7c-0.5-2-1.1-4.1-1.6-6.1c-0.7-2.2-1.1-3.8-1.6-5.5v-12.8c0.4,2.2,1,4.4,1.5,6.4
				c0.3,1.4,0.7,2.7,1.1,4.1c1.4,4.1,2.3,8.2,3.4,12.3c0.5,1.6,0.8,3.1,1.4,4.6c0.5,1.6,1.9,2.9,2.7,4.2c0.7,1.4,1.2,3,1.8,4.5
				c0.8,2,3.1,8.3,4.6,9.8c1.6,1.9,10.2,6.3,13.7,7C214.4,238.2,213.2,239,211.8,239.3z M186.6,214.3c-0.4,1.2-1,2.5-1.4,3.6
				l-0.1-12.4c0.5,2,1.1,3.7,1.5,5.3v-0.1c0.1,0.7,0.3,1.5,0.1,2.2C186.7,213.3,186.7,213.9,186.6,214.3z M190.9,237.2
				c0.1,0.8,0.3,1.5,0.4,2.3c-1.4-0.1-2.6-0.5-3.6-1.2c-0.1-0.4-0.1-0.7-0.1-1.1c-0.1-0.8-0.3-1.6-0.3-2.6c-0.1-1.2-0.4-2.6-0.8-3.8
				c-0.4-1-1-1.9-1.5-2.7v-6c0.4,0.7,0.8,1.4,1.2,2c1.2,2,2.2,3.7,3,5.5C190.2,232,190.7,234.6,190.9,237.2z M203.4,148.1h3.6
				c-0.4,0.8-0.7,1.6-0.8,2.6c-0.8,3.1-0.7,6.3-1.5,9.4c-1.5,5.6-3.8,11.1-3.1,16.8c0.1,1.9,1.9,3.1,3.1,4.4
				c1.8,1.5,2.6,3.6,3.7,5.5c1.6,2.7,4.2,4.5,6.1,6.8c1,1.1,1.6,2.5,2.3,3.8v7.5c-1.4-3.6-3.6-8.6-6.3-11.1c-1.1-1.2-2.7-2-3.8-3.4
				c-1.4-1.8-2.5-4.4-3.1-6.6c-0.1-0.8-0.7-1.5-1.5-1.5s-1.5,1-1.2,1.6c0,0.4,0.1,0.7,0.4,1c1.5,2.2,2,5.1,3.7,7.1
				c1.1,1.4,2.6,1.9,3.7,3c1.4,1.2,2.3,2.9,3.1,4.4c1.8,3.8,3.6,7.6,5.1,11.5v11.7c-0.1-1.2-0.1-2.5-0.5-3.6c-0.4-2-1.4-4.1-2-6.3
				c-1.5-4-3.4-7.8-5.2-11.7c-0.7-1.1-1.4-2.5-1.8-3.8c-0.1-0.7-0.8-1.1-1.5-1.1c-0.1,0-0.4,0-0.5,0.1c-0.8,0.3-0.8,1.2-0.5,1.9
				c0.4,0.8,1.1,1.5,1.5,2.3c2.2,4.9,4.6,9.6,6.4,14.5c1,2.6,2,5.3,2,8.2c0.1,1-0.5,2,0.1,3c0.3,0.5,0.7,0.7,1.1,0.7s0.7,0,1-0.3v3
				c-2.2-0.5-3.6-1.5-4.9-2.2c-1.4-0.8-3-1.4-4.1-2.5c-1.2-1.2-1.8-2.7-2.3-4.2c-1.2-3.4-2.5-6.8-4.2-10c-1.6-3-2.9-6.3-3.7-9.7
				c-0.5-2.3-0.8-4.6-1.6-7c-1.4-4-2.2-6.8-2.9-11.1c-0.3-2.2-1.1-4.2-0.8-6.4s0.1-4.4,0.4-6.6c0.3-1.5,0.8-2.9,1.4-4.4
				c1.5-4.6,3.1-9.4,3.3-14.3c0.3-1.1,0.3-2.2,0.3-3.3h3.3c-0.4,2.5-0.4,4.9-1,7.4c-0.5,4.5-2.3,8.7-3.4,13.2
				c-0.8,2.6-1.1,5.5-0.8,8.3c0.3,1.9,0.5,3.8,0.5,5.7c0,2.5,0.5,4.8,1.4,6.8c0.7,1.6,1.6,3.3,1.9,4.9c0.4,1.4,0.4,2.7,0.5,4.2
				c0.5,3.1,1.9,6,3.3,9c1.1,2.2,2.2,4.4,3.1,6.7c0.8,1.9,1.4,4,2.3,5.9c0.4,1,0.4,2,1,3c0.3,0.4,0.7,0.7,1.2,0.7
				c0.4,0,1-0.3,1.1-0.7c0.7-1.2-0.7-2.3-1.1-3.4c-0.7-1.9-1.4-4-2.2-5.9c-1.6-4.2-3.8-8.2-5.6-12.4c-0.5-1.2-1-2.6-1-4
				c0-1.8,0-3.6-0.7-5.1c-1.1-2.3-2.3-4.4-2.9-6.8c-0.4-2.2,0.1-4.5-0.1-6.7c-0.3-1.4-0.5-2.7-0.5-4.2c0.1-5.2,2.2-10,3.4-14.9
				c0.8-3.1,1.1-6.3,1.5-9.6C202.9,149.6,203.1,148.9,203.4,148.1z M206.1,163.5c0.4-1.5,1-3.1,1.1-4.8c0.5-2.6,0.5-5.3,1.2-7.8
				c0.3-1,0.7-1.9,1.1-2.9h3.7c-0.7,1.4-1.5,2.9-1.9,4.4c-0.8,2.5-0.4,5.1-1,7.5c-0.3,1.5-0.8,2.9-1.2,4.2c-0.8,2.6-1.5,5.3-1.9,8.1
				c-0.1,0.5-0.1,1.2,0,1.9c0.1,1.4,0.8,2.6,1.6,3.6c1.2,1.6,2.5,3.4,3.6,5.2c1.2,1.9,2.7,3.6,4.4,5.2v4.8c-0.4-0.5-0.7-1-1.1-1.5
				c-1.6-1.8-3.6-3.3-4.9-5.3c-1.4-1.8-2.2-4-3.8-5.7c-0.8-1-1.9-1.8-2.6-2.9c-0.8-1.4-0.7-3.1-0.5-4.8
				C204.2,169.5,205.1,166.5,206.1,163.5z M219.2,148.1c-0.5,1.9-1.4,3.7-2.5,5.3c-0.7,1-1.9,1.9-1.5,3.1c0.3,0.5,0.8,0.8,1.2,0.8
				c0.3,0,0.4-0.1,0.5-0.1c0.8-0.4,1.1-1.4,1.4-2.2c0.7-1.2,1.6-2.2,2.2-3.6c0.4-1.1,0.7-2.3,1.1-3.4h2.5c-0.3,1.6,0.8,2.5,1,3.7
				c0,0.7-0.7,1.1-1.1,1.5c-1.9,1.4-2.9,3.6-4.5,4.9c-1.2,1.1-2.6,1.8-3.4,3.1c-1.1,1.5-1.5,3.3-2,5.1c-0.4,2.2-1.2,4.5-0.8,6.7
				c0.3,1.6,1.2,3,2.2,4.4c0.4,0.7,1,1.4,1.5,2l-0.1,5.1c-0.7-0.7-1.4-1.5-1.9-2.3c-1.4-2.2-2.9-4.2-4.4-6.3c-1-1.4-1-3.1-0.7-4.8
				c0.5-2.7,1.1-5.5,2-8.1c0.4-1.2,1-2.3,1.1-3.7c0.1-1.5-0.3-3.1,0.1-4.8c0.3-1.6,1.1-3.3,1.9-4.8c0.3-0.5,0.5-1.1,0.8-1.8h3.4
				V148.1z M226,154.3c0.3-0.4,0.8-0.5,1.4-0.5c0.3,0,0.4,0,0.7,0.1c2.2,0.5,4.2,1,6.4,1.2v3.8c-1.1-0.5-2.2-1.2-3.4-1.4
				c-0.5-0.1-1.1-0.1-1.6-0.1c-0.7,0-1.5,0.1-2.2,0.4c-1.2,0.8-2.2,1.9-3.3,3c-1,1.1-2,2-3,3.3c-1.4,1.6-1.9,3.8-2,6
				c0,1.6,0.5,3,1.4,4.4c-1,0.5-1.9,1.4-2.5,2.2c-0.8-1-1.5-2-1.9-3.3c-0.7-1.9-0.3-3.8,0.1-5.6c1-3.8,1.4-4.9,4.4-7.5
				C222.5,158.4,224.2,156.4,226,154.3z M223.2,173.9c-1.2-1.1-1.8-2.5-1.9-4c0.1-1.6,0.7-3.4,1.8-4.6c1-1.1,2.2-2,3-3.1
				c0.8-1,1.6-1.9,2.7-2.2c0.4-0.1,0.7-0.1,1.1-0.1c1.1,0,2.2,0.4,3.3,0.8c0.5,0.3,1.1,0.7,1.2,1.4c0,0.8,0,1.5,0.1,2.2v3.3
				c0,1-0.3,1.9-0.7,2.9c-0.8-1.2-1.4-2.6-1.9-4c-0.4-0.8-0.4-1.9-0.8-2.9c-0.3-0.5-0.8-1-1.4-1c-0.3,0-0.5,0-0.7,0.1
				c-0.7,0.3-0.8,1.2-0.7,1.9c0.4,0.8,1,1.5,1.4,2.3c0.4,1.1,0.7,2.5,1.4,3.6c0.3,0.7,0.8,1.2,1.2,1.8c-0.8,0.7-1.8,1.2-2.9,1.5
				c-0.8-1-1.6-1.9-2-3.1c-0.4-1.1,0.1-2.3-0.4-3.4c-0.1-0.4-0.7-0.7-1.2-0.7c-0.4,0-0.7,0.1-1,0.4c-0.5,0.5-0.4,1.4-0.3,2
				c0.3,0.8,0.4,1.5,0.7,2.2c0.3,1.1,0.7,1.9,1.4,2.7L223.2,173.9L223.2,173.9z M226.7,148.3l1.4-0.3c2.9,0,5.3,2,6.1,4.8
				c-1.8-0.4-3.6-1-5.5-1.1c-0.7,0-1.4-0.1-1.6-0.7C226.7,150.2,227,149.3,226.7,148.3z"/>
			<path class="st0" d="M240,167.2v-15.3c0-1.1,0.5-2.2,1.4-2.9c0.3,2-0.1,3.8-0.4,5.5c-0.3,1.5,0.3,3,0.5,4.5
				c0.7,2.5,0.8,5.1,1.5,7.5c0.7,2.9,2,5.6,2.6,8.6c0.8,3.8,1.8,7.6,3.3,11.2c0.7,1.8,1.8,3.4,2.6,5.2c1.4,2.7,2.3,5.6,3.4,8.5
				c0.5,1.4,1.2,2.9,2.2,3.8c1.4,1.4,3,2.2,4.6,3.1c0.7,0.4,6.1,3.1,6.6,3.1c1,0,1.6-1.1,1.2-1.9c-0.4-0.8-1.4-1-2-1.1
				c-1.4-0.3-7.4-3.6-8.5-4.5c-1.1-1.1-1.6-2.7-2.2-4.2c-1.2-3.4-2.5-6.7-4.2-10c-1.6-3-3-6.3-3.8-9.7c-0.5-2.3-0.8-4.6-1.5-7
				c-0.7-1.9-1.5-3.7-1.9-5.6c-0.5-1.8-0.8-3.6-1-5.5c-0.3-2.2-1.2-4.2-1-6.4c0.3-2,0.3-4.1,0.5-6.1h3.3c-0.3,2.2-0.5,4.4-0.3,6.6
				c0.3,1.9,0.5,3.8,0.5,5.9c0,2.3,0.4,4.6,1.4,6.8c0.5,1.6,1.5,3.1,1.9,4.8c0.4,1.4,0.4,2.9,0.5,4.2c0.4,3.1,1.9,6.1,3.3,9
				c1.1,2.2,2.2,4.4,3.1,6.7c0.8,1.9,1.4,4,2.2,5.9c0.5,1,0.5,2,1.1,3c0.3,0.5,0.7,0.7,1.2,0.7c0.4,0,1-0.3,1.1-0.7
				c0.5-1.2-0.7-2.2-1.1-3.3c-0.7-2-1.4-4.1-2.2-6c-1.6-4.2-4-8.2-5.6-12.4c-0.5-1.2-1-2.6-1-4c0-1.6,0-3.6-0.8-5.1
				c-1-2.2-2.2-4.4-2.7-6.8c-0.4-2.2,0.1-4.5-0.1-6.7c-0.3-1.4-0.5-2.7-0.5-4.1c0-1.6,0.1-3,0.5-4.5h3.3c-0.4,2.2-0.5,4.2-0.4,6.6
				c0.3,1.9,1.9,3,3.3,4.2c1.6,1.5,2.6,3.7,3.7,5.5c1.5,2.7,4.1,4.5,6,6.8c3.8,4.1,10.1,21,10.8,27.4c0,2,0.1,4.1,0.3,6.3
				c0,0.4,0,0.8,0.1,1.2h-1.2c-0.7,0-1.4,0.1-1.9,0.4c-0.3-2.2-0.3-4.6-0.3-6.8c-0.3-3.4-1.2-6.7-2.5-9.8c-1.2-4.1-6-15.7-9.1-18.4
				c-1.2-1.2-2.7-2-3.8-3.4c-1-1.2-1.5-2.7-2.2-4.1c-0.5-0.7-0.7-1.6-1-2.5c-0.1-0.7-0.8-1.5-1.5-1.5c-0.8,0-1.5,1-1.4,1.8
				c0.1,0.3,0.3,0.5,0.4,0.8c1.6,2.2,2,5.1,3.8,7.2c1,1.2,2.6,1.8,3.7,2.9c4,3.6,10.9,20.9,11.2,27.4c0.3,1.8,0.1,3.4,0.1,5.2
				c0,1,0.5,1.9,0.4,3c0.1,0.3,0,0.7,0,1.1v1c0,1.5,0.8,2.7,2,3.4c-6.4-0.4-10.4-2.5-15.8-5.6c-1.4-0.7-2.9-1.4-3.8-2.9
				c-1-1.5-1.6-3.4-2.3-5.1c-1-2.2-1.6-4.6-2.7-6.8c-1-2.2-2.7-4-3.4-6.4c-1-3.4-1.9-6.8-2.9-10.2C242,173.5,240.8,170.3,240,167.2z
				 M241.3,203.6c-0.4-1-0.8-1.8-1.4-2.6v-8.3c0.3-1,0.5-1.9,0.5-2.9s-0.3-1.8-0.5-2.6v-11.6c0.8,3,1.6,6,2.5,8.9
				c0.4,1.6,0.8,3.1,1.4,4.8c0.5,1.5,1.8,2.7,2.6,4.1c0.8,1.4,1.2,3,1.9,4.5c0.7,1.8,3.3,8.6,4.6,9.8c1,1.1,2.3,1.5,3.6,2.3
				c2,1.1,4.1,2.5,6.3,3.4c3.7,1.6,10.1,2.7,14.1,2.9c1.6,0,3.3-0.1,4.8-0.5c1.1-0.4,2.2-1,3.3-1.5h5.3c-1.5,1.1-2.9,2-4.5,3
				c-2.5,1.6-5.6,2.2-8.5,2.2c-0.5,0-1-0.1-1.5-0.1c-7.5-0.5-13.4-2-19.7-6c-0.8-0.4-1.2-1.2-2-1.8c-0.3-0.1-0.5-0.1-0.8-0.1
				s-0.7,0.1-1,0.4c-0.4,0.3-0.3,1-0.3,1.5c0.4,0.5,1,1,1.6,1.2c2,1.1,4,2.3,6,3.4c1.9,1.2,4.2,1.6,6.4,2.2c3.1,0.5,6.3,1.2,9.4,1.5
				c0.5,0.1,1.2,0.1,1.8,0.1c1.4,0,2.7-0.1,4.1-0.3c3.6-0.5,6-2.5,8.9-4.4c1.4-1,2.6-1.9,4-2.9h4.9c-3,3-6.8,4.6-9.8,7.2
				c-3.4,3-7.1,3.3-11.5,3.3c-1.1,0-2.2,0-3.3-0.1c-4.1-0.4-8.1-1.4-12-2.2c-1.9-0.5-4.1-0.8-5.6-2.2c-0.5-0.5-0.8-1.4-1.4-1.9
				c-0.3-0.3-0.7-0.4-1.1-0.4c-0.1,0-0.4,0.1-0.7,0.1c-0.7,0.4-0.7,1.2-0.4,1.9s1,1.1,1.5,1.5c1.9,1.9,3,2.3,5.6,2.9
				c5.1,1.1,10,2.2,15.2,2.7c1,0,1.9,0,2.9,0c0.8,0,1.6,0,2.5,0c1.8-0.3,3.7-0.5,5.5-1.1c1-0.3,2-0.5,2.9-1.4
				c1.2-1.1,2.5-2.3,3.8-3.1c1.2-0.8,2.5-1.5,3.7-2.5c1.8-1.2,3.7-2.5,4.9-4.2l2.9-0.5c0.4,0,0.8,0,1.1,0.1
				c-0.5,1.5-1.1,2.7-1.9,3.7c-1.1,1-2.5,1.5-3.6,2.3c-1.8,1.1-3,2.6-4.9,3.4c-1,0.5-2.3,0.3-3,1.4c-0.5,0.8,0.3,2,1.4,1.9
				c1.1-0.3,1.9-1,3-1.2c1.6-0.7,2.7-2.2,4.1-3.3c1.2-0.8,2.6-1.4,3.8-2c1.4-0.8,2-2,2.6-3.4c0.1-0.5,0.4-1,0.5-1.4
				c0.5,0.7,0.8,1.5,0.8,2.3v4.5c-0.3,0.3-0.4,0.4-0.8,0.5c-1.1,0.5-2.3,0.8-3.4,1.1c-1,0.3-1.9,0.1-2.7,0.7s-0.7,2,0.3,2.3
				c0.1,0,0.3,0.1,0.5,0.1c0.5,0,1-0.3,1.5-0.5c1.5-0.7,3.1-0.8,4.6-1.2v3.1c-1.1,0.4-2.2,0.7-3.4,1c-0.4,0-1,0-1.5,0
				c-0.4,0-1,0-1.5,0c-1.4-0.3-2.6-0.7-4-0.7c-0.1,0-0.4,0-0.5,0c-1.1,0.1-2.2,0.4-3.4,0.4c-1.6-0.1-3.4-0.7-5.1-0.7
				c-0.4,0-0.8,0-1.2,0.1c-2.7,0.5-5.5,1.5-8.2,1.5c-0.1,0-0.3,0-0.5-0.1c-0.3,0.1-0.5,0.1-0.8,0.1c-2.5,0-4.9-0.4-7.4-0.8
				c-4.8-0.8-9.6-1.9-14.3-2.9c-1.4-0.3-3.1-0.5-4-2c-1.1-1.8-2.5-8.6-2.7-11.1c-0.1-1.5-0.1-3-0.4-4.5c-0.3-1.8-2.9-7.1-3.7-8.7
				c-0.5-1.2-1.1-2.3-1.5-3.6c-0.1-0.8,0.1-1.6-0.3-2.5c-0.3-0.5-0.8-1-1.4-1c-0.3,0-0.5,0.1-0.7,0.3c-0.8,0.4-0.5,1.4-0.4,2
				c0.5,1.6,1,3.4,1.8,4.9c1.1,2.2,2.2,4.5,3.1,6.8c0.7,1.6,0.8,3.3,1,4.9c0.3,3.6,1.8,11.3,3.4,14.2c0.5,1.1,1.8,1.6,2.9,1.9
				c1.5,0.4,3.1,0.7,4.6,1c3.8,0.8,7.8,1.6,11.6,2.3c2.3,0.5,4.5,0.7,6.8,1c0.4,0,0.8,0,1.1,0c0.5,0,1.1,0,1.6,0c0.3,0,0.4,0,0.7,0
				c3,0,5.9-1.2,8.9-1.5c1.2,0,2.5,0.3,3.8,0.4c0.5,0,1,0,1.5,0c1.1,0,2.2,0,3.1-0.1c2.2,0,4.2,0.4,6.3,0.5c1.6,0,3.1-0.3,4.6-0.8
				v3.6c-1.1,0-2,0-3.1,0.1c-0.4,0.1-0.8,0.1-1.2,0.1c-1.4,0-2.7-0.3-4.1-0.3c-0.1,0-0.1,0-0.3,0c-1.5-0.1-3-0.1-4.5-0.1
				c-1.1,0-2.2,0-3.4,0c-0.4,0-0.8,0-1.2,0c-2.7,0-5.2,0.5-7.8,1.1c-0.8,0.1-1.8,0.4-2.7,0.4c-0.3,0-0.4,0-0.7,0
				c-2.2-0.4-4.4-0.7-6.7-0.7c-1.9-0.1-3.8-0.8-5.7-1.2c-5.1-1-10.1-1.8-15-2.7c-1.1-0.3-2.3,0-3.3-0.7c-0.7-1-0.5-2.3-1.1-3.4
				c-1.8-5.2-2.7-10.7-3.4-16C243.8,208.7,242.7,206.1,241.3,203.6z M243.6,234.2c-1.1,1-2.2,1.9-3.4,2.7c-0.1-0.4-0.3-0.8-0.3-1.4
				V233c1-0.8,1.8-1.5,2-2.6c0.3-1.5-0.1-2.9-0.5-4.4c-0.5-2-0.8-4.1-1.4-6.3l-0.1-13.9c0.1,0.4,0.4,0.8,0.5,1.2
				c1.1,2.5,1.4,5.1,1.6,7.6c0.5,3.3,1.4,6.4,2.2,9.7c0.5,1.8,0.8,3.7,1.6,5.5c0.3,0.5,0.5,1.4,0.1,2
				C245.4,232.9,244.5,233.4,243.6,234.2z M304.5,239.5h-38.6c-4.9-1.2-9.3-1.6-13.5-2.3c-1.9,0-3.3,0-4.9,1.2
				c-0.4,0.4-0.8,0.7-1.4,1.1h-2.2c-0.8,0-1.6-0.3-2.2-0.7c1.4-1,2.7-2,4.1-3.1c0.8-0.7,1.2-1.8,2.2-2.3c0.3,0,0.4-0.1,0.7-0.1
				c0.5,0,1,0.3,1.5,0.3c1.2,0.4,2.5,0.5,3.7,0.7c4.5,0.7,11.9,1.8,16.1,3.1c1.1,0.4,2.2,0.5,3.4,0.5c0.4,0,0.8-0.1,1.2-0.1
				c0.1,0,0.3,0,0.4,0c1.6,0,3.3,0.8,5.1,0.7c1.2,0.1,2.5-0.3,3.7-0.5c1.9-0.4,3.8-0.8,5.7-1c0.4,0,1,0,1.4,0c1.4,0,2.6,0,4,0
				c1.1,0,2.3,0,3.4,0c1.8,0.3,3.4,0.1,5.2,0.4c0.3,0,0.5,0,0.7,0c1.2,0,2.5-0.1,3.6-0.1c0.1,0,0.3,0,0.5,0
				C307.5,238.6,306.2,239.5,304.5,239.5z M255.7,155c-1-1.4-0.8-3.1-0.5-4.6c0.1-0.8,0.3-1.6,0.4-2.3h3.3c-0.1,0.5-0.3,1.1-0.3,1.8
				c-0.1,0.7-0.1,1.2,0,1.9c0.1,1.4,0.7,2.6,1.5,3.6c1.4,1.6,2.6,3.4,3.7,5.2c1.6,2.6,4,4.8,6.1,7c1.6,1.8,2.7,4.1,3.8,6.4
				c-1.2,0.5-1.9,1.8-2,3.1c-1.2-2.9-2.6-5.7-4.6-7.9c-1.6-1.9-3.6-3.4-4.9-5.5c-1.4-1.8-2.2-4-3.8-5.6
				C257.4,156.9,256.3,156.1,255.7,155z M268.4,201.7c-0.5-1.6-0.3-3.4-0.8-5.1c-1.6-6.3-4.5-12.2-7.4-17.9
				c-0.7-1.2-1.2-2.5-1.6-3.8c-0.1-0.7-0.8-1.2-1.5-1.2c-0.3,0-0.4,0-0.7,0.1c-0.7,0.3-0.7,1.2-0.4,1.9c0.4,0.8,1.1,1.5,1.5,2.3
				c2,4.9,4.6,9.6,6.3,14.5c1,2.7,2,5.3,2.2,8.2c0,1-0.5,2.2,0.1,3.1c0.1,0.4,0.7,0.7,1.1,0.7s0.8-0.1,1.1-0.5
				C268.8,203.4,268.5,202.5,268.4,201.7z M279.3,173.3H276c-1.1-2.5-2.2-4.9-4-6.8c-1.9-2.3-4.2-4.2-5.9-6.7c-1.5-2-3-4.1-4.4-6.3
				c-1-1.4-1-3.1-0.7-4.8l3.4-0.7c-0.1,0.8-0.1,1.8,0,2.6c0.3,1.6,1.2,3,2,4.4c1.1,1.5,2,2.9,3.3,4.2c1.6,2.3,3.8,4,5.6,6.1
				c1.2,1.4,1.9,3.1,2.6,4.8C278.5,171.3,278.9,172.2,279.3,173.3z M267,148.1h3.3c0,4.1,5.2,9.8,8.2,12.3c1.2,1,2.5,1.9,3.3,3.4
				c0.7,1.5,1,3.3,1.5,4.9c0.4,1.6,1.2,3.1,2.2,4.6h-3.6c-0.3-0.5-0.5-1.1-0.8-1.8c-0.8-1.8-1.2-3.7-2.2-5.5c-0.8-1.6-2.2-3-3.4-4.2
				c-2.3-2-7.2-7.8-8.3-10.8C266.9,150.1,266.9,149,267,148.1z M308.5,169.4c0,1.4-0.7,2.6-1.8,3.3c-0.1-2.7,0-5.6-0.1-8.3
				c-0.3-3.4,0-6.7,0-10.1c0-1.1,0.8-2,0.7-3.1c0-0.8-0.7-1.4-1.4-1.4c-0.3,0-0.5,0.1-0.7,0.3c-0.8,0.5-0.8,1.6-0.8,2.5
				c0,1.1-0.1,2.2-0.1,3.3c0,5.9,0,11.7,0.3,17.6h-3.3c0-3.4,0.1-6.7-0.1-10.1c-0.1-1.8,0.3-3.6,0.1-5.3c-0.1-1.1,0.1-2.2,0.4-3.1
				c0.3-1-0.5-2-1.5-2c-0.1,0-0.3,0-0.3,0c-1,0.3-1.2,1.4-1.1,2c0.4,2.6,0.1,5.1,0,7.6c0,3,0.5,6,0.3,9.1c-0.1,0.5-0.1,1.1-0.1,1.8
				h-3.3c0.1-0.7,0.1-1.4,0.3-1.9c0.3-1.5,0.3-3,0.1-4.5c-0.3-2.2-0.8-4.4-0.5-6.7c0.3-1,1.2-1.8,1.1-3c-0.1-0.5-0.8-1.1-1.4-1.1
				c-0.3,0-0.4,0.1-0.7,0.1c-0.5,0.4-0.8,1.2-1,1.9c-0.1,1-0.5,1.9-0.5,2.9c-0.1,2.7,1,5.3,1,7.9c0,1.5-0.5,2.9-0.7,4.4h-5.2
				c-0.5-0.7-1.1-1.2-1.4-1.9c-1.6-2.7-1.8-6.1-3-9c-0.8-1.6-2.5-2.7-3.8-4c-2.2-1.9-4.1-4-5.7-6.4c-0.8-1.1-1.4-2.5-1.5-4h3.6
				c0.8,3.3,6,9.1,9.3,10.4c0.8,0.3,1.5,1,1.5,1.9c0.1,3.4,1.8,6.6,1.8,10c0.1,0.7,0.8,1.2,1.5,1.2c0.7-0.1,1.4-0.7,1.2-1.5
				c-0.1-1-0.7-1.8-0.8-2.7c-0.5-2.3-0.8-4.8-1.4-7.1c-0.1-0.5-0.1-1.1,0-1.6c0.3-0.5,0.7-0.8,1.1-1.2c1-0.7,1.5-1.9,2.5-2.6
				c2.9-2.6,6.6-3.8,9.7-5.9c0.5-0.3,1.1-0.5,1.8-0.8h0.1c2.2,0,4,1.8,4,3.8v17.3L308.5,169.4L308.5,169.4z M282,206.1h-3
				c0-0.8,0-1.6-0.1-2.3c-0.3-2,0.1-4.1-0.3-6.1c-0.3-3-1.4-5.9-2.2-8.9c-1-2.9-2-5.7-3.3-8.5c0.7,0.5,1.5,0.8,2.5,0.8h1.4
				c0.3,0.7,0.5,1.2,0.8,1.9c1,3,1.8,6,2.7,8.9c1.1,3,1.8,6.1,1.4,9.3C281.6,202.8,282,204.4,282,206.1z M282.4,148.1
				c0.7,1.4,1.9,2.3,3,3.3c0.7,0.7,1.2,1.4,2.2,1.6c0.1,0,0.4,0,0.7,0s0.7-0.1,1-0.4c0.4-0.3,0.3-1,0.1-1.5
				c-0.7-1.2-2.2-1.1-3.1-1.9c-0.4-0.4-0.7-0.7-1-1.1h5.3c0.4,0.1,0.8,0.1,1.1,0.1c0.4,0,0.8,0,1.2-0.1h6.6c-0.5,0.3-1.1,0.7-1.6,1
				c-1.9,1.1-4.1,1.6-5.6,3.3c-1.2,1.2-2.3,2.5-3.4,3.8c-0.4,0.4-1,0.7-1.4,0.7c-2.2,0-8.1-6.6-8.7-8.6L282.4,148.1z M293.1,200.5
				c-0.1,1.9-0.5,4-1.6,5.6h-7.1c-0.1-0.4-0.3-0.8-0.1-1.2c0-1.8-0.1-3.7,0.1-5.5c0.1-3.6-1.2-6.8-2.2-10.1
				c-0.8-2.5-1.4-4.8-2.2-7.1c-0.1-0.4-0.3-0.7-0.4-1.1h3.4c1,3,1.5,5.9,2.5,8.6c0.8,2,1.6,4.1,1.9,6.3c0.4,2,0.3,4,0,6
				c-0.3,0.8-0.7,1.5-0.8,2.5c-0.1,0.5,0.3,1.1,0.7,1.4c0.1,0.1,0.4,0.1,0.5,0.1c0.7,0,1.2-0.4,1.5-1c0.1-1.1,0.1-2.2,0.4-3.3
				c0.4-1.8,0.4-3.7,0.1-5.6c-0.3-3.3-1.9-6.1-2.9-9.1c-0.5-1.9-1-4-1.5-5.9h3.3c0.5,2.7,1,5.5,2.2,7.9c0.7,1.4,1.5,2.7,1.9,4.2
				C293.2,195.6,293.2,198,293.1,200.5z M298.9,199.3c0,2.3-0.5,4.5-1.4,6.7c-0.4,0-0.8,0.1-1.2,0.1H294c0.8-1.8,1.4-3.7,1.5-5.6
				c0-2.6,0-5.3-0.4-7.9c-0.4-1.8-1.6-3.1-2.3-4.8c-0.7-1.4-1-2.9-1.2-4.4c-0.1-0.8-0.3-1.5-0.4-2.3h3.1c0.1,1.1,0.4,2,0.5,3.1
				c0.1,1-0.1,1.8,0,2.7c0.3,0.5,0.7,1,1.4,1.1c0.4,0,0.8-0.3,1.2-0.7c0.4-1.2-0.4-2.3-0.4-3.6c-0.1-1-0.3-1.8-0.4-2.7
				c1.6,0.1,3,1.2,3.4,2.7c0.1,0.8,0.1,1.8-0.1,2.7c-0.4,2-1.6,4.1-1.5,6.3C298.5,194.9,298.8,197.1,298.9,199.3z"/>
			<path class="st0" d="M313.6,202.1c-0.1-3.7-0.3-7.4-0.3-11.1c0.1,0.7,0.1,1.2,0.1,1.8c0,1.4,0.5,2.7,0.4,4.1c0,0.8-0.1,2,0.7,2.6
				c0.1,0.1,0.5,0.3,0.8,0.3c0.4,0,0.8-0.1,1.1-0.5c0.5-0.8,0-2-0.3-2.9c-0.5-1.5-0.3-3.1-0.5-4.6c-0.1-1.9,0.1-4-0.1-6
				c-0.3-2.2-0.8-4.2-1.5-6.1c0.3-2.6,0.7-4.9,1.1-7c0.8,2.3,1.5,4.9,2.3,7.2c1,3,1.6,6.3,1.2,9.4c-0.3,1.6,0.3,3.4,0.1,5.1
				c0,0.8,0,1.5,0.1,2.3c0.1,0.4,0.4,0.8,1,1c0.1,0.1,0.3,0.1,0.4,0.1c0.7,0,1.4-0.7,1.4-1.5c0-1.1-0.7-2.2-0.7-3.4
				c0-1.8-0.1-3.6,0.1-5.3c0.3-3.6-1.1-7-2.2-10.2c-0.7-2.3-1.4-4.8-2.2-7.1c-0.1-0.5-0.4-1.2-0.7-1.8c0.4-1.6,0.8-3.1,1.4-4.4
				c1,1.6,1.9,3.4,2.5,5.5c0.8,2.7,1.5,5.6,2.5,8.3c0.7,2,1.5,4.1,1.9,6.3c0.3,1.9,0.1,4-0.1,5.9c-0.1,0.8-0.5,1.6-0.8,2.5
				c-0.1,0.5,0.3,1.1,0.7,1.5c0.3,0,0.4,0.1,0.7,0.1c0.5,0,1.2-0.4,1.4-1.1c0.1-1.1,0.1-2.2,0.4-3.1c0.4-1.9,0.4-3.8,0.1-5.7
				c-0.3-3.1-1.9-6-2.7-9.1c-0.8-2.3-1.2-4.8-1.9-7.1s-2.2-4.4-3.3-6.7c0.5-1.1,1.2-2.2,1.9-3.1c0.5,1.4,1.1,2.7,2,4
				c1,1.4,1.8,2.6,2.2,4.1c1.1,3.7,1.2,7.5,2.9,11.1c0.7,1.4,1.5,2.6,1.9,4.1c0.5,2.5,0.4,4.9,0.4,7.4c-0.3,1.9-0.5,4-1.8,5.6
				c-1.8,2.6-7.8,6.6-10.7,7.4C316.2,202.1,315.1,202.1,313.6,202.1z M335.7,148.3c0,0.7-0.1,1.4-0.1,2c0.1,3.1,0.7,6.1,0.3,9.1
				c-0.3,2.5,0,5.1,0.4,7.5c0.4,2.5,1,5.1,0.5,7.5c-0.4,2.2-1.8,4.1-1.6,6.3c0.1,2.2,0.4,4.4,0.5,6.4c0,9.4-6,13.7-13.1,18.2
				c-2.6,1.6-5.7,2-8.7,2c0-1-0.1-2-0.1-3c5.6,0,11.5-3.8,15.3-7.6c2.2-2.2,3.1-5.2,3.3-8.2c0-2.7,0.1-5.3-0.4-8.1
				c-0.3-1.8-1.6-3.1-2.3-4.6c-0.7-1.4-1-2.9-1.2-4.4c-0.3-1.8-0.7-3.7-1-5.5c-0.3-1.1-0.7-2.3-1.4-3.4c-0.8-1.1-1.8-2-2.5-3.3
				c-0.7-1.1-1.1-2.3-1.4-3.6c0.8-0.8,1.6-1.6,2.6-2.5c0.4,1.6,0.8,3.3,1,4.9c0,0.7,0.7,1.2,1.4,1.4c0.7-0.1,1.4-0.8,1.4-1.5
				c-0.3-1-0.7-1.8-1-2.7c-0.1-1.2-0.4-2.3-0.5-3.6c0.8-0.5,1.9-1.1,3-1.6c0.1,2.3,0.8,4.5,0.8,6.8s-1.2,4.5-0.8,6.8
				c0.7,2.7,1.2,5.6,1.6,8.3c0.1,1,0,1.9,0.1,2.7c0.1,0.7,0.7,1.1,1.2,1.2c0.5,0,1-0.4,1.2-0.8c0.4-1.1-0.4-2.3-0.4-3.6
				c-0.1-2.2-0.5-4.2-1.1-6.4c-0.4-1.9-0.3-4,0-6c0.3-1.5,0.3-3,0.3-4.5c-0.3-1.8-0.7-3.7-0.7-5.5
				C333.4,149,334.4,148.6,335.7,148.3z M338,147.8c1-0.3,2-0.4,3-0.5c0,5.3,0,10.7,0.3,16c0.3,1.5,0.4,2.9,0.7,4.4
				c0.3,1.8,0.3,3.7,0.1,5.6c-0.3,2.9-1.1,5.7-1.2,8.7c0,1.1,0.3,2,0.3,3c0.1,2.5,0.5,4.9-0.3,7.4c-1,2.7-3.3,8.3-5.2,10.2
				c-2.9,2.7-6.6,4.4-9.6,7.1c-3.1,2.7-7.6,3.3-11.6,3.3c-0.1-1.1-0.3-2-0.4-3.1c1.4,0,2.6-0.1,4-0.3c1.6-0.3,3.3-0.7,4.6-1.5
				c2.9-1.6,7.8-5.1,10.1-7.2c2.2-2.2,3.4-4.9,4.4-7.8c0.8-2.3,1.1-4.8,0.8-7.2c-0.3-2-0.5-4.1-0.3-6.1c0.3-1.8,1.1-3.6,1.2-5.3
				c0.7-4-0.5-7.8-0.8-11.6c-0.1-3.8,0.1-7.6-0.3-11.3C337.9,150.1,338,148.9,338,147.8z M325.8,216.9c-0.4,0-0.8,0-1.2,0.1
				c-2.7,0.5-5.3,1.4-8.2,1.4c-0.1,0-0.3,0-0.4,0c-0.5-1-0.8-2-1.1-3.1c2.7,0,8.9-0.5,11.1-2.5c1.2-1.1,2.5-2.3,3.8-3.3
				c2.6-1.5,7-4.2,8.7-6.6c1.1-1.8,1.9-3.7,2.7-5.6c1.2-2.7,2.7-5.5,2.6-8.6c-0.3-2-0.4-4.2-0.5-6.4c-0.1-3.8,1.4-7.6,1.2-11.6
				c0-3-1-5.9-1-9c-0.3-3.1-0.1-6.3-0.3-9.4c-0.1-1.8,0-3.6,0-5.5c1-0.1,2-0.1,3-0.3c0,1.8,0,3.6,0.1,5.3c0,2.3-0.1,4.8,0.1,7.1
				c0.1,1.4,0,2.7,0.3,4.1c0.3,2.6,1,5.2,0.8,7.9c-0.1,2.7-0.8,5.5-1.1,8.2c-1,3-1.4,7-1.4,12.4c0,1.6,0,3.1,0,4.5
				c-1,2.2-2,4.5-3,6.7c-0.4,1.2-0.8,2.5-1.8,3.4c-1.1,1-2.5,1.4-3.6,2.2c-1.6,1.1-3,2.7-4.8,3.6c-1.1,0.4-2.5,0.3-3.1,1.2
				c-0.5,1,0.3,2.2,1.4,2c1.1-0.3,2-1,3-1.4c1.8-0.5,2.7-2,4.1-3.1c1.2-1,2.6-1.4,4-2c1.2-0.8,2-2.2,2.5-3.6
				c0.5-1.4,1.1-2.7,1.6-4.1c0.3,2.7,0.5,4.8,1,6.3c0,0.4-0.3,0.8-0.3,1.4c-0.3,1-0.7,2.2-1.8,2.6c-1.1,0.5-2.2,0.7-3.4,1.1
				c-0.8,0.3-1.9,0.1-2.7,0.7c-0.8,0.5-0.7,1.9,0.3,2.3c0.1,0,0.4,0,0.5,0c0.5,0,1.1-0.3,1.5-0.4c1.9-1,4.2-0.8,6-1.9
				c0.8-0.5,1.2-1.5,1.5-2.5c0.7,1.1,1.5,2,2.6,2.5c0.7,1.6,1.8,2.3,2.6,3c5.2,4.1,8.2,6.1,14.6,6.8c3.8,0,10.1-2.2,13.1-4.8
				c0.3,0.4,0.4,1,0.4,1.5v2c-2.3,1.4-4.8,2.5-7.2,3.3c-1.9,0.4-3.7,1.1-5.6,1.1c-0.4,0-0.7,0-1.1,0c-1.6-0.3-3.4-0.4-5.2-0.7
				c-1.4-0.1-2.6-1-3.7-1.8c-2.2-1.4-4.4-2.6-6.3-4.2c-1-0.8-1.9-1.8-2.9-2.5c-0.5-0.4-1.2-0.4-1.8-0.4c-0.4,0-0.8,0-1.2,0
				c-1.5,0.5-3,1-4.5,1.2c-1,0-2,0-3,0c-1.4-0.1-2.7-0.5-4.1-0.5c-0.1,0-0.3,0-0.4,0c-1.2,0.1-2.3,0.3-3.4,0.3
				C329.3,217.4,327.6,216.9,325.8,216.9z M381.6,227.8c-2.5,1.1-4.9,2-7.5,2.6c-1.1,0.3-2.3,0.5-3.4,1.1c-1.2,0.5-2,1.8-2.6,2.9
				c-0.7,1.1-1.1,2.3-1,3.6c0.1,0.8,0.4,1.6,0.5,2.3c-1,0.1-1.8,0.3-2.7,0.4c-0.3-1.1-0.5-2-1.1-3c-0.5-1.2-1.6-2-2.5-3.1
				c-1-1.4-1.5-3.1-2.7-4.2c-1.2-1-2.6-1.6-4-2.6c-1.8-1.1-3.4-2.2-5.1-3.4c-1.8-1.1-2.5-1.4-4.6-1.4c-1,0-1.9,0-2.9,0.1
				c-0.4,0-0.7,0.1-1.1,0.1c-1.4,0-2.7-0.3-4.2-0.3c0,0-0.1,0-0.3,0c-1.5-0.1-3-0.3-4.5-0.3c-1.1,0-2.2,0.1-3.3,0.1
				c-0.5,0-1,0-1.4-0.1c-0.1,0-0.4,0-0.5,0c-2.5,0-4.8,0.7-7.1,1.1c-0.8,0.1-1.5,0.4-2.2,0.4c-0.1-0.5-0.4-1-0.5-1.5
				c-0.3-0.5-0.4-1.2-0.7-1.9c3.8,0.1,6.6-1.2,9.6-1.4c1.2,0,2.6,0.1,3.8,0.3c0.5,0,1.1,0.1,1.5,0.1c1.1,0,2.2-0.1,3.3-0.3
				c2,0.1,4.1,0.5,6.1,0.7c1.8-0.1,3.6-0.4,5.3-1c0.4-0.1,0.7-0.1,1.1-0.1c0.8,0,1.8,0.3,2.3,0.8c1.8,1.6,9.8,7.5,12.3,7.9
				c1.6,0.1,3.3,0.1,4.9,0.4c0.8,0.1,1.5,0.3,2.2,0.3c3.3,0,9.8-2.7,12.7-4.1L381.6,227.8z M359.4,241c-0.7-0.7-1.2-1.6-1.8-2.5
				c-1.4-2-2.9-4-4.9-5.5c-2.3-1.6-6-4.2-8.9-4.5c-0.8-0.1-1.5-0.1-2.3-0.1c-0.4,0-0.8,0-1.2,0c-0.5,0-1.2,0-1.8-0.1
				c-2.5-0.3-5.2-0.3-7.8-0.3c-1,0-1.9,0-3,0.1c-2,0-4.1,0.4-6.1,0.8c-0.4,0-1,0.1-1.4,0.3c-0.7-1-1.2-1.9-1.6-2.9
				c0.7-0.1,1.2-0.3,1.9-0.4c1.9-0.4,3.8-0.8,5.7-1c0.5,0,1.1,0,1.5,0c1.4,0,2.6,0,4,0c1.1,0,2.2,0,3.4,0c1.6,0.3,3.4,0.1,5.1,0.3
				c0.3,0,0.5,0,0.8,0c1.1,0,2.3-0.1,3.6-0.1c1,0,2,0.1,3,0.7c1.6,1,8.3,5.2,9.6,6.4c1.1,1.4,4.9,6.7,5.3,7.9
				C361.5,240.9,360.4,241,359.4,241z M352.7,241.3c-2-2.7-4.6-4.9-7.6-6.3c-2.7-1.2-5.7-1.1-8.5-1.4c-1.4,0-2.6,0-4,0s-2.7,0-4.1,0
				c-1.4,0.1-2.7,0.3-4.1,0.4c-1-0.8-1.9-1.8-2.7-2.7c3.3-0.7,6.4-1,9.7-1c1.4,0,2.9,0,4.2,0.1c0.1,0,0.4,0,0.5,0
				c10.1,0,14.1,2,20.3,10.7C355.3,241.2,354,241.3,352.7,241.3z M349.6,241.2c-1.9,0-3.8-0.1-5.5-0.3c-0.4-0.3-1-0.4-1.4-0.7
				c-2.2-0.8-4.5-1.1-6.8-1.2c-0.8,0-1.6,0-2.5,0c-1.8-0.5-3.3-1.2-4.8-2c-0.5-0.3-1-0.5-1.5-0.8c1.9-0.1,3.8-0.3,5.7-0.3
				c3.1,0.1,6.4,0.1,9.6,0.8C345.2,237.5,347.7,239.1,349.6,241.2z M351.7,146.3c0,0.4-0.1,0.8,0,1.1c0,1.6-0.1,3.1,0,4.8
				c0.3,2.3,0,4.8,0.3,7.1c0.1,1.1,0,2.2,0.1,3.3c0.4,2.2,1,4.4,1.4,6.7c0.1,1.2,0,2.5-0.3,3.6c-0.1,0.4-0.1,0.7-0.3,1.1
				c-1.4,0.3-2.5,0.8-3.4,1.4c0.4-1.8,0.7-3.6,0.5-5.3c0.1-1.2-0.1-2.6-0.4-3.8c-1.1-6.1-1.1-13.4-1.1-19.7
				C349.6,146.4,350.6,146.4,351.7,146.3z M354,146.3c3.6,0,7.5,0.3,11.9,0.8c1.4,1,2.7,2,4,3.1c1.6,1.8,2.7,4,3.3,6.3
				c0.8,3,1.5,6,2.5,8.9c0.8,2.6,1.6,5.2,2.3,7.8c-1,0.4-1.9,0.5-3,0.5c-1-3.4-2.3-6.6-3.1-10c-0.7-2.9-1.2-5.7-2.5-8.3
				c-1.8-4.2-5.1-5.7-9-7.2c-0.8-0.3-1.6-0.8-2.5-1c-1-0.1-2.2,1-1.5,1.9c0.4,0.8,1.4,1.1,2.2,1.1c3.7,0,7.6,3.7,9,6.8
				c1.1,2.7,1.5,5.6,2.3,8.5c0.5,2,1.4,4.1,2,6.3c0.1,0.5,0.3,1.1,0.5,1.8c-1.1-0.1-2.2-0.1-3.3-0.3c-0.8-2.3-1.9-4.5-2.5-7
				c-0.8-2.7-1.1-5.7-2.3-8.3c-0.7-1.6-1.9-2.9-3.4-3.7c-1.1-0.4-1.9-1.4-3-1.6c-0.1-0.1-0.1-0.1-0.3-0.1c-0.4,0-0.7,0.3-1,0.4
				c-0.5,0.3-0.5,1-0.4,1.5c0.3,0.8,1.2,1.1,2,1.2c1.8,0.4,3.3,1.6,4,3.3c1,2.3,1.2,4.8,1.8,7.2c0.5,2.3,1.6,4.6,2.5,7
				c-1.1,0-2.2,0-3.3-0.1c-0.7-1.2-1.5-2.5-1.8-4c-0.7-2.3-0.7-4.6-1.5-6.8c-0.4-1.1-0.3-2.5-1-3.4c-0.3-0.4-0.7-0.5-1.1-0.5
				c-0.3,0-0.5,0-0.7,0.1c-0.5,0.3-0.8,1-0.7,1.5c0.3,1,0.8,1.6,1.1,2.6c0.7,2.5,1,5.1,1.5,7.5c0.3,1.1,0.8,2,1.4,3
				c-2,0-3.7,0.1-5.1,0.3c0.3-0.8,0.5-1.8,0.4-2.7c-0.1-3-1.1-5.9-1.5-8.7c-0.4-1.6-0.3-3.3-0.3-5.1c0-1.4-0.1-2.6-0.1-4
				C354,150.6,354,148.5,354,146.3z M356.2,215.2c-0.4-0.4-1-0.7-1.4-1.1c1.5,0.3,3.1,0.4,5.2,0.4h0.5c0.5,0.3,1.1,0.7,1.6,1
				c2.3,1.2,4.1,1.8,6.8,1.8c2,0,6.3-1.1,7.1-3.3c1.4,0.1,2.6,0.7,3.6,1.6c-0.5,1.2-1.9,1.8-3,2.5c-3,1.5-5.7,2.3-9,2.3
				c-1.5,0-2.9-0.3-4.2-0.8C360.7,218.6,358.5,216.9,356.2,215.2z M364.8,233.8c1,0,1.8-0.8,1.6-1.6c0.1-1.1-0.8-1.9-1.9-1.9
				c-0.3,0-0.5,0.1-0.8,0.3c-0.8,0.3-0.8,1.4-0.7,2.2c0.3,0.4,0.7,0.8,1.2,1C364.4,233.8,364.5,233.8,364.8,233.8z M372.8,214
				c-1.2,0.7-2.6,1-3.8,1.1c-1.4,0-2.5-0.3-3.7-0.8L372.8,214z M381.6,230.4v2.7c0.1,1.2-0.4,2.6-1.1,3.6c-0.5-0.7-0.7-1.4-1.2-2
				c-0.3-0.3-0.7-0.5-1.2-0.5c-0.3,0-0.4,0-0.7,0.3c-0.5,0.3-0.5,1.1-0.4,1.8c0.3,0.7,0.8,1,1.4,1.5c0,1.1-1.8,1.4-2.7,1.4
				c-0.5-1-0.3-2.3-1.4-3c-0.1,0-0.4,0-0.7,0c-0.4,0-0.7,0-1,0.4c-0.3,0.3-0.4,0.8-0.3,1.2c0,0.4,0.3,0.8,0.5,1.4
				c-0.7,0.7-1.8,0.8-2.9,1c-0.7-2.5-0.5-4.4,0.7-5.5c1.2-1.4,3.1-1.5,4.6-2C377.5,231.9,379.5,231.3,381.6,230.4z M376.4,149.4
				c1.4,1.9,1.6,4.2,2.3,6.6c0.7,3,1.6,6,2.5,9l-0.1,3.3c0,1.2-0.4,2.3-1.1,3.3c-0.4-1-0.7-2-1-3c-1.2-4-2.3-7.9-3.4-11.9
				c-0.7-3-2.2-7-4.9-8.7c1.8,0.3,3.6,0.5,5.3,1L376.4,149.4z M381.6,154.9l-0.1,2.3c-0.5-2.2-1.1-4.5-1.8-6.8
				C380.9,151.5,381.6,153.1,381.6,154.9z"/>
			<path class="st0" d="M413.8,148.1c-0.4,6.6-1.1,8.9-2.9,15.2c-0.5,1.4-1,2.7-1.4,4c-0.7,1.5-1.1,3-1,4.6c0.3,1.6-0.1,3.4-0.4,5.1
				c-0.3,1.5,0.3,3,0.5,4.4c0.7,2.6,0.8,5.1,1.5,7.5c0.8,3,2,5.7,2.7,8.7c1.2,7,2.7,10.2,5.7,16.2c1.4,2.9,2.3,5.7,3.4,8.6
				c0.5,1.4,1.2,2.7,2.2,3.8c1.4,1.4,3.1,2.2,4.6,3.1c0.5,0.3,6.1,3,6.4,3v0.7c0,0.8-0.1,1.4-0.3,2c-2.7-0.5-12-4.8-13.8-7.4
				c-1-1.5-1.5-3.4-2.3-5.1c-1-2.3-1.6-4.6-2.7-6.8c-1-2.2-2.7-4-3.4-6.4c-1-3.4-1.9-6.8-2.7-10.2c-0.8-3.3-2-6.6-2.9-9.8
				c-0.5-2.3-1-4.6-1.5-6.8c-0.1-0.8-0.3-1.5-0.5-2.2c-0.4-0.8-1-1.6-1.8-2.2c-0.8-1.8-2-3-3.7-3.7c-2-2.9-10.7-7.8-14.9-8.1v-3.4
				c0.8,0,1.6,0.1,2.5,0.4c1.5,0.7,3.1,1.1,4.8,1.6c1.5,0.5,2.7,1.5,3.8,2.6c1.4,1.2,2.9,2.5,4.8,2.6c1.5-0.3,2.9-0.8,4.2-1.5
				c1.5-1.1,1.9-2.9,2.3-4.4c1-3.7,2.6-7.1,3.1-10.8c0.1-1.6,0.4-3.3,0.1-4.8L413.8,148.1z M384.8,154.1c0.1-1.4,0.7-2.6,1.5-3.7
				c0.7,0.5,1.4,1,2,1.4c2.2,1,4.5,2.5,7,2.5c0.4,0,0.7,0,1.1,0c0.4-0.1,0.7-0.1,1.1-0.1c0.3,0,0.5,0,0.8,0c0.5,0,1,0,1.5-0.1
				c1.1-0.4,1.4-2,0.3-2.6c-0.3,0-0.5-0.1-0.8-0.1c-1.1,0-2.2,0.8-3.4,0.7c-2.9,0.1-5.2-1.8-7.5-3c0.8-0.5,1.9-0.8,3-0.8h2.2
				c1,0.5,1.6,1.4,2.7,1.4c0.7,0,1.4-0.7,1.2-1.4h3.3c0.8,1.1,1.8,2,2,3.4c0.1,0.8,0.3,1.8,1.1,2.2c0.1,0,0.4,0,0.5,0
				c0.3,0,0.4,0,0.7-0.1c0.8-0.5,0.7-1.5,0.4-2c-0.1-0.4-0.3-0.7-0.4-1c-0.4-0.5-0.7-1.1-1-1.6c-0.1-0.3-0.3-0.5-0.5-0.8h4.1
				c0.1,0.4,0.3,0.8,0.4,1.2c0.5,2.5-0.3,4.8-0.8,7c-0.5,2.5-1.8,4.5-2.2,6.8c-0.4,2.6-1.4,4.5-4.2,4.5c-0.4,0-0.7,0-1.1-0.1
				c-1.8-0.4-2.9-2-4.1-3.1c-1.1-1.1-9.1-3.8-10.8-4l-0.1-3.7c1.4,0,2.5,0.7,3.7,1.2c2,0.8,4.1,1.6,6.3,2.2c0.3,0,0.4,0,0.7,0
				c1.8,0,3.3-1,4.9-1.2c1-0.3,2-0.1,3-0.3c0.4,0,0.8-0.4,1.1-0.7c0.5-0.7,0-2-0.8-2.2c-0.1,0-0.4,0-0.5,0c-1,0-1.9,0.8-2.9,1
				c-1.6,0.4-3.3,0.8-5.1,0.8c-1.2,0.1-2.5-0.4-3.7-1c-1.6-0.5-3.3-1.4-4.8-2C386.2,154.2,385.5,154.1,384.8,154.1z M395.4,173.9h-4
				c-3.1,0-5.7-2.2-6.4-5.1c3,0.5,5.1,1.4,7.6,3.1C393.4,172.6,394.4,173.2,395.4,173.9z M402.6,162.8c-0.1-1-1.1-1.6-1.9-1.6
				c-0.1,0-0.4,0-0.5,0.1c-1,0.1-1.6,1.2-1.4,2.2c0.3,0.7,1.1,1.1,1.9,1.1C401.6,164.6,402.5,163.8,402.6,162.8z M405.6,175.1
				c1.1-0.8,0.7-2.7-0.4-3.3c-0.5-0.1-0.7-0.3-1-0.3c-0.4,0-0.8,0.1-1.1,0.5c-0.5,0.5-0.5,1.4-0.3,2c0.4,1.1,1.2,1.2,2.3,1.2
				L405.6,175.1z M430.4,239.3c-2.3-0.8-4.9-2.2-7.1-3.6c-0.8-0.4-1.2-1.4-2-1.8c-0.3-0.1-0.5-0.1-0.7-0.1c-0.4,0-0.8,0.1-1,0.3
				c-0.5,0.4-0.4,1.1-0.3,1.6c0.3,0.5,0.8,1,1.5,1.2c1.5,0.8,3.1,1.6,4.6,2.6h-7.6c-0.1-1.2-0.5-2.3-0.7-3.6c-0.1-1.5-0.1-3-0.3-4.5
				c-0.3-1-0.7-1.8-1-2.6c-1-2-1.9-4.2-2.9-6.3c-0.5-1.1-1.1-2.2-1.4-3.4c-0.3-0.8,0-1.8-0.4-2.5c-0.1-0.5-0.8-1-1.4-1
				c-0.3,0-0.4,0.1-0.7,0.3c-0.7,0.4-0.5,1.4-0.4,2c0.5,1.6,1,3.3,1.8,4.9c1.1,2.2,2.2,4.5,3.1,6.8c0.7,1.5,0.8,3.1,1,4.8
				c0.1,1.6,0.4,3.3,0.8,4.9H412c-0.3-1.9-0.5-3.8-0.8-5.9c-0.5-3.4-3.1-9.4-5.5-12.3c-0.5-0.7-1-1.5-0.5-2.3c0.4-1,1-1.8,1.4-2.9
				c0.5-1.2,1.1-2.6,1-4c0-1.2-0.4-2.5-0.8-3.7c-0.5-2-1.1-4.1-1.6-6.1c-0.7-2.2-1.1-3.8-1.6-5.5v-12.8c0.4,2.2,1,4.4,1.5,6.4
				c0.3,1.4,0.7,2.7,1.1,4.1c1.4,4.1,2.3,8.2,3.4,12.3c0.5,1.6,0.8,3.1,1.4,4.6c0.5,1.6,1.9,2.9,2.7,4.2c0.7,1.4,1.2,3,1.8,4.5
				c0.8,2,3.1,8.3,4.6,9.8c1.6,1.9,10.2,6.3,13.7,7C433,238.2,431.8,239,430.4,239.3z M405.2,214.3c-0.4,1.2-1,2.5-1.4,3.6
				l-0.1-12.4c0.5,2,1.1,3.7,1.5,5.3v-0.1c0.1,0.7,0.3,1.5,0.1,2.2C405.3,213.3,405.3,213.9,405.2,214.3z M409.6,237.2
				c0.1,0.8,0.3,1.5,0.4,2.3c-1.4-0.1-2.6-0.5-3.6-1.2c-0.1-0.4-0.1-0.7-0.1-1.1c-0.1-0.8-0.3-1.6-0.3-2.6c-0.1-1.2-0.4-2.6-0.8-3.8
				c-0.4-1-1-1.9-1.5-2.7v-6c0.4,0.7,0.8,1.4,1.2,2c1.2,2,2.2,3.7,3,5.5C408.9,232,409.3,234.6,409.6,237.2z M422,148.1h3.6
				c-0.4,0.8-0.7,1.6-0.8,2.6c-0.8,3.1-0.7,6.3-1.5,9.4c-1.5,5.6-3.8,11.1-3.1,16.8c0.1,1.9,1.9,3.1,3.1,4.4
				c1.8,1.5,2.6,3.6,3.7,5.5c1.6,2.7,4.2,4.5,6.1,6.8c1,1.1,1.6,2.5,2.3,3.8v7.5c-1.4-3.6-3.6-8.6-6.3-11.1c-1.1-1.2-2.7-2-3.8-3.4
				c-1.4-1.8-2.5-4.4-3.1-6.6c-0.1-0.8-0.7-1.5-1.5-1.5s-1.5,1-1.2,1.6c0,0.4,0.1,0.7,0.4,1c1.5,2.2,2,5.1,3.7,7.1
				c1.1,1.4,2.6,1.9,3.7,3c1.4,1.2,2.3,2.9,3.1,4.4c1.8,3.8,3.6,7.6,5.1,11.5v11.7c-0.1-1.2-0.1-2.5-0.5-3.6c-0.4-2-1.4-4.1-2-6.3
				c-1.5-4-3.4-7.8-5.2-11.7c-0.7-1.1-1.4-2.5-1.8-3.8c-0.1-0.7-0.8-1.1-1.5-1.1c-0.1,0-0.4,0-0.5,0.1c-0.8,0.3-0.8,1.2-0.5,1.9
				c0.4,0.8,1.1,1.5,1.5,2.3c2.2,4.9,4.6,9.6,6.4,14.5c1,2.6,2,5.3,2,8.2c0.1,1-0.5,2,0.1,3c0.3,0.5,0.7,0.7,1.1,0.7s0.7,0,1-0.3v3
				c-2.2-0.5-3.6-1.5-4.9-2.2c-1.4-0.8-3-1.4-4.1-2.5c-1.2-1.2-1.8-2.7-2.3-4.2c-1.2-3.4-2.5-6.8-4.2-10c-1.6-3-2.9-6.3-3.7-9.7
				c-0.5-2.3-0.8-4.6-1.6-7c-1.4-4-2.2-6.8-2.9-11.1c-0.3-2.2-1.1-4.2-0.8-6.4s0.1-4.4,0.4-6.6c0.3-1.5,0.8-2.9,1.4-4.4
				c1.5-4.6,3.1-9.4,3.3-14.3c0.3-1.1,0.3-2.2,0.3-3.3h3.3c-0.4,2.5-0.4,4.9-1,7.4c-0.5,4.5-2.3,8.7-3.4,13.2
				c-0.8,2.6-1.1,5.5-0.8,8.3c0.3,1.9,0.5,3.8,0.5,5.7c0,2.5,0.5,4.8,1.4,6.8c0.7,1.6,1.6,3.3,1.9,4.9c0.4,1.4,0.4,2.7,0.5,4.2
				c0.5,3.1,1.9,6,3.3,9c1.1,2.2,2.2,4.4,3.1,6.7c0.8,1.9,1.4,4,2.3,5.9c0.4,1,0.4,2,1,3c0.3,0.4,0.7,0.7,1.2,0.7
				c0.4,0,1-0.3,1.1-0.7c0.7-1.2-0.7-2.3-1.1-3.4c-0.7-1.9-1.4-4-2.2-5.9c-1.6-4.2-3.8-8.2-5.6-12.4c-0.5-1.2-1-2.6-1-4
				c0-1.8,0-3.6-0.7-5.1c-1.1-2.3-2.3-4.4-2.9-6.8c-0.4-2.2,0.1-4.5-0.1-6.7c-0.3-1.4-0.5-2.7-0.5-4.2c0.1-5.2,2.2-10,3.4-14.9
				c0.8-3.1,1.1-6.3,1.5-9.6C421.6,149.6,421.7,148.9,422,148.1z M424.7,163.5c0.4-1.5,1-3.1,1.1-4.8c0.5-2.6,0.5-5.3,1.2-7.8
				c0.3-1,0.7-1.9,1.1-2.9h3.7c-0.7,1.4-1.5,2.9-1.9,4.4c-0.8,2.5-0.4,5.1-1,7.5c-0.3,1.5-0.8,2.9-1.2,4.2c-0.8,2.6-1.5,5.3-1.9,8.1
				c-0.1,0.5-0.1,1.2,0,1.9c0.1,1.4,0.8,2.6,1.6,3.6c1.2,1.6,2.5,3.4,3.6,5.2c1.2,1.9,2.7,3.6,4.4,5.2v4.8c-0.4-0.5-0.7-1-1.1-1.5
				c-1.6-1.8-3.6-3.3-4.9-5.3c-1.4-1.8-2.2-4-3.8-5.7c-0.8-1-1.9-1.8-2.6-2.9c-0.8-1.4-0.7-3.1-0.5-4.8
				C422.8,169.5,423.8,166.5,424.7,163.5z M437.8,148.1c-0.5,1.9-1.4,3.7-2.5,5.3c-0.7,1-1.9,1.9-1.5,3.1c0.3,0.5,0.8,0.8,1.2,0.8
				c0.3,0,0.4-0.1,0.5-0.1c0.8-0.4,1.1-1.4,1.4-2.2c0.7-1.2,1.6-2.2,2.2-3.6c0.4-1.1,0.7-2.3,1.1-3.4h2.5c-0.3,1.6,0.8,2.5,1,3.7
				c0,0.7-0.7,1.1-1.1,1.5c-1.9,1.4-2.9,3.6-4.5,4.9c-1.2,1.1-2.6,1.8-3.4,3.1c-1.1,1.5-1.5,3.3-2,5.1c-0.4,2.2-1.2,4.5-0.8,6.7
				c0.3,1.6,1.2,3,2.2,4.4c0.4,0.7,1,1.4,1.5,2l-0.1,5.1c-0.7-0.7-1.4-1.5-1.9-2.3c-1.4-2.2-2.9-4.2-4.4-6.3c-1-1.4-1-3.1-0.7-4.8
				c0.5-2.7,1.1-5.5,2-8.1c0.4-1.2,1-2.3,1.1-3.7c0.1-1.5-0.3-3.1,0.1-4.8c0.3-1.6,1.1-3.3,1.9-4.8c0.3-0.5,0.5-1.1,0.8-1.8h3.4
				L437.8,148.1L437.8,148.1z M444.6,154.3c0.3-0.4,0.8-0.5,1.4-0.5c0.3,0,0.4,0,0.7,0.1c2.2,0.5,4.2,1,6.4,1.2v3.8
				c-1.1-0.5-2.2-1.2-3.4-1.4c-0.5-0.1-1.1-0.1-1.6-0.1c-0.7,0-1.5,0.1-2.2,0.4c-1.2,0.8-2.2,1.9-3.3,3c-1,1.1-2,2-3,3.3
				c-1.4,1.6-1.9,3.8-2,6c0,1.6,0.5,3,1.4,4.4c-1,0.5-1.9,1.4-2.5,2.2c-0.8-1-1.5-2-1.9-3.3c-0.7-1.9-0.3-3.8,0.1-5.6
				c1-3.8,1.4-4.9,4.4-7.5C441.1,158.4,442.9,156.4,444.6,154.3z M441.8,173.9c-1.2-1.1-1.8-2.5-1.9-4c0.1-1.6,0.7-3.4,1.8-4.6
				c1-1.1,2.2-2,3-3.1c0.8-1,1.6-1.9,2.7-2.2c0.4-0.1,0.7-0.1,1.1-0.1c1.1,0,2.2,0.4,3.3,0.8c0.5,0.3,1.1,0.7,1.2,1.4
				c0,0.8,0,1.5,0.1,2.2v3.3c0,1-0.3,1.9-0.7,2.9c-0.8-1.2-1.4-2.6-1.9-4c-0.4-0.8-0.4-1.9-0.8-2.9c-0.3-0.5-0.8-1-1.4-1
				c-0.3,0-0.5,0-0.7,0.1c-0.7,0.3-0.8,1.2-0.7,1.9c0.4,0.8,1,1.5,1.4,2.3c0.4,1.1,0.7,2.5,1.4,3.6c0.3,0.7,0.8,1.2,1.2,1.8
				c-0.8,0.7-1.8,1.2-2.9,1.5c-0.8-1-1.6-1.9-2-3.1c-0.4-1.1,0.1-2.3-0.4-3.4c-0.1-0.4-0.7-0.7-1.2-0.7c-0.4,0-0.7,0.1-1,0.4
				c-0.5,0.5-0.4,1.4-0.3,2c0.3,0.8,0.4,1.5,0.7,2.2c0.3,1.1,0.7,1.9,1.4,2.7L441.8,173.9L441.8,173.9z M445.3,148.3l1.4-0.3
				c2.9,0,5.3,2,6.1,4.8c-1.8-0.4-3.6-1-5.5-1.1c-0.7,0-1.4-0.1-1.6-0.7C445.3,150.2,445.6,149.3,445.3,148.3z"/>
			<path class="st0" d="M485.1,177c-1.1,1.9-2.7,3.6-3,5.9c0,1.5,0.4,3,0.7,4.5c0.3,1.8,0.5,3.4,0.7,5.1c0.3,1.9,0.1,3.7,0.1,5.6
				c0,2.5-1.8,4.5-1.5,7.1c0.1,2.9,1.1,5.7,1.5,8.7c0.4,1.6,0.1,3.3,0.3,4.9c0,1.4,0.1,2.7,0.1,4.1c0,2.9,0,5.9,0,8.7
				c0,3.3-1.8,4.8-4.9,4.8c-1.2,0-2.5-0.3-3.6-0.4c-3.8-0.8-7.2-3-10.2-5.6c-1.2-1.2-2.7-2.6-3.7-4.1c-1.4-1.9-1.8-4.4-2.3-6.6
				c-0.1-1-0.4-1.8-0.7-2.6v-11.3c0.1,0.4,0.3,0.8,0.4,1.4c1.2,4,2.3,7.9,3.3,11.9c1.5,5.1,3,7.8,7.4,10.7c3,2,6.8,3.7,10.5,3.7
				c0.8,0,1.5-1,1.2-1.6c-0.1-0.4-0.5-1-1-1c-0.3-0.1-0.4-0.1-0.7-0.1c-0.5,0-1.1,0.1-1.6,0.1c-0.1,0-0.4,0-0.5,0
				c-5.7-1.1-11.3-5.9-12.7-11.6c-0.8-3-1.5-6-2.5-9c-1.2-3.8-2.5-7.8-3.3-11.7c-0.3-1.2,0.3-2.6-0.5-3.6v-3.3c1.1,0.4,2,1.1,2.6,2
				c1,1.5,1,3.4,1.2,5.1c0.7,4.6,2.7,8.7,3.8,13.2c0.7,2.7,1.2,5.6,2.5,8.3c1.1,2.6,3.3,4.5,5.7,6c1.1,0.5,2.2,0.8,3.3,1.2
				c0.8,0.1,1.6,0.7,2.5,0.8c1,0.1,2.2-1,1.5-1.9c-0.4-0.8-1.4-1-2.2-1c-1.5,0-2.9-0.7-4.1-1.5c-2.2-1.2-4-3-4.9-5.3
				c-1.1-2.7-1.5-5.7-2.3-8.5c-0.5-2.2-1.4-4.2-2-6.3c-0.7-2.3-1.2-4.6-1.6-7c-0.3-1.9-0.5-4.1-2-5.6c-1.1-1-2.5-1.8-3.8-2.2v-3.4
				c1.4,0.8,3,1.2,4.4,2c1.5,0.7,3,1.9,3.6,3.6c0.8,2.9,1,6,1.8,8.9c0.7,3.1,2.2,6,3,9c0.8,2.9,1.1,5.7,2.3,8.5
				c0.8,1.8,4.5,4.8,6.4,5.3c0.5,0,0.8,0,1.2-0.3c0.5-0.4,0.5-1.1,0.4-1.5c-0.3-0.8-1.2-1.1-2-1.4c-1.8-0.3-3.3-1.6-4-3.3
				c-1-2.2-1.2-4.8-1.8-7.1c-0.5-2.5-1.6-4.6-2.5-7c-1.2-3-1.6-6.1-2-9.3c-0.4-1.9-0.8-4-2.2-5.5c-2.5-2.5-6.1-2.7-8.6-5.1v-5.2
				c0.4,0.5,0.8,1,1.1,1.4c1.6,2.3,4.2,3.3,6.6,4.5c1.5,0.8,3.4,1.2,4.4,2.6c0.8,1.1,1,2.5,1.2,3.6c0.3,1.8,0.7,3.6,0.8,5.2
				c0.3,2.2,0.5,4.5,1.5,6.6c0.7,1.8,1.9,3.4,2.3,5.3c0.5,2.2,0.7,4.6,1.5,6.8c0.4,1.1,0.3,2.3,1,3.3c0.3,0.5,0.7,0.7,1.1,0.7
				c0.3,0,0.5-0.1,0.7-0.1c0.5-0.4,0.8-1,0.7-1.6c-0.3-0.8-0.8-1.6-1.1-2.5c-0.7-2.6-1-5.1-1.5-7.6c-0.4-1.9-1.9-3.3-2.6-5.1
				c-0.7-1.4-0.8-2.9-1.1-4.4c-0.1-2.9-1-8.2-2-10.9c-0.4-1.1-1.4-1.8-2.3-2.3c-1.6-0.8-3.6-1.6-5.3-2.6c-2-1.1-4.2-2.5-5.2-4.6
				c-0.3-0.5-0.5-1.1-1.2-1.4L459,171c1,0.8,2,1.4,3,2.2c1,0.7,1.8,1.6,2.9,2.5c1.9,1.8,6.7,4,9.3,4.8c0.5,0.1,1.4,0.1,1.8,0.5
				c0.5,0.5,0.5,1.4,0.7,2c0.1,1.8,0.8,3.6,1.1,5.3c0.5,2.7,0.7,5.6,1.1,8.5c0.1,1-0.1,1.9,0,3c0.3,0.5,0.8,0.8,1.4,0.8
				c0.4,0,0.8-0.1,1-0.4c0.5-0.7,0.3-1.5,0.1-2.2c-0.4-1.1-0.1-2.3-0.4-3.6c-0.3-3.7-1-7.2-1.6-10.9c-0.1-1-0.7-1.9-0.7-2.9
				c0.1-0.7,0.8-1.2,1.2-1.6c3.8-3.1,6.1-10,7.5-14.5c0.3-0.8,0.3-1.8,0.1-2.7c-0.8-2.2-9.8-8.1-13-8.6c-1.2-0.4-2.6-0.4-4-0.5
				c-3.3,0-6.4,1.1-9.3,2.5c-0.7,0.3-1.5,0.7-2.2,1.1v-2.9c2.3-2,7.6-4,10.8-4c0.4,0,0.7,0,1.1,0.1c1.6,0.1,3.4,0.3,5.2,0.5
				c2.3,0.4,8.2,4.6,10,6.1c1,0.7,1.9,1.6,2.9,2.3c0.5,0.4,1.1,0.5,1.8,0.5v4.6c-0.1,0.4-0.3,1-0.4,1.4
				C488.9,169.4,487.3,173.3,485.1,177z M458.6,164.6v-5.1c0.7-1,1.8-1.4,2.7-1.9c3-1.5,5.7-2.5,9-2.5c5.2,0.5,7.4,2,11.3,5.3
				c1.1,0.7,2.2,1.2,2.7,2.5c0.3,1,0,1.9-0.3,2.7c-0.5,1.5-1,3-1.5,4.5c-1,2.2-2.2,4.2-3.8,6.1c-0.7,0.7-1.2,1.8-2.2,2.3
				c-0.1,0.1-0.3,0.1-0.5,0.1c-0.4,0-0.8-0.1-1.2-0.3c-1.8-1-3.8-1.5-5.6-2.5c-1.8-0.8-8.3-5.7-9.4-7.4
				C459.1,167.3,458.8,165.9,458.6,164.6z M487.5,238.3c-0.4,0.4-1,0.7-1.4,1.1c-0.4,0-0.8,0.1-1.2,0.1h-16.2
				c-0.8-0.5-1.8-1-2.6-1.6c-1.9-1.4-4.1-2.5-5.6-4.4c-0.5-0.7-1.2-1.4-1.9-1.9v-5.7c1.9,4.2,7.4,8.5,11.3,10.7
				c2.5,1.2,5.1,1.8,7.6,2.2c0.5,0,1.1,0,1.6,0c1,0,1.9-0.1,2.9-0.4c1.9-0.7,3.6-2.3,4-4.4c0.3-1.9,0.4-3.8,0.3-5.7
				c0-1.5,0.1-3.1,0-4.6c-0.3-2.5,0-4.8-0.3-7.2c-0.1-1,0-2-0.3-3.1c-0.3-2.3-0.8-4.5-1.2-6.7c-0.3-1.2,0-2.5,0.3-3.7
				c0.5-1.9,1.1-3.8,1.1-5.9c0.1-4-0.4-7.9-1.1-11.7c-0.1-1-0.3-1.8,0-2.7c0.3-1,0.8-1.9,1.4-2.7c1.5-2.2,2.6-4.5,3.7-7
				c0.1-0.4,0.3-0.8,0.4-1.1v7.4c-0.8,1.5-1.6,2.9-1.9,4.6c-0.1,1-0.1,2,0,3.1c0.4,3.3,1,6.7,0.5,10.1c-0.1,3-1.2,5.9-1.1,8.7
				c0,1.4,0.3,2.6,0.5,4c0.5,3,0.8,6.3,0.8,9.4c-0.1,4.4,0.5,8.7,0,13.1C489.2,234.2,489.2,236.8,487.5,238.3z M463.9,239.5
				c-2.6,0-4.8-1.9-5.2-4.4c1.1,1.8,2.7,2.5,4.1,3.4c0.4,0.3,1,0.5,1.5,1H463.9z M465,148.1c-1.1,0.3-2.2,0.5-3.1,1
				c-0.7,0.1-1.2,0.4-1.8,0.7c1-1,2.3-1.6,3.8-1.6L465,148.1L465,148.1z M462.1,166.1c1.4,3.1,8.3,7.5,11.6,8.5
				c0.3,0.1,0.5,0.1,0.8,0.1c1.2,0,2.3-0.8,3-1.8c1.8-2.2,3.1-4.9,3.1-7.8c0-3.8-8.6-6.8-11.7-6.8c-1.9,0-4,0.7-5.6,1.6
				c-0.7,0.5-1.4,1.1-1.6,1.9C461.2,163.2,461.7,164.7,462.1,166.1z M465,161.7c1.2-0.8,2.6-1.1,4-1.2c2,0,8.3,2.3,9.1,4.6
				c0.4,1.5-0.1,3-0.8,4.2c-0.5,1-1.2,2-2.2,2.6c-0.3,0.1-0.7,0.1-1,0.1c-0.5,0-1.1-0.1-1.5-0.4c-2.6-1.5-7.6-4.2-8.6-7.1
				C463.6,163.5,464.2,162.3,465,161.7z M468.7,163.1c-1,0-1.8,1-1.4,1.9c0.5,1.1,1.9,1.1,2.9,1.4c1.2,0.4,2,1.5,3,2.2
				c0.3,0,0.5,0.1,0.8,0.1c0.5,0,1-0.1,1.2-0.5c0.3-0.4,0.3-1,0.1-1.4c-0.5-1.2-1.9-1.2-3-1.8c-1.2-0.4-2-1.4-3.3-1.8
				C469,163.1,468.8,163.1,468.7,163.1z M477.1,148.1h6.3c1.6,1.1,3.3,2.2,4.9,3.4c0.5,0.3,1.2,0.7,1.8,1c0.1,0.3,0.1,0.7,0.1,1.1v3
				c-0.7,0-1.2-0.4-1.6-0.8C487.1,154.3,479.2,148.7,477.1,148.1z M490.3,206.2c0-0.5,0-1.1,0-1.6V206.2z"/>
			<path class="st0" d="M507.1,148.3c-2.3,1.4-4.5,3.3-7,4.5c-1.6,0.8-3.4,1.4-4.9,2.5c-0.1-1.5,0.1-2.9,0.8-4.1
				c1.8-0.4,3.3-1.2,4.6-2.3c0.4-0.3,0.8-0.5,1.1-0.8h5.7L507.1,148.3z M512,148.1h5.2c-3.6,2.9-7.6,5.2-11.5,7.8
				c-3,1.9-6.3,3.3-9.1,5.3l-1-3.3c0.4-0.1,0.7-0.4,1-0.7c1.9-1.2,4.1-1.9,6-3.1c2-1.2,4-2.7,6-3.8
				C509.6,149.6,510.9,148.7,512,148.1z M521.5,148.1c1.2,0,2.5,0.4,3.6,1.1c-0.8,0.5-1.6,1.1-2.3,1.6c-3.1,2-5.9,4.6-9.1,6.6
				c-2,1.2-4,2.5-5.9,3.7c-2.2,1.5-4.6,2.5-6.8,3.8c-1.2,0.5-2.3,1.4-3.4,2l-0.7-3.3c1-0.7,2.2-1.2,3.3-1.9c1.9-1.1,3.8-2,5.6-3.1
				c2.3-1.4,4.5-2.9,6.8-4.2c3-1.9,5.7-4.2,8.7-6.3L521.5,148.1L521.5,148.1z M524.5,152.4c0.8-0.5,1.5-1,2.3-1.4
				c0.5,0.8,1,1.6,1.1,2.7v0.4c-3,1.2-5.1,2.7-6.7,4.5c-1.2,1.1-2.5,2.2-4,2.9c-2.2,1.1-4.2,2.5-6.1,4c-1.8,1.4-3.8,2-5.7,3
				c-1.8,0.8-3.4,1.9-5.2,2.9c-0.5,0.3-1.1,0.5-1.6,0.8l-0.7-3c1.2-0.7,2.3-1.4,3.4-2c2-1.1,4.2-2,6.3-3.3c1.9-1.1,8.2-4.9,9.8-6.3
				C519.9,155.8,521.9,153.9,524.5,152.4z M525.2,158.3c1-0.7,1.9-1.2,3-1.5l0.5,3.7c-0.8,0.1-1.6,0.3-2.3,0.3
				c-0.8,0-1.9,0.5-1.8,1.5c-0.1,0.7,0.5,1.4,1.4,1.2c0.7,0.1,1.4-0.4,2-0.5l1.4,3.3c-1.8-0.1-3-0.1-4.4-0.4
				c-0.7-0.1-1.4-0.3-2.2-0.3s-1.6,0.1-2.3,0.5c-2.7,1.1-7.8,3.8-8.2,7.2c-0.4,4.2-0.5,8.6-0.4,12.8c0.1,2.5,0,4.8,0.1,7.1
				c0.1,1.4,0.1,2.7,0.3,4.1c0.3,2.7,1.1,5.3,1,7.9c-0.1,2.7-0.8,5.5-1.1,8.2c-0.1,2.5-0.1,5.1,0.3,7.5c0.1,1.6,0.5,3.3,0.3,5.1
				c-0.3,1.2-0.8,2.3-1.4,3.6c-0.4,0.5-0.5,1.1-1,1.6l-1.2-6c0.1-0.7,0.3-1.4,0.3-2.2c-0.3-2-0.5-4.2-0.7-6.3c0-4,1.5-7.8,1.2-11.6
				c0.1-3.1-0.8-6-0.8-9c-0.3-3.1-0.1-6.3-0.3-9.4c-0.3-3.4,0-6.8,0-10.1c0-1.1,0.8-2,0.7-3.3c0-0.7-0.7-1.2-1.4-1.2
				c-0.3,0-0.5,0-0.7,0.3c-0.8,0.5-0.8,1.6-0.8,2.5c0,1.1-0.1,2.2-0.1,3.3c0,6.4,0,13,0.3,19.5c0.1,1.4,0.4,2.9,0.7,4.2
				c0.3,1.9,0.3,3.7,0.1,5.6c-0.1,1.9-0.5,3.7-1,5.6l-3-14.9c0-0.4,0-0.8-0.1-1.2c0-3.8,0.3-7.5-0.1-11.3c-0.1-1.8,0.3-3.6,0.1-5.3
				c-0.1-1.1,0.1-2.2,0.4-3.1c0.3-1-0.5-2-1.5-2c-0.1,0-0.1,0-0.3,0c-1,0.3-1.2,1.2-1.1,2c0.4,2.5,0.1,5.1,0,7.5l-2.2-10.1
				c2-1.1,4.1-2,6-3.3c1.4-0.8,3-1.4,4.5-1.9c1.9-0.7,3.3-2.3,4.9-3.4c1.6-1.1,3.4-2,5.1-2.9C521.8,162,523,159.5,525.2,158.3z
				 M513.2,231.1c0.8-1.5,1.8-3,2-4.8c0-1.1,0-2,0-3.1c-0.5-3.4-1.1-6.8-0.7-10.1c0.3-3,1.2-5.9,1.1-8.9c0.1-1.2-0.1-2.6-0.4-3.8
				c-0.5-3.1-1-6.3-0.8-9.4c0-4.4-0.5-8.7-0.1-13.1c0.4-5.9,1-6.3,6-9c1.1-0.7,2.2-0.8,3.3-0.8c0.7,0,1.2,0,1.8,0.1
				c1.5,0.3,2.9,0.4,4.4,0.5l0.4,3.4c-1.4-0.4-2.7-0.7-4.2-0.8c-0.4,0-1-0.1-1.5-0.1c-1,0-1.9,0.1-2.9,0.5c-1.9,0.7-3.7,2.3-4,4.4
				c-0.3,1.9-0.4,3.8-0.4,5.7c0.1,1.5,0,3.1,0.1,4.6c0.3,2.5,0,4.8,0.1,7.1c0.1,1.1,0.1,2.2,0.3,3.3c0.4,2.2,1,4.5,1.4,6.7
				c0.1,1.2,0,2.5-0.3,3.6c-0.5,2-1.1,4-1.2,6c-0.1,4,0.5,7.8,1.2,11.7c0.1,0.8,0.3,1.8,0,2.7s-0.8,1.8-1.4,2.6
				c-1.5,2.3-2.7,4.6-3.7,7.1c-1.4,0-2-1-2.5-2.2C512,233.7,512.5,232.4,513.2,231.1z M524.5,173.6c1.1,0,2.5,0.1,3.6,0.4
				c0.8,0.1,1.5,0.4,2.3,0.7l0.4,3.7c-1.2-0.7-2.6-1.1-4-1.4c-1.1,0-2-0.5-3-0.5c-0.1,0-0.3,0.1-0.4,0.1c-0.8,0-1.5,0.8-1.2,1.6
				c0.1,0.4,0.4,0.8,1,1c0.1,0.1,0.4,0.1,0.7,0.1c0.5,0,1.1-0.1,1.6-0.1c0.1,0,0.3,0,0.4,0c1.9,0.4,3.7,1.1,5.3,2l0.4,4.4
				c-0.7-0.7-1.6-1.4-2.5-1.9c-1.1-0.5-2.2-0.8-3.3-1.2c-1-0.3-1.6-0.8-2.6-1s-2,1-1.5,1.9c0.4,0.8,1.4,1.1,2.2,1.1
				c1.5,0,2.9,0.7,4.2,1.4c1.6,1,3,2.2,4,3.8l1.9,16.4c-0.7-1.8-1.4-3.6-1.8-5.3c-0.8-2.9-1.1-5.9-2.3-8.5c-0.7-1.6-1.9-2.9-3.6-3.6
				c-1-0.5-1.8-1.5-2.9-1.8c-0.1-0.1-0.3-0.1-0.3-0.1c-0.4,0-0.7,0.3-1,0.4c-0.5,0.3-0.5,1-0.4,1.5c0.3,0.8,1.2,1.1,1.9,1.2
				c1.8,0.4,3.3,1.6,4.1,3.3c1,2.3,1.2,4.8,1.8,7.2c0.5,2.5,1.6,4.6,2.5,7c1.2,3,1.5,6.1,2,9.3c0.4,1.9,0.7,4,2,5.5
				c2.6,2.5,6.3,2.7,8.9,5.2c1.2,1.4,2.3,3,3,4.8c0.7,1.9,0.3,4,0.5,5.9c0,0.5,0.1,1,0.3,1.5h-3.6c-1.2-1.5-2.5-2-3.4-2.9
				c-1.1-0.8-1.9-1.8-2.9-2.5c-1.8-1.5-7-4.4-9.3-4.8c-0.7-0.1-1.4-0.1-1.9-0.7c-0.4-0.4-1.5-6.6-1.6-7.2c-0.5-2.9-0.7-5.7-1.2-8.5
				c-0.1-1,0.3-2,0-3c-0.1-0.5-0.7-1-1.2-1c-0.4,0-0.8,0.1-1.1,0.5c-0.4,0.7-0.3,1.5,0,2c0.4,1.2,0.1,2.5,0.3,3.7
				c0.3,3.7,1.1,7.2,1.8,10.9c0.1,1,0.7,1.8,0.5,2.9c0,0.7-0.7,1.1-1.2,1.6c-2,1.6-4.6,6.1-5.5,8.7h-1.1c-0.8,0-1.5-0.1-2.2-0.4
				c1-2,1.9-4.2,3-6.1s2.9-3.6,3-5.9c0-1.5-0.3-3.1-0.5-4.6c-0.4-1.6-0.5-3.3-0.7-4.9c-0.3-1.9-0.1-3.8-0.1-5.6
				c0-2.5,1.6-4.6,1.5-7.1c-0.1-3-1.1-5.9-1.6-8.7c-0.3-1.6-0.1-3.3-0.1-4.9c0-1.4-0.3-2.7-0.3-4.1c0-3,0-5.9,0-8.9
				c0.1-1.5,0.5-3.1,2-4C522.3,173.7,523.4,173.6,524.5,173.6z M542.1,239.5h-4.9c-2.7-1.9-4.9-3.6-7.4-4.1
				c-0.3-0.1-0.5-0.1-0.8-0.1c-2.2,0-3.8,2.5-4.6,4.2h-3.3c0.7-1.9,4-7,5.7-8.2c0.3-0.1,0.4-0.1,0.7-0.1c0.4,0,0.8,0.1,1.2,0.3
				c1.8,0.8,3.8,1.4,5.6,2.3C537,235.2,539.8,237.5,542.1,239.5z M522.2,194.2c0.3,1,0.8,1.8,1.1,2.6c0.7,2.5,1,5.1,1.5,7.5
				c0.4,2,1.9,3.4,2.6,5.2c0.7,1.4,0.8,2.9,1,4.4c0.3,2.2,0.7,4.5,1,6.7c0.4,1.4,0.5,2.9,1.2,4.2c0.4,1,1.2,1.8,2.2,2.2
				c1.8,1,3.7,1.6,5.5,2.6c2,1.1,4.1,2.5,5.1,4.8c0.3,0.5,0.7,1.1,1.4,1.2c0,0.1,0.1,0.1,0.3,0.1c0.5,0,1-0.4,1.2-0.7
				c0.1-0.5,0.1-1.2-0.3-1.8c-0.7-0.8-1.5-1.4-2-2.3c-1.5-2.2-4.2-3.1-6.6-4.4c-1.5-0.8-3.3-1.2-4.4-2.7c-0.7-1-0.8-2.3-1.1-3.6
				c-0.3-1.6-0.7-3.4-0.8-5.2c-0.3-2.2-0.5-4.4-1.5-6.4c-0.7-1.8-1.9-3.4-2.5-5.3c-0.5-2.3-0.7-4.6-1.4-6.8c-0.5-1.1-0.4-2.3-1-3.4
				c-0.3-0.4-0.7-0.5-1.2-0.5c-0.1,0-0.4,0-0.5,0.1C522.3,193,521.9,193.7,522.2,194.2z M529.4,237.9c0.5,0,1.1,0.1,1.5,0.4
				c0.7,0.3,1.5,0.8,2.2,1.2h-6.3c0.4-0.7,1-1.2,1.6-1.5C528.8,237.9,529.2,237.9,529.4,237.9z M554.8,239.4
				c-0.4,0.1-0.8,0.1-1.2,0.1h-2.2c-0.1-0.8-0.3-1.5-0.4-2.3c0-0.8-0.1-1.6-0.1-2.6c-0.4-3.3-1.9-6.3-4-8.9
				c-1.6-1.9-4.2-2.5-6.3-3.6c-1.5-0.7-3-1.9-3.6-3.6c-0.8-3-1-6-1.8-9c-0.1-0.7-0.4-1.4-0.7-2h2.2l0.3-2.6c1.1,2.2,1.6,5.7,1.9,8.1
				c0.4,1.9,0.7,4.1,2.2,5.6c1.4,1.2,3,2.2,4.9,2.3c0.7,0,1.5-0.1,2,0.5c0.7,0.7,1.1,1.8,1.6,2.6c2.7,4.5,4.2,7.6,4.5,13.1
				C554.4,237.9,554.7,238.7,554.8,239.4z M549.9,214.3c-0.3,1.2-0.8,2.5-1.4,3.6c-0.1,0.7-0.7,1-1.4,1c0,0-0.1,0-0.3,0
				c-1.6-0.1-3.6-1-4.5-2.5c-1-1.5-1-3.4-1.4-5.2c-0.5-4.1-2.2-7.9-3.4-12l1-8.7c1,3.4,1.6,6.4,2.6,9.4c1.2,3.8,2.5,7.6,3.3,11.7
				c0.1,1.2-0.4,2.7,0.7,3.8c0.1,0.1,0.4,0.3,0.7,0.3c0.8,0,1.5-0.7,1.5-1.5c-0.4-3.1-1.9-8.5-2.7-11.3c-1.2-4-2.3-7.9-3.4-11.9
				c-0.4-1.9-1.1-3.8-2-5.5l0.5-4.5c0.8,0.8,1.6,1.6,2.3,2.7c1.4,1.9,1.6,4.2,2.3,6.6c1.2,5.2,3,10.4,4.2,15.6
				c0.4,1.6,1.1,3.3,1.4,4.9v-0.1c0.3,0.7,0.3,1.5,0.3,2.2C550.2,213.3,550.1,213.9,549.9,214.3z M560.4,220.2
				c0.4,1.4,1,2.6,1.5,3.8l-1.1,5.2c-1.1-2.3-1.9-4.5-2.9-6.6c-0.5-1.1-1.1-2.2-1.5-3.4c-0.1-0.8,0.1-1.8-0.3-2.5
				c-0.3-0.5-0.8-1-1.4-1c-0.3,0-0.5,0.1-0.7,0.3c-0.7,0.4-0.5,1.4-0.4,2c0.5,1.6,1,3.3,1.8,4.9c1.1,2.2,2.2,4.5,3.1,6.8
				c0.7,1.5,0.8,3.1,1,4.8c-0.4,1.9-1.4,3.1-2.6,3.8c-0.3-1.5-0.5-3.1-0.7-4.8c-0.4-2.7-1.5-5.3-2.9-7.6c-0.8-1.6-1.5-3.3-2.6-4.6
				c-0.5-0.7-1-1.5-0.7-2.3c0.5-1,1.1-1.8,1.5-2.9c0.5-1.2,1.1-2.6,1-4c0-1.5-2-8.3-2.6-9.8c-1-3.4-1.8-6.4-2.6-9.3
				c-0.8-2.9-1.4-5.6-2.2-8.3c-0.7-2.2-2.3-3.8-3.8-5.5c-0.4-0.5-1-1-1.5-1.4l0.4-4c1,0.7,1.9,1.4,2.7,2.3c1.1,1.4,2.3,2.5,3.6,3.6
				c1.1,1.1,1.6,2.6,1.8,4c0.5,2.3,1,4.5,1.5,6.7c0.4,1.4,0.8,2.7,1.2,4.1c1.4,4.1,2.2,8.2,3.4,12.3c0.4,1.5,0.8,3.1,1.4,4.6
				c0.5,1.6,1.8,2.7,2.6,4.2C559.3,217.1,559.8,218.8,560.4,220.2z M558.5,148.1c0,6-1.8,13.5-4.2,19.1c-0.5,1.5-1.1,3-0.8,4.6
				s-0.1,3.4-0.4,5.1c-0.3,1.5,0.3,3,0.5,4.4c0.7,2.5,0.8,5.1,1.5,7.5c0.7,3,2,5.7,2.6,8.7c0.8,3.8,1.8,7.6,3.3,11.2
				c0.7,1.8,1.8,3.4,2.6,5.1l-0.8,6c-0.5-1.2-1-2.6-1.6-4c-1-2.2-2.7-4.1-3.4-6.4c-1-3.4-1.9-6.8-2.9-10.2c-0.7-3.4-1.9-6.6-2.7-9.8
				c-0.7-2.3-1-4.6-1.5-7c-0.1-0.7-0.3-1.4-0.7-2c-0.3-0.8-1-1.6-1.6-2.2c-1.5-1-2.7-2.2-3.7-3.7c-1-1.4-2.5-2-3.8-3l0.3-3.6
				c1.2,1.1,2.7,2.2,4.4,2.3c1.5-0.3,3-0.8,4.4-1.5c1.5-1.1,1.9-2.9,2.3-4.4c1-3.7,2.6-7.1,3.1-10.8c0.1-1.6,0.4-3.3,0.1-4.8
				L558.5,148.1z M548.6,148.1h4.1c0.1,0.4,0.3,0.8,0.4,1.2c0.5,2.5-0.3,4.8-0.8,7c-0.5,2.3-1.8,4.5-2.2,6.8c-0.4,1.5-0.8,3.1-2.2,4
				c-0.5,0.4-1.2,0.5-2,0.5c-0.4,0-0.8,0-1.1-0.1c-1.4-0.4-2.5-1.4-3.4-2.5l0.5-5.2c1.2-0.3,2.3-0.7,3.4-1c1-0.3,2-0.1,3-0.3
				c0.4,0,0.7-0.4,1-0.7c0.7-0.7,0.1-2-0.8-2.2c-0.1,0-0.3,0-0.4,0c-1,0-1.9,0.8-2.9,1c-1,0.3-2,0.5-3,0.7l0.4-3.3
				c0.1,0,0.4,0,0.5,0c0.5,0,1.1,0,1.6-0.1c1-0.4,1.2-2,0.1-2.6c-0.5,0-1,0-1.5,0c0.7-1.1,1.6-2,2.9-2.6c0.7,0.8,1.2,1.6,1.4,2.7
				c0.3,0.8,0.4,1.8,1.1,2c0.3,0.1,0.4,0.1,0.7,0.1c0.1,0,0.4,0,0.5-0.1c0.8-0.5,0.8-1.5,0.5-2c-0.1-0.4-0.3-0.7-0.5-1
				c-0.3-0.5-0.5-1.1-0.8-1.6C549,148.6,548.8,148.3,548.6,148.1z M547.3,162.8c0-1-1-1.6-1.8-1.6c-0.3,0-0.4,0-0.5,0.1
				c-1,0.1-1.8,1.2-1.4,2.2c0.3,0.7,1.1,1.1,1.8,1.1C546.4,164.6,547.3,163.8,547.3,162.8z M550.5,175.1c1.1-1,0.7-2.7-0.5-3.3
				c-0.4-0.3-0.5-0.3-0.8-0.3c-0.4,0-0.8,0.1-1.1,0.4c-0.5,0.7-0.5,1.5-0.4,2.2c0.4,1.1,1.4,1.2,2.3,1.2L550.5,175.1z M560.7,151.3
				c0.1-1.1,0.3-2.2,0.3-3.3h3.3c-0.4,2.5-0.5,4.9-1,7.4c-0.5,4.5-2.3,8.7-3.6,13.1c-0.7,2.7-1,5.6-0.7,8.5c0.3,1.9,0.5,3.8,0.5,5.7
				c0,2.3,0.4,4.8,1.4,6.8c0.5,1.6,1.5,3.1,1.9,4.9c0.4,1.4,0.4,2.7,0.5,4.2c0.3,2.2,1.2,4.4,2.2,6.6l-1.1,5.3
				c-1.6-3-2.9-6.3-3.7-9.6c-0.5-2.3-0.8-4.8-1.5-7c-0.7-1.9-1.5-3.7-1.9-5.6c-0.5-1.8-0.8-3.7-1-5.5c-0.3-2.2-1.2-4.2-1-6.4
				c0.4-2.2,0.3-4.5,0.5-6.7c0.3-1.4,0.8-2.7,1.2-4.2C558.8,161,560.4,156.2,560.7,151.3z M568.9,148.1c0.5,0,1,0,1.4,0.1
				c-0.3,0.8-0.5,1.6-0.8,2.5c-0.7,3.1-0.5,6.3-1.5,9.4c-1.4,5.5-3.8,11.1-3.1,16.8c0.3,1.9,1.9,3.1,3.3,4.2
				c0.7,0.7,1.2,1.5,1.8,2.3l-1,4.9c-0.3-0.7-0.7-1.4-1-2c-0.5-0.8-0.7-1.6-1-2.5c-0.1-0.8-0.8-1.5-1.5-1.5c-0.8,0-1.5,1-1.4,1.6
				c0.1,0.4,0.3,0.7,0.4,1c1.6,2,2,4.8,3.7,7l-1.8,9.3c-0.4-1.2-0.8-2.3-0.8-3.6c0-1.8,0-3.6-0.8-5.1c-1-2.3-2.2-4.5-2.7-6.8
				c-0.4-2.2,0.1-4.5-0.1-6.7c-0.3-1.4-0.5-2.7-0.5-4.2c0-5.2,2.2-10,3.4-14.9c0.8-3.1,1.1-6.3,1.5-9.6c0-0.8,0.3-1.5,0.5-2.3h2
				L568.9,148.1L568.9,148.1z M571.2,176.2l-0.8,4.2c-0.8-1.1-1.9-1.9-2.6-3c-0.8-1.4-0.8-3.1-0.5-4.8c0.4-3.1,1.4-6.1,2.2-9.1
				c0.5-1.6,1-3.1,1.2-4.8c0.5-2.6,0.4-5.3,1.2-7.8c0.1-0.7,0.4-1.2,0.5-1.8c1.1,0.7,1.9,1.6,2.3,2.9c-0.8,2.9-0.4,5.5-1,7.9
				c-0.3,1.4-0.8,2.9-1.2,4.2c-0.8,2.6-1.5,5.3-1.9,7.9c-0.1,0.7-0.1,1.4,0,2C570.7,174.8,571,175.5,571.2,176.2z"/>
			<path class="st0" d="M580.1,167.2v-15.3c0-1.1,0.5-2.2,1.4-2.9c0.3,2-0.1,3.8-0.4,5.5c-0.3,1.5,0.3,3,0.5,4.5
				c0.7,2.5,0.8,5.1,1.5,7.5c0.7,2.9,2,5.6,2.6,8.6c0.8,3.8,1.8,7.6,3.3,11.2c0.7,1.8,1.8,3.4,2.6,5.2c1.4,2.7,2.3,5.6,3.4,8.5
				c0.5,1.4,1.2,2.9,2.2,3.8c1.4,1.4,3,2.2,4.6,3.1c0.7,0.4,6.1,3.1,6.6,3.1c1,0,1.6-1.1,1.2-1.9c-0.4-0.8-1.4-1-2-1.1
				c-1.4-0.3-7.4-3.6-8.5-4.5c-1.1-1.1-1.6-2.7-2.2-4.2c-1.2-3.4-2.5-6.7-4.2-10c-1.6-3-3-6.3-3.8-9.7c-0.5-2.3-0.8-4.6-1.5-7
				c-0.7-1.9-1.5-3.7-1.9-5.6c-0.5-1.8-0.8-3.6-1-5.5c-0.3-2.2-1.2-4.2-1-6.4c0.3-2,0.3-4.1,0.5-6.1h3.3c-0.3,2.2-0.5,4.4-0.3,6.6
				c0.3,1.9,0.5,3.8,0.5,5.9c0,2.3,0.4,4.6,1.4,6.8c0.5,1.6,1.5,3.1,1.9,4.8c0.4,1.4,0.4,2.9,0.5,4.2c0.4,3.1,1.9,6.1,3.3,9
				c1.1,2.2,2.2,4.4,3.1,6.7c0.8,1.9,1.4,4,2.2,5.9c0.5,1,0.5,2,1.1,3c0.3,0.5,0.7,0.7,1.2,0.7c0.4,0,1-0.3,1.1-0.7
				c0.5-1.2-0.7-2.2-1.1-3.3c-0.7-2-1.4-4.1-2.2-6c-1.6-4.2-4-8.2-5.6-12.4c-0.5-1.2-1-2.6-1-4c0-1.6,0-3.6-0.8-5.1
				c-1-2.2-2.2-4.4-2.7-6.8c-0.4-2.2,0.1-4.5-0.1-6.7c-0.3-1.4-0.5-2.7-0.5-4.1c0-1.6,0.1-3,0.5-4.5h3.3c-0.4,2.2-0.5,4.2-0.4,6.6
				c0.3,1.9,1.9,3,3.3,4.2c1.6,1.5,2.6,3.7,3.7,5.5c1.5,2.7,4.1,4.5,6,6.8c3.8,4.1,10.1,21,10.8,27.4c0,2,0.1,4.1,0.3,6.3
				c0,0.4,0,0.8,0.1,1.2h-1.2c-0.7,0-1.4,0.1-1.9,0.4c-0.3-2.2-0.3-4.6-0.3-6.8c-0.3-3.4-1.2-6.7-2.5-9.8c-1.2-4.1-6-15.7-9.1-18.4
				c-1.2-1.2-2.7-2-3.8-3.4c-1-1.2-1.5-2.7-2.2-4.1c-0.5-0.7-0.7-1.6-1-2.5c-0.1-0.7-0.8-1.5-1.5-1.5c-0.8,0-1.5,1-1.4,1.8
				c0.1,0.3,0.3,0.5,0.4,0.8c1.6,2.2,2,5.1,3.8,7.2c1,1.2,2.6,1.8,3.7,2.9c4,3.6,10.9,20.9,11.2,27.4c0.3,1.8,0.1,3.4,0.1,5.2
				c0,1,0.5,1.9,0.4,3c0.1,0.3,0,0.7,0,1.1v1c0,1.5,0.8,2.7,2,3.4c-6.4-0.4-10.4-2.5-15.8-5.6c-1.4-0.7-2.9-1.4-3.8-2.9
				c-1-1.5-1.6-3.4-2.3-5.1c-1-2.2-1.6-4.6-2.7-6.8c-1-2.2-2.7-4-3.4-6.4c-1-3.4-1.9-6.8-2.9-10.2
				C582.2,173.5,580.9,170.3,580.1,167.2z M581.5,203.6c-0.4-1-0.8-1.8-1.4-2.6v-8.3c0.3-1,0.5-1.9,0.5-2.9s-0.3-1.8-0.5-2.6v-11.6
				c0.8,3,1.6,6,2.5,8.9c0.4,1.6,0.8,3.1,1.4,4.8c0.5,1.5,1.8,2.7,2.6,4.1c0.8,1.4,1.2,3,1.9,4.5c0.7,1.8,3.3,8.6,4.6,9.8
				c1,1.1,2.3,1.5,3.6,2.3c2,1.1,4.1,2.5,6.3,3.4c3.7,1.6,10.1,2.7,14.1,2.9c1.6,0,3.3-0.1,4.8-0.5c1.1-0.4,2.2-1,3.3-1.5h5.3
				c-1.5,1.1-2.9,2-4.5,3c-2.5,1.6-5.6,2.2-8.5,2.2c-0.5,0-1-0.1-1.5-0.1c-7.5-0.5-13.4-2-19.7-6c-0.8-0.4-1.2-1.2-2-1.8
				c-0.3-0.1-0.5-0.1-0.8-0.1s-0.7,0.1-1,0.4c-0.4,0.3-0.3,1-0.3,1.5c0.4,0.5,1,1,1.6,1.2c2,1.1,4,2.3,6,3.4
				c1.9,1.2,4.2,1.6,6.4,2.2c3.1,0.5,6.3,1.2,9.4,1.5c0.5,0.1,1.2,0.1,1.8,0.1c1.4,0,2.7-0.1,4.1-0.3c3.6-0.5,6-2.5,8.9-4.4
				c1.4-1,2.6-1.9,4-2.9h4.9c-3,3-6.8,4.6-9.8,7.2c-3.4,3-7.1,3.3-11.5,3.3c-1.1,0-2.2,0-3.3-0.1c-4.1-0.4-8.1-1.4-12-2.2
				c-1.9-0.5-4.1-0.8-5.6-2.2c-0.5-0.5-0.8-1.4-1.4-1.9c-0.3-0.3-0.7-0.4-1.1-0.4c-0.1,0-0.4,0.1-0.7,0.1c-0.7,0.4-0.7,1.2-0.4,1.9
				s1,1.1,1.5,1.5c1.9,1.9,3,2.3,5.6,2.9c5.1,1.1,10,2.2,15.2,2.7c1,0,1.9,0,2.9,0c0.8,0,1.6,0,2.5,0c1.8-0.3,3.7-0.5,5.5-1.1
				c1-0.3,2-0.5,2.9-1.4c1.2-1.1,2.5-2.3,3.8-3.1c1.2-0.8,2.5-1.5,3.7-2.5c1.8-1.2,3.7-2.5,4.9-4.2l2.9-0.5c0.4,0,0.8,0,1.1,0.1
				c-0.5,1.5-1.1,2.7-1.9,3.7c-1.1,1-2.5,1.5-3.6,2.3c-1.8,1.1-3,2.6-4.9,3.4c-1,0.5-2.3,0.3-3,1.4c-0.5,0.8,0.3,2,1.4,1.9
				c1.1-0.3,1.9-1,3-1.2c1.6-0.7,2.7-2.2,4.1-3.3c1.2-0.8,2.6-1.4,3.8-2c1.4-0.8,2-2,2.6-3.4c0.1-0.5,0.4-1,0.5-1.4
				c0.5,0.7,0.8,1.5,0.8,2.3v4.5c-0.3,0.3-0.4,0.4-0.8,0.5c-1.1,0.5-2.3,0.8-3.4,1.1c-1,0.3-1.9,0.1-2.7,0.7s-0.7,2,0.3,2.3
				c0.1,0,0.3,0.1,0.5,0.1c0.5,0,1-0.3,1.5-0.5c1.5-0.7,3.1-0.8,4.6-1.2v3.1c-1.1,0.4-2.2,0.7-3.4,1c-0.4,0-1,0-1.5,0
				c-0.4,0-1,0-1.5,0c-1.4-0.3-2.6-0.7-4-0.7c-0.1,0-0.4,0-0.5,0c-1.1,0.1-2.2,0.4-3.4,0.4c-1.6-0.1-3.4-0.7-5.1-0.7
				c-0.4,0-0.8,0-1.2,0.1c-2.7,0.5-5.5,1.5-8.2,1.5c-0.1,0-0.3,0-0.5-0.1c-0.3,0.1-0.5,0.1-0.8,0.1c-2.5,0-4.9-0.4-7.4-0.8
				c-4.8-0.8-9.6-1.9-14.3-2.9c-1.4-0.3-3.1-0.5-4-2c-1.1-1.8-2.5-8.6-2.7-11.1c-0.1-1.5-0.1-3-0.4-4.5c-0.3-1.8-2.9-7.1-3.7-8.7
				c-0.5-1.2-1.1-2.3-1.5-3.6c-0.1-0.8,0.1-1.6-0.3-2.5c-0.3-0.5-0.8-1-1.4-1c-0.3,0-0.5,0.1-0.7,0.3c-0.8,0.4-0.5,1.4-0.4,2
				c0.5,1.6,1,3.4,1.8,4.9c1.1,2.2,2.2,4.5,3.1,6.8c0.7,1.6,0.8,3.3,1,4.9c0.3,3.6,1.8,11.3,3.4,14.2c0.5,1.1,1.8,1.6,2.9,1.9
				c1.5,0.4,3.1,0.7,4.6,1c3.8,0.8,7.8,1.6,11.6,2.3c2.3,0.5,4.5,0.7,6.8,1c0.4,0,0.8,0,1.1,0c0.5,0,1.1,0,1.6,0c0.3,0,0.4,0,0.7,0
				c3,0,5.9-1.2,8.9-1.5c1.2,0,2.5,0.3,3.8,0.4c0.5,0,1,0,1.5,0c1.1,0,2.2,0,3.1-0.1c2.2,0,4.2,0.4,6.3,0.5c1.6,0,3.1-0.3,4.6-0.8
				v3.6c-1.1,0-2,0-3.1,0.1c-0.4,0.1-0.8,0.1-1.2,0.1c-1.4,0-2.7-0.3-4.1-0.3c-0.1,0-0.1,0-0.3,0c-1.5-0.1-3-0.1-4.5-0.1
				c-1.1,0-2.2,0-3.4,0c-0.4,0-0.8,0-1.2,0c-2.7,0-5.2,0.5-7.8,1.1c-0.8,0.1-1.8,0.4-2.7,0.4c-0.3,0-0.4,0-0.7,0
				c-2.2-0.4-4.4-0.7-6.7-0.7c-1.9-0.1-3.8-0.8-5.7-1.2c-5.1-1-10.1-1.8-15-2.7c-1.1-0.3-2.3,0-3.3-0.7c-0.7-1-0.5-2.3-1.1-3.4
				c-1.8-5.2-2.7-10.7-3.4-16C583.9,208.7,582.8,206.1,581.5,203.6z M583.8,234.2c-1.1,1-2.2,1.9-3.4,2.7c-0.1-0.4-0.3-0.8-0.3-1.4
				V233c1-0.8,1.8-1.5,2-2.6c0.3-1.5-0.1-2.9-0.5-4.4c-0.5-2-0.8-4.1-1.4-6.3l-0.1-13.9c0.1,0.4,0.4,0.8,0.5,1.2
				c1.1,2.5,1.4,5.1,1.6,7.6c0.5,3.3,1.4,6.4,2.2,9.7c0.5,1.8,0.8,3.7,1.6,5.5c0.3,0.5,0.5,1.4,0.1,2
				C585.6,232.9,584.6,233.4,583.8,234.2z M644.7,239.5h-38.6c-4.9-1.2-9.3-1.6-13.5-2.3c-1.9,0-3.3,0-4.9,1.2
				c-0.4,0.4-0.8,0.7-1.4,1.1h-2.2c-0.8,0-1.6-0.3-2.2-0.7c1.4-1,2.7-2,4.1-3.1c0.8-0.7,1.2-1.8,2.2-2.3c0.3,0,0.4-0.1,0.7-0.1
				c0.5,0,1,0.3,1.5,0.3c1.2,0.4,2.5,0.5,3.7,0.7c4.5,0.7,11.9,1.8,16.1,3.1c1.1,0.4,2.2,0.5,3.4,0.5c0.4,0,0.8-0.1,1.2-0.1
				c0.1,0,0.3,0,0.4,0c1.6,0,3.3,0.8,5.1,0.7c1.2,0.1,2.5-0.3,3.7-0.5c1.9-0.4,3.8-0.8,5.7-1c0.4,0,1,0,1.4,0c1.4,0,2.6,0,4,0
				c1.1,0,2.3,0,3.4,0c1.8,0.3,3.4,0.1,5.2,0.4c0.3,0,0.5,0,0.7,0c1.2,0,2.5-0.1,3.6-0.1c0.1,0,0.3,0,0.5,0
				C647.7,238.6,646.3,239.5,644.7,239.5z M595.8,155c-1-1.4-0.8-3.1-0.5-4.6c0.1-0.8,0.3-1.6,0.4-2.3h3.3c-0.1,0.5-0.3,1.1-0.3,1.8
				c-0.1,0.7-0.1,1.2,0,1.9c0.1,1.4,0.7,2.6,1.5,3.6c1.4,1.6,2.6,3.4,3.7,5.2c1.6,2.6,4,4.8,6.1,7c1.6,1.8,2.7,4.1,3.8,6.4
				c-1.2,0.5-1.9,1.8-2,3.1c-1.2-2.9-2.6-5.7-4.6-7.9c-1.6-1.9-3.6-3.4-4.9-5.5c-1.4-1.8-2.2-4-3.8-5.6
				C597.6,156.9,596.5,156.1,595.8,155z M608.5,201.7c-0.5-1.6-0.3-3.4-0.8-5.1c-1.6-6.3-4.5-12.2-7.4-17.9
				c-0.7-1.2-1.2-2.5-1.6-3.8c-0.1-0.7-0.8-1.2-1.5-1.2c-0.3,0-0.4,0-0.7,0.1c-0.7,0.3-0.7,1.2-0.4,1.9c0.4,0.8,1.1,1.5,1.5,2.3
				c2,4.9,4.6,9.6,6.3,14.5c1,2.7,2,5.3,2.2,8.2c0,1-0.5,2.2,0.1,3.1c0.1,0.4,0.7,0.7,1.1,0.7c0.4,0,0.8-0.1,1.1-0.5
				C608.9,203.4,608.6,202.5,608.5,201.7z M619.4,173.3h-3.3c-1.1-2.5-2.2-4.9-4-6.8c-1.9-2.3-4.2-4.2-5.9-6.7c-1.5-2-3-4.1-4.4-6.3
				c-1-1.4-1-3.1-0.7-4.8l3.4-0.7c-0.1,0.8-0.1,1.8,0,2.6c0.3,1.6,1.2,3,2,4.4c1.1,1.5,2,2.9,3.3,4.2c1.6,2.3,3.8,4,5.6,6.1
				c1.2,1.4,1.9,3.1,2.6,4.8C618.6,171.3,619,172.2,619.4,173.3z M607.1,148.1h3.3c0,4.1,5.2,9.8,8.2,12.3c1.2,1,2.5,1.9,3.3,3.4
				c0.7,1.5,1,3.3,1.5,4.9c0.4,1.6,1.2,3.1,2.2,4.6H622c-0.3-0.5-0.5-1.1-0.8-1.8c-0.8-1.8-1.2-3.7-2.2-5.5c-0.8-1.6-2.2-3-3.4-4.2
				c-2.3-2-7.2-7.8-8.3-10.8C607,150.1,607,149,607.1,148.1z M648.7,169.4c0,1.4-0.7,2.6-1.8,3.3c-0.1-2.7,0-5.6-0.1-8.3
				c-0.3-3.4,0-6.7,0-10.1c0-1.1,0.8-2,0.7-3.1c0-0.8-0.7-1.4-1.4-1.4c-0.3,0-0.5,0.1-0.7,0.3c-0.8,0.5-0.8,1.6-0.8,2.5
				c0,1.1-0.1,2.2-0.1,3.3c0,5.9,0,11.7,0.3,17.6h-3.3c0-3.4,0.1-6.7-0.1-10.1c-0.1-1.8,0.3-3.6,0.1-5.3c-0.1-1.1,0.1-2.2,0.4-3.1
				c0.3-1-0.5-2-1.5-2c-0.1,0-0.3,0-0.3,0c-1,0.3-1.2,1.4-1.1,2c0.4,2.6,0.1,5.1,0,7.6c0,3,0.5,6,0.3,9.1c-0.1,0.5-0.1,1.1-0.1,1.8
				h-3.3c0.1-0.7,0.1-1.4,0.3-1.9c0.3-1.5,0.3-3,0.1-4.5c-0.3-2.2-0.8-4.4-0.5-6.7c0.3-1,1.2-1.8,1.1-3c-0.1-0.5-0.8-1.1-1.4-1.1
				c-0.3,0-0.4,0.1-0.7,0.1c-0.5,0.4-0.8,1.2-1,1.9c-0.1,1-0.5,1.9-0.5,2.9c-0.1,2.7,1,5.3,1,7.9c0,1.5-0.5,2.9-0.7,4.4h-5.2
				c-0.5-0.7-1.1-1.2-1.4-1.9c-1.6-2.7-1.8-6.1-3-9c-0.8-1.6-2.5-2.7-3.8-4c-2.2-1.9-4.1-4-5.7-6.4c-0.8-1.1-1.4-2.5-1.5-4h3.6
				c0.8,3.3,6,9.1,9.3,10.4c0.8,0.3,1.5,1,1.5,1.9c0.1,3.4,1.8,6.6,1.8,10c0.1,0.7,0.8,1.2,1.5,1.2c0.7-0.1,1.4-0.7,1.2-1.5
				c-0.1-1-0.7-1.8-0.8-2.7c-0.5-2.3-0.8-4.8-1.4-7.1c-0.1-0.5-0.1-1.1,0-1.6c0.3-0.5,0.7-0.8,1.1-1.2c1-0.7,1.5-1.9,2.5-2.6
				c2.9-2.6,6.6-3.8,9.7-5.9c0.5-0.3,1.1-0.5,1.8-0.8h0.1c2.2,0,4,1.8,4,3.8v17.3L648.7,169.4L648.7,169.4z M622.2,206.1h-3
				c0-0.8,0-1.6-0.1-2.3c-0.3-2,0.1-4.1-0.3-6.1c-0.3-3-1.4-5.9-2.2-8.9c-1-2.9-2-5.7-3.3-8.5c0.7,0.5,1.5,0.8,2.5,0.8h1.4
				c0.3,0.7,0.5,1.2,0.8,1.9c1,3,1.8,6,2.7,8.9c1.1,3,1.8,6.1,1.4,9.3C621.8,202.8,622.2,204.4,622.2,206.1z M622.6,148.1
				c0.7,1.4,1.9,2.3,3,3.3c0.7,0.7,1.2,1.4,2.2,1.6c0.1,0,0.4,0,0.7,0s0.7-0.1,1-0.4c0.4-0.3,0.3-1,0.1-1.5
				c-0.7-1.2-2.2-1.1-3.1-1.9c-0.4-0.4-0.7-0.7-1-1.1h5.3c0.4,0.1,0.8,0.1,1.1,0.1c0.4,0,0.8,0,1.2-0.1h6.6c-0.5,0.3-1.1,0.7-1.6,1
				c-1.9,1.1-4.1,1.6-5.6,3.3c-1.2,1.2-2.3,2.5-3.4,3.8c-0.4,0.4-1,0.7-1.4,0.7c-2.2,0-8.1-6.6-8.7-8.6L622.6,148.1z M633.2,200.5
				c-0.1,1.9-0.5,4-1.6,5.6h-7.1c-0.1-0.4-0.3-0.8-0.1-1.2c0-1.8-0.1-3.7,0.1-5.5c0.1-3.6-1.2-6.8-2.2-10.1
				c-0.8-2.5-1.4-4.8-2.2-7.1c-0.1-0.4-0.3-0.7-0.4-1.1h3.4c1,3,1.5,5.9,2.5,8.6c0.8,2,1.6,4.1,1.9,6.3c0.4,2,0.3,4,0,6
				c-0.3,0.8-0.7,1.5-0.8,2.5c-0.1,0.5,0.3,1.1,0.7,1.4c0.1,0.1,0.4,0.1,0.5,0.1c0.7,0,1.2-0.4,1.5-1c0.1-1.1,0.1-2.2,0.4-3.3
				c0.4-1.8,0.4-3.7,0.1-5.6c-0.3-3.3-1.9-6.1-2.9-9.1c-0.5-1.9-1-4-1.5-5.9h3.3c0.5,2.7,1,5.5,2.2,7.9c0.7,1.4,1.5,2.7,1.9,4.2
				C633.4,195.6,633.4,198,633.2,200.5z M639.1,199.3c0,2.3-0.5,4.5-1.4,6.7c-0.4,0-0.8,0.1-1.2,0.1h-2.3c0.8-1.8,1.4-3.7,1.5-5.6
				c0-2.6,0-5.3-0.4-7.9c-0.4-1.8-1.6-3.1-2.3-4.8c-0.7-1.4-1-2.9-1.2-4.4c-0.1-0.8-0.3-1.5-0.4-2.3h3.1c0.1,1.1,0.4,2,0.5,3.1
				c0.1,1-0.1,1.8,0,2.7c0.3,0.5,0.7,1,1.4,1.1c0.4,0,0.8-0.3,1.2-0.7c0.4-1.2-0.4-2.3-0.4-3.6c-0.1-1-0.3-1.8-0.4-2.7
				c1.6,0.1,3,1.2,3.4,2.7c0.1,0.8,0.1,1.8-0.1,2.7c-0.4,2-1.6,4.1-1.5,6.3C638.7,194.9,639,197.1,639.1,199.3z"/>
		</g>
	</g>
</g>
</svg>
