<?xml version="1.0" encoding="utf-8"?>
<!-- Generator: Adobe Illustrator 24.1.0, SVG Export Plug-In . SVG Version: 6.00 Build 0)  -->
<svg version="1.1" id="Capa_1" xmlns="http://www.w3.org/2000/svg" xmlns:xlink="http://www.w3.org/1999/xlink" x="0px" y="0px"
	 viewBox="0 0 375.4 455.2" style="enable-background:new 0 0 375.4 455.2;" xml:space="preserve">
<style type="text/css">
	.st0{fill:#DFDFDF;}
	.st1{fill:#00CFFF;}
</style>
<path class="st0" d="M282.9,284.4c-13.2-8.8-23.2-20.6-30.7-34.5c-6.4-12.1-10.6-25-13.4-38.3c-2.3-10.8-3.3-21.7-4.5-32.6
	c-1.8-16-4.7-31.7-9.9-47c-3.3-9.7-7.6-18.8-13.7-27.1c-11.1-15.1-26.1-23.1-44.7-24.1c-5.3-0.3-10.6,0.2-16,0.4
	c-1.6,0.1-3-0.1-4.2-1.2c-1.6-1.4-2.1-3.2-1.6-5.2c0.6-2.1,2-3.4,4.2-3.7c15.3-1.7,30.2-0.8,44.4,5.8c10.1,4.7,18.3,11.7,25,20.5
	c8.1,10.6,13.5,22.5,17.5,35.2c5.3,16.5,8.2,33.5,9.7,50.7c1.4,15.6,4,31,9.2,45.8c4.1,11.7,9.8,22.5,17.8,32
	c10.4,12.2,23.4,20.2,38.6,24.7c0.7,0.2,1.5,0.4,2.1,0.7c2.3,1.2,3.4,3.9,2.5,6.3c-0.9,2.5-3.5,4-6.1,3.2c-3.4-1-6.9-2.1-10.2-3.4
	c-2.8-1.1-5.6-2.4-8.3-3.8C288.1,287.5,285.5,285.9,282.9,284.4z"/>
<path class="st0" d="M96.5,13.1c13.3,8.7,23.3,20.4,30.7,34.4c6.9,12.9,11.1,26.7,14,41c1.9,9.5,2.8,19.2,3.9,28.8
	c1.5,14.5,4.1,28.9,8.4,42.9c3.5,11.3,8,22,14.9,31.7c5,6.9,11,12.8,18.4,17.1c8.7,5.1,18.2,7.5,28.3,7.7c4.7,0.1,9.4-0.2,14-0.4
	c2.7-0.1,5,1.5,5.5,4.1c0.5,2.5-0.9,5-3.3,5.9c-0.4,0.1-0.7,0.2-1.1,0.3c-10.4,1.1-20.7,0.9-30.9-1.6c-15.8-3.8-28.3-12.6-38-25.5
	c-7.5-10-12.7-21.3-16.6-33.1c-4.7-14.2-7.4-28.8-9.3-43.6c-1.1-8.9-1.9-17.8-3.2-26.6c-2.2-14.4-6.2-28.4-12.7-41.5
	c-5.7-11.3-13.1-21.2-23.1-29c-8.5-6.7-18-11.3-28.4-14.3c-4.1-1.2-5.4-5.9-2.4-8.7c1.5-1.4,3.2-1.7,5.2-1.1
	C79.9,4,88.5,7.8,96.5,13.1z"/>
<path class="st0" d="M117.6,87.2c-1.1,0.7-2,1.6-3,1.9c-22.6,7-45.4,12.9-69,15.2c-12.4,1.2-24.8,1.3-37.1-0.9
	c-1.4-0.2-2.6-0.7-3.6-1.8c-1.5-1.6-1.7-4-0.6-5.9c1-1.9,3.2-2.8,5.4-2.5c4,0.5,8,1.2,12,1.5c12.4,0.8,24.8-0.4,37.1-2.3
	c17.8-2.9,35.1-7.4,52.3-12.7c3.4-1.1,6.6,0.8,6.9,4.1C118.1,84.8,117.7,86,117.6,87.2z"/>
<path class="st0" d="M373.7,194.8c2,1.4,2.8,4,1.9,6.2c-0.9,2.3-3.2,3.6-5.8,3.2c-4-0.5-7.9-1.2-11.9-1.4
	c-12.7-0.9-25.3,0.4-37.8,2.5c-17.1,2.8-33.7,7.2-50.2,12.2c-0.6,0.2-1.2,0.4-1.8,0.6c-2.8,0.8-5.5-0.7-6.4-3.3
	c-0.9-2.7,0.6-5.6,3.3-6.4c5-1.5,10-3,15-4.4c15.4-4.3,31-7.9,46.9-9.9c12.9-1.6,25.8-2.3,38.7-0.7c2,0.2,4,0.6,5.9,0.9
	C372.3,194.3,373,194.6,373.7,194.8z"/>
<path class="st0" d="M325.9,243.8c-6.8,10.4-13.6,20.8-20.4,31.1c-1.8,2.7-4.8,3.4-7.3,1.8c-2.5-1.6-3-4.8-1.2-7.5c3-4.5,6-9,9-13.5
	c5-7.6,10-15.1,15-22.7c5.7-8.6,11.4-17.3,17.1-25.9c1.4-2.1,3.9-2.9,6.1-2.1c2.2,0.8,3.6,3,3.3,5.4c-0.1,0.8-0.4,1.6-0.9,2.3
	c-6.8,10.4-13.6,20.8-20.5,31.2C326,243.9,325.9,243.8,325.9,243.8z"/>
<path class="st0" d="M60.6,57.3C54.5,66.5,48.5,75.8,42.4,85c-1.7,2.6-4.7,3.3-7.1,1.7c-2.5-1.6-3.2-4.7-1.4-7.3
	c3.7-5.6,7.4-11.2,11.1-16.9c5.7-8.6,11.4-17.2,17.1-25.8c2.8-4.2,5.5-8.3,8.3-12.5c1.8-2.7,4.8-3.4,7.3-1.8c2.5,1.6,3,4.7,1.3,7.4
	c-6,9.2-12.1,18.4-18.1,27.6C60.7,57.4,60.6,57.3,60.6,57.3z"/>
<path class="st1" d="M194.1,152.1c-6,9.1-12,18.3-18,27.4c-1.4,2.1-3.5,2.9-5.7,2.4c-2.1-0.5-3.7-2.4-3.8-4.6
	c-0.1-1.3,0.3-2.5,1.1-3.6c7.1-10.7,14.1-21.3,21.2-32c5-7.5,9.9-15,14.9-22.5c1.8-2.7,4.9-3.4,7.4-1.7c2.4,1.6,2.9,4.7,1.2,7.2
	c-2.7,4-5.3,8.1-8,12.1c-3.4,5.1-6.7,10.2-10.1,15.4C194.2,152.2,194.2,152.2,194.1,152.1z"/>
<path class="st0" d="M198,164.6c5.9-9,11.8-17.9,17.6-26.9c1.2-1.8,2.9-2.8,5.1-2.5c2.1,0.3,3.5,1.5,4.1,3.4
	c0.6,1.7,0.2,3.3-0.8,4.7c-6,9.1-12,18.2-18,27.3c-5.7,8.7-11.4,17.3-17.1,26c-1.5,2.3-3.8,3.2-6.1,2.4c-3.2-1.1-4.5-4.8-2.6-7.7
	c3.5-5.4,7-10.7,10.6-16c2.4-3.6,4.7-7.2,7.1-10.8C197.9,164.5,197.9,164.5,198,164.6z"/>
<path class="st0" d="M174.1,127.8c5.8-8.8,11.5-17.6,17.3-26.4c1.7-2.6,4.8-3.3,7.2-1.7c2.4,1.6,3,4.7,1.3,7.3
	c-11.6,17.6-23.2,35.1-34.8,52.7c-1.8,2.7-4.9,3.4-7.4,1.7c-2.4-1.6-2.9-4.7-1.2-7.4c5.8-8.8,11.5-17.6,17.3-26.4
	C174,127.7,174.1,127.7,174.1,127.8z"/>
<path class="st0" d="M304.5,240.3c-5.4,8.3-10.9,16.6-16.3,24.9c-1.6,2.5-4.4,3.3-6.8,2.1c-2.8-1.5-3.7-4.8-1.9-7.5
	c3.1-4.7,6.2-9.4,9.3-14.1c7.9-11.9,15.8-23.9,23.7-35.8c1.5-2.3,3.8-3.2,6.1-2.4c3.3,1.1,4.5,4.8,2.6,7.8c-2.8,4.3-5.7,8.6-8.6,13
	c-2.7,4-5.3,8.1-8,12.1C304.5,240.4,304.5,240.3,304.5,240.3z"/>
<path class="st0" d="M77.7,54.6c4.6-7,9.1-13.9,13.7-20.9c0.5-0.7,1-1.4,1.7-2c1.9-1.5,4.6-1.3,6.5,0.4c1.9,1.7,2.2,4.4,0.8,6.6
	c-2,3.2-4.1,6.3-6.2,9.5C87,59.3,79.8,70.4,72.6,81.5c-2,3.1-5.5,3.7-8,1.4c-1.9-1.7-2.2-4.4-0.8-6.6c2.1-3.2,4.2-6.5,6.3-9.7
	c2.6-4,5.2-7.9,7.8-11.9C77.8,54.6,77.8,54.6,77.7,54.6z"/>
<path class="st0" d="M163.6,107.3c4-6.2,8.1-12.3,12.1-18.5c1.5-2.3,4-3.1,6.3-2.2c2.3,0.9,3.7,3.2,3.2,5.6c-0.2,0.8-0.5,1.6-1,2.3
	c-8.1,12.2-16.2,24.5-24.3,36.7c-1.6,2.4-4.3,3.2-6.6,2.1c-2.4-1.2-3.5-3.7-2.7-6.2c0.2-0.6,0.6-1.2,0.9-1.8c4-6,7.9-12.1,11.9-18.1
	C163.5,107.2,163.5,107.2,163.6,107.3z"/>
<path class="st0" d="M215.1,193.3c-3.2,4.8-6.3,9.6-9.5,14.4c-2,3-6,3.3-8.2,0.7c-1.5-1.7-1.7-4.2-0.4-6.1
	c6.4-9.7,12.9-19.4,19.4-29.1c1.6-2.4,4.7-3,7-1.4c2.4,1.5,3,4.6,1.5,7.1c-1.6,2.5-3.2,4.9-4.8,7.3c-1.6,2.4-3.2,4.9-4.8,7.3
	C215.2,193.3,215.2,193.3,215.1,193.3z"/>
<path class="st0" d="M275.2,229.7c2.9-4.5,5.9-9,8.9-13.5c1.7-2.6,4.8-3.3,7.2-1.7c2.4,1.6,3,4.7,1.3,7.3
	c-5.9,8.9-11.8,17.8-17.8,26.8c-1.6,2.3-4,3.1-6.4,2.1c-2.2-0.9-3.6-3.4-3-5.7c0.2-0.8,0.6-1.5,1-2.1c2.9-4.4,5.8-8.9,8.7-13.3
	C275.1,229.6,275.2,229.7,275.2,229.7z"/>
<path class="st0" d="M106,67.1c-2.5,3.9-5,7.7-7.6,11.6c-1.2,1.8-3.4,2.6-5.5,2c-2-0.6-3.6-2.3-3.7-4.4c0-1.1,0.3-2.5,0.9-3.4
	c5-7.6,10.1-15.2,15.1-22.8c1.6-2.4,4.7-3,7.1-1.4c2.4,1.6,3,4.6,1.4,7.1c-2.5,3.8-5,7.7-7.5,11.5C106.1,67.1,106.1,67.1,106,67.1z"
	/>
<path class="st0" d="M158.1,97.4c-1.2,1.9-2.4,3.7-3.7,5.6c-1.7,2.5-4.7,3.2-7.1,1.6c-2.4-1.6-3.1-4.7-1.4-7.2
	c2.5-3.8,5-7.5,7.6-11.3c1.6-2.4,4.8-2.9,7.1-1.3c2.3,1.6,2.9,4.6,1.4,7c-1.2,1.9-2.5,3.8-3.7,5.7C158.2,97.5,158.1,97.5,158.1,97.4
	z"/>
<path class="st0" d="M230.1,206.9c-1.2,1.9-2.4,3.8-3.7,5.6c-1.2,1.7-3.4,2.3-5.4,1.7c-2.1-0.6-3.4-2.1-3.6-4.2
	c-0.1-1.2,0.2-2.5,0.8-3.5c2.2-3.5,4.6-6.9,7-10.3c1.7-2.4,4.8-2.9,7.1-1.3c2.3,1.6,2.9,4.6,1.3,7.1c-0.3,0.5-0.6,0.9-1,1.4
	c-0.8,1.2-1.6,2.5-2.4,3.7C230.2,207,230.1,207,230.1,206.9z"/>
<path class="st1" d="M327.8,118.5C311.9,42.7,240.7-5.6,164.7,7.9C80.1,22.9,28.5,112,57.6,192.8c5.1,14.2,12.3,27.3,22.2,40.3
	c-1.4,1-3,1.7-4.1,2.8c-29,28.9-38.1,38.1-67.1,67c-1.3,1.3-2.7,2.7-3.9,4.2c-7.3,9.7-2.6,23.8,9,27.1c7.2,2,13.3-0.3,18.6-5.6
	c29.3-29.4,38.9-38.9,68.1-68.3c1.1-1.1,1.7-2.8,2.6-4.2c2,1.7,2.8,2.3,3.5,2.8c29.5,21.5,62.4,30.4,98.7,26.8
	c58.5-5.9,108.2-49.7,121.4-107.1c1.7-7.4,2.7-15,4-22.5c0-6.6,0-13.1,0-19.7C329.7,130.5,329,124.4,327.8,118.5z M190.7,271.2
	c-69,0-125-55.9-125-125s55.9-125,125-125s125,55.9,125,125S259.7,271.2,190.7,271.2z"/>
</svg>
