<?xml version="1.0" encoding="utf-8"?>
<!-- Generator: Adobe Illustrator 24.1.0, SVG Export Plug-In . SVG Version: 6.00 Build 0)  -->
<svg version="1.1" id="Capa_1" xmlns="http://www.w3.org/2000/svg" xmlns:xlink="http://www.w3.org/1999/xlink" x="0px" y="0px"
	 viewBox="0 0 644.2 95" style="enable-background:new 0 0 644.2 95;" xml:space="preserve">
<style type="text/css">
	.st0{fill:#00CFFF;}
</style>
<g>
	<path class="st0" d="M37.4,67.4c1.8,0.5,2.9,1.2,4,1.8c1.5,0.7,3,1.1,4.6,1.4c3.1,0.8,6.3,1.2,9.4,1.5c5.6,0,11.5-3.7,15.4-7.6
		c2-2.2,3-5.2,3.3-8.2c0-2.7,0-5.3-0.4-8.1c-0.3-1.8-1.6-3.1-2.3-4.6c-0.7-1.4-1-2.9-1.2-4.4c-0.3-2.2-1.2-7-2.3-8.9
		c-0.8-1.1-1.8-2-2.5-3.3c-1.6-2.7-1.6-6-3-8.9c-0.8-1.8-2.5-2.7-3.8-4c-2-2-4.1-4.1-5.7-6.4c-0.8-1.4-1.5-2.9-1.6-4.5
		c1.2-0.4,2.5-0.3,3.6,0C55,3.6,55.2,4,55.3,4.4c0.7,2.9,6.1,8.7,9,9.6c0.8,0.3,1.5,1.1,1.5,2c0.1,3.4,1.8,6.6,1.9,9.8
		c0,0.7,0.7,1.2,1.4,1.4c0.7-0.1,1.4-0.8,1.4-1.5c-0.3-1-0.7-1.8-1-2.7c-0.4-2.5-0.8-4.8-1.4-7.2c-0.1-0.5-0.1-1.1,0-1.6
		c0.3-0.4,0.7-0.8,1.1-1.1c0.8-0.7,1.4-1.5,2-2.2c0.5,0.5,1.1,1,1.6,1.5c-0.3,0.4-0.4,1-0.5,1.4c-0.1,1.1-0.4,2-0.5,3
		c-0.1,2.7,1,5.2,1,7.9c0,2.3-1.2,4.5-0.8,6.8c1,3.7,1.6,7.2,1.6,11.1c0.3,0.7,0.7,1.1,1.4,1.2c0.4,0,1-0.4,1.2-0.8
		c0.4-1.1-0.4-2.3-0.4-3.6c-0.1-2.2-0.5-4.2-1.1-6.4c-0.4-1.9-0.3-4,0-6c0.3-1.5,0.3-3,0.1-4.5c-0.3-2.2-0.8-4.4-0.5-6.6
		c0.1-0.4,0.4-0.8,0.5-1.2c1,1.2,1.9,2.6,2.7,4.1c0.1,2.7,0.5,5.6,0.3,8.3c-0.3,2.5,0,5.1,0.4,7.5c0.4,2.5,1,5.1,0.4,7.5
		c-0.3,2.2-1.6,4.1-1.5,6.3s0.4,4.4,0.5,6.4c0,5.3-2.6,10.7-6.8,13.8c-2,1.5-4.2,3-6.3,4.4c-3.1,2-6.6,2-10.1,2
		c-3.7-0.4-7.4-1.1-11.1-1.9c-3-1-5.9-2.5-8.6-4.1c-0.8-0.5-1.2-1.4-2-1.8c-0.3-0.1-0.5-0.1-0.8-0.1s-0.7,0-1,0.3
		c-0.4,0.4-0.3,1.1-0.1,1.6c0.3,0.5,0.8,1,1.5,1.2c2,1,4,2.2,6,3.4c3.1,1.8,12.2,3.4,15.8,3.6c0.5,0.1,1.2,0.1,1.8,0.1
		c1.4,0,2.7-0.1,4.1-0.3c1.6-0.3,3.3-0.7,4.6-1.5c2.9-1.6,7.8-5.1,10.1-7.2c2.2-2.2,3.3-4.9,4.4-7.8c0.8-2.3,1.1-4.8,0.7-7.2
		c-0.1-2-0.4-4.1-0.1-6.1c0.3-1.8,1-3.6,1.2-5.3c0.7-4-0.7-7.8-1-11.6c0-1.9,0-3.8,0.1-5.7c2,5.9,3.1,13.1,3.1,21.4
		c-0.3,1.2-0.4,2.3-0.4,3.6c0,4.5-0.1,8.3-1,12.8c-0.4,0.8-0.8,1.6-1.1,2.5c-1,1.9-1.6,3.8-3.1,5.3c-2.9,2.7-6.7,4.4-9.7,7.1
		c-3.1,2.7-7.5,3.3-11.5,3.3c-1.1,0-2.2-0.1-3.3-0.1c-3.1-0.4-15.4-2.3-17.6-4.5c-0.5-0.5-0.8-1.2-1.4-1.8c-0.3-0.3-0.7-0.4-1.1-0.4
		c-0.1,0-0.4,0-0.7,0.1c-0.7,0.3-0.7,1.2-0.4,1.8c0.3,0.7,1,1.1,1.5,1.6c0.5,0.4,1.1,1.1,1.8,1.5c2.9,1.6,15.8,3.7,19,4
		c1,0.1,1.9,0.1,2.9,0.1c2.6,0,8.6-0.7,10.8-2.5c1.2-1.1,2.5-2.3,3.8-3.3c1.2-0.7,2.5-1.5,3.7-2.3c1.1-0.8,2.3-1.6,3.4-2.6
		c-1,2.3-2.2,4.6-3.6,6.6c-0.4,0.3-0.8,0.5-1.4,0.8c-1,0.5-2.3,0.3-3,1.2c-0.5,0.8,0.1,1.9,1.1,1.9c-0.7,0.7-1.4,1.4-2,2
		c-0.7-0.1-1.5-0.3-2.2-0.3c-0.4,0-0.8,0-1.2,0.1c-2.7,0.5-5.3,1.4-8.2,1.4c-0.1,0-0.3,0-0.4,0c-2.9,0-5.6-0.3-8.3-0.7
		c-4.8-1-9.6-1.9-14.2-2.9c-5.1-1-5.5-4.2-6-8.9c-0.1-1.5-0.7-2.9-0.8-4.2c-0.1-1.5-0.1-3-0.4-4.5c-0.1-1-0.5-1.8-1-2.7
		c-1-2-1.8-4.1-2.7-6.1c-0.5-1.1-1.1-2.3-1.5-3.6c-0.1-0.7,0.1-1.6-0.3-2.5c-0.3-0.4-0.8-0.8-1.4-0.8c-0.3,0-0.5,0.1-0.7,0.3
		c-0.7,0.4-0.5,1.4-0.4,2c0.5,1.6,1,3.3,1.8,4.8c1.1,2.3,2.2,4.6,3.1,7c0.7,1.5,0.8,3.1,1,4.8c0.3,3.6,1.6,11.2,3.4,14.2
		c0.5,1.1,1.8,1.8,2.9,2c1.6,0.4,3.1,0.5,4.6,1c6.1,1.2,12.2,2.5,18.4,3.1c0.4,0,0.8,0,1.2,0s1,0,1.5,0c0.3,0,0.5,0,0.7,0
		c2.7,0.1,5.2-0.8,7.8-1.2c-3.1,1.9-6.7,3.4-10.8,4.4c-3.6-0.3-6.8-0.8-10.2-1.5c-5.1-1.1-10-1.9-15-2.9c-1.1-0.1-2.3,0-3.3-0.7
		c-0.7-1-0.5-2.3-1.1-3.4c-1.8-5.1-2.7-10.7-3.4-16c-0.4-2.7-1.5-5.3-2.7-7.8c-1-1.5-1.6-3.1-2.7-4.5c-0.5-0.7-1-1.5-0.7-2.3
		c0.5-1,1.1-1.9,1.5-2.9c0.5-1.2,1.1-2.6,1-4.1c0-1.2-0.4-2.3-0.8-3.6c-0.5-2-1.1-4.1-1.8-6.1c-1-3.4-1.8-6.4-2.6-9.4
		c-0.8-2.7-1.4-5.6-2.2-8.3c-1.4-4.2-7.9-9-11.6-11.2c0.1-1.1,0.5-2.2,1.4-3c0.8,0.4,1.6,1,2.3,1.5c2,1.4,4.2,2.5,5.7,4.4
		c1.1,1.4,2.3,2.5,3.6,3.6c1.1,1.1,1.6,2.6,1.8,4c0.5,2.2,1,4.5,1.6,6.7c0.3,1.4,0.7,2.7,1.1,4.1c1.4,4.1,2.2,8.2,3.4,12.3
		c0.5,1.5,0.8,3.1,1.4,4.6c0.5,1.6,1.8,2.7,2.6,4.2c0.8,1.4,1.2,2.9,1.9,4.4c0.8,2.2,3.4,9.7,5.5,10.7
		C33.2,66.1,35.1,67.4,37.4,67.4z M16.5,47.6c-0.4,1.2-1,2.5-1.5,3.6c-0.1,0.7-0.8,1-1.5,1c-1.8-0.1-3.7-1-4.6-2.5
		c-1-1.6-1-3.4-1.2-5.2C7,40,5,35.8,3.9,31.4c-0.8-2.9-1.2-5.7-2.5-8.3c-0.3-0.8-0.7-1.5-1.2-2v-4.6c0.5,0.5,1.1,1,1.6,1.5
		c1.8,1.8,2.9,4,3.4,6.3c0.8,3,1.5,6,2.5,8.9c1.2,4,2.5,7.8,3.3,11.9c0.1,1.2-0.4,2.7,0.7,3.7c0.3,0.3,0.5,0.4,0.8,0.4
		c0.7,0,1.4-0.8,1.4-1.6c-0.4-3.3-1.8-8.1-2.7-11.2c-1.2-4-2.3-7.9-3.4-11.9c-1.2-5.6-3-7.4-7.2-10.8l-0.3-4c1.6,1,3.1,2,4.5,3.3
		c1.4,1.4,2.9,2.6,3.8,4.2c1.4,1.9,1.6,4.2,2.3,6.6c1.2,5.2,3,10.2,4.4,15.6c0.3,1.6,1,3.1,1.4,4.8c0.1,0.7,0.1,1.5,0.1,2.2
		C16.6,46.7,16.6,47.2,16.5,47.6z M22.2,90c-1.4,1.2-2.9,2.3-4.4,3.3h-7.1c1.9-0.8,3.8-1.8,5.7-2.9c0.7-0.5,1.5-1.1,2.2-1.6
		c0.8-0.7,1.8-1.5,1.9-2.6c0.4-1.4-0.1-2.9-0.5-4.2c-0.5-2-0.8-4.2-1.4-6.3c-0.4-1.6-1.1-3.3-1.2-5.1c0-0.8-0.1-1.8-0.1-2.6
		c-0.1-1.4-0.4-2.6-0.8-3.8c-0.8-1.9-1.9-3.6-3.1-5.1c-1.6-2-4.1-2.5-6.3-3.6c-1.5-0.8-3-1.9-3.6-3.6c-0.8-3-1-6-1.8-9
		c-0.4-1.6-1-3.3-1.6-4.9V26.4c0.7,2.2,1.1,4.4,1.6,6.7c0.7,2,1.5,4.1,2.2,6.3s1.2,4.5,1.5,7c0.4,1.9,0.7,4.1,2.2,5.6
		c1.4,1.2,3,2.2,4.9,2.2c0.7,0.1,1.6,0,2,0.5c1.5,1.8,3.7,6.1,4.5,8.2c1.1,2.3,1.5,5.1,1.8,7.6c0.5,3.1,1.2,6.4,2,9.6
		c0.5,1.9,0.8,3.8,1.6,5.5c0.3,0.7,0.7,1.4,0.1,2C24.1,88.6,23.1,89.1,22.2,90z M16.5,87.5C16,87.8,15.4,88,15,88.3
		c-3.3,2.3-6.8,3.7-10.7,4.6c-1.5-0.3-2.7-1.2-3.4-2.6c3.6-0.1,9.4-2.2,12.2-4.6c1-0.8,1.5-2.2,1.4-3.4c-0.3-2.3-1.2-8.3-3-10.1
		c-0.8-0.8-2-1.5-3-2.2c-1.1-0.8-1.9-1.8-2.9-2.5C4,66,2,65,0.1,64.2v-3.6c1.5,0.8,3,1.4,4.5,2.2c2,1.1,4.1,2.5,5.2,4.6
		c0.1,0.7,0.5,1.2,1.2,1.4c0.1,0.1,0.1,0.1,0.3,0.1c0.5,0,1-0.4,1.2-0.7c0.1-0.7,0.1-1.4-0.3-1.8c-3-3.7-4.2-4.5-8.6-6.7
		C2.5,59,1.1,58.6,0,57.8V46.3c0.1,1.1,0.4,2.3,0.5,3.6c0.4,1.9,0.7,4,2.2,5.5c2.5,2.3,6.1,2.7,8.7,5.1c1.2,1.5,2.3,3.1,3,4.9
		c0.7,1.9,0.3,4,0.5,5.9c0.1,1.4,0.7,2.6,1,3.8c0.1,0.3,0.3,0.7,0.4,1.1c0.5,2.2,0.8,4.4,1.4,6.6c0.3,0.8,0.4,1.6,0.3,2.5
		c-0.1,0.8-0.7,1.4-1.2,1.8L16.5,87.5z M0.1,88.1v-3.2c2,0,7.6-0.8,8.1-3.4c0.7-1.4,0.1-2.9-0.3-4.2c-1-2.2-3-3.6-4.8-4.9
		c-1.1-0.7-2-1.4-3-1.9v-3.6c2.3,1.2,8.7,5.6,10.1,7.8c0.8,1.4,1,3,1.2,4.5c0.3,1.2,0.7,2.6,0.4,4C10.8,86,2.7,88.1,0.1,88.1z
		 M0.9,82.7l-0.8-3c1,0.4,1.1,0.5,1.2,0.5c0.8,0,1.6-1,1.4-1.9c-0.5-1-1.6-1.1-2.6-1.4v-3.8c0.5,0.4,1,0.7,1.5,1.1
		c1.8,1.1,3.7,2.5,4.4,4.5c0.3,1-0.1,2.3-1.1,2.9C3.8,82.3,2.3,82.6,0.9,82.7z M5.7,1.8h2.5c1.1,0.8,2.3,1.6,3.8,1.6
		c1.5-0.1,2.9-0.7,4.2-1.4l4.1-0.3c-0.3,1.1-0.5,2.2-0.4,3.4c0.3,1.6-0.1,3.3-0.4,5.1c-0.3,1.5,0.3,2.9,0.5,4.4
		c0.7,2.5,0.8,5.1,1.5,7.5c0.7,3,2,5.7,2.7,8.7c1.2,7,2.7,10.2,5.7,16.2c0.7,1.4,1.2,2.7,1.8,4.1v8.2c-0.5-1.1-1-2.3-1.5-3.6
		c-1-2.2-1.6-4.5-2.7-6.7c-1-2.2-2.7-4.1-3.4-6.4c-1-3.4-1.9-6.8-2.7-10.2c-0.8-3.4-2-6.6-2.9-9.8c-0.7-2.3-1-4.6-1.5-7
		c-0.1-0.7-0.3-1.4-0.5-2c-0.4-0.8-1-1.6-1.8-2.2c-1.5-1-2.7-2.3-3.7-3.7s-2.5-2.2-3.8-3C6,3.9,4.7,2.9,3.5,2.1
		C4.2,1.9,4.9,1.8,5.7,1.8z M14.2,7.5c0.3,1.1,1.5,1.2,2.3,1.2c1.5-1.2,1.1-3,0-3.7c-0.5-0.1-0.7-0.1-1-0.1c-0.4,0-0.8,0.1-1.1,0.4
		C13.9,5.8,13.9,6.8,14.2,7.5z M26.3,1.8c-0.8,2.9-1.1,5.7-0.8,8.5c0.3,2,0.5,4,0.5,5.9c0,2.3,0.4,4.6,1.4,6.8
		c0.7,1.6,1.5,3.1,1.9,4.9c0.4,1.4,0.4,2.7,0.5,4.1c0.3,2.2,1.1,4.1,1.9,6v7.5c-0.3-0.5-0.4-1-0.7-1.4c-1.6-3-2.9-6.3-3.7-9.7
		c-0.7-2.3-1-4.8-1.6-7c-1.4-4-2.2-6.8-2.9-11.1c-0.3-2.2-1.1-4.2-1-6.4c0.4-2.2,0.3-4.5,0.5-6.7c0.1-0.5,0.3-1,0.4-1.5L26.3,1.8
		L26.3,1.8z M41.1,91.5c2.2,0.4,4.5,0.7,6.7,1.4c-2.5,0.3-4.9,0.4-7.6,0.4h-7.1c-0.7-0.1-1.4-0.1-2-0.3c-0.3-0.1-0.7-0.1-1-0.1
		c-0.7,0-1.4,0.1-2,0.4h-6c0.8-0.7,1.6-1.2,2.5-1.8c0.8-0.7,1.2-1.8,2.2-2.3c0.3-0.1,0.4-0.1,0.7-0.1c0.5,0,1.1,0.1,1.5,0.3
		c1.2,0.4,2.5,0.4,3.7,0.7C35.3,90.4,38.2,90.9,41.1,91.5z M27.8,8.2c0-2.2,0.4-4.4,1-6.4h3.3c-0.7,2.7-1.1,5.6-0.7,8.5
		c0.1,1.9,1.9,3.1,3.1,4.2c1.8,1.5,2.6,3.7,3.7,5.6c1.5,2.6,4.1,4.4,6.1,6.8c0.5,0.7,1.1,1.5,1.5,2.3c-1.2-0.7-2.9-1.2-4.8-1.4
		c-1.9-2-3.4-2.9-4.5-4.2c-1.4-1.6-2.6-4.5-3.1-6.6c-0.1-0.7-0.7-1.4-1.5-1.4s-1.5,1-1.4,1.6c0.1,0.3,0.3,0.7,0.5,1
		c1.5,2.2,1.9,5.1,3.7,7.1c0.7,1,1.8,1.5,2.7,2.2c-2.6,0-4.6,1.5-5.5,3.7c0-2,0-3.8-0.7-5.3c-1.1-2.3-2.3-4.5-2.9-6.8
		c-0.4-2.3,0.1-4.5-0.1-6.7C28.1,11,27.8,9.5,27.8,8.2z M34.2,10.8c-0.8-1.5-0.7-3.1-0.5-4.8c0.3-1.4,0.5-2.9,0.8-4.2h3.3
		c-0.3,1.2-0.5,2.5-0.7,3.7c-0.1,0.7-0.1,1.4,0,2c0.1,1.2,0.7,2.5,1.5,3.6c1.4,1.6,2.6,3.4,3.7,5.1c1.8,2.7,4,4.9,6.1,7.1
		c2.3,2.5,6.6,11.9,7.9,15.6c1.1,2.9,1.8,5.9,2.7,8.7c1.1,3,1.8,6.3,1.4,9.4c-0.3,1.6,0.3,3.4,0.1,5.1c0,0.8-0.1,1.5,0,2.3
		c0.3,0.4,0.5,0.8,1.1,1c0.1,0.1,0.3,0.1,0.4,0.1c0.7,0,1.4-0.7,1.2-1.5c0.1-1.1-0.7-2.2-0.5-3.4c0-1.8-0.1-3.6,0.1-5.3
		c0.1-3.6-1.1-7-2.2-10.2c-0.8-2.3-1.4-4.8-2.2-7.1c-1.1-3.1-2.7-5.9-4.1-8.9c-1-2.5-2-4.9-3.8-6.8c-1.9-2.2-4.2-4.1-5.9-6.7
		c-1.4-2-2.9-4.1-4.4-6.1c-1-1.4-1-3.1-0.7-4.8c0.1-1,0.4-1.8,0.5-2.7c1.1,0,2.2,0.1,3.1,0.1c-0.3,1.5-0.5,3-0.3,4.5
		c0.4,2.3,3.7,6.8,5.3,8.6c1.6,2.2,3.8,4,5.7,6.1c1.1,1.4,1.8,3,2.5,4.8s1.5,3.6,2.5,5.3c1,1.8,2,3.7,2.6,5.9
		c0.8,2.7,1.4,5.6,2.3,8.3c0.8,2,1.6,4.1,1.9,6.3c0.4,1.9,0.3,4,0,5.9c-0.3,0.8-0.7,1.6-0.8,2.5c-0.1,0.5,0.3,1.1,0.7,1.5
		c0.3,0,0.4,0.1,0.5,0.1c0.7,0,1.4-0.4,1.5-1.1c0.1-1.1,0.1-2.2,0.4-3.1c0.4-1.9,0.4-3.8,0.1-5.6c-0.3-3.3-1.9-6.1-2.9-9.3
		c-0.7-2.3-1.1-4.8-1.8-7.1c-1-2.9-2.9-5.3-4.1-8.2C58.4,25.7,58,23.8,57,22c-0.8-1.8-2-3-3.4-4.2c-2.9-2.6-6.8-7.2-8.3-10.9
		c-0.4-1.5-0.3-3.1,0.1-4.6c1.1,0.1,2,0.1,3.1,0.3c-0.1,0.4-0.1,0.8-0.1,1.2c-0.1,2.3,1.2,4.5,2.6,6.3c1.6,2.3,3.4,4.4,5.6,6.1
		c1.2,1.1,2.6,2,3.3,3.6c0.7,1.5,1,3.3,1.5,4.8c0.5,1.9,1.4,3.8,2.6,5.3c0.8,1.4,1.8,2.6,2.2,4.1c1.1,3.7,1.2,7.5,2.9,11.1
		c0.7,1.4,1.5,2.6,1.9,4.1c0.5,2.5,0.4,4.9,0.3,7.4c-0.1,1.9-0.5,4-1.6,5.6s-2.9,2.6-4.2,3.8c-1.9,1.5-4.1,2.9-6.6,3.6
		c-1,0.4-2,0.5-3.1,0.5c-1,0-2-0.1-3-0.3c-3.1,0-8.2-1.2-11.1-2.6c1.4-0.3,2.7-0.8,3.8-1.4c0.3,0.1,0.7,0.3,1,0.1
		c1,0.1,1.6-1,1.2-1.8c0.7-1,1.4-2.2,1.8-3.8c0.1,1.9,0.5,2.9,0.5,3.8c0,0.9-0.3,2,0.4,2.7c0.3,0.4,0.7,0.5,1.1,0.5s0.8-0.1,1.1-0.5
		c0.4-0.8,0.1-1.6-0.1-2.3c-0.8-1.8-0.8-6.8-0.8-9c-0.1-1.6-0.4-3.3-0.8-4.9c0-3.6,0-7.2-0.4-10.8c0.4,1.2,1,2.3,1.4,3.6
		c1.1,3.7,2.5,7.2,2.9,11.2c0,2,0.3,4.1,0.3,6.1c0,1.4,0.4,2.7,0.4,4.1c0,0.8-0.3,2,0.5,2.6c0.3,0.1,0.7,0.3,1,0.3
		c0.4,0,0.8-0.1,1-0.5c0.7-0.8,0.1-2-0.1-2.9c-0.5-1.5-0.3-3.1-0.5-4.6c-0.3-1.9,0.1-4-0.3-6c-0.5-6-7.1-23.8-11.6-28.7
		c-1.6-1.8-3.6-3.3-4.9-5.3c-1.4-1.9-2.2-4-3.8-5.7C36,12.7,34.9,11.9,34.2,10.8z M62.4,5.7c0.5,0.4,1.1,1,1.6,1.4
		c0.7,0.5,1.4,1.2,2.2,1.5c0.1,0,0.4,0,0.7,0c0.3,0,0.5,0,0.8-0.1c0.5,0.3,1.1,0.7,1.6,1.1c-0.7,0.7-1.4,1.5-1.9,2.2
		c-0.4,0.4-1,0.8-1.4,0.8c-0.3,0-0.5-0.1-0.8-0.3c-2.6-1.6-6.8-5.6-7.9-8.3C59.1,4.5,60.9,5,62.4,5.7z"/>
	<path class="st0" d="M89.4,20.9V5.6c0-1.1,0.5-2.2,1.4-2.9c0.3,2-0.1,3.8-0.4,5.5c-0.3,1.5,0.3,3,0.5,4.5c0.7,2.5,0.8,5.1,1.5,7.5
		c0.7,2.9,2,5.6,2.6,8.6c0.8,3.8,1.8,7.6,3.3,11.2c0.7,1.8,1.8,3.4,2.6,5.2c1.4,2.7,2.3,5.6,3.4,8.5c0.5,1.4,1.2,2.9,2.2,3.8
		c1.4,1.4,3,2.2,4.6,3.1c0.7,0.4,6.1,3.1,6.6,3.1c1,0,1.6-1.1,1.2-1.9c-0.4-0.8-1.4-1-2-1.1c-1.4-0.3-7.4-3.6-8.5-4.5
		c-1.1-1.1-1.6-2.7-2.2-4.2c-1.2-3.4-2.5-6.7-4.2-10c-1.6-3-3-6.3-3.8-9.7c-0.5-2.3-0.8-4.6-1.5-7c-0.7-1.9-1.5-3.7-1.9-5.6
		c-0.5-1.8-0.8-3.6-1-5.5c-0.3-2.2-1.2-4.2-1-6.4c0.3-2,0.3-4.1,0.5-6.1h3.3c-0.3,2.2-0.5,4.4-0.3,6.6c0.3,1.9,0.5,3.8,0.5,5.9
		c0,2.3,0.4,4.6,1.4,6.8c0.5,1.6,1.5,3.1,1.9,4.8c0.4,1.4,0.4,2.9,0.5,4.2c0.4,3.1,1.9,6.1,3.3,9c1.1,2.2,2.2,4.4,3.1,6.7
		c0.8,1.9,1.4,4,2.2,5.9c0.5,1,0.5,2,1.1,3c0.3,0.5,0.7,0.7,1.2,0.7c0.4,0,1-0.3,1.1-0.7c0.5-1.2-0.7-2.2-1.1-3.3
		c-0.7-2-1.4-4.1-2.2-6c-1.6-4.2-4-8.2-5.6-12.4c-0.5-1.2-1-2.6-1-4c0-1.6,0-3.6-0.8-5.1c-1-2.2-2.2-4.4-2.7-6.8
		c-0.4-2.2,0.1-4.5-0.1-6.7c-0.3-1.4-0.5-2.7-0.5-4.1c0-1.6,0.1-3,0.5-4.5h3.3c-0.4,2.2-0.5,4.2-0.4,6.6c0.3,1.9,1.9,3,3.3,4.2
		c1.6,1.5,2.6,3.7,3.7,5.5c1.5,2.7,4.1,4.5,6,6.8c3.8,4.1,10.1,21,10.8,27.4c0,2,0.1,4.1,0.3,6.3c0,0.4,0,0.8,0.1,1.2H125
		c-0.7,0-1.4,0.1-1.9,0.4c-0.3-2.2-0.3-4.6-0.3-6.8c-0.3-3.4-1.2-6.7-2.5-9.8c-1.2-4.1-6-15.7-9.1-18.4c-1.2-1.2-2.7-2-3.8-3.4
		c-1-1.2-1.5-2.7-2.2-4.1c-0.5-0.7-0.7-1.6-1-2.5c-0.1-0.7-0.8-1.5-1.5-1.5c-0.8,0-1.5,1-1.4,1.8c0.1,0.3,0.3,0.5,0.4,0.8
		c1.6,2.2,2,5.1,3.8,7.2c1,1.2,2.6,1.8,3.7,2.9c4,3.6,10.9,20.9,11.2,27.4c0.3,1.8,0.1,3.4,0.1,5.2c0,1,0.5,1.9,0.4,3
		c0.1,0.3,0,0.7,0,1.1v1c0,1.5,0.8,2.7,2,3.4c-6.4-0.4-10.4-2.5-15.8-5.6c-1.4-0.7-2.9-1.4-3.8-2.9c-1-1.5-1.6-3.4-2.3-5.1
		c-1-2.2-1.6-4.6-2.7-6.8c-1-2.2-2.7-4-3.4-6.4c-1-3.4-1.9-6.8-2.9-10.2C91.5,27.2,90.2,24,89.4,20.9z M90.8,57.3
		c-0.4-1-0.8-1.8-1.4-2.6v-8.3c0.3-1,0.5-1.9,0.5-2.9s-0.3-1.8-0.5-2.6V29.3c0.8,3,1.6,6,2.5,8.9c0.4,1.6,0.8,3.1,1.4,4.8
		c0.5,1.5,1.8,2.7,2.6,4.1c0.8,1.4,1.2,3,1.9,4.5c0.7,1.8,3.3,8.6,4.6,9.8c1,1.1,2.3,1.5,3.6,2.3c2,1.1,4.1,2.5,6.3,3.4
		c3.7,1.6,10.1,2.7,14.1,2.9c1.6,0,3.3-0.1,4.8-0.5c1.1-0.4,2.2-1,3.3-1.5h5.3c-1.5,1.1-2.9,2-4.5,3c-2.5,1.6-5.6,2.2-8.5,2.2
		c-0.5,0-1-0.1-1.5-0.1c-7.5-0.5-13.4-2-19.7-6c-0.8-0.4-1.2-1.2-2-1.8c-0.3-0.1-0.5-0.1-0.8-0.1s-0.7,0.1-1,0.4
		c-0.4,0.3-0.3,1-0.3,1.5c0.4,0.5,1,1,1.6,1.2c2,1.1,4,2.3,6,3.4c1.9,1.2,4.2,1.6,6.4,2.2c3.1,0.5,6.3,1.2,9.4,1.5
		c0.5,0.1,1.2,0.1,1.8,0.1c1.4,0,2.7-0.1,4.1-0.3c3.6-0.5,6-2.5,8.9-4.4c1.4-1,2.6-1.9,4-2.9h4.9c-3,3-6.8,4.6-9.8,7.2
		c-3.4,3-7.1,3.3-11.5,3.3c-1.1,0-2.2,0-3.3-0.1c-4.1-0.4-8.1-1.4-12-2.2c-1.9-0.5-4.1-0.8-5.6-2.2c-0.5-0.5-0.8-1.4-1.4-1.9
		c-0.3-0.3-0.7-0.4-1.1-0.4c-0.1,0-0.4,0.1-0.7,0.1c-0.7,0.4-0.7,1.2-0.4,1.9c0.3,0.7,1,1.1,1.5,1.5c1.9,1.9,3,2.3,5.6,2.9
		c5.1,1.1,10,2.2,15.2,2.7c1,0,1.9,0,2.9,0c0.8,0,1.6,0,2.5,0c1.8-0.3,3.7-0.5,5.5-1.1c1-0.3,2-0.5,2.9-1.4c1.2-1.1,2.5-2.3,3.8-3.1
		c1.2-0.8,2.5-1.5,3.7-2.5c1.8-1.2,3.7-2.5,4.9-4.2l2.9-0.5c0.4,0,0.8,0,1.1,0.1c-0.5,1.5-1.1,2.7-1.9,3.7c-1.1,1-2.5,1.5-3.6,2.3
		c-1.8,1.1-3,2.6-4.9,3.4c-1,0.5-2.3,0.3-3,1.4c-0.5,0.8,0.3,2,1.4,1.9c1.1-0.3,1.9-1,3-1.2c1.6-0.7,2.7-2.2,4.1-3.3
		c1.2-0.8,2.6-1.4,3.8-2c1.4-0.8,2-2,2.6-3.4c0.1-0.5,0.4-1,0.5-1.4c0.5,0.7,0.8,1.5,0.8,2.3v4.5c-0.3,0.3-0.4,0.4-0.8,0.5
		c-1.1,0.5-2.3,0.8-3.4,1.1c-1,0.3-1.9,0.1-2.7,0.7s-0.7,2,0.3,2.3c0.1,0,0.3,0.1,0.5,0.1c0.5,0,1-0.3,1.5-0.5
		c1.5-0.7,3.1-0.8,4.6-1.2v3.1c-1.1,0.4-2.2,0.7-3.4,1c-0.4,0-1,0-1.5,0c-0.4,0-1,0-1.5,0c-1.4-0.3-2.6-0.7-4-0.7
		c-0.1,0-0.4,0-0.5,0c-1.1,0.1-2.2,0.4-3.4,0.4c-1.6-0.1-3.4-0.7-5.1-0.7c-0.4,0-0.8,0-1.2,0.1c-2.7,0.5-5.5,1.5-8.2,1.5
		c-0.1,0-0.3,0-0.5-0.1c-0.3,0.1-0.5,0.1-0.8,0.1c-2.5,0-4.9-0.4-7.4-0.8c-4.8-0.8-9.6-1.9-14.3-2.9c-1.4-0.3-3.1-0.5-4-2
		c-1.1-1.8-2.5-8.6-2.7-11.1c-0.1-1.5-0.1-3-0.4-4.5c-0.3-1.8-2.9-7.1-3.7-8.7c-0.5-1.2-1.1-2.3-1.5-3.6c-0.1-0.8,0.1-1.6-0.3-2.5
		c-0.3-0.5-0.8-1-1.4-1c-0.3,0-0.5,0.1-0.7,0.3c-0.8,0.4-0.5,1.4-0.4,2c0.5,1.6,1,3.4,1.8,4.9c1.1,2.2,2.2,4.5,3.1,6.8
		c0.7,1.6,0.8,3.3,1,4.9c0.3,3.6,1.8,11.3,3.4,14.2c0.5,1.1,1.8,1.6,2.9,1.9c1.5,0.4,3.1,0.7,4.6,1c3.8,0.8,7.8,1.6,11.6,2.3
		c2.3,0.5,4.5,0.7,6.8,1c0.4,0,0.8,0,1.1,0c0.5,0,1.1,0,1.6,0c0.3,0,0.4,0,0.7,0c3,0,5.9-1.2,8.9-1.5c1.2,0,2.5,0.3,3.8,0.4
		c0.5,0,1,0,1.5,0c1.1,0,2.2,0,3.1-0.1c2.2,0,4.2,0.4,6.3,0.5c1.6,0,3.1-0.3,4.6-0.8v3.6c-1.1,0-2,0-3.1,0.1
		c-0.4,0.1-0.8,0.1-1.2,0.1c-1.4,0-2.7-0.3-4.1-0.3c-0.1,0-0.1,0-0.3,0c-1.5-0.1-3-0.1-4.5-0.1c-1.1,0-2.2,0-3.4,0
		c-0.4,0-0.8,0-1.2,0c-2.7,0-5.2,0.5-7.8,1.1c-0.8,0.1-1.8,0.4-2.7,0.4c-0.3,0-0.4,0-0.7,0c-2.2-0.4-4.4-0.7-6.7-0.7
		c-1.9-0.1-3.8-0.8-5.7-1.2c-5.1-1-10.1-1.8-15-2.7c-1.1-0.3-2.3,0-3.3-0.7c-0.7-1-0.5-2.3-1.1-3.4c-1.8-5.2-2.7-10.7-3.4-16
		C93.2,62.4,92.1,59.8,90.8,57.3z M93.1,87.9c-1.1,1-2.2,1.9-3.4,2.7c-0.1-0.4-0.3-0.8-0.3-1.4v-2.5c1-0.8,1.8-1.5,2-2.6
		c0.3-1.5-0.1-2.9-0.5-4.4c-0.5-2-0.8-4.1-1.4-6.3l-0.1-13.9c0.1,0.4,0.4,0.8,0.5,1.2c1.1,2.5,1.4,5.1,1.6,7.6
		c0.5,3.3,1.4,6.4,2.2,9.7c0.5,1.8,0.8,3.7,1.6,5.5c0.3,0.5,0.5,1.4,0.1,2C94.9,86.6,93.9,87.1,93.1,87.9z M154,93.2h-38.6
		c-4.9-1.2-9.3-1.6-13.5-2.3c-1.9,0-3.3,0-4.9,1.2c-0.4,0.4-0.8,0.7-1.4,1.1h-2.2c-0.8,0-1.6-0.3-2.2-0.7c1.4-1,2.7-2,4.1-3.1
		c0.8-0.7,1.2-1.8,2.2-2.3c0.3,0,0.4-0.1,0.7-0.1c0.5,0,1,0.3,1.5,0.3c1.2,0.4,2.5,0.5,3.7,0.7c4.5,0.7,11.9,1.8,16.1,3.1
		c1.1,0.4,2.2,0.5,3.4,0.5c0.4,0,0.8-0.1,1.2-0.1c0.1,0,0.3,0,0.4,0c1.6,0,3.3,0.8,5.1,0.7c1.2,0.1,2.5-0.3,3.7-0.5
		c1.9-0.4,3.8-0.8,5.7-1c0.4,0,1,0,1.4,0c1.4,0,2.6,0,4,0c1.1,0,2.3,0,3.4,0c1.8,0.3,3.4,0.1,5.2,0.4c0.3,0,0.5,0,0.7,0
		c1.2,0,2.5-0.1,3.6-0.1c0.1,0,0.3,0,0.5,0C157,92.3,155.6,93.2,154,93.2z M105.1,8.7c-1-1.4-0.8-3.1-0.5-4.6
		c0.1-0.8,0.3-1.6,0.4-2.3h3.3c-0.1,0.5-0.3,1.1-0.3,1.8c-0.1,0.7-0.1,1.2,0,1.9c0.1,1.4,0.7,2.6,1.5,3.6c1.4,1.6,2.6,3.4,3.7,5.2
		c1.6,2.6,4,4.8,6.1,7c1.6,1.8,2.7,4.1,3.8,6.4c-1.2,0.5-1.9,1.8-2,3.1c-1.2-2.9-2.6-5.7-4.6-7.9c-1.6-1.9-3.6-3.4-4.9-5.5
		c-1.4-1.8-2.2-4-3.8-5.6C106.9,10.6,105.8,9.8,105.1,8.7z M117.8,55.4c-0.5-1.6-0.3-3.4-0.8-5.1c-1.6-6.3-4.5-12.2-7.4-17.9
		c-0.7-1.2-1.2-2.5-1.6-3.8c-0.1-0.7-0.8-1.2-1.5-1.2c-0.3,0-0.4,0-0.7,0.1c-0.7,0.3-0.7,1.2-0.4,1.9c0.4,0.8,1.1,1.5,1.5,2.3
		c2,4.9,4.6,9.6,6.3,14.5c1,2.7,2,5.3,2.2,8.2c0,1-0.5,2.2,0.1,3.1c0.1,0.4,0.7,0.7,1.1,0.7s0.8-0.1,1.1-0.5
		C118.2,57.1,118,56.2,117.8,55.4z M128.7,27h-3.3c-1.1-2.5-2.2-4.9-4-6.8c-1.9-2.3-4.2-4.2-5.9-6.7c-1.5-2-3-4.1-4.4-6.3
		c-1-1.4-1-3.1-0.7-4.8l3.4-0.7c-0.1,0.8-0.1,1.8,0,2.6c0.3,1.6,1.2,3,2,4.4c1.1,1.5,2,2.9,3.3,4.2c1.6,2.3,3.8,4,5.6,6.1
		c1.2,1.4,1.9,3.1,2.6,4.8C127.9,25,128.3,25.9,128.7,27z M116.5,1.8h3.3c0,4.1,5.2,9.8,8.2,12.3c1.2,1,2.5,1.9,3.3,3.4
		c0.7,1.5,1,3.3,1.5,4.9c0.4,1.6,1.2,3.1,2.2,4.6h-3.6c-0.3-0.5-0.5-1.1-0.8-1.8c-0.8-1.8-1.2-3.7-2.2-5.5c-0.8-1.6-2.2-3-3.4-4.2
		c-2.3-2-7.2-7.8-8.3-10.8C116.3,3.8,116.3,2.7,116.5,1.8z M158,23.1c0,1.4-0.7,2.6-1.8,3.3c-0.1-2.7,0-5.6-0.1-8.3
		c-0.3-3.4,0-6.7,0-10.1c0-1.1,0.8-2,0.7-3.1c0-0.8-0.7-1.4-1.4-1.4c-0.3,0-0.5,0.1-0.7,0.3c-0.8,0.5-0.8,1.6-0.8,2.5
		c0,1.1-0.1,2.2-0.1,3.3c0,5.9,0,11.7,0.3,17.6h-3.3c0-3.4,0.1-6.7-0.1-10.1c-0.1-1.8,0.3-3.6,0.1-5.3c-0.1-1.1,0.1-2.2,0.4-3.1
		c0.3-1-0.5-2-1.5-2c-0.1,0-0.3,0-0.3,0c-1,0.3-1.2,1.4-1.1,2c0.4,2.6,0.1,5.1,0,7.6c0,3,0.5,6,0.3,9.1c-0.1,0.5-0.1,1.1-0.1,1.8
		h-3.3c0.1-0.7,0.1-1.4,0.3-1.9c0.3-1.5,0.3-3,0.1-4.5c-0.3-2.2-0.8-4.4-0.5-6.7c0.3-1,1.2-1.8,1.1-3c-0.1-0.5-0.8-1.1-1.4-1.1
		c-0.3,0-0.4,0.1-0.7,0.1c-0.5,0.4-0.8,1.2-1,1.9c-0.1,1-0.5,1.9-0.5,2.9c-0.1,2.7,1,5.3,1,7.9c0,1.5-0.5,2.9-0.7,4.4h-5.2
		c-0.5-0.7-1.1-1.2-1.4-1.9c-1.6-2.7-1.8-6.1-3-9c-0.8-1.6-2.5-2.7-3.8-4c-2.2-1.9-4.1-4-5.7-6.4c-0.8-1.1-1.4-2.5-1.5-4h3.6
		c0.8,3.3,6,9.1,9.3,10.4c0.8,0.3,1.5,1,1.5,1.9c0.1,3.4,1.8,6.6,1.8,10c0.1,0.7,0.8,1.2,1.5,1.2c0.7-0.1,1.4-0.7,1.2-1.5
		c-0.1-1-0.7-1.8-0.8-2.7c-0.5-2.3-0.8-4.8-1.4-7.1c-0.1-0.5-0.1-1.1,0-1.6c0.3-0.5,0.7-0.8,1.1-1.2c1-0.7,1.5-1.9,2.5-2.6
		c2.9-2.6,6.6-3.8,9.7-5.9c0.5-0.3,1.1-0.5,1.8-0.8h0.1c2.2,0,4,1.8,4,3.8v17.3C158.2,23.1,158,23.1,158,23.1z M131.5,59.8h-3
		c0-0.8,0-1.6-0.1-2.3c-0.3-2,0.1-4.1-0.3-6.1c-0.3-3-1.4-5.9-2.2-8.9c-1-2.9-2-5.7-3.3-8.5c0.7,0.5,1.5,0.8,2.5,0.8h1.4
		c0.3,0.7,0.5,1.2,0.8,1.9c1,3,1.8,6,2.7,8.9c1.1,3,1.8,6.1,1.4,9.3C131.1,56.5,131.5,58.1,131.5,59.8z M131.9,1.8
		c0.7,1.4,1.9,2.3,3,3.3c0.7,0.7,1.2,1.4,2.2,1.6c0.1,0,0.4,0,0.7,0s0.7-0.1,1-0.4c0.4-0.3,0.3-1,0.1-1.5c-0.7-1.2-2.2-1.1-3.1-1.9
		c-0.4-0.4-0.7-0.7-1-1.1h5.3c0.4,0.1,0.8,0.1,1.1,0.1c0.4,0,0.8,0,1.2-0.1h6.6c-0.5,0.3-1.1,0.7-1.6,1c-1.9,1.1-4.1,1.6-5.6,3.3
		c-1.2,1.2-2.3,2.5-3.4,3.8c-0.4,0.4-1,0.7-1.4,0.7c-2.2,0-8.1-6.6-8.7-8.6L131.9,1.8z M142.5,54.2c-0.1,1.9-0.5,4-1.6,5.6h-7.1
		c-0.1-0.4-0.3-0.8-0.1-1.2c0-1.8-0.1-3.7,0.1-5.5c0.1-3.6-1.2-6.8-2.2-10.1c-0.8-2.5-1.4-4.8-2.2-7.1c-0.1-0.4-0.3-0.7-0.4-1.1h3.4
		c1,3,1.5,5.9,2.5,8.6c0.8,2,1.6,4.1,1.9,6.3c0.4,2,0.3,4,0,6c-0.3,0.8-0.7,1.5-0.8,2.5c-0.1,0.5,0.3,1.1,0.7,1.4
		c0.1,0.1,0.4,0.1,0.5,0.1c0.7,0,1.2-0.4,1.5-1c0.1-1.1,0.1-2.2,0.4-3.3c0.4-1.8,0.4-3.7,0.1-5.6c-0.3-3.3-1.9-6.1-2.9-9.1
		c-0.5-1.9-1-4-1.5-5.9h3.3c0.5,2.7,1,5.5,2.2,7.9c0.7,1.4,1.5,2.7,1.9,4.2C142.7,49.3,142.7,51.7,142.5,54.2z M148.4,53
		c0,2.3-0.5,4.5-1.4,6.7c-0.4,0-0.8,0.1-1.2,0.1h-2.3c0.8-1.8,1.4-3.7,1.5-5.6c0-2.6,0-5.3-0.4-7.9c-0.4-1.8-1.6-3.1-2.3-4.8
		c-0.7-1.4-1-2.9-1.2-4.4c-0.1-0.8-0.3-1.5-0.4-2.3h3.1c0.1,1.1,0.4,2,0.5,3.1c0.1,1-0.1,1.8,0,2.7c0.3,0.5,0.7,1,1.4,1.1
		c0.4,0,0.8-0.3,1.2-0.7c0.4-1.2-0.4-2.3-0.4-3.6c-0.1-1-0.3-1.8-0.4-2.7c1.6,0.1,3,1.2,3.4,2.7c0.1,0.8,0.1,1.8-0.1,2.7
		c-0.4,2-1.6,4.1-1.5,6.3C148,48.6,148.3,50.8,148.4,53z"/>
	<path class="st0" d="M190.5,1.8c-0.4,6.6-1.1,8.9-2.9,15.2c-0.5,1.4-1,2.7-1.4,4c-0.7,1.5-1.1,3-1,4.6c0.3,1.6-0.1,3.4-0.4,5.1
		c-0.3,1.5,0.3,3,0.5,4.4c0.7,2.6,0.8,5.1,1.5,7.5c0.8,3,2,5.7,2.7,8.7c1.2,7,2.7,10.2,5.7,16.2c1.4,2.9,2.3,5.7,3.4,8.6
		c0.5,1.4,1.2,2.7,2.2,3.8c1.4,1.4,3.1,2.2,4.6,3.1c0.5,0.3,6.1,3,6.4,3v0.7c0,0.8-0.1,1.4-0.3,2c-2.7-0.5-12-4.8-13.8-7.4
		c-1-1.5-1.5-3.4-2.3-5.1c-1-2.3-1.6-4.6-2.7-6.8c-1-2.2-2.7-4-3.4-6.4c-1-3.4-1.9-6.8-2.7-10.2c-0.8-3.3-2-6.6-2.9-9.8
		c-0.5-2.3-1-4.6-1.5-6.8c-0.1-0.8-0.3-1.5-0.5-2.2c-0.4-0.8-1-1.6-1.8-2.2c-0.8-1.8-2-3-3.7-3.7c-2-2.9-10.7-7.8-14.9-8.1v-3.4
		c0.8,0,1.6,0.1,2.5,0.4c1.5,0.7,3.1,1.1,4.8,1.6c1.5,0.5,2.7,1.5,3.8,2.6c1.4,1.2,2.9,2.5,4.8,2.6c1.5-0.3,2.9-0.8,4.2-1.5
		c1.5-1.1,1.9-2.9,2.3-4.4c1-3.7,2.6-7.1,3.1-10.8c0.1-1.6,0.4-3.3,0.1-4.8L190.5,1.8z M161.5,7.8c0.1-1.4,0.7-2.6,1.5-3.7
		c0.7,0.5,1.4,1,2,1.4c2.2,1,4.5,2.5,7,2.5c0.4,0,0.7,0,1.1,0c0.4-0.1,0.7-0.1,1.1-0.1c0.3,0,0.5,0,0.8,0c0.5,0,1,0,1.5-0.1
		c1.1-0.4,1.4-2,0.3-2.6c-0.3,0-0.5-0.1-0.8-0.1c-1.1,0-2.2,0.8-3.4,0.7c-2.9,0.1-5.2-1.8-7.5-3c0.8-0.5,1.9-0.8,3-0.8h2.2
		c1,0.5,1.6,1.4,2.7,1.4c0.7,0,1.4-0.7,1.2-1.4h3.3c0.8,1.1,1.8,2,2,3.4c0.1,0.8,0.3,1.8,1.1,2.2c0.1,0,0.4,0,0.5,0
		c0.3,0,0.4,0,0.7-0.1c0.8-0.5,0.7-1.5,0.4-2c-0.1-0.4-0.3-0.7-0.4-1c-0.4-0.5-0.7-1.1-1-1.6c-0.1-0.3-0.3-0.5-0.5-0.8h4.1
		c0.1,0.4,0.3,0.8,0.4,1.2c0.5,2.5-0.3,4.8-0.8,7c-0.5,2.5-1.8,4.5-2.2,6.8c-0.4,2.6-1.4,4.5-4.2,4.5c-0.4,0-0.7,0-1.1-0.1
		c-1.8-0.4-2.9-2-4.1-3.1c-1.1-1.1-9.1-3.8-10.8-4l-0.1-3.7c1.4,0,2.5,0.7,3.7,1.2c2,0.8,4.1,1.6,6.3,2.2c0.3,0,0.4,0,0.7,0
		c1.8,0,3.3-1,4.9-1.2c1-0.3,2-0.1,3-0.3c0.4,0,0.8-0.4,1.1-0.7c0.5-0.7,0-2-0.8-2.2c-0.1,0-0.4,0-0.5,0c-1,0-1.9,0.8-2.9,1
		c-1.6,0.4-3.3,0.8-5.1,0.8c-1.2,0.1-2.5-0.4-3.7-1c-1.6-0.5-3.3-1.4-4.8-2C162.9,7.9,162.2,7.8,161.5,7.8z M172,27.6h-4
		c-3.1,0-5.7-2.2-6.4-5.1c3,0.5,5.1,1.4,7.6,3.1C170.1,26.3,171.1,26.9,172,27.6z M179.3,16.5c-0.1-1-1.1-1.6-1.9-1.6
		c-0.1,0-0.4,0-0.5,0.1c-1,0.1-1.6,1.2-1.4,2.2c0.3,0.7,1.1,1.1,1.9,1.1C178.3,18.3,179.1,17.5,179.3,16.5z M182.3,28.8
		c1.1-0.8,0.7-2.7-0.4-3.3c-0.5-0.1-0.7-0.3-1-0.3c-0.4,0-0.8,0.1-1.1,0.5c-0.5,0.5-0.5,1.4-0.3,2c0.4,1.1,1.2,1.2,2.3,1.2
		L182.3,28.8z M207.1,93c-2.3-0.8-4.9-2.2-7.1-3.6c-0.8-0.4-1.2-1.4-2-1.8c-0.3-0.1-0.5-0.1-0.7-0.1c-0.4,0-0.8,0.1-1,0.3
		c-0.5,0.4-0.4,1.1-0.3,1.6c0.3,0.5,0.8,1,1.5,1.2c1.5,0.8,3.1,1.6,4.6,2.6h-7.6c-0.1-1.2-0.5-2.3-0.7-3.6c-0.1-1.5-0.1-3-0.3-4.5
		c-0.3-1-0.7-1.8-1-2.6c-1-2-1.9-4.2-2.9-6.3c-0.5-1.1-1.1-2.2-1.4-3.4c-0.3-0.8,0-1.8-0.4-2.5c-0.1-0.5-0.8-1-1.4-1
		c-0.3,0-0.4,0.1-0.7,0.3c-0.7,0.4-0.5,1.4-0.4,2c0.5,1.6,1,3.3,1.8,4.9c1.1,2.2,2.2,4.5,3.1,6.8c0.7,1.5,0.8,3.1,1,4.8
		c0.1,1.6,0.4,3.3,0.8,4.9h-3.3c-0.3-1.9-0.5-3.8-0.8-5.9c-0.5-3.4-3.1-9.4-5.5-12.3c-0.5-0.7-1-1.5-0.5-2.3c0.4-1,1-1.8,1.4-2.9
		c0.5-1.2,1.1-2.6,1-4c0-1.2-0.4-2.5-0.8-3.7c-0.5-2-1.1-4.1-1.6-6.1c-0.7-2.2-1.1-3.8-1.6-5.5V37.5c0.4,2.2,1,4.4,1.5,6.4
		c0.3,1.4,0.7,2.7,1.1,4.1c1.4,4.1,2.3,8.2,3.4,12.3c0.5,1.6,0.8,3.1,1.4,4.6c0.5,1.6,1.9,2.9,2.7,4.2c0.7,1.4,1.2,3,1.8,4.5
		c0.8,2,3.1,8.3,4.6,9.8c1.6,1.9,10.2,6.3,13.7,7C209.7,91.9,208.5,92.7,207.1,93z M181.9,68c-0.4,1.2-1,2.5-1.4,3.6l-0.1-12.4
		c0.5,2,1.1,3.7,1.5,5.3v-0.1c0.1,0.7,0.3,1.5,0.1,2.2C182,67,182,67.6,181.9,68z M186.2,90.9c0.1,0.8,0.3,1.5,0.4,2.3
		c-1.4-0.1-2.6-0.5-3.6-1.2c-0.1-0.4-0.1-0.7-0.1-1.1c-0.1-0.8-0.3-1.6-0.3-2.6c-0.1-1.2-0.4-2.6-0.8-3.8c-0.4-1-1-1.9-1.5-2.7v-6
		c0.4,0.7,0.8,1.4,1.2,2c1.2,2,2.2,3.7,3,5.5C185.5,85.7,186,88.3,186.2,90.9z M198.7,1.8h3.6c-0.4,0.8-0.7,1.6-0.8,2.6
		c-0.8,3.1-0.7,6.3-1.5,9.4c-1.5,5.6-3.8,11.1-3.1,16.8c0.1,1.9,1.9,3.1,3.1,4.4c1.8,1.5,2.6,3.6,3.7,5.5c1.6,2.7,4.2,4.5,6.1,6.8
		c1,1.1,1.6,2.5,2.3,3.8v7.5c-1.4-3.6-3.6-8.6-6.3-11.1c-1.1-1.2-2.7-2-3.8-3.4c-1.4-1.8-2.5-4.4-3.1-6.6c-0.1-0.8-0.7-1.5-1.5-1.5
		s-1.5,1-1.2,1.6c0,0.4,0.1,0.7,0.4,1c1.5,2.2,2,5.1,3.7,7.1c1.1,1.4,2.6,1.9,3.7,3c1.4,1.2,2.3,2.9,3.1,4.4
		c1.8,3.8,3.6,7.6,5.1,11.5v11.7c-0.1-1.2-0.1-2.5-0.5-3.6c-0.4-2-1.4-4.1-2-6.3c-1.5-4-3.4-7.8-5.2-11.7c-0.7-1.1-1.4-2.5-1.8-3.8
		c-0.1-0.7-0.8-1.1-1.5-1.1c-0.1,0-0.4,0-0.5,0.1c-0.8,0.3-0.8,1.2-0.5,1.9c0.4,0.8,1.1,1.5,1.5,2.3c2.2,4.9,4.6,9.6,6.4,14.5
		c1,2.6,2,5.3,2,8.2c0.1,1-0.5,2,0.1,3c0.3,0.5,0.7,0.7,1.1,0.7s0.7,0,1-0.3v3c-2.2-0.5-3.6-1.5-4.9-2.2c-1.4-0.8-3-1.4-4.1-2.5
		c-1.2-1.2-1.8-2.7-2.3-4.2c-1.2-3.4-2.5-6.8-4.2-10c-1.6-3-2.9-6.3-3.7-9.7c-0.5-2.3-0.8-4.6-1.6-7c-1.4-4-2.2-6.8-2.9-11.1
		c-0.3-2.2-1.1-4.2-0.8-6.4s0.1-4.4,0.4-6.6c0.3-1.5,0.8-2.9,1.4-4.4c1.5-4.6,3.1-9.4,3.3-14.3c0.3-1.1,0.3-2.2,0.3-3.3h3.3
		c-0.4,2.5-0.4,4.9-1,7.4c-0.5,4.5-2.3,8.7-3.4,13.2c-0.8,2.6-1.1,5.5-0.8,8.3c0.3,1.9,0.5,3.8,0.5,5.7c0,2.5,0.5,4.8,1.4,6.8
		c0.7,1.6,1.6,3.3,1.9,4.9c0.4,1.4,0.4,2.7,0.5,4.2c0.5,3.1,1.9,6,3.3,9c1.1,2.2,2.2,4.4,3.1,6.7c0.8,1.9,1.4,4,2.3,5.9
		c0.4,1,0.4,2,1,3c0.3,0.4,0.7,0.7,1.2,0.7c0.4,0,1-0.3,1.1-0.7c0.7-1.2-0.7-2.3-1.1-3.4c-0.7-1.9-1.4-4-2.2-5.9
		c-1.6-4.2-3.8-8.2-5.6-12.4c-0.5-1.2-1-2.6-1-4c0-1.8,0-3.6-0.7-5.1c-1.1-2.3-2.3-4.4-2.9-6.8c-0.4-2.2,0.1-4.5-0.1-6.7
		c-0.3-1.4-0.5-2.7-0.5-4.2c0.1-5.2,2.2-10,3.4-14.9c0.8-3.1,1.1-6.3,1.5-9.6C198.2,3.3,198.4,2.6,198.7,1.8z M201.4,17.2
		c0.4-1.5,1-3.1,1.1-4.8c0.5-2.6,0.5-5.3,1.2-7.8c0.3-1,0.7-1.9,1.1-2.9h3.7c-0.7,1.4-1.5,2.9-1.9,4.4c-0.8,2.5-0.4,5.1-1,7.5
		c-0.3,1.5-0.8,2.9-1.2,4.2c-0.8,2.6-1.5,5.3-1.9,8.1c-0.1,0.5-0.1,1.2,0,1.9c0.1,1.4,0.8,2.6,1.6,3.6c1.2,1.6,2.5,3.4,3.6,5.2
		c1.2,1.9,2.7,3.6,4.4,5.2v4.8c-0.4-0.5-0.7-1-1.1-1.5c-1.6-1.8-3.6-3.3-4.9-5.3c-1.4-1.8-2.2-4-3.8-5.7c-0.8-1-1.9-1.8-2.6-2.9
		c-0.8-1.4-0.7-3.1-0.5-4.8C199.5,23.2,200.4,20.2,201.4,17.2z M214.5,1.8c-0.5,1.9-1.4,3.7-2.5,5.3c-0.7,1-1.9,1.9-1.5,3.1
		c0.3,0.5,0.8,0.8,1.2,0.8c0.3,0,0.4-0.1,0.5-0.1c0.8-0.4,1.1-1.4,1.4-2.2c0.7-1.2,1.6-2.2,2.2-3.6c0.4-1.1,0.7-2.3,1.1-3.4h2.5
		c-0.3,1.6,0.8,2.5,1,3.7c0,0.7-0.7,1.1-1.1,1.5c-1.9,1.4-2.9,3.6-4.5,4.9c-1.2,1.1-2.6,1.8-3.4,3.1c-1.1,1.5-1.5,3.3-2,5.1
		c-0.4,2.2-1.2,4.5-0.8,6.7c0.3,1.6,1.2,3,2.2,4.4c0.4,0.7,1,1.4,1.5,2l-0.1,5.1c-0.7-0.7-1.4-1.5-1.9-2.3c-1.4-2.2-2.9-4.2-4.4-6.3
		c-1-1.4-1-3.1-0.7-4.8c0.5-2.7,1.1-5.5,2-8.1c0.4-1.2,1-2.3,1.1-3.7c0.1-1.5-0.3-3.1,0.1-4.8c0.3-1.6,1.1-3.3,1.9-4.8
		c0.3-0.5,0.5-1.1,0.8-1.8h3.4V1.8z M221.3,8c0.3-0.4,0.8-0.5,1.4-0.5c0.3,0,0.4,0,0.7,0.1c2.2,0.5,4.2,1,6.4,1.2v3.8
		c-1.1-0.5-2.2-1.2-3.4-1.4c-0.5-0.1-1.1-0.1-1.6-0.1c-0.7,0-1.5,0.1-2.2,0.4c-1.2,0.8-2.2,1.9-3.3,3c-1,1.1-2,2-3,3.3
		c-1.4,1.6-1.9,3.8-2,6c0,1.6,0.5,3,1.4,4.4c-1,0.5-1.9,1.4-2.5,2.2c-0.8-1-1.5-2-1.9-3.3c-0.7-1.9-0.3-3.8,0.1-5.6
		c1-3.8,1.4-4.9,4.4-7.5C217.8,12.1,219.5,10.1,221.3,8z M218.5,27.6c-1.2-1.1-1.8-2.5-1.9-4c0.1-1.6,0.7-3.4,1.8-4.6
		c1-1.1,2.2-2,3-3.1c0.8-1,1.6-1.9,2.7-2.2c0.4-0.1,0.7-0.1,1.1-0.1c1.1,0,2.2,0.4,3.3,0.8c0.5,0.3,1.1,0.7,1.2,1.4
		c0,0.8,0,1.5,0.1,2.2v3.3c0,1-0.3,1.9-0.7,2.9c-0.8-1.2-1.4-2.6-1.9-4c-0.4-0.8-0.4-1.9-0.8-2.9c-0.3-0.5-0.8-1-1.4-1
		c-0.3,0-0.5,0-0.7,0.1c-0.7,0.3-0.8,1.2-0.7,1.9c0.4,0.8,1,1.5,1.4,2.3c0.4,1.1,0.7,2.5,1.4,3.6c0.3,0.7,0.8,1.2,1.2,1.8
		c-0.8,0.7-1.8,1.2-2.9,1.5c-0.8-1-1.6-1.9-2-3.1c-0.4-1.1,0.1-2.3-0.4-3.4c-0.1-0.4-0.7-0.7-1.2-0.7c-0.4,0-0.7,0.1-1,0.4
		c-0.5,0.5-0.4,1.4-0.3,2c0.3,0.8,0.4,1.5,0.7,2.2c0.3,1.1,0.7,1.9,1.4,2.7L218.5,27.6L218.5,27.6z M222,2l1.4-0.3
		c2.9,0,5.3,2,6.1,4.8c-1.8-0.4-3.6-1-5.5-1.1c-0.7,0-1.4-0.1-1.6-0.7C222,3.9,222.3,3,222,2z"/>
	<path class="st0" d="M235.3,20.9V5.6c0-1.1,0.5-2.2,1.4-2.9c0.3,2-0.1,3.8-0.4,5.5c-0.3,1.5,0.3,3,0.5,4.5c0.7,2.5,0.8,5.1,1.5,7.5
		c0.7,2.9,2,5.6,2.6,8.6c0.8,3.8,1.8,7.6,3.3,11.2c0.7,1.8,1.8,3.4,2.6,5.2c1.4,2.7,2.3,5.6,3.4,8.5c0.5,1.4,1.2,2.9,2.2,3.8
		c1.4,1.4,3,2.2,4.6,3.1c0.7,0.4,6.1,3.1,6.6,3.1c1,0,1.6-1.1,1.2-1.9c-0.4-0.8-1.4-1-2-1.1c-1.4-0.3-7.4-3.6-8.5-4.5
		c-1.1-1.1-1.6-2.7-2.2-4.2c-1.2-3.4-2.5-6.7-4.2-10c-1.6-3-3-6.3-3.8-9.7c-0.5-2.3-0.8-4.6-1.5-7c-0.7-1.9-1.5-3.7-1.9-5.6
		c-0.5-1.8-0.8-3.6-1-5.5c-0.3-2.2-1.2-4.2-1-6.4c0.3-2,0.3-4.1,0.5-6.1h3.3c-0.3,2.2-0.5,4.4-0.3,6.6c0.3,1.9,0.5,3.8,0.5,5.9
		c0,2.3,0.4,4.6,1.4,6.8c0.5,1.6,1.5,3.1,1.9,4.8c0.4,1.4,0.4,2.9,0.5,4.2c0.4,3.1,1.9,6.1,3.3,9c1.1,2.2,2.2,4.4,3.1,6.7
		c0.8,1.9,1.4,4,2.2,5.9c0.5,1,0.5,2,1.1,3c0.3,0.5,0.7,0.7,1.2,0.7c0.4,0,1-0.3,1.1-0.7c0.5-1.2-0.7-2.2-1.1-3.3
		c-0.7-2-1.4-4.1-2.2-6c-1.6-4.2-4-8.2-5.6-12.4c-0.5-1.2-1-2.6-1-4c0-1.6,0-3.6-0.8-5.1c-1-2.2-2.2-4.4-2.7-6.8
		c-0.4-2.2,0.1-4.5-0.1-6.7c-0.3-1.4-0.5-2.7-0.5-4.1c0-1.6,0.1-3,0.5-4.5h3.3c-0.4,2.2-0.5,4.2-0.4,6.6c0.3,1.9,1.9,3,3.3,4.2
		c1.6,1.5,2.6,3.7,3.7,5.5c1.5,2.7,4.1,4.5,6,6.8c3.8,4.1,10.1,21,10.8,27.4c0,2,0.1,4.1,0.3,6.3c0,0.4,0,0.8,0.1,1.2h-1.2
		c-0.7,0-1.4,0.1-1.9,0.4c-0.3-2.2-0.3-4.6-0.3-6.8c-0.3-3.4-1.2-6.7-2.5-9.8c-1.2-4.1-6-15.7-9.1-18.4c-1.2-1.2-2.7-2-3.8-3.4
		c-1-1.2-1.5-2.7-2.2-4.1c-0.5-0.7-0.7-1.6-1-2.5c-0.1-0.7-0.8-1.5-1.5-1.5c-0.8,0-1.5,1-1.4,1.8c0.1,0.3,0.3,0.5,0.4,0.8
		c1.6,2.2,2,5.1,3.8,7.2c1,1.2,2.6,1.8,3.7,2.9c4,3.6,10.9,20.9,11.2,27.4c0.3,1.8,0.1,3.4,0.1,5.2c0,1,0.5,1.9,0.4,3
		c0.1,0.3,0,0.7,0,1.1v1c0,1.5,0.8,2.7,2,3.4c-6.4-0.4-10.4-2.5-15.8-5.6c-1.4-0.7-2.9-1.4-3.8-2.9c-1-1.5-1.6-3.4-2.3-5.1
		c-1-2.2-1.6-4.6-2.7-6.8c-1-2.2-2.7-4-3.4-6.4c-1-3.4-1.9-6.8-2.9-10.2C237.3,27.2,236.1,24,235.3,20.9z M236.6,57.3
		c-0.4-1-0.8-1.8-1.4-2.6v-8.3c0.3-1,0.5-1.9,0.5-2.9s-0.3-1.8-0.5-2.6V29.3c0.8,3,1.6,6,2.5,8.9c0.4,1.6,0.8,3.1,1.4,4.8
		c0.5,1.5,1.8,2.7,2.6,4.1c0.8,1.4,1.2,3,1.9,4.5c0.7,1.8,3.3,8.6,4.6,9.8c1,1.1,2.3,1.5,3.6,2.3c2,1.1,4.1,2.5,6.3,3.4
		c3.7,1.6,10.1,2.7,14.1,2.9c1.6,0,3.3-0.1,4.8-0.5c1.1-0.4,2.2-1,3.3-1.5h5.3c-1.5,1.1-2.9,2-4.5,3c-2.5,1.6-5.6,2.2-8.5,2.2
		c-0.5,0-1-0.1-1.5-0.1c-7.5-0.5-13.4-2-19.7-6c-0.8-0.4-1.2-1.2-2-1.8c-0.3-0.1-0.5-0.1-0.8-0.1s-0.7,0.1-1,0.4
		c-0.4,0.3-0.3,1-0.3,1.5c0.4,0.5,1,1,1.6,1.2c2,1.1,4,2.3,6,3.4c1.9,1.2,4.2,1.6,6.4,2.2c3.1,0.5,6.3,1.2,9.4,1.5
		c0.5,0.1,1.2,0.1,1.8,0.1c1.4,0,2.7-0.1,4.1-0.3c3.6-0.5,6-2.5,8.9-4.4c1.4-1,2.6-1.9,4-2.9h4.9c-3,3-6.8,4.6-9.8,7.2
		c-3.4,3-7.1,3.3-11.5,3.3c-1.1,0-2.2,0-3.3-0.1c-4.1-0.4-8.1-1.4-12-2.2c-1.9-0.5-4.1-0.8-5.6-2.2c-0.5-0.5-0.8-1.4-1.4-1.9
		c-0.3-0.3-0.7-0.4-1.1-0.4c-0.1,0-0.4,0.1-0.7,0.1c-0.7,0.4-0.7,1.2-0.4,1.9s1,1.1,1.5,1.5c1.9,1.9,3,2.3,5.6,2.9
		c5.1,1.1,10,2.2,15.2,2.7c1,0,1.9,0,2.9,0c0.8,0,1.6,0,2.5,0c1.8-0.3,3.7-0.5,5.5-1.1c1-0.3,2-0.5,2.9-1.4c1.2-1.1,2.5-2.3,3.8-3.1
		c1.2-0.8,2.5-1.5,3.7-2.5c1.8-1.2,3.7-2.5,4.9-4.2l2.9-0.5c0.4,0,0.8,0,1.1,0.1c-0.5,1.5-1.1,2.7-1.9,3.7c-1.1,1-2.5,1.5-3.6,2.3
		c-1.8,1.1-3,2.6-4.9,3.4c-1,0.5-2.3,0.3-3,1.4c-0.5,0.8,0.3,2,1.4,1.9c1.1-0.3,1.9-1,3-1.2c1.6-0.7,2.7-2.2,4.1-3.3
		c1.2-0.8,2.6-1.4,3.8-2c1.4-0.8,2-2,2.6-3.4c0.1-0.5,0.4-1,0.5-1.4c0.5,0.7,0.8,1.5,0.8,2.3v4.5c-0.3,0.3-0.4,0.4-0.8,0.5
		c-1.1,0.5-2.3,0.8-3.4,1.1c-1,0.3-1.9,0.1-2.7,0.7s-0.7,2,0.3,2.3c0.1,0,0.3,0.1,0.5,0.1c0.5,0,1-0.3,1.5-0.5
		c1.5-0.7,3.1-0.8,4.6-1.2v3.1c-1.1,0.4-2.2,0.7-3.4,1c-0.4,0-1,0-1.5,0c-0.4,0-1,0-1.5,0c-1.4-0.3-2.6-0.7-4-0.7
		c-0.1,0-0.4,0-0.5,0c-1.1,0.1-2.2,0.4-3.4,0.4c-1.6-0.1-3.4-0.7-5.1-0.7c-0.4,0-0.8,0-1.2,0.1c-2.7,0.5-5.5,1.5-8.2,1.5
		c-0.1,0-0.3,0-0.5-0.1c-0.3,0.1-0.5,0.1-0.8,0.1c-2.5,0-4.9-0.4-7.4-0.8c-4.8-0.8-9.6-1.9-14.3-2.9c-1.4-0.3-3.1-0.5-4-2
		c-1.1-1.8-2.5-8.6-2.7-11.1c-0.1-1.5-0.1-3-0.4-4.5c-0.3-1.8-2.9-7.1-3.7-8.7c-0.5-1.2-1.1-2.3-1.5-3.6c-0.1-0.8,0.1-1.6-0.3-2.5
		c-0.3-0.5-0.8-1-1.4-1c-0.3,0-0.5,0.1-0.7,0.3c-0.8,0.4-0.5,1.4-0.4,2c0.5,1.6,1,3.4,1.8,4.9c1.1,2.2,2.2,4.5,3.1,6.8
		c0.7,1.6,0.8,3.3,1,4.9c0.3,3.6,1.8,11.3,3.4,14.2c0.5,1.1,1.8,1.6,2.9,1.9c1.5,0.4,3.1,0.7,4.6,1c3.8,0.8,7.8,1.6,11.6,2.3
		c2.3,0.5,4.5,0.7,6.8,1c0.4,0,0.8,0,1.1,0c0.5,0,1.1,0,1.6,0c0.3,0,0.4,0,0.7,0c3,0,5.9-1.2,8.9-1.5c1.2,0,2.5,0.3,3.8,0.4
		c0.5,0,1,0,1.5,0c1.1,0,2.2,0,3.1-0.1c2.2,0,4.2,0.4,6.3,0.5c1.6,0,3.1-0.3,4.6-0.8v3.6c-1.1,0-2,0-3.1,0.1
		c-0.4,0.1-0.8,0.1-1.2,0.1c-1.4,0-2.7-0.3-4.1-0.3c-0.1,0-0.1,0-0.3,0c-1.5-0.1-3-0.1-4.5-0.1c-1.1,0-2.2,0-3.4,0
		c-0.4,0-0.8,0-1.2,0c-2.7,0-5.2,0.5-7.8,1.1c-0.8,0.1-1.8,0.4-2.7,0.4c-0.3,0-0.4,0-0.7,0c-2.2-0.4-4.4-0.7-6.7-0.7
		c-1.9-0.1-3.8-0.8-5.7-1.2c-5.1-1-10.1-1.8-15-2.7c-1.1-0.3-2.3,0-3.3-0.7c-0.7-1-0.5-2.3-1.1-3.4c-1.8-5.2-2.7-10.7-3.4-16
		C239.1,62.4,238,59.8,236.6,57.3z M238.9,87.9c-1.1,1-2.2,1.9-3.4,2.7c-0.1-0.4-0.3-0.8-0.3-1.4v-2.5c1-0.8,1.8-1.5,2-2.6
		c0.3-1.5-0.1-2.9-0.5-4.4c-0.5-2-0.8-4.1-1.4-6.3l-0.1-13.9c0.1,0.4,0.4,0.8,0.5,1.2c1.1,2.5,1.4,5.1,1.6,7.6
		c0.5,3.3,1.4,6.4,2.2,9.7c0.5,1.8,0.8,3.7,1.6,5.5c0.3,0.5,0.5,1.4,0.1,2C240.7,86.6,239.8,87.1,238.9,87.9z M299.8,93.2h-38.6
		c-4.9-1.2-9.3-1.6-13.5-2.3c-1.9,0-3.3,0-4.9,1.2c-0.4,0.4-0.8,0.7-1.4,1.1h-2.2c-0.8,0-1.6-0.3-2.2-0.7c1.4-1,2.7-2,4.1-3.1
		c0.8-0.7,1.2-1.8,2.2-2.3c0.3,0,0.4-0.1,0.7-0.1c0.5,0,1,0.3,1.5,0.3c1.2,0.4,2.5,0.5,3.7,0.7c4.5,0.7,11.9,1.8,16.1,3.1
		c1.1,0.4,2.2,0.5,3.4,0.5c0.4,0,0.8-0.1,1.2-0.1c0.1,0,0.3,0,0.4,0c1.6,0,3.3,0.8,5.1,0.7c1.2,0.1,2.5-0.3,3.7-0.5
		c1.9-0.4,3.8-0.8,5.7-1c0.4,0,1,0,1.4,0c1.4,0,2.6,0,4,0c1.1,0,2.3,0,3.4,0c1.8,0.3,3.4,0.1,5.2,0.4c0.3,0,0.5,0,0.7,0
		c1.2,0,2.5-0.1,3.6-0.1c0.1,0,0.3,0,0.5,0C302.8,92.3,301.5,93.2,299.8,93.2z M251,8.7c-1-1.4-0.8-3.1-0.5-4.6
		c0.1-0.8,0.3-1.6,0.4-2.3h3.3c-0.1,0.5-0.3,1.1-0.3,1.8c-0.1,0.7-0.1,1.2,0,1.9c0.1,1.4,0.7,2.6,1.5,3.6c1.4,1.6,2.6,3.4,3.7,5.2
		c1.6,2.6,4,4.8,6.1,7c1.6,1.8,2.7,4.1,3.8,6.4c-1.2,0.5-1.9,1.8-2,3.1c-1.2-2.9-2.6-5.7-4.6-7.9c-1.6-1.9-3.6-3.4-4.9-5.5
		c-1.4-1.8-2.2-4-3.8-5.6C252.7,10.6,251.6,9.8,251,8.7z M263.7,55.4c-0.5-1.6-0.3-3.4-0.8-5.1c-1.6-6.3-4.5-12.2-7.4-17.9
		c-0.7-1.2-1.2-2.5-1.6-3.8c-0.1-0.7-0.8-1.2-1.5-1.2c-0.3,0-0.4,0-0.7,0.1c-0.7,0.3-0.7,1.2-0.4,1.9c0.4,0.8,1.1,1.5,1.5,2.3
		c2,4.9,4.6,9.6,6.3,14.5c1,2.7,2,5.3,2.2,8.2c0,1-0.5,2.2,0.1,3.1c0.1,0.4,0.7,0.7,1.1,0.7s0.8-0.1,1.1-0.5
		C264.1,57.1,263.8,56.2,263.7,55.4z M274.6,27h-3.3c-1.1-2.5-2.2-4.9-4-6.8c-1.9-2.3-4.2-4.2-5.9-6.7c-1.5-2-3-4.1-4.4-6.3
		c-1-1.4-1-3.1-0.7-4.8l3.4-0.7c-0.1,0.8-0.1,1.8,0,2.6c0.3,1.6,1.2,3,2,4.4c1.1,1.5,2,2.9,3.3,4.2c1.6,2.3,3.8,4,5.6,6.1
		c1.2,1.4,1.9,3.1,2.6,4.8C273.8,25,274.2,25.9,274.6,27z M262.3,1.8h3.3c0,4.1,5.2,9.8,8.2,12.3c1.2,1,2.5,1.9,3.3,3.4
		c0.7,1.5,1,3.3,1.5,4.9c0.4,1.6,1.2,3.1,2.2,4.6h-3.6c-0.3-0.5-0.5-1.1-0.8-1.8c-0.8-1.8-1.2-3.7-2.2-5.5c-0.8-1.6-2.2-3-3.4-4.2
		c-2.3-2-7.2-7.8-8.3-10.8C262.2,3.8,262.2,2.7,262.3,1.8z M303.8,23.1c0,1.4-0.7,2.6-1.8,3.3c-0.1-2.7,0-5.6-0.1-8.3
		c-0.3-3.4,0-6.7,0-10.1c0-1.1,0.8-2,0.7-3.1c0-0.8-0.7-1.4-1.4-1.4c-0.3,0-0.5,0.1-0.7,0.3c-0.8,0.5-0.8,1.6-0.8,2.5
		c0,1.1-0.1,2.2-0.1,3.3c0,5.9,0,11.7,0.3,17.6h-3.3c0-3.4,0.1-6.7-0.1-10.1c-0.1-1.8,0.3-3.6,0.1-5.3c-0.1-1.1,0.1-2.2,0.4-3.1
		c0.3-1-0.5-2-1.5-2c-0.1,0-0.3,0-0.3,0c-1,0.3-1.2,1.4-1.1,2c0.4,2.6,0.1,5.1,0,7.6c0,3,0.5,6,0.3,9.1c-0.1,0.5-0.1,1.1-0.1,1.8
		H291c0.1-0.7,0.1-1.4,0.3-1.9c0.3-1.5,0.3-3,0.1-4.5c-0.3-2.2-0.8-4.4-0.5-6.7c0.3-1,1.2-1.8,1.1-3c-0.1-0.5-0.8-1.1-1.4-1.1
		c-0.3,0-0.4,0.1-0.7,0.1c-0.5,0.4-0.8,1.2-1,1.9c-0.1,1-0.5,1.9-0.5,2.9c-0.1,2.7,1,5.3,1,7.9c0,1.5-0.5,2.9-0.7,4.4h-5.2
		c-0.5-0.7-1.1-1.2-1.4-1.9c-1.6-2.7-1.8-6.1-3-9c-0.8-1.6-2.5-2.7-3.8-4c-2.2-1.9-4.1-4-5.7-6.4c-0.8-1.1-1.4-2.5-1.5-4h3.6
		c0.8,3.3,6,9.1,9.3,10.4c0.8,0.3,1.5,1,1.5,1.9c0.1,3.4,1.8,6.6,1.8,10c0.1,0.7,0.8,1.2,1.5,1.2c0.7-0.1,1.4-0.7,1.2-1.5
		c-0.1-1-0.7-1.8-0.8-2.7c-0.5-2.3-0.8-4.8-1.4-7.1c-0.1-0.5-0.1-1.1,0-1.6c0.3-0.5,0.7-0.8,1.1-1.2c1-0.7,1.5-1.9,2.5-2.6
		c2.9-2.6,6.6-3.8,9.7-5.9c0.5-0.3,1.1-0.5,1.8-0.8h0.1c2.2,0,4,1.8,4,3.8v17.3C304,23.1,303.8,23.1,303.8,23.1z M277.3,59.8h-3
		c0-0.8,0-1.6-0.1-2.3c-0.3-2,0.1-4.1-0.3-6.1c-0.3-3-1.4-5.9-2.2-8.9c-1-2.9-2-5.7-3.3-8.5c0.7,0.5,1.5,0.8,2.5,0.8h1.4
		c0.3,0.7,0.5,1.2,0.8,1.9c1,3,1.8,6,2.7,8.9c1.1,3,1.8,6.1,1.4,9.3C276.9,56.5,277.3,58.1,277.3,59.8z M277.7,1.8
		c0.7,1.4,1.9,2.3,3,3.3c0.7,0.7,1.2,1.4,2.2,1.6c0.1,0,0.4,0,0.7,0s0.7-0.1,1-0.4c0.4-0.3,0.3-1,0.1-1.5c-0.7-1.2-2.2-1.1-3.1-1.9
		c-0.4-0.4-0.7-0.7-1-1.1h5.3c0.4,0.1,0.8,0.1,1.1,0.1c0.4,0,0.8,0,1.2-0.1h6.6c-0.5,0.3-1.1,0.7-1.6,1c-1.9,1.1-4.1,1.6-5.6,3.3
		c-1.2,1.2-2.3,2.5-3.4,3.8c-0.4,0.4-1,0.7-1.4,0.7c-2.2,0-8.1-6.6-8.7-8.6L277.7,1.8z M288.4,54.2c-0.1,1.9-0.5,4-1.6,5.6h-7.1
		c-0.1-0.4-0.3-0.8-0.1-1.2c0-1.8-0.1-3.7,0.1-5.5c0.1-3.6-1.2-6.8-2.2-10.1c-0.8-2.5-1.4-4.8-2.2-7.1c-0.1-0.4-0.3-0.7-0.4-1.1h3.4
		c1,3,1.5,5.9,2.5,8.6c0.8,2,1.6,4.1,1.9,6.3c0.4,2,0.3,4,0,6c-0.3,0.8-0.7,1.5-0.8,2.5c-0.1,0.5,0.3,1.1,0.7,1.4
		c0.1,0.1,0.4,0.1,0.5,0.1c0.7,0,1.2-0.4,1.5-1c0.1-1.1,0.1-2.2,0.4-3.3c0.4-1.8,0.4-3.7,0.1-5.6c-0.3-3.3-1.9-6.1-2.9-9.1
		c-0.5-1.9-1-4-1.5-5.9h3.3c0.5,2.7,1,5.5,2.2,7.9c0.7,1.4,1.5,2.7,1.9,4.2C288.5,49.3,288.5,51.7,288.4,54.2z M294.2,53
		c0,2.3-0.5,4.5-1.4,6.7c-0.4,0-0.8,0.1-1.2,0.1h-2.3c0.8-1.8,1.4-3.7,1.5-5.6c0-2.6,0-5.3-0.4-7.9c-0.4-1.8-1.6-3.1-2.3-4.8
		c-0.7-1.4-1-2.9-1.2-4.4c-0.1-0.8-0.3-1.5-0.4-2.3h3.1c0.1,1.1,0.4,2,0.5,3.1c0.1,1-0.1,1.8,0,2.7c0.3,0.5,0.7,1,1.4,1.1
		c0.4,0,0.8-0.3,1.2-0.7c0.4-1.2-0.4-2.3-0.4-3.6c-0.1-1-0.3-1.8-0.4-2.7c1.6,0.1,3,1.2,3.4,2.7c0.1,0.8,0.1,1.8-0.1,2.7
		c-0.4,2-1.6,4.1-1.5,6.3C293.8,48.6,294.1,50.8,294.2,53z"/>
	<path class="st0" d="M308.9,55.8c-0.1-3.7-0.3-7.4-0.3-11.1c0.1,0.7,0.1,1.2,0.1,1.8c0,1.4,0.5,2.7,0.4,4.1c0,0.8-0.1,2,0.7,2.6
		c0.1,0.1,0.5,0.3,0.8,0.3c0.4,0,0.8-0.1,1.1-0.5c0.5-0.8,0-2-0.3-2.9c-0.5-1.5-0.3-3.1-0.5-4.6c-0.1-1.9,0.1-4-0.1-6
		c-0.3-2.2-0.8-4.2-1.5-6.1c0.3-2.6,0.7-4.9,1.1-7c0.8,2.3,1.5,4.9,2.3,7.2c1,3,1.6,6.3,1.2,9.4c-0.3,1.6,0.3,3.4,0.1,5.1
		c0,0.8,0,1.5,0.1,2.3c0.1,0.4,0.4,0.8,1,1c0.1,0.1,0.3,0.1,0.4,0.1c0.7,0,1.4-0.7,1.4-1.5c0-1.1-0.7-2.2-0.7-3.4
		c0-1.8-0.1-3.6,0.1-5.3c0.3-3.6-1.1-7-2.2-10.2c-0.7-2.3-1.4-4.8-2.2-7.1c-0.1-0.5-0.4-1.2-0.7-1.8c0.4-1.6,0.8-3.1,1.4-4.4
		c1,1.6,1.9,3.4,2.5,5.5c0.8,2.7,1.5,5.6,2.5,8.3c0.7,2,1.5,4.1,1.9,6.3c0.3,1.9,0.1,4-0.1,5.9c-0.1,0.8-0.5,1.6-0.8,2.5
		c-0.1,0.5,0.3,1.1,0.7,1.5c0.3,0,0.4,0.1,0.7,0.1c0.5,0,1.2-0.4,1.4-1.1c0.1-1.1,0.1-2.2,0.4-3.1c0.4-1.9,0.4-3.8,0.1-5.7
		c-0.3-3.1-1.9-6-2.7-9.1c-0.8-2.3-1.2-4.8-1.9-7.1s-2.2-4.4-3.3-6.7c0.5-1.1,1.2-2.2,1.9-3.1c0.5,1.4,1.1,2.7,2,4
		c1,1.4,1.8,2.6,2.2,4.1c1.1,3.7,1.2,7.5,2.9,11.1c0.7,1.4,1.5,2.6,1.9,4.1c0.5,2.5,0.4,4.9,0.4,7.4c-0.3,1.9-0.5,4-1.8,5.6
		c-1.8,2.6-7.8,6.6-10.7,7.4C311.5,55.8,310.4,55.8,308.9,55.8z M331,2c0,0.7-0.1,1.4-0.1,2c0.1,3.1,0.7,6.1,0.3,9.1
		c-0.3,2.5,0,5.1,0.4,7.5c0.4,2.5,1,5.1,0.5,7.5c-0.4,2.2-1.8,4.1-1.6,6.3c0.1,2.2,0.4,4.4,0.5,6.4c0,9.4-6,13.7-13.1,18.2
		c-2.6,1.6-5.7,2-8.7,2c0-1-0.1-2-0.1-3c5.6,0,11.5-3.8,15.3-7.6c2.2-2.2,3.1-5.2,3.3-8.2c0-2.7,0.1-5.3-0.4-8.1
		c-0.3-1.8-1.6-3.1-2.3-4.6c-0.7-1.4-1-2.9-1.2-4.4c-0.3-1.8-0.7-3.7-1-5.5c-0.3-1.1-0.7-2.3-1.4-3.4c-0.8-1.1-1.8-2-2.5-3.3
		c-0.7-1.1-1.1-2.3-1.4-3.6c0.8-0.8,1.6-1.6,2.6-2.5c0.4,1.6,0.8,3.3,1,4.9c0,0.7,0.7,1.2,1.4,1.4c0.7-0.1,1.4-0.8,1.4-1.5
		c-0.3-1-0.7-1.8-1-2.7c-0.1-1.2-0.4-2.3-0.5-3.6c0.8-0.5,1.9-1.1,3-1.6c0.1,2.3,0.8,4.5,0.8,6.8s-1.2,4.5-0.8,6.8
		c0.7,2.7,1.2,5.6,1.6,8.3c0.1,1,0,1.9,0.1,2.7c0.1,0.7,0.7,1.1,1.2,1.2c0.5,0,1-0.4,1.2-0.8c0.4-1.1-0.4-2.3-0.4-3.6
		c-0.1-2.2-0.5-4.2-1.1-6.4c-0.4-1.9-0.3-4,0-6c0.3-1.5,0.3-3,0.3-4.5c-0.3-1.8-0.7-3.7-0.7-5.5C328.7,2.7,329.7,2.3,331,2z
		 M333.3,1.5c1-0.3,2-0.4,3-0.5c0,5.3,0,10.7,0.3,16c0.3,1.5,0.4,2.9,0.7,4.4c0.3,1.8,0.3,3.7,0.1,5.6c-0.3,2.9-1.1,5.7-1.2,8.7
		c0,1.1,0.3,2,0.3,3c0.1,2.5,0.5,4.9-0.3,7.4c-1,2.7-3.3,8.3-5.2,10.2c-2.9,2.7-6.6,4.4-9.6,7.1c-3.1,2.7-7.6,3.3-11.6,3.3
		c-0.1-1.1-0.3-2-0.4-3.1c1.4,0,2.6-0.1,4-0.3c1.6-0.3,3.3-0.7,4.6-1.5c2.9-1.6,7.8-5.1,10.1-7.2c2.2-2.2,3.4-4.9,4.4-7.8
		c0.8-2.3,1.1-4.8,0.8-7.2c-0.3-2-0.5-4.1-0.3-6.1c0.3-1.8,1.1-3.6,1.2-5.3c0.7-4-0.5-7.8-0.8-11.6c-0.1-3.8,0.1-7.6-0.3-11.3
		C333.2,3.8,333.3,2.6,333.3,1.5z M321.1,70.6c-0.4,0-0.8,0-1.2,0.1c-2.7,0.5-5.3,1.4-8.2,1.4c-0.1,0-0.3,0-0.4,0
		c-0.5-1-0.8-2-1.1-3.1c2.7,0,8.9-0.5,11.1-2.5c1.2-1.1,2.5-2.3,3.8-3.3c2.6-1.5,7-4.2,8.7-6.6c1.1-1.8,1.9-3.7,2.7-5.6
		c1.2-2.7,2.7-5.5,2.6-8.6c-0.3-2-0.4-4.2-0.5-6.4c-0.1-3.8,1.4-7.6,1.2-11.6c0-3-1-5.9-1-9c-0.3-3.1-0.1-6.3-0.3-9.4
		c-0.1-1.8,0-3.6,0-5.5c1-0.1,2-0.1,3-0.3c0,1.8,0,3.6,0.1,5.3c0,2.3-0.1,4.8,0.1,7.1c0.1,1.4,0,2.7,0.3,4.1c0.3,2.6,1,5.2,0.8,7.9
		c-0.1,2.7-0.8,5.5-1.1,8.2c-1,3-1.4,7-1.4,12.4c0,1.6,0,3.1,0,4.5c-1,2.2-2,4.5-3,6.7c-0.4,1.2-0.8,2.5-1.8,3.4
		c-1.1,1-2.5,1.4-3.6,2.2c-1.6,1.1-3,2.7-4.8,3.6c-1.1,0.4-2.5,0.3-3.1,1.2c-0.5,1,0.3,2.2,1.4,2c1.1-0.3,2-1,3-1.4
		c1.8-0.5,2.7-2,4.1-3.1c1.2-1,2.6-1.4,4-2c1.2-0.8,2-2.2,2.5-3.6c0.5-1.4,1.1-2.7,1.6-4.1c0.3,2.7,0.5,4.8,1,6.3
		c0,0.4-0.3,0.8-0.3,1.4c-0.3,1-0.7,2.2-1.8,2.6c-1.1,0.5-2.2,0.7-3.4,1.1c-0.8,0.3-1.9,0.1-2.7,0.7c-0.8,0.5-0.7,1.9,0.3,2.3
		c0.1,0,0.4,0,0.5,0c0.5,0,1.1-0.3,1.5-0.4c1.9-1,4.2-0.8,6-1.9c0.8-0.5,1.2-1.5,1.5-2.5c0.7,1.1,1.5,2,2.6,2.5
		c0.7,1.6,1.8,2.3,2.6,3c5.2,4.1,8.2,6.1,14.6,6.8c3.8,0,10.1-2.2,13.1-4.8c0.3,0.4,0.4,1,0.4,1.5v2c-2.3,1.4-4.8,2.5-7.2,3.3
		c-1.9,0.4-3.7,1.1-5.6,1.1c-0.4,0-0.7,0-1.1,0c-1.6-0.3-3.4-0.4-5.2-0.7c-1.4-0.1-2.6-1-3.7-1.8c-2.2-1.4-4.4-2.6-6.3-4.2
		c-1-0.8-1.9-1.8-2.9-2.5c-0.5-0.4-1.2-0.4-1.8-0.4c-0.4,0-0.8,0-1.2,0c-1.5,0.5-3,1-4.5,1.2c-1,0-2,0-3,0c-1.4-0.1-2.7-0.5-4.1-0.5
		c-0.1,0-0.3,0-0.4,0c-1.2,0.1-2.3,0.3-3.4,0.3C324.6,71.1,322.9,70.6,321.1,70.6z M376.9,81.5c-2.5,1.1-4.9,2-7.5,2.6
		c-1.1,0.3-2.3,0.5-3.4,1.1c-1.2,0.5-2,1.8-2.6,2.9c-0.7,1.1-1.1,2.3-1,3.6c0.1,0.8,0.4,1.6,0.5,2.3c-1,0.1-1.8,0.3-2.7,0.4
		c-0.3-1.1-0.5-2-1.1-3c-0.5-1.2-1.6-2-2.5-3.1c-1-1.4-1.5-3.1-2.7-4.2c-1.2-1-2.6-1.6-4-2.6c-1.8-1.1-3.4-2.2-5.1-3.4
		c-1.8-1.1-2.5-1.4-4.6-1.4c-1,0-1.9,0-2.9,0.1c-0.4,0-0.7,0.1-1.1,0.1c-1.4,0-2.7-0.3-4.2-0.3c0,0-0.1,0-0.3,0
		c-1.5-0.1-3-0.3-4.5-0.3c-1.1,0-2.2,0.1-3.3,0.1c-0.5,0-1,0-1.4-0.1c-0.1,0-0.4,0-0.5,0c-2.5,0-4.8,0.7-7.1,1.1
		c-0.8,0.1-1.5,0.4-2.2,0.4c-0.1-0.5-0.4-1-0.5-1.5c-0.3-0.5-0.4-1.2-0.7-1.9c3.8,0.1,6.6-1.2,9.6-1.4c1.2,0,2.6,0.1,3.8,0.3
		c0.5,0,1.1,0.1,1.5,0.1c1.1,0,2.2-0.1,3.3-0.3c2,0.1,4.1,0.5,6.1,0.7c1.8-0.1,3.6-0.4,5.3-1c0.4-0.1,0.7-0.1,1.1-0.1
		c0.8,0,1.8,0.3,2.3,0.8c1.8,1.6,9.8,7.5,12.3,7.9c1.6,0.1,3.3,0.1,4.9,0.4c0.8,0.1,1.5,0.3,2.2,0.3c3.3,0,9.8-2.7,12.7-4.1
		L376.9,81.5z M354.7,94.7c-0.7-0.7-1.2-1.6-1.8-2.5c-1.4-2-2.9-4-4.9-5.5c-2.3-1.6-6-4.2-8.9-4.5c-0.8-0.1-1.5-0.1-2.3-0.1
		c-0.4,0-0.8,0-1.2,0c-0.5,0-1.2,0-1.8-0.1c-2.5-0.3-5.2-0.3-7.8-0.3c-1,0-1.9,0-3,0.1c-2,0-4.1,0.4-6.1,0.8c-0.4,0-1,0.1-1.4,0.3
		c-0.7-1-1.2-1.9-1.6-2.9c0.7-0.1,1.2-0.3,1.9-0.4c1.9-0.4,3.8-0.8,5.7-1c0.5,0,1.1,0,1.5,0c1.4,0,2.6,0,4,0c1.1,0,2.2,0,3.4,0
		c1.6,0.3,3.4,0.1,5.1,0.3c0.3,0,0.5,0,0.8,0c1.1,0,2.3-0.1,3.6-0.1c1,0,2,0.1,3,0.7c1.6,1,8.3,5.2,9.6,6.4c1.1,1.4,4.9,6.7,5.3,7.9
		C356.8,94.6,355.7,94.7,354.7,94.7z M348,95c-2-2.7-4.6-4.9-7.6-6.3c-2.7-1.2-5.7-1.1-8.5-1.4c-1.4,0-2.6,0-4,0s-2.7,0-4.1,0
		c-1.4,0.1-2.7,0.3-4.1,0.4c-1-0.8-1.9-1.8-2.7-2.7c3.3-0.7,6.4-1,9.7-1c1.4,0,2.9,0,4.2,0.1c0.1,0,0.4,0,0.5,0
		c10.1,0,14.1,2,20.3,10.7C350.6,94.9,349.3,95,348,95z M344.9,94.9c-1.9,0-3.8-0.1-5.5-0.3c-0.4-0.3-1-0.4-1.4-0.7
		c-2.2-0.8-4.5-1.1-6.8-1.2c-0.8,0-1.6,0-2.5,0c-1.8-0.5-3.3-1.2-4.8-2c-0.5-0.3-1-0.5-1.5-0.8c1.9-0.1,3.8-0.3,5.7-0.3
		c3.1,0.1,6.4,0.1,9.6,0.8C340.5,91.2,343,92.8,344.9,94.9z M347,0c0,0.4-0.1,0.8,0,1.1c0,1.6-0.1,3.1,0,4.8c0.3,2.3,0,4.8,0.3,7.1
		c0.1,1.1,0,2.2,0.1,3.3c0.4,2.2,1,4.4,1.4,6.7c0.1,1.2,0,2.5-0.3,3.6c-0.1,0.4-0.1,0.7-0.3,1.1c-1.4,0.3-2.5,0.8-3.4,1.4
		c0.4-1.8,0.7-3.6,0.5-5.3c0.1-1.2-0.1-2.6-0.4-3.8c-1.1-6.1-1.1-13.4-1.1-19.7C344.9,0.1,345.9,0.1,347,0z M349.3,0
		c3.6,0,7.5,0.3,11.9,0.8c1.4,1,2.7,2,4,3.1c1.6,1.8,2.7,4,3.3,6.3c0.8,3,1.5,6,2.5,8.9c0.8,2.6,1.6,5.2,2.3,7.8
		c-1,0.4-1.9,0.5-3,0.5c-1-3.4-2.3-6.6-3.1-10c-0.7-2.9-1.2-5.7-2.5-8.3c-1.8-4.2-5.1-5.7-9-7.2c-0.8-0.3-1.6-0.8-2.5-1
		c-1-0.1-2.2,1-1.5,1.9c0.4,0.8,1.4,1.1,2.2,1.1c3.7,0,7.6,3.7,9,6.8c1.1,2.7,1.5,5.6,2.3,8.5c0.5,2,1.4,4.1,2,6.3
		c0.1,0.5,0.3,1.1,0.5,1.8c-1.1-0.1-2.2-0.1-3.3-0.3c-0.8-2.3-1.9-4.5-2.5-7c-0.8-2.7-1.1-5.7-2.3-8.3c-0.7-1.6-1.9-2.9-3.4-3.7
		c-1.1-0.4-1.9-1.4-3-1.6c-0.1-0.1-0.1-0.1-0.3-0.1c-0.4,0-0.7,0.3-1,0.4c-0.5,0.3-0.5,1-0.4,1.5c0.3,0.8,1.2,1.1,2,1.2
		c1.8,0.4,3.3,1.6,4,3.3c1,2.3,1.2,4.8,1.8,7.2c0.5,2.3,1.6,4.6,2.5,7c-1.1,0-2.2,0-3.3-0.1c-0.7-1.2-1.5-2.5-1.8-4
		c-0.7-2.3-0.7-4.6-1.5-6.8c-0.4-1.1-0.3-2.5-1-3.4c-0.3-0.4-0.7-0.5-1.1-0.5c-0.3,0-0.5,0-0.7,0.1c-0.5,0.3-0.8,1-0.7,1.5
		c0.3,1,0.8,1.6,1.1,2.6c0.7,2.5,1,5.1,1.5,7.5c0.3,1.1,0.8,2,1.4,3c-2,0-3.7,0.1-5.1,0.3c0.3-0.8,0.5-1.8,0.4-2.7
		c-0.1-3-1.1-5.9-1.5-8.7c-0.4-1.6-0.3-3.3-0.3-5.1c0-1.4-0.1-2.6-0.1-4C349.3,4.3,349.3,2.2,349.3,0z M351.5,68.9
		c-0.4-0.4-1-0.7-1.4-1.1c1.5,0.3,3.1,0.4,5.2,0.4h0.5c0.5,0.3,1.1,0.7,1.6,1c2.3,1.2,4.1,1.8,6.8,1.8c2,0,6.3-1.1,7.1-3.3
		c1.4,0.1,2.6,0.7,3.6,1.6c-0.5,1.2-1.9,1.8-3,2.5c-3,1.5-5.7,2.3-9,2.3c-1.5,0-2.9-0.3-4.2-0.8C356,72.3,353.8,70.6,351.5,68.9z
		 M360.1,87.5c1,0,1.8-0.8,1.6-1.6c0.1-1.1-0.8-1.9-1.9-1.9c-0.3,0-0.5,0.1-0.8,0.3c-0.8,0.3-0.8,1.4-0.7,2.2c0.3,0.4,0.7,0.8,1.2,1
		C359.7,87.5,359.8,87.5,360.1,87.5z M368.1,67.7c-1.2,0.7-2.6,1-3.8,1.1c-1.4,0-2.5-0.3-3.7-0.8L368.1,67.7z M376.9,84.1v2.7
		c0.1,1.2-0.4,2.6-1.1,3.6c-0.5-0.7-0.7-1.4-1.2-2c-0.3-0.3-0.7-0.5-1.2-0.5c-0.3,0-0.4,0-0.7,0.3c-0.5,0.3-0.5,1.1-0.4,1.8
		c0.3,0.7,0.8,1,1.4,1.5c0,1.1-1.8,1.4-2.7,1.4c-0.5-1-0.3-2.3-1.4-3c-0.1,0-0.4,0-0.7,0c-0.4,0-0.7,0-1,0.4
		c-0.3,0.3-0.4,0.8-0.3,1.2c0,0.4,0.3,0.8,0.5,1.4c-0.7,0.7-1.8,0.8-2.9,1c-0.7-2.5-0.5-4.4,0.7-5.5c1.2-1.4,3.1-1.5,4.6-2
		C372.8,85.6,374.8,85,376.9,84.1z M371.7,3.1c1.4,1.9,1.6,4.2,2.3,6.6c0.7,3,1.6,6,2.5,9l-0.1,3.3c0,1.2-0.4,2.3-1.1,3.3
		c-0.4-1-0.7-2-1-3c-1.2-4-2.3-7.9-3.4-11.9c-0.7-3-2.2-7-4.9-8.7c1.8,0.3,3.6,0.5,5.3,1L371.7,3.1z M376.9,8.6l-0.1,2.3
		c-0.5-2.2-1.1-4.5-1.8-6.8C376.2,5.2,376.9,6.8,376.9,8.6z"/>
	<path class="st0" d="M409.1,1.8c-0.4,6.6-1.1,8.9-2.9,15.2c-0.5,1.4-1,2.7-1.4,4c-0.7,1.5-1.1,3-1,4.6c0.3,1.6-0.1,3.4-0.4,5.1
		c-0.3,1.5,0.3,3,0.5,4.4c0.7,2.6,0.8,5.1,1.5,7.5c0.8,3,2,5.7,2.7,8.7c1.2,7,2.7,10.2,5.7,16.2c1.4,2.9,2.3,5.7,3.4,8.6
		c0.5,1.4,1.2,2.7,2.2,3.8c1.4,1.4,3.1,2.2,4.6,3.1c0.5,0.3,6.1,3,6.4,3v0.7c0,0.8-0.1,1.4-0.3,2c-2.7-0.5-12-4.8-13.8-7.4
		c-1-1.5-1.5-3.4-2.3-5.1c-1-2.3-1.6-4.6-2.7-6.8c-1-2.2-2.7-4-3.4-6.4c-1-3.4-1.9-6.8-2.7-10.2c-0.8-3.3-2-6.6-2.9-9.8
		c-0.5-2.3-1-4.6-1.5-6.8c-0.1-0.8-0.3-1.5-0.5-2.2c-0.4-0.8-1-1.6-1.8-2.2c-0.8-1.8-2-3-3.7-3.7c-2-2.9-10.7-7.8-14.9-8.1v-3.4
		c0.8,0,1.6,0.1,2.5,0.4c1.5,0.7,3.1,1.1,4.8,1.6c1.5,0.5,2.7,1.5,3.8,2.6c1.4,1.2,2.9,2.5,4.8,2.6c1.5-0.3,2.9-0.8,4.2-1.5
		c1.5-1.1,1.9-2.9,2.3-4.4c1-3.7,2.6-7.1,3.1-10.8c0.1-1.6,0.4-3.3,0.1-4.8L409.1,1.8z M380.1,7.8c0.1-1.4,0.7-2.6,1.5-3.7
		c0.7,0.5,1.4,1,2,1.4c2.2,1,4.5,2.5,7,2.5c0.4,0,0.7,0,1.1,0c0.4-0.1,0.7-0.1,1.1-0.1c0.3,0,0.5,0,0.8,0c0.5,0,1,0,1.5-0.1
		c1.1-0.4,1.4-2,0.3-2.6c-0.3,0-0.5-0.1-0.8-0.1c-1.1,0-2.2,0.8-3.4,0.7c-2.9,0.1-5.2-1.8-7.5-3c0.8-0.5,1.9-0.8,3-0.8h2.2
		c1,0.5,1.6,1.4,2.7,1.4c0.7,0,1.4-0.7,1.2-1.4h3.3c0.8,1.1,1.8,2,2,3.4c0.1,0.8,0.3,1.8,1.1,2.2c0.1,0,0.4,0,0.5,0
		c0.3,0,0.4,0,0.7-0.1c0.8-0.5,0.7-1.5,0.4-2c-0.1-0.4-0.3-0.7-0.4-1c-0.4-0.5-0.7-1.1-1-1.6c-0.1-0.3-0.3-0.5-0.5-0.8h4.1
		c0.1,0.4,0.3,0.8,0.4,1.2c0.5,2.5-0.3,4.8-0.8,7c-0.5,2.5-1.8,4.5-2.2,6.8c-0.4,2.6-1.4,4.5-4.2,4.5c-0.4,0-0.7,0-1.1-0.1
		c-1.8-0.4-2.9-2-4.1-3.1c-1.1-1.1-9.1-3.8-10.8-4l-0.1-3.7c1.4,0,2.5,0.7,3.7,1.2c2,0.8,4.1,1.6,6.3,2.2c0.3,0,0.4,0,0.7,0
		c1.8,0,3.3-1,4.9-1.2c1-0.3,2-0.1,3-0.3c0.4,0,0.8-0.4,1.1-0.7c0.5-0.7,0-2-0.8-2.2c-0.1,0-0.4,0-0.5,0c-1,0-1.9,0.8-2.9,1
		c-1.6,0.4-3.3,0.8-5.1,0.8c-1.2,0.1-2.5-0.4-3.7-1c-1.6-0.5-3.3-1.4-4.8-2C381.5,7.9,380.8,7.8,380.1,7.8z M390.7,27.6h-4
		c-3.1,0-5.7-2.2-6.4-5.1c3,0.5,5.1,1.4,7.6,3.1C388.7,26.3,389.7,26.9,390.7,27.6z M397.9,16.5c-0.1-1-1.1-1.6-1.9-1.6
		c-0.1,0-0.4,0-0.5,0.1c-1,0.1-1.6,1.2-1.4,2.2c0.3,0.7,1.1,1.1,1.9,1.1C396.9,18.3,397.8,17.5,397.9,16.5z M400.9,28.8
		c1.1-0.8,0.7-2.7-0.4-3.3c-0.5-0.1-0.7-0.3-1-0.3c-0.4,0-0.8,0.1-1.1,0.5c-0.5,0.5-0.5,1.4-0.3,2c0.4,1.1,1.2,1.2,2.3,1.2
		L400.9,28.8z M425.7,93c-2.3-0.8-4.9-2.2-7.1-3.6c-0.8-0.4-1.2-1.4-2-1.8c-0.3-0.1-0.5-0.1-0.7-0.1c-0.4,0-0.8,0.1-1,0.3
		c-0.5,0.4-0.4,1.1-0.3,1.6c0.3,0.5,0.8,1,1.5,1.2c1.5,0.8,3.1,1.6,4.6,2.6h-7.6c-0.1-1.2-0.5-2.3-0.7-3.6c-0.1-1.5-0.1-3-0.3-4.5
		c-0.3-1-0.7-1.8-1-2.6c-1-2-1.9-4.2-2.9-6.3c-0.5-1.1-1.1-2.2-1.4-3.4c-0.3-0.8,0-1.8-0.4-2.5c-0.1-0.5-0.8-1-1.4-1
		c-0.3,0-0.4,0.1-0.7,0.3c-0.7,0.4-0.5,1.4-0.4,2c0.5,1.6,1,3.3,1.8,4.9c1.1,2.2,2.2,4.5,3.1,6.8c0.7,1.5,0.8,3.1,1,4.8
		c0.1,1.6,0.4,3.3,0.8,4.9h-3.3c-0.3-1.9-0.5-3.8-0.8-5.9c-0.5-3.4-3.1-9.4-5.5-12.3c-0.5-0.7-1-1.5-0.5-2.3c0.4-1,1-1.8,1.4-2.9
		c0.5-1.2,1.1-2.6,1-4c0-1.2-0.4-2.5-0.8-3.7c-0.5-2-1.1-4.1-1.6-6.1c-0.7-2.2-1.1-3.8-1.6-5.5V37.5c0.4,2.2,1,4.4,1.5,6.4
		c0.3,1.4,0.7,2.7,1.1,4.1c1.4,4.1,2.3,8.2,3.4,12.3c0.5,1.6,0.8,3.1,1.4,4.6c0.5,1.6,1.9,2.9,2.7,4.2c0.7,1.4,1.2,3,1.8,4.5
		c0.8,2,3.1,8.3,4.6,9.8c1.6,1.9,10.2,6.3,13.7,7C428.3,91.9,427.1,92.7,425.7,93z M400.5,68c-0.4,1.2-1,2.5-1.4,3.6L399,59.2
		c0.5,2,1.1,3.7,1.5,5.3v-0.1c0.1,0.7,0.3,1.5,0.1,2.2C400.6,67,400.6,67.6,400.5,68z M404.9,90.9c0.1,0.8,0.3,1.5,0.4,2.3
		c-1.4-0.1-2.6-0.5-3.6-1.2c-0.1-0.4-0.1-0.7-0.1-1.1c-0.1-0.8-0.3-1.6-0.3-2.6c-0.1-1.2-0.4-2.6-0.8-3.8c-0.4-1-1-1.9-1.5-2.7v-6
		c0.4,0.7,0.8,1.4,1.2,2c1.2,2,2.2,3.7,3,5.5C404.2,85.7,404.6,88.3,404.9,90.9z M417.3,1.8h3.6c-0.4,0.8-0.7,1.6-0.8,2.6
		c-0.8,3.1-0.7,6.3-1.5,9.4c-1.5,5.6-3.8,11.1-3.1,16.8c0.1,1.9,1.9,3.1,3.1,4.4c1.8,1.5,2.6,3.6,3.7,5.5c1.6,2.7,4.2,4.5,6.1,6.8
		c1,1.1,1.6,2.5,2.3,3.8v7.5c-1.4-3.6-3.6-8.6-6.3-11.1c-1.1-1.2-2.7-2-3.8-3.4c-1.4-1.8-2.5-4.4-3.1-6.6c-0.1-0.8-0.7-1.5-1.5-1.5
		s-1.5,1-1.2,1.6c0,0.4,0.1,0.7,0.4,1c1.5,2.2,2,5.1,3.7,7.1c1.1,1.4,2.6,1.9,3.7,3c1.4,1.2,2.3,2.9,3.1,4.4
		c1.8,3.8,3.6,7.6,5.1,11.5v11.7c-0.1-1.2-0.1-2.5-0.5-3.6c-0.4-2-1.4-4.1-2-6.3c-1.5-4-3.4-7.8-5.2-11.7c-0.7-1.1-1.4-2.5-1.8-3.8
		c-0.1-0.7-0.8-1.1-1.5-1.1c-0.1,0-0.4,0-0.5,0.1c-0.8,0.3-0.8,1.2-0.5,1.9c0.4,0.8,1.1,1.5,1.5,2.3c2.2,4.9,4.6,9.6,6.4,14.5
		c1,2.6,2,5.3,2,8.2c0.1,1-0.5,2,0.1,3c0.3,0.5,0.7,0.7,1.1,0.7s0.7,0,1-0.3v3c-2.2-0.5-3.6-1.5-4.9-2.2c-1.4-0.8-3-1.4-4.1-2.5
		c-1.2-1.2-1.8-2.7-2.3-4.2c-1.2-3.4-2.5-6.8-4.2-10c-1.6-3-2.9-6.3-3.7-9.7c-0.5-2.3-0.8-4.6-1.6-7c-1.4-4-2.2-6.8-2.9-11.1
		c-0.3-2.2-1.1-4.2-0.8-6.4s0.1-4.4,0.4-6.6c0.3-1.5,0.8-2.9,1.4-4.4c1.5-4.6,3.1-9.4,3.3-14.3c0.3-1.1,0.3-2.2,0.3-3.3h3.3
		c-0.4,2.5-0.4,4.9-1,7.4c-0.5,4.5-2.3,8.7-3.4,13.2c-0.8,2.6-1.1,5.5-0.8,8.3c0.3,1.9,0.5,3.8,0.5,5.7c0,2.5,0.5,4.8,1.4,6.8
		c0.7,1.6,1.6,3.3,1.9,4.9c0.4,1.4,0.4,2.7,0.5,4.2c0.5,3.1,1.9,6,3.3,9c1.1,2.2,2.2,4.4,3.1,6.7c0.8,1.9,1.4,4,2.3,5.9
		c0.4,1,0.4,2,1,3c0.3,0.4,0.7,0.7,1.2,0.7c0.4,0,1-0.3,1.1-0.7c0.7-1.2-0.7-2.3-1.1-3.4c-0.7-1.9-1.4-4-2.2-5.9
		c-1.6-4.2-3.8-8.2-5.6-12.4c-0.5-1.2-1-2.6-1-4c0-1.8,0-3.6-0.7-5.1c-1.1-2.3-2.3-4.4-2.9-6.8c-0.4-2.2,0.1-4.5-0.1-6.7
		c-0.3-1.4-0.5-2.7-0.5-4.2c0.1-5.2,2.2-10,3.4-14.9c0.8-3.1,1.1-6.3,1.5-9.6C416.9,3.3,417,2.6,417.3,1.8z M420,17.2
		c0.4-1.5,1-3.1,1.1-4.8c0.5-2.6,0.5-5.3,1.2-7.8c0.3-1,0.7-1.9,1.1-2.9h3.7c-0.7,1.4-1.5,2.9-1.9,4.4c-0.8,2.5-0.4,5.1-1,7.5
		c-0.3,1.5-0.8,2.9-1.2,4.2c-0.8,2.6-1.5,5.3-1.9,8.1c-0.1,0.5-0.1,1.2,0,1.9c0.1,1.4,0.8,2.6,1.6,3.6c1.2,1.6,2.5,3.4,3.6,5.2
		c1.2,1.9,2.7,3.6,4.4,5.2v4.8c-0.4-0.5-0.7-1-1.1-1.5c-1.6-1.8-3.6-3.3-4.9-5.3c-1.4-1.8-2.2-4-3.8-5.7c-0.8-1-1.9-1.8-2.6-2.9
		c-0.8-1.4-0.7-3.1-0.5-4.8C418.1,23.2,419.1,20.2,420,17.2z M433.1,1.8c-0.5,1.9-1.4,3.7-2.5,5.3c-0.7,1-1.9,1.9-1.5,3.1
		c0.3,0.5,0.8,0.8,1.2,0.8c0.3,0,0.4-0.1,0.5-0.1c0.8-0.4,1.1-1.4,1.4-2.2c0.7-1.2,1.6-2.2,2.2-3.6c0.4-1.1,0.7-2.3,1.1-3.4h2.5
		c-0.3,1.6,0.8,2.5,1,3.7c0,0.7-0.7,1.1-1.1,1.5c-1.9,1.4-2.9,3.6-4.5,4.9c-1.2,1.1-2.6,1.8-3.4,3.1c-1.1,1.5-1.5,3.3-2,5.1
		c-0.4,2.2-1.2,4.5-0.8,6.7c0.3,1.6,1.2,3,2.2,4.4c0.4,0.7,1,1.4,1.5,2l-0.1,5.1c-0.7-0.7-1.4-1.5-1.9-2.3c-1.4-2.2-2.9-4.2-4.4-6.3
		c-1-1.4-1-3.1-0.7-4.8c0.5-2.7,1.1-5.5,2-8.1c0.4-1.2,1-2.3,1.1-3.7c0.1-1.5-0.3-3.1,0.1-4.8c0.3-1.6,1.1-3.3,1.9-4.8
		c0.3-0.5,0.5-1.1,0.8-1.8h3.4L433.1,1.8L433.1,1.8z M439.9,8c0.3-0.4,0.8-0.5,1.4-0.5c0.3,0,0.4,0,0.7,0.1c2.2,0.5,4.2,1,6.4,1.2
		v3.8c-1.1-0.5-2.2-1.2-3.4-1.4c-0.5-0.1-1.1-0.1-1.6-0.1c-0.7,0-1.5,0.1-2.2,0.4c-1.2,0.8-2.2,1.9-3.3,3c-1,1.1-2,2-3,3.3
		c-1.4,1.6-1.9,3.8-2,6c0,1.6,0.5,3,1.4,4.4c-1,0.5-1.9,1.4-2.5,2.2c-0.8-1-1.5-2-1.9-3.3c-0.7-1.9-0.3-3.8,0.1-5.6
		c1-3.8,1.4-4.9,4.4-7.5C436.4,12.1,438.2,10.1,439.9,8z M437.1,27.6c-1.2-1.1-1.8-2.5-1.9-4c0.1-1.6,0.7-3.4,1.8-4.6
		c1-1.1,2.2-2,3-3.1c0.8-1,1.6-1.9,2.7-2.2c0.4-0.1,0.7-0.1,1.1-0.1c1.1,0,2.2,0.4,3.3,0.8c0.5,0.3,1.1,0.7,1.2,1.4
		c0,0.8,0,1.5,0.1,2.2v3.3c0,1-0.3,1.9-0.7,2.9c-0.8-1.2-1.4-2.6-1.9-4c-0.4-0.8-0.4-1.9-0.8-2.9c-0.3-0.5-0.8-1-1.4-1
		c-0.3,0-0.5,0-0.7,0.1c-0.7,0.3-0.8,1.2-0.7,1.9c0.4,0.8,1,1.5,1.4,2.3c0.4,1.1,0.7,2.5,1.4,3.6c0.3,0.7,0.8,1.2,1.2,1.8
		c-0.8,0.7-1.8,1.2-2.9,1.5c-0.8-1-1.6-1.9-2-3.1c-0.4-1.1,0.1-2.3-0.4-3.4c-0.1-0.4-0.7-0.7-1.2-0.7c-0.4,0-0.7,0.1-1,0.4
		c-0.5,0.5-0.4,1.4-0.3,2c0.3,0.8,0.4,1.5,0.7,2.2c0.3,1.1,0.7,1.9,1.4,2.7L437.1,27.6L437.1,27.6z M440.6,2l1.4-0.3
		c2.9,0,5.3,2,6.1,4.8c-1.8-0.4-3.6-1-5.5-1.1c-0.7,0-1.4-0.1-1.6-0.7C440.6,3.9,440.9,3,440.6,2z"/>
	<path class="st0" d="M480.4,30.7c-1.1,1.9-2.7,3.6-3,5.9c0,1.5,0.4,3,0.7,4.5c0.3,1.8,0.5,3.4,0.7,5.1c0.3,1.9,0.1,3.7,0.1,5.6
		c0,2.5-1.8,4.5-1.5,7.1c0.1,2.9,1.1,5.7,1.5,8.7c0.4,1.6,0.1,3.3,0.3,4.9c0,1.4,0.1,2.7,0.1,4.1c0,2.9,0,5.9,0,8.7
		c0,3.3-1.8,4.8-4.9,4.8c-1.2,0-2.5-0.3-3.6-0.4c-3.8-0.8-7.2-3-10.2-5.6c-1.2-1.2-2.7-2.6-3.7-4.1c-1.4-1.9-1.8-4.4-2.3-6.6
		c-0.1-1-0.4-1.8-0.7-2.6V59.5c0.1,0.4,0.3,0.8,0.4,1.4c1.2,4,2.3,7.9,3.3,11.9c1.5,5.1,3,7.8,7.4,10.7c3,2,6.8,3.7,10.5,3.7
		c0.8,0,1.5-1,1.2-1.6c-0.1-0.4-0.5-1-1-1c-0.3-0.1-0.4-0.1-0.7-0.1c-0.5,0-1.1,0.1-1.6,0.1c-0.1,0-0.4,0-0.5,0
		c-5.7-1.1-11.3-5.9-12.7-11.6c-0.8-3-1.5-6-2.5-9c-1.2-3.8-2.5-7.8-3.3-11.7c-0.3-1.2,0.3-2.6-0.5-3.6v-3.3c1.1,0.4,2,1.1,2.6,2
		c1,1.5,1,3.4,1.2,5.1c0.7,4.6,2.7,8.7,3.8,13.2c0.7,2.7,1.2,5.6,2.5,8.3c1.1,2.6,3.3,4.5,5.7,6c1.1,0.5,2.2,0.8,3.3,1.2
		c0.8,0.1,1.6,0.7,2.5,0.8c1,0.1,2.2-1,1.5-1.9c-0.4-0.8-1.4-1-2.2-1c-1.5,0-2.9-0.7-4.1-1.5c-2.2-1.2-4-3-4.9-5.3
		c-1.1-2.7-1.5-5.7-2.3-8.5c-0.5-2.2-1.4-4.2-2-6.3c-0.7-2.3-1.2-4.6-1.6-7c-0.3-1.9-0.5-4.1-2-5.6c-1.1-1-2.5-1.8-3.8-2.2v-3.4
		c1.4,0.8,3,1.2,4.4,2c1.5,0.7,3,1.9,3.6,3.6c0.8,2.9,1,6,1.8,8.9c0.7,3.1,2.2,6,3,9c0.8,2.9,1.1,5.7,2.3,8.5
		c0.8,1.8,4.5,4.8,6.4,5.3c0.5,0,0.8,0,1.2-0.3c0.5-0.4,0.5-1.1,0.4-1.5c-0.3-0.8-1.2-1.1-2-1.4c-1.8-0.3-3.3-1.6-4-3.3
		c-1-2.2-1.2-4.8-1.8-7.1c-0.5-2.5-1.6-4.6-2.5-7c-1.2-3-1.6-6.1-2-9.3c-0.4-1.9-0.8-4-2.2-5.5c-2.5-2.5-6.1-2.7-8.6-5.1v-5.2
		c0.4,0.5,0.8,1,1.1,1.4c1.6,2.3,4.2,3.3,6.6,4.5c1.5,0.8,3.4,1.2,4.4,2.6c0.8,1.1,1,2.5,1.2,3.6c0.3,1.8,0.7,3.6,0.8,5.2
		c0.3,2.2,0.5,4.5,1.5,6.6c0.7,1.8,1.9,3.4,2.3,5.3c0.5,2.2,0.7,4.6,1.5,6.8c0.4,1.1,0.3,2.3,1,3.3c0.3,0.5,0.7,0.7,1.1,0.7
		c0.3,0,0.5-0.1,0.7-0.1c0.5-0.4,0.8-1,0.7-1.6c-0.3-0.8-0.8-1.6-1.1-2.5c-0.7-2.6-1-5.1-1.5-7.6c-0.4-1.9-1.9-3.3-2.6-5.1
		c-0.7-1.4-0.8-2.9-1.1-4.4c-0.1-2.9-1-8.2-2-10.9c-0.4-1.1-1.4-1.8-2.3-2.3c-1.6-0.8-3.6-1.6-5.3-2.6c-2-1.1-4.2-2.5-5.2-4.6
		c-0.3-0.5-0.5-1.1-1.2-1.4l-0.4-3.1c1,0.8,2,1.4,3,2.2c1,0.7,1.8,1.6,2.9,2.5c1.9,1.8,6.7,4,9.3,4.8c0.5,0.1,1.4,0.1,1.8,0.5
		c0.5,0.5,0.5,1.4,0.7,2c0.1,1.8,0.8,3.6,1.1,5.3c0.5,2.7,0.7,5.6,1.1,8.5c0.1,1-0.1,1.9,0,3c0.3,0.5,0.8,0.8,1.4,0.8
		c0.4,0,0.8-0.1,1-0.4c0.5-0.7,0.3-1.5,0.1-2.2c-0.4-1.1-0.1-2.3-0.4-3.6c-0.3-3.7-1-7.2-1.6-10.9c-0.1-1-0.7-1.9-0.7-2.9
		c0.1-0.7,0.8-1.2,1.2-1.6c3.8-3.1,6.1-10,7.5-14.5c0.3-0.8,0.3-1.8,0.1-2.7c-0.8-2.2-9.8-8.1-13-8.6c-1.2-0.4-2.6-0.4-4-0.5
		c-3.3,0-6.4,1.1-9.3,2.5c-0.7,0.3-1.5,0.7-2.2,1.1V7.1c2.3-2,7.6-4,10.8-4c0.4,0,0.7,0,1.1,0.1c1.6,0.1,3.4,0.3,5.2,0.5
		c2.3,0.4,8.2,4.6,10,6.1c1,0.7,1.9,1.6,2.9,2.3c0.5,0.4,1.1,0.5,1.8,0.5v4.6c-0.1,0.4-0.3,1-0.4,1.4
		C484.2,23.1,482.6,27,480.4,30.7z M453.9,18.3v-5.1c0.7-1,1.8-1.4,2.7-1.9c3-1.5,5.7-2.5,9-2.5c5.2,0.5,7.4,2,11.3,5.3
		c1.1,0.7,2.2,1.2,2.7,2.5c0.3,1,0,1.9-0.3,2.7c-0.5,1.5-1,3-1.5,4.5c-1,2.2-2.2,4.2-3.8,6.1c-0.7,0.7-1.2,1.8-2.2,2.3
		c-0.1,0.1-0.3,0.1-0.5,0.1c-0.4,0-0.8-0.1-1.2-0.3c-1.8-1-3.8-1.5-5.6-2.5c-1.8-0.8-8.3-5.7-9.4-7.4
		C454.4,21,454.1,19.6,453.9,18.3z M482.8,92c-0.4,0.4-1,0.7-1.4,1.1c-0.4,0-0.8,0.1-1.2,0.1H464c-0.8-0.5-1.8-1-2.6-1.6
		c-1.9-1.4-4.1-2.5-5.6-4.4c-0.5-0.7-1.2-1.4-1.9-1.9v-5.7c1.9,4.2,7.4,8.5,11.3,10.7c2.5,1.2,5.1,1.8,7.6,2.2c0.5,0,1.1,0,1.6,0
		c1,0,1.9-0.1,2.9-0.4c1.9-0.7,3.6-2.3,4-4.4c0.3-1.9,0.4-3.8,0.3-5.7c0-1.5,0.1-3.1,0-4.6c-0.3-2.5,0-4.8-0.3-7.2
		c-0.1-1,0-2-0.3-3.1c-0.3-2.3-0.8-4.5-1.2-6.7c-0.3-1.2,0-2.5,0.3-3.7c0.5-1.9,1.1-3.8,1.1-5.9c0.1-4-0.4-7.9-1.1-11.7
		c-0.1-1-0.3-1.8,0-2.7c0.3-1,0.8-1.9,1.4-2.7c1.5-2.2,2.6-4.5,3.7-7c0.1-0.4,0.3-0.8,0.4-1.1V33c-0.8,1.5-1.6,2.9-1.9,4.6
		c-0.1,1-0.1,2,0,3.1c0.4,3.3,1,6.7,0.5,10.1c-0.1,3-1.2,5.9-1.1,8.7c0,1.4,0.3,2.6,0.5,4c0.5,3,0.8,6.3,0.8,9.4
		c-0.1,4.4,0.5,8.7,0,13.1C484.5,87.9,484.5,90.5,482.8,92z M459.2,93.2c-2.6,0-4.8-1.9-5.2-4.4c1.1,1.8,2.7,2.5,4.1,3.4
		c0.4,0.3,1,0.5,1.5,1H459.2z M460.3,1.8c-1.1,0.3-2.2,0.5-3.1,1c-0.7,0.1-1.2,0.4-1.8,0.7c1-1,2.3-1.6,3.8-1.6L460.3,1.8L460.3,1.8
		z M457.4,19.8c1.4,3.1,8.3,7.5,11.6,8.5c0.3,0.1,0.5,0.1,0.8,0.1c1.2,0,2.3-0.8,3-1.8c1.8-2.2,3.1-4.9,3.1-7.8
		c0-3.8-8.6-6.8-11.7-6.8c-1.9,0-4,0.7-5.6,1.6c-0.7,0.5-1.4,1.1-1.6,1.9C456.5,16.9,457,18.4,457.4,19.8z M460.3,15.4
		c1.2-0.8,2.6-1.1,4-1.2c2,0,8.3,2.3,9.1,4.6c0.4,1.5-0.1,3-0.8,4.2c-0.5,1-1.2,2-2.2,2.6c-0.3,0.1-0.7,0.1-1,0.1
		c-0.5,0-1.1-0.1-1.5-0.4c-2.6-1.5-7.6-4.2-8.6-7.1C458.9,17.2,459.5,16,460.3,15.4z M464,16.8c-1,0-1.8,1-1.4,1.9
		c0.5,1.1,1.9,1.1,2.9,1.4c1.2,0.4,2,1.5,3,2.2c0.3,0,0.5,0.1,0.8,0.1c0.5,0,1-0.1,1.2-0.5c0.3-0.4,0.3-1,0.1-1.4
		c-0.5-1.2-1.9-1.2-3-1.8c-1.2-0.4-2-1.4-3.3-1.8C464.3,16.8,464.1,16.8,464,16.8z M472.4,1.8h6.3c1.6,1.1,3.3,2.2,4.9,3.4
		c0.5,0.3,1.2,0.7,1.8,1c0.1,0.3,0.1,0.7,0.1,1.1v3c-0.7,0-1.2-0.4-1.6-0.8C482.4,8,474.5,2.4,472.4,1.8z M485.6,59.9
		c0-0.5,0-1.1,0-1.6V59.9z"/>
	<path class="st0" d="M502.4,2c-2.3,1.4-4.5,3.3-7,4.5c-1.6,0.8-3.4,1.4-4.9,2.5c-0.1-1.5,0.1-2.9,0.8-4.1c1.8-0.4,3.3-1.2,4.6-2.3
		c0.4-0.3,0.8-0.5,1.1-0.8h5.7L502.4,2z M507.3,1.8h5.2c-3.6,2.9-7.6,5.2-11.5,7.8c-3,1.9-6.3,3.3-9.1,5.3l-1-3.3
		c0.4-0.1,0.7-0.4,1-0.7c1.9-1.2,4.1-1.9,6-3.1c2-1.2,4-2.7,6-3.8C504.9,3.3,506.2,2.4,507.3,1.8z M516.8,1.8c1.2,0,2.5,0.4,3.6,1.1
		c-0.8,0.5-1.6,1.1-2.3,1.6c-3.1,2-5.9,4.6-9.1,6.6c-2,1.2-4,2.5-5.9,3.7c-2.2,1.5-4.6,2.5-6.8,3.8c-1.2,0.5-2.3,1.4-3.4,2l-0.7-3.3
		c1-0.7,2.2-1.2,3.3-1.9c1.9-1.1,3.8-2,5.6-3.1c2.3-1.4,4.5-2.9,6.8-4.2c3-1.9,5.7-4.2,8.7-6.3L516.8,1.8L516.8,1.8z M519.8,6.1
		c0.8-0.5,1.5-1,2.3-1.4c0.5,0.8,1,1.6,1.1,2.7v0.4c-3,1.2-5.1,2.7-6.7,4.5c-1.2,1.1-2.5,2.2-4,2.9c-2.2,1.1-4.2,2.5-6.1,4
		c-1.8,1.4-3.8,2-5.7,3c-1.8,0.8-3.4,1.9-5.2,2.9c-0.5,0.3-1.1,0.5-1.6,0.8l-0.7-3c1.2-0.7,2.3-1.4,3.4-2c2-1.1,4.2-2,6.3-3.3
		c1.9-1.1,8.2-4.9,9.8-6.3C515.2,9.5,517.2,7.6,519.8,6.1z M520.5,12c1-0.7,1.9-1.2,3-1.5l0.5,3.7c-0.8,0.1-1.6,0.3-2.3,0.3
		c-0.8,0-1.9,0.5-1.8,1.5c-0.1,0.7,0.5,1.4,1.4,1.2c0.7,0.1,1.4-0.4,2-0.5l1.4,3.3c-1.8-0.1-3-0.1-4.4-0.4c-0.7-0.1-1.4-0.3-2.2-0.3
		s-1.6,0.1-2.3,0.5c-2.7,1.1-7.8,3.8-8.2,7.2c-0.4,4.2-0.5,8.6-0.4,12.8c0.1,2.5,0,4.8,0.1,7.1c0.1,1.4,0.1,2.7,0.3,4.1
		c0.3,2.7,1.1,5.3,1,7.9c-0.1,2.7-0.8,5.5-1.1,8.2c-0.1,2.5-0.1,5.1,0.3,7.5c0.1,1.6,0.5,3.3,0.3,5.1c-0.3,1.2-0.8,2.3-1.4,3.6
		c-0.4,0.5-0.5,1.1-1,1.6l-1.2-6c0.1-0.7,0.3-1.4,0.3-2.2c-0.3-2-0.5-4.2-0.7-6.3c0-4,1.5-7.8,1.2-11.6c0.1-3.1-0.8-6-0.8-9
		c-0.3-3.1-0.1-6.3-0.3-9.4c-0.3-3.4,0-6.8,0-10.1c0-1.1,0.8-2,0.7-3.3c0-0.7-0.7-1.2-1.4-1.2c-0.3,0-0.5,0-0.7,0.3
		c-0.8,0.5-0.8,1.6-0.8,2.5c0,1.1-0.1,2.2-0.1,3.3c0,6.4,0,13,0.3,19.5c0.1,1.4,0.4,2.9,0.7,4.2c0.3,1.9,0.3,3.7,0.1,5.6
		c-0.1,1.9-0.5,3.7-1,5.6l-3-14.9c0-0.4,0-0.8-0.1-1.2c0-3.8,0.3-7.5-0.1-11.3c-0.1-1.8,0.3-3.6,0.1-5.3c-0.1-1.1,0.1-2.2,0.4-3.1
		c0.3-1-0.5-2-1.5-2c-0.1,0-0.1,0-0.3,0c-1,0.3-1.2,1.2-1.1,2c0.4,2.5,0.1,5.1,0,7.5l-2.2-10.1c2-1.1,4.1-2,6-3.3
		c1.4-0.8,3-1.4,4.5-1.9c1.9-0.7,3.3-2.3,4.9-3.4s3.4-2,5.1-2.9C517.1,15.7,518.3,13.2,520.5,12z M508.5,84.8c0.8-1.5,1.8-3,2-4.8
		c0-1.1,0-2,0-3.1c-0.5-3.4-1.1-6.8-0.7-10.1c0.3-3,1.2-5.9,1.1-8.9c0.1-1.2-0.1-2.6-0.4-3.8c-0.5-3.1-1-6.3-0.8-9.4
		c0-4.4-0.5-8.7-0.1-13.1c0.4-5.9,1-6.3,6-9c1.1-0.7,2.2-0.8,3.3-0.8c0.7,0,1.2,0,1.8,0.1c1.5,0.3,2.9,0.4,4.4,0.5l0.4,3.4
		c-1.4-0.4-2.7-0.7-4.2-0.8c-0.4,0-1-0.1-1.5-0.1c-1,0-1.9,0.1-2.9,0.5c-1.9,0.7-3.7,2.3-4,4.4c-0.3,1.9-0.4,3.8-0.4,5.7
		c0.1,1.5,0,3.1,0.1,4.6c0.3,2.5,0,4.8,0.1,7.1c0.1,1.1,0.1,2.2,0.3,3.3c0.4,2.2,1,4.5,1.4,6.7c0.1,1.2,0,2.5-0.3,3.6
		c-0.5,2-1.1,4-1.2,6c-0.1,4,0.5,7.8,1.2,11.7c0.1,0.8,0.3,1.8,0,2.7s-0.8,1.8-1.4,2.6c-1.5,2.3-2.7,4.6-3.7,7.1c-1.4,0-2-1-2.5-2.2
		C507.3,87.4,507.8,86.1,508.5,84.8z M519.8,27.3c1.1,0,2.5,0.1,3.6,0.4c0.8,0.1,1.5,0.4,2.3,0.7l0.4,3.7c-1.2-0.7-2.6-1.1-4-1.4
		c-1.1,0-2-0.5-3-0.5c-0.1,0-0.3,0.1-0.4,0.1c-0.8,0-1.5,0.8-1.2,1.6c0.1,0.4,0.4,0.8,1,1c0.1,0.1,0.4,0.1,0.7,0.1
		c0.5,0,1.1-0.1,1.6-0.1c0.1,0,0.3,0,0.4,0c1.9,0.4,3.7,1.1,5.3,2l0.4,4.4c-0.7-0.7-1.6-1.4-2.5-1.9c-1.1-0.5-2.2-0.8-3.3-1.2
		c-1-0.3-1.6-0.8-2.6-1s-2,1-1.5,1.9c0.4,0.8,1.4,1.1,2.2,1.1c1.5,0,2.9,0.7,4.2,1.4c1.6,1,3,2.2,4,3.8l1.9,16.4
		c-0.7-1.8-1.4-3.6-1.8-5.3c-0.8-2.9-1.1-5.9-2.3-8.5c-0.7-1.6-1.9-2.9-3.6-3.6c-1-0.5-1.8-1.5-2.9-1.8c-0.1-0.1-0.3-0.1-0.3-0.1
		c-0.4,0-0.7,0.3-1,0.4c-0.5,0.3-0.5,1-0.4,1.5c0.3,0.8,1.2,1.1,1.9,1.2c1.8,0.4,3.3,1.6,4.1,3.3c1,2.3,1.2,4.8,1.8,7.2
		c0.5,2.5,1.6,4.6,2.5,7c1.2,3,1.5,6.1,2,9.3c0.4,1.9,0.7,4,2,5.5c2.6,2.5,6.3,2.7,8.9,5.2c1.2,1.4,2.3,3,3,4.8
		c0.7,1.9,0.3,4,0.5,5.9c0,0.5,0.1,1,0.3,1.5h-3.6c-1.2-1.5-2.5-2-3.4-2.9c-1.1-0.8-1.9-1.8-2.9-2.5c-1.8-1.5-7-4.4-9.3-4.8
		c-0.7-0.1-1.4-0.1-1.9-0.7c-0.4-0.4-1.5-6.6-1.6-7.2c-0.5-2.9-0.7-5.7-1.2-8.5c-0.1-1,0.3-2,0-3c-0.1-0.5-0.7-1-1.2-1
		c-0.4,0-0.8,0.1-1.1,0.5c-0.4,0.7-0.3,1.5,0,2c0.4,1.2,0.1,2.5,0.3,3.7c0.3,3.7,1.1,7.2,1.8,10.9c0.1,1,0.7,1.8,0.5,2.9
		c0,0.7-0.7,1.1-1.2,1.6c-2,1.6-4.6,6.1-5.5,8.7h-1.1c-0.8,0-1.5-0.1-2.2-0.4c1-2,1.9-4.2,3-6.1s2.9-3.6,3-5.9
		c0-1.5-0.3-3.1-0.5-4.6c-0.4-1.6-0.5-3.3-0.7-4.9c-0.3-1.9-0.1-3.8-0.1-5.6c0-2.5,1.6-4.6,1.5-7.1c-0.1-3-1.1-5.9-1.6-8.7
		c-0.3-1.6-0.1-3.3-0.1-4.9c0-1.4-0.3-2.7-0.3-4.1c0-3,0-5.9,0-8.9c0.1-1.5,0.5-3.1,2-4C517.6,27.4,518.7,27.3,519.8,27.3z
		 M537.4,93.2h-4.9c-2.7-1.9-4.9-3.6-7.4-4.1c-0.3-0.1-0.5-0.1-0.8-0.1c-2.2,0-3.8,2.5-4.6,4.2h-3.3c0.7-1.9,4-7,5.7-8.2
		c0.3-0.1,0.4-0.1,0.7-0.1c0.4,0,0.8,0.1,1.2,0.3c1.8,0.8,3.8,1.4,5.6,2.3C532.3,88.9,535.1,91.2,537.4,93.2z M517.5,47.9
		c0.3,1,0.8,1.8,1.1,2.6c0.7,2.5,1,5.1,1.5,7.5c0.4,2,1.9,3.4,2.6,5.2c0.7,1.4,0.8,2.9,1,4.4c0.3,2.2,0.7,4.5,1,6.7
		c0.4,1.4,0.5,2.9,1.2,4.2c0.4,1,1.2,1.8,2.2,2.2c1.8,1,3.7,1.6,5.5,2.6c2,1.1,4.1,2.5,5.1,4.8c0.3,0.5,0.7,1.1,1.4,1.2
		c0,0.1,0.1,0.1,0.3,0.1c0.5,0,1-0.4,1.2-0.7c0.1-0.5,0.1-1.2-0.3-1.8c-0.7-0.8-1.5-1.4-2-2.3c-1.5-2.2-4.2-3.1-6.6-4.4
		c-1.5-0.8-3.3-1.2-4.4-2.7c-0.7-1-0.8-2.3-1.1-3.6c-0.3-1.6-0.7-3.4-0.8-5.2c-0.3-2.2-0.5-4.4-1.5-6.4c-0.7-1.8-1.9-3.4-2.5-5.3
		c-0.5-2.3-0.7-4.6-1.4-6.8c-0.5-1.1-0.4-2.3-1-3.4c-0.3-0.4-0.7-0.5-1.2-0.5c-0.1,0-0.4,0-0.5,0.1
		C517.6,46.7,517.2,47.4,517.5,47.9z M524.7,91.6c0.5,0,1.1,0.1,1.5,0.4c0.7,0.3,1.5,0.8,2.2,1.2h-6.3c0.4-0.7,1-1.2,1.6-1.5
		C524.1,91.6,524.5,91.6,524.7,91.6z M550.1,93.1c-0.4,0.1-0.8,0.1-1.2,0.1h-2.2c-0.1-0.8-0.3-1.5-0.4-2.3c0-0.8-0.1-1.6-0.1-2.6
		c-0.4-3.3-1.9-6.3-4-8.9c-1.6-1.9-4.2-2.5-6.3-3.6c-1.5-0.7-3-1.9-3.6-3.6c-0.8-3-1-6-1.8-9c-0.1-0.7-0.4-1.4-0.7-2h2.2l0.3-2.6
		c1.1,2.2,1.6,5.7,1.9,8.1c0.4,1.9,0.7,4.1,2.2,5.6c1.4,1.2,3,2.2,4.9,2.3c0.7,0,1.5-0.1,2,0.5c0.7,0.7,1.1,1.8,1.6,2.6
		c2.7,4.5,4.2,7.6,4.5,13.1C549.7,91.6,550,92.4,550.1,93.1z M545.2,68c-0.3,1.2-0.8,2.5-1.4,3.6c-0.1,0.7-0.7,1-1.4,1
		c0,0-0.1,0-0.3,0c-1.6-0.1-3.6-1-4.5-2.5c-1-1.5-1-3.4-1.4-5.2c-0.5-4.1-2.2-7.9-3.4-12l1-8.7c1,3.4,1.6,6.4,2.6,9.4
		c1.2,3.8,2.5,7.6,3.3,11.7c0.1,1.2-0.4,2.7,0.7,3.8c0.1,0.1,0.4,0.3,0.7,0.3c0.8,0,1.5-0.7,1.5-1.5c-0.4-3.1-1.9-8.5-2.7-11.3
		c-1.2-4-2.3-7.9-3.4-11.9c-0.4-1.9-1.1-3.8-2-5.5l0.5-4.5c0.8,0.8,1.6,1.6,2.3,2.7c1.4,1.9,1.6,4.2,2.3,6.6
		c1.2,5.2,3,10.4,4.2,15.6c0.4,1.6,1.1,3.3,1.4,4.9v-0.1c0.3,0.7,0.3,1.5,0.3,2.2C545.5,67,545.4,67.6,545.2,68z M555.7,73.9
		c0.4,1.4,1,2.6,1.5,3.8l-1.1,5.2c-1.1-2.3-1.9-4.5-2.9-6.6c-0.5-1.1-1.1-2.2-1.5-3.4c-0.1-0.8,0.1-1.8-0.3-2.5
		c-0.3-0.5-0.8-1-1.4-1c-0.3,0-0.5,0.1-0.7,0.3c-0.7,0.4-0.5,1.4-0.4,2c0.5,1.6,1,3.3,1.8,4.9c1.1,2.2,2.2,4.5,3.1,6.8
		c0.7,1.5,0.8,3.1,1,4.8c-0.4,1.9-1.4,3.1-2.6,3.8c-0.3-1.5-0.5-3.1-0.7-4.8c-0.4-2.7-1.5-5.3-2.9-7.6c-0.8-1.6-1.5-3.3-2.6-4.6
		c-0.5-0.7-1-1.5-0.7-2.3c0.5-1,1.1-1.8,1.5-2.9c0.5-1.2,1.1-2.6,1-4c0-1.5-2-8.3-2.6-9.8c-1-3.4-1.8-6.4-2.6-9.3
		c-0.8-2.9-1.4-5.6-2.2-8.3c-0.7-2.2-2.3-3.8-3.8-5.5c-0.4-0.5-1-1-1.5-1.4l0.4-4c1,0.7,1.9,1.4,2.7,2.3c1.1,1.4,2.3,2.5,3.6,3.6
		c1.1,1.1,1.6,2.6,1.8,4c0.5,2.3,1,4.5,1.5,6.7c0.4,1.4,0.8,2.7,1.2,4.1c1.4,4.1,2.2,8.2,3.4,12.3c0.4,1.5,0.8,3.1,1.4,4.6
		c0.5,1.6,1.8,2.7,2.6,4.2C554.6,70.8,555.1,72.5,555.7,73.9z M553.8,1.8c0,6-1.8,13.5-4.2,19.1c-0.5,1.5-1.1,3-0.8,4.6
		s-0.1,3.4-0.4,5.1c-0.3,1.5,0.3,3,0.5,4.4c0.7,2.5,0.8,5.1,1.5,7.5c0.7,3,2,5.7,2.6,8.7c0.8,3.8,1.8,7.6,3.3,11.2
		c0.7,1.8,1.8,3.4,2.6,5.1l-0.8,6c-0.5-1.2-1-2.6-1.6-4c-1-2.2-2.7-4.1-3.4-6.4c-1-3.4-1.9-6.8-2.9-10.2c-0.7-3.4-1.9-6.6-2.7-9.8
		c-0.7-2.3-1-4.6-1.5-7c-0.1-0.7-0.3-1.4-0.7-2c-0.3-0.8-1-1.6-1.6-2.2c-1.5-1-2.7-2.2-3.7-3.7c-1-1.4-2.5-2-3.8-3l0.3-3.6
		c1.2,1.1,2.7,2.2,4.4,2.3c1.5-0.3,3-0.8,4.4-1.5c1.5-1.1,1.9-2.9,2.3-4.4c1-3.7,2.6-7.1,3.1-10.8c0.1-1.6,0.4-3.3,0.1-4.8
		L553.8,1.8z M543.9,1.8h4.1c0.1,0.4,0.3,0.8,0.4,1.2c0.5,2.5-0.3,4.8-0.8,7c-0.5,2.3-1.8,4.5-2.2,6.8c-0.4,1.5-0.8,3.1-2.2,4
		c-0.5,0.4-1.2,0.5-2,0.5c-0.4,0-0.8,0-1.1-0.1c-1.4-0.4-2.5-1.4-3.4-2.5l0.5-5.2c1.2-0.3,2.3-0.7,3.4-1c1-0.3,2-0.1,3-0.3
		c0.4,0,0.7-0.4,1-0.7c0.7-0.7,0.1-2-0.8-2.2c-0.1,0-0.3,0-0.4,0c-1,0-1.9,0.8-2.9,1c-1,0.3-2,0.5-3,0.7l0.4-3.3c0.1,0,0.4,0,0.5,0
		c0.5,0,1.1,0,1.6-0.1c1-0.4,1.2-2,0.1-2.6c-0.5,0-1,0-1.5,0c0.7-1.1,1.6-2,2.9-2.6c0.7,0.8,1.2,1.6,1.4,2.7c0.3,0.8,0.4,1.8,1.1,2
		c0.3,0.1,0.4,0.1,0.7,0.1c0.1,0,0.4,0,0.5-0.1c0.8-0.5,0.8-1.5,0.5-2c-0.1-0.4-0.3-0.7-0.5-1c-0.3-0.5-0.5-1.1-0.8-1.6
		C544.3,2.3,544.1,2,543.9,1.8z M542.6,16.5c0-1-1-1.6-1.8-1.6c-0.3,0-0.4,0-0.5,0.1c-1,0.1-1.8,1.2-1.4,2.2
		c0.3,0.7,1.1,1.1,1.8,1.1C541.7,18.3,542.6,17.5,542.6,16.5z M545.8,28.8c1.1-1,0.7-2.7-0.5-3.3c-0.4-0.3-0.5-0.3-0.8-0.3
		c-0.4,0-0.8,0.1-1.1,0.4c-0.5,0.7-0.5,1.5-0.4,2.2c0.4,1.1,1.4,1.2,2.3,1.2L545.8,28.8z M556,5c0.1-1.1,0.3-2.2,0.3-3.3h3.3
		c-0.4,2.5-0.5,4.9-1,7.4c-0.5,4.5-2.3,8.7-3.6,13.1c-0.7,2.7-1,5.6-0.7,8.5c0.3,1.9,0.5,3.8,0.5,5.7c0,2.3,0.4,4.8,1.4,6.8
		c0.5,1.6,1.5,3.1,1.9,4.9c0.4,1.4,0.4,2.7,0.5,4.2c0.3,2.2,1.2,4.4,2.2,6.6l-1.1,5.3c-1.6-3-2.9-6.3-3.7-9.6
		c-0.5-2.3-0.8-4.8-1.5-7c-0.7-1.9-1.5-3.7-1.9-5.6c-0.5-1.8-0.8-3.7-1-5.5c-0.3-2.2-1.2-4.2-1-6.4c0.4-2.2,0.3-4.5,0.5-6.7
		c0.3-1.4,0.8-2.7,1.2-4.2C554.1,14.7,555.7,9.9,556,5z M564.2,1.8c0.5,0,1,0,1.4,0.1c-0.3,0.8-0.5,1.6-0.8,2.5
		c-0.7,3.1-0.5,6.3-1.5,9.4c-1.4,5.5-3.8,11.1-3.1,16.8c0.3,1.9,1.9,3.1,3.3,4.2c0.7,0.7,1.2,1.5,1.8,2.3l-1,4.9
		c-0.3-0.7-0.7-1.4-1-2c-0.5-0.8-0.7-1.6-1-2.5c-0.1-0.8-0.8-1.5-1.5-1.5c-0.8,0-1.5,1-1.4,1.6c0.1,0.4,0.3,0.7,0.4,1
		c1.6,2,2,4.8,3.7,7l-1.8,9.3c-0.4-1.2-0.8-2.3-0.8-3.6c0-1.8,0-3.6-0.8-5.1c-1-2.3-2.2-4.5-2.7-6.8c-0.4-2.2,0.1-4.5-0.1-6.7
		c-0.3-1.4-0.5-2.7-0.5-4.2c0-5.2,2.2-10,3.4-14.9c0.8-3.1,1.1-6.3,1.5-9.6c0-0.8,0.3-1.5,0.5-2.3L564.2,1.8L564.2,1.8L564.2,1.8z
		 M566.5,29.9l-0.8,4.2c-0.8-1.1-1.9-1.9-2.6-3c-0.8-1.4-0.8-3.1-0.5-4.8c0.4-3.1,1.4-6.1,2.2-9.1c0.5-1.6,1-3.1,1.2-4.8
		c0.5-2.6,0.4-5.3,1.2-7.8c0.1-0.7,0.4-1.2,0.5-1.8c1.1,0.7,1.9,1.6,2.3,2.9c-0.8,2.9-0.4,5.5-1,7.9c-0.3,1.4-0.8,2.9-1.2,4.2
		c-0.8,2.6-1.5,5.3-1.9,7.9c-0.1,0.7-0.1,1.4,0,2C566,28.5,566.3,29.2,566.5,29.9z"/>
	<path class="st0" d="M575.4,20.9V5.6c0-1.1,0.5-2.2,1.4-2.9c0.3,2-0.1,3.8-0.4,5.5c-0.3,1.5,0.3,3,0.5,4.5c0.7,2.5,0.8,5.1,1.5,7.5
		c0.7,2.9,2,5.6,2.6,8.6c0.8,3.8,1.8,7.6,3.3,11.2c0.7,1.8,1.8,3.4,2.6,5.2c1.4,2.7,2.3,5.6,3.4,8.5c0.5,1.4,1.2,2.9,2.2,3.8
		c1.4,1.4,3,2.2,4.6,3.1c0.7,0.4,6.1,3.1,6.6,3.1c1,0,1.6-1.1,1.2-1.9c-0.4-0.8-1.4-1-2-1.1c-1.4-0.3-7.4-3.6-8.5-4.5
		c-1.1-1.1-1.6-2.7-2.2-4.2c-1.2-3.4-2.5-6.7-4.2-10c-1.6-3-3-6.3-3.8-9.7c-0.5-2.3-0.8-4.6-1.5-7c-0.7-1.9-1.5-3.7-1.9-5.6
		c-0.5-1.8-0.8-3.6-1-5.5c-0.3-2.2-1.2-4.2-1-6.4c0.3-2,0.3-4.1,0.5-6.1h3.3c-0.3,2.2-0.5,4.4-0.3,6.6c0.3,1.9,0.5,3.8,0.5,5.9
		c0,2.3,0.4,4.6,1.4,6.8c0.5,1.6,1.5,3.1,1.9,4.8c0.4,1.4,0.4,2.9,0.5,4.2c0.4,3.1,1.9,6.1,3.3,9c1.1,2.2,2.2,4.4,3.1,6.7
		c0.8,1.9,1.4,4,2.2,5.9c0.5,1,0.5,2,1.1,3c0.3,0.5,0.7,0.7,1.2,0.7c0.4,0,1-0.3,1.1-0.7c0.5-1.2-0.7-2.2-1.1-3.3
		c-0.7-2-1.4-4.1-2.2-6c-1.6-4.2-4-8.2-5.6-12.4c-0.5-1.2-1-2.6-1-4c0-1.6,0-3.6-0.8-5.1c-1-2.2-2.2-4.4-2.7-6.8
		c-0.4-2.2,0.1-4.5-0.1-6.7c-0.3-1.4-0.5-2.7-0.5-4.1c0-1.6,0.1-3,0.5-4.5h3.3c-0.4,2.2-0.5,4.2-0.4,6.6c0.3,1.9,1.9,3,3.3,4.2
		c1.6,1.5,2.6,3.7,3.7,5.5c1.5,2.7,4.1,4.5,6,6.8c3.8,4.1,10.1,21,10.8,27.4c0,2,0.1,4.1,0.3,6.3c0,0.4,0,0.8,0.1,1.2H611
		c-0.7,0-1.4,0.1-1.9,0.4c-0.3-2.2-0.3-4.6-0.3-6.8c-0.3-3.4-1.2-6.7-2.5-9.8c-1.2-4.1-6-15.7-9.1-18.4c-1.2-1.2-2.7-2-3.8-3.4
		c-1-1.2-1.5-2.7-2.2-4.1c-0.5-0.7-0.7-1.6-1-2.5c-0.1-0.7-0.8-1.5-1.5-1.5c-0.8,0-1.5,1-1.4,1.8c0.1,0.3,0.3,0.5,0.4,0.8
		c1.6,2.2,2,5.1,3.8,7.2c1,1.2,2.6,1.8,3.7,2.9c4,3.6,10.9,20.9,11.2,27.4c0.3,1.8,0.1,3.4,0.1,5.2c0,1,0.5,1.9,0.4,3
		c0.1,0.3,0,0.7,0,1.1v1c0,1.5,0.8,2.7,2,3.4c-6.4-0.4-10.4-2.5-15.8-5.6c-1.4-0.7-2.9-1.4-3.8-2.9c-1-1.5-1.6-3.4-2.3-5.1
		c-1-2.2-1.6-4.6-2.7-6.8c-1-2.2-2.7-4-3.4-6.4c-1-3.4-1.9-6.8-2.9-10.2C577.5,27.2,576.2,24,575.4,20.9z M576.8,57.3
		c-0.4-1-0.8-1.8-1.4-2.6v-8.3c0.3-1,0.5-1.9,0.5-2.9s-0.3-1.8-0.5-2.6V29.3c0.8,3,1.6,6,2.5,8.9c0.4,1.6,0.8,3.1,1.4,4.8
		c0.5,1.5,1.8,2.7,2.6,4.1c0.8,1.4,1.2,3,1.9,4.5c0.7,1.8,3.3,8.6,4.6,9.8c1,1.1,2.3,1.5,3.6,2.3c2,1.1,4.1,2.5,6.3,3.4
		c3.7,1.6,10.1,2.7,14.1,2.9c1.6,0,3.3-0.1,4.8-0.5c1.1-0.4,2.2-1,3.3-1.5h5.3c-1.5,1.1-2.9,2-4.5,3c-2.5,1.6-5.6,2.2-8.5,2.2
		c-0.5,0-1-0.1-1.5-0.1c-7.5-0.5-13.4-2-19.7-6c-0.8-0.4-1.2-1.2-2-1.8c-0.3-0.1-0.5-0.1-0.8-0.1s-0.7,0.1-1,0.4
		c-0.4,0.3-0.3,1-0.3,1.5c0.4,0.5,1,1,1.6,1.2c2,1.1,4,2.3,6,3.4c1.9,1.2,4.2,1.6,6.4,2.2c3.1,0.5,6.3,1.2,9.4,1.5
		c0.5,0.1,1.2,0.1,1.8,0.1c1.4,0,2.7-0.1,4.1-0.3c3.6-0.5,6-2.5,8.9-4.4c1.4-1,2.6-1.9,4-2.9h4.9c-3,3-6.8,4.6-9.8,7.2
		c-3.4,3-7.1,3.3-11.5,3.3c-1.1,0-2.2,0-3.3-0.1c-4.1-0.4-8.1-1.4-12-2.2c-1.9-0.5-4.1-0.8-5.6-2.2c-0.5-0.5-0.8-1.4-1.4-1.9
		c-0.3-0.3-0.7-0.4-1.1-0.4c-0.1,0-0.4,0.1-0.7,0.1c-0.7,0.4-0.7,1.2-0.4,1.9s1,1.1,1.5,1.5c1.9,1.9,3,2.3,5.6,2.9
		c5.1,1.1,10,2.2,15.2,2.7c1,0,1.9,0,2.9,0c0.8,0,1.6,0,2.5,0c1.8-0.3,3.7-0.5,5.5-1.1c1-0.3,2-0.5,2.9-1.4c1.2-1.1,2.5-2.3,3.8-3.1
		c1.2-0.8,2.5-1.5,3.7-2.5c1.8-1.2,3.7-2.5,4.9-4.2l2.9-0.5c0.4,0,0.8,0,1.1,0.1c-0.5,1.5-1.1,2.7-1.9,3.7c-1.1,1-2.5,1.5-3.6,2.3
		c-1.8,1.1-3,2.6-4.9,3.4c-1,0.5-2.3,0.3-3,1.4c-0.5,0.8,0.3,2,1.4,1.9c1.1-0.3,1.9-1,3-1.2c1.6-0.7,2.7-2.2,4.1-3.3
		c1.2-0.8,2.6-1.4,3.8-2c1.4-0.8,2-2,2.6-3.4c0.1-0.5,0.4-1,0.5-1.4c0.5,0.7,0.8,1.5,0.8,2.3v4.5c-0.3,0.3-0.4,0.4-0.8,0.5
		c-1.1,0.5-2.3,0.8-3.4,1.1c-1,0.3-1.9,0.1-2.7,0.7s-0.7,2,0.3,2.3c0.1,0,0.3,0.1,0.5,0.1c0.5,0,1-0.3,1.5-0.5
		c1.5-0.7,3.1-0.8,4.6-1.2v3.1c-1.1,0.4-2.2,0.7-3.4,1c-0.4,0-1,0-1.5,0c-0.4,0-1,0-1.5,0c-1.4-0.3-2.6-0.7-4-0.7
		c-0.1,0-0.4,0-0.5,0c-1.1,0.1-2.2,0.4-3.4,0.4c-1.6-0.1-3.4-0.7-5.1-0.7c-0.4,0-0.8,0-1.2,0.1c-2.7,0.5-5.5,1.5-8.2,1.5
		c-0.1,0-0.3,0-0.5-0.1c-0.3,0.1-0.5,0.1-0.8,0.1c-2.5,0-4.9-0.4-7.4-0.8c-4.8-0.8-9.6-1.9-14.3-2.9c-1.4-0.3-3.1-0.5-4-2
		c-1.1-1.8-2.5-8.6-2.7-11.1c-0.1-1.5-0.1-3-0.4-4.5c-0.3-1.8-2.9-7.1-3.7-8.7c-0.5-1.2-1.1-2.3-1.5-3.6c-0.1-0.8,0.1-1.6-0.3-2.5
		c-0.3-0.5-0.8-1-1.4-1c-0.3,0-0.5,0.1-0.7,0.3c-0.8,0.4-0.5,1.4-0.4,2c0.5,1.6,1,3.4,1.8,4.9c1.1,2.2,2.2,4.5,3.1,6.8
		c0.7,1.6,0.8,3.3,1,4.9c0.3,3.6,1.8,11.3,3.4,14.2c0.5,1.1,1.8,1.6,2.9,1.9c1.5,0.4,3.1,0.7,4.6,1c3.8,0.8,7.8,1.6,11.6,2.3
		c2.3,0.5,4.5,0.7,6.8,1c0.4,0,0.8,0,1.1,0c0.5,0,1.1,0,1.6,0c0.3,0,0.4,0,0.7,0c3,0,5.9-1.2,8.9-1.5c1.2,0,2.5,0.3,3.8,0.4
		c0.5,0,1,0,1.5,0c1.1,0,2.2,0,3.1-0.1c2.2,0,4.2,0.4,6.3,0.5c1.6,0,3.1-0.3,4.6-0.8v3.6c-1.1,0-2,0-3.1,0.1
		c-0.4,0.1-0.8,0.1-1.2,0.1c-1.4,0-2.7-0.3-4.1-0.3c-0.1,0-0.1,0-0.3,0c-1.5-0.1-3-0.1-4.5-0.1c-1.1,0-2.2,0-3.4,0
		c-0.4,0-0.8,0-1.2,0c-2.7,0-5.2,0.5-7.8,1.1c-0.8,0.1-1.8,0.4-2.7,0.4c-0.3,0-0.4,0-0.7,0c-2.2-0.4-4.4-0.7-6.7-0.7
		c-1.9-0.1-3.8-0.8-5.7-1.2c-5.1-1-10.1-1.8-15-2.7c-1.1-0.3-2.3,0-3.3-0.7c-0.7-1-0.5-2.3-1.1-3.4c-1.8-5.2-2.7-10.7-3.4-16
		C579.2,62.4,578.1,59.8,576.8,57.3z M579.1,87.9c-1.1,1-2.2,1.9-3.4,2.7c-0.1-0.4-0.3-0.8-0.3-1.4v-2.5c1-0.8,1.8-1.5,2-2.6
		c0.3-1.5-0.1-2.9-0.5-4.4c-0.5-2-0.8-4.1-1.4-6.3l-0.1-13.9c0.1,0.4,0.4,0.8,0.5,1.2c1.1,2.5,1.4,5.1,1.6,7.6
		c0.5,3.3,1.4,6.4,2.2,9.7c0.5,1.8,0.8,3.7,1.6,5.5c0.3,0.5,0.5,1.4,0.1,2C580.9,86.6,579.9,87.1,579.1,87.9z M640,93.2h-38.6
		c-4.9-1.2-9.3-1.6-13.5-2.3c-1.9,0-3.3,0-4.9,1.2c-0.4,0.4-0.8,0.7-1.4,1.1h-2.2c-0.8,0-1.6-0.3-2.2-0.7c1.4-1,2.7-2,4.1-3.1
		c0.8-0.7,1.2-1.8,2.2-2.3c0.3,0,0.4-0.1,0.7-0.1c0.5,0,1,0.3,1.5,0.3c1.2,0.4,2.5,0.5,3.7,0.7c4.5,0.7,11.9,1.8,16.1,3.1
		c1.1,0.4,2.2,0.5,3.4,0.5c0.4,0,0.8-0.1,1.2-0.1c0.1,0,0.3,0,0.4,0c1.6,0,3.3,0.8,5.1,0.7c1.2,0.1,2.5-0.3,3.7-0.5
		c1.9-0.4,3.8-0.8,5.7-1c0.4,0,1,0,1.4,0c1.4,0,2.6,0,4,0c1.1,0,2.3,0,3.4,0c1.8,0.3,3.4,0.1,5.2,0.4c0.3,0,0.5,0,0.7,0
		c1.2,0,2.5-0.1,3.6-0.1c0.1,0,0.3,0,0.5,0C643,92.3,641.6,93.2,640,93.2z M591.1,8.7c-1-1.4-0.8-3.1-0.5-4.6
		c0.1-0.8,0.3-1.6,0.4-2.3h3.3c-0.1,0.5-0.3,1.1-0.3,1.8c-0.1,0.7-0.1,1.2,0,1.9c0.1,1.4,0.7,2.6,1.5,3.6c1.4,1.6,2.6,3.4,3.7,5.2
		c1.6,2.6,4,4.8,6.1,7c1.6,1.8,2.7,4.1,3.8,6.4c-1.2,0.5-1.9,1.8-2,3.1c-1.2-2.9-2.6-5.7-4.6-7.9c-1.6-1.9-3.6-3.4-4.9-5.5
		c-1.4-1.8-2.2-4-3.8-5.6C592.9,10.6,591.8,9.8,591.1,8.7z M603.8,55.4c-0.5-1.6-0.3-3.4-0.8-5.1c-1.6-6.3-4.5-12.2-7.4-17.9
		c-0.7-1.2-1.2-2.5-1.6-3.8c-0.1-0.7-0.8-1.2-1.5-1.2c-0.3,0-0.4,0-0.7,0.1c-0.7,0.3-0.7,1.2-0.4,1.9c0.4,0.8,1.1,1.5,1.5,2.3
		c2,4.9,4.6,9.6,6.3,14.5c1,2.7,2,5.3,2.2,8.2c0,1-0.5,2.2,0.1,3.1c0.1,0.4,0.7,0.7,1.1,0.7c0.4,0,0.8-0.1,1.1-0.5
		C604.2,57.1,603.9,56.2,603.8,55.4z M614.7,27h-3.3c-1.1-2.5-2.2-4.9-4-6.8c-1.9-2.3-4.2-4.2-5.9-6.7c-1.5-2-3-4.1-4.4-6.3
		c-1-1.4-1-3.1-0.7-4.8l3.4-0.7c-0.1,0.8-0.1,1.8,0,2.6c0.3,1.6,1.2,3,2,4.4c1.1,1.5,2,2.9,3.3,4.2c1.6,2.3,3.8,4,5.6,6.1
		c1.2,1.4,1.9,3.1,2.6,4.8C613.9,25,614.3,25.9,614.7,27z M602.4,1.8h3.3c0,4.1,5.2,9.8,8.2,12.3c1.2,1,2.5,1.9,3.3,3.4
		c0.7,1.5,1,3.3,1.5,4.9c0.4,1.6,1.2,3.1,2.2,4.6h-3.6c-0.3-0.5-0.5-1.1-0.8-1.8c-0.8-1.8-1.2-3.7-2.2-5.5c-0.8-1.6-2.2-3-3.4-4.2
		c-2.3-2-7.2-7.8-8.3-10.8C602.3,3.8,602.3,2.7,602.4,1.8z M644,23.1c0,1.4-0.7,2.6-1.8,3.3c-0.1-2.7,0-5.6-0.1-8.3
		c-0.3-3.4,0-6.7,0-10.1c0-1.1,0.8-2,0.7-3.1c0-0.8-0.7-1.4-1.4-1.4c-0.3,0-0.5,0.1-0.7,0.3c-0.8,0.5-0.8,1.6-0.8,2.5
		c0,1.1-0.1,2.2-0.1,3.3c0,5.9,0,11.7,0.3,17.6h-3.3c0-3.4,0.1-6.7-0.1-10.1c-0.1-1.8,0.3-3.6,0.1-5.3c-0.1-1.1,0.1-2.2,0.4-3.1
		c0.3-1-0.5-2-1.5-2c-0.1,0-0.3,0-0.3,0c-1,0.3-1.2,1.4-1.1,2c0.4,2.6,0.1,5.1,0,7.6c0,3,0.5,6,0.3,9.1c-0.1,0.5-0.1,1.1-0.1,1.8
		h-3.3c0.1-0.7,0.1-1.4,0.3-1.9c0.3-1.5,0.3-3,0.1-4.5c-0.3-2.2-0.8-4.4-0.5-6.7c0.3-1,1.2-1.8,1.1-3c-0.1-0.5-0.8-1.1-1.4-1.1
		c-0.3,0-0.4,0.1-0.7,0.1c-0.5,0.4-0.8,1.2-1,1.9c-0.1,1-0.5,1.9-0.5,2.9c-0.1,2.7,1,5.3,1,7.9c0,1.5-0.5,2.9-0.7,4.4h-5.2
		c-0.5-0.7-1.1-1.2-1.4-1.9c-1.6-2.7-1.8-6.1-3-9c-0.8-1.6-2.5-2.7-3.8-4c-2.2-1.9-4.1-4-5.7-6.4c-0.8-1.1-1.4-2.5-1.5-4h3.6
		c0.8,3.3,6,9.1,9.3,10.4c0.8,0.3,1.5,1,1.5,1.9c0.1,3.4,1.8,6.6,1.8,10c0.1,0.7,0.8,1.2,1.5,1.2c0.7-0.1,1.4-0.7,1.2-1.5
		c-0.1-1-0.7-1.8-0.8-2.7c-0.5-2.3-0.8-4.8-1.4-7.1c-0.1-0.5-0.1-1.1,0-1.6c0.3-0.5,0.7-0.8,1.1-1.2c1-0.7,1.5-1.9,2.5-2.6
		c2.9-2.6,6.6-3.8,9.7-5.9c0.5-0.3,1.1-0.5,1.8-0.8h0.1c2.2,0,4,1.8,4,3.8v17.3C644.2,23.1,644,23.1,644,23.1z M617.5,59.8h-3
		c0-0.8,0-1.6-0.1-2.3c-0.3-2,0.1-4.1-0.3-6.1c-0.3-3-1.4-5.9-2.2-8.9c-1-2.9-2-5.7-3.3-8.5c0.7,0.5,1.5,0.8,2.5,0.8h1.4
		c0.3,0.7,0.5,1.2,0.8,1.9c1,3,1.8,6,2.7,8.9c1.1,3,1.8,6.1,1.4,9.3C617.1,56.5,617.5,58.1,617.5,59.8z M617.9,1.8
		c0.7,1.4,1.9,2.3,3,3.3c0.7,0.7,1.2,1.4,2.2,1.6c0.1,0,0.4,0,0.7,0s0.7-0.1,1-0.4c0.4-0.3,0.3-1,0.1-1.5c-0.7-1.2-2.2-1.1-3.1-1.9
		c-0.4-0.4-0.7-0.7-1-1.1h5.3c0.4,0.1,0.8,0.1,1.1,0.1c0.4,0,0.8,0,1.2-0.1h6.6c-0.5,0.3-1.1,0.7-1.6,1c-1.9,1.1-4.1,1.6-5.6,3.3
		c-1.2,1.2-2.3,2.5-3.4,3.8c-0.4,0.4-1,0.7-1.4,0.7c-2.2,0-8.1-6.6-8.7-8.6L617.9,1.8z M628.5,54.2c-0.1,1.9-0.5,4-1.6,5.6h-7.1
		c-0.1-0.4-0.3-0.8-0.1-1.2c0-1.8-0.1-3.7,0.1-5.5c0.1-3.6-1.2-6.8-2.2-10.1c-0.8-2.5-1.4-4.8-2.2-7.1c-0.1-0.4-0.3-0.7-0.4-1.1h3.4
		c1,3,1.5,5.9,2.5,8.6c0.8,2,1.6,4.1,1.9,6.3c0.4,2,0.3,4,0,6c-0.3,0.8-0.7,1.5-0.8,2.5c-0.1,0.5,0.3,1.1,0.7,1.4
		c0.1,0.1,0.4,0.1,0.5,0.1c0.7,0,1.2-0.4,1.5-1c0.1-1.1,0.1-2.2,0.4-3.3c0.4-1.8,0.4-3.7,0.1-5.6c-0.3-3.3-1.9-6.1-2.9-9.1
		c-0.5-1.9-1-4-1.5-5.9h3.3c0.5,2.7,1,5.5,2.2,7.9c0.7,1.4,1.5,2.7,1.9,4.2C628.7,49.3,628.7,51.7,628.5,54.2z M634.4,53
		c0,2.3-0.5,4.5-1.4,6.7c-0.4,0-0.8,0.1-1.2,0.1h-2.3c0.8-1.8,1.4-3.7,1.5-5.6c0-2.6,0-5.3-0.4-7.9c-0.4-1.8-1.6-3.1-2.3-4.8
		c-0.7-1.4-1-2.9-1.2-4.4c-0.1-0.8-0.3-1.5-0.4-2.3h3.1c0.1,1.1,0.4,2,0.5,3.1c0.1,1-0.1,1.8,0,2.7c0.3,0.5,0.7,1,1.4,1.1
		c0.4,0,0.8-0.3,1.2-0.7c0.4-1.2-0.4-2.3-0.4-3.6c-0.1-1-0.3-1.8-0.4-2.7c1.6,0.1,3,1.2,3.4,2.7c0.1,0.8,0.1,1.8-0.1,2.7
		c-0.4,2-1.6,4.1-1.5,6.3C634,48.6,634.3,50.8,634.4,53z"/>
</g>
</svg>
