<?xml version="1.0" encoding="utf-8"?>
<!-- Generator: Adobe Illustrator 24.1.0, SVG Export Plug-In . SVG Version: 6.00 Build 0)  -->
<svg version="1.1" id="Capa_1" xmlns="http://www.w3.org/2000/svg" xmlns:xlink="http://www.w3.org/1999/xlink" x="0px" y="0px"
	 viewBox="0 0 425 336" style="enable-background:new 0 0 425 336;" xml:space="preserve">
<style type="text/css">
	.st0{fill:#FFFFFF;}
</style>
<g id="am0b8y.tif">
	<g>
		<path class="st0" d="M383.7,257.2c-0.1,0.4-0.2,0.7-0.3,1.1c-0.9,4.1-3.8,6.4-7.6,7.7c-4,1.3-8,1-12,0.3c-1.6-0.3-3.2-0.8-4.9-1.2
			c-0.6-0.1-0.7-0.5-0.7-1c0.2-2.8,0.3-5.6,0.4-8.6c1.1,0,2.2,0,3.3,0c0.2,0,0.5,0.5,0.6,0.8c0.5,1.7,1,3.5,1.6,5.2
			c0.1,0.4,0.4,0.8,0.8,1c3.3,1.6,6.7,1.8,10,0.2c3-1.4,4.2-5.8,1-8.2c-1.5-1.1-3.3-2-5-2.9c-2.1-1.1-4.4-2-6.4-3.1
			c-1.3-0.7-2.5-1.6-3.6-2.6c-2.5-2.4-2.6-6.4-0.5-9.6c2.1-3.3,5.3-4.7,9-5c4.1-0.3,8.1,0.2,12,1.2c0.3,0.1,0.7,0.5,0.7,0.7
			c-0.1,2.9-0.2,5.7-0.4,8.8c-1,0-2,0-3,0c-0.2,0-0.5-0.4-0.6-0.6c-0.6-1.7-1-3.3-1.6-5c-0.1-0.3-0.4-0.7-0.7-0.9
			c-2.3-0.9-4.7-1.4-7.2-0.7c-1.8,0.5-3.2,1.6-3.6,3.5c-0.3,1.4-0.2,2.7,1,3.5c1.5,1.1,3.1,2.1,4.7,3c2.1,1.1,4.3,2,6.4,3.1
			c3.2,1.7,5.9,3.9,6.7,7.7C383.7,255.9,383.7,256.6,383.7,257.2z"/>
		<path class="st0" d="M308.1,302.3c-0.3-1.3,0.8-1.1,1.5-1.4c0-5.5,0-11,0-16.6c-0.5-0.1-1.1-0.2-1.7-0.4c0-0.3,0-0.6,0-1
			c1.2-0.2,2.5-0.4,3.8-0.6c0.1,0.4,0.3,0.8,0.4,1.2c0.9-0.3,1.7-0.7,2.5-0.9c3.2-0.9,5.8,0.6,6.4,3.9c0.4,2,0.3,3.9-0.4,5.8
			c-1,2.8-3.2,4.3-6.1,4.4c-0.8,0-1.5,0-2.4,0c0,1.4,0,2.7,0,4.1c0.8,0.5,2.4-0.2,2.5,1.5C312.5,302.3,310.3,302.3,308.1,302.3z
			 M312.2,289.8c0,1.4,0,2.8,0,4.3c0,0.3,0.2,0.7,0.4,0.8c2.4,1.1,5.1,0,5.8-2.5c0.3-1.1,0.4-2.4,0.4-3.6c-0.1-3.8-2.1-5.2-5.8-4.1
			c-0.1,0-0.1,0-0.2,0.1c-0.5,0.1-0.7,0.4-0.7,0.9C312.2,287,312.2,288.4,312.2,289.8z"/>
		<path class="st0" d="M383.7,285.2c-0.1,0.5-0.2,1-0.3,1.5c-0.9,0.3-1.5,0.1-1.7-0.9c-0.1-0.5-0.5-1.2-0.7-1.2
			c-0.9,0-1.8,0.3-2.6,0.5c-0.1,0-0.1,0.3-0.1,0.5c0,3.1,0,6.1,0,9.2c0.8,0.2,1.6,0.4,2.3,0.7c0.1,0,0.1,0.5,0.2,0.8
			c-2.2,0-4.4,0-6.5,0c-0.1-0.6,0.1-1.1,0.7-1.1c0.7-0.1,0.9-0.4,0.9-1.1c0-2.8-0.1-5.6,0-8.4c0-0.9-0.2-1.4-1.2-1.4
			c-0.2,0-0.3-0.1-0.5-0.1c-0.2-0.7-0.1-1.1,0.7-1.2c0.9-0.1,1.8-0.3,2.8-0.5c0.1,0.4,0.2,0.8,0.4,1.3c1.8-0.6,3.6-1.5,5.6-0.9
			C383.7,283.5,383.7,284.4,383.7,285.2z"/>
		<path class="st0" d="M203.1,65.7c-8.7,0-16-7.1-16-15.8c0-9,7-16.1,15.9-16.1c8.9,0,16.1,7.1,16.1,15.9
			C219.2,58.4,212,65.6,203.1,65.7z"/>
		<path class="st0" d="M290.2,99.4c0,8.6-7,15.7-15.6,15.7c-8.9,0-15.9-6.9-15.9-15.6c0-8.8,7-15.8,15.7-15.9
			C283.1,83.6,290.1,90.7,290.2,99.4z"/>
		<path class="st0" d="M227,133.9c0,8.5-6.9,15.5-15.4,15.6c-8.6,0-15.4-6.9-15.6-15.3c-0.2-8.1,6.5-15.7,15.4-15.7
			C220.1,118.4,227,125.3,227,133.9z"/>
		<path class="st0" d="M116.2,245.6c-1.5-0.3-2.9-0.6-4.4-0.8c-0.5-0.1-0.7-0.3-0.8-0.8c0-0.6-0.1-1.3-0.2-2c5.9,0,11.7,0,17.7,0
			c-0.1,0.8-0.2,1.6-0.4,2.3c-0.1,0.2-0.4,0.4-0.6,0.4c-1.3,0.3-2.6,0.5-3.9,0.8c-0.3,0.1-0.6,0.5-0.6,0.7c0,5.5,0,10.9,0.1,16.4
			c0,0.9-0.2,1.4-1.1,1.7c-5.2,2-10.5,3.3-16.1,3c-9.9-0.5-17-6.2-19.6-15.8c-1.9-7.4-1.8-14.7,1.5-21.7c3.7-7.8,10-11.9,18.6-12.3
			c5.2-0.2,10.4,0.5,15.7,1.2c-0.2,3.7-0.3,7.4-0.5,11.2c-0.9,0-1.8,0-2.6,0c-0.2,0-0.5-0.4-0.6-0.7c-0.5-2.1-1-4.2-1.5-6.3
			c-0.1-0.3-0.4-0.7-0.7-0.8c-4.2-1.1-8.5-1.5-12.8-0.4c-4.3,1.1-7.3,3.9-8.8,8c-3.1,8.3-3.2,16.6,0.5,24.7c1.5,3.3,3.8,6,7.2,7.6
			c2.9,1.4,5.9,1.2,9,0.8c1.5-0.2,3-0.6,4.5-0.9c0.3-0.1,0.6-0.5,0.6-0.7c0-5.1,0-10.2,0-15.3C116.3,245.9,116.2,245.8,116.2,245.6z
			"/>
		<path class="st0" d="M232.5,64.7c-0.1-8.2,6.7-15,14.9-15c8.1-0.1,14.9,6.6,15,14.7c0.1,8.4-6.4,15.1-14.6,15.2
			C239.3,79.6,232.6,73.1,232.5,64.7z"/>
		<path class="st0" d="M211.6,153.6c16.1,0.1,29.9,12,32.3,28c0.6,4.1,0.5,8.2-0.4,12.2c-0.4,1.8-1.9,2.9-3.5,2.5
			c-1.7-0.4-2.6-1.9-2.2-3.8c3.3-14.9-5.8-29-20.6-32.3c-14.4-3.2-29.2,6.5-32,20.9c-0.7,3.8-0.7,7.6,0.1,11.4
			c0.4,1.9-0.5,3.5-2.2,3.9c-1.7,0.4-3.1-0.7-3.5-2.6c-4.1-18.3,7.9-36.2,26.3-39.4C207.8,154,209.7,153.9,211.6,153.6z"/>
		<path class="st0" d="M171.2,74.3c0,7.5-6,13.6-13.5,13.6c-7.5,0-13.6-6.1-13.6-13.6c0-7.4,6.1-13.5,13.5-13.5
			C165.1,60.7,171.2,66.8,171.2,74.3z"/>
		<path class="st0" d="M78.3,219.8c-0.2,3.7-0.3,7.2-0.5,10.9c-1,0-2,0-3.1,0c-0.5-2-1-4-1.4-6.1c-0.2-1.2-0.8-1.8-2-2.1
			c-3.3-1.1-6.6-1.5-10-0.9c-4.9,0.9-8.6,3.6-10.4,8.2c-3.5,8.6-3.5,17.2,0.6,25.5c1.9,3.9,4.9,6.8,9.3,7.8c3.4,0.8,6.7,0.3,9.9-0.8
			c2.5-0.8,4.8-2,7.2-3c0.3,0.7,0.6,1.6,0.9,2.5c0.1,0.3-0.2,0.8-0.5,1c-3.1,2.3-6.6,3.6-10.4,4.2c-4.4,0.7-8.8,0.5-13-1.1
			c-5.7-2.1-9.5-6.2-11.6-11.8c-2.6-7.1-2.8-14.2-0.4-21.4c3.3-9.9,11.5-15.5,22-15.2C69.5,217.8,73.9,218.7,78.3,219.8z"/>
		<path class="st0" d="M216.1,259.1c0.4,1,0.7,1.9,1,2.9c0.1,0.2-0.2,0.7-0.5,0.9c-2.8,2.1-6,3.3-9.4,4c-4.4,0.9-8.8,0.8-13-0.5
			c-6-1.9-10.2-5.9-12.5-11.8c-3-8-3.2-16.1,0.3-23.9c3.8-8.5,10.5-12.9,19.9-13.1c4.8-0.1,9.5,1,14.2,2.1c0.1,0,0.2,0.1,0.4,0.2
			c-0.2,3.6-0.3,7.2-0.5,10.9c-0.9,0-1.8,0.1-2.6,0c-0.3,0-0.6-0.4-0.7-0.7c-0.5-2-1-4-1.4-6c-0.1-0.6-0.4-1-1-1.2
			c-3.5-1.3-7.1-1.8-10.8-1.1c-5.2,0.9-8.8,3.9-10.7,8.7c-3.1,8.2-3.2,16.4,0.5,24.4c1.7,3.7,4.3,6.6,8.3,8.1
			c2.9,1.1,5.9,0.8,8.9,0.2c3.2-0.6,6.2-1.8,8.9-3.6C215.7,259.3,215.9,259.2,216.1,259.1z"/>
		<path class="st0" d="M273.8,262.8c0.9,0.2,1.8,0.5,2.7,0.7c0.7,0.1,1,0.5,1.1,1.2c0,0.5,0.1,1,0.2,1.5c-4.7,0-9.4,0-14.2,0
			c0.1-0.7,0.1-1.4,0.2-2.2c0-0.2,0.3-0.3,0.4-0.4c0.2-0.1,0.4-0.1,0.6-0.2c0.9-0.3,2.1-0.3,2.6-0.9c0.5-0.6,0.2-1.7,0.2-2.6
			c0-7.5,0-15.1,0-22.6c0-0.8-0.2-1.1-1-1.2c-1.2-0.1-2.4-0.4-3.6-0.7c0-0.8,0-1.6,0-2.5c3.1-0.5,6.3-0.9,9.5-1.4
			c0.2,1.2,0.4,2.3,0.7,3.5c0.4-0.1,0.7-0.2,1-0.4c3.2-1.4,6.5-2.8,10-3.1c3.5-0.4,6.7,0.2,9.2,3c1.7,2,2.2,4.3,2.3,6.9
			c0,6.8,0,13.5,0,20.3c0,0.4,0,0.7,0,1.1c1,0.3,2,0.6,3,0.8c0.7,0.1,1,0.5,1,1.1c0.1,0.5,0.2,1,0.3,1.6c-4.7,0-9.4,0-14.2,0
			c0.1-0.7,0.1-1.5,0.2-2.2c0-0.2,0.4-0.4,0.6-0.5c1-0.3,2-0.6,3.1-0.9c0-0.3,0-0.6,0-1c0-6.3,0-12.7,0-19c0-0.6,0-1.2-0.1-1.7
			c-0.5-2.9-2.1-4.5-4.9-4.9c-3.7-0.6-7.2,0.4-10.4,2.2c-0.2,0.1-0.4,0.5-0.4,0.7c0,7.9,0,15.7,0,23.6
			C273.8,262.6,273.8,262.7,273.8,262.8z"/>
		<path class="st0" d="M151.6,266.1c-6,0-11.8,0-17.6,0c0-0.1,0-0.1,0-0.1c0.1-2.5,0.1-2.5,2.6-3c0.9-0.2,1.8-0.3,2.8-0.5
			c0-0.4,0-0.7,0-1c0-12.7,0-25.3,0-38c0-0.9-0.2-1.2-1.1-1.3c-1.1-0.1-2.2-0.4-3.3-0.6c-0.6-0.1-0.8-0.3-0.9-0.9
			c0-0.6-0.1-1.2-0.2-1.9c5.9,0,11.7,0,17.7,0c-0.1,0.8-0.2,1.5-0.5,2.3c-0.1,0.2-0.5,0.5-0.8,0.5c-1.1,0.2-2.2,0.5-3.3,0.6
			c-0.9,0.1-1.1,0.5-1.1,1.3c0,5.8,0,11.6,0,17.4c0,6.8,0,13.7,0,20.5c0,0.8,0.2,1.2,1.1,1.3c1.1,0.1,2.1,0.4,3.2,0.5
			c0.7,0.1,1,0.4,1.1,1.1C151.4,264.9,151.5,265.5,151.6,266.1z"/>
		<path class="st0" d="M126.9,113.3c-6,0-10.8-4.9-10.8-11c0-5.8,4.9-10.7,10.8-10.7c6,0,10.9,4.9,10.9,11
			C137.7,108.5,132.8,113.3,126.9,113.3z"/>
		<path class="st0" d="M352,232.6c-0.1,3.3-0.2,6.3-0.4,9.4c-1.2,0-2.2,0-3.4,0c-0.6-1.9-1.1-3.8-1.8-5.7c-0.1-0.4-0.6-0.9-1-1
			c-2.2-0.7-4.5-1-6.8-0.5c-2.8,0.6-4.7,2.5-5.8,5c-2.6,5.7-2.5,11.4-0.1,17.1c1.8,4.2,5.1,5.8,10.3,5.5c3.1-0.2,6-0.7,8.8-2
			c0.1,0.1,0.1,0.2,0.2,0.3c0.8,2.9,1.3,2-1.3,3.6c-4.3,2.5-8.9,3.6-13.9,2.8c-4.6-0.7-8-3.2-10-7.3c-3.4-7.2-3.5-14.4,0.9-21.3
			c3.1-4.9,7.7-7.4,13.6-7C345,231.7,348.4,232.2,352,232.6z"/>
		<path class="st0" d="M237.9,266.3c-5,0-9.9,0-14.8,0c0.1-0.7,0.1-1.4,0.2-2.1c0-0.2,0.4-0.5,0.7-0.5c1.1-0.3,2.2-0.5,3.4-0.8
			c0-0.3,0-0.7,0-1c0-13.3,0-26.5,0-39.8c0-0.9-0.2-1.2-1.1-1.3c-1.1-0.1-2.3-0.4-3.5-0.6c0-0.8,0-1.6,0-2.5c3.5-0.6,7-1.2,10.6-1.8
			c0,15.7,0,31.3,0,47c1,0.2,2.1,0.5,3.2,0.7c0.7,0.1,1,0.4,1.1,1.1C237.7,265.2,237.8,265.7,237.9,266.3z"/>
		<path class="st0" d="M328.9,78.7c0,5.4-4.3,9.7-9.7,9.7c-5.4,0-9.7-4.3-9.7-9.8c0-5.4,4.3-9.6,9.8-9.6
			C324.7,69,328.9,73.4,328.9,78.7z"/>
		<path class="st0" d="M132.2,40.7c5.3,0,9.6,4.3,9.6,9.6c0,5.4-4.3,9.7-9.7,9.7c-5.3,0-9.7-4.4-9.7-9.7
			C122.5,44.9,126.8,40.7,132.2,40.7z"/>
		<path class="st0" d="M149.1,170.8c0.1-14,12.1-25.3,26.1-24.5c3.1,0.2,6.1,0.9,8.9,2.3c1.6,0.8,2.2,2.2,1.6,3.6
			c-0.7,1.4-2.2,1.9-3.8,1.2c-11.5-5.1-24.2,1.3-26.8,13.6c-0.6,2.8-0.5,5.6,0.1,8.4c0.3,1.3-0.4,2.4-1.5,2.9
			c-1.5,0.7-3.2-0.1-3.6-1.7C149.6,174.7,149.4,172.8,149.1,170.8z"/>
		<path class="st0" d="M274.6,170.8c-0.3,1.9-0.5,3.8-0.9,5.6c-0.3,1.5-1.7,2.4-3.1,2c-1.5-0.4-2.3-1.6-2-3.2
			c1.4-6.5,0-12.3-4.5-17.3c-5.5-6.1-14.4-8-22-4.6c-0.5,0.2-1.2,0.5-1.8,0.5c-1.3,0-2.2-0.9-2.5-2.2c-0.2-1.2,0.4-2.3,1.6-2.9
			c3.8-1.8,7.8-2.6,12-2.3c10,0.6,18.6,7.3,21.7,16.7C274,165.6,274.4,168.2,274.6,170.8z"/>
		<path class="st0" d="M261,129.9c0,6-5,11-11,11c-6.1,0-11.1-5.1-11-11.1c0.1-6,5-10.9,11-10.9C256,118.8,261.1,123.9,261,129.9z
			 M250,124.2c-3.1,0-5.7,2.5-5.7,5.6c-0.1,3.1,2.6,5.7,5.7,5.7c3.1,0,5.7-2.5,5.7-5.6C255.7,126.7,253.2,124.2,250,124.2z"/>
		<path class="st0" d="M173.8,119.9c6,0,11,5,11,11c0,6-5,10.9-11,10.9c-6.1,0-11-4.9-11-10.9C162.7,124.9,167.7,119.9,173.8,119.9z
			 M179.4,131c0-3.2-2.5-5.7-5.6-5.7c-3.2,0-5.7,2.5-5.8,5.7c0,3.1,2.5,5.7,5.7,5.7C176.8,136.6,179.4,134.1,179.4,131z"/>
		<path class="st0" d="M243.1,266.3c0-0.1-0.1-0.1-0.1-0.2c0-2.3,0-2.3,2.2-2.8c2.1-0.5,2.1-0.5,2.1-2.6c0-7.7,0-15.5,0-23.2
			c0-0.7-0.1-1.1-0.9-1.2c-0.9-0.1-1.7-0.4-2.6-0.5c-0.6-0.1-0.8-0.3-0.7-0.9c0-0.6,0-1.2,0-1.8c3.4-0.6,6.8-1.1,10.2-1.6
			c0,0.5,0,0.8,0,1.2c0,9.6,0,19.2,0,28.8c0,1,0.2,1.6,1.3,1.6c0.3,0,0.5,0.1,0.8,0.2c2.2,0.5,2.2,0.5,2.3,3
			C252.8,266.3,248,266.3,243.1,266.3z"/>
		<path class="st0" d="M304.7,233.1c0.5-0.1,1-0.2,1.4-0.3c2.9-0.5,5.8-0.9,8.8-1.4c0,10.5,0,20.9,0,31.4c1.1,0.3,2.2,0.6,3.2,0.8
			c0.7,0.1,0.9,0.4,1,1.1c0.1,0.5,0.2,1.1,0.2,1.7c-4.9,0-9.8,0-14.8,0c0.1-0.8,0.1-1.5,0.3-2.2c0-0.2,0.4-0.4,0.6-0.5
			c1.1-0.3,2.2-0.6,3.4-0.9c0-0.3,0-0.7,0-1c0-8.1,0-16.2,0-24.4c0-0.8-0.2-1.1-1-1.2c-0.8-0.1-1.5-0.4-2.3-0.4
			c-0.8-0.1-1-0.4-0.9-1.1C304.8,234.1,304.7,233.6,304.7,233.1z"/>
		<path class="st0" d="M357.3,74.4c0,4.8-3.9,8.7-8.6,8.7c-4.8,0-8.7-3.8-8.8-8.7c0-4.8,4-8.8,8.8-8.8
			C353.5,65.6,357.3,69.5,357.3,74.4z"/>
		<path class="st0" d="M105.4,96.6c0,4.5-3.7,8.1-8.2,8.1c-4.5,0-8.2-3.7-8.2-8.2c0-4.5,3.7-8.1,8.2-8.2
			C101.8,88.3,105.4,92,105.4,96.6z"/>
		<path class="st0" d="M213.8,294.8c0.6,0.5,1.9,0.1,1.6,1.5c-1.9,0-3.9,0-5.8,0c-0.1-0.7-0.1-0.7,1.7-1.5c0-2.7,0.1-5.3,0-8
			c0-1.7-1-2.5-2.8-2.6c-0.3,0-0.7,0-1,0.1c-2.2,0.4-2.4,0.7-2.4,2.9c0,2.6,0,5.1,0,7.6c0.6,0.5,1.9,0.1,1.6,1.5c-1.8,0-3.7,0-5.5,0
			c-0.2-0.7,0-1.1,0.7-1.1c0.7-0.1,0.8-0.5,0.8-1.1c0-2.8-0.1-5.6,0-8.4c0-0.9-0.1-1.4-1.1-1.4c-0.2,0-0.4-0.1-0.7-0.2
			c-0.2-0.7-0.1-1.1,0.7-1.2c1-0.1,1.9-0.3,3-0.5c0.1,0.4,0.2,0.9,0.4,1.2c1.4-0.4,2.7-0.8,4-1.2c1.3-0.3,2.5,0,3.5,0.9
			c0.5,0.4,0.8,0.3,1.3,0.2c1.2-0.4,2.4-0.9,3.7-1.1c2.7-0.5,4.7,1.2,4.7,4c0,2.8,0,5.6,0,8.3c0.5,0.5,1.8,0.1,1.6,1.5
			c-1.8,0-3.7,0-5.5,0c-0.2-0.7,0-1.1,0.7-1.1c0.6-0.1,0.7-0.4,0.7-0.9c0-2.5,0-4.9,0-7.4c0-1.7-0.9-2.7-2.7-2.6c-1,0.1-2,0.4-3,0.8
			c-0.2,0.1-0.4,0.5-0.4,0.7C213.8,288.7,213.8,291.8,213.8,294.8z"/>
		<path class="st0" d="M150.3,277.2c-0.1,1.7-0.1,3.1-0.2,4.6c-1.2,0.5-1.4-0.2-1.6-1.1c-0.5-2.1-0.5-2.1-2.6-2.3
			c-4.5-0.3-6.7,1.4-7.4,5.9c-0.4,2.4-0.3,4.8,0.8,7.1c1.6,3.4,4.7,4.6,8.2,3.2c0.2-0.1,0.4-0.4,0.4-0.6c0-1.9,0-3.9,0-5.8
			c-0.6-0.8-2.4,0.2-2.1-1.7c2.3,0,4.6,0,6.9,0c0.2,1-0.3,1.3-1.1,1.3c-0.8,0-1.1,0.4-1,1.2c0.1,1.9,0,3.8,0,5.6
			c0,0.3-0.2,0.7-0.4,0.8c-2.9,1.2-5.8,1.7-8.9,0.8c-2-0.6-3.6-1.8-4.5-3.6c-2-4-2-8.1,0.3-12c1.5-2.5,3.9-3.8,6.8-3.8
			C146,276.8,148.1,277.1,150.3,277.2z"/>
		<path class="st0" d="M149.6,111.3c0-3.2,2.5-5.7,5.7-5.7c3.2,0,5.7,2.5,5.7,5.7c0,3.2-2.6,5.7-5.7,5.7
			C152.1,117,149.6,114.5,149.6,111.3z"/>
		<path class="st0" d="M56.6,277.6c-0.1,1.6-0.2,3-0.2,4.4c-0.4,0-0.8,0-1.2,0c-0.2-0.6-0.4-1.2-0.4-1.8c-0.1-1-0.6-1.5-1.6-1.7
			c-4-1-7,0.8-8,4.8c-0.6,2.4-0.6,4.9,0.2,7.3c1.3,3.9,4.2,5.4,8.1,4.2c1-0.3,2-0.8,2.9-1.2c0.7,1.1,0.6,1.2-0.5,1.9
			c-3.5,2.1-8.3,1.8-11.1-0.7c-1-0.9-1.8-2.2-2.3-3.4c-1.1-2.7-1.1-5.4-0.2-8.2c1.4-4.6,5.4-6.9,10.4-6.2
			C54,277.1,55.3,277.4,56.6,277.6z"/>
		<path class="st0" d="M79.5,296.3c-1.9,0-3.7,0-5.5,0c-0.3-1.3,0.9-1,1.5-1.5c0-3.3,0-6.6,0-10c0-0.2-0.3-0.4-0.5-0.5
			c-0.4-0.1-0.8-0.2-1.2-0.2c0-0.3,0-0.7,0-1.1c1.2-0.2,2.5-0.4,3.7-0.5c0.1,0.5,0.2,0.9,0.3,1.2c1.4-0.4,2.8-0.9,4.2-1.2
			c2.8-0.5,4.7,1.1,4.8,4c0,2.8,0,5.6,0,8.3c0.5,0.5,1.8,0.1,1.6,1.5c-1.8,0-3.7,0-5.5,0c-0.2-0.7,0-1.1,0.7-1.1
			c0.6-0.1,0.7-0.4,0.7-0.9c0-2.5,0-4.9,0-7.4c0-1.7-0.8-2.5-2.5-2.6c-0.5,0-1,0-1.4,0.1c-2.2,0.4-2.4,0.7-2.4,2.9
			c0,2.3,0,4.5,0,6.8c0,0.7,0.1,1.1,0.9,1.2C79.4,295.2,79.6,295.6,79.5,296.3z"/>
		<path class="st0" d="M169.3,296.3c-0.3-1.4,0.9-1,1.5-1.5c0-3.2,0-6.6,0-9.9c0-0.2-0.3-0.5-0.5-0.6c-0.3-0.2-0.8-0.2-1.2-0.2
			c0-0.3,0-0.7,0-1.1c1.2-0.2,2.4-0.4,3.7-0.5c0.1,0.5,0.2,0.9,0.3,1.2c1.4-0.4,2.8-0.9,4.2-1.2c2.9-0.5,4.7,1.1,4.7,4
			c0,2.8,0,5.6,0,8.3c0.5,0.5,1.9,0.1,1.6,1.5c-1.8,0-3.7,0-5.5,0c-0.2-0.7,0-1.1,0.7-1.2c0.5-0.1,0.8-0.3,0.8-0.9c0-2.5,0-5,0-7.5
			c0-1.7-0.9-2.5-2.5-2.5c-0.4,0-0.8,0-1.3,0.1c-2.2,0.3-2.5,0.7-2.5,2.9c0,2.6,0,5.1,0,7.6c0.6,0.5,1.8,0.1,1.5,1.5
			C173,296.3,171.2,296.3,169.3,296.3z"/>
		<path class="st0" d="M157.2,252.5c0-1.7,0-3.4,0-5.1c5.5,0,10.9,0,16.4,0c0,1.7,0,3.4,0,5.1C168.2,252.5,162.8,252.5,157.2,252.5z
			"/>
		<path class="st0" d="M259.2,294.8c1.5,0.7,1.5,0.7,1.5,1.5c-1.8,0-3.7,0-5.5,0c-0.2-0.7,0.1-1.1,0.8-1.2c0.7-0.1,0.8-0.5,0.8-1.1
			c0-2.8,0-5.7,0-8.5c0-0.9-0.2-1.3-1.1-1.3c-0.2,0-0.4-0.1-0.7-0.2c0-0.3,0-0.6,0-1c1.3-0.2,2.5-0.4,3.7-0.5
			c0.1,0.5,0.2,0.9,0.3,1.2c1.5-0.4,2.9-0.9,4.3-1.2c2.8-0.5,4.6,1.1,4.6,4c0,2.8,0,5.6,0,8.3c0.5,0.6,1.9,0.1,1.7,1.5
			c-1.8,0-3.7,0-5.5,0c-0.4-1.4,0.9-1,1.4-1.5c0-2.7,0-5.4,0-8.2c0-1.4-0.9-2.2-2.3-2.3c-0.5,0-1.1,0-1.6,0.1
			c-2.2,0.4-2.4,0.7-2.4,2.9C259.2,289.7,259.2,292.3,259.2,294.8z"/>
		<path class="st0" d="M71.5,296.2c-1.2,0.1-2.3,0.2-3.5,0.4c-0.2-0.5-0.3-1-0.5-1.4c-1.3,0.5-2.6,1-3.9,1.3
			c-2.2,0.5-3.9-0.6-4.3-2.6c-0.4-2.3,0.7-4.1,3-4.5c0.8-0.2,1.7-0.2,2.5-0.4c0.8-0.1,1.6-0.3,2.5-0.4c0-1.2,0-2.3,0-3.5
			c0-0.3-0.3-0.7-0.6-0.9c-0.9-0.7-3.2-0.6-4,0.2c-0.4,0.4-0.5,1-0.6,1.6c-0.2,1-0.7,1.2-1.7,1c-0.1-1-0.2-2.1-0.1-3.1
			c0-0.2,0.3-0.5,0.6-0.6c1.6-0.4,3.3-0.8,4.9-1c2.6-0.2,4.1,1.2,4.1,3.8c0,2.5,0,4.9,0,7.4c0,0.7,0.2,1.2,0.9,1.3
			C71.3,295,71.6,295.4,71.5,296.2z M67.3,290.1c-1,0.2-1.9,0.3-2.8,0.4c-0.4,0.1-0.7,0.1-1,0.2c-1.2,0.4-1.8,1.5-1.5,2.8
			c0.3,1.1,1,1.5,2.3,1.3c0.9-0.2,1.7-0.5,2.6-0.8c0.2-0.1,0.5-0.4,0.5-0.6C67.3,292.3,67.3,291.2,67.3,290.1z"/>
		<path class="st0" d="M198.7,289.1c0.2,3.6-1.8,6.6-4.8,7.4c-4,1-7.4-1.3-7.9-5.4c-0.2-1.7-0.1-3.4,0.6-4.9
			c1.3-2.9,3.9-4.3,7.3-3.7c2.6,0.4,4.5,2.6,4.8,5.6C198.6,288.4,198.6,288.8,198.7,289.1z M196.2,289.8c-0.4-1.5-0.7-3-1.2-4.3
			c-0.5-1.2-1.6-1.8-2.9-1.7c-1.3,0-2.2,0.7-2.8,1.8c-1.3,2.7-1.2,5.5,0.2,8.1c1.2,2.3,4.3,2.3,5.5,0
			C195.6,292.5,195.8,291.2,196.2,289.8z"/>
		<path class="st0" d="M371.3,294.1c0.4,0.6,0.2,1-0.5,1.4c-1.7,0.9-3.5,1.4-5.4,1.1c-2.2-0.3-3.8-1.5-4.5-3.6
			c-0.9-2.3-0.9-4.7,0.1-7c1.3-3.2,5.1-4.7,8.3-3.2c1.3,0.6,2.1,1.7,2.4,3.1c0.2,0.9,0.1,1.9,0.2,3.1c-1.6,0-3.1,0-4.5,0
			c-1.4,0-2.8,0-4.2,0c-0.8,3.1,1.4,5.9,4.4,5.7C368.7,294.7,370,294.3,371.3,294.1z M369.1,287.3c0.3-2.6-1.2-4.1-3.4-3.6
			c-1.6,0.4-2.8,2.2-2.6,4.2C365,287.7,367,287.5,369.1,287.3z"/>
		<path class="st0" d="M294.2,289c-3.2,0-6,0-8.8,0c-0.8,3.1,1.4,5.9,4.4,5.7c1.2-0.1,2.5-0.4,3.8-0.6c0.4,0.5,0.2,1-0.5,1.4
			c-1.7,0.9-3.5,1.4-5.4,1.1c-2.2-0.3-3.7-1.5-4.5-3.5c-0.9-2.4-0.9-4.8,0.1-7.2c1.3-3.1,5-4.5,8.1-3.2c1.2,0.5,2.1,1.4,2.4,2.6
			C294,286.5,294,287.7,294.2,289z M291.4,287.3c0.3-2.6-1.2-4.1-3.4-3.6c-1.6,0.4-2.7,2.1-2.6,4.2
			C287.3,287.7,289.3,287.5,291.4,287.3z"/>
		<path class="st0" d="M166.5,289c-2.9,0-5.8,0-8.7,0c-0.1,1.5,0.1,2.7,0.8,3.9c0.7,1.2,1.7,1.9,3.1,1.8c1.5-0.1,3-0.3,4.6-0.5
			c0.4,0.5,0.2,0.9-0.5,1.3c-1.7,0.9-3.5,1.4-5.4,1.1c-1.5-0.2-2.8-0.9-3.8-2.1c-2.1-2.9-1.8-8,0.6-10.4c1.7-1.7,4.6-2.3,6.8-1.3
			c1.8,0.8,2.8,2.6,2.7,5C166.6,288.1,166.6,288.5,166.5,289z M164,287.3c0-1.3-0.1-2.5-1.3-3.2c-1.1-0.7-2.2-0.6-3.2,0.1
			c-1.3,0.9-1.6,2.2-1.7,3.8C159.9,287.7,161.9,287.5,164,287.3z"/>
		<path class="st0" d="M346.9,289c-3,0-5.9,0-8.8,0c0,5.2,2.7,6.9,8.2,5c0.6,1,0.6,1-0.4,1.5c-1.6,0.9-3.4,1.4-5.3,1.2
			c-1.9-0.2-3.5-1.1-4.3-2.9c-1.3-2.8-1.4-5.6,0.1-8.3c1.5-2.8,5.1-3.9,8-2.6c1.5,0.7,2.2,2,2.4,3.6C347,287.2,346.9,288,346.9,289z
			 M344.4,287.3c-0.1-1.4-0.1-2.7-1.5-3.4c-1.1-0.6-2.2-0.4-3.2,0.3c-1.1,0.9-1.5,2.2-1.5,3.6C340.3,287.7,342.3,287.5,344.4,287.3z
			"/>
		<path class="st0" d="M237.4,289.1c-1.4,0-2.8,0-4.3,0c-1.4,0-2.8,0-4.2,0c-0.7,3.2,1.4,5.8,4.6,5.7c1.2-0.1,2.4-0.4,3.7-0.6
			c0.1,0.2,0.2,0.5,0.3,0.8c-2,1.5-4.2,2-6.6,1.6c-1.8-0.3-3.1-1.3-3.8-3c-1.2-2.6-1.2-5.3,0-8c1.4-2.9,5.1-4.2,8.1-2.8
			C237.1,283.8,238.1,286.4,237.4,289.1z M234.9,287.3c0.3-2.6-1.2-4.1-3.4-3.6c-1.6,0.4-2.7,2-2.6,4.2c1.3-0.1,2.6-0.2,3.8-0.4
			C233.4,287.5,234.1,287.4,234.9,287.3z"/>
		<path class="st0" d="M115.6,289c-3.1,0-6,0-9,0c0.1,0.7,0.1,1.3,0.2,1.8c0.5,2.9,1.9,4.1,4.9,3.9c1.1-0.1,2.2-0.4,3.4-0.6
			c0.4,0.6,0.3,1-0.5,1.4c-1.5,0.8-3.1,1.3-4.8,1.2c-2.4-0.1-4.1-1.2-5-3.4c-1-2.4-1-4.9,0-7.3c1.3-3.1,5-4.6,8.1-3.3
			c1.2,0.5,2.1,1.4,2.4,2.7C115.5,286.6,115.5,287.7,115.6,289z M112.9,287.3c0-1.3-0.1-2.6-1.3-3.3c-1.1-0.7-2.2-0.5-3.3,0.2
			c-1,0.7-1.7,2.5-1.4,3.7C108.9,287.7,110.8,287.5,112.9,287.3z"/>
		<path class="st0" d="M344.1,108.1c2.5,0,4.6,2,4.6,4.5c0,2.5-2,4.6-4.5,4.6c-2.6,0-4.6-2-4.6-4.6
			C339.5,110.1,341.5,108.1,344.1,108.1z"/>
		<path class="st0" d="M89.1,72c2.5,0,4.5,2,4.5,4.5c0,2.5-2,4.5-4.5,4.5c-2.6,0-4.6-2-4.6-4.5C84.6,74,86.6,72,89.1,72z"/>
		<path class="st0" d="M247.8,279c-0.7-0.7-2.4,0.2-2.1-1.6c0.2,0,0.3-0.1,0.5-0.1c2.1,0,4.3,0,6.5,0c0.2,1.8-1.4,1-2.1,1.7
			c0,1.6,0,3.3,0,5c0,3.2,0,6.4,0,9.6c0,0.9,0.1,1.4,1.1,1.4c0.8,0,1.2,0.4,1,1.2c-2.3,0-4.6,0-7,0c0-0.4,0.1-0.7,0.1-0.9
			c0.1-0.1,0.1-0.1,0.2-0.2c1.9-0.4,1.9-0.4,1.9-2.4c0-4.3,0-8.6,0-12.9C247.8,279.6,247.8,279.2,247.8,279z"/>
		<path class="st0" d="M101.2,282.8c0,1.3,0,2.5,0,3.7c-1,0.3-1.5,0.1-1.8-0.9c-0.2-0.7-0.1-1.7-1.2-1.9c-1.4-0.2-2.7-0.3-3.8,0.8
			c-2,2-2,6.9-0.2,8.9c0.7,0.8,1.5,1.2,2.6,1.2c1.5-0.1,3-0.3,4.6-0.5c0.4,0.5,0.3,1-0.5,1.3c-1.1,0.4-2.3,1-3.5,1.1
			c-4,0.5-6.6-1.8-7-5.9c-0.2-2.4,0.3-4.6,1.9-6.4c1.2-1.3,2.7-2,4.5-2C98.3,282.4,99.8,282.7,101.2,282.8z"/>
		<path class="st0" d="M271.6,284.1c0-0.6,0-0.9,0-1.4c2,0.7,2.1-0.8,2.5-2c0.4-1.2,0.4-1.2,1.7-1.2c0,1,0.1,2.1,0.2,3.2
			c1.3,0,2.6,0,4,0c0,0.5,0,0.9,0,1.4c-1.3,0-2.6,0-4,0c0,0.8,0,1.5,0,2.2c0,2.3,0,4.5,0,6.8c0,1.5,0.4,1.9,1.9,1.6
			c0.7-0.1,1.4-0.3,2.3-0.5c0.1,0.3,0.2,0.7,0.3,1.2c-1.3,0.4-2.6,0.9-3.9,1c-1.9,0.2-2.9-0.8-2.9-2.7c0-1.9,0-3.8,0-5.7
			c0-1.3,0-2.5,0-3.8C272.8,284.2,272.2,284.1,271.6,284.1z"/>
		<path class="st0" d="M357.7,294.2c0.5,0.8,0.2,1.3-0.6,1.5c-1.1,0.3-2.2,0.7-3.3,0.8c-1.6,0.1-2.5-0.7-2.6-2.3
			c-0.1-2.1-0.1-4.1-0.1-6.2c0-1.2,0-2.4,0-3.7c-0.6,0-1.2-0.1-1.8-0.1c0-0.4,0-0.9,0-1.4c0.6,0,1.1,0,1.7,0
			c0.2-0.8,0.6-1.5,0.7-2.2c0.2-1,0.8-1.2,1.7-1.1c0.1,1.1,0.1,2.1,0.2,3.2c1.3,0,2.6,0,4,0c0,0.5,0,0.9,0,1.4c-1.3,0-2.6,0-3.9,0
			c-0.1,0.3-0.1,0.5-0.1,0.6c0,2.8,0,5.6,0,8.4c0,1.4,0.4,1.8,1.8,1.6C356.2,294.6,356.9,294.4,357.7,294.2z"/>
		<path class="st0" d="M124.5,296.3c-2.2,0-4.3,0-6.4,0c-0.2-0.7,0.1-1.1,0.8-1.2c0.6-0.1,0.8-0.4,0.8-1c0-2.9,0-5.9,0-8.8
			c0-0.7-0.2-1-0.9-1.1c-0.3,0-0.8-0.4-0.8-0.6c-0.2-0.7,0.4-0.6,0.9-0.7c0.9-0.2,1.8-0.3,2.8-0.5c0.1,0.4,0.2,0.8,0.3,1.2
			c1.8-0.4,3.5-1.5,5.6-0.7c-0.1,1.3-0.1,2.6-0.2,3.9c-0.6-0.1-1.2,0.4-1.5-0.4c-0.2-0.6-0.4-1.1-0.6-1.7c-0.1,0-0.2-0.1-0.2-0.1
			c-2.8,0.2-2.8,0.2-2.8,3c0,2.5,0,4.9,0,7.2C122.8,295.5,124.4,294.5,124.5,296.3z"/>
		<path class="st0" d="M296.5,284c-0.2-0.7,0-1.1,0.7-1.2c0.9-0.1,1.8-0.3,2.8-0.5c0.1,0.4,0.2,0.8,0.3,1.2c0.8-0.3,1.6-0.5,2.3-0.7
			c0.4-0.1,0.8-0.2,1.2-0.3c1.8-0.2,2.1,0.1,2,1.8c-0.1,0.8-0.1,1.5-0.2,2.4c-0.6-0.1-1.3,0.4-1.5-0.5c-0.2-0.6-0.4-1.1-0.6-1.7
			c-2.9,0-3.1,0.2-3.1,2.9c0,2.5,0,4.9,0,7.3c0.7,0.8,2.3-0.2,2.5,1.5c-2.2,0-4.3,0-6.5,0c-0.1-0.6,0-1.1,0.7-1.1
			c0.8-0.1,0.9-0.5,0.9-1.2c0-2.8,0-5.6,0-8.3c0-0.9-0.2-1.4-1.1-1.4C296.9,284.1,296.7,284.1,296.5,284z"/>
		<path class="st0" d="M254.5,221c0,2.3-1.9,4.2-4.2,4.1c-2.3,0-4.2-2-4.2-4.2c0-2.3,1.9-4.1,4.2-4.1
			C252.7,216.9,254.5,218.8,254.5,221z"/>
		<path class="st0" d="M316.1,221c0,2.4-1.8,4.2-4.1,4.2c-2.3,0-4.1-1.9-4.1-4.2c0-2.3,1.8-4.1,4.1-4.1
			C314.3,216.8,316.1,218.7,316.1,221z"/>
		<path class="st0" d="M333.1,286.6c-1,0.4-1.5,0-1.8-1c-0.1-0.4-0.5-1.1-0.7-1.1c-0.9,0.1-1.8,0.4-2.7,0.6c-0.1,0-0.1,0.3-0.1,0.4
			c0,3.1,0,6.1,0,9.1c0.7,0.8,2.3-0.1,2.5,1.6c-2.2,0-4.3,0-6.4,0c-0.2-0.7,0-1.1,0.7-1.1c0.7-0.1,0.8-0.5,0.8-1.1
			c0-2.8,0-5.7,0-8.5c0-0.8-0.2-1.3-1.1-1.3c-0.2,0-0.4-0.1-0.6-0.2c0-0.3,0-0.6,0-1c1.2-0.2,2.3-0.4,3.6-0.7
			c0.1,0.4,0.2,0.8,0.4,1.2c0.7-0.2,1.4-0.5,2.1-0.7c0.5-0.2,1.1-0.3,1.6-0.4c1.6-0.2,1.8,0.1,1.8,1.7
			C333.2,285,333.1,285.8,333.1,286.6z"/>
		<path class="st0" d="M309.1,108.5c-2.2,0-3.9-1.7-3.8-3.9c0-2.2,1.7-3.8,3.9-3.8c2.2,0,3.8,1.7,3.8,3.9
			C313,106.8,311.3,108.5,309.1,108.5z"/>
		<path class="st0" d="M327,105.8c0-1.9,1.5-3.4,3.4-3.3c1.9,0,3.4,1.5,3.4,3.5c0,1.9-1.5,3.4-3.4,3.4
			C328.4,109.2,327,107.7,327,105.8z"/>
	</g>
</g>
</svg>
