<?xml version="1.0" encoding="utf-8"?>
<!-- Generator: Adobe Illustrator 24.1.0, SVG Export Plug-In . SVG Version: 6.00 Build 0)  -->
<svg version="1.1" id="Capa_1" xmlns="http://www.w3.org/2000/svg" xmlns:xlink="http://www.w3.org/1999/xlink" x="0px" y="0px"
	 viewBox="0 0 358.9 94.4" style="enable-background:new 0 0 358.9 94.4;" xml:space="preserve">
<style type="text/css">
	.st0{fill:#00CFFF;}
</style>
<g>
	<path class="st0" d="M48.2,85.4c-3.1,1.3-6.7,1.9-11.1,1.9c-5.5,0-10.4-1.4-14.7-4.3c-4.3-2.9-7.7-7.4-10.2-13.4
		c-2.5-6.1-3.7-13.5-3.7-22.4c0-13.7,2.7-23.8,8.1-30.4c5.4-6.6,12.4-9.9,21-9.9c3.6,0,6.9,0.5,9.7,1.6c2.8,1,5.8,2.8,8.9,5.3
		l4.3-5.3c-3.6-2.8-7.1-4.9-10.6-6.3c-3.5-1.4-7.8-2.1-13-2.2C30,0,23.8,1.8,18.2,5.4c-5.6,3.6-10,8.9-13.3,16
		C1.6,28.5,0,37.1,0,47.1c0,10.1,1.5,18.6,4.7,25.7c3.2,7.1,7.5,12.5,13.1,16.1c5.6,3.7,11.9,5.5,19,5.5c9.8,0,18-3.2,24.7-9.5
		l-4.1-5.2C54.3,82.2,51.2,84.1,48.2,85.4z"/>
	<path class="st0" d="M115.4,85.2c-0.9-1.6-1.4-4.2-1.2-7.9V43.7c0-14.7-7.6-22.1-22.8-22.1c-6.9,0-14.2,1.6-22,4.7l2,5.9
		c7.3-2.7,13.6-4,18.9-4c5.8,0,9.9,1.3,12.4,3.8s3.7,6.6,3.7,12.2v6.7H93.1c-9.1,0-16.2,2-21.3,5.9c-5.1,4-7.7,9.5-7.7,16.7
		c0,6.3,1.9,11.3,5.8,15.1c3.9,3.8,9.1,5.7,15.8,5.7c9.7,0,16.9-3.9,21.7-11.7c0.5,3.6,1.7,6.3,3.4,8.1c1.7,1.8,4.2,3,7.4,3.6
		l1.7-5.5C117.8,88,116.3,86.8,115.4,85.2z M106.3,75.8C101.8,84,95.3,88,87,88.1c-4.6,0-8.2-1.3-10.8-3.9
		c-2.6-2.6-3.9-6.3-3.9-11.1c0-5.5,1.9-9.6,5.6-12.4c3.8-2.7,9.2-4.1,16.3-4.1h12.1V75.8z"/>
	<path class="st0" d="M166.3,21.7c-4.9,0-9.3,1.1-13.2,3.5c-3.9,2.4-7.3,5.6-10.1,9.8l-0.8-11.9h-6.7v69.7h7.7V42.3
		c3.1-4.7,6.4-8.3,9.8-10.7c3.4-2.5,7.4-3.7,11.8-3.7c4.4,0,7.7,1.3,9.9,3.9c2.2,2.6,3.3,6.7,3.3,12.3v48.7h7.7V43
		c0-6.7-1.7-12-5-15.7C177.4,23.5,172.6,21.7,166.3,21.7z"/>
	<path class="st0" d="M239.4,86.1c-2.6,1-5.4,1.5-8.5,1.5c-6.6,0-11.8-2.4-15.7-7.3c-3.9-4.9-5.8-12.2-5.8-21.9
		c0-9.8,2-17.2,5.9-22.3c3.9-5.1,9.1-7.7,15.7-7.7c3.1,0,5.9,0.4,8.3,1.3c2.4,0.9,4.8,2.2,7.1,4.1l3.9-5.1c-3-2.5-6-4.3-9.1-5.4
		c-3.2-1.1-6.7-1.6-10.5-1.6c-5.9,0-11.1,1.5-15.5,4.5c-4.4,3.1-7.9,7.3-10.3,12.9c-2.5,5.6-3.7,12-3.7,19.4
		c0,7.5,1.3,13.9,3.7,19.3c2.4,5.4,5.9,9.5,10.3,12.3c4.5,2.9,9.6,4.3,15.6,4.3c7.5,0,14.1-2.5,20-7.5l-3.7-5.2
		C244.5,83.7,241.9,85.1,239.4,86.1z"/>
	<path class="st0" d="M282.5,21.6c-5.6,0-10.5,1.5-14.7,4.6c-4.2,3-7.4,7.3-9.7,12.9c-2.3,5.6-3.4,12-3.4,19.4
		c0,11.1,2.7,19.9,7.9,26.2s12.5,9.5,21.7,9.5c4.4,0,8.5-0.7,12.1-2.1c3.7-1.4,7.2-3.6,10.7-6.4l-3.6-4.9c-3.3,2.4-6.3,4.2-9.1,5.3
		c-2.8,1.1-6.1,1.7-9.7,1.7c-6.4,0-11.4-2.2-15.3-6.6c-3.9-4.4-6.1-11.1-6.5-20.2h46.5c0.2-1.8,0.2-3.7,0.3-5.7
		c0-10.5-2.3-18.7-6.9-24.7C298.1,24.6,291.4,21.6,282.5,21.6z M301.9,53v2.1h-39.2c0.4-9.1,2.3-15.9,5.9-20.3
		c3.6-4.5,8.2-6.7,14-6.7c6.4,0,11.3,2.2,14.5,6.6C300.4,39.1,302,45.2,301.9,53L301.9,53z"/>
	<path class="st0" d="M352.1,21.6c-4.8,0-8.9,1.4-12.1,4.2c-3.3,2.8-5.8,7.1-7.7,12.9l-0.7-15.6h-6.7v69.7h7.7V50.2
		c2-7.3,4.4-12.7,7.3-16.1c2.9-3.4,6.7-5.1,11.4-5.1c2.1,0,4.1,0.3,6.1,0.8l1.5-7.3C357.1,21.9,354.8,21.7,352.1,21.6z"/>
</g>
</svg>
